%FSLAX25Y25*%
%MOIN*%
G70*
G01*
G75*
G04 Layer_Color=32896*
%ADD10C,0.00787*%
%ADD11C,0.01378*%
%ADD12C,0.01969*%
%ADD13C,0.02756*%
%ADD14C,0.02953*%
%ADD15C,0.01181*%
%ADD16C,0.01575*%
%ADD17O,0.05315X0.01575*%
G04:AMPARAMS|DCode=18|XSize=118.11mil|YSize=35.43mil|CornerRadius=8.86mil|HoleSize=0mil|Usage=FLASHONLY|Rotation=90.000|XOffset=0mil|YOffset=0mil|HoleType=Round|Shape=RoundedRectangle|*
%AMROUNDEDRECTD18*
21,1,0.11811,0.01772,0,0,90.0*
21,1,0.10039,0.03543,0,0,90.0*
1,1,0.01772,0.00886,0.05020*
1,1,0.01772,0.00886,-0.05020*
1,1,0.01772,-0.00886,-0.05020*
1,1,0.01772,-0.00886,0.05020*
%
%ADD18ROUNDEDRECTD18*%
%ADD19O,0.01378X0.06693*%
%ADD20R,0.11811X0.11811*%
%ADD21C,0.05906*%
G04:AMPARAMS|DCode=22|XSize=59.06mil|YSize=68.9mil|CornerRadius=14.76mil|HoleSize=0mil|Usage=FLASHONLY|Rotation=270.000|XOffset=0mil|YOffset=0mil|HoleType=Round|Shape=RoundedRectangle|*
%AMROUNDEDRECTD22*
21,1,0.05906,0.03937,0,0,270.0*
21,1,0.02953,0.06890,0,0,270.0*
1,1,0.02953,-0.01969,-0.01476*
1,1,0.02953,-0.01969,0.01476*
1,1,0.02953,0.01969,0.01476*
1,1,0.02953,0.01969,-0.01476*
%
%ADD22ROUNDEDRECTD22*%
%ADD23R,0.06890X0.05906*%
%ADD24R,0.03347X0.04134*%
%ADD25R,0.05906X0.07087*%
%ADD26R,0.03937X0.03937*%
%ADD27C,0.03937*%
G04:AMPARAMS|DCode=28|XSize=59.06mil|YSize=47.24mil|CornerRadius=11.81mil|HoleSize=0mil|Usage=FLASHONLY|Rotation=90.000|XOffset=0mil|YOffset=0mil|HoleType=Round|Shape=RoundedRectangle|*
%AMROUNDEDRECTD28*
21,1,0.05906,0.02362,0,0,90.0*
21,1,0.03543,0.04724,0,0,90.0*
1,1,0.02362,0.01181,0.01772*
1,1,0.02362,0.01181,-0.01772*
1,1,0.02362,-0.01181,-0.01772*
1,1,0.02362,-0.01181,0.01772*
%
%ADD28ROUNDEDRECTD28*%
%ADD29R,0.05512X0.07874*%
%ADD30R,0.08661X0.09449*%
%ADD31R,0.06299X0.15748*%
%ADD32R,0.07480X0.08976*%
%ADD33R,0.07087X0.03937*%
%ADD34R,0.03937X0.03937*%
%ADD35R,0.06693X0.09449*%
%ADD36R,0.07087X0.13780*%
%ADD37R,0.02480X0.03268*%
%ADD38R,0.03937X0.07874*%
%ADD39O,0.06693X0.01181*%
%ADD40O,0.01181X0.06693*%
%ADD41C,0.03937*%
%ADD42O,0.07874X0.04921*%
%ADD43C,0.04134*%
%ADD44R,0.06102X0.06102*%
%ADD45C,0.06102*%
%ADD46C,0.05315*%
%ADD47R,0.05315X0.05315*%
%ADD48C,0.02362*%
%ADD49C,0.00591*%
%ADD50R,0.02874X0.01181*%
%ADD51R,0.01181X0.02874*%
%ADD52R,0.09843X0.09843*%
%ADD53R,0.05512X0.02362*%
%ADD54O,0.07008X0.02362*%
%ADD55O,0.02362X0.07008*%
%ADD56R,0.00394X0.00394*%
%ADD57C,0.00984*%
%ADD58C,0.01000*%
%ADD59C,0.00394*%
%ADD60C,0.02362*%
%ADD61O,0.06102X0.02362*%
G04:AMPARAMS|DCode=62|XSize=125.98mil|YSize=43.31mil|CornerRadius=12.8mil|HoleSize=0mil|Usage=FLASHONLY|Rotation=90.000|XOffset=0mil|YOffset=0mil|HoleType=Round|Shape=RoundedRectangle|*
%AMROUNDEDRECTD62*
21,1,0.12598,0.01772,0,0,90.0*
21,1,0.10039,0.04331,0,0,90.0*
1,1,0.02559,0.00886,0.05020*
1,1,0.02559,0.00886,-0.05020*
1,1,0.02559,-0.00886,-0.05020*
1,1,0.02559,-0.00886,0.05020*
%
%ADD62ROUNDEDRECTD62*%
%ADD63O,0.02165X0.07480*%
%ADD64R,0.12598X0.12598*%
%ADD65C,0.06693*%
G04:AMPARAMS|DCode=66|XSize=66.93mil|YSize=76.77mil|CornerRadius=18.7mil|HoleSize=0mil|Usage=FLASHONLY|Rotation=270.000|XOffset=0mil|YOffset=0mil|HoleType=Round|Shape=RoundedRectangle|*
%AMROUNDEDRECTD66*
21,1,0.06693,0.03937,0,0,270.0*
21,1,0.02953,0.07677,0,0,270.0*
1,1,0.03740,-0.01969,-0.01476*
1,1,0.03740,-0.01969,0.01476*
1,1,0.03740,0.01969,0.01476*
1,1,0.03740,0.01969,-0.01476*
%
%ADD66ROUNDEDRECTD66*%
%ADD67R,0.07677X0.06693*%
%ADD68R,0.04134X0.04921*%
%ADD69R,0.06693X0.07874*%
%ADD70R,0.04724X0.04724*%
%ADD71C,0.04724*%
G04:AMPARAMS|DCode=72|XSize=66.93mil|YSize=55.12mil|CornerRadius=15.75mil|HoleSize=0mil|Usage=FLASHONLY|Rotation=90.000|XOffset=0mil|YOffset=0mil|HoleType=Round|Shape=RoundedRectangle|*
%AMROUNDEDRECTD72*
21,1,0.06693,0.02362,0,0,90.0*
21,1,0.03543,0.05512,0,0,90.0*
1,1,0.03150,0.01181,0.01772*
1,1,0.03150,0.01181,-0.01772*
1,1,0.03150,-0.01181,-0.01772*
1,1,0.03150,-0.01181,0.01772*
%
%ADD72ROUNDEDRECTD72*%
%ADD73R,0.06299X0.08661*%
%ADD74R,0.09449X0.10236*%
%ADD75R,0.07087X0.16535*%
%ADD76R,0.08268X0.09764*%
%ADD77R,0.07874X0.04724*%
%ADD78R,0.04724X0.04724*%
%ADD79R,0.07480X0.10236*%
%ADD80R,0.07874X0.14567*%
%ADD81R,0.03268X0.04055*%
%ADD82R,0.04724X0.08661*%
%ADD83O,0.07480X0.01969*%
%ADD84O,0.01969X0.07480*%
%ADD85O,0.08661X0.05709*%
%ADD86C,0.04921*%
%ADD87C,0.00787*%
%ADD88R,0.06890X0.06890*%
%ADD89C,0.06890*%
%ADD90R,0.18701X0.05512*%
%ADD91R,0.03661X0.01969*%
%ADD92R,0.01969X0.03661*%
%ADD93R,0.10630X0.10630*%
%ADD94R,0.06299X0.03150*%
%ADD95O,0.07795X0.03150*%
%ADD96O,0.03150X0.07795*%
%ADD97R,0.01181X0.01181*%
G36*
X52993Y27801D02*
X53028Y27715D01*
X53025Y27714D01*
X53560Y24927D01*
X53596Y24841D01*
X53653Y24817D01*
X55987Y23850D01*
X56045Y23827D01*
X56130Y23862D01*
X56129Y23865D01*
X58478Y25458D01*
X58563Y25493D01*
X58678Y25446D01*
X58670Y25437D01*
X60687Y23437D01*
X60734Y23322D01*
X60699Y23237D01*
X60696Y23238D01*
X59103Y20889D01*
X59068Y20804D01*
X59091Y20746D01*
X60058Y18412D01*
X60082Y18354D01*
X60168Y18319D01*
X60168Y18322D01*
X62956Y17787D01*
X63042Y17752D01*
X63089Y17637D01*
X63077D01*
X63089Y14797D01*
Y14797D01*
X63042Y14682D01*
X62956Y14646D01*
X62955Y14649D01*
X60168Y14115D01*
X60082Y14079D01*
X60058Y14022D01*
X60058D01*
X59091Y11687D01*
X59068Y11630D01*
X59103Y11544D01*
X59106Y11546D01*
X60699Y9197D01*
X60734Y9111D01*
X60687Y8996D01*
X60678Y9005D01*
X58678Y6988D01*
X58563Y6940D01*
X58478Y6976D01*
X58479Y6978D01*
X56130Y8571D01*
X56045Y8607D01*
X55987Y8583D01*
X54918Y8140D01*
X54861Y8117D01*
X54746Y8164D01*
X54722Y8222D01*
X52754Y13042D01*
X52731Y13099D01*
X52778Y13214D01*
X52830Y13235D01*
X52831Y13233D01*
X53113Y13350D01*
X53799Y13876D01*
X54325Y14561D01*
X54656Y15360D01*
X54769Y16217D01*
X54656Y17074D01*
X54325Y17872D01*
X53799Y18558D01*
X53113Y19084D01*
X52315Y19415D01*
X51458Y19528D01*
X50601Y19415D01*
X49802Y19084D01*
X49117Y18558D01*
X48591Y17872D01*
X48260Y17074D01*
X48147Y16217D01*
X48260Y15360D01*
X48591Y14561D01*
X49117Y13876D01*
X49802Y13350D01*
X50084Y13233D01*
X50085Y13235D01*
X50138Y13214D01*
X50185Y13099D01*
X50161Y13042D01*
X48194Y8222D01*
X48170Y8164D01*
X48055Y8117D01*
X47997Y8140D01*
X46929Y8583D01*
X46871Y8607D01*
X46785Y8571D01*
X46787Y8569D01*
X44438Y6976D01*
X44352Y6940D01*
X44237Y6988D01*
X44246Y6997D01*
X42229Y8996D01*
X42181Y9111D01*
X42217Y9197D01*
X42219Y9195D01*
X43813Y11544D01*
X43848Y11630D01*
X43824Y11687D01*
X42857Y14022D01*
X42834Y14079D01*
X42748Y14115D01*
X42747Y14112D01*
X39960Y14646D01*
X39874Y14682D01*
X39826Y14797D01*
X39839D01*
X39826Y17637D01*
X39874Y17752D01*
X39960Y17787D01*
X39960Y17784D01*
X42748Y18319D01*
X42834Y18354D01*
X42857Y18412D01*
X42857D01*
X43824Y20746D01*
X43848Y20804D01*
X43813Y20889D01*
X43810Y20888D01*
X42217Y23237D01*
X42181Y23322D01*
X42229Y23437D01*
X42238Y23428D01*
X44237Y25446D01*
X44352Y25493D01*
X44438Y25458D01*
X44436Y25455D01*
X46785Y23862D01*
X46871Y23827D01*
X46929Y23850D01*
X49263Y24817D01*
X49320Y24841D01*
X49356Y24927D01*
X49353Y24927D01*
X49887Y27715D01*
X49923Y27801D01*
X50038Y27848D01*
X50038D01*
Y27836D01*
X52878Y27848D01*
X52878D01*
X52993Y27801D01*
D02*
G37*
D10*
X156575Y98213D02*
Y99787D01*
X153425Y98213D02*
Y99787D01*
X151713Y72575D02*
X153287D01*
X151713Y69425D02*
X153287D01*
X67520Y48854D02*
Y52004D01*
Y48854D02*
X69095D01*
X67520Y57516D02*
Y60665D01*
X69095D01*
X11425Y45213D02*
Y46787D01*
X14575Y45213D02*
Y46787D01*
X103100Y88300D02*
Y89700D01*
X99900Y88300D02*
Y89700D01*
X79134Y72835D02*
X86221D01*
Y92520D01*
X79134Y72835D02*
Y92520D01*
X86221D01*
X99900Y75300D02*
Y76700D01*
X103100Y75300D02*
Y76700D01*
X55315Y77433D02*
Y79008D01*
X58465Y77433D02*
Y79008D01*
X61874Y77433D02*
Y79008D01*
X65024Y77433D02*
Y79008D01*
X62657Y126327D02*
Y133413D01*
Y126327D02*
X82342D01*
X62657Y133413D02*
X82342D01*
Y126327D02*
Y133413D01*
X45509Y154300D02*
X48909D01*
X45509Y160700D02*
X48909D01*
X76213Y111075D02*
X77787D01*
X76213Y107925D02*
X77787D01*
X20457Y54658D02*
X27543D01*
X20457D02*
Y74343D01*
X27543Y54658D02*
Y74343D01*
X20457D02*
X27543D01*
X116020Y119095D02*
X117595D01*
X116020D02*
Y122244D01*
Y130905D02*
X117595D01*
X116020Y127756D02*
Y130905D01*
X134100Y124300D02*
Y125700D01*
X130900Y124300D02*
Y125700D01*
X26327Y107256D02*
X29673D01*
X26327Y101744D02*
X29673D01*
X77213Y160075D02*
X78787D01*
X77213Y156925D02*
X78787D01*
X27575Y45213D02*
Y46787D01*
X24425Y45213D02*
Y46787D01*
X17900Y45300D02*
Y46700D01*
X21100Y45300D02*
Y46700D01*
X34100Y45300D02*
Y46700D01*
X30900Y45300D02*
Y46700D01*
X146925Y98213D02*
Y99787D01*
X150075Y98213D02*
Y99787D01*
X140425Y98213D02*
Y99787D01*
X143575Y98213D02*
Y99787D01*
X133900Y98300D02*
Y99700D01*
X137100Y98300D02*
Y99700D01*
D49*
X37535Y120535D02*
Y122996D01*
Y120535D02*
X39996D01*
X52004D02*
X54465D01*
Y122996D01*
Y135004D02*
Y137465D01*
X52004D02*
X54465D01*
X37535Y135004D02*
Y137465D01*
X39996D01*
X20850Y115244D02*
Y120756D01*
X27150Y115244D02*
Y120756D01*
X49047Y116731D02*
Y113451D01*
X48391Y112795D01*
X47079D01*
X46423Y113451D01*
Y116731D01*
X45111D02*
X42487D01*
Y116075D01*
X45111Y113451D01*
Y112795D01*
X75394Y46455D02*
Y43176D01*
X74738Y42520D01*
X73426D01*
X72770Y43176D01*
Y46455D01*
X68834Y42520D02*
X71458D01*
X68834Y45143D01*
Y45799D01*
X69490Y46455D01*
X70802D01*
X71458Y45799D01*
X27500Y80436D02*
Y77156D01*
X26844Y76500D01*
X25532D01*
X24876Y77156D01*
Y80436D01*
X20940D02*
X23564D01*
Y78468D01*
X22252Y79124D01*
X21596D01*
X20940Y78468D01*
Y77156D01*
X21596Y76500D01*
X22908D01*
X23564Y77156D01*
X30500Y28500D02*
X34436D01*
Y30468D01*
X33780Y31124D01*
X32468D01*
X31812Y30468D01*
Y28500D01*
Y29812D02*
X30500Y31124D01*
Y32436D02*
Y33748D01*
Y33092D01*
X34436D01*
X33780Y32436D01*
Y35715D02*
X34436Y36371D01*
Y37683D01*
X33780Y38339D01*
X31156D01*
X30500Y37683D01*
Y36371D01*
X31156Y35715D01*
X33780D01*
X17520Y28543D02*
X21455D01*
Y30511D01*
X20799Y31167D01*
X19488D01*
X18832Y30511D01*
Y28543D01*
Y29855D02*
X17520Y31167D01*
X18176Y32479D02*
X17520Y33135D01*
Y34447D01*
X18176Y35103D01*
X20799D01*
X21455Y34447D01*
Y33135D01*
X20799Y32479D01*
X20143D01*
X19488Y33135D01*
Y35103D01*
X143500Y123000D02*
Y126936D01*
X141532D01*
X140876Y126280D01*
Y124968D01*
X141532Y124312D01*
X143500D01*
X142188D02*
X140876Y123000D01*
X136940D02*
X139564D01*
X136940Y125624D01*
Y126280D01*
X137596Y126936D01*
X138908D01*
X139564Y126280D01*
X133661Y84646D02*
X137597D01*
Y86614D01*
X136941Y87270D01*
X135629D01*
X134973Y86614D01*
Y84646D01*
Y85958D02*
X133661Y87270D01*
Y88581D02*
Y89893D01*
Y89237D01*
X137597D01*
X136941Y88581D01*
X24148Y131888D02*
X26772D01*
Y129921D01*
X25460D01*
X26772D01*
Y127953D01*
X22836D02*
X21524D01*
X22180D01*
Y131888D01*
X22836Y131233D01*
X30187Y99436D02*
Y95500D01*
X28220D01*
X27564Y96156D01*
Y98780D01*
X28220Y99436D01*
X30187D01*
X23628Y95500D02*
X26252D01*
X23628Y98124D01*
Y98780D01*
X24284Y99436D01*
X25596D01*
X26252Y98780D01*
X92376Y110780D02*
X93032Y111436D01*
X94344D01*
X95000Y110780D01*
Y108156D01*
X94344Y107500D01*
X93032D01*
X92376Y108156D01*
X91064Y107500D02*
X89752D01*
X90408D01*
Y111436D01*
X91064Y110780D01*
X87784Y108156D02*
X87129Y107500D01*
X85817D01*
X85161Y108156D01*
Y110780D01*
X85817Y111436D01*
X87129D01*
X87784Y110780D01*
Y110124D01*
X87129Y109468D01*
X85161D01*
X14280Y31124D02*
X14936Y30468D01*
Y29156D01*
X14280Y28500D01*
X11656D01*
X11000Y29156D01*
Y30468D01*
X11656Y31124D01*
X11000Y32436D02*
Y33748D01*
Y33092D01*
X14936D01*
X14280Y32436D01*
X14936Y35715D02*
Y38339D01*
X14280D01*
X11656Y35715D01*
X11000D01*
X27780Y31124D02*
X28436Y30468D01*
Y29156D01*
X27780Y28500D01*
X25156D01*
X24500Y29156D01*
Y30468D01*
X25156Y31124D01*
X24500Y32436D02*
Y33748D01*
Y33092D01*
X28436D01*
X27780Y32436D01*
X28436Y38339D02*
X27780Y37027D01*
X26468Y35715D01*
X25156D01*
X24500Y36371D01*
Y37683D01*
X25156Y38339D01*
X25812D01*
X26468Y37683D01*
Y35715D01*
X64894Y90025D02*
X65550Y89369D01*
Y88058D01*
X64894Y87402D01*
X62270D01*
X61614Y88058D01*
Y89369D01*
X62270Y90025D01*
X61614Y91337D02*
Y92649D01*
Y91993D01*
X65550D01*
X64894Y91337D01*
Y94617D02*
X65550Y95273D01*
Y96585D01*
X64894Y97241D01*
X62270D01*
X61614Y96585D01*
Y95273D01*
X62270Y94617D01*
X64894D01*
X156429Y87073D02*
X157085Y86417D01*
Y85105D01*
X156429Y84449D01*
X153806D01*
X153150Y85105D01*
Y86417D01*
X153806Y87073D01*
X153150Y91008D02*
Y88385D01*
X155773Y91008D01*
X156429D01*
X157085Y90352D01*
Y89040D01*
X156429Y88385D01*
X143437Y87270D02*
X144093Y86614D01*
Y85302D01*
X143437Y84646D01*
X140813D01*
X140157Y85302D01*
Y86614D01*
X140813Y87270D01*
X140157Y88581D02*
Y89893D01*
Y89237D01*
X144093D01*
X143437Y88581D01*
X153282Y66075D02*
X153938Y66731D01*
X155250D01*
X155905Y66075D01*
Y63451D01*
X155250Y62795D01*
X153938D01*
X153282Y63451D01*
X149346Y66731D02*
X151970D01*
Y64763D01*
X150658Y65419D01*
X150002D01*
X149346Y64763D01*
Y63451D01*
X150002Y62795D01*
X151314D01*
X151970Y63451D01*
X94227Y159776D02*
X94883Y160432D01*
X96194D01*
X96850Y159776D01*
Y157152D01*
X96194Y156496D01*
X94883D01*
X94227Y157152D01*
X90291Y156496D02*
X92915D01*
X90291Y159120D01*
Y159776D01*
X90947Y160432D01*
X92259D01*
X92915Y159776D01*
X88979D02*
X88323Y160432D01*
X87011D01*
X86355Y159776D01*
Y157152D01*
X87011Y156496D01*
X88323D01*
X88979Y157152D01*
Y159776D01*
X58398Y90222D02*
X59054Y89566D01*
Y88254D01*
X58398Y87598D01*
X55774D01*
X55118Y88254D01*
Y89566D01*
X55774Y90222D01*
Y91534D02*
X55118Y92190D01*
Y93502D01*
X55774Y94158D01*
X58398D01*
X59054Y93502D01*
Y92190D01*
X58398Y91534D01*
X57742D01*
X57086Y92190D01*
Y94158D01*
X91732Y137597D02*
Y134317D01*
X91076Y133661D01*
X89764D01*
X89109Y134317D01*
Y137597D01*
X85173D02*
X86485Y136941D01*
X87796Y135629D01*
Y134317D01*
X87141Y133661D01*
X85829D01*
X85173Y134317D01*
Y134973D01*
X85829Y135629D01*
X87796D01*
X86000Y99436D02*
Y96156D01*
X85344Y95500D01*
X84032D01*
X83376Y96156D01*
Y99436D01*
X82064Y98780D02*
X81408Y99436D01*
X80096D01*
X79440Y98780D01*
Y98124D01*
X80096Y97468D01*
X80752D01*
X80096D01*
X79440Y96812D01*
Y96156D01*
X80096Y95500D01*
X81408D01*
X82064Y96156D01*
X35630Y155118D02*
Y159054D01*
X33662D01*
X33006Y158398D01*
Y157086D01*
X33662Y156430D01*
X35630D01*
X34318D02*
X33006Y155118D01*
X31694D02*
X30382D01*
X31038D01*
Y159054D01*
X31694Y158398D01*
X25791Y155118D02*
X28414D01*
X25791Y157742D01*
Y158398D01*
X26447Y159054D01*
X27758D01*
X28414Y158398D01*
X112500Y86500D02*
Y90436D01*
X110532D01*
X109876Y89780D01*
Y88468D01*
X110532Y87812D01*
X112500D01*
X111188D02*
X109876Y86500D01*
X105940Y90436D02*
X107252Y89780D01*
X108564Y88468D01*
Y87156D01*
X107908Y86500D01*
X106596D01*
X105940Y87156D01*
Y87812D01*
X106596Y88468D01*
X108564D01*
X112500Y73500D02*
Y77436D01*
X110532D01*
X109876Y76780D01*
Y75468D01*
X110532Y74812D01*
X112500D01*
X111188D02*
X109876Y73500D01*
X105940Y77436D02*
X108564D01*
Y75468D01*
X107252Y76124D01*
X106596D01*
X105940Y75468D01*
Y74156D01*
X106596Y73500D01*
X107908D01*
X108564Y74156D01*
X90488Y59500D02*
Y63436D01*
X88520D01*
X87864Y62780D01*
Y61468D01*
X88520Y60812D01*
X90488D01*
X89176D02*
X87864Y59500D01*
X84585D02*
Y63436D01*
X86552Y61468D01*
X83929D01*
X116152Y133656D02*
Y136280D01*
X116808Y136936D01*
X118120D01*
X118776Y136280D01*
Y133656D01*
X118120Y133000D01*
X116808D01*
X117464Y134312D02*
X116152Y133000D01*
X116808D02*
X116152Y133656D01*
X114840Y133000D02*
X113528D01*
X114184D01*
Y136936D01*
X114840Y136280D01*
X149933Y87073D02*
X150589Y86417D01*
Y85105D01*
X149933Y84449D01*
X147310D01*
X146653Y85105D01*
Y86417D01*
X147310Y87073D01*
X149933Y88385D02*
X150589Y89040D01*
Y90352D01*
X149933Y91008D01*
X149277D01*
X148621Y90352D01*
Y89697D01*
Y90352D01*
X147966Y91008D01*
X147310D01*
X146653Y90352D01*
Y89040D01*
X147310Y88385D01*
X122047Y9055D02*
X120735D01*
X121391D01*
Y12991D01*
X122047Y12335D01*
X118767D02*
X118112Y12991D01*
X116800D01*
X116144Y12335D01*
Y11679D01*
X116800Y11023D01*
X116144Y10367D01*
Y9711D01*
X116800Y9055D01*
X118112D01*
X118767Y9711D01*
Y10367D01*
X118112Y11023D01*
X118767Y11679D01*
Y12335D01*
X118112Y11023D02*
X116800D01*
X114832Y9055D02*
Y9711D01*
X114176D01*
Y9055D01*
X114832D01*
X111552Y12335D02*
X110896Y12991D01*
X109584D01*
X108928Y12335D01*
Y9711D01*
X109584Y9055D01*
X110896D01*
X111552Y9711D01*
Y12335D01*
X107616Y9711D02*
X106960Y9055D01*
X105648D01*
X104992Y9711D01*
Y12335D01*
X105648Y12991D01*
X106960D01*
X107616Y12335D01*
Y11679D01*
X106960Y11023D01*
X104992D01*
X103681Y9055D02*
Y9711D01*
X103024D01*
Y9055D01*
X103681D01*
X97777D02*
X100401D01*
X97777Y11679D01*
Y12335D01*
X98433Y12991D01*
X99745D01*
X100401Y12335D01*
X96465D02*
X95809Y12991D01*
X94497D01*
X93841Y12335D01*
Y9711D01*
X94497Y9055D01*
X95809D01*
X96465Y9711D01*
Y12335D01*
X92529Y9055D02*
X91217D01*
X91873D01*
Y12991D01*
X92529Y12335D01*
X89249Y9711D02*
X88594Y9055D01*
X87282D01*
X86626Y9711D01*
Y12335D01*
X87282Y12991D01*
X88594D01*
X89249Y12335D01*
Y11679D01*
X88594Y11023D01*
X86626D01*
X120079Y19684D02*
X121391D01*
X122047Y19028D01*
Y16404D01*
X121391Y15748D01*
X120079D01*
X119423Y16404D01*
Y19028D01*
X120079Y19684D01*
X118112Y14436D02*
Y18372D01*
X116144D01*
X115488Y17716D01*
Y16404D01*
X116144Y15748D01*
X118112D01*
X112208D02*
X113520D01*
X114176Y16404D01*
Y17716D01*
X113520Y18372D01*
X112208D01*
X111552Y17716D01*
Y17060D01*
X114176D01*
X110240Y15748D02*
Y18372D01*
X108272D01*
X107616Y17716D01*
Y15748D01*
X102368D02*
Y19684D01*
X99745Y15748D01*
Y19684D01*
X98433Y15748D02*
X97121D01*
X97777D01*
Y18372D01*
X98433D01*
X95153D02*
Y15748D01*
Y17060D01*
X94497Y17716D01*
X93841Y18372D01*
X93185D01*
X91217D02*
Y16404D01*
X90561Y15748D01*
X88594D01*
Y15092D01*
X89249Y14436D01*
X89905D01*
X88594Y15748D02*
Y18372D01*
X86626Y15748D02*
X85314D01*
X84658Y16404D01*
Y17716D01*
X85314Y18372D01*
X86626D01*
X87282Y17716D01*
Y16404D01*
X86626Y15748D01*
X77442Y19684D02*
X78754D01*
X79410Y19028D01*
Y16404D01*
X78754Y15748D01*
X77442D01*
X76786Y16404D01*
Y19028D01*
X77442Y19684D01*
X75474Y15748D02*
Y18372D01*
X73506D01*
X72851Y17716D01*
Y15748D01*
X69571D02*
X70883D01*
X71539Y16404D01*
Y17716D01*
X70883Y18372D01*
X69571D01*
X68915Y17716D01*
Y17060D01*
X71539D01*
X106825Y68044D02*
X107481Y68700D01*
X108793D01*
X109449Y68044D01*
Y65420D01*
X108793Y64764D01*
X107481D01*
X106825Y65420D01*
X102889Y68044D02*
X103545Y68700D01*
X104857D01*
X105513Y68044D01*
Y65420D01*
X104857Y64764D01*
X103545D01*
X102889Y65420D01*
X101577Y68700D02*
Y64764D01*
X100265Y66076D01*
X98953Y64764D01*
Y68700D01*
X73754Y68634D02*
X74410Y69290D01*
X75722D01*
X76378Y68634D01*
Y66010D01*
X75722Y65354D01*
X74410D01*
X73754Y66010D01*
X72442Y69290D02*
Y65354D01*
X71130Y66666D01*
X69818Y65354D01*
Y69290D01*
X119423Y24933D02*
X120079Y25589D01*
X121391D01*
X122047Y24933D01*
Y24277D01*
X121391Y23621D01*
X120079D01*
X119423Y22965D01*
Y22309D01*
X120079Y21654D01*
X121391D01*
X122047Y22309D01*
X117455Y24933D02*
Y24277D01*
X118112D01*
X116800D01*
X117455D01*
Y22309D01*
X116800Y21654D01*
X112864D02*
X114176D01*
X114832Y22309D01*
Y23621D01*
X114176Y24277D01*
X112864D01*
X112208Y23621D01*
Y22965D01*
X114832D01*
X110896Y20342D02*
Y24277D01*
X108928D01*
X108272Y23621D01*
Y22309D01*
X108928Y21654D01*
X110896D01*
X106960Y20342D02*
Y24277D01*
X104992D01*
X104336Y23621D01*
Y22309D01*
X104992Y21654D01*
X106960D01*
X101057D02*
X102368D01*
X103024Y22309D01*
Y23621D01*
X102368Y24277D01*
X101057D01*
X100401Y23621D01*
Y22965D01*
X103024D01*
X99089Y24277D02*
Y21654D01*
Y22965D01*
X98433Y23621D01*
X97777Y24277D01*
X97121D01*
X91217Y21654D02*
Y25589D01*
X89249D01*
X88594Y24933D01*
Y23621D01*
X89249Y22965D01*
X91217D01*
X84658Y24933D02*
X85314Y25589D01*
X86626D01*
X87282Y24933D01*
Y22309D01*
X86626Y21654D01*
X85314D01*
X84658Y22309D01*
X83346Y25589D02*
Y21654D01*
X81378D01*
X80722Y22309D01*
Y22965D01*
X81378Y23621D01*
X83346D01*
X81378D01*
X80722Y24277D01*
Y24933D01*
X81378Y25589D01*
X83346D01*
D57*
X35469Y121126D02*
G03*
X35469Y121126I-492J0D01*
G01*
X74311Y61847D02*
G03*
X74311Y61847I-492J0D01*
G01*
X73721Y71831D02*
G03*
X73721Y71831I-492J0D01*
G01*
X83839Y120421D02*
G03*
X83839Y120421I-492J0D01*
G01*
X15043Y53654D02*
G03*
X15043Y53654I-492J0D01*
G01*
X122811Y132087D02*
G03*
X122811Y132087I-492J0D01*
G01*
D59*
X33433Y107315D02*
G03*
X33433Y107315I-197J0D01*
G01*
D60*
X84252Y76772D02*
G03*
X84252Y76772I-1181J0D01*
G01*
X79587Y130264D02*
G03*
X79587Y130264I-1181J0D01*
G01*
X25575Y58595D02*
G03*
X25575Y58595I-1181J0D01*
G01*
M02*
