%FSLAX25Y25*%
%MOIN*%
G70*
G01*
G75*
G04 Layer_Color=32896*
%ADD10C,0.00787*%
%ADD11C,0.01378*%
%ADD12C,0.01969*%
%ADD13C,0.02756*%
%ADD14C,0.02953*%
%ADD15C,0.01181*%
%ADD16C,0.01575*%
%ADD17O,0.01378X0.06693*%
%ADD18R,0.11811X0.11811*%
%ADD19C,0.05906*%
G04:AMPARAMS|DCode=20|XSize=59.06mil|YSize=68.9mil|CornerRadius=14.76mil|HoleSize=0mil|Usage=FLASHONLY|Rotation=270.000|XOffset=0mil|YOffset=0mil|HoleType=Round|Shape=RoundedRectangle|*
%AMROUNDEDRECTD20*
21,1,0.05906,0.03937,0,0,270.0*
21,1,0.02953,0.06890,0,0,270.0*
1,1,0.02953,-0.01969,-0.01476*
1,1,0.02953,-0.01969,0.01476*
1,1,0.02953,0.01969,0.01476*
1,1,0.02953,0.01969,-0.01476*
%
%ADD20ROUNDEDRECTD20*%
%ADD21R,0.06890X0.05906*%
%ADD22R,0.03347X0.04134*%
%ADD23R,0.05906X0.07087*%
%ADD24R,0.03937X0.03937*%
%ADD25C,0.03937*%
G04:AMPARAMS|DCode=26|XSize=59.06mil|YSize=47.24mil|CornerRadius=11.81mil|HoleSize=0mil|Usage=FLASHONLY|Rotation=90.000|XOffset=0mil|YOffset=0mil|HoleType=Round|Shape=RoundedRectangle|*
%AMROUNDEDRECTD26*
21,1,0.05906,0.02362,0,0,90.0*
21,1,0.03543,0.04724,0,0,90.0*
1,1,0.02362,0.01181,0.01772*
1,1,0.02362,0.01181,-0.01772*
1,1,0.02362,-0.01181,-0.01772*
1,1,0.02362,-0.01181,0.01772*
%
%ADD26ROUNDEDRECTD26*%
%ADD27R,0.05512X0.07874*%
%ADD28R,0.08661X0.09449*%
%ADD29R,0.06299X0.15748*%
%ADD30R,0.07480X0.08976*%
%ADD31R,0.07087X0.03937*%
%ADD32R,0.03937X0.03937*%
G04:AMPARAMS|DCode=33|XSize=118.11mil|YSize=35.43mil|CornerRadius=8.86mil|HoleSize=0mil|Usage=FLASHONLY|Rotation=90.000|XOffset=0mil|YOffset=0mil|HoleType=Round|Shape=RoundedRectangle|*
%AMROUNDEDRECTD33*
21,1,0.11811,0.01772,0,0,90.0*
21,1,0.10039,0.03543,0,0,90.0*
1,1,0.01772,0.00886,0.05020*
1,1,0.01772,0.00886,-0.05020*
1,1,0.01772,-0.00886,-0.05020*
1,1,0.01772,-0.00886,0.05020*
%
%ADD33ROUNDEDRECTD33*%
%ADD34O,0.05315X0.01575*%
%ADD35R,0.06693X0.09449*%
%ADD36R,0.07087X0.13780*%
%ADD37R,0.02480X0.03268*%
%ADD38R,0.03937X0.07874*%
%ADD39O,0.06693X0.01181*%
%ADD40O,0.01181X0.06693*%
%ADD41C,0.03937*%
%ADD42O,0.04724X0.04134*%
%ADD43O,0.07087X0.04921*%
%ADD44O,0.07874X0.04921*%
%ADD45R,0.06102X0.06102*%
%ADD46C,0.06102*%
%ADD47C,0.05315*%
%ADD48R,0.05315X0.05315*%
%ADD49C,0.02362*%
%ADD50C,0.00591*%
%ADD51R,0.02874X0.01181*%
%ADD52R,0.01181X0.02874*%
%ADD53R,0.09843X0.09843*%
%ADD54R,0.05512X0.02362*%
%ADD55O,0.07008X0.02362*%
%ADD56O,0.02362X0.07008*%
%ADD57R,0.00394X0.00394*%
%ADD58C,0.00984*%
%ADD59C,0.01000*%
%ADD60C,0.00394*%
%ADD61C,0.02362*%
%ADD62O,0.02165X0.07480*%
%ADD63R,0.12598X0.12598*%
%ADD64C,0.06693*%
G04:AMPARAMS|DCode=65|XSize=66.93mil|YSize=76.77mil|CornerRadius=18.7mil|HoleSize=0mil|Usage=FLASHONLY|Rotation=270.000|XOffset=0mil|YOffset=0mil|HoleType=Round|Shape=RoundedRectangle|*
%AMROUNDEDRECTD65*
21,1,0.06693,0.03937,0,0,270.0*
21,1,0.02953,0.07677,0,0,270.0*
1,1,0.03740,-0.01969,-0.01476*
1,1,0.03740,-0.01969,0.01476*
1,1,0.03740,0.01969,0.01476*
1,1,0.03740,0.01969,-0.01476*
%
%ADD65ROUNDEDRECTD65*%
%ADD66R,0.07677X0.06693*%
%ADD67R,0.04134X0.04921*%
%ADD68R,0.06693X0.07874*%
%ADD69R,0.04724X0.04724*%
%ADD70C,0.04724*%
G04:AMPARAMS|DCode=71|XSize=66.93mil|YSize=55.12mil|CornerRadius=15.75mil|HoleSize=0mil|Usage=FLASHONLY|Rotation=90.000|XOffset=0mil|YOffset=0mil|HoleType=Round|Shape=RoundedRectangle|*
%AMROUNDEDRECTD71*
21,1,0.06693,0.02362,0,0,90.0*
21,1,0.03543,0.05512,0,0,90.0*
1,1,0.03150,0.01181,0.01772*
1,1,0.03150,0.01181,-0.01772*
1,1,0.03150,-0.01181,-0.01772*
1,1,0.03150,-0.01181,0.01772*
%
%ADD71ROUNDEDRECTD71*%
%ADD72R,0.06299X0.08661*%
%ADD73R,0.09449X0.10236*%
%ADD74R,0.07087X0.16535*%
%ADD75R,0.08268X0.09764*%
%ADD76R,0.07874X0.04724*%
%ADD77R,0.04724X0.04724*%
G04:AMPARAMS|DCode=78|XSize=125.98mil|YSize=43.31mil|CornerRadius=12.8mil|HoleSize=0mil|Usage=FLASHONLY|Rotation=90.000|XOffset=0mil|YOffset=0mil|HoleType=Round|Shape=RoundedRectangle|*
%AMROUNDEDRECTD78*
21,1,0.12598,0.01772,0,0,90.0*
21,1,0.10039,0.04331,0,0,90.0*
1,1,0.02559,0.00886,0.05020*
1,1,0.02559,0.00886,-0.05020*
1,1,0.02559,-0.00886,-0.05020*
1,1,0.02559,-0.00886,0.05020*
%
%ADD78ROUNDEDRECTD78*%
%ADD79O,0.06102X0.02362*%
%ADD80R,0.07480X0.10236*%
%ADD81R,0.07874X0.14567*%
%ADD82R,0.03268X0.04055*%
%ADD83R,0.04724X0.08661*%
%ADD84O,0.07480X0.01969*%
%ADD85O,0.01969X0.07480*%
%ADD86O,0.05512X0.04921*%
%ADD87O,0.07874X0.05709*%
%ADD88O,0.08661X0.05709*%
%ADD89C,0.00787*%
%ADD90R,0.06890X0.06890*%
%ADD91C,0.06890*%
%ADD92R,0.18701X0.05512*%
%ADD93R,0.03661X0.01969*%
%ADD94R,0.01969X0.03661*%
%ADD95R,0.10630X0.10630*%
%ADD96R,0.06299X0.03150*%
%ADD97O,0.07795X0.03150*%
%ADD98O,0.03150X0.07795*%
%ADD99R,0.01181X0.01181*%
G36*
X54638Y27710D02*
X54674Y27624D01*
X54671Y27624D01*
X55206Y24836D01*
X55241Y24750D01*
X55299Y24726D01*
X57633Y23760D01*
X57690Y23736D01*
X57776Y23771D01*
X57774Y23774D01*
X60123Y25367D01*
X60209Y25403D01*
X60324Y25355D01*
X60315Y25346D01*
X62332Y23346D01*
X62380Y23232D01*
X62344Y23146D01*
X62342Y23148D01*
X60749Y20799D01*
X60713Y20713D01*
X60737Y20655D01*
X61704Y18321D01*
X61728Y18264D01*
X61813Y18228D01*
X61814Y18231D01*
X64601Y17697D01*
X64687Y17661D01*
X64735Y17546D01*
X64723D01*
X64735Y14706D01*
Y14706D01*
X64687Y14591D01*
X64601Y14555D01*
X64601Y14559D01*
X61813Y14024D01*
X61728Y13988D01*
X61704Y13931D01*
X61704D01*
X60737Y11597D01*
X60713Y11539D01*
X60749Y11453D01*
X60751Y11455D01*
X62344Y9106D01*
X62380Y9020D01*
X62332Y8906D01*
X62324Y8914D01*
X60324Y6897D01*
X60209Y6850D01*
X60123Y6885D01*
X60125Y6888D01*
X57776Y8481D01*
X57690Y8516D01*
X57633Y8492D01*
X56564Y8050D01*
X56507Y8026D01*
X56392Y8073D01*
X56368Y8132D01*
X54400Y12951D01*
X54376Y13008D01*
X54424Y13123D01*
X54476Y13144D01*
X54477Y13142D01*
X54759Y13259D01*
X55445Y13785D01*
X55971Y14471D01*
X56301Y15269D01*
X56414Y16126D01*
X56301Y16983D01*
X55971Y17781D01*
X55445Y18467D01*
X54759Y18993D01*
X53960Y19324D01*
X53103Y19437D01*
X52246Y19324D01*
X51448Y18993D01*
X50762Y18467D01*
X50236Y17781D01*
X49905Y16983D01*
X49793Y16126D01*
X49905Y15269D01*
X50236Y14471D01*
X50762Y13785D01*
X51448Y13259D01*
X51730Y13142D01*
X51731Y13144D01*
X51783Y13123D01*
X51831Y13008D01*
X51807Y12951D01*
X49839Y8132D01*
X49815Y8073D01*
X49700Y8026D01*
X49643Y8050D01*
X48574Y8492D01*
X48517Y8516D01*
X48431Y8481D01*
X48433Y8478D01*
X46084Y6885D01*
X45998Y6850D01*
X45883Y6897D01*
X45892Y6906D01*
X43874Y8906D01*
X43827Y9020D01*
X43863Y9106D01*
X43865Y9104D01*
X45458Y11453D01*
X45494Y11539D01*
X45470Y11597D01*
X44503Y13931D01*
X44479Y13988D01*
X44393Y14024D01*
X44393Y14021D01*
X41605Y14555D01*
X41520Y14591D01*
X41472Y14706D01*
X41484D01*
X41472Y17546D01*
X41520Y17661D01*
X41605Y17697D01*
X41606Y17694D01*
X44393Y18228D01*
X44479Y18264D01*
X44503Y18321D01*
X44503D01*
X45470Y20655D01*
X45494Y20713D01*
X45458Y20799D01*
X45456Y20797D01*
X43863Y23146D01*
X43827Y23232D01*
X43874Y23346D01*
X43883Y23338D01*
X45883Y25355D01*
X45998Y25403D01*
X46084Y25367D01*
X46082Y25364D01*
X48431Y23771D01*
X48517Y23736D01*
X48574Y23760D01*
X50908Y24726D01*
X50966Y24750D01*
X51001Y24836D01*
X50998Y24837D01*
X51533Y27624D01*
X51568Y27710D01*
X51683Y27757D01*
X51683D01*
Y27745D01*
X54524Y27757D01*
X54524D01*
X54638Y27710D01*
D02*
G37*
D10*
X156575Y98213D02*
Y99787D01*
X153425Y98213D02*
Y99787D01*
X151713Y72575D02*
X153287D01*
X151713Y69425D02*
X153287D01*
X67520Y48854D02*
Y52004D01*
Y48854D02*
X69095D01*
X67520Y57516D02*
Y60665D01*
X69095D01*
X11425Y45213D02*
Y46787D01*
X14575Y45213D02*
Y46787D01*
X103100Y88300D02*
Y89700D01*
X99900Y88300D02*
Y89700D01*
X79134Y72835D02*
X86221D01*
Y92520D01*
X79134Y72835D02*
Y92520D01*
X86221D01*
X99900Y75300D02*
Y76700D01*
X103100Y75300D02*
Y76700D01*
X55315Y77433D02*
Y79008D01*
X58465Y77433D02*
Y79008D01*
X61874Y77433D02*
Y79008D01*
X65024Y77433D02*
Y79008D01*
X62657Y126327D02*
Y133413D01*
Y126327D02*
X82342D01*
X62657Y133413D02*
X82342D01*
Y126327D02*
Y133413D01*
X45509Y154300D02*
X48909D01*
X45509Y160700D02*
X48909D01*
X76213Y111075D02*
X77787D01*
X76213Y107925D02*
X77787D01*
X20457Y54658D02*
X27543D01*
X20457D02*
Y74343D01*
X27543Y54658D02*
Y74343D01*
X20457D02*
X27543D01*
X116020Y119095D02*
X117595D01*
X116020D02*
Y122244D01*
Y130905D02*
X117595D01*
X116020Y127756D02*
Y130905D01*
X134100Y124300D02*
Y125700D01*
X130900Y124300D02*
Y125700D01*
X26327Y107256D02*
X29673D01*
X26327Y101744D02*
X29673D01*
X77213Y160075D02*
X78787D01*
X77213Y156925D02*
X78787D01*
X27575Y45213D02*
Y46787D01*
X24425Y45213D02*
Y46787D01*
X17900Y45300D02*
Y46700D01*
X21100Y45300D02*
Y46700D01*
X34100Y45300D02*
Y46700D01*
X30900Y45300D02*
Y46700D01*
X146925Y98213D02*
Y99787D01*
X150075Y98213D02*
Y99787D01*
X140425Y98213D02*
Y99787D01*
X143575Y98213D02*
Y99787D01*
X133900Y98300D02*
Y99700D01*
X137100Y98300D02*
Y99700D01*
D50*
X37535Y120535D02*
Y122996D01*
Y120535D02*
X39996D01*
X52004D02*
X54465D01*
Y122996D01*
Y135004D02*
Y137465D01*
X52004D02*
X54465D01*
X37535Y135004D02*
Y137465D01*
X39996D01*
X20850Y115244D02*
Y120756D01*
X27150Y115244D02*
Y120756D01*
X69500Y46936D02*
Y43656D01*
X68844Y43000D01*
X67532D01*
X66876Y43656D01*
Y46936D01*
X62940Y43000D02*
X65564D01*
X62940Y45624D01*
Y46280D01*
X63596Y46936D01*
X64908D01*
X65564Y46280D01*
X27500Y80436D02*
Y77156D01*
X26844Y76500D01*
X25532D01*
X24876Y77156D01*
Y80436D01*
X20940D02*
X23564D01*
Y78468D01*
X22252Y79124D01*
X21596D01*
X20940Y78468D01*
Y77156D01*
X21596Y76500D01*
X22908D01*
X23564Y77156D01*
X30500Y28500D02*
X34436D01*
Y30468D01*
X33780Y31124D01*
X32468D01*
X31812Y30468D01*
Y28500D01*
Y29812D02*
X30500Y31124D01*
Y32436D02*
Y33748D01*
Y33092D01*
X34436D01*
X33780Y32436D01*
Y35715D02*
X34436Y36371D01*
Y37683D01*
X33780Y38339D01*
X31156D01*
X30500Y37683D01*
Y36371D01*
X31156Y35715D01*
X33780D01*
X17500Y28500D02*
X21436D01*
Y30468D01*
X20780Y31124D01*
X19468D01*
X18812Y30468D01*
Y28500D01*
Y29812D02*
X17500Y31124D01*
X18156Y32436D02*
X17500Y33092D01*
Y34404D01*
X18156Y35060D01*
X20780D01*
X21436Y34404D01*
Y33092D01*
X20780Y32436D01*
X20124D01*
X19468Y33092D01*
Y35060D01*
X143500Y123000D02*
Y126936D01*
X141532D01*
X140876Y126280D01*
Y124968D01*
X141532Y124312D01*
X143500D01*
X142188D02*
X140876Y123000D01*
X136940D02*
X139564D01*
X136940Y125624D01*
Y126280D01*
X137596Y126936D01*
X138908D01*
X139564Y126280D01*
X133661Y84646D02*
X137597D01*
Y86614D01*
X136941Y87270D01*
X135629D01*
X134973Y86614D01*
Y84646D01*
Y85958D02*
X133661Y87270D01*
Y88581D02*
Y89893D01*
Y89237D01*
X137597D01*
X136941Y88581D01*
X23360Y131888D02*
X25984D01*
Y129921D01*
X24672D01*
X25984D01*
Y127953D01*
X22049D02*
X20737D01*
X21393D01*
Y131888D01*
X22049Y131233D01*
X30187Y99436D02*
Y95500D01*
X28220D01*
X27564Y96156D01*
Y98780D01*
X28220Y99436D01*
X30187D01*
X23628Y95500D02*
X26252D01*
X23628Y98124D01*
Y98780D01*
X24284Y99436D01*
X25596D01*
X26252Y98780D01*
X92376Y110780D02*
X93032Y111436D01*
X94344D01*
X95000Y110780D01*
Y108156D01*
X94344Y107500D01*
X93032D01*
X92376Y108156D01*
X91064Y107500D02*
X89752D01*
X90408D01*
Y111436D01*
X91064Y110780D01*
X87784Y108156D02*
X87129Y107500D01*
X85817D01*
X85161Y108156D01*
Y110780D01*
X85817Y111436D01*
X87129D01*
X87784Y110780D01*
Y110124D01*
X87129Y109468D01*
X85161D01*
X14280Y31124D02*
X14936Y30468D01*
Y29156D01*
X14280Y28500D01*
X11656D01*
X11000Y29156D01*
Y30468D01*
X11656Y31124D01*
X11000Y32436D02*
Y33748D01*
Y33092D01*
X14936D01*
X14280Y32436D01*
X14936Y35715D02*
Y38339D01*
X14280D01*
X11656Y35715D01*
X11000D01*
X27780Y31124D02*
X28436Y30468D01*
Y29156D01*
X27780Y28500D01*
X25156D01*
X24500Y29156D01*
Y30468D01*
X25156Y31124D01*
X24500Y32436D02*
Y33748D01*
Y33092D01*
X28436D01*
X27780Y32436D01*
X28436Y38339D02*
X27780Y37027D01*
X26468Y35715D01*
X25156D01*
X24500Y36371D01*
Y37683D01*
X25156Y38339D01*
X25812D01*
X26468Y37683D01*
Y35715D01*
X64780Y62124D02*
X65436Y61468D01*
Y60156D01*
X64780Y59500D01*
X62156D01*
X61500Y60156D01*
Y61468D01*
X62156Y62124D01*
X61500Y63436D02*
Y64748D01*
Y64092D01*
X65436D01*
X64780Y63436D01*
Y66716D02*
X65436Y67371D01*
Y68683D01*
X64780Y69339D01*
X62156D01*
X61500Y68683D01*
Y67371D01*
X62156Y66716D01*
X64780D01*
X156429Y87073D02*
X157085Y86417D01*
Y85105D01*
X156429Y84449D01*
X153806D01*
X153150Y85105D01*
Y86417D01*
X153806Y87073D01*
X153150Y91008D02*
Y88385D01*
X155773Y91008D01*
X156429D01*
X157085Y90352D01*
Y89040D01*
X156429Y88385D01*
X143437Y87270D02*
X144093Y86614D01*
Y85302D01*
X143437Y84646D01*
X140813D01*
X140157Y85302D01*
Y86614D01*
X140813Y87270D01*
X140157Y88581D02*
Y89893D01*
Y89237D01*
X144093D01*
X143437Y88581D01*
X153002Y79197D02*
X153658Y79853D01*
X154970D01*
X155625Y79197D01*
Y76573D01*
X154970Y75917D01*
X153658D01*
X153002Y76573D01*
X149066Y79853D02*
X151690D01*
Y77885D01*
X150378Y78541D01*
X149722D01*
X149066Y77885D01*
Y76573D01*
X149722Y75917D01*
X151034D01*
X151690Y76573D01*
X94227Y159776D02*
X94883Y160432D01*
X96194D01*
X96850Y159776D01*
Y157152D01*
X96194Y156496D01*
X94883D01*
X94227Y157152D01*
X90291Y156496D02*
X92915D01*
X90291Y159120D01*
Y159776D01*
X90947Y160432D01*
X92259D01*
X92915Y159776D01*
X88979D02*
X88323Y160432D01*
X87011D01*
X86355Y159776D01*
Y157152D01*
X87011Y156496D01*
X88323D01*
X88979Y157152D01*
Y159776D01*
X58780Y62124D02*
X59436Y61468D01*
Y60156D01*
X58780Y59500D01*
X56156D01*
X55500Y60156D01*
Y61468D01*
X56156Y62124D01*
Y63436D02*
X55500Y64092D01*
Y65404D01*
X56156Y66060D01*
X58780D01*
X59436Y65404D01*
Y64092D01*
X58780Y63436D01*
X58124D01*
X57468Y64092D01*
Y66060D01*
X91732Y137597D02*
Y134317D01*
X91076Y133661D01*
X89764D01*
X89109Y134317D01*
Y137597D01*
X85173D02*
X86485Y136941D01*
X87796Y135629D01*
Y134317D01*
X87141Y133661D01*
X85829D01*
X85173Y134317D01*
Y134973D01*
X85829Y135629D01*
X87796D01*
X86000Y99436D02*
Y96156D01*
X85344Y95500D01*
X84032D01*
X83376Y96156D01*
Y99436D01*
X82064Y98780D02*
X81408Y99436D01*
X80096D01*
X79440Y98780D01*
Y98124D01*
X80096Y97468D01*
X80752D01*
X80096D01*
X79440Y96812D01*
Y96156D01*
X80096Y95500D01*
X81408D01*
X82064Y96156D01*
X35630Y155118D02*
Y159054D01*
X33662D01*
X33006Y158398D01*
Y157086D01*
X33662Y156430D01*
X35630D01*
X34318D02*
X33006Y155118D01*
X31694D02*
X30382D01*
X31038D01*
Y159054D01*
X31694Y158398D01*
X25791Y155118D02*
X28414D01*
X25791Y157742D01*
Y158398D01*
X26447Y159054D01*
X27758D01*
X28414Y158398D01*
X112500Y86500D02*
Y90436D01*
X110532D01*
X109876Y89780D01*
Y88468D01*
X110532Y87812D01*
X112500D01*
X111188D02*
X109876Y86500D01*
X105940Y90436D02*
X107252Y89780D01*
X108564Y88468D01*
Y87156D01*
X107908Y86500D01*
X106596D01*
X105940Y87156D01*
Y87812D01*
X106596Y88468D01*
X108564D01*
X112500Y73500D02*
Y77436D01*
X110532D01*
X109876Y76780D01*
Y75468D01*
X110532Y74812D01*
X112500D01*
X111188D02*
X109876Y73500D01*
X105940Y77436D02*
X108564D01*
Y75468D01*
X107252Y76124D01*
X106596D01*
X105940Y75468D01*
Y74156D01*
X106596Y73500D01*
X107908D01*
X108564Y74156D01*
X90488Y59500D02*
Y63436D01*
X88520D01*
X87864Y62780D01*
Y61468D01*
X88520Y60812D01*
X90488D01*
X89176D02*
X87864Y59500D01*
X84585D02*
Y63436D01*
X86552Y61468D01*
X83929D01*
X116152Y133656D02*
Y136280D01*
X116808Y136936D01*
X118120D01*
X118776Y136280D01*
Y133656D01*
X118120Y133000D01*
X116808D01*
X117464Y134312D02*
X116152Y133000D01*
X116808D02*
X116152Y133656D01*
X114840Y133000D02*
X113528D01*
X114184D01*
Y136936D01*
X114840Y136280D01*
X149933Y87073D02*
X150589Y86417D01*
Y85105D01*
X149933Y84449D01*
X147310D01*
X146653Y85105D01*
Y86417D01*
X147310Y87073D01*
X149933Y88385D02*
X150589Y89040D01*
Y90352D01*
X149933Y91008D01*
X149277D01*
X148621Y90352D01*
Y89697D01*
Y90352D01*
X147966Y91008D01*
X147310D01*
X146653Y90352D01*
Y89040D01*
X147310Y88385D01*
X122047Y9055D02*
X120735D01*
X121391D01*
Y12991D01*
X122047Y12335D01*
X118767D02*
X118112Y12991D01*
X116800D01*
X116144Y12335D01*
Y11679D01*
X116800Y11023D01*
X116144Y10367D01*
Y9711D01*
X116800Y9055D01*
X118112D01*
X118767Y9711D01*
Y10367D01*
X118112Y11023D01*
X118767Y11679D01*
Y12335D01*
X118112Y11023D02*
X116800D01*
X114832Y9055D02*
Y9711D01*
X114176D01*
Y9055D01*
X114832D01*
X111552Y12335D02*
X110896Y12991D01*
X109584D01*
X108928Y12335D01*
Y9711D01*
X109584Y9055D01*
X110896D01*
X111552Y9711D01*
Y12335D01*
X107616Y9711D02*
X106960Y9055D01*
X105648D01*
X104992Y9711D01*
Y12335D01*
X105648Y12991D01*
X106960D01*
X107616Y12335D01*
Y11679D01*
X106960Y11023D01*
X104992D01*
X103681Y9055D02*
Y9711D01*
X103024D01*
Y9055D01*
X103681D01*
X97777D02*
X100401D01*
X97777Y11679D01*
Y12335D01*
X98433Y12991D01*
X99745D01*
X100401Y12335D01*
X96465D02*
X95809Y12991D01*
X94497D01*
X93841Y12335D01*
Y9711D01*
X94497Y9055D01*
X95809D01*
X96465Y9711D01*
Y12335D01*
X92529Y9055D02*
X91217D01*
X91873D01*
Y12991D01*
X92529Y12335D01*
X89249Y9711D02*
X88594Y9055D01*
X87282D01*
X86626Y9711D01*
Y12335D01*
X87282Y12991D01*
X88594D01*
X89249Y12335D01*
Y11679D01*
X88594Y11023D01*
X86626D01*
X120079Y19684D02*
X121391D01*
X122047Y19028D01*
Y16404D01*
X121391Y15748D01*
X120079D01*
X119423Y16404D01*
Y19028D01*
X120079Y19684D01*
X118112Y14436D02*
Y18372D01*
X116144D01*
X115488Y17716D01*
Y16404D01*
X116144Y15748D01*
X118112D01*
X112208D02*
X113520D01*
X114176Y16404D01*
Y17716D01*
X113520Y18372D01*
X112208D01*
X111552Y17716D01*
Y17060D01*
X114176D01*
X110240Y15748D02*
Y18372D01*
X108272D01*
X107616Y17716D01*
Y15748D01*
X102368D02*
Y19684D01*
X99745Y15748D01*
Y19684D01*
X98433Y15748D02*
X97121D01*
X97777D01*
Y18372D01*
X98433D01*
X95153D02*
Y15748D01*
Y17060D01*
X94497Y17716D01*
X93841Y18372D01*
X93185D01*
X91217D02*
Y16404D01*
X90561Y15748D01*
X88594D01*
Y15092D01*
X89249Y14436D01*
X89905D01*
X88594Y15748D02*
Y18372D01*
X86626Y15748D02*
X85314D01*
X84658Y16404D01*
Y17716D01*
X85314Y18372D01*
X86626D01*
X87282Y17716D01*
Y16404D01*
X86626Y15748D01*
X77442Y19684D02*
X78754D01*
X79410Y19028D01*
Y16404D01*
X78754Y15748D01*
X77442D01*
X76786Y16404D01*
Y19028D01*
X77442Y19684D01*
X75474Y15748D02*
Y18372D01*
X73506D01*
X72851Y17716D01*
Y15748D01*
X69571D02*
X70883D01*
X71539Y16404D01*
Y17716D01*
X70883Y18372D01*
X69571D01*
X68915Y17716D01*
Y17060D01*
X71539D01*
X106628Y68634D02*
X107284Y69290D01*
X108596D01*
X109252Y68634D01*
Y66010D01*
X108596Y65354D01*
X107284D01*
X106628Y66010D01*
X102692Y68634D02*
X103348Y69290D01*
X104660D01*
X105316Y68634D01*
Y66010D01*
X104660Y65354D01*
X103348D01*
X102692Y66010D01*
X101381Y69290D02*
Y65354D01*
X100069Y66666D01*
X98757Y65354D01*
Y69290D01*
X73754Y68634D02*
X74410Y69290D01*
X75722D01*
X76378Y68634D01*
Y66010D01*
X75722Y65354D01*
X74410D01*
X73754Y66010D01*
X72442Y69290D02*
Y65354D01*
X71130Y66666D01*
X69818Y65354D01*
Y69290D01*
X119423Y24933D02*
X120079Y25589D01*
X121391D01*
X122047Y24933D01*
Y24277D01*
X121391Y23621D01*
X120079D01*
X119423Y22965D01*
Y22309D01*
X120079Y21654D01*
X121391D01*
X122047Y22309D01*
X117455Y24933D02*
Y24277D01*
X118112D01*
X116800D01*
X117455D01*
Y22309D01*
X116800Y21654D01*
X112864D02*
X114176D01*
X114832Y22309D01*
Y23621D01*
X114176Y24277D01*
X112864D01*
X112208Y23621D01*
Y22965D01*
X114832D01*
X110896Y20342D02*
Y24277D01*
X108928D01*
X108272Y23621D01*
Y22309D01*
X108928Y21654D01*
X110896D01*
X106960Y20342D02*
Y24277D01*
X104992D01*
X104336Y23621D01*
Y22309D01*
X104992Y21654D01*
X106960D01*
X101057D02*
X102368D01*
X103024Y22309D01*
Y23621D01*
X102368Y24277D01*
X101057D01*
X100401Y23621D01*
Y22965D01*
X103024D01*
X99089Y24277D02*
Y21654D01*
Y22965D01*
X98433Y23621D01*
X97777Y24277D01*
X97121D01*
X91217Y21654D02*
Y25589D01*
X89249D01*
X88594Y24933D01*
Y23621D01*
X89249Y22965D01*
X91217D01*
X84658Y24933D02*
X85314Y25589D01*
X86626D01*
X87282Y24933D01*
Y22309D01*
X86626Y21654D01*
X85314D01*
X84658Y22309D01*
X83346Y25589D02*
Y21654D01*
X81378D01*
X80722Y22309D01*
Y22965D01*
X81378Y23621D01*
X83346D01*
X81378D01*
X80722Y24277D01*
Y24933D01*
X81378Y25589D01*
X83346D01*
D58*
X35469Y121126D02*
G03*
X35469Y121126I-492J0D01*
G01*
X74311Y61847D02*
G03*
X74311Y61847I-492J0D01*
G01*
X73721Y71831D02*
G03*
X73721Y71831I-492J0D01*
G01*
X83839Y120421D02*
G03*
X83839Y120421I-492J0D01*
G01*
X15043Y53654D02*
G03*
X15043Y53654I-492J0D01*
G01*
X122811Y132087D02*
G03*
X122811Y132087I-492J0D01*
G01*
D59*
X55249Y148275D02*
Y143277D01*
X54249Y142277D01*
X52250D01*
X51250Y143277D01*
Y148275D01*
X49251D02*
X45252D01*
Y147275D01*
X49251Y143277D01*
Y142277D01*
D60*
X33433Y107315D02*
G03*
X33433Y107315I-197J0D01*
G01*
D61*
X84252Y76772D02*
G03*
X84252Y76772I-1181J0D01*
G01*
X79587Y130264D02*
G03*
X79587Y130264I-1181J0D01*
G01*
X25575Y58595D02*
G03*
X25575Y58595I-1181J0D01*
G01*
M02*
