%FSLAX25Y25*%
%MOIN*%
G70*
G01*
G75*
G04 Layer_Physical_Order=2*
G04 Layer_Color=16711680*
%ADD10C,0.00787*%
%ADD11C,0.01378*%
%ADD12C,0.01969*%
%ADD13C,0.02756*%
%ADD14C,0.02953*%
%ADD15C,0.01181*%
%ADD16C,0.01575*%
%ADD17O,0.05315X0.01575*%
G04:AMPARAMS|DCode=18|XSize=118.11mil|YSize=35.43mil|CornerRadius=8.86mil|HoleSize=0mil|Usage=FLASHONLY|Rotation=90.000|XOffset=0mil|YOffset=0mil|HoleType=Round|Shape=RoundedRectangle|*
%AMROUNDEDRECTD18*
21,1,0.11811,0.01772,0,0,90.0*
21,1,0.10039,0.03543,0,0,90.0*
1,1,0.01772,0.00886,0.05020*
1,1,0.01772,0.00886,-0.05020*
1,1,0.01772,-0.00886,-0.05020*
1,1,0.01772,-0.00886,0.05020*
%
%ADD18ROUNDEDRECTD18*%
%ADD19O,0.01378X0.06693*%
%ADD20R,0.11811X0.11811*%
%ADD21C,0.05906*%
G04:AMPARAMS|DCode=22|XSize=59.06mil|YSize=68.9mil|CornerRadius=14.76mil|HoleSize=0mil|Usage=FLASHONLY|Rotation=270.000|XOffset=0mil|YOffset=0mil|HoleType=Round|Shape=RoundedRectangle|*
%AMROUNDEDRECTD22*
21,1,0.05906,0.03937,0,0,270.0*
21,1,0.02953,0.06890,0,0,270.0*
1,1,0.02953,-0.01969,-0.01476*
1,1,0.02953,-0.01969,0.01476*
1,1,0.02953,0.01969,0.01476*
1,1,0.02953,0.01969,-0.01476*
%
%ADD22ROUNDEDRECTD22*%
%ADD23R,0.06890X0.05906*%
%ADD24R,0.03347X0.04134*%
%ADD25R,0.05906X0.07087*%
%ADD26R,0.03937X0.03937*%
%ADD27C,0.03937*%
G04:AMPARAMS|DCode=28|XSize=59.06mil|YSize=47.24mil|CornerRadius=11.81mil|HoleSize=0mil|Usage=FLASHONLY|Rotation=90.000|XOffset=0mil|YOffset=0mil|HoleType=Round|Shape=RoundedRectangle|*
%AMROUNDEDRECTD28*
21,1,0.05906,0.02362,0,0,90.0*
21,1,0.03543,0.04724,0,0,90.0*
1,1,0.02362,0.01181,0.01772*
1,1,0.02362,0.01181,-0.01772*
1,1,0.02362,-0.01181,-0.01772*
1,1,0.02362,-0.01181,0.01772*
%
%ADD28ROUNDEDRECTD28*%
%ADD29R,0.05512X0.07874*%
%ADD30R,0.08661X0.09449*%
%ADD31R,0.06299X0.15748*%
%ADD32R,0.07480X0.08976*%
%ADD33R,0.07087X0.03937*%
%ADD34R,0.03937X0.03937*%
%ADD35R,0.06693X0.09449*%
%ADD36R,0.07087X0.13780*%
%ADD37R,0.02480X0.03268*%
%ADD38R,0.03937X0.07874*%
%ADD39O,0.06693X0.01181*%
%ADD40O,0.01181X0.06693*%
%ADD41C,0.03937*%
%ADD42O,0.07874X0.04921*%
%ADD43C,0.04134*%
%ADD44R,0.06102X0.06102*%
%ADD45C,0.06102*%
%ADD46C,0.05315*%
%ADD47R,0.05315X0.05315*%
%ADD48C,0.02362*%
%ADD49C,0.00591*%
%ADD50R,0.02874X0.01181*%
%ADD51R,0.01181X0.02874*%
%ADD52R,0.09843X0.09843*%
%ADD53R,0.05512X0.02362*%
%ADD54O,0.07008X0.02362*%
%ADD55O,0.02362X0.07008*%
%ADD56R,0.00394X0.00394*%
G36*
X19685Y126268D02*
X19669D01*
Y121360D01*
X19268Y121146D01*
X18604Y121278D01*
X18445Y121574D01*
X18401Y121798D01*
X18539Y122132D01*
X18579Y122433D01*
X15756D01*
Y119867D01*
X16205Y119926D01*
X16483Y119629D01*
X16535Y119503D01*
X16493Y119291D01*
X16646Y118523D01*
X17081Y117872D01*
X17732Y117437D01*
X18500Y117284D01*
X19268Y117437D01*
X19685Y117214D01*
Y115244D01*
X19669D01*
Y109732D01*
X19685D01*
Y97240D01*
X16516Y94070D01*
X8104D01*
X8032Y94118D01*
X7264Y94271D01*
X6496Y94118D01*
X5845Y93683D01*
X5410Y93032D01*
X5257Y92264D01*
X5325Y91922D01*
X5007Y91535D01*
X1772D01*
Y98328D01*
X2262Y98426D01*
X2292Y98353D01*
X2847Y97630D01*
X3570Y97076D01*
X4411Y96727D01*
X5315Y96608D01*
X6291D01*
Y100098D01*
Y103589D01*
X5315D01*
X4411Y103470D01*
X3570Y103121D01*
X2847Y102567D01*
X2292Y101844D01*
X2262Y101771D01*
X1772Y101869D01*
Y127817D01*
X1780Y127818D01*
Y128678D01*
X1772Y128679D01*
Y132874D01*
X19685D01*
Y126268D01*
D02*
G37*
G36*
X163583Y149016D02*
Y148819D01*
Y15945D01*
X162598Y14961D01*
X149213Y1575D01*
X16142D01*
X1772Y15945D01*
Y35257D01*
X2213Y35493D01*
X2732Y35146D01*
X3500Y34993D01*
X4268Y35146D01*
X4340Y35194D01*
X26000D01*
X26691Y35331D01*
X27277Y35723D01*
X27669Y36309D01*
X27806Y37000D01*
Y40080D01*
X27807D01*
X27806Y40089D01*
Y40154D01*
X27937Y40469D01*
X27966Y40491D01*
X27973Y40483D01*
X28065Y40621D01*
X28407Y41067D01*
X28685Y41737D01*
X28780Y42457D01*
X28685Y43176D01*
X28407Y43846D01*
X27966Y44422D01*
X27390Y44864D01*
X26719Y45142D01*
X26000Y45236D01*
X25281Y45142D01*
X24610Y44864D01*
X24035Y44422D01*
X23593Y43846D01*
X23315Y43176D01*
X23220Y42457D01*
X23315Y41737D01*
X23593Y41067D01*
X23935Y40621D01*
X24022Y40491D01*
D01*
X24026Y40485D01*
X24026Y40485D01*
X24027Y40483D01*
X24034Y40491D01*
X24035Y40491D01*
D01*
X24063Y40469D01*
X24194Y40154D01*
Y40089D01*
X24193Y40080D01*
X24194D01*
Y38806D01*
X21306D01*
Y39701D01*
X22256D01*
Y45213D01*
X16744D01*
Y39701D01*
X17694D01*
Y38806D01*
X14806D01*
Y40080D01*
X14807D01*
X14806Y40089D01*
Y40154D01*
X14937Y40469D01*
X14965Y40491D01*
X14973Y40483D01*
X15065Y40621D01*
X15407Y41067D01*
X15685Y41737D01*
X15780Y42457D01*
X15685Y43176D01*
X15407Y43846D01*
X14965Y44422D01*
X14390Y44864D01*
X13719Y45142D01*
X13000Y45236D01*
X12281Y45142D01*
X11610Y44864D01*
X11034Y44422D01*
X10593Y43846D01*
X10315Y43176D01*
X10220Y42457D01*
X10315Y41737D01*
X10593Y41067D01*
X10935Y40621D01*
X11027Y40483D01*
X11034Y40491D01*
X11063Y40469D01*
X11194Y40154D01*
Y40089D01*
X11193Y40080D01*
X11194D01*
Y38806D01*
X4340D01*
X4268Y38854D01*
X3500Y39007D01*
X2732Y38854D01*
X2213Y38507D01*
X1772Y38743D01*
Y90733D01*
X5007D01*
X5046Y90740D01*
X5086Y90737D01*
X5199Y90771D01*
X5315Y90794D01*
X5348Y90816D01*
X5386Y90827D01*
X5477Y90902D01*
X5477Y90902D01*
Y90902D01*
X5845Y90845D01*
X5845Y90845D01*
Y90845D01*
X6496Y90409D01*
X7264Y90257D01*
X8032Y90409D01*
X8104Y90457D01*
X17264D01*
X17955Y90595D01*
X18541Y90987D01*
X19090Y91535D01*
X19685D01*
Y92131D01*
X24248Y96694D01*
X26242D01*
X26478Y96253D01*
X26209Y95851D01*
X26139Y95500D01*
X30388D01*
X30318Y95851D01*
X30050Y96253D01*
X30286Y96694D01*
X31752D01*
X34723Y93723D01*
X35309Y93331D01*
X36000Y93194D01*
X57500D01*
X58191Y93331D01*
X58777Y93723D01*
X63183Y98129D01*
X63268Y98146D01*
X63919Y98581D01*
X64354Y99232D01*
X64507Y100000D01*
X64354Y100768D01*
X63919Y101419D01*
X63268Y101854D01*
X62500Y102007D01*
X61732Y101854D01*
X61081Y101419D01*
X60646Y100768D01*
X60629Y100683D01*
X56752Y96806D01*
X36748D01*
X33777Y99777D01*
X33191Y100169D01*
X32500Y100306D01*
X23500D01*
X22809Y100169D01*
X22223Y99777D01*
X20950Y98504D01*
X20488Y98696D01*
Y109732D01*
X22205D01*
Y108243D01*
X22203Y108221D01*
X22205D01*
Y106921D01*
X21583D01*
Y102079D01*
X25638D01*
Y106921D01*
X25015D01*
Y108257D01*
X25121Y109064D01*
X25398Y109732D01*
X28331D01*
Y115244D01*
X20488D01*
Y117214D01*
X20465Y117330D01*
X20453Y117447D01*
X20448Y117457D01*
X20526Y117587D01*
X20973Y117886D01*
X24000D01*
X24538Y117993D01*
X24994Y118298D01*
X25298Y118754D01*
X25405Y119291D01*
X25405Y119291D01*
X25405Y119291D01*
Y119291D01*
Y120185D01*
X25418D01*
X25407Y120269D01*
X25504Y120756D01*
X28331D01*
Y126268D01*
X20488D01*
Y132874D01*
X20427Y133181D01*
X20253Y133442D01*
X19992Y133616D01*
X19685Y133677D01*
X1772D01*
Y149016D01*
X16142Y163386D01*
X149213D01*
X163583Y149016D01*
D02*
G37*
%LPC*%
G36*
X151862Y44447D02*
X151511Y44377D01*
X150790Y43895D01*
X150308Y43174D01*
X150238Y42823D01*
X151862D01*
Y44447D01*
D02*
G37*
G36*
X152862D02*
Y42823D01*
X154487D01*
X154417Y43174D01*
X153935Y43895D01*
X153213Y44377D01*
X152862Y44447D01*
D02*
G37*
G36*
X9624Y43000D02*
X8000D01*
Y41376D01*
X8351Y41445D01*
X9072Y41927D01*
X9555Y42649D01*
X9624Y43000D01*
D02*
G37*
G36*
X71791Y42408D02*
X71440Y42338D01*
X70719Y41856D01*
X70237Y41135D01*
X70167Y40784D01*
X71791D01*
Y42408D01*
D02*
G37*
G36*
X72791D02*
Y40784D01*
X74416D01*
X74346Y41135D01*
X73864Y41856D01*
X73142Y42338D01*
X72791Y42408D01*
D02*
G37*
G36*
X7000Y43000D02*
X5376D01*
X5446Y42649D01*
X5928Y41927D01*
X6649Y41445D01*
X7000Y41376D01*
Y43000D01*
D02*
G37*
G36*
X53000Y44624D02*
Y43000D01*
X54624D01*
X54554Y43351D01*
X54072Y44072D01*
X53351Y44555D01*
X53000Y44624D01*
D02*
G37*
G36*
X7000Y45624D02*
X6649Y45555D01*
X5928Y45072D01*
X5446Y44351D01*
X5376Y44000D01*
X7000D01*
Y45624D01*
D02*
G37*
G36*
X8000D02*
Y44000D01*
X9624D01*
X9555Y44351D01*
X9072Y45072D01*
X8351Y45555D01*
X8000Y45624D01*
D02*
G37*
G36*
X32000Y45425D02*
X29531D01*
Y42957D01*
X32000D01*
Y45425D01*
D02*
G37*
G36*
X35469D02*
X33000D01*
Y42957D01*
X35469D01*
Y45425D01*
D02*
G37*
G36*
X52000Y44624D02*
X51649Y44555D01*
X50928Y44072D01*
X50445Y43351D01*
X50376Y43000D01*
X52000D01*
Y44624D01*
D02*
G37*
G36*
X54624Y42000D02*
X53000D01*
Y40376D01*
X53351Y40445D01*
X54072Y40927D01*
X54554Y41649D01*
X54624Y42000D01*
D02*
G37*
G36*
X142500Y37124D02*
Y35500D01*
X144124D01*
X144054Y35851D01*
X143572Y36573D01*
X142851Y37055D01*
X142500Y37124D01*
D02*
G37*
G36*
X32000Y38124D02*
X31649Y38055D01*
X30928Y37573D01*
X30445Y36851D01*
X30376Y36500D01*
X32000D01*
Y38124D01*
D02*
G37*
G36*
X33000D02*
Y36500D01*
X34624D01*
X34555Y36851D01*
X34073Y37573D01*
X33351Y38055D01*
X33000Y38124D01*
D02*
G37*
G36*
X79028Y36967D02*
X78676Y36897D01*
X77955Y36415D01*
X77473Y35693D01*
X77403Y35342D01*
X79028D01*
Y36967D01*
D02*
G37*
G36*
X80028D02*
Y35342D01*
X81652D01*
X81582Y35693D01*
X81100Y36415D01*
X80379Y36897D01*
X80028Y36967D01*
D02*
G37*
G36*
X141500Y37124D02*
X141149Y37055D01*
X140427Y36573D01*
X139945Y35851D01*
X139876Y35500D01*
X141500D01*
Y37124D01*
D02*
G37*
G36*
X71791Y39783D02*
X70167D01*
X70237Y39432D01*
X70719Y38711D01*
X71440Y38229D01*
X71791Y38159D01*
Y39783D01*
D02*
G37*
G36*
X151862Y41823D02*
X150238D01*
X150308Y41472D01*
X150790Y40750D01*
X151511Y40268D01*
X151862Y40198D01*
Y41823D01*
D02*
G37*
G36*
X154487D02*
X152862D01*
Y40198D01*
X153213Y40268D01*
X153935Y40750D01*
X154417Y41472D01*
X154487Y41823D01*
D02*
G37*
G36*
X52000Y42000D02*
X50376D01*
X50445Y41649D01*
X50928Y40927D01*
X51649Y40445D01*
X52000Y40376D01*
Y42000D01*
D02*
G37*
G36*
X74416Y39783D02*
X72791D01*
Y38159D01*
X73142Y38229D01*
X73864Y38711D01*
X74346Y39432D01*
X74416Y39783D01*
D02*
G37*
G36*
X32000Y41957D02*
X29531D01*
Y39488D01*
X32000D01*
Y41957D01*
D02*
G37*
G36*
X35469D02*
X33000D01*
Y39488D01*
X35469D01*
Y41957D01*
D02*
G37*
G36*
X12500Y49043D02*
X10072D01*
X10108Y48768D01*
X10407Y48046D01*
X10883Y47426D01*
X11503Y46950D01*
X12225Y46651D01*
X12500Y46615D01*
Y49043D01*
D02*
G37*
G36*
X39077Y66500D02*
X35130D01*
Y64776D01*
X36953D01*
X37804Y64946D01*
X38525Y65428D01*
X39007Y66149D01*
X39077Y66500D01*
D02*
G37*
G36*
X34130Y69224D02*
X32307D01*
X31456Y69055D01*
X30735Y68572D01*
X30253Y67851D01*
X30183Y67500D01*
X34130D01*
Y69224D01*
D02*
G37*
G36*
X36953D02*
X35130D01*
Y67500D01*
X39077D01*
X39007Y67851D01*
X38525Y68572D01*
X37804Y69055D01*
X36953Y69224D01*
D02*
G37*
G36*
X34130Y66500D02*
X30183D01*
X30253Y66149D01*
X30735Y65428D01*
X31456Y64946D01*
X32307Y64776D01*
X34130D01*
Y66500D01*
D02*
G37*
G36*
X12870Y61500D02*
X8923D01*
X8993Y61149D01*
X9475Y60427D01*
X10196Y59945D01*
X11047Y59776D01*
X12870D01*
Y61500D01*
D02*
G37*
G36*
Y64224D02*
X11047D01*
X10196Y64055D01*
X9475Y63573D01*
X8993Y62851D01*
X8923Y62500D01*
X12870D01*
Y64224D01*
D02*
G37*
G36*
X38500Y85507D02*
X37732Y85354D01*
X37081Y84919D01*
X36646Y84268D01*
X36493Y83500D01*
X36646Y82732D01*
X37081Y82081D01*
X37732Y81646D01*
X37817Y81629D01*
X41194Y78252D01*
Y63806D01*
X37793D01*
X37721Y63854D01*
X36953Y64007D01*
X32307D01*
X31539Y63854D01*
X30888Y63419D01*
X30453Y62768D01*
X30300Y62000D01*
X30453Y61232D01*
X30888Y60581D01*
X31539Y60146D01*
X32307Y59993D01*
X36953D01*
X37721Y60146D01*
X37793Y60194D01*
X43000D01*
X43691Y60331D01*
X44277Y60723D01*
X44669Y61309D01*
X44806Y62000D01*
X44806Y62000D01*
X44806Y62000D01*
Y62000D01*
Y79000D01*
X44669Y79691D01*
X44277Y80277D01*
X40371Y84184D01*
X40354Y84268D01*
X39919Y84919D01*
X39268Y85354D01*
X38500Y85507D01*
D02*
G37*
G36*
X34130Y74224D02*
X32307D01*
X31456Y74054D01*
X30735Y73572D01*
X30253Y72851D01*
X30183Y72500D01*
X34130D01*
Y74224D01*
D02*
G37*
G36*
X36953D02*
X35130D01*
Y72500D01*
X39077D01*
X39007Y72851D01*
X38525Y73572D01*
X37804Y74054D01*
X36953Y74224D01*
D02*
G37*
G36*
X56390Y81264D02*
X53961D01*
X53998Y80989D01*
X54297Y80267D01*
X54773Y79647D01*
X55393Y79171D01*
X56115Y78872D01*
X56390Y78835D01*
Y81264D01*
D02*
G37*
G36*
X39077Y71500D02*
X35130D01*
Y69776D01*
X36953D01*
X37804Y69946D01*
X38525Y70428D01*
X39007Y71149D01*
X39077Y71500D01*
D02*
G37*
G36*
X151885Y70500D02*
X149457D01*
Y68072D01*
X149732Y68108D01*
X150454Y68407D01*
X151074Y68883D01*
X151550Y69503D01*
X151849Y70225D01*
X151885Y70500D01*
D02*
G37*
G36*
X15693Y74007D02*
X11047D01*
X10279Y73854D01*
X9628Y73419D01*
X9193Y72768D01*
X9040Y72000D01*
X9193Y71232D01*
X9628Y70581D01*
X10279Y70146D01*
X11047Y69993D01*
X15693D01*
X16461Y70146D01*
X16533Y70194D01*
X17694D01*
Y69500D01*
Y68806D01*
X16533D01*
X16461Y68854D01*
X15693Y69007D01*
X11047D01*
X10279Y68854D01*
X9628Y68419D01*
X9193Y67768D01*
X9040Y67000D01*
X9193Y66232D01*
X9628Y65581D01*
X10279Y65146D01*
X11047Y64993D01*
X15693D01*
X16461Y65146D01*
X16533Y65194D01*
X17694D01*
Y63817D01*
X17253Y63581D01*
X16544Y64055D01*
X15693Y64224D01*
X13870D01*
Y62000D01*
Y59776D01*
X15693D01*
X16544Y59945D01*
X17253Y60419D01*
X17694Y60183D01*
Y58817D01*
X17253Y58581D01*
X16544Y59054D01*
X15693Y59224D01*
X13870D01*
Y57000D01*
Y54776D01*
X15693D01*
X16544Y54945D01*
X17253Y55419D01*
X17694Y55183D01*
Y53500D01*
Y52299D01*
X16744D01*
Y46787D01*
X22256D01*
Y51320D01*
X22627Y51655D01*
X23525Y51562D01*
X23723Y51103D01*
X23593Y50933D01*
X23315Y50263D01*
X23220Y49543D01*
X23315Y48824D01*
X23593Y48153D01*
X24035Y47578D01*
X24610Y47136D01*
X25281Y46858D01*
X26000Y46764D01*
X26719Y46858D01*
X27390Y47136D01*
X27966Y47578D01*
X28407Y48153D01*
X28685Y48824D01*
X28780Y49543D01*
X28685Y50263D01*
X28407Y50933D01*
X28277Y51103D01*
X28475Y51562D01*
X29373Y51655D01*
X29744Y51320D01*
Y46787D01*
X35256D01*
Y52299D01*
X34306D01*
Y53500D01*
X34169Y54191D01*
X33928Y54552D01*
X34163Y54993D01*
X36953D01*
X37721Y55146D01*
X38093Y55394D01*
X39731D01*
X39967Y54953D01*
X39764Y54650D01*
X39611Y53882D01*
X39764Y53114D01*
X40199Y52463D01*
X40850Y52028D01*
X41618Y51875D01*
X42386Y52028D01*
X43037Y52463D01*
X43472Y53114D01*
X43625Y53882D01*
X43472Y54650D01*
X43224Y55022D01*
Y55882D01*
X43224Y55882D01*
X43122Y56394D01*
X43102Y56496D01*
X42753Y57017D01*
X42753Y57017D01*
X41635Y58135D01*
X41115Y58483D01*
X41012Y58504D01*
X40500Y58606D01*
X40500Y58606D01*
X38093D01*
X37721Y58854D01*
X36953Y59007D01*
X32307D01*
X31539Y58854D01*
X30888Y58419D01*
X30453Y57768D01*
X30300Y57000D01*
X30453Y56232D01*
X30777Y55747D01*
X30541Y55306D01*
X21306D01*
Y67000D01*
Y69500D01*
Y72000D01*
X21169Y72691D01*
X20777Y73277D01*
X20191Y73669D01*
X19500Y73806D01*
X16533D01*
X16461Y73854D01*
X15693Y74007D01*
D02*
G37*
G36*
X34130Y71500D02*
X30183D01*
X30253Y71149D01*
X30735Y70428D01*
X31456Y69946D01*
X32307Y69776D01*
X34130D01*
Y71500D01*
D02*
G37*
G36*
X13500Y52472D02*
Y50043D01*
X15928D01*
X15892Y50318D01*
X15593Y51040D01*
X15117Y51661D01*
X14497Y52136D01*
X13775Y52435D01*
X13500Y52472D01*
D02*
G37*
G36*
X86500Y60507D02*
X85732Y60354D01*
X85081Y59919D01*
X84646Y59268D01*
X84493Y58500D01*
X84646Y57732D01*
X85081Y57081D01*
X85098Y57069D01*
X85296Y56774D01*
Y55499D01*
X82021Y52224D01*
X78543D01*
Y52988D01*
X71457D01*
Y49051D01*
X78543D01*
Y49815D01*
X82520D01*
X82520Y49815D01*
X82981Y49907D01*
X83371Y50168D01*
X87352Y54149D01*
X87613Y54539D01*
X87704Y55000D01*
X87704Y55000D01*
Y56774D01*
X87902Y57069D01*
X87919Y57081D01*
X88354Y57732D01*
X88507Y58500D01*
X88354Y59268D01*
X87919Y59919D01*
X87268Y60354D01*
X86500Y60507D01*
D02*
G37*
G36*
X66232Y54260D02*
X62976D01*
Y52579D01*
X66232D01*
Y54260D01*
D02*
G37*
G36*
X12500Y52472D02*
X12225Y52435D01*
X11503Y52136D01*
X10883Y51661D01*
X10407Y51040D01*
X10108Y50318D01*
X10072Y50043D01*
X12500D01*
Y52472D01*
D02*
G37*
G36*
X15928Y49043D02*
X13500D01*
Y46615D01*
X13775Y46651D01*
X14497Y46950D01*
X15117Y47426D01*
X15593Y48046D01*
X15892Y48768D01*
X15928Y49043D01*
D02*
G37*
G36*
X151862Y51665D02*
X150238D01*
X150308Y51314D01*
X150790Y50593D01*
X151511Y50111D01*
X151862Y50041D01*
Y51665D01*
D02*
G37*
G36*
X154487D02*
X152862D01*
Y50041D01*
X153213Y50111D01*
X153935Y50593D01*
X154417Y51314D01*
X154487Y51665D01*
D02*
G37*
G36*
X66232Y56941D02*
X62976D01*
Y55260D01*
X66232D01*
Y56941D01*
D02*
G37*
G36*
X70488D02*
X67232D01*
Y55260D01*
X70488D01*
Y56941D01*
D02*
G37*
G36*
X12870Y59224D02*
X11047D01*
X10196Y59054D01*
X9475Y58573D01*
X8993Y57851D01*
X8923Y57500D01*
X12870D01*
Y59224D01*
D02*
G37*
G36*
Y56500D02*
X8923D01*
X8993Y56149D01*
X9475Y55427D01*
X10196Y54945D01*
X11047Y54776D01*
X12870D01*
Y56500D01*
D02*
G37*
G36*
X70488Y54260D02*
X67232D01*
Y52579D01*
X70488D01*
Y54260D01*
D02*
G37*
G36*
X151862Y54290D02*
X151511Y54220D01*
X150790Y53738D01*
X150308Y53016D01*
X150238Y52665D01*
X151862D01*
Y54290D01*
D02*
G37*
G36*
X152862D02*
Y52665D01*
X154487D01*
X154417Y53016D01*
X153935Y53738D01*
X153213Y54220D01*
X152862Y54290D01*
D02*
G37*
G36*
X13870Y10721D02*
X12246D01*
X12315Y10369D01*
X12798Y9648D01*
X13519Y9166D01*
X13870Y9096D01*
Y10721D01*
D02*
G37*
G36*
X16495D02*
X14870D01*
Y9096D01*
X15221Y9166D01*
X15943Y9648D01*
X16425Y10369D01*
X16495Y10721D01*
D02*
G37*
G36*
X153240D02*
X151616D01*
X151686Y10369D01*
X152168Y9648D01*
X152889Y9166D01*
X153240Y9096D01*
Y10721D01*
D02*
G37*
G36*
X81996Y8227D02*
Y6602D01*
X83620D01*
X83551Y6953D01*
X83069Y7675D01*
X82347Y8157D01*
X81996Y8227D01*
D02*
G37*
G36*
X33161D02*
X32810Y8157D01*
X32089Y7675D01*
X31607Y6953D01*
X31537Y6602D01*
X33161D01*
Y8227D01*
D02*
G37*
G36*
X34161D02*
Y6602D01*
X35786D01*
X35716Y6953D01*
X35234Y7675D01*
X34512Y8157D01*
X34161Y8227D01*
D02*
G37*
G36*
X80996D02*
X80645Y8157D01*
X79924Y7675D01*
X79441Y6953D01*
X79372Y6602D01*
X80996D01*
Y8227D01*
D02*
G37*
G36*
X14870Y13345D02*
Y11721D01*
X16495D01*
X16425Y12071D01*
X15943Y12793D01*
X15221Y13275D01*
X14870Y13345D01*
D02*
G37*
G36*
X153240D02*
X152889Y13275D01*
X152168Y12793D01*
X151686Y12071D01*
X151616Y11721D01*
X153240D01*
Y13345D01*
D02*
G37*
G36*
X154240D02*
Y11721D01*
X155865D01*
X155795Y12071D01*
X155313Y12793D01*
X154591Y13275D01*
X154240Y13345D01*
D02*
G37*
G36*
X13870D02*
X13519Y13275D01*
X12798Y12793D01*
X12315Y12071D01*
X12246Y11721D01*
X13870D01*
Y13345D01*
D02*
G37*
G36*
X155865Y10721D02*
X154240D01*
Y9096D01*
X154591Y9166D01*
X155313Y9648D01*
X155795Y10369D01*
X155865Y10721D01*
D02*
G37*
G36*
X71791Y10833D02*
X71440Y10763D01*
X70719Y10281D01*
X70237Y9560D01*
X70167Y9209D01*
X71791D01*
Y10833D01*
D02*
G37*
G36*
X72791D02*
Y9209D01*
X74416D01*
X74346Y9560D01*
X73864Y10281D01*
X73142Y10763D01*
X72791Y10833D01*
D02*
G37*
G36*
X33161Y5602D02*
X31537D01*
X31607Y5251D01*
X32089Y4530D01*
X32810Y4048D01*
X33161Y3978D01*
Y5602D01*
D02*
G37*
G36*
X35786D02*
X34161D01*
Y3978D01*
X34512Y4048D01*
X35234Y4530D01*
X35716Y5251D01*
X35786Y5602D01*
D02*
G37*
G36*
X80996D02*
X79372D01*
X79441Y5251D01*
X79924Y4530D01*
X80645Y4048D01*
X80996Y3978D01*
Y5602D01*
D02*
G37*
G36*
X141495Y5012D02*
X139870D01*
Y3387D01*
X140221Y3457D01*
X140943Y3939D01*
X141425Y4661D01*
X141495Y5012D01*
D02*
G37*
G36*
X120366D02*
X118742D01*
X118812Y4661D01*
X119294Y3939D01*
X120015Y3457D01*
X120366Y3387D01*
Y5012D01*
D02*
G37*
G36*
X122991D02*
X121366D01*
Y3387D01*
X121717Y3457D01*
X122439Y3939D01*
X122921Y4661D01*
X122991Y5012D01*
D02*
G37*
G36*
X138870D02*
X137246D01*
X137315Y4661D01*
X137798Y3939D01*
X138519Y3457D01*
X138870Y3387D01*
Y5012D01*
D02*
G37*
G36*
X139870Y7636D02*
Y6012D01*
X141495D01*
X141425Y6363D01*
X140943Y7084D01*
X140221Y7566D01*
X139870Y7636D01*
D02*
G37*
G36*
X71791Y8209D02*
X70167D01*
X70237Y7858D01*
X70719Y7136D01*
X71440Y6654D01*
X71791Y6584D01*
Y8209D01*
D02*
G37*
G36*
X74416D02*
X72791D01*
Y6584D01*
X73142Y6654D01*
X73864Y7136D01*
X74346Y7858D01*
X74416Y8209D01*
D02*
G37*
G36*
X138870Y7636D02*
X138519Y7566D01*
X137798Y7084D01*
X137315Y6363D01*
X137246Y6012D01*
X138870D01*
Y7636D01*
D02*
G37*
G36*
X83620Y5602D02*
X81996D01*
Y3978D01*
X82347Y4048D01*
X83069Y4530D01*
X83551Y5251D01*
X83620Y5602D01*
D02*
G37*
G36*
X120366Y7636D02*
X120015Y7566D01*
X119294Y7084D01*
X118812Y6363D01*
X118742Y6012D01*
X120366D01*
Y7636D01*
D02*
G37*
G36*
X121366D02*
Y6012D01*
X122991D01*
X122921Y6363D01*
X122439Y7084D01*
X121717Y7566D01*
X121366Y7636D01*
D02*
G37*
G36*
X21653Y28379D02*
X20341Y28250D01*
X19080Y27867D01*
X17917Y27246D01*
X16898Y26409D01*
X16061Y25390D01*
X15440Y24227D01*
X15057Y22966D01*
X14928Y21654D01*
X15057Y20342D01*
X15440Y19080D01*
X16061Y17918D01*
X16898Y16898D01*
X17917Y16062D01*
X19080Y15440D01*
X20341Y15058D01*
X21653Y14929D01*
X22965Y15058D01*
X24227Y15440D01*
X25390Y16062D01*
X26409Y16898D01*
X27245Y17918D01*
X27867Y19080D01*
X28249Y20342D01*
X28378Y21654D01*
X28249Y22966D01*
X27867Y24227D01*
X27245Y25390D01*
X26409Y26409D01*
X25390Y27246D01*
X24227Y27867D01*
X22965Y28250D01*
X21653Y28379D01*
D02*
G37*
G36*
X117217Y29683D02*
X116866Y29614D01*
X116144Y29131D01*
X115662Y28410D01*
X115592Y28059D01*
X117217D01*
Y29683D01*
D02*
G37*
G36*
X118217D02*
Y28059D01*
X119841D01*
X119771Y28410D01*
X119289Y29131D01*
X118568Y29614D01*
X118217Y29683D01*
D02*
G37*
G36*
X6784Y30077D02*
X6432Y30007D01*
X5711Y29525D01*
X5229Y28804D01*
X5159Y28453D01*
X6784D01*
Y30077D01*
D02*
G37*
G36*
X9408Y27453D02*
X7784D01*
Y25828D01*
X8134Y25898D01*
X8856Y26380D01*
X9338Y27102D01*
X9408Y27453D01*
D02*
G37*
G36*
X117217Y27059D02*
X115592D01*
X115662Y26708D01*
X116144Y25987D01*
X116866Y25504D01*
X117217Y25435D01*
Y27059D01*
D02*
G37*
G36*
X119841D02*
X118217D01*
Y25435D01*
X118568Y25504D01*
X119289Y25987D01*
X119771Y26708D01*
X119841Y27059D01*
D02*
G37*
G36*
X6784Y27453D02*
X5159D01*
X5229Y27102D01*
X5711Y26380D01*
X6432Y25898D01*
X6784Y25828D01*
Y27453D01*
D02*
G37*
G36*
X144124Y34500D02*
X142500D01*
Y32876D01*
X142851Y32945D01*
X143572Y33428D01*
X144054Y34149D01*
X144124Y34500D01*
D02*
G37*
G36*
X32000Y35500D02*
X30376D01*
X30445Y35149D01*
X30928Y34427D01*
X31649Y33945D01*
X32000Y33876D01*
Y35500D01*
D02*
G37*
G36*
X34624D02*
X33000D01*
Y33876D01*
X33351Y33945D01*
X34073Y34427D01*
X34555Y35149D01*
X34624Y35500D01*
D02*
G37*
G36*
X141500Y34500D02*
X139876D01*
X139945Y34149D01*
X140427Y33428D01*
X141149Y32945D01*
X141500Y32876D01*
Y34500D01*
D02*
G37*
G36*
X7784Y30077D02*
Y28453D01*
X9408D01*
X9338Y28804D01*
X8856Y29525D01*
X8134Y30007D01*
X7784Y30077D01*
D02*
G37*
G36*
X79028Y34343D02*
X77403D01*
X77473Y33992D01*
X77955Y33270D01*
X78676Y32788D01*
X79028Y32718D01*
Y34343D01*
D02*
G37*
G36*
X81652D02*
X80028D01*
Y32718D01*
X80379Y32788D01*
X81100Y33270D01*
X81582Y33992D01*
X81652Y34343D01*
D02*
G37*
G36*
X121366Y21022D02*
Y19398D01*
X122991D01*
X122921Y19749D01*
X122439Y20470D01*
X121717Y20952D01*
X121366Y21022D01*
D02*
G37*
G36*
X89500Y28007D02*
X88732Y27854D01*
X88081Y27419D01*
X87646Y26768D01*
X87493Y26000D01*
X87646Y25232D01*
X88081Y24581D01*
X88732Y24146D01*
X89500Y23993D01*
X90268Y24146D01*
X90764Y24477D01*
X90806Y24495D01*
X96581D01*
X96726Y24016D01*
X96581Y23919D01*
X96146Y23268D01*
X95993Y22500D01*
X96146Y21732D01*
X96477Y21236D01*
X96501Y21179D01*
X96334Y20343D01*
X95841Y19605D01*
X95786Y19568D01*
X95744Y19505D01*
X94693Y18699D01*
X93400Y18163D01*
X92088Y17990D01*
X92013Y18005D01*
X90806D01*
X90764Y18023D01*
X90268Y18354D01*
X89500Y18507D01*
X88732Y18354D01*
X88081Y17919D01*
X87646Y17268D01*
X87493Y16500D01*
X87646Y15732D01*
X88081Y15081D01*
X88732Y14646D01*
X89500Y14493D01*
X90268Y14646D01*
X90764Y14977D01*
X90806Y14995D01*
X92013D01*
Y14983D01*
X93643Y15144D01*
X95211Y15620D01*
X96656Y16392D01*
X97923Y17432D01*
X97927Y17427D01*
X98793Y18555D01*
X99337Y19869D01*
X99515Y21216D01*
X99523Y21236D01*
X99854Y21732D01*
X100007Y22500D01*
X99854Y23268D01*
X99419Y23919D01*
X99327Y23981D01*
X99495Y24452D01*
X100519Y24351D01*
X102116Y23866D01*
X103588Y23080D01*
X103802Y22904D01*
X104099Y22460D01*
X104410Y22252D01*
X104388Y22214D01*
X104387Y22214D01*
X104388Y22214D01*
D01*
X104548Y22000D01*
D01*
X104599Y21968D01*
X104646Y21732D01*
X105081Y21081D01*
X105732Y20646D01*
X106500Y20493D01*
X107268Y20646D01*
X107919Y21081D01*
X108354Y21732D01*
X108507Y22500D01*
X108354Y23268D01*
X107919Y23919D01*
X107268Y24354D01*
X106589Y24489D01*
X105624Y25313D01*
X104084Y26257D01*
X102415Y26948D01*
X100659Y27370D01*
X98858Y27512D01*
Y27505D01*
X90806D01*
X90764Y27523D01*
X90268Y27854D01*
X89500Y28007D01*
D02*
G37*
G36*
X159343Y22728D02*
X157718D01*
X157788Y22377D01*
X158270Y21656D01*
X158992Y21174D01*
X159343Y21104D01*
Y22728D01*
D02*
G37*
G36*
X120366Y21022D02*
X120015Y20952D01*
X119294Y20470D01*
X118812Y19749D01*
X118742Y19398D01*
X120366D01*
Y21022D01*
D02*
G37*
G36*
X143700Y28379D02*
X142388Y28250D01*
X141127Y27867D01*
X139964Y27246D01*
X138945Y26409D01*
X138109Y25390D01*
X137487Y24227D01*
X137104Y22966D01*
X136975Y21654D01*
X137104Y20342D01*
X137487Y19080D01*
X138109Y17918D01*
X138945Y16898D01*
X139964Y16062D01*
X141127Y15440D01*
X142388Y15058D01*
X143700Y14929D01*
X145012Y15058D01*
X146274Y15440D01*
X147437Y16062D01*
X148456Y16898D01*
X149292Y17918D01*
X149914Y19080D01*
X150296Y20342D01*
X150426Y21654D01*
X150296Y22966D01*
X149914Y24227D01*
X149292Y25390D01*
X148456Y26409D01*
X147437Y27246D01*
X146274Y27867D01*
X145012Y28250D01*
X143700Y28379D01*
D02*
G37*
G36*
X120366Y18398D02*
X118742D01*
X118812Y18047D01*
X119294Y17325D01*
X120015Y16843D01*
X120366Y16773D01*
Y18398D01*
D02*
G37*
G36*
X122991D02*
X121366D01*
Y16773D01*
X121717Y16843D01*
X122439Y17325D01*
X122921Y18047D01*
X122991Y18398D01*
D02*
G37*
G36*
X160343Y25353D02*
Y23728D01*
X161967D01*
X161897Y24079D01*
X161415Y24801D01*
X160694Y25283D01*
X160343Y25353D01*
D02*
G37*
G36*
X38870Y26731D02*
X38519Y26661D01*
X37798Y26179D01*
X37315Y25457D01*
X37246Y25106D01*
X38870D01*
Y26731D01*
D02*
G37*
G36*
X39870D02*
Y25106D01*
X41495D01*
X41425Y25457D01*
X40943Y26179D01*
X40221Y26661D01*
X39870Y26731D01*
D02*
G37*
G36*
X159343Y25353D02*
X158992Y25283D01*
X158270Y24801D01*
X157788Y24079D01*
X157718Y23728D01*
X159343D01*
Y25353D01*
D02*
G37*
G36*
X161967Y22728D02*
X160343D01*
Y21104D01*
X160694Y21174D01*
X161415Y21656D01*
X161897Y22377D01*
X161967Y22728D01*
D02*
G37*
G36*
X38870Y24106D02*
X37246D01*
X37315Y23755D01*
X37798Y23034D01*
X38519Y22552D01*
X38870Y22482D01*
Y24106D01*
D02*
G37*
G36*
X41495D02*
X39870D01*
Y22482D01*
X40221Y22552D01*
X40943Y23034D01*
X41425Y23755D01*
X41495Y24106D01*
D02*
G37*
G36*
X158949Y140642D02*
X157325D01*
X157394Y140291D01*
X157876Y139569D01*
X158598Y139087D01*
X158949Y139017D01*
Y140642D01*
D02*
G37*
G36*
X161573D02*
X159949D01*
Y139017D01*
X160300Y139087D01*
X161021Y139569D01*
X161503Y140291D01*
X161573Y140642D01*
D02*
G37*
G36*
X59500Y143507D02*
X58732Y143354D01*
X58081Y142919D01*
X58078Y142916D01*
X57860Y142770D01*
X57599Y142718D01*
Y142704D01*
X43995D01*
X43534Y142613D01*
X43143Y142351D01*
X41212Y140420D01*
X40950Y140029D01*
X40859Y139568D01*
X40859Y139568D01*
Y138961D01*
X40685D01*
Y134921D01*
X40079D01*
Y134315D01*
X36039D01*
Y131559D01*
Y129591D01*
Y127622D01*
Y125654D01*
Y123685D01*
X40079D01*
Y123079D01*
X40685D01*
Y119039D01*
X40859D01*
Y115429D01*
X40397Y115237D01*
X39136Y116498D01*
X39141Y116504D01*
X39096Y116538D01*
X38675Y116960D01*
X38682Y116966D01*
X38619Y117117D01*
X38621Y117126D01*
X38469Y117894D01*
X38033Y118545D01*
X37382Y118980D01*
X36614Y119133D01*
X35846Y118980D01*
X35195Y118545D01*
X34760Y117894D01*
X34607Y117126D01*
X34760Y116358D01*
X35195Y115707D01*
Y115396D01*
X34760Y114744D01*
X34607Y113976D01*
X34760Y113208D01*
X35195Y112557D01*
X35846Y112122D01*
X36235Y112045D01*
X36332Y111554D01*
X35829Y111218D01*
X35347Y110497D01*
X35277Y110146D01*
X37402D01*
Y109646D01*
X37902D01*
Y107521D01*
X38253Y107591D01*
X38974Y108073D01*
X39456Y108795D01*
D01*
D01*
X39954Y108843D01*
X42229Y106568D01*
X42084Y106089D01*
X41692Y106011D01*
X40971Y105529D01*
X40489Y104808D01*
X40419Y104457D01*
X44668D01*
X44598Y104808D01*
X44194Y105413D01*
X44429Y105854D01*
X66656D01*
X69361Y103148D01*
X69361Y103148D01*
X69752Y102887D01*
X69752Y102887D01*
X69752Y102887D01*
D01*
X69752Y102887D01*
X69752Y102887D01*
X70213Y102796D01*
X70213Y102796D01*
X86246D01*
X86482Y102355D01*
X86134Y101835D01*
X86065Y101484D01*
X90313D01*
X90244Y101835D01*
X89896Y102355D01*
X90132Y102796D01*
X102391D01*
X104403Y100783D01*
Y95299D01*
X104403D01*
X104256D01*
X104050Y95299D01*
X104050Y95299D01*
Y95299D01*
X103451D01*
X103133Y95686D01*
X103172Y95881D01*
X103246Y95992D01*
X103246Y95992D01*
X103233Y96050D01*
X103354Y96232D01*
X103507Y97000D01*
X103354Y97768D01*
X102919Y98419D01*
X102268Y98854D01*
X101500Y99007D01*
X100732Y98854D01*
X100081Y98419D01*
X99646Y97768D01*
X99493Y97000D01*
X99646Y96232D01*
X99767Y96050D01*
X99754Y95992D01*
X99754Y95992D01*
X99828Y95881D01*
X99866Y95686D01*
X99549Y95299D01*
X98744D01*
Y89787D01*
X104050D01*
X104050Y89787D01*
Y89787D01*
X104256Y89787D01*
X104403Y89640D01*
Y88213D01*
X104256D01*
Y88213D01*
X98744D01*
Y86831D01*
X97944Y86499D01*
X97381Y86425D01*
X97269Y86447D01*
X97052Y86593D01*
X97049Y86596D01*
X96398Y87032D01*
X95630Y87184D01*
X90984D01*
X90216Y87032D01*
X89565Y86596D01*
X89130Y85945D01*
X88977Y85177D01*
X89130Y84409D01*
X89565Y83758D01*
X90216Y83323D01*
X90984Y83170D01*
X95630D01*
X96398Y83323D01*
X97049Y83758D01*
X97052Y83762D01*
X97269Y83907D01*
X97531Y83959D01*
Y83969D01*
Y83973D01*
X98397D01*
X98744Y83904D01*
Y82701D01*
X98744Y82701D01*
X98744Y82299D01*
X98744D01*
Y81381D01*
X98237D01*
X98069Y81403D01*
Y81381D01*
X97531D01*
Y81385D01*
Y81395D01*
X97269Y81447D01*
X97052Y81593D01*
X97049Y81596D01*
X96398Y82032D01*
X95630Y82184D01*
X90984D01*
X90216Y82032D01*
X89565Y81596D01*
X89130Y80945D01*
X88977Y80177D01*
X89130Y79409D01*
X89565Y78758D01*
X90216Y78323D01*
X90984Y78170D01*
X95630D01*
X96398Y78323D01*
X96591Y78452D01*
X96651Y78438D01*
X96651Y78438D01*
X96783Y78526D01*
X97225Y78614D01*
X97511Y78557D01*
X97522Y78602D01*
X97820Y78543D01*
X97998Y78578D01*
X98556Y78347D01*
X98744Y78202D01*
Y76787D01*
X104256D01*
D01*
X104256D01*
X104308Y76736D01*
Y75213D01*
X104256D01*
Y75213D01*
X98744D01*
Y70204D01*
X97464D01*
Y70969D01*
X97403Y71276D01*
X97229Y71536D01*
X96969Y71710D01*
X96661Y71771D01*
X91304D01*
X91269Y71764D01*
X91234Y71768D01*
X91117Y71734D01*
X90997Y71710D01*
X90967Y71690D01*
X90933Y71680D01*
X90838Y71604D01*
X90737Y71536D01*
X90717Y71507D01*
X90536Y71536D01*
X90487Y71569D01*
X90447Y71614D01*
X90358Y71656D01*
X90276Y71710D01*
X90229Y71719D01*
X90217Y71722D01*
X90163Y71747D01*
X90065Y71752D01*
X89969Y71771D01*
X89405D01*
Y73335D01*
X89846Y73570D01*
X90216Y73323D01*
X90984Y73170D01*
X95630D01*
X96398Y73323D01*
X97049Y73758D01*
X97484Y74409D01*
X97637Y75177D01*
X97484Y75945D01*
X97049Y76596D01*
X96398Y77031D01*
X95630Y77184D01*
X90984D01*
X90216Y77031D01*
X89578Y76605D01*
X89559Y76605D01*
Y76605D01*
X89557Y76605D01*
X89557D01*
X89534Y76582D01*
X88000D01*
X87462Y76475D01*
X87007Y76171D01*
X86702Y75715D01*
X86595Y75177D01*
Y71771D01*
X85638D01*
X85541Y71752D01*
X85443Y71747D01*
X85389Y71722D01*
X85331Y71710D01*
X85249Y71656D01*
X85160Y71614D01*
X85120Y71569D01*
X85070Y71536D01*
X85015Y71454D01*
X84949Y71382D01*
X83768Y69413D01*
X83728Y69302D01*
X83678Y69195D01*
X83676Y69155D01*
X83663Y69118D01*
X83668Y69000D01*
X83663Y68882D01*
X83676Y68845D01*
X83678Y68805D01*
X83728Y68698D01*
X83768Y68587D01*
X84949Y66618D01*
X85015Y66546D01*
X85070Y66464D01*
X85120Y66431D01*
X85160Y66386D01*
X85249Y66344D01*
X85263Y66335D01*
X85331Y66290D01*
X85389Y66278D01*
X85443Y66253D01*
X85541Y66248D01*
X85638Y66229D01*
X89969D01*
X90065Y66248D01*
X90163Y66253D01*
X90217Y66278D01*
X90276Y66290D01*
X90304Y66309D01*
X90358Y66344D01*
X90447Y66386D01*
X90487Y66431D01*
X90536Y66464D01*
X90591Y66546D01*
X90591D01*
D01*
D01*
D01*
X90737Y66464D01*
X90737Y66464D01*
Y66464D01*
X90838Y66396D01*
X90933Y66320D01*
X90967Y66310D01*
X90997Y66290D01*
X91117Y66266D01*
X91234Y66232D01*
X91269Y66236D01*
X91304Y66229D01*
X93288D01*
Y65512D01*
X92681Y64905D01*
X88950D01*
X88927Y64927D01*
X88927Y64927D01*
X88926Y64928D01*
X88926Y64928D01*
X88906Y64928D01*
X88268Y65354D01*
X87500Y65507D01*
X86732Y65354D01*
X86660Y65306D01*
X76748D01*
X73553Y68502D01*
Y73170D01*
X74370D01*
X75138Y73323D01*
X75634Y73655D01*
X75676Y73672D01*
X78000D01*
X78576Y73786D01*
X79064Y74113D01*
X79391Y74601D01*
X79505Y75177D01*
Y80177D01*
X79391Y80753D01*
X79064Y81242D01*
X78576Y81568D01*
X78000Y81682D01*
X75676D01*
X75634Y81700D01*
X75138Y82032D01*
X74370Y82184D01*
X69724D01*
X68956Y82032D01*
X68305Y81596D01*
X67870Y80945D01*
X67717Y80177D01*
X67870Y79409D01*
X68305Y78758D01*
X68956Y78323D01*
X69724Y78170D01*
X74370D01*
X75138Y78323D01*
X75634Y78654D01*
X75676Y78672D01*
X76495D01*
Y76683D01*
X75676D01*
X75634Y76700D01*
X75138Y77031D01*
X74370Y77184D01*
X69724D01*
X68956Y77031D01*
X68305Y76596D01*
X67870Y75945D01*
X67717Y75177D01*
X67870Y74409D01*
X68305Y73758D01*
X68956Y73323D01*
X69724Y73170D01*
X70542D01*
Y69306D01*
X64954D01*
Y71588D01*
X64965D01*
X64957Y71649D01*
X65066Y72198D01*
X65404Y72703D01*
X65414Y72712D01*
X65414Y72712D01*
X65418Y72708D01*
X65433Y72730D01*
X65433Y72730D01*
X65461Y72773D01*
X65856Y73287D01*
X66134Y73958D01*
X66228Y74677D01*
X66134Y75397D01*
X65856Y76067D01*
X65414Y76643D01*
X64839Y77084D01*
X64168Y77362D01*
X63449Y77457D01*
X62729Y77362D01*
X62059Y77084D01*
X61483Y76643D01*
X61041Y76067D01*
X60764Y75397D01*
X60669Y74677D01*
X60764Y73958D01*
X61041Y73287D01*
X61436Y72773D01*
X61477Y72712D01*
D01*
X61480Y72708D01*
X61483Y72712D01*
X61494Y72703D01*
X61832Y72198D01*
X61941Y71649D01*
X61933Y71588D01*
X61944D01*
Y69306D01*
X58248D01*
X57842Y69713D01*
X57954Y69825D01*
X58280Y70314D01*
X58395Y70890D01*
Y71588D01*
X58406D01*
X58398Y71649D01*
X58507Y72198D01*
X58845Y72703D01*
X58855Y72712D01*
X58859Y72708D01*
X58902Y72773D01*
X59297Y73287D01*
X59575Y73958D01*
X59669Y74677D01*
X59575Y75397D01*
X59297Y76067D01*
X58855Y76643D01*
X58280Y77084D01*
X57609Y77362D01*
X56890Y77457D01*
X56170Y77362D01*
X55500Y77084D01*
X54924Y76643D01*
X54483Y76067D01*
X54205Y75397D01*
X54110Y74677D01*
X54195Y74029D01*
X53747Y73808D01*
X52194Y75361D01*
X52177Y75445D01*
X51742Y76096D01*
X51091Y76531D01*
X50323Y76684D01*
X49555Y76531D01*
X48904Y76096D01*
X48469Y75445D01*
X48316Y74677D01*
X48469Y73909D01*
X48904Y73258D01*
X49555Y72823D01*
X49639Y72806D01*
X54223Y68223D01*
Y68223D01*
X54223Y68223D01*
X56223Y66223D01*
X56809Y65831D01*
X57500Y65694D01*
X71252D01*
X74723Y62223D01*
X74723Y62223D01*
X74723D01*
X74723Y62223D01*
X74723D01*
X74723Y62223D01*
Y62223D01*
Y62223D01*
D01*
D01*
X74723D01*
Y62223D01*
X75309Y61831D01*
X76000Y61694D01*
X81095D01*
Y60582D01*
X80418Y59905D01*
X78543D01*
Y60469D01*
X71457D01*
Y56532D01*
X78543D01*
Y57095D01*
X81000D01*
X81538Y57202D01*
X81993Y57507D01*
X83493Y59007D01*
X83798Y59462D01*
X83905Y60000D01*
Y61694D01*
X86660D01*
X86732Y61646D01*
X87171Y61558D01*
X92262Y56467D01*
X92071Y56005D01*
X91464D01*
X91422Y56023D01*
X90926Y56354D01*
X90158Y56507D01*
X89389Y56354D01*
X88738Y55919D01*
X88303Y55268D01*
X88150Y54500D01*
X88303Y53732D01*
X88738Y53081D01*
X89389Y52646D01*
X90158Y52493D01*
X90926Y52646D01*
X91422Y52977D01*
X91464Y52995D01*
X112376D01*
X115512Y49859D01*
X115529Y49817D01*
X115646Y49232D01*
X116081Y48581D01*
X116732Y48146D01*
X117500Y47993D01*
X118268Y48146D01*
X118919Y48581D01*
X119354Y49232D01*
X119507Y50000D01*
X119496Y50057D01*
X119937Y50292D01*
X123058Y47171D01*
X123146Y46732D01*
X123581Y46081D01*
X124232Y45646D01*
X125000Y45493D01*
X125768Y45646D01*
X126406Y46072D01*
X126426Y46072D01*
D01*
D01*
X126427Y46073D01*
X126427D01*
X126450Y46095D01*
X132500D01*
X133038Y46202D01*
X133493Y46507D01*
X133493Y46507D01*
X133493Y46507D01*
X145678Y58692D01*
X145983Y59147D01*
X146090Y59685D01*
X146090Y59685D01*
X146090Y59685D01*
Y59685D01*
Y69082D01*
X146563Y69243D01*
X146839Y68883D01*
X147460Y68407D01*
X148182Y68108D01*
X148457Y68072D01*
Y71000D01*
X148957D01*
Y71500D01*
X151885D01*
X151849Y71775D01*
X151550Y72497D01*
X151074Y73117D01*
X150454Y73593D01*
X150426Y73605D01*
X150523Y74095D01*
X154212D01*
X154530Y73708D01*
X154505Y73586D01*
X154104Y72986D01*
X154078Y72966D01*
X154076Y72968D01*
X154048Y72927D01*
X153636Y72390D01*
X153358Y71719D01*
X153264Y71000D01*
X153358Y70281D01*
X153636Y69610D01*
X154078Y69034D01*
X154654Y68593D01*
X155324Y68315D01*
X156043Y68220D01*
X156763Y68315D01*
X157433Y68593D01*
X158009Y69034D01*
X158451Y69610D01*
X158728Y70281D01*
X158823Y71000D01*
X158728Y71719D01*
X158451Y72390D01*
X158038Y72927D01*
X158011Y72968D01*
X158009Y72966D01*
X157982Y72986D01*
X157581Y73586D01*
X157451Y74243D01*
X157462Y74327D01*
X157448D01*
Y75500D01*
X157341Y76038D01*
X157248Y76178D01*
Y82957D01*
X157156Y83417D01*
X157051Y83574D01*
X156895Y83808D01*
X156895Y83808D01*
X156322Y84381D01*
Y88847D01*
X156336D01*
X156388Y89108D01*
X156534Y89326D01*
X156537Y89329D01*
X156972Y89980D01*
X157125Y90748D01*
X156972Y91516D01*
X156537Y92167D01*
X156107Y92455D01*
X156156Y92953D01*
X156390Y93049D01*
X156732Y93312D01*
X157225Y93230D01*
X157428Y92927D01*
X158149Y92445D01*
X158500Y92376D01*
Y94500D01*
Y96624D01*
X158149Y96554D01*
X157990Y96449D01*
X157512Y96594D01*
X157407Y96846D01*
X156965Y97422D01*
X156390Y97864D01*
X155719Y98142D01*
X155000Y98236D01*
X154281Y98142D01*
X153610Y97864D01*
X153034Y97422D01*
X152593Y96846D01*
X152315Y96176D01*
X152220Y95457D01*
X152240Y95306D01*
X152232Y95267D01*
X152252Y95166D01*
X152218Y95119D01*
X152218Y95119D01*
X152250Y94961D01*
X152148Y94453D01*
X151874Y94042D01*
X151855Y94028D01*
D01*
D01*
D01*
Y94028D01*
X151855Y94028D01*
X151845Y94038D01*
X151843Y94036D01*
X151843D01*
X151803Y93976D01*
X151803D01*
X151319Y93251D01*
X151147Y92384D01*
X151122Y92325D01*
X150374Y91577D01*
Y91577D01*
X150374D01*
X148993Y90196D01*
X148993Y90196D01*
X148983Y90205D01*
X148761Y90057D01*
X148504Y90006D01*
X148500Y90007D01*
X147732Y89854D01*
X147081Y89419D01*
X146646Y88768D01*
X146614Y88610D01*
X146173Y88375D01*
X145417Y88688D01*
X144488Y88810D01*
Y88814D01*
X143443Y88676D01*
X142469Y88273D01*
X141632Y87631D01*
X141640Y87623D01*
X141640Y87623D01*
X138405Y84388D01*
X137957Y84609D01*
X138039Y85236D01*
X138037D01*
X137857Y86603D01*
X137330Y87877D01*
X136490Y88971D01*
X136475Y88955D01*
X136333Y89050D01*
X136239Y89192D01*
X135096Y90334D01*
X135288Y90796D01*
X147500D01*
X147500Y90796D01*
X147961Y90887D01*
X148352Y91149D01*
X149352Y92149D01*
X149352Y92149D01*
X149508Y92383D01*
X149613Y92539D01*
X149687Y92913D01*
X149707Y92922D01*
X149733Y92984D01*
X149890Y93049D01*
X150466Y93491D01*
X150907Y94067D01*
X151185Y94737D01*
X151280Y95457D01*
X151185Y96176D01*
X150907Y96846D01*
X150466Y97422D01*
X149890Y97864D01*
X149219Y98142D01*
X148500Y98236D01*
X147781Y98142D01*
X147110Y97864D01*
X146535Y97422D01*
X146093Y96846D01*
X145815Y96176D01*
X145720Y95457D01*
X145815Y94737D01*
X146093Y94067D01*
X146411Y93653D01*
X146189Y93204D01*
X144311D01*
X144089Y93653D01*
X144407Y94067D01*
X144685Y94737D01*
X144780Y95457D01*
X144685Y96176D01*
X144407Y96846D01*
X143965Y97422D01*
X143390Y97864D01*
X142719Y98142D01*
X142000Y98236D01*
X141281Y98142D01*
X140610Y97864D01*
X140034Y97422D01*
X139593Y96846D01*
X139315Y96176D01*
X139220Y95457D01*
X139315Y94737D01*
X139593Y94067D01*
X139910Y93653D01*
X139689Y93204D01*
X138256D01*
Y98213D01*
X134047D01*
X132897Y98443D01*
X132805Y98904D01*
X132544Y99294D01*
X132544Y99294D01*
X128505Y103334D01*
X128696Y103796D01*
X129099D01*
Y103792D01*
Y103782D01*
X129360Y103730D01*
X129578Y103584D01*
X129581Y103581D01*
X130232Y103146D01*
X131000Y102993D01*
X131768Y103146D01*
X132303Y103503D01*
X132744Y103268D01*
Y99787D01*
X138256D01*
Y105299D01*
X137380D01*
X137311Y105467D01*
X137588Y105882D01*
X141023D01*
X141120Y105392D01*
X140503Y105136D01*
X139883Y104660D01*
X139407Y104040D01*
X139108Y103318D01*
X139072Y103043D01*
X144928D01*
X144892Y103318D01*
X144593Y104040D01*
X144117Y104660D01*
X143497Y105136D01*
X142880Y105392D01*
X142977Y105882D01*
X143188D01*
X143188D01*
X143649Y105974D01*
X144039Y106235D01*
X145600Y107796D01*
X150748D01*
X150748Y107796D01*
X151209Y107887D01*
X151600Y108149D01*
X152235Y108784D01*
X152235Y108784D01*
X152241Y108778D01*
X152293Y108841D01*
X153113Y109469D01*
X154143Y109896D01*
X155186Y110034D01*
X155248Y110025D01*
X156147Y110144D01*
X156985Y110491D01*
X157705Y111043D01*
X158257Y111763D01*
X158604Y112601D01*
X158723Y113500D01*
X158604Y114399D01*
X158257Y115237D01*
X157705Y115957D01*
X156985Y116509D01*
X156147Y116856D01*
X155248Y116975D01*
X154349Y116856D01*
X153511Y116509D01*
X152791Y115957D01*
X152239Y115237D01*
X151892Y114399D01*
X151773Y113500D01*
X151782Y113438D01*
X151644Y112395D01*
X151217Y111365D01*
X150589Y110545D01*
X150526Y110493D01*
X150532Y110487D01*
X150532Y110487D01*
X150249Y110204D01*
X149515D01*
X149355Y110678D01*
X149831Y111043D01*
X150383Y111763D01*
X150730Y112601D01*
X150849Y113500D01*
X150730Y114399D01*
X150383Y115237D01*
X149831Y115957D01*
X149111Y116509D01*
X148273Y116856D01*
X147374Y116975D01*
X146475Y116856D01*
X145637Y116509D01*
X144917Y115957D01*
X144365Y115237D01*
X144018Y114399D01*
X143899Y113500D01*
X144018Y112601D01*
X144239Y112068D01*
X142037Y109866D01*
X141550D01*
X141389Y110339D01*
X142109Y110891D01*
X142695Y111655D01*
X143063Y112545D01*
X143123Y113000D01*
X135877D01*
X135937Y112545D01*
X136305Y111655D01*
X136891Y110891D01*
X137611Y110339D01*
X137451Y109866D01*
X133135D01*
X133038Y110356D01*
X133363Y110491D01*
X134083Y111043D01*
X134635Y111763D01*
X134982Y112601D01*
X135101Y113500D01*
X134982Y114399D01*
X134635Y115237D01*
X134083Y115957D01*
X133363Y116509D01*
X132525Y116856D01*
X131626Y116975D01*
X130727Y116856D01*
X129889Y116509D01*
X129169Y115957D01*
X128617Y115237D01*
X128270Y114399D01*
X128151Y113500D01*
X128270Y112601D01*
X128617Y111763D01*
X129169Y111043D01*
X129889Y110491D01*
X130214Y110356D01*
X130117Y109866D01*
X128673D01*
Y109879D01*
X128411Y109931D01*
X128193Y110077D01*
X128191Y110081D01*
X127540Y110516D01*
X127197Y110584D01*
Y116945D01*
X120307D01*
Y110055D01*
X122033D01*
X122412Y109140D01*
X122547Y108116D01*
X122539Y108035D01*
X122548D01*
Y107717D01*
X122086Y107526D01*
X114961Y114651D01*
X114570Y114912D01*
X114109Y115003D01*
X114109Y115003D01*
X93200D01*
X91503Y116700D01*
Y124336D01*
X91412Y124797D01*
X91151Y125188D01*
X82550Y133789D01*
X82159Y134050D01*
X81699Y134141D01*
X81698Y134141D01*
X55961D01*
Y134315D01*
X51921D01*
Y134921D01*
X51315D01*
Y138512D01*
X52074D01*
X53710Y138189D01*
X53862Y137421D01*
X54297Y136770D01*
X54949Y136335D01*
X55717Y136182D01*
X56485Y136335D01*
X57136Y136770D01*
X57571Y137421D01*
X57724Y138189D01*
X57571Y138957D01*
X57136Y139608D01*
X56823Y139817D01*
X56968Y140296D01*
X57599D01*
Y140292D01*
Y140282D01*
X57860Y140230D01*
X58078Y140084D01*
X58081Y140081D01*
X58732Y139646D01*
X59500Y139493D01*
X60268Y139646D01*
X60919Y140081D01*
X61354Y140732D01*
X61507Y141500D01*
X61354Y142268D01*
X60919Y142919D01*
X60268Y143354D01*
X59500Y143507D01*
D02*
G37*
G36*
X143700Y150426D02*
X142388Y150297D01*
X141127Y149914D01*
X139964Y149293D01*
X138945Y148457D01*
X138109Y147437D01*
X137487Y146275D01*
X137104Y145013D01*
X136975Y143701D01*
X137104Y142389D01*
X137487Y141127D01*
X138109Y139965D01*
X138945Y138946D01*
X139964Y138109D01*
X141127Y137488D01*
X142388Y137105D01*
X143700Y136976D01*
X145012Y137105D01*
X146274Y137488D01*
X147437Y138109D01*
X148456Y138946D01*
X149292Y139965D01*
X149914Y141127D01*
X150296Y142389D01*
X150426Y143701D01*
X150296Y145013D01*
X149914Y146275D01*
X149292Y147437D01*
X148456Y148457D01*
X147437Y149293D01*
X146274Y149914D01*
X145012Y150297D01*
X143700Y150426D01*
D02*
G37*
G36*
X79500Y140000D02*
X77776D01*
Y138177D01*
X77946Y137326D01*
X78427Y136605D01*
X79149Y136123D01*
X79500Y136053D01*
Y140000D01*
D02*
G37*
G36*
X82224D02*
X80500D01*
Y136053D01*
X80851Y136123D01*
X81573Y136605D01*
X82055Y137326D01*
X82224Y138177D01*
Y140000D01*
D02*
G37*
G36*
X21653Y150426D02*
X20341Y150297D01*
X19080Y149914D01*
X17917Y149293D01*
X16898Y148457D01*
X16061Y147437D01*
X15440Y146275D01*
X15057Y145013D01*
X14928Y143701D01*
X15057Y142389D01*
X15440Y141127D01*
X16061Y139965D01*
X16898Y138946D01*
X17917Y138109D01*
X19080Y137488D01*
X20341Y137105D01*
X21653Y136976D01*
X22965Y137105D01*
X24227Y137488D01*
X25390Y138109D01*
X26409Y138946D01*
X27245Y139965D01*
X27867Y141127D01*
X28249Y142389D01*
X28378Y143701D01*
X28249Y145013D01*
X27867Y146275D01*
X27245Y147437D01*
X26409Y148457D01*
X25390Y149293D01*
X24227Y149914D01*
X22965Y150297D01*
X21653Y150426D01*
D02*
G37*
G36*
X79500Y144947D02*
X79149Y144877D01*
X78427Y144395D01*
X77946Y143674D01*
X77776Y142823D01*
Y141000D01*
X79500D01*
Y144947D01*
D02*
G37*
G36*
X45240Y161831D02*
X37760D01*
Y153169D01*
X39667D01*
X40027Y152300D01*
X39629Y151339D01*
X37661D01*
Y143661D01*
X45339D01*
Y151339D01*
X43371D01*
X42973Y152300D01*
X43333Y153169D01*
X45240D01*
Y161831D01*
D02*
G37*
G36*
X5799Y145366D02*
X4175D01*
X4245Y145015D01*
X4727Y144294D01*
X5448Y143812D01*
X5799Y143742D01*
Y145366D01*
D02*
G37*
G36*
X8424D02*
X6799D01*
Y143742D01*
X7150Y143812D01*
X7872Y144294D01*
X8354Y145015D01*
X8424Y145366D01*
D02*
G37*
G36*
X51500Y151372D02*
X50498Y151240D01*
X49564Y150853D01*
X48762Y150238D01*
X48147Y149436D01*
X47760Y148502D01*
X47628Y147500D01*
X47760Y146498D01*
X48147Y145564D01*
X48762Y144762D01*
X49564Y144147D01*
X50498Y143760D01*
X51500Y143628D01*
X52502Y143760D01*
X53436Y144147D01*
X54238Y144762D01*
X54853Y145564D01*
X55240Y146498D01*
X55372Y147500D01*
X55240Y148502D01*
X54853Y149436D01*
X54238Y150238D01*
X53436Y150853D01*
X52502Y151240D01*
X51500Y151372D01*
D02*
G37*
G36*
X80500Y144947D02*
Y141000D01*
X82224D01*
Y142823D01*
X82055Y143674D01*
X81573Y144395D01*
X80851Y144877D01*
X80500Y144947D01*
D02*
G37*
G36*
X158949Y143266D02*
X158598Y143196D01*
X157876Y142714D01*
X157394Y141993D01*
X157325Y141642D01*
X158949D01*
Y143266D01*
D02*
G37*
G36*
X159949D02*
Y141642D01*
X161573D01*
X161503Y141993D01*
X161021Y142714D01*
X160300Y143196D01*
X159949Y143266D01*
D02*
G37*
G36*
X127256Y123441D02*
X124000D01*
Y121760D01*
X127256D01*
Y123441D01*
D02*
G37*
G36*
X132000Y124425D02*
X129532D01*
Y121957D01*
X132000D01*
Y124425D01*
D02*
G37*
G36*
X135468D02*
X133000D01*
Y121957D01*
X135468D01*
Y124425D01*
D02*
G37*
G36*
X123000Y123441D02*
X119744D01*
Y121760D01*
X123000D01*
Y123441D01*
D02*
G37*
G36*
X127256Y120760D02*
X124000D01*
Y119079D01*
X127256D01*
Y120760D01*
D02*
G37*
G36*
X14756Y122433D02*
X11933D01*
X11973Y122132D01*
X12282Y121386D01*
X12773Y120746D01*
X13414Y120254D01*
X14160Y119945D01*
X14756Y119867D01*
Y122433D01*
D02*
G37*
G36*
X100339Y128839D02*
X92661D01*
Y121161D01*
X100339D01*
Y128839D01*
D02*
G37*
G36*
X106500Y128872D02*
X105498Y128740D01*
X104564Y128353D01*
X103762Y127738D01*
X103147Y126936D01*
X102760Y126002D01*
X102628Y125000D01*
X102760Y123998D01*
X103147Y123064D01*
X103762Y122262D01*
X104564Y121647D01*
X105498Y121260D01*
X106500Y121128D01*
X107502Y121260D01*
X108436Y121647D01*
X109219Y122248D01*
X109239Y122261D01*
X109238Y122262D01*
X109262Y122294D01*
X109892Y122777D01*
X110663Y123097D01*
X111398Y123194D01*
X111689D01*
Y123031D01*
X118776D01*
Y126969D01*
X111689D01*
Y126806D01*
X111398D01*
X110663Y126903D01*
X109892Y127223D01*
X109262Y127706D01*
X109238Y127738D01*
X109239Y127739D01*
X109219Y127752D01*
X108436Y128353D01*
X107502Y128740D01*
X106500Y128872D01*
D02*
G37*
G36*
X6291Y131738D02*
X5709D01*
X4805Y131620D01*
X3963Y131271D01*
X3241Y130716D01*
X2686Y129993D01*
X2337Y129151D01*
X2284Y128748D01*
X6291D01*
Y131738D01*
D02*
G37*
G36*
X7874D02*
X7291D01*
Y128748D01*
X11299D01*
X11246Y129151D01*
X10897Y129993D01*
X10342Y130716D01*
X9619Y131271D01*
X8777Y131620D01*
X7874Y131738D01*
D02*
G37*
G36*
X135256Y131299D02*
X129744D01*
Y129996D01*
X129369Y129841D01*
X128756Y129760D01*
X128700Y129767D01*
Y129767D01*
D01*
Y129767D01*
X128698Y129767D01*
D01*
D01*
X128698D01*
X128698D01*
D01*
D01*
D01*
Y129767D01*
X128678Y129748D01*
X128378D01*
X128221Y129853D01*
X127760Y129944D01*
X127760Y129944D01*
X127043D01*
Y130709D01*
X119957D01*
Y126772D01*
X127043D01*
Y127203D01*
X127484Y127438D01*
X127496Y127431D01*
X127957Y127339D01*
X127957Y127339D01*
X128678D01*
X128698Y127319D01*
Y127319D01*
D01*
D01*
Y127319D01*
X128698D01*
D01*
D01*
D01*
D01*
X128700Y127320D01*
Y127320D01*
D01*
D01*
X128756Y127327D01*
X129369Y127246D01*
X129744Y127091D01*
Y125787D01*
X135256D01*
Y127091D01*
X135631Y127246D01*
X136152Y127315D01*
X136360Y127273D01*
X136578Y127128D01*
X136581Y127124D01*
X137232Y126689D01*
X138000Y126536D01*
X138768Y126689D01*
X139419Y127124D01*
X139854Y127775D01*
X140007Y128543D01*
X139854Y129311D01*
X139419Y129963D01*
X138768Y130398D01*
X138000Y130550D01*
X137232Y130398D01*
X136581Y129963D01*
X136578Y129959D01*
X136360Y129813D01*
X136152Y129772D01*
X135631Y129841D01*
X135256Y129996D01*
Y131299D01*
D02*
G37*
G36*
X11299Y127748D02*
X7291D01*
Y124758D01*
X7874D01*
X8777Y124876D01*
X9619Y125225D01*
X10342Y125780D01*
X10897Y126503D01*
X11246Y127345D01*
X11299Y127748D01*
D02*
G37*
G36*
X14756Y125999D02*
X14160Y125921D01*
X13414Y125612D01*
X12773Y125120D01*
X12282Y124480D01*
X11973Y123734D01*
X11933Y123433D01*
X14756D01*
Y125999D01*
D02*
G37*
G36*
X15756D02*
Y123433D01*
X18579D01*
X18539Y123734D01*
X18230Y124480D01*
X17739Y125120D01*
X17098Y125612D01*
X16352Y125921D01*
X15756Y125999D01*
D02*
G37*
G36*
X6291Y127748D02*
X2284D01*
X2337Y127345D01*
X2686Y126503D01*
X3241Y125780D01*
X3963Y125225D01*
X4805Y124876D01*
X5709Y124758D01*
X6291D01*
Y127748D01*
D02*
G37*
G36*
X131500Y159500D02*
X129876D01*
X129946Y159149D01*
X130428Y158428D01*
X131149Y157946D01*
X131500Y157876D01*
Y159500D01*
D02*
G37*
G36*
X134124D02*
X132500D01*
Y157876D01*
X132851Y157946D01*
X133572Y158428D01*
X134055Y159149D01*
X134124Y159500D01*
D02*
G37*
G36*
X25091Y159539D02*
X23466D01*
X23536Y159188D01*
X24018Y158467D01*
X24739Y157985D01*
X25091Y157915D01*
Y159539D01*
D02*
G37*
G36*
X15067Y158227D02*
Y156602D01*
X16691D01*
X16622Y156953D01*
X16139Y157675D01*
X15418Y158157D01*
X15067Y158227D01*
D02*
G37*
G36*
X81043Y158000D02*
X78615D01*
X78651Y157725D01*
X78950Y157003D01*
X79426Y156383D01*
X80046Y155907D01*
X80768Y155608D01*
X81043Y155572D01*
Y158000D01*
D02*
G37*
G36*
X84472D02*
X82043D01*
Y155572D01*
X82318Y155608D01*
X83040Y155907D01*
X83661Y156383D01*
X84136Y157003D01*
X84435Y157725D01*
X84472Y158000D01*
D02*
G37*
G36*
X14067Y158227D02*
X13716Y158157D01*
X12994Y157675D01*
X12512Y156953D01*
X12443Y156602D01*
X14067D01*
Y158227D01*
D02*
G37*
G36*
X27715Y159539D02*
X26091D01*
Y157915D01*
X26442Y157985D01*
X27163Y158467D01*
X27645Y159188D01*
X27715Y159539D01*
D02*
G37*
G36*
X132500Y162124D02*
Y160500D01*
X134124D01*
X134055Y160851D01*
X133572Y161573D01*
X132851Y162055D01*
X132500Y162124D01*
D02*
G37*
G36*
X25091Y162164D02*
X24739Y162094D01*
X24018Y161612D01*
X23536Y160890D01*
X23466Y160539D01*
X25091D01*
Y162164D01*
D02*
G37*
G36*
X26091D02*
Y160539D01*
X27715D01*
X27645Y160890D01*
X27163Y161612D01*
X26442Y162094D01*
X26091Y162164D01*
D02*
G37*
G36*
X131500Y162124D02*
X131149Y162055D01*
X130428Y161573D01*
X129946Y160851D01*
X129876Y160500D01*
X131500D01*
Y162124D01*
D02*
G37*
G36*
X81043Y161428D02*
X80768Y161392D01*
X80046Y161093D01*
X79426Y160617D01*
X78950Y159997D01*
X78651Y159275D01*
X78615Y159000D01*
X81043D01*
Y161428D01*
D02*
G37*
G36*
X82043D02*
Y159000D01*
X84472D01*
X84435Y159275D01*
X84136Y159997D01*
X83661Y160617D01*
X83040Y161093D01*
X82318Y161392D01*
X82043Y161428D01*
D02*
G37*
G36*
X74457Y161280D02*
X73737Y161185D01*
X73067Y160907D01*
X72491Y160466D01*
X72488Y160468D01*
X71951Y160056D01*
X71326Y159797D01*
X70713Y159716D01*
X70657Y159724D01*
Y159724D01*
D01*
Y159724D01*
X70655Y159724D01*
D01*
D01*
X70655D01*
X70655D01*
D01*
D01*
D01*
Y159724D01*
X70635Y159704D01*
X68000D01*
X67539Y159613D01*
X67383Y159508D01*
X67149Y159352D01*
X67149Y159352D01*
X60149Y152351D01*
X59887Y151961D01*
X59796Y151500D01*
X59796Y151500D01*
Y149000D01*
X59796Y149000D01*
X59887Y148539D01*
X60149Y148149D01*
X62625Y145672D01*
X63581Y144242D01*
X63146Y143591D01*
X62993Y142823D01*
Y138177D01*
X63146Y137409D01*
X63581Y136758D01*
X64232Y136323D01*
X65000Y136170D01*
X65768Y136323D01*
X66419Y136758D01*
X66854Y137409D01*
X67007Y138177D01*
Y142823D01*
X66854Y143591D01*
X66419Y144242D01*
X66416Y144244D01*
X66270Y144462D01*
X66218Y144724D01*
X66204D01*
Y145000D01*
X66113Y145461D01*
X66008Y145617D01*
X65851Y145852D01*
X65851Y145852D01*
X62204Y149499D01*
Y151001D01*
X63869Y152666D01*
X64285Y152388D01*
X63918Y151502D01*
X63786Y150500D01*
X63918Y149498D01*
X64305Y148564D01*
X64920Y147762D01*
X65722Y147147D01*
X66312Y146902D01*
X66376Y146860D01*
X66423Y146851D01*
Y146843D01*
X66423D01*
X66432Y146820D01*
X66432Y146820D01*
X66432D01*
X66436Y146810D01*
X66437Y146810D01*
X66456Y146801D01*
D01*
Y146801D01*
X66456D01*
D01*
D01*
X66461Y146801D01*
X66545Y146382D01*
X66806Y145991D01*
X68570Y144227D01*
X68146Y143591D01*
X67993Y142823D01*
Y138177D01*
X68146Y137409D01*
X68581Y136758D01*
X69232Y136323D01*
X70000Y136170D01*
X70768Y136323D01*
X71419Y136758D01*
X71854Y137409D01*
X72007Y138177D01*
Y142823D01*
X71854Y143591D01*
X71419Y144242D01*
X71291Y144328D01*
X71285Y144370D01*
X71285D01*
X71218Y144500D01*
X71204Y144500D01*
X71204Y144500D01*
X71113Y144961D01*
X71008Y145117D01*
X70851Y145352D01*
X70851Y145352D01*
X69504Y146699D01*
X69593Y147147D01*
X70395Y147762D01*
X71011Y148564D01*
X71397Y149498D01*
X71529Y150500D01*
X71397Y151502D01*
X71011Y152436D01*
X70395Y153238D01*
X69593Y153853D01*
X68660Y154240D01*
X67658Y154372D01*
X66655Y154240D01*
X65769Y153873D01*
X65491Y154288D01*
X68499Y157296D01*
X70635D01*
X70655Y157276D01*
Y157276D01*
D01*
D01*
Y157276D01*
X70655D01*
D01*
D01*
D01*
D01*
X70657Y157276D01*
Y157276D01*
D01*
D01*
X70713Y157283D01*
X71326Y157203D01*
X71951Y156944D01*
X72485Y156535D01*
X72485D01*
X72488Y156532D01*
X72491Y156535D01*
X73067Y156093D01*
X73737Y155815D01*
X74457Y155720D01*
X75176Y155815D01*
X75846Y156093D01*
X76422Y156535D01*
X76864Y157110D01*
X77142Y157781D01*
X77236Y158500D01*
X77142Y159219D01*
X76864Y159890D01*
X76422Y160466D01*
X75846Y160907D01*
X75176Y161185D01*
X74457Y161280D01*
D02*
G37*
G36*
X91363Y150000D02*
X87843D01*
Y146480D01*
X88400Y146553D01*
X89386Y146961D01*
X90232Y147611D01*
X90881Y148457D01*
X91289Y149442D01*
X91363Y150000D01*
D02*
G37*
G36*
X101024Y154339D02*
X93347D01*
Y146661D01*
X101024D01*
Y154339D01*
D02*
G37*
G36*
X154224Y151862D02*
X152600D01*
X152670Y151511D01*
X153152Y150790D01*
X153873Y150308D01*
X154224Y150238D01*
Y151862D01*
D02*
G37*
G36*
X86843Y150000D02*
X83322D01*
X83396Y149442D01*
X83804Y148457D01*
X84453Y147611D01*
X85299Y146961D01*
X86285Y146553D01*
X86843Y146480D01*
Y150000D01*
D02*
G37*
G36*
X77500Y154372D02*
X76498Y154240D01*
X75564Y153853D01*
X74762Y153238D01*
X74147Y152436D01*
X73760Y151502D01*
X73628Y150500D01*
X73760Y149498D01*
X74147Y148564D01*
X74762Y147762D01*
X75478Y147213D01*
X75511Y146714D01*
X74148Y145352D01*
X73887Y144961D01*
X73796Y144500D01*
X73796Y144500D01*
X73796Y144500D01*
X73782Y144500D01*
X73716Y144370D01*
X73716D01*
X73709Y144328D01*
X73581Y144242D01*
X73146Y143591D01*
X72993Y142823D01*
Y138177D01*
X73146Y137409D01*
X73581Y136758D01*
X74232Y136323D01*
X75000Y136170D01*
X75768Y136323D01*
X76419Y136758D01*
X76854Y137409D01*
X77007Y138177D01*
Y142823D01*
X76854Y143591D01*
X76430Y144227D01*
X78351Y146149D01*
X78351Y146149D01*
X78508Y146383D01*
X78613Y146539D01*
X78665Y146802D01*
X78671Y146805D01*
X78673Y146809D01*
X78673D01*
X78673Y146809D01*
X78680Y146826D01*
X78680D01*
X78683Y146833D01*
X78683Y146833D01*
D01*
X78683D01*
X78683Y146833D01*
D01*
X78691Y146838D01*
X79436Y147147D01*
X80238Y147762D01*
X80853Y148564D01*
X81240Y149498D01*
X81372Y150500D01*
X81240Y151502D01*
X80853Y152436D01*
X80238Y153238D01*
X79436Y153853D01*
X78502Y154240D01*
X77500Y154372D01*
D02*
G37*
G36*
X5799Y147991D02*
X5448Y147921D01*
X4727Y147439D01*
X4245Y146717D01*
X4175Y146366D01*
X5799D01*
Y147991D01*
D02*
G37*
G36*
X6799D02*
Y146366D01*
X8424D01*
X8354Y146717D01*
X7872Y147439D01*
X7150Y147921D01*
X6799Y147991D01*
D02*
G37*
G36*
X156849Y151862D02*
X155224D01*
Y150238D01*
X155575Y150308D01*
X156297Y150790D01*
X156779Y151511D01*
X156849Y151862D01*
D02*
G37*
G36*
X14067Y155602D02*
X12443D01*
X12512Y155251D01*
X12994Y154530D01*
X13716Y154048D01*
X14067Y153978D01*
Y155602D01*
D02*
G37*
G36*
X16691D02*
X15067D01*
Y153978D01*
X15418Y154048D01*
X16139Y154530D01*
X16622Y155251D01*
X16691Y155602D01*
D02*
G37*
G36*
X56657Y161831D02*
X49177D01*
Y153169D01*
X56657D01*
Y155667D01*
X57487Y156010D01*
X57646Y155979D01*
X57898Y156029D01*
X57909Y155981D01*
X58193Y156037D01*
X58712Y155934D01*
X58911Y155801D01*
X58911Y155801D01*
X58978Y155815D01*
X59232Y155646D01*
X60000Y155493D01*
X60768Y155646D01*
X61419Y156081D01*
X61854Y156732D01*
X62007Y157500D01*
X61854Y158268D01*
X61419Y158919D01*
X60768Y159354D01*
X60000Y159507D01*
X59232Y159354D01*
X58978Y159185D01*
X58911Y159199D01*
X58911Y159199D01*
X58712Y159066D01*
X58193Y158963D01*
X57909Y159019D01*
X57898Y158971D01*
X57646Y159021D01*
X57487Y158990D01*
X56657Y159333D01*
Y161831D01*
D02*
G37*
G36*
X155224Y154487D02*
Y152862D01*
X156849D01*
X156779Y153213D01*
X156297Y153935D01*
X155575Y154417D01*
X155224Y154487D01*
D02*
G37*
G36*
X86843Y154520D02*
X86285Y154447D01*
X85299Y154039D01*
X84453Y153389D01*
X83804Y152543D01*
X83396Y151558D01*
X83322Y151000D01*
X86843D01*
Y154520D01*
D02*
G37*
G36*
X87843D02*
Y151000D01*
X91363D01*
X91289Y151558D01*
X90881Y152543D01*
X90232Y153389D01*
X89386Y154039D01*
X88400Y154447D01*
X87843Y154520D01*
D02*
G37*
G36*
X154224Y154487D02*
X153873Y154417D01*
X153152Y153935D01*
X152670Y153213D01*
X152600Y152862D01*
X154224D01*
Y154487D01*
D02*
G37*
G36*
X94382Y95825D02*
X94031Y95755D01*
X93309Y95273D01*
X92827Y94552D01*
X92757Y94201D01*
X94382D01*
Y95825D01*
D02*
G37*
G36*
X95382D02*
Y94201D01*
X97006D01*
X96936Y94552D01*
X96454Y95273D01*
X95733Y95755D01*
X95382Y95825D01*
D02*
G37*
G36*
X159500Y96624D02*
Y95000D01*
X161124D01*
X161055Y95351D01*
X160573Y96073D01*
X159851Y96554D01*
X159500Y96624D01*
D02*
G37*
G36*
X161124Y94000D02*
X159500D01*
Y92376D01*
X159851Y92445D01*
X160573Y92927D01*
X161055Y93649D01*
X161124Y94000D01*
D02*
G37*
G36*
X27764Y94500D02*
X26139D01*
X26209Y94149D01*
X26691Y93427D01*
X27413Y92945D01*
X27764Y92876D01*
Y94500D01*
D02*
G37*
G36*
X30388D02*
X28764D01*
Y92876D01*
X29115Y92945D01*
X29836Y93427D01*
X30318Y94149D01*
X30388Y94500D01*
D02*
G37*
G36*
X87689Y100484D02*
X86065D01*
X86134Y100133D01*
X86616Y99412D01*
X87338Y98930D01*
X87689Y98860D01*
Y100484D01*
D02*
G37*
G36*
X90313D02*
X88689D01*
Y98860D01*
X89040Y98930D01*
X89762Y99412D01*
X90244Y100133D01*
X90313Y100484D01*
D02*
G37*
G36*
X34417Y106921D02*
X30362D01*
Y102079D01*
X34417D01*
Y102894D01*
X35835D01*
X38058Y100671D01*
X38146Y100232D01*
X38581Y99581D01*
X39232Y99146D01*
X40000Y98993D01*
X40768Y99146D01*
X41419Y99581D01*
X41854Y100232D01*
X42007Y101000D01*
X41921Y101433D01*
X42043Y101555D01*
Y103457D01*
X40233D01*
X39960Y103311D01*
X37635Y105635D01*
X37115Y105983D01*
X37012Y106004D01*
X36500Y106106D01*
X36500Y106106D01*
X34417D01*
Y106921D01*
D02*
G37*
G36*
X66377Y81264D02*
X63949D01*
Y78835D01*
X64224Y78872D01*
X64946Y79171D01*
X65566Y79647D01*
X66042Y80267D01*
X66341Y80989D01*
X66377Y81264D01*
D02*
G37*
G36*
X62949D02*
X60520D01*
X60557Y80989D01*
X60856Y80267D01*
X61332Y79647D01*
X61952Y79171D01*
X62674Y78872D01*
X62949Y78835D01*
Y81264D01*
D02*
G37*
G36*
X11692Y99598D02*
X7291D01*
Y96608D01*
X8268D01*
X9171Y96727D01*
X10013Y97076D01*
X10736Y97630D01*
X11291Y98353D01*
X11639Y99195D01*
X11692Y99598D01*
D02*
G37*
G36*
X74370Y87184D02*
X69724D01*
X68956Y87032D01*
X68305Y86596D01*
X67870Y85945D01*
X67717Y85177D01*
X67870Y84409D01*
X68305Y83758D01*
X68956Y83323D01*
X69724Y83170D01*
X74370D01*
X75138Y83323D01*
X75789Y83758D01*
X76224Y84409D01*
X76377Y85177D01*
X76224Y85945D01*
X75789Y86596D01*
X75138Y87032D01*
X74370Y87184D01*
D02*
G37*
G36*
X71547Y89677D02*
X67600D01*
X67670Y89326D01*
X68152Y88605D01*
X68873Y88123D01*
X69724Y87953D01*
X71547D01*
Y89677D01*
D02*
G37*
G36*
X76494D02*
X72547D01*
Y87953D01*
X74370D01*
X75221Y88123D01*
X75943Y88605D01*
X76425Y89326D01*
X76494Y89677D01*
D02*
G37*
G36*
X57390Y84692D02*
Y82264D01*
X59818D01*
X59782Y82539D01*
X59483Y83261D01*
X59007Y83881D01*
X58387Y84357D01*
X57665Y84656D01*
X57390Y84692D01*
D02*
G37*
G36*
X62949D02*
X62674Y84656D01*
X61952Y84357D01*
X61332Y83881D01*
X60856Y83261D01*
X60557Y82539D01*
X60520Y82264D01*
X62949D01*
Y84692D01*
D02*
G37*
G36*
X63949D02*
Y82264D01*
X66377D01*
X66341Y82539D01*
X66042Y83261D01*
X65566Y83881D01*
X64946Y84357D01*
X64224Y84656D01*
X63949Y84692D01*
D02*
G37*
G36*
X56390D02*
X56115Y84656D01*
X55393Y84357D01*
X54773Y83881D01*
X54297Y83261D01*
X53998Y82539D01*
X53961Y82264D01*
X56390D01*
Y84692D01*
D02*
G37*
G36*
X74370Y92401D02*
X72547D01*
Y90677D01*
X76494D01*
X76425Y91028D01*
X75943Y91750D01*
X75221Y92232D01*
X74370Y92401D01*
D02*
G37*
G36*
X97006Y93201D02*
X92757D01*
X92827Y92850D01*
X92833Y92842D01*
X92597Y92401D01*
X90984D01*
X90133Y92232D01*
X89412Y91750D01*
X88930Y91028D01*
X88860Y90677D01*
X97754D01*
X97685Y91028D01*
X97202Y91750D01*
X96510Y92212D01*
X96936Y92850D01*
X97006Y93201D01*
D02*
G37*
G36*
X92807Y89677D02*
X88860D01*
X88930Y89326D01*
X89412Y88605D01*
X90133Y88123D01*
X90984Y87953D01*
X92807D01*
Y89677D01*
D02*
G37*
G36*
X97754D02*
X93807D01*
Y87953D01*
X95630D01*
X96481Y88123D01*
X97202Y88605D01*
X97685Y89326D01*
X97754Y89677D01*
D02*
G37*
G36*
X71547Y92401D02*
X69724D01*
X68873Y92232D01*
X68152Y91750D01*
X67670Y91028D01*
X67600Y90677D01*
X71547D01*
Y92401D01*
D02*
G37*
G36*
X154500Y102043D02*
X152072D01*
X152108Y101768D01*
X152407Y101046D01*
X152883Y100426D01*
X153503Y99950D01*
X154225Y99651D01*
X154500Y99615D01*
Y102043D01*
D02*
G37*
G36*
X15756Y108480D02*
Y105913D01*
X18579D01*
X18539Y106214D01*
X18230Y106960D01*
X17739Y107601D01*
X17098Y108092D01*
X16352Y108401D01*
X15756Y108480D01*
D02*
G37*
G36*
X36902Y109146D02*
X35277D01*
X35347Y108795D01*
X35829Y108073D01*
X36551Y107591D01*
X36902Y107521D01*
Y109146D01*
D02*
G37*
G36*
X14756Y108480D02*
X14160Y108401D01*
X13414Y108092D01*
X12773Y107601D01*
X12282Y106960D01*
X11973Y106214D01*
X11933Y105913D01*
X14756D01*
Y108480D01*
D02*
G37*
G36*
X148000Y105472D02*
X147725Y105435D01*
X147003Y105136D01*
X146383Y104660D01*
X145907Y104040D01*
X145608Y103318D01*
X145572Y103043D01*
X148000D01*
Y105472D01*
D02*
G37*
G36*
X149000D02*
Y103043D01*
X151428D01*
X151392Y103318D01*
X151093Y104040D01*
X150617Y104660D01*
X149997Y105136D01*
X149275Y105435D01*
X149000Y105472D01*
D02*
G37*
G36*
X59818Y81264D02*
X57390D01*
Y78835D01*
X57665Y78872D01*
X58387Y79171D01*
X59007Y79647D01*
X59483Y80267D01*
X59782Y80989D01*
X59818Y81264D01*
D02*
G37*
G36*
X135468Y120957D02*
X133000D01*
Y118488D01*
X135468D01*
Y120957D01*
D02*
G37*
G36*
X123000Y120760D02*
X119744D01*
Y119079D01*
X123000D01*
Y120760D01*
D02*
G37*
G36*
X132000Y120957D02*
X129532D01*
Y118488D01*
X132000D01*
Y120957D01*
D02*
G37*
G36*
X139000Y117123D02*
X138545Y117063D01*
X137655Y116695D01*
X136891Y116109D01*
X136305Y115345D01*
X135937Y114455D01*
X135877Y114000D01*
X139000D01*
Y117123D01*
D02*
G37*
G36*
X140000D02*
Y114000D01*
X143123D01*
X143063Y114455D01*
X142695Y115345D01*
X142109Y116109D01*
X141344Y116695D01*
X140455Y117063D01*
X140000Y117123D01*
D02*
G37*
G36*
X148000Y102043D02*
X145572D01*
X145608Y101768D01*
X145907Y101046D01*
X146383Y100426D01*
X147003Y99950D01*
X147725Y99651D01*
X148000Y99615D01*
Y102043D01*
D02*
G37*
G36*
X151428D02*
X149000D01*
Y99615D01*
X149275Y99651D01*
X149997Y99950D01*
X150617Y100426D01*
X151093Y101046D01*
X151392Y101768D01*
X151428Y102043D01*
D02*
G37*
G36*
X8268Y103589D02*
X7291D01*
Y100598D01*
X11692D01*
X11639Y101002D01*
X11291Y101844D01*
X10736Y102567D01*
X10013Y103121D01*
X9171Y103470D01*
X8268Y103589D01*
D02*
G37*
G36*
X157928Y102043D02*
X155500D01*
Y99615D01*
X155775Y99651D01*
X156497Y99950D01*
X157117Y100426D01*
X157593Y101046D01*
X157892Y101768D01*
X157928Y102043D01*
D02*
G37*
G36*
X141500Y102043D02*
X139072D01*
X139108Y101768D01*
X139407Y101046D01*
X139883Y100426D01*
X140503Y99950D01*
X141225Y99651D01*
X141500Y99615D01*
Y102043D01*
D02*
G37*
G36*
X144928D02*
X142500D01*
Y99615D01*
X142775Y99651D01*
X143497Y99950D01*
X144117Y100426D01*
X144593Y101046D01*
X144892Y101768D01*
X144928Y102043D01*
D02*
G37*
G36*
X44668Y103457D02*
X43043D01*
Y101832D01*
X43394Y101902D01*
X44116Y102384D01*
X44598Y103106D01*
X44668Y103457D01*
D02*
G37*
G36*
X14756Y104913D02*
X11933D01*
X11973Y104613D01*
X12282Y103867D01*
X12773Y103226D01*
X13414Y102734D01*
X14160Y102425D01*
X14756Y102347D01*
Y104913D01*
D02*
G37*
G36*
X18579D02*
X15756D01*
Y102347D01*
X16352Y102425D01*
X17098Y102734D01*
X17739Y103226D01*
X18230Y103867D01*
X18539Y104613D01*
X18579Y104913D01*
D02*
G37*
G36*
X155500Y105472D02*
Y103043D01*
X157928D01*
X157892Y103318D01*
X157593Y104040D01*
X157117Y104660D01*
X156497Y105136D01*
X155775Y105435D01*
X155500Y105472D01*
D02*
G37*
G36*
X154500D02*
X154225Y105435D01*
X153503Y105136D01*
X152883Y104660D01*
X152407Y104040D01*
X152108Y103318D01*
X152072Y103043D01*
X154500D01*
Y105472D01*
D02*
G37*
%LPD*%
G36*
X57377Y70403D02*
X57209Y70234D01*
X56489Y69410D01*
X56476Y69373D01*
X55373Y70476D01*
X55410Y70489D01*
X55461Y70518D01*
X55528Y70565D01*
X55609Y70629D01*
X55940Y70926D01*
X56403Y71377D01*
X57377Y70403D01*
D02*
G37*
G36*
X96661Y67032D02*
X91304D01*
X92331Y69000D01*
X91304Y70969D01*
X96661D01*
Y67032D01*
D02*
G37*
G36*
X78289Y123182D02*
X78387Y122692D01*
X78146Y122331D01*
X77993Y121563D01*
Y116917D01*
X78146Y116149D01*
X78581Y115498D01*
X79232Y115063D01*
X80000Y114910D01*
X80768Y115063D01*
X81419Y115498D01*
X81854Y116149D01*
X82007Y116917D01*
Y121364D01*
X82469Y121555D01*
X82796Y121228D01*
Y113592D01*
X82796Y113592D01*
X82887Y113131D01*
X83148Y112740D01*
X88648Y107241D01*
X88456Y106779D01*
X82651D01*
X82491Y107253D01*
X82661Y107383D01*
X83136Y108003D01*
X83435Y108725D01*
X83472Y109000D01*
X77615D01*
X77651Y108725D01*
X77950Y108003D01*
X78426Y107383D01*
X78596Y107253D01*
X78435Y106779D01*
X75216D01*
X75055Y107253D01*
X75422Y107535D01*
X75864Y108110D01*
X76142Y108781D01*
X76236Y109500D01*
X76142Y110219D01*
X75864Y110890D01*
X75800Y110973D01*
X75882Y111466D01*
X76573Y111927D01*
X77055Y112649D01*
X77124Y113000D01*
X75000D01*
Y114000D01*
X77124D01*
X77055Y114351D01*
X76573Y115073D01*
Y115345D01*
X77055Y116066D01*
X77224Y116917D01*
Y118740D01*
X75000D01*
Y119740D01*
X77224D01*
Y121563D01*
X77055Y122414D01*
X76689Y122961D01*
X76925Y123402D01*
X77960D01*
X78289Y123182D01*
D02*
G37*
G36*
X141929Y76339D02*
D01*
X142284Y76181D01*
X142284Y76181D01*
X142437Y75413D01*
X142872Y74762D01*
X143523Y74327D01*
X143560Y74320D01*
X143705Y73841D01*
X143692Y73828D01*
X143387Y73372D01*
X143280Y72835D01*
Y60267D01*
X131918Y48905D01*
X130612D01*
X130467Y49383D01*
X130509Y49412D01*
X130992Y50133D01*
X131061Y50484D01*
X126813D01*
X126883Y50133D01*
X127365Y49412D01*
X127407Y49383D01*
X127262Y48905D01*
X126450D01*
X126427Y48927D01*
X126427Y48927D01*
X126426Y48928D01*
X126426Y48928D01*
X126406Y48928D01*
X125768Y49354D01*
X125329Y49442D01*
X116872Y57899D01*
X116351Y58247D01*
X116249Y58267D01*
X115736Y58369D01*
X115736Y58369D01*
X94901D01*
X91638Y61633D01*
X91829Y62095D01*
X93263D01*
X93582Y62159D01*
X93998Y61881D01*
X94028Y61732D01*
X94463Y61081D01*
X95114Y60646D01*
X95882Y60493D01*
X96650Y60646D01*
X97301Y61081D01*
X97303Y61084D01*
X97522Y61230D01*
X97783Y61282D01*
Y61292D01*
Y61296D01*
X105000D01*
X105000Y61296D01*
X105461Y61387D01*
X105851Y61648D01*
X107999Y63796D01*
X109968D01*
X110204Y63355D01*
X110146Y63268D01*
X109993Y62500D01*
X110146Y61732D01*
X110581Y61081D01*
X111232Y60646D01*
X112000Y60493D01*
X112768Y60646D01*
X113419Y61081D01*
X113422Y61084D01*
X113640Y61230D01*
X113901Y61282D01*
Y61292D01*
Y61296D01*
X115501D01*
X116176Y60621D01*
X116567Y60360D01*
X117028Y60268D01*
X117028Y60268D01*
X119958D01*
X120103Y59790D01*
X119884Y59643D01*
X119402Y58922D01*
X119332Y58571D01*
X123581D01*
X123511Y58922D01*
X123029Y59643D01*
X122810Y59790D01*
X122955Y60268D01*
X123099D01*
Y60265D01*
Y60255D01*
X123360Y60202D01*
X123578Y60057D01*
X123581Y60053D01*
X124232Y59618D01*
X125000Y59465D01*
X125768Y59618D01*
X126419Y60053D01*
X126854Y60704D01*
X127007Y61472D01*
X126854Y62240D01*
X126419Y62892D01*
X125768Y63327D01*
X125000Y63480D01*
X124232Y63327D01*
X123581Y62892D01*
X123578Y62888D01*
X123360Y62742D01*
X123099Y62690D01*
Y62677D01*
X117927D01*
X117782Y63155D01*
X118419Y63581D01*
X118854Y64232D01*
X119007Y65000D01*
X118854Y65768D01*
X118419Y66419D01*
X117824Y66817D01*
X117969Y67296D01*
X132083D01*
X132083Y67296D01*
X132544Y67387D01*
X132934Y67649D01*
X141436Y76151D01*
D01*
D01*
X141436D01*
X141446Y76141D01*
X141446D01*
X141446Y76141D01*
Y76141D01*
X141668Y76289D01*
X141925Y76340D01*
X141929Y76339D01*
D02*
G37*
G36*
X91150Y69000D02*
X89969Y67032D01*
X85638D01*
X84457Y69000D01*
X85638Y70969D01*
X89969D01*
X91150Y69000D01*
D02*
G37*
G36*
X119852Y93012D02*
X119852Y93012D01*
X119849Y93010D01*
X119842Y93003D01*
X119990Y92781D01*
X120041Y92524D01*
X120040Y92520D01*
X120193Y91752D01*
X120628Y91101D01*
X121279Y90665D01*
X122047Y90513D01*
X122815Y90665D01*
X123467Y91101D01*
X123711Y91466D01*
X124189Y91321D01*
Y89106D01*
X124189Y89106D01*
X124281Y88645D01*
X124542Y88255D01*
X127043Y85754D01*
X126993Y85500D01*
X127146Y84732D01*
X127581Y84081D01*
X128232Y83646D01*
X128964Y83500D01*
Y83000D01*
X128232Y82854D01*
X127581Y82419D01*
X127146Y81768D01*
X126993Y81000D01*
X127146Y80232D01*
X127581Y79581D01*
X128232Y79146D01*
X129000Y78993D01*
X129768Y79146D01*
X130419Y79581D01*
X130422Y79584D01*
X130640Y79730D01*
X130901Y79782D01*
Y79792D01*
Y79796D01*
X132810D01*
Y79777D01*
X133172Y79824D01*
X133393Y79376D01*
X128446Y74429D01*
X117188D01*
X116871Y74815D01*
X117007Y75500D01*
X116854Y76268D01*
X116419Y76919D01*
X115768Y77354D01*
X115000Y77507D01*
X114996Y77506D01*
X114739Y77557D01*
X114517Y77705D01*
X114507Y77696D01*
X114507Y77696D01*
X113015Y79188D01*
Y81730D01*
X113497Y81826D01*
X113979Y81105D01*
X114700Y80623D01*
X115051Y80553D01*
Y82677D01*
X115551D01*
Y83177D01*
X117675D01*
X117606Y83528D01*
X117380Y83866D01*
X117658Y84282D01*
X117724Y84268D01*
X118492Y84421D01*
X119144Y84856D01*
X119579Y85508D01*
X119731Y86276D01*
X119579Y87044D01*
X119144Y87695D01*
X119140Y87697D01*
X118994Y87915D01*
X118942Y88177D01*
X118929D01*
Y89776D01*
X118837Y90236D01*
X118576Y90627D01*
X115196Y94007D01*
X115196Y94007D01*
X115205Y94017D01*
X115057Y94239D01*
X115006Y94496D01*
X115007Y94500D01*
X114854Y95268D01*
X114419Y95919D01*
X114365Y95955D01*
X114511Y96434D01*
X116430D01*
X119852Y93012D01*
D02*
G37*
%LPC*%
G36*
X117675Y82177D02*
X116051D01*
Y80553D01*
X116402Y80623D01*
X117124Y81105D01*
X117606Y81826D01*
X117675Y82177D01*
D02*
G37*
G36*
X128437Y53109D02*
X128086Y53039D01*
X127365Y52557D01*
X126883Y51835D01*
X126813Y51484D01*
X128437D01*
Y53109D01*
D02*
G37*
G36*
X80043Y112428D02*
X79768Y112392D01*
X79046Y112093D01*
X78426Y111617D01*
X77950Y110997D01*
X77651Y110275D01*
X77615Y110000D01*
X80043D01*
Y112428D01*
D02*
G37*
G36*
X81043D02*
Y110000D01*
X83472D01*
X83435Y110275D01*
X83136Y110997D01*
X82661Y111617D01*
X82040Y112093D01*
X81318Y112392D01*
X81043Y112428D01*
D02*
G37*
G36*
X123581Y57571D02*
X121957D01*
Y55946D01*
X122308Y56016D01*
X123029Y56498D01*
X123511Y57220D01*
X123581Y57571D01*
D02*
G37*
G36*
X120957D02*
X119332D01*
X119402Y57220D01*
X119884Y56498D01*
X120606Y56016D01*
X120957Y55946D01*
Y57571D01*
D02*
G37*
G36*
X129437Y53109D02*
Y51484D01*
X131061D01*
X130992Y51835D01*
X130509Y52557D01*
X129788Y53039D01*
X129437Y53109D01*
D02*
G37*
%LPD*%
D10*
X143501Y80115D02*
G03*
X142068Y80709I-1433J-1433D01*
G01*
D02*
G03*
X140045Y79871I0J-2861D01*
G01*
X144291Y78207D02*
G03*
X143501Y80115I-2698J0D01*
G01*
X144488Y85236D02*
G03*
X142261Y84314I0J-3150D01*
G01*
X147047Y84910D02*
G03*
X146260Y86811I-2688J0D01*
G01*
X146168Y86902D02*
G03*
X146168Y86903I-1680J-1680D01*
G01*
X144488Y87598D02*
G03*
X142492Y86772I0J-2823D01*
G01*
X146168Y86903D02*
G03*
X144488Y87598I-1680J-1681D01*
G01*
X135558Y82212D02*
G03*
X136811Y85236I-3024J3024D01*
G01*
D02*
G03*
X135623Y88104I-4056J0D01*
G01*
X132810Y81000D02*
G03*
X135433Y82087I0J3710D01*
G01*
X152713Y93170D02*
G03*
X152362Y92323I847J-847D01*
G01*
X152036Y91536D02*
G03*
X152362Y92323I-786J786D01*
G01*
X41500Y153916D02*
G03*
X43379Y149379I6416J0D01*
G01*
X41500Y152015D02*
G03*
X42822Y148822I4515J0D01*
G01*
X39621Y149379D02*
G03*
X41500Y153916I-4537J4537D01*
G01*
X40178Y148822D02*
G03*
X41500Y152015I-3192J3192D01*
G01*
X67658Y146843D02*
G03*
X66837Y147973I-1188J0D01*
G01*
X68479D02*
G03*
X67658Y146843I367J-1130D01*
G01*
X77500Y147000D02*
G03*
X76786Y147940I-976J0D01*
G01*
X78214D02*
G03*
X77500Y147000I262J-940D01*
G01*
X151383Y109635D02*
G03*
X152984Y113500I-3864J3864D01*
G01*
X152728Y110980D02*
G03*
X153772Y113500I-2520J2520D01*
G01*
X155248Y111236D02*
G03*
X151383Y109635I0J-5465D01*
G01*
X155248Y112024D02*
G03*
X152728Y110980I0J-3564D01*
G01*
X123752Y108035D02*
G03*
X122151Y111899I-5465J0D01*
G01*
X123752Y109936D02*
G03*
X122708Y112456I-3564J0D01*
G01*
X125353Y111899D02*
G03*
X123752Y108035I3864J-3864D01*
G01*
X124796Y112456D02*
G03*
X123752Y109936I2520J-2520D01*
G01*
X135500Y92000D02*
G03*
X134467Y94268I-3006J0D01*
G01*
X136533D02*
G03*
X135500Y92000I1973J-2268D01*
G01*
Y105775D02*
G03*
X136470Y103784I2529J0D01*
G01*
X134529D02*
G03*
X135500Y105775I-1559J1992D01*
G01*
X142000Y105512D02*
G03*
X142883Y103847I2010J0D01*
G01*
X141117D02*
G03*
X142000Y105512I-1127J1664D01*
G01*
Y92000D02*
G03*
X140967Y94268I-3006J0D01*
G01*
X143033D02*
G03*
X142000Y92000I1973J-2268D01*
G01*
X148500Y93000D02*
G03*
X147843Y94026I-1129J0D01*
G01*
X149158D02*
G03*
X148500Y93000I471J-1026D01*
G01*
Y106345D02*
G03*
X149614Y103657I3802J0D01*
G01*
X147386D02*
G03*
X148500Y106345I-2688J2688D01*
G01*
X70655Y158500D02*
G03*
X73343Y159614I0J3802D01*
G01*
Y157386D02*
G03*
X70655Y158500I-2688J-2688D01*
G01*
X136302Y128543D02*
G03*
X133614Y127430I0J-3802D01*
G01*
Y129657D02*
G03*
X136302Y128543I2688J2688D01*
G01*
X128698D02*
G03*
X131386Y129657I0J3802D01*
G01*
Y127430D02*
G03*
X128698Y128543I-2688J-2688D01*
G01*
Y121457D02*
G03*
X131386Y122570I0J3802D01*
G01*
Y120343D02*
G03*
X128698Y121457I-2688J-2688D01*
G01*
X126976Y128740D02*
G03*
X125632Y128183I0J-1901D01*
G01*
Y129297D02*
G03*
X126976Y128740I1344J1344D01*
G01*
Y121260D02*
G03*
X125632Y120703I0J-1901D01*
G01*
Y121817D02*
G03*
X126976Y121260I1344J1344D01*
G01*
X41500Y150731D02*
G03*
X39691Y155100I-6178J0D01*
G01*
X41500Y152632D02*
G03*
X40247Y155657I-4277J0D01*
G01*
X43310Y155100D02*
G03*
X41500Y150731I4369J-4369D01*
G01*
X42753Y155657D02*
G03*
X41500Y152632I3024J-3024D01*
G01*
X59095Y157500D02*
G03*
X54727Y155691I0J-6178D01*
G01*
X57195Y157500D02*
G03*
X54170Y156247I0J-4277D01*
G01*
X54727Y159309D02*
G03*
X59095Y157500I4369J4369D01*
G01*
X54170Y158753D02*
G03*
X57195Y157500I3024J3024D01*
G01*
X70000Y144500D02*
G03*
X70503Y143429I1392J0D01*
G01*
X69497D02*
G03*
X70000Y144500I-889J1071D01*
G01*
X75000D02*
G03*
X75503Y143429I1392J0D01*
G01*
X74497D02*
G03*
X75000Y144500I-889J1071D01*
G01*
X65000Y144724D02*
G03*
X65557Y143380I1901J0D01*
G01*
X64443D02*
G03*
X65000Y144724I-1344J1344D01*
G01*
X80000Y123464D02*
G03*
X80557Y122120I1901J0D01*
G01*
X79443D02*
G03*
X80000Y123464I-1344J1344D01*
G01*
X75000Y115016D02*
G03*
X74443Y116360I-1901J0D01*
G01*
X75557D02*
G03*
X75000Y115016I1344J-1344D01*
G01*
X63099Y119240D02*
G03*
X64443Y119797I0J1901D01*
G01*
Y118683D02*
G03*
X63099Y119240I-1344J-1344D01*
G01*
X104440Y79543D02*
G03*
X102811Y78671I0J-1957D01*
G01*
Y80416D02*
G03*
X104440Y79543I1629J1084D01*
G01*
X99228Y80177D02*
G03*
X100387Y80657I0J1638D01*
G01*
Y78430D02*
G03*
X96168Y80177I-4219J-4219D01*
G01*
X100943Y78987D02*
G03*
X98069Y80177I-2874J-2874D01*
G01*
X101500Y69000D02*
G03*
X100467Y71268I-3006J0D01*
G01*
X102533D02*
G03*
X101500Y69000I1973J-2268D01*
G01*
X97531Y80177D02*
G03*
X96187Y79620I0J-1901D01*
G01*
Y80734D02*
G03*
X97531Y80177I1344J1344D01*
G01*
X97820Y79747D02*
G03*
X96028Y79498I-595J-2287D01*
G01*
X96309Y80576D02*
G03*
X97187Y79912I1240J728D01*
G01*
X97531Y85177D02*
G03*
X96187Y84620I0J-1901D01*
G01*
Y85734D02*
G03*
X97531Y85177I1344J1344D01*
G01*
X105302Y85457D02*
G03*
X102614Y84343I0J-3802D01*
G01*
Y86570D02*
G03*
X105302Y85457I2688J2688D01*
G01*
X97023Y85177D02*
G03*
X100387Y86570I0J4756D01*
G01*
X98924Y85177D02*
G03*
X100943Y86014I0J2855D01*
G01*
X100387Y84343D02*
G03*
X98373Y85177I-2014J-2014D01*
G01*
X63257Y54760D02*
G03*
X64601Y55317I0J1901D01*
G01*
Y54203D02*
G03*
X63257Y54760I-1344J-1344D01*
G01*
X148957Y67544D02*
G03*
X147923Y69812I-3006J0D01*
G01*
X149990D02*
G03*
X148957Y67544I1973J-2268D01*
G01*
X152713Y93170D02*
G03*
X153437Y95267I-1792J1792D01*
G01*
X154810Y93893D02*
G03*
X152713Y93170I-305J-2515D01*
G01*
X155000Y106345D02*
G03*
X156114Y103657I3802J0D01*
G01*
X153886D02*
G03*
X155000Y106345I-2688J2688D01*
G01*
X155118Y88847D02*
G03*
X154561Y90191I-1901J0D01*
G01*
X155675D02*
G03*
X155118Y88847I1344J-1344D01*
G01*
X113656Y76844D02*
G03*
X115000Y76287I1344J1344D01*
G01*
X114213Y75500D02*
G03*
X113656Y76844I-1901J0D01*
G01*
X140585Y77002D02*
G03*
X141142Y78347I-1344J1344D01*
G01*
X141929Y77559D02*
G03*
X140585Y77002I0J-1901D01*
G01*
X147047Y84240D02*
G03*
X147604Y82895I1901J0D01*
G01*
X146491D02*
G03*
X147047Y84240I-1344J1344D01*
G01*
X142913Y84814D02*
G03*
X143766Y85549I-335J1250D01*
G01*
X144019Y84604D02*
G03*
X142913Y84814I-771J-1039D01*
G01*
X149844Y89344D02*
G03*
X149287Y88000I1344J-1344D01*
G01*
X148500Y88787D02*
G03*
X149844Y89344I0J1901D01*
G01*
X129099Y105000D02*
G03*
X130443Y105557I0J1901D01*
G01*
Y104443D02*
G03*
X129099Y105000I-1344J-1344D01*
G01*
X134000Y87401D02*
G03*
X134557Y86057I1901J0D01*
G01*
X133443D02*
G03*
X134000Y87401I-1344J1344D01*
G01*
X130901Y81000D02*
G03*
X129557Y80443I0J-1901D01*
G01*
Y81557D02*
G03*
X130901Y81000I1344J1344D01*
G01*
X131500Y85401D02*
G03*
X132057Y84057I1901J0D01*
G01*
X130943D02*
G03*
X131500Y85401I-1344J1344D01*
G01*
X114344Y93156D02*
G03*
X113000Y93713I-1344J-1344D01*
G01*
X113787Y94500D02*
G03*
X114344Y93156I1901J0D01*
G01*
X113901Y62500D02*
G03*
X112557Y61943I0J-1901D01*
G01*
Y63057D02*
G03*
X113901Y62500I1344J1344D01*
G01*
X104561Y67750D02*
G03*
X105118Y69095I-1344J1344D01*
G01*
X105905Y68307D02*
G03*
X104561Y67750I0J-1901D01*
G01*
X75000Y115401D02*
G03*
X75557Y114057I1901J0D01*
G01*
X74443D02*
G03*
X75000Y115401I-1344J1344D01*
G01*
X128673Y108661D02*
G03*
X127328Y108105I0J-1901D01*
G01*
Y109218D02*
G03*
X128673Y108661I1344J1344D01*
G01*
X136099Y128543D02*
G03*
X137443Y129100I0J1901D01*
G01*
Y127987D02*
G03*
X136099Y128543I-1344J-1344D01*
G01*
X142000Y33099D02*
G03*
X141443Y34443I-1901J0D01*
G01*
X142557D02*
G03*
X142000Y33099I1344J-1344D01*
G01*
X101401Y66500D02*
G03*
X100057Y65943I0J-1901D01*
G01*
Y67057D02*
G03*
X101401Y66500I1344J1344D01*
G01*
X111000Y102599D02*
G03*
X110443Y103943I-1901J0D01*
G01*
X111557D02*
G03*
X111000Y102599I1344J-1344D01*
G01*
X117724Y88177D02*
G03*
X118281Y86832I1901J0D01*
G01*
X117168D02*
G03*
X117724Y88177I-1344J1344D01*
G01*
X120703Y93864D02*
G03*
X122047Y93307I1344J1344D01*
G01*
X121260Y92520D02*
G03*
X120703Y93864I-1901J0D01*
G01*
X144291Y78082D02*
G03*
X144848Y76738I1901J0D01*
G01*
X143735D02*
G03*
X144291Y78082I-1344J1344D01*
G01*
X97783Y62500D02*
G03*
X96439Y61943I0J-1901D01*
G01*
Y63057D02*
G03*
X97783Y62500I1344J1344D01*
G01*
X115099Y65000D02*
G03*
X116443Y65557I0J1901D01*
G01*
Y64443D02*
G03*
X115099Y65000I-1344J-1344D01*
G01*
X123099Y61472D02*
G03*
X124443Y62029I0J1901D01*
G01*
Y60916D02*
G03*
X123099Y61472I-1344J-1344D01*
G01*
X58557Y157382D02*
G03*
X59337Y157925I-265J1213D01*
G01*
X59575Y156837D02*
G03*
X57646Y157183I-1382J-2156D01*
G01*
Y157817D02*
G03*
X59575Y158163I547J2502D01*
G01*
X59337Y157075D02*
G03*
X58557Y157618I-1045J-670D01*
G01*
X58099Y157500D02*
G03*
X59443Y158057I0J1901D01*
G01*
Y156943D02*
G03*
X58099Y157500I-1344J-1344D01*
G01*
X38285Y115647D02*
G03*
X36614Y116339I-1670J-1670D01*
G01*
X37402Y117126D02*
G03*
X37823Y116108I1440J0D01*
G01*
X46417Y118083D02*
G03*
X46892Y117128I1197J0D01*
G01*
X45942D02*
G03*
X46417Y118083I-722J955D01*
G01*
X50077Y116929D02*
G03*
X51410Y117484I0J1879D01*
G01*
Y116374D02*
G03*
X50077Y116929I-1333J-1324D01*
G01*
X54372Y139533D02*
G03*
X55717Y138976I1344J1344D01*
G01*
X54929Y138189D02*
G03*
X54372Y139533I-1901J0D01*
G01*
X57599Y141500D02*
G03*
X58943Y142057I0J1901D01*
G01*
Y140943D02*
G03*
X57599Y141500I-1344J-1344D01*
G01*
X46636Y132365D02*
G03*
X48158Y131756I1497J1533D01*
G01*
X43842D02*
G03*
X45364Y132365I25J2142D01*
G01*
X42063Y114236D02*
Y121264D01*
X90299Y116201D02*
Y124336D01*
X88724Y115549D02*
Y123684D01*
X87150Y114896D02*
Y123032D01*
X85575Y114244D02*
Y122379D01*
X84000Y113592D02*
Y121727D01*
X90299Y116201D02*
X92701Y113799D01*
X88724Y115549D02*
X92049Y112224D01*
X87150Y114896D02*
X91396Y110650D01*
X85575Y114244D02*
X90744Y109075D01*
X84000Y113592D02*
X90092Y107500D01*
X75000Y113500D02*
Y119240D01*
X86500Y55000D02*
Y58500D01*
X82520Y51020D02*
X86500Y55000D01*
X75000Y51020D02*
X82520D01*
X52500Y46500D02*
X60760Y54760D01*
X66732D01*
X101500Y69000D02*
Y72457D01*
X94693Y69000D02*
X101500D01*
X54189Y139716D02*
X55717Y138189D01*
X44717Y139716D02*
X54189D01*
X42063Y139568D02*
X43995Y141500D01*
X59500D01*
X42063Y136736D02*
Y139568D01*
X44032Y139032D02*
X44717Y139716D01*
X44032Y136736D02*
Y139032D01*
X46000Y129000D02*
Y136736D01*
X47969Y119037D02*
Y121264D01*
X47969Y121264D02*
X47969Y121264D01*
X46000Y118500D02*
Y121264D01*
X46417Y116500D02*
Y118083D01*
X46000Y118500D02*
X46417Y118083D01*
X47969Y119835D02*
Y121264D01*
X80000Y119240D02*
Y123500D01*
X65000Y140500D02*
Y145000D01*
X61000Y149000D02*
X65000Y145000D01*
X61000Y149000D02*
Y151500D01*
X68000Y158500D01*
X74457D01*
X52917Y157500D02*
X60000D01*
X41500Y147500D02*
Y157500D01*
X77500Y147000D02*
Y150500D01*
X75000Y144500D02*
X77500Y147000D01*
X75000Y140500D02*
Y144500D01*
X70000Y140500D02*
Y144500D01*
X67658Y146843D02*
X70000Y144500D01*
X67658Y146843D02*
Y150500D01*
X117028Y61472D02*
X125000D01*
X95882Y62500D02*
X105000D01*
X107500Y65000D01*
X116000Y62500D02*
X117028Y61472D01*
X107500Y65000D02*
X117000D01*
X93307Y85177D02*
X101221D01*
X101500Y85457D01*
X93307Y80177D02*
X100866D01*
X101500Y79543D01*
Y85457D02*
X105543D01*
X117724Y86276D02*
Y89776D01*
X142000Y30000D02*
Y35000D01*
X155118Y83882D02*
X156043Y82957D01*
X148957Y67543D02*
Y71000D01*
Y67543D02*
X154000Y62500D01*
X162000D01*
X156043Y75500D02*
Y82957D01*
X123500Y128740D02*
X127760D01*
X127957Y128543D02*
X132500D01*
X127760Y128740D02*
X127957Y128543D01*
X123500Y121260D02*
X127760D01*
X127957Y121457D02*
X132500D01*
X127760Y121260D02*
X127957Y121457D01*
X132500Y128543D02*
X138000D01*
X69957Y111043D02*
X70000Y111000D01*
X91396Y110650D02*
X112805D01*
X111000Y100159D02*
Y104500D01*
X113000Y94500D02*
X117724Y89776D01*
X90744Y109075D02*
X111925D01*
X112000Y62500D02*
X116000D01*
X123752Y106384D02*
Y113500D01*
X125136Y105000D02*
X131000D01*
X123752Y106384D02*
X125136Y105000D01*
X111925Y109075D02*
X125394Y95606D01*
X112805Y110650D02*
X126969Y96486D01*
X92049Y112224D02*
X113457D01*
X128543Y97138D01*
X92701Y113799D02*
X114109D01*
X130118Y97790D01*
X125136Y105000D02*
X131693Y98443D01*
X147500Y92000D02*
X148500Y93000D01*
X142000Y92000D02*
X147500D01*
X143188Y107087D02*
X145101Y109000D01*
X150748D01*
X155248Y113500D01*
X142000Y92000D02*
Y95457D01*
Y96457D01*
X143840Y105512D02*
X145753Y107425D01*
X161575D02*
X162000Y107000D01*
X148500Y102543D02*
Y107425D01*
X145753D02*
X148500D01*
X155000Y102543D02*
Y107388D01*
X155037Y107425D01*
X148500D02*
X155037D01*
X161575D01*
X135500Y92000D02*
Y95457D01*
Y92000D02*
X142000D01*
X148500Y93000D02*
Y95457D01*
X103311Y66500D02*
X105905Y69095D01*
X99500Y66500D02*
X103311D01*
X116929Y97638D02*
X122047Y92520D01*
X113522Y97638D02*
X116929D01*
X111000Y100159D02*
X113522Y97638D01*
X36614Y113886D02*
Y113976D01*
X36805Y117126D02*
X45293Y108638D01*
X36614Y117126D02*
X36805D01*
X50076Y116929D02*
X51968D01*
X47969Y119037D02*
X50076Y116929D01*
X126772Y108661D02*
X142535D01*
X147374Y113500D01*
X142000Y102543D02*
Y105512D01*
X143840D01*
X135500Y102543D02*
Y105776D01*
X136811Y107087D01*
X143188D01*
X155118Y83882D02*
Y90748D01*
X112602Y70075D02*
X130249D01*
X113907Y73224D02*
X128945D01*
X130249Y70075D02*
X140045Y79871D01*
X113255Y71650D02*
X129597D01*
X144291Y76181D02*
Y78207D01*
X129597Y71650D02*
X142261Y84314D01*
X147047Y82339D02*
Y84910D01*
X146168Y86903D02*
X146168Y86902D01*
X146260Y86811D01*
X128945Y73224D02*
X142492Y86772D01*
X132083Y68500D02*
X141929Y78347D01*
X111815Y68500D02*
X132083D01*
X129000Y81000D02*
X132810D01*
X135433Y82087D02*
X135558Y82212D01*
X125394Y89106D02*
Y95606D01*
Y89106D02*
X129000Y85500D01*
X134000D02*
Y87500D01*
X131693Y94261D02*
Y98443D01*
Y94261D02*
X133954Y92000D01*
X135500D01*
X130118Y93609D02*
X135387Y88340D01*
X130118Y93609D02*
Y97790D01*
X128543Y92957D02*
Y97138D01*
Y92957D02*
X134000Y87500D01*
X126969Y92126D02*
Y96486D01*
Y92126D02*
X131500Y87594D01*
Y83500D02*
Y87594D01*
X148500Y88000D02*
X151225Y90725D01*
X152713Y93170D02*
X155000Y95457D01*
X151225Y90725D02*
X152036Y91536D01*
X101500Y79543D02*
X104440D01*
X105512Y78472D01*
Y74803D02*
X111815Y68500D01*
X105512Y74803D02*
Y78472D01*
X105543Y85457D02*
X107087Y83913D01*
Y75591D02*
X112602Y70075D01*
X107087Y75591D02*
Y83913D01*
X105607Y87620D02*
X108661Y84566D01*
Y76243D02*
X113255Y71650D01*
X108661Y76243D02*
Y84566D01*
X107182Y88272D02*
X110236Y85218D01*
Y76895D02*
X113907Y73224D01*
X110236Y76895D02*
Y85218D01*
X108757Y88924D02*
X111811Y85870D01*
Y78689D02*
X115000Y75500D01*
X111811Y78689D02*
Y85870D01*
X108757Y88924D02*
Y103054D01*
X90092Y107500D02*
X104311D01*
X108757Y103054D01*
X107182Y88272D02*
Y102267D01*
X103874Y105575D02*
X107182Y102267D01*
X102890Y104000D02*
X105607Y101282D01*
Y87620D02*
Y101282D01*
X70213Y104000D02*
X102890D01*
X70865Y105575D02*
X103874D01*
X36614Y113886D02*
X43442Y107058D01*
X67155D01*
X70213Y104000D01*
X67802Y108638D02*
X70865Y105575D01*
X61034Y119240D02*
X65000D01*
X49937Y121264D02*
X58272D01*
X53736Y125063D02*
X59709D01*
X53736Y127032D02*
X59315D01*
X53736Y132937D02*
X81699D01*
X64173Y124606D02*
X78894D01*
X80000Y123500D01*
X58272Y121264D02*
X63189Y126181D01*
X79546D01*
X84000Y121727D01*
X59709Y125063D02*
X62402Y127756D01*
X80198D01*
X85575Y122379D01*
X81699Y132937D02*
X90299Y124336D01*
X81440Y130968D02*
X88724Y123684D01*
X53736Y130968D02*
X81440D01*
X59315Y127032D02*
X61614Y129331D01*
X80851D01*
X87150Y123032D01*
X44032Y114495D02*
Y121264D01*
X42063Y114236D02*
X45079Y111221D01*
X53014D01*
X61034Y119240D01*
X44032Y114495D02*
X45731Y112795D01*
X52362D01*
X64173Y124606D01*
X45293Y108638D02*
X67802D01*
D11*
X92013Y16500D02*
G03*
X96850Y18504I0J6842D01*
G01*
D02*
G03*
X98000Y21279I-2775J2775D01*
G01*
X105929Y23071D02*
G03*
X98858Y26000I-7071J-7071D01*
G01*
X81188Y140500D02*
G03*
X80348Y140152I0J-1188D01*
G01*
Y140848D02*
G03*
X81188Y140500I840J840D01*
G01*
X63449Y71588D02*
G03*
X62544Y73772I-3089J0D01*
G01*
X64354D02*
G03*
X63449Y71588I2184J-2184D01*
G01*
X56890D02*
G03*
X55985Y73772I-3089J0D01*
G01*
X57794D02*
G03*
X56890Y71588I2184J-2184D01*
G01*
X75558Y90177D02*
G03*
X74718Y89829I0J-1188D01*
G01*
Y90525D02*
G03*
X75558Y90177I840J840D01*
G01*
Y80177D02*
G03*
X74718Y79829I0J-1188D01*
G01*
Y80525D02*
G03*
X75558Y80177I840J840D01*
G01*
X72047Y73989D02*
G03*
X71699Y74829I-1188J0D01*
G01*
X72395D02*
G03*
X72047Y73989I840J-840D01*
G01*
X75558Y75177D02*
G03*
X74718Y74829I0J-1188D01*
G01*
Y75525D02*
G03*
X75558Y75177I840J840D01*
G01*
X89796Y90177D02*
G03*
X90636Y90525I0J1188D01*
G01*
Y89829D02*
G03*
X89796Y90177I-840J-840D01*
G01*
X90688Y16500D02*
G03*
X89848Y16152I0J-1188D01*
G01*
Y16848D02*
G03*
X90688Y16500I840J840D01*
G01*
Y26000D02*
G03*
X89848Y25652I0J-1188D01*
G01*
Y26348D02*
G03*
X90688Y26000I840J840D01*
G01*
X106023Y22378D02*
G03*
X105164Y23524I-1814J-465D01*
G01*
X98000Y21312D02*
G03*
X97652Y22152I-1188J0D01*
G01*
X98348D02*
G03*
X98000Y21312I840J-840D01*
G01*
X91346Y54500D02*
G03*
X90505Y54152I0J-1188D01*
G01*
Y54848D02*
G03*
X91346Y54500I840J840D01*
G01*
X116660Y50840D02*
G03*
X117500Y50492I840J840D01*
G01*
X117008Y50000D02*
G03*
X116660Y50840I-1188J0D01*
G01*
X80000Y140500D02*
X87343D01*
X72000Y67500D02*
X72047Y67547D01*
Y75177D01*
X113000Y54500D02*
X117500Y50000D01*
X63449Y67500D02*
Y74677D01*
X90158Y54500D02*
X113000D01*
X56890Y90067D02*
X57000Y90177D01*
X56890Y70890D02*
Y74677D01*
X55500Y69500D02*
X56890Y70890D01*
X81043Y90177D02*
X93307D01*
X81043D02*
Y95457D01*
X81000Y95500D02*
X81043Y95457D01*
X72047Y80177D02*
X78000D01*
Y75177D02*
Y80177D01*
X72047Y75177D02*
X78000D01*
X80913Y69000D02*
Y90177D01*
X81043D01*
X72047D02*
X80913D01*
X89500Y16500D02*
X92013D01*
X98000Y21279D02*
Y22500D01*
X89500Y26000D02*
X98858D01*
X105929Y23071D02*
X106500Y22500D01*
D12*
X111490Y125000D02*
G03*
X107961Y123538I0J-4990D01*
G01*
Y126462D02*
G03*
X111490Y125000I3528J3528D01*
G01*
X32500Y51920D02*
G03*
X33196Y50239I2376J0D01*
G01*
X31804D02*
G03*
X32500Y51920I-1680J1680D01*
G01*
X19500Y40080D02*
G03*
X18804Y41761I-2376J0D01*
G01*
X20196D02*
G03*
X19500Y40080I1680J-1680D01*
G01*
Y51920D02*
G03*
X20196Y50239I2376J0D01*
G01*
X18804D02*
G03*
X19500Y51920I-1680J1680D01*
G01*
X26000Y51920D02*
G03*
X26696Y50239I2376J0D01*
G01*
X25304D02*
G03*
X26000Y51920I-1680J1680D01*
G01*
Y40080D02*
G03*
X25304Y41761I-2376J0D01*
G01*
X26696D02*
G03*
X26000Y40080I1680J-1680D01*
G01*
X13000Y40080D02*
G03*
X12304Y41761I-2376J0D01*
G01*
X13696D02*
G03*
X13000Y40080I1680J-1680D01*
G01*
X43000Y42500D02*
X52500D01*
X82500Y63500D02*
X87500D01*
X76000D02*
X82500D01*
X72000Y67500D02*
X76000Y63500D01*
X63449Y67500D02*
X72000D01*
X19500Y67000D02*
Y69500D01*
X13370Y67000D02*
X19500D01*
X13370Y72000D02*
X19500D01*
X38500Y83500D02*
X43000Y79000D01*
Y62000D02*
Y79000D01*
X34630Y62000D02*
X43000D01*
X32500Y49543D02*
Y53500D01*
X26000D02*
X32500D01*
X26000Y49543D02*
Y53500D01*
X19500D02*
X26000D01*
X19500Y49543D02*
Y53500D01*
Y67000D01*
X13000Y37000D02*
X19500D01*
Y42457D01*
Y37000D02*
X26000D01*
Y42457D01*
X7500Y49543D02*
Y76000D01*
X40000Y67000D02*
Y76000D01*
X7500D02*
X28264D01*
X40000D01*
X13000Y37000D02*
Y42457D01*
X3500Y37000D02*
X13000D01*
X7500Y43500D02*
Y49543D01*
X32500Y36000D02*
X36500D01*
X43000Y42500D01*
X28264Y90000D02*
X28441Y90177D01*
X28264Y76000D02*
Y90000D01*
Y95000D01*
X28441Y90177D02*
X57000D01*
X63449D01*
Y93449D01*
X65500Y95500D01*
X57500Y67500D02*
X63449D01*
X50323Y74677D02*
X55500Y69500D01*
X57500Y67500D01*
X65500Y95500D02*
X81000D01*
X81043Y95457D02*
X89000D01*
X106500Y125000D02*
X115232D01*
X161957Y121457D02*
X162000Y121500D01*
X7264Y92264D02*
X17264D01*
X23500Y98500D01*
X32500D01*
X36000Y95000D01*
X57500D01*
X62500Y100000D01*
X19500Y69500D02*
Y72000D01*
D13*
X87343Y146460D02*
G03*
X86159Y149317I-4039J0D01*
G01*
X88526D02*
G03*
X87343Y146460I2856J-2856D01*
G01*
X52500Y42500D02*
X59000D01*
X61216Y40284D01*
X156000Y30000D02*
X162000Y36000D01*
X113216Y40284D02*
X123500Y30000D01*
X142000D01*
X156000D01*
X162000Y36000D02*
Y62500D01*
Y117500D02*
Y121500D01*
X87343Y140500D02*
X102000D01*
X121500Y160000D01*
X162000Y107000D02*
Y117500D01*
Y62500D02*
Y107000D01*
X87343Y140500D02*
Y150500D01*
D15*
X23610Y110102D02*
G03*
X23026Y111514I-1996J0D01*
G01*
X24974D02*
G03*
X23610Y108221I3293J-3293D01*
G01*
X24000Y120185D02*
G03*
X23026Y122537I-3327J0D01*
G01*
X24974D02*
G03*
X24000Y120185I2352J-2352D01*
G01*
X23610Y106462D02*
G03*
X24070Y105353I1568J0D01*
G01*
X23151D02*
G03*
X23610Y106462I-1109J1109D01*
G01*
X70130Y109500D02*
G03*
X72482Y110474I0J3327D01*
G01*
Y108526D02*
G03*
X70130Y109500I-2352J-2352D01*
G01*
X70000Y115492D02*
G03*
X69582Y116500I-1426J0D01*
G01*
X70418D02*
G03*
X70000Y115492I1008J-1008D01*
G01*
X89559Y75177D02*
G03*
X90567Y75595I0J1426D01*
G01*
Y74760D02*
G03*
X89559Y75177I-1008J-1008D01*
G01*
X101500Y95870D02*
G03*
X102474Y93518I3327J0D01*
G01*
X100526D02*
G03*
X101500Y95870I-2352J2352D01*
G01*
X9673Y49543D02*
G03*
X12026Y50518I0J3327D01*
G01*
Y48569D02*
G03*
X9673Y49543I-2352J-2352D01*
G01*
X78000Y58500D02*
G03*
X76992Y58082I0J-1426D01*
G01*
Y58918D02*
G03*
X78000Y58500I1008J1008D01*
G01*
X156043Y74327D02*
G03*
X157018Y71974I3327J0D01*
G01*
X155069D02*
G03*
X156043Y74327I-2352J2352D01*
G01*
X58882Y111043D02*
G03*
X57874Y110626I0J-1426D01*
G01*
Y111461D02*
G03*
X58882Y111043I1008J1008D01*
G01*
X69030D02*
G03*
X67918Y110582I0J-1574D01*
G01*
Y111418D02*
G03*
X68821Y111043I904J904D01*
G01*
X66179D02*
G03*
X67082Y111418I0J1278D01*
G01*
Y110582D02*
G03*
X65970Y111043I-1113J-1113D01*
G01*
X126426Y47500D02*
G03*
X125418Y47082I0J-1426D01*
G01*
Y47918D02*
G03*
X126426Y47500I1008J1008D01*
G01*
X88926Y63500D02*
G03*
X87918Y63082I0J-1426D01*
G01*
Y63918D02*
G03*
X88926Y63500I1008J1008D01*
G01*
X102011Y96705D02*
G03*
X101769Y94865I2100J-1212D01*
G01*
X101500Y95574D02*
G03*
X101082Y96582I-1426J0D01*
G01*
X101918D02*
G03*
X101500Y95574I1008J-1008D01*
G01*
X101231Y94865D02*
G03*
X100989Y96705I-2342J627D01*
G01*
X19926Y119291D02*
G03*
X18918Y118874I0J-1426D01*
G01*
Y119709D02*
G03*
X19926Y119291I1008J1008D01*
G01*
X70000Y111000D02*
Y119240D01*
X82500Y60000D02*
Y63500D01*
X81000Y58500D02*
X82500Y60000D01*
X75000Y58500D02*
X81000D01*
X23610Y112488D02*
X24000D01*
X23610Y104500D02*
Y112488D01*
X24000Y119291D02*
Y123512D01*
X18500Y119291D02*
X24000D01*
X7500Y49543D02*
X13000D01*
X161760Y117740D02*
X162000Y117500D01*
X88000Y75177D02*
X93307D01*
X88000Y69000D02*
Y75177D01*
X94693Y64930D02*
Y69000D01*
X87500Y63500D02*
X93263D01*
X94693Y64930D01*
X101500Y92543D02*
Y97000D01*
X125000Y47500D02*
X132500D01*
X156043Y71000D02*
Y75500D01*
X69957Y109500D02*
X73457D01*
X69957D02*
Y111043D01*
X57457D02*
X69957D01*
X132500Y47500D02*
X144685Y59685D01*
Y72835D01*
X147350Y75500D01*
X156043D01*
D16*
X32390Y104500D02*
X36500D01*
X40000Y101000D01*
X34630Y57000D02*
X40500D01*
X41618Y55882D01*
Y53882D02*
Y55882D01*
X87500Y63500D02*
X94236Y56764D01*
X115736D01*
X125000Y47500D01*
D25*
X52917Y157500D02*
D03*
X41500D02*
D03*
D26*
X101500Y92543D02*
D03*
Y85457D02*
D03*
Y72457D02*
D03*
Y79543D02*
D03*
X132500Y121457D02*
D03*
Y128543D02*
D03*
X19500Y49543D02*
D03*
Y42457D02*
D03*
X32500Y42457D02*
D03*
Y49543D02*
D03*
X135500Y102543D02*
D03*
Y95457D02*
D03*
D27*
X155000Y102543D02*
D03*
Y95457D02*
D03*
X148957Y71000D02*
D03*
X156043D02*
D03*
X13000Y49543D02*
D03*
Y42457D02*
D03*
X56890Y74677D02*
D03*
Y81764D02*
D03*
X63449D02*
D03*
Y74677D02*
D03*
X80543Y109500D02*
D03*
X73457D02*
D03*
X81543Y158500D02*
D03*
X74457D02*
D03*
X26000Y42457D02*
D03*
Y49543D02*
D03*
X148500Y102543D02*
D03*
Y95457D02*
D03*
X142000D02*
D03*
Y102543D02*
D03*
D33*
X24000Y123512D02*
D03*
Y112488D02*
D03*
D37*
X32390Y104500D02*
D03*
X23610D02*
D03*
D42*
X6791Y100098D02*
D03*
Y128248D02*
D03*
D43*
X15256Y122933D02*
D03*
Y105413D02*
D03*
D44*
X96500Y125000D02*
D03*
X97185Y150500D02*
D03*
X41500Y147500D02*
D03*
D45*
X106500Y125000D02*
D03*
X87343Y150500D02*
D03*
X77500D02*
D03*
X67658D02*
D03*
X51500Y147500D02*
D03*
D46*
X147374Y113500D02*
D03*
X139500D02*
D03*
X131626D02*
D03*
X155248D02*
D03*
D47*
X123752D02*
D03*
D48*
X43835Y126835D02*
D03*
X48165D02*
D03*
X43835Y131165D02*
D03*
X48165D02*
D03*
X107004Y49732D02*
D03*
X102279D02*
D03*
X97555D02*
D03*
Y40284D02*
D03*
X102279D02*
D03*
X107004D02*
D03*
Y45008D02*
D03*
X97555D02*
D03*
X102279D02*
D03*
X153740Y11220D02*
D03*
X159843Y23228D02*
D03*
X139370Y5512D02*
D03*
X154724Y152362D02*
D03*
X159449Y141142D02*
D03*
X6299Y145866D02*
D03*
X14567Y156102D02*
D03*
X25591Y160039D02*
D03*
X152362Y42323D02*
D03*
Y52165D02*
D03*
X81496Y6102D02*
D03*
X39370Y24606D02*
D03*
X33661Y6102D02*
D03*
X14370Y11220D02*
D03*
X7283Y27953D02*
D03*
X79528Y34843D02*
D03*
X117717Y27559D02*
D03*
X120866Y18898D02*
D03*
Y5512D02*
D03*
X86500Y58500D02*
D03*
X40000Y101000D02*
D03*
X18500Y119291D02*
D03*
X59500Y141500D02*
D03*
X55717Y138189D02*
D03*
X51968Y116929D02*
D03*
X46417Y116500D02*
D03*
X36614Y117126D02*
D03*
Y113976D02*
D03*
X38500Y83500D02*
D03*
X41618Y53882D02*
D03*
X52500Y42500D02*
D03*
X72291Y40284D02*
D03*
X117500Y50000D02*
D03*
X90158Y54500D02*
D03*
X60000Y157500D02*
D03*
X98000Y22500D02*
D03*
X106500D02*
D03*
X89500Y26000D02*
D03*
Y16500D02*
D03*
X125000Y61472D02*
D03*
X117000Y65000D02*
D03*
X95882Y62500D02*
D03*
X3500Y37000D02*
D03*
X28264Y95000D02*
D03*
X7500Y43500D02*
D03*
X32500Y36000D02*
D03*
X72291Y8709D02*
D03*
X50323Y74677D02*
D03*
X144291Y76181D02*
D03*
X101500Y97000D02*
D03*
X87500Y63500D02*
D03*
X122047Y92520D02*
D03*
X117724Y86276D02*
D03*
X111000Y104500D02*
D03*
X99500Y66500D02*
D03*
X125000Y47500D02*
D03*
X142000Y35000D02*
D03*
X138000Y128543D02*
D03*
X126772Y108661D02*
D03*
X37402Y109646D02*
D03*
X42543Y103957D02*
D03*
X75000Y113500D02*
D03*
X7264Y92264D02*
D03*
X62500Y100000D02*
D03*
X67500Y111000D02*
D03*
X105905Y69095D02*
D03*
X112000Y62500D02*
D03*
X113000Y94500D02*
D03*
X129000Y85500D02*
D03*
X131500Y83500D02*
D03*
X129000Y81000D02*
D03*
X134000Y85500D02*
D03*
X131000Y105000D02*
D03*
X148500Y88000D02*
D03*
X144488Y85236D02*
D03*
X147047Y82339D02*
D03*
X141929Y78347D02*
D03*
X159000Y94500D02*
D03*
X132000Y160000D02*
D03*
X94882Y93701D02*
D03*
X88189Y100984D02*
D03*
X57457Y111043D02*
D03*
X115000Y75500D02*
D03*
X155118Y90748D02*
D03*
X128937Y50984D02*
D03*
X121457Y58071D02*
D03*
X115551Y82677D02*
D03*
D49*
X78713Y51020D02*
G03*
X77201Y50393I0J-2139D01*
G01*
Y51646D02*
G03*
X78713Y51020I1512J1512D01*
G01*
X86500Y56361D02*
G03*
X85874Y57874I-2139J0D01*
G01*
X87126D02*
G03*
X86500Y56361I1512J-1512D01*
G01*
D50*
X38264Y125063D02*
D03*
Y127032D02*
D03*
Y129000D02*
D03*
Y130968D02*
D03*
Y132937D02*
D03*
X53736D02*
D03*
Y130968D02*
D03*
Y129000D02*
D03*
Y127032D02*
D03*
Y125063D02*
D03*
D51*
X42063Y136736D02*
D03*
X44032D02*
D03*
X46000D02*
D03*
X47969D02*
D03*
X49937D02*
D03*
Y121264D02*
D03*
X47969D02*
D03*
X46000D02*
D03*
X44032D02*
D03*
X42063D02*
D03*
D52*
X46000Y129000D02*
D03*
D53*
X66732Y54760D02*
D03*
X75000Y51020D02*
D03*
Y58500D02*
D03*
X123500Y121260D02*
D03*
Y128740D02*
D03*
X115232Y125000D02*
D03*
D54*
X93307Y75177D02*
D03*
Y85177D02*
D03*
Y80177D02*
D03*
Y90177D02*
D03*
X72047Y75177D02*
D03*
Y80177D02*
D03*
Y85177D02*
D03*
Y90177D02*
D03*
X13370Y57000D02*
D03*
Y62000D02*
D03*
Y72000D02*
D03*
Y67000D02*
D03*
X34630Y57000D02*
D03*
Y67000D02*
D03*
Y62000D02*
D03*
Y72000D02*
D03*
D55*
X65000Y119240D02*
D03*
X70000D02*
D03*
X75000D02*
D03*
X80000D02*
D03*
X65000Y140500D02*
D03*
X75000D02*
D03*
X70000D02*
D03*
X80000D02*
D03*
D56*
X80913Y69000D02*
D03*
X88000D02*
D03*
X94693D02*
D03*
M02*
