%FSLAX25Y25*%
%MOIN*%
G70*
G01*
G75*
G04 Layer_Color=16711935*
%ADD10C,0.00787*%
%ADD11C,0.01378*%
%ADD12C,0.01969*%
%ADD13C,0.02756*%
%ADD14C,0.02953*%
%ADD15C,0.01181*%
%ADD16C,0.01575*%
%ADD17O,0.05315X0.01575*%
G04:AMPARAMS|DCode=18|XSize=118.11mil|YSize=35.43mil|CornerRadius=8.86mil|HoleSize=0mil|Usage=FLASHONLY|Rotation=90.000|XOffset=0mil|YOffset=0mil|HoleType=Round|Shape=RoundedRectangle|*
%AMROUNDEDRECTD18*
21,1,0.11811,0.01772,0,0,90.0*
21,1,0.10039,0.03543,0,0,90.0*
1,1,0.01772,0.00886,0.05020*
1,1,0.01772,0.00886,-0.05020*
1,1,0.01772,-0.00886,-0.05020*
1,1,0.01772,-0.00886,0.05020*
%
%ADD18ROUNDEDRECTD18*%
%ADD19O,0.01378X0.06693*%
%ADD20R,0.11811X0.11811*%
%ADD21C,0.05906*%
G04:AMPARAMS|DCode=22|XSize=59.06mil|YSize=68.9mil|CornerRadius=14.76mil|HoleSize=0mil|Usage=FLASHONLY|Rotation=270.000|XOffset=0mil|YOffset=0mil|HoleType=Round|Shape=RoundedRectangle|*
%AMROUNDEDRECTD22*
21,1,0.05906,0.03937,0,0,270.0*
21,1,0.02953,0.06890,0,0,270.0*
1,1,0.02953,-0.01969,-0.01476*
1,1,0.02953,-0.01969,0.01476*
1,1,0.02953,0.01969,0.01476*
1,1,0.02953,0.01969,-0.01476*
%
%ADD22ROUNDEDRECTD22*%
%ADD23R,0.06890X0.05906*%
%ADD24R,0.03347X0.04134*%
%ADD25R,0.05906X0.07087*%
%ADD26R,0.03937X0.03937*%
%ADD27C,0.03937*%
G04:AMPARAMS|DCode=28|XSize=59.06mil|YSize=47.24mil|CornerRadius=11.81mil|HoleSize=0mil|Usage=FLASHONLY|Rotation=90.000|XOffset=0mil|YOffset=0mil|HoleType=Round|Shape=RoundedRectangle|*
%AMROUNDEDRECTD28*
21,1,0.05906,0.02362,0,0,90.0*
21,1,0.03543,0.04724,0,0,90.0*
1,1,0.02362,0.01181,0.01772*
1,1,0.02362,0.01181,-0.01772*
1,1,0.02362,-0.01181,-0.01772*
1,1,0.02362,-0.01181,0.01772*
%
%ADD28ROUNDEDRECTD28*%
%ADD29R,0.05512X0.07874*%
%ADD30R,0.08661X0.09449*%
%ADD31R,0.06299X0.15748*%
%ADD32R,0.07480X0.08976*%
%ADD33R,0.07087X0.03937*%
%ADD34R,0.03937X0.03937*%
%ADD35R,0.06693X0.09449*%
%ADD36R,0.07087X0.13780*%
%ADD37R,0.02480X0.03268*%
%ADD38R,0.03937X0.07874*%
%ADD39O,0.06693X0.01181*%
%ADD40O,0.01181X0.06693*%
%ADD41C,0.03937*%
%ADD42O,0.07874X0.04921*%
%ADD43C,0.04134*%
%ADD44R,0.06102X0.06102*%
%ADD45C,0.06102*%
%ADD46C,0.05315*%
%ADD47R,0.05315X0.05315*%
%ADD48C,0.02362*%
%ADD49C,0.00591*%
%ADD50R,0.02874X0.01181*%
%ADD51R,0.01181X0.02874*%
%ADD52R,0.09843X0.09843*%
%ADD53R,0.05512X0.02362*%
%ADD54O,0.07008X0.02362*%
%ADD55O,0.02362X0.07008*%
%ADD56R,0.00394X0.00394*%
%ADD57C,0.00984*%
%ADD58C,0.01000*%
%ADD59C,0.00394*%
%ADD60C,0.02362*%
%ADD61O,0.06102X0.02362*%
G04:AMPARAMS|DCode=62|XSize=125.98mil|YSize=43.31mil|CornerRadius=12.8mil|HoleSize=0mil|Usage=FLASHONLY|Rotation=90.000|XOffset=0mil|YOffset=0mil|HoleType=Round|Shape=RoundedRectangle|*
%AMROUNDEDRECTD62*
21,1,0.12598,0.01772,0,0,90.0*
21,1,0.10039,0.04331,0,0,90.0*
1,1,0.02559,0.00886,0.05020*
1,1,0.02559,0.00886,-0.05020*
1,1,0.02559,-0.00886,-0.05020*
1,1,0.02559,-0.00886,0.05020*
%
%ADD62ROUNDEDRECTD62*%
%ADD63O,0.02165X0.07480*%
%ADD64R,0.12598X0.12598*%
%ADD65C,0.06693*%
G04:AMPARAMS|DCode=66|XSize=66.93mil|YSize=76.77mil|CornerRadius=18.7mil|HoleSize=0mil|Usage=FLASHONLY|Rotation=270.000|XOffset=0mil|YOffset=0mil|HoleType=Round|Shape=RoundedRectangle|*
%AMROUNDEDRECTD66*
21,1,0.06693,0.03937,0,0,270.0*
21,1,0.02953,0.07677,0,0,270.0*
1,1,0.03740,-0.01969,-0.01476*
1,1,0.03740,-0.01969,0.01476*
1,1,0.03740,0.01969,0.01476*
1,1,0.03740,0.01969,-0.01476*
%
%ADD66ROUNDEDRECTD66*%
%ADD67R,0.07677X0.06693*%
%ADD68R,0.04134X0.04921*%
%ADD69R,0.06693X0.07874*%
%ADD70R,0.04724X0.04724*%
%ADD71C,0.04724*%
G04:AMPARAMS|DCode=72|XSize=66.93mil|YSize=55.12mil|CornerRadius=15.75mil|HoleSize=0mil|Usage=FLASHONLY|Rotation=90.000|XOffset=0mil|YOffset=0mil|HoleType=Round|Shape=RoundedRectangle|*
%AMROUNDEDRECTD72*
21,1,0.06693,0.02362,0,0,90.0*
21,1,0.03543,0.05512,0,0,90.0*
1,1,0.03150,0.01181,0.01772*
1,1,0.03150,0.01181,-0.01772*
1,1,0.03150,-0.01181,-0.01772*
1,1,0.03150,-0.01181,0.01772*
%
%ADD72ROUNDEDRECTD72*%
%ADD73R,0.06299X0.08661*%
%ADD74R,0.09449X0.10236*%
%ADD75R,0.07087X0.16535*%
%ADD76R,0.08268X0.09764*%
%ADD77R,0.07874X0.04724*%
%ADD78R,0.04724X0.04724*%
%ADD79R,0.07480X0.10236*%
%ADD80R,0.07874X0.14567*%
%ADD81R,0.03268X0.04055*%
%ADD82R,0.04724X0.08661*%
%ADD83O,0.07480X0.01969*%
%ADD84O,0.01969X0.07480*%
%ADD85O,0.08661X0.05709*%
%ADD86C,0.04921*%
%ADD87C,0.00787*%
%ADD88R,0.06890X0.06890*%
%ADD89C,0.06890*%
%ADD90R,0.18701X0.05512*%
%ADD91R,0.03661X0.01969*%
%ADD92R,0.01969X0.03661*%
%ADD93R,0.10630X0.10630*%
%ADD94R,0.06299X0.03150*%
%ADD95O,0.07795X0.03150*%
%ADD96O,0.03150X0.07795*%
%ADD97R,0.01181X0.01181*%
G36*
X110236Y36614D02*
X94488D01*
Y52362D01*
X110236D01*
Y36614D01*
D02*
G37*
D44*
X123752Y113500D02*
D03*
D45*
X147374D02*
D03*
X139500D02*
D03*
X131626D02*
D03*
X155248D02*
D03*
D69*
X52917Y157500D02*
D03*
X41500D02*
D03*
D70*
X101500Y92543D02*
D03*
Y85457D02*
D03*
Y72457D02*
D03*
Y79543D02*
D03*
X132500Y121457D02*
D03*
Y128543D02*
D03*
X19500Y49543D02*
D03*
Y42457D02*
D03*
X32500Y42457D02*
D03*
Y49543D02*
D03*
X135500Y102543D02*
D03*
Y95457D02*
D03*
D71*
X155000Y102543D02*
D03*
Y95457D02*
D03*
X148957Y71000D02*
D03*
X156043D02*
D03*
X13000Y49543D02*
D03*
Y42457D02*
D03*
X56890Y74677D02*
D03*
Y81764D02*
D03*
X63449D02*
D03*
Y74677D02*
D03*
X80543Y109500D02*
D03*
X73457D02*
D03*
X81543Y158500D02*
D03*
X74457D02*
D03*
X26000Y42457D02*
D03*
Y49543D02*
D03*
X148500Y102543D02*
D03*
Y95457D02*
D03*
X142000D02*
D03*
Y102543D02*
D03*
D77*
X24000Y123512D02*
D03*
Y112488D02*
D03*
D81*
X32390Y104500D02*
D03*
X23610D02*
D03*
D85*
X6791Y100098D02*
D03*
Y128248D02*
D03*
D86*
X15256Y122933D02*
D03*
Y105413D02*
D03*
D87*
X143700Y21654D02*
D03*
X21653D02*
D03*
Y143701D02*
D03*
X143700D02*
D03*
D88*
X96500Y125000D02*
D03*
X97185Y150500D02*
D03*
X41500Y147500D02*
D03*
D89*
X106500Y125000D02*
D03*
X87343Y150500D02*
D03*
X77500D02*
D03*
X67658D02*
D03*
X51500Y147500D02*
D03*
D90*
X87902Y69000D02*
D03*
D91*
X38264Y125063D02*
D03*
Y127032D02*
D03*
Y129000D02*
D03*
Y130968D02*
D03*
Y132937D02*
D03*
X53736D02*
D03*
Y130968D02*
D03*
Y129000D02*
D03*
Y127032D02*
D03*
Y125063D02*
D03*
D92*
X42063Y136736D02*
D03*
X44032D02*
D03*
X46000D02*
D03*
X47969D02*
D03*
X49937D02*
D03*
Y121264D02*
D03*
X47969D02*
D03*
X46000D02*
D03*
X44032D02*
D03*
X42063D02*
D03*
D93*
X46000Y129000D02*
D03*
D94*
X66732Y54760D02*
D03*
X75000Y51020D02*
D03*
Y58500D02*
D03*
X123500Y121260D02*
D03*
Y128740D02*
D03*
X115232Y125000D02*
D03*
D95*
X93307Y75177D02*
D03*
Y85177D02*
D03*
Y80177D02*
D03*
Y90177D02*
D03*
X72047Y75177D02*
D03*
Y80177D02*
D03*
Y85177D02*
D03*
Y90177D02*
D03*
X13370Y57000D02*
D03*
Y62000D02*
D03*
Y72000D02*
D03*
Y67000D02*
D03*
X34630Y57000D02*
D03*
Y67000D02*
D03*
Y62000D02*
D03*
Y72000D02*
D03*
D96*
X65000Y119240D02*
D03*
X70000D02*
D03*
X75000D02*
D03*
X80000D02*
D03*
X65000Y140500D02*
D03*
X75000D02*
D03*
X70000D02*
D03*
X80000D02*
D03*
D97*
X80913Y69000D02*
D03*
X88000D02*
D03*
X94693D02*
D03*
M02*
