M48
;Layer_Color=9474304
;FILE_FORMAT=2:5
INCH,LZ
;TYPE=PLATED
T1F00S00C0.01181
T3F00S00C0.03150
T4F00S00C0.03937
;TYPE=NON_PLATED
T5F00S00C0.11811
%
T01
X0033661Y0006102
X003937Y0024606
X00325Y0036
X00525Y00425
X0072291Y0040284
X0079528Y0034843
X00895Y0026
X00895Y00165
X0098Y00225
X01065Y00225
X0117717Y0027559
X0120866Y0018898
X0120866Y0005512
X013937Y0005512
X015374Y001122
X0159843Y0023228
X0152362Y0042323
X0152362Y0052165
X0128937Y0050984
X0125Y00475
X01175Y005
X0107004Y0049732
X0102279Y0049732
X0097555Y0049732
X0097555Y0045008
X0097555Y0040284
X0102279Y0040284
X0107004Y0040284
X0107004Y0045008
X0102279Y0045008
X0090158Y00545
X00865Y00585
X00875Y00635
X0095882Y00625
X00995Y00665
X0105905Y0069095
X0112Y00625
X0117Y0065
X0121457Y0058071
X0125Y0061472
X0129Y0081
X0129Y00855
X01315Y00835
X0134Y00855
X0144488Y0085236
X0147047Y0082339
X01485Y0088
X0155118Y0090748
X0159Y00945
X0144291Y0076181
X0141929Y0078347
X0115Y00755
X0115551Y0082677
X0117724Y0086276
X0122047Y009252
X0113Y00945
X0111Y01045
X01015Y0097
X0094882Y0093701
X0088189Y0100984
X00625Y01
X004Y0101
X0042543Y0103957
X0028264Y0095
X00385Y00835
X0050323Y0074677
X0041618Y0053882
X0072291Y0008709
X0081496Y0006102
X0142Y0035
X0131Y0105
X0007264Y0092264
X00075Y00435
X00035Y0037
X0007283Y0027953
X001437Y001122
X00185Y0119291
X0006299Y0145866
X0014567Y0156102
X0025591Y0160039
X006Y01575
X00595Y01415
X0055717Y0138189
X0048165Y0131165
X0048165Y0126835
X0043835Y0126835
X0043835Y0131165
X0046417Y01165
X0051968Y0116929
X0057457Y0111043
X00675Y0111
X0075Y01135
X0036614Y0113976
X0036614Y0117126
X0037402Y0109646
X0126772Y0108661
X0138Y0128543
X0159449Y0141142
X0154724Y0152362
X0132Y016
T03
X0123752Y01135
X0131626Y01135
X01395Y01135
X0147374Y01135
X0155248Y01135
T04
X00415Y01475
X00515Y01475
X0067658Y01505
X00775Y01505
X0087343Y01505
X0097185Y01505
X00965Y0125
X01065Y0125
T05
X0021653Y0021654
X01437Y0021654
X01437Y0143701
X0021653Y0143701
M30
