%FSTAX23Y23*%
%MOIN*%
%SFA1B1*%

%IPPOS*%
%AMD62*
4,1,8,-0.021700,0.050200,-0.021700,-0.050200,-0.008900,-0.063000,0.008900,-0.063000,0.021700,-0.050200,0.021700,0.050200,0.008900,0.063000,-0.008900,0.063000,-0.021700,0.050200,0.0*
1,1,0.025600,-0.008900,0.050200*
1,1,0.025600,-0.008900,-0.050200*
1,1,0.025600,0.008900,-0.050200*
1,1,0.025600,0.008900,0.050200*
%
%AMD66*
4,1,8,0.038400,-0.014800,0.038400,0.014800,0.019700,0.033500,-0.019700,0.033500,-0.038400,0.014800,-0.038400,-0.014800,-0.019700,-0.033500,0.019700,-0.033500,0.038400,-0.014800,0.0*
1,1,0.037400,0.019700,-0.014800*
1,1,0.037400,0.019700,0.014800*
1,1,0.037400,-0.019700,0.014800*
1,1,0.037400,-0.019700,-0.014800*
%
%AMD72*
4,1,8,-0.027600,0.017700,-0.027600,-0.017700,-0.011800,-0.033500,0.011800,-0.033500,0.027600,-0.017700,0.027600,0.017700,0.011800,0.033500,-0.011800,0.033500,-0.027600,0.017700,0.0*
1,1,0.031500,-0.011800,0.017700*
1,1,0.031500,-0.011800,-0.017700*
1,1,0.031500,0.011800,-0.017700*
1,1,0.031500,0.011800,0.017700*
%
%ADD44R,0.061020X0.061020*%
%ADD45C,0.061020*%
%ADD61O,0.061020X0.023620*%
G04~CAMADD=62~8~0.0~0.0~1259.8~433.1~128.0~0.0~15~0.0~0.0~0.0~0.0~0~0.0~0.0~0.0~0.0~0~0.0~0.0~0.0~90.0~434.0~1260.0*
%ADD62D62*%
%ADD63O,0.021650X0.074800*%
%ADD64R,0.125980X0.125980*%
%ADD65C,0.066930*%
G04~CAMADD=66~8~0.0~0.0~669.3~767.7~187.0~0.0~15~0.0~0.0~0.0~0.0~0~0.0~0.0~0.0~0.0~0~0.0~0.0~0.0~270.0~768.0~669.0*
%ADD66D66*%
%ADD67R,0.076770X0.066930*%
%ADD68R,0.041340X0.049210*%
%ADD69R,0.066930X0.078740*%
%ADD70R,0.047240X0.047240*%
%ADD71C,0.047240*%
G04~CAMADD=72~8~0.0~0.0~669.3~551.2~157.5~0.0~15~0.0~0.0~0.0~0.0~0~0.0~0.0~0.0~0.0~0~0.0~0.0~0.0~90.0~552.0~670.0*
%ADD72D72*%
%ADD73R,0.062990X0.086610*%
%ADD74R,0.094490X0.102360*%
%ADD75R,0.070870X0.165350*%
%ADD76R,0.082680X0.097640*%
%ADD77R,0.078740X0.047240*%
%ADD78R,0.047240X0.047240*%
%ADD79R,0.074800X0.102360*%
%ADD80R,0.078740X0.145670*%
%ADD81R,0.032680X0.040550*%
%ADD82R,0.047240X0.086610*%
%ADD83O,0.074800X0.019690*%
%ADD84O,0.019690X0.074800*%
%ADD85O,0.086610X0.057090*%
%ADD86C,0.049210*%
%ADD87C,0.007870*%
%ADD88R,0.068900X0.068900*%
%ADD89C,0.068900*%
%LNstepperpcb-1*%
%LPD*%
G54D44*
X01237Y01135D03*
G54D45*
X01473Y01135D03*
X01395D03*
X01316D03*
X01552D03*
G54D61*
X00131Y01192D03*
Y01167D03*
Y01141D03*
Y01116D03*
Y0109D03*
G54D62*
X00067Y01141D03*
G54D63*
X00933Y00345D03*
X00958D03*
X00984D03*
X0101D03*
X01035D03*
X01061D03*
X01086D03*
X01112D03*
Y0057D03*
X00933D03*
X00958D03*
X00984D03*
X0101D03*
X01035D03*
X01061D03*
X01086D03*
G54D64*
X01022Y0045D03*
G54D65*
X00624Y00893D03*
X01379Y01596D03*
X01143Y01165D03*
G54D66*
X01401Y0122D03*
G54D67*
X01548Y0122D03*
G54D68*
X00278Y0121D03*
X00331D03*
X00278Y011D03*
X00331D03*
G54D69*
X00722Y00165D03*
X00837D03*
X00722Y0026D03*
X00837D03*
G54D70*
X0053Y0111D03*
Y01039D03*
G54D71*
X00464Y01039D03*
Y0111D03*
X01015Y01085D03*
X00944D03*
X01015Y0102D03*
X00944D03*
X00929Y00845D03*
X01D03*
X00775Y0122D03*
X00704D03*
X00484Y01225D03*
X00555D03*
X0088Y00414D03*
Y00485D03*
X01407Y0045D03*
X01336D03*
G54D72*
X00439Y0095D03*
X0036D03*
G54D73*
X0049Y00672D03*
Y00517D03*
X0125Y01427D03*
Y01582D03*
G54D74*
X00282Y00835D03*
X00487D03*
G54D75*
X00089Y0056D03*
X0034D03*
G54D76*
X00177Y00835D03*
X00072D03*
G54D77*
X0111Y0099D03*
Y01089D03*
X0113Y01605D03*
Y01494D03*
G54D78*
X00144Y0095D03*
X00215D03*
X01Y00784D03*
X00929D03*
X01469Y01295D03*
X0154D03*
G54D79*
X00557Y01315D03*
X00702D03*
G54D80*
X00525Y00094D03*
Y00315D03*
G54D81*
X01066Y01365D03*
X01153D03*
G54D82*
X0114Y00062D03*
X01063Y00064D03*
X00985D03*
X00906D03*
G54D83*
X01232Y00882D03*
Y00862D03*
Y00843D03*
Y00823D03*
Y00803D03*
Y00784D03*
Y00764D03*
Y00744D03*
Y00724D03*
Y00705D03*
Y00685D03*
Y00665D03*
X01551D03*
Y00685D03*
Y00705D03*
Y00724D03*
Y00744D03*
Y00764D03*
Y00784D03*
Y00803D03*
Y00823D03*
Y00843D03*
Y00862D03*
Y00882D03*
G54D84*
X01283Y00614D03*
X01303D03*
X01322D03*
X01342D03*
X01362D03*
X01381D03*
X01401D03*
X01421D03*
X0144D03*
X0146D03*
X0148D03*
X015D03*
Y00933D03*
X0148D03*
X0146D03*
X0144D03*
X01421D03*
X01401D03*
X01381D03*
X01362D03*
X01342D03*
X01322D03*
X01303D03*
X01283D03*
G54D85*
X00067Y01D03*
Y01282D03*
G54D86*
X00152Y01229D03*
Y01054D03*
G54D87*
X01437Y00216D03*
X00216D03*
Y01437D03*
X01437D03*
G54D88*
X00965Y0125D03*
X00971Y01505D03*
X00415Y01475D03*
G54D89*
X01065Y0125D03*
X00873Y01505D03*
X00775D03*
X00676D03*
X00515Y01475D03*
M02*