%FSTAX23Y23*%
%MOIN*%
%SFA1B1*%

%IPPOS*%
%ADD9500C,0.011810*%
%ADD9501C,0.029530*%
%ADD9502C,0.039370*%
%ADD9503C,0.047240*%
%ADD9504C,0.059060*%
%ADD9505C,0.118110*%
%LNrpiadapterpcb-1*%
%LPD*%
G54D9500*
X0009Y0035D03*
X00225Y00425D03*
X0036Y0052D03*
X00575Y00325D03*
X00745Y0037D03*
X0103Y00325D03*
X0205Y0053D03*
X02325Y00435D03*
X0252D03*
X02437Y0057D03*
X02393D03*
X0275Y00465D03*
Y00429D03*
X02562Y00612D03*
X02595Y0066D03*
X02437Y00614D03*
X02393D03*
X02355Y0089D03*
X02245Y00955D03*
X0205Y00805D03*
Y00719D03*
X02015Y00745D03*
X01855Y00775D03*
Y00815D03*
X0181Y00855D03*
X0188Y00955D03*
X0185Y01055D03*
X0178Y01005D03*
X0157Y0099D03*
Y01139D03*
X0159Y01245D03*
X0194Y0126D03*
X01635Y008D03*
X0161Y0077D03*
X01575Y0073D03*
X0168D03*
X01485Y0081D03*
X01475Y0085D03*
X01335Y00855D03*
X0143Y00585D03*
X01225Y01139D03*
X01095D03*
X00795D03*
X0066D03*
X0036D03*
X00276Y00666D03*
X001Y00665D03*
X00461Y00666D03*
X0046Y0061D03*
X00529Y00625D03*
X00629Y00665D03*
X00803Y00666D03*
X00972Y00667D03*
X0088Y00855D03*
G54D9501*
X0256Y01312D03*
Y01391D03*
Y0147D03*
G54D9502*
X00329Y00137D03*
Y00237D03*
X00429D03*
Y00137D03*
X00529D03*
Y00237D03*
X00629D03*
Y00137D03*
X00729D03*
Y00237D03*
X00829D03*
Y00137D03*
X00929D03*
Y00237D03*
X01029D03*
Y00137D03*
X0098Y0043D03*
Y0053D03*
X0088D03*
Y0043D03*
X0078D03*
Y0053D03*
X0068D03*
Y0043D03*
X0058D03*
Y0053D03*
X0048D03*
Y0043D03*
X0108D03*
Y0053D03*
X0118D03*
Y0043D03*
X0128D03*
X0138D03*
X0148D03*
X0158D03*
X0168D03*
X0178D03*
X0188D03*
Y0053D03*
X0178D03*
X0168D03*
X0158D03*
X0148D03*
X0138D03*
X0128D03*
X01329Y00237D03*
X01229D03*
X01129D03*
Y00137D03*
X01229D03*
X01329D03*
X01429D03*
Y00237D03*
X01529D03*
Y00137D03*
X01629D03*
Y00237D03*
X01729D03*
Y00137D03*
X01829D03*
Y00237D03*
X01929D03*
X02029D03*
X02129D03*
Y00137D03*
X02029D03*
X01929D03*
X02229D03*
Y00237D03*
X02815Y00196D03*
Y00295D03*
X0282Y00608D03*
Y00706D03*
Y00805D03*
Y00903D03*
X02795Y01065D03*
X02895D03*
X02815Y01271D03*
Y0137D03*
Y01468D03*
X02185Y01501D03*
Y016D03*
X01945Y01598D03*
Y015D03*
X01705Y01501D03*
Y016D03*
X014Y0203D03*
X01263D03*
X01255Y00785D03*
X01155D03*
X01055D03*
X01355D03*
X0097Y0203D03*
X00833D03*
X00535Y0203D03*
X00398D03*
G54D9503*
X01035Y01755D03*
X01198D03*
X01331D03*
X01465D03*
X01398Y0161D03*
X01265D03*
X00968D03*
X00835D03*
X00768Y01755D03*
X00901D03*
X006D03*
X00466D03*
X00333D03*
X004Y0161D03*
X00533D03*
G54D9504*
X02621Y01865D03*
X02845Y019D03*
Y017D03*
X02425Y01865D03*
X02031D03*
X01834D03*
G54D9505*
X00137Y00187D03*
X02421D03*
X02834Y02116D03*
X02421D03*
X00137D03*
M02*