%FSTAX23Y23*%
%MOIN*%
%SFA1B1*%

%IPPOS*%
%ADD10C,0.007870*%
%ADD11C,0.015750*%
%ADD12C,0.027560*%
%ADD13C,0.031500*%
%ADD14C,0.019690*%
%ADD15C,0.011810*%
%ADD16C,0.039370*%
%ADD17C,0.023620*%
%ADD18C,0.059060*%
%ADD19R,0.039370X0.039370*%
%ADD20O,0.086610X0.023620*%
%ADD21C,0.039370*%
%ADD22R,0.094490X0.066930*%
%ADD23R,0.157480X0.062990*%
%ADD24R,0.078740X0.055120*%
%ADD25R,0.055120X0.078740*%
%ADD26R,0.011810X0.028740*%
%ADD27R,0.028740X0.011810*%
%ADD28R,0.098430X0.098430*%
%ADD29C,0.059060*%
%ADD30R,0.051180X0.051180*%
%ADD31C,0.051180*%
%ADD32R,0.068900X0.068900*%
%ADD33C,0.068900*%
%ADD34C,0.061020*%
%ADD35R,0.061020X0.061020*%
%ADD36R,0.061020X0.061020*%
%ADD37R,0.061020X0.060000*%
%ADD38C,0.196850*%
%ADD39R,0.080710X0.080710*%
%ADD40C,0.080710*%
%ADD41C,0.027560*%
%ADD42C,0.023620*%
%LNrpiadapterpcb-1*%
%LPD*%
G36*
X02336Y01094D02*
X02346Y01085D01*
X02348Y01084*
X0235Y01083*
X02352Y01082*
X02353Y01081*
X02355Y01081*
X02343Y01069*
X02343Y01071*
X02342Y01072*
X02341Y01074*
X0234Y01076*
X02339Y01078*
X02337Y0108*
X02333Y01085*
X02327Y01091*
X02333Y01097*
X02336Y01094*
G37*
G36*
X00166Y00651D02*
X00164Y00652D01*
X00163Y00653*
X0016Y00653*
X00157Y00654*
X00148Y00655*
X0013Y00655*
X00123Y00655*
Y00675*
X0013Y00675*
X0016Y00677*
X00163Y00677*
X00164Y00678*
X00166Y00679*
Y00651*
G37*
G36*
X00195Y00678D02*
X00196Y00677D01*
X00199Y00677*
X00202Y00676*
X00211Y00676*
X00229Y00675*
X00236Y00675*
Y00655*
X00229Y00655*
X00199Y00653*
X00196Y00653*
X00195Y00652*
X00193Y00651*
Y00679*
X00195Y00678*
G37*
G36*
X02364Y01047D02*
X02365Y01046D01*
X02367Y01046*
X02369Y01045*
X02372Y01045*
X02374Y01044*
X02381Y01044*
X02389Y01043*
Y01036*
X02385Y01036*
X02372Y01034*
X02369Y01034*
X02367Y01033*
X02365Y01033*
X02364Y01032*
X02363Y01031*
Y01048*
X02364Y01047*
G37*
G36*
X01191Y00275D02*
Y00199D01*
X01228*
X01229Y00199*
X01229Y00199*
X01243Y00197*
X01255Y00192*
X01265Y00184*
X01266Y00183*
X01266Y00183*
X01273Y00176*
X01277Y00173*
X01282Y00172*
X01301*
X01302Y00168*
X013Y00166*
X01294Y00158*
X0129Y00148*
X01289Y00142*
X01369*
X01369Y00148*
X01364Y00158*
X01358Y00166*
X01356Y00168*
X01358Y00172*
X0136*
X01364Y00173*
X01368Y00176*
X01388Y00196*
X01391Y002*
X01392Y00205*
Y00215*
X01396Y00217*
X01402Y0021*
X0141Y00204*
X01419Y002*
X01429Y00199*
X01439Y002*
X01448Y00204*
X01456Y0021*
X01463Y00218*
X01467Y00216*
Y00159*
X01463Y00157*
X01456Y00165*
X01448Y00171*
X01439Y00175*
X01429Y00176*
X01419Y00175*
X0141Y00171*
X01402Y00165*
X01396Y00157*
X01392Y00147*
X0139Y00137*
X01392Y00127*
X01396Y00118*
X01402Y0011*
X0141Y00104*
X01415Y00101*
X01414Y00097*
X01349*
X01348Y00101*
X01349Y00102*
X01358Y00108*
X01364Y00117*
X01369Y00127*
X01369Y00132*
X01289*
X0129Y00127*
X01294Y00117*
X013Y00108*
X01309Y00102*
X0131Y00101*
X01309Y00097*
X01244*
X01243Y00101*
X01248Y00104*
X01256Y0011*
X01263Y00118*
X01266Y00127*
X01268Y00137*
X01266Y00147*
X01263Y00157*
X01256Y00165*
X01248Y00171*
X01239Y00175*
X01229Y00176*
X01228Y00176*
X01216Y00178*
X01203Y00183*
X01193Y0019*
X01192Y00191*
X01192Y00191*
X01192Y00191*
X01192Y00191*
X01192Y00191*
X0119Y00193*
X01186Y00196*
X01182Y00197*
X01144*
X01143Y00201*
X01148Y00204*
X01156Y0021*
X01163Y00218*
X01166Y00227*
X01168Y00237*
X01168Y00238*
X01169Y00251*
X01174Y00263*
X01182Y00273*
X01183Y00274*
X01183Y00274*
X01186Y00277*
X01191Y00275*
G37*
G36*
X02955Y0002D02*
X02095D01*
X02093Y00024*
X02094Y00025*
X02103Y00034*
X02103Y00034*
X02105Y00036*
X02149Y00079*
X02153Y00085*
X02156Y00092*
X02157Y00099*
X02157*
X02157*
Y0011*
X02202*
X0221Y00104*
X02219Y001*
X02229Y00099*
X02239Y001*
X02248Y00104*
X02256Y0011*
X02263Y00118*
X02266Y00127*
X02268Y00137*
X02266Y00147*
X02263Y00157*
X02256Y00165*
X02248Y00171*
X02239Y00175*
X02229Y00176*
X02219Y00175*
X0221Y00171*
X02202Y00165*
X02156*
X02148Y00171*
X02139Y00175*
X02129Y00176*
X02119Y00175*
X0211Y00171*
X02102Y00165*
X02096Y00157*
X02092Y00147*
X0209Y00137*
X0209Y00136*
X02089Y0012*
X02084Y00103*
X02075Y00087*
X02065Y00074*
X02064Y00073*
X02063Y00072*
X01461*
X01459Y00077*
X01488Y00106*
X01491Y0011*
X01492Y00115*
Y00115*
X01496Y00117*
X01502Y0011*
X0151Y00104*
X01519Y001*
X01529Y00099*
X01539Y001*
X01548Y00104*
X01556Y0011*
X01563Y00118*
X01566Y00127*
X01568Y00137*
X01566Y00147*
X01563Y00157*
X01556Y00165*
X01548Y00171*
X01539Y00175*
X01529Y00176*
X01519Y00175*
X0151Y00171*
X01502Y00165*
X01496Y00158*
X01492Y00159*
Y00215*
X01496Y00217*
X01502Y0021*
X0151Y00204*
X01519Y002*
X01529Y00199*
X01539Y002*
X01548Y00204*
X01556Y0021*
X01563Y00218*
X01566Y00227*
X01568Y00237*
X01566Y00247*
X01563Y00257*
X01556Y00265*
X01548Y00271*
X01544Y00273*
X01545Y00277*
X01613*
X01614Y00273*
X0161Y00271*
X01602Y00265*
X01596Y00257*
X01592Y00247*
X0159Y00237*
X01592Y00227*
X01596Y00218*
X01602Y0021*
X0161Y00204*
X01619Y002*
X01629Y00199*
X01639Y002*
X01648Y00204*
X01656Y0021*
X01663Y00218*
X01666Y00227*
X01668Y00237*
X01666Y00247*
X01663Y00257*
X01656Y00265*
X01648Y00271*
X01644Y00273*
X01645Y00277*
X01691*
Y00275*
Y00274*
Y00199*
X01767*
Y00274*
Y00275*
X0177Y00277*
X01807*
X01809Y00273*
X018Y00266*
X01794Y00258*
X0179Y00248*
X01789Y00242*
X01869*
X01869Y00248*
X01864Y00258*
X01858Y00266*
X01849Y00273*
X01851Y00277*
X01913*
X01914Y00273*
X0191Y00271*
X01902Y00265*
X01896Y00257*
X01892Y00247*
X0189Y00237*
X01892Y00227*
X01896Y00218*
X01902Y0021*
X0191Y00204*
X01919Y002*
X01929Y00199*
X01939Y002*
X01948Y00204*
X01956Y0021*
X01963Y00218*
X01966Y00227*
X01968Y00237*
X01966Y00247*
X01963Y00257*
X01956Y00265*
X01948Y00271*
X01944Y00273*
X01945Y00277*
X02013*
X02014Y00273*
X0201Y00271*
X02002Y00265*
X01996Y00257*
X01992Y00247*
X0199Y00237*
X01992Y00227*
X01996Y00218*
X02002Y0021*
X0201Y00204*
X02019Y002*
X02029Y00199*
X02039Y002*
X02048Y00204*
X02056Y0021*
X02063Y00218*
X02066Y00227*
X02068Y00237*
X02066Y00247*
X02063Y00257*
X02056Y00265*
X02048Y00271*
X02044Y00273*
X02045Y00277*
X02113*
X02114Y00273*
X0211Y00271*
X02102Y00265*
X02096Y00257*
X02092Y00247*
X0209Y00237*
X02092Y00227*
X02096Y00218*
X02102Y0021*
X0211Y00204*
X02119Y002*
X02129Y00199*
X02139Y002*
X02148Y00204*
X02156Y0021*
X02163Y00218*
X02166Y00227*
X02168Y00237*
X02166Y00247*
X02163Y00257*
X02156Y00265*
X02148Y00271*
X02144Y00273*
X02145Y00277*
X02191*
Y00276*
Y00199*
X02267*
Y00216*
X02272Y00217*
X02295*
X02302Y00219*
X02309Y00223*
X0232Y00234*
X02324Y00231*
X02319Y0022*
X02315Y00204*
X02314Y00187*
X02315Y00171*
X02319Y00154*
X02326Y00139*
X02335Y00125*
X02345Y00112*
X02358Y00101*
X02372Y00092*
X02388Y00086*
X02404Y00082*
X02421Y00081*
X02437Y00082*
X02454Y00086*
X02469Y00092*
X02483Y00101*
X02496Y00112*
X02507Y00125*
X02516Y00139*
X02522Y00154*
X02526Y00171*
X02527Y00187*
X02526Y00204*
X02522Y0022*
X02516Y00236*
X02507Y0025*
X02496Y00263*
X02483Y00274*
X02469Y00282*
X02454Y00289*
X02437Y00293*
X02421Y00294*
X02404Y00293*
X02388Y00289*
X02377Y00284*
X02374Y00288*
X02415Y00329*
X02602*
Y00233*
X02602*
X02602Y00232*
X02601Y00226*
X026Y00222*
X02587*
Y00167*
X02642*
Y00222*
X02629*
X02627Y00226*
X02626Y00232*
X02626Y00233*
X02626*
Y00329*
X02635*
X02642Y00331*
X02649Y00335*
X02714Y004*
X02718Y00407*
X0272Y00415*
Y00465*
Y00535*
Y00575*
Y0065*
X02718Y00656*
X02718Y00657*
X02714Y00664*
X02644Y00734*
X02637Y00738*
X0263Y0074*
X02423*
X02375Y00788*
Y00881*
X02375Y00881*
X02377Y0089*
X02375Y00898*
X02375Y00898*
Y01024*
X02378Y01027*
X02386Y01026*
X02398Y01021*
X02407Y01014*
X02408Y01013*
X02416Y01007*
X02425Y01003*
X02435Y01002*
X02444Y01003*
X02453Y01007*
X02461Y01013*
X02467Y01021*
X02471Y0103*
X02472Y0104*
X02471Y01049*
X02467Y01058*
X02461Y01066*
X02453Y01072*
X02444Y01076*
X02435Y01077*
X02425Y01076*
X02416Y01072*
X02408Y01066*
X02407Y01065*
X02398Y01058*
X02386Y01053*
X02378Y01052*
X02375Y01055*
Y0107*
X02373Y01077*
X02369Y01084*
X02362Y01088*
X02355Y0109*
X02354Y0109*
X02354Y0109*
X02352Y01091*
X02351Y01092*
X02341Y011*
X02328Y01113*
X02324Y01116*
X02319Y01117*
X02283*
X02283Y01117*
X02283*
X02282Y01117*
X02276Y01118*
X0227Y01121*
X02264Y01125*
X02264Y01125*
X02258Y01129*
X02252Y01132*
X02245Y01133*
X02237Y01132*
X02231Y01129*
X02225Y01125*
X02225Y01125*
X02219Y0112*
X02213Y01118*
X02205Y01117*
Y01117*
X02199*
Y01117*
X02197Y01117*
X02195Y01119*
X02195Y01119*
X02188Y01123*
X0218Y01125*
X02117*
X0211Y01123*
X02103Y01119*
X02099Y01112*
X02097Y01105*
X02099Y01097*
X02103Y0109*
X0211Y01086*
X02117Y01084*
X0218*
X02188Y01086*
X02195Y0109*
X02195Y0109*
X02197Y01092*
X02199Y01092*
Y01092*
Y01092*
X02205*
Y01092*
X02207Y01092*
X02209*
X02217Y01091*
X02224Y01086*
X02225Y01085*
X02231Y01081*
X02237Y01078*
X02245Y01077*
X02252Y01078*
X02258Y01081*
X02264Y01085*
X02264Y01085*
X0227Y01089*
X02276Y01092*
X02282Y01093*
X02283Y01093*
Y01093*
X02314*
X02324Y01083*
X02327Y0108*
X02331Y01075*
X02332Y01073*
X02333Y01072*
X02334Y0107*
X02334Y0107*
X02334Y0107*
Y0104*
Y00898*
X02334Y00898*
X02332Y0089*
X02334Y00881*
X02334Y00881*
Y0079*
X02334Y0079*
Y0079*
X02334Y0079*
Y0078*
X02336Y00772*
X0234Y00765*
X024Y00705*
X02407Y00701*
X02415Y00699*
X02621*
X02679Y00641*
Y00587*
X02669Y00587*
X02573*
X02571Y00591*
X02578Y00596*
X02583Y00603*
X02585Y00612*
X02583Y0062*
X02578Y00627*
X02571Y00632*
X02562Y00634*
X02554Y00632*
X02547Y00627*
X02547Y00627*
X02543Y00625*
X02539Y00624*
X02539Y00624*
Y00624*
Y00624*
X02537*
X02535Y00628*
X02554Y00647*
X02571*
Y00647*
Y00647*
X02571Y00647*
X02575Y00647*
X02579Y00644*
X02579Y00644*
X02586Y00639*
X02595Y00637*
X02603Y00639*
X0261Y00644*
X02615Y00651*
X02617Y0066*
X02615Y00668*
X0261Y00675*
X02603Y0068*
X02595Y00682*
X02586Y0068*
X02579Y00675*
X02579Y00675*
X02575Y00672*
X02571Y00672*
X02571Y00672*
Y00672*
Y00672*
X0255*
X02545Y00671*
X02541Y00668*
X02518Y00645*
X02515*
X02474*
Y00651*
X02468*
Y00691*
X02362*
Y00651*
X02356*
Y00645*
X02316*
Y00643*
X02298*
X02287Y00654*
Y00663*
X02289Y00663*
X02293Y00666*
X02308Y00681*
X02311Y00685*
X02312Y0069*
X02312*
X02312Y00692*
X02314Y00695*
X02315Y00696*
X02315Y00696*
X02316Y00697*
X02317Y00697*
X02317Y00698*
X02319Y00699*
X02324Y00705*
X02326Y00712*
X02327Y00719*
X02326Y00726*
X02324Y00733*
X02319Y00739*
X02313Y00743*
X02307Y00746*
X023Y00747*
X02292Y00746*
X02286Y00743*
X0228Y00739*
X02275Y00733*
X02273Y00726*
X02272Y00719*
X02273Y00712*
X02275Y00705*
X0228Y00699*
X02282Y00698*
X02282Y00697*
X02283Y00697*
X02284Y00696*
X02284Y00696*
X02284Y00696*
X02284Y00696*
X02284Y00693*
X02281Y00689*
X02277*
X02265Y00701*
X02261Y00703*
X02257Y00704*
X02257Y00705*
X02257Y00705*
X02256Y00704*
X02248Y00706*
X02245Y00708*
Y00734*
X02134*
Y00651*
X02245*
Y00676*
X02248Y00679*
X02252Y0068*
X02262Y0067*
Y0065*
X02263Y00645*
X02266Y00641*
X02284Y00623*
X02285Y00622*
X02285Y00617*
X02266Y00598*
X02263Y00594*
X02262Y0059*
Y00564*
X02257Y00559*
X02254Y0056*
X02246Y00563*
X02245Y00564*
Y00588*
X02134*
Y00505*
X0217*
X02175Y00491*
X02177Y00478*
Y00476*
X02177Y00474*
Y00473*
X02177Y00473*
X02177Y00472*
X02176Y00466*
X02174Y0046*
X02169Y00454*
X02169Y00454*
X02165Y00448*
X02162Y00442*
X02161Y00435*
X02162Y00427*
X02165Y00421*
X02169Y00415*
X02175Y0041*
X02182Y00408*
X02189Y00407*
X02196Y00408*
X02203Y0041*
X02209Y00415*
X02213Y00421*
X02216Y00427*
X02217Y00435*
X02216Y00442*
X02213Y00448*
X02209Y00454*
X02209Y00454*
X02209Y00454*
X02205Y0046*
X02202Y00466*
X02201Y00472*
X02201Y00473*
X02201*
Y00475*
X02202Y00486*
X02206Y00498*
X0221Y00505*
X02245*
Y00529*
X02246Y0053*
X02254Y00534*
X02261Y00535*
X02262Y00534*
X02262Y00534*
X02262Y00535*
X02266Y00536*
X0227Y00538*
X02283Y00551*
X02286Y00555*
X02287Y0056*
Y00585*
X02302Y006*
X02313*
Y00597*
X02338*
Y00587*
X02313*
Y00576*
X02316*
Y00558*
Y00539*
X02356*
Y00533*
X02362*
Y00492*
X02364*
Y00446*
X02353Y00435*
X02348Y00437*
X02347Y00444*
X02342Y00452*
X02334Y00457*
X0233Y00458*
Y00435*
X02325*
Y0043*
X02301*
X02302Y00425*
X02307Y00417*
X02315Y00412*
X02322Y00411*
X02324Y00406*
X02287Y00369*
X01848*
X01846Y00373*
X01852Y0038*
X01852Y00379*
X01852Y0038*
X01853Y0038*
X0186Y00386*
X01869Y0039*
X01879Y00391*
X0188Y00391*
X0189Y00392*
X01899Y00396*
X01907Y00402*
X01913Y0041*
X01917Y00419*
X01918Y0043*
X01917Y0044*
X01913Y00449*
X01907Y00457*
X01899Y00463*
X0189Y00467*
X0188Y00468*
X01869Y00467*
X0186Y00463*
X01852Y00457*
X01846Y00449*
X01842Y0044*
X01841Y0043*
X01841Y00429*
X0184Y00419*
X01836Y0041*
X0183Y00403*
X0183Y00402*
X01829Y00402*
X0183Y00402*
X0182Y00392*
X01802*
X018Y00397*
X01807Y00402*
X01813Y0041*
X01817Y00419*
X01818Y0043*
X01817Y0044*
X01813Y00449*
X01807Y00457*
X01799Y00463*
X0179Y00467*
X0178Y00468*
X01769Y00467*
X0176Y00463*
X01752Y00457*
X01746Y00449*
X01742Y0044*
X01741Y0043*
X01742Y00419*
X01746Y0041*
X01752Y00402*
X01759Y00397*
X01757Y00392*
X01702*
X017Y00397*
X01707Y00402*
X01713Y0041*
X01717Y00419*
X01718Y0043*
X01717Y0044*
X01713Y00449*
X01707Y00456*
Y00503*
X01713Y0051*
X01717Y00519*
X01718Y0053*
X01717Y0054*
X01713Y00549*
X01707Y00556*
Y00607*
X01968*
X02013Y00562*
X02011Y00557*
X01918*
Y00568*
X01841*
Y00491*
X01918*
Y00502*
X0205*
X02057Y00503*
X02063Y00505*
X02069Y0051*
X02074Y00516*
X02076Y00522*
X02077Y0053*
Y00565*
X02076Y00572*
X02076Y00574*
X02074Y00578*
X02069Y00584*
X01999Y00654*
X01993Y00659*
X01987Y00661*
X0198Y00662*
X01707*
Y0073*
X01706Y00737*
X01705Y0074*
X01709Y00743*
X01742Y0071*
X01745Y00708*
X0175Y00707*
X02026*
Y00707*
Y00707*
X02026Y00707*
X0203Y00706*
X02034Y00704*
X02034Y00703*
X02041Y00699*
X0205Y00697*
X02058Y00699*
X02065Y00703*
X0207Y0071*
X02072Y00719*
X0207Y00727*
X02065Y00735*
X02058Y00739*
X0205Y00741*
X02041Y00739*
X0204Y00739*
X02036Y00741*
X02037Y00745*
X02035Y00753*
X0203Y0076*
X02023Y00765*
X02015Y00767*
X02006Y00765*
X01999Y0076*
X01999Y0076*
X01995Y00757*
X01991Y00757*
X01991Y00757*
Y00757*
Y00757*
X01874*
X01871Y00761*
X01875Y00766*
X01877Y00775*
X01875Y00783*
X0187Y0079*
X01867Y00792*
Y00797*
X0187Y00799*
X01875Y00806*
X01877Y00815*
X01875Y00823*
X0187Y0083*
X01863Y00835*
X01855Y00837*
X01846Y00835*
X01839Y0083*
X01839Y0083*
X01835Y00827*
X01831Y00827*
X01831Y00827*
Y00827*
Y00827*
X01732*
X017Y00859*
X01696Y00861*
X01691Y00862*
X01529*
X01529Y00867*
X01531Y00868*
X01537Y00872*
X01587Y00921*
X01617*
Y00912*
X01672*
Y00967*
X01617*
Y00958*
X0158*
X01573Y00956*
X01567Y00953*
X01567Y00953*
X01566Y00952*
X01565Y00952*
X01557Y00952*
X01555Y00952*
X01531*
Y00952*
X0153Y00952*
X01518Y00953*
X01506Y00958*
X01497Y00965*
X01496Y00966*
X01488Y00972*
X01487Y00973*
X01488Y00977*
X01546*
Y00977*
Y00977*
X01546Y00977*
X0155Y00977*
X01554Y00974*
X01554Y00974*
X01561Y00969*
X0157Y00967*
X01578Y00969*
X01585Y00974*
X0159Y00981*
X01592Y0099*
X0159Y00998*
X01585Y01005*
X01582Y01007*
X01584Y01012*
X0162*
X01627Y01013*
X01633Y01015*
X01639Y0102*
X01896Y01277*
X0192*
X01922Y01272*
X01919Y01268*
X01917Y0126*
X01919Y01251*
X01924Y01244*
X01931Y01239*
X0194Y01237*
X0194Y01238*
X01944Y01237*
X01948Y01234*
X01948Y01234*
X01948Y01234*
X01948Y01234*
X02037Y01145*
Y01117*
X02011*
Y01117*
X02008Y01117*
X02006Y01119*
X02006Y01119*
X01999Y01123*
X01992Y01125*
X01929*
X01921Y01123*
X01914Y01119*
X0191Y01112*
X01908Y01105*
X0191Y01097*
X01914Y0109*
X01921Y01086*
X01929Y01084*
X01992*
X01999Y01086*
X02006Y0109*
X02006Y0109*
X02008Y01092*
X02011Y01092*
Y01092*
Y01092*
X02037*
Y01085*
Y01016*
X02033Y01013*
X02029Y01016*
X02025Y01017*
X02011*
Y01017*
Y01017*
X02008Y01017*
X02006Y01019*
X02006Y01019*
X01999Y01023*
X01992Y01025*
X01929*
X01921Y01023*
X01917Y01021*
X01795*
X01794Y01021*
X01788Y01025*
X0178Y01027*
X01771Y01025*
X01764Y0102*
X01759Y01013*
X01757Y01005*
X01759Y00996*
X01764Y00989*
X01771Y00984*
X0178Y00982*
X01784Y00983*
X01786Y00979*
X01763Y00956*
X01743*
Y00956*
X01742Y00963*
Y00967*
X01687*
Y00912*
X01742*
Y00916*
X01743Y00923*
Y00923*
X0177*
X01775Y00924*
X01776Y00925*
X01781Y00928*
X01821Y00968*
X01824Y00973*
X01826Y0098*
Y00988*
X01917*
X01921Y00986*
X01929Y00984*
X01992*
X01999Y00986*
X02006Y0099*
X02009Y00992*
X02012Y00989*
Y00967*
X02008Y00966*
X02006Y00969*
X01999Y00973*
X01992Y00975*
X01929*
X01921Y00973*
X01914Y00969*
X01914Y00969*
X01912Y00967*
X0191Y00967*
Y00967*
X01903*
Y00967*
Y00967*
X01903Y00967*
X01899Y00967*
X01895Y0097*
X01895Y0097*
X01888Y00975*
X0188Y00977*
X01871Y00975*
X01864Y0097*
X01859Y00963*
X01857Y00955*
X01859Y00946*
X01864Y00939*
X01871Y00934*
X0188Y00932*
X01888Y00934*
X01895Y00939*
X01895Y00939*
X01899Y00942*
X01903Y00942*
X01903Y00942*
Y00942*
X0191*
Y00942*
Y00942*
X01912Y00942*
X01914Y0094*
X01914Y0094*
X01921Y00936*
X01929Y00934*
X01992*
X01999Y00936*
X02006Y0094*
X02008Y00943*
X02012Y00942*
Y0092*
X02009Y00917*
X02006Y00919*
X01999Y00923*
X01992Y00925*
X01929*
X01921Y00923*
X01914Y00919*
X0191Y00912*
X01908Y00905*
X0191Y00897*
X01914Y0089*
X01921Y00886*
X01929Y00884*
X01992*
X01999Y00886*
X02006Y0089*
X02006Y0089*
X02008Y00892*
X02011Y00892*
Y00892*
Y00892*
X02025*
X02029Y00893*
X02033Y00896*
X02037Y00893*
Y00828*
X02037*
X02037Y00828*
X02037Y00824*
X02034Y0082*
X02034Y0082*
X02029Y00813*
X02027Y00805*
X02029Y00796*
X02034Y00789*
X02041Y00784*
X0205Y00782*
X02058Y00784*
X02065Y00789*
X0207Y00796*
X02072Y00805*
X0207Y00813*
X02065Y0082*
X02065Y0082*
X02062Y00824*
X02062Y00828*
X02062Y00828*
X02062*
Y01085*
Y0115*
X02061Y01154*
X02058Y01158*
X01965Y01251*
X01965Y01251*
X01965Y01251*
X01962Y01255*
X01962Y01259*
X01962Y0126*
X0196Y01268*
X01957Y01272*
X01959Y01277*
X02333*
X0244Y0117*
X02446Y01165*
X02452Y01163*
X0246Y01162*
X02655*
X02662Y01163*
X02668Y01165*
X02674Y0117*
X02699Y01195*
X02704Y01201*
X02706Y01207*
X02707Y01215*
Y01308*
X02741Y01342*
X02788*
X02795Y01336*
X02804Y01332*
X02815Y01331*
X02825Y01332*
X02834Y01336*
X02842Y01342*
X02848Y0135*
X02852Y01359*
X02853Y0137*
X02852Y0138*
X02848Y01389*
X02842Y01397*
X02834Y01403*
X02825Y01407*
X02815Y01408*
X02804Y01407*
X02795Y01403*
X02788Y01397*
X0273*
X02722Y01396*
X02716Y01394*
X0271Y01389*
X0266Y01339*
X02655Y01333*
X02653Y01327*
X02652Y0132*
Y01226*
X02643Y01217*
X02471*
X02364Y01324*
X02358Y01329*
X02352Y01331*
X02345Y01332*
X01885*
X01877Y01331*
X01871Y01329*
X01865Y01324*
X01608Y01067*
X01006*
X00997Y01077*
X00987Y01086*
Y01099*
X01046*
Y01118*
X0105Y01119*
X01058Y0112*
X01083*
X01086Y01118*
X01095Y01116*
X01103Y01118*
X0111Y01123*
X01115Y0113*
X01117Y01139*
X01115Y01147*
X0111Y01154*
X01103Y01159*
X01095Y01161*
X01086Y01159*
X01083Y01157*
X01058*
X0105Y01158*
X01046Y01159*
Y01178*
X00873*
Y01159*
X00869Y01158*
X00861Y01157*
X00806*
X00803Y01159*
X00795Y01161*
X00786Y01159*
X00779Y01154*
X00774Y01147*
X00772Y01139*
X00774Y0113*
X00779Y01123*
X00786Y01118*
X00795Y01116*
X00803Y01118*
X00806Y0112*
X00861*
X00869Y01119*
X00873Y01118*
Y01099*
X00932*
Y01075*
X00933Y01067*
X00935Y01061*
X0094Y01055*
X00946Y01048*
Y01043*
X00936Y01033*
X00933Y01029*
X00932Y01024*
Y01001*
X00932*
X00932Y01*
X00931Y00988*
X00926Y00976*
X00918Y00967*
X00918Y00966*
X00912Y00958*
X00908Y00949*
X00907Y0094*
X00908Y0093*
X00912Y00921*
X00918Y00913*
X00926Y00907*
X00935Y00903*
X00944Y00902*
X00954Y00903*
X00963Y00907*
X00971Y00913*
X00977Y00921*
X00981Y0093*
X00982Y0094*
X00981Y00949*
X00977Y00958*
X00971Y00966*
X0097Y00967*
X00963Y00976*
X00958Y00988*
X00956Y01*
X00957Y01001*
X00956*
Y01019*
X00963Y01026*
X00968*
X00975Y0102*
X00981Y01015*
X00987Y01013*
X00995Y01012*
X01555*
X01557Y01007*
X01554Y01005*
X01554Y01005*
X0155Y01002*
X01546Y01002*
X01546Y01002*
Y01002*
Y01002*
X0136*
X01355Y01001*
X01351Y00998*
X01345Y00992*
X01345Y00992*
X01344Y00991*
X01334Y00984*
X01322Y00979*
X0131Y00977*
X0131Y00977*
X013Y00976*
X01291Y00972*
X01283Y00966*
X01277Y00958*
X01273Y00949*
X01272Y0094*
X01273Y0093*
X01277Y00921*
X01283Y00913*
X01291Y00907*
X013Y00903*
X0131Y00902*
X01319Y00903*
X01328Y00907*
X01336Y00913*
X01342Y00921*
X01346Y0093*
X01347Y0094*
X01347Y0094*
X01349Y00952*
X01354Y00964*
X01361Y00974*
X01362Y00975*
X01362Y00975*
X01364Y00977*
X01451*
X01452Y00973*
X01451Y00972*
X01443Y00966*
X01437Y00958*
X01433Y00949*
X01432Y0094*
X01433Y0093*
X01437Y00921*
X01443Y00913*
X01451Y00907*
X01452Y00906*
X01453Y00901*
X01447Y00897*
X01402Y00852*
X01398Y00846*
X01396Y0084*
Y00823*
X01393*
X01316*
Y00746*
X01393*
X01393*
X01396Y00743*
Y00727*
X01354Y00685*
X00984*
X0098Y00687*
X00972Y00689*
X00963Y00687*
X00959Y00685*
X00814*
X00811Y00687*
X00803Y00689*
X00794Y00687*
X00788Y00683*
X00641*
X00638Y00685*
X00629Y00687*
X00621Y00685*
X00618Y00683*
X00474*
X00469Y00686*
X00461Y00688*
X00452Y00686*
X00448Y00683*
X00289*
X00284Y00686*
X00276Y00688*
X00267Y00686*
X00263Y00683*
X00224*
X00211Y00684*
X00207Y00684*
Y00743*
X00296Y00832*
X00375*
X00382Y00833*
X00388Y00835*
X00394Y0084*
X00539Y00985*
X00544Y00991*
X00546Y00997*
X00547Y01005*
Y01099*
X00606*
Y01118*
X0061Y01119*
X00618Y0112*
X00648*
X00651Y01118*
X0066Y01116*
X00668Y01118*
X00675Y01123*
X0068Y0113*
X00682Y01139*
X0068Y01147*
X00675Y01154*
X00668Y01159*
X0066Y01161*
X00651Y01159*
X00648Y01157*
X00618*
X0061Y01158*
X00606Y01159*
Y01178*
X00433*
Y01159*
X00429Y01158*
X00421Y01157*
X00371*
X00368Y01159*
X0036Y01161*
X00351Y01159*
X00344Y01154*
X00339Y01147*
X00337Y01139*
X00339Y0113*
X00344Y01123*
X00351Y01118*
X0036Y01116*
X00368Y01118*
X00371Y0112*
X00421*
X00429Y01119*
X00433Y01118*
Y01099*
X00492*
Y01016*
X00363Y00887*
X00285*
X00277Y00886*
X00271Y00884*
X00265Y00879*
X0016Y00774*
X00155Y00768*
X00153Y00762*
X00152Y00755*
Y00684*
X00137Y00683*
X00132Y00683*
X00112*
X00108Y00685*
X001Y00687*
X00092Y00685*
X00084Y00681*
X0008Y00673*
X00078Y00665*
X0008Y00657*
X00084Y00649*
X00092Y00645*
X001Y00643*
X00108Y00645*
X00112Y00647*
X00135*
X00148Y00647*
X00152Y00646*
Y00375*
X00153Y00367*
X00155Y00361*
X0016Y00355*
X00237Y00278*
Y00238*
X00232Y00236*
X00224Y0025*
X00213Y00263*
X002Y00274*
X00186Y00282*
X0017Y00289*
X00154Y00293*
X00137Y00294*
X00121Y00293*
X00104Y00289*
X00089Y00282*
X00075Y00274*
X00062Y00263*
X00051Y0025*
X00042Y00236*
X00036Y0022*
X00032Y00204*
X00031Y00187*
X00032Y00171*
X00036Y00154*
X00042Y00139*
X00051Y00125*
X00062Y00112*
X00075Y00101*
X00089Y00092*
X00104Y00086*
X00121Y00082*
X00137Y00081*
X00154Y00082*
X0017Y00086*
X00186Y00092*
X002Y00101*
X00213Y00112*
X00224Y00125*
X00232Y00138*
X00237Y00137*
Y00085*
X00238Y00077*
X0024Y00071*
X00245Y00065*
X00285Y00025*
X00286Y00024*
X00284Y0002*
X0002*
Y02235*
X02955*
Y0002*
G37*
G36*
X00417Y0033D02*
Y00301D01*
X00417*
X00417Y003*
X00415Y00288*
X0041Y00275*
X00403Y00265*
X00402Y00265*
X00396Y00257*
X00392Y00247*
X0039Y00237*
X00392Y00227*
X00396Y00218*
X00402Y0021*
X0041Y00204*
X00419Y002*
X00429Y00199*
X00439Y002*
X00448Y00204*
X00456Y0021*
X00463Y00218*
X00467Y00216*
Y00205*
X00468Y002*
X00471Y00196*
X00491Y00176*
X00495Y00173*
X005Y00172*
X00504*
X00506Y00168*
X00502Y00165*
X00496Y00157*
X00492Y00147*
X0049Y00137*
X00492Y00127*
X00496Y00118*
X00502Y0011*
X0051Y00104*
X00519Y001*
X00529Y00099*
X00539Y001*
X00548Y00104*
X00556Y0011*
X00563Y00118*
X00566Y00127*
X00568Y00137*
X00566Y00147*
X00563Y00157*
X00556Y00165*
X00552Y00168*
X00554Y00172*
X00601*
X00602Y00168*
X006Y00166*
X00594Y00158*
X0059Y00148*
X00589Y00142*
X00669*
X00669Y00148*
X00664Y00158*
X00658Y00166*
X00656Y00168*
X00658Y00172*
X00676*
X00676*
X00681Y00173*
X00685Y00176*
X00692Y00183*
X00692Y00183*
X00693Y00184*
X00703Y00192*
X00716Y00197*
X00729Y00199*
X00729Y00199*
X0073Y00199*
X00764*
X00767*
X00767Y00199*
Y00193*
X00766Y00191*
X00766Y00191*
X00765Y0019*
X00755Y00183*
X00743Y00178*
X0073Y00176*
X00729Y00176*
X00719Y00175*
X0071Y00171*
X00702Y00165*
X00696Y00157*
X00692Y00147*
X0069Y00137*
X00692Y00127*
X00696Y00118*
X00702Y0011*
X0071Y00104*
X00719Y001*
X00729Y00099*
X00739Y001*
X00748Y00104*
X00756Y0011*
X00763Y00118*
X00766Y00127*
X00768Y00137*
X00768Y00138*
X00769Y00151*
X00774Y00163*
X00782Y00173*
X00783Y00174*
X00783Y00174*
X00788Y00179*
X00791Y00183*
X00792Y00188*
Y00215*
X00796Y00217*
X00802Y0021*
X0081Y00204*
X00819Y002*
X00829Y00199*
X00839Y002*
X00848Y00204*
X00856Y0021*
X00863Y00218*
X00866Y00227*
X00868Y00237*
X00866Y00247*
X00863Y00257*
X00856Y00265*
X00848Y00271*
X00839Y00275*
X00829Y00276*
X00819Y00275*
X0081Y00271*
X00802Y00265*
X00796Y00258*
X00792Y00259*
Y00265*
X00809Y00282*
X01023*
X01024Y00277*
X01018Y00277*
X01009Y00273*
X01Y00266*
X00994Y00258*
X0099Y00248*
X00989Y00242*
X01029*
Y00237*
X01034*
Y00197*
X0104Y00198*
X01049Y00202*
X01058Y00208*
X01063Y00215*
X01064*
X01068Y00214*
X01068Y0021*
X01071Y00206*
X01101Y00176*
X01105Y00173*
X01105Y00173*
X01107Y00168*
X01102Y00165*
X01096Y00157*
X01092Y00147*
X0109Y00137*
X01092Y00127*
X01096Y00118*
X01102Y0011*
X0111Y00104*
X01119Y001*
X01129Y00099*
X0113Y00099*
X01143Y00097*
X01155Y00092*
X01165Y00084*
X01166Y00083*
X01166Y00083*
X01171Y00079*
X0117Y00074*
X01168Y00072*
X00316*
X00292Y00096*
Y00114*
X00297Y00116*
X00302Y0011*
X0031Y00104*
X00319Y001*
X00329Y00099*
X00339Y001*
X00348Y00104*
X00356Y0011*
X00363Y00118*
X00366Y00127*
X00368Y00137*
X00366Y00147*
X00363Y00157*
X00356Y00165*
X00348Y00171*
X00339Y00175*
X00329Y00176*
X00319Y00175*
X0031Y00171*
X00302Y00165*
X00297Y00159*
X00292Y0016*
Y00211*
X00297Y00212*
X003Y00208*
X00309Y00202*
X00318Y00198*
X00324Y00197*
Y00237*
Y00278*
X00318Y00277*
X00309Y00273*
X003Y00266*
X00297Y00262*
X00292Y00264*
Y0029*
X00291Y00297*
X00289Y00303*
X00284Y00309*
X00207Y00386*
Y00405*
X00212Y00407*
X00216Y00404*
X00225Y00402*
X00233Y00404*
X0024Y00409*
X0024Y00409*
X00244Y00412*
X00248Y00412*
X00248Y00412*
Y00412*
X00335*
X00417Y0033*
G37*
G36*
X02622Y00562D02*
D01*
Y00507*
X02677*
X02679Y00505*
Y00483*
X02677Y00481*
X02675Y0048*
X0267Y00484*
X0267Y00484*
X02664Y00489*
X02657Y00491*
X0265Y00492*
X02643Y00491*
X02636Y00489*
X0263Y00484*
X02626Y00478*
X02623Y00472*
X02622Y00465*
X02623Y00457*
X02626Y00451*
X0263Y00445*
X02636Y0044*
X02643Y00438*
X0265Y00437*
X02657Y00438*
X02664Y0044*
X0267Y00445*
X0267Y00445*
X02675Y00449*
X02677Y00448*
X02679Y00446*
Y00423*
X02626Y0037*
X02417*
X02415Y00374*
X02501Y0046*
X02504Y00464*
X02505Y00468*
Y00539*
X02515*
Y00558*
Y0056*
X02522*
X02522Y0056*
Y0055*
X02523Y00545*
X02526Y00541*
X02541Y00526*
X02545Y00523*
X0255Y00522*
Y00522*
Y00522*
Y00522*
X0255Y00522*
X02552Y00512*
Y00507*
X02607*
Y00562*
X02607Y00562*
X02622*
Y00562*
G37*
G36*
X00516Y00642D02*
X00513Y00641D01*
X00509Y00633*
X00507Y00625*
X00509Y00617*
X00513Y00609*
X00514Y00609*
X00516Y00606*
X00517Y00601*
X00517Y00601*
X00517*
Y00551*
X00512Y0055*
X00507Y00557*
X00499Y00563*
X0049Y00567*
X0048Y00568*
X00469Y00567*
X0046Y00563*
X00452Y00557*
X00446Y00549*
X00442Y0054*
X00441Y0053*
X00442Y00519*
X00446Y0051*
X00452Y00502*
X0046Y00496*
X00469Y00492*
X0048Y00491*
X0049Y00492*
X00499Y00496*
X00507Y00502*
X00512Y00509*
X00517Y00508*
Y00451*
X00512Y0045*
X00507Y00457*
X00499Y00463*
X0049Y00467*
X0048Y00468*
X00469Y00467*
X0046Y00463*
X00452Y00457*
X00446Y00449*
X00442Y0044*
X00441Y0043*
X00442Y00419*
X00446Y0041*
X00452Y00402*
X0046Y00396*
X00469Y00392*
X0048Y00391*
X0049Y00392*
X00499Y00396*
X00507Y00402*
X00512Y00409*
X00517Y00408*
Y00301*
X00517*
X00517Y003*
X00515Y00288*
X0051Y00275*
X00503Y00265*
X00502Y00265*
X00496Y00258*
X00492Y00259*
Y00325*
X00491Y00329*
X00488Y00333*
X00372Y00449*
Y00496*
X00372*
X00372Y00496*
X00372Y005*
X00375Y00504*
X00375Y00504*
X0038Y00511*
X00382Y0052*
X0038Y00528*
X00375Y00535*
X00368Y0054*
X0036Y00542*
X00351Y0054*
X00344Y00535*
X00339Y00528*
X00337Y0052*
X00339Y00511*
X00344Y00504*
X00344Y00504*
X00347Y005*
X00347Y00496*
X00347Y00496*
X00347*
Y00445*
X00348Y0044*
X0035Y00438*
X00346Y00434*
X00344Y00436*
X0034Y00437*
X00248*
Y00437*
Y00437*
X00248Y00437*
X00244Y00437*
X0024Y0044*
X0024Y0044*
X00233Y00445*
X00225Y00447*
X00216Y00445*
X00212Y00442*
X00207Y00444*
Y00646*
X00227Y00647*
X00265*
X00267Y00645*
X00276Y00644*
X00284Y00645*
X00287Y00647*
X0045*
X00452Y00645*
X00461Y00644*
X00469Y00645*
X00472Y00647*
X00514*
X00516Y00642*
G37*
G36*
X02691Y00566D02*
X0269Y00567D01*
X02689Y00568*
X02687Y00568*
X02685Y00569*
X02682Y00569*
X0268Y0057*
X02673Y0057*
X02665Y00571*
Y00578*
X02669Y00578*
X02682Y0058*
X02685Y0058*
X02687Y00581*
X02689Y00581*
X0269Y00582*
X02691Y00583*
Y00566*
G37*
G36*
X01454Y00847D02*
X01455Y00842D01*
X0146Y00835*
X01467Y0083*
X01468Y0083*
X01469Y00825*
X01464Y00818*
X01462Y0081*
X01464Y00801*
X01469Y00794*
X01476Y00789*
X01485Y00787*
X01493Y00789*
X015Y00794*
X01505Y00801*
X01507Y0081*
X01507Y0081*
X01507Y00814*
X0151Y00818*
X0151Y00818*
X0151Y00818*
X01514Y00822*
X01621*
X01623Y00818*
X01619Y00815*
X01614Y00808*
X01612Y008*
X01613Y00795*
X0161Y00792*
X0161Y00792*
X01601Y0079*
X01594Y00785*
X01589Y00778*
X01587Y0077*
X01589Y00761*
X01594Y00754*
X01601Y00749*
X0161Y00747*
X01618Y00749*
X01625Y00754*
X01625Y00754*
X01629Y00757*
X01633Y00757*
X01633Y00757*
X01633Y00757*
X01661Y00756*
X01662Y00751*
X0166Y00749*
X01655Y00743*
X01653Y00737*
X01652Y0073*
Y00635*
Y00557*
X01606*
X01599Y00563*
X0159Y00567*
X0158Y00568*
X01569Y00567*
X0156Y00563*
X01553Y00557*
X01506*
X01499Y00563*
X0149Y00567*
X0148Y00568*
X01469Y00567*
X0146Y00563*
X01452Y00557*
X01446Y00549*
X01442Y0054*
X01441Y0053*
X01442Y00519*
X01446Y0051*
X01452Y00502*
X0146Y00496*
X01469Y00492*
X0148Y00491*
X0149Y00492*
X01499Y00496*
X01506Y00502*
X01553*
X0156Y00496*
X01569Y00492*
X0158Y00491*
X0159Y00492*
X01599Y00496*
X01606Y00502*
X01652*
Y00456*
X01646Y00449*
X01642Y0044*
X01641Y0043*
X01642Y00419*
X01646Y0041*
X01652Y00402*
X01659Y00397*
X01657Y00392*
X01602*
X016Y00397*
X01607Y00402*
X01613Y0041*
X01617Y00419*
X01618Y0043*
X01617Y0044*
X01613Y00449*
X01607Y00457*
X01599Y00463*
X0159Y00467*
X0158Y00468*
X01569Y00467*
X0156Y00463*
X01552Y00457*
X01546Y00449*
X01542Y0044*
X01541Y0043*
X01542Y00419*
X01546Y0041*
X01552Y00402*
X01559Y00397*
X01557Y00392*
X01502*
X015Y00397*
X01507Y00402*
X01513Y0041*
X01517Y00419*
X01518Y0043*
X01517Y0044*
X01513Y00449*
X01507Y00457*
X01499Y00463*
X0149Y00467*
X0148Y00468*
X01469Y00467*
X0146Y00463*
X01452Y00457*
X01446Y00449*
X01442Y0044*
X01441Y0043*
X01442Y00419*
X01446Y0041*
X01452Y00402*
X01459Y00397*
X01457Y00392*
X01402*
X014Y00397*
X01407Y00402*
X01413Y0041*
X01417Y00419*
X01418Y0043*
X01417Y0044*
X01413Y00449*
X01407Y00457*
X01399Y00463*
X0139Y00467*
X0138Y00468*
X01369Y00467*
X0136Y00463*
X01352Y00457*
X0135Y00454*
X01346Y00456*
Y00503*
X0135Y00505*
X01352Y00502*
X0136Y00496*
X01369Y00492*
X0138Y00491*
X0139Y00492*
X01399Y00496*
X01407Y00502*
X01413Y0051*
X01417Y00519*
X01418Y0053*
X01417Y0054*
X01413Y00549*
X01407Y00557*
X01399Y00563*
X0139Y00567*
X0138Y00568*
X01369Y00567*
X0136Y00563*
X01352Y00557*
X0135Y00554*
X01349Y00555*
X01348Y0056*
X01396Y00608*
X01414*
X01415Y00604*
X01412Y00602*
X01407Y00594*
X01406Y0059*
X01453*
X01452Y00594*
X01447Y00602*
X01444Y00604*
X01445Y00608*
X01505*
X0151Y00609*
X01511Y0061*
X01516Y00613*
X01586Y00683*
X01589Y00688*
X01591Y00695*
Y00714*
X01591Y00715*
X01595Y00721*
X01597Y0073*
X01595Y00738*
X0159Y00745*
X01583Y0075*
X01575Y00752*
X01566Y0075*
X01559Y00745*
X01554Y00738*
X01552Y0073*
X01554Y00721*
X01558Y00715*
X01558Y00714*
Y00701*
X01498Y00641*
X0139*
X01383Y00639*
X01378Y00636*
X01318Y00576*
X01315Y00571*
X01314Y0057*
X01313Y00565*
Y0056*
X01309Y00558*
X01308Y00558*
X013Y00565*
X0129Y00569*
X01285Y0057*
Y0053*
Y00489*
X0129Y0049*
X013Y00494*
X01308Y00501*
X01309Y00501*
X01313Y00499*
Y00456*
X01309Y00454*
X01307Y00457*
X01299Y00463*
X0129Y00467*
X0128Y00468*
X01269Y00467*
X0126Y00463*
X01252Y00457*
X01246Y00449*
X01242Y0044*
X01241Y0043*
X01242Y00419*
X01246Y0041*
X01252Y00402*
X0126Y00396*
X01269Y00392*
X0128Y00391*
X0129Y00392*
X01299Y00396*
X01307Y00402*
X01309Y00405*
X01309*
X01314Y00403*
X01314Y00399*
X01315Y00398*
X01318Y00393*
X01346Y00365*
X01351Y00362*
X01352Y00361*
X01358Y0036*
X01384*
X01386Y00356*
X01357Y00327*
X01166*
X01164Y00332*
X01188Y00356*
X01191Y0036*
X01192Y00365*
Y00365*
X01192*
X01192Y00367*
X01193Y00379*
X01198Y00391*
X01206Y00401*
X01207Y00402*
X01213Y0041*
X01217Y00419*
X01218Y0043*
X01217Y0044*
X01213Y00449*
X01207Y00457*
X01199Y00463*
X0119Y00467*
X0118Y00468*
X01169Y00467*
X0116Y00463*
X01152Y00457*
X01146Y00449*
X01142Y0044*
X01141Y0043*
X01142Y00419*
X01146Y0041*
X01152Y00402*
X01153Y00401*
X01161Y00391*
X01166Y00379*
X01167Y00369*
X01141Y00343*
X01129*
X01124Y00342*
X01123Y00341*
X0112Y0034*
X01087Y00307*
X01049*
X01046Y00311*
X0105Y00316*
X01052Y00325*
X0105Y00333*
X01045Y0034*
X01038Y00345*
X0103Y00347*
X01021Y00345*
X01014Y0034*
X01014Y0034*
X0101Y00337*
X01006Y00337*
X01006Y00337*
Y00337*
Y00337*
X00598*
Y00337*
Y00337*
X00598Y00337*
X00594Y00337*
X0059Y0034*
X0059Y0034*
X00583Y00345*
X00575Y00347*
X00566Y00345*
X00559Y0034*
X00554Y00333*
X00552Y00325*
X00554Y00316*
X00559Y00309*
X00566Y00304*
X00575Y00302*
X00583Y00304*
X0059Y00309*
X0059Y00309*
X00594Y00312*
X00598Y00312*
X00598Y00312*
Y00312*
X01006*
Y00312*
Y00312*
X01006Y00312*
X01007Y00312*
X01009Y00308*
X01009Y00307*
X00805*
X008Y00306*
X00798Y00305*
X00796Y00303*
X00771Y00278*
X00769Y00276*
X00767*
X00765*
X00691*
Y00238*
X0069Y00237*
X00691Y00237*
X00689Y00224*
X00684Y00211*
X00676Y00201*
X00675Y00201*
X00675Y002*
X00671Y00197*
X00644*
X00643Y00201*
X00648Y00204*
X00656Y0021*
X00663Y00218*
X00666Y00227*
X00668Y00237*
X00666Y00247*
X00663Y00257*
X00656Y00265*
X00648Y00271*
X00639Y00275*
X00629Y00276*
X00619Y00275*
X0061Y00271*
X00602Y00265*
X00596Y00257*
X00592Y00247*
X0059Y00237*
X00592Y00227*
X00596Y00218*
X00602Y0021*
X0061Y00204*
X00615Y00201*
X00614Y00197*
X00544*
X00543Y00201*
X00548Y00204*
X00556Y0021*
X00563Y00218*
X00566Y00227*
X00568Y00237*
X00566Y00247*
X00563Y00257*
X00556Y00265*
X00556Y00265*
X00548Y00275*
X00543Y00288*
X00541Y003*
X00541Y00301*
X00541*
Y00408*
X00546Y0041*
X00552Y00402*
X0056Y00396*
X00569Y00392*
X0058Y00391*
X0059Y00392*
X00599Y00396*
X00607Y00402*
X00613Y0041*
X00617Y00419*
X00618Y0043*
X00617Y0044*
X00613Y00449*
X00607Y00457*
X00599Y00463*
X0059Y00467*
X0058Y00468*
X00569Y00467*
X0056Y00463*
X00552Y00457*
X00546Y00449*
X00541Y00451*
Y00508*
X00546Y0051*
X00552Y00502*
X0056Y00496*
X00569Y00492*
X0058Y00491*
X0059Y00492*
X00599Y00496*
X00607Y00502*
X00613Y0051*
X00617Y00519*
X00618Y0053*
X00617Y0054*
X00613Y00549*
X00607Y00557*
X00599Y00563*
X0059Y00567*
X0058Y00568*
X00569Y00567*
X0056Y00563*
X00552Y00557*
X00546Y00549*
X00541Y00551*
Y00601*
X00541*
X00541Y00601*
X00542Y00606*
X00544Y00609*
X00545Y00609*
X00549Y00617*
X00551Y00625*
X00549Y00633*
X00545Y00641*
X00542Y00642*
X00544Y00647*
X00617*
X00621Y00644*
X00629Y00643*
X00638Y00644*
X00642Y00647*
X00793*
X00794Y00646*
X00803Y00644*
X00807Y00645*
X00811Y00642*
X00807Y00562*
X00803Y0056*
X00799Y00563*
X0079Y00567*
X0078Y00568*
X00769Y00567*
X0076Y00563*
X00752Y00557*
X00746Y00549*
X00742Y0054*
X00741Y0053*
X00742Y00519*
X00746Y0051*
X00752Y00502*
X0076Y00496*
X00769Y00492*
X0078Y00491*
X0079Y00492*
X00799Y00496*
X00807Y00502*
X00807Y00502*
X00807Y00502*
X00807Y00502*
X00813Y00507*
X00821Y0051*
X00828Y00511*
X00831*
X00838Y0051*
X00846Y00507*
X00852Y00502*
X00852Y00502*
X00852Y00502*
X00852Y00502*
X0086Y00496*
X00869Y00492*
X0088Y00491*
X0089Y00492*
X00899Y00496*
X00907Y00502*
X00913Y0051*
X00917Y00519*
X00918Y0053*
X00917Y0054*
X00913Y00549*
X00907Y00557*
X00899Y00563*
X0089Y00567*
X0088Y00568*
X00869Y00567*
X0086Y00563*
X00856Y0056*
X00852Y00562*
X00848Y00645*
X00851Y00648*
X0096*
X00963Y00646*
X00972Y00645*
X0098Y00646*
X00983Y00648*
X01361*
X01368Y0065*
X01374Y00654*
X01427Y00707*
X01431Y00713*
X01433Y0072*
Y00832*
X01449Y00848*
X01454Y00847*
G37*
G36*
X01573Y00933D02*
X01572Y00933D01*
X01571Y00934*
X01569Y00934*
X01568Y00934*
X01566Y00935*
X01561Y00935*
X01554Y00936*
X01551Y00936*
Y00943*
X01554Y00943*
X01566Y00944*
X01568Y00945*
X01569Y00945*
X01571Y00945*
X01572Y00946*
X01573Y00946*
Y00933*
G37*
%LNrpiadapterpcb-2*%
%LPC*%
G36*
X01085Y0057D02*
Y00535D01*
X0112*
X01119Y0054*
X01115Y0055*
X01108Y00558*
X011Y00565*
X0109Y00569*
X01085Y0057*
G37*
G36*
X00985D02*
Y00535D01*
X0102*
X01019Y0054*
X01015Y0055*
X01008Y00558*
X01Y00565*
X0099Y00569*
X00985Y0057*
G37*
G36*
X01075D02*
X01069Y00569D01*
X01059Y00565*
X01051Y00558*
X01044Y0055*
X0104Y0054*
X01039Y00535*
X01075*
Y0057*
G37*
G36*
X01175D02*
X01169Y00569D01*
X01159Y00565*
X01151Y00558*
X01144Y0055*
X0114Y0054*
X01139Y00535*
X01175*
Y0057*
G37*
G36*
X01453Y0058D02*
X01435D01*
Y00561*
X01439Y00562*
X01447Y00567*
X01452Y00575*
X01453Y0058*
G37*
G36*
X01992Y00827D02*
X01965D01*
Y0081*
X02013*
X02012Y00813*
X02007Y0082*
X02Y00825*
X01992Y00827*
G37*
G36*
X01425Y0058D02*
X01406D01*
X01407Y00575*
X01412Y00567*
X0142Y00562*
X01425Y00561*
Y0058*
G37*
G36*
X01185Y0057D02*
Y00535D01*
X0122*
X01219Y0054*
X01215Y0055*
X01208Y00558*
X012Y00565*
X0119Y00569*
X01185Y0057*
G37*
G36*
X01275D02*
X01269Y00569D01*
X01259Y00565*
X01251Y00558*
X01244Y0055*
X0124Y0054*
X01239Y00535*
X01275*
Y0057*
G37*
G36*
X00975D02*
X00969Y00569D01*
X00959Y00565*
X00951Y00558*
X00944Y0055*
X0094Y0054*
X00939Y00535*
X00975*
Y0057*
G37*
G36*
X01075Y00525D02*
X01039D01*
X0104Y00519*
X01044Y00509*
X01051Y00501*
X01059Y00494*
X01069Y0049*
X01075Y00489*
Y00525*
G37*
G36*
X0112D02*
X01085D01*
Y00489*
X0109Y0049*
X011Y00494*
X01108Y00501*
X01115Y00509*
X01119Y00519*
X0112Y00525*
G37*
G36*
X0102D02*
X00985D01*
Y00489*
X0099Y0049*
X01Y00494*
X01008Y00501*
X01015Y00509*
X01019Y00519*
X0102Y00525*
G37*
G36*
X02584Y00494D02*
Y0047D01*
X02608*
X02608Y00472*
X02605Y00479*
X026Y00486*
X02594Y0049*
X02587Y00493*
X02584Y00494*
G37*
G36*
X00975Y00525D02*
X00939D01*
X0094Y00519*
X00944Y00509*
X00951Y00501*
X00959Y00494*
X00969Y0049*
X00975Y00489*
Y00525*
G37*
G36*
X01175D02*
X01139D01*
X0114Y00519*
X01144Y00509*
X01151Y00501*
X01159Y00494*
X01169Y0049*
X01175Y00489*
Y00525*
G37*
G36*
X0068Y00568D02*
X00669Y00567D01*
X0066Y00563*
X00652Y00557*
X00646Y00549*
X00642Y0054*
X00641Y0053*
X00642Y00519*
X00646Y0051*
X00652Y00502*
X0066Y00496*
X00669Y00492*
X0068Y00491*
X0069Y00492*
X00699Y00496*
X00707Y00502*
X00713Y0051*
X00717Y00519*
X00718Y0053*
X00717Y0054*
X00713Y00549*
X00707Y00557*
X00699Y00563*
X0069Y00567*
X0068Y00568*
G37*
G36*
X0178D02*
X01769Y00567D01*
X0176Y00563*
X01752Y00557*
X01746Y00549*
X01742Y0054*
X01741Y0053*
X01742Y00519*
X01746Y0051*
X01752Y00502*
X0176Y00496*
X01769Y00492*
X0178Y00491*
X0179Y00492*
X01799Y00496*
X01807Y00502*
X01813Y0051*
X01817Y00519*
X01818Y0053*
X01817Y0054*
X01813Y00549*
X01807Y00557*
X01799Y00563*
X0179Y00567*
X0178Y00568*
G37*
G36*
X0181Y00877D02*
X01801Y00875D01*
X01794Y0087*
X01789Y00863*
X01787Y00855*
X01789Y00846*
X01794Y00839*
X01801Y00834*
X0181Y00832*
X01818Y00834*
X01825Y00839*
X01825Y00839*
X01829Y00842*
X01835Y00843*
Y00843*
X01908*
Y00843*
X01911Y00842*
X01914Y0084*
X01914Y0084*
X01921Y00836*
X01929Y00834*
X01992*
X01999Y00836*
X02006Y0084*
X0201Y00847*
X02012Y00855*
X0201Y00862*
X02006Y00869*
X01999Y00873*
X01992Y00875*
X01929*
X01921Y00873*
X01914Y00869*
X01914Y00868*
X01911Y00867*
X01908*
X01908Y00867*
Y00867*
X01835*
Y00867*
X01834Y00867*
X01832*
Y00867*
X01828Y00868*
X01825Y0087*
X01825Y0087*
X01818Y00875*
X0181Y00877*
G37*
G36*
X0122Y00525D02*
X01185D01*
Y00489*
X0119Y0049*
X012Y00494*
X01208Y00501*
X01215Y00509*
X01219Y00519*
X0122Y00525*
G37*
G36*
X01275D02*
X01239D01*
X0124Y00519*
X01244Y00509*
X01251Y00501*
X01259Y00494*
X01269Y0049*
X01275Y00489*
Y00525*
G37*
G36*
X01055Y00823D02*
X01044Y00822D01*
X01035Y00818*
X01027Y00812*
X01021Y00804*
X01017Y00795*
X01016Y00785*
X01017Y00774*
X01021Y00765*
X01027Y00757*
X01035Y00751*
X01044Y00747*
X01055Y00746*
X01065Y00747*
X01074Y00751*
X01082Y00757*
X01088Y00765*
X01092Y00774*
X01093Y00785*
X01092Y00795*
X01088Y00804*
X01082Y00812*
X01074Y00818*
X01065Y00822*
X01055Y00823*
G37*
G36*
X01155D02*
X01144Y00822D01*
X01135Y00818*
X01127Y00812*
X01121Y00804*
X01117Y00795*
X01116Y00785*
X01117Y00774*
X01121Y00765*
X01127Y00757*
X01135Y00751*
X01144Y00747*
X01155Y00746*
X01165Y00747*
X01174Y00751*
X01182Y00757*
X01188Y00765*
X01192Y00774*
X01193Y00785*
X01192Y00795*
X01188Y00804*
X01182Y00812*
X01174Y00818*
X01165Y00822*
X01155Y00823*
G37*
G36*
X01295Y0078D02*
X0126D01*
Y00744*
X01265Y00745*
X01275Y00749*
X01283Y00756*
X0129Y00764*
X01294Y00774*
X01295Y0078*
G37*
G36*
X0125D02*
X01214D01*
X01215Y00774*
X01219Y00764*
X01226Y00756*
X01234Y00749*
X01244Y00745*
X0125Y00744*
Y0078*
G37*
G36*
X0218Y00825D02*
X02117D01*
X0211Y00823*
X02103Y00819*
X02099Y00812*
X02097Y00805*
X02099Y00797*
X02103Y0079*
X0211Y00786*
X02117Y00784*
X0218*
X02188Y00786*
X02195Y0079*
X02199Y00797*
X02201Y00805*
X02199Y00812*
X02195Y00819*
X02188Y00823*
X0218Y00825*
G37*
G36*
X01955Y008D02*
X01907D01*
X01908Y00796*
X01913Y00789*
X0192Y00784*
X01929Y00782*
X01955*
Y008*
G37*
G36*
X02013D02*
X01965D01*
Y00782*
X01992*
X02Y00784*
X02007Y00789*
X02012Y00796*
X02013Y008*
G37*
G36*
X0282Y00942D02*
X02809Y0094D01*
X028Y00936*
X02792Y0093*
X02786Y00922*
X02782Y00913*
X02781Y00903*
X02782Y00893*
X02786Y00884*
X02792Y00876*
X028Y00869*
X02809Y00866*
X0282Y00864*
X02821Y00864*
X02833Y00863*
X02846Y00857*
X02855Y0085*
X02856Y00849*
X02856Y00849*
X02878Y00827*
Y00769*
X02874Y00768*
X02873Y00768*
X02872Y00769*
X02865Y00778*
X0286Y00791*
X02858Y00803*
X02858Y00805*
X02857Y00815*
X02853Y00824*
X02847Y00832*
X02839Y00838*
X0283Y00842*
X0282Y00843*
X02809Y00842*
X028Y00838*
X02792Y00832*
X02786Y00824*
X02782Y00815*
X02781Y00805*
X02782Y00794*
X02786Y00785*
X02792Y00777*
X028Y00771*
X02809Y00767*
X0282Y00766*
X02821Y00766*
X02833Y00764*
X02846Y00759*
X02855Y00752*
X02856Y00751*
X02856Y00751*
X02862Y00745*
Y00721*
X02858Y0072*
X02855Y00727*
X02848Y00735*
X0284Y00741*
X0283Y00746*
X02825Y00746*
Y00706*
Y00666*
X0283Y00667*
X0284Y00671*
X02848Y00677*
X02855Y00686*
X02858Y00692*
X02862Y00691*
Y00646*
X02858*
X02781*
Y00569*
X02858*
X02859*
X02862Y00566*
Y00489*
X0285Y00477*
X02773*
Y00477*
Y00477*
X02773Y00477*
X02769Y00477*
X02765Y0048*
X02765Y0048*
X02758Y00485*
X0275Y00487*
X02741Y00485*
X02734Y0048*
X02729Y00473*
X02727Y00465*
X02729Y00456*
X02734Y00449*
Y00445*
X02729Y00438*
X02727Y00429*
X02729Y00421*
X02734Y00413*
X02741Y00409*
X0275Y00407*
X02758Y00409*
X02765Y00413*
X02765Y00414*
X02769Y00416*
X02773Y00417*
X02773Y00417*
Y00417*
X02841*
X02846Y00418*
X0285Y00421*
X02899Y00469*
X02901Y00473*
X02902Y00478*
Y00832*
X02901Y00837*
X02899Y00841*
X02873Y00866*
X02873Y00866*
X02872Y00867*
X02865Y00877*
X0286Y00889*
X02858Y00902*
X02858Y00903*
X02857Y00913*
X02853Y00922*
X02847Y0093*
X02839Y00936*
X0283Y0094*
X0282Y00942*
G37*
G36*
X02295Y00785D02*
X0227D01*
X02271Y00782*
X02274Y00775*
X02278Y00769*
X02285Y00764*
X02292Y00761*
X02295Y00761*
Y00785*
G37*
G36*
X02329D02*
X02305D01*
Y00761*
X02307Y00761*
X02314Y00764*
X02321Y00769*
X02325Y00775*
X02328Y00782*
X02329Y00785*
G37*
G36*
X0125Y00825D02*
X01244Y00824D01*
X01234Y0082*
X01226Y00813*
X01219Y00805*
X01215Y00795*
X01214Y0079*
X0125*
Y00825*
G37*
G36*
X00483Y00605D02*
X00465D01*
Y00586*
X00469Y00587*
X00477Y00592*
X00482Y006*
X00483Y00605*
G37*
G36*
X00455Y00633D02*
X0045Y00632D01*
X00442Y00627*
X00437Y00619*
X00436Y00615*
X00455*
Y00633*
G37*
G36*
Y00605D02*
X00436D01*
X00437Y006*
X00442Y00592*
X0045Y00587*
X00455Y00586*
Y00605*
G37*
G36*
X01955Y00827D02*
X01929D01*
X0192Y00825*
X01913Y0082*
X01908Y00813*
X01907Y0081*
X01955*
Y00827*
G37*
G36*
X02305Y00819D02*
Y00795D01*
X02329*
X02328Y00798*
X02325Y00805*
X02321Y00811*
X02314Y00816*
X02307Y00819*
X02305Y00819*
G37*
G36*
X02815Y00701D02*
X02779D01*
X0278Y00696*
X02784Y00686*
X02791Y00677*
X02799Y00671*
X02809Y00667*
X02815Y00666*
Y00701*
G37*
G36*
Y00746D02*
X02809Y00746D01*
X02799Y00741*
X02791Y00735*
X02784Y00727*
X0278Y00717*
X02779Y00711*
X02815*
Y00746*
G37*
G36*
X0126Y00825D02*
Y0079D01*
X01295*
X01294Y00795*
X0129Y00805*
X01283Y00813*
X01275Y0082*
X01265Y00824*
X0126Y00825*
G37*
G36*
X00465Y00633D02*
Y00615D01*
X00483*
X00482Y00619*
X00477Y00627*
X00469Y00632*
X00465Y00633*
G37*
G36*
X02295Y00819D02*
X02292Y00819D01*
X02285Y00816*
X02278Y00811*
X02274Y00805*
X02271Y00798*
X0227Y00795*
X02295*
Y00819*
G37*
G36*
X01624Y00178D02*
X01618Y00177D01*
X01609Y00173*
X016Y00166*
X01594Y00158*
X0159Y00148*
X01589Y00142*
X01624*
Y00178*
G37*
G36*
X01634D02*
Y00142D01*
X01669*
X01669Y00148*
X01664Y00158*
X01658Y00166*
X01649Y00173*
X0164Y00177*
X01634Y00178*
G37*
G36*
X02024D02*
X02018Y00177D01*
X02009Y00173*
X02Y00166*
X01994Y00158*
X0199Y00148*
X01989Y00142*
X02024*
Y00178*
G37*
G36*
X01929Y00176D02*
X01919Y00175D01*
X0191Y00171*
X01902Y00165*
X01896Y00157*
X01892Y00147*
X0189Y00137*
X01892Y00127*
X01896Y00118*
X01902Y0011*
X0191Y00104*
X01919Y001*
X01929Y00099*
X01939Y001*
X01948Y00104*
X01956Y0011*
X01963Y00118*
X01966Y00127*
X01968Y00137*
X01966Y00147*
X01963Y00157*
X01956Y00165*
X01948Y00171*
X01939Y00175*
X01929Y00176*
G37*
G36*
X00824Y00178D02*
X00818Y00177D01*
X00809Y00173*
X008Y00166*
X00794Y00158*
X0079Y00148*
X00789Y00142*
X00824*
Y00178*
G37*
G36*
X00834D02*
Y00142D01*
X00869*
X00869Y00148*
X00864Y00158*
X00858Y00166*
X00849Y00173*
X0084Y00177*
X00834Y00178*
G37*
G36*
X02034D02*
Y00142D01*
X02069*
X02069Y00148*
X02064Y00158*
X02058Y00166*
X02049Y00173*
X0204Y00177*
X02034Y00178*
G37*
G36*
X01869Y00232D02*
X01834D01*
Y00197*
X0184Y00198*
X01849Y00202*
X01858Y00208*
X01864Y00217*
X01869Y00227*
X01869Y00232*
G37*
G36*
X00929Y00276D02*
X00919Y00275D01*
X0091Y00271*
X00902Y00265*
X00896Y00257*
X00892Y00247*
X0089Y00237*
X00892Y00227*
X00896Y00218*
X00902Y0021*
X0091Y00204*
X00919Y002*
X00929Y00199*
X00939Y002*
X00948Y00204*
X00956Y0021*
X00963Y00218*
X00966Y00227*
X00968Y00237*
X00966Y00247*
X00963Y00257*
X00956Y00265*
X00948Y00271*
X00939Y00275*
X00929Y00276*
G37*
G36*
X02853Y00234D02*
X02776D01*
Y00215*
X02775Y00214*
X02761Y00208*
X02748Y00207*
X02723*
Y00207*
X02722Y00207*
X02716Y00207*
X02712Y00209*
Y00222*
X02657*
Y00167*
X02712*
Y0018*
X02716Y00182*
X02722Y00182*
X02723Y00182*
Y00182*
X02747*
Y00182*
X02748Y00182*
X02755*
X02766Y00181*
X02776Y00177*
Y00158*
X02853*
Y00234*
G37*
G36*
X00369Y00232D02*
X00334D01*
Y00197*
X0034Y00198*
X00349Y00202*
X00358Y00208*
X00364Y00217*
X00369Y00227*
X00369Y00232*
G37*
G36*
X01024D02*
X00989D01*
X0099Y00227*
X00994Y00217*
X01Y00208*
X01009Y00202*
X01018Y00198*
X01024Y00197*
Y00232*
G37*
G36*
X01824D02*
X01789D01*
X0179Y00227*
X01794Y00217*
X018Y00208*
X01809Y00202*
X01818Y00198*
X01824Y00197*
Y00232*
G37*
G36*
X00869Y00132D02*
X00834D01*
Y00097*
X0084Y00098*
X00849Y00102*
X00858Y00108*
X00864Y00117*
X00869Y00127*
X00869Y00132*
G37*
G36*
X01624D02*
X01589D01*
X0159Y00127*
X01594Y00117*
X016Y00108*
X01609Y00102*
X01618Y00098*
X01624Y00097*
Y00132*
G37*
G36*
X01669D02*
X01634D01*
Y00097*
X0164Y00098*
X01649Y00102*
X01658Y00108*
X01664Y00117*
X01669Y00127*
X01669Y00132*
G37*
G36*
X00624D02*
X00589D01*
X0059Y00127*
X00594Y00117*
X006Y00108*
X00609Y00102*
X00618Y00098*
X00624Y00097*
Y00132*
G37*
G36*
X00669D02*
X00634D01*
Y00097*
X0064Y00098*
X00649Y00102*
X00658Y00108*
X00664Y00117*
X00669Y00127*
X00669Y00132*
G37*
G36*
X00824D02*
X00789D01*
X0079Y00127*
X00794Y00117*
X008Y00108*
X00809Y00102*
X00818Y00098*
X00824Y00097*
Y00132*
G37*
G36*
X02024D02*
X01989D01*
X0199Y00127*
X01994Y00117*
X02Y00108*
X02009Y00102*
X02018Y00098*
X02024Y00097*
Y00132*
G37*
G36*
X01029Y00176D02*
X01019Y00175D01*
X0101Y00171*
X01002Y00165*
X00996Y00157*
X00992Y00147*
X0099Y00137*
X00992Y00127*
X00996Y00118*
X01002Y0011*
X0101Y00104*
X01019Y001*
X01029Y00099*
X01039Y001*
X01048Y00104*
X01056Y0011*
X01063Y00118*
X01066Y00127*
X01068Y00137*
X01066Y00147*
X01063Y00157*
X01056Y00165*
X01048Y00171*
X01039Y00175*
X01029Y00176*
G37*
G36*
X01729D02*
X01719Y00175D01*
X0171Y00171*
X01702Y00165*
X01696Y00157*
X01692Y00147*
X0169Y00137*
X01692Y00127*
X01696Y00118*
X01702Y0011*
X0171Y00104*
X01719Y001*
X01729Y00099*
X01739Y001*
X01748Y00104*
X01756Y0011*
X01763Y00118*
X01766Y00127*
X01768Y00137*
X01766Y00147*
X01763Y00157*
X01756Y00165*
X01748Y00171*
X01739Y00175*
X01729Y00176*
G37*
G36*
X01829D02*
X01819Y00175D01*
X0181Y00171*
X01802Y00165*
X01796Y00157*
X01792Y00147*
X0179Y00137*
X01792Y00127*
X01796Y00118*
X01802Y0011*
X0181Y00104*
X01819Y001*
X01829Y00099*
X01839Y001*
X01848Y00104*
X01856Y0011*
X01863Y00118*
X01866Y00127*
X01868Y00137*
X01866Y00147*
X01863Y00157*
X01856Y00165*
X01848Y00171*
X01839Y00175*
X01829Y00176*
G37*
G36*
X02069Y00132D02*
X02034D01*
Y00097*
X0204Y00098*
X02049Y00102*
X02058Y00108*
X02064Y00117*
X02069Y00127*
X02069Y00132*
G37*
G36*
X00429Y00176D02*
X00419Y00175D01*
X0041Y00171*
X00402Y00165*
X00396Y00157*
X00392Y00147*
X0039Y00137*
X00392Y00127*
X00396Y00118*
X00402Y0011*
X0041Y00104*
X00419Y001*
X00429Y00099*
X00439Y001*
X00448Y00104*
X00456Y0011*
X00463Y00118*
X00466Y00127*
X00468Y00137*
X00466Y00147*
X00463Y00157*
X00456Y00165*
X00448Y00171*
X00439Y00175*
X00429Y00176*
G37*
G36*
X00929D02*
X00919Y00175D01*
X0091Y00171*
X00902Y00165*
X00896Y00157*
X00892Y00147*
X0089Y00137*
X00892Y00127*
X00896Y00118*
X00902Y0011*
X0091Y00104*
X00919Y001*
X00929Y00099*
X00939Y001*
X00948Y00104*
X00956Y0011*
X00963Y00118*
X00966Y00127*
X00968Y00137*
X00966Y00147*
X00963Y00157*
X00956Y00165*
X00948Y00171*
X00939Y00175*
X00929Y00176*
G37*
G36*
X02515Y0043D02*
X02496D01*
X02497Y00425*
X02502Y00417*
X0251Y00412*
X02515Y00411*
Y0043*
G37*
G36*
X02543D02*
X02525D01*
Y00411*
X02529Y00412*
X02537Y00417*
X02542Y00425*
X02543Y0043*
G37*
G36*
X02574Y0046D02*
X0255D01*
X0255Y00457*
X02553Y0045*
X02558Y00443*
X02564Y00439*
X02571Y00436*
X02574Y00435*
Y0046*
G37*
G36*
X0098Y00468D02*
X00969Y00467D01*
X0096Y00463*
X00952Y00457*
X00946Y00449*
X00942Y0044*
X00941Y0043*
X00942Y00419*
X00946Y0041*
X00952Y00402*
X0096Y00396*
X00969Y00392*
X0098Y00391*
X0099Y00392*
X00999Y00396*
X01007Y00402*
X01013Y0041*
X01017Y00419*
X01018Y0043*
X01017Y0044*
X01013Y00449*
X01007Y00457*
X00999Y00463*
X0099Y00467*
X0098Y00468*
G37*
G36*
X02255Y0043D02*
X02231D01*
X02231Y00427*
X02234Y0042*
X02239Y00413*
X02245Y00409*
X02252Y00406*
X02255Y00405*
Y0043*
G37*
G36*
X02289D02*
X02265D01*
Y00405*
X02268Y00406*
X02275Y00409*
X02281Y00413*
X02286Y0042*
X02289Y00427*
X02289Y0043*
G37*
G36*
X02608Y0046D02*
X02584D01*
Y00435*
X02587Y00436*
X02594Y00439*
X026Y00443*
X02605Y0045*
X02608Y00457*
X02608Y0046*
G37*
G36*
X02515Y00458D02*
X0251Y00457D01*
X02502Y00452*
X02497Y00444*
X02496Y0044*
X02515*
Y00458*
G37*
G36*
X02525D02*
Y0044D01*
X02543*
X02542Y00444*
X02537Y00452*
X02529Y00457*
X02525Y00458*
G37*
G36*
X02574Y00494D02*
X02571Y00493D01*
X02564Y0049*
X02558Y00486*
X02553Y00479*
X0255Y00472*
X0255Y0047*
X02574*
Y00494*
G37*
G36*
X02255Y00464D02*
X02252Y00463D01*
X02245Y0046*
X02239Y00456*
X02234Y00449*
X02231Y00442*
X02231Y0044*
X02255*
Y00464*
G37*
G36*
X02265D02*
Y0044D01*
X02289*
X02289Y00442*
X02286Y00449*
X02281Y00456*
X02275Y0046*
X02268Y00463*
X02265Y00464*
G37*
G36*
X0232Y00458D02*
X02315Y00457D01*
X02307Y00452*
X02302Y00444*
X02301Y0044*
X0232*
Y00458*
G37*
G36*
X0281Y00335D02*
X02804Y00334D01*
X02794Y0033*
X02786Y00323*
X02779Y00315*
X02775Y00305*
X02774Y003*
X0281*
Y00335*
G37*
G36*
X0282D02*
Y003D01*
X02855*
X02854Y00305*
X0285Y00315*
X02843Y00323*
X02835Y0033*
X02825Y00334*
X0282Y00335*
G37*
G36*
X00085Y00345D02*
X00066D01*
X00067Y0034*
X00072Y00332*
X0008Y00327*
X00085Y00326*
Y00345*
G37*
G36*
X00334Y00278D02*
Y00242D01*
X00369*
X00369Y00248*
X00364Y00258*
X00358Y00266*
X00349Y00273*
X0034Y00277*
X00334Y00278*
G37*
G36*
X0281Y0029D02*
X02774D01*
X02775Y00284*
X02779Y00274*
X02786Y00266*
X02794Y00259*
X02804Y00255*
X0281Y00254*
Y0029*
G37*
G36*
X02855D02*
X0282D01*
Y00254*
X02825Y00255*
X02835Y00259*
X02843Y00266*
X0285Y00274*
X02854Y00284*
X02855Y0029*
G37*
G36*
X00113Y00345D02*
X00095D01*
Y00326*
X00099Y00327*
X00107Y00332*
X00112Y0034*
X00113Y00345*
G37*
G36*
X0068Y00468D02*
X00669Y00467D01*
X0066Y00463*
X00652Y00457*
X00646Y00449*
X00642Y0044*
X00641Y0043*
X00642Y00419*
X00646Y0041*
X00652Y00402*
X0066Y00396*
X00669Y00392*
X0068Y00391*
X0069Y00392*
X00699Y00396*
X00707Y00402*
X00713Y0041*
X00717Y00419*
X00718Y0043*
X00717Y0044*
X00713Y00449*
X00707Y00457*
X00699Y00463*
X0069Y00467*
X0068Y00468*
G37*
G36*
X0078D02*
X00769Y00467D01*
X0076Y00463*
X00752Y00457*
X00746Y00449*
X00742Y0044*
X00741Y0043*
X00742Y00419*
X00746Y0041*
X00752Y00402*
X0076Y00396*
X00769Y00392*
X0078Y00391*
X0079Y00392*
X00799Y00396*
X00807Y00402*
X00813Y0041*
X00817Y00419*
X00818Y0043*
X00817Y0044*
X00813Y00449*
X00807Y00457*
X00799Y00463*
X0079Y00467*
X0078Y00468*
G37*
G36*
X0088D02*
X00869Y00467D01*
X0086Y00463*
X00852Y00457*
X00846Y00449*
X00842Y0044*
X00841Y0043*
X00842Y00419*
X00846Y0041*
X00852Y00402*
X0086Y00396*
X00869Y00392*
X0088Y00391*
X0089Y00392*
X00899Y00396*
X00907Y00402*
X00913Y0041*
X00917Y00419*
X00918Y0043*
X00917Y0044*
X00913Y00449*
X00907Y00457*
X00899Y00463*
X0089Y00467*
X0088Y00468*
G37*
G36*
X00085Y00373D02*
X0008Y00372D01*
X00072Y00367*
X00067Y00359*
X00066Y00355*
X00085*
Y00373*
G37*
G36*
X00095D02*
Y00355D01*
X00113*
X00112Y00359*
X00107Y00367*
X00099Y00372*
X00095Y00373*
G37*
G36*
X0108Y00468D02*
X01069Y00467D01*
X0106Y00463*
X01052Y00457*
X01046Y00449*
X01042Y0044*
X01041Y0043*
X01041Y00428*
X01039Y00416*
X01034Y00403*
X01027Y00394*
X01026Y00393*
X01026Y00393*
X01015Y00382*
X00768*
Y00382*
Y00382*
X00768Y00382*
X00764Y00382*
X0076Y00385*
X0076Y00385*
X00753Y0039*
X00745Y00392*
X00736Y0039*
X00729Y00385*
X00724Y00378*
X00722Y0037*
X00724Y00361*
X00729Y00354*
X00736Y00349*
X00745Y00347*
X00753Y00349*
X0076Y00354*
X0076Y00354*
X00764Y00357*
X00768Y00357*
X00768Y00357*
Y00357*
X0102*
X01024Y00358*
X01028Y00361*
X01043Y00376*
X01043Y00376*
X01044Y00377*
X01053Y00384*
X01066Y00389*
X01078Y00391*
X0108Y00391*
X0109Y00392*
X01099Y00396*
X01107Y00402*
X01113Y0041*
X01117Y00419*
X01118Y0043*
X01117Y0044*
X01113Y00449*
X01107Y00457*
X01099Y00463*
X0109Y00467*
X0108Y00468*
G37*
G36*
X01193Y0175D02*
X01153D01*
X01154Y01744*
X01159Y01733*
X01166Y01723*
X01175Y01716*
X01186Y01712*
X01193Y01711*
Y0175*
G37*
G36*
X01242D02*
X01203D01*
Y01711*
X01209Y01712*
X0122Y01716*
X01229Y01723*
X01236Y01733*
X01241Y01744*
X01242Y0175*
G37*
G36*
X01326D02*
X01287D01*
X01288Y01744*
X01293Y01733*
X013Y01723*
X01309Y01716*
X0132Y01712*
X01326Y01711*
Y0175*
G37*
G36*
X00812D02*
X00773D01*
Y01711*
X00779Y01712*
X0079Y01716*
X00799Y01723*
X00806Y01733*
X00811Y01744*
X00812Y0175*
G37*
G36*
X00896D02*
X00857D01*
X00858Y01744*
X00863Y01733*
X0087Y01723*
X00879Y01716*
X0089Y01712*
X00896Y01711*
Y0175*
G37*
G36*
X00946D02*
X00906D01*
Y01711*
X00913Y01712*
X00924Y01716*
X00933Y01723*
X0094Y01733*
X00945Y01744*
X00946Y0175*
G37*
G36*
X00461Y01799D02*
X00455Y01798D01*
X00444Y01794*
X00435Y01787*
X00428Y01778*
X00423Y01767*
X00422Y0176*
X00461*
Y01799*
G37*
G36*
X00471D02*
Y0176D01*
X00511*
X0051Y01767*
X00505Y01778*
X00498Y01787*
X00489Y01794*
X00478Y01798*
X00471Y01799*
G37*
G36*
X00763D02*
X00756Y01798D01*
X00745Y01794*
X00736Y01787*
X00729Y01778*
X00724Y01767*
X00723Y0176*
X00763*
Y01799*
G37*
G36*
X01376Y0175D02*
X01336D01*
Y01711*
X01343Y01712*
X01354Y01716*
X01363Y01723*
X0137Y01733*
X01375Y01744*
X01376Y0175*
G37*
G36*
X00328Y01799D02*
X00321Y01798D01*
X0031Y01794*
X00301Y01787*
X00294Y01778*
X00289Y01767*
X00288Y0176*
X00328*
Y01799*
G37*
G36*
X00338D02*
Y0176D01*
X00377*
X00376Y01767*
X00371Y01778*
X00364Y01787*
X00355Y01794*
X00344Y01798*
X00338Y01799*
G37*
G36*
X0284Y01695D02*
X02794D01*
X02795Y01686*
X02801Y01674*
X02809Y01664*
X02819Y01656*
X02831Y0165*
X0284Y01649*
Y01695*
G37*
G36*
X02895D02*
X0285D01*
Y01649*
X02858Y0165*
X0287Y01656*
X0288Y01664*
X02888Y01674*
X02894Y01686*
X02895Y01695*
G37*
G36*
X0284Y0175D02*
X02831Y01749D01*
X02819Y01743*
X02809Y01735*
X02801Y01725*
X02795Y01713*
X02794Y01705*
X0284*
Y0175*
G37*
G36*
X00968Y01652D02*
X00957Y01651D01*
X00947Y01646*
X00938Y0164*
X00931Y01631*
X00927Y01621*
X00926Y0161*
X00927Y01598*
X00931Y01588*
X00937Y0158*
X00938Y01579*
X00938Y01579*
X00938Y01579*
X00938Y01579*
Y01579*
X00939Y01579*
X00943Y01573*
X00944Y01566*
Y01447*
X00943Y01438*
X0094Y0143*
X00873*
Y01351*
X00937*
X00937Y01349*
Y01339*
X0091Y01312*
X0088*
X00871Y0131*
X00864Y01305*
X00808Y01249*
X0078*
Y01274*
X00709*
Y0118*
X0078*
Y01205*
X00817*
X00826Y01207*
X00833Y01212*
X00889Y01267*
X0092*
X00928Y01269*
X00935Y01274*
X00975Y01314*
X0098Y01321*
X00982Y0133*
Y01349*
X00982Y01351*
X01046*
Y0143*
X00992*
Y01566*
X00994Y01573*
X00998Y01579*
X00999Y01579*
X00999Y01579*
X00999Y0158*
X01005Y01588*
X0101Y01598*
X01011Y0161*
X0101Y01621*
X01005Y01631*
X00999Y0164*
X0099Y01646*
X00979Y01651*
X00968Y01652*
G37*
G36*
X01398D02*
X01387Y01651D01*
X01377Y01646*
X01368Y0164*
X01361Y01631*
X01357Y01621*
X01356Y0161*
X01357Y01598*
X01361Y01588*
X01367Y0158*
X01368Y01579*
X01368Y01579*
X01368Y01579*
X01368Y01579*
Y01579*
X01369Y01579*
X01373Y01573*
X01374Y01566*
Y0143*
X01313*
Y01351*
X01377*
X01377Y01349*
Y01339*
X0135Y01312*
X0132*
X01311Y0131*
X01304Y01305*
X01248Y01249*
X0122*
Y01274*
X01149*
Y0118*
X0122*
Y01205*
X01257*
X01266Y01207*
X01273Y01212*
X01329Y01267*
X0136*
X01368Y01269*
X01375Y01274*
X01415Y01314*
X0142Y01321*
X01422Y0133*
Y01349*
X01422Y01351*
X01486*
Y0143*
X01422*
Y01566*
X01424Y01573*
X01428Y01579*
X01429Y01579*
X01429Y01579*
X01429Y0158*
X01435Y01588*
X0144Y01598*
X01441Y0161*
X0144Y01621*
X01435Y01631*
X01429Y0164*
X0142Y01646*
X01409Y01651*
X01398Y01652*
G37*
G36*
X00533D02*
X00522Y01651D01*
X00512Y01646*
X00503Y0164*
X00496Y01631*
X00492Y01621*
X00491Y0161*
X00492Y01598*
X00496Y01588*
X00503Y0158*
X00503Y01579*
X00503Y01579*
X00503Y01579*
X00508Y01574*
X0051Y01567*
X00511Y01561*
Y01464*
X0051Y01453*
X00506Y01441*
X00501Y0143*
X00433*
Y01351*
X00497*
X00497Y01349*
Y01339*
X0047Y01312*
X0044*
X00431Y0131*
X00424Y01305*
X00368Y01249*
X0034*
Y01274*
X00269*
Y0118*
X0034*
Y01205*
X00377*
X00386Y01207*
X00393Y01212*
X00449Y01267*
X0048*
X00488Y01269*
X00495Y01274*
X00535Y01314*
X0054Y01321*
X00542Y0133*
Y01349*
X00542Y01351*
X00606*
Y0143*
X00555*
Y01561*
X00556Y01567*
X00559Y01574*
X00563Y01579*
X00564Y01579*
Y01579*
X00564Y01579*
Y01579*
X00564Y0158*
X00564Y0158*
X0057Y01588*
X00575Y01598*
X00576Y0161*
X00575Y01621*
X0057Y01631*
X00564Y0164*
X00555Y01646*
X00544Y01651*
X00533Y01652*
G37*
G36*
X00461Y0175D02*
X00422D01*
X00423Y01744*
X00428Y01733*
X00435Y01723*
X00444Y01716*
X00455Y01712*
X00461Y01711*
Y0175*
G37*
G36*
X00511D02*
X00471D01*
Y01711*
X00478Y01712*
X00489Y01716*
X00498Y01723*
X00505Y01733*
X0051Y01744*
X00511Y0175*
G37*
G36*
X00763D02*
X00723D01*
X00724Y01744*
X00729Y01733*
X00736Y01723*
X00745Y01716*
X00756Y01712*
X00763Y01711*
Y0175*
G37*
G36*
X0285Y0175D02*
Y01705D01*
X02895*
X02894Y01713*
X02888Y01725*
X0288Y01735*
X0287Y01743*
X02858Y01749*
X0285Y0175*
G37*
G36*
X00328Y0175D02*
X00288D01*
X00289Y01744*
X00294Y01733*
X00301Y01723*
X0031Y01716*
X00321Y01712*
X00328Y01711*
Y0175*
G37*
G36*
X00377D02*
X00338D01*
Y01711*
X00344Y01712*
X00355Y01716*
X00364Y01723*
X00371Y01733*
X00376Y01744*
X00377Y0175*
G37*
G36*
X00773Y01799D02*
Y0176D01*
X00812*
X00811Y01767*
X00806Y01778*
X00799Y01787*
X0079Y01794*
X00779Y01798*
X00773Y01799*
G37*
G36*
X00137Y02223D02*
X00121Y02222D01*
X00104Y02218*
X00089Y02211*
X00075Y02203*
X00062Y02192*
X00051Y02179*
X00042Y02165*
X00036Y02149*
X00032Y02133*
X00031Y02116*
X00032Y021*
X00036Y02083*
X00042Y02068*
X00051Y02054*
X00062Y02041*
X00075Y0203*
X00089Y02021*
X00104Y02015*
X00121Y02011*
X00137Y0201*
X00154Y02011*
X0017Y02015*
X00186Y02021*
X002Y0203*
X00213Y02041*
X00224Y02054*
X00232Y02068*
X00239Y02083*
X00243Y021*
X00244Y02116*
X00243Y02133*
X00239Y02149*
X00232Y02165*
X00224Y02179*
X00213Y02192*
X002Y02203*
X00186Y02211*
X0017Y02218*
X00154Y02222*
X00137Y02223*
G37*
G36*
X02421D02*
X02404Y02222D01*
X02388Y02218*
X02372Y02211*
X02358Y02203*
X02345Y02192*
X02335Y02179*
X02326Y02165*
X02319Y02149*
X02315Y02133*
X02314Y02116*
X02315Y021*
X02319Y02083*
X02326Y02068*
X02335Y02054*
X02345Y02041*
X02358Y0203*
X02372Y02021*
X02388Y02015*
X02404Y02011*
X02421Y0201*
X02437Y02011*
X02454Y02015*
X02469Y02021*
X02483Y0203*
X02496Y02041*
X02507Y02054*
X02516Y02068*
X02522Y02083*
X02526Y021*
X02527Y02116*
X02526Y02133*
X02522Y02149*
X02516Y02165*
X02507Y02179*
X02496Y02192*
X02483Y02203*
X02469Y02211*
X02454Y02218*
X02437Y02222*
X02421Y02223*
G37*
G36*
X02834D02*
X02817Y02222D01*
X02801Y02218*
X02786Y02211*
X02771Y02203*
X02759Y02192*
X02748Y02179*
X02739Y02165*
X02733Y02149*
X02729Y02133*
X02728Y02116*
X02729Y021*
X02733Y02083*
X02739Y02068*
X02748Y02054*
X02759Y02041*
X02771Y0203*
X02786Y02021*
X02801Y02015*
X02817Y02011*
X02834Y0201*
X02851Y02011*
X02867Y02015*
X02883Y02021*
X02897Y0203*
X0291Y02041*
X0292Y02054*
X02929Y02068*
X02936Y02083*
X02939Y021*
X02941Y02116*
X02939Y02133*
X02936Y02149*
X02929Y02165*
X0292Y02179*
X0291Y02192*
X02897Y02203*
X02883Y02211*
X02867Y02218*
X02851Y02222*
X02834Y02223*
G37*
G36*
X00877Y02025D02*
X00838D01*
Y01986*
X00844Y01987*
X00855Y01991*
X00864Y01998*
X00871Y02007*
X00876Y02018*
X00877Y02025*
G37*
G36*
X01258D02*
X01218D01*
X01219Y02018*
X01224Y02007*
X01231Y01998*
X0124Y01991*
X01251Y01987*
X01258Y01986*
Y02025*
G37*
G36*
X01307D02*
X01268D01*
Y01986*
X01274Y01987*
X01285Y01991*
X01294Y01998*
X01301Y02007*
X01306Y02018*
X01307Y02025*
G37*
G36*
X00838Y02074D02*
Y02035D01*
X00877*
X00876Y02041*
X00871Y02052*
X00864Y02062*
X00855Y02069*
X00844Y02073*
X00838Y02074*
G37*
G36*
X01258D02*
X01251Y02073D01*
X0124Y02069*
X01231Y02062*
X01224Y02052*
X01219Y02041*
X01218Y02035*
X01258*
Y02074*
G37*
G36*
X01268D02*
Y02035D01*
X01307*
X01306Y02041*
X01301Y02052*
X01294Y02062*
X01285Y02069*
X01274Y02073*
X01268Y02074*
G37*
G36*
X00393Y02074D02*
X00386Y02073D01*
X00375Y02068*
X00366Y02061*
X00359Y02052*
X00354Y02041*
X00353Y02035*
X00393*
Y02074*
G37*
G36*
X00403D02*
Y02035D01*
X00442*
X00441Y02041*
X00436Y02052*
X00429Y02061*
X0042Y02068*
X00409Y02073*
X00403Y02074*
G37*
G36*
X00828Y02074D02*
X00821Y02073D01*
X0081Y02069*
X00801Y02062*
X00794Y02052*
X00789Y02041*
X00788Y02035*
X00828*
Y02074*
G37*
G36*
X01203Y01799D02*
Y0176D01*
X01242*
X01241Y01767*
X01236Y01778*
X01229Y01787*
X0122Y01794*
X01209Y01798*
X01203Y01799*
G37*
G36*
X01326D02*
X0132Y01798D01*
X01309Y01794*
X013Y01787*
X01293Y01778*
X01288Y01767*
X01287Y0176*
X01326*
Y01799*
G37*
G36*
X01336D02*
Y0176D01*
X01376*
X01375Y01767*
X0137Y01778*
X01363Y01787*
X01354Y01794*
X01343Y01798*
X01336Y01799*
G37*
G36*
X00896D02*
X0089Y01798D01*
X00879Y01794*
X0087Y01787*
X00863Y01778*
X00858Y01767*
X00857Y0176*
X00896*
Y01799*
G37*
G36*
X00906D02*
Y0176D01*
X00946*
X00945Y01767*
X0094Y01778*
X00933Y01787*
X00924Y01794*
X00913Y01798*
X00906Y01799*
G37*
G36*
X01193D02*
X01186Y01798D01*
X01175Y01794*
X01166Y01787*
X01159Y01778*
X01154Y01767*
X01153Y0176*
X01193*
Y01799*
G37*
G36*
X00393Y02025D02*
X00353D01*
X00354Y02018*
X00359Y02007*
X00366Y01998*
X00375Y01991*
X00386Y01986*
X00393Y01985*
Y02025*
G37*
G36*
X00442D02*
X00403D01*
Y01985*
X00409Y01986*
X0042Y01991*
X00429Y01998*
X00436Y02007*
X00441Y02018*
X00442Y02025*
G37*
G36*
X00828Y02025D02*
X00788D01*
X00789Y02018*
X00794Y02007*
X00801Y01998*
X0081Y01991*
X00821Y01987*
X00828Y01986*
Y02025*
G37*
G36*
X01962Y02127D02*
X01952Y02126D01*
X0195Y02125*
X01915*
Y02054*
X01924*
Y02007*
X01908Y01991*
X01902Y01983*
X01898Y01974*
X01897Y01965*
Y01902*
X01864*
X01858Y01907*
X01847Y01911*
X01834Y01913*
X01821Y01911*
X0181Y01907*
X018Y01899*
X01792Y01889*
X01787Y01877*
X01785Y01865*
X01787Y01852*
X01792Y0184*
X018Y0183*
X0181Y01822*
X01821Y01818*
X01834Y01816*
X01847Y01818*
X01858Y01822*
X01864Y01827*
X02001*
X02006Y01822*
X02018Y01818*
X02031Y01816*
X02043Y01818*
X02055Y01822*
X02065Y0183*
X02073Y0184*
X02078Y01852*
X02079Y01865*
X02078Y01877*
X02073Y01889*
X02065Y01899*
X02055Y01907*
X02043Y01911*
X02031Y01913*
X02018Y01911*
X02006Y01907*
X02001Y01902*
X01972*
Y01949*
X01989Y01965*
X01995Y01973*
X01998Y01982*
X02Y01992*
Y02054*
X02009*
Y02125*
X01974*
X01972Y02126*
X01962Y02127*
G37*
G36*
X02893Y01948D02*
X02796D01*
Y01937*
X0276*
X0275Y01936*
X02741Y01932*
X02733Y01926*
X02709Y01902*
X02651*
X02646Y01907*
X02634Y01911*
X02621Y01913*
X02609Y01911*
X02597Y01907*
X02591Y01902*
X02455*
X02449Y01907*
X02437Y01911*
X02425Y01913*
X02412Y01911*
X024Y01907*
X0239Y01899*
X02382Y01889*
X02378Y01877*
X02376Y01865*
X02378Y01852*
X02382Y0184*
X0239Y0183*
X024Y01822*
X02412Y01818*
X02425Y01816*
X02437Y01818*
X02449Y01822*
X02455Y01827*
X02591*
X02597Y01822*
X02609Y01818*
X02621Y01816*
X02634Y01818*
X02646Y01822*
X02651Y01827*
X02725*
X02734Y01828*
X02743Y01832*
X02751Y01838*
X02775Y01862*
X02796*
Y01851*
X02893*
Y01948*
G37*
G36*
X01605Y02187D02*
X00565D01*
X00555Y02186*
X00546Y02182*
X00538Y02176*
X00532Y02168*
X00528Y02159*
X00527Y0215*
X00528Y0214*
X00532Y02131*
X00536Y02125*
X00536Y02119*
X00532Y02103*
X00525Y02087*
X00516Y02073*
X00516Y02072*
X00493*
Y01987*
X00516*
X00516Y01986*
X00525Y01972*
X00532Y01956*
X00536Y0194*
X00537Y01924*
Y01889*
X00538Y01882*
X00541Y01875*
X00545Y01869*
X00572Y01842*
Y01797*
X00558*
Y01713*
X00643*
Y01797*
X00628*
Y01854*
X00627Y01861*
X00624Y01868*
X0062Y01873*
X00593Y01901*
Y01923*
X00593*
X00593Y01924*
Y02112*
X00965*
X00968Y02108*
X00967Y02103*
X0096Y02087*
X00951Y02073*
X00951Y02072*
X00928*
Y01987*
X00951*
X00951Y01987*
X0096Y01972*
X00967Y01956*
X00971Y0194*
X00972Y01924*
Y01889*
X00973Y01882*
X00976Y01875*
X0098Y01869*
X01007Y01842*
Y01797*
X00993*
Y01713*
X01078*
Y01797*
X01063*
Y01854*
X01062Y01861*
X01059Y01868*
X01055Y01873*
X01028Y01901*
Y01923*
X01028*
X01028Y01925*
Y02112*
X01395*
X01398Y02108*
X01397Y02103*
X0139Y02087*
X01381Y02073*
X01381Y02072*
X01358*
Y01987*
X01381*
X01381Y01987*
X0139Y01972*
X01397Y01956*
X01401Y0194*
X01402Y01924*
Y01889*
X01403Y01882*
X01406Y01875*
X0141Y01869*
X01437Y01842*
Y01797*
X01423*
Y01713*
X01508*
Y01797*
X01493*
Y01854*
X01492Y01861*
X01489Y01868*
X01485Y01873*
X01458Y01901*
Y01923*
X01458*
X01458Y01925*
Y02112*
X01561*
X01562Y02073*
Y0171*
Y01245*
X01563Y01237*
X01565Y01231*
X0157Y01225*
X01576Y0122*
X01582Y01218*
X0159Y01217*
X01597Y01218*
X01603Y0122*
X01609Y01225*
X01614Y01231*
X01616Y01237*
X01617Y01245*
Y01682*
X01687*
X01687Y01681*
X01688Y0166*
Y01654*
X01688*
X01688Y01654*
Y01653*
X01687Y01644*
X01685Y01638*
X01666*
Y01561*
X01743*
Y01638*
X01724*
X01722Y01644*
X01721Y01653*
Y01654*
X01721Y01654*
X01721*
Y01662*
X01721Y01671*
X01722Y01681*
X01722Y01684*
X01723Y01685*
X01928*
X01928Y01672*
Y01653*
X01928*
X01928Y01652*
Y01652*
X01927Y01643*
X01925Y01636*
X01906*
Y0156*
X01983*
Y01636*
X01964*
X01962Y01643*
X01961Y01652*
Y01652*
X01961Y01653*
X01961*
Y01674*
X01961Y01684*
X01962Y0169*
X01962Y01692*
X01982Y01693*
X02168*
Y01654*
X02168*
X02168Y01654*
Y01653*
X02167Y01644*
X02165Y01638*
X02146*
Y01561*
X02223*
Y01638*
X02204*
X02202Y01644*
X02201Y01653*
Y01654*
X02201Y01654*
X02201*
Y0171*
X02199Y01716*
X02196Y01721*
X02191Y01724*
X02185Y01726*
X0198*
X0197Y01726*
X01964Y01727*
X01962Y01727*
X01961Y01727*
X01954Y01732*
X01945Y01734*
X01718*
X01712Y01736*
X01705Y01737*
X01617*
Y02077*
X01622Y02079*
X01638Y02063*
X01646Y02057*
X01655Y02053*
X01663Y02052*
X01666Y02048*
X01665Y02045*
X01658Y02037*
X01658Y02036*
X01652Y02028*
X01648Y02019*
X01647Y0201*
X01648Y02*
X01652Y01991*
X01658Y01983*
X01666Y01977*
X01675Y01973*
X01685Y01972*
X01694Y01973*
X01703Y01977*
X01711Y01983*
X01717Y01991*
X01721Y02*
X01722Y0201*
X01721Y02019*
X01717Y02028*
X01711Y02036*
X01711Y02037*
X01704Y02045*
X01703Y02048*
X01706Y02052*
X01807*
X01817Y02053*
X01819Y02054*
X01854*
Y02125*
X01819*
X01817Y02126*
X01807Y02127*
X0168*
X01631Y02176*
X01623Y02182*
X01614Y02186*
X01605Y02187*
G37*
G36*
X01265Y01652D02*
X01253Y01651D01*
X01243Y01646*
X01234Y0164*
X01228Y01631*
X01223Y01621*
X01222Y0161*
X01223Y01598*
X01228Y01588*
X01234Y01579*
X01243Y01573*
X01253Y01568*
X01265Y01567*
X01276Y01568*
X01286Y01573*
X01295Y01579*
X01301Y01588*
X01306Y01598*
X01307Y0161*
X01306Y01621*
X01301Y01631*
X01295Y0164*
X01286Y01646*
X01276Y01651*
X01265Y01652*
G37*
G36*
X02933Y01103D02*
X02856D01*
Y01026*
X02933*
Y01103*
G37*
G36*
X0185Y01077D02*
X01841Y01075D01*
X01834Y0107*
X01829Y01063*
X01827Y01055*
X01829Y01046*
X01834Y01039*
X01841Y01034*
X0185Y01032*
X01858Y01034*
X01865Y01039*
X01865Y01039*
X01869Y01042*
X01873Y01042*
X01873Y01042*
Y01042*
X0191*
Y01042*
Y01042*
X01912Y01042*
X01914Y0104*
X01914Y0104*
X01921Y01036*
X01929Y01034*
X01992*
X01999Y01036*
X02006Y0104*
X0201Y01047*
X02012Y01055*
X0201Y01062*
X02006Y01069*
X01999Y01073*
X01992Y01075*
X01929*
X01921Y01073*
X01914Y01069*
X01914Y01069*
X01912Y01067*
X0191Y01067*
Y01067*
X01873*
Y01067*
Y01067*
X01873Y01067*
X01869Y01067*
X01865Y0107*
X01865Y0107*
X01858Y01075*
X0185Y01077*
G37*
G36*
X0218Y01075D02*
X02117D01*
X0211Y01073*
X02103Y01069*
X02099Y01062*
X02097Y01055*
X02099Y01047*
X02103Y0104*
X0211Y01036*
X02117Y01034*
X0218*
X02188Y01036*
X02195Y0104*
X02199Y01047*
X02201Y01055*
X02199Y01062*
X02195Y01069*
X02188Y01073*
X0218Y01075*
G37*
G36*
X0224Y01029D02*
X02215D01*
X02216Y01026*
X02219Y01019*
X02223Y01013*
X0223Y01008*
X02237Y01005*
X0224Y01005*
Y01029*
G37*
G36*
X02274D02*
X0225D01*
Y01005*
X02252Y01005*
X02259Y01008*
X02266Y01013*
X0227Y01019*
X02273Y01026*
X02274Y01029*
G37*
G36*
X02795Y01103D02*
X02784Y01102D01*
X02775Y01098*
X02767Y01092*
X02761Y01084*
X02757Y01075*
X02756Y01065*
X02757Y01054*
X02761Y01045*
X02767Y01037*
X02775Y01031*
X02784Y01027*
X02795Y01026*
X02805Y01027*
X02814Y01031*
X02822Y01037*
X02828Y01045*
X02832Y01054*
X02833Y01065*
X02832Y01075*
X02828Y01084*
X02822Y01092*
X02814Y01098*
X02805Y01102*
X02795Y01103*
G37*
G36*
X02855Y01266D02*
X0282D01*
Y01231*
X02855*
Y01266*
G37*
G36*
X0281Y01312D02*
X02774D01*
Y01276*
X0281*
Y01312*
G37*
G36*
X02855D02*
X0282D01*
Y01276*
X02855*
Y01312*
G37*
G36*
X0224Y01063D02*
X02237Y01063D01*
X0223Y0106*
X02223Y01055*
X02219Y01049*
X02216Y01042*
X02215Y01039*
X0224*
Y01063*
G37*
G36*
X0225D02*
Y01039D01*
X02274*
X02273Y01042*
X0227Y01049*
X02266Y01055*
X02259Y0106*
X02252Y01063*
X0225Y01063*
G37*
G36*
X0281Y01266D02*
X02774D01*
Y01231*
X0281*
Y01266*
G37*
G36*
X0218Y01025D02*
X02117D01*
X0211Y01023*
X02103Y01019*
X02099Y01012*
X02097Y01005*
X02099Y00997*
X02103Y0099*
X0211Y00986*
X02117Y00984*
X0218*
X02188Y00986*
X02195Y0099*
X02199Y00997*
X02201Y01005*
X02199Y01012*
X02195Y01019*
X02188Y01023*
X0218Y01025*
G37*
G36*
X01135Y00935D02*
X011D01*
X01101Y00929*
X01105Y0092*
X01111Y00911*
X0112Y00905*
X01129Y00901*
X01135Y009*
Y00935*
G37*
G36*
X01179D02*
X01145D01*
Y009*
X0115Y00901*
X01159Y00905*
X01168Y00911*
X01174Y0092*
X01178Y00929*
X01179Y00935*
G37*
G36*
X0224Y0095D02*
X02221D01*
X02222Y00945*
X02227Y00937*
X02235Y00932*
X0224Y00931*
Y0095*
G37*
G36*
X0218Y00875D02*
X02117D01*
X0211Y00873*
X02103Y00869*
X02099Y00862*
X02097Y00855*
X02099Y00847*
X02103Y0084*
X0211Y00836*
X02117Y00834*
X0218*
X02188Y00836*
X02195Y0084*
X02199Y00847*
X02201Y00855*
X02199Y00862*
X02195Y00869*
X02188Y00873*
X0218Y00875*
G37*
G36*
X01335Y00877D02*
X01326Y00875D01*
X01319Y0087*
X01319Y0087*
X01315Y00867*
X01311Y00867*
X01311Y00867*
Y00867*
Y00867*
X00903*
Y00867*
Y00867*
X00903Y00867*
X00899Y00867*
X00895Y0087*
X00895Y0087*
X00888Y00875*
X0088Y00877*
X00871Y00875*
X00864Y0087*
X00859Y00863*
X00857Y00855*
X00859Y00846*
X00864Y00839*
X00871Y00834*
X0088Y00832*
X00888Y00834*
X00895Y00839*
X00895Y00839*
X00899Y00842*
X00903Y00842*
X00903Y00842*
Y00842*
X01311*
Y00842*
Y00842*
X01311Y00842*
X01315Y00842*
X01319Y00839*
X01319Y00839*
X01326Y00834*
X01335Y00832*
X01343Y00834*
X0135Y00839*
X01355Y00846*
X01357Y00855*
X01355Y00863*
X0135Y0087*
X01343Y00875*
X01335Y00877*
G37*
G36*
X0218Y00925D02*
X02117D01*
X0211Y00923*
X02103Y00919*
X02099Y00912*
X02097Y00905*
X02099Y00897*
X02103Y0089*
X0211Y00886*
X02117Y00884*
X0218*
X02188Y00886*
X02195Y0089*
X02199Y00897*
X02201Y00905*
X02199Y00912*
X02195Y00919*
X02188Y00923*
X0218Y00925*
G37*
G36*
X01145Y00979D02*
Y00945D01*
X01179*
X01178Y0095*
X01174Y00959*
X01168Y00968*
X01159Y00974*
X0115Y00978*
X01145Y00979*
G37*
G36*
X0224Y00978D02*
X02235Y00977D01*
X02227Y00972*
X02222Y00964*
X02221Y0096*
X0224*
Y00978*
G37*
G36*
X0225D02*
Y0096D01*
X02268*
X02267Y00964*
X02262Y00972*
X02254Y00977*
X0225Y00978*
G37*
G36*
X02268Y0095D02*
X0225D01*
Y00931*
X02254Y00932*
X02262Y00937*
X02267Y00945*
X02268Y0095*
G37*
G36*
X0218Y00975D02*
X02117D01*
X0211Y00973*
X02103Y00969*
X02099Y00962*
X02097Y00955*
X02099Y00947*
X02103Y0094*
X0211Y00936*
X02117Y00934*
X0218*
X02188Y00936*
X02195Y0094*
X02199Y00947*
X02201Y00955*
X02199Y00962*
X02195Y00969*
X02188Y00973*
X0218Y00975*
G37*
G36*
X01135Y00979D02*
X01129Y00978D01*
X0112Y00974*
X01111Y00968*
X01105Y00959*
X01101Y0095*
X011Y00945*
X01135*
Y00979*
G37*
G36*
X02555Y01307D02*
X02524D01*
Y01276*
X02555*
Y01307*
G37*
G36*
X01222Y01431D02*
X0119D01*
Y01387*
X01222*
Y01431*
G37*
G36*
X02815Y01507D02*
X02804Y01505D01*
X02795Y01501*
X02787Y01495*
X02781Y01487*
X02777Y01478*
X02776Y01468*
X02777Y01458*
X02781Y01449*
X02787Y01441*
X02795Y01434*
X02804Y01431*
X02815Y01429*
X02825Y01431*
X02834Y01434*
X02842Y01441*
X02848Y01449*
X02852Y01458*
X02853Y01468*
X02852Y01478*
X02848Y01487*
X02842Y01495*
X02834Y01501*
X02825Y01505*
X02815Y01507*
G37*
G36*
X0118Y01431D02*
X01147D01*
Y01387*
X0118*
Y01431*
G37*
G36*
X0074D02*
X00707D01*
Y01387*
X0074*
Y01431*
G37*
G36*
X00782D02*
X0075D01*
Y01387*
X00782*
Y01431*
G37*
G36*
X0256Y01503D02*
X02551Y01502D01*
X02543Y01499*
X02536Y01493*
X0253Y01486*
X02527Y01478*
X02526Y0147*
X02527Y01461*
X0253Y01453*
X02536Y01446*
X02543Y0144*
X02551Y01437*
X0256Y01436*
X02568Y01437*
X02576Y0144*
X02583Y01446*
X02589Y01453*
X02592Y01461*
X02593Y0147*
X02592Y01478*
X02589Y01486*
X02583Y01493*
X02576Y01499*
X02568Y01502*
X0256Y01503*
G37*
G36*
X004Y01652D02*
X00388Y01651D01*
X00378Y01646*
X00369Y0164*
X00363Y01631*
X00358Y01621*
X00357Y0161*
X00358Y01598*
X00363Y01588*
X00369Y01579*
X00378Y01573*
X00388Y01568*
X004Y01567*
X00411Y01568*
X00421Y01573*
X0043Y01579*
X00436Y01588*
X00441Y01598*
X00442Y0161*
X00441Y01621*
X00436Y01631*
X0043Y0164*
X00421Y01646*
X00411Y01651*
X004Y01652*
G37*
G36*
X00835D02*
X00823Y01651D01*
X00813Y01646*
X00804Y0164*
X00798Y01631*
X00793Y01621*
X00792Y0161*
X00793Y01598*
X00798Y01588*
X00804Y01579*
X00813Y01573*
X00823Y01568*
X00835Y01567*
X00846Y01568*
X00856Y01573*
X00865Y01579*
X00871Y01588*
X00876Y01598*
X00877Y0161*
X00876Y01621*
X00871Y01631*
X00865Y0164*
X00856Y01646*
X00846Y01651*
X00835Y01652*
G37*
G36*
X02185Y0154D02*
X02174Y01538D01*
X02165Y01535*
X02157Y01528*
X02151Y0152*
X02147Y01511*
X02146Y01501*
X02147Y01491*
X02151Y01482*
X02157Y01474*
X02165Y01468*
X02174Y01464*
X02185Y01462*
X02195Y01464*
X02204Y01468*
X02212Y01474*
X02218Y01482*
X02222Y01491*
X02223Y01501*
X02222Y01511*
X02218Y0152*
X02212Y01528*
X02204Y01535*
X02195Y01538*
X02185Y0154*
G37*
G36*
X01945Y01538D02*
X01934Y01537D01*
X01925Y01533*
X01917Y01527*
X01911Y01519*
X01907Y0151*
X01906Y015*
X01907Y01489*
X01911Y0148*
X01917Y01472*
X01925Y01466*
X01934Y01462*
X01945Y01461*
X01955Y01462*
X01964Y01466*
X01972Y01472*
X01978Y0148*
X01982Y01489*
X01983Y015*
X01982Y0151*
X01978Y01519*
X01972Y01527*
X01964Y01533*
X01955Y01537*
X01945Y01538*
G37*
G36*
X01705Y0154D02*
X01694Y01538D01*
X01685Y01535*
X01677Y01528*
X01671Y0152*
X01667Y01511*
X01666Y01501*
X01667Y01491*
X01671Y01482*
X01677Y01474*
X01685Y01468*
X01694Y01464*
X01705Y01462*
X01715Y01464*
X01724Y01468*
X01732Y01474*
X01738Y01482*
X01742Y01491*
X01743Y01501*
X01742Y01511*
X01738Y0152*
X01732Y01528*
X01724Y01535*
X01715Y01538*
X01705Y0154*
G37*
G36*
X00342Y01431D02*
X0031D01*
Y01387*
X00342*
Y01431*
G37*
G36*
Y01377D02*
X0031D01*
Y01332*
X00342*
Y01377*
G37*
G36*
X02595Y01307D02*
X02565D01*
Y01276*
X02595*
Y01307*
G37*
G36*
X003Y01377D02*
X00267D01*
Y01332*
X003*
Y01377*
G37*
G36*
X02555Y01348D02*
X02524D01*
Y01317*
X02555*
Y01348*
G37*
G36*
X02595D02*
X02565D01*
Y01317*
X02595*
Y01348*
G37*
G36*
X0074Y01377D02*
X00707D01*
Y01332*
X0074*
Y01377*
G37*
G36*
X01222D02*
X0119D01*
Y01332*
X01222*
Y01377*
G37*
G36*
X0256Y01425D02*
X02551Y01423D01*
X02543Y0142*
X02541Y01419*
X02396*
X02389Y01418*
X02382Y01415*
X02376Y0141*
X02365Y01399*
X01856*
X01849Y01398*
X01842Y01395*
X01836Y01391*
X01612Y01166*
X01486*
Y01178*
X01313*
Y01159*
X01309Y01158*
X01301Y01157*
X01236*
X01233Y01159*
X01225Y01161*
X01216Y01159*
X01209Y01154*
X01204Y01147*
X01202Y01139*
X01204Y0113*
X01209Y01123*
X01216Y01118*
X01225Y01116*
X01233Y01118*
X01236Y0112*
X01301*
X01309Y01119*
X01313Y01118*
Y01099*
X01486*
Y01111*
X01624*
X01631Y01112*
X01637Y01114*
X01643Y01119*
X01868Y01343*
X02376*
X02383Y01344*
X0239Y01347*
X02396Y01351*
X02407Y01363*
X02541*
X02543Y01362*
X02551Y01358*
X0256Y01357*
X02568Y01358*
X02576Y01362*
X02583Y01367*
X02589Y01374*
X02592Y01382*
X02593Y01391*
X02592Y014*
X02589Y01408*
X02583Y01415*
X02576Y0142*
X02568Y01423*
X0256Y01425*
G37*
G36*
X003Y01431D02*
X00267D01*
Y01387*
X003*
Y01431*
G37*
G36*
X00782Y01377D02*
X0075D01*
Y01332*
X00782*
Y01377*
G37*
G36*
X0118D02*
X01147D01*
Y01332*
X0118*
Y01377*
G37*
%LNrpiadapterpcb-3*%
%LPD*%
G36*
X0161Y02128D02*
X0161Y02126D01*
X0161Y02118*
X01609Y02068*
X0157*
X01569Y02129*
X0161*
X0161Y02128*
G37*
G36*
X01957Y0172D02*
X01958Y01719D01*
X0196Y01719*
X01963Y01719*
X01969Y01718*
X01984Y01717*
X0199Y01717*
Y01702*
X01984Y01702*
X0196Y017*
X01958Y017*
X01957Y01699*
X01956Y01698*
X01955Y01697*
X01954Y01696*
X01954Y01694*
X01954Y01691*
X01953Y01685*
X01952Y0167*
X01952Y01664*
X01937*
X01937Y0167*
X01935Y01694*
X01935Y01696*
X01934Y01697*
X01933Y01698*
X01956*
Y01721*
X01957Y0172*
G37*
G36*
X01715Y01697D02*
X01714Y01696D01*
X01714Y01696*
X01718*
X01717Y01694*
X01716Y01692*
X01715Y01689*
X01715Y01686*
X01714Y01682*
X01713Y01672*
X01712Y01659*
X01712Y01652*
X01697*
X01697Y01659*
X01695Y01682*
X01694Y01686*
X01694Y01689*
X01693Y01692*
X01692Y01694*
X01691Y01696*
X01695*
X01695Y01696*
X01694Y01697*
X01693Y01698*
X01716*
X01715Y01697*
G37*
G54D10*
X01328Y00848D02*
D01*
X01326Y00849*
X01325Y0085*
X01324Y00851*
X01322Y00852*
X01321Y00852*
X01319Y00853*
X01318Y00853*
X01316Y00854*
X01314Y00854*
X01313Y00854*
X01311Y00854*
X01311Y00855*
D01*
X01312Y00855*
X01314Y00855*
X01316Y00855*
X01317Y00855*
X01319Y00856*
X0132Y00857*
X01322Y00857*
X01323Y00858*
X01325Y00859*
X01326Y0086*
X01327Y00861*
X01328Y00861*
X00886D02*
D01*
X00888Y0086*
X00889Y00859*
X0089Y00858*
X00892Y00857*
X00893Y00857*
X00895Y00856*
X00896Y00856*
X00898Y00855*
X009Y00855*
X00901Y00855*
X00903Y00855*
X00903Y00855*
D01*
X00902Y00854*
X009Y00854*
X00898Y00854*
X00897Y00854*
X00895Y00853*
X00894Y00852*
X00892Y00852*
X00891Y00851*
X00889Y0085*
X00888Y00849*
X00887Y00848*
X00886Y00848*
X01482Y00857D02*
D01*
X01483Y00856*
X01485Y00855*
X01486Y00854*
X01487Y00853*
X01489Y00852*
X0149Y00852*
X01492Y00851*
X01494Y00851*
X01495Y00851*
X01497Y0085*
X01499Y0085*
X01499Y0085*
D01*
X01497Y0085*
X01496Y0085*
X01494Y0085*
X01492Y00849*
X01491Y00849*
X01489Y00848*
X01488Y00847*
X01486Y00847*
X01485Y00846*
X01484Y00845*
X01483Y00844*
X01482Y00843*
X01485Y00819D02*
D01*
X01486Y00819*
X01488Y0082*
X01489Y0082*
X01491Y0082*
X01493Y00821*
X01494Y00821*
X01496Y00822*
X01497Y00823*
X01498Y00824*
X015Y00825*
X01501Y00826*
X01501Y00826*
D01*
X015Y00825*
X01499Y00824*
X01498Y00822*
X01497Y00821*
X01497Y0082*
X01496Y00818*
X01495Y00816*
X01495Y00815*
X01495Y00813*
X01494Y00812*
X01494Y0081*
X01494Y0081*
X01848Y00808D02*
D01*
X01846Y00809*
X01845Y0081*
X01844Y00811*
X01842Y00812*
X01841Y00812*
X01839Y00813*
X01838Y00813*
X01836Y00814*
X01834Y00814*
X01833Y00814*
X01831Y00814*
X01831Y00815*
D01*
X01832Y00815*
X01834Y00815*
X01836Y00815*
X01837Y00815*
X01839Y00816*
X0184Y00817*
X01842Y00817*
X01843Y00818*
X01845Y00819*
X01846Y0082*
X01847Y00821*
X01848Y00821*
Y00768D02*
D01*
X01846Y00769*
X01845Y0077*
X01844Y00771*
X01842Y00772*
X01841Y00772*
X01839Y00773*
X01838Y00773*
X01836Y00774*
X01834Y00774*
X01833Y00774*
X01831Y00774*
X01831Y00775*
D01*
X01832Y00775*
X01834Y00775*
X01836Y00775*
X01837Y00775*
X01839Y00776*
X0184Y00777*
X01842Y00777*
X01843Y00778*
X01845Y00779*
X01846Y0078*
X01847Y00781*
X01848Y00781*
X01641Y00806D02*
D01*
X01643Y00805*
X01644Y00804*
X01645Y00803*
X01647Y00802*
X01648Y00802*
X0165Y00801*
X01651Y00801*
X01653Y008*
X01655Y008*
X01656Y008*
X01658Y008*
X01658Y008*
D01*
X01657Y00799*
X01655Y00799*
X01653Y00799*
X01652Y00799*
X0165Y00798*
X01649Y00797*
X01647Y00797*
X01646Y00796*
X01644Y00795*
X01643Y00794*
X01642Y00793*
X01641Y00793*
X01616Y00776D02*
D01*
X01618Y00775*
X01619Y00774*
X0162Y00773*
X01622Y00772*
X01623Y00772*
X01625Y00771*
X01626Y00771*
X01628Y0077*
X0163Y0077*
X01631Y0077*
X01633Y0077*
X01633Y0077*
D01*
X01632Y00769*
X0163Y00769*
X01628Y00769*
X01627Y00769*
X01625Y00768*
X01624Y00767*
X01622Y00767*
X01621Y00766*
X01619Y00765*
X01618Y00764*
X01617Y00763*
X01616Y00763*
X02008Y00738D02*
D01*
X02006Y00739*
X02005Y0074*
X02004Y00741*
X02002Y00742*
X02001Y00742*
X01999Y00743*
X01998Y00743*
X01996Y00744*
X01994Y00744*
X01993Y00744*
X01991Y00744*
X01991Y00745*
D01*
X01992Y00745*
X01994Y00745*
X01996Y00745*
X01997Y00745*
X01999Y00746*
X02Y00747*
X02002Y00747*
X02003Y00748*
X02005Y00749*
X02006Y0075*
X02007Y00751*
X02008Y00751*
X02043Y00811D02*
D01*
X02044Y00813*
X02045Y00814*
X02046Y00815*
X02047Y00817*
X02047Y00818*
X02048Y0082*
X02048Y00821*
X02049Y00823*
X02049Y00825*
X02049Y00826*
X02049Y00828*
X0205Y00828*
D01*
X0205Y00827*
X0205Y00825*
X0205Y00823*
X0205Y00822*
X02051Y0082*
X02052Y00819*
X02052Y00817*
X02053Y00816*
X02054Y00814*
X02055Y00813*
X02056Y00812*
X02056Y00811*
X02386Y00571D02*
D01*
X02386Y00572*
X02386Y00574*
X02385Y00575*
X02385Y00577*
X02385Y00579*
X02384Y0058*
X02384Y00581*
X02383Y00583*
X02382Y00584*
X02381Y00586*
X0238Y00587*
X02379Y00588*
X02385Y00582D02*
D01*
X02386Y00581*
X02386Y00581*
X02387Y0058*
X02388Y0058*
X02389Y00579*
X02389Y00579*
X0239Y00579*
X02391Y00578*
X02392Y00578*
X02393Y00578*
X02393Y00578*
X02394Y00578*
X02381Y00575D02*
D01*
X02382Y00574*
X02383Y00573*
X02384Y00573*
X02385Y00572*
X02386Y00572*
X02387Y00571*
X02388Y00571*
X02389Y00571*
X0239Y0057*
X02391Y0057*
X02392Y0057*
X02393Y0057*
X02393Y0057*
X02369Y00587D02*
D01*
X02371Y00585*
X02373Y00584*
X02374Y00583*
X02376Y00582*
X02378Y00581*
X0238Y0058*
X02382Y00579*
X02384Y00579*
X02386Y00578*
X02388Y00578*
X0239Y00578*
X02392Y00578*
X02393Y00578*
X02394Y00606D02*
D01*
X02393Y00606*
X02392Y00606*
X02391Y00605*
X0239Y00605*
X0239Y00605*
X02389Y00605*
X02388Y00604*
X02387Y00604*
X02387Y00603*
X02386Y00603*
X02385Y00602*
X02385Y00602*
X02379Y00596D02*
D01*
X0238Y00597*
X02381Y00598*
X02382Y006*
X02383Y00601*
X02384Y00602*
X02384Y00604*
X02385Y00605*
X02385Y00607*
X02385Y00608*
X02386Y0061*
X02386Y00612*
X02386Y00613*
X02393Y00614D02*
D01*
X02392Y00614*
X02391Y00614*
X0239Y00613*
X02389Y00613*
X02388Y00613*
X02387Y00613*
X02386Y00612*
X02385Y00612*
X02384Y00611*
X02383Y00611*
X02382Y0061*
X02382Y00609*
X02381Y00609*
X02393Y00606D02*
D01*
X02391Y00606*
X02389Y00606*
X02387Y00605*
X02385Y00605*
X02383Y00605*
X02381Y00604*
X02379Y00603*
X02377Y00602*
X02375Y00601*
X02373Y006*
X02372Y00599*
X0237Y00597*
X02369Y00597*
X00536Y00618D02*
D01*
X00535Y00617*
X00534Y00616*
X00533Y00614*
X00532Y00613*
X00531Y00611*
X00531Y0061*
X0053Y00608*
X0053Y00607*
X00529Y00605*
X00529Y00603*
X00529Y00602*
X00529Y00601*
D01*
X00529Y00603*
X00529Y00605*
X00529Y00606*
X00528Y00608*
X00528Y00609*
X00527Y00611*
X00526Y00612*
X00525Y00614*
X00524Y00615*
X00523Y00616*
X00522Y00618*
X00522Y00618*
X00231Y00431D02*
D01*
X00233Y0043*
X00234Y00429*
X00235Y00428*
X00237Y00427*
X00238Y00427*
X0024Y00426*
X00241Y00426*
X00243Y00425*
X00245Y00425*
X00246Y00425*
X00248Y00425*
X00248Y00425*
D01*
X00247Y00424*
X00245Y00424*
X00243Y00424*
X00242Y00424*
X0024Y00423*
X00239Y00422*
X00237Y00422*
X00236Y00421*
X00234Y0042*
X00233Y00419*
X00232Y00418*
X00231Y00418*
X00366Y00513D02*
D01*
X00365Y00511*
X00364Y0051*
X00363Y00509*
X00362Y00507*
X00362Y00506*
X00361Y00504*
X00361Y00503*
X0036Y00501*
X0036Y00499*
X0036Y00498*
X0036Y00496*
X0036Y00496*
D01*
X00359Y00497*
X00359Y00499*
X00359Y00501*
X00359Y00502*
X00358Y00504*
X00357Y00505*
X00357Y00507*
X00356Y00508*
X00355Y0051*
X00354Y00511*
X00353Y00512*
X00353Y00513*
X01023Y00318D02*
D01*
X01021Y00319*
X0102Y0032*
X01019Y00321*
X01017Y00322*
X01016Y00322*
X01014Y00323*
X01013Y00323*
X01011Y00324*
X01009Y00324*
X01008Y00324*
X01006Y00324*
X01006Y00325*
D01*
X01007Y00325*
X01009Y00325*
X01011Y00325*
X01012Y00325*
X01014Y00326*
X01015Y00327*
X01017Y00327*
X01018Y00328*
X0102Y00329*
X01021Y0033*
X01022Y00331*
X01023Y00331*
X00581D02*
D01*
X00583Y0033*
X00584Y00329*
X00585Y00328*
X00587Y00327*
X00588Y00327*
X0059Y00326*
X00591Y00326*
X00593Y00325*
X00595Y00325*
X00596Y00325*
X00598Y00325*
X00598Y00325*
D01*
X00597Y00324*
X00595Y00324*
X00593Y00324*
X00592Y00324*
X0059Y00323*
X00589Y00322*
X00587Y00322*
X00586Y00321*
X00584Y0032*
X00583Y00319*
X00582Y00318*
X00581Y00318*
X02555Y00605D02*
D01*
X02554Y00606*
X02553Y00607*
X02552Y00608*
X0255Y00609*
X02549Y00609*
X02547Y0061*
X02546Y00611*
X02544Y00611*
X02542Y00611*
X02541Y00611*
X02539Y00612*
X02539Y00612*
D01*
X0254Y00612*
X02542Y00612*
X02544Y00612*
X02545Y00612*
X02547Y00613*
X02548Y00614*
X0255Y00614*
X02551Y00615*
X02553Y00616*
X02554Y00617*
X02555Y00618*
X02555Y00619*
X02588Y00653D02*
D01*
X02586Y00654*
X02585Y00655*
X02584Y00656*
X02582Y00657*
X02581Y00657*
X02579Y00658*
X02578Y00658*
X02576Y00659*
X02574Y00659*
X02573Y00659*
X02571Y00659*
X02571Y0066*
D01*
X02572Y0066*
X02574Y0066*
X02576Y0066*
X02577Y0066*
X02579Y00661*
X0258Y00662*
X02582Y00662*
X02583Y00663*
X02585Y00664*
X02586Y00665*
X02587Y00666*
X02588Y00666*
X02318Y00428D02*
D01*
X02316Y00429*
X02315Y0043*
X02314Y00431*
X02312Y00432*
X02311Y00432*
X02309Y00433*
X02308Y00433*
X02306Y00434*
X02304Y00434*
X02303Y00434*
X02301Y00434*
X02301Y00435*
D01*
X02302Y00435*
X02304Y00435*
X02306Y00435*
X02307Y00435*
X02309Y00436*
X0231Y00437*
X02312Y00437*
X02313Y00438*
X02315Y00439*
X02316Y0044*
X02317Y00441*
X02318Y00441*
X01816Y00861D02*
D01*
X01818Y0086*
X01819Y00859*
X0182Y00859*
X01821Y00858*
X01823Y00857*
X01824Y00857*
X01825Y00856*
X01827Y00856*
X01828Y00855*
X0183Y00855*
X01831Y00855*
X01832Y00855*
X01835D02*
D01*
X01833Y00855*
X01831Y00855*
X01829Y00855*
X01828Y00854*
X01826Y00854*
X01824Y00853*
X01823Y00852*
X01821Y00851*
X0182Y0085*
X01818Y00849*
X01817Y00848*
X01816Y00848*
X01856Y01061D02*
D01*
X01858Y0106*
X01859Y01059*
X0186Y01058*
X01862Y01057*
X01863Y01057*
X01865Y01056*
X01866Y01056*
X01868Y01055*
X0187Y01055*
X01871Y01055*
X01873Y01055*
X01873Y01055*
D01*
X01872Y01054*
X0187Y01054*
X01868Y01054*
X01867Y01054*
X01865Y01053*
X01864Y01052*
X01862Y01052*
X01861Y01051*
X01859Y0105*
X01858Y01049*
X01857Y01048*
X01856Y01048*
X01886Y00961D02*
D01*
X01888Y0096*
X01889Y00959*
X0189Y00958*
X01892Y00957*
X01893Y00957*
X01895Y00956*
X01896Y00956*
X01898Y00955*
X019Y00955*
X01901Y00955*
X01903Y00955*
X01903Y00955*
D01*
X01902Y00954*
X019Y00954*
X01898Y00954*
X01897Y00954*
X01895Y00953*
X01894Y00952*
X01892Y00952*
X01891Y00951*
X01889Y0095*
X01888Y00949*
X01887Y00948*
X01886Y00948*
X02238Y00961D02*
D01*
X02239Y00963*
X0224Y00964*
X02241Y00965*
X02242Y00967*
X02242Y00968*
X02243Y0097*
X02243Y00971*
X02244Y00973*
X02244Y00975*
X02244Y00976*
X02244Y00978*
X02245Y00978*
D01*
X02245Y00977*
X02245Y00975*
X02245Y00973*
X02245Y00972*
X02246Y0097*
X02247Y00969*
X02247Y00967*
X02248Y00966*
X02249Y00964*
X0225Y00963*
X02251Y00962*
X02251Y00961*
X01563Y00983D02*
D01*
X01561Y00984*
X0156Y00985*
X01559Y00986*
X01557Y00987*
X01556Y00987*
X01554Y00988*
X01553Y00988*
X01551Y00989*
X01549Y00989*
X01548Y00989*
X01546Y00989*
X01546Y0099*
D01*
X01547Y0099*
X01549Y0099*
X01551Y0099*
X01552Y0099*
X01554Y00991*
X01555Y00992*
X01557Y00992*
X01558Y00993*
X0156Y00994*
X01561Y00995*
X01562Y00996*
X01563Y00996*
X02756Y00471D02*
D01*
X02758Y0047*
X02759Y00469*
X0276Y00468*
X02762Y00467*
X02763Y00467*
X02765Y00466*
X02766Y00466*
X02768Y00465*
X0277Y00465*
X02771Y00465*
X02773Y00465*
X02773Y00465*
D01*
X02772Y00464*
X0277Y00464*
X02768Y00464*
X02767Y00464*
X02765Y00463*
X02764Y00462*
X02762Y00462*
X02761Y00461*
X02759Y0046*
X02758Y00459*
X02757Y00458*
X02756Y00458*
Y00436D02*
D01*
X02758Y00435*
X02759Y00434*
X0276Y00433*
X02762Y00432*
X02763Y00431*
X02765Y00431*
X02766Y0043*
X02768Y0043*
X0277Y00429*
X02771Y00429*
X02773Y00429*
X02773Y00429*
D01*
X02772Y00429*
X0277Y00429*
X02768Y00429*
X02767Y00428*
X02765Y00428*
X02764Y00427*
X02762Y00426*
X02761Y00425*
X02759Y00425*
X02758Y00424*
X02757Y00422*
X02756Y00422*
X02043Y00712D02*
D01*
X02041Y00713*
X0204Y00714*
X02039Y00715*
X02037Y00716*
X02036Y00717*
X02034Y00717*
X02033Y00718*
X02031Y00718*
X02029Y00719*
X02028Y00719*
X02026Y00719*
X02026Y00719*
D01*
X02027Y00719*
X02029Y00719*
X02031Y00719*
X02032Y0072*
X02034Y0072*
X02035Y00721*
X02037Y00722*
X02038Y00723*
X0204Y00723*
X02041Y00724*
X02042Y00726*
X02043Y00726*
X00751Y00376D02*
D01*
X00753Y00375*
X00754Y00374*
X00755Y00373*
X00757Y00372*
X00758Y00372*
X0076Y00371*
X00761Y00371*
X00763Y0037*
X00765Y0037*
X00766Y0037*
X00768Y0037*
X00768Y0037*
D01*
X00767Y00369*
X00765Y00369*
X00763Y00369*
X00762Y00369*
X0076Y00368*
X00759Y00367*
X00757Y00367*
X00756Y00366*
X00754Y00365*
X00753Y00364*
X00752Y00363*
X00751Y00363*
X01949Y0126D02*
D01*
X01949Y01258*
X0195Y01256*
X0195Y01255*
X0195Y01253*
X01951Y01251*
X01951Y0125*
X01952Y01248*
X01953Y01247*
X01954Y01246*
X01955Y01244*
X01956Y01243*
X01956Y01243*
D01*
X01955Y01244*
X01954Y01245*
X01952Y01246*
X01951Y01247*
X0195Y01247*
X01948Y01248*
X01946Y01249*
X01945Y01249*
X01943Y01249*
X01942Y0125*
X0194Y0125*
X0194Y0125*
X02389Y00577D02*
D01*
X02388Y00579*
X02387Y00581*
X02386Y00582*
X02385Y00584*
X02383Y00585*
X02382Y00586*
X0238Y00587*
X02378Y00588*
X02377Y00589*
X02375Y0059*
X02373Y00591*
X02371Y00591*
X02369Y00592*
X02367Y00592*
X02365Y00592*
X02365Y00592*
X02383Y00574D02*
D01*
X02381Y00576*
X0238Y00578*
X02378Y0058*
X02376Y00581*
X02375Y00583*
X02373Y00585*
X02371Y00586*
X02368Y00587*
X02366Y00589*
X02364Y0059*
X02362Y0059*
X02359Y00591*
X02357Y00591*
X02354Y00592*
X02352Y00592*
X02351Y00592*
X02376Y0057D02*
D01*
X02374Y00572*
X02372Y00575*
X0237Y00577*
X02368Y00579*
X02366Y00581*
X02364Y00583*
X02361Y00585*
X02359Y00587*
X02356Y00588*
X02353Y00589*
X0235Y0059*
X02347Y00591*
X02344Y00591*
X02341Y00592*
X02338Y00592*
X02338Y00592*
X02365D02*
D01*
X02367Y00592*
X02369Y00592*
X02371Y00592*
X02372Y00593*
X02374Y00594*
X02376Y00594*
X02378Y00595*
X0238Y00596*
X02381Y00597*
X02383Y00598*
X02384Y006*
X02386Y00601*
X02387Y00603*
X02388Y00604*
X02389Y00606*
X02389Y00606*
X02351Y00592D02*
D01*
X02354Y00592*
X02356Y00592*
X02359Y00593*
X02361Y00593*
X02364Y00594*
X02366Y00595*
X02368Y00596*
X0237Y00597*
X02372Y00599*
X02374Y006*
X02376Y00602*
X02378Y00604*
X0238Y00606*
X02381Y00608*
X02382Y0061*
X02383Y0061*
X02338Y00592D02*
D01*
X02341Y00592*
X02344Y00592*
X02347Y00593*
X0235Y00594*
X02353Y00594*
X02355Y00596*
X02358Y00597*
X02361Y00598*
X02363Y006*
X02366Y00602*
X02368Y00604*
X0237Y00606*
X02372Y00609*
X02374Y00611*
X02375Y00614*
X02376Y00614*
X01482Y00952D02*
D01*
X01484Y0095*
X01487Y00948*
X01489Y00946*
X01492Y00945*
X01494Y00944*
X01497Y00942*
X015Y00941*
X01503Y00941*
X01506Y0094*
X01509Y0094*
X01512Y0094*
X01512Y0094*
X01488Y00958D02*
D01*
X01491Y00955*
X01494Y00952*
X01498Y00949*
X01501Y00947*
X01505Y00945*
X01509Y00944*
X01513Y00942*
X01517Y00941*
X01522Y0094*
X01526Y0094*
X0153Y0094*
X01531Y0094*
X01512D02*
D01*
X01509Y00939*
X01506Y00939*
X01503Y00939*
X015Y00938*
X01498Y00937*
X01495Y00936*
X01492Y00934*
X0149Y00933*
X01487Y00931*
X01485Y00929*
X01483Y00927*
X01482Y00927*
X01531Y0094D02*
D01*
X01527Y00939*
X01523Y00939*
X01518Y00938*
X01514Y00937*
X0151Y00936*
X01506Y00934*
X01502Y00932*
X01499Y0093*
X01495Y00928*
X01492Y00925*
X01488Y00922*
X01488Y00921*
X02661Y00546D02*
D01*
X02663Y00544*
X02665Y00542*
X02667Y00541*
X0267Y00539*
X02672Y00538*
X02674Y00537*
X02677Y00536*
X02679Y00535*
X02682Y00535*
X02685Y00535*
X02687Y00535*
X02688Y00535*
D01*
X02685Y00534*
X02683Y00534*
X0268Y00534*
X02677Y00533*
X02675Y00532*
X02672Y00531*
X0267Y0053*
X02668Y00529*
X02666Y00527*
X02664Y00526*
X02662Y00524*
X02661Y00523*
X02566Y00526D02*
D01*
X02565Y00527*
X02564Y00528*
X02563Y00529*
X02562Y0053*
X02561Y00531*
X0256Y00531*
X02559Y00532*
X02558Y00533*
X02556Y00533*
X02555Y00534*
X02554Y00534*
X02552Y00534*
X02551Y00534*
X0255Y00535*
X0255*
D01*
X02551Y00535*
X02552Y00535*
X02554Y00535*
X02555Y00535*
X02556Y00536*
X02558Y00536*
X02559Y00537*
X0256Y00538*
X02561Y00538*
X02562Y00539*
X02563Y0054*
X02564Y00541*
X02565Y00542*
X02566Y00543*
X02566Y00543*
X02308Y00706D02*
D01*
X02307Y00705*
X02306Y00704*
X02305Y00703*
X02304Y00702*
X02303Y00701*
X02303Y007*
X02302Y00699*
X02301Y00698*
X02301Y00696*
X023Y00695*
X023Y00694*
X023Y00692*
X023Y00691*
X02299Y0069*
X023Y0069*
D01*
X02299Y00691*
X02299Y00692*
X02299Y00694*
X02299Y00695*
X02298Y00696*
X02298Y00698*
X02297Y00699*
X02296Y007*
X02296Y00701*
X02295Y00702*
X02294Y00703*
X02293Y00704*
X02292Y00705*
X02291Y00706*
X02291Y00706*
X02178Y00446D02*
D01*
X0218Y00448*
X02181Y0045*
X02183Y00452*
X02184Y00454*
X02186Y00456*
X02187Y00459*
X02187Y00461*
X02188Y00464*
X02189Y00467*
X02189Y00469*
X02189Y00472*
X02189Y00473*
D01*
X02189Y0047*
X02189Y00467*
X0219Y00465*
X02191Y00462*
X02191Y0046*
X02192Y00457*
X02194Y00455*
X02195Y00452*
X02196Y0045*
X02198Y00448*
X022Y00446*
X022Y00446*
X02271D02*
D01*
X02273Y00444*
X02275Y00442*
X02277Y00441*
X0228Y00439*
X02282Y00438*
X02284Y00437*
X02287Y00436*
X02289Y00435*
X02292Y00435*
X02295Y00435*
X02297Y00435*
X02298Y00435*
D01*
X02295Y00434*
X02293Y00434*
X0229Y00434*
X02287Y00433*
X02285Y00432*
X02282Y00431*
X0228Y0043*
X02278Y00429*
X02276Y00427*
X02274Y00426*
X02272Y00424*
X02271Y00423*
X02661Y00476D02*
D01*
X02663Y00474*
X02665Y00472*
X02667Y00471*
X0267Y00469*
X02672Y00468*
X02674Y00467*
X02677Y00466*
X02679Y00465*
X02682Y00465*
X02685Y00465*
X02687Y00465*
X02688Y00465*
D01*
X02685Y00464*
X02683Y00464*
X0268Y00464*
X02677Y00463*
X02675Y00462*
X02672Y00461*
X0267Y0046*
X02668Y00459*
X02666Y00457*
X02664Y00456*
X02662Y00454*
X02661Y00453*
X02222Y00704D02*
D01*
X02223Y00702*
X02224Y00701*
X02225Y007*
X02226Y00699*
X02227Y00698*
X02229Y00697*
X0223Y00696*
X02232Y00695*
X02233Y00694*
X02235Y00694*
X02237Y00693*
X02238Y00693*
X0224Y00692*
X02242Y00692*
X02242Y00692*
X02228Y00708D02*
D01*
X0223Y00706*
X02231Y00704*
X02233Y00703*
X02234Y00701*
X02236Y00699*
X02238Y00698*
X0224Y00697*
X02242Y00696*
X02244Y00695*
X02246Y00694*
X02249Y00693*
X02251Y00693*
X02253Y00693*
X02256Y00692*
X02257Y00692*
X02242D02*
D01*
X02241Y00692*
X02239Y00692*
X02237Y00692*
X02236Y00691*
X02234Y00691*
X02232Y0069*
X02231Y00689*
X02229Y00689*
X02228Y00688*
X02227Y00687*
X02225Y00685*
X02224Y00684*
X02223Y00683*
X02222Y00682*
X02222Y00681*
X02257Y00692D02*
D01*
X02254Y00692*
X02252Y00692*
X0225Y00692*
X02247Y00691*
X02245Y0069*
X02243Y00689*
X02241Y00688*
X02239Y00687*
X02237Y00686*
X02235Y00684*
X02233Y00683*
X02232Y00681*
X0223Y00679*
X02229Y00678*
X02228Y00677*
X02221Y0056D02*
D01*
X02222Y00558*
X02224Y00556*
X02225Y00555*
X02227Y00553*
X02229Y00552*
X02231Y00551*
X02232Y0055*
X02234Y00549*
X02237Y00548*
X02239Y00548*
X02241Y00547*
X02243Y00547*
X02245Y00547*
X02246Y00547*
X02227Y00564D02*
D01*
X02229Y00562*
X02231Y0056*
X02233Y00558*
X02235Y00556*
X02238Y00554*
X0224Y00552*
X02243Y00551*
X02246Y0055*
X02249Y00549*
X02252Y00548*
X02254Y00547*
X02257Y00547*
X0226Y00547*
X02262Y00547*
X02246D02*
D01*
X02244Y00547*
X02242Y00546*
X0224Y00546*
X02237Y00545*
X02235Y00545*
X02233Y00544*
X02231Y00543*
X02229Y00542*
X02228Y00541*
X02226Y00539*
X02224Y00538*
X02223Y00536*
X02221Y00535*
X02221Y00534*
X02262Y00547D02*
D01*
X02259Y00547*
X02256Y00546*
X02253Y00546*
X0225Y00545*
X02247Y00544*
X02244Y00543*
X02241Y00542*
X02239Y0054*
X02236Y00538*
X02234Y00537*
X02232Y00535*
X0223Y00532*
X02228Y0053*
X02227Y00529*
X02199Y00537D02*
D01*
X02198Y00535*
X02196Y00533*
X02195Y00531*
X02193Y00529*
X02192Y00527*
X02191Y00525*
X02191Y00523*
X0219Y0052*
X02189Y00518*
X02189Y00515*
X02189Y00513*
X02189Y00512*
X02205Y00531D02*
D01*
X02202Y00529*
X022Y00526*
X02198Y00523*
X02196Y00519*
X02194Y00516*
X02193Y00513*
X02191Y00509*
X0219Y00505*
X0219Y00502*
X02189Y00498*
X02189Y00494*
X02189Y00493*
X0221Y00526D02*
D01*
X02207Y00522*
X02204Y00518*
X02201Y00514*
X02198Y0051*
X02196Y00505*
X02194Y005*
X02192Y00496*
X02191Y00491*
X0219Y00486*
X02189Y00481*
X02189Y00476*
X02189Y00474*
Y00495D02*
D01*
X02189Y00499*
X02189Y00502*
X02188Y00506*
X02187Y00509*
X02186Y00513*
X02185Y00516*
X02183Y00519*
X02181Y00522*
X02179Y00525*
X02177Y00528*
X02175Y00531*
X02174Y00531*
X02189Y00476D02*
D01*
X02189Y00481*
X02188Y00486*
X02188Y00491*
X02186Y00496*
X02185Y005*
X02183Y00505*
X02181Y00509*
X02178Y00513*
X02176Y00517*
X02173Y00521*
X02169Y00525*
X02169Y00526*
X02256Y01116D02*
D01*
X02258Y01114*
X0226Y01113*
X02262Y01111*
X02264Y0111*
X02266Y01108*
X02269Y01107*
X02271Y01107*
X02274Y01106*
X02277Y01105*
X02279Y01105*
X02282Y01105*
X02283Y01105*
D01*
X0228Y01105*
X02277Y01105*
X02275Y01104*
X02272Y01103*
X0227Y01103*
X02267Y01102*
X02265Y011*
X02262Y01099*
X0226Y01098*
X02258Y01096*
X02256Y01094*
X02256Y01094*
X02233D02*
D01*
X02232Y01096*
X0223Y01097*
X02227Y01099*
X02225Y011*
X02223Y01101*
X02221Y01102*
X02218Y01103*
X02216Y01104*
X02213Y01104*
X02211Y01104*
X02208Y01104*
X02208Y01105*
X02224D02*
D01*
X02226Y01105*
X02227Y01105*
X02229Y01105*
X0223Y01105*
X02231Y01106*
X02233Y01106*
X02234Y01107*
X02235Y01108*
X02236Y01108*
X02238Y01109*
X02239Y0111*
X02239Y01111*
X02205Y01105D02*
D01*
X02208Y01105*
X02211Y01105*
X02214Y01105*
X02216Y01106*
X02219Y01107*
X02222Y01108*
X02224Y01109*
X02226Y01111*
X02229Y01112*
X02231Y01114*
X02233Y01116*
X02233Y01116*
X02256Y01023D02*
D01*
X02254Y01021*
X02252Y01019*
X02251Y01017*
X02249Y01014*
X02248Y01012*
X02247Y0101*
X02246Y01007*
X02245Y01005*
X02245Y01002*
X02245Y00999*
X02245Y00997*
X02245Y00996*
D01*
X02244Y00999*
X02244Y01001*
X02244Y01004*
X02243Y01007*
X02242Y01009*
X02241Y01012*
X0224Y01014*
X02239Y01016*
X02237Y01018*
X02236Y0102*
X02234Y01022*
X02233Y01023*
X02186Y0111D02*
D01*
X02187Y01109*
X02188Y01108*
X02189Y01108*
X0219Y01107*
X02191Y01106*
X02193Y01106*
X02194Y01105*
X02195Y01105*
X02197Y01105*
X02198Y01105*
X02199Y01105*
X02199Y01105*
D01*
X02198Y01104*
X02197Y01104*
X02196Y01104*
X02194Y01104*
X02193Y01103*
X02192Y01103*
X02191Y01102*
X02189Y01102*
X02188Y01101*
X02187Y011*
X02186Y01099*
X02186Y01099*
X01923Y00849D02*
D01*
X01922Y0085*
X01921Y00851*
X0192Y00852*
X01918Y00852*
X01917Y00853*
X01916Y00854*
X01914Y00854*
X01913Y00855*
X01911Y00855*
X0191Y00855*
X01908Y00855*
X01908Y00855*
X01911D02*
D01*
X01912Y00855*
X01913Y00855*
X01914Y00855*
X01916Y00856*
X01917Y00856*
X01918Y00857*
X01919Y00857*
X0192Y00858*
X01921Y00858*
X01922Y00859*
X01923Y0086*
X01923Y0086*
X01997Y0091D02*
D01*
X01998Y00909*
X01999Y00908*
X02Y00908*
X02001Y00907*
X02002Y00906*
X02004Y00906*
X02005Y00905*
X02006Y00905*
X02008Y00905*
X02009Y00905*
X0201Y00905*
X02011Y00905*
D01*
X02009Y00904*
X02008Y00904*
X02007Y00904*
X02005Y00904*
X02004Y00903*
X02003Y00903*
X02002Y00902*
X02Y00902*
X01999Y00901*
X01998Y009*
X01997Y00899*
X01997Y00899*
X01923Y00949D02*
D01*
X01922Y0095*
X01921Y00951*
X0192Y00951*
X01919Y00952*
X01918Y00953*
X01916Y00953*
X01915Y00954*
X01914Y00954*
X01912Y00954*
X01911Y00954*
X0191Y00954*
X0191Y00955*
D01*
X01911Y00955*
X01912Y00955*
X01913Y00955*
X01915Y00955*
X01916Y00956*
X01917Y00956*
X01918Y00957*
X0192Y00957*
X01921Y00958*
X01922Y00959*
X01923Y0096*
X01923Y0096*
X01997Y0101D02*
D01*
X01998Y01009*
X01999Y01008*
X02Y01008*
X02001Y01007*
X02002Y01006*
X02004Y01006*
X02005Y01005*
X02006Y01005*
X02008Y01005*
X02009Y01005*
X0201Y01005*
X02011Y01005*
D01*
X02009Y01004*
X02008Y01004*
X02007Y01004*
X02005Y01004*
X02004Y01003*
X02003Y01003*
X02002Y01002*
X02Y01002*
X01999Y01001*
X01998Y01*
X01997Y00999*
X01997Y00999*
X01923Y01049D02*
D01*
X01922Y0105*
X01921Y01051*
X0192Y01051*
X01919Y01052*
X01918Y01053*
X01916Y01053*
X01915Y01054*
X01914Y01054*
X01912Y01054*
X01911Y01054*
X0191Y01054*
X0191Y01055*
D01*
X01911Y01055*
X01912Y01055*
X01913Y01055*
X01915Y01055*
X01916Y01056*
X01917Y01056*
X01918Y01057*
X0192Y01057*
X01921Y01058*
X01922Y01059*
X01923Y0106*
X01923Y0106*
X01997Y0111D02*
D01*
X01998Y01109*
X01999Y01108*
X02Y01108*
X02001Y01107*
X02002Y01106*
X02004Y01106*
X02005Y01105*
X02006Y01105*
X02008Y01105*
X02009Y01105*
X0201Y01105*
X02011Y01105*
D01*
X02009Y01104*
X02008Y01104*
X02007Y01104*
X02005Y01104*
X02004Y01103*
X02003Y01103*
X02002Y01102*
X02Y01102*
X01999Y01101*
X01998Y011*
X01997Y01099*
X01997Y01099*
X0131Y00957D02*
D01*
X01312Y00957*
X01315Y00958*
X01318Y00958*
X01321Y00959*
X01324Y0096*
X01327Y00961*
X0133Y00962*
X01332Y00964*
X01335Y00965*
X01337Y00967*
X01339Y00969*
X0134Y0097*
X0131Y00965D02*
D01*
X01314Y00965*
X01318Y00966*
X01322Y00966*
X01327Y00967*
X01331Y00969*
X01335Y0097*
X01339Y00972*
X01342Y00974*
X01346Y00977*
X01349Y0098*
X01352Y00982*
X01353Y00983*
X0134Y0097D02*
D01*
X01338Y00968*
X01336Y00965*
X01334Y00963*
X01333Y0096*
X01331Y00958*
X0133Y00955*
X01329Y00952*
X01328Y00949*
X01328Y00946*
X01327Y00943*
X01327Y0094*
Y0094*
X01353Y00983D02*
D01*
X0135Y0098*
X01348Y00977*
X01345Y00973*
X01343Y00969*
X01341Y00966*
X01339Y00962*
X01338Y00958*
X01337Y00953*
X01336Y00949*
X01335Y00945*
X01335Y00941*
X01335Y0094*
X02603Y00206D02*
D01*
X02605Y00208*
X02606Y0021*
X02608Y00212*
X02609Y00214*
X02611Y00216*
X02612Y00219*
X02612Y00221*
X02613Y00224*
X02614Y00227*
X02614Y00229*
X02614Y00232*
X02614Y00233*
D01*
X02614Y0023*
X02614Y00227*
X02615Y00225*
X02616Y00222*
X02616Y0022*
X02617Y00217*
X02619Y00215*
X0262Y00212*
X02621Y0021*
X02623Y00208*
X02625Y00206*
X02625Y00206*
X02696D02*
D01*
X02698Y00204*
X027Y00202*
X02702Y00201*
X02705Y00199*
X02707Y00198*
X02709Y00197*
X02712Y00196*
X02714Y00195*
X02717Y00195*
X0272Y00195*
X02722Y00195*
X02723Y00195*
D01*
X0272Y00194*
X02718Y00194*
X02715Y00194*
X02712Y00193*
X0271Y00192*
X02707Y00191*
X02705Y0019*
X02703Y00189*
X02701Y00187*
X02699Y00186*
X02697Y00184*
X02696Y00183*
X02422Y01027D02*
D01*
X0242Y01029*
X02417Y01031*
X02415Y01033*
X02412Y01034*
X0241Y01035*
X02407Y01037*
X02404Y01038*
X02401Y01038*
X02398Y01039*
X02395Y01039*
X02392Y01039*
X02392Y0104*
X02416Y01021D02*
D01*
X02413Y01024*
X0241Y01027*
X02406Y0103*
X02403Y01032*
X02399Y01034*
X02395Y01035*
X02391Y01037*
X02387Y01038*
X02382Y01039*
X02378Y01039*
X02374Y01039*
X02373Y0104*
X02392D02*
D01*
X02395Y0104*
X02398Y0104*
X02401Y0104*
X02404Y01041*
X02406Y01042*
X02409Y01043*
X02412Y01045*
X02414Y01046*
X02417Y01048*
X02419Y0105*
X02421Y01052*
X02422Y01052*
X02373Y0104D02*
D01*
X02377Y0104*
X02381Y0104*
X02386Y01041*
X0239Y01042*
X02394Y01043*
X02398Y01045*
X02402Y01047*
X02405Y01049*
X02409Y01051*
X02412Y01054*
X02416Y01057*
X02416Y01058*
X00932Y00952D02*
D01*
X00934Y00954*
X00936Y00957*
X00937Y00959*
X00939Y00962*
X0094Y00964*
X00942Y00967*
X00943Y0097*
X00943Y00973*
X00944Y00976*
X00944Y00979*
X00944Y00982*
X00944Y00982*
X00926Y00958D02*
D01*
X00929Y00961*
X00932Y00964*
X00934Y00968*
X00937Y00971*
X00939Y00975*
X0094Y00979*
X00942Y00983*
X00943Y00987*
X00944Y00992*
X00944Y00996*
X00944Y01*
X00944Y01001*
Y00982D02*
D01*
X00944Y00979*
X00945Y00976*
X00945Y00973*
X00946Y0097*
X00947Y00968*
X00948Y00965*
X00949Y00962*
X00951Y0096*
X00953Y00957*
X00954Y00955*
X00956Y00953*
X00957Y00952*
X00944Y01001D02*
D01*
X00945Y00997*
X00945Y00993*
X00946Y00988*
X00947Y00984*
X00948Y0098*
X0095Y00976*
X00952Y00972*
X00954Y00969*
X00956Y00965*
X00959Y00962*
X00962Y00958*
X00962Y00958*
X02838Y00805D02*
D01*
X02838Y00801*
X02839Y00798*
X02839Y00795*
X0284Y00792*
X02841Y00789*
X02842Y00786*
X02843Y00783*
X02845Y00781*
X02847Y00778*
X02849Y00775*
X02851Y00773*
X02851Y00773*
X02846Y00805D02*
D01*
X02846Y008*
X02847Y00796*
X02847Y00791*
X02849Y00787*
X0285Y00783*
X02852Y00778*
X02854Y00774*
X02856Y00771*
X02858Y00767*
X02861Y00763*
X02864Y0076*
X02865Y00759*
X02851Y00773D02*
D01*
X02849Y00775*
X02847Y00777*
X02844Y00779*
X02841Y0078*
X02839Y00782*
X02836Y00783*
X02833Y00784*
X0283Y00785*
X02827Y00785*
X02823Y00786*
X0282Y00786*
X0282Y00786*
X02865Y00759D02*
D01*
X02862Y00762*
X02858Y00765*
X02854Y00768*
X02851Y0077*
X02847Y00772*
X02842Y00774*
X02838Y00775*
X02834Y00776*
X0283Y00777*
X02825Y00778*
X02821Y00778*
X0282Y00778*
X02838Y00903D02*
D01*
X02838Y009*
X02839Y00897*
X02839Y00894*
X0284Y0089*
X02841Y00887*
X02842Y00885*
X02843Y00882*
X02845Y00879*
X02847Y00876*
X02849Y00874*
X02851Y00872*
X02851Y00871*
X02846Y00903D02*
D01*
X02846Y00898*
X02847Y00894*
X02847Y0089*
X02849Y00885*
X0285Y00881*
X02852Y00877*
X02854Y00873*
X02856Y00869*
X02858Y00865*
X02861Y00862*
X02864Y00858*
X02865Y00858*
X02851Y00871D02*
D01*
X02849Y00873*
X02847Y00875*
X02844Y00877*
X02841Y00879*
X02839Y0088*
X02836Y00881*
X02833Y00882*
X0283Y00883*
X02827Y00884*
X02823Y00884*
X0282Y00884*
X0282Y00884*
X02865Y00858D02*
D01*
X02862Y00861*
X02858Y00863*
X02854Y00866*
X02851Y00868*
X02847Y0087*
X02842Y00872*
X02838Y00874*
X02834Y00875*
X0283Y00876*
X02825Y00876*
X02821Y00876*
X0282Y00876*
X02801Y00183D02*
D01*
X02799Y00185*
X02797Y00186*
X02795Y00188*
X02792Y0019*
X0279Y00191*
X02787Y00192*
X02785Y00193*
X02782Y00193*
X02779Y00194*
X02777Y00194*
X02774Y00194*
X02773Y00195*
X02796Y00177D02*
D01*
X02793Y0018*
X0279Y00183*
X02786Y00185*
X02783Y00187*
X02779Y00189*
X02775Y00191*
X02771Y00192*
X02767Y00193*
X02763Y00194*
X02759Y00194*
X02755Y00194*
X02754Y00195*
X02766D02*
D01*
X02769Y00195*
X02773Y00195*
X02776Y00196*
X02779Y00196*
X02783Y00198*
X02786Y00199*
X02789Y002*
X02792Y00202*
X02795Y00204*
X02798Y00206*
X02801Y00209*
X02801Y00209*
X02747Y00195D02*
D01*
X02751Y00195*
X02756Y00195*
X02761Y00196*
X02766Y00197*
X0277Y00199*
X02775Y00201*
X02779Y00203*
X02783Y00205*
X02787Y00208*
X02791Y00211*
X02795Y00214*
X02796Y00215*
X02041Y00123D02*
D01*
X02039Y00121*
X02038Y0012*
X02036Y00118*
X02035Y00116*
X02034Y00114*
X02032Y00112*
X02031Y00109*
X02031Y00107*
X0203Y00105*
X02029Y00102*
X02029Y001*
X02029Y00097*
X02029Y00097*
X02046Y00117D02*
D01*
X02044Y00115*
X02041Y00112*
X02039Y0011*
X02037Y00107*
X02035Y00104*
X02034Y00101*
X02032Y00098*
X02031Y00094*
X0203Y00091*
X0203Y00088*
X02029Y00084*
X02029Y00081*
X02029Y0008*
Y00097D02*
D01*
X02029Y00099*
X02029Y00101*
X02028Y00104*
X02028Y00106*
X02027Y00109*
X02026Y00111*
X02025Y00113*
X02024Y00115*
X02022Y00117*
X02021Y00119*
X02019Y00121*
X02017Y00123*
X02017Y00123*
X02029Y0008D02*
D01*
X02029Y00083*
X02029Y00086*
X02028Y0009*
X02027Y00093*
X02026Y00096*
X02025Y001*
X02023Y00103*
X02022Y00106*
X0202Y00109*
X02017Y00111*
X02015Y00114*
X02013Y00116*
X02012Y00117*
X01829Y00219D02*
D01*
X01826Y00218*
X01823Y00218*
X0182Y00218*
X01817Y00217*
X01814Y00216*
X01811Y00215*
X01808Y00213*
X01805Y00212*
X01802Y0021*
X018Y00208*
X01798Y00206*
X01797Y00205*
X01829Y00211D02*
D01*
X01825Y00211*
X0182Y0021*
X01816Y00209*
X01811Y00208*
X01807Y00207*
X01803Y00205*
X01799Y00203*
X01795Y00201*
X01791Y00198*
X01788Y00196*
X01784Y00193*
X01784Y00192*
X01797Y00205D02*
D01*
X01799Y00208*
X01801Y0021*
X01803Y00213*
X01805Y00215*
X01806Y00218*
X01807Y00221*
X01808Y00224*
X01809Y00227*
X0181Y0023*
X0181Y00233*
X0181Y00237*
X0181Y00237*
X01784Y00192D02*
D01*
X01787Y00195*
X0179Y00199*
X01792Y00202*
X01794Y00206*
X01796Y0021*
X01798Y00214*
X018Y00219*
X01801Y00223*
X01802Y00227*
X01802Y00232*
X01802Y00236*
X01802Y00237*
X01641Y00123D02*
D01*
X01639Y00121*
X01638Y0012*
X01636Y00118*
X01635Y00116*
X01634Y00114*
X01632Y00112*
X01631Y00109*
X01631Y00107*
X0163Y00105*
X01629Y00102*
X01629Y001*
X01629Y00097*
X01629Y00097*
X01646Y00117D02*
D01*
X01644Y00115*
X01641Y00112*
X01639Y0011*
X01637Y00107*
X01635Y00104*
X01634Y00101*
X01632Y00098*
X01631Y00094*
X0163Y00091*
X0163Y00088*
X01629Y00084*
X01629Y00081*
X01629Y0008*
Y00097D02*
D01*
X01629Y00099*
X01629Y00101*
X01628Y00104*
X01628Y00106*
X01627Y00109*
X01626Y00111*
X01625Y00113*
X01624Y00115*
X01622Y00117*
X01621Y00119*
X01619Y00121*
X01617Y00123*
X01617Y00123*
X01629Y0008D02*
D01*
X01629Y00083*
X01629Y00086*
X01628Y0009*
X01627Y00093*
X01626Y00096*
X01625Y001*
X01623Y00103*
X01622Y00106*
X0162Y00109*
X01617Y00111*
X01615Y00114*
X01613Y00116*
X01612Y00117*
X0121Y00137D02*
D01*
X0121Y0014*
X0121Y00144*
X01209Y00147*
X01209Y0015*
X01208Y00153*
X01206Y00156*
X01205Y00158*
X01203Y00161*
X01202Y00164*
X012Y00166*
X01198Y00169*
X01197Y00169*
X01202Y00137D02*
D01*
X01202Y00142*
X01202Y00146*
X01201Y00151*
X012Y00155*
X01199Y00159*
X01197Y00163*
X01195Y00167*
X01193Y00171*
X0119Y00175*
X01187Y00179*
X01184Y00182*
X01184Y00183*
X01197Y00169D02*
D01*
X01199Y00167*
X01202Y00165*
X01204Y00163*
X01207Y00162*
X0121Y0016*
X01213Y00159*
X01216Y00158*
X01219Y00157*
X01222Y00157*
X01225Y00156*
X01228Y00156*
X01229Y00156*
X01184Y00183D02*
D01*
X01187Y0018*
X0119Y00177*
X01194Y00174*
X01198Y00172*
X01202Y0017*
X01206Y00168*
X0121Y00167*
X01215Y00166*
X01219Y00165*
X01223Y00164*
X01228Y00164*
X01229Y00164*
X01248Y00237D02*
D01*
X01248Y00234*
X01248Y00231*
X01249Y00228*
X01249Y00225*
X0125Y00222*
X01252Y00219*
X01253Y00216*
X01255Y00213*
X01256Y00211*
X01258Y00208*
X0126Y00206*
X01261Y00205*
X01256Y00237D02*
D01*
X01256Y00233*
X01256Y00228*
X01257Y00224*
X01258Y0022*
X01259Y00215*
X01261Y00211*
X01263Y00207*
X01265Y00203*
X01268Y002*
X01271Y00196*
X01274Y00193*
X01274Y00192*
X01261Y00205D02*
D01*
X01259Y00208*
X01256Y0021*
X01254Y00211*
X01251Y00213*
X01248Y00214*
X01245Y00216*
X01242Y00217*
X01239Y00217*
X01236Y00218*
X01233Y00218*
X0123Y00219*
X01229Y00219*
X01274Y00192D02*
D01*
X01271Y00195*
X01268Y00198*
X01264Y002*
X0126Y00203*
X01256Y00205*
X01252Y00206*
X01248Y00208*
X01243Y00209*
X01239Y0021*
X01235Y0021*
X0123Y00211*
X01229Y00211*
X01148Y00137D02*
D01*
X01148Y00134*
X01148Y00131*
X01149Y00128*
X01149Y00125*
X0115Y00122*
X01152Y00119*
X01153Y00116*
X01155Y00113*
X01156Y00111*
X01158Y00108*
X0116Y00106*
X01161Y00105*
X01156Y00137D02*
D01*
X01156Y00133*
X01156Y00128*
X01157Y00124*
X01158Y0012*
X01159Y00115*
X01161Y00111*
X01163Y00107*
X01165Y00103*
X01168Y001*
X01171Y00096*
X01174Y00093*
X01174Y00092*
X01161Y00105D02*
D01*
X01159Y00108*
X01156Y0011*
X01154Y00111*
X01151Y00113*
X01148Y00114*
X01145Y00116*
X01142Y00117*
X01139Y00117*
X01136Y00118*
X01133Y00118*
X0113Y00119*
X01129Y00119*
X01174Y00092D02*
D01*
X01171Y00095*
X01168Y00098*
X01164Y001*
X0116Y00103*
X01156Y00105*
X01152Y00106*
X01148Y00108*
X01143Y00109*
X01139Y0011*
X01135Y0011*
X0113Y00111*
X01129Y00111*
Y00256D02*
D01*
X01132Y00256*
X01135Y00256*
X01138Y00257*
X01141Y00258*
X01144Y00259*
X01147Y0026*
X0115Y00261*
X01153Y00263*
X01156Y00265*
X01158Y00267*
X0116Y00269*
X01161Y00269*
X01129Y00264D02*
D01*
X01134Y00264*
X01138Y00264*
X01142Y00265*
X01147Y00266*
X01151Y00268*
X01155Y00269*
X01159Y00271*
X01163Y00274*
X01167Y00276*
X0117Y00279*
X01174Y00282*
X01174Y00283*
X01161Y00269D02*
D01*
X01159Y00267*
X01157Y00264*
X01155Y00262*
X01153Y00259*
X01152Y00256*
X01151Y00253*
X0115Y0025*
X01149Y00247*
X01148Y00244*
X01148Y00241*
X01148Y00238*
X01148Y00237*
X01174Y00283D02*
D01*
X01171Y00279*
X01169Y00276*
X01166Y00272*
X01164Y00268*
X01162Y00264*
X0116Y0026*
X01158Y00256*
X01157Y00252*
X01156Y00247*
X01156Y00243*
X01156Y00238*
X01156Y00237*
X01029Y00219D02*
D01*
X01026Y00218*
X01023Y00218*
X0102Y00218*
X01017Y00217*
X01014Y00216*
X01011Y00215*
X01008Y00213*
X01005Y00212*
X01002Y0021*
X01Y00208*
X00998Y00206*
X00997Y00205*
X01029Y00211D02*
D01*
X01025Y00211*
X0102Y0021*
X01016Y00209*
X01011Y00208*
X01007Y00207*
X01003Y00205*
X00999Y00203*
X00995Y00201*
X00991Y00198*
X00988Y00196*
X00984Y00193*
X00984Y00192*
X00997Y00205D02*
D01*
X00999Y00208*
X01001Y0021*
X01003Y00213*
X01005Y00215*
X01006Y00218*
X01007Y00221*
X01008Y00224*
X01009Y00227*
X0101Y0023*
X0101Y00233*
X0101Y00237*
X0101Y00237*
X00984Y00192D02*
D01*
X00987Y00195*
X0099Y00199*
X00992Y00202*
X00994Y00206*
X00996Y0021*
X00998Y00214*
X01Y00219*
X01001Y00223*
X01002Y00227*
X01002Y00232*
X01002Y00236*
X01002Y00237*
X00729Y00156D02*
D01*
X00732Y00156*
X00735Y00156*
X00738Y00157*
X00741Y00158*
X00744Y00159*
X00747Y0016*
X0075Y00161*
X00753Y00163*
X00756Y00165*
X00758Y00167*
X0076Y00169*
X00761Y00169*
X00729Y00164D02*
D01*
X00734Y00164*
X00738Y00164*
X00742Y00165*
X00747Y00166*
X00751Y00168*
X00755Y00169*
X00759Y00171*
X00763Y00174*
X00767Y00176*
X0077Y00179*
X00774Y00182*
X00774Y00183*
X00761Y00169D02*
D01*
X00759Y00167*
X00757Y00164*
X00755Y00162*
X00753Y00159*
X00752Y00156*
X00751Y00153*
X0075Y0015*
X00749Y00147*
X00748Y00144*
X00748Y00141*
X00748Y00138*
X00748Y00137*
X00774Y00183D02*
D01*
X00771Y00179*
X00769Y00176*
X00766Y00172*
X00764Y00168*
X00762Y00164*
X0076Y0016*
X00758Y00156*
X00757Y00152*
X00756Y00147*
X00756Y00143*
X00756Y00138*
X00756Y00137*
X00729Y00219D02*
D01*
X00726Y00218*
X00723Y00218*
X0072Y00218*
X00717Y00217*
X00714Y00216*
X00711Y00215*
X00708Y00213*
X00705Y00212*
X00702Y0021*
X007Y00208*
X00698Y00206*
X00697Y00205*
X00729Y00211D02*
D01*
X00725Y00211*
X0072Y0021*
X00716Y00209*
X00711Y00208*
X00707Y00207*
X00703Y00205*
X00699Y00203*
X00695Y00201*
X00691Y00198*
X00688Y00196*
X00684Y00193*
X00684Y00192*
X00697Y00205D02*
D01*
X00699Y00208*
X00701Y0021*
X00703Y00213*
X00705Y00215*
X00706Y00218*
X00707Y00221*
X00708Y00224*
X00709Y00227*
X0071Y0023*
X0071Y00233*
X0071Y00237*
X0071Y00237*
X00684Y00192D02*
D01*
X00687Y00195*
X0069Y00199*
X00692Y00202*
X00694Y00206*
X00696Y0021*
X00698Y00214*
X007Y00219*
X00701Y00223*
X00702Y00227*
X00702Y00232*
X00702Y00236*
X00702Y00237*
X00516Y00251D02*
D01*
X00518Y00253*
X0052Y00255*
X00522Y00258*
X00523Y00261*
X00525Y00263*
X00526Y00266*
X00527Y00269*
X00528Y00272*
X00528Y00275*
X00529Y00279*
X00529Y00282*
X00529Y00282*
X0051Y00256D02*
D01*
X00513Y00259*
X00516Y00263*
X00519Y00267*
X00521Y0027*
X00523Y00274*
X00525Y00278*
X00526Y00283*
X00527Y00287*
X00528Y00291*
X00529Y00296*
X00529Y003*
X00529Y00301*
Y00282D02*
D01*
X00529Y00279*
X00529Y00276*
X0053Y00273*
X00531Y0027*
X00532Y00267*
X00533Y00264*
X00534Y00261*
X00536Y00259*
X00538Y00256*
X0054Y00253*
X00542Y00251*
X00542Y00251*
X00529Y00301D02*
D01*
X00529Y00297*
X0053Y00293*
X0053Y00288*
X00532Y00284*
X00533Y0028*
X00535Y00275*
X00537Y00271*
X00539Y00267*
X00541Y00264*
X00544Y0026*
X00547Y00257*
X00548Y00256*
X00416Y00251D02*
D01*
X00418Y00253*
X0042Y00255*
X00422Y00258*
X00423Y00261*
X00425Y00263*
X00426Y00266*
X00427Y00269*
X00428Y00272*
X00428Y00275*
X00429Y00279*
X00429Y00282*
X00429Y00282*
X0041Y00256D02*
D01*
X00413Y00259*
X00416Y00263*
X00419Y00267*
X00421Y0027*
X00423Y00274*
X00425Y00278*
X00426Y00283*
X00427Y00287*
X00428Y00291*
X00429Y00296*
X00429Y003*
X00429Y00301*
Y00282D02*
D01*
X00429Y00279*
X00429Y00276*
X0043Y00273*
X00431Y0027*
X00432Y00267*
X00433Y00264*
X00434Y00261*
X00436Y00259*
X00438Y00256*
X0044Y00253*
X00442Y00251*
X00442Y00251*
X00429Y00301D02*
D01*
X00429Y00297*
X0043Y00293*
X0043Y00288*
X00432Y00284*
X00433Y0028*
X00435Y00275*
X00437Y00271*
X00439Y00267*
X00441Y00264*
X00444Y0026*
X00447Y00257*
X00448Y00256*
X01193Y00416D02*
D01*
X01191Y00414*
X01189Y00412*
X01187Y00409*
X01185Y00406*
X01184Y00403*
X01182Y00401*
X01181Y00398*
X01181Y00395*
X0118Y00391*
X0118Y00388*
X0118Y00385*
X0118Y00384*
X01198Y00411D02*
D01*
X01195Y00407*
X01192Y00404*
X0119Y004*
X01188Y00396*
X01186Y00392*
X01184Y00388*
X01182Y00384*
X01181Y0038*
X0118Y00375*
X0118Y00371*
X0118Y00366*
X0118Y00365*
Y00384D02*
D01*
X01179Y00387*
X01179Y00391*
X01179Y00394*
X01178Y00397*
X01177Y004*
X01176Y00403*
X01174Y00406*
X01173Y00408*
X01171Y00411*
X01169Y00413*
X01167Y00416*
X01166Y00416*
X0118Y00365D02*
D01*
X01179Y0037*
X01179Y00374*
X01178Y00379*
X01177Y00383*
X01176Y00387*
X01174Y00391*
X01172Y00395*
X0117Y00399*
X01167Y00403*
X01164Y00407*
X01161Y0041*
X01161Y00411*
X0108Y00411D02*
D01*
X01076Y00411*
X01073Y0041*
X0107Y0041*
X01067Y00409*
X01064Y00408*
X01061Y00407*
X01058Y00406*
X01056Y00404*
X01053Y00402*
X0105Y004*
X01048Y00398*
X01048Y00398*
X0108Y00403D02*
D01*
X01075Y00403*
X01071Y00402*
X01066Y00402*
X01062Y004*
X01058Y00399*
X01053Y00397*
X01049Y00395*
X01046Y00393*
X01042Y00391*
X01038Y00388*
X01035Y00385*
X01034Y00384*
X01048Y00398D02*
D01*
X0105Y004*
X01052Y00402*
X01054Y00405*
X01055Y00408*
X01057Y0041*
X01058Y00413*
X01059Y00416*
X0106Y00419*
X0106Y00422*
X01061Y00426*
X01061Y00429*
X01061Y0043*
X01034Y00384D02*
D01*
X01037Y00387*
X0104Y00391*
X01043Y00395*
X01045Y00398*
X01047Y00402*
X01049Y00407*
X0105Y00411*
X01051Y00415*
X01052Y00419*
X01053Y00424*
X01053Y00428*
X01053Y0043*
X00944Y01024D02*
X00977Y01057D01*
X00944Y0094D02*
Y01024D01*
X0205Y01085D02*
Y0115D01*
X0194Y0126D02*
X0205Y0115D01*
X0102Y0037D02*
X0108Y0043D01*
X00745Y0037D02*
X0102D01*
X0118Y00365D02*
Y0043D01*
X01146Y00331D02*
X0118Y00365D01*
X01129Y00331D02*
X01146D01*
X01092Y00295D02*
X01129Y00331D01*
X00805Y00295D02*
X01092D01*
X0078Y0027D02*
X00805Y00295D01*
X0078Y00188D02*
Y0027D01*
X00729Y00137D02*
X0078Y00188D01*
X0282Y00805D02*
X02875Y0075D01*
X0289Y00478D02*
Y00832D01*
X0282Y00903D02*
X0289Y00832D01*
X0275Y00429D02*
X02841D01*
X0275Y00465D02*
X02855D01*
X02841Y00429D02*
X0289Y00478D01*
X02855Y00465D02*
X02875Y00485D01*
Y0075*
X00575Y00325D02*
X0103D01*
X02614Y00349D02*
X02615Y0035D01*
X02614Y00195D02*
Y00349D01*
X02813Y00195D02*
X02815Y00196D01*
X02685Y00195D02*
X02813D01*
X0038Y0008D02*
Y00187D01*
X0136Y0099D02*
X0157D01*
X0131Y0094D02*
X0136Y0099D01*
X0147Y0094D02*
X0158D01*
X02292Y00357D02*
X02376Y00441D01*
X01404Y00357D02*
X02292D01*
X01362Y00315D02*
X01404Y00357D01*
X02298Y00341D02*
X02395Y00438D01*
X0141Y00341D02*
X02298D01*
X01369Y003D02*
X0141Y00341D01*
X01417Y00325D02*
X02305D01*
X01329Y00237D02*
X01417Y00325D01*
X02305D02*
X02435Y00455D01*
X02311Y0031D02*
X02455Y00453D01*
X01425Y0031D02*
X02311D01*
X0138Y00265D02*
X01425Y0031D01*
X02314Y0029D02*
X02492Y00468D01*
X01502Y0029D02*
X02314D01*
X0148Y00267D02*
X01502Y0029D01*
X0185Y01055D02*
X0196D01*
X0188Y00955D02*
X0196D01*
X02355Y0104D02*
X02435D01*
X02245Y01105D02*
X02319D01*
X02355Y0107*
X02245Y00955D02*
Y01034D01*
X02149Y01105D02*
X02239D01*
X0224Y01105*
X0196Y01105D02*
X0205D01*
X0196Y00905D02*
X02025D01*
Y01005*
X0196D02*
X02025D01*
X023Y0069D02*
Y00719D01*
X02285Y00675D02*
X023Y0069D01*
X02275Y00675D02*
X02285D01*
X0265Y00535D02*
X027D01*
X02492Y00468D02*
Y00552D01*
X02455Y00453D02*
Y00515D01*
X02435Y00455D02*
Y00515D01*
X02395Y00438D02*
Y00515D01*
X02376Y00441D02*
Y00515D01*
X0265Y00465D02*
X027D01*
X0255Y00575D02*
X027D01*
X02532Y00592D02*
X0255Y00575D01*
X02492Y00592D02*
X02532D01*
X02492Y00572D02*
X02527D01*
X02535Y00565*
Y0055D02*
Y00565D01*
Y0055D02*
X0255Y00535D01*
X02579*
X0226Y00435D02*
X02325D01*
X02189Y00546D02*
X0219Y00547D01*
X02189Y00435D02*
Y00546D01*
X0219Y00547D02*
X02262D01*
X02275Y0056*
Y0059*
X02297Y00612*
X02338*
X02293Y00631D02*
X02338D01*
X02275Y0065D02*
X02293Y00631D01*
X02275Y0065D02*
Y00675D01*
X02257Y00692D02*
X02275Y00675D01*
X0219Y00692D02*
X02257D01*
X02338Y00592D02*
X02415D01*
X0255Y0066D02*
X02595D01*
X02521Y00631D02*
X0255Y0066D01*
X02492Y00631D02*
X02521D01*
X02492Y00612D02*
X02562D01*
X01135Y00315D02*
X01362D01*
X0108Y0026D02*
X01135Y00315D01*
X01191Y003D02*
X01369D01*
X01129Y00237D02*
X01191Y003D01*
X0148Y00115D02*
Y00267D01*
X0145Y00085D02*
X0148Y00115D01*
X01182Y00085D02*
X0145D01*
X01129Y00137D02*
X01182Y00085D01*
X0138Y00205D02*
Y00265D01*
X01229Y00237D02*
X01282Y00185D01*
X0136*
X0138Y00205*
X0108Y00215D02*
Y0026D01*
Y00215D02*
X0111Y00185D01*
X01182*
X01229Y00137*
X00529Y00237D02*
Y00625D01*
X0036Y00445D02*
Y0052D01*
Y00445D02*
X0048Y00325D01*
Y00205D02*
Y00325D01*
Y00205D02*
X005Y00185D01*
X00676*
X00729Y00237*
X00429D02*
Y00335D01*
X0034Y00425D02*
X00429Y00335D01*
X00225Y00425D02*
X0034D01*
X00801Y00665D02*
X00803Y00666D01*
X01629Y0008D02*
Y00137D01*
X02029Y0008D02*
Y00137D01*
X0098Y00188D02*
X01029Y00237D01*
X0098Y0008D02*
Y00188D01*
X0038Y0008D02*
X0098D01*
X0178Y00188D02*
X01829Y00237D01*
X0178Y0008D02*
Y00188D01*
X01629Y0008D02*
X0178D01*
X02029*
X0205Y00805D02*
Y01085D01*
X0175Y00719D02*
X0205D01*
X0161Y0077D02*
X017D01*
X0175Y00719*
X01635Y008D02*
X01695D01*
X0175Y00745*
X02015*
X0181Y00855D02*
X0181Y00855D01*
X01959D02*
X0196Y00855D01*
X0181Y00855D02*
X01959D01*
X01745Y00775D02*
X01855D01*
X01685Y00835D02*
X01745Y00775D01*
X0151Y00835D02*
X01685D01*
X01475Y0085D02*
X01691D01*
X01727Y00815*
X01855*
X01485Y0081D02*
X0151Y00835D01*
X0088Y00855D02*
X01335D01*
G54D11*
X01784Y01009D02*
D01*
X01784Y01008*
X01785Y01007*
X01786Y01007*
X01787Y01006*
X01788Y01006*
X01789Y01005*
X0179Y01005*
X01791Y01005*
X01792Y01005*
X01793Y01005*
X01794Y01005*
X01794Y01005*
D01*
X01793Y01004*
X01792Y01004*
X01791Y01004*
X0179Y01004*
X01789Y01004*
X01788Y01003*
X01787Y01003*
X01786Y01002*
X01785Y01002*
X01785Y01001*
X01784Y01*
X01784Y01*
X01579Y00725D02*
D01*
X01578Y00725*
X01577Y00724*
X01577Y00723*
X01576Y00722*
X01576Y00721*
X01575Y0072*
X01575Y00719*
X01575Y00718*
X01575Y00717*
X01575Y00716*
X01575Y00715*
X01575Y00715*
D01*
X01574Y00716*
X01574Y00717*
X01574Y00718*
X01574Y00719*
X01574Y0072*
X01573Y00721*
X01573Y00722*
X01572Y00723*
X01572Y00724*
X01571Y00724*
X0157Y00725*
X0157Y00725*
X01723Y00948D02*
D01*
X01725Y00946*
X01726Y00945*
X01728Y00944*
X0173Y00943*
X01731Y00942*
X01733Y00941*
X01735Y00941*
X01737Y0094*
X01739Y0094*
X01741Y0094*
X01743Y0094*
X01743Y0094*
D01*
X01741Y00939*
X01739Y00939*
X01738Y00939*
X01736Y00938*
X01734Y00938*
X01732Y00937*
X0173Y00936*
X01728Y00935*
X01727Y00934*
X01725Y00933*
X01724Y00931*
X01723Y00931*
X02168Y01616D02*
D01*
X02171Y01618*
X02173Y01621*
X02176Y01624*
X02178Y01628*
X02179Y01631*
X02181Y01635*
X02182Y01638*
X02183Y01642*
X02184Y01646*
X02184Y01649*
X02184Y01653*
X02185Y01654*
D01*
X02185Y0165*
X02185Y01647*
X02186Y01643*
X02187Y01639*
X02188Y01635*
X02189Y01632*
X02191Y01628*
X02193Y01625*
X02195Y01622*
X02197Y01619*
X022Y01616*
X02201Y01616*
X01688D02*
D01*
X01691Y01618*
X01693Y01621*
X01696Y01624*
X01698Y01628*
X01699Y01631*
X01701Y01635*
X01702Y01638*
X01703Y01642*
X01704Y01646*
X01704Y01649*
X01704Y01653*
X01705Y01654*
D01*
X01705Y0165*
X01705Y01647*
X01706Y01643*
X01707Y01639*
X01708Y01635*
X01709Y01632*
X01711Y01628*
X01713Y01625*
X01715Y01622*
X01717Y01619*
X0172Y01616*
X01721Y01616*
X01928Y01614D02*
D01*
X01931Y01617*
X01933Y0162*
X01936Y01623*
X01938Y01626*
X01939Y01629*
X01941Y01633*
X01942Y01637*
X01943Y0164*
X01944Y01644*
X01944Y01648*
X01944Y01652*
X01945Y01653*
D01*
X01945Y01649*
X01945Y01645*
X01946Y01641*
X01947Y01638*
X01948Y01634*
X01949Y0163*
X01951Y01627*
X01953Y01624*
X01955Y0162*
X01957Y01617*
X0196Y01615*
X01961Y01614*
X0188Y00407D02*
D01*
X01876Y00407*
X01872Y00406*
X01868Y00406*
X01864Y00405*
X01861Y00404*
X01857Y00402*
X01854Y004*
X01851Y00399*
X01847Y00396*
X01844Y00394*
X01842Y00392*
X01841Y00391*
D01*
X01843Y00394*
X01846Y00397*
X01848Y004*
X0185Y00403*
X01852Y00406*
X01853Y0041*
X01854Y00414*
X01855Y00417*
X01856Y00421*
X01857Y00425*
X01857Y00429*
X01857Y0043*
X01705Y016D02*
Y01664D01*
X01945Y01598D02*
Y0168D01*
X02185Y016D02*
Y0171D01*
X0181Y01005D02*
X0196D01*
X0178D02*
X0181D01*
Y0098D02*
Y01005D01*
X0177Y0094D02*
X0181Y0098D01*
X01715Y0094D02*
X0177D01*
X0139Y00625D02*
X01505D01*
X0133Y00565D02*
X0139Y00625D01*
X0133Y00405D02*
Y00565D01*
Y00405D02*
X01358Y00376D01*
X01826*
X0188Y0043*
X01945Y0171D02*
X02185D01*
X01505Y00625D02*
X01575Y00695D01*
Y0073*
G54D12*
X01194Y01237D02*
D01*
X01196Y01235*
X01198Y01234*
X012Y01233*
X01202Y01231*
X01204Y0123*
X01206Y01229*
X01208Y01229*
X0121Y01228*
X01213Y01228*
X01215Y01227*
X01217Y01227*
X01218Y01227*
D01*
X01215Y01227*
X01213Y01227*
X01211Y01226*
X01209Y01226*
X01206Y01225*
X01204Y01224*
X01202Y01223*
X012Y01222*
X01198Y01221*
X01196Y01219*
X01195Y01218*
X01194Y01217*
X00754Y01237D02*
D01*
X00756Y01235*
X00758Y01234*
X0076Y01233*
X00762Y01231*
X00764Y0123*
X00766Y01229*
X00768Y01229*
X0077Y01228*
X00773Y01228*
X00775Y01227*
X00777Y01227*
X00778Y01227*
D01*
X00775Y01227*
X00773Y01227*
X00771Y01226*
X00769Y01226*
X00766Y01225*
X00764Y01224*
X00762Y01223*
X0076Y01222*
X00758Y01221*
X00756Y01219*
X00755Y01218*
X00754Y01217*
X00314Y01237D02*
D01*
X00316Y01235*
X00318Y01234*
X0032Y01233*
X00322Y01231*
X00324Y0123*
X00326Y01229*
X00328Y01229*
X0033Y01228*
X00333Y01228*
X00335Y01227*
X00337Y01227*
X00338Y01227*
D01*
X00335Y01227*
X00333Y01227*
X00331Y01226*
X00329Y01226*
X00326Y01225*
X00324Y01224*
X00322Y01223*
X0032Y01222*
X00318Y01221*
X00316Y01219*
X00315Y01218*
X00314Y01217*
X00532Y01378D02*
D01*
X0053Y01376*
X00528Y01373*
X00526Y01371*
X00525Y01368*
X00524Y01366*
X00522Y01363*
X00521Y0136*
X00521Y01357*
X0052Y01354*
X0052Y01351*
X0052Y01348*
X0052Y01348*
D01*
X00519Y01351*
X00519Y01354*
X00519Y01357*
X00518Y01359*
X00517Y01362*
X00516Y01365*
X00514Y01368*
X00513Y0137*
X00511Y01373*
X00509Y01375*
X00507Y01377*
X00507Y01378*
Y01403D02*
D01*
X00511Y01408*
X00515Y01412*
X00519Y01418*
X00522Y01423*
X00525Y01429*
X00527Y01434*
X00529Y0144*
X00531Y01446*
X00532Y01453*
X00533Y01459*
X00533Y01465*
X00533Y01467*
X00972Y01378D02*
D01*
X0097Y01376*
X00968Y01373*
X00966Y01371*
X00965Y01368*
X00964Y01366*
X00962Y01363*
X00961Y0136*
X00961Y01357*
X0096Y01354*
X0096Y01351*
X0096Y01348*
X0096Y01348*
D01*
X00959Y01351*
X00959Y01354*
X00959Y01357*
X00958Y01359*
X00957Y01362*
X00956Y01365*
X00954Y01368*
X00953Y0137*
X00951Y01373*
X00949Y01375*
X00947Y01377*
X00947Y01378*
X01412D02*
D01*
X0141Y01376*
X01408Y01373*
X01406Y01371*
X01405Y01368*
X01404Y01366*
X01402Y01363*
X01401Y0136*
X01401Y01357*
X014Y01354*
X014Y01351*
X014Y01348*
X014Y01348*
D01*
X01399Y01351*
X01399Y01354*
X01399Y01357*
X01398Y01359*
X01397Y01362*
X01396Y01365*
X01394Y01368*
X01393Y0137*
X01391Y01373*
X01389Y01375*
X01387Y01377*
X01387Y01378*
X00548Y01595D02*
D01*
X00546Y01592*
X00543Y0159*
X00541Y01587*
X0054Y01584*
X00538Y01581*
X00537Y01577*
X00536Y01574*
X00535Y01571*
X00534Y01567*
X00534Y01564*
X00533Y0156*
X00533Y0156*
D01*
X00533Y01563*
X00533Y01567*
X00532Y0157*
X00531Y01573*
X0053Y01577*
X00529Y0158*
X00528Y01583*
X00526Y01586*
X00524Y01589*
X00522Y01592*
X00519Y01594*
X00519Y01595*
X00533Y01404D02*
Y0161D01*
X0052Y0139D02*
X00533Y01404D01*
X00305Y01227D02*
X00377D01*
X0044Y0129*
X0048*
X0052Y0133*
Y0139*
X0092Y0129D02*
X0096Y0133D01*
X0088Y0129D02*
X0092D01*
X00817Y01227D02*
X0088Y0129D01*
X00745Y01227D02*
X00817D01*
X0096Y0133D02*
Y01385D01*
Y0139*
X0136Y0129D02*
X014Y0133D01*
X0132Y0129D02*
X0136D01*
X01257Y01227D02*
X0132Y0129D01*
X01185Y01227D02*
X01257D01*
X014Y0133D02*
Y01385D01*
Y0139*
G54D13*
X01176Y01402D02*
D01*
X01178Y01403*
X01179Y01405*
X0118Y01407*
X01181Y01408*
X01182Y0141*
X01183Y01412*
X01183Y01414*
X01184Y01416*
X01184Y01418*
X01184Y0142*
X01184Y01422*
X01185Y01422*
D01*
X01185Y0142*
X01185Y01418*
X01185Y01416*
X01186Y01414*
X01186Y01412*
X01187Y01411*
X01188Y01409*
X01189Y01407*
X0119Y01405*
X01191Y01404*
X01193Y01402*
X01193Y01402*
X00736D02*
D01*
X00738Y01403*
X00739Y01405*
X0074Y01407*
X00741Y01408*
X00742Y0141*
X00743Y01412*
X00743Y01414*
X00744Y01416*
X00744Y01418*
X00744Y0142*
X00744Y01422*
X00745Y01422*
D01*
X00745Y0142*
X00745Y01418*
X00745Y01416*
X00746Y01414*
X00746Y01412*
X00747Y01411*
X00748Y01409*
X00749Y01407*
X0075Y01405*
X00751Y01404*
X00753Y01402*
X00753Y01402*
X00296D02*
D01*
X00298Y01403*
X00299Y01405*
X003Y01407*
X00301Y01408*
X00302Y0141*
X00303Y01412*
X00303Y01414*
X00304Y01416*
X00304Y01418*
X00304Y0142*
X00304Y01422*
X00305Y01422*
D01*
X00305Y0142*
X00305Y01418*
X00305Y01416*
X00306Y01414*
X00306Y01412*
X00307Y01411*
X00308Y01409*
X00309Y01407*
X0031Y01405*
X00311Y01404*
X00313Y01402*
X00313Y01402*
X00948Y01402D02*
D01*
X00952Y01405*
X00955Y01409*
X00957Y01413*
X0096Y01417*
X00962Y01421*
X00964Y01425*
X00965Y0143*
X00967Y01435*
X00968Y01439*
X00968Y01444*
X00968Y01449*
X00968Y0145*
X01388Y01402D02*
D01*
X0139Y01403*
X01391Y01405*
X01393Y01407*
X01394Y01409*
X01395Y01411*
X01396Y01414*
X01397Y01416*
X01397Y01418*
X01398Y0142*
X01398Y01423*
X01398Y01425*
X01398Y01426*
Y01431D02*
D01*
X01398Y01428*
X01399Y01425*
X01399Y01423*
X014Y0142*
X01401Y01417*
X01402Y01414*
X01403Y01412*
X01405Y01409*
X01406Y01407*
X01408Y01404*
X0141Y01402*
X01411Y01402*
X01276Y02017D02*
D01*
X01274Y02014*
X01272Y02012*
X0127Y02009*
X01268Y02007*
X01267Y02004*
X01266Y02001*
X01265Y01998*
X01264Y01995*
X01263Y01992*
X01263Y01989*
X01263Y01985*
X01263Y01985*
D01*
X01262Y01988*
X01262Y01991*
X01262Y01994*
X01261Y01997*
X0126Y02*
X01259Y02003*
X01257Y02006*
X01256Y02009*
X01254Y02011*
X01252Y02014*
X0125Y02016*
X01249Y02017*
X00846D02*
D01*
X00844Y02014*
X00842Y02012*
X0084Y02009*
X00838Y02007*
X00837Y02004*
X00836Y02001*
X00835Y01998*
X00834Y01995*
X00833Y01992*
X00833Y01989*
X00833Y01985*
X00833Y01985*
D01*
X00832Y01988*
X00832Y01991*
X00832Y01994*
X00831Y01997*
X0083Y02*
X00829Y02003*
X00827Y02006*
X00826Y02009*
X00824Y02011*
X00822Y02014*
X0082Y02016*
X00819Y02017*
X01412Y01596D02*
D01*
X01409Y01594*
X01407Y01592*
X01406Y01589*
X01404Y01586*
X01403Y01583*
X01401Y01581*
X014Y01578*
X014Y01575*
X01399Y01571*
X01399Y01568*
X01398Y01565*
X01398Y01564*
D01*
X01398Y01567*
X01398Y01571*
X01397Y01574*
X01397Y01577*
X01396Y0158*
X01394Y01583*
X01393Y01586*
X01391Y01588*
X0139Y01591*
X01388Y01593*
X01386Y01596*
X01385Y01596*
X01211Y01742D02*
D01*
X01209Y0174*
X01207Y01737*
X01205Y01735*
X01203Y01732*
X01202Y01729*
X01201Y01726*
X012Y01723*
X01199Y0172*
X01198Y01717*
X01198Y01714*
X01198Y01711*
X01198Y0171*
D01*
X01197Y01713*
X01197Y01716*
X01197Y01719*
X01196Y01722*
X01195Y01725*
X01194Y01728*
X01192Y01731*
X01191Y01734*
X01189Y01737*
X01187Y01739*
X01185Y01741*
X01184Y01742*
Y01768D02*
D01*
X01186Y01771*
X01188Y01773*
X0119Y01776*
X01192Y01778*
X01193Y01781*
X01195Y01784*
X01196Y01787*
X01196Y0179*
X01197Y01793*
X01197Y01796*
X01198Y018*
X01198Y018*
D01*
X01198Y01797*
X01198Y01794*
X01199Y01791*
X01199Y01788*
X012Y01785*
X01201Y01782*
X01203Y01779*
X01204Y01776*
X01206Y01774*
X01208Y01771*
X0121Y01769*
X01211Y01768*
X00982Y01596D02*
D01*
X00979Y01594*
X00977Y01592*
X00976Y01589*
X00974Y01586*
X00973Y01583*
X00971Y01581*
X0097Y01578*
X0097Y01575*
X00969Y01571*
X00969Y01568*
X00968Y01565*
X00968Y01564*
D01*
X00968Y01567*
X00968Y01571*
X00967Y01574*
X00967Y01577*
X00966Y0158*
X00964Y01583*
X00963Y01586*
X00961Y01588*
X0096Y01591*
X00958Y01593*
X00956Y01596*
X00955Y01596*
X00781Y01742D02*
D01*
X00779Y0174*
X00777Y01737*
X00775Y01735*
X00773Y01732*
X00772Y01729*
X00771Y01726*
X0077Y01723*
X00769Y0172*
X00768Y01717*
X00768Y01714*
X00768Y01711*
X00768Y0171*
D01*
X00767Y01713*
X00767Y01716*
X00767Y01719*
X00766Y01722*
X00765Y01725*
X00764Y01728*
X00762Y01731*
X00761Y01734*
X00759Y01737*
X00757Y01739*
X00755Y01741*
X00754Y01742*
Y01768D02*
D01*
X00756Y01771*
X00758Y01773*
X0076Y01776*
X00762Y01778*
X00763Y01781*
X00765Y01784*
X00766Y01787*
X00766Y0179*
X00767Y01793*
X00767Y01796*
X00768Y018*
X00768Y018*
D01*
X00768Y01797*
X00768Y01794*
X00769Y01791*
X00769Y01788*
X0077Y01785*
X00771Y01782*
X00773Y01779*
X00774Y01776*
X00776Y01774*
X00778Y01771*
X0078Y01769*
X00781Y01768*
X00346Y01742D02*
D01*
X00344Y0174*
X00342Y01737*
X0034Y01735*
X00338Y01732*
X00337Y01729*
X00336Y01726*
X00335Y01723*
X00334Y0172*
X00333Y01717*
X00333Y01714*
X00333Y01711*
X00333Y0171*
D01*
X00332Y01713*
X00332Y01716*
X00332Y01719*
X00331Y01722*
X0033Y01725*
X00329Y01728*
X00327Y01731*
X00326Y01734*
X00324Y01737*
X00322Y01739*
X0032Y01741*
X00319Y01742*
Y01768D02*
D01*
X00321Y01771*
X00323Y01773*
X00325Y01776*
X00327Y01778*
X00328Y01781*
X0033Y01784*
X00331Y01787*
X00331Y0179*
X00332Y01793*
X00332Y01796*
X00333Y018*
X00333Y018*
D01*
X00333Y01797*
X00333Y01794*
X00334Y01791*
X00334Y01788*
X00335Y01785*
X00336Y01782*
X00338Y01779*
X00339Y01776*
X00341Y01774*
X00343Y01771*
X00345Y01769*
X00346Y01768*
X00411Y02016D02*
D01*
X00409Y02014*
X00407Y02012*
X00405Y02009*
X00403Y02006*
X00402Y02003*
X00401Y02001*
X004Y01998*
X00399Y01995*
X00398Y01991*
X00398Y01988*
X00398Y01985*
X00398Y01984*
D01*
X00397Y01987*
X00397Y01991*
X00397Y01994*
X00396Y01997*
X00395Y02*
X00394Y02003*
X00392Y02006*
X00391Y02008*
X00389Y02011*
X00387Y02013*
X00385Y02016*
X00384Y02016*
X00968Y01394D02*
Y0161D01*
X01398Y01387D02*
X014Y01385D01*
X00305Y01635D02*
X00333Y01663D01*
X00745Y01645D02*
X00768Y01668D01*
X01185Y0165D02*
X01198Y01663D01*
Y01755*
X01705Y0171D02*
X01945D01*
X00333Y01663D02*
Y01755D01*
X00768Y01668D02*
Y01755D01*
X01185Y01382D02*
Y0165D01*
X00745Y01382D02*
Y01645D01*
X00305Y01382D02*
Y01635D01*
X00333Y01863D02*
X00398Y01928D01*
Y0203*
X00333Y01755D02*
Y0186D01*
Y01863*
X00833Y01938D02*
Y0203D01*
X00768Y01873D02*
X00833Y01938D01*
X00768Y01755D02*
Y0186D01*
Y01873*
X01263Y01923D02*
Y0203D01*
X01198Y01755D02*
Y01858D01*
X012Y0186*
X01263Y01923*
X0096Y01385D02*
X00968Y01394D01*
X01398Y01387D02*
Y0161D01*
G54D14*
X00457Y01123D02*
D01*
X00454Y01126*
X00451Y01128*
X00448Y0113*
X00445Y01132*
X00442Y01134*
X00439Y01135*
X00435Y01136*
X00432Y01137*
X00428Y01138*
X00425Y01138*
X00421Y01139*
X0042Y01139*
D01*
X00424Y01139*
X00427Y01139*
X00431Y0114*
X00434Y01141*
X00438Y01142*
X00441Y01143*
X00445Y01145*
X00448Y01146*
X00451Y01149*
X00454Y01151*
X00456Y01153*
X00457Y01154*
X00582D02*
D01*
X00585Y01151*
X00588Y01149*
X00591Y01147*
X00594Y01145*
X00597Y01143*
X006Y01142*
X00604Y01141*
X00607Y0114*
X00611Y01139*
X00614Y01139*
X00618Y01139*
X00619Y01139*
D01*
X00615Y01138*
X00612Y01138*
X00608Y01137*
X00605Y01136*
X00601Y01135*
X00598Y01134*
X00594Y01132*
X00591Y01131*
X00588Y01129*
X00585Y01126*
X00583Y01124*
X00582Y01123*
X00897D02*
D01*
X00894Y01126*
X00891Y01128*
X00888Y0113*
X00885Y01132*
X00882Y01134*
X00879Y01135*
X00875Y01136*
X00872Y01137*
X00868Y01138*
X00865Y01138*
X00861Y01139*
X0086Y01139*
D01*
X00864Y01139*
X00867Y01139*
X00871Y0114*
X00874Y01141*
X00878Y01142*
X00881Y01143*
X00885Y01145*
X00888Y01146*
X00891Y01149*
X00894Y01151*
X00896Y01153*
X00897Y01154*
X01022D02*
D01*
X01025Y01151*
X01028Y01149*
X01031Y01147*
X01034Y01145*
X01037Y01143*
X0104Y01142*
X01044Y01141*
X01047Y0114*
X01051Y01139*
X01054Y01139*
X01058Y01139*
X01059Y01139*
D01*
X01055Y01138*
X01052Y01138*
X01048Y01137*
X01045Y01136*
X01041Y01135*
X01038Y01134*
X01034Y01132*
X01031Y01131*
X01028Y01129*
X01025Y01126*
X01023Y01124*
X01022Y01123*
X01337D02*
D01*
X01334Y01126*
X01331Y01128*
X01328Y0113*
X01325Y01132*
X01322Y01134*
X01319Y01135*
X01315Y01136*
X01312Y01137*
X01308Y01138*
X01305Y01138*
X01301Y01139*
X013Y01139*
D01*
X01304Y01139*
X01307Y01139*
X01311Y0114*
X01314Y01141*
X01318Y01142*
X01321Y01143*
X01325Y01145*
X01328Y01146*
X01331Y01149*
X01334Y01151*
X01336Y01153*
X01337Y01154*
X01637Y00933D02*
D01*
X01636Y00934*
X01635Y00935*
X01633Y00936*
X01632Y00937*
X0163Y00937*
X01629Y00938*
X01627Y00938*
X01626Y00939*
X01624Y00939*
X01622Y00939*
X01621Y00939*
X0162Y0094*
D01*
X01622Y0094*
X01624Y0094*
X01625Y0094*
X01627Y0094*
X01628Y00941*
X0163Y00942*
X01631Y00942*
X01633Y00943*
X01634Y00944*
X01636Y00945*
X01637Y00946*
X01637Y00946*
X00794Y00544D02*
D01*
X00797Y00542*
X00799Y0054*
X00802Y00538*
X00805Y00536*
X00808Y00534*
X00812Y00533*
X00815Y00532*
X00818Y00531*
X00822Y0053*
X00825Y0053*
X00829Y0053*
X00829Y0053*
D01*
X00826Y00529*
X00822Y00529*
X00819Y00528*
X00816Y00528*
X00812Y00526*
X00809Y00525*
X00806Y00524*
X00803Y00522*
X008Y0052*
X00797Y00518*
X00795Y00515*
X00794Y00515*
X00865D02*
D01*
X00862Y00517*
X0086Y00519*
X00857Y00521*
X00854Y00523*
X00851Y00525*
X00847Y00526*
X00844Y00527*
X00841Y00528*
X00837Y00529*
X00834Y00529*
X0083Y00529*
X0083Y0053*
D01*
X00833Y0053*
X00837Y0053*
X0084Y00531*
X00843Y00531*
X00847Y00533*
X0085Y00534*
X00853Y00535*
X00856Y00537*
X00859Y00539*
X00862Y00541*
X00864Y00544*
X00865Y00544*
X001Y00665D02*
X0018D01*
X0158Y0094D02*
X01644D01*
X00803Y00666D02*
X0083D01*
Y0053D02*
Y00666D01*
X0078Y0053D02*
X0083D01*
X0088*
X0036Y01139D02*
X0052D01*
X0066*
X00795D02*
X0096D01*
X01095*
X01225D02*
X0139D01*
X0097Y00665D02*
X00971Y00666D01*
X0083D02*
X00971D01*
X00972Y00667*
X01361Y00666D02*
X01415Y0072D01*
Y0084*
X0146Y00885*
X01525*
X0158Y0094*
X0018Y00665D02*
X00801D01*
X00971Y00666D02*
X01361D01*
G54D15*
X01668Y02026D02*
D01*
X01671Y02029*
X01673Y02032*
X01675Y02035*
X01677Y02039*
X01679Y02042*
X01681Y02046*
X01682Y0205*
X01683Y02054*
X01684Y02058*
X01684Y02062*
X01684Y02066*
X01685Y02067*
D01*
X01685Y02063*
X01685Y02059*
X01686Y02055*
X01687Y02051*
X01688Y02047*
X01689Y02043*
X01691Y0204*
X01693Y02036*
X01695Y02033*
X01698Y0203*
X01701Y02027*
X01701Y02026*
X01685Y0201D02*
Y0207D01*
X01665Y0209D02*
X01685Y0207D01*
G54D16*
X0143Y01923D02*
D01*
X0143Y01932*
X01429Y01942*
X01427Y01951*
X01425Y01961*
X01422Y0197*
X01418Y01978*
X01414Y01987*
X01409Y01995*
X01404Y02003*
X01398Y02011*
X01392Y02018*
X0139Y02019*
Y0204D02*
D01*
X01396Y02047*
X01402Y02055*
X01408Y02062*
X01413Y02071*
X01417Y02079*
X01421Y02088*
X01424Y02097*
X01426Y02106*
X01428Y02115*
X01429Y02125*
X0143Y02134*
X0143Y02137*
X01Y01923D02*
D01*
X01Y01932*
X00999Y01942*
X00997Y01951*
X00995Y01961*
X00992Y0197*
X00988Y01978*
X00984Y01987*
X00979Y01995*
X00974Y02003*
X00968Y02011*
X00962Y02018*
X0096Y02019*
Y0204D02*
D01*
X00966Y02047*
X00972Y02055*
X00978Y02062*
X00983Y02071*
X00987Y02079*
X00991Y02088*
X00994Y02097*
X00996Y02106*
X00998Y02115*
X00999Y02125*
X01Y02134*
X01Y02137*
X01455Y01766D02*
D01*
X01457Y01767*
X01458Y01769*
X0146Y01771*
X01461Y01774*
X01462Y01776*
X01463Y01778*
X01464Y0178*
X01464Y01783*
X01465Y01785*
X01465Y01788*
X01465Y0179*
X01465Y01791*
D01*
X01465Y01788*
X01466Y01786*
X01466Y01783*
X01467Y01781*
X01467Y01779*
X01468Y01776*
X01469Y01774*
X01471Y01772*
X01472Y0177*
X01474Y01768*
X01475Y01766*
X01476Y01766*
X01321D02*
D01*
X01323Y01767*
X01324Y01769*
X01326Y01771*
X01327Y01774*
X01328Y01776*
X01329Y01778*
X0133Y0178*
X01331Y01783*
X01331Y01785*
X01331Y01788*
X01331Y0179*
X01331Y01791*
D01*
X01332Y01788*
X01332Y01786*
X01332Y01783*
X01333Y01781*
X01334Y01779*
X01335Y01776*
X01336Y01774*
X01337Y01772*
X01338Y0177*
X0134Y01768*
X01341Y01766*
X01342Y01766*
X01025D02*
D01*
X01027Y01767*
X01028Y01769*
X0103Y01771*
X01031Y01774*
X01032Y01776*
X01033Y01778*
X01034Y0178*
X01034Y01783*
X01035Y01785*
X01035Y01788*
X01035Y0179*
X01035Y01791*
D01*
X01035Y01788*
X01036Y01786*
X01036Y01783*
X01037Y01781*
X01037Y01779*
X01038Y01776*
X01039Y01774*
X01041Y01772*
X01042Y0177*
X01044Y01768*
X01045Y01766*
X01046Y01766*
X00891D02*
D01*
X00893Y01767*
X00894Y01769*
X00896Y01771*
X00897Y01774*
X00898Y01776*
X00899Y01778*
X009Y0178*
X00901Y01783*
X00901Y01785*
X00901Y01788*
X00901Y0179*
X00901Y01791*
D01*
X00902Y01788*
X00902Y01786*
X00902Y01783*
X00903Y01781*
X00904Y01779*
X00905Y01776*
X00906Y01774*
X00907Y01772*
X00908Y0177*
X0091Y01768*
X00911Y01766*
X00912Y01766*
X0059D02*
D01*
X00592Y01767*
X00593Y01769*
X00595Y01771*
X00596Y01774*
X00597Y01776*
X00598Y01778*
X00599Y0178*
X00599Y01783*
X006Y01785*
X006Y01788*
X006Y0179*
X006Y01791*
D01*
X006Y01788*
X00601Y01786*
X00601Y01783*
X00602Y01781*
X00602Y01779*
X00603Y01776*
X00604Y01774*
X00606Y01772*
X00607Y0177*
X00609Y01768*
X0061Y01766*
X00611Y01766*
X00456D02*
D01*
X00458Y01767*
X00459Y01769*
X00461Y01771*
X00462Y01774*
X00463Y01776*
X00464Y01778*
X00465Y0178*
X00466Y01783*
X00466Y01785*
X00466Y01788*
X00466Y0179*
X00466Y01791*
D01*
X00467Y01788*
X00467Y01786*
X00467Y01783*
X00468Y01781*
X00469Y01779*
X0047Y01776*
X00471Y01774*
X00472Y01772*
X00473Y0177*
X00475Y01768*
X00476Y01766*
X00477Y01766*
X02083Y00053D02*
D01*
X02089Y0006*
X02094Y00066*
X02099Y00073*
X02103Y0008*
X02107Y00087*
X0211Y00095*
X02113Y00103*
X02115Y00111*
X02117Y00119*
X02118Y00127*
X02118Y00135*
X02118Y00137*
X00565Y01923D02*
D01*
X00565Y01932*
X00564Y01942*
X00562Y01951*
X0056Y0196*
X00557Y01969*
X00553Y01978*
X00549Y01987*
X00544Y01995*
X00539Y02003*
X00533Y0201*
X00527Y02017*
X00525Y02019*
Y0204D02*
D01*
X00531Y02047*
X00537Y02054*
X00543Y02062*
X00548Y0207*
X00552Y02079*
X00556Y02088*
X00559Y02097*
X00561Y02106*
X00563Y02115*
X00564Y02125*
X00565Y02134*
X00565Y02136*
X00977Y01057D02*
X00995Y0104D01*
X0096Y01075D02*
X00977Y01057D01*
X02376Y01371D02*
X02396Y01391D01*
X0256*
X01856Y01371D02*
X02376D01*
X0018Y00665D02*
Y00755D01*
Y00375D02*
Y00665D01*
Y00375D02*
X00265Y0029D01*
Y00085D02*
Y0029D01*
Y00085D02*
X00305Y00045D01*
X02075*
X02129Y00099*
Y00137*
X02229*
X0018Y00755D02*
X00285Y0086D01*
X00375*
X0052Y01005*
Y01139*
X0168Y00635D02*
Y0073D01*
X0205Y0053D02*
Y00565D01*
X0198Y00635D02*
X0205Y00565D01*
X0168Y00635D02*
X0198D01*
X0168Y0053D02*
Y00635D01*
X0188Y0053D02*
X0205D01*
X01885Y01305D02*
X02345D01*
X0162Y0104D02*
X01885Y01305D01*
X02345D02*
X0246Y0119D01*
X01465Y01755D02*
Y01854D01*
X00565Y0215D02*
X00565Y02149D01*
X01Y0215D02*
X01Y02149D01*
X0143Y0215D02*
X0143Y02149D01*
X01331Y01755D02*
Y0186D01*
X00565Y01889D02*
X006Y01854D01*
Y01755D02*
Y01854D01*
X01Y01889D02*
X01035Y01854D01*
Y01755D02*
Y01854D01*
X00333Y0186D02*
X00466D01*
X00768D02*
X00901D01*
X0268Y0132D02*
X0273Y0137D01*
X0268Y01215D02*
Y0132D01*
X0096Y01075D02*
Y01134D01*
X02655Y0119D02*
X0268Y01215D01*
X0143Y01889D02*
X01465Y01854D01*
X0148Y0053D02*
X0158D01*
X0168*
Y0043D02*
Y0053D01*
X0273Y0137D02*
X02815D01*
X00995Y0104D02*
X0162D01*
X0246Y0119D02*
X02655D01*
X0159Y0171D02*
X01705D01*
X0159D02*
Y0215D01*
Y01245D02*
Y0171D01*
X014Y01139D02*
X0157D01*
X01624*
X01856Y01371*
X00466Y01755D02*
Y0186D01*
X00901Y01755D02*
Y0186D01*
X012D02*
X01331D01*
X00565Y01889D02*
Y02149D01*
X01Y01889D02*
Y02149D01*
X0143Y01889D02*
Y02149D01*
G54D17*
X02242Y00251D02*
D01*
X02245Y00248*
X02247Y00246*
X0225Y00245*
X02252Y00243*
X02255Y00242*
X02258Y0024*
X02261Y00239*
X02264Y00238*
X02267Y00238*
X0227Y00237*
X02273Y00237*
X02274Y00237*
D01*
X02271Y00237*
X02268Y00237*
X02265Y00236*
X02262Y00236*
X02259Y00235*
X02256Y00233*
X02253Y00232*
X0225Y0023*
X02248Y00229*
X02245Y00227*
X02243Y00225*
X02242Y00224*
X02615Y0035D02*
X02635D01*
X02407D02*
X02615D01*
X02355Y0104D02*
Y0107D01*
Y0089D02*
Y0104D01*
Y0078D02*
Y0089D01*
Y0078D02*
X02415Y0072D01*
X0263*
X027Y0065*
Y00575D02*
Y0065D01*
Y00535D02*
Y00575D01*
Y00415D02*
Y00465D01*
X02635Y0035D02*
X027Y00415D01*
X02295Y00237D02*
X02407Y0035D01*
X02229Y00237D02*
X02295D01*
X027Y00465D02*
Y00535D01*
G54D18*
X00944Y0094D03*
X01685Y0201D03*
X02435Y0104D03*
X0114Y0094D03*
X0131D03*
X0147D03*
G54D19*
X02685Y00195D03*
X02614D03*
X01715Y0094D03*
X01644D03*
X02579Y00535D03*
X0265D03*
G54D20*
X0196Y01105D03*
Y01055D03*
Y01005D03*
Y00955D03*
Y00905D03*
Y00855D03*
Y00805D03*
X02149Y01105D03*
Y01055D03*
Y01005D03*
Y00955D03*
Y00905D03*
Y00855D03*
Y00805D03*
G54D21*
X02245Y01034D03*
Y01105D03*
X02579Y00465D03*
X0265D03*
X0226Y00435D03*
X02189D03*
X023Y0079D03*
Y00719D03*
G54D22*
X0219Y00547D03*
Y00692D03*
G54D23*
X014Y01139D03*
Y0139D03*
X0096Y01139D03*
Y0139D03*
X0052Y01139D03*
Y0139D03*
G54D24*
X01962Y0209D03*
X01807D03*
G54D25*
X00305Y01382D03*
Y01227D03*
X00745Y01382D03*
Y01227D03*
X01185Y01382D03*
Y01227D03*
G54D26*
X02455Y00669D03*
X02435D03*
X02415D03*
X02395D03*
X02376D03*
Y00515D03*
X02395D03*
X02415D03*
X02435D03*
X02455D03*
G54D27*
X02338Y00631D03*
Y00612D03*
Y00592D03*
Y00572D03*
Y00552D03*
X02492D03*
Y00572D03*
Y00592D03*
Y00612D03*
Y00631D03*
G54D28*
X02415Y00592D03*
G54D29*
X0276Y019D02*
X02845D01*
X02725Y01865D02*
X0276Y019D01*
X01834Y01865D02*
X01935D01*
X02031*
X01665Y0209D02*
X01807D01*
X01605Y0215D02*
X01665Y0209D01*
X01Y0215D02*
X0143D01*
X00565D02*
X01D01*
X02621Y01865D02*
X02725D01*
X02425D02*
X02621D01*
X01962Y01992D02*
Y0209D01*
X01935Y01965D02*
X01962Y01992D01*
X01935Y01865D02*
Y01965D01*
X0143Y0215D02*
X0159D01*
X01605*
G54D30*
X0256Y01312D03*
G54D31*
X0256Y01391D03*
Y0147D03*
G54D32*
X00535Y0203D03*
X006Y01755D03*
X01035D03*
X01465D03*
X0097Y0203D03*
X014D03*
G54D33*
X00398Y0203D03*
X00333Y01755D03*
X004Y0161D03*
X00466Y01755D03*
X00533Y0161D03*
X00768Y01755D03*
X00835Y0161D03*
X00901Y01755D03*
X00968Y0161D03*
X01198Y01755D03*
X01265Y0161D03*
X01331Y01755D03*
X01398Y0161D03*
X00833Y0203D03*
X01263D03*
G54D34*
X01055Y00785D03*
X01155D03*
X01255D03*
X02815Y01468D03*
Y0137D03*
X0098Y0053D03*
Y0043D03*
X0108Y0053D03*
Y0043D03*
X0118Y0053D03*
Y0043D03*
X0188D03*
X0178D03*
X0168D03*
X0148D03*
X0158D03*
Y0053D03*
X0148D03*
X0168D03*
X0178D03*
X0138D03*
Y0043D03*
X0128D03*
Y0053D03*
X0088D03*
Y0043D03*
X0078D03*
Y0053D03*
X0068Y0043D03*
Y0053D03*
X0058Y0043D03*
Y0053D03*
X0048Y0043D03*
Y0053D03*
X00329Y00137D03*
Y00237D03*
X00429Y00137D03*
Y00237D03*
X00529Y00137D03*
Y00237D03*
X00629Y00137D03*
Y00237D03*
X00729Y00137D03*
X00829Y00237D03*
Y00137D03*
X00929Y00237D03*
Y00137D03*
X01029Y00237D03*
Y00137D03*
X01129Y00237D03*
Y00137D03*
X01229D03*
X01329Y00237D03*
Y00137D03*
X01429Y00237D03*
Y00137D03*
X01529D03*
Y00237D03*
X01629Y00137D03*
Y00237D03*
X01729Y00137D03*
X01829D03*
Y00237D03*
X01929Y00137D03*
Y00237D03*
X02029Y00137D03*
X02129D03*
X02029Y00237D03*
X02129D03*
X02229Y00137D03*
X02815Y00295D03*
X0282Y00903D03*
Y00805D03*
Y00706D03*
X01945Y015D03*
X01705Y01501D03*
X02185D03*
X02795Y01065D03*
G54D35*
X01355Y00785D03*
X0188Y0053D03*
X00729Y00237D03*
X01229D03*
X02229D03*
X02895Y01065D03*
G54D36*
X02815Y01271D03*
Y00196D03*
X0282Y00608D03*
X01945Y01598D03*
X01705Y016D03*
X02185D03*
G54D37*
X01729Y00237D03*
G54D38*
X00137Y00187D03*
Y02116D03*
X02834D03*
X02421Y00187D03*
Y02116D03*
G54D39*
X02845Y019D03*
G54D40*
X02845Y017D03*
X02621Y01865D03*
X02425D03*
X01834D03*
X02031D03*
G54D41*
X0194Y0126D03*
X00745Y0037D03*
X0205Y00719D03*
X0275Y00429D03*
Y00465D03*
X0157Y0099D03*
X01575Y0073D03*
X0157Y01139D03*
X0205Y0053D03*
X0168Y0073D03*
X0178Y01005D03*
X02245Y00955D03*
X0188D03*
X0185Y01055D03*
X0181Y00855D03*
X02355Y0089D03*
X02325Y00435D03*
X02595Y0066D03*
X02562Y00612D03*
X00575Y00325D03*
X0103D03*
X001Y00665D03*
X00276Y00666D03*
X00461Y00666D03*
X00629Y00665D03*
X00803Y00666D03*
X0036Y0052D03*
X00225Y00425D03*
X00529Y00625D03*
X0036Y01139D03*
X0066D03*
X0159Y01245D03*
X01095Y01139D03*
X00795D03*
X01225D03*
X0205Y00805D03*
X02015Y00745D03*
X0161Y0077D03*
X01635Y008D03*
X01855Y00775D03*
Y00815D03*
X00972Y00667D03*
X01485Y0081D03*
X01475Y0085D03*
X0088Y00855D03*
X01335D03*
X0009Y0035D03*
X0046Y0061D03*
X0143Y00585D03*
X0252Y00435D03*
G54D42*
X02437Y00614D03*
Y0057D03*
X02393Y00614D03*
Y0057D03*
M02*