%FSLAX25Y25*%
%MOIN*%
G70*
G01*
G75*
G04 Layer_Physical_Order=1*
G04 Layer_Color=255*
%ADD10C,0.01181*%
%ADD11C,0.02362*%
%ADD12C,0.01575*%
%ADD13C,0.03150*%
%ADD14R,0.05512X0.02362*%
%ADD15R,0.05906X0.07087*%
%ADD16R,0.03937X0.03937*%
%ADD17C,0.03937*%
%ADD18C,0.06102*%
%ADD19R,0.06102X0.06102*%
%ADD20C,0.11811*%
%ADD21C,0.04528*%
%ADD22R,0.04528X0.04528*%
%ADD23C,0.05118*%
%ADD24R,0.05118X0.05118*%
%ADD25C,0.02756*%
G36*
X21654Y141732D02*
X21654Y141732D01*
X21654Y141732D01*
Y138888D01*
X21653Y138888D01*
X21268Y138811D01*
X21260Y138812D01*
Y138810D01*
Y138806D01*
X21260D01*
X20722Y138700D01*
X20266Y138395D01*
X18298Y136426D01*
X18020Y136011D01*
X17717Y136026D01*
X17503Y136068D01*
X17403Y136256D01*
X16567Y137275D01*
X15547Y138111D01*
X14385Y138733D01*
X13123Y139116D01*
X11811Y139245D01*
X10499Y139116D01*
X9237Y138733D01*
X8075Y138111D01*
X7056Y137275D01*
X6219Y136256D01*
X5598Y135093D01*
X5215Y133832D01*
X5086Y132520D01*
X5215Y131208D01*
X5598Y129946D01*
X6219Y128783D01*
X7056Y127764D01*
X8075Y126928D01*
X9237Y126306D01*
X10499Y125924D01*
X11811Y125794D01*
X13123Y125924D01*
X14385Y126306D01*
X15547Y126928D01*
X16390Y127619D01*
X16812Y127337D01*
X16705Y126800D01*
Y117157D01*
X15052Y115503D01*
X15038Y115517D01*
X14993Y115459D01*
X14506Y115085D01*
X13871Y114822D01*
X13189Y114732D01*
Y114732D01*
X13179Y114730D01*
X12393Y114626D01*
X11650Y114319D01*
X11013Y113830D01*
X10524Y113192D01*
X10216Y112450D01*
X10112Y111653D01*
X10216Y110857D01*
X10524Y110115D01*
X11013Y109477D01*
X11443Y109148D01*
Y108648D01*
X11158Y108430D01*
X11004Y108326D01*
X11013Y108318D01*
X10984Y108281D01*
X10666Y108149D01*
X10582D01*
X10575Y108150D01*
Y108149D01*
X9685D01*
X8917Y107996D01*
X8266Y107561D01*
X3699Y102994D01*
X3264Y102343D01*
X3111Y101575D01*
Y44094D01*
X3111Y44094D01*
X3111D01*
X3264Y43326D01*
X3699Y42675D01*
X15116Y31258D01*
X15767Y30823D01*
X16535Y30670D01*
X21260D01*
Y2362D01*
X2362D01*
Y141732D01*
X21654D01*
Y141732D01*
D02*
G37*
G36*
X23856Y112539D02*
X23989Y111529D01*
Y111497D01*
X23981Y111423D01*
X23989D01*
Y102354D01*
X18158Y96523D01*
X17229D01*
Y96543D01*
X17155Y96533D01*
X16547Y96613D01*
X16240Y96740D01*
Y98169D01*
X15923D01*
X15775Y98283D01*
X15791Y98783D01*
X16205Y99059D01*
X17033Y99224D01*
X17165Y99207D01*
Y99225D01*
X17165D01*
X17703Y99332D01*
X18159Y99637D01*
X21072Y102550D01*
X21377Y103006D01*
X21484Y103543D01*
X21484Y103543D01*
X21484Y103543D01*
Y103543D01*
Y113386D01*
X21654D01*
Y113386D01*
X23505D01*
X23856Y112539D01*
D02*
G37*
G36*
X198819Y2362D02*
X179921D01*
Y24409D01*
Y30709D01*
X126938D01*
X126717Y31157D01*
X126817Y31287D01*
X127094Y31958D01*
X127189Y32677D01*
X127094Y33397D01*
X126818Y34064D01*
Y40231D01*
X126889Y40586D01*
X127156Y40954D01*
Y40954D01*
X127156Y40954D01*
Y40954D01*
X127156D01*
X127267Y41120D01*
X127762Y41765D01*
X128149Y42699D01*
X128281Y43701D01*
X128149Y44703D01*
X127762Y45637D01*
X127147Y46439D01*
X127098Y46476D01*
X126520Y47229D01*
X126133Y48164D01*
X126015Y49060D01*
Y49133D01*
X126018Y49166D01*
X126015D01*
Y63432D01*
X126018D01*
X126015Y63465D01*
Y63539D01*
X126133Y64435D01*
X126520Y65369D01*
X127098Y66122D01*
X127147Y66160D01*
X127762Y66962D01*
X128149Y67896D01*
X128281Y68898D01*
X128149Y69900D01*
X127762Y70833D01*
X127147Y71635D01*
X126345Y72251D01*
X125411Y72637D01*
X124409Y72769D01*
X123407Y72637D01*
X122474Y72251D01*
X121672Y71635D01*
X121056Y70833D01*
X120670Y69900D01*
X120538Y68898D01*
X120670Y67896D01*
X121056Y66962D01*
X121672Y66160D01*
X121721Y66122D01*
X122299Y65369D01*
X122686Y64435D01*
X122804Y63539D01*
Y63465D01*
X122801Y63432D01*
X122804D01*
Y49166D01*
X122801D01*
X122804Y49133D01*
Y49060D01*
X122686Y48164D01*
X122299Y47229D01*
X121721Y46476D01*
X121672Y46439D01*
X121056Y45637D01*
X120670Y44703D01*
X120538Y43701D01*
X120670Y42699D01*
X121056Y41765D01*
X121552Y41120D01*
X121662Y40954D01*
X121662D01*
Y40954D01*
X121662Y40954D01*
X121662Y40954D01*
X121930Y40586D01*
X122001Y40231D01*
Y35457D01*
X42544D01*
Y41018D01*
X43117Y41765D01*
X43504Y42699D01*
X43635Y43701D01*
X43504Y44703D01*
X43117Y45637D01*
X42502Y46439D01*
X41700Y47054D01*
X40766Y47441D01*
X39764Y47572D01*
X38762Y47441D01*
X37828Y47054D01*
X37026Y46439D01*
X36411Y45637D01*
X36024Y44703D01*
X35892Y43701D01*
X36024Y42699D01*
X36411Y41765D01*
X36984Y41018D01*
Y34684D01*
X17367D01*
X7125Y44926D01*
Y100743D01*
X10516Y104135D01*
X10575D01*
Y104134D01*
X10582Y104135D01*
X10666D01*
X10984Y104003D01*
X11013Y103966D01*
X11004Y103957D01*
X11158Y103854D01*
X11443Y103636D01*
Y103136D01*
X11013Y102806D01*
X10524Y102169D01*
X10216Y101426D01*
X10112Y100630D01*
X10216Y99833D01*
X10524Y99091D01*
X10887Y98618D01*
X10666Y98169D01*
X10138D01*
Y92067D01*
X16240D01*
Y93496D01*
X16547Y93623D01*
X17155Y93703D01*
X17229Y93693D01*
Y93713D01*
X18740D01*
X19278Y93820D01*
X19734Y94125D01*
X26387Y100778D01*
X26692Y101234D01*
X26799Y101772D01*
X26799Y101772D01*
X26799Y101772D01*
Y101772D01*
Y111423D01*
X26806D01*
X26799Y111497D01*
Y111529D01*
X26932Y112539D01*
X27282Y113386D01*
X29134D01*
Y122047D01*
X21654D01*
D01*
X21654D01*
X21484Y122217D01*
Y123228D01*
X21654D01*
Y123228D01*
X29134D01*
Y131890D01*
X21654D01*
Y128964D01*
X21654D01*
X21116Y128857D01*
X20696Y129081D01*
Y134851D01*
X21192Y135346D01*
X21654Y135155D01*
Y133071D01*
X29134D01*
Y141732D01*
D01*
Y141732D01*
X29134Y141732D01*
X33071D01*
X33071Y141732D01*
X33071Y141379D01*
X33071Y141379D01*
X33071D01*
Y133071D01*
X40551D01*
Y135513D01*
X41398Y135864D01*
X42408Y135997D01*
X42440D01*
X42514Y135989D01*
Y135997D01*
X45875D01*
X48219Y133652D01*
X48675Y133348D01*
X49213Y133241D01*
X57874D01*
Y132677D01*
X64961D01*
Y136614D01*
X57874D01*
Y136051D01*
X49795D01*
X47450Y138395D01*
X46994Y138700D01*
X46457Y138806D01*
X42514D01*
Y138814D01*
X42440Y138806D01*
X42408D01*
X41398Y138940D01*
X40551Y139290D01*
Y141379D01*
X40551Y141379D01*
X40551D01*
X40551Y141732D01*
X40551Y141732D01*
X198819D01*
Y2362D01*
D02*
G37*
G36*
X18674Y114498D02*
Y104125D01*
X16659Y102110D01*
X16205Y102201D01*
X15434Y102716D01*
X15386Y102778D01*
X15388Y102780D01*
X15379Y102793D01*
X15371Y102798D01*
X15365Y102806D01*
X14935Y103136D01*
Y103636D01*
X15365Y103966D01*
X15854Y104603D01*
X16162Y105345D01*
X16266Y106142D01*
X16162Y106938D01*
X15854Y107680D01*
X15365Y108318D01*
X14935Y108648D01*
Y109148D01*
X15365Y109477D01*
X15854Y110115D01*
X16162Y110857D01*
X16265Y111644D01*
X16267Y111653D01*
X16268D01*
X16357Y112335D01*
X16621Y112971D01*
X16994Y113458D01*
X17053Y113503D01*
Y113503D01*
Y113530D01*
X18212Y114690D01*
X18674Y114498D01*
D02*
G37*
%LPC*%
G36*
X71941Y68398D02*
X68882D01*
Y65339D01*
X71941D01*
Y68398D01*
D02*
G37*
G36*
X49106Y72918D02*
X48549Y72845D01*
X47563Y72436D01*
X46717Y71787D01*
X46068Y70941D01*
X45659Y69955D01*
X45586Y69398D01*
X49106D01*
Y72918D01*
D02*
G37*
G36*
X80315Y72273D02*
X79441Y72158D01*
X78627Y71821D01*
X77928Y71284D01*
X77392Y70585D01*
X77055Y69771D01*
X76940Y68898D01*
X77055Y68024D01*
X77392Y67210D01*
X77928Y66511D01*
X78627Y65974D01*
X79441Y65637D01*
X80315Y65522D01*
X81189Y65637D01*
X82003Y65974D01*
X82702Y66511D01*
X83238Y67210D01*
X83575Y68024D01*
X83690Y68898D01*
X83575Y69771D01*
X83238Y70585D01*
X82702Y71284D01*
X82003Y71821D01*
X81189Y72158D01*
X80315Y72273D01*
D02*
G37*
G36*
X76000Y68398D02*
X72941D01*
Y65339D01*
X76000D01*
Y68398D01*
D02*
G37*
G36*
X53627D02*
X50106D01*
Y64877D01*
X50664Y64951D01*
X51649Y65359D01*
X52496Y66008D01*
X53145Y66855D01*
X53553Y67840D01*
X53627Y68398D01*
D02*
G37*
G36*
X49106D02*
X45586D01*
X45659Y67840D01*
X46068Y66855D01*
X46717Y66008D01*
X47563Y65359D01*
X48549Y64951D01*
X49106Y64877D01*
Y68398D01*
D02*
G37*
G36*
X118405Y72736D02*
X110728D01*
Y65059D01*
X118405D01*
Y72736D01*
D02*
G37*
G36*
X29921Y72769D02*
X28919Y72637D01*
X27985Y72251D01*
X27184Y71635D01*
X26568Y70833D01*
X26182Y69900D01*
X26050Y68898D01*
X26182Y67896D01*
X26568Y66962D01*
X27184Y66160D01*
X27985Y65545D01*
X28919Y65158D01*
X29921Y65026D01*
X30923Y65158D01*
X31857Y65545D01*
X32659Y66160D01*
X33274Y66962D01*
X33661Y67896D01*
X33793Y68898D01*
X33661Y69900D01*
X33274Y70833D01*
X32659Y71635D01*
X31857Y72251D01*
X30923Y72637D01*
X29921Y72769D01*
D02*
G37*
G36*
X89370Y102139D02*
X88368Y102007D01*
X87434Y101621D01*
X86632Y101005D01*
X86017Y100204D01*
X85630Y99270D01*
X85498Y98268D01*
X85630Y97266D01*
X86017Y96332D01*
X86632Y95530D01*
X87434Y94915D01*
X88368Y94528D01*
X89370Y94396D01*
X90372Y94528D01*
X91306Y94915D01*
X92108Y95530D01*
X92723Y96332D01*
X93110Y97266D01*
X93242Y98268D01*
X93110Y99270D01*
X92723Y100204D01*
X92108Y101005D01*
X91306Y101621D01*
X90372Y102007D01*
X89370Y102139D01*
D02*
G37*
G36*
X69370D02*
X68368Y102007D01*
X67434Y101621D01*
X66632Y101005D01*
X66017Y100204D01*
X65630Y99270D01*
X65498Y98268D01*
X65630Y97266D01*
X66017Y96332D01*
X66632Y95530D01*
X67434Y94915D01*
X68368Y94528D01*
X69370Y94396D01*
X70372Y94528D01*
X71306Y94915D01*
X72108Y95530D01*
X72723Y96332D01*
X73110Y97266D01*
X73242Y98268D01*
X73110Y99270D01*
X72723Y100204D01*
X72108Y101005D01*
X71306Y101621D01*
X70372Y102007D01*
X69370Y102139D01*
D02*
G37*
G36*
X99370D02*
X98368Y102007D01*
X97434Y101621D01*
X96632Y101005D01*
X96017Y100204D01*
X95630Y99270D01*
X95498Y98268D01*
X95630Y97266D01*
X96017Y96332D01*
X96632Y95530D01*
X97434Y94915D01*
X98368Y94528D01*
X99370Y94396D01*
X100372Y94528D01*
X101306Y94915D01*
X102108Y95530D01*
X102723Y96332D01*
X103110Y97266D01*
X103242Y98268D01*
X103110Y99270D01*
X102723Y100204D01*
X102108Y101005D01*
X101306Y101621D01*
X100372Y102007D01*
X99370Y102139D01*
D02*
G37*
G36*
X119370D02*
X118368Y102007D01*
X117434Y101621D01*
X116632Y101005D01*
X116017Y100204D01*
X115630Y99270D01*
X115498Y98268D01*
X115630Y97266D01*
X116017Y96332D01*
X116632Y95530D01*
X117434Y94915D01*
X118368Y94528D01*
X119370Y94396D01*
X120372Y94528D01*
X121306Y94915D01*
X122108Y95530D01*
X122723Y96332D01*
X123110Y97266D01*
X123242Y98268D01*
X123110Y99270D01*
X122723Y100204D01*
X122108Y101005D01*
X121306Y101621D01*
X120372Y102007D01*
X119370Y102139D01*
D02*
G37*
G36*
X109370D02*
X108368Y102007D01*
X107434Y101621D01*
X106632Y101005D01*
X106017Y100204D01*
X105630Y99270D01*
X105498Y98268D01*
X105630Y97266D01*
X106017Y96332D01*
X106632Y95530D01*
X107434Y94915D01*
X108368Y94528D01*
X109370Y94396D01*
X110372Y94528D01*
X111306Y94915D01*
X112108Y95530D01*
X112723Y96332D01*
X113110Y97266D01*
X113242Y98268D01*
X113110Y99270D01*
X112723Y100204D01*
X112108Y101005D01*
X111306Y101621D01*
X110372Y102007D01*
X109370Y102139D01*
D02*
G37*
G36*
X71941Y72457D02*
X68882D01*
Y69398D01*
X71941D01*
Y72457D01*
D02*
G37*
G36*
X50106Y72918D02*
Y69398D01*
X53627D01*
X53553Y69955D01*
X53145Y70941D01*
X52496Y71787D01*
X51649Y72436D01*
X50664Y72845D01*
X50106Y72918D01*
D02*
G37*
G36*
X76000Y72457D02*
X72941D01*
Y69398D01*
X76000D01*
Y72457D01*
D02*
G37*
G36*
X149721Y72949D02*
X146169D01*
Y69398D01*
X149721D01*
Y72949D01*
D02*
G37*
G36*
X145169D02*
X141618D01*
Y69398D01*
X145169D01*
Y72949D01*
D02*
G37*
G36*
X149721Y68398D02*
X146169D01*
Y64846D01*
X149721D01*
Y68398D01*
D02*
G37*
G36*
X29921Y47572D02*
X28919Y47441D01*
X27985Y47054D01*
X27184Y46439D01*
X26568Y45637D01*
X26182Y44703D01*
X26050Y43701D01*
X26182Y42699D01*
X26568Y41765D01*
X27184Y40963D01*
X27985Y40348D01*
X28919Y39961D01*
X29921Y39829D01*
X30923Y39961D01*
X31857Y40348D01*
X32659Y40963D01*
X33274Y41765D01*
X33661Y42699D01*
X33793Y43701D01*
X33661Y44703D01*
X33274Y45637D01*
X32659Y46439D01*
X31857Y47054D01*
X30923Y47441D01*
X29921Y47572D01*
D02*
G37*
G36*
X53627Y43201D02*
X50106D01*
Y39680D01*
X50664Y39754D01*
X51649Y40162D01*
X52496Y40811D01*
X53145Y41658D01*
X53553Y42643D01*
X53627Y43201D01*
D02*
G37*
G36*
X118405Y47539D02*
X110728D01*
Y39862D01*
X118405D01*
Y47539D01*
D02*
G37*
G36*
X23917D02*
X16240D01*
Y39862D01*
X23917D01*
Y47539D01*
D02*
G37*
G36*
X49106Y43201D02*
X45586D01*
X45659Y42643D01*
X46068Y41658D01*
X46717Y40811D01*
X47563Y40162D01*
X48549Y39754D01*
X49106Y39680D01*
Y43201D01*
D02*
G37*
G36*
X189409Y18536D02*
X188097Y18407D01*
X186836Y18024D01*
X185673Y17403D01*
X184654Y16567D01*
X183818Y15547D01*
X183196Y14385D01*
X182813Y13123D01*
X182684Y11811D01*
X182813Y10499D01*
X183196Y9237D01*
X183818Y8075D01*
X184654Y7056D01*
X185673Y6219D01*
X186836Y5598D01*
X188097Y5215D01*
X189409Y5086D01*
X190721Y5215D01*
X191983Y5598D01*
X193146Y6219D01*
X194165Y7056D01*
X195001Y8075D01*
X195623Y9237D01*
X196005Y10499D01*
X196135Y11811D01*
X196005Y13123D01*
X195623Y14385D01*
X195001Y15547D01*
X194165Y16567D01*
X193146Y17403D01*
X191983Y18024D01*
X190721Y18407D01*
X189409Y18536D01*
D02*
G37*
G36*
X11811D02*
X10499Y18407D01*
X9237Y18024D01*
X8075Y17403D01*
X7056Y16567D01*
X6219Y15547D01*
X5598Y14385D01*
X5215Y13123D01*
X5086Y11811D01*
X5215Y10499D01*
X5598Y9237D01*
X6219Y8075D01*
X7056Y7056D01*
X8075Y6219D01*
X9237Y5598D01*
X10499Y5215D01*
X11811Y5086D01*
X13123Y5215D01*
X14385Y5598D01*
X15547Y6219D01*
X16567Y7056D01*
X17403Y8075D01*
X18024Y9237D01*
X18407Y10499D01*
X18536Y11811D01*
X18407Y13123D01*
X18024Y14385D01*
X17403Y15547D01*
X16567Y16567D01*
X15547Y17403D01*
X14385Y18024D01*
X13123Y18407D01*
X11811Y18536D01*
D02*
G37*
G36*
X149721Y43201D02*
X146169D01*
Y39650D01*
X149721D01*
Y43201D01*
D02*
G37*
G36*
X145169D02*
X141618D01*
Y39650D01*
X145169D01*
Y43201D01*
D02*
G37*
G36*
X71941D02*
X68882D01*
Y40142D01*
X71941D01*
Y43201D01*
D02*
G37*
G36*
X145169Y47752D02*
X141618D01*
Y44201D01*
X145169D01*
Y47752D01*
D02*
G37*
G36*
X76000Y47260D02*
X72941D01*
Y44201D01*
X76000D01*
Y47260D01*
D02*
G37*
G36*
X145169Y68398D02*
X141618D01*
Y64846D01*
X145169D01*
Y68398D01*
D02*
G37*
G36*
X149721Y47752D02*
X146169D01*
Y44201D01*
X149721D01*
Y47752D01*
D02*
G37*
G36*
X71941Y47260D02*
X68882D01*
Y44201D01*
X71941D01*
Y47260D01*
D02*
G37*
G36*
X80315Y47076D02*
X79441Y46961D01*
X78627Y46624D01*
X77928Y46088D01*
X77392Y45388D01*
X77055Y44574D01*
X76940Y43701D01*
X77055Y42827D01*
X77392Y42013D01*
X77928Y41314D01*
X78627Y40778D01*
X79441Y40440D01*
X80315Y40325D01*
X81189Y40440D01*
X82003Y40778D01*
X82702Y41314D01*
X83238Y42013D01*
X83575Y42827D01*
X83690Y43701D01*
X83575Y44574D01*
X83238Y45388D01*
X82702Y46088D01*
X82003Y46624D01*
X81189Y46961D01*
X80315Y47076D01*
D02*
G37*
G36*
X76000Y43201D02*
X72941D01*
Y40142D01*
X76000D01*
Y43201D01*
D02*
G37*
G36*
X50106Y47721D02*
Y44201D01*
X53627D01*
X53553Y44758D01*
X53145Y45744D01*
X52496Y46590D01*
X51649Y47240D01*
X50664Y47648D01*
X50106Y47721D01*
D02*
G37*
G36*
X49106D02*
X48549Y47648D01*
X47563Y47240D01*
X46717Y46590D01*
X46068Y45744D01*
X45659Y44758D01*
X45586Y44201D01*
X49106D01*
Y47721D01*
D02*
G37*
G36*
X75878Y141157D02*
X73409D01*
Y140567D01*
X70185D01*
Y138386D01*
Y136205D01*
X73409D01*
Y135221D01*
X75878D01*
Y138189D01*
Y141157D01*
D02*
G37*
G36*
X90551Y136614D02*
X83465D01*
Y132677D01*
X85603D01*
Y131291D01*
X83276Y128964D01*
X82661D01*
X82516Y129443D01*
X82664Y129541D01*
X83142Y130257D01*
X83310Y131102D01*
X83142Y131947D01*
X82664Y132664D01*
X81947Y133142D01*
X81102Y133310D01*
X80257Y133142D01*
X79832Y132858D01*
X79354Y133003D01*
X79134Y133534D01*
Y133858D01*
X73622D01*
Y132874D01*
X73228D01*
Y132874D01*
X66142D01*
Y128964D01*
X42514D01*
Y128971D01*
X42440Y128964D01*
X42408D01*
X41398Y129097D01*
X40551Y129448D01*
Y131890D01*
X33071D01*
Y123228D01*
X40551D01*
Y125670D01*
X41398Y126021D01*
X42408Y126154D01*
X42440D01*
X42514Y126147D01*
Y126154D01*
X50286D01*
X50477Y125692D01*
X43906Y119122D01*
X42514D01*
Y119129D01*
X42440Y119122D01*
X42408D01*
X41398Y119255D01*
X40551Y119605D01*
Y122047D01*
X33071D01*
Y113386D01*
X40551D01*
Y115828D01*
X41398Y116179D01*
X42408Y116312D01*
X42440D01*
X42514Y116304D01*
Y116312D01*
X43922D01*
X44114Y115850D01*
X40370Y112106D01*
X35531D01*
Y104429D01*
X42658D01*
X43101Y103986D01*
X42796Y103530D01*
X42689Y102992D01*
Y101025D01*
X42216Y100864D01*
X42108Y101005D01*
X41306Y101621D01*
X40372Y102007D01*
X39370Y102139D01*
X38368Y102007D01*
X37434Y101621D01*
X36632Y101005D01*
X36017Y100204D01*
X35630Y99270D01*
X35498Y98268D01*
X35630Y97266D01*
X36017Y96332D01*
X36632Y95530D01*
X37434Y94915D01*
X38368Y94528D01*
X39370Y94396D01*
X40372Y94528D01*
X41306Y94915D01*
X42108Y95530D01*
X42216Y95671D01*
X42689Y95510D01*
Y94676D01*
X33276Y85263D01*
X24803D01*
X24265Y85156D01*
X23810Y84852D01*
X13574Y74616D01*
X13269Y74160D01*
X13162Y73622D01*
Y62992D01*
X13162Y62992D01*
X13162D01*
X13269Y62454D01*
X13574Y61999D01*
X20660Y54912D01*
X20660Y54912D01*
X20660D01*
X20660Y54912D01*
X20660D01*
X20660Y54912D01*
Y54912D01*
Y54912D01*
D01*
D01*
X20660D01*
Y54912D01*
X21116Y54607D01*
X21654Y54501D01*
X83670D01*
X86784Y51386D01*
Y48453D01*
X86781D01*
X86784Y48426D01*
Y48410D01*
X86676Y47585D01*
X86340Y46777D01*
X85825Y46105D01*
X85802Y46088D01*
X85266Y45388D01*
X84929Y44574D01*
X84814Y43701D01*
X84929Y42827D01*
X85266Y42013D01*
X85802Y41314D01*
X86501Y40778D01*
X87315Y40440D01*
X88189Y40325D01*
X89063Y40440D01*
X89877Y40778D01*
X90576Y41314D01*
X91112Y42013D01*
X91449Y42827D01*
X91564Y43701D01*
X91449Y44574D01*
X91112Y45388D01*
X90576Y46088D01*
X90553Y46105D01*
X90038Y46777D01*
X89702Y47585D01*
X89594Y48410D01*
Y48426D01*
X89597Y48453D01*
X89594D01*
Y51968D01*
X89487Y52506D01*
X89182Y52962D01*
X86239Y55905D01*
X89182Y58849D01*
X89487Y59305D01*
X89594Y59842D01*
Y64145D01*
X89597D01*
X89594Y64172D01*
Y64188D01*
X89702Y65013D01*
X90038Y65822D01*
X90553Y66493D01*
X90576Y66511D01*
X91112Y67210D01*
X91449Y68024D01*
X91564Y68898D01*
X91449Y69771D01*
X91112Y70585D01*
X90576Y71284D01*
X89877Y71821D01*
X89063Y72158D01*
X88189Y72273D01*
X87315Y72158D01*
X86501Y71821D01*
X85802Y71284D01*
X85266Y70585D01*
X84929Y69771D01*
X84814Y68898D01*
X84929Y68024D01*
X85266Y67210D01*
X85802Y66511D01*
X85825Y66493D01*
X86340Y65822D01*
X86676Y65013D01*
X86784Y64188D01*
Y64172D01*
X86781Y64145D01*
X86784D01*
Y60425D01*
X83670Y57310D01*
X22235D01*
X15972Y63574D01*
Y65059D01*
X15972D01*
X16240D01*
X16325Y65059D01*
X16326Y65059D01*
Y65059D01*
X23917D01*
Y72736D01*
X16326D01*
X16325Y72736D01*
Y72736D01*
X16321D01*
X16130Y73198D01*
X25385Y82453D01*
X33858D01*
X34396Y82560D01*
X34852Y82865D01*
X45088Y93101D01*
X45393Y93557D01*
X45499Y94095D01*
Y96300D01*
X45990Y96398D01*
X46017Y96332D01*
X46632Y95530D01*
X47434Y94915D01*
X48368Y94528D01*
X49370Y94396D01*
X50372Y94528D01*
X51306Y94915D01*
X52108Y95530D01*
X52723Y96332D01*
X53110Y97266D01*
X53242Y98268D01*
X53110Y99270D01*
X52723Y100204D01*
X52108Y101005D01*
X51306Y101621D01*
X50372Y102007D01*
X49370Y102139D01*
X48368Y102007D01*
X47434Y101621D01*
X46632Y101005D01*
X46017Y100204D01*
X45990Y100138D01*
X45499Y100235D01*
Y102410D01*
X46163Y103074D01*
X46169Y103068D01*
X46223Y103134D01*
X46249Y103159D01*
X47094Y103808D01*
X48192Y104263D01*
X49286Y104407D01*
X49370Y104396D01*
X50372Y104528D01*
X51306Y104915D01*
X52108Y105530D01*
X52723Y106332D01*
X53110Y107266D01*
X53242Y108268D01*
X53110Y109270D01*
X52723Y110204D01*
X52108Y111005D01*
X51306Y111621D01*
X50372Y112007D01*
X49370Y112139D01*
X48368Y112007D01*
X47434Y111621D01*
X46632Y111005D01*
X46017Y110204D01*
X45630Y109270D01*
X45498Y108268D01*
X45509Y108184D01*
X45365Y107090D01*
X44911Y105992D01*
X44262Y105146D01*
X44236Y105121D01*
X44170Y105067D01*
Y105067D01*
Y105055D01*
X43671Y104555D01*
X43209Y104746D01*
Y109268D01*
X47288Y113347D01*
X51452D01*
X55619Y109181D01*
X55498Y108268D01*
X55630Y107266D01*
X56017Y106332D01*
X56590Y105585D01*
Y100951D01*
X56017Y100204D01*
X55630Y99270D01*
X55498Y98268D01*
X55630Y97266D01*
X56017Y96332D01*
X56590Y95585D01*
Y93199D01*
X53967Y90575D01*
X45669D01*
X44950Y90480D01*
X44280Y90202D01*
X43704Y89761D01*
X37798Y83855D01*
X37356Y83280D01*
X37079Y82609D01*
X36984Y81890D01*
Y71581D01*
X36411Y70833D01*
X36024Y69900D01*
X35892Y68898D01*
X36024Y67896D01*
X36411Y66962D01*
X37026Y66160D01*
X37828Y65545D01*
X38762Y65158D01*
X39764Y65026D01*
X40766Y65158D01*
X41700Y65545D01*
X42502Y66160D01*
X43117Y66962D01*
X43504Y67896D01*
X43635Y68898D01*
X43504Y69900D01*
X43117Y70833D01*
X42544Y71581D01*
Y80738D01*
X46821Y85016D01*
X55118D01*
X55838Y85110D01*
X56508Y85388D01*
X57084Y85830D01*
X61336Y90082D01*
X61777Y90657D01*
X62055Y91328D01*
X62150Y92047D01*
Y95585D01*
X62723Y96332D01*
X63110Y97266D01*
X63242Y98268D01*
X63110Y99270D01*
X62723Y100204D01*
X62150Y100951D01*
Y105488D01*
X66687D01*
X67434Y104915D01*
X68368Y104528D01*
X69370Y104396D01*
X70372Y104528D01*
X71306Y104915D01*
X72108Y105530D01*
X72723Y106332D01*
X72908Y106778D01*
X73398Y106680D01*
Y102835D01*
X73505Y102297D01*
X73810Y101841D01*
X74176Y101475D01*
X74170Y101469D01*
X74237Y101414D01*
X74262Y101389D01*
X74911Y100543D01*
X75365Y99446D01*
X75509Y98352D01*
X75498Y98268D01*
X75630Y97266D01*
X76017Y96332D01*
X76632Y95530D01*
X77434Y94915D01*
X78368Y94528D01*
X79370Y94396D01*
X80372Y94528D01*
X81306Y94915D01*
X82108Y95530D01*
X82723Y96332D01*
X83110Y97266D01*
X83242Y98268D01*
X83110Y99270D01*
X82723Y100204D01*
X82108Y101005D01*
X81306Y101621D01*
X80372Y102007D01*
X79370Y102139D01*
X79286Y102128D01*
X78192Y102272D01*
X77094Y102727D01*
X76249Y103376D01*
X76223Y103401D01*
X76208Y103420D01*
Y105290D01*
X76657Y105511D01*
X77434Y104915D01*
X78368Y104528D01*
X79370Y104396D01*
X80372Y104528D01*
X81306Y104915D01*
X82108Y105530D01*
X82723Y106332D01*
X83110Y107266D01*
X83242Y108268D01*
X83110Y109270D01*
X82723Y110204D01*
X82108Y111005D01*
X81306Y111621D01*
X80372Y112007D01*
X79370Y112139D01*
X78368Y112007D01*
X77434Y111621D01*
X76657Y111024D01*
X76208Y111245D01*
Y112804D01*
X78535Y115130D01*
X117323D01*
X117860Y115237D01*
X118316Y115542D01*
X128552Y125778D01*
X128857Y126234D01*
X128964Y126772D01*
Y127776D01*
X128978D01*
X128966Y127860D01*
X129063Y128347D01*
X130315D01*
Y133858D01*
X124803D01*
Y132874D01*
X124409D01*
Y132874D01*
X117323D01*
Y128937D01*
X124409D01*
Y128937D01*
X124450D01*
X124803Y128583D01*
Y128347D01*
X126055D01*
X126152Y127860D01*
X126140Y127776D01*
X126154D01*
Y127354D01*
X116741Y117940D01*
X77953D01*
X77415Y117833D01*
X76959Y117529D01*
X73810Y114379D01*
X73505Y113924D01*
X73398Y113386D01*
Y109855D01*
X72908Y109758D01*
X72723Y110204D01*
X72108Y111005D01*
X71306Y111621D01*
X70372Y112007D01*
X69370Y112139D01*
X68368Y112007D01*
X67434Y111621D01*
X66687Y111047D01*
X62053D01*
X61306Y111621D01*
X60372Y112007D01*
X59370Y112139D01*
X58457Y112019D01*
X53703Y116773D01*
X53052Y117209D01*
X52284Y117361D01*
X46773D01*
X46582Y117823D01*
X52944Y124186D01*
X108268D01*
X108805Y124293D01*
X109261Y124597D01*
X113592Y128928D01*
X113896Y129384D01*
X114003Y129921D01*
X114003Y129921D01*
X114003Y129921D01*
Y129921D01*
Y132677D01*
X116142D01*
Y136614D01*
X109055D01*
Y132936D01*
X109014Y132908D01*
Y132908D01*
X108950Y132865D01*
D01*
X108638Y132699D01*
Y132699D01*
X108614Y132686D01*
X107931Y133142D01*
X107087Y133310D01*
X106242Y133142D01*
X105526Y132664D01*
X105497Y132620D01*
X105239Y132514D01*
X105211Y132510D01*
X104724Y132607D01*
Y133858D01*
X99213D01*
Y132874D01*
X98819D01*
D01*
D01*
X98819D01*
Y132874D01*
X91732D01*
Y128937D01*
X98819D01*
Y128937D01*
X98859D01*
X99213Y128584D01*
Y128347D01*
X104724D01*
Y129598D01*
X105211Y129695D01*
X105239Y129691D01*
X105497Y129585D01*
X105526Y129541D01*
X106242Y129063D01*
X107087Y128895D01*
X107931Y129063D01*
X108648Y129541D01*
X109126Y130257D01*
X109294Y131102D01*
X109126Y131947D01*
X108933Y132236D01*
X108991Y132345D01*
X108991Y132345D01*
X109158Y132657D01*
X109169Y132677D01*
X111194D01*
Y130503D01*
X107686Y126996D01*
X85935D01*
X85744Y127457D01*
X88001Y129715D01*
X88306Y130171D01*
X88413Y130709D01*
X88413Y130709D01*
X88413Y130709D01*
Y130709D01*
Y132677D01*
X90551D01*
Y136614D01*
D02*
G37*
G36*
X79347Y137689D02*
X76878D01*
Y135221D01*
X79347D01*
Y137689D01*
D02*
G37*
G36*
X130527Y137689D02*
X128059D01*
Y135221D01*
X130527D01*
Y137689D01*
D02*
G37*
G36*
X127059Y141157D02*
X124591D01*
Y140567D01*
X121366D01*
Y138386D01*
Y136205D01*
X124591D01*
Y135221D01*
X127059D01*
Y138189D01*
Y141157D01*
D02*
G37*
G36*
X189409Y139245D02*
X188097Y139116D01*
X186836Y138733D01*
X185673Y138111D01*
X184654Y137275D01*
X183817Y136256D01*
X183196Y135093D01*
X182813Y133832D01*
X182684Y132520D01*
X182813Y131208D01*
X183196Y129946D01*
X183817Y128783D01*
X184654Y127764D01*
X185673Y126928D01*
X186836Y126306D01*
X188097Y125924D01*
X189409Y125794D01*
X190721Y125924D01*
X191983Y126306D01*
X193146Y126928D01*
X194165Y127764D01*
X195001Y128783D01*
X195623Y129946D01*
X196005Y131208D01*
X196135Y132520D01*
X196005Y133832D01*
X195623Y135093D01*
X195001Y136256D01*
X194165Y137275D01*
X193146Y138111D01*
X191983Y138733D01*
X190721Y139116D01*
X189409Y139245D01*
D02*
G37*
G36*
X118870Y112288D02*
X118313Y112215D01*
X117327Y111806D01*
X116481Y111157D01*
X115831Y110311D01*
X115423Y109325D01*
X115350Y108768D01*
X118870D01*
Y112288D01*
D02*
G37*
G36*
X109870D02*
Y108768D01*
X113390D01*
X113317Y109325D01*
X112909Y110311D01*
X112259Y111157D01*
X111413Y111806D01*
X110428Y112215D01*
X109870Y112288D01*
D02*
G37*
G36*
X119870D02*
Y108768D01*
X123390D01*
X123317Y109325D01*
X122909Y110311D01*
X122259Y111157D01*
X121413Y111806D01*
X120428Y112215D01*
X119870Y112288D01*
D02*
G37*
G36*
X129870D02*
Y108768D01*
X133390D01*
X133317Y109325D01*
X132909Y110311D01*
X132259Y111157D01*
X131413Y111806D01*
X130428Y112215D01*
X129870Y112288D01*
D02*
G37*
G36*
X128870D02*
X128313Y112215D01*
X127327Y111806D01*
X126481Y111157D01*
X125831Y110311D01*
X125423Y109325D01*
X125350Y108768D01*
X128870D01*
Y112288D01*
D02*
G37*
G36*
X104937Y141157D02*
X102469D01*
Y138689D01*
X104937D01*
Y141157D01*
D02*
G37*
G36*
X130527Y141157D02*
X128059D01*
Y138689D01*
X130527D01*
Y141157D01*
D02*
G37*
G36*
X69185Y140567D02*
X65929D01*
Y138886D01*
X69185D01*
Y140567D01*
D02*
G37*
G36*
X94776Y140567D02*
X91520D01*
Y138886D01*
X94776D01*
Y140567D01*
D02*
G37*
G36*
X120366Y140567D02*
X117110D01*
Y138886D01*
X120366D01*
Y140567D01*
D02*
G37*
G36*
X79347Y141157D02*
X76878D01*
Y138689D01*
X79347D01*
Y141157D01*
D02*
G37*
G36*
X104937Y137689D02*
X102469D01*
Y135221D01*
X104937D01*
Y137689D01*
D02*
G37*
G36*
X101469Y141157D02*
X99000D01*
Y140567D01*
X95776D01*
Y138386D01*
Y136205D01*
X99000D01*
Y135221D01*
X101469D01*
Y138189D01*
Y141157D01*
D02*
G37*
G36*
X69185Y137886D02*
X65929D01*
Y136205D01*
X69185D01*
Y137886D01*
D02*
G37*
G36*
X94776Y137886D02*
X91520D01*
Y136205D01*
X94776D01*
Y137886D01*
D02*
G37*
G36*
X120366Y137886D02*
X117110D01*
Y136205D01*
X120366D01*
Y137886D01*
D02*
G37*
G36*
X108870Y107768D02*
X105350D01*
X105423Y107210D01*
X105831Y106225D01*
X106481Y105378D01*
X107327Y104729D01*
X108312Y104321D01*
X108870Y104247D01*
Y107768D01*
D02*
G37*
G36*
X103390D02*
X99870D01*
Y104247D01*
X100428Y104321D01*
X101413Y104729D01*
X102259Y105378D01*
X102909Y106225D01*
X103317Y107210D01*
X103390Y107768D01*
D02*
G37*
G36*
X118870D02*
X115350D01*
X115423Y107210D01*
X115831Y106225D01*
X116481Y105378D01*
X117327Y104729D01*
X118313Y104321D01*
X118870Y104247D01*
Y107768D01*
D02*
G37*
G36*
X113390D02*
X109870D01*
Y104247D01*
X110428Y104321D01*
X111413Y104729D01*
X112259Y105378D01*
X112909Y106225D01*
X113317Y107210D01*
X113390Y107768D01*
D02*
G37*
G36*
X139370Y102139D02*
X138368Y102007D01*
X137434Y101621D01*
X136632Y101005D01*
X136017Y100204D01*
X135630Y99270D01*
X135498Y98268D01*
X135630Y97266D01*
X136017Y96332D01*
X136632Y95530D01*
X137434Y94915D01*
X138368Y94528D01*
X139370Y94396D01*
X140372Y94528D01*
X141306Y94915D01*
X142108Y95530D01*
X142723Y96332D01*
X143110Y97266D01*
X143242Y98268D01*
X143110Y99270D01*
X142723Y100204D01*
X142108Y101005D01*
X141306Y101621D01*
X140372Y102007D01*
X139370Y102139D01*
D02*
G37*
G36*
X129370D02*
X128368Y102007D01*
X127434Y101621D01*
X126632Y101005D01*
X126017Y100204D01*
X125630Y99270D01*
X125498Y98268D01*
X125630Y97266D01*
X126017Y96332D01*
X126632Y95530D01*
X127434Y94915D01*
X128368Y94528D01*
X129370Y94396D01*
X130372Y94528D01*
X131306Y94915D01*
X132108Y95530D01*
X132723Y96332D01*
X133110Y97266D01*
X133242Y98268D01*
X133110Y99270D01*
X132723Y100204D01*
X132108Y101005D01*
X131306Y101621D01*
X130372Y102007D01*
X129370Y102139D01*
D02*
G37*
G36*
X98870Y107768D02*
X95350D01*
X95423Y107210D01*
X95831Y106225D01*
X96481Y105378D01*
X97327Y104729D01*
X98312Y104321D01*
X98870Y104247D01*
Y107768D01*
D02*
G37*
G36*
X179370Y112139D02*
X178368Y112007D01*
X177434Y111621D01*
X176632Y111005D01*
X176017Y110204D01*
X175630Y109270D01*
X175498Y108268D01*
X175630Y107266D01*
X176017Y106332D01*
X176632Y105530D01*
X177434Y104915D01*
X178368Y104528D01*
X179370Y104396D01*
X179454Y104407D01*
X180548Y104263D01*
X181646Y103808D01*
X182492Y103159D01*
X182517Y103134D01*
X182571Y103068D01*
X182577Y103074D01*
X183634Y102016D01*
Y99108D01*
X183135Y99075D01*
X183110Y99270D01*
X182723Y100204D01*
X182108Y101005D01*
X181306Y101621D01*
X180372Y102007D01*
X179370Y102139D01*
X178368Y102007D01*
X177434Y101621D01*
X176632Y101005D01*
X176288Y100557D01*
X175814Y100717D01*
Y103228D01*
X175707Y103766D01*
X175403Y104222D01*
X174564Y105061D01*
X174570Y105067D01*
X174504Y105121D01*
X174478Y105146D01*
X173829Y105992D01*
X173375Y107090D01*
X173231Y108184D01*
X173242Y108268D01*
X173110Y109270D01*
X172723Y110204D01*
X172108Y111005D01*
X171306Y111621D01*
X170372Y112007D01*
X169370Y112139D01*
X168368Y112007D01*
X167434Y111621D01*
X166632Y111005D01*
X166017Y110204D01*
X165630Y109270D01*
X165498Y108268D01*
X165630Y107266D01*
X166017Y106332D01*
X166632Y105530D01*
X167434Y104915D01*
X168368Y104528D01*
X169370Y104396D01*
X169454Y104407D01*
X170548Y104263D01*
X171646Y103808D01*
X172492Y103159D01*
X172517Y103134D01*
X172571Y103068D01*
X172577Y103074D01*
X173004Y102646D01*
Y100615D01*
X172531Y100454D01*
X172108Y101005D01*
X171306Y101621D01*
X170372Y102007D01*
X169370Y102139D01*
X168368Y102007D01*
X167434Y101621D01*
X166632Y101005D01*
X166052Y100249D01*
X165578Y100409D01*
Y103465D01*
X165471Y104002D01*
X165167Y104458D01*
X164564Y105061D01*
X164570Y105067D01*
X164504Y105121D01*
X164479Y105146D01*
X163830Y105992D01*
X163375Y107090D01*
X163231Y108184D01*
X163242Y108268D01*
X163110Y109270D01*
X162723Y110204D01*
X162108Y111005D01*
X161306Y111621D01*
X160372Y112007D01*
X159370Y112139D01*
X158368Y112007D01*
X157434Y111621D01*
X156632Y111005D01*
X156017Y110204D01*
X155630Y109270D01*
X155498Y108268D01*
X155630Y107266D01*
X156017Y106332D01*
X156632Y105530D01*
X157434Y104915D01*
X158368Y104528D01*
X159370Y104396D01*
X159454Y104407D01*
X160548Y104263D01*
X161646Y103808D01*
X162492Y103159D01*
X162517Y103134D01*
X162571Y103068D01*
X162577Y103074D01*
X162768Y102883D01*
Y100922D01*
X162295Y100762D01*
X162108Y101005D01*
X161306Y101621D01*
X160372Y102007D01*
X159370Y102139D01*
X158368Y102007D01*
X157434Y101621D01*
X156632Y101005D01*
X156410Y100715D01*
X155936Y100876D01*
Y103307D01*
X155936Y103307D01*
X155834Y103820D01*
X155814Y103922D01*
X155466Y104443D01*
X154370Y105539D01*
X154370Y105539D01*
X154372Y105541D01*
X154347Y105562D01*
X154295Y105614D01*
X153744Y106331D01*
X153358Y107265D01*
X153234Y108206D01*
X153242Y108268D01*
X153110Y109270D01*
X152723Y110204D01*
X152108Y111005D01*
X151306Y111621D01*
X150372Y112007D01*
X149370Y112139D01*
X148368Y112007D01*
X147434Y111621D01*
X146632Y111005D01*
X146017Y110204D01*
X145630Y109270D01*
X145498Y108268D01*
X145630Y107266D01*
X146017Y106332D01*
X146632Y105530D01*
X147434Y104915D01*
X148368Y104528D01*
X149370Y104396D01*
X149432Y104404D01*
X150373Y104280D01*
X151307Y103893D01*
X152024Y103343D01*
X152076Y103291D01*
X152097Y103266D01*
X152099Y103268D01*
X152099Y103268D01*
X152725Y102642D01*
Y100979D01*
X152252Y100818D01*
X152108Y101005D01*
X151306Y101621D01*
X150372Y102007D01*
X149370Y102139D01*
X148368Y102007D01*
X147434Y101621D01*
X146632Y101005D01*
X146017Y100204D01*
X145630Y99270D01*
X145498Y98268D01*
X145630Y97266D01*
X146017Y96332D01*
X146632Y95530D01*
X147434Y94915D01*
X148368Y94528D01*
X149370Y94396D01*
X150372Y94528D01*
X151306Y94915D01*
X152108Y95530D01*
X152252Y95717D01*
X152725Y95557D01*
Y80315D01*
X152725Y80315D01*
X152827Y79802D01*
X152847Y79700D01*
X153195Y79180D01*
X153195Y79180D01*
X153195Y79180D01*
D01*
X153195D01*
Y79180D01*
D01*
X153906Y78469D01*
Y74363D01*
X153903D01*
X153906Y74330D01*
Y74257D01*
X153788Y73360D01*
X153401Y72426D01*
X152823Y71673D01*
X152774Y71635D01*
X152159Y70833D01*
X151772Y69900D01*
X151640Y68898D01*
X151772Y67896D01*
X152159Y66962D01*
X152774Y66160D01*
X152823Y66122D01*
X153401Y65369D01*
X153788Y64435D01*
X153906Y63539D01*
Y63465D01*
X153903Y63432D01*
X153906D01*
Y49166D01*
X153903D01*
X153906Y49133D01*
Y49060D01*
X153788Y48164D01*
X153401Y47229D01*
X152823Y46476D01*
X152774Y46439D01*
X152159Y45637D01*
X151772Y44703D01*
X151640Y43701D01*
X151772Y42699D01*
X152159Y41765D01*
X152774Y40963D01*
X153576Y40348D01*
X154510Y39961D01*
X155512Y39829D01*
X156514Y39961D01*
X157448Y40348D01*
X158249Y40963D01*
X158865Y41765D01*
X159252Y42699D01*
X159383Y43701D01*
X159252Y44703D01*
X158865Y45637D01*
X158249Y46439D01*
X158200Y46476D01*
X157622Y47229D01*
X157236Y48164D01*
X157117Y49060D01*
Y49133D01*
X157121Y49166D01*
X157117D01*
Y63432D01*
X157121D01*
X157117Y63465D01*
Y63539D01*
X157236Y64435D01*
X157622Y65369D01*
X158200Y66122D01*
X158249Y66160D01*
X158358Y66301D01*
X158831Y66140D01*
Y48819D01*
X158831Y48819D01*
X158831D01*
X158938Y48281D01*
X159243Y47826D01*
X160160Y46908D01*
X160154Y46902D01*
X160221Y46848D01*
X160246Y46822D01*
X160895Y45976D01*
X161350Y44879D01*
X161494Y43785D01*
X161483Y43701D01*
X161615Y42699D01*
X162001Y41765D01*
X162617Y40963D01*
X163418Y40348D01*
X164352Y39961D01*
X165354Y39829D01*
X166356Y39961D01*
X167290Y40348D01*
X168092Y40963D01*
X168707Y41765D01*
X169094Y42699D01*
X169226Y43701D01*
X169094Y44703D01*
X168707Y45637D01*
X168092Y46439D01*
X167290Y47054D01*
X166356Y47441D01*
X165354Y47572D01*
X165271Y47561D01*
X164176Y47706D01*
X163079Y48160D01*
X162233Y48809D01*
X162208Y48834D01*
X162153Y48901D01*
X162147Y48895D01*
X161641Y49401D01*
Y66653D01*
X162115Y66814D01*
X162617Y66160D01*
X163418Y65545D01*
X164352Y65158D01*
X165354Y65026D01*
X166356Y65158D01*
X167290Y65545D01*
X168092Y66160D01*
X168594Y66814D01*
X169068Y66653D01*
Y48425D01*
X169174Y47888D01*
X169479Y47432D01*
X170003Y46908D01*
X169997Y46902D01*
X170063Y46848D01*
X170088Y46822D01*
X170737Y45976D01*
X171192Y44879D01*
X171336Y43785D01*
X171325Y43701D01*
X171457Y42699D01*
X171844Y41765D01*
X172459Y40963D01*
X173261Y40348D01*
X174195Y39961D01*
X175197Y39829D01*
X176199Y39961D01*
X177133Y40348D01*
X177935Y40963D01*
X178550Y41765D01*
X178937Y42699D01*
X179069Y43701D01*
X178937Y44703D01*
X178550Y45637D01*
X177935Y46439D01*
X177133Y47054D01*
X176199Y47441D01*
X175197Y47572D01*
X175113Y47561D01*
X174019Y47706D01*
X172921Y48160D01*
X172075Y48809D01*
X172050Y48834D01*
X171996Y48901D01*
X171990Y48895D01*
X171877Y49007D01*
Y66140D01*
X172351Y66301D01*
X172459Y66160D01*
X173261Y65545D01*
X174195Y65158D01*
X175197Y65026D01*
X176199Y65158D01*
X177133Y65545D01*
X177935Y66160D01*
X178437Y66814D01*
X178910Y66653D01*
Y48425D01*
X179017Y47888D01*
X179322Y47432D01*
X179845Y46908D01*
X179839Y46902D01*
X179906Y46848D01*
X179931Y46822D01*
X180580Y45976D01*
X181035Y44879D01*
X181179Y43785D01*
X181168Y43701D01*
X181300Y42699D01*
X181686Y41765D01*
X182302Y40963D01*
X183104Y40348D01*
X184037Y39961D01*
X185039Y39829D01*
X186041Y39961D01*
X186975Y40348D01*
X187777Y40963D01*
X188392Y41765D01*
X188779Y42699D01*
X188911Y43701D01*
X188779Y44703D01*
X188392Y45637D01*
X187777Y46439D01*
X186975Y47054D01*
X186041Y47441D01*
X185039Y47572D01*
X184956Y47561D01*
X183861Y47706D01*
X182764Y48160D01*
X181918Y48809D01*
X181893Y48834D01*
X181838Y48901D01*
X181832Y48895D01*
X181720Y49007D01*
Y66140D01*
X182193Y66301D01*
X182302Y66160D01*
X183104Y65545D01*
X184037Y65158D01*
X185039Y65026D01*
X186041Y65158D01*
X186975Y65545D01*
X187777Y66160D01*
X188392Y66962D01*
X188779Y67896D01*
X188911Y68898D01*
X188779Y69900D01*
X188392Y70833D01*
X187777Y71635D01*
X187710Y71687D01*
X187038Y72562D01*
X186583Y73660D01*
X186444Y74717D01*
Y74753D01*
X186453Y74838D01*
X186444D01*
Y102598D01*
X186337Y103136D01*
X186033Y103592D01*
X184564Y105061D01*
X184570Y105067D01*
X184504Y105121D01*
X184478Y105146D01*
X183829Y105992D01*
X183375Y107090D01*
X183231Y108184D01*
X183242Y108268D01*
X183110Y109270D01*
X182723Y110204D01*
X182108Y111005D01*
X181306Y111621D01*
X180372Y112007D01*
X179370Y112139D01*
D02*
G37*
G36*
X98870Y112288D02*
X98312Y112215D01*
X97327Y111806D01*
X96481Y111157D01*
X95831Y110311D01*
X95423Y109325D01*
X95350Y108768D01*
X98870D01*
Y112288D01*
D02*
G37*
G36*
X99870D02*
Y108768D01*
X103390D01*
X103317Y109325D01*
X102909Y110311D01*
X102259Y111157D01*
X101413Y111806D01*
X100428Y112215D01*
X99870Y112288D01*
D02*
G37*
G36*
X89370Y112139D02*
X88368Y112007D01*
X87434Y111621D01*
X86632Y111005D01*
X86017Y110204D01*
X85630Y109270D01*
X85498Y108268D01*
X85630Y107266D01*
X86017Y106332D01*
X86632Y105530D01*
X87434Y104915D01*
X88368Y104528D01*
X89370Y104396D01*
X90372Y104528D01*
X91306Y104915D01*
X92108Y105530D01*
X92723Y106332D01*
X93110Y107266D01*
X93242Y108268D01*
X93110Y109270D01*
X92723Y110204D01*
X92108Y111005D01*
X91306Y111621D01*
X90372Y112007D01*
X89370Y112139D01*
D02*
G37*
G36*
X139370D02*
X138368Y112007D01*
X137434Y111621D01*
X136632Y111005D01*
X136017Y110204D01*
X135630Y109270D01*
X135498Y108268D01*
X135630Y107266D01*
X136017Y106332D01*
X136632Y105530D01*
X137434Y104915D01*
X138368Y104528D01*
X139370Y104396D01*
X140372Y104528D01*
X141306Y104915D01*
X142108Y105530D01*
X142723Y106332D01*
X143110Y107266D01*
X143242Y108268D01*
X143110Y109270D01*
X142723Y110204D01*
X142108Y111005D01*
X141306Y111621D01*
X140372Y112007D01*
X139370Y112139D01*
D02*
G37*
G36*
X128870Y107768D02*
X125350D01*
X125423Y107210D01*
X125831Y106225D01*
X126481Y105378D01*
X127327Y104729D01*
X128313Y104321D01*
X128870Y104247D01*
Y107768D01*
D02*
G37*
G36*
X123390D02*
X119870D01*
Y104247D01*
X120428Y104321D01*
X121413Y104729D01*
X122259Y105378D01*
X122909Y106225D01*
X123317Y107210D01*
X123390Y107768D01*
D02*
G37*
G36*
X108870Y112288D02*
X108312Y112215D01*
X107327Y111806D01*
X106481Y111157D01*
X105831Y110311D01*
X105423Y109325D01*
X105350Y108768D01*
X108870D01*
Y112288D01*
D02*
G37*
G36*
X133390Y107768D02*
X129870D01*
Y104247D01*
X130428Y104321D01*
X131413Y104729D01*
X132259Y105378D01*
X132909Y106225D01*
X133317Y107210D01*
X133390Y107768D01*
D02*
G37*
%LPD*%
G36*
X176632Y95530D02*
X176699Y95479D01*
X177371Y94603D01*
X177826Y93505D01*
X177965Y92448D01*
Y92413D01*
X177957Y92327D01*
X177965D01*
Y73386D01*
X177965Y73386D01*
X177965D01*
X178072Y72848D01*
X178377Y72392D01*
X178910Y71859D01*
Y71142D01*
X178437Y70981D01*
X177935Y71635D01*
X177133Y72251D01*
X176702Y72429D01*
X176614Y72488D01*
Y72488D01*
D01*
D01*
X176614D01*
D01*
D01*
D01*
D01*
X176614Y72488D01*
X176614Y72488D01*
X176614Y72488D01*
X176614Y72488D01*
X176613Y72490D01*
X176610Y72499D01*
X176600Y72523D01*
Y72523D01*
X176597Y72524D01*
X176594Y72525D01*
D01*
D01*
X176594Y72525D01*
Y72525D01*
Y72525D01*
X176587Y72528D01*
X176587Y72528D01*
X176587D01*
D01*
X176584Y72529D01*
X176495Y72979D01*
X176190Y73434D01*
X175814Y73810D01*
Y95818D01*
X176288Y95979D01*
X176632Y95530D01*
D02*
G37*
G36*
X162768Y95613D02*
Y74410D01*
X162875Y73872D01*
X163180Y73416D01*
X163843Y72753D01*
X163605Y72397D01*
X163365Y72237D01*
X163376Y72218D01*
X162617Y71635D01*
X162115Y70981D01*
X161641Y71142D01*
Y73189D01*
X161534Y73727D01*
X161230Y74182D01*
X160775Y74637D01*
Y92327D01*
X160783D01*
X160775Y92413D01*
Y92448D01*
X160914Y93505D01*
X161369Y94603D01*
X162041Y95479D01*
X162108Y95530D01*
X162295Y95774D01*
X162768Y95613D01*
D02*
G37*
G36*
X166632Y95530D02*
X166699Y95479D01*
X167371Y94603D01*
X167826Y93505D01*
X167965Y92448D01*
Y92413D01*
X167957Y92327D01*
X167965D01*
Y73937D01*
X167965Y73937D01*
X167965D01*
X168072Y73399D01*
X168377Y72944D01*
X169068Y72253D01*
Y71142D01*
X168594Y70981D01*
X168092Y71635D01*
X167333Y72218D01*
X167344Y72237D01*
X167104Y72397D01*
X166849Y72778D01*
X166764Y73208D01*
X166766Y73228D01*
X166759D01*
Y73228D01*
X166652Y73766D01*
X166348Y74222D01*
X165578Y74991D01*
Y96126D01*
X166052Y96287D01*
X166632Y95530D01*
D02*
G37*
G36*
X156632D02*
X156699Y95479D01*
X157371Y94603D01*
X157826Y93505D01*
X157965Y92448D01*
Y92413D01*
X157957Y92327D01*
X157965D01*
Y74055D01*
X158072Y73518D01*
X158377Y73062D01*
X158831Y72607D01*
Y71655D01*
X158358Y71494D01*
X158249Y71635D01*
X158200Y71673D01*
X157622Y72426D01*
X157236Y73360D01*
X157117Y74257D01*
Y74330D01*
X157121Y74363D01*
X157117D01*
Y79134D01*
X157117Y79134D01*
X157016Y79646D01*
X156995Y79748D01*
X156647Y80269D01*
X156647Y80269D01*
X155936Y80980D01*
Y95659D01*
X156410Y95820D01*
X156632Y95530D01*
D02*
G37*
G36*
X183634Y97428D02*
Y74838D01*
X183626D01*
X183634Y74753D01*
Y74717D01*
X183495Y73660D01*
X183041Y72562D01*
X182369Y71687D01*
X182302Y71635D01*
X182193Y71494D01*
X181720Y71655D01*
Y72441D01*
X181613Y72979D01*
X181308Y73434D01*
X180775Y73968D01*
Y92327D01*
X180783D01*
X180775Y92413D01*
Y92448D01*
X180914Y93505D01*
X181369Y94603D01*
X182041Y95479D01*
X182108Y95530D01*
X182723Y96332D01*
X183110Y97266D01*
X183135Y97460D01*
X183634Y97428D01*
D02*
G37*
G36*
X173004Y95921D02*
Y73228D01*
X173111Y72691D01*
X173306Y72399D01*
X173261Y72251D01*
X172459Y71635D01*
X172351Y71494D01*
X171877Y71655D01*
Y72835D01*
X171770Y73372D01*
X171466Y73828D01*
X170775Y74519D01*
Y92327D01*
X170783D01*
X170775Y92413D01*
Y92448D01*
X170914Y93505D01*
X171369Y94603D01*
X172041Y95479D01*
X172108Y95530D01*
X172531Y96082D01*
X173004Y95921D01*
D02*
G37*
D10*
X127084Y130905D02*
G03*
X127559Y131102I0J672D01*
G01*
X80546Y130546D02*
G03*
X79201Y131102I-1344J-1344D01*
G01*
D02*
G03*
X80546Y131659I0J1901D01*
G01*
X106530Y130546D02*
G03*
X105186Y131102I-1344J-1344D01*
G01*
D02*
G03*
X106530Y131659I0J1901D01*
G01*
X75404Y130128D02*
G03*
X73527Y130905I-1877J-1877D01*
G01*
X72576D02*
G03*
X75404Y132077I0J3999D01*
G01*
X77352D02*
G03*
X79705Y131102I2352J2352D01*
G01*
D02*
G03*
X77352Y130128I0J-3327D01*
G01*
X100994Y130128D02*
G03*
X98642Y131102I-2352J-2352D01*
G01*
D02*
G03*
X100994Y132077I0J3327D01*
G01*
X102943D02*
G03*
X105295Y131102I2352J2352D01*
G01*
D02*
G03*
X102943Y130128I0J-3327D01*
G01*
X126585Y130128D02*
G03*
X124708Y130905I-1877J-1877D01*
G01*
X123757D02*
G03*
X126585Y132077I0J3999D01*
G01*
X128533Y130128D02*
G03*
X127559Y127776I2352J-2352D01*
G01*
D02*
G03*
X126585Y130128I-3327J0D01*
G01*
X27064Y115456D02*
G03*
X25394Y111423I4033J-4033D01*
G01*
D02*
G03*
X23723Y115456I-5703J0D01*
G01*
X38481Y119387D02*
G03*
X42514Y117717I4033J4033D01*
G01*
D02*
G03*
X38481Y116046I0J-5703D01*
G01*
X23261Y126544D02*
G03*
X21654Y127559I-1607J-765D01*
G01*
D02*
G03*
X23261Y128574I0J1780D01*
G01*
X38481Y129229D02*
G03*
X42514Y127559I4033J4033D01*
G01*
D02*
G03*
X38481Y125889I0J-5703D01*
G01*
Y139072D02*
G03*
X42514Y137402I4033J4033D01*
G01*
D02*
G03*
X38481Y135731I0J-5703D01*
G01*
X23359Y136202D02*
G03*
X21260Y137402I-2098J-1237D01*
G01*
D02*
G03*
X23359Y138601I0J2436D01*
G01*
X59425Y134228D02*
G03*
X58417Y134646I-1008J-1008D01*
G01*
D02*
G03*
X59425Y135063I0J1426D01*
G01*
X71677Y131323D02*
G03*
X72686Y130905I1008J1008D01*
G01*
D02*
G03*
X71677Y130488I0J-1426D01*
G01*
X113016Y134228D02*
G03*
X112598Y133220I1008J-1008D01*
G01*
D02*
G03*
X112181Y134228I-1426J0D01*
G01*
X122859Y131323D02*
G03*
X123867Y130905I1008J1008D01*
G01*
D02*
G03*
X122859Y130488I0J-1426D01*
G01*
X87426Y134228D02*
G03*
X87008Y133220I1008J-1008D01*
G01*
D02*
G03*
X86590Y134228I-1426J0D01*
G01*
X98751Y131102D02*
G03*
X97268Y130488I0J-2098D01*
G01*
X86797Y45093D02*
G03*
X88189Y48453I-3360J3360D01*
G01*
D02*
G03*
X89581Y45093I4752J0D01*
G01*
Y67506D02*
G03*
X88189Y64145I3360J-3360D01*
G01*
D02*
G03*
X86797Y67506I-4752J0D01*
G01*
X14385Y101800D02*
G03*
X17165Y100630I2780J2718D01*
G01*
D02*
G03*
X14385Y99460I0J-3888D01*
G01*
X14372Y96301D02*
G03*
X17229Y95118I2856J2856D01*
G01*
D02*
G03*
X14372Y93935I0J-4039D01*
G01*
X13189Y113327D02*
G03*
X16045Y114510I0J4039D01*
G01*
D02*
G03*
X14862Y111653I2856J-2856D01*
G01*
X164095Y71012D02*
G03*
X165354Y73228I-1321J2217D01*
G01*
D02*
G03*
X166614Y71012I2580J0D01*
G01*
X174337Y71203D02*
G03*
X175197Y72441I-461J1237D01*
G01*
D02*
G03*
X176056Y71203I1321J0D01*
G01*
X184135Y69802D02*
G03*
X185039Y71987I-2184J2184D01*
G01*
X183299Y70638D02*
G03*
X185039Y74838I-4201J4201D01*
G01*
Y71987D02*
G03*
X185944Y69802I3089J0D01*
G01*
X185039Y74838D02*
G03*
X186779Y70638I5940J0D01*
G01*
X164075Y43701D02*
G03*
X163170Y45885I-3089J0D01*
G01*
X162894Y43701D02*
G03*
X161154Y47901I-5940J0D01*
G01*
X163170Y45885D02*
G03*
X165354Y44980I2184J2184D01*
G01*
X161154Y47901D02*
G03*
X165354Y46161I4201J4201D01*
G01*
X173917Y43701D02*
G03*
X173013Y45885I-3089J0D01*
G01*
X172736Y43701D02*
G03*
X170996Y47901I-5940J0D01*
G01*
X173013Y45885D02*
G03*
X175197Y44980I2184J2184D01*
G01*
X170996Y47901D02*
G03*
X175197Y46161I4201J4201D01*
G01*
X183760Y43701D02*
G03*
X182855Y45885I-3089J0D01*
G01*
X182579Y43701D02*
G03*
X180839Y47901I-5940J0D01*
G01*
X182855Y45885D02*
G03*
X185039Y44980I2184J2184D01*
G01*
X180839Y47901D02*
G03*
X185039Y46161I4201J4201D01*
G01*
X78091Y98268D02*
G03*
X77186Y100452I-3089J0D01*
G01*
X76910Y98268D02*
G03*
X75169Y102468I-5940J0D01*
G01*
X77186Y100452D02*
G03*
X79370Y99547I2184J2184D01*
G01*
X75169Y102468D02*
G03*
X79370Y100728I4201J4201D01*
G01*
X49370Y106988D02*
G03*
X47186Y106083I0J-3089D01*
G01*
X49370Y105807D02*
G03*
X45169Y104067I0J-5940D01*
G01*
X47186Y106083D02*
G03*
X48091Y108268I-2184J2184D01*
G01*
X45169Y104067D02*
G03*
X46909Y108268I-4201J4201D01*
G01*
X160275Y97363D02*
G03*
X159370Y95179I2184J-2184D01*
G01*
X161110Y96528D02*
G03*
X159370Y92327I4201J-4201D01*
G01*
Y95179D02*
G03*
X158465Y97363I-3089J0D01*
G01*
X159370Y92327D02*
G03*
X157630Y96528I-5940J0D01*
G01*
X160650Y108268D02*
G03*
X161554Y106083I3089J0D01*
G01*
X161831Y108268D02*
G03*
X163571Y104067I5940J0D01*
G01*
X161554Y106083D02*
G03*
X159370Y106988I-2184J-2184D01*
G01*
X163571Y104067D02*
G03*
X159370Y105807I-4201J-4201D01*
G01*
X170275Y97363D02*
G03*
X169370Y95179I2184J-2184D01*
G01*
X171110Y96528D02*
G03*
X169370Y92327I4201J-4201D01*
G01*
Y95179D02*
G03*
X168465Y97363I-3089J0D01*
G01*
X169370Y92327D02*
G03*
X167630Y96528I-5940J0D01*
G01*
X170650Y108268D02*
G03*
X171554Y106083I3089J0D01*
G01*
X171831Y108268D02*
G03*
X173571Y104067I5940J0D01*
G01*
X171554Y106083D02*
G03*
X169370Y106988I-2184J-2184D01*
G01*
X173571Y104067D02*
G03*
X169370Y105807I-4201J-4201D01*
G01*
X180275Y97363D02*
G03*
X179370Y95179I2184J-2184D01*
G01*
X181110Y96528D02*
G03*
X179370Y92327I4201J-4201D01*
G01*
Y95179D02*
G03*
X178465Y97363I-3089J0D01*
G01*
X179370Y92327D02*
G03*
X177630Y96528I-5940J0D01*
G01*
X180650Y108268D02*
G03*
X181554Y106083I3089J0D01*
G01*
X181831Y108268D02*
G03*
X183571Y104067I5940J0D01*
G01*
X181554Y106083D02*
G03*
X179370Y106988I-2184J-2184D01*
G01*
X183571Y104067D02*
G03*
X179370Y105807I-4201J-4201D01*
G01*
X120866Y130905D02*
X127084D01*
X127559Y126772D02*
Y131102D01*
X14567Y62992D02*
Y73622D01*
X24803Y83858D01*
X33858D01*
X44094Y94095D01*
Y102992D01*
X49370Y108268D01*
X101969Y131102D02*
X107087D01*
X95276Y130905D02*
X95473Y131102D01*
X101969D01*
X76378Y131102D02*
X81102D01*
X74803Y102835D02*
Y113386D01*
X77953Y116535D01*
X117323D01*
X127559Y126772D01*
X13189Y111653D02*
X18110Y116575D01*
Y126800D01*
X19291Y127981D01*
Y135433D01*
X21260Y137402D01*
X25394D01*
X21654Y127559D02*
X25394D01*
X20079Y125984D02*
X21654Y127559D01*
X20079Y103543D02*
Y125984D01*
X17165Y100630D02*
X20079Y103543D01*
X13189Y100630D02*
X17165D01*
X25394Y101772D02*
Y117717D01*
X18740Y95118D02*
X25394Y101772D01*
X13189Y95118D02*
X18740D01*
X112598Y129921D02*
Y134646D01*
X108268Y125591D02*
X112598Y129921D01*
X52362Y125591D02*
X108268D01*
X44488Y117717D02*
X52362Y125591D01*
X36811Y117717D02*
X44488D01*
X87008Y130709D02*
Y134646D01*
X83858Y127559D02*
X87008Y130709D01*
X36811Y127559D02*
X83858D01*
X49213Y134646D02*
X61417D01*
X46457Y137402D02*
X49213Y134646D01*
X36811Y137402D02*
X46457D01*
X159370Y74055D02*
X160236Y73189D01*
Y48819D02*
Y73189D01*
X159370Y74055D02*
Y98268D01*
X164173Y74410D02*
X165354Y73228D01*
X164173Y74410D02*
Y103465D01*
X159370Y108268D02*
X164173Y103465D01*
X169370Y73937D02*
X170472Y72835D01*
X169370Y73937D02*
Y98268D01*
X174409Y73228D02*
X175197Y72441D01*
X174409Y73228D02*
Y103228D01*
X169370Y108268D02*
X174409Y103228D01*
X179370Y73386D02*
X180315Y72441D01*
X179370Y73386D02*
Y98268D01*
X185039Y68898D02*
Y102598D01*
X179370Y108268D02*
X185039Y102598D01*
X14567Y62992D02*
X21654Y55905D01*
X165354Y68898D02*
Y73228D01*
X170472Y48425D02*
Y72835D01*
X180315Y48425D02*
Y72441D01*
Y48425D02*
X185039Y43701D01*
X175197Y68898D02*
Y72441D01*
X170472Y48425D02*
X175197Y43701D01*
X160236Y48819D02*
X165354Y43701D01*
X74803Y102835D02*
X79370Y98268D01*
X69685Y130905D02*
X76181D01*
X88189Y59842D02*
Y68898D01*
X84252Y55905D02*
X88189Y59842D01*
X21654Y55905D02*
X84252D01*
X88189Y51968D01*
Y43701D02*
Y51968D01*
D11*
X12423Y105376D02*
G03*
X10575Y106142I-1848J-1848D01*
G01*
D02*
G03*
X12423Y106907I0J2614D01*
G01*
X16535Y32677D02*
X39764D01*
X5118Y44094D02*
X16535Y32677D01*
X5118Y44094D02*
Y101575D01*
X9685Y106142D01*
X13189D01*
X39370Y108268D02*
X46457Y115354D01*
X52284D01*
X59370Y108268D01*
D12*
X126010Y67297D02*
G03*
X124409Y63432I3864J-3864D01*
G01*
D02*
G03*
X122809Y67297I-5465J0D01*
G01*
X157113D02*
G03*
X155512Y63432I3864J-3864D01*
G01*
D02*
G03*
X153911Y67297I-5465J0D01*
G01*
Y70498D02*
G03*
X155512Y74363I-3864J3864D01*
G01*
D02*
G03*
X157113Y70498I5465J0D01*
G01*
X153911Y45301D02*
G03*
X155512Y49166I-3864J3864D01*
G01*
D02*
G03*
X157113Y45301I5465J0D01*
G01*
X122809D02*
G03*
X124409Y49166I-3864J3864D01*
G01*
D02*
G03*
X126010Y45301I5465J0D01*
G01*
X151634Y108268D02*
G03*
X153235Y104403I5465J0D01*
G01*
X153235Y104403D02*
G03*
X149370Y106004I-3864J-3864D01*
G01*
X155512Y68898D02*
Y79134D01*
X154331Y80315D02*
X155512Y79134D01*
X154331Y80315D02*
Y103307D01*
X149370Y108268D02*
X154331Y103307D01*
X155512Y43701D02*
Y68898D01*
X124409Y43701D02*
Y68898D01*
D13*
X125453Y42657D02*
G03*
X124409Y40137I2520J-2520D01*
G01*
D02*
G03*
X123365Y42657I-3564J0D01*
G01*
X124409Y32677D02*
Y43701D01*
D14*
X95276Y130905D02*
D03*
Y138386D02*
D03*
X87008Y134646D02*
D03*
X120866Y130905D02*
D03*
Y138386D02*
D03*
X112598Y134646D02*
D03*
X69685Y130905D02*
D03*
Y138386D02*
D03*
X61417Y134646D02*
D03*
D15*
X25394Y137402D02*
D03*
X36811D02*
D03*
Y127559D02*
D03*
X25394D02*
D03*
X36811Y117717D02*
D03*
X25394D02*
D03*
D16*
X127559Y131102D02*
D03*
Y138189D02*
D03*
X101969Y131102D02*
D03*
Y138189D02*
D03*
X76378Y138189D02*
D03*
Y131102D02*
D03*
D17*
X59370Y108268D02*
X69370D01*
X59370Y98268D02*
Y108268D01*
X39764Y81890D02*
X45669Y87795D01*
X59370Y92047D02*
Y98268D01*
X55118Y87795D02*
X59370Y92047D01*
X45669Y87795D02*
X55118D01*
X39764Y32677D02*
X124409D01*
X39764D02*
Y43701D01*
Y68898D02*
Y81890D01*
D18*
X179370Y108268D02*
D03*
Y98268D02*
D03*
X169370Y108268D02*
D03*
Y98268D02*
D03*
X159370Y108268D02*
D03*
Y98268D02*
D03*
X149370Y108268D02*
D03*
Y98268D02*
D03*
X139370D02*
D03*
Y108268D02*
D03*
X99370D02*
D03*
Y98268D02*
D03*
X89370D02*
D03*
Y108268D02*
D03*
X49370D02*
D03*
X59370D02*
D03*
X79370D02*
D03*
X69370D02*
D03*
Y98268D02*
D03*
X79370D02*
D03*
X59370D02*
D03*
X49370D02*
D03*
X39370D02*
D03*
X109370D02*
D03*
Y108268D02*
D03*
X119370Y98268D02*
D03*
Y108268D02*
D03*
X129370Y98268D02*
D03*
Y108268D02*
D03*
X124409Y43701D02*
D03*
X29921D02*
D03*
X39764D02*
D03*
X49606D02*
D03*
X185039D02*
D03*
X175197D02*
D03*
X165354D02*
D03*
X155512D02*
D03*
X185039Y68898D02*
D03*
X175197D02*
D03*
X165354D02*
D03*
X155512D02*
D03*
X124409D02*
D03*
X29921D02*
D03*
X39764D02*
D03*
X49606D02*
D03*
D19*
X39370Y108268D02*
D03*
X114567Y43701D02*
D03*
X20079D02*
D03*
X145669D02*
D03*
Y68898D02*
D03*
X114567D02*
D03*
X20079D02*
D03*
D20*
X189409Y132520D02*
D03*
X11811Y132520D02*
D03*
Y11811D02*
D03*
X189409D02*
D03*
D21*
X13189Y111653D02*
D03*
Y106142D02*
D03*
Y100630D02*
D03*
D22*
Y95118D02*
D03*
D23*
X88189Y68898D02*
D03*
X80315D02*
D03*
X88189Y43701D02*
D03*
X80315D02*
D03*
D24*
X72441Y68898D02*
D03*
Y43701D02*
D03*
D25*
X107087Y131102D02*
D03*
X81102Y131102D02*
D03*
M02*
