%FSLAX25Y25*%
%MOIN*%
G70*
G01*
G75*
G04 Layer_Color=65535*
%ADD10C,0.01181*%
%ADD11C,0.02362*%
%ADD12C,0.01575*%
%ADD13C,0.03150*%
%ADD14R,0.05512X0.02362*%
%ADD15R,0.05906X0.07087*%
%ADD16R,0.03937X0.03937*%
%ADD17C,0.03937*%
%ADD18C,0.06102*%
%ADD19R,0.06102X0.06102*%
%ADD20C,0.11811*%
%ADD21C,0.04528*%
%ADD22R,0.04528X0.04528*%
%ADD23C,0.05118*%
%ADD24R,0.05118X0.05118*%
%ADD25C,0.02756*%
%ADD26R,0.02362X0.05512*%
%ADD27R,0.03937X0.03937*%
%ADD28C,0.00984*%
%ADD29C,0.00787*%
%ADD30C,0.00591*%
D28*
X94587Y127559D02*
G03*
X94587Y127559I-492J0D01*
G01*
X120177Y127559D02*
G03*
X120177Y127559I-492J0D01*
G01*
X68996Y127559D02*
G03*
X68996Y127559I-492J0D01*
G01*
D29*
X87795Y140551D02*
X89370D01*
X87795Y137402D02*
Y140551D01*
Y128740D02*
X89370D01*
X87795D02*
Y131890D01*
X113386Y140551D02*
X114961D01*
X113386Y137402D02*
Y140551D01*
Y128740D02*
X114961D01*
X113386D02*
Y131890D01*
X62205Y128740D02*
X63779D01*
X62205D02*
Y131890D01*
Y140551D02*
X63779D01*
X62205Y137402D02*
Y140551D01*
X29402Y140602D02*
X32802D01*
X29402Y134202D02*
X32802D01*
X29402Y130759D02*
X32802D01*
X29402Y124359D02*
X32802D01*
X29402Y120916D02*
X32802D01*
X29402Y114516D02*
X32802D01*
X104724Y29528D02*
X134252D01*
Y52362D01*
X104724D02*
X134252D01*
X104724Y29528D02*
Y52362D01*
X10236Y29921D02*
Y52756D01*
X59449D01*
Y29921D02*
Y52756D01*
X10236Y29921D02*
X59449D01*
X135827D02*
X194882D01*
Y52756D01*
X135827D02*
X194882D01*
X135827Y29921D02*
Y52756D01*
Y55118D02*
X194882D01*
Y77953D01*
X135827D02*
X194882D01*
X135827Y55118D02*
Y77953D01*
X104724Y54724D02*
X134252D01*
Y77559D01*
X104724D02*
X134252D01*
X104724Y54724D02*
Y77559D01*
X10236Y55118D02*
Y77953D01*
X59449D01*
Y55118D02*
Y77953D01*
X10236Y55118D02*
X59449D01*
X129159Y133946D02*
Y135346D01*
X125959Y133946D02*
Y135346D01*
X103568Y133946D02*
Y135346D01*
X100368Y133946D02*
Y135346D01*
X77978Y133946D02*
Y135346D01*
X74778Y133946D02*
Y135346D01*
X64567Y55905D02*
X95866D01*
Y74606D01*
X64567D02*
X95866D01*
X64567Y55905D02*
Y74606D01*
Y30709D02*
X95866D01*
Y49409D01*
X64567D02*
X95866D01*
X64567Y30709D02*
Y49409D01*
D30*
X7480Y121259D02*
Y117323D01*
X9448D01*
X10104Y117979D01*
Y120603D01*
X9448Y121259D01*
X7480D01*
X11416Y117323D02*
X12728D01*
X12072D01*
Y121259D01*
X11416Y120603D01*
X72441Y122441D02*
Y126377D01*
X74409D01*
X75065Y125721D01*
Y124409D01*
X74409Y123753D01*
X72441D01*
X73753D02*
X75065Y122441D01*
X78345D02*
Y126377D01*
X76377Y124409D01*
X79001D01*
X42913Y136221D02*
Y140156D01*
X44881D01*
X45537Y139500D01*
Y138188D01*
X44881Y137532D01*
X42913D01*
X44225D02*
X45537Y136221D01*
X46849D02*
X48161D01*
X47505D01*
Y140156D01*
X46849Y139500D01*
X64041Y123097D02*
Y125721D01*
X63385Y126377D01*
X62073D01*
X61417Y125721D01*
Y123097D01*
X62073Y122441D01*
X63385D01*
X62729Y123753D02*
X64041Y122441D01*
X63385D02*
X64041Y123097D01*
X65353Y122441D02*
X66665D01*
X66009D01*
Y126377D01*
X65353Y125721D01*
X187269Y26770D02*
X185958D01*
X186614D01*
Y23491D01*
X185958Y22835D01*
X185302D01*
X184646Y23491D01*
X188581D02*
X189237Y22835D01*
X190549D01*
X191205Y23491D01*
Y26114D01*
X190549Y26770D01*
X189237D01*
X188581Y26114D01*
Y25458D01*
X189237Y24803D01*
X191205D01*
X116403Y36613D02*
X115091D01*
X115747D01*
Y33333D01*
X115091Y32677D01*
X114436D01*
X113779Y33333D01*
X117715Y35957D02*
X118371Y36613D01*
X119683D01*
X120339Y35957D01*
Y35301D01*
X119683Y34645D01*
X120339Y33989D01*
Y33333D01*
X119683Y32677D01*
X118371D01*
X117715Y33333D01*
Y33989D01*
X118371Y34645D01*
X117715Y35301D01*
Y35957D01*
X118371Y34645D02*
X119683D01*
X71915Y36613D02*
X70603D01*
X71259D01*
Y33333D01*
X70603Y32677D01*
X69947D01*
X69291Y33333D01*
X73227Y36613D02*
X75851D01*
Y35957D01*
X73227Y33333D01*
Y32677D01*
X12860Y25589D02*
X11548D01*
X12204D01*
Y22309D01*
X11548Y21654D01*
X10892D01*
X10236Y22309D01*
X16796Y25589D02*
X15484Y24933D01*
X14172Y23621D01*
Y22309D01*
X14828Y21654D01*
X16140D01*
X16796Y22309D01*
Y22965D01*
X16140Y23621D01*
X14172D01*
X138644Y84901D02*
X137332D01*
X137988D01*
Y81621D01*
X137332Y80965D01*
X136676D01*
X136021Y81621D01*
X142580Y84901D02*
X139956D01*
Y82933D01*
X141268Y83589D01*
X141924D01*
X142580Y82933D01*
Y81621D01*
X141924Y80965D01*
X140612D01*
X139956Y81621D01*
X107544Y84501D02*
X106232D01*
X106888D01*
Y81221D01*
X106232Y80565D01*
X105576D01*
X104920Y81221D01*
X110824Y80565D02*
Y84501D01*
X108856Y82533D01*
X111480D01*
X65744Y84801D02*
X64432D01*
X65088D01*
Y81521D01*
X64432Y80865D01*
X63776D01*
X63121Y81521D01*
X67056Y84145D02*
X67712Y84801D01*
X69024D01*
X69680Y84145D01*
Y83489D01*
X69024Y82833D01*
X68368D01*
X69024D01*
X69680Y82177D01*
Y81521D01*
X69024Y80865D01*
X67712D01*
X67056Y81521D01*
X13044Y84901D02*
X11732D01*
X12388D01*
Y81621D01*
X11732Y80965D01*
X11076D01*
X10420Y81621D01*
X16980Y80965D02*
X14356D01*
X16980Y83589D01*
Y84245D01*
X16324Y84901D01*
X15012D01*
X14356Y84245D01*
X89238Y122703D02*
Y125327D01*
X88582Y125983D01*
X87270D01*
X86614Y125327D01*
Y122703D01*
X87270Y122047D01*
X88582D01*
X87926Y123359D02*
X89238Y122047D01*
X88582D02*
X89238Y122703D01*
X93174Y122047D02*
X90550D01*
X93174Y124671D01*
Y125327D01*
X92518Y125983D01*
X91206D01*
X90550Y125327D01*
X115616Y121916D02*
Y124540D01*
X114960Y125196D01*
X113648D01*
X112992Y124540D01*
Y121916D01*
X113648Y121260D01*
X114960D01*
X114304Y122572D02*
X115616Y121260D01*
X114960D02*
X115616Y121916D01*
X116928Y124540D02*
X117584Y125196D01*
X118896D01*
X119552Y124540D01*
Y123884D01*
X118896Y123228D01*
X118240D01*
X118896D01*
X119552Y122572D01*
Y121916D01*
X118896Y121260D01*
X117584D01*
X116928Y121916D01*
X42126Y125591D02*
Y129526D01*
X44094D01*
X44750Y128870D01*
Y127558D01*
X44094Y126902D01*
X42126D01*
X43438D02*
X44750Y125591D01*
X48686D02*
X46062D01*
X48686Y128214D01*
Y128870D01*
X48030Y129526D01*
X46718D01*
X46062Y128870D01*
X41732Y115748D02*
Y119684D01*
X43700D01*
X44356Y119028D01*
Y117716D01*
X43700Y117060D01*
X41732D01*
X43044D02*
X44356Y115748D01*
X45668Y119028D02*
X46324Y119684D01*
X47636D01*
X48292Y119028D01*
Y118372D01*
X47636Y117716D01*
X46980D01*
X47636D01*
X48292Y117060D01*
Y116404D01*
X47636Y115748D01*
X46324D01*
X45668Y116404D01*
X98032Y122047D02*
Y125983D01*
X99999D01*
X100655Y125327D01*
Y124015D01*
X99999Y123359D01*
X98032D01*
X99343D02*
X100655Y122047D01*
X104591Y125983D02*
X101967D01*
Y124015D01*
X103279Y124671D01*
X103935D01*
X104591Y124015D01*
Y122703D01*
X103935Y122047D01*
X102623D01*
X101967Y122703D01*
X124409Y122441D02*
Y126377D01*
X126377D01*
X127033Y125721D01*
Y124409D01*
X126377Y123753D01*
X124409D01*
X125721D02*
X127033Y122441D01*
X130969Y126377D02*
X129657Y125721D01*
X128345Y124409D01*
Y123097D01*
X129001Y122441D01*
X130313D01*
X130969Y123097D01*
Y123753D01*
X130313Y124409D01*
X128345D01*
M02*
