%FSLAX25Y25*%
%MOIN*%
G70*
G01*
G75*
G04 Layer_Color=8388736*
%ADD10C,0.01181*%
%ADD11C,0.02362*%
%ADD12C,0.01575*%
%ADD13C,0.03150*%
%ADD14R,0.05512X0.02362*%
%ADD15R,0.05906X0.07087*%
%ADD16R,0.03937X0.03937*%
%ADD17C,0.03937*%
%ADD18C,0.06102*%
%ADD19R,0.06102X0.06102*%
%ADD20C,0.11811*%
%ADD21C,0.04528*%
%ADD22R,0.04528X0.04528*%
%ADD23C,0.05118*%
%ADD24R,0.05118X0.05118*%
%ADD25C,0.02756*%
%ADD26R,0.02362X0.05512*%
%ADD27R,0.03937X0.03937*%
%ADD28C,0.00984*%
%ADD29C,0.00787*%
%ADD30C,0.00591*%
%ADD31R,0.06299X0.03150*%
%ADD32R,0.06693X0.07874*%
%ADD33R,0.04724X0.04724*%
%ADD34C,0.06890*%
%ADD35R,0.06890X0.06890*%
%ADD36C,0.12598*%
%ADD37C,0.05315*%
%ADD38R,0.05315X0.05315*%
%ADD39C,0.05906*%
%ADD40R,0.05906X0.05906*%
D31*
X95276Y130905D02*
D03*
Y138386D02*
D03*
X87008Y134646D02*
D03*
X120866Y130905D02*
D03*
Y138386D02*
D03*
X112598Y134646D02*
D03*
X69685Y130905D02*
D03*
Y138386D02*
D03*
X61417Y134646D02*
D03*
D32*
X25394Y137402D02*
D03*
X36811D02*
D03*
Y127559D02*
D03*
X25394D02*
D03*
X36811Y117717D02*
D03*
X25394D02*
D03*
D33*
X127559Y131102D02*
D03*
Y138189D02*
D03*
X101969Y131102D02*
D03*
Y138189D02*
D03*
X76378Y138189D02*
D03*
Y131102D02*
D03*
D34*
X179370Y108268D02*
D03*
Y98268D02*
D03*
X169370Y108268D02*
D03*
Y98268D02*
D03*
X159370Y108268D02*
D03*
Y98268D02*
D03*
X149370Y108268D02*
D03*
Y98268D02*
D03*
X139370D02*
D03*
Y108268D02*
D03*
X99370D02*
D03*
Y98268D02*
D03*
X89370D02*
D03*
Y108268D02*
D03*
X49370D02*
D03*
X59370D02*
D03*
X79370D02*
D03*
X69370D02*
D03*
Y98268D02*
D03*
X79370D02*
D03*
X59370D02*
D03*
X49370D02*
D03*
X39370D02*
D03*
X109370D02*
D03*
Y108268D02*
D03*
X119370Y98268D02*
D03*
Y108268D02*
D03*
X129370Y98268D02*
D03*
Y108268D02*
D03*
X124409Y43701D02*
D03*
X29921D02*
D03*
X39764D02*
D03*
X49606D02*
D03*
X185039D02*
D03*
X175197D02*
D03*
X165354D02*
D03*
X155512D02*
D03*
X185039Y68898D02*
D03*
X175197D02*
D03*
X165354D02*
D03*
X155512D02*
D03*
X124409D02*
D03*
X29921D02*
D03*
X39764D02*
D03*
X49606D02*
D03*
D35*
X39370Y108268D02*
D03*
X114567Y43701D02*
D03*
X20079D02*
D03*
X145669D02*
D03*
Y68898D02*
D03*
X114567D02*
D03*
X20079D02*
D03*
D36*
X189409Y132520D02*
D03*
X11811Y132520D02*
D03*
Y11811D02*
D03*
X189409D02*
D03*
D37*
X13189Y111653D02*
D03*
Y106142D02*
D03*
Y100630D02*
D03*
D38*
Y95118D02*
D03*
D39*
X88189Y68898D02*
D03*
X80315D02*
D03*
X88189Y43701D02*
D03*
X80315D02*
D03*
D40*
X72441Y68898D02*
D03*
Y43701D02*
D03*
M02*
