%FSLAX25Y25*%
%MOIN*%
G70*
G01*
G75*
G04 Layer_Physical_Order=2*
G04 Layer_Color=16711680*
%ADD10C,0.01181*%
%ADD11C,0.02362*%
%ADD12C,0.01575*%
%ADD13C,0.03150*%
%ADD14R,0.05512X0.02362*%
%ADD15R,0.05906X0.07087*%
%ADD16R,0.03937X0.03937*%
%ADD17C,0.03937*%
%ADD18C,0.06102*%
%ADD19R,0.06102X0.06102*%
%ADD20C,0.11811*%
%ADD21C,0.04528*%
%ADD22R,0.04528X0.04528*%
%ADD23C,0.05118*%
%ADD24R,0.05118X0.05118*%
%ADD25C,0.02756*%
%ADD26R,0.02362X0.05512*%
%ADD27R,0.03937X0.03937*%
G36*
X198819Y2362D02*
X179921D01*
Y24409D01*
Y30709D01*
X79256D01*
X79065Y31171D01*
X82018Y34124D01*
X82018Y34124D01*
X82018Y34124D01*
X82540Y34905D01*
X82723Y35827D01*
Y41342D01*
X83238Y42013D01*
X83575Y42827D01*
X83690Y43701D01*
X83575Y44574D01*
X83238Y45388D01*
X82723Y46059D01*
Y66539D01*
X83238Y67210D01*
X83575Y68024D01*
X83690Y68898D01*
X83575Y69771D01*
X83238Y70585D01*
X82702Y71284D01*
X82003Y71821D01*
X81189Y72158D01*
X80315Y72273D01*
X79441Y72158D01*
X78627Y71821D01*
X77928Y71284D01*
X77392Y70585D01*
X77055Y69771D01*
X76940Y68898D01*
X77055Y68024D01*
X77392Y67210D01*
X77907Y66539D01*
Y46059D01*
X77392Y45388D01*
X77055Y44574D01*
X76940Y43701D01*
X77055Y42827D01*
X77392Y42013D01*
X77907Y41342D01*
Y36824D01*
X75774Y34692D01*
X17533D01*
X13432Y38793D01*
Y80105D01*
X29187Y95859D01*
X35901D01*
X36255Y95789D01*
X36623Y95521D01*
X36623Y95521D01*
X36789Y95410D01*
X37434Y94915D01*
X38368Y94528D01*
X39370Y94396D01*
X40372Y94528D01*
X41306Y94915D01*
X42108Y95530D01*
X42723Y96332D01*
X43110Y97266D01*
X43242Y98268D01*
X43110Y99270D01*
X42723Y100204D01*
X42108Y101005D01*
X41306Y101621D01*
X40372Y102007D01*
X39370Y102139D01*
X38368Y102007D01*
X37434Y101621D01*
X36789Y101126D01*
X36623Y101015D01*
X36623Y101015D01*
Y101015D01*
X36255Y100747D01*
X35901Y100676D01*
X28189D01*
X27267Y100493D01*
X26486Y99971D01*
X9321Y82805D01*
X8799Y82024D01*
X8615Y81102D01*
Y37795D01*
X8615Y37795D01*
X8615D01*
X8799Y36874D01*
X9321Y36092D01*
X14832Y30580D01*
X15614Y30058D01*
X16535Y29875D01*
X21260D01*
Y2362D01*
X2362D01*
Y141732D01*
X198819D01*
Y2362D01*
D02*
G37*
%LPC*%
G36*
X53627Y68398D02*
X50106D01*
Y64877D01*
X50664Y64951D01*
X51649Y65359D01*
X52496Y66008D01*
X53145Y66855D01*
X53553Y67840D01*
X53627Y68398D01*
D02*
G37*
G36*
X49106D02*
X45586D01*
X45659Y67840D01*
X46068Y66855D01*
X46717Y66008D01*
X47563Y65359D01*
X48549Y64951D01*
X49106Y64877D01*
Y68398D01*
D02*
G37*
G36*
X124409Y72769D02*
X123407Y72637D01*
X122474Y72251D01*
X121672Y71635D01*
X121056Y70833D01*
X120670Y69900D01*
X120538Y68898D01*
X120670Y67896D01*
X121056Y66962D01*
X121672Y66160D01*
X122474Y65545D01*
X123407Y65158D01*
X124409Y65026D01*
X125411Y65158D01*
X126345Y65545D01*
X127147Y66160D01*
X127762Y66962D01*
X128149Y67896D01*
X128281Y68898D01*
X128149Y69900D01*
X127762Y70833D01*
X127147Y71635D01*
X126345Y72251D01*
X125411Y72637D01*
X124409Y72769D01*
D02*
G37*
G36*
X165354D02*
X164352Y72637D01*
X163418Y72251D01*
X162617Y71635D01*
X162001Y70833D01*
X161615Y69900D01*
X161483Y68898D01*
X161615Y67896D01*
X162001Y66962D01*
X162617Y66160D01*
X163418Y65545D01*
X164352Y65158D01*
X165354Y65026D01*
X166356Y65158D01*
X167290Y65545D01*
X168092Y66160D01*
X168707Y66962D01*
X169094Y67896D01*
X169226Y68898D01*
X169094Y69900D01*
X168707Y70833D01*
X168092Y71635D01*
X167290Y72251D01*
X166356Y72637D01*
X165354Y72769D01*
D02*
G37*
G36*
X155512D02*
X154510Y72637D01*
X153576Y72251D01*
X152774Y71635D01*
X152159Y70833D01*
X151772Y69900D01*
X151640Y68898D01*
X151772Y67896D01*
X152159Y66962D01*
X152774Y66160D01*
X153576Y65545D01*
X154510Y65158D01*
X155512Y65026D01*
X156514Y65158D01*
X157448Y65545D01*
X158249Y66160D01*
X158865Y66962D01*
X159252Y67896D01*
X159383Y68898D01*
X159252Y69900D01*
X158865Y70833D01*
X158249Y71635D01*
X157448Y72251D01*
X156514Y72637D01*
X155512Y72769D01*
D02*
G37*
G36*
X119370Y102139D02*
X118368Y102007D01*
X117434Y101621D01*
X116632Y101005D01*
X116017Y100204D01*
X115630Y99270D01*
X115498Y98268D01*
X115630Y97266D01*
X116017Y96332D01*
X116632Y95530D01*
X116699Y95479D01*
X117371Y94603D01*
X117826Y93505D01*
X117965Y92448D01*
Y92413D01*
X117957Y92327D01*
X117965D01*
Y89291D01*
X118072Y88754D01*
X118377Y88298D01*
X129697Y76977D01*
Y62393D01*
X125402Y58098D01*
X101575D01*
X101037Y57991D01*
X100581Y57686D01*
X98810Y55915D01*
X98505Y55459D01*
X98398Y54921D01*
Y54724D01*
X97244D01*
Y49213D01*
X98380D01*
X98398Y49122D01*
Y48425D01*
X97835D01*
Y41339D01*
X101772D01*
Y48425D01*
X101622D01*
X101430Y48644D01*
X101345Y48772D01*
X101581Y49213D01*
X102756D01*
Y54724D01*
X102246D01*
X102185Y54872D01*
X102463Y55288D01*
X103767D01*
X104118Y54937D01*
X104118Y54934D01*
X104118Y54934D01*
X104118D01*
Y52469D01*
X110055D01*
Y54934D01*
X110055Y54934D01*
D01*
D01*
X110055Y54937D01*
D01*
X110406Y55288D01*
X125984D01*
X126522Y55395D01*
X126978Y55699D01*
X126978Y55699D01*
X126978Y55699D01*
X132096Y60818D01*
X132400Y61273D01*
X132507Y61811D01*
X132507Y61811D01*
X132507Y61811D01*
Y61811D01*
Y77559D01*
X132400Y78097D01*
X132096Y78553D01*
X120775Y89873D01*
Y92327D01*
X120783D01*
X120775Y92413D01*
Y92448D01*
X120914Y93505D01*
X121369Y94603D01*
X122041Y95479D01*
X122108Y95530D01*
X122723Y96332D01*
X123110Y97266D01*
X123242Y98268D01*
X123110Y99270D01*
X122723Y100204D01*
X122108Y101005D01*
X121306Y101621D01*
X120372Y102007D01*
X119370Y102139D01*
D02*
G37*
G36*
X110055Y51468D02*
X104118D01*
Y49000D01*
X105102D01*
Y48638D01*
X105102D01*
Y45382D01*
X109465D01*
Y48638D01*
X109465D01*
Y48646D01*
X109818Y49000D01*
X110055D01*
Y51468D01*
D02*
G37*
G36*
X145169Y68398D02*
X141618D01*
Y64846D01*
X145169D01*
Y68398D01*
D02*
G37*
G36*
X149721Y47752D02*
X146169D01*
Y44201D01*
X149721D01*
Y47752D01*
D02*
G37*
G36*
Y68398D02*
X146169D01*
Y64846D01*
X149721D01*
Y68398D01*
D02*
G37*
G36*
X175197Y72769D02*
X174195Y72637D01*
X173261Y72251D01*
X172459Y71635D01*
X171844Y70833D01*
X171457Y69900D01*
X171325Y68898D01*
X171457Y67896D01*
X171844Y66962D01*
X172459Y66160D01*
X173261Y65545D01*
X174195Y65158D01*
X175197Y65026D01*
X176199Y65158D01*
X177133Y65545D01*
X177935Y66160D01*
X178550Y66962D01*
X178937Y67896D01*
X179069Y68898D01*
X178937Y69900D01*
X178550Y70833D01*
X177935Y71635D01*
X177133Y72251D01*
X176199Y72637D01*
X175197Y72769D01*
D02*
G37*
G36*
X50106Y72918D02*
Y69398D01*
X53627D01*
X53553Y69955D01*
X53145Y70941D01*
X52496Y71787D01*
X51649Y72436D01*
X50664Y72845D01*
X50106Y72918D01*
D02*
G37*
G36*
X49106D02*
X48549Y72845D01*
X47563Y72436D01*
X46717Y71787D01*
X46068Y70941D01*
X45659Y69955D01*
X45586Y69398D01*
X49106D01*
Y72918D01*
D02*
G37*
G36*
X71941Y72457D02*
X68882D01*
Y69398D01*
X71941D01*
Y72457D01*
D02*
G37*
G36*
X145169Y72949D02*
X141618D01*
Y69398D01*
X145169D01*
Y72949D01*
D02*
G37*
G36*
X76000Y72457D02*
X72941D01*
Y69398D01*
X76000D01*
Y72457D01*
D02*
G37*
G36*
X71941Y68398D02*
X68882D01*
Y65339D01*
X71941D01*
Y68398D01*
D02*
G37*
G36*
X185039Y72769D02*
X184037Y72637D01*
X183104Y72251D01*
X182302Y71635D01*
X181686Y70833D01*
X181300Y69900D01*
X181168Y68898D01*
X181300Y67896D01*
X181686Y66962D01*
X182302Y66160D01*
X183104Y65545D01*
X184037Y65158D01*
X185039Y65026D01*
X186041Y65158D01*
X186975Y65545D01*
X187777Y66160D01*
X188392Y66962D01*
X188779Y67896D01*
X188911Y68898D01*
X188779Y69900D01*
X188392Y70833D01*
X187777Y71635D01*
X186975Y72251D01*
X186041Y72637D01*
X185039Y72769D01*
D02*
G37*
G36*
X76000Y68398D02*
X72941D01*
Y65339D01*
X76000D01*
Y68398D01*
D02*
G37*
G36*
X109071Y73122D02*
X107390D01*
Y69866D01*
X108171D01*
X108362Y69404D01*
X105717Y66759D01*
X105118D01*
Y68898D01*
X101181D01*
Y61811D01*
X105118D01*
Y63949D01*
X106299D01*
X106837Y64056D01*
X107293Y64361D01*
X110266Y67335D01*
X110728Y67143D01*
Y65059D01*
X118405D01*
Y72736D01*
X110728D01*
Y70537D01*
X110575Y70434D01*
X109925Y70305D01*
X109843Y70316D01*
Y70303D01*
X109843D01*
X109457Y70226D01*
X109071Y70543D01*
Y73122D01*
D02*
G37*
G36*
X88189Y72273D02*
X87315Y72158D01*
X86501Y71821D01*
X85802Y71284D01*
X85266Y70585D01*
X84929Y69771D01*
X84814Y68898D01*
X84929Y68024D01*
X85266Y67210D01*
X85802Y66511D01*
X86501Y65974D01*
X87315Y65637D01*
X88189Y65522D01*
X89063Y65637D01*
X89877Y65974D01*
X90576Y66511D01*
X91112Y67210D01*
X91449Y68024D01*
X91564Y68898D01*
X91449Y69771D01*
X91112Y70585D01*
X90576Y71284D01*
X89877Y71821D01*
X89063Y72158D01*
X88189Y72273D01*
D02*
G37*
G36*
X124409Y47572D02*
X123407Y47441D01*
X122474Y47054D01*
X121672Y46439D01*
X121056Y45637D01*
X120670Y44703D01*
X120538Y43701D01*
X120670Y42699D01*
X121056Y41765D01*
X121672Y40963D01*
X122474Y40348D01*
X123407Y39961D01*
X124409Y39829D01*
X125411Y39961D01*
X126345Y40348D01*
X127147Y40963D01*
X127762Y41765D01*
X128149Y42699D01*
X128281Y43701D01*
X128149Y44703D01*
X127762Y45637D01*
X127147Y46439D01*
X126345Y47054D01*
X125411Y47441D01*
X124409Y47572D01*
D02*
G37*
G36*
X39764Y72769D02*
X38762Y72637D01*
X37828Y72251D01*
X37026Y71635D01*
X36411Y70833D01*
X36024Y69900D01*
X35892Y68898D01*
X36024Y67896D01*
X36411Y66962D01*
X36984Y66215D01*
Y46384D01*
X36411Y45637D01*
X36024Y44703D01*
X35892Y43701D01*
X36024Y42699D01*
X36411Y41765D01*
X37026Y40963D01*
X37828Y40348D01*
X38762Y39961D01*
X39764Y39829D01*
X40766Y39961D01*
X41700Y40348D01*
X42502Y40963D01*
X43117Y41765D01*
X43504Y42699D01*
X43635Y43701D01*
X43504Y44703D01*
X43117Y45637D01*
X42544Y46384D01*
Y66215D01*
X43117Y66962D01*
X43504Y67896D01*
X43635Y68898D01*
X43504Y69900D01*
X43117Y70833D01*
X42502Y71635D01*
X41700Y72251D01*
X40766Y72637D01*
X39764Y72769D01*
D02*
G37*
G36*
X155512Y47572D02*
X154510Y47441D01*
X153576Y47054D01*
X152774Y46439D01*
X152159Y45637D01*
X151772Y44703D01*
X151640Y43701D01*
X151772Y42699D01*
X152159Y41765D01*
X152774Y40963D01*
X153576Y40348D01*
X154510Y39961D01*
X155512Y39829D01*
X156514Y39961D01*
X157448Y40348D01*
X158249Y40963D01*
X158865Y41765D01*
X159252Y42699D01*
X159383Y43701D01*
X159252Y44703D01*
X158865Y45637D01*
X158249Y46439D01*
X157448Y47054D01*
X156514Y47441D01*
X155512Y47572D01*
D02*
G37*
G36*
X175197D02*
X174195Y47441D01*
X173261Y47054D01*
X172459Y46439D01*
X171844Y45637D01*
X171457Y44703D01*
X171325Y43701D01*
X171457Y42699D01*
X171844Y41765D01*
X172459Y40963D01*
X173261Y40348D01*
X174195Y39961D01*
X175197Y39829D01*
X176199Y39961D01*
X177133Y40348D01*
X177935Y40963D01*
X178550Y41765D01*
X178937Y42699D01*
X179069Y43701D01*
X178937Y44703D01*
X178550Y45637D01*
X177935Y46439D01*
X177133Y47054D01*
X176199Y47441D01*
X175197Y47572D01*
D02*
G37*
G36*
X165354D02*
X164352Y47441D01*
X163418Y47054D01*
X162617Y46439D01*
X162001Y45637D01*
X161615Y44703D01*
X161483Y43701D01*
X161615Y42699D01*
X162001Y41765D01*
X162617Y40963D01*
X163418Y40348D01*
X164352Y39961D01*
X165354Y39829D01*
X166356Y39961D01*
X167290Y40348D01*
X168092Y40963D01*
X168707Y41765D01*
X169094Y42699D01*
X169226Y43701D01*
X169094Y44703D01*
X168707Y45637D01*
X168092Y46439D01*
X167290Y47054D01*
X166356Y47441D01*
X165354Y47572D01*
D02*
G37*
G36*
X53627Y43201D02*
X50106D01*
Y39680D01*
X50664Y39754D01*
X51649Y40162D01*
X52496Y40811D01*
X53145Y41658D01*
X53553Y42643D01*
X53627Y43201D01*
D02*
G37*
G36*
X189409Y18536D02*
X188097Y18407D01*
X186836Y18024D01*
X185673Y17403D01*
X184654Y16567D01*
X183818Y15547D01*
X183196Y14385D01*
X182813Y13123D01*
X182684Y11811D01*
X182813Y10499D01*
X183196Y9237D01*
X183818Y8075D01*
X184654Y7056D01*
X185673Y6219D01*
X186836Y5598D01*
X188097Y5215D01*
X189409Y5086D01*
X190721Y5215D01*
X191983Y5598D01*
X193146Y6219D01*
X194165Y7056D01*
X195001Y8075D01*
X195623Y9237D01*
X196005Y10499D01*
X196135Y11811D01*
X196005Y13123D01*
X195623Y14385D01*
X195001Y15547D01*
X194165Y16567D01*
X193146Y17403D01*
X191983Y18024D01*
X190721Y18407D01*
X189409Y18536D01*
D02*
G37*
G36*
X11811D02*
X10499Y18407D01*
X9237Y18024D01*
X8075Y17403D01*
X7056Y16567D01*
X6219Y15547D01*
X5598Y14385D01*
X5215Y13123D01*
X5086Y11811D01*
X5215Y10499D01*
X5598Y9237D01*
X6219Y8075D01*
X7056Y7056D01*
X8075Y6219D01*
X9237Y5598D01*
X10499Y5215D01*
X11811Y5086D01*
X13123Y5215D01*
X14385Y5598D01*
X15547Y6219D01*
X16567Y7056D01*
X17403Y8075D01*
X18024Y9237D01*
X18407Y10499D01*
X18536Y11811D01*
X18407Y13123D01*
X18024Y14385D01*
X17403Y15547D01*
X16567Y16567D01*
X15547Y17403D01*
X14385Y18024D01*
X13123Y18407D01*
X11811Y18536D01*
D02*
G37*
G36*
X145169Y43201D02*
X141618D01*
Y39650D01*
X145169D01*
Y43201D01*
D02*
G37*
G36*
X49106D02*
X45586D01*
X45659Y42643D01*
X46068Y41658D01*
X46717Y40811D01*
X47563Y40162D01*
X48549Y39754D01*
X49106Y39680D01*
Y43201D01*
D02*
G37*
G36*
X149721D02*
X146169D01*
Y39650D01*
X149721D01*
Y43201D01*
D02*
G37*
G36*
X50106Y47721D02*
Y44201D01*
X53627D01*
X53553Y44758D01*
X53145Y45744D01*
X52496Y46590D01*
X51649Y47240D01*
X50664Y47648D01*
X50106Y47721D01*
D02*
G37*
G36*
X49106D02*
X48549Y47648D01*
X47563Y47240D01*
X46717Y46590D01*
X46068Y45744D01*
X45659Y44758D01*
X45586Y44201D01*
X49106D01*
Y47721D01*
D02*
G37*
G36*
X71941Y47260D02*
X68882D01*
Y44201D01*
X71941D01*
Y47260D01*
D02*
G37*
G36*
X145169Y47752D02*
X141618D01*
Y44201D01*
X145169D01*
Y47752D01*
D02*
G37*
G36*
X76000Y47260D02*
X72941D01*
Y44201D01*
X76000D01*
Y47260D01*
D02*
G37*
G36*
X118405Y47539D02*
X110728D01*
Y43837D01*
X110701Y43701D01*
X110701D01*
X110715Y43685D01*
X110562Y42523D01*
X110108Y41425D01*
X109938Y41204D01*
X109759Y41265D01*
Y41265D01*
X109465Y41365D01*
Y44382D01*
X107783D01*
Y41126D01*
X109313D01*
X109430Y40889D01*
Y40889D01*
X109534Y40678D01*
X109458Y40579D01*
X109433Y40554D01*
X109367Y40500D01*
X109373Y40494D01*
X106898Y38019D01*
X105512D01*
Y40157D01*
X101575D01*
Y33071D01*
X105512D01*
Y35209D01*
X107480D01*
X108018Y35316D01*
X108474Y35621D01*
X111360Y38507D01*
X111366Y38501D01*
X111420Y38567D01*
X111445Y38592D01*
X112291Y39241D01*
X113389Y39696D01*
X114551Y39849D01*
X114567Y39835D01*
Y39835D01*
X114703Y39862D01*
X118405D01*
Y47539D01*
D02*
G37*
G36*
X71941Y43201D02*
X68882D01*
Y40142D01*
X71941D01*
Y43201D01*
D02*
G37*
G36*
X185039Y47572D02*
X184037Y47441D01*
X183104Y47054D01*
X182302Y46439D01*
X181686Y45637D01*
X181300Y44703D01*
X181168Y43701D01*
X181300Y42699D01*
X181686Y41765D01*
X182302Y40963D01*
X183104Y40348D01*
X184037Y39961D01*
X185039Y39829D01*
X186041Y39961D01*
X186975Y40348D01*
X187777Y40963D01*
X188392Y41765D01*
X188779Y42699D01*
X188911Y43701D01*
X188779Y44703D01*
X188392Y45637D01*
X187777Y46439D01*
X186975Y47054D01*
X186041Y47441D01*
X185039Y47572D01*
D02*
G37*
G36*
X76000Y43201D02*
X72941D01*
Y40142D01*
X76000D01*
Y43201D01*
D02*
G37*
G36*
X106783Y44382D02*
X105102D01*
Y41126D01*
X106783D01*
Y44382D01*
D02*
G37*
G36*
X88189Y47076D02*
X87315Y46961D01*
X86501Y46624D01*
X85802Y46088D01*
X85266Y45388D01*
X84929Y44574D01*
X84814Y43701D01*
X84929Y42827D01*
X85266Y42013D01*
X85802Y41314D01*
X86501Y40778D01*
X87315Y40440D01*
X88189Y40325D01*
X89063Y40440D01*
X89877Y40778D01*
X90576Y41314D01*
X91112Y42013D01*
X91449Y42827D01*
X91564Y43701D01*
X91449Y44574D01*
X91112Y45388D01*
X90576Y46088D01*
X89877Y46624D01*
X89063Y46961D01*
X88189Y47076D01*
D02*
G37*
G36*
X149721Y72949D02*
X146169D01*
Y69398D01*
X149721D01*
Y72949D01*
D02*
G37*
G36*
X179370Y112139D02*
X178368Y112007D01*
X177434Y111621D01*
X176632Y111005D01*
X176017Y110204D01*
X175630Y109270D01*
X175498Y108268D01*
X175630Y107266D01*
X176017Y106332D01*
X176632Y105530D01*
X177434Y104915D01*
X178368Y104528D01*
X179370Y104396D01*
X180372Y104528D01*
X181306Y104915D01*
X182108Y105530D01*
X182723Y106332D01*
X183110Y107266D01*
X183242Y108268D01*
X183110Y109270D01*
X182723Y110204D01*
X182108Y111005D01*
X181306Y111621D01*
X180372Y112007D01*
X179370Y112139D01*
D02*
G37*
G36*
X169370D02*
X168368Y112007D01*
X167434Y111621D01*
X166632Y111005D01*
X166017Y110204D01*
X165630Y109270D01*
X165498Y108268D01*
X165630Y107266D01*
X166017Y106332D01*
X166632Y105530D01*
X167434Y104915D01*
X168368Y104528D01*
X169370Y104396D01*
X170372Y104528D01*
X171306Y104915D01*
X172108Y105530D01*
X172723Y106332D01*
X173110Y107266D01*
X173242Y108268D01*
X173110Y109270D01*
X172723Y110204D01*
X172108Y111005D01*
X171306Y111621D01*
X170372Y112007D01*
X169370Y112139D01*
D02*
G37*
G36*
X43209Y112106D02*
X35531D01*
Y104429D01*
X43209D01*
Y112106D01*
D02*
G37*
G36*
X99870Y112288D02*
Y108768D01*
X103390D01*
X103317Y109325D01*
X102909Y110311D01*
X102259Y111157D01*
X101413Y111806D01*
X100428Y112215D01*
X99870Y112288D01*
D02*
G37*
G36*
X98870D02*
X98312Y112215D01*
X97327Y111806D01*
X96481Y111157D01*
X95831Y110311D01*
X95423Y109325D01*
X95350Y108768D01*
X98870D01*
Y112288D01*
D02*
G37*
G36*
X133390Y107768D02*
X129870D01*
Y104247D01*
X130428Y104321D01*
X131413Y104729D01*
X132259Y105378D01*
X132909Y106225D01*
X133317Y107210D01*
X133390Y107768D01*
D02*
G37*
G36*
X128870D02*
X125350D01*
X125423Y107210D01*
X125831Y106225D01*
X126481Y105378D01*
X127327Y104729D01*
X128313Y104321D01*
X128870Y104247D01*
Y107768D01*
D02*
G37*
G36*
X139370Y112139D02*
X138368Y112007D01*
X137434Y111621D01*
X136632Y111005D01*
X136017Y110204D01*
X135630Y109270D01*
X135498Y108268D01*
X135630Y107266D01*
X136017Y106332D01*
X136632Y105530D01*
X137434Y104915D01*
X138368Y104528D01*
X139370Y104396D01*
X140372Y104528D01*
X141306Y104915D01*
X142108Y105530D01*
X142723Y106332D01*
X143110Y107266D01*
X143242Y108268D01*
X143110Y109270D01*
X142723Y110204D01*
X142108Y111005D01*
X141306Y111621D01*
X140372Y112007D01*
X139370Y112139D01*
D02*
G37*
G36*
X159370D02*
X158368Y112007D01*
X157434Y111621D01*
X156632Y111005D01*
X156017Y110204D01*
X155630Y109270D01*
X155498Y108268D01*
X155630Y107266D01*
X156017Y106332D01*
X156632Y105530D01*
X157434Y104915D01*
X158368Y104528D01*
X159370Y104396D01*
X160372Y104528D01*
X161306Y104915D01*
X162108Y105530D01*
X162723Y106332D01*
X163110Y107266D01*
X163242Y108268D01*
X163110Y109270D01*
X162723Y110204D01*
X162108Y111005D01*
X161306Y111621D01*
X160372Y112007D01*
X159370Y112139D01*
D02*
G37*
G36*
X149370D02*
X148368Y112007D01*
X147434Y111621D01*
X146632Y111005D01*
X146017Y110204D01*
X145630Y109270D01*
X145498Y108268D01*
X145630Y107266D01*
X146017Y106332D01*
X146632Y105530D01*
X147434Y104915D01*
X148368Y104528D01*
X149370Y104396D01*
X150372Y104528D01*
X151306Y104915D01*
X152108Y105530D01*
X152723Y106332D01*
X153110Y107266D01*
X153242Y108268D01*
X153110Y109270D01*
X152723Y110204D01*
X152108Y111005D01*
X151306Y111621D01*
X150372Y112007D01*
X149370Y112139D01*
D02*
G37*
G36*
X108870Y112288D02*
X108312Y112215D01*
X107327Y111806D01*
X106481Y111157D01*
X105831Y110311D01*
X105423Y109325D01*
X105350Y108768D01*
X108870D01*
Y112288D01*
D02*
G37*
G36*
X11811Y139245D02*
X10499Y139116D01*
X9237Y138733D01*
X8075Y138111D01*
X7056Y137275D01*
X6219Y136256D01*
X5598Y135093D01*
X5215Y133832D01*
X5086Y132520D01*
X5215Y131208D01*
X5598Y129946D01*
X6219Y128783D01*
X7056Y127764D01*
X8075Y126928D01*
X9237Y126306D01*
X10499Y125924D01*
X11811Y125794D01*
X13123Y125924D01*
X14385Y126306D01*
X15547Y126928D01*
X16567Y127764D01*
X17403Y128783D01*
X18024Y129946D01*
X18407Y131208D01*
X18536Y132520D01*
X18407Y133832D01*
X18024Y135093D01*
X17403Y136256D01*
X16567Y137275D01*
X15547Y138111D01*
X14385Y138733D01*
X13123Y139116D01*
X11811Y139245D01*
D02*
G37*
G36*
X79370Y112139D02*
X78368Y112007D01*
X77434Y111621D01*
X76687Y111047D01*
X72053D01*
X71306Y111621D01*
X70372Y112007D01*
X69370Y112139D01*
X68368Y112007D01*
X67434Y111621D01*
X66632Y111005D01*
X66017Y110204D01*
X65630Y109270D01*
X65498Y108268D01*
X65630Y107266D01*
X66017Y106332D01*
X66632Y105530D01*
X67434Y104915D01*
X68368Y104528D01*
X69370Y104396D01*
X70372Y104528D01*
X71306Y104915D01*
X72053Y105488D01*
X76687D01*
X77434Y104915D01*
X78368Y104528D01*
X79370Y104396D01*
X80372Y104528D01*
X81306Y104915D01*
X82108Y105530D01*
X82723Y106332D01*
X83110Y107266D01*
X83242Y108268D01*
X83110Y109270D01*
X82723Y110204D01*
X82108Y111005D01*
X81306Y111621D01*
X80372Y112007D01*
X79370Y112139D01*
D02*
G37*
G36*
X189409Y139245D02*
X188097Y139116D01*
X186836Y138733D01*
X185673Y138111D01*
X184654Y137275D01*
X183817Y136256D01*
X183196Y135093D01*
X182813Y133832D01*
X182684Y132520D01*
X182813Y131208D01*
X183196Y129946D01*
X183817Y128783D01*
X184654Y127764D01*
X185673Y126928D01*
X186836Y126306D01*
X188097Y125924D01*
X189409Y125794D01*
X190721Y125924D01*
X191983Y126306D01*
X193146Y126928D01*
X194165Y127764D01*
X195001Y128783D01*
X195623Y129946D01*
X196005Y131208D01*
X196135Y132520D01*
X196005Y133832D01*
X195623Y135093D01*
X195001Y136256D01*
X194165Y137275D01*
X193146Y138111D01*
X191983Y138733D01*
X190721Y139116D01*
X189409Y139245D01*
D02*
G37*
G36*
X107087Y133310D02*
X106242Y133142D01*
X105526Y132664D01*
X105047Y131947D01*
X104879Y131102D01*
X104889Y131051D01*
X104776Y130779D01*
X104756Y130759D01*
X104748Y130753D01*
X104749Y130752D01*
X104749Y130752D01*
X88377Y114379D01*
X88072Y113924D01*
X87965Y113386D01*
Y113386D01*
X87945D01*
X87955Y113309D01*
X87874Y112690D01*
X87605Y112042D01*
X87178Y111486D01*
X86942Y111304D01*
Y111304D01*
X86933Y111245D01*
X86840Y111183D01*
X86815Y111145D01*
X86632Y111005D01*
X86017Y110204D01*
X85630Y109270D01*
X85498Y108268D01*
X85630Y107266D01*
X86017Y106332D01*
X86632Y105530D01*
X87434Y104915D01*
X88368Y104528D01*
X89370Y104396D01*
X90372Y104528D01*
X91306Y104915D01*
X92108Y105530D01*
X92723Y106332D01*
X93110Y107266D01*
X93242Y108268D01*
X93110Y109270D01*
X92723Y110204D01*
X92108Y111005D01*
X91925Y111145D01*
X91900Y111183D01*
X91807Y111245D01*
X91798Y111304D01*
Y111304D01*
X91562Y111486D01*
X91135Y112042D01*
X90867Y112690D01*
X90843Y112872D01*
X106736Y128765D01*
X106736Y128765D01*
X106737Y128764D01*
X106743Y128772D01*
X106763Y128792D01*
X107035Y128905D01*
X107087Y128895D01*
X107931Y129063D01*
X108648Y129541D01*
X109126Y130257D01*
X109294Y131102D01*
X109126Y131947D01*
X108648Y132664D01*
X107931Y133142D01*
X107087Y133310D01*
D02*
G37*
G36*
X81102Y133310D02*
X80257Y133142D01*
X79541Y132664D01*
X79063Y131947D01*
X78895Y131102D01*
X78905Y131051D01*
X78792Y130779D01*
X78772Y130759D01*
X78764Y130753D01*
X78765Y130752D01*
X78765Y130752D01*
X66741Y118728D01*
X58661D01*
X58124Y118621D01*
X57668Y118316D01*
X53337Y113986D01*
X53033Y113530D01*
X52926Y112992D01*
Y110717D01*
X52452Y110556D01*
X52108Y111005D01*
X51306Y111621D01*
X50372Y112007D01*
X49370Y112139D01*
X48368Y112007D01*
X47434Y111621D01*
X46632Y111005D01*
X46017Y110204D01*
X45630Y109270D01*
X45498Y108268D01*
X45630Y107266D01*
X46017Y106332D01*
X46632Y105530D01*
X47434Y104915D01*
X48368Y104528D01*
X49370Y104396D01*
X50372Y104528D01*
X51306Y104915D01*
X52108Y105530D01*
X52452Y105979D01*
X52926Y105818D01*
Y103810D01*
X52577Y103462D01*
X52571Y103468D01*
X52517Y103401D01*
X52492Y103376D01*
X51646Y102727D01*
X50548Y102272D01*
X49454Y102128D01*
X49370Y102139D01*
X48368Y102007D01*
X47434Y101621D01*
X46632Y101005D01*
X46017Y100204D01*
X45630Y99270D01*
X45498Y98268D01*
X45630Y97266D01*
X46017Y96332D01*
X46632Y95530D01*
X47434Y94915D01*
X48368Y94528D01*
X49370Y94396D01*
X50372Y94528D01*
X51306Y94915D01*
X52108Y95530D01*
X52723Y96332D01*
X53110Y97266D01*
X53242Y98268D01*
X53231Y98352D01*
X53375Y99446D01*
X53829Y100543D01*
X54479Y101389D01*
X54504Y101414D01*
X54570Y101469D01*
X54564Y101475D01*
X55324Y102235D01*
X55629Y102691D01*
X55736Y103228D01*
Y105921D01*
X56209Y106082D01*
X56632Y105530D01*
X57434Y104915D01*
X58368Y104528D01*
X59370Y104396D01*
X60372Y104528D01*
X61306Y104915D01*
X62108Y105530D01*
X62723Y106332D01*
X63110Y107266D01*
X63242Y108268D01*
X63110Y109270D01*
X62723Y110204D01*
X62108Y111005D01*
X61306Y111621D01*
X60372Y112007D01*
X59370Y112139D01*
X58368Y112007D01*
X57434Y111621D01*
X56632Y111005D01*
X56209Y110454D01*
X55736Y110615D01*
Y112410D01*
X59243Y115918D01*
X67323D01*
X67861Y116025D01*
X68316Y116329D01*
X68316Y116329D01*
X68316Y116329D01*
X80752Y128765D01*
X80752Y128765D01*
X80752Y128764D01*
X80759Y128772D01*
X80779Y128792D01*
X81051Y128905D01*
X81102Y128895D01*
X81947Y129063D01*
X82664Y129541D01*
X83142Y130257D01*
X83310Y131102D01*
X83142Y131947D01*
X82664Y132664D01*
X81947Y133142D01*
X81102Y133310D01*
D02*
G37*
G36*
X118870Y112288D02*
X118313Y112215D01*
X117327Y111806D01*
X116481Y111157D01*
X115831Y110311D01*
X115423Y109325D01*
X115350Y108768D01*
X118870D01*
Y112288D01*
D02*
G37*
G36*
X109870D02*
Y108768D01*
X113390D01*
X113317Y109325D01*
X112909Y110311D01*
X112259Y111157D01*
X111413Y111806D01*
X110428Y112215D01*
X109870Y112288D01*
D02*
G37*
G36*
X119870D02*
Y108768D01*
X123390D01*
X123317Y109325D01*
X122909Y110311D01*
X122259Y111157D01*
X121413Y111806D01*
X120428Y112215D01*
X119870Y112288D01*
D02*
G37*
G36*
X129870D02*
Y108768D01*
X133390D01*
X133317Y109325D01*
X132909Y110311D01*
X132259Y111157D01*
X131413Y111806D01*
X130428Y112215D01*
X129870Y112288D01*
D02*
G37*
G36*
X128870D02*
X128313Y112215D01*
X127327Y111806D01*
X126481Y111157D01*
X125831Y110311D01*
X125423Y109325D01*
X125350Y108768D01*
X128870D01*
Y112288D01*
D02*
G37*
G36*
X123390Y107768D02*
X119870D01*
Y104247D01*
X120428Y104321D01*
X121413Y104729D01*
X122259Y105378D01*
X122909Y106225D01*
X123317Y107210D01*
X123390Y107768D01*
D02*
G37*
G36*
X69370Y102139D02*
X68368Y102007D01*
X67434Y101621D01*
X66632Y101005D01*
X66017Y100204D01*
X65630Y99270D01*
X65498Y98268D01*
X65630Y97266D01*
X66017Y96332D01*
X66632Y95530D01*
X67434Y94915D01*
X68368Y94528D01*
X69370Y94396D01*
X70372Y94528D01*
X71306Y94915D01*
X72108Y95530D01*
X72723Y96332D01*
X73110Y97266D01*
X73242Y98268D01*
X73110Y99270D01*
X72723Y100204D01*
X72108Y101005D01*
X71306Y101621D01*
X70372Y102007D01*
X69370Y102139D01*
D02*
G37*
G36*
X59370D02*
X58368Y102007D01*
X57434Y101621D01*
X56632Y101005D01*
X56017Y100204D01*
X55630Y99270D01*
X55498Y98268D01*
X55630Y97266D01*
X56017Y96332D01*
X56632Y95530D01*
X57434Y94915D01*
X58368Y94528D01*
X59370Y94396D01*
X60372Y94528D01*
X61306Y94915D01*
X62108Y95530D01*
X62723Y96332D01*
X63110Y97266D01*
X63242Y98268D01*
X63110Y99270D01*
X62723Y100204D01*
X62108Y101005D01*
X61306Y101621D01*
X60372Y102007D01*
X59370Y102139D01*
D02*
G37*
G36*
X79370D02*
X78368Y102007D01*
X77434Y101621D01*
X76632Y101005D01*
X76017Y100204D01*
X75630Y99270D01*
X75498Y98268D01*
X75630Y97266D01*
X76017Y96332D01*
X76632Y95530D01*
X77434Y94915D01*
X78368Y94528D01*
X79370Y94396D01*
X80372Y94528D01*
X81306Y94915D01*
X82108Y95530D01*
X82723Y96332D01*
X83110Y97266D01*
X83242Y98268D01*
X83110Y99270D01*
X82723Y100204D01*
X82108Y101005D01*
X81306Y101621D01*
X80372Y102007D01*
X79370Y102139D01*
D02*
G37*
G36*
X109370D02*
X108368Y102007D01*
X107434Y101621D01*
X106632Y101005D01*
X106017Y100204D01*
X105630Y99270D01*
X105498Y98268D01*
X105509Y98184D01*
X105365Y97090D01*
X104911Y95992D01*
X104262Y95146D01*
X104236Y95121D01*
X104170Y95067D01*
X104176Y95061D01*
X98416Y89301D01*
X98111Y88845D01*
X98005Y88307D01*
Y84511D01*
X97985D01*
X98005Y84363D01*
Y83555D01*
X97987Y83465D01*
X96850D01*
Y77953D01*
X97987D01*
X98005Y77862D01*
Y77165D01*
X97441D01*
Y70079D01*
X101378D01*
Y77165D01*
X101228D01*
X101036Y77384D01*
X100951Y77512D01*
X101187Y77953D01*
X102362D01*
Y83465D01*
X101059D01*
X100904Y83839D01*
X100815Y84511D01*
X100814D01*
Y87725D01*
X106163Y93074D01*
X106169Y93068D01*
X106223Y93134D01*
X106249Y93159D01*
X107094Y93808D01*
X108192Y94263D01*
X109286Y94407D01*
X109370Y94396D01*
X110372Y94528D01*
X111306Y94915D01*
X112108Y95530D01*
X112723Y96332D01*
X113110Y97266D01*
X113242Y98268D01*
X113110Y99270D01*
X112723Y100204D01*
X112108Y101005D01*
X111306Y101621D01*
X110372Y102007D01*
X109370Y102139D01*
D02*
G37*
G36*
X99370D02*
X98368Y102007D01*
X97434Y101621D01*
X96632Y101005D01*
X96017Y100204D01*
X95630Y99270D01*
X95498Y98268D01*
X95509Y98184D01*
X95365Y97090D01*
X94911Y95992D01*
X94262Y95146D01*
X94236Y95121D01*
X94170Y95067D01*
X94176Y95061D01*
X85715Y86599D01*
X85680Y86547D01*
X84423Y85515D01*
X82934Y84719D01*
X81318Y84229D01*
X79699Y84070D01*
X79637Y84082D01*
X76560D01*
X76462Y84572D01*
X77181Y84870D01*
X78708Y85806D01*
X80070Y86969D01*
X80064Y86975D01*
X86163Y93074D01*
X86169Y93068D01*
X86223Y93134D01*
X86249Y93159D01*
X87094Y93808D01*
X88192Y94263D01*
X89286Y94407D01*
X89370Y94396D01*
X90372Y94528D01*
X91306Y94915D01*
X92108Y95530D01*
X92723Y96332D01*
X93110Y97266D01*
X93242Y98268D01*
X93110Y99270D01*
X92723Y100204D01*
X92108Y101005D01*
X91306Y101621D01*
X90372Y102007D01*
X89370Y102139D01*
X88368Y102007D01*
X87434Y101621D01*
X86632Y101005D01*
X86017Y100204D01*
X85630Y99270D01*
X85498Y98268D01*
X85509Y98184D01*
X85365Y97090D01*
X84911Y95992D01*
X84262Y95146D01*
X84237Y95121D01*
X84170Y95067D01*
X84176Y95061D01*
X78077Y88962D01*
X78042Y88909D01*
X76785Y87878D01*
X75296Y87081D01*
X73680Y86591D01*
X72062Y86432D01*
X72000Y86444D01*
X40363D01*
Y86453D01*
X38577Y86312D01*
X36836Y85894D01*
X35181Y85208D01*
X33654Y84273D01*
X32292Y83110D01*
X32298Y83104D01*
X23286Y74092D01*
X23280Y74098D01*
X23225Y74031D01*
X23200Y74006D01*
X22354Y73357D01*
X21257Y72902D01*
X20095Y72749D01*
X20079Y72763D01*
Y72763D01*
X19943Y72736D01*
X16240D01*
Y65059D01*
X18152D01*
X18535Y64135D01*
X18674Y63078D01*
Y63042D01*
X18665Y62957D01*
X18674D01*
Y49641D01*
X18665D01*
X18674Y49556D01*
Y49520D01*
X18535Y48463D01*
X18152Y47539D01*
X16240D01*
Y39862D01*
X23917D01*
Y47539D01*
X22005D01*
X21623Y48463D01*
X21484Y49520D01*
Y49556D01*
X21492Y49641D01*
X21484D01*
Y62957D01*
X21492D01*
X21484Y63042D01*
Y63078D01*
X21623Y64135D01*
X22005Y65059D01*
X23917D01*
Y68762D01*
X23944Y68898D01*
X23944D01*
X23931Y68914D01*
X24083Y70076D01*
X24538Y71173D01*
X25187Y72019D01*
X25212Y72044D01*
X25279Y72099D01*
X25273Y72105D01*
X34285Y81117D01*
X34320Y81170D01*
X35577Y82201D01*
X37066Y82997D01*
X38682Y83487D01*
X40301Y83647D01*
X40363Y83634D01*
X43283D01*
X43380Y83144D01*
X42661Y82846D01*
X41135Y81911D01*
X39773Y80747D01*
X39778Y80742D01*
X33128Y74092D01*
X33122Y74098D01*
X33068Y74031D01*
X33043Y74006D01*
X32197Y73357D01*
X31099Y72902D01*
X30005Y72758D01*
X29921Y72769D01*
X28919Y72637D01*
X27985Y72251D01*
X27184Y71635D01*
X26568Y70833D01*
X26182Y69900D01*
X26050Y68898D01*
X26182Y67896D01*
X26568Y66962D01*
X27184Y66160D01*
X27251Y66109D01*
X27922Y65233D01*
X28377Y64135D01*
X28516Y63078D01*
Y63042D01*
X28508Y62957D01*
X28516D01*
Y49641D01*
X28508D01*
X28516Y49556D01*
Y49520D01*
X28377Y48463D01*
X27922Y47365D01*
X27251Y46490D01*
X27184Y46439D01*
X26568Y45637D01*
X26182Y44703D01*
X26050Y43701D01*
X26182Y42699D01*
X26568Y41765D01*
X27184Y40963D01*
X27985Y40348D01*
X28919Y39961D01*
X29921Y39829D01*
X30923Y39961D01*
X31857Y40348D01*
X32659Y40963D01*
X33274Y41765D01*
X33661Y42699D01*
X33793Y43701D01*
X33661Y44703D01*
X33274Y45637D01*
X32659Y46439D01*
X32592Y46490D01*
X31920Y47365D01*
X31465Y48463D01*
X31326Y49520D01*
Y49556D01*
X31335Y49641D01*
X31326D01*
Y62957D01*
X31335D01*
X31326Y63042D01*
Y63078D01*
X31465Y64135D01*
X31920Y65233D01*
X32592Y66109D01*
X32659Y66160D01*
X33274Y66962D01*
X33661Y67896D01*
X33793Y68898D01*
X33782Y68981D01*
X33926Y70076D01*
X34381Y71173D01*
X35030Y72019D01*
X35055Y72044D01*
X35121Y72099D01*
X35115Y72105D01*
X41765Y78755D01*
X41800Y78807D01*
X43058Y79839D01*
X44547Y80635D01*
X46163Y81125D01*
X47781Y81285D01*
X47843Y81272D01*
X79637D01*
Y81264D01*
X81423Y81405D01*
X83164Y81823D01*
X84819Y82508D01*
X86346Y83444D01*
X87708Y84607D01*
X87702Y84613D01*
X96163Y93074D01*
X96169Y93068D01*
X96223Y93134D01*
X96249Y93159D01*
X97094Y93808D01*
X98192Y94263D01*
X99286Y94407D01*
X99370Y94396D01*
X100372Y94528D01*
X101306Y94915D01*
X102108Y95530D01*
X102723Y96332D01*
X103110Y97266D01*
X103242Y98268D01*
X103110Y99270D01*
X102723Y100204D01*
X102108Y101005D01*
X101306Y101621D01*
X100372Y102007D01*
X99370Y102139D01*
D02*
G37*
G36*
X109661Y80209D02*
X103724D01*
Y77740D01*
X104709D01*
Y77378D01*
X104709D01*
Y74122D01*
X109071D01*
Y77378D01*
X109071D01*
Y77387D01*
X109424Y77740D01*
X109661D01*
Y80209D01*
D02*
G37*
G36*
X106390Y73122D02*
X104709D01*
Y69866D01*
X106390D01*
Y73122D01*
D02*
G37*
G36*
X106193Y83677D02*
X103724D01*
Y81209D01*
X106193D01*
Y83677D01*
D02*
G37*
G36*
X13189Y114731D02*
X12393Y114626D01*
X11650Y114319D01*
X11013Y113830D01*
X10524Y113192D01*
X10216Y112450D01*
X10112Y111653D01*
X10216Y110857D01*
X10524Y110115D01*
X11013Y109477D01*
X11443Y109148D01*
Y108648D01*
X11013Y108318D01*
X10524Y107680D01*
X10216Y106938D01*
X10112Y106142D01*
X10216Y105345D01*
X10524Y104603D01*
X11013Y103966D01*
X11443Y103636D01*
Y103136D01*
X11013Y102806D01*
X10524Y102169D01*
X10216Y101426D01*
X10112Y100630D01*
X10216Y99833D01*
X10524Y99091D01*
X10887Y98618D01*
X10666Y98169D01*
X10138D01*
Y92067D01*
X16240D01*
Y98169D01*
X15712D01*
X15491Y98618D01*
X15854Y99091D01*
X16162Y99833D01*
X16266Y100630D01*
X16162Y101426D01*
X15854Y102169D01*
X15365Y102806D01*
X14935Y103136D01*
Y103636D01*
X15365Y103966D01*
X15854Y104603D01*
X16162Y105345D01*
X16266Y106142D01*
X16162Y106938D01*
X15854Y107680D01*
X15365Y108318D01*
X14935Y108648D01*
Y109148D01*
X15365Y109477D01*
X15854Y110115D01*
X16162Y110857D01*
X16266Y111653D01*
X16162Y112450D01*
X15854Y113192D01*
X15365Y113830D01*
X14728Y114319D01*
X13985Y114626D01*
X13189Y114731D01*
D02*
G37*
G36*
X109661Y83677D02*
X107193D01*
Y81209D01*
X109661D01*
Y83677D01*
D02*
G37*
G36*
X129370Y102139D02*
X128368Y102007D01*
X127434Y101621D01*
X126632Y101005D01*
X126017Y100204D01*
X125630Y99270D01*
X125498Y98268D01*
X125630Y97266D01*
X126017Y96332D01*
X126632Y95530D01*
X127434Y94915D01*
X128368Y94528D01*
X129370Y94396D01*
X130372Y94528D01*
X131306Y94915D01*
X132108Y95530D01*
X132723Y96332D01*
X133110Y97266D01*
X133242Y98268D01*
X133110Y99270D01*
X132723Y100204D01*
X132108Y101005D01*
X131306Y101621D01*
X130372Y102007D01*
X129370Y102139D01*
D02*
G37*
G36*
X103390Y107768D02*
X99870D01*
Y104247D01*
X100428Y104321D01*
X101413Y104729D01*
X102259Y105378D01*
X102909Y106225D01*
X103317Y107210D01*
X103390Y107768D01*
D02*
G37*
G36*
X98870D02*
X95350D01*
X95423Y107210D01*
X95831Y106225D01*
X96481Y105378D01*
X97327Y104729D01*
X98312Y104321D01*
X98870Y104247D01*
Y107768D01*
D02*
G37*
G36*
X108870D02*
X105350D01*
X105423Y107210D01*
X105831Y106225D01*
X106481Y105378D01*
X107327Y104729D01*
X108312Y104321D01*
X108870Y104247D01*
Y107768D01*
D02*
G37*
G36*
X118870D02*
X115350D01*
X115423Y107210D01*
X115831Y106225D01*
X116481Y105378D01*
X117327Y104729D01*
X118313Y104321D01*
X118870Y104247D01*
Y107768D01*
D02*
G37*
G36*
X113390D02*
X109870D01*
Y104247D01*
X110428Y104321D01*
X111413Y104729D01*
X112259Y105378D01*
X112909Y106225D01*
X113317Y107210D01*
X113390Y107768D01*
D02*
G37*
G36*
X149370Y102139D02*
X148368Y102007D01*
X147434Y101621D01*
X146632Y101005D01*
X146017Y100204D01*
X145630Y99270D01*
X145498Y98268D01*
X145630Y97266D01*
X146017Y96332D01*
X146632Y95530D01*
X147434Y94915D01*
X148368Y94528D01*
X149370Y94396D01*
X150372Y94528D01*
X151306Y94915D01*
X152108Y95530D01*
X152723Y96332D01*
X153110Y97266D01*
X153242Y98268D01*
X153110Y99270D01*
X152723Y100204D01*
X152108Y101005D01*
X151306Y101621D01*
X150372Y102007D01*
X149370Y102139D01*
D02*
G37*
G36*
X139370D02*
X138368Y102007D01*
X137434Y101621D01*
X136632Y101005D01*
X136017Y100204D01*
X135630Y99270D01*
X135498Y98268D01*
X135630Y97266D01*
X136017Y96332D01*
X136632Y95530D01*
X137434Y94915D01*
X138368Y94528D01*
X139370Y94396D01*
X140372Y94528D01*
X141306Y94915D01*
X142108Y95530D01*
X142723Y96332D01*
X143110Y97266D01*
X143242Y98268D01*
X143110Y99270D01*
X142723Y100204D01*
X142108Y101005D01*
X141306Y101621D01*
X140372Y102007D01*
X139370Y102139D01*
D02*
G37*
G36*
X159370D02*
X158368Y102007D01*
X157434Y101621D01*
X156632Y101005D01*
X156017Y100204D01*
X155630Y99270D01*
X155498Y98268D01*
X155630Y97266D01*
X156017Y96332D01*
X156632Y95530D01*
X157434Y94915D01*
X158368Y94528D01*
X159370Y94396D01*
X160372Y94528D01*
X161306Y94915D01*
X162108Y95530D01*
X162723Y96332D01*
X163110Y97266D01*
X163242Y98268D01*
X163110Y99270D01*
X162723Y100204D01*
X162108Y101005D01*
X161306Y101621D01*
X160372Y102007D01*
X159370Y102139D01*
D02*
G37*
G36*
X179370D02*
X178368Y102007D01*
X177434Y101621D01*
X176632Y101005D01*
X176017Y100204D01*
X175630Y99270D01*
X175498Y98268D01*
X175630Y97266D01*
X176017Y96332D01*
X176632Y95530D01*
X177434Y94915D01*
X178368Y94528D01*
X179370Y94396D01*
X180372Y94528D01*
X181306Y94915D01*
X182108Y95530D01*
X182723Y96332D01*
X183110Y97266D01*
X183242Y98268D01*
X183110Y99270D01*
X182723Y100204D01*
X182108Y101005D01*
X181306Y101621D01*
X180372Y102007D01*
X179370Y102139D01*
D02*
G37*
G36*
X169370D02*
X168368Y102007D01*
X167434Y101621D01*
X166632Y101005D01*
X166017Y100204D01*
X165630Y99270D01*
X165498Y98268D01*
X165630Y97266D01*
X166017Y96332D01*
X166632Y95530D01*
X167434Y94915D01*
X168368Y94528D01*
X169370Y94396D01*
X170372Y94528D01*
X171306Y94915D01*
X172108Y95530D01*
X172723Y96332D01*
X173110Y97266D01*
X173242Y98268D01*
X173110Y99270D01*
X172723Y100204D01*
X172108Y101005D01*
X171306Y101621D01*
X170372Y102007D01*
X169370Y102139D01*
D02*
G37*
%LPD*%
D10*
X79637Y82677D02*
G03*
X86708Y85606I0J10000D01*
G01*
X47843Y82677D02*
G03*
X40772Y79748I0J-10000D01*
G01*
X72000Y85039D02*
G03*
X79071Y87968I0J10000D01*
G01*
X40363Y85039D02*
G03*
X33292Y82110I0J-10000D01*
G01*
X81102Y130315D02*
G03*
X79758Y129758I0J-1901D01*
G01*
X79758Y129758D02*
G03*
X80315Y131102I-1344J1344D01*
G01*
X107087Y130315D02*
G03*
X105742Y129758I0J-1901D01*
G01*
X105742Y129758D02*
G03*
X106299Y131102I-1344J1344D01*
G01*
X100974Y50994D02*
G03*
X99803Y48167I2827J-2827D01*
G01*
Y49117D02*
G03*
X99026Y50994I-2655J0D01*
G01*
X100581Y79734D02*
G03*
X99410Y76907I2827J-2827D01*
G01*
Y77857D02*
G03*
X98632Y79734I-2655J0D01*
G01*
Y81683D02*
G03*
X99410Y83560I-1877J1877D01*
G01*
Y84511D02*
G03*
X100581Y81683I3999J0D01*
G01*
X103567Y65772D02*
G03*
X104575Y65354I1008J1008D01*
G01*
D02*
G03*
X103567Y64937I0J-1426D01*
G01*
X98992Y75614D02*
G03*
X99410Y76623I-1008J1008D01*
G01*
D02*
G03*
X99827Y75614I1426J0D01*
G01*
X103961Y37032D02*
G03*
X104969Y36614I1008J1008D01*
G01*
D02*
G03*
X103961Y36197I0J-1426D01*
G01*
X99386Y46874D02*
G03*
X99803Y47882I-1008J1008D01*
G01*
D02*
G03*
X100221Y46874I1426J0D01*
G01*
X29921Y70177D02*
G03*
X32106Y71082I0J3089D01*
G01*
X29921Y71358D02*
G03*
X34122Y73098I0J5940D01*
G01*
X32105Y71082D02*
G03*
X31201Y68898I2184J-2184D01*
G01*
X34122Y73098D02*
G03*
X32382Y68898I4201J-4201D01*
G01*
X30826Y67993D02*
G03*
X29921Y65809I2184J-2184D01*
G01*
X31661Y67158D02*
G03*
X29921Y62957I4201J-4201D01*
G01*
Y65809D02*
G03*
X29017Y67993I-3089J0D01*
G01*
X29921Y62957D02*
G03*
X28181Y67158I-5940J0D01*
G01*
X20079Y70177D02*
G03*
X22263Y71082I0J3089D01*
G01*
X20079Y71358D02*
G03*
X24279Y73098I0J5940D01*
G01*
X22263Y71082D02*
G03*
X21358Y68898I2184J-2184D01*
G01*
X24279Y73098D02*
G03*
X22539Y68898I4201J-4201D01*
G01*
X20983Y67993D02*
G03*
X20079Y65809I2184J-2184D01*
G01*
X21819Y67158D02*
G03*
X20079Y62957I4201J-4201D01*
G01*
Y65809D02*
G03*
X19174Y67993I-3089J0D01*
G01*
X20079Y62957D02*
G03*
X18339Y67158I-5940J0D01*
G01*
X112551Y67487D02*
G03*
X109843Y68898I-2708J-1894D01*
G01*
D02*
G03*
X112551Y70308I0J3305D01*
G01*
X29017Y44605D02*
G03*
X29921Y46790I-2184J2184D01*
G01*
X28181Y45441D02*
G03*
X29921Y49641I-4201J4201D01*
G01*
Y46790D02*
G03*
X30826Y44605I3089J0D01*
G01*
X29921Y49641D02*
G03*
X31661Y45441I5940J0D01*
G01*
X19174Y44605D02*
G03*
X20079Y46790I-2184J2184D01*
G01*
X18339Y45441D02*
G03*
X20079Y49641I-4201J4201D01*
G01*
Y46790D02*
G03*
X20983Y44605I3089J0D01*
G01*
X20079Y49641D02*
G03*
X21819Y45441I5940J0D01*
G01*
X114567Y42421D02*
G03*
X112383Y41517I0J-3089D01*
G01*
X114567Y41240D02*
G03*
X110366Y39500I0J-5940D01*
G01*
X112383Y41517D02*
G03*
X113287Y43701I-2184J2184D01*
G01*
X110366Y39500D02*
G03*
X112106Y43701I-4201J4201D01*
G01*
X120275Y97363D02*
G03*
X119370Y95179I2184J-2184D01*
G01*
X121110Y96528D02*
G03*
X119370Y92327I4201J-4201D01*
G01*
Y95179D02*
G03*
X118465Y97363I-3089J0D01*
G01*
X119370Y92327D02*
G03*
X117630Y96528I-5940J0D01*
G01*
X109370Y96988D02*
G03*
X107186Y96083I0J-3089D01*
G01*
X109370Y95807D02*
G03*
X105169Y94067I0J-5940D01*
G01*
X107186Y96083D02*
G03*
X108091Y98268I-2184J2184D01*
G01*
X105169Y94067D02*
G03*
X106909Y98268I-4201J4201D01*
G01*
X49370Y99547D02*
G03*
X51554Y100452I0J3089D01*
G01*
X49370Y100728D02*
G03*
X53571Y102468I0J5940D01*
G01*
X51554Y100452D02*
G03*
X50650Y98268I2184J-2184D01*
G01*
X53571Y102468D02*
G03*
X51831Y98268I4201J-4201D01*
G01*
X87833Y110190D02*
G03*
X89370Y113386I-2555J3196D01*
G01*
D02*
G03*
X90907Y110190I4092J0D01*
G01*
X89370Y96988D02*
G03*
X87186Y96083I0J-3089D01*
G01*
X89370Y95807D02*
G03*
X85170Y94067I0J-5940D01*
G01*
X87186Y96083D02*
G03*
X88090Y98268I-2184J2184D01*
G01*
X85170Y94067D02*
G03*
X86910Y98268I-4201J4201D01*
G01*
X99370Y96988D02*
G03*
X97186Y96083I0J-3089D01*
G01*
X99370Y95807D02*
G03*
X95170Y94067I0J-5940D01*
G01*
X97186Y96083D02*
G03*
X98090Y98268I-2184J2184D01*
G01*
X95170Y94067D02*
G03*
X96909Y98268I-4201J4201D01*
G01*
X86708Y85606D02*
X99370Y98268D01*
X47843Y82677D02*
X79637D01*
X29921Y68898D02*
X40772Y79748D01*
X99803Y50591D02*
Y54921D01*
X99410Y73622D02*
Y88307D01*
X79071Y87968D02*
X89370Y98268D01*
X40363Y85039D02*
X72000D01*
X20079Y68898D02*
X33292Y82110D01*
X99803Y44882D02*
Y50591D01*
Y54921D02*
X101575Y56693D01*
X89370Y108268D02*
Y113386D01*
X107087Y131102D01*
X49370Y98268D02*
X54331Y103228D01*
Y112992D01*
X58661Y117323D01*
X67323D01*
X81102Y131102D01*
X109843Y68898D02*
X114567D01*
X106299Y65354D02*
X109843Y68898D01*
X103150Y65354D02*
X106299D01*
X107480Y36614D02*
X114567Y43701D01*
X103543Y36614D02*
X107480D01*
X99803Y50591D02*
X100000Y50787D01*
X20079Y43701D02*
Y68898D01*
X29921Y43701D02*
Y68898D01*
X101575Y56693D02*
X125984D01*
X131102Y61811D01*
Y77559D01*
X119370Y89291D02*
X131102Y77559D01*
X119370Y89291D02*
Y98268D01*
X99410Y88307D02*
X109370Y98268D01*
D13*
X38326Y97224D02*
G03*
X35806Y98268I-2520J-2520D01*
G01*
D02*
G03*
X38326Y99312I0J3564D01*
G01*
X11024Y37795D02*
Y81102D01*
X28189Y98268D02*
X39370D01*
X11024Y81102D02*
X28189Y98268D01*
X11024Y37795D02*
X16535Y32283D01*
X76772D02*
X80315Y35827D01*
Y43701D01*
X16535Y32283D02*
X76772D01*
X80315Y43701D02*
Y68898D01*
D17*
X69370Y108268D02*
X79370D01*
X39764Y43701D02*
Y68898D01*
D18*
X179370Y108268D02*
D03*
Y98268D02*
D03*
X169370Y108268D02*
D03*
Y98268D02*
D03*
X159370Y108268D02*
D03*
Y98268D02*
D03*
X149370Y108268D02*
D03*
Y98268D02*
D03*
X139370D02*
D03*
Y108268D02*
D03*
X99370D02*
D03*
Y98268D02*
D03*
X89370D02*
D03*
Y108268D02*
D03*
X49370D02*
D03*
X59370D02*
D03*
X79370D02*
D03*
X69370D02*
D03*
Y98268D02*
D03*
X79370D02*
D03*
X59370D02*
D03*
X49370D02*
D03*
X39370D02*
D03*
X109370D02*
D03*
Y108268D02*
D03*
X119370Y98268D02*
D03*
Y108268D02*
D03*
X129370Y98268D02*
D03*
Y108268D02*
D03*
X124409Y43701D02*
D03*
X29921D02*
D03*
X39764D02*
D03*
X49606D02*
D03*
X185039D02*
D03*
X175197D02*
D03*
X165354D02*
D03*
X155512D02*
D03*
X185039Y68898D02*
D03*
X175197D02*
D03*
X165354D02*
D03*
X155512D02*
D03*
X124409D02*
D03*
X29921D02*
D03*
X39764D02*
D03*
X49606D02*
D03*
D19*
X39370Y108268D02*
D03*
X114567Y43701D02*
D03*
X20079D02*
D03*
X145669D02*
D03*
Y68898D02*
D03*
X114567D02*
D03*
X20079D02*
D03*
D20*
X189409Y132520D02*
D03*
X11811Y132520D02*
D03*
Y11811D02*
D03*
X189409D02*
D03*
D21*
X13189Y111653D02*
D03*
Y106142D02*
D03*
Y100630D02*
D03*
D22*
Y95118D02*
D03*
D23*
X88189Y68898D02*
D03*
X80315D02*
D03*
X88189Y43701D02*
D03*
X80315D02*
D03*
D24*
X72441Y68898D02*
D03*
Y43701D02*
D03*
D25*
X107087Y131102D02*
D03*
X81102Y131102D02*
D03*
D26*
X99803Y44882D02*
D03*
X107283D02*
D03*
X103543Y36614D02*
D03*
X99410Y73622D02*
D03*
X106890D02*
D03*
X103150Y65354D02*
D03*
D27*
X106693Y80709D02*
D03*
X99606D02*
D03*
X107087Y51968D02*
D03*
X100000D02*
D03*
M02*
