%FSLAX25Y25*%
%MOIN*%
G70*
G01*
G75*
G04 Layer_Color=32896*
%ADD10C,0.01181*%
%ADD11C,0.02362*%
%ADD12C,0.01575*%
%ADD13C,0.03150*%
%ADD14R,0.05512X0.02362*%
%ADD15R,0.05906X0.07087*%
%ADD16R,0.03937X0.03937*%
%ADD17C,0.03937*%
%ADD18C,0.06102*%
%ADD19R,0.06102X0.06102*%
%ADD20C,0.11811*%
%ADD21C,0.04528*%
%ADD22R,0.04528X0.04528*%
%ADD23C,0.05118*%
%ADD24R,0.05118X0.05118*%
%ADD25C,0.02756*%
%ADD26R,0.02362X0.05512*%
%ADD27R,0.03937X0.03937*%
%ADD28C,0.00984*%
%ADD29C,0.00787*%
%ADD30C,0.00591*%
%ADD31R,0.06299X0.03150*%
%ADD32R,0.06693X0.07874*%
%ADD33R,0.04724X0.04724*%
%ADD34C,0.06890*%
%ADD35R,0.06890X0.06890*%
%ADD36C,0.12598*%
%ADD37C,0.05315*%
%ADD38R,0.05315X0.05315*%
%ADD39C,0.05906*%
%ADD40R,0.05906X0.05906*%
%ADD41R,0.03150X0.06299*%
%ADD42R,0.04724X0.04724*%
G36*
X169720Y142410D02*
X169756Y142324D01*
X169753Y142323D01*
X170287Y139536D01*
X170323Y139450D01*
X170380Y139426D01*
X172715Y138459D01*
X172772Y138435D01*
X172858Y138471D01*
X172856Y138474D01*
X175205Y140067D01*
X175291Y140102D01*
X175406Y140055D01*
X175397Y140046D01*
X177414Y138046D01*
X177462Y137931D01*
X177426Y137845D01*
X177424Y137847D01*
X175831Y135498D01*
X175795Y135412D01*
X175819Y135355D01*
X176786Y133021D01*
X176810Y132963D01*
X176895Y132928D01*
X176896Y132931D01*
X179683Y132396D01*
X179769Y132361D01*
X179817Y132246D01*
X179804D01*
X179817Y129405D01*
Y129405D01*
X179769Y129291D01*
X179683Y129255D01*
X179683Y129258D01*
X176895Y128724D01*
X176810Y128688D01*
X176786Y128631D01*
X176786D01*
X175819Y126296D01*
X175795Y126239D01*
X175831Y126153D01*
X175833Y126155D01*
X177426Y123806D01*
X177462Y123720D01*
X177414Y123605D01*
X177405Y123614D01*
X175406Y121597D01*
X175291Y121549D01*
X175205Y121585D01*
X175207Y121587D01*
X172858Y123180D01*
X172772Y123216D01*
X172715Y123192D01*
X171646Y122749D01*
X171588Y122725D01*
X171474Y122773D01*
X171449Y122831D01*
X169482Y127651D01*
X169458Y127708D01*
X169506Y127822D01*
X169558Y127844D01*
X169559Y127842D01*
X169841Y127958D01*
X170526Y128484D01*
X171053Y129170D01*
X171383Y129969D01*
X171496Y130826D01*
X171383Y131683D01*
X171053Y132481D01*
X170526Y133167D01*
X169841Y133693D01*
X169042Y134024D01*
X168185Y134136D01*
X167328Y134024D01*
X166530Y133693D01*
X165844Y133167D01*
X165318Y132481D01*
X164987Y131683D01*
X164874Y130826D01*
X164987Y129969D01*
X165318Y129170D01*
X165844Y128484D01*
X166530Y127958D01*
X166812Y127842D01*
X166813Y127844D01*
X166865Y127822D01*
X166912Y127708D01*
X166889Y127651D01*
X164921Y122831D01*
X164897Y122773D01*
X164782Y122725D01*
X164725Y122749D01*
X163656Y123192D01*
X163599Y123216D01*
X163513Y123180D01*
X163514Y123178D01*
X161165Y121585D01*
X161080Y121549D01*
X160965Y121597D01*
X160974Y121606D01*
X158956Y123605D01*
X158909Y123720D01*
X158944Y123806D01*
X158947Y123804D01*
X160540Y126153D01*
X160575Y126239D01*
X160552Y126296D01*
X159585Y128631D01*
X159561Y128688D01*
X159475Y128724D01*
X159475Y128720D01*
X156687Y129255D01*
X156601Y129291D01*
X156554Y129405D01*
X156566D01*
X156554Y132246D01*
X156601Y132361D01*
X156687Y132396D01*
X156688Y132393D01*
X159475Y132928D01*
X159561Y132963D01*
X159585Y133021D01*
X159585D01*
X160552Y135355D01*
X160575Y135412D01*
X160540Y135498D01*
X160537Y135496D01*
X158944Y137845D01*
X158909Y137931D01*
X158956Y138046D01*
X158965Y138037D01*
X160965Y140055D01*
X161080Y140102D01*
X161165Y140067D01*
X161164Y140064D01*
X163513Y138471D01*
X163599Y138435D01*
X163656Y138459D01*
X165990Y139426D01*
X166048Y139450D01*
X166083Y139536D01*
X166080Y139536D01*
X166615Y142324D01*
X166650Y142410D01*
X166765Y142457D01*
X166765D01*
Y142445D01*
X169606Y142457D01*
X169606D01*
X169720Y142410D01*
D02*
G37*
D28*
X96949Y43701D02*
G03*
X96949Y43701I-492J0D01*
G01*
X96555Y72441D02*
G03*
X96555Y72441I-492J0D01*
G01*
D29*
X19291Y120472D02*
X199213D01*
X19291Y84646D02*
X199213D01*
X19291D02*
Y120472D01*
X199213Y84646D02*
Y120472D01*
X124252Y115374D02*
Y120079D01*
X104252Y115374D02*
X124252D01*
X104252D02*
Y120079D01*
X97638Y37402D02*
Y38976D01*
Y37402D02*
X100787D01*
X109449D02*
Y38976D01*
X106299Y37402D02*
X109449D01*
X97244Y66142D02*
Y67716D01*
Y66142D02*
X100394D01*
X109055D02*
Y67716D01*
X105905Y66142D02*
X109055D01*
X102450Y82309D02*
X103850D01*
X102450Y79109D02*
X103850D01*
X102843Y53569D02*
X104243D01*
X102843Y50368D02*
X104243D01*
D30*
X196397Y127401D02*
X197709D01*
X197053D01*
Y124121D01*
X197709Y123465D01*
X198364D01*
X199021Y124121D01*
X195085Y123465D02*
X193773D01*
X194429D01*
Y127401D01*
X195085Y126745D01*
X95276Y50000D02*
Y53936D01*
X93308D01*
X92652Y53280D01*
Y51968D01*
X93308Y51312D01*
X95276D01*
X93964D02*
X92652Y50000D01*
X91340Y53280D02*
X90684Y53936D01*
X89372D01*
X88716Y53280D01*
Y52624D01*
X89372Y51968D01*
X88716Y51312D01*
Y50656D01*
X89372Y50000D01*
X90684D01*
X91340Y50656D01*
Y51312D01*
X90684Y51968D01*
X91340Y52624D01*
Y53280D01*
X90684Y51968D02*
X89372D01*
X95669Y78740D02*
Y82676D01*
X93701D01*
X93046Y82020D01*
Y80708D01*
X93701Y80052D01*
X95669D01*
X94357D02*
X93046Y78740D01*
X91734Y82676D02*
X89110D01*
Y82020D01*
X91734Y79396D01*
Y78740D01*
X93046Y34514D02*
Y37138D01*
X93701Y37794D01*
X95013D01*
X95669Y37138D01*
Y34514D01*
X95013Y33858D01*
X93701D01*
X94357Y35170D02*
X93046Y33858D01*
X93701D02*
X93046Y34514D01*
X89110Y37794D02*
X91734D01*
Y35826D01*
X90422Y36482D01*
X89766D01*
X89110Y35826D01*
Y34514D01*
X89766Y33858D01*
X91078D01*
X91734Y34514D01*
X95801Y60498D02*
Y63122D01*
X96457Y63778D01*
X97769D01*
X98425Y63122D01*
Y60498D01*
X97769Y59842D01*
X96457D01*
X97113Y61154D02*
X95801Y59842D01*
X96457D02*
X95801Y60498D01*
X92522Y59842D02*
Y63778D01*
X94490Y61810D01*
X91866D01*
X150532Y140747D02*
X151844D01*
X152500Y140091D01*
Y137467D01*
X151844Y136811D01*
X150532D01*
X149876Y137467D01*
Y140091D01*
X150532Y140747D01*
X148564Y135499D02*
Y139435D01*
X146596D01*
X145940Y138779D01*
Y137467D01*
X146596Y136811D01*
X148564D01*
X142661D02*
X143973D01*
X144629Y137467D01*
Y138779D01*
X143973Y139435D01*
X142661D01*
X142005Y138779D01*
Y138123D01*
X144629D01*
X140693Y136811D02*
Y139435D01*
X138725D01*
X138069Y138779D01*
Y136811D01*
X132821D02*
Y140747D01*
X130198Y136811D01*
Y140747D01*
X128886Y139435D02*
Y137467D01*
X128230Y136811D01*
X126262D01*
Y136155D01*
X126918Y135499D01*
X127574D01*
X126262Y136811D02*
Y139435D01*
X124950D02*
Y136811D01*
Y138123D01*
X124294Y138779D01*
X123638Y139435D01*
X122982D01*
X121014Y136811D02*
X119702D01*
X120358D01*
Y139435D01*
X121014D01*
X117078Y136811D02*
X115766D01*
X115111Y137467D01*
Y138779D01*
X115766Y139435D01*
X117078D01*
X117734Y138779D01*
Y137467D01*
X117078Y136811D01*
X107895Y140747D02*
X109207D01*
X109863Y140091D01*
Y137467D01*
X109207Y136811D01*
X107895D01*
X107239Y137467D01*
Y140091D01*
X107895Y140747D01*
X105927Y136811D02*
Y139435D01*
X103959D01*
X103303Y138779D01*
Y136811D01*
X100023D02*
X101335D01*
X101991Y137467D01*
Y138779D01*
X101335Y139435D01*
X100023D01*
X99367Y138779D01*
Y138123D01*
X101991D01*
X152500Y129811D02*
Y133747D01*
X150532D01*
X149876Y133091D01*
Y131779D01*
X150532Y131123D01*
X152500D01*
X147908Y132435D02*
X146596D01*
X145940Y131779D01*
Y129811D01*
X147908D01*
X148564Y130467D01*
X147908Y131123D01*
X145940D01*
X144629Y129811D02*
Y132435D01*
X142661D01*
X142005Y131779D01*
Y129811D01*
X138725D02*
X140037D01*
X140693Y130467D01*
Y131779D01*
X140037Y132435D01*
X138725D01*
X138069Y131779D01*
Y131123D01*
X140693D01*
X136757Y129811D02*
X135445D01*
X136101D01*
Y133747D01*
X136757D01*
X152500Y123311D02*
X151188D01*
X151844D01*
Y127247D01*
X152500Y126591D01*
X146596Y127247D02*
X147908Y126591D01*
X149220Y125279D01*
Y123967D01*
X148564Y123311D01*
X147252D01*
X146596Y123967D01*
Y124623D01*
X147252Y125279D01*
X149220D01*
X145284Y123311D02*
Y123967D01*
X144629D01*
Y123311D01*
X145284D01*
X142005Y126591D02*
X141349Y127247D01*
X140037D01*
X139381Y126591D01*
Y123967D01*
X140037Y123311D01*
X141349D01*
X142005Y123967D01*
Y126591D01*
X135445Y123311D02*
X138069D01*
X135445Y125935D01*
Y126591D01*
X136101Y127247D01*
X137413D01*
X138069Y126591D01*
X134133Y123311D02*
Y123967D01*
X133477D01*
Y123311D01*
X134133D01*
X128230D02*
X130853D01*
X128230Y125935D01*
Y126591D01*
X128886Y127247D01*
X130198D01*
X130853Y126591D01*
X126918D02*
X126262Y127247D01*
X124950D01*
X124294Y126591D01*
Y123967D01*
X124950Y123311D01*
X126262D01*
X126918Y123967D01*
Y126591D01*
M02*
