G04 Layer_Physical_Order=1*
G04 Layer_Color=255*
%FSLAX25Y25*%
%MOIN*%
G70*
G01*
G75*
%ADD10O,0.01181X0.06693*%
%ADD11O,0.06693X0.01181*%
%ADD12R,0.03937X0.03937*%
%ADD13C,0.03937*%
%ADD14R,0.03937X0.07874*%
%ADD15R,0.11811X0.11811*%
%ADD16O,0.01772X0.06693*%
%ADD17R,0.02480X0.03268*%
%ADD18R,0.07087X0.03937*%
%ADD19R,0.05906X0.07087*%
%ADD20R,0.07087X0.13780*%
%ADD21R,0.05512X0.07874*%
%ADD22R,0.06693X0.09449*%
%ADD23O,0.05315X0.01575*%
G04:AMPARAMS|DCode=24|XSize=118.11mil|YSize=35.43mil|CornerRadius=8.86mil|HoleSize=0mil|Usage=FLASHONLY|Rotation=90.000|XOffset=0mil|YOffset=0mil|HoleType=Round|Shape=RoundedRectangle|*
%AMROUNDEDRECTD24*
21,1,0.11811,0.01772,0,0,90.0*
21,1,0.10039,0.03543,0,0,90.0*
1,1,0.01772,0.00886,0.05020*
1,1,0.01772,0.00886,-0.05020*
1,1,0.01772,-0.00886,-0.05020*
1,1,0.01772,-0.00886,0.05020*
%
%ADD24ROUNDEDRECTD24*%
%ADD25R,0.03347X0.04134*%
%ADD26R,0.07480X0.08976*%
%ADD27R,0.06299X0.15748*%
%ADD28R,0.08661X0.09449*%
G04:AMPARAMS|DCode=29|XSize=59.06mil|YSize=47.24mil|CornerRadius=11.81mil|HoleSize=0mil|Usage=FLASHONLY|Rotation=90.000|XOffset=0mil|YOffset=0mil|HoleType=Round|Shape=RoundedRectangle|*
%AMROUNDEDRECTD29*
21,1,0.05906,0.02362,0,0,90.0*
21,1,0.03543,0.04724,0,0,90.0*
1,1,0.02362,0.01181,0.01772*
1,1,0.02362,0.01181,-0.01772*
1,1,0.02362,-0.01181,-0.01772*
1,1,0.02362,-0.01181,0.01772*
%
%ADD29ROUNDEDRECTD29*%
%ADD30R,0.03937X0.03937*%
%ADD31R,0.06890X0.05906*%
G04:AMPARAMS|DCode=32|XSize=59.06mil|YSize=68.9mil|CornerRadius=14.76mil|HoleSize=0mil|Usage=FLASHONLY|Rotation=270.000|XOffset=0mil|YOffset=0mil|HoleType=Round|Shape=RoundedRectangle|*
%AMROUNDEDRECTD32*
21,1,0.05906,0.03937,0,0,270.0*
21,1,0.02953,0.06890,0,0,270.0*
1,1,0.02953,-0.01969,-0.01476*
1,1,0.02953,-0.01969,0.01476*
1,1,0.02953,0.01969,0.01476*
1,1,0.02953,0.01969,-0.01476*
%
%ADD32ROUNDEDRECTD32*%
%ADD33C,0.05906*%
%ADD34C,0.01181*%
%ADD35C,0.00787*%
%ADD36C,0.01969*%
%ADD37C,0.02756*%
%ADD38C,0.01378*%
%ADD39C,0.01575*%
%ADD40C,0.03937*%
%ADD41C,0.02953*%
%ADD42C,0.06102*%
%ADD43R,0.06102X0.06102*%
%ADD44C,0.05315*%
%ADD45R,0.05315X0.05315*%
%ADD46O,0.07874X0.04724*%
%ADD47O,0.07087X0.04331*%
%ADD48O,0.04724X0.04134*%
%ADD49C,0.01969*%
G36*
X145778Y85222D02*
X145711Y85153D01*
X145555Y84974D01*
X145519Y84924D01*
X145491Y84879D01*
X145470Y84838D01*
X145457Y84802D01*
X145451Y84771D01*
X145454Y84744D01*
X144744Y85453D01*
X144771Y85451D01*
X144802Y85457D01*
X144838Y85470D01*
X144879Y85491D01*
X144924Y85519D01*
X144974Y85555D01*
X145089Y85651D01*
X145222Y85778D01*
X145778Y85222D01*
D02*
G37*
G36*
X118487Y86909D02*
X118552Y86858D01*
X118620Y86814D01*
X118693Y86776D01*
X118769Y86743D01*
X118851Y86717D01*
X118936Y86696D01*
X119025Y86681D01*
X119119Y86672D01*
X119217Y86669D01*
Y85882D01*
X119119Y85879D01*
X119025Y85870D01*
X118936Y85855D01*
X118851Y85835D01*
X118769Y85808D01*
X118693Y85776D01*
X118620Y85737D01*
X118552Y85693D01*
X118487Y85643D01*
X118427Y85587D01*
Y86965D01*
X118487Y86909D01*
D02*
G37*
G36*
X152137Y83762D02*
X152086Y83791D01*
X152024Y83817D01*
X151952Y83839D01*
X151869Y83859D01*
X151775Y83876D01*
X151554Y83900D01*
X151290Y83912D01*
X151142Y83913D01*
Y84701D01*
X151290Y84702D01*
X151775Y84739D01*
X151869Y84755D01*
X151952Y84775D01*
X152024Y84798D01*
X152086Y84823D01*
X152137Y84852D01*
Y83762D01*
D02*
G37*
G36*
X134633Y84737D02*
X134583Y84673D01*
X134538Y84605D01*
X134500Y84532D01*
X134467Y84455D01*
X134441Y84374D01*
X134420Y84289D01*
X134406Y84199D01*
X134397Y84105D01*
X134394Y84007D01*
X133606D01*
X133603Y84105D01*
X133595Y84199D01*
X133580Y84289D01*
X133559Y84374D01*
X133533Y84455D01*
X133500Y84532D01*
X133462Y84605D01*
X133417Y84673D01*
X133367Y84737D01*
X133311Y84797D01*
X134689D01*
X134633Y84737D01*
D02*
G37*
G36*
X120247Y85731D02*
X120196Y85759D01*
X120134Y85785D01*
X120062Y85808D01*
X119979Y85827D01*
X119885Y85844D01*
X119664Y85868D01*
X119401Y85880D01*
X119252Y85882D01*
Y86669D01*
X119401Y86671D01*
X119885Y86707D01*
X119979Y86724D01*
X120062Y86743D01*
X120134Y86766D01*
X120196Y86792D01*
X120247Y86821D01*
Y85731D01*
D02*
G37*
G36*
X155751Y89788D02*
X155701Y89724D01*
X155657Y89656D01*
X155618Y89583D01*
X155586Y89506D01*
X155559Y89425D01*
X155538Y89340D01*
X155532Y89304D01*
X155547Y89214D01*
X155575Y89110D01*
X155610Y89022D01*
X155654Y88950D01*
X155705Y88894D01*
X155764Y88854D01*
X155831Y88830D01*
X155905Y88822D01*
X154331D01*
X154405Y88830D01*
X154472Y88854D01*
X154532Y88894D01*
X154583Y88950D01*
X154626Y89022D01*
X154661Y89110D01*
X154689Y89214D01*
X154704Y89304D01*
X154698Y89340D01*
X154677Y89425D01*
X154651Y89506D01*
X154618Y89583D01*
X154580Y89656D01*
X154535Y89724D01*
X154485Y89788D01*
X154429Y89848D01*
X155807D01*
X155751Y89788D01*
D02*
G37*
G36*
X138705Y90330D02*
X138680Y90268D01*
X138657Y90196D01*
X138637Y90113D01*
X138620Y90019D01*
X138596Y89798D01*
X138584Y89534D01*
X138583Y89386D01*
X137795D01*
X137794Y89534D01*
X137757Y90019D01*
X137741Y90113D01*
X137721Y90196D01*
X137698Y90268D01*
X137673Y90330D01*
X137644Y90381D01*
X138734D01*
X138705Y90330D01*
D02*
G37*
G36*
X147797Y87311D02*
X147737Y87367D01*
X147673Y87417D01*
X147605Y87462D01*
X147532Y87500D01*
X147455Y87533D01*
X147374Y87559D01*
X147289Y87580D01*
X147199Y87594D01*
X147105Y87603D01*
X147007Y87606D01*
Y88394D01*
X147105Y88397D01*
X147199Y88406D01*
X147289Y88420D01*
X147374Y88441D01*
X147455Y88468D01*
X147532Y88500D01*
X147605Y88538D01*
X147673Y88583D01*
X147737Y88633D01*
X147797Y88689D01*
Y87311D01*
D02*
G37*
G36*
X123861Y90009D02*
X123811Y89945D01*
X123767Y89876D01*
X123728Y89803D01*
X123696Y89727D01*
X123669Y89646D01*
X123649Y89560D01*
X123634Y89471D01*
X123630Y89427D01*
X123638Y89334D01*
X123658Y89214D01*
X123685Y89110D01*
X123721Y89022D01*
X123764Y88950D01*
X123815Y88894D01*
X123874Y88854D01*
X123941Y88830D01*
X124016Y88822D01*
X122441D01*
X122516Y88830D01*
X122583Y88854D01*
X122642Y88894D01*
X122693Y88950D01*
X122736Y89022D01*
X122772Y89110D01*
X122799Y89214D01*
X122819Y89334D01*
X122827Y89427D01*
X122823Y89471D01*
X122808Y89560D01*
X122787Y89646D01*
X122761Y89727D01*
X122728Y89803D01*
X122690Y89876D01*
X122646Y89945D01*
X122596Y90009D01*
X122539Y90069D01*
X123917D01*
X123861Y90009D01*
D02*
G37*
G36*
X152137Y77857D02*
X152086Y77885D01*
X152024Y77911D01*
X151952Y77934D01*
X151869Y77953D01*
X151775Y77970D01*
X151554Y77994D01*
X151290Y78006D01*
X151142Y78008D01*
Y78795D01*
X151290Y78797D01*
X151775Y78833D01*
X151869Y78850D01*
X151952Y78869D01*
X152024Y78892D01*
X152086Y78918D01*
X152137Y78947D01*
Y77857D01*
D02*
G37*
G36*
X129633Y80237D02*
X129583Y80173D01*
X129538Y80105D01*
X129500Y80032D01*
X129467Y79955D01*
X129441Y79874D01*
X129420Y79789D01*
X129405Y79699D01*
X129397Y79605D01*
X129394Y79507D01*
X128606D01*
X128603Y79605D01*
X128595Y79699D01*
X128580Y79789D01*
X128559Y79874D01*
X128533Y79955D01*
X128500Y80032D01*
X128462Y80105D01*
X128417Y80173D01*
X128367Y80237D01*
X128311Y80297D01*
X129689D01*
X129633Y80237D01*
D02*
G37*
G36*
X101964Y79114D02*
X101988Y79047D01*
X102027Y78988D01*
X102083Y78937D01*
X102153Y78894D01*
X102240Y78858D01*
X102342Y78831D01*
X102460Y78811D01*
X102594Y78799D01*
X102744Y78795D01*
Y78008D01*
X102594Y78004D01*
X102460Y77992D01*
X102342Y77972D01*
X102240Y77945D01*
X102153Y77909D01*
X102083Y77866D01*
X102027Y77815D01*
X101988Y77756D01*
X101964Y77689D01*
X101956Y77614D01*
Y79189D01*
X101964Y79114D01*
D02*
G37*
G36*
X120247Y77857D02*
X120196Y77885D01*
X120134Y77911D01*
X120062Y77934D01*
X119979Y77953D01*
X119885Y77970D01*
X119664Y77994D01*
X119401Y78006D01*
X119252Y78008D01*
Y78795D01*
X119401Y78797D01*
X119885Y78833D01*
X119979Y78850D01*
X120062Y78869D01*
X120134Y78892D01*
X120196Y78918D01*
X120247Y78947D01*
Y77857D01*
D02*
G37*
G36*
X152137Y79825D02*
X152086Y79854D01*
X152024Y79880D01*
X151952Y79902D01*
X151869Y79922D01*
X151775Y79939D01*
X151554Y79963D01*
X151290Y79975D01*
X151142Y79976D01*
Y80764D01*
X151290Y80765D01*
X151775Y80802D01*
X151869Y80818D01*
X151952Y80838D01*
X152024Y80861D01*
X152086Y80886D01*
X152137Y80915D01*
Y79825D01*
D02*
G37*
G36*
X132133Y82737D02*
X132083Y82673D01*
X132038Y82604D01*
X132000Y82532D01*
X131967Y82455D01*
X131941Y82374D01*
X131920Y82289D01*
X131905Y82199D01*
X131897Y82105D01*
X131894Y82007D01*
X131106D01*
X131103Y82105D01*
X131095Y82199D01*
X131080Y82289D01*
X131059Y82374D01*
X131033Y82455D01*
X131000Y82532D01*
X130962Y82604D01*
X130917Y82673D01*
X130867Y82737D01*
X130811Y82797D01*
X132189D01*
X132133Y82737D01*
D02*
G37*
G36*
X147763Y83633D02*
X147827Y83583D01*
X147896Y83538D01*
X147968Y83500D01*
X148045Y83468D01*
X148126Y83441D01*
X148211Y83420D01*
X148301Y83406D01*
X148395Y83397D01*
X148493Y83394D01*
Y82606D01*
X148395Y82603D01*
X148301Y82595D01*
X148211Y82580D01*
X148126Y82559D01*
X148045Y82533D01*
X147968Y82500D01*
X147896Y82462D01*
X147827Y82417D01*
X147763Y82367D01*
X147703Y82311D01*
Y83689D01*
X147763Y83633D01*
D02*
G37*
G36*
X135683Y89308D02*
X136221Y89201D01*
X136485Y89254D01*
X136985Y88904D01*
Y88811D01*
X136985Y88811D01*
X137076Y88350D01*
X137337Y87959D01*
X138148Y87148D01*
X138148Y87148D01*
X138539Y86887D01*
X139000Y86796D01*
X144397D01*
X144447Y86296D01*
X143809Y86169D01*
X143223Y85777D01*
X142831Y85191D01*
X142694Y84500D01*
X142831Y83809D01*
X143223Y83223D01*
X143809Y82831D01*
X144500Y82694D01*
X144736Y82740D01*
X145321Y82362D01*
X145331Y82309D01*
X145488Y82074D01*
X145220Y81574D01*
X143456D01*
X143407Y81647D01*
X142821Y82039D01*
X142130Y82176D01*
X141439Y82039D01*
X140853Y81647D01*
X140461Y81061D01*
X140324Y80370D01*
X140461Y79679D01*
X140853Y79093D01*
X141439Y78701D01*
X141495Y78690D01*
Y78180D01*
X141439Y78169D01*
X140853Y77777D01*
X140461Y77191D01*
X140324Y76500D01*
X140461Y75809D01*
X140853Y75223D01*
X141439Y74831D01*
X142130Y74694D01*
X142821Y74831D01*
X143407Y75223D01*
X143799Y75809D01*
X143936Y76500D01*
X143919Y76586D01*
X144530Y77197D01*
X150660D01*
X151010Y76697D01*
X150957Y76433D01*
X151064Y75895D01*
X151363Y75449D01*
X151064Y75002D01*
X150957Y74465D01*
X151010Y74200D01*
X150660Y73700D01*
X141003D01*
X137704Y76999D01*
Y86062D01*
X137613Y86523D01*
X137352Y86914D01*
X135748Y88517D01*
X135358Y88778D01*
X134985Y88852D01*
X134916Y89324D01*
X135301Y89564D01*
X135683Y89308D01*
D02*
G37*
G36*
X152137Y81794D02*
X152086Y81822D01*
X152024Y81848D01*
X151952Y81871D01*
X151869Y81890D01*
X151775Y81907D01*
X151554Y81931D01*
X151290Y81943D01*
X151142Y81945D01*
Y82732D01*
X151290Y82734D01*
X151775Y82770D01*
X151869Y82787D01*
X151952Y82806D01*
X152024Y82829D01*
X152086Y82855D01*
X152137Y82884D01*
Y81794D01*
D02*
G37*
G36*
X15413Y109759D02*
X15484Y109735D01*
X15575Y109714D01*
X15685Y109696D01*
X15963Y109668D01*
X16319Y109651D01*
X16752Y109646D01*
Y108465D01*
X16525Y108463D01*
X15575Y108396D01*
X15484Y108375D01*
X15413Y108351D01*
X15362Y108325D01*
Y109785D01*
X15413Y109759D01*
D02*
G37*
G36*
X34827Y110713D02*
X34850Y110646D01*
X34890Y110587D01*
X34945Y110535D01*
X35016Y110492D01*
X35102Y110457D01*
X35204Y110429D01*
X35323Y110409D01*
X35456Y110398D01*
X35606Y110394D01*
Y109606D01*
X35456Y109602D01*
X35323Y109591D01*
X35204Y109571D01*
X35102Y109543D01*
X35016Y109508D01*
X34945Y109465D01*
X34890Y109413D01*
X34850Y109354D01*
X34827Y109287D01*
X34819Y109213D01*
Y110787D01*
X34827Y110713D01*
D02*
G37*
G36*
X131606Y104216D02*
X131561Y104160D01*
X131522Y104099D01*
X131488Y104032D01*
X131459Y103959D01*
X131436Y103881D01*
X131417Y103796D01*
X131404Y103706D01*
X131396Y103609D01*
X131394Y103507D01*
X130606D01*
X130604Y103609D01*
X130596Y103706D01*
X130583Y103796D01*
X130564Y103881D01*
X130541Y103959D01*
X130512Y104032D01*
X130478Y104099D01*
X130439Y104160D01*
X130394Y104216D01*
X130345Y104265D01*
X131655D01*
X131606Y104216D01*
D02*
G37*
G36*
X44613Y103169D02*
X44573Y103244D01*
X44522Y103311D01*
X44459Y103370D01*
X44385Y103421D01*
X44299Y103465D01*
X44202Y103500D01*
X44094Y103528D01*
X43975Y103547D01*
X43887Y103555D01*
X43844Y103551D01*
X43755Y103536D01*
X43669Y103516D01*
X43588Y103489D01*
X43512Y103457D01*
X43439Y103418D01*
X43370Y103374D01*
X43306Y103324D01*
X43246Y103268D01*
Y104646D01*
X43306Y104590D01*
X43370Y104539D01*
X43439Y104495D01*
X43512Y104457D01*
X43588Y104424D01*
X43669Y104398D01*
X43755Y104377D01*
X43844Y104362D01*
X43887Y104358D01*
X43975Y104366D01*
X44094Y104386D01*
X44202Y104413D01*
X44299Y104449D01*
X44385Y104492D01*
X44459Y104543D01*
X44522Y104602D01*
X44573Y104669D01*
X44613Y104744D01*
Y103169D01*
D02*
G37*
G36*
X36797Y109311D02*
X36737Y109367D01*
X36673Y109417D01*
X36604Y109462D01*
X36532Y109500D01*
X36455Y109532D01*
X36374Y109559D01*
X36289Y109580D01*
X36199Y109595D01*
X36105Y109603D01*
X36007Y109606D01*
Y110394D01*
X36105Y110397D01*
X36199Y110406D01*
X36289Y110420D01*
X36374Y110441D01*
X36455Y110468D01*
X36532Y110500D01*
X36604Y110538D01*
X36673Y110583D01*
X36737Y110633D01*
X36797Y110689D01*
Y109311D01*
D02*
G37*
G36*
X35797Y113311D02*
X35737Y113367D01*
X35673Y113417D01*
X35605Y113462D01*
X35532Y113500D01*
X35455Y113532D01*
X35374Y113559D01*
X35289Y113580D01*
X35199Y113594D01*
X35105Y113603D01*
X35007Y113606D01*
Y114394D01*
X35105Y114397D01*
X35199Y114406D01*
X35289Y114420D01*
X35374Y114441D01*
X35455Y114468D01*
X35532Y114500D01*
X35605Y114538D01*
X35673Y114583D01*
X35737Y114633D01*
X35797Y114689D01*
Y113311D01*
D02*
G37*
G36*
X15464Y114840D02*
X15569Y114782D01*
X15677Y114732D01*
X15788Y114688D01*
X15902Y114651D01*
X16019Y114621D01*
X16139Y114597D01*
X16262Y114580D01*
X16387Y114570D01*
X16516Y114567D01*
Y113779D01*
X16387Y113776D01*
X16262Y113766D01*
X16139Y113749D01*
X16019Y113726D01*
X15902Y113695D01*
X15788Y113658D01*
X15677Y113614D01*
X15569Y113564D01*
X15464Y113507D01*
X15362Y113443D01*
Y114904D01*
X15464Y114840D01*
D02*
G37*
G36*
X37897Y111395D02*
X37905Y111301D01*
X37920Y111211D01*
X37941Y111126D01*
X37968Y111045D01*
X38000Y110968D01*
X38038Y110896D01*
X38083Y110827D01*
X38133Y110763D01*
X38189Y110703D01*
X36811D01*
X36867Y110763D01*
X36917Y110827D01*
X36962Y110896D01*
X37000Y110968D01*
X37032Y111045D01*
X37059Y111126D01*
X37080Y111211D01*
X37095Y111301D01*
X37103Y111395D01*
X37106Y111493D01*
X37894D01*
X37897Y111395D01*
D02*
G37*
G36*
X28240Y112690D02*
X28252Y112555D01*
X28272Y112435D01*
X28299Y112331D01*
X28335Y112243D01*
X28378Y112171D01*
X28429Y112115D01*
X28488Y112075D01*
X28555Y112051D01*
X28630Y112043D01*
X27055D01*
X27130Y112051D01*
X27197Y112075D01*
X27256Y112115D01*
X27307Y112171D01*
X27350Y112243D01*
X27386Y112331D01*
X27413Y112435D01*
X27433Y112555D01*
X27445Y112690D01*
X27449Y112842D01*
X28236D01*
X28240Y112690D01*
D02*
G37*
G36*
X134647Y97190D02*
X134684Y96706D01*
X134700Y96612D01*
X134720Y96528D01*
X134742Y96456D01*
X134768Y96395D01*
X134797Y96344D01*
X133707D01*
X133736Y96395D01*
X133761Y96456D01*
X133784Y96528D01*
X133804Y96612D01*
X133820Y96706D01*
X133845Y96926D01*
X133857Y97190D01*
X133858Y97338D01*
X134646D01*
X134647Y97190D01*
D02*
G37*
G36*
X136616D02*
X136652Y96706D01*
X136669Y96612D01*
X136688Y96528D01*
X136711Y96456D01*
X136737Y96395D01*
X136765Y96344D01*
X135676D01*
X135704Y96395D01*
X135730Y96456D01*
X135753Y96528D01*
X135772Y96612D01*
X135789Y96706D01*
X135813Y96926D01*
X135825Y97190D01*
X135827Y97338D01*
X136614D01*
X136616Y97190D01*
D02*
G37*
G36*
X63078Y94265D02*
X63060Y94188D01*
X63044Y94074D01*
X63019Y93736D01*
X63008Y93123D01*
X63016Y93034D01*
X63045Y92855D01*
X63087Y92693D01*
X63140Y92547D01*
X63205Y92419D01*
X63282Y92308D01*
X63370Y92213D01*
X63471Y92136D01*
X63583Y92076D01*
X61221D01*
X61333Y92136D01*
X61433Y92213D01*
X61522Y92308D01*
X61598Y92419D01*
X61663Y92547D01*
X61717Y92693D01*
X61758Y92855D01*
X61774Y92956D01*
X61735Y93723D01*
X61705Y94305D01*
X63098D01*
X63078Y94265D01*
D02*
G37*
G36*
X132679Y97190D02*
X132715Y96706D01*
X132732Y96612D01*
X132751Y96528D01*
X132774Y96456D01*
X132800Y96395D01*
X132828Y96344D01*
X131738D01*
X131767Y96395D01*
X131793Y96456D01*
X131816Y96528D01*
X131835Y96612D01*
X131852Y96706D01*
X131876Y96926D01*
X131888Y97190D01*
X131890Y97338D01*
X132677D01*
X132679Y97190D01*
D02*
G37*
G36*
X144490D02*
X144526Y96706D01*
X144543Y96612D01*
X144562Y96528D01*
X144585Y96456D01*
X144611Y96395D01*
X144640Y96344D01*
X143550D01*
X143578Y96395D01*
X143604Y96456D01*
X143627Y96528D01*
X143646Y96612D01*
X143663Y96706D01*
X143687Y96926D01*
X143699Y97190D01*
X143701Y97338D01*
X144488D01*
X144490Y97190D01*
D02*
G37*
G36*
X107481Y98291D02*
X107473Y98366D01*
X107449Y98433D01*
X107409Y98492D01*
X107353Y98543D01*
X107281Y98587D01*
X107193Y98622D01*
X107089Y98650D01*
X106969Y98669D01*
X106833Y98681D01*
X106681Y98685D01*
Y99472D01*
X106833Y99476D01*
X106969Y99488D01*
X107089Y99508D01*
X107193Y99535D01*
X107281Y99571D01*
X107353Y99614D01*
X107409Y99665D01*
X107449Y99724D01*
X107473Y99791D01*
X107481Y99866D01*
Y98291D01*
D02*
G37*
G36*
X103351Y101200D02*
X103340Y101116D01*
X103343Y101030D01*
X103359Y100941D01*
X103389Y100850D01*
X103432Y100757D01*
X103489Y100661D01*
X103560Y100562D01*
X103644Y100461D01*
X103742Y100358D01*
X103185Y99801D01*
X103082Y99899D01*
X102981Y99983D01*
X102883Y100054D01*
X102787Y100111D01*
X102693Y100154D01*
X102602Y100184D01*
X102513Y100200D01*
X102427Y100203D01*
X102343Y100192D01*
X102262Y100168D01*
X103376Y101281D01*
X103351Y101200D01*
D02*
G37*
G36*
X111579Y97128D02*
X111540Y97109D01*
X111506Y97077D01*
X111476Y97033D01*
X111451Y96976D01*
X111430Y96906D01*
X111414Y96824D01*
X111403Y96728D01*
X111396Y96621D01*
X111394Y96500D01*
X110606D01*
X110604Y96621D01*
X110586Y96824D01*
X110570Y96906D01*
X110549Y96976D01*
X110524Y97033D01*
X110494Y97077D01*
X110460Y97109D01*
X110421Y97128D01*
X110378Y97134D01*
X111622D01*
X111579Y97128D01*
D02*
G37*
G36*
X126804Y109555D02*
X126694Y109000D01*
X126711Y108914D01*
X126074Y108277D01*
X125813Y107886D01*
X125721Y107425D01*
X125721Y107425D01*
Y103075D01*
X125721Y103075D01*
X125813Y102614D01*
X126074Y102223D01*
X130300Y97997D01*
X130108Y97482D01*
X129777Y97416D01*
X129331Y97118D01*
X128884Y97416D01*
X128346Y97523D01*
X127809Y97416D01*
X127353Y97112D01*
X127048Y96656D01*
X126942Y96118D01*
Y90606D01*
X127048Y90069D01*
X127353Y89613D01*
X127809Y89308D01*
X128346Y89201D01*
X128884Y89308D01*
X129331Y89607D01*
X129777Y89308D01*
X130315Y89201D01*
X130588Y89256D01*
X130704Y88778D01*
X130314Y88517D01*
X130314Y88517D01*
X129086Y87289D01*
X129000Y87306D01*
X128309Y87169D01*
X127790Y86822D01*
X127629Y86819D01*
X127482Y86843D01*
X127275Y86899D01*
X127051Y87361D01*
X127282Y87706D01*
X127389Y88244D01*
X127282Y88782D01*
X126978Y89237D01*
X126522Y89542D01*
X125984Y89649D01*
X125128D01*
X125025Y89841D01*
X124911Y90149D01*
X125035Y90772D01*
X124897Y91463D01*
X124506Y92049D01*
X123920Y92440D01*
X123228Y92578D01*
X122537Y92440D01*
X121951Y92049D01*
X121560Y91463D01*
X121422Y90772D01*
X121546Y90149D01*
X121431Y89841D01*
X121329Y89649D01*
X120472D01*
X119935Y89542D01*
X119479Y89237D01*
X119174Y88782D01*
X119068Y88244D01*
X119098Y88090D01*
X118648Y87789D01*
X118416Y87945D01*
X117724Y88082D01*
X117033Y87945D01*
X116447Y87553D01*
X116056Y86967D01*
X115918Y86276D01*
X116056Y85584D01*
X116447Y84998D01*
X117033Y84607D01*
X117724Y84469D01*
X118416Y84607D01*
X118648Y84762D01*
X119098Y84461D01*
X119068Y84307D01*
X119174Y83769D01*
X119473Y83323D01*
X119174Y82876D01*
X119068Y82339D01*
X119174Y81801D01*
X119473Y81354D01*
X119174Y80908D01*
X119068Y80370D01*
X119074Y80336D01*
X118614Y80090D01*
X118611Y80092D01*
X118221Y80353D01*
X117760Y80444D01*
X117760Y80444D01*
X113240D01*
X112779Y80353D01*
X112389Y80092D01*
X111903Y79606D01*
X102756D01*
Y81157D01*
X100994D01*
X100895Y81657D01*
X101497Y81907D01*
X102117Y82383D01*
X102593Y83003D01*
X102892Y83725D01*
X102928Y84000D01*
X100000D01*
X97072D01*
X97108Y83725D01*
X97407Y83003D01*
X97883Y82383D01*
X98503Y81907D01*
X99105Y81657D01*
X99006Y81157D01*
X97244D01*
Y75646D01*
X101289D01*
X101481Y75184D01*
X101148Y74852D01*
X100887Y74461D01*
X100796Y74000D01*
X100796Y74000D01*
Y68366D01*
X100296Y68099D01*
X100191Y68169D01*
X99500Y68306D01*
X98809Y68169D01*
X98223Y67777D01*
X98174Y67704D01*
X94500D01*
X94500Y67704D01*
X94039Y67613D01*
X93648Y67352D01*
X89806Y63509D01*
X89306Y63717D01*
Y76997D01*
X90032D01*
X90105Y76990D01*
X90158Y76982D01*
Y75646D01*
X95669D01*
Y81157D01*
X90158D01*
Y79821D01*
X90105Y79813D01*
X90032Y79807D01*
X89306D01*
Y83095D01*
X90518D01*
X90948Y82534D01*
X91524Y82093D01*
X92194Y81815D01*
X92913Y81720D01*
X93633Y81815D01*
X94303Y82093D01*
X94879Y82534D01*
X95321Y83110D01*
X95598Y83781D01*
X95693Y84500D01*
X95598Y85219D01*
X95321Y85890D01*
X94879Y86466D01*
X94303Y86907D01*
X93633Y87185D01*
X92913Y87280D01*
X92194Y87185D01*
X91524Y86907D01*
X90948Y86466D01*
X90518Y85905D01*
X89306D01*
Y91752D01*
X91834Y94279D01*
X92283Y94021D01*
X92422Y93320D01*
X92861Y92664D01*
X93517Y92225D01*
X93791Y92171D01*
Y94095D01*
X94291D01*
Y94595D01*
X96215D01*
X96195Y94694D01*
X96499Y95194D01*
X100752D01*
X105479Y90467D01*
X106065Y90075D01*
X106756Y89938D01*
X115000D01*
X115691Y90075D01*
X116277Y90467D01*
X119277Y93467D01*
X119669Y94053D01*
X119806Y94744D01*
Y107000D01*
X122862Y110055D01*
X126519D01*
X126804Y109555D01*
D02*
G37*
G36*
X127796Y77883D02*
Y77319D01*
X127796Y77319D01*
X127887Y76858D01*
X128148Y76467D01*
X137696Y66920D01*
X138086Y66659D01*
X138547Y66567D01*
X138547Y66567D01*
X143729D01*
X144176Y66121D01*
X144146Y65939D01*
X143979Y65610D01*
X143557Y65526D01*
X143110Y65228D01*
X142664Y65526D01*
X142126Y65633D01*
X141588Y65526D01*
X141142Y65228D01*
X140695Y65526D01*
X140157Y65633D01*
X139620Y65526D01*
X139354Y65348D01*
X139336Y65375D01*
X138810Y65727D01*
X138689Y65751D01*
Y61472D01*
Y57194D01*
X138810Y57218D01*
X139336Y57570D01*
X139354Y57596D01*
X139620Y57419D01*
X140157Y57312D01*
X140695Y57419D01*
X141142Y57717D01*
X141588Y57419D01*
X142126Y57312D01*
X142664Y57419D01*
X143110Y57717D01*
X143557Y57419D01*
X144095Y57312D01*
X144632Y57419D01*
X145079Y57717D01*
X145525Y57419D01*
X146063Y57312D01*
X146601Y57419D01*
X147047Y57717D01*
X147494Y57419D01*
X148031Y57312D01*
X148569Y57419D01*
X149016Y57717D01*
X149462Y57419D01*
X150000Y57312D01*
X150538Y57419D01*
X150993Y57723D01*
X151298Y58179D01*
X151405Y58716D01*
Y64228D01*
X151298Y64766D01*
X151545Y65223D01*
X151806Y65305D01*
X151824Y65293D01*
X152028Y65252D01*
X152038Y65249D01*
X152043Y65249D01*
X152362Y65186D01*
X157874D01*
X158412Y65293D01*
X158868Y65597D01*
X159172Y66053D01*
X159279Y66591D01*
X159172Y67128D01*
X158874Y67575D01*
X159172Y68021D01*
X159279Y68559D01*
X159172Y69097D01*
X158874Y69543D01*
X159172Y69990D01*
X159279Y70528D01*
X159172Y71065D01*
X158874Y71512D01*
X159172Y71958D01*
X159279Y72496D01*
X159226Y72760D01*
X159576Y73260D01*
X160882D01*
X160882Y73260D01*
X161343Y73352D01*
X161733Y73613D01*
X163121Y75000D01*
X163583Y74809D01*
Y15945D01*
X162598Y14961D01*
X149213Y1575D01*
X116829D01*
Y11022D01*
X115578D01*
Y13427D01*
X115464Y14003D01*
X115138Y14491D01*
X112505Y17123D01*
Y24500D01*
X112391Y25076D01*
X112064Y25564D01*
X110182Y27446D01*
Y28675D01*
X110682Y28943D01*
X111236Y28833D01*
X111889Y28963D01*
X112443Y29333D01*
X112812Y29886D01*
X112942Y30539D01*
Y31495D01*
X116500D01*
X117076Y31609D01*
X117564Y31936D01*
X118564Y32936D01*
X118891Y33424D01*
X119005Y34000D01*
Y49064D01*
X119169Y49309D01*
X119306Y50000D01*
X119169Y50691D01*
X118777Y51277D01*
X118191Y51669D01*
X117500Y51806D01*
X116809Y51669D01*
X116223Y51277D01*
X115831Y50691D01*
X115694Y50000D01*
X115831Y49309D01*
X115995Y49064D01*
Y34624D01*
X115876Y34505D01*
X112942D01*
Y35461D01*
X112812Y36114D01*
X112443Y36667D01*
X111889Y37037D01*
X111236Y37167D01*
X110583Y37037D01*
X110344Y36877D01*
X109957Y36700D01*
X109569Y36877D01*
X109330Y37037D01*
X108677Y37167D01*
X108024Y37037D01*
X107471Y36667D01*
X107324D01*
X106771Y37037D01*
X106118Y37167D01*
X105465Y37037D01*
X105226Y36877D01*
X104839Y36700D01*
X104451Y36877D01*
X104212Y37037D01*
X103559Y37167D01*
X102906Y37037D01*
X102353Y36667D01*
X102206D01*
X101653Y37037D01*
X101000Y37167D01*
X100347Y37037D01*
X100108Y36877D01*
X99721Y36700D01*
X99333Y36877D01*
X99094Y37037D01*
X98441Y37167D01*
X97788Y37037D01*
X97235Y36667D01*
X97088D01*
X96535Y37037D01*
X95882Y37167D01*
X95229Y37037D01*
X94676Y36667D01*
X94529D01*
X93976Y37037D01*
X93323Y37167D01*
X92670Y37037D01*
X92116Y36667D01*
X91747Y36114D01*
X91617Y35461D01*
Y34505D01*
X90623D01*
X89505Y35623D01*
Y39138D01*
X89965Y39491D01*
X90407Y40067D01*
X90685Y40737D01*
X90780Y41457D01*
X90685Y42176D01*
X90407Y42847D01*
X89965Y43422D01*
X89390Y43864D01*
X88719Y44142D01*
X88000Y44236D01*
X87281Y44142D01*
X86610Y43864D01*
X86035Y43422D01*
X85593Y42847D01*
X85315Y42176D01*
X85220Y41457D01*
X85315Y40737D01*
X85468Y40368D01*
X85044Y40085D01*
X82005Y43123D01*
Y52292D01*
X90075D01*
X90920Y52460D01*
X91636Y52939D01*
X92271Y52990D01*
X92587Y52779D01*
X92823Y52732D01*
Y57016D01*
X93823D01*
Y52732D01*
X94059Y52779D01*
X94682Y53196D01*
X94751Y53298D01*
X95229Y52979D01*
X95882Y52849D01*
X96535Y52979D01*
X97088Y53349D01*
X97235D01*
X97788Y52979D01*
X98441Y52849D01*
X99094Y52979D01*
X99647Y53349D01*
X99794D01*
X100347Y52979D01*
X101000Y52849D01*
X101653Y52979D01*
X102206Y53349D01*
X102353D01*
X102906Y52979D01*
X103559Y52849D01*
X104212Y52979D01*
X104765Y53349D01*
X104912D01*
X105465Y52979D01*
X106118Y52849D01*
X106771Y52979D01*
X107324Y53349D01*
X107471D01*
X108024Y52979D01*
X108677Y52849D01*
X109330Y52979D01*
X109808Y53298D01*
X109877Y53196D01*
X110500Y52779D01*
X110736Y52732D01*
Y57016D01*
X111236D01*
Y57516D01*
X113159D01*
Y58049D01*
X113659Y58201D01*
X113786Y58011D01*
X118149Y53649D01*
X118149Y53649D01*
X118539Y53387D01*
X119000Y53296D01*
X129500D01*
X129500Y53296D01*
X129961Y53387D01*
X130351Y53649D01*
X131167Y54463D01*
X131428Y54854D01*
X131519Y55315D01*
X131519Y55315D01*
Y57014D01*
X132019Y57364D01*
X132283Y57312D01*
X132821Y57419D01*
X133268Y57717D01*
X133714Y57419D01*
X134252Y57312D01*
X134516Y57364D01*
X135016Y57014D01*
Y55719D01*
X132810Y53513D01*
X132549Y53122D01*
X132457Y52661D01*
X132457Y52661D01*
Y47568D01*
X132455Y47544D01*
X132446Y47488D01*
X132443Y47478D01*
X132272Y47407D01*
X131696Y46966D01*
X131254Y46390D01*
X131183Y46218D01*
X131174Y46216D01*
X131117Y46206D01*
X131093Y46204D01*
X127999D01*
X126789Y47414D01*
X126806Y47500D01*
X126669Y48191D01*
X126277Y48777D01*
X125691Y49169D01*
X125000Y49306D01*
X124309Y49169D01*
X123723Y48777D01*
X123331Y48191D01*
X123194Y47500D01*
X123331Y46809D01*
X123723Y46223D01*
X124309Y45831D01*
X125000Y45694D01*
X125086Y45711D01*
X126648Y44148D01*
X126648Y44148D01*
X127039Y43887D01*
X127500Y43796D01*
X131093D01*
X131117Y43794D01*
X131174Y43784D01*
X131183Y43782D01*
X131254Y43610D01*
X131696Y43034D01*
X132272Y42593D01*
X132942Y42315D01*
X133661Y42220D01*
X134381Y42315D01*
X135051Y42593D01*
X135627Y43034D01*
X136069Y43610D01*
X136346Y44281D01*
X136441Y45000D01*
X136346Y45719D01*
X136069Y46390D01*
X135627Y46966D01*
X135051Y47407D01*
X134880Y47478D01*
X134877Y47488D01*
X134868Y47544D01*
X134866Y47568D01*
Y52163D01*
X137072Y54369D01*
X137072Y54369D01*
X137333Y54760D01*
X137425Y55221D01*
Y56759D01*
X137689Y56964D01*
Y61472D01*
Y65751D01*
X137568Y65727D01*
X137042Y65375D01*
X137024Y65348D01*
X136758Y65526D01*
X136221Y65633D01*
X135683Y65526D01*
X135236Y65228D01*
X134790Y65526D01*
X134252Y65633D01*
X133714Y65526D01*
X133268Y65228D01*
X132821Y65526D01*
X132283Y65633D01*
X131746Y65526D01*
X131299Y65228D01*
X130853Y65526D01*
X130315Y65633D01*
X129777Y65526D01*
X129331Y65228D01*
X128884Y65526D01*
X128346Y65633D01*
X127809Y65526D01*
X127353Y65222D01*
X127048Y64766D01*
X126942Y64228D01*
Y62677D01*
X126326D01*
X126277Y62750D01*
X125691Y63141D01*
X125000Y63279D01*
X124309Y63141D01*
X123723Y62750D01*
X123331Y62164D01*
X123194Y61472D01*
X123331Y60781D01*
X123723Y60195D01*
X124309Y59804D01*
X125000Y59666D01*
X125691Y59804D01*
X126277Y60195D01*
X126326Y60268D01*
X126942D01*
Y58716D01*
X127048Y58179D01*
X127353Y57723D01*
X127809Y57419D01*
X128346Y57312D01*
X128611Y57364D01*
X129111Y57014D01*
Y55814D01*
X129001Y55704D01*
X119499D01*
X115842Y59361D01*
Y63113D01*
X116232Y63321D01*
X116342Y63324D01*
X117000Y63194D01*
X117691Y63331D01*
X118277Y63723D01*
X118669Y64309D01*
X118806Y65000D01*
X118806Y65004D01*
X119144Y65386D01*
X119794D01*
X119935Y65293D01*
X120472Y65186D01*
X125984D01*
X126522Y65293D01*
X126978Y65597D01*
X127282Y66053D01*
X127389Y66591D01*
X127282Y67128D01*
X126984Y67575D01*
X127282Y68021D01*
X127389Y68559D01*
X127282Y69097D01*
X126984Y69543D01*
X127282Y69990D01*
X127389Y70528D01*
X127282Y71065D01*
X126984Y71512D01*
X127282Y71958D01*
X127389Y72496D01*
X127282Y73034D01*
X126984Y73480D01*
X127282Y73927D01*
X127389Y74465D01*
X127282Y75002D01*
X126984Y75449D01*
X127282Y75895D01*
X127389Y76433D01*
X127282Y76971D01*
X126984Y77417D01*
X127282Y77864D01*
X127296Y77932D01*
X127796Y77883D01*
D02*
G37*
G36*
X134059Y47574D02*
X134071Y47443D01*
X134090Y47323D01*
X134118Y47215D01*
X134153Y47118D01*
X134197Y47033D01*
X134248Y46958D01*
X134307Y46896D01*
X134374Y46844D01*
X134449Y46804D01*
X132874D01*
X132949Y46844D01*
X133016Y46896D01*
X133075Y46958D01*
X133126Y47033D01*
X133169Y47118D01*
X133205Y47215D01*
X133232Y47323D01*
X133252Y47443D01*
X133264Y47574D01*
X133268Y47716D01*
X134055D01*
X134059Y47574D01*
D02*
G37*
G36*
X109475Y30147D02*
X109452Y30071D01*
X109432Y29972D01*
X109414Y29849D01*
X109388Y29534D01*
X109368Y28883D01*
X109366Y28620D01*
X107988D01*
X107987Y28883D01*
X107922Y29972D01*
X107902Y30071D01*
X107879Y30147D01*
X107854Y30198D01*
X109500D01*
X109475Y30147D01*
D02*
G37*
G36*
X131857Y44213D02*
X131817Y44287D01*
X131766Y44354D01*
X131703Y44413D01*
X131629Y44465D01*
X131543Y44508D01*
X131447Y44543D01*
X131338Y44571D01*
X131219Y44591D01*
X131088Y44602D01*
X130945Y44606D01*
Y45394D01*
X131088Y45398D01*
X131219Y45409D01*
X131338Y45429D01*
X131447Y45457D01*
X131543Y45492D01*
X131629Y45535D01*
X131703Y45587D01*
X131766Y45646D01*
X131817Y45713D01*
X131857Y45787D01*
Y44213D01*
D02*
G37*
G36*
X5764Y56599D02*
X6256Y56590D01*
D01*
Y55409D01*
X5764Y55384D01*
Y54819D01*
X5752Y54931D01*
X5717Y55032D01*
X5658Y55120D01*
X5575Y55197D01*
X5469Y55262D01*
X5339Y55315D01*
X5191Y55355D01*
X4196Y55304D01*
Y56696D01*
X4235Y56676D01*
X4312Y56658D01*
X4425Y56642D01*
X4764Y56617D01*
X4994Y56613D01*
X5008Y56614D01*
X5185Y56644D01*
X5339Y56685D01*
X5469Y56738D01*
X5575Y56803D01*
X5658Y56880D01*
X5717Y56968D01*
X5752Y57069D01*
X5764Y57181D01*
Y56599D01*
D02*
G37*
G36*
X96515Y61737D02*
X96465Y61673D01*
X96420Y61604D01*
X96382Y61532D01*
X96349Y61455D01*
X96323Y61374D01*
X96302Y61289D01*
X96287Y61199D01*
X96279Y61105D01*
X96276Y61023D01*
X96279Y60826D01*
X96310Y60446D01*
X96337Y60292D01*
X96372Y60161D01*
X96414Y60054D01*
X96464Y59971D01*
X96521Y59912D01*
X96586Y59876D01*
X96659Y59864D01*
X95104D01*
X95177Y59876D01*
X95243Y59912D01*
X95300Y59971D01*
X95350Y60054D01*
X95392Y60161D01*
X95427Y60292D01*
X95454Y60446D01*
X95473Y60624D01*
X95487Y61031D01*
X95485Y61105D01*
X95476Y61199D01*
X95462Y61289D01*
X95441Y61374D01*
X95414Y61455D01*
X95382Y61532D01*
X95344Y61604D01*
X95299Y61673D01*
X95249Y61737D01*
X95193Y61797D01*
X96571D01*
X96515Y61737D01*
D02*
G37*
G36*
X98839Y60826D02*
X98869Y60446D01*
X98896Y60292D01*
X98931Y60161D01*
X98973Y60054D01*
X99023Y59971D01*
X99080Y59912D01*
X99146Y59876D01*
X99218Y59864D01*
X97663D01*
X97736Y59876D01*
X97802Y59912D01*
X97859Y59971D01*
X97909Y60054D01*
X97951Y60161D01*
X97986Y60292D01*
X98013Y60446D01*
X98032Y60624D01*
X98047Y61052D01*
X98835D01*
X98839Y60826D01*
D02*
G37*
G36*
X130831Y58440D02*
X130806Y58379D01*
X130783Y58306D01*
X130763Y58223D01*
X130746Y58129D01*
X130722Y57908D01*
X130710Y57645D01*
X130709Y57496D01*
X129921D01*
X129920Y57645D01*
X129883Y58129D01*
X129867Y58223D01*
X129847Y58306D01*
X129824Y58379D01*
X129799Y58440D01*
X129770Y58491D01*
X130860D01*
X130831Y58440D01*
D02*
G37*
G36*
X136737D02*
X136711Y58379D01*
X136688Y58306D01*
X136669Y58223D01*
X136652Y58129D01*
X136628Y57908D01*
X136616Y57645D01*
X136614Y57496D01*
X135827D01*
X135825Y57645D01*
X135789Y58129D01*
X135772Y58223D01*
X135753Y58306D01*
X135730Y58379D01*
X135704Y58440D01*
X135676Y58491D01*
X136765D01*
X136737Y58440D01*
D02*
G37*
G36*
X75939Y52939D02*
X76655Y52460D01*
X77500Y52292D01*
X78995D01*
Y42500D01*
X79109Y41924D01*
X79436Y41436D01*
X86936Y33936D01*
X88936Y31936D01*
X89424Y31609D01*
X90000Y31495D01*
X91617D01*
Y30539D01*
X91747Y29886D01*
X92116Y29333D01*
X92670Y28963D01*
X93323Y28833D01*
X93877Y28943D01*
X94029Y28862D01*
X94143Y28410D01*
X94102Y28231D01*
X92436Y26564D01*
X92109Y26076D01*
X91995Y25500D01*
Y17262D01*
X91661Y16989D01*
X91177Y17150D01*
X91169Y17191D01*
X90777Y17777D01*
X90191Y18169D01*
X89500Y18306D01*
X88809Y18169D01*
X88564Y18005D01*
X87449D01*
Y20831D01*
X79969D01*
Y12169D01*
X87449D01*
Y14995D01*
X88564D01*
X88809Y14831D01*
X89033Y14787D01*
X89263Y14231D01*
X89261Y14227D01*
X89146Y13651D01*
Y11222D01*
X87895D01*
Y1773D01*
X87477Y1575D01*
X57238D01*
X56831Y1799D01*
Y7269D01*
X60476D01*
X61321Y7437D01*
X62037Y7915D01*
X64561Y10439D01*
X65040Y11155D01*
X65208Y12000D01*
Y41500D01*
Y49086D01*
X72500Y56378D01*
X75939Y52939D01*
D02*
G37*
G36*
X109495Y23877D02*
Y16500D01*
X109609Y15924D01*
X109936Y15436D01*
X112568Y12803D01*
Y11022D01*
X111317D01*
Y1575D01*
X109573D01*
X109155Y1773D01*
Y11222D01*
X107905D01*
Y17601D01*
X107790Y18177D01*
X107464Y18665D01*
X105807Y20322D01*
X106053Y20783D01*
X106500Y20694D01*
X107191Y20831D01*
X107777Y21223D01*
X108169Y21809D01*
X108306Y22500D01*
X108169Y23191D01*
X108005Y23436D01*
Y24713D01*
X108467Y24904D01*
X109495Y23877D01*
D02*
G37*
G36*
X96936Y26154D02*
Y25564D01*
X96936Y25564D01*
X96609Y25076D01*
X96495Y24500D01*
Y23436D01*
X96331Y23191D01*
X96194Y22500D01*
X96331Y21809D01*
X96723Y21223D01*
X97309Y20831D01*
X98000Y20694D01*
X98447Y20783D01*
X98693Y20322D01*
X97461Y19090D01*
X97135Y18601D01*
X97020Y18025D01*
Y11222D01*
X95769D01*
Y1773D01*
X95351Y1575D01*
X93825D01*
X93407Y1773D01*
Y11222D01*
X92156D01*
Y13028D01*
X94564Y15436D01*
X94891Y15924D01*
X95005Y16500D01*
Y24877D01*
X96474Y26345D01*
X96936Y26154D01*
D02*
G37*
G36*
X102574Y19298D02*
X104894Y16977D01*
Y11222D01*
X103643D01*
Y1773D01*
X103226Y1575D01*
X101699D01*
X101281Y1773D01*
Y11222D01*
X100031D01*
Y17402D01*
X101938Y19309D01*
X102348Y19359D01*
X102574Y19298D01*
D02*
G37*
G36*
X96680Y30147D02*
X96657Y30071D01*
X96637Y29972D01*
X96619Y29849D01*
X96592Y29534D01*
X96572Y28883D01*
X96571Y28620D01*
X95193D01*
X95192Y28883D01*
X95127Y29972D01*
X95107Y30071D01*
X95084Y30147D01*
X95059Y30198D01*
X96705D01*
X96680Y30147D01*
D02*
G37*
G36*
X104357D02*
X104334Y30071D01*
X104314Y29972D01*
X104296Y29849D01*
X104270Y29534D01*
X104249Y28883D01*
X104248Y28620D01*
X102870D01*
X102869Y28883D01*
X102804Y29972D01*
X102784Y30071D01*
X102761Y30147D01*
X102736Y30198D01*
X104382D01*
X104357Y30147D01*
D02*
G37*
G36*
X106916D02*
X106893Y30071D01*
X106873Y29972D01*
X106855Y29849D01*
X106828Y29534D01*
X106808Y28883D01*
X106807Y28620D01*
X105429D01*
X105428Y28883D01*
X105363Y29972D01*
X105343Y30071D01*
X105321Y30147D01*
X105295Y30198D01*
X106941D01*
X106916Y30147D01*
D02*
G37*
G36*
X99239D02*
X99216Y30071D01*
X99196Y29972D01*
X99178Y29849D01*
X99151Y29534D01*
X99131Y28883D01*
X99130Y28620D01*
X97752D01*
X97751Y28883D01*
X97686Y29972D01*
X97666Y30071D01*
X97643Y30147D01*
X97618Y30198D01*
X99264D01*
X99239Y30147D01*
D02*
G37*
G36*
X101798D02*
X101775Y30071D01*
X101755Y29972D01*
X101737Y29849D01*
X101710Y29534D01*
X101690Y28883D01*
X101689Y28620D01*
X100311D01*
X100310Y28883D01*
X100245Y29972D01*
X100225Y30071D01*
X100202Y30147D01*
X100177Y30198D01*
X101823D01*
X101798Y30147D01*
D02*
G37*
G36*
X120247Y71951D02*
X120196Y71980D01*
X120134Y72006D01*
X120062Y72028D01*
X119979Y72048D01*
X119885Y72065D01*
X119664Y72089D01*
X119401Y72101D01*
X119252Y72102D01*
Y72890D01*
X119401Y72891D01*
X119885Y72928D01*
X119979Y72944D01*
X120062Y72964D01*
X120134Y72987D01*
X120196Y73012D01*
X120247Y73041D01*
Y71951D01*
D02*
G37*
G36*
X152137D02*
X152086Y71980D01*
X152024Y72006D01*
X151952Y72028D01*
X151869Y72048D01*
X151775Y72065D01*
X151554Y72089D01*
X151290Y72101D01*
X151142Y72102D01*
Y72890D01*
X151290Y72891D01*
X151775Y72928D01*
X151869Y72944D01*
X151952Y72964D01*
X152024Y72987D01*
X152086Y73012D01*
X152137Y73041D01*
Y71951D01*
D02*
G37*
G36*
Y68014D02*
X152086Y68043D01*
X152024Y68068D01*
X151952Y68091D01*
X151869Y68111D01*
X151775Y68128D01*
X151554Y68152D01*
X151290Y68164D01*
X151142Y68165D01*
Y68953D01*
X151290Y68954D01*
X151775Y68991D01*
X151869Y69007D01*
X151952Y69027D01*
X152024Y69050D01*
X152086Y69075D01*
X152137Y69104D01*
Y68014D01*
D02*
G37*
G36*
X120247Y69983D02*
X120196Y70011D01*
X120134Y70037D01*
X120062Y70060D01*
X119979Y70079D01*
X119885Y70096D01*
X119664Y70120D01*
X119401Y70132D01*
X119252Y70134D01*
Y70921D01*
X119401Y70923D01*
X119885Y70959D01*
X119979Y70976D01*
X120062Y70995D01*
X120134Y71018D01*
X120196Y71044D01*
X120247Y71073D01*
Y69983D01*
D02*
G37*
G36*
Y73920D02*
X120196Y73948D01*
X120134Y73974D01*
X120062Y73997D01*
X119979Y74016D01*
X119885Y74033D01*
X119664Y74057D01*
X119401Y74069D01*
X119252Y74071D01*
Y74858D01*
X119401Y74860D01*
X119885Y74896D01*
X119979Y74913D01*
X120062Y74932D01*
X120134Y74955D01*
X120196Y74981D01*
X120247Y75010D01*
Y73920D01*
D02*
G37*
G36*
X158150Y76949D02*
X158212Y76924D01*
X158284Y76901D01*
X158368Y76881D01*
X158462Y76865D01*
X158682Y76840D01*
X158946Y76828D01*
X159094Y76827D01*
Y76039D01*
X158946Y76038D01*
X158462Y76002D01*
X158368Y75985D01*
X158284Y75965D01*
X158212Y75943D01*
X158150Y75917D01*
X158100Y75888D01*
Y76978D01*
X158150Y76949D01*
D02*
G37*
G36*
X90969Y77220D02*
X90957Y77333D01*
X90921Y77433D01*
X90861Y77522D01*
X90778Y77598D01*
X90671Y77663D01*
X90539Y77716D01*
X90384Y77758D01*
X90205Y77787D01*
X90003Y77805D01*
X89776Y77811D01*
Y78992D01*
X90003Y78998D01*
X90205Y79016D01*
X90384Y79045D01*
X90539Y79087D01*
X90671Y79140D01*
X90778Y79205D01*
X90861Y79282D01*
X90921Y79370D01*
X90957Y79470D01*
X90969Y79583D01*
Y77220D01*
D02*
G37*
G36*
X115815Y76062D02*
X115859Y76027D01*
X115911Y75996D01*
X115970Y75969D01*
X116038Y75946D01*
X116113Y75927D01*
X116196Y75912D01*
X116287Y75902D01*
X116493Y75894D01*
Y75106D01*
X116386Y75104D01*
X116196Y75088D01*
X116113Y75073D01*
X116038Y75054D01*
X115970Y75031D01*
X115911Y75004D01*
X115859Y74973D01*
X115815Y74938D01*
X115779Y74898D01*
Y76102D01*
X115815Y76062D01*
D02*
G37*
G36*
X120247Y75888D02*
X120196Y75917D01*
X120134Y75943D01*
X120062Y75965D01*
X119979Y75985D01*
X119885Y76002D01*
X119664Y76026D01*
X119401Y76038D01*
X119252Y76039D01*
Y76827D01*
X119401Y76828D01*
X119885Y76865D01*
X119979Y76881D01*
X120062Y76901D01*
X120134Y76924D01*
X120196Y76949D01*
X120247Y76978D01*
Y75888D01*
D02*
G37*
G36*
X106516Y60826D02*
X106546Y60446D01*
X106573Y60292D01*
X106608Y60161D01*
X106650Y60054D01*
X106700Y59971D01*
X106757Y59912D01*
X106823Y59876D01*
X106895Y59864D01*
X105341D01*
X105414Y59876D01*
X105479Y59912D01*
X105536Y59971D01*
X105586Y60054D01*
X105629Y60161D01*
X105663Y60292D01*
X105690Y60446D01*
X105709Y60624D01*
X105724Y61052D01*
X106512D01*
X106516Y60826D01*
D02*
G37*
G36*
X109075D02*
X109105Y60446D01*
X109132Y60292D01*
X109167Y60161D01*
X109209Y60054D01*
X109259Y59971D01*
X109316Y59912D01*
X109382Y59876D01*
X109455Y59864D01*
X107900D01*
X107973Y59876D01*
X108038Y59912D01*
X108095Y59971D01*
X108145Y60054D01*
X108187Y60161D01*
X108222Y60292D01*
X108249Y60446D01*
X108268Y60624D01*
X108283Y61052D01*
X109071D01*
X109075Y60826D01*
D02*
G37*
G36*
X101398D02*
X101428Y60446D01*
X101455Y60292D01*
X101490Y60161D01*
X101532Y60054D01*
X101582Y59971D01*
X101639Y59912D01*
X101705Y59876D01*
X101777Y59864D01*
X100223D01*
X100295Y59876D01*
X100361Y59912D01*
X100418Y59971D01*
X100468Y60054D01*
X100510Y60161D01*
X100545Y60292D01*
X100572Y60446D01*
X100591Y60624D01*
X100606Y61052D01*
X101394D01*
X101398Y60826D01*
D02*
G37*
G36*
X103957D02*
X103987Y60446D01*
X104014Y60292D01*
X104049Y60161D01*
X104091Y60054D01*
X104141Y59971D01*
X104198Y59912D01*
X104264Y59876D01*
X104337Y59864D01*
X102782D01*
X102855Y59876D01*
X102920Y59912D01*
X102977Y59971D01*
X103027Y60054D01*
X103069Y60161D01*
X103104Y60292D01*
X103131Y60446D01*
X103150Y60624D01*
X103165Y61052D01*
X103953D01*
X103957Y60826D01*
D02*
G37*
G36*
X127769Y60685D02*
X127761Y60760D01*
X127737Y60827D01*
X127697Y60886D01*
X127641Y60937D01*
X127569Y60980D01*
X127481Y61016D01*
X127377Y61043D01*
X127257Y61063D01*
X127121Y61075D01*
X126969Y61079D01*
Y61866D01*
X127121Y61870D01*
X127257Y61882D01*
X127377Y61902D01*
X127481Y61929D01*
X127569Y61965D01*
X127641Y62008D01*
X127697Y62059D01*
X127737Y62118D01*
X127761Y62185D01*
X127769Y62260D01*
Y60685D01*
D02*
G37*
G36*
X152137Y66046D02*
X152086Y66074D01*
X152024Y66100D01*
X151952Y66123D01*
X151869Y66142D01*
X151775Y66159D01*
X151554Y66183D01*
X151290Y66195D01*
X151142Y66197D01*
Y66984D01*
X151290Y66986D01*
X151775Y67022D01*
X151869Y67039D01*
X151952Y67058D01*
X152024Y67081D01*
X152086Y67107D01*
X152137Y67136D01*
Y66046D01*
D02*
G37*
G36*
X120247Y68014D02*
X120196Y68043D01*
X120134Y68068D01*
X120062Y68091D01*
X119979Y68111D01*
X119885Y68128D01*
X119664Y68152D01*
X119401Y68164D01*
X119252Y68165D01*
Y68953D01*
X119401Y68954D01*
X119885Y68991D01*
X119979Y69007D01*
X120062Y69027D01*
X120134Y69050D01*
X120196Y69075D01*
X120247Y69104D01*
Y68014D01*
D02*
G37*
G36*
X111297Y61811D02*
X111237Y61867D01*
X111173Y61917D01*
X111105Y61962D01*
X111032Y62000D01*
X110955Y62033D01*
X110874Y62059D01*
X110789Y62080D01*
X110699Y62094D01*
X110605Y62103D01*
X110507Y62106D01*
Y62894D01*
X110605Y62897D01*
X110699Y62906D01*
X110789Y62920D01*
X110874Y62941D01*
X110955Y62967D01*
X111032Y63000D01*
X111105Y63038D01*
X111173Y63083D01*
X111237Y63133D01*
X111297Y63189D01*
Y61811D01*
D02*
G37*
G36*
X146458Y65300D02*
X146494Y64816D01*
X146511Y64722D01*
X146531Y64639D01*
X146554Y64566D01*
X146579Y64505D01*
X146608Y64454D01*
X145518D01*
X145547Y64505D01*
X145572Y64566D01*
X145595Y64639D01*
X145615Y64722D01*
X145632Y64816D01*
X145656Y65036D01*
X145668Y65300D01*
X145669Y65448D01*
X146457D01*
X146458Y65300D01*
D02*
G37*
G36*
X151449Y121213D02*
X151441Y121287D01*
X151418Y121354D01*
X151378Y121413D01*
X151323Y121465D01*
X151252Y121508D01*
X151166Y121543D01*
X151063Y121571D01*
X150945Y121591D01*
X150811Y121602D01*
X150662Y121606D01*
Y122394D01*
X150811Y122398D01*
X150945Y122409D01*
X151063Y122429D01*
X151166Y122457D01*
X151252Y122492D01*
X151323Y122535D01*
X151378Y122587D01*
X151418Y122646D01*
X151441Y122713D01*
X151449Y122787D01*
Y121213D01*
D02*
G37*
G36*
X147669Y127548D02*
X147602Y127524D01*
X147543Y127483D01*
X147492Y127428D01*
X147449Y127356D01*
X147413Y127268D01*
X147386Y127164D01*
X147366Y127044D01*
X147354Y126908D01*
X147350Y126756D01*
X146563D01*
X146559Y126908D01*
X146547Y127044D01*
X146528Y127164D01*
X146500Y127268D01*
X146465Y127356D01*
X146421Y127428D01*
X146370Y127483D01*
X146311Y127524D01*
X146244Y127548D01*
X146169Y127556D01*
X147744D01*
X147669Y127548D01*
D02*
G37*
G36*
X35797Y116311D02*
X35737Y116367D01*
X35673Y116417D01*
X35605Y116462D01*
X35532Y116500D01*
X35455Y116533D01*
X35374Y116559D01*
X35289Y116580D01*
X35199Y116595D01*
X35105Y116603D01*
X35007Y116606D01*
Y117394D01*
X35105Y117397D01*
X35199Y117405D01*
X35289Y117420D01*
X35374Y117441D01*
X35455Y117467D01*
X35532Y117500D01*
X35605Y117538D01*
X35673Y117583D01*
X35737Y117633D01*
X35797Y117689D01*
Y116311D01*
D02*
G37*
G36*
X18882Y124212D02*
X18382Y124113D01*
X18230Y124480D01*
X17739Y125120D01*
X17098Y125612D01*
X16352Y125921D01*
X15756Y125999D01*
Y122933D01*
X15256D01*
Y122433D01*
X11933D01*
X11973Y122132D01*
X12282Y121386D01*
X12313Y121345D01*
X12092Y120897D01*
X11319D01*
X10704Y120775D01*
X10183Y120427D01*
X9930Y120047D01*
X9805Y120016D01*
X9448Y120025D01*
X9374Y120047D01*
X9037Y120553D01*
X8413Y120969D01*
X7677Y121116D01*
X7291D01*
Y114173D01*
Y107231D01*
X7677D01*
X8413Y107377D01*
X9037Y107794D01*
X9374Y108299D01*
X9448Y108322D01*
X9805Y108330D01*
X9930Y108299D01*
X10183Y107920D01*
X10704Y107572D01*
X11319Y107449D01*
X12092D01*
X12313Y107001D01*
X12282Y106960D01*
X11973Y106214D01*
X11933Y105913D01*
X15256D01*
Y105413D01*
X15756D01*
Y102347D01*
X16352Y102425D01*
X17098Y102734D01*
X17739Y103226D01*
X18230Y103867D01*
X18382Y104234D01*
X18882Y104134D01*
Y99410D01*
Y97969D01*
X18898Y97890D01*
X18787Y97756D01*
X18787D01*
Y92338D01*
X17425D01*
Y94500D01*
X14457D01*
Y95000D01*
D01*
Y94500D01*
X11488D01*
Y92338D01*
X9070D01*
X9056Y92335D01*
X8933Y92955D01*
X8541Y93541D01*
X7955Y93933D01*
X7264Y94070D01*
X6572Y93933D01*
X5987Y93541D01*
X5595Y92955D01*
X5457Y92264D01*
Y91535D01*
X1772D01*
Y98323D01*
X2272Y98422D01*
X2280Y98403D01*
X2819Y97701D01*
X3521Y97162D01*
X4339Y96823D01*
X5217Y96707D01*
X6291D01*
Y100098D01*
Y103490D01*
X5217D01*
X4339Y103374D01*
X3521Y103035D01*
X2819Y102496D01*
X2280Y101794D01*
X2272Y101775D01*
X1772Y101874D01*
Y127829D01*
X2272Y127861D01*
X2330Y127422D01*
X2648Y126652D01*
X3156Y125990D01*
X3817Y125483D01*
X4587Y125164D01*
X5413Y125055D01*
X6291D01*
Y128248D01*
Y131441D01*
X5413D01*
X4587Y131332D01*
X3817Y131013D01*
X3156Y130506D01*
X2648Y129844D01*
X2330Y129074D01*
X2272Y128635D01*
X1772Y128668D01*
Y132071D01*
X18882D01*
Y124212D01*
D02*
G37*
G36*
X97494Y129631D02*
X97524Y129295D01*
X97573Y128998D01*
X97642Y128740D01*
X97730Y128522D01*
X97839Y128344D01*
X97966Y128205D01*
X98114Y128106D01*
X98282Y128047D01*
X98469Y128027D01*
X94532D01*
X94718Y128047D01*
X94886Y128106D01*
X95034Y128205D01*
X95161Y128344D01*
X95270Y128522D01*
X95358Y128740D01*
X95427Y128998D01*
X95476Y129295D01*
X95506Y129631D01*
X95516Y130008D01*
X97484D01*
X97494Y129631D01*
D02*
G37*
G36*
X28555Y118949D02*
X28488Y118925D01*
X28429Y118885D01*
X28378Y118829D01*
X28335Y118757D01*
X28299Y118669D01*
X28272Y118565D01*
X28252Y118446D01*
X28240Y118310D01*
X28236Y118158D01*
X27449D01*
X27445Y118310D01*
X27433Y118446D01*
X27413Y118565D01*
X27386Y118669D01*
X27350Y118757D01*
X27307Y118829D01*
X27256Y118885D01*
X27197Y118925D01*
X27130Y118949D01*
X27055Y118957D01*
X28630D01*
X28555Y118949D01*
D02*
G37*
G36*
X15413Y119995D02*
X15484Y119971D01*
X15575Y119950D01*
X15685Y119932D01*
X15963Y119904D01*
X16319Y119887D01*
X16752Y119882D01*
Y118701D01*
X16525Y118699D01*
X15575Y118632D01*
X15484Y118611D01*
X15413Y118588D01*
X15362Y118561D01*
Y120022D01*
X15413Y119995D01*
D02*
G37*
G36*
X155996Y130213D02*
X156020Y130146D01*
X156060Y130087D01*
X156116Y130035D01*
X156188Y129992D01*
X156276Y129957D01*
X156379Y129929D01*
X156499Y129909D01*
X156635Y129898D01*
X156787Y129894D01*
Y129106D01*
X156635Y129102D01*
X156499Y129091D01*
X156379Y129071D01*
X156276Y129043D01*
X156188Y129008D01*
X156116Y128965D01*
X156060Y128913D01*
X156020Y128854D01*
X155996Y128787D01*
X155988Y128713D01*
Y130287D01*
X155996Y130213D01*
D02*
G37*
G36*
X17797Y118602D02*
X17773Y118621D01*
X17739Y118638D01*
X17696Y118653D01*
X17643Y118665D01*
X17580Y118676D01*
X17426Y118692D01*
X17233Y118700D01*
X17122Y118701D01*
Y119882D01*
X17233Y119883D01*
X17580Y119906D01*
X17643Y119917D01*
X17696Y119930D01*
X17739Y119945D01*
X17773Y119962D01*
X17797Y119980D01*
Y118602D01*
D02*
G37*
G36*
X163583Y149016D02*
Y130774D01*
X163121Y130582D01*
X159352Y134352D01*
X158961Y134613D01*
X158500Y134704D01*
X158500Y134704D01*
X142957D01*
X142957Y134704D01*
X142496Y134613D01*
X142105Y134352D01*
X138086Y130333D01*
X138000Y130350D01*
X137309Y130212D01*
X136723Y129821D01*
X136331Y129235D01*
X136194Y128543D01*
X136331Y127852D01*
X136723Y127266D01*
X137309Y126874D01*
X138000Y126737D01*
X138691Y126874D01*
X139277Y127266D01*
X139669Y127852D01*
X139806Y128543D01*
X139789Y128630D01*
X143456Y132296D01*
X143717D01*
X144201Y132256D01*
X144201Y131796D01*
Y126744D01*
X145753D01*
Y123543D01*
X145752Y123543D01*
X145844Y123082D01*
X146105Y122692D01*
X147649Y121149D01*
X147649Y121149D01*
X148039Y120887D01*
X148500Y120796D01*
X148500Y120796D01*
X150650D01*
Y118260D01*
X159114D01*
Y125740D01*
X150650D01*
Y123204D01*
X148999D01*
X148161Y124042D01*
Y126744D01*
X149713D01*
X149713Y132256D01*
X150196Y132296D01*
X150804D01*
X151287Y132256D01*
Y126744D01*
X156799D01*
Y128296D01*
X158501D01*
X160221Y126576D01*
Y96601D01*
X159869Y96412D01*
X159721Y96380D01*
X159500Y96424D01*
Y94500D01*
Y92576D01*
X159721Y92620D01*
X159869Y92588D01*
X160221Y92399D01*
Y78152D01*
X159795Y77746D01*
X159531Y77762D01*
X159232Y78166D01*
X159279Y78402D01*
X159172Y78939D01*
X158874Y79386D01*
X159172Y79832D01*
X159279Y80370D01*
X159172Y80908D01*
X158874Y81354D01*
X159172Y81801D01*
X159279Y82339D01*
X159172Y82876D01*
X158874Y83323D01*
X159172Y83769D01*
X159279Y84307D01*
X159172Y84845D01*
X158994Y85111D01*
X159021Y85129D01*
X159372Y85655D01*
X159396Y85776D01*
X155118D01*
Y86776D01*
X159396D01*
X159372Y86896D01*
X159021Y87422D01*
X158994Y87440D01*
X159172Y87706D01*
X159279Y88244D01*
X159172Y88782D01*
X158868Y89237D01*
X158412Y89542D01*
X157874Y89649D01*
X157202D01*
X156844Y90149D01*
X156924Y90551D01*
X156787Y91242D01*
X156395Y91829D01*
X155809Y92220D01*
X155118Y92357D01*
X154427Y92220D01*
X153841Y91829D01*
X153449Y91242D01*
X153312Y90551D01*
X153392Y90149D01*
X153035Y89649D01*
X152362D01*
X151824Y89542D01*
X151369Y89237D01*
X151064Y88782D01*
X150957Y88244D01*
X151064Y87706D01*
X151242Y87440D01*
X151216Y87422D01*
X150864Y86896D01*
X150741Y86276D01*
X150767Y86143D01*
X150306Y85897D01*
X149960Y86243D01*
X149865Y86492D01*
X149907Y86916D01*
X150169Y87309D01*
X150306Y88000D01*
X150169Y88691D01*
X150149Y88721D01*
X150379Y89277D01*
X150538Y89308D01*
X150993Y89613D01*
X151298Y90069D01*
X151405Y90606D01*
Y96118D01*
X151298Y96656D01*
X150993Y97112D01*
X150538Y97416D01*
X150000Y97523D01*
X149462Y97416D01*
X149016Y97118D01*
X148569Y97416D01*
X148031Y97523D01*
X147494Y97416D01*
X147047Y97118D01*
X146601Y97416D01*
X146063Y97523D01*
X145799Y97470D01*
X145299Y97820D01*
Y101848D01*
X153816Y110365D01*
X154349Y110144D01*
X155248Y110025D01*
X156147Y110144D01*
X156985Y110491D01*
X157705Y111043D01*
X158257Y111763D01*
X158604Y112601D01*
X158723Y113500D01*
X158604Y114399D01*
X158257Y115237D01*
X157705Y115957D01*
X156985Y116509D01*
X156147Y116856D01*
X155248Y116975D01*
X154349Y116856D01*
X153511Y116509D01*
X152791Y115957D01*
X152239Y115237D01*
X151892Y114399D01*
X151773Y113500D01*
X151892Y112601D01*
X152113Y112068D01*
X143243Y103198D01*
X142982Y102807D01*
X142890Y102346D01*
X142890Y102346D01*
Y97820D01*
X142390Y97470D01*
X142126Y97523D01*
X141588Y97416D01*
X141322Y97238D01*
X141304Y97265D01*
X140778Y97616D01*
X140657Y97640D01*
Y93362D01*
X139657D01*
Y97640D01*
X139537Y97616D01*
X139011Y97265D01*
X138993Y97238D01*
X138727Y97416D01*
X138189Y97523D01*
X137925Y97470D01*
X137425Y97820D01*
Y98234D01*
X137425Y98234D01*
X137333Y98695D01*
X137072Y99085D01*
X137072Y99085D01*
X132340Y103817D01*
X132669Y104309D01*
X132806Y105000D01*
X132669Y105691D01*
X132277Y106277D01*
X131691Y106669D01*
X131580Y106691D01*
X131435Y107169D01*
X132477Y108212D01*
X132477Y108212D01*
X132739Y108603D01*
X132830Y109064D01*
Y110270D01*
X133363Y110491D01*
X134083Y111043D01*
X134635Y111763D01*
X134982Y112601D01*
X135101Y113500D01*
X134982Y114399D01*
X134635Y115237D01*
X134083Y115957D01*
X133363Y116509D01*
X132525Y116856D01*
X131626Y116975D01*
X130727Y116856D01*
X129889Y116509D01*
X129169Y115957D01*
X128617Y115237D01*
X128270Y114399D01*
X128151Y113500D01*
X128270Y112601D01*
X128617Y111763D01*
X129042Y111208D01*
X128760Y110755D01*
X128500Y110806D01*
X127809Y110669D01*
X127697Y110594D01*
X127197Y110861D01*
Y116945D01*
X120307D01*
Y112610D01*
X119867Y112170D01*
X119405Y112361D01*
Y112906D01*
X119298Y113443D01*
X118993Y113899D01*
X117815Y115078D01*
X118014Y115559D01*
X118142Y116535D01*
X118014Y117512D01*
X117637Y118422D01*
X117038Y119203D01*
X116256Y119802D01*
X115347Y120179D01*
X114370Y120308D01*
X113394Y120179D01*
X112484Y119802D01*
X111703Y119203D01*
X111103Y118422D01*
X110726Y117512D01*
X110598Y116535D01*
X110726Y115559D01*
X111103Y114649D01*
X111703Y113868D01*
X112484Y113268D01*
X113394Y112892D01*
X114370Y112763D01*
X115347Y112892D01*
X115828Y113091D01*
X116595Y112324D01*
Y108834D01*
X116331Y108439D01*
X116194Y107748D01*
Y95492D01*
X115296Y94595D01*
X114755Y94760D01*
X114669Y95191D01*
X114277Y95777D01*
X114209Y95823D01*
X114361Y96323D01*
X115331D01*
Y101835D01*
X106669D01*
Y100283D01*
X104963D01*
X104211Y101036D01*
X104195Y101054D01*
X104162Y101101D01*
X104157Y101109D01*
X104228Y101281D01*
X104323Y102000D01*
X104228Y102719D01*
X103951Y103390D01*
X103509Y103965D01*
X102933Y104407D01*
X102263Y104685D01*
X101543Y104780D01*
X100824Y104685D01*
X100154Y104407D01*
X99578Y103965D01*
X99136Y103390D01*
X98858Y102719D01*
X98764Y102000D01*
X98858Y101281D01*
X99136Y100610D01*
X99578Y100034D01*
X100154Y99593D01*
X100824Y99315D01*
X100890Y99306D01*
X100857Y98806D01*
X95810D01*
X95711Y99306D01*
X95954Y99407D01*
X96574Y99883D01*
X97050Y100503D01*
X97349Y101225D01*
X97385Y101500D01*
X94457D01*
X91528D01*
X91565Y101225D01*
X91864Y100503D01*
X92339Y99883D01*
X92960Y99407D01*
X93203Y99306D01*
X93103Y98806D01*
X92000D01*
X91309Y98669D01*
X90723Y98277D01*
X86223Y93777D01*
X85831Y93191D01*
X85694Y92500D01*
Y84500D01*
Y78500D01*
Y63500D01*
X85831Y62809D01*
X86223Y62223D01*
X86809Y61831D01*
X87319Y61730D01*
X87524Y61228D01*
X86586Y60289D01*
X86500Y60306D01*
X85809Y60169D01*
X85223Y59777D01*
X84831Y59191D01*
X84694Y58500D01*
X84831Y57809D01*
X85223Y57223D01*
X85245Y57208D01*
X85093Y56708D01*
X78414D01*
X75622Y59500D01*
X83561Y67439D01*
X84040Y68155D01*
X84208Y69000D01*
Y110364D01*
X88344Y114501D01*
X88823Y115217D01*
X88991Y116062D01*
Y124869D01*
X92199Y128077D01*
X92661Y127886D01*
Y121161D01*
X100339D01*
Y128792D01*
X104350D01*
X104444Y128599D01*
X104485Y128292D01*
X103762Y127738D01*
X103147Y126936D01*
X102760Y126002D01*
X102628Y125000D01*
X102760Y123998D01*
X103147Y123064D01*
X103762Y122262D01*
X104564Y121647D01*
X105498Y121260D01*
X106500Y121128D01*
X107502Y121260D01*
X108436Y121647D01*
X109238Y122262D01*
X109853Y123064D01*
X110240Y123998D01*
X110372Y125000D01*
X110240Y126002D01*
X109853Y126936D01*
X109238Y127738D01*
X108515Y128292D01*
X108556Y128599D01*
X108650Y128792D01*
X123500D01*
X124345Y128960D01*
X125061Y129439D01*
X126561Y130939D01*
X127040Y131655D01*
X127208Y132500D01*
Y138039D01*
X128543D01*
Y147488D01*
X121457D01*
Y138039D01*
X122792D01*
Y133414D01*
X122585Y133208D01*
X92000D01*
X91155Y133040D01*
X90439Y132561D01*
X85902Y128024D01*
X85440Y128216D01*
Y129385D01*
X90748Y134694D01*
X104583D01*
Y134079D01*
X108638D01*
Y138921D01*
X104583D01*
Y138306D01*
X90000D01*
X89309Y138169D01*
X88723Y137777D01*
X82356Y131411D01*
X81965Y130825D01*
X81827Y130134D01*
Y118114D01*
X77573Y113860D01*
X77487Y113731D01*
X76956Y113837D01*
X76869Y114274D01*
X76431Y114931D01*
X75774Y115369D01*
X75500Y115424D01*
Y113500D01*
Y111576D01*
X75774Y111631D01*
X76431Y112069D01*
X76544Y112239D01*
X77044Y112088D01*
Y103599D01*
X70252Y96806D01*
X47118D01*
X46972Y97540D01*
X46537Y98191D01*
X45886Y98626D01*
X45543Y98694D01*
Y99563D01*
X45543Y99563D01*
X45420Y100177D01*
X45072Y100698D01*
X44968Y100803D01*
X45251Y101227D01*
X45642Y101065D01*
X45917Y101028D01*
Y103957D01*
Y106885D01*
X45642Y106849D01*
X44920Y106550D01*
X44300Y106074D01*
X43841Y105476D01*
X43317Y105826D01*
X43043Y105880D01*
Y103957D01*
X42543D01*
Y103457D01*
X40620D01*
X40674Y103182D01*
X40674Y103182D01*
X40374Y102732D01*
X40000Y102806D01*
X39309Y102669D01*
X38723Y102277D01*
X38331Y101691D01*
X38194Y101000D01*
X38331Y100309D01*
X38723Y99723D01*
X39309Y99331D01*
X40000Y99194D01*
X40691Y99331D01*
X40786Y99394D01*
X41682D01*
X41971Y99068D01*
X41877Y98552D01*
X41337Y98191D01*
X40902Y97540D01*
X40749Y96772D01*
Y93228D01*
X40902Y92460D01*
X41337Y91809D01*
X41988Y91374D01*
X42756Y91221D01*
X45118D01*
X45886Y91374D01*
X46430Y91737D01*
X46930Y91565D01*
Y89012D01*
X43618D01*
Y85306D01*
X38500D01*
X37809Y85169D01*
X37223Y84777D01*
X36831Y84191D01*
X36694Y83500D01*
X36831Y82809D01*
X37223Y82223D01*
X37809Y81831D01*
X38500Y81694D01*
X43618D01*
Y77988D01*
X53854D01*
Y89012D01*
X50543D01*
Y93194D01*
X60531D01*
X60555Y93178D01*
X60652Y92694D01*
X60515Y92637D01*
X59734Y92038D01*
X59135Y91256D01*
X58758Y90346D01*
X58629Y89370D01*
X58758Y88394D01*
X59135Y87484D01*
X59734Y86703D01*
X60515Y86103D01*
X61425Y85726D01*
X62402Y85598D01*
X63378Y85726D01*
X64288Y86103D01*
X65069Y86703D01*
X65669Y87484D01*
X66045Y88394D01*
X66174Y89370D01*
X66045Y90346D01*
X65669Y91256D01*
X65069Y92038D01*
X64288Y92637D01*
X64151Y92694D01*
X64246Y93170D01*
X64310Y93194D01*
X71000D01*
X71691Y93331D01*
X72277Y93723D01*
X79330Y100776D01*
X79792Y100584D01*
Y69915D01*
X70939Y61061D01*
X61439Y51561D01*
X60960Y50845D01*
X60792Y50000D01*
Y41500D01*
Y12914D01*
X59562Y11684D01*
X56831D01*
Y17154D01*
X48169D01*
Y1799D01*
X47762Y1575D01*
X16142D01*
X1772Y15945D01*
Y35498D01*
X2044Y35634D01*
X2272Y35690D01*
X2809Y35331D01*
X3500Y35194D01*
X4191Y35331D01*
X4777Y35723D01*
X5169Y36309D01*
X5306Y37000D01*
Y42311D01*
X5806Y42463D01*
X6069Y42069D01*
X6726Y41631D01*
X7000Y41576D01*
Y43500D01*
Y45424D01*
X6726Y45369D01*
X6069Y44931D01*
X5806Y44537D01*
X5306Y44688D01*
Y47339D01*
X12839D01*
Y64661D01*
X5306D01*
Y72871D01*
X50323D01*
X51014Y73008D01*
X51600Y73400D01*
X51992Y73986D01*
X52129Y74677D01*
X51992Y75368D01*
X51600Y75955D01*
X51014Y76346D01*
X50323Y76484D01*
X6191D01*
X6000Y76946D01*
X7279Y78224D01*
X11791D01*
Y88776D01*
X9070D01*
Y91535D01*
X19685D01*
Y92032D01*
X21043D01*
Y95000D01*
Y97969D01*
X19685D01*
Y99410D01*
Y112969D01*
X24929D01*
X25382Y112854D01*
Y107146D01*
X30303D01*
X30484Y106933D01*
Y106933D01*
X32658D01*
Y110000D01*
X33658D01*
Y106933D01*
X35831D01*
Y108128D01*
X36331Y108395D01*
X36726Y108131D01*
X37000Y108076D01*
Y110000D01*
X37500D01*
Y110500D01*
X39424D01*
X39369Y110774D01*
X38931Y111431D01*
X38274Y111869D01*
X37600Y112003D01*
X37468Y112327D01*
X37450Y112504D01*
X37777Y112723D01*
X38169Y113309D01*
X38306Y114000D01*
X38169Y114691D01*
X37849Y115170D01*
X37806Y115500D01*
X37849Y115831D01*
X38169Y116309D01*
X38306Y117000D01*
X38169Y117691D01*
X37777Y118277D01*
X37191Y118669D01*
X36500Y118806D01*
X36217Y118750D01*
X35831Y119067D01*
Y120500D01*
X33158D01*
Y121000D01*
X32658D01*
Y124067D01*
X30484D01*
Y124067D01*
X30303Y123854D01*
X25382D01*
Y118146D01*
X24969Y117937D01*
X20327D01*
X20060Y118437D01*
X20169Y118600D01*
X20306Y119291D01*
X20169Y119983D01*
X19777Y120569D01*
X19685Y120630D01*
Y132874D01*
X1772D01*
Y149016D01*
X16142Y163386D01*
X99227D01*
X99303Y163290D01*
X99222Y162612D01*
X99046Y162477D01*
X95219Y158651D01*
X94778Y158075D01*
X94500Y157404D01*
X94405Y156685D01*
Y154339D01*
X93347D01*
Y146661D01*
X101024D01*
Y154339D01*
X99965D01*
Y155534D01*
X102163Y157732D01*
X113000D01*
X113181Y157756D01*
X117192D01*
Y152244D01*
X108669D01*
Y146732D01*
X111194D01*
Y144500D01*
X111331Y143809D01*
X111723Y143223D01*
X113583Y141362D01*
Y138921D01*
X113362D01*
Y134079D01*
X117417D01*
Y138921D01*
X117196D01*
Y142110D01*
X117059Y142801D01*
X116667Y143387D01*
X114806Y145248D01*
Y146732D01*
X117331D01*
Y147180D01*
X119500D01*
X120383Y147356D01*
X121132Y147856D01*
X121632Y148605D01*
X121808Y149488D01*
Y153512D01*
X128543D01*
Y162886D01*
X128543Y162961D01*
X128724Y163386D01*
X135552D01*
X135722Y162886D01*
X135173Y162465D01*
X134539Y161639D01*
X134289Y161033D01*
X133728Y160986D01*
X133431Y161431D01*
X132774Y161869D01*
X132500Y161924D01*
Y160000D01*
Y158076D01*
X132774Y158131D01*
X133431Y158569D01*
X133608Y158835D01*
X134128Y158713D01*
X134141Y158614D01*
X134539Y157652D01*
X135173Y156826D01*
X135999Y156193D01*
X136960Y155795D01*
X137492Y155725D01*
Y159646D01*
X137992D01*
Y160146D01*
X141913D01*
X141843Y160678D01*
X141445Y161639D01*
X140811Y162465D01*
X140263Y162886D01*
X140432Y163386D01*
X149213D01*
X163583Y149016D01*
D02*
G37*
G36*
X15464Y117399D02*
X15569Y117341D01*
X15677Y117291D01*
X15788Y117247D01*
X15902Y117210D01*
X16019Y117180D01*
X16139Y117156D01*
X16262Y117139D01*
X16387Y117129D01*
X16516Y117126D01*
Y116339D01*
X16387Y116335D01*
X16262Y116325D01*
X16139Y116308D01*
X16019Y116285D01*
X15902Y116254D01*
X15788Y116217D01*
X15677Y116174D01*
X15569Y116123D01*
X15464Y116066D01*
X15362Y116002D01*
Y117463D01*
X15464Y117399D01*
D02*
G37*
%LPC*%
G36*
X96215Y93594D02*
X94791D01*
Y92171D01*
X95065Y92225D01*
X95722Y92664D01*
X96161Y93320D01*
X96215Y93594D01*
D02*
G37*
G36*
X99500Y87428D02*
X99225Y87392D01*
X98503Y87093D01*
X97883Y86617D01*
X97407Y85997D01*
X97108Y85275D01*
X97072Y85000D01*
X99500D01*
Y87428D01*
D02*
G37*
G36*
X100500D02*
Y85000D01*
X102928D01*
X102892Y85275D01*
X102593Y85997D01*
X102117Y86617D01*
X101497Y87093D01*
X100775Y87392D01*
X100500Y87428D01*
D02*
G37*
G36*
X141500Y36924D02*
X141226Y36869D01*
X140569Y36431D01*
X140131Y35774D01*
X140076Y35500D01*
X141500D01*
Y36924D01*
D02*
G37*
G36*
X142500D02*
Y35500D01*
X143924D01*
X143869Y35774D01*
X143431Y36431D01*
X142774Y36869D01*
X142500Y36924D01*
D02*
G37*
G36*
X101779Y44508D02*
X95374D01*
Y38102D01*
X101779D01*
Y44508D01*
D02*
G37*
G36*
X109185D02*
X102779D01*
Y38102D01*
X109185D01*
Y44508D01*
D02*
G37*
G36*
X141500Y34500D02*
X140076D01*
X140131Y34226D01*
X140569Y33569D01*
X141226Y33131D01*
X141500Y33076D01*
Y34500D01*
D02*
G37*
G36*
X143924D02*
X142500D01*
Y33076D01*
X142774Y33131D01*
X143431Y33569D01*
X143869Y34226D01*
X143924Y34500D01*
D02*
G37*
G36*
X101779Y51913D02*
X95374D01*
Y45508D01*
X101779D01*
Y51913D01*
D02*
G37*
G36*
X109185D02*
X102779D01*
Y45508D01*
X109185D01*
Y51913D01*
D02*
G37*
G36*
X87500Y48043D02*
X85072D01*
X85108Y47768D01*
X85407Y47046D01*
X85883Y46426D01*
X86503Y45950D01*
X87225Y45651D01*
X87500Y45615D01*
Y48043D01*
D02*
G37*
G36*
X141248Y47928D02*
Y45500D01*
X143676D01*
X143640Y45775D01*
X143341Y46497D01*
X142865Y47117D01*
X142245Y47593D01*
X141523Y47892D01*
X141248Y47928D01*
D02*
G37*
G36*
X140248Y47928D02*
X139973Y47892D01*
X139251Y47593D01*
X138631Y47117D01*
X138155Y46497D01*
X137856Y45775D01*
X137820Y45500D01*
X140248D01*
Y47928D01*
D02*
G37*
G36*
X90928Y48043D02*
X88500D01*
Y45615D01*
X88775Y45651D01*
X89497Y45950D01*
X90117Y46426D01*
X90593Y47046D01*
X90892Y47768D01*
X90928Y48043D01*
D02*
G37*
G36*
X88500Y51472D02*
Y49043D01*
X90928D01*
X90892Y49318D01*
X90593Y50040D01*
X90117Y50661D01*
X89497Y51136D01*
X88775Y51435D01*
X88500Y51472D01*
D02*
G37*
G36*
X151862Y51665D02*
X150438D01*
X150493Y51391D01*
X150932Y50735D01*
X151588Y50296D01*
X151862Y50242D01*
Y51665D01*
D02*
G37*
G36*
X154286D02*
X152862D01*
Y50242D01*
X153136Y50296D01*
X153793Y50735D01*
X154231Y51391D01*
X154286Y51665D01*
D02*
G37*
G36*
X87500Y51472D02*
X87225Y51435D01*
X86503Y51136D01*
X85883Y50661D01*
X85407Y50040D01*
X85108Y49318D01*
X85072Y49043D01*
X87500D01*
Y51472D01*
D02*
G37*
G36*
X154286Y41823D02*
X152862D01*
Y40399D01*
X153136Y40454D01*
X153793Y40892D01*
X154231Y41549D01*
X154286Y41823D01*
D02*
G37*
G36*
X151862D02*
X150438D01*
X150493Y41549D01*
X150932Y40892D01*
X151588Y40454D01*
X151862Y40399D01*
Y41823D01*
D02*
G37*
G36*
X152862Y44247D02*
Y42823D01*
X154286D01*
X154231Y43097D01*
X153793Y43753D01*
X153136Y44192D01*
X152862Y44247D01*
D02*
G37*
G36*
X151862D02*
X151588Y44192D01*
X150932Y43753D01*
X150493Y43097D01*
X150438Y42823D01*
X151862D01*
Y44247D01*
D02*
G37*
G36*
X143676Y44500D02*
X141248D01*
Y42072D01*
X141523Y42108D01*
X142245Y42407D01*
X142865Y42883D01*
X143341Y43503D01*
X143640Y44225D01*
X143676Y44500D01*
D02*
G37*
G36*
X140248D02*
X137820D01*
X137856Y44225D01*
X138155Y43503D01*
X138631Y42883D01*
X139251Y42407D01*
X139973Y42108D01*
X140248Y42072D01*
Y44500D01*
D02*
G37*
G36*
X118217Y29483D02*
Y28059D01*
X119640D01*
X119586Y28333D01*
X119147Y28990D01*
X118491Y29428D01*
X118217Y29483D01*
D02*
G37*
G36*
X153240Y13144D02*
X152966Y13090D01*
X152310Y12651D01*
X151871Y11995D01*
X151816Y11721D01*
X153240D01*
Y13144D01*
D02*
G37*
G36*
X154240D02*
Y11721D01*
X155664D01*
X155609Y11995D01*
X155171Y12651D01*
X154514Y13090D01*
X154240Y13144D01*
D02*
G37*
G36*
X153240Y10721D02*
X151816D01*
X151871Y10446D01*
X152310Y9790D01*
X152966Y9351D01*
X153240Y9297D01*
Y10721D01*
D02*
G37*
G36*
X155664D02*
X154240D01*
Y9297D01*
X154514Y9351D01*
X155171Y9790D01*
X155609Y10446D01*
X155664Y10721D01*
D02*
G37*
G36*
X141294Y5012D02*
X139870D01*
Y3588D01*
X140144Y3643D01*
X140801Y4081D01*
X141239Y4738D01*
X141294Y5012D01*
D02*
G37*
G36*
X138870D02*
X137446D01*
X137501Y4738D01*
X137940Y4081D01*
X138596Y3643D01*
X138870Y3588D01*
Y5012D01*
D02*
G37*
G36*
X120366D02*
X118942D01*
X118997Y4738D01*
X119436Y4081D01*
X120092Y3643D01*
X120366Y3588D01*
Y5012D01*
D02*
G37*
G36*
X122790D02*
X121366D01*
Y3588D01*
X121640Y3643D01*
X122297Y4081D01*
X122735Y4738D01*
X122790Y5012D01*
D02*
G37*
G36*
X138870Y7435D02*
X138596Y7381D01*
X137940Y6942D01*
X137501Y6286D01*
X137446Y6012D01*
X138870D01*
Y7435D01*
D02*
G37*
G36*
X139870D02*
Y6012D01*
X141294D01*
X141239Y6286D01*
X140801Y6942D01*
X140144Y7381D01*
X139870Y7435D01*
D02*
G37*
G36*
X121366D02*
Y6012D01*
X122790D01*
X122735Y6286D01*
X122297Y6942D01*
X121640Y7381D01*
X121366Y7435D01*
D02*
G37*
G36*
X120366D02*
X120092Y7381D01*
X119436Y6942D01*
X118997Y6286D01*
X118942Y6012D01*
X120366D01*
Y7435D01*
D02*
G37*
G36*
X160343Y25152D02*
Y23728D01*
X161766D01*
X161712Y24003D01*
X161273Y24659D01*
X160617Y25098D01*
X160343Y25152D01*
D02*
G37*
G36*
X159343D02*
X159068Y25098D01*
X158412Y24659D01*
X157973Y24003D01*
X157919Y23728D01*
X159343D01*
Y25152D01*
D02*
G37*
G36*
X117217Y29483D02*
X116942Y29428D01*
X116286Y28990D01*
X115847Y28333D01*
X115793Y28059D01*
X117217D01*
Y29483D01*
D02*
G37*
G36*
Y27059D02*
X115793D01*
X115847Y26785D01*
X116286Y26129D01*
X116942Y25690D01*
X117217Y25635D01*
Y27059D01*
D02*
G37*
G36*
X119640D02*
X118217D01*
Y25635D01*
X118491Y25690D01*
X119147Y26129D01*
X119586Y26785D01*
X119640Y27059D01*
D02*
G37*
G36*
X120366Y18398D02*
X118942D01*
X118997Y18123D01*
X119436Y17467D01*
X120092Y17029D01*
X120366Y16974D01*
Y18398D01*
D02*
G37*
G36*
X122790D02*
X121366D01*
Y16974D01*
X121640Y17029D01*
X122297Y17467D01*
X122735Y18123D01*
X122790Y18398D01*
D02*
G37*
G36*
X143700Y28379D02*
X142388Y28250D01*
X141127Y27867D01*
X139964Y27246D01*
X138945Y26409D01*
X138109Y25390D01*
X137487Y24227D01*
X137104Y22966D01*
X136975Y21654D01*
X137104Y20342D01*
X137487Y19080D01*
X138109Y17918D01*
X138945Y16898D01*
X139964Y16062D01*
X141127Y15440D01*
X142388Y15058D01*
X143700Y14929D01*
X145012Y15058D01*
X146274Y15440D01*
X147437Y16062D01*
X148456Y16898D01*
X149292Y17918D01*
X149914Y19080D01*
X150296Y20342D01*
X150426Y21654D01*
X150296Y22966D01*
X149914Y24227D01*
X149292Y25390D01*
X148456Y26409D01*
X147437Y27246D01*
X146274Y27867D01*
X145012Y28250D01*
X143700Y28379D01*
D02*
G37*
G36*
X159343Y22728D02*
X157919D01*
X157973Y22454D01*
X158412Y21798D01*
X159068Y21359D01*
X159343Y21305D01*
Y22728D01*
D02*
G37*
G36*
X161766D02*
X160343D01*
Y21305D01*
X160617Y21359D01*
X161273Y21798D01*
X161712Y22454D01*
X161766Y22728D01*
D02*
G37*
G36*
X120366Y20821D02*
X120092Y20767D01*
X119436Y20328D01*
X118997Y19672D01*
X118942Y19398D01*
X120366D01*
Y20821D01*
D02*
G37*
G36*
X121366D02*
Y19398D01*
X122790D01*
X122735Y19672D01*
X122297Y20328D01*
X121640Y20767D01*
X121366Y20821D01*
D02*
G37*
G36*
X151862Y54089D02*
X151588Y54035D01*
X150932Y53596D01*
X150493Y52940D01*
X150438Y52665D01*
X151862D01*
Y54089D01*
D02*
G37*
G36*
X152862D02*
Y52665D01*
X154286D01*
X154231Y52940D01*
X153793Y53596D01*
X153136Y54035D01*
X152862Y54089D01*
D02*
G37*
G36*
X113159Y56516D02*
X111736D01*
Y52732D01*
X111972Y52779D01*
X112596Y53196D01*
X113013Y53819D01*
X113159Y54555D01*
Y56516D01*
D02*
G37*
G36*
X80028Y36766D02*
Y35342D01*
X81451D01*
X81397Y35617D01*
X80958Y36273D01*
X80302Y36712D01*
X80028Y36766D01*
D02*
G37*
G36*
X79028Y34343D02*
X77604D01*
X77658Y34068D01*
X78097Y33412D01*
X78753Y32973D01*
X79028Y32919D01*
Y34343D01*
D02*
G37*
G36*
X81451D02*
X80028D01*
Y32919D01*
X80302Y32973D01*
X80958Y33412D01*
X81397Y34068D01*
X81451Y34343D01*
D02*
G37*
G36*
X79028Y36766D02*
X78753Y36712D01*
X78097Y36273D01*
X77658Y35617D01*
X77604Y35342D01*
X79028D01*
Y36766D01*
D02*
G37*
G36*
X71791Y42207D02*
X71517Y42153D01*
X70861Y41714D01*
X70422Y41058D01*
X70368Y40784D01*
X71791D01*
Y42207D01*
D02*
G37*
G36*
Y39783D02*
X70368D01*
X70422Y39509D01*
X70861Y38853D01*
X71517Y38414D01*
X71791Y38360D01*
Y39783D01*
D02*
G37*
G36*
X74215D02*
X72791D01*
Y38360D01*
X73066Y38414D01*
X73722Y38853D01*
X74160Y39509D01*
X74215Y39783D01*
D02*
G37*
G36*
X72791Y42207D02*
Y40784D01*
X74215D01*
X74160Y41058D01*
X73722Y41714D01*
X73066Y42153D01*
X72791Y42207D01*
D02*
G37*
G36*
X71791Y10632D02*
X71517Y10578D01*
X70861Y10139D01*
X70422Y9483D01*
X70368Y9209D01*
X71791D01*
Y10632D01*
D02*
G37*
G36*
X72791D02*
Y9209D01*
X74215D01*
X74160Y9483D01*
X73722Y10139D01*
X73066Y10578D01*
X72791Y10632D01*
D02*
G37*
G36*
X74215Y8209D02*
X72791D01*
Y6785D01*
X73066Y6840D01*
X73722Y7278D01*
X74160Y7934D01*
X74215Y8209D01*
D02*
G37*
G36*
X80996Y8026D02*
X80722Y7971D01*
X80066Y7533D01*
X79627Y6877D01*
X79572Y6602D01*
X80996D01*
Y8026D01*
D02*
G37*
G36*
X81996D02*
Y6602D01*
X83420D01*
X83365Y6877D01*
X82927Y7533D01*
X82270Y7971D01*
X81996Y8026D01*
D02*
G37*
G36*
X71791Y8209D02*
X70368D01*
X70422Y7934D01*
X70861Y7278D01*
X71517Y6840D01*
X71791Y6785D01*
Y8209D01*
D02*
G37*
G36*
X80996Y5602D02*
X79572D01*
X79627Y5328D01*
X80066Y4672D01*
X80722Y4233D01*
X80996Y4179D01*
Y5602D01*
D02*
G37*
G36*
X83420D02*
X81996D01*
Y4179D01*
X82270Y4233D01*
X82927Y4672D01*
X83365Y5328D01*
X83420Y5602D01*
D02*
G37*
G36*
X87449Y30331D02*
X79969D01*
Y21669D01*
X87449D01*
Y24495D01*
X88564D01*
X88809Y24331D01*
X89500Y24194D01*
X90191Y24331D01*
X90777Y24723D01*
X91169Y25309D01*
X91306Y26000D01*
X91169Y26691D01*
X90777Y27277D01*
X90191Y27669D01*
X89500Y27806D01*
X88809Y27669D01*
X88564Y27505D01*
X87449D01*
Y30331D01*
D02*
G37*
G36*
X71791Y30543D02*
X68339D01*
Y26500D01*
X71791D01*
Y30543D01*
D02*
G37*
G36*
X76244D02*
X72791D01*
Y26500D01*
X76244D01*
Y30543D01*
D02*
G37*
G36*
X71791Y16000D02*
X68339D01*
Y11957D01*
X71791D01*
Y16000D01*
D02*
G37*
G36*
X76244D02*
X72791D01*
Y11957D01*
X76244D01*
Y16000D01*
D02*
G37*
G36*
Y25500D02*
X72291D01*
X68339D01*
Y21543D01*
X68339Y21457D01*
Y21043D01*
X68339Y20957D01*
Y17000D01*
X72291D01*
X76244D01*
Y20957D01*
X76244Y21043D01*
Y21457D01*
X76244Y21543D01*
Y25500D01*
D02*
G37*
G36*
X11692Y99598D02*
X7291D01*
Y96707D01*
X8366D01*
X9244Y96823D01*
X10062Y97162D01*
X10764Y97701D01*
X11010Y98021D01*
X11488Y97823D01*
Y95500D01*
X13957D01*
Y97969D01*
X11600D01*
X11291Y98387D01*
X11303Y98403D01*
X11642Y99221D01*
X11692Y99598D01*
D02*
G37*
G36*
X17425Y97969D02*
X14957D01*
Y95500D01*
X17425D01*
Y97969D01*
D02*
G37*
G36*
X8366Y103490D02*
X7291D01*
Y100598D01*
X11692D01*
X11642Y100976D01*
X11303Y101794D01*
X10764Y102496D01*
X10062Y103035D01*
X9244Y103374D01*
X8366Y103490D01*
D02*
G37*
G36*
X6291Y121116D02*
X5906D01*
X5170Y120969D01*
X4546Y120553D01*
X4129Y119929D01*
X3983Y119193D01*
Y114673D01*
X6291D01*
Y121116D01*
D02*
G37*
G36*
X14756Y104913D02*
X11933D01*
X11973Y104613D01*
X12282Y103867D01*
X12773Y103226D01*
X13414Y102734D01*
X14160Y102425D01*
X14756Y102347D01*
Y104913D01*
D02*
G37*
G36*
X6291Y113673D02*
X3983D01*
Y109153D01*
X4129Y108418D01*
X4546Y107794D01*
X5170Y107377D01*
X5906Y107231D01*
X6291D01*
Y113673D01*
D02*
G37*
G36*
X11296Y127748D02*
X7291D01*
Y125055D01*
X8169D01*
X8996Y125164D01*
X9766Y125483D01*
X10427Y125990D01*
X10934Y126652D01*
X11253Y127422D01*
X11296Y127748D01*
D02*
G37*
G36*
X14756Y125999D02*
X14160Y125921D01*
X13414Y125612D01*
X12773Y125120D01*
X12282Y124480D01*
X11973Y123734D01*
X11933Y123433D01*
X14756D01*
Y125999D01*
D02*
G37*
G36*
X8169Y131441D02*
X7291D01*
Y128748D01*
X11296D01*
X11253Y129074D01*
X10934Y129844D01*
X10427Y130506D01*
X9766Y131013D01*
X8996Y131332D01*
X8169Y131441D01*
D02*
G37*
G36*
X7784Y29876D02*
Y28453D01*
X9207D01*
X9153Y28727D01*
X8714Y29383D01*
X8058Y29822D01*
X7784Y29876D01*
D02*
G37*
G36*
X27514Y159539D02*
X26091D01*
Y158116D01*
X26365Y158170D01*
X27021Y158609D01*
X27460Y159265D01*
X27514Y159539D01*
D02*
G37*
G36*
X131500Y159500D02*
X130076D01*
X130131Y159226D01*
X130569Y158569D01*
X131226Y158131D01*
X131500Y158076D01*
Y159500D01*
D02*
G37*
G36*
X25091Y159539D02*
X23667D01*
X23721Y159265D01*
X24160Y158609D01*
X24816Y158170D01*
X25091Y158116D01*
Y159539D01*
D02*
G37*
G36*
X33000Y37924D02*
Y36500D01*
X34424D01*
X34369Y36774D01*
X33931Y37431D01*
X33274Y37869D01*
X33000Y37924D01*
D02*
G37*
G36*
X6784Y29876D02*
X6509Y29822D01*
X5853Y29383D01*
X5414Y28727D01*
X5360Y28453D01*
X6784D01*
Y29876D01*
D02*
G37*
G36*
X32000Y37924D02*
X31726Y37869D01*
X31069Y37431D01*
X30631Y36774D01*
X30576Y36500D01*
X32000D01*
Y37924D01*
D02*
G37*
G36*
X141913Y159146D02*
X138492D01*
Y155725D01*
X139024Y155795D01*
X139986Y156193D01*
X140811Y156826D01*
X141445Y157652D01*
X141843Y158614D01*
X141913Y159146D01*
D02*
G37*
G36*
X52000Y39413D02*
X47957D01*
Y32024D01*
X52000D01*
Y39413D01*
D02*
G37*
G36*
X57043D02*
X53000D01*
Y32024D01*
X57043D01*
Y39413D01*
D02*
G37*
G36*
X32000Y35500D02*
X30576D01*
X30631Y35226D01*
X31069Y34569D01*
X31726Y34131D01*
X32000Y34076D01*
Y35500D01*
D02*
G37*
G36*
X34424D02*
X33000D01*
Y34076D01*
X33274Y34131D01*
X33931Y34569D01*
X34369Y35226D01*
X34424Y35500D01*
D02*
G37*
G36*
X14067Y158026D02*
X13793Y157972D01*
X13136Y157533D01*
X12698Y156877D01*
X12643Y156602D01*
X14067D01*
Y158026D01*
D02*
G37*
G36*
X15067D02*
Y156602D01*
X16491D01*
X16436Y156877D01*
X15998Y157533D01*
X15341Y157972D01*
X15067Y158026D01*
D02*
G37*
G36*
X8000Y45424D02*
Y44000D01*
X9424D01*
X9369Y44274D01*
X8931Y44931D01*
X8274Y45369D01*
X8000Y45424D01*
D02*
G37*
G36*
X16491Y155602D02*
X15067D01*
Y154179D01*
X15341Y154233D01*
X15998Y154672D01*
X16436Y155328D01*
X16491Y155602D01*
D02*
G37*
G36*
X14067D02*
X12643D01*
X12698Y155328D01*
X13136Y154672D01*
X13793Y154233D01*
X14067Y154179D01*
Y155602D01*
D02*
G37*
G36*
X155224Y154286D02*
Y152862D01*
X156648D01*
X156594Y153136D01*
X156155Y153793D01*
X155499Y154231D01*
X155224Y154286D01*
D02*
G37*
G36*
X38035Y64661D02*
X30161D01*
Y47339D01*
X38035D01*
Y54394D01*
X38835D01*
X39927Y53302D01*
X39949Y53191D01*
X40341Y52605D01*
X40927Y52213D01*
X41038Y52191D01*
X42601Y50628D01*
X43122Y50280D01*
X43736Y50158D01*
X43736Y50158D01*
X45457D01*
Y47039D01*
X52543D01*
Y56488D01*
X45457D01*
Y53369D01*
X44401D01*
X43309Y54462D01*
X43287Y54573D01*
X42895Y55159D01*
X42309Y55551D01*
X42198Y55573D01*
X40635Y57135D01*
X40115Y57483D01*
X39500Y57606D01*
X39500Y57606D01*
X38035D01*
Y64661D01*
D02*
G37*
G36*
X52000Y42000D02*
X50576D01*
X50631Y41726D01*
X51069Y41069D01*
X51726Y40631D01*
X52000Y40576D01*
Y42000D01*
D02*
G37*
G36*
X54424D02*
X53000D01*
Y40576D01*
X53274Y40631D01*
X53931Y41069D01*
X54369Y41726D01*
X54424Y42000D01*
D02*
G37*
G36*
X52000Y44424D02*
X51726Y44369D01*
X51069Y43931D01*
X50631Y43274D01*
X50576Y43000D01*
X52000D01*
Y44424D01*
D02*
G37*
G36*
X53000D02*
Y43000D01*
X54424D01*
X54369Y43274D01*
X53931Y43931D01*
X53274Y44369D01*
X53000Y44424D01*
D02*
G37*
G36*
X9424Y43000D02*
X8000D01*
Y41576D01*
X8274Y41631D01*
X8931Y42069D01*
X9369Y42726D01*
X9424Y43000D01*
D02*
G37*
G36*
X13870Y10721D02*
X12446D01*
X12501Y10446D01*
X12939Y9790D01*
X13596Y9351D01*
X13870Y9297D01*
Y10721D01*
D02*
G37*
G36*
X14870Y13144D02*
Y11721D01*
X16294D01*
X16239Y11995D01*
X15801Y12651D01*
X15144Y13090D01*
X14870Y13144D01*
D02*
G37*
G36*
X13870D02*
X13596Y13090D01*
X12939Y12651D01*
X12501Y11995D01*
X12446Y11721D01*
X13870D01*
Y13144D01*
D02*
G37*
G36*
X16294Y10721D02*
X14870D01*
Y9297D01*
X15144Y9351D01*
X15801Y9790D01*
X16239Y10446D01*
X16294Y10721D01*
D02*
G37*
G36*
X34161Y8026D02*
Y6602D01*
X35585D01*
X35530Y6877D01*
X35092Y7533D01*
X34436Y7971D01*
X34161Y8026D01*
D02*
G37*
G36*
X33161Y5602D02*
X31738D01*
X31792Y5328D01*
X32231Y4672D01*
X32887Y4233D01*
X33161Y4179D01*
Y5602D01*
D02*
G37*
G36*
X35585D02*
X34161D01*
Y4179D01*
X34436Y4233D01*
X35092Y4672D01*
X35530Y5328D01*
X35585Y5602D01*
D02*
G37*
G36*
X26091Y161963D02*
Y160539D01*
X27514D01*
X27460Y160814D01*
X27021Y161470D01*
X26365Y161908D01*
X26091Y161963D01*
D02*
G37*
G36*
X33161Y8026D02*
X32887Y7971D01*
X32231Y7533D01*
X31792Y6877D01*
X31738Y6602D01*
X33161D01*
Y8026D01*
D02*
G37*
G36*
X38870Y26530D02*
X38596Y26475D01*
X37940Y26037D01*
X37501Y25381D01*
X37446Y25106D01*
X38870D01*
Y26530D01*
D02*
G37*
G36*
X39870D02*
Y25106D01*
X41294D01*
X41239Y25381D01*
X40801Y26037D01*
X40144Y26475D01*
X39870Y26530D01*
D02*
G37*
G36*
X52000Y31024D02*
X47957D01*
Y23634D01*
X52000D01*
Y31024D01*
D02*
G37*
G36*
X57043D02*
X53000D01*
Y23634D01*
X57043D01*
Y31024D01*
D02*
G37*
G36*
X9207Y27453D02*
X7784D01*
Y26029D01*
X8058Y26084D01*
X8714Y26522D01*
X9153Y27179D01*
X9207Y27453D01*
D02*
G37*
G36*
X6784D02*
X5360D01*
X5414Y27179D01*
X5853Y26522D01*
X6509Y26084D01*
X6784Y26029D01*
Y27453D01*
D02*
G37*
G36*
X41294Y24106D02*
X39870D01*
Y22683D01*
X40144Y22737D01*
X40801Y23176D01*
X41239Y23832D01*
X41294Y24106D01*
D02*
G37*
G36*
X25091Y161963D02*
X24816Y161908D01*
X24160Y161470D01*
X23721Y160814D01*
X23667Y160539D01*
X25091D01*
Y161963D01*
D02*
G37*
G36*
X21653Y28379D02*
X20341Y28250D01*
X19080Y27867D01*
X17917Y27246D01*
X16898Y26409D01*
X16061Y25390D01*
X15440Y24227D01*
X15057Y22966D01*
X14928Y21654D01*
X15057Y20342D01*
X15440Y19080D01*
X16061Y17918D01*
X16898Y16898D01*
X17917Y16062D01*
X19080Y15440D01*
X20341Y15058D01*
X21653Y14929D01*
X22965Y15058D01*
X24227Y15440D01*
X25390Y16062D01*
X26409Y16898D01*
X27245Y17918D01*
X27867Y19080D01*
X28249Y20342D01*
X28378Y21654D01*
X28249Y22966D01*
X27867Y24227D01*
X27245Y25390D01*
X26409Y26409D01*
X25390Y27246D01*
X24227Y27867D01*
X22965Y28250D01*
X21653Y28379D01*
D02*
G37*
G36*
X38870Y24106D02*
X37446D01*
X37501Y23832D01*
X37940Y23176D01*
X38596Y22737D01*
X38870Y22683D01*
Y24106D01*
D02*
G37*
G36*
X131500Y161924D02*
X131226Y161869D01*
X130569Y161431D01*
X130131Y160774D01*
X130076Y160500D01*
X131500D01*
Y161924D01*
D02*
G37*
G36*
X55717Y139995D02*
X55025Y139858D01*
X54439Y139466D01*
X54048Y138880D01*
X53910Y138189D01*
X54045Y137512D01*
X54059Y137422D01*
X53777Y137012D01*
X51583D01*
Y125988D01*
X54312D01*
Y125068D01*
X54309Y125044D01*
X54300Y124988D01*
X54298Y124978D01*
X54126Y124907D01*
X53550Y124466D01*
X53109Y123890D01*
X52831Y123219D01*
X52736Y122500D01*
X52831Y121781D01*
X53109Y121110D01*
X53550Y120535D01*
X54126Y120093D01*
X54796Y119815D01*
X55516Y119720D01*
X56235Y119815D01*
X56906Y120093D01*
X57481Y120535D01*
X57923Y121110D01*
X58201Y121781D01*
X58295Y122500D01*
X58201Y123219D01*
X57923Y123890D01*
X57481Y124466D01*
X56906Y124907D01*
X56734Y124978D01*
X56731Y124988D01*
X56722Y125044D01*
X56720Y125068D01*
Y125988D01*
X59850D01*
Y137012D01*
X57656D01*
X57374Y137422D01*
X57388Y137512D01*
X57523Y138189D01*
X57385Y138880D01*
X56994Y139466D01*
X56408Y139858D01*
X55717Y139995D01*
D02*
G37*
G36*
X47929Y122000D02*
X45501D01*
X45537Y121725D01*
X45836Y121003D01*
X46312Y120383D01*
X46932Y119907D01*
X47654Y119608D01*
X47929Y119572D01*
Y122000D01*
D02*
G37*
G36*
X51357D02*
X48929D01*
Y119572D01*
X49204Y119608D01*
X49926Y119907D01*
X50546Y120383D01*
X51022Y121003D01*
X51321Y121725D01*
X51357Y122000D01*
D02*
G37*
G36*
X24512Y97969D02*
X22043D01*
Y95500D01*
X24512D01*
Y97969D01*
D02*
G37*
G36*
X59500Y143306D02*
X58809Y143169D01*
X58223Y142777D01*
X57831Y142191D01*
X57694Y141500D01*
X57831Y140809D01*
X58223Y140223D01*
X58809Y139831D01*
X59500Y139694D01*
X60191Y139831D01*
X60777Y140223D01*
X60826Y140296D01*
X65001D01*
X67823Y137474D01*
X67632Y137012D01*
X66150D01*
Y125988D01*
X69253D01*
Y124568D01*
X69250Y124544D01*
X69241Y124488D01*
X69239Y124478D01*
X69067Y124407D01*
X68491Y123966D01*
X68049Y123390D01*
X67772Y122719D01*
X67677Y122000D01*
X67772Y121281D01*
X68049Y120610D01*
X68491Y120035D01*
X69067Y119593D01*
X69737Y119315D01*
X70457Y119220D01*
X71176Y119315D01*
X71846Y119593D01*
X72422Y120035D01*
X72864Y120610D01*
X73142Y121281D01*
X73236Y122000D01*
X73142Y122719D01*
X72864Y123390D01*
X72422Y123966D01*
X71846Y124407D01*
X71675Y124478D01*
X71672Y124488D01*
X71663Y124544D01*
X71661Y124568D01*
Y125988D01*
X74417D01*
Y137012D01*
X71429D01*
X71396Y137177D01*
X71135Y137568D01*
X71135Y137568D01*
X66351Y142351D01*
X65961Y142613D01*
X65500Y142704D01*
X65500Y142704D01*
X60826D01*
X60777Y142777D01*
X60191Y143169D01*
X59500Y143306D01*
D02*
G37*
G36*
X88000Y100878D02*
X86576D01*
X86631Y100604D01*
X87069Y99947D01*
X87726Y99509D01*
X88000Y99454D01*
Y100878D01*
D02*
G37*
G36*
X90424D02*
X89000D01*
Y99454D01*
X89274Y99509D01*
X89931Y99947D01*
X90369Y100604D01*
X90424Y100878D01*
D02*
G37*
G36*
X80472Y121500D02*
X78043D01*
Y119072D01*
X78318Y119108D01*
X79040Y119407D01*
X79660Y119883D01*
X80136Y120503D01*
X80435Y121225D01*
X80472Y121500D01*
D02*
G37*
G36*
X67500Y112806D02*
X66809Y112669D01*
X66223Y112277D01*
X65831Y111691D01*
X65694Y111000D01*
Y105748D01*
X61223Y101277D01*
X60831Y100691D01*
X60694Y100000D01*
X60831Y99309D01*
X61223Y98723D01*
X61809Y98331D01*
X62500Y98194D01*
X63191Y98331D01*
X63777Y98723D01*
X68777Y103723D01*
X69169Y104309D01*
X69306Y105000D01*
Y111000D01*
X69169Y111691D01*
X68777Y112277D01*
X68191Y112669D01*
X67500Y112806D01*
D02*
G37*
G36*
X77043Y121500D02*
X74615D01*
X74651Y121225D01*
X74950Y120503D01*
X75426Y119883D01*
X76046Y119407D01*
X76768Y119108D01*
X77043Y119072D01*
Y121500D01*
D02*
G37*
G36*
X35831Y124067D02*
X33658D01*
Y121500D01*
X35831D01*
Y124067D01*
D02*
G37*
G36*
X158500Y94000D02*
X157076D01*
X157131Y93726D01*
X157569Y93069D01*
X158226Y92631D01*
X158500Y92576D01*
Y94000D01*
D02*
G37*
G36*
X35563Y94500D02*
X32658D01*
Y93228D01*
X32827Y92377D01*
X33309Y91656D01*
X34031Y91174D01*
X34882Y91005D01*
X35563D01*
Y94500D01*
D02*
G37*
G36*
X39468D02*
X36563D01*
Y91005D01*
X37244D01*
X38095Y91174D01*
X38817Y91656D01*
X39299Y92377D01*
X39468Y93228D01*
Y94500D01*
D02*
G37*
G36*
X24512Y94500D02*
X22043D01*
Y92032D01*
X24512D01*
Y94500D01*
D02*
G37*
G36*
X27764D02*
X26340D01*
X26395Y94226D01*
X26833Y93569D01*
X27490Y93131D01*
X27764Y93076D01*
Y94500D01*
D02*
G37*
G36*
X37244Y98996D02*
X36563D01*
Y95500D01*
X39468D01*
Y96772D01*
X39299Y97623D01*
X38817Y98344D01*
X38095Y98826D01*
X37244Y98996D01*
D02*
G37*
G36*
X27764Y96924D02*
X27490Y96869D01*
X26833Y96431D01*
X26395Y95774D01*
X26340Y95500D01*
X27764D01*
Y96924D01*
D02*
G37*
G36*
X28764D02*
Y95500D01*
X30187D01*
X30133Y95774D01*
X29694Y96431D01*
X29038Y96869D01*
X28764Y96924D01*
D02*
G37*
G36*
X30187Y94500D02*
X28764D01*
Y93076D01*
X29038Y93131D01*
X29694Y93569D01*
X30133Y94226D01*
X30187Y94500D01*
D02*
G37*
G36*
X158500Y96424D02*
X158226Y96369D01*
X157569Y95931D01*
X157131Y95274D01*
X157076Y95000D01*
X158500D01*
Y96424D01*
D02*
G37*
G36*
X35563Y98996D02*
X34882D01*
X34031Y98826D01*
X33309Y98344D01*
X32827Y97623D01*
X32658Y96772D01*
Y95500D01*
X35563D01*
Y98996D01*
D02*
G37*
G36*
X115331Y111677D02*
X106669D01*
Y110126D01*
X105421D01*
X104960Y110034D01*
X104570Y109773D01*
X104501Y109704D01*
X104111D01*
X104087Y109706D01*
X104031Y109716D01*
X104022Y109718D01*
X103951Y109890D01*
X103509Y110466D01*
X102933Y110907D01*
X102263Y111185D01*
X101543Y111280D01*
X100824Y111185D01*
X100154Y110907D01*
X99578Y110466D01*
X99136Y109890D01*
X98858Y109219D01*
X98764Y108500D01*
X98858Y107781D01*
X99136Y107110D01*
X99578Y106535D01*
X100154Y106093D01*
X100824Y105815D01*
X101543Y105720D01*
X102263Y105815D01*
X102933Y106093D01*
X103509Y106535D01*
X103951Y107110D01*
X104022Y107282D01*
X104031Y107284D01*
X104087Y107294D01*
X104111Y107296D01*
X105000D01*
X105000Y107296D01*
X105461Y107387D01*
X105851Y107649D01*
X105920Y107717D01*
X106669D01*
Y106165D01*
X109422D01*
X109433Y106157D01*
X109511Y106055D01*
X109648Y105665D01*
X109331Y105191D01*
X109194Y104500D01*
X109331Y103809D01*
X109723Y103223D01*
X110309Y102831D01*
X111000Y102694D01*
X111691Y102831D01*
X112277Y103223D01*
X112669Y103809D01*
X112806Y104500D01*
X112669Y105191D01*
X112352Y105665D01*
X112489Y106055D01*
X112567Y106157D01*
X112578Y106165D01*
X115331D01*
Y111677D01*
D02*
G37*
G36*
X139000Y113000D02*
X135877D01*
X135937Y112545D01*
X136305Y111655D01*
X136891Y110891D01*
X137655Y110305D01*
X138545Y109937D01*
X139000Y109877D01*
Y113000D01*
D02*
G37*
G36*
X143123D02*
X140000D01*
Y109877D01*
X140455Y109937D01*
X141344Y110305D01*
X142109Y110891D01*
X142695Y111655D01*
X143063Y112545D01*
X143123Y113000D01*
D02*
G37*
G36*
X93957Y111428D02*
X93682Y111392D01*
X92960Y111093D01*
X92339Y110617D01*
X91864Y109997D01*
X91565Y109275D01*
X91528Y109000D01*
X93957D01*
Y111428D01*
D02*
G37*
G36*
X94957Y111428D02*
Y109000D01*
X97385D01*
X97349Y109275D01*
X97050Y109997D01*
X96574Y110617D01*
X95954Y111093D01*
X95232Y111392D01*
X94957Y111428D01*
D02*
G37*
G36*
X139618Y121500D02*
X135625D01*
Y120524D01*
X135817Y119557D01*
X136364Y118738D01*
X137183Y118191D01*
X138150Y117999D01*
X139618D01*
Y121500D01*
D02*
G37*
G36*
X147374Y116975D02*
X146475Y116856D01*
X145637Y116509D01*
X144917Y115957D01*
X144365Y115237D01*
X144018Y114399D01*
X143899Y113500D01*
X144018Y112601D01*
X144365Y111763D01*
X144917Y111043D01*
X145637Y110491D01*
X146475Y110144D01*
X147374Y110025D01*
X148273Y110144D01*
X149111Y110491D01*
X149831Y111043D01*
X150383Y111763D01*
X150730Y112601D01*
X150849Y113500D01*
X150730Y114399D01*
X150383Y115237D01*
X149831Y115957D01*
X149111Y116509D01*
X148273Y116856D01*
X147374Y116975D01*
D02*
G37*
G36*
X140000Y117123D02*
Y114000D01*
X143123D01*
X143063Y114455D01*
X142695Y115345D01*
X142109Y116109D01*
X141344Y116695D01*
X140455Y117063D01*
X140000Y117123D01*
D02*
G37*
G36*
X74500Y115424D02*
X74226Y115369D01*
X73569Y114931D01*
X73131Y114274D01*
X73076Y114000D01*
X74500D01*
Y115424D01*
D02*
G37*
G36*
X139000Y117123D02*
X138545Y117063D01*
X137655Y116695D01*
X136891Y116109D01*
X136305Y115345D01*
X135937Y114455D01*
X135877Y114000D01*
X139000D01*
Y117123D01*
D02*
G37*
G36*
X74500Y113000D02*
X73076D01*
X73131Y112726D01*
X73569Y112069D01*
X74226Y111631D01*
X74500Y111576D01*
Y113000D01*
D02*
G37*
G36*
X52500Y118806D02*
X51809Y118669D01*
X51223Y118277D01*
X50831Y117691D01*
X50694Y117000D01*
X50831Y116309D01*
X50901Y116204D01*
X50634Y115704D01*
X48572D01*
X48165Y116204D01*
X48224Y116500D01*
X48086Y117191D01*
X47695Y117777D01*
X47109Y118169D01*
X46417Y118306D01*
X45726Y118169D01*
X45140Y117777D01*
X44748Y117191D01*
X44611Y116500D01*
X44748Y115809D01*
X45140Y115223D01*
X45213Y115174D01*
Y113611D01*
X45211Y113587D01*
X45202Y113531D01*
X45199Y113522D01*
X45028Y113451D01*
X44452Y113009D01*
X44010Y112433D01*
X43732Y111763D01*
X43638Y111043D01*
X43732Y110324D01*
X44010Y109653D01*
X44452Y109078D01*
X45028Y108636D01*
X45698Y108358D01*
X46417Y108264D01*
X47137Y108358D01*
X47807Y108636D01*
X48383Y109078D01*
X48825Y109653D01*
X49102Y110324D01*
X49197Y111043D01*
X49102Y111763D01*
X48825Y112433D01*
X48546Y112796D01*
X48793Y113296D01*
X50244D01*
Y108287D01*
X55756D01*
Y109487D01*
X55785Y109518D01*
X55960Y109628D01*
X56256Y109715D01*
X56765Y109374D01*
X57457Y109237D01*
X57918Y109329D01*
X58418Y108999D01*
Y107621D01*
X56256Y105459D01*
X55756Y105666D01*
Y106713D01*
X50244D01*
Y101201D01*
X55756D01*
Y102752D01*
X56457D01*
X56457Y102752D01*
X56918Y102844D01*
X57308Y103105D01*
X60474Y106271D01*
X60474Y106271D01*
X60735Y106661D01*
X60826Y107122D01*
X60826Y107122D01*
Y112425D01*
X60826Y112425D01*
X60735Y112886D01*
X60474Y113277D01*
X55899Y117851D01*
X55508Y118113D01*
X55047Y118204D01*
X55047Y118204D01*
X53826D01*
X53777Y118277D01*
X53191Y118669D01*
X52500Y118806D01*
D02*
G37*
G36*
X93957Y104928D02*
X93682Y104892D01*
X92960Y104593D01*
X92339Y104117D01*
X91864Y103497D01*
X91565Y102775D01*
X91528Y102500D01*
X93957D01*
Y104928D01*
D02*
G37*
G36*
X94957Y104928D02*
Y102500D01*
X97385D01*
X97349Y102775D01*
X97050Y103497D01*
X96574Y104117D01*
X95954Y104593D01*
X95232Y104892D01*
X94957Y104928D01*
D02*
G37*
G36*
X49346Y103457D02*
X46917D01*
Y101028D01*
X47192Y101065D01*
X47914Y101364D01*
X48535Y101839D01*
X49010Y102460D01*
X49309Y103182D01*
X49346Y103457D01*
D02*
G37*
G36*
X88000Y103302D02*
X87726Y103247D01*
X87069Y102808D01*
X86631Y102152D01*
X86576Y101878D01*
X88000D01*
Y103302D01*
D02*
G37*
G36*
X89000D02*
Y101878D01*
X90424D01*
X90369Y102152D01*
X89931Y102808D01*
X89274Y103247D01*
X89000Y103302D01*
D02*
G37*
G36*
X46917Y106885D02*
Y104457D01*
X49346D01*
X49309Y104732D01*
X49010Y105454D01*
X48535Y106074D01*
X47914Y106550D01*
X47192Y106849D01*
X46917Y106885D01*
D02*
G37*
G36*
X39424Y109500D02*
X38000D01*
Y108076D01*
X38274Y108131D01*
X38931Y108569D01*
X39369Y109226D01*
X39424Y109500D01*
D02*
G37*
G36*
X144612Y121500D02*
X140618D01*
Y117999D01*
X142087D01*
X143053Y118191D01*
X143872Y118738D01*
X144419Y119557D01*
X144612Y120524D01*
Y121500D01*
D02*
G37*
G36*
X42043Y105880D02*
X41769Y105826D01*
X41113Y105387D01*
X40674Y104731D01*
X40620Y104457D01*
X42043D01*
Y105880D01*
D02*
G37*
G36*
X97385Y108000D02*
X94957D01*
Y105572D01*
X95232Y105608D01*
X95954Y105907D01*
X96574Y106383D01*
X97050Y107003D01*
X97349Y107725D01*
X97385Y108000D01*
D02*
G37*
G36*
X93957D02*
X91528D01*
X91565Y107725D01*
X91864Y107003D01*
X92339Y106383D01*
X92960Y105907D01*
X93682Y105608D01*
X93957Y105572D01*
Y108000D01*
D02*
G37*
G36*
X139618Y126001D02*
X138150D01*
X137183Y125809D01*
X136364Y125262D01*
X135817Y124443D01*
X135625Y123476D01*
Y122500D01*
X139618D01*
Y126001D01*
D02*
G37*
G36*
X5799Y145366D02*
X4375D01*
X4430Y145092D01*
X4869Y144436D01*
X5525Y143997D01*
X5799Y143942D01*
Y145366D01*
D02*
G37*
G36*
X19500Y71306D02*
X18809Y71169D01*
X18223Y70777D01*
X17831Y70191D01*
X17694Y69500D01*
X17831Y68809D01*
X18223Y68223D01*
X18809Y67831D01*
X19500Y67694D01*
X20191Y67831D01*
X20777Y68223D01*
X21169Y68809D01*
X21306Y69500D01*
X21169Y70191D01*
X20777Y70777D01*
X20191Y71169D01*
X19500Y71306D01*
D02*
G37*
G36*
X48500Y72173D02*
X45244D01*
Y67736D01*
X48500D01*
Y72173D01*
D02*
G37*
G36*
Y66736D02*
X45244D01*
Y62299D01*
X48500D01*
Y66736D01*
D02*
G37*
G36*
X52756D02*
X49500D01*
Y62299D01*
X52756D01*
Y66736D01*
D02*
G37*
G36*
X8223Y145366D02*
X6799D01*
Y143942D01*
X7073Y143997D01*
X7730Y144436D01*
X8168Y145092D01*
X8223Y145366D01*
D02*
G37*
G36*
X52756Y72173D02*
X49500D01*
Y67736D01*
X52756D01*
Y72173D01*
D02*
G37*
G36*
X161372Y140642D02*
X159949D01*
Y139218D01*
X160223Y139273D01*
X160879Y139711D01*
X161318Y140367D01*
X161372Y140642D01*
D02*
G37*
G36*
X158949D02*
X157525D01*
X157580Y140367D01*
X158018Y139711D01*
X158675Y139273D01*
X158949Y139218D01*
Y140642D01*
D02*
G37*
G36*
X143700Y150426D02*
X142388Y150297D01*
X141127Y149914D01*
X139964Y149293D01*
X138945Y148457D01*
X138109Y147437D01*
X137487Y146275D01*
X137104Y145013D01*
X136975Y143701D01*
X137104Y142389D01*
X137487Y141127D01*
X138109Y139965D01*
X138945Y138946D01*
X139964Y138109D01*
X141127Y137488D01*
X142388Y137105D01*
X143700Y136976D01*
X145012Y137105D01*
X146274Y137488D01*
X147437Y138109D01*
X148456Y138946D01*
X149292Y139965D01*
X149914Y141127D01*
X150296Y142389D01*
X150426Y143701D01*
X150296Y145013D01*
X149914Y146275D01*
X149292Y147437D01*
X148456Y148457D01*
X147437Y149293D01*
X146274Y149914D01*
X145012Y150297D01*
X143700Y150426D01*
D02*
G37*
G36*
X45339Y151339D02*
X37661D01*
Y143661D01*
X45339D01*
Y151339D01*
D02*
G37*
G36*
X159949Y143065D02*
Y141642D01*
X161372D01*
X161318Y141916D01*
X160879Y142572D01*
X160223Y143011D01*
X159949Y143065D01*
D02*
G37*
G36*
X158949D02*
X158675Y143011D01*
X158018Y142572D01*
X157580Y141916D01*
X157525Y141642D01*
X158949D01*
Y143065D01*
D02*
G37*
G36*
X87843Y154520D02*
Y151000D01*
X91363D01*
X91289Y151558D01*
X90881Y152543D01*
X90232Y153389D01*
X89386Y154039D01*
X88400Y154447D01*
X87843Y154520D01*
D02*
G37*
G36*
X86843D02*
X86285Y154447D01*
X85299Y154039D01*
X84453Y153389D01*
X83804Y152543D01*
X83396Y151558D01*
X83322Y151000D01*
X86843D01*
Y154520D01*
D02*
G37*
G36*
X156648Y151862D02*
X155224D01*
Y150438D01*
X155499Y150493D01*
X156155Y150932D01*
X156594Y151588D01*
X156648Y151862D01*
D02*
G37*
G36*
X154224Y154286D02*
X153950Y154231D01*
X153294Y153793D01*
X152855Y153136D01*
X152801Y152862D01*
X154224D01*
Y154286D01*
D02*
G37*
G36*
Y151862D02*
X152801D01*
X152855Y151588D01*
X153294Y150932D01*
X153950Y150493D01*
X154224Y150438D01*
Y151862D01*
D02*
G37*
G36*
X86843Y150000D02*
X83322D01*
X83396Y149442D01*
X83804Y148457D01*
X84453Y147611D01*
X85299Y146961D01*
X86285Y146553D01*
X86843Y146480D01*
Y150000D01*
D02*
G37*
G36*
X6799Y147790D02*
Y146366D01*
X8223D01*
X8168Y146640D01*
X7730Y147297D01*
X7073Y147735D01*
X6799Y147790D01*
D02*
G37*
G36*
X5799D02*
X5525Y147735D01*
X4869Y147297D01*
X4430Y146640D01*
X4375Y146366D01*
X5799D01*
Y147790D01*
D02*
G37*
G36*
X67658Y154372D02*
X66655Y154240D01*
X65722Y153853D01*
X64920Y153238D01*
X64305Y152436D01*
X63918Y151502D01*
X63786Y150500D01*
X63918Y149498D01*
X64039Y149204D01*
X63705Y148704D01*
X55156D01*
X54853Y149436D01*
X54238Y150238D01*
X53436Y150853D01*
X52502Y151240D01*
X51500Y151372D01*
X50498Y151240D01*
X49564Y150853D01*
X48762Y150238D01*
X48147Y149436D01*
X47760Y148502D01*
X47628Y147500D01*
X47760Y146498D01*
X48147Y145564D01*
X48762Y144762D01*
X49564Y144147D01*
X50498Y143760D01*
X51500Y143628D01*
X52502Y143760D01*
X53436Y144147D01*
X54238Y144762D01*
X54853Y145564D01*
X55156Y146296D01*
X64657D01*
X64657Y146296D01*
X65118Y146387D01*
X65509Y146649D01*
X65924Y147063D01*
X66655Y146760D01*
X67658Y146628D01*
X68660Y146760D01*
X69593Y147147D01*
X70395Y147762D01*
X71011Y148564D01*
X71397Y149498D01*
X71529Y150500D01*
X71397Y151502D01*
X71011Y152436D01*
X70395Y153238D01*
X69593Y153853D01*
X68660Y154240D01*
X67658Y154372D01*
D02*
G37*
G36*
X60000Y159306D02*
X59309Y159169D01*
X58723Y158777D01*
X58331Y158191D01*
X58194Y157500D01*
X58331Y156809D01*
X58723Y156223D01*
X59309Y155831D01*
X60000Y155694D01*
X60691Y155831D01*
X61277Y156223D01*
X61326Y156296D01*
X70001D01*
X74063Y152234D01*
X73760Y151502D01*
X73628Y150500D01*
X73760Y149498D01*
X74147Y148564D01*
X74762Y147762D01*
X75564Y147147D01*
X76498Y146760D01*
X77500Y146628D01*
X78502Y146760D01*
X79436Y147147D01*
X80238Y147762D01*
X80853Y148564D01*
X81240Y149498D01*
X81372Y150500D01*
X81240Y151502D01*
X80853Y152436D01*
X80238Y153238D01*
X79436Y153853D01*
X78502Y154240D01*
X77500Y154372D01*
X76498Y154240D01*
X75766Y153937D01*
X71351Y158352D01*
X70961Y158613D01*
X70500Y158704D01*
X70500Y158704D01*
X61326D01*
X61277Y158777D01*
X60691Y159169D01*
X60000Y159306D01*
D02*
G37*
G36*
X91363Y150000D02*
X87843D01*
Y146480D01*
X88400Y146553D01*
X89386Y146961D01*
X90232Y147611D01*
X90881Y148457D01*
X91289Y149442D01*
X91363Y150000D01*
D02*
G37*
G36*
X33595Y89224D02*
X28764D01*
Y84000D01*
X33595D01*
Y89224D01*
D02*
G37*
G36*
X43335Y126335D02*
X41911D01*
X41965Y126060D01*
X42404Y125404D01*
X43060Y124966D01*
X43335Y124911D01*
Y126335D01*
D02*
G37*
G36*
X17236Y88988D02*
X12996D01*
Y84000D01*
X17236D01*
Y88988D01*
D02*
G37*
G36*
Y83000D02*
X12996D01*
Y78012D01*
X17236D01*
Y83000D01*
D02*
G37*
G36*
X78043Y124928D02*
Y122500D01*
X80472D01*
X80435Y122775D01*
X80136Y123497D01*
X79660Y124117D01*
X79040Y124593D01*
X78318Y124892D01*
X78043Y124928D01*
D02*
G37*
G36*
X77043Y124928D02*
X76768Y124892D01*
X76046Y124593D01*
X75426Y124117D01*
X74950Y123497D01*
X74651Y122775D01*
X74615Y122500D01*
X77043D01*
Y124928D01*
D02*
G37*
G36*
X142087Y126001D02*
X140618D01*
Y122500D01*
X144612D01*
Y123476D01*
X144419Y124443D01*
X143872Y125262D01*
X143053Y125809D01*
X142087Y126001D01*
D02*
G37*
G36*
X47665Y133089D02*
X47391Y133035D01*
X46735Y132596D01*
X46296Y131940D01*
X46255Y131732D01*
X45745D01*
X45704Y131940D01*
X45265Y132596D01*
X44609Y133035D01*
X44335Y133089D01*
Y131165D01*
X43835D01*
Y130665D01*
X41911D01*
X41965Y130391D01*
X42404Y129735D01*
X43060Y129296D01*
X43268Y129255D01*
Y128745D01*
X43060Y128704D01*
X42404Y128265D01*
X41965Y127609D01*
X41911Y127335D01*
X43835D01*
Y126835D01*
X44335D01*
Y124911D01*
X44609Y124966D01*
X45265Y125404D01*
X45704Y126060D01*
X45745Y126268D01*
X46255D01*
X46296Y126060D01*
X46677Y125491D01*
X46734Y125401D01*
X46638Y124867D01*
X46312Y124617D01*
X45836Y123997D01*
X45537Y123275D01*
X45501Y123000D01*
X48429D01*
X51357D01*
X51321Y123275D01*
X51022Y123997D01*
X50546Y124617D01*
X49938Y125084D01*
X49926Y125095D01*
X49788Y125691D01*
X50034Y126060D01*
X50089Y126335D01*
X48165D01*
Y127335D01*
X50089D01*
X50034Y127609D01*
X49596Y128265D01*
X48940Y128704D01*
X48732Y128745D01*
Y129255D01*
X48940Y129296D01*
X49596Y129735D01*
X50034Y130391D01*
X50089Y130665D01*
X48165D01*
Y131165D01*
X47665D01*
Y133089D01*
D02*
G37*
G36*
X33595Y83000D02*
X28764D01*
Y77776D01*
X33595D01*
Y83000D01*
D02*
G37*
G36*
X43335Y133089D02*
X43060Y133035D01*
X42404Y132596D01*
X41965Y131940D01*
X41911Y131665D01*
X43335D01*
Y133089D01*
D02*
G37*
G36*
X27764Y89224D02*
X22933D01*
Y89093D01*
X22476Y88988D01*
X22433Y88988D01*
X18236D01*
Y83500D01*
Y78012D01*
X22433D01*
X22476Y78012D01*
X22933Y77907D01*
Y77776D01*
X27764D01*
Y83500D01*
Y89224D01*
D02*
G37*
G36*
X21653Y150426D02*
X20341Y150297D01*
X19080Y149914D01*
X17917Y149293D01*
X16898Y148457D01*
X16061Y147437D01*
X15440Y146275D01*
X15057Y145013D01*
X14928Y143701D01*
X15057Y142389D01*
X15440Y141127D01*
X16061Y139965D01*
X16898Y138946D01*
X17917Y138109D01*
X19080Y137488D01*
X20341Y137105D01*
X21653Y136976D01*
X22965Y137105D01*
X24227Y137488D01*
X25390Y138109D01*
X26409Y138946D01*
X27245Y139965D01*
X27867Y141127D01*
X28249Y142389D01*
X28378Y143701D01*
X28249Y145013D01*
X27867Y146275D01*
X27245Y147437D01*
X26409Y148457D01*
X25390Y149293D01*
X24227Y149914D01*
X22965Y150297D01*
X21653Y150426D01*
D02*
G37*
G36*
X48665Y133089D02*
Y131665D01*
X50089D01*
X50034Y131940D01*
X49596Y132596D01*
X48940Y133035D01*
X48665Y133089D01*
D02*
G37*
%LPD*%
G36*
X55913Y125074D02*
X55925Y124943D01*
X55945Y124823D01*
X55972Y124715D01*
X56008Y124618D01*
X56051Y124533D01*
X56102Y124458D01*
X56161Y124396D01*
X56228Y124344D01*
X56303Y124304D01*
X54728D01*
X54803Y124344D01*
X54870Y124396D01*
X54929Y124458D01*
X54980Y124533D01*
X55024Y124618D01*
X55059Y124715D01*
X55087Y124823D01*
X55106Y124943D01*
X55118Y125074D01*
X55122Y125216D01*
X55909D01*
X55913Y125074D01*
D02*
G37*
G36*
X56349Y137426D02*
X56299Y137362D01*
X56255Y137294D01*
X56217Y137221D01*
X56184Y137144D01*
X56157Y137063D01*
X56137Y136978D01*
X56122Y136888D01*
X56116Y136825D01*
X56126Y136712D01*
X56146Y136592D01*
X56173Y136488D01*
X56209Y136400D01*
X56252Y136328D01*
X56303Y136272D01*
X56362Y136232D01*
X56429Y136208D01*
X56504Y136200D01*
X54929D01*
X55004Y136208D01*
X55071Y136232D01*
X55130Y136272D01*
X55181Y136328D01*
X55224Y136400D01*
X55260Y136488D01*
X55287Y136592D01*
X55307Y136712D01*
X55317Y136825D01*
X55311Y136888D01*
X55296Y136978D01*
X55276Y137063D01*
X55249Y137144D01*
X55216Y137221D01*
X55178Y137294D01*
X55134Y137362D01*
X55084Y137426D01*
X55028Y137486D01*
X56406D01*
X56349Y137426D01*
D02*
G37*
G36*
X56228Y126792D02*
X56161Y126768D01*
X56102Y126728D01*
X56051Y126672D01*
X56008Y126600D01*
X55972Y126512D01*
X55945Y126408D01*
X55925Y126288D01*
X55913Y126152D01*
X55909Y126000D01*
X55122D01*
X55118Y126152D01*
X55106Y126288D01*
X55087Y126408D01*
X55059Y126512D01*
X55024Y126600D01*
X54980Y126672D01*
X54929Y126728D01*
X54870Y126768D01*
X54803Y126792D01*
X54728Y126800D01*
X56303D01*
X56228Y126792D01*
D02*
G37*
G36*
X70678Y136618D02*
X70695Y136386D01*
X70705Y136329D01*
X70717Y136283D01*
X70731Y136247D01*
X70748Y136221D01*
X70767Y136206D01*
X70788Y136200D01*
X69779D01*
X69800Y136206D01*
X69819Y136221D01*
X69836Y136247D01*
X69850Y136283D01*
X69862Y136329D01*
X69872Y136386D01*
X69880Y136453D01*
X69889Y136618D01*
X69890Y136716D01*
X70677D01*
X70678Y136618D01*
D02*
G37*
G36*
X70854Y124574D02*
X70866Y124443D01*
X70886Y124323D01*
X70913Y124215D01*
X70949Y124118D01*
X70992Y124033D01*
X71043Y123958D01*
X71102Y123896D01*
X71169Y123844D01*
X71244Y123804D01*
X69669D01*
X69744Y123844D01*
X69811Y123896D01*
X69870Y123958D01*
X69921Y124033D01*
X69965Y124118D01*
X70000Y124215D01*
X70028Y124323D01*
X70047Y124443D01*
X70059Y124574D01*
X70063Y124716D01*
X70850D01*
X70854Y124574D01*
D02*
G37*
G36*
X71169Y126792D02*
X71102Y126768D01*
X71043Y126728D01*
X70992Y126672D01*
X70949Y126600D01*
X70913Y126512D01*
X70886Y126408D01*
X70866Y126288D01*
X70854Y126152D01*
X70850Y126000D01*
X70063D01*
X70059Y126152D01*
X70047Y126288D01*
X70028Y126408D01*
X70000Y126512D01*
X69965Y126600D01*
X69921Y126672D01*
X69870Y126728D01*
X69811Y126768D01*
X69744Y126792D01*
X69669Y126800D01*
X71244D01*
X71169Y126792D01*
D02*
G37*
G36*
X103387Y109213D02*
X103439Y109146D01*
X103502Y109087D01*
X103576Y109035D01*
X103661Y108992D01*
X103758Y108957D01*
X103867Y108929D01*
X103986Y108909D01*
X104117Y108898D01*
X104259Y108894D01*
Y108106D01*
X104117Y108102D01*
X103986Y108091D01*
X103867Y108071D01*
X103758Y108043D01*
X103661Y108008D01*
X103576Y107965D01*
X103502Y107913D01*
X103439Y107854D01*
X103387Y107787D01*
X103348Y107713D01*
Y109287D01*
X103387Y109213D01*
D02*
G37*
G36*
X111713Y106969D02*
X111646Y106945D01*
X111587Y106905D01*
X111535Y106849D01*
X111492Y106777D01*
X111457Y106689D01*
X111429Y106585D01*
X111409Y106465D01*
X111398Y106329D01*
X111394Y106177D01*
X110606D01*
X110602Y106329D01*
X110591Y106465D01*
X110571Y106585D01*
X110543Y106689D01*
X110508Y106777D01*
X110465Y106849D01*
X110413Y106905D01*
X110354Y106945D01*
X110287Y106969D01*
X110213Y106977D01*
X111787D01*
X111713Y106969D01*
D02*
G37*
G36*
X107481Y108134D02*
X107473Y108209D01*
X107449Y108276D01*
X107409Y108335D01*
X107353Y108386D01*
X107281Y108429D01*
X107193Y108465D01*
X107089Y108492D01*
X106969Y108512D01*
X106833Y108524D01*
X106681Y108528D01*
Y109315D01*
X106833Y109319D01*
X106969Y109331D01*
X107089Y109350D01*
X107193Y109378D01*
X107281Y109413D01*
X107353Y109457D01*
X107409Y109508D01*
X107449Y109567D01*
X107473Y109634D01*
X107481Y109709D01*
Y108134D01*
D02*
G37*
G36*
X111397Y105895D02*
X111406Y105801D01*
X111420Y105711D01*
X111441Y105626D01*
X111468Y105545D01*
X111500Y105468D01*
X111538Y105395D01*
X111583Y105327D01*
X111633Y105263D01*
X111689Y105203D01*
X110311D01*
X110367Y105263D01*
X110417Y105327D01*
X110462Y105395D01*
X110500Y105468D01*
X110532Y105545D01*
X110559Y105626D01*
X110580Y105711D01*
X110594Y105801D01*
X110603Y105895D01*
X110606Y105993D01*
X111394D01*
X111397Y105895D01*
D02*
G37*
G36*
X56754Y110354D02*
X56694Y110410D01*
X56630Y110461D01*
X56561Y110505D01*
X56489Y110543D01*
X56412Y110576D01*
X56331Y110602D01*
X56245Y110623D01*
X56156Y110638D01*
X56062Y110647D01*
X55964Y110650D01*
Y111437D01*
X56062Y111440D01*
X56156Y111449D01*
X56245Y111464D01*
X56331Y111484D01*
X56412Y111511D01*
X56489Y111543D01*
X56561Y111582D01*
X56630Y111626D01*
X56694Y111676D01*
X56754Y111732D01*
Y110354D01*
D02*
G37*
G36*
X53398Y113638D02*
X53409Y113504D01*
X53429Y113386D01*
X53457Y113283D01*
X53492Y113197D01*
X53535Y113126D01*
X53587Y113071D01*
X53646Y113031D01*
X53713Y113008D01*
X53787Y113000D01*
X52213D01*
X52287Y113008D01*
X52354Y113031D01*
X52413Y113071D01*
X52465Y113126D01*
X52508Y113197D01*
X52543Y113283D01*
X52571Y113386D01*
X52591Y113504D01*
X52602Y113638D01*
X52606Y113787D01*
X53394D01*
X53398Y113638D01*
D02*
G37*
G36*
X46815Y113617D02*
X46827Y113486D01*
X46846Y113366D01*
X46874Y113258D01*
X46909Y113161D01*
X46953Y113076D01*
X47004Y113002D01*
X47063Y112939D01*
X47130Y112888D01*
X47205Y112847D01*
X45630D01*
X45705Y112888D01*
X45772Y112939D01*
X45831Y113002D01*
X45882Y113076D01*
X45925Y113161D01*
X45961Y113258D01*
X45988Y113366D01*
X46008Y113486D01*
X46020Y113617D01*
X46024Y113759D01*
X46811D01*
X46815Y113617D01*
D02*
G37*
G36*
X54953Y111756D02*
X54976Y111689D01*
X55016Y111630D01*
X55072Y111579D01*
X55144Y111535D01*
X55232Y111500D01*
X55336Y111472D01*
X55456Y111453D01*
X55592Y111441D01*
X55744Y111437D01*
Y110650D01*
X55592Y110646D01*
X55456Y110634D01*
X55336Y110614D01*
X55232Y110587D01*
X55144Y110551D01*
X55072Y110508D01*
X55016Y110457D01*
X54976Y110398D01*
X54953Y110331D01*
X54944Y110256D01*
Y111831D01*
X54953Y111756D01*
D02*
G37*
G36*
Y104669D02*
X54976Y104602D01*
X55016Y104543D01*
X55072Y104492D01*
X55144Y104449D01*
X55232Y104413D01*
X55336Y104386D01*
X55456Y104366D01*
X55592Y104354D01*
X55744Y104350D01*
Y103563D01*
X55592Y103559D01*
X55456Y103547D01*
X55336Y103528D01*
X55232Y103500D01*
X55144Y103465D01*
X55072Y103421D01*
X55016Y103370D01*
X54976Y103311D01*
X54953Y103244D01*
X54944Y103169D01*
Y104744D01*
X54953Y104669D01*
D02*
G37*
G36*
X23945Y82713D02*
X23937Y82787D01*
X23914Y82854D01*
X23874Y82913D01*
X23819Y82965D01*
X23748Y83008D01*
X23662Y83043D01*
X23559Y83071D01*
X23441Y83091D01*
X23307Y83102D01*
X23158Y83106D01*
Y83894D01*
X23307Y83898D01*
X23441Y83909D01*
X23559Y83929D01*
X23662Y83957D01*
X23748Y83992D01*
X23819Y84035D01*
X23874Y84087D01*
X23914Y84146D01*
X23937Y84213D01*
X23945Y84287D01*
Y82713D01*
D02*
G37*
G36*
X21472Y84213D02*
X21496Y84146D01*
X21535Y84087D01*
X21590Y84035D01*
X21661Y83992D01*
X21748Y83957D01*
X21850Y83929D01*
X21968Y83909D01*
X22102Y83898D01*
X22252Y83894D01*
Y83106D01*
X22102Y83102D01*
X21968Y83091D01*
X21850Y83071D01*
X21748Y83043D01*
X21661Y83008D01*
X21590Y82965D01*
X21535Y82913D01*
X21496Y82854D01*
X21472Y82787D01*
X21464Y82713D01*
Y84287D01*
X21472Y84213D01*
D02*
G37*
D10*
X128346Y93362D02*
D03*
X130315D02*
D03*
X132283D02*
D03*
X134252D02*
D03*
X136221D02*
D03*
X138189D02*
D03*
X140157D02*
D03*
X142126D02*
D03*
X144095D02*
D03*
X146063D02*
D03*
X148031D02*
D03*
X150000D02*
D03*
Y61472D02*
D03*
X148031D02*
D03*
X146063D02*
D03*
X144095D02*
D03*
X142126D02*
D03*
X140157D02*
D03*
X138189D02*
D03*
X136221D02*
D03*
X134252D02*
D03*
X132283D02*
D03*
X130315D02*
D03*
X128346D02*
D03*
D11*
X155118Y88244D02*
D03*
Y86276D02*
D03*
Y84307D02*
D03*
Y82339D02*
D03*
Y80370D02*
D03*
Y78402D02*
D03*
Y76433D02*
D03*
Y74465D02*
D03*
Y72496D02*
D03*
Y70528D02*
D03*
Y68559D02*
D03*
Y66591D02*
D03*
X123228D02*
D03*
Y68559D02*
D03*
Y70528D02*
D03*
Y72496D02*
D03*
Y74465D02*
D03*
Y76433D02*
D03*
Y78402D02*
D03*
Y80370D02*
D03*
Y82339D02*
D03*
Y84307D02*
D03*
Y86276D02*
D03*
Y88244D02*
D03*
D12*
X154043Y129500D02*
D03*
X146957D02*
D03*
X92913Y78402D02*
D03*
X100000D02*
D03*
X21543Y95000D02*
D03*
X14457D02*
D03*
D13*
X133661Y45000D02*
D03*
X140748D02*
D03*
X88000Y48543D02*
D03*
Y41457D02*
D03*
X55516Y122500D02*
D03*
X48429D02*
D03*
X70457Y122000D02*
D03*
X77543D02*
D03*
X100000Y84500D02*
D03*
X92913D02*
D03*
X94457Y102000D02*
D03*
X101543D02*
D03*
X94457Y108500D02*
D03*
X101543D02*
D03*
X46417Y111043D02*
D03*
Y103957D02*
D03*
D14*
X90651Y6498D02*
D03*
X98525D02*
D03*
X106399D02*
D03*
X114073Y6298D02*
D03*
D15*
X102279Y45008D02*
D03*
D16*
X111236Y57016D02*
D03*
X108677D02*
D03*
X106118D02*
D03*
X103559D02*
D03*
X101000D02*
D03*
X98441D02*
D03*
X95882D02*
D03*
X93323D02*
D03*
X111236Y33000D02*
D03*
X108677D02*
D03*
X106118D02*
D03*
X103559D02*
D03*
X101000D02*
D03*
X98441D02*
D03*
X95882D02*
D03*
X93323D02*
D03*
D17*
X115390Y136500D02*
D03*
X106610D02*
D03*
D18*
X113000Y149488D02*
D03*
Y160512D02*
D03*
X111000Y108921D02*
D03*
Y99079D02*
D03*
D19*
X83709Y26000D02*
D03*
X72291D02*
D03*
X83709Y16500D02*
D03*
X72291D02*
D03*
D20*
X52500Y31524D02*
D03*
Y9476D02*
D03*
D21*
X125000Y158236D02*
D03*
Y142764D02*
D03*
X49000Y51764D02*
D03*
Y67236D02*
D03*
D22*
X70284Y131500D02*
D03*
X55717D02*
D03*
D23*
X13189Y119291D02*
D03*
Y116732D02*
D03*
Y114173D02*
D03*
Y111614D02*
D03*
Y109055D02*
D03*
D24*
X6791Y114173D02*
D03*
D25*
X33158Y110000D02*
D03*
X27843D02*
D03*
X33158Y121000D02*
D03*
X27843D02*
D03*
D26*
X7264Y83500D02*
D03*
X17736D02*
D03*
D27*
X34098Y56000D02*
D03*
X8902D02*
D03*
D28*
X48736Y83500D02*
D03*
X28264D02*
D03*
D29*
X36063Y95000D02*
D03*
X43937D02*
D03*
D30*
X53000Y103957D02*
D03*
Y111043D02*
D03*
D31*
X154882Y122000D02*
D03*
D32*
X140118D02*
D03*
D33*
X114370Y116535D02*
D03*
X137992Y159646D02*
D03*
X62402Y89370D02*
D03*
D34*
X93372Y48543D02*
X98744D01*
X37500Y107000D02*
Y110000D01*
X34457Y103957D02*
X37500Y107000D01*
X87500Y84500D02*
X92913D01*
X87500Y78500D02*
X87598Y78402D01*
X92913D01*
X102279Y45008D02*
X107004D01*
X111236D02*
Y57016D01*
X88000Y48543D02*
X93372D01*
X93323Y48592D02*
X93372Y48543D01*
X93323Y48592D02*
Y57016D01*
X98744Y48543D02*
X102279Y45008D01*
X3500Y56000D02*
X8902D01*
X28264Y83500D02*
Y95000D01*
X21543D02*
X28264D01*
X36063D01*
X28264D02*
Y97764D01*
X13189Y119291D02*
X18500D01*
X28264Y97764D02*
X34457Y103957D01*
X13189Y109055D02*
X19445D01*
X24543Y103957D01*
X34457D01*
X118000Y107748D02*
Y112906D01*
X114370Y116535D02*
X118000Y112906D01*
X119291Y131000D02*
X119488Y130803D01*
X62402Y89370D02*
Y95000D01*
D35*
X163000Y76583D02*
Y129000D01*
X160882Y74465D02*
X163000Y76583D01*
X155118Y74465D02*
X160882D01*
X59622Y107122D02*
Y112425D01*
X55047Y117000D02*
X59622Y112425D01*
X52500Y117000D02*
X55047D01*
X56457Y103957D02*
X59622Y107122D01*
X53000Y111043D02*
X57457D01*
X159000Y92850D02*
X159850Y92000D01*
X159000Y92850D02*
Y94500D01*
X155118Y88244D02*
X155118Y88244D01*
Y90551D01*
X131000Y103454D02*
Y105000D01*
Y103454D02*
X136221Y98234D01*
Y93362D02*
Y98234D01*
X126925Y107425D02*
X128500Y109000D01*
X126925Y103075D02*
Y107425D01*
Y103075D02*
X132283Y97716D01*
X128500Y105938D02*
X131626Y109064D01*
X128500Y103727D02*
Y105938D01*
Y103727D02*
X134252Y97975D01*
X131626Y109064D02*
Y113500D01*
X159850Y86850D02*
Y92000D01*
X161425Y77425D02*
Y127075D01*
X158500Y133500D02*
X163000Y129000D01*
X139000Y88000D02*
X148500D01*
X138189Y88811D02*
X139000Y88000D01*
X138189Y88811D02*
Y93362D01*
X142130Y80370D02*
X155118D01*
X147000Y83000D02*
X149000D01*
X144500Y84500D02*
X145500Y85500D01*
X109500Y62500D02*
X112000D01*
X114638Y58862D02*
Y63862D01*
X113835Y64665D02*
X114638Y63862D01*
X108671Y64665D02*
X113835D01*
X114034Y66335D02*
X116259Y68559D01*
X107835Y66335D02*
X114034D01*
X103559Y62059D02*
X107835Y66335D01*
X129000Y77319D02*
X138547Y67772D01*
X144228D02*
X146063Y65937D01*
X138547Y67772D02*
X144228D01*
X131500Y77046D02*
X139199Y69346D01*
X144881D02*
X147636Y66591D01*
X139199Y69346D02*
X144881D01*
X134000Y76773D02*
X139852Y70921D01*
X145533D02*
X147895Y68559D01*
X139852Y70921D02*
X145533D01*
X136500Y76500D02*
X140504Y72496D01*
X155118D01*
X134897Y87665D02*
X136500Y86062D01*
Y76500D02*
Y86062D01*
X131165Y87665D02*
X134897D01*
X134000Y76773D02*
Y85500D01*
X129000Y77319D02*
Y81000D01*
X131500Y77046D02*
Y83500D01*
X129000Y85500D02*
X131165Y87665D01*
X111000Y96500D02*
X113000Y94500D01*
X118598Y78402D02*
X123228D01*
X117760Y79240D02*
X118598Y78402D01*
X113240Y79240D02*
X117760D01*
X112402Y78402D02*
X113240Y79240D01*
X100000Y78402D02*
X112402D01*
X118067Y76433D02*
X123228D01*
X116835Y77665D02*
X118067Y76433D01*
X114103Y77665D02*
X116835D01*
X113265Y76827D02*
X114103Y77665D01*
X104827Y76827D02*
X113265D01*
X115000Y75500D02*
X116500D01*
X117535Y74465D01*
X123228D01*
X116000Y70528D02*
X123228D01*
X113972Y68500D02*
X116000Y70528D01*
X108000Y68500D02*
X113972D01*
X105496Y72496D02*
X123228D01*
X103575Y70575D02*
X105496Y72496D01*
X103575Y64637D02*
Y70575D01*
X101000Y62062D02*
X103575Y64637D01*
X101000Y57016D02*
Y62062D01*
X102000Y74000D02*
X104827Y76827D01*
X102000Y65289D02*
Y74000D01*
X98441Y61730D02*
X102000Y65289D01*
X86500Y58500D02*
X94500Y66500D01*
X99500D01*
X98441Y57016D02*
Y61730D01*
X106118Y62113D02*
X108671Y64665D01*
X146063Y61472D02*
Y65937D01*
X147895Y68559D02*
X155118D01*
X147636Y66591D02*
X155118D01*
X77543Y116043D02*
Y122000D01*
Y129043D02*
X87343Y138842D01*
X77543Y122000D02*
Y129043D01*
X30232Y116732D02*
X30500Y117000D01*
X36500D01*
X40000Y121000D02*
X42335D01*
X40000Y114438D02*
Y121000D01*
X37500Y111938D02*
X40000Y114438D01*
X33158Y121000D02*
X40000D01*
X37500Y110000D02*
Y111938D01*
X42543Y103957D02*
X46417D01*
X33158Y110000D02*
X37500D01*
X111000Y104500D02*
Y108921D01*
X134252Y93362D02*
Y97975D01*
X132283Y93362D02*
Y97716D01*
X142957Y133500D02*
X158500D01*
X138000Y128543D02*
X142957Y133500D01*
X159000Y129500D02*
X161425Y127075D01*
X154043Y129500D02*
X159000D01*
X146957Y123543D02*
Y129500D01*
Y123543D02*
X148500Y122000D01*
X154882D01*
X144095Y102346D02*
X155248Y113500D01*
X144095Y93362D02*
Y102346D01*
X139500Y105500D02*
X140157Y104842D01*
Y93362D02*
Y104842D01*
X159276Y86276D02*
X159850Y86850D01*
X155118Y86276D02*
X159276D01*
X160433Y76433D02*
X161425Y77425D01*
X155118Y76433D02*
X160433D01*
X154988Y74335D02*
X155118Y74465D01*
X125000Y47500D02*
X127500Y45000D01*
X133661D01*
X140748D02*
Y52752D01*
X138189Y55311D02*
X140748Y52752D01*
X138189Y55311D02*
Y61472D01*
X133661Y45000D02*
Y52661D01*
X136221Y55221D01*
Y61472D01*
X116259Y68559D02*
X123228D01*
X123031Y68362D02*
X123228Y68559D01*
X118591Y66591D02*
X123228D01*
X117000Y65000D02*
X118591Y66591D01*
X100000Y78402D02*
X100000Y78402D01*
X104465Y99079D02*
X111000D01*
X101543Y102000D02*
X104465Y99079D01*
X105000Y108500D02*
X105421Y108921D01*
X111000D01*
X101543Y108500D02*
X105000D01*
X150193Y84307D02*
X155118D01*
X149000Y85500D02*
X150193Y84307D01*
X145500Y85500D02*
X149000D01*
X149661Y82339D02*
X155118D01*
X149000Y83000D02*
X149661Y82339D01*
X144032Y78402D02*
X155118D01*
X142130Y76500D02*
X144032Y78402D01*
X111000Y96500D02*
Y99079D01*
X117724Y86276D02*
X123228D01*
Y88244D02*
Y90772D01*
X108677Y61677D02*
X109500Y62500D01*
X114638Y58862D02*
X119000Y54500D01*
X95882Y57016D02*
Y62500D01*
X119000Y54500D02*
X129500D01*
X125000Y61472D02*
X128346D01*
X106118Y57016D02*
Y62113D01*
X103559Y57016D02*
Y62059D01*
X108677Y57016D02*
Y61677D01*
X130315Y55315D02*
Y61472D01*
X129500Y54500D02*
X130315Y55315D01*
X60000Y157500D02*
X70500D01*
X77500Y150500D01*
X17736Y83500D02*
X28264D01*
X27843Y116732D02*
Y121000D01*
X30327Y114173D02*
X30500Y114000D01*
X27843Y110000D02*
Y114173D01*
X30327D01*
X13189D02*
X27843D01*
Y116732D02*
X30232D01*
X30500Y114000D02*
X36500D01*
X46417Y114500D02*
X53000D01*
Y111043D02*
Y114500D01*
X46417Y111043D02*
Y114500D01*
Y116500D01*
X53000Y103957D02*
X56457D01*
X43835Y122500D02*
X48429D01*
X43835D02*
Y126835D01*
X42335Y121000D02*
X43835Y122500D01*
X55516D02*
Y131299D01*
X70457Y122000D02*
Y131327D01*
X70284Y131500D02*
X70457Y131327D01*
X70284Y131500D02*
Y136716D01*
X59500Y141500D02*
X65500D01*
X70284Y136716D01*
X55717Y131500D02*
Y138189D01*
X51500Y147500D02*
X64657D01*
X67658Y150500D01*
X15256Y105413D02*
Y105500D01*
Y122933D02*
Y123500D01*
X13189Y116732D02*
X27843D01*
D36*
X92000Y97000D02*
X101500D01*
X87500Y92500D02*
X92000Y97000D01*
X132000Y124500D02*
Y160000D01*
Y124500D02*
X134500Y122000D01*
X106756Y91744D02*
X115000D01*
X67500Y105000D02*
Y111000D01*
X62500Y100000D02*
X67500Y105000D01*
X7264Y83500D02*
Y92264D01*
X83634Y117366D02*
Y130134D01*
X78850Y112583D02*
X83634Y117366D01*
X78850Y102850D02*
Y112583D01*
X71000Y95000D02*
X78850Y102850D01*
X118000Y107748D02*
X123752Y113500D01*
X118000Y94744D02*
Y107748D01*
X115000Y91744D02*
X118000Y94744D01*
X101500Y97000D02*
X106756Y91744D01*
X96500Y125000D02*
Y131000D01*
X90000Y136500D02*
X106610D01*
X83634Y130134D02*
X90000Y136500D01*
X87500Y84500D02*
Y92500D01*
Y78500D02*
Y84500D01*
Y63500D02*
Y78500D01*
X3823Y74677D02*
X50323D01*
X3500Y75000D02*
Y77000D01*
Y56000D02*
Y75000D01*
X10000Y36000D02*
X32500D01*
X7500Y38500D02*
X10000Y36000D01*
X7500Y38500D02*
Y43500D01*
X3500Y37000D02*
Y56000D01*
X113000Y144500D02*
Y149488D01*
Y144500D02*
X115390Y142110D01*
Y136500D02*
Y142110D01*
X7264Y80764D02*
Y83500D01*
X3500Y77000D02*
X7264Y80764D01*
X38500Y83500D02*
X48736D01*
X43937Y95000D02*
X48736D01*
Y83500D02*
Y95000D01*
X62402D01*
X71000D01*
D37*
X92000Y131000D02*
X96500D01*
X96500Y131000D02*
X96500Y131000D01*
X82000Y69000D02*
Y111278D01*
X86783Y116062D01*
Y125783D01*
X92000Y131000D01*
X123500D02*
X125000Y132500D01*
X49000Y67236D02*
X54264D01*
X58000Y63500D01*
Y48000D02*
Y63500D01*
X52500Y42500D02*
X58000Y48000D01*
X72291Y8709D02*
Y16500D01*
X80500Y54500D02*
X90075D01*
X77500D02*
X80500D01*
X72500Y59500D02*
X82000Y69000D01*
X63000Y50000D02*
X72500Y59500D01*
X77500Y54500D01*
X125000Y132500D02*
Y142764D01*
X60476Y9476D02*
X63000Y12000D01*
X52500Y9476D02*
X60476D01*
X63000Y12000D02*
Y41500D01*
Y50000D01*
X52500Y31524D02*
Y42500D01*
X96500Y131000D02*
X119291D01*
X123500D01*
D38*
X114073Y6496D02*
Y13427D01*
X111000Y16500D02*
X114073Y13427D01*
X111000Y16500D02*
Y24500D01*
X93500Y16500D02*
Y25500D01*
X90651Y13651D02*
X93500Y16500D01*
X90651Y6498D02*
Y13651D01*
X3500Y75000D02*
X3823Y74677D01*
X80500Y42500D02*
X88000Y35000D01*
X80500Y42500D02*
Y54500D01*
X101000Y20500D02*
Y33000D01*
X98525Y18025D02*
X101000Y20500D01*
X98525Y6498D02*
Y18025D01*
X106399Y6498D02*
Y17601D01*
X103559Y20441D02*
X106399Y17601D01*
X103559Y20441D02*
Y33000D01*
X83709Y16500D02*
X89500D01*
X83709Y26000D02*
X89500D01*
X93500Y25500D02*
X95882Y27882D01*
X108677Y26823D02*
X111000Y24500D01*
X108677Y26823D02*
Y33000D01*
X95882Y27882D02*
Y33000D01*
X106118Y25882D02*
X106500Y25500D01*
Y22500D02*
Y25500D01*
X106118Y25882D02*
Y33000D01*
X98441Y24941D02*
Y33000D01*
X98000Y24500D02*
X98441Y24941D01*
X98000Y22500D02*
Y24500D01*
X63000Y41500D02*
X63043Y41457D01*
X90000Y33000D02*
X93323D01*
X88000Y35000D02*
X90000Y33000D01*
X88000Y35000D02*
Y41457D01*
X117500Y34000D02*
Y50000D01*
X116500Y33000D02*
X117500Y34000D01*
X111236Y33000D02*
X116500D01*
D39*
X41618Y53882D02*
X43736Y51764D01*
X39500Y56000D02*
X41618Y53882D01*
X34098Y56000D02*
X39500D01*
X43736Y51764D02*
X49000D01*
X40000Y101000D02*
X42500D01*
X43937Y99563D01*
Y95000D02*
Y99563D01*
D40*
X97185Y150500D02*
Y156685D01*
X101012Y160512D01*
X113000D01*
D41*
Y149488D02*
X119500D01*
Y158236D01*
X125000D01*
D42*
X51500Y147500D02*
D03*
X67658Y150500D02*
D03*
X77500D02*
D03*
X87343D02*
D03*
X106500Y125000D02*
D03*
D43*
X41500Y147500D02*
D03*
X97185Y150500D02*
D03*
X96500Y125000D02*
D03*
D44*
X155248Y113500D02*
D03*
X131626D02*
D03*
X139500D02*
D03*
X147374D02*
D03*
D45*
X123752D02*
D03*
D46*
X6791Y100098D02*
D03*
D47*
Y128248D02*
D03*
D48*
X15256Y122933D02*
D03*
Y105413D02*
D03*
D49*
X57457Y111043D02*
D03*
X88500Y101378D02*
D03*
X94291Y94095D02*
D03*
X132000Y160000D02*
D03*
X159000Y94500D02*
D03*
X142130Y80370D02*
D03*
X147000Y83000D02*
D03*
X144500Y84500D02*
D03*
X148500Y88000D02*
D03*
X131000Y105000D02*
D03*
X134000Y85500D02*
D03*
X129000Y81000D02*
D03*
X131500Y83500D02*
D03*
X129000Y85500D02*
D03*
X113000Y94500D02*
D03*
X112000Y62500D02*
D03*
X108000Y68500D02*
D03*
X115000Y75500D02*
D03*
X67500Y111000D02*
D03*
X62500Y100000D02*
D03*
X7264Y92264D02*
D03*
X75000Y113500D02*
D03*
X42543Y103957D02*
D03*
X37500Y110000D02*
D03*
X128500Y109000D02*
D03*
X155118Y90551D02*
D03*
X138000Y128543D02*
D03*
X142000Y35000D02*
D03*
X125000Y47500D02*
D03*
X99500Y66500D02*
D03*
X111000Y104500D02*
D03*
X117724Y86276D02*
D03*
X123228Y90772D02*
D03*
X87500Y63500D02*
D03*
X101500Y97000D02*
D03*
X142130Y76500D02*
D03*
X50323Y74677D02*
D03*
X72291Y8709D02*
D03*
X32500Y36000D02*
D03*
X7500Y43500D02*
D03*
X28264Y95000D02*
D03*
X3500Y37000D02*
D03*
X102279Y45008D02*
D03*
X97555D02*
D03*
X107004D02*
D03*
Y40284D02*
D03*
X102279D02*
D03*
X97555D02*
D03*
Y49732D02*
D03*
X102279D02*
D03*
X107004D02*
D03*
X95882Y62500D02*
D03*
X117000Y65000D02*
D03*
X125000Y61472D02*
D03*
X89500Y16500D02*
D03*
Y26000D02*
D03*
X106500Y22500D02*
D03*
X98000D02*
D03*
X60000Y157500D02*
D03*
X90158Y54500D02*
D03*
X117500Y50000D02*
D03*
X72291Y40284D02*
D03*
X52500Y42500D02*
D03*
X41618Y53882D02*
D03*
X38500Y83500D02*
D03*
X19500Y69500D02*
D03*
X36500Y114000D02*
D03*
Y117000D02*
D03*
X46417Y116500D02*
D03*
X52500Y117000D02*
D03*
X55717Y138189D02*
D03*
X59500Y141500D02*
D03*
X48165Y131165D02*
D03*
X43835D02*
D03*
X48165Y126835D02*
D03*
X43835D02*
D03*
X18500Y119291D02*
D03*
X40000Y101000D02*
D03*
X86500Y58500D02*
D03*
X120866Y5512D02*
D03*
Y18898D02*
D03*
X117717Y27559D02*
D03*
X79528Y34843D02*
D03*
X7283Y27953D02*
D03*
X14370Y11220D02*
D03*
X33661Y6102D02*
D03*
X39370Y24606D02*
D03*
X81496Y6102D02*
D03*
X152362Y52165D02*
D03*
Y42323D02*
D03*
X25591Y160039D02*
D03*
X14567Y156102D02*
D03*
X6299Y145866D02*
D03*
X159449Y141142D02*
D03*
X154724Y152362D02*
D03*
X139370Y5512D02*
D03*
X159843Y23228D02*
D03*
X153740Y11220D02*
D03*
M02*
