M48
;Layer_Color=9474304
;FILE_FORMAT=2:5
INCH,LZ
;TYPE=PLATED
T1F00S00C0.01181
T2F00S00C0.01772
T3F00S00C0.03937
T4F00S00C0.09843
%
T01
X0015748Y0028543
X0024921Y0045472
X0022332Y0061614
X0013726Y0054868
X0036614Y0054921
X0045669Y0051181
X0049213Y0055118
X0053543Y0056693
X0057677Y0059252
X0072835Y0064764
X0070276Y0070079
X0078347Y0060433
X0078937Y005
X0086122Y0046555
X0096358Y0047736
X0092716Y005315
X009252Y0034449
X0097244Y0034449
X0097244Y0029724
X0097244Y0025
X009252Y0025
X0087795Y0025
X0087795Y0029724
X0087795Y0034449
X009252Y0029724
X0096358Y0013976
X0088681Y0013976
X0075787Y000689
X0071063Y001063
X0067126Y0026969
X0078233Y0038386
X0109646Y0061221
X011752Y007815
X009941Y008937
X0086417Y009685
X0064961Y0097638
X0068307Y0088779
X0050197Y0087598
X0050787Y0097244
X0044685Y0081496
X0045276Y0072835
X0042717Y0070472
X002874Y0085039
X0019882Y0077362
X0140748Y0087598
X0145276Y003189
X0127165Y0007283
X0008661Y0033465
X0014961Y0115886
X0039902Y0117776
X0050197Y0116004
X0054527Y0116004
X0054527Y0111673
X0050197Y0111673
X0043701Y0101969
X0038583Y0100394
X0059055Y009941
X0066535Y0118701
X0069882Y0115945
X0100394Y0113661
X0095866Y009941
X0126969Y0126713
X0025197Y0145276
T02
X0014173Y0095866
X0014173Y0111614
T03
X0032323Y0008071
X0042323Y0008071
X0052323Y0008071
X0062323Y0008071
X0138386Y0043701
X0138386Y0053701
X0089803Y0137795
X0079961Y0137795
X0070118Y0137795
X0060276Y0137795
X0042717Y0134055
X0032717Y0134055
T04
X0013779Y0013779
X0135827Y0013779
X0135827Y0135826
X0013779Y0135826
M30
