G04 Layer_Physical_Order=2*
G04 Layer_Color=16711680*
%FSLAX25Y25*%
%MOIN*%
G70*
G01*
G75*
%ADD13C,0.03937*%
%ADD17R,0.02480X0.03268*%
%ADD18R,0.07087X0.03937*%
%ADD19R,0.05906X0.07087*%
%ADD30R,0.03937X0.03937*%
%ADD34C,0.01181*%
%ADD35C,0.00787*%
%ADD36C,0.01969*%
%ADD37C,0.02756*%
%ADD38C,0.01378*%
%ADD39C,0.01575*%
%ADD42C,0.06102*%
%ADD43R,0.06102X0.06102*%
%ADD44C,0.05315*%
%ADD45R,0.05315X0.05315*%
%ADD46O,0.07874X0.04724*%
%ADD47O,0.07087X0.04331*%
%ADD48O,0.04724X0.04134*%
%ADD49C,0.01969*%
%ADD50R,0.00394X0.00394*%
%ADD51R,0.05512X0.02362*%
%ADD52O,0.07008X0.02362*%
%ADD53O,0.02362X0.07008*%
%ADD54R,0.09843X0.09843*%
%ADD55R,0.01181X0.02874*%
%ADD56R,0.02874X0.01181*%
%ADD57C,0.00591*%
G36*
X163583Y149016D02*
Y148819D01*
Y15945D01*
X162598Y14961D01*
X149213Y1575D01*
X16142D01*
X1772Y15945D01*
Y35498D01*
X2044Y35634D01*
X2272Y35690D01*
X2809Y35331D01*
X3500Y35194D01*
X26000D01*
X26691Y35331D01*
X27277Y35723D01*
X27669Y36309D01*
X27806Y37000D01*
Y40369D01*
X27966Y40491D01*
X28407Y41067D01*
X28685Y41737D01*
X28780Y42457D01*
X28685Y43176D01*
X28407Y43846D01*
X27966Y44422D01*
X27390Y44864D01*
X26719Y45142D01*
X26000Y45236D01*
X25281Y45142D01*
X24610Y44864D01*
X24035Y44422D01*
X23593Y43846D01*
X23315Y43176D01*
X23220Y42457D01*
X23315Y41737D01*
X23593Y41067D01*
X24035Y40491D01*
X24194Y40369D01*
Y38806D01*
X21306D01*
Y39701D01*
X22256D01*
Y45213D01*
X16744D01*
Y39701D01*
X17694D01*
Y38806D01*
X14806D01*
Y40369D01*
X14965Y40491D01*
X15407Y41067D01*
X15685Y41737D01*
X15780Y42457D01*
X15685Y43176D01*
X15407Y43846D01*
X14965Y44422D01*
X14390Y44864D01*
X13719Y45142D01*
X13000Y45236D01*
X12281Y45142D01*
X11610Y44864D01*
X11034Y44422D01*
X10593Y43846D01*
X10315Y43176D01*
X10220Y42457D01*
X10315Y41737D01*
X10593Y41067D01*
X11034Y40491D01*
X11194Y40369D01*
Y38806D01*
X3500D01*
X2809Y38669D01*
X2272Y38310D01*
X2044Y38366D01*
X1772Y38502D01*
Y90733D01*
X5093D01*
X5132Y90740D01*
X5171Y90737D01*
X5284Y90771D01*
X5400Y90794D01*
X5433Y90816D01*
X5471Y90827D01*
X5484Y90838D01*
X5829Y90940D01*
X6131Y90890D01*
X6572Y90595D01*
X7264Y90457D01*
X17264D01*
X17955Y90595D01*
X18541Y90987D01*
X19090Y91535D01*
X19685D01*
Y92131D01*
X24248Y96694D01*
X26408D01*
X26675Y96194D01*
X26395Y95774D01*
X26340Y95500D01*
X30187D01*
X30133Y95774D01*
X29853Y96194D01*
X30120Y96694D01*
X31752D01*
X34723Y93723D01*
X35309Y93331D01*
X36000Y93194D01*
X57500D01*
X58191Y93331D01*
X58777Y93723D01*
X63777Y98723D01*
X64169Y99309D01*
X64306Y100000D01*
X64169Y100691D01*
X63777Y101277D01*
X63191Y101669D01*
X62500Y101806D01*
X61809Y101669D01*
X61223Y101277D01*
X56752Y96806D01*
X36748D01*
X33777Y99777D01*
X33191Y100169D01*
X32500Y100306D01*
X23500D01*
X22809Y100169D01*
X22223Y99777D01*
X20950Y98504D01*
X20488Y98696D01*
Y109732D01*
X22190D01*
X22199Y109680D01*
X22205Y109607D01*
Y107046D01*
X22199Y106974D01*
X22190Y106921D01*
X21583D01*
Y102079D01*
X25638D01*
Y106921D01*
X25030D01*
X25021Y106974D01*
X25015Y107046D01*
Y109607D01*
X25021Y109680D01*
X25030Y109732D01*
X28331D01*
Y115244D01*
X20488D01*
Y117351D01*
X20481Y117386D01*
X20570Y117589D01*
X20782Y117846D01*
X20790Y117853D01*
X20852Y117886D01*
X24000D01*
X24538Y117993D01*
X24994Y118298D01*
X25298Y118754D01*
X25405Y119291D01*
Y120631D01*
X25411Y120703D01*
X25420Y120756D01*
X28331D01*
Y126268D01*
X20488D01*
Y132874D01*
X20427Y133181D01*
X20253Y133442D01*
X19992Y133616D01*
X19685Y133677D01*
X1772D01*
Y149016D01*
X16142Y163386D01*
X149213D01*
X163583Y149016D01*
D02*
G37*
G36*
X24207Y107076D02*
X24224Y106873D01*
X24254Y106694D01*
X24295Y106539D01*
X24348Y106408D01*
X24413Y106301D01*
X24490Y106217D01*
X24579Y106158D01*
X24679Y106122D01*
X24791Y106110D01*
X22429D01*
X22541Y106122D01*
X22642Y106158D01*
X22730Y106217D01*
X22807Y106301D01*
X22872Y106408D01*
X22925Y106539D01*
X22966Y106694D01*
X22996Y106873D01*
X23014Y107076D01*
X23020Y107303D01*
X24201D01*
X24207Y107076D01*
D02*
G37*
G36*
X25069Y121555D02*
X24969Y121520D01*
X24880Y121460D01*
X24803Y121376D01*
X24738Y121269D01*
X24685Y121138D01*
X24644Y120983D01*
X24614Y120804D01*
X24597Y120601D01*
X24590Y120374D01*
X23410D01*
X23404Y120601D01*
X23386Y120804D01*
X23356Y120983D01*
X23315Y121138D01*
X23262Y121269D01*
X23197Y121376D01*
X23120Y121460D01*
X23031Y121520D01*
X22931Y121555D01*
X22819Y121567D01*
X25181D01*
X25069Y121555D01*
D02*
G37*
G36*
X24679Y110532D02*
X24579Y110496D01*
X24490Y110436D01*
X24413Y110353D01*
X24348Y110245D01*
X24295Y110114D01*
X24254Y109959D01*
X24224Y109780D01*
X24207Y109577D01*
X24201Y109351D01*
X23020D01*
X23014Y109577D01*
X22996Y109780D01*
X22966Y109959D01*
X22925Y110114D01*
X22872Y110245D01*
X22807Y110353D01*
X22730Y110436D01*
X22642Y110496D01*
X22541Y110532D01*
X22429Y110544D01*
X24791D01*
X24679Y110532D01*
D02*
G37*
G36*
X19227Y119962D02*
X19261Y119945D01*
X19304Y119930D01*
X19357Y119917D01*
X19420Y119906D01*
X19574Y119891D01*
X19767Y119883D01*
X19878Y119882D01*
Y118701D01*
X19767Y118700D01*
X19420Y118676D01*
X19357Y118665D01*
X19304Y118653D01*
X19261Y118638D01*
X19227Y118621D01*
X19203Y118602D01*
Y119980D01*
X19227Y119962D01*
D02*
G37*
G36*
X19685Y126268D02*
X19669D01*
Y121242D01*
X19195Y120963D01*
X19169Y120965D01*
X18620Y121074D01*
X18545Y121134D01*
X18383Y121382D01*
X18306Y121569D01*
X18539Y122132D01*
X18579Y122433D01*
X15756D01*
Y119867D01*
X16313Y119940D01*
X16367Y119930D01*
X16749Y119568D01*
X16694Y119291D01*
X16831Y118600D01*
X17223Y118014D01*
X17809Y117622D01*
X18500Y117485D01*
X19191Y117622D01*
X19685Y117351D01*
Y115244D01*
X19669D01*
Y109732D01*
X19685D01*
Y97240D01*
X16516Y94070D01*
X7264D01*
X6572Y93933D01*
X5987Y93541D01*
X5595Y92955D01*
X5457Y92264D01*
X5503Y92035D01*
X5093Y91535D01*
X1772D01*
Y98323D01*
X2272Y98422D01*
X2280Y98403D01*
X2819Y97701D01*
X3521Y97162D01*
X4339Y96823D01*
X5217Y96707D01*
X6291D01*
Y100098D01*
Y103490D01*
X5217D01*
X4339Y103374D01*
X3521Y103035D01*
X2819Y102496D01*
X2280Y101794D01*
X2272Y101775D01*
X1772Y101874D01*
Y127829D01*
X2272Y127861D01*
X2330Y127422D01*
X2648Y126652D01*
X3156Y125990D01*
X3817Y125483D01*
X4587Y125164D01*
X5413Y125055D01*
X6291D01*
Y128248D01*
Y131441D01*
X5413D01*
X4587Y131332D01*
X3817Y131013D01*
X3156Y130506D01*
X2648Y129844D01*
X2330Y129074D01*
X2272Y128635D01*
X1772Y128668D01*
Y132874D01*
X19685D01*
Y126268D01*
D02*
G37*
%LPC*%
G36*
X13500Y52472D02*
Y50043D01*
X15928D01*
X15892Y50318D01*
X15593Y51040D01*
X15117Y51661D01*
X14497Y52136D01*
X13775Y52435D01*
X13500Y52472D01*
D02*
G37*
G36*
X151862Y51665D02*
X150438D01*
X150493Y51391D01*
X150932Y50735D01*
X151588Y50296D01*
X151862Y50242D01*
Y51665D01*
D02*
G37*
G36*
X12500Y49043D02*
X10072D01*
X10108Y48768D01*
X10407Y48046D01*
X10883Y47426D01*
X11503Y46950D01*
X12225Y46651D01*
X12500Y46615D01*
Y49043D01*
D02*
G37*
G36*
X15928D02*
X13500D01*
Y46615D01*
X13775Y46651D01*
X14497Y46950D01*
X15117Y47426D01*
X15593Y48046D01*
X15892Y48768D01*
X15928Y49043D01*
D02*
G37*
G36*
X12500Y52472D02*
X12225Y52435D01*
X11503Y52136D01*
X10883Y51661D01*
X10407Y51040D01*
X10108Y50318D01*
X10072Y50043D01*
X12500D01*
Y52472D01*
D02*
G37*
G36*
X154286Y51665D02*
X152862D01*
Y50242D01*
X153136Y50296D01*
X153793Y50735D01*
X154231Y51391D01*
X154286Y51665D01*
D02*
G37*
G36*
X152862Y54089D02*
Y52665D01*
X154286D01*
X154231Y52940D01*
X153793Y53596D01*
X153136Y54035D01*
X152862Y54089D01*
D02*
G37*
G36*
X12870Y56500D02*
X8923D01*
X8993Y56149D01*
X9475Y55427D01*
X10196Y54945D01*
X11047Y54776D01*
X12870D01*
Y56500D01*
D02*
G37*
G36*
X66232Y56941D02*
X62976D01*
Y55260D01*
X66232D01*
Y56941D01*
D02*
G37*
G36*
X151862Y54089D02*
X151588Y54035D01*
X150932Y53596D01*
X150493Y52940D01*
X150438Y52665D01*
X151862D01*
Y54089D01*
D02*
G37*
G36*
X86500Y60306D02*
X85809Y60169D01*
X85223Y59777D01*
X84831Y59191D01*
X84694Y58500D01*
X84831Y57809D01*
X85223Y57223D01*
X85396Y57107D01*
Y55457D01*
X82063Y52124D01*
X78543D01*
Y52988D01*
X71457D01*
Y49051D01*
X78543D01*
Y49916D01*
X82520D01*
X82942Y50000D01*
X83300Y50239D01*
X87281Y54219D01*
X87520Y54578D01*
X87604Y55000D01*
Y57107D01*
X87777Y57223D01*
X88169Y57809D01*
X88306Y58500D01*
X88169Y59191D01*
X87777Y59777D01*
X87191Y60169D01*
X86500Y60306D01*
D02*
G37*
G36*
X66232Y54260D02*
X62976D01*
Y52579D01*
X66232D01*
Y54260D01*
D02*
G37*
G36*
X70488D02*
X67232D01*
Y52579D01*
X70488D01*
Y54260D01*
D02*
G37*
G36*
X72791Y42207D02*
Y40784D01*
X74215D01*
X74160Y41058D01*
X73722Y41714D01*
X73066Y42153D01*
X72791Y42207D01*
D02*
G37*
G36*
X71791D02*
X71517Y42153D01*
X70861Y41714D01*
X70422Y41058D01*
X70368Y40784D01*
X71791D01*
Y42207D01*
D02*
G37*
G36*
X9424Y43000D02*
X8000D01*
Y41576D01*
X8274Y41631D01*
X8931Y42069D01*
X9369Y42726D01*
X9424Y43000D01*
D02*
G37*
G36*
X7000D02*
X5576D01*
X5631Y42726D01*
X6069Y42069D01*
X6726Y41631D01*
X7000Y41576D01*
Y43000D01*
D02*
G37*
G36*
X154286Y41823D02*
X152862D01*
Y40399D01*
X153136Y40454D01*
X153793Y40892D01*
X154231Y41549D01*
X154286Y41823D01*
D02*
G37*
G36*
X151862D02*
X150438D01*
X150493Y41549D01*
X150932Y40892D01*
X151588Y40454D01*
X151862Y40399D01*
Y41823D01*
D02*
G37*
G36*
X54424Y42000D02*
X53000D01*
Y40576D01*
X53274Y40631D01*
X53931Y41069D01*
X54369Y41726D01*
X54424Y42000D01*
D02*
G37*
G36*
X52000D02*
X50576D01*
X50631Y41726D01*
X51069Y41069D01*
X51726Y40631D01*
X52000Y40576D01*
Y42000D01*
D02*
G37*
G36*
X53000Y44424D02*
Y43000D01*
X54424D01*
X54369Y43274D01*
X53931Y43931D01*
X53274Y44369D01*
X53000Y44424D01*
D02*
G37*
G36*
X52000D02*
X51726Y44369D01*
X51069Y43931D01*
X50631Y43274D01*
X50576Y43000D01*
X52000D01*
Y44424D01*
D02*
G37*
G36*
X8000Y45424D02*
Y44000D01*
X9424D01*
X9369Y44274D01*
X8931Y44931D01*
X8274Y45369D01*
X8000Y45424D01*
D02*
G37*
G36*
X7000D02*
X6726Y45369D01*
X6069Y44931D01*
X5631Y44274D01*
X5576Y44000D01*
X7000D01*
Y45424D01*
D02*
G37*
G36*
X152862Y44247D02*
Y42823D01*
X154286D01*
X154231Y43097D01*
X153793Y43753D01*
X153136Y44192D01*
X152862Y44247D01*
D02*
G37*
G36*
X151862D02*
X151588Y44192D01*
X150932Y43753D01*
X150493Y43097D01*
X150438Y42823D01*
X151862D01*
Y44247D01*
D02*
G37*
G36*
X35469Y45425D02*
X33000D01*
Y42957D01*
X35469D01*
Y45425D01*
D02*
G37*
G36*
X32000D02*
X29531D01*
Y42957D01*
X32000D01*
Y45425D01*
D02*
G37*
G36*
X57390Y84692D02*
Y82264D01*
X59818D01*
X59782Y82539D01*
X59483Y83261D01*
X59007Y83881D01*
X58387Y84357D01*
X57665Y84656D01*
X57390Y84692D01*
D02*
G37*
G36*
X62949Y84692D02*
X62674Y84656D01*
X61952Y84357D01*
X61332Y83881D01*
X60856Y83261D01*
X60557Y82539D01*
X60520Y82264D01*
X62949D01*
Y84692D01*
D02*
G37*
G36*
X74370Y87184D02*
X69724D01*
X68956Y87032D01*
X68305Y86596D01*
X67870Y85945D01*
X67717Y85177D01*
X67870Y84409D01*
X68305Y83758D01*
X68956Y83323D01*
X69724Y83170D01*
X74370D01*
X75138Y83323D01*
X75789Y83758D01*
X76224Y84409D01*
X76377Y85177D01*
X76224Y85945D01*
X75789Y86596D01*
X75138Y87032D01*
X74370Y87184D01*
D02*
G37*
G36*
X63949Y84692D02*
Y82264D01*
X66377D01*
X66341Y82539D01*
X66042Y83261D01*
X65566Y83881D01*
X64946Y84357D01*
X64224Y84656D01*
X63949Y84692D01*
D02*
G37*
G36*
X59818Y81264D02*
X57390D01*
Y78835D01*
X57665Y78872D01*
X58387Y79171D01*
X59007Y79647D01*
X59483Y80267D01*
X59782Y80989D01*
X59818Y81264D01*
D02*
G37*
G36*
X56390D02*
X53961D01*
X53998Y80989D01*
X54297Y80267D01*
X54773Y79647D01*
X55393Y79171D01*
X56115Y78872D01*
X56390Y78835D01*
Y81264D01*
D02*
G37*
G36*
Y84692D02*
X56115Y84656D01*
X55393Y84357D01*
X54773Y83881D01*
X54297Y83261D01*
X53998Y82539D01*
X53961Y82264D01*
X56390D01*
Y84692D01*
D02*
G37*
G36*
X62949Y81264D02*
X60520D01*
X60557Y80989D01*
X60856Y80267D01*
X61332Y79647D01*
X61952Y79171D01*
X62674Y78872D01*
X62949Y78835D01*
Y81264D01*
D02*
G37*
G36*
X96215Y93594D02*
X92368D01*
X92422Y93320D01*
X92702Y92901D01*
X92435Y92401D01*
X90984D01*
X90133Y92232D01*
X89412Y91750D01*
X88930Y91028D01*
X88860Y90677D01*
X93307D01*
X97754D01*
X97685Y91028D01*
X97202Y91750D01*
X96481Y92232D01*
X96046Y92318D01*
X96035Y92331D01*
X95857Y92866D01*
X96161Y93320D01*
X96215Y93594D01*
D02*
G37*
G36*
X71547Y92401D02*
X69724D01*
X68873Y92232D01*
X68152Y91750D01*
X67670Y91028D01*
X67600Y90677D01*
X71547D01*
Y92401D01*
D02*
G37*
G36*
X160924Y94000D02*
X159500D01*
Y92576D01*
X159774Y92631D01*
X160431Y93069D01*
X160869Y93726D01*
X160924Y94000D01*
D02*
G37*
G36*
X74370Y92401D02*
X72547D01*
Y90677D01*
X76494D01*
X76425Y91028D01*
X75943Y91750D01*
X75221Y92232D01*
X74370Y92401D01*
D02*
G37*
G36*
X76494Y89677D02*
X72547D01*
Y87953D01*
X74370D01*
X75221Y88123D01*
X75943Y88605D01*
X76425Y89326D01*
X76494Y89677D01*
D02*
G37*
G36*
X71547D02*
X67600D01*
X67670Y89326D01*
X68152Y88605D01*
X68873Y88123D01*
X69724Y87953D01*
X71547D01*
Y89677D01*
D02*
G37*
G36*
X97754D02*
X93807D01*
Y87953D01*
X95630D01*
X96481Y88123D01*
X97202Y88605D01*
X97685Y89326D01*
X97754Y89677D01*
D02*
G37*
G36*
X92807D02*
X88860D01*
X88930Y89326D01*
X89412Y88605D01*
X90133Y88123D01*
X90984Y87953D01*
X92807D01*
Y89677D01*
D02*
G37*
G36*
X66377Y81264D02*
X63949D01*
Y78835D01*
X64224Y78872D01*
X64946Y79171D01*
X65566Y79647D01*
X66042Y80267D01*
X66341Y80989D01*
X66377Y81264D01*
D02*
G37*
G36*
X34130Y66500D02*
X30183D01*
X30253Y66149D01*
X30735Y65428D01*
X31456Y64946D01*
X32307Y64776D01*
X34130D01*
Y66500D01*
D02*
G37*
G36*
X38500Y85306D02*
X37809Y85169D01*
X37223Y84777D01*
X36831Y84191D01*
X36694Y83500D01*
X36831Y82809D01*
X37223Y82223D01*
X41194Y78252D01*
Y63806D01*
X37793D01*
X37721Y63854D01*
X36953Y64007D01*
X32307D01*
X31539Y63854D01*
X30888Y63419D01*
X30453Y62768D01*
X30300Y62000D01*
X30453Y61232D01*
X30888Y60581D01*
X31539Y60146D01*
X32307Y59993D01*
X36953D01*
X37721Y60146D01*
X37793Y60194D01*
X43000D01*
X43691Y60331D01*
X44277Y60723D01*
X44669Y61309D01*
X44806Y62000D01*
Y79000D01*
X44669Y79691D01*
X44277Y80277D01*
X39777Y84777D01*
X39191Y85169D01*
X38500Y85306D01*
D02*
G37*
G36*
X34130Y69224D02*
X32307D01*
X31456Y69055D01*
X30735Y68572D01*
X30253Y67851D01*
X30183Y67500D01*
X34130D01*
Y69224D01*
D02*
G37*
G36*
X39077Y66500D02*
X35130D01*
Y64776D01*
X36953D01*
X37804Y64946D01*
X38525Y65428D01*
X39007Y66149D01*
X39077Y66500D01*
D02*
G37*
G36*
X12870Y59224D02*
X11047D01*
X10196Y59054D01*
X9475Y58573D01*
X8993Y57851D01*
X8923Y57500D01*
X12870D01*
Y59224D01*
D02*
G37*
G36*
X70488Y56941D02*
X67232D01*
Y55260D01*
X70488D01*
Y56941D01*
D02*
G37*
G36*
X12870Y64224D02*
X11047D01*
X10196Y64055D01*
X9475Y63573D01*
X8993Y62851D01*
X8923Y62500D01*
X12870D01*
Y64224D01*
D02*
G37*
G36*
Y61500D02*
X8923D01*
X8993Y61149D01*
X9475Y60427D01*
X10196Y59945D01*
X11047Y59776D01*
X12870D01*
Y61500D01*
D02*
G37*
G36*
X39077Y71500D02*
X35130D01*
Y69776D01*
X36953D01*
X37804Y69946D01*
X38525Y70428D01*
X39007Y71149D01*
X39077Y71500D01*
D02*
G37*
G36*
X34130D02*
X30183D01*
X30253Y71149D01*
X30735Y70428D01*
X31456Y69946D01*
X32307Y69776D01*
X34130D01*
Y71500D01*
D02*
G37*
G36*
X36953Y74224D02*
X35130D01*
Y72500D01*
X39077D01*
X39007Y72851D01*
X38525Y73572D01*
X37804Y74054D01*
X36953Y74224D01*
D02*
G37*
G36*
X34130D02*
X32307D01*
X31456Y74054D01*
X30735Y73572D01*
X30253Y72851D01*
X30183Y72500D01*
X34130D01*
Y74224D01*
D02*
G37*
G36*
X148457Y70500D02*
X146028D01*
X146065Y70225D01*
X146364Y69503D01*
X146839Y68883D01*
X147460Y68407D01*
X148182Y68108D01*
X148457Y68072D01*
Y70500D01*
D02*
G37*
G36*
X36953Y69224D02*
X35130D01*
Y67500D01*
X39077D01*
X39007Y67851D01*
X38525Y68572D01*
X37804Y69055D01*
X36953Y69224D01*
D02*
G37*
G36*
X15693Y74007D02*
X11047D01*
X10279Y73854D01*
X9628Y73419D01*
X9193Y72768D01*
X9040Y72000D01*
X9193Y71232D01*
X9628Y70581D01*
X10279Y70146D01*
X11047Y69993D01*
X15693D01*
X16461Y70146D01*
X16533Y70194D01*
X17694D01*
Y68806D01*
X16533D01*
X16461Y68854D01*
X15693Y69007D01*
X11047D01*
X10279Y68854D01*
X9628Y68419D01*
X9193Y67768D01*
X9040Y67000D01*
X9193Y66232D01*
X9628Y65581D01*
X10279Y65146D01*
X11047Y64993D01*
X15693D01*
X16461Y65146D01*
X16533Y65194D01*
X17694D01*
Y63763D01*
X17194Y63620D01*
X16544Y64055D01*
X15693Y64224D01*
X13870D01*
Y62000D01*
Y59776D01*
X15693D01*
X16544Y59945D01*
X17194Y60380D01*
X17694Y60237D01*
Y58763D01*
X17194Y58620D01*
X16544Y59054D01*
X15693Y59224D01*
X13870D01*
Y57000D01*
Y54776D01*
X15693D01*
X16544Y54945D01*
X17194Y55380D01*
X17694Y55237D01*
Y52299D01*
X16744D01*
Y46787D01*
X22256D01*
Y51694D01*
X23493D01*
X23531Y51670D01*
X23637Y51561D01*
X23778Y51198D01*
X23755Y51145D01*
X23593Y50933D01*
X23315Y50263D01*
X23220Y49543D01*
X23315Y48824D01*
X23593Y48153D01*
X24035Y47578D01*
X24610Y47136D01*
X25281Y46858D01*
X26000Y46764D01*
X26719Y46858D01*
X27390Y47136D01*
X27966Y47578D01*
X28407Y48153D01*
X28685Y48824D01*
X28780Y49543D01*
X28685Y50263D01*
X28407Y50933D01*
X28245Y51145D01*
X28222Y51198D01*
X28363Y51561D01*
X28468Y51670D01*
X28507Y51694D01*
X29744D01*
Y46787D01*
X35256D01*
Y52299D01*
X34306D01*
Y53500D01*
X34169Y54191D01*
X33967Y54493D01*
X34235Y54993D01*
X36953D01*
X37721Y55146D01*
X38093Y55394D01*
X39835D01*
X40012Y55217D01*
Y54668D01*
X39949Y54573D01*
X39812Y53882D01*
X39949Y53191D01*
X40341Y52605D01*
X40927Y52213D01*
X41618Y52075D01*
X42309Y52213D01*
X42895Y52605D01*
X43287Y53191D01*
X43424Y53882D01*
X43287Y54573D01*
X43224Y54668D01*
Y55882D01*
X43224Y55882D01*
X43102Y56496D01*
X42753Y57017D01*
X42753Y57017D01*
X41635Y58135D01*
X41115Y58483D01*
X40500Y58606D01*
X40500Y58606D01*
X38093D01*
X37721Y58854D01*
X36953Y59007D01*
X32307D01*
X31539Y58854D01*
X30888Y58419D01*
X30453Y57768D01*
X30300Y57000D01*
X30453Y56232D01*
X30737Y55806D01*
X30470Y55306D01*
X21306D01*
Y67000D01*
Y69500D01*
Y72000D01*
X21169Y72691D01*
X20777Y73277D01*
X20191Y73669D01*
X19500Y73806D01*
X16533D01*
X16461Y73854D01*
X15693Y74007D01*
D02*
G37*
G36*
X151885Y70500D02*
X149457D01*
Y68072D01*
X149732Y68108D01*
X150454Y68407D01*
X151074Y68883D01*
X151550Y69503D01*
X151849Y70225D01*
X151885Y70500D01*
D02*
G37*
G36*
X153240Y10721D02*
X151816D01*
X151871Y10446D01*
X152310Y9790D01*
X152966Y9351D01*
X153240Y9297D01*
Y10721D01*
D02*
G37*
G36*
X16294D02*
X14870D01*
Y9297D01*
X15144Y9351D01*
X15801Y9790D01*
X16239Y10446D01*
X16294Y10721D01*
D02*
G37*
G36*
X13870Y13144D02*
X13596Y13090D01*
X12939Y12651D01*
X12501Y11995D01*
X12446Y11721D01*
X13870D01*
Y13144D01*
D02*
G37*
G36*
X155664Y10721D02*
X154240D01*
Y9297D01*
X154514Y9351D01*
X155171Y9790D01*
X155609Y10446D01*
X155664Y10721D01*
D02*
G37*
G36*
X71791Y10632D02*
X71517Y10578D01*
X70861Y10139D01*
X70422Y9483D01*
X70368Y9209D01*
X71791D01*
Y10632D01*
D02*
G37*
G36*
X74215Y8209D02*
X72791D01*
Y6785D01*
X73066Y6840D01*
X73722Y7278D01*
X74160Y7934D01*
X74215Y8209D01*
D02*
G37*
G36*
X13870Y10721D02*
X12446D01*
X12501Y10446D01*
X12939Y9790D01*
X13596Y9351D01*
X13870Y9297D01*
Y10721D01*
D02*
G37*
G36*
X72791Y10632D02*
Y9209D01*
X74215D01*
X74160Y9483D01*
X73722Y10139D01*
X73066Y10578D01*
X72791Y10632D01*
D02*
G37*
G36*
X120366Y18398D02*
X118942D01*
X118997Y18123D01*
X119436Y17467D01*
X120092Y17029D01*
X120366Y16974D01*
Y18398D01*
D02*
G37*
G36*
X143700Y28379D02*
X142388Y28250D01*
X141127Y27867D01*
X139964Y27246D01*
X138945Y26409D01*
X138109Y25390D01*
X137487Y24227D01*
X137104Y22966D01*
X136975Y21654D01*
X137104Y20342D01*
X137487Y19080D01*
X138109Y17918D01*
X138945Y16898D01*
X139964Y16062D01*
X141127Y15440D01*
X142388Y15058D01*
X143700Y14929D01*
X145012Y15058D01*
X146274Y15440D01*
X147437Y16062D01*
X148456Y16898D01*
X149292Y17918D01*
X149914Y19080D01*
X150296Y20342D01*
X150426Y21654D01*
X150296Y22966D01*
X149914Y24227D01*
X149292Y25390D01*
X148456Y26409D01*
X147437Y27246D01*
X146274Y27867D01*
X145012Y28250D01*
X143700Y28379D01*
D02*
G37*
G36*
X120366Y20821D02*
X120092Y20767D01*
X119436Y20328D01*
X118997Y19672D01*
X118942Y19398D01*
X120366D01*
Y20821D01*
D02*
G37*
G36*
X122790Y18398D02*
X121366D01*
Y16974D01*
X121640Y17029D01*
X122297Y17467D01*
X122735Y18123D01*
X122790Y18398D01*
D02*
G37*
G36*
X153240Y13144D02*
X152966Y13090D01*
X152310Y12651D01*
X151871Y11995D01*
X151816Y11721D01*
X153240D01*
Y13144D01*
D02*
G37*
G36*
X14870D02*
Y11721D01*
X16294D01*
X16239Y11995D01*
X15801Y12651D01*
X15144Y13090D01*
X14870Y13144D01*
D02*
G37*
G36*
X21653Y28379D02*
X20341Y28250D01*
X19080Y27867D01*
X17917Y27246D01*
X16898Y26409D01*
X16061Y25390D01*
X15440Y24227D01*
X15057Y22966D01*
X14928Y21654D01*
X15057Y20342D01*
X15440Y19080D01*
X16061Y17918D01*
X16898Y16898D01*
X17917Y16062D01*
X19080Y15440D01*
X20341Y15058D01*
X21653Y14929D01*
X22965Y15058D01*
X24227Y15440D01*
X25390Y16062D01*
X26409Y16898D01*
X27245Y17918D01*
X27867Y19080D01*
X28249Y20342D01*
X28378Y21654D01*
X28249Y22966D01*
X27867Y24227D01*
X27245Y25390D01*
X26409Y26409D01*
X25390Y27246D01*
X24227Y27867D01*
X22965Y28250D01*
X21653Y28379D01*
D02*
G37*
G36*
X154240Y13144D02*
Y11721D01*
X155664D01*
X155609Y11995D01*
X155171Y12651D01*
X154514Y13090D01*
X154240Y13144D01*
D02*
G37*
G36*
X71791Y8209D02*
X70368D01*
X70422Y7934D01*
X70861Y7278D01*
X71517Y6840D01*
X71791Y6785D01*
Y8209D01*
D02*
G37*
G36*
X35585Y5602D02*
X34161D01*
Y4179D01*
X34436Y4233D01*
X35092Y4672D01*
X35530Y5328D01*
X35585Y5602D01*
D02*
G37*
G36*
X33161D02*
X31738D01*
X31792Y5328D01*
X32231Y4672D01*
X32887Y4233D01*
X33161Y4179D01*
Y5602D01*
D02*
G37*
G36*
X83420D02*
X81996D01*
Y4179D01*
X82270Y4233D01*
X82927Y4672D01*
X83365Y5328D01*
X83420Y5602D01*
D02*
G37*
G36*
X80996D02*
X79572D01*
X79627Y5328D01*
X80066Y4672D01*
X80722Y4233D01*
X80996Y4179D01*
Y5602D01*
D02*
G37*
G36*
X122790Y5012D02*
X121366D01*
Y3588D01*
X121640Y3643D01*
X122297Y4081D01*
X122735Y4738D01*
X122790Y5012D01*
D02*
G37*
G36*
X120366D02*
X118942D01*
X118997Y4738D01*
X119436Y4081D01*
X120092Y3643D01*
X120366Y3588D01*
Y5012D01*
D02*
G37*
G36*
X141294D02*
X139870D01*
Y3588D01*
X140144Y3643D01*
X140801Y4081D01*
X141239Y4738D01*
X141294Y5012D01*
D02*
G37*
G36*
X138870D02*
X137446D01*
X137501Y4738D01*
X137940Y4081D01*
X138596Y3643D01*
X138870Y3588D01*
Y5012D01*
D02*
G37*
G36*
X34161Y8026D02*
Y6602D01*
X35585D01*
X35530Y6877D01*
X35092Y7533D01*
X34436Y7971D01*
X34161Y8026D01*
D02*
G37*
G36*
X33161D02*
X32887Y7971D01*
X32231Y7533D01*
X31792Y6877D01*
X31738Y6602D01*
X33161D01*
Y8026D01*
D02*
G37*
G36*
X81996D02*
Y6602D01*
X83420D01*
X83365Y6877D01*
X82927Y7533D01*
X82270Y7971D01*
X81996Y8026D01*
D02*
G37*
G36*
X80996D02*
X80722Y7971D01*
X80066Y7533D01*
X79627Y6877D01*
X79572Y6602D01*
X80996D01*
Y8026D01*
D02*
G37*
G36*
X121366Y7435D02*
Y6012D01*
X122790D01*
X122735Y6286D01*
X122297Y6942D01*
X121640Y7381D01*
X121366Y7435D01*
D02*
G37*
G36*
X120366D02*
X120092Y7381D01*
X119436Y6942D01*
X118997Y6286D01*
X118942Y6012D01*
X120366D01*
Y7435D01*
D02*
G37*
G36*
X139870D02*
Y6012D01*
X141294D01*
X141239Y6286D01*
X140801Y6942D01*
X140144Y7381D01*
X139870Y7435D01*
D02*
G37*
G36*
X138870D02*
X138596Y7381D01*
X137940Y6942D01*
X137501Y6286D01*
X137446Y6012D01*
X138870D01*
Y7435D01*
D02*
G37*
G36*
X121366Y20821D02*
Y19398D01*
X122790D01*
X122735Y19672D01*
X122297Y20328D01*
X121640Y20767D01*
X121366Y20821D01*
D02*
G37*
G36*
X34424Y35500D02*
X33000D01*
Y34076D01*
X33274Y34131D01*
X33931Y34569D01*
X34369Y35226D01*
X34424Y35500D01*
D02*
G37*
G36*
X32000D02*
X30576D01*
X30631Y35226D01*
X31069Y34569D01*
X31726Y34131D01*
X32000Y34076D01*
Y35500D01*
D02*
G37*
G36*
X80028Y36766D02*
Y35342D01*
X81451D01*
X81397Y35617D01*
X80958Y36273D01*
X80302Y36712D01*
X80028Y36766D01*
D02*
G37*
G36*
X79028D02*
X78753Y36712D01*
X78097Y36273D01*
X77658Y35617D01*
X77604Y35342D01*
X79028D01*
Y36766D01*
D02*
G37*
G36*
X81451Y34343D02*
X80028D01*
Y32919D01*
X80302Y32973D01*
X80958Y33412D01*
X81397Y34068D01*
X81451Y34343D01*
D02*
G37*
G36*
X79028D02*
X77604D01*
X77658Y34068D01*
X78097Y33412D01*
X78753Y32973D01*
X79028Y32919D01*
Y34343D01*
D02*
G37*
G36*
X143924Y34500D02*
X142500D01*
Y33076D01*
X142774Y33131D01*
X143431Y33569D01*
X143869Y34226D01*
X143924Y34500D01*
D02*
G37*
G36*
X141500D02*
X140076D01*
X140131Y34226D01*
X140569Y33569D01*
X141226Y33131D01*
X141500Y33076D01*
Y34500D01*
D02*
G37*
G36*
X74215Y39783D02*
X72791D01*
Y38360D01*
X73066Y38414D01*
X73722Y38853D01*
X74160Y39509D01*
X74215Y39783D01*
D02*
G37*
G36*
X71791D02*
X70368D01*
X70422Y39509D01*
X70861Y38853D01*
X71517Y38414D01*
X71791Y38360D01*
Y39783D01*
D02*
G37*
G36*
X35469Y41957D02*
X33000D01*
Y39488D01*
X35469D01*
Y41957D01*
D02*
G37*
G36*
X32000D02*
X29531D01*
Y39488D01*
X32000D01*
Y41957D01*
D02*
G37*
G36*
X142500Y36924D02*
Y35500D01*
X143924D01*
X143869Y35774D01*
X143431Y36431D01*
X142774Y36869D01*
X142500Y36924D01*
D02*
G37*
G36*
X141500D02*
X141226Y36869D01*
X140569Y36431D01*
X140131Y35774D01*
X140076Y35500D01*
X141500D01*
Y36924D01*
D02*
G37*
G36*
X33000Y37924D02*
Y36500D01*
X34424D01*
X34369Y36774D01*
X33931Y37431D01*
X33274Y37869D01*
X33000Y37924D01*
D02*
G37*
G36*
X32000D02*
X31726Y37869D01*
X31069Y37431D01*
X30631Y36774D01*
X30576Y36500D01*
X32000D01*
Y37924D01*
D02*
G37*
G36*
X7784Y29876D02*
Y28453D01*
X9207D01*
X9153Y28727D01*
X8714Y29383D01*
X8058Y29822D01*
X7784Y29876D01*
D02*
G37*
G36*
X159343Y25152D02*
X159068Y25098D01*
X158412Y24659D01*
X157973Y24003D01*
X157919Y23728D01*
X159343D01*
Y25152D01*
D02*
G37*
G36*
X41294Y24106D02*
X39870D01*
Y22683D01*
X40144Y22737D01*
X40801Y23176D01*
X41239Y23832D01*
X41294Y24106D01*
D02*
G37*
G36*
X38870Y26530D02*
X38596Y26475D01*
X37940Y26037D01*
X37501Y25381D01*
X37446Y25106D01*
X38870D01*
Y26530D01*
D02*
G37*
G36*
X160343Y25152D02*
Y23728D01*
X161766D01*
X161712Y24003D01*
X161273Y24659D01*
X160617Y25098D01*
X160343Y25152D01*
D02*
G37*
G36*
X159343Y22728D02*
X157919D01*
X157973Y22454D01*
X158412Y21798D01*
X159068Y21359D01*
X159343Y21305D01*
Y22728D01*
D02*
G37*
G36*
X89500Y27806D02*
X88809Y27669D01*
X88223Y27277D01*
X87831Y26691D01*
X87694Y26000D01*
X87831Y25309D01*
X88223Y24723D01*
X88809Y24331D01*
X89500Y24194D01*
X90191Y24331D01*
X90436Y24495D01*
X96896D01*
X97048Y23995D01*
X96723Y23777D01*
X96331Y23191D01*
X96194Y22500D01*
X96331Y21809D01*
X96495Y21564D01*
Y20123D01*
X94376Y18005D01*
X90436D01*
X90191Y18169D01*
X89500Y18306D01*
X88809Y18169D01*
X88223Y17777D01*
X87831Y17191D01*
X87694Y16500D01*
X87831Y15809D01*
X88223Y15223D01*
X88809Y14831D01*
X89500Y14694D01*
X90191Y14831D01*
X90436Y14995D01*
X95000D01*
X95576Y15109D01*
X96064Y15436D01*
X99064Y18436D01*
X99391Y18924D01*
X99505Y19500D01*
Y21564D01*
X99669Y21809D01*
X99806Y22500D01*
X99669Y23191D01*
X99277Y23777D01*
X98952Y23995D01*
X99104Y24495D01*
X102376D01*
X104774Y22097D01*
X104831Y21809D01*
X105223Y21223D01*
X105809Y20831D01*
X106500Y20694D01*
X107191Y20831D01*
X107777Y21223D01*
X108169Y21809D01*
X108306Y22500D01*
X108169Y23191D01*
X107777Y23777D01*
X107191Y24169D01*
X106903Y24226D01*
X104064Y27064D01*
X103576Y27391D01*
X103000Y27505D01*
X90436D01*
X90191Y27669D01*
X89500Y27806D01*
D02*
G37*
G36*
X38870Y24106D02*
X37446D01*
X37501Y23832D01*
X37940Y23176D01*
X38596Y22737D01*
X38870Y22683D01*
Y24106D01*
D02*
G37*
G36*
X161766Y22728D02*
X160343D01*
Y21305D01*
X160617Y21359D01*
X161273Y21798D01*
X161712Y22454D01*
X161766Y22728D01*
D02*
G37*
G36*
X117217Y29483D02*
X116942Y29428D01*
X116286Y28990D01*
X115847Y28333D01*
X115793Y28059D01*
X117217D01*
Y29483D01*
D02*
G37*
G36*
X9207Y27453D02*
X7784D01*
Y26029D01*
X8058Y26084D01*
X8714Y26522D01*
X9153Y27179D01*
X9207Y27453D01*
D02*
G37*
G36*
X6784Y29876D02*
X6509Y29822D01*
X5853Y29383D01*
X5414Y28727D01*
X5360Y28453D01*
X6784D01*
Y29876D01*
D02*
G37*
G36*
X118217Y29483D02*
Y28059D01*
X119640D01*
X119586Y28333D01*
X119147Y28990D01*
X118491Y29428D01*
X118217Y29483D01*
D02*
G37*
G36*
X117217Y27059D02*
X115793D01*
X115847Y26785D01*
X116286Y26129D01*
X116942Y25690D01*
X117217Y25635D01*
Y27059D01*
D02*
G37*
G36*
X39870Y26530D02*
Y25106D01*
X41294D01*
X41239Y25381D01*
X40801Y26037D01*
X40144Y26475D01*
X39870Y26530D01*
D02*
G37*
G36*
X6784Y27453D02*
X5360D01*
X5414Y27179D01*
X5853Y26522D01*
X6509Y26084D01*
X6784Y26029D01*
Y27453D01*
D02*
G37*
G36*
X119640Y27059D02*
X118217D01*
Y25635D01*
X118491Y25690D01*
X119147Y26129D01*
X119586Y26785D01*
X119640Y27059D01*
D02*
G37*
G36*
X5799Y145366D02*
X4375D01*
X4430Y145092D01*
X4869Y144436D01*
X5525Y143997D01*
X5799Y143942D01*
Y145366D01*
D02*
G37*
G36*
X132000Y120957D02*
X129532D01*
Y118488D01*
X132000D01*
Y120957D01*
D02*
G37*
G36*
X8223Y145366D02*
X6799D01*
Y143942D01*
X7073Y143997D01*
X7730Y144436D01*
X8168Y145092D01*
X8223Y145366D01*
D02*
G37*
G36*
X6799Y147790D02*
Y146366D01*
X8223D01*
X8168Y146640D01*
X7730Y147297D01*
X7073Y147735D01*
X6799Y147790D01*
D02*
G37*
G36*
X5799D02*
X5525Y147735D01*
X4869Y147297D01*
X4430Y146640D01*
X4375Y146366D01*
X5799D01*
Y147790D01*
D02*
G37*
G36*
X135468Y120957D02*
X133000D01*
Y118488D01*
X135468D01*
Y120957D01*
D02*
G37*
G36*
X51500Y151372D02*
X50498Y151240D01*
X49564Y150853D01*
X48762Y150238D01*
X48147Y149436D01*
X47760Y148502D01*
X47628Y147500D01*
X47760Y146498D01*
X48147Y145564D01*
X48762Y144762D01*
X49564Y144147D01*
X50498Y143760D01*
X51500Y143628D01*
X52502Y143760D01*
X53436Y144147D01*
X54238Y144762D01*
X54853Y145564D01*
X55240Y146498D01*
X55372Y147500D01*
X55240Y148502D01*
X54853Y149436D01*
X54238Y150238D01*
X53436Y150853D01*
X52502Y151240D01*
X51500Y151372D01*
D02*
G37*
G36*
X127256Y120760D02*
X124000D01*
Y119079D01*
X127256D01*
Y120760D01*
D02*
G37*
G36*
X45240Y161831D02*
X37760D01*
Y153169D01*
X40296D01*
Y151339D01*
X37661D01*
Y143661D01*
X45339D01*
Y151339D01*
X42704D01*
Y153169D01*
X45240D01*
Y161831D01*
D02*
G37*
G36*
X123000Y120760D02*
X119744D01*
Y119079D01*
X123000D01*
Y120760D01*
D02*
G37*
G36*
X86843Y150000D02*
X83322D01*
X83396Y149442D01*
X83804Y148457D01*
X84453Y147611D01*
X85299Y146961D01*
X86285Y146553D01*
X86843Y146480D01*
Y150000D01*
D02*
G37*
G36*
X87843Y154520D02*
Y151000D01*
X91363D01*
X91289Y151558D01*
X90881Y152543D01*
X90232Y153389D01*
X89386Y154039D01*
X88400Y154447D01*
X87843Y154520D01*
D02*
G37*
G36*
X86843D02*
X86285Y154447D01*
X85299Y154039D01*
X84453Y153389D01*
X83804Y152543D01*
X83396Y151558D01*
X83322Y151000D01*
X86843D01*
Y154520D01*
D02*
G37*
G36*
X37000Y109500D02*
X35576D01*
X35631Y109226D01*
X36069Y108569D01*
X36726Y108131D01*
X37000Y108076D01*
Y109500D01*
D02*
G37*
G36*
X154224Y154286D02*
X153950Y154231D01*
X153294Y153793D01*
X152855Y153136D01*
X152801Y152862D01*
X154224D01*
Y154286D01*
D02*
G37*
G36*
X156648Y151862D02*
X155224D01*
Y150438D01*
X155499Y150493D01*
X156155Y150932D01*
X156594Y151588D01*
X156648Y151862D01*
D02*
G37*
G36*
X101024Y154339D02*
X93347D01*
Y146661D01*
X101024D01*
Y154339D01*
D02*
G37*
G36*
X91363Y150000D02*
X87843D01*
Y146480D01*
X88400Y146553D01*
X89386Y146961D01*
X90232Y147611D01*
X90881Y148457D01*
X91289Y149442D01*
X91363Y150000D01*
D02*
G37*
G36*
X140000Y117123D02*
Y114000D01*
X143123D01*
X143063Y114455D01*
X142695Y115345D01*
X142109Y116109D01*
X141344Y116695D01*
X140455Y117063D01*
X140000Y117123D01*
D02*
G37*
G36*
X154224Y151862D02*
X152801D01*
X152855Y151588D01*
X153294Y150932D01*
X153950Y150493D01*
X154224Y150438D01*
Y151862D01*
D02*
G37*
G36*
X139000Y117123D02*
X138545Y117063D01*
X137655Y116695D01*
X136891Y116109D01*
X136305Y115345D01*
X135937Y114455D01*
X135877Y114000D01*
X139000D01*
Y117123D01*
D02*
G37*
G36*
X135256Y131299D02*
X129744D01*
Y129748D01*
X128378D01*
X128221Y129853D01*
X127760Y129944D01*
X127760Y129944D01*
X127043D01*
Y130709D01*
X119957D01*
Y126772D01*
X127043D01*
Y127146D01*
X127458Y127407D01*
X127543Y127421D01*
X127957Y127339D01*
X127957Y127339D01*
X129744D01*
Y125787D01*
X135256D01*
Y127339D01*
X136674D01*
X136723Y127266D01*
X137309Y126874D01*
X138000Y126737D01*
X138691Y126874D01*
X139277Y127266D01*
X139669Y127852D01*
X139806Y128543D01*
X139669Y129235D01*
X139277Y129821D01*
X138691Y130212D01*
X138000Y130350D01*
X137309Y130212D01*
X136723Y129821D01*
X136674Y129748D01*
X135256D01*
Y131299D01*
D02*
G37*
G36*
X161372Y140642D02*
X159949D01*
Y139218D01*
X160223Y139273D01*
X160879Y139711D01*
X161318Y140367D01*
X161372Y140642D01*
D02*
G37*
G36*
X79500Y144947D02*
X79149Y144877D01*
X78427Y144395D01*
X77946Y143674D01*
X77776Y142823D01*
Y141000D01*
X79500D01*
Y144947D01*
D02*
G37*
G36*
X59500Y143306D02*
X58809Y143169D01*
X58223Y142777D01*
X58174Y142704D01*
X43995D01*
X43534Y142613D01*
X43143Y142351D01*
X41212Y140420D01*
X40950Y140029D01*
X40859Y139568D01*
X40859Y139568D01*
Y138961D01*
X40685D01*
Y138179D01*
X40682Y138161D01*
X40685Y138144D01*
Y134921D01*
X40079D01*
Y134315D01*
X36039D01*
Y131559D01*
Y127622D01*
Y123685D01*
X40079D01*
Y123079D01*
X40685D01*
Y119856D01*
X40682Y119839D01*
X40685Y119822D01*
Y119039D01*
X40859D01*
Y116992D01*
X40359Y116841D01*
X40352Y116851D01*
X40352Y116851D01*
X39351Y117851D01*
X38961Y118113D01*
X38500Y118204D01*
X38500Y118204D01*
X37826D01*
X37777Y118277D01*
X37191Y118669D01*
X36500Y118806D01*
X35809Y118669D01*
X35223Y118277D01*
X34831Y117691D01*
X34694Y117000D01*
X34831Y116309D01*
X35151Y115831D01*
X35194Y115500D01*
X35151Y115170D01*
X34831Y114691D01*
X34694Y114000D01*
X34831Y113309D01*
X35223Y112723D01*
X35809Y112331D01*
X36262Y112241D01*
X36468Y111774D01*
X36423Y111667D01*
X36069Y111431D01*
X35631Y110774D01*
X35576Y110500D01*
X37500D01*
Y110000D01*
X38000D01*
Y108076D01*
X38274Y108131D01*
X38931Y108569D01*
X39167Y108923D01*
X39796Y109001D01*
X42347Y106450D01*
X42182Y105908D01*
X41769Y105826D01*
X41113Y105387D01*
X40674Y104731D01*
X40620Y104457D01*
X42543D01*
Y103957D01*
X43043D01*
Y102033D01*
X43317Y102088D01*
X43974Y102526D01*
X44412Y103182D01*
X44495Y103595D01*
X45037Y103760D01*
X45649Y103148D01*
X45649Y103148D01*
X46039Y102887D01*
X46500Y102796D01*
X86531D01*
X86766Y102355D01*
X86631Y102152D01*
X86576Y101878D01*
X90424D01*
X90369Y102152D01*
X90234Y102355D01*
X90469Y102796D01*
X99001D01*
X104403Y97394D01*
Y95738D01*
X104256Y95299D01*
X103903Y95299D01*
X102920D01*
X102911Y95352D01*
X102905Y95424D01*
Y95914D01*
X103169Y96309D01*
X103306Y97000D01*
X103169Y97691D01*
X102777Y98277D01*
X102191Y98669D01*
X101500Y98806D01*
X100809Y98669D01*
X100223Y98277D01*
X99831Y97691D01*
X99694Y97000D01*
X99831Y96309D01*
X100095Y95914D01*
Y95424D01*
X100089Y95352D01*
X100080Y95299D01*
X98744D01*
Y89787D01*
X104256Y89787D01*
X104403Y89349D01*
Y88652D01*
X104256Y88213D01*
X98744D01*
Y86381D01*
X97193D01*
X97049Y86596D01*
X96398Y87032D01*
X95630Y87184D01*
X90984D01*
X90216Y87032D01*
X89565Y86596D01*
X89130Y85945D01*
X88977Y85177D01*
X89130Y84409D01*
X89565Y83758D01*
X90216Y83323D01*
X90984Y83170D01*
X95630D01*
X96398Y83323D01*
X97049Y83758D01*
X97193Y83973D01*
X98744D01*
Y82701D01*
X98744D01*
Y82299D01*
X98744D01*
Y81381D01*
X97193D01*
X97049Y81596D01*
X96398Y82032D01*
X95630Y82184D01*
X90984D01*
X90216Y82032D01*
X89565Y81596D01*
X89130Y80945D01*
X88977Y80177D01*
X89130Y79409D01*
X89565Y78758D01*
X90216Y78323D01*
X90984Y78170D01*
X95630D01*
X96398Y78323D01*
X97049Y78758D01*
X97193Y78973D01*
X98744D01*
Y76787D01*
X104256D01*
Y77371D01*
X104718Y77563D01*
X106296Y75985D01*
Y73000D01*
X106296Y73000D01*
X106387Y72539D01*
X106649Y72149D01*
X108025Y70772D01*
X107819Y70270D01*
X107309Y70169D01*
X106723Y69777D01*
X106674Y69704D01*
X106000D01*
X106000Y69704D01*
X105539Y69613D01*
X105148Y69352D01*
X105148Y69352D01*
X103501Y67704D01*
X102587D01*
X102453Y67957D01*
X102389Y68204D01*
X102613Y68539D01*
X102704Y69000D01*
Y69701D01*
X104256D01*
Y75213D01*
X98744D01*
Y70204D01*
X97464D01*
Y70969D01*
X97403Y71276D01*
X97229Y71536D01*
X96969Y71710D01*
X96661Y71771D01*
X91304D01*
X91269Y71764D01*
X91234Y71768D01*
X91117Y71734D01*
X90997Y71710D01*
X90967Y71690D01*
X90933Y71680D01*
X90637Y71573D01*
X90292Y71702D01*
X90276Y71710D01*
X90217Y71722D01*
X90163Y71747D01*
X90065Y71752D01*
X89969Y71771D01*
X89405D01*
Y73264D01*
X89905Y73531D01*
X90216Y73323D01*
X90984Y73170D01*
X95630D01*
X96398Y73323D01*
X97049Y73758D01*
X97484Y74409D01*
X97637Y75177D01*
X97484Y75945D01*
X97049Y76596D01*
X96398Y77031D01*
X95630Y77184D01*
X90984D01*
X90216Y77031D01*
X89565Y76596D01*
X89556Y76582D01*
X88000D01*
X87462Y76475D01*
X87007Y76171D01*
X86702Y75715D01*
X86595Y75177D01*
Y71771D01*
X85638D01*
X85541Y71752D01*
X85443Y71747D01*
X85389Y71722D01*
X85331Y71710D01*
X85249Y71656D01*
X85160Y71614D01*
X85120Y71569D01*
X85070Y71536D01*
X85015Y71454D01*
X84949Y71382D01*
X83768Y69413D01*
X83728Y69302D01*
X83678Y69195D01*
X83676Y69155D01*
X83663Y69118D01*
X83668Y69000D01*
X83663Y68882D01*
X83676Y68845D01*
X83678Y68805D01*
X83728Y68698D01*
X83768Y68587D01*
X84949Y66618D01*
X85015Y66546D01*
X85070Y66464D01*
X85120Y66431D01*
X85160Y66386D01*
X85249Y66344D01*
X85331Y66290D01*
X85389Y66278D01*
X85443Y66253D01*
X85541Y66248D01*
X85638Y66229D01*
X89969D01*
X90065Y66248D01*
X90163Y66253D01*
X90217Y66278D01*
X90276Y66290D01*
X90458Y66390D01*
X90621Y66433D01*
X90933Y66320D01*
X90967Y66310D01*
X90997Y66290D01*
X91117Y66266D01*
X91234Y66232D01*
X91269Y66236D01*
X91304Y66229D01*
X93288D01*
Y65512D01*
X92681Y64905D01*
X88586D01*
X88191Y65169D01*
X87500Y65306D01*
X76748D01*
X73553Y68502D01*
Y73170D01*
X74370D01*
X75138Y73323D01*
X75660Y73672D01*
X78000D01*
X78576Y73786D01*
X79064Y74113D01*
X79391Y74601D01*
X79505Y75177D01*
Y80177D01*
X79391Y80753D01*
X79064Y81242D01*
X78576Y81568D01*
X78000Y81682D01*
X75660D01*
X75138Y82032D01*
X74370Y82184D01*
X69724D01*
X68956Y82032D01*
X68305Y81596D01*
X67870Y80945D01*
X67717Y80177D01*
X67870Y79409D01*
X68305Y78758D01*
X68956Y78323D01*
X69724Y78170D01*
X74370D01*
X75138Y78323D01*
X75660Y78672D01*
X76495D01*
Y76683D01*
X75660D01*
X75138Y77031D01*
X74370Y77184D01*
X69724D01*
X68956Y77031D01*
X68305Y76596D01*
X67870Y75945D01*
X67717Y75177D01*
X67870Y74409D01*
X68305Y73758D01*
X68956Y73323D01*
X69724Y73170D01*
X70542D01*
Y69306D01*
X64954D01*
Y72359D01*
X65414Y72712D01*
X65856Y73287D01*
X66134Y73958D01*
X66228Y74677D01*
X66134Y75397D01*
X65856Y76067D01*
X65414Y76643D01*
X64839Y77084D01*
X64168Y77362D01*
X63449Y77457D01*
X62729Y77362D01*
X62059Y77084D01*
X61483Y76643D01*
X61041Y76067D01*
X60764Y75397D01*
X60669Y74677D01*
X60764Y73958D01*
X61041Y73287D01*
X61483Y72712D01*
X61944Y72359D01*
Y69306D01*
X58248D01*
X57842Y69713D01*
X57954Y69825D01*
X58280Y70314D01*
X58395Y70890D01*
Y72359D01*
X58855Y72712D01*
X59297Y73287D01*
X59575Y73958D01*
X59669Y74677D01*
X59575Y75397D01*
X59297Y76067D01*
X58855Y76643D01*
X58280Y77084D01*
X57609Y77362D01*
X56890Y77457D01*
X56170Y77362D01*
X55500Y77084D01*
X54924Y76643D01*
X54483Y76067D01*
X54205Y75397D01*
X54110Y74677D01*
X54190Y74072D01*
X53878Y73855D01*
X53743Y73812D01*
X51600Y75955D01*
X51014Y76346D01*
X50323Y76484D01*
X49632Y76346D01*
X49046Y75955D01*
X48654Y75368D01*
X48516Y74677D01*
X48654Y73986D01*
X49046Y73400D01*
X54223Y68223D01*
X56223Y66223D01*
X56809Y65831D01*
X57500Y65694D01*
X71252D01*
X74723Y62223D01*
X75309Y61831D01*
X76000Y61694D01*
X81095D01*
Y60582D01*
X80418Y59905D01*
X78668D01*
X78599Y59911D01*
X78543Y59920D01*
Y60469D01*
X77761D01*
X77744Y60472D01*
X77727Y60469D01*
X71457D01*
Y56532D01*
X77727D01*
X77744Y56528D01*
X77761Y56532D01*
X78543D01*
Y57080D01*
X78599Y57089D01*
X78668Y57095D01*
X81000D01*
X81538Y57202D01*
X81993Y57507D01*
X83493Y59007D01*
X83798Y59462D01*
X83905Y60000D01*
Y61694D01*
X87036D01*
X92262Y56467D01*
X92071Y56005D01*
X91093D01*
X90849Y56169D01*
X90158Y56306D01*
X89466Y56169D01*
X88880Y55777D01*
X88489Y55191D01*
X88351Y54500D01*
X88489Y53809D01*
X88880Y53223D01*
X89466Y52831D01*
X90158Y52694D01*
X90849Y52831D01*
X91093Y52995D01*
X112376D01*
X115774Y49597D01*
X115831Y49309D01*
X116223Y48723D01*
X116809Y48331D01*
X117500Y48194D01*
X118191Y48331D01*
X118777Y48723D01*
X119169Y49309D01*
X119306Y50000D01*
X119253Y50269D01*
X119714Y50516D01*
X123309Y46920D01*
X123331Y46809D01*
X123723Y46223D01*
X124309Y45831D01*
X125000Y45694D01*
X125691Y45831D01*
X126086Y46095D01*
X132500D01*
X133038Y46202D01*
X133493Y46507D01*
X144993Y58007D01*
X145298Y58462D01*
X145405Y59000D01*
Y72918D01*
X146582Y74095D01*
X147365D01*
X147465Y73595D01*
X147460Y73593D01*
X146839Y73117D01*
X146364Y72497D01*
X146065Y71775D01*
X146028Y71500D01*
X148957D01*
X151885D01*
X151849Y71775D01*
X151550Y72497D01*
X151074Y73117D01*
X150454Y73593D01*
X150449Y73595D01*
X150548Y74095D01*
X154638D01*
Y73396D01*
X154078Y72966D01*
X153636Y72390D01*
X153358Y71719D01*
X153264Y71000D01*
X153358Y70281D01*
X153636Y69610D01*
X154078Y69034D01*
X154654Y68593D01*
X155324Y68315D01*
X156043Y68220D01*
X156763Y68315D01*
X157433Y68593D01*
X158009Y69034D01*
X158451Y69610D01*
X158728Y70281D01*
X158823Y71000D01*
X158728Y71719D01*
X158451Y72390D01*
X158009Y72966D01*
X157448Y73396D01*
Y75500D01*
X157341Y76038D01*
X157248Y76178D01*
Y82957D01*
X157156Y83417D01*
X156895Y83808D01*
X156895Y83808D01*
X156322Y84381D01*
Y89225D01*
X156395Y89274D01*
X156787Y89860D01*
X156924Y90551D01*
X156787Y91242D01*
X156395Y91829D01*
X155809Y92220D01*
X155630Y92256D01*
X155647Y92762D01*
X155719Y92772D01*
X156390Y93049D01*
X156781Y93349D01*
X157401Y93322D01*
X157569Y93069D01*
X158226Y92631D01*
X158500Y92576D01*
Y94500D01*
Y96424D01*
X158226Y96369D01*
X158147Y96316D01*
X157545Y96515D01*
X157407Y96846D01*
X156965Y97422D01*
X156390Y97864D01*
X155719Y98142D01*
X155000Y98236D01*
X154281Y98142D01*
X153610Y97864D01*
X153034Y97422D01*
X152593Y96846D01*
X152315Y96176D01*
X152220Y95457D01*
X152315Y94737D01*
X152386Y94565D01*
X152381Y94557D01*
X152348Y94511D01*
X152333Y94492D01*
X150330Y92490D01*
X150142Y92519D01*
X149889Y92894D01*
X149905Y93061D01*
X150466Y93491D01*
X150907Y94067D01*
X151185Y94737D01*
X151280Y95457D01*
X151185Y96176D01*
X150907Y96846D01*
X150466Y97422D01*
X149890Y97864D01*
X149219Y98142D01*
X148500Y98236D01*
X147781Y98142D01*
X147110Y97864D01*
X146535Y97422D01*
X146093Y96846D01*
X145815Y96176D01*
X145720Y95457D01*
X145815Y94737D01*
X146093Y94067D01*
X146371Y93704D01*
X146124Y93204D01*
X144376D01*
X144129Y93704D01*
X144407Y94067D01*
X144685Y94737D01*
X144780Y95457D01*
X144685Y96176D01*
X144407Y96846D01*
X143965Y97422D01*
X143390Y97864D01*
X142719Y98142D01*
X142000Y98236D01*
X141281Y98142D01*
X140610Y97864D01*
X140034Y97422D01*
X139593Y96846D01*
X139315Y96176D01*
X139220Y95457D01*
X139315Y94737D01*
X139593Y94067D01*
X139871Y93704D01*
X139624Y93204D01*
X138256D01*
Y98213D01*
X133299D01*
X132897Y98443D01*
X132805Y98904D01*
X132556Y99277D01*
X132574Y99373D01*
X132724Y99751D01*
X132749Y99778D01*
X133213Y99787D01*
X138256D01*
Y105299D01*
X136704D01*
Y106001D01*
X136924Y106221D01*
X143526D01*
X143526Y106221D01*
X143987Y106313D01*
X144378Y106574D01*
X145600Y107796D01*
X150748D01*
X150748Y107796D01*
X151209Y107887D01*
X151600Y108149D01*
X153816Y110365D01*
X154349Y110144D01*
X155248Y110025D01*
X156147Y110144D01*
X156985Y110491D01*
X157705Y111043D01*
X158257Y111763D01*
X158604Y112601D01*
X158723Y113500D01*
X158604Y114399D01*
X158257Y115237D01*
X157705Y115957D01*
X156985Y116509D01*
X156147Y116856D01*
X155248Y116975D01*
X154349Y116856D01*
X153511Y116509D01*
X152791Y115957D01*
X152239Y115237D01*
X151892Y114399D01*
X151773Y113500D01*
X151892Y112601D01*
X152113Y112068D01*
X150249Y110204D01*
X149559D01*
X149389Y110704D01*
X149831Y111043D01*
X150383Y111763D01*
X150730Y112601D01*
X150849Y113500D01*
X150730Y114399D01*
X150383Y115237D01*
X149831Y115957D01*
X149111Y116509D01*
X148273Y116856D01*
X147374Y116975D01*
X146475Y116856D01*
X145637Y116509D01*
X144917Y115957D01*
X144365Y115237D01*
X144018Y114399D01*
X143899Y113500D01*
X144018Y112601D01*
X144239Y112068D01*
X142506Y110335D01*
X142253Y110372D01*
X142109Y110891D01*
X142695Y111655D01*
X143063Y112545D01*
X143123Y113000D01*
X135877D01*
X135937Y112545D01*
X136305Y111655D01*
X136891Y110891D01*
X137135Y110704D01*
X136966Y110204D01*
X133811D01*
X133641Y110704D01*
X134083Y111043D01*
X134635Y111763D01*
X134982Y112601D01*
X135101Y113500D01*
X134982Y114399D01*
X134635Y115237D01*
X134083Y115957D01*
X133363Y116509D01*
X132525Y116856D01*
X131626Y116975D01*
X130727Y116856D01*
X129889Y116509D01*
X129169Y115957D01*
X128617Y115237D01*
X128270Y114399D01*
X128151Y113500D01*
X128270Y112601D01*
X128617Y111763D01*
X129042Y111208D01*
X128760Y110755D01*
X128500Y110806D01*
X127809Y110669D01*
X127697Y110594D01*
X127197Y110861D01*
Y116945D01*
X120307D01*
Y110055D01*
X122548D01*
Y107717D01*
X122086Y107526D01*
X114961Y114651D01*
X114570Y114912D01*
X114109Y115003D01*
X114109Y115003D01*
X93200D01*
X91503Y116700D01*
Y124336D01*
X91503Y124336D01*
X91412Y124797D01*
X91151Y125188D01*
X91151Y125188D01*
X81837Y134501D01*
X81447Y134762D01*
X80986Y134854D01*
X80986Y134854D01*
X59190D01*
X58729Y134762D01*
X58338Y134501D01*
X58338Y134501D01*
X57978Y134141D01*
X55961D01*
Y134315D01*
X55178D01*
X55161Y134318D01*
X55144Y134315D01*
X51921D01*
Y134921D01*
X51315D01*
Y138512D01*
X53530D01*
X53910Y138189D01*
X54048Y137498D01*
X54439Y136912D01*
X55025Y136520D01*
X55717Y136383D01*
X56408Y136520D01*
X56994Y136912D01*
X57385Y137498D01*
X57523Y138189D01*
X57385Y138880D01*
X56994Y139466D01*
X56501Y139796D01*
X56568Y140257D01*
X56584Y140296D01*
X58174D01*
X58223Y140223D01*
X58809Y139831D01*
X59500Y139694D01*
X60191Y139831D01*
X60777Y140223D01*
X61169Y140809D01*
X61306Y141500D01*
X61169Y142191D01*
X60777Y142777D01*
X60191Y143169D01*
X59500Y143306D01*
D02*
G37*
G36*
X158949Y140642D02*
X157525D01*
X157580Y140367D01*
X158018Y139711D01*
X158675Y139273D01*
X158949Y139218D01*
Y140642D01*
D02*
G37*
G36*
X21653Y150426D02*
X20341Y150297D01*
X19080Y149914D01*
X17917Y149293D01*
X16898Y148457D01*
X16061Y147437D01*
X15440Y146275D01*
X15057Y145013D01*
X14928Y143701D01*
X15057Y142389D01*
X15440Y141127D01*
X16061Y139965D01*
X16898Y138946D01*
X17917Y138109D01*
X19080Y137488D01*
X20341Y137105D01*
X21653Y136976D01*
X22965Y137105D01*
X24227Y137488D01*
X25390Y138109D01*
X26409Y138946D01*
X27245Y139965D01*
X27867Y141127D01*
X28249Y142389D01*
X28378Y143701D01*
X28249Y145013D01*
X27867Y146275D01*
X27245Y147437D01*
X26409Y148457D01*
X25390Y149293D01*
X24227Y149914D01*
X22965Y150297D01*
X21653Y150426D01*
D02*
G37*
G36*
X143700D02*
X142388Y150297D01*
X141127Y149914D01*
X139964Y149293D01*
X138945Y148457D01*
X138109Y147437D01*
X137487Y146275D01*
X137104Y145013D01*
X136975Y143701D01*
X137104Y142389D01*
X137487Y141127D01*
X138109Y139965D01*
X138945Y138946D01*
X139964Y138109D01*
X141127Y137488D01*
X142388Y137105D01*
X143700Y136976D01*
X145012Y137105D01*
X146274Y137488D01*
X147437Y138109D01*
X148456Y138946D01*
X149292Y139965D01*
X149914Y141127D01*
X150296Y142389D01*
X150426Y143701D01*
X150296Y145013D01*
X149914Y146275D01*
X149292Y147437D01*
X148456Y148457D01*
X147437Y149293D01*
X146274Y149914D01*
X145012Y150297D01*
X143700Y150426D01*
D02*
G37*
G36*
X77500Y154372D02*
X76498Y154240D01*
X75564Y153853D01*
X74762Y153238D01*
X74147Y152436D01*
X73760Y151502D01*
X73628Y150500D01*
X73760Y149498D01*
X74147Y148564D01*
X74762Y147762D01*
X75379Y147289D01*
X75486Y146690D01*
X74148Y145352D01*
X73887Y144961D01*
X73796Y144500D01*
X73796Y144500D01*
Y144386D01*
X73581Y144242D01*
X73146Y143591D01*
X72993Y142823D01*
Y138177D01*
X73146Y137409D01*
X73581Y136758D01*
X74232Y136323D01*
X75000Y136170D01*
X75768Y136323D01*
X76419Y136758D01*
X76854Y137409D01*
X77007Y138177D01*
Y142823D01*
X76854Y143591D01*
X76430Y144227D01*
X78351Y146149D01*
X78351Y146149D01*
X78613Y146539D01*
X78670Y146830D01*
X79436Y147147D01*
X80238Y147762D01*
X80853Y148564D01*
X81240Y149498D01*
X81372Y150500D01*
X81240Y151502D01*
X80853Y152436D01*
X80238Y153238D01*
X79436Y153853D01*
X78502Y154240D01*
X77500Y154372D01*
D02*
G37*
G36*
X79500Y140000D02*
X77776D01*
Y138177D01*
X77946Y137326D01*
X78427Y136605D01*
X79149Y136123D01*
X79500Y136053D01*
Y140000D01*
D02*
G37*
G36*
X82224D02*
X80500D01*
Y136053D01*
X80851Y136123D01*
X81573Y136605D01*
X82055Y137326D01*
X82224Y138177D01*
Y140000D01*
D02*
G37*
G36*
X80500Y144947D02*
Y141000D01*
X82224D01*
Y142823D01*
X82055Y143674D01*
X81573Y144395D01*
X80851Y144877D01*
X80500Y144947D01*
D02*
G37*
G36*
X132000Y124425D02*
X129532D01*
Y121957D01*
X132000D01*
Y124425D01*
D02*
G37*
G36*
X135468D02*
X133000D01*
Y121957D01*
X135468D01*
Y124425D01*
D02*
G37*
G36*
X127256Y123441D02*
X124000D01*
Y121760D01*
X127256D01*
Y123441D01*
D02*
G37*
G36*
X100339Y128839D02*
X92661D01*
Y121161D01*
X100339D01*
Y128839D01*
D02*
G37*
G36*
X123000Y123441D02*
X119744D01*
Y121760D01*
X123000D01*
Y123441D01*
D02*
G37*
G36*
X159949Y143065D02*
Y141642D01*
X161372D01*
X161318Y141916D01*
X160879Y142572D01*
X160223Y143011D01*
X159949Y143065D01*
D02*
G37*
G36*
X158949D02*
X158675Y143011D01*
X158018Y142572D01*
X157580Y141916D01*
X157525Y141642D01*
X158949D01*
Y143065D01*
D02*
G37*
G36*
X106500Y128872D02*
X105498Y128740D01*
X104564Y128353D01*
X103762Y127738D01*
X103147Y126936D01*
X102760Y126002D01*
X102628Y125000D01*
X102760Y123998D01*
X103147Y123064D01*
X103762Y122262D01*
X104564Y121647D01*
X105498Y121260D01*
X106500Y121128D01*
X107502Y121260D01*
X108436Y121647D01*
X109238Y122262D01*
X109853Y123064D01*
X109907Y123194D01*
X111689D01*
Y123031D01*
X118776D01*
Y126969D01*
X111689D01*
Y126806D01*
X109907D01*
X109853Y126936D01*
X109238Y127738D01*
X108436Y128353D01*
X107502Y128740D01*
X106500Y128872D01*
D02*
G37*
G36*
X15067Y158026D02*
Y156602D01*
X16491D01*
X16436Y156877D01*
X15998Y157533D01*
X15341Y157972D01*
X15067Y158026D01*
D02*
G37*
G36*
X88000Y100878D02*
X86576D01*
X86631Y100604D01*
X87069Y99947D01*
X87726Y99509D01*
X88000Y99454D01*
Y100878D01*
D02*
G37*
G36*
X90424D02*
X89000D01*
Y99454D01*
X89274Y99509D01*
X89931Y99947D01*
X90369Y100604D01*
X90424Y100878D01*
D02*
G37*
G36*
X133924Y159500D02*
X132500D01*
Y158076D01*
X132774Y158131D01*
X133431Y158569D01*
X133869Y159226D01*
X133924Y159500D01*
D02*
G37*
G36*
X131500D02*
X130076D01*
X130131Y159226D01*
X130569Y158569D01*
X131226Y158131D01*
X131500Y158076D01*
Y159500D01*
D02*
G37*
G36*
X74457Y161280D02*
X73737Y161185D01*
X73067Y160907D01*
X72491Y160466D01*
X72049Y159890D01*
X71978Y159718D01*
X71969Y159716D01*
X71913Y159706D01*
X71889Y159704D01*
X68000D01*
X67539Y159613D01*
X67149Y159352D01*
X67149Y159352D01*
X60149Y152351D01*
X59887Y151961D01*
X59796Y151500D01*
X59796Y151500D01*
Y149000D01*
X59796Y149000D01*
X59887Y148539D01*
X60149Y148149D01*
X63504Y144792D01*
X63581Y144242D01*
X63146Y143591D01*
X62993Y142823D01*
Y138177D01*
X63146Y137409D01*
X63581Y136758D01*
X64232Y136323D01*
X65000Y136170D01*
X65768Y136323D01*
X66419Y136758D01*
X66854Y137409D01*
X67007Y138177D01*
Y142823D01*
X66854Y143591D01*
X66419Y144242D01*
X66204Y144386D01*
Y145000D01*
X66113Y145461D01*
X65851Y145852D01*
X65851Y145852D01*
X62204Y149499D01*
Y151001D01*
X63895Y152692D01*
X64305Y152436D01*
X63918Y151502D01*
X63786Y150500D01*
X63918Y149498D01*
X64305Y148564D01*
X64920Y147762D01*
X65722Y147147D01*
X66453Y146844D01*
Y146843D01*
X66453Y146843D01*
X66545Y146382D01*
X66806Y145991D01*
X68570Y144227D01*
X68146Y143591D01*
X67993Y142823D01*
Y138177D01*
X68146Y137409D01*
X68581Y136758D01*
X69232Y136323D01*
X70000Y136170D01*
X70768Y136323D01*
X71419Y136758D01*
X71854Y137409D01*
X72007Y138177D01*
Y142823D01*
X71854Y143591D01*
X71419Y144242D01*
X71204Y144386D01*
Y144500D01*
X71113Y144961D01*
X70851Y145352D01*
X70851Y145352D01*
X69547Y146656D01*
X69689Y147221D01*
X70395Y147762D01*
X71011Y148564D01*
X71397Y149498D01*
X71529Y150500D01*
X71397Y151502D01*
X71011Y152436D01*
X70395Y153238D01*
X69593Y153853D01*
X68660Y154240D01*
X67658Y154372D01*
X66655Y154240D01*
X65722Y153853D01*
X65466Y154263D01*
X68499Y157296D01*
X71889D01*
X71913Y157294D01*
X71969Y157284D01*
X71978Y157282D01*
X72049Y157110D01*
X72491Y156535D01*
X73067Y156093D01*
X73737Y155815D01*
X74457Y155720D01*
X75176Y155815D01*
X75846Y156093D01*
X76422Y156535D01*
X76864Y157110D01*
X77142Y157781D01*
X77236Y158500D01*
X77142Y159219D01*
X76864Y159890D01*
X76422Y160466D01*
X75846Y160907D01*
X75176Y161185D01*
X74457Y161280D01*
D02*
G37*
G36*
X141500Y102043D02*
X139072D01*
X139108Y101768D01*
X139407Y101046D01*
X139883Y100426D01*
X140503Y99950D01*
X141225Y99651D01*
X141500Y99615D01*
Y102043D01*
D02*
G37*
G36*
X148000D02*
X145572D01*
X145608Y101768D01*
X145907Y101046D01*
X146383Y100426D01*
X147003Y99950D01*
X147725Y99651D01*
X148000Y99615D01*
Y102043D01*
D02*
G37*
G36*
X154500Y102043D02*
X152072D01*
X152108Y101768D01*
X152407Y101046D01*
X152883Y100426D01*
X153503Y99950D01*
X154225Y99651D01*
X154500Y99615D01*
Y102043D01*
D02*
G37*
G36*
X157928D02*
X155500D01*
Y99615D01*
X155775Y99651D01*
X156497Y99950D01*
X157117Y100426D01*
X157593Y101046D01*
X157892Y101768D01*
X157928Y102043D01*
D02*
G37*
G36*
X14067Y158026D02*
X13793Y157972D01*
X13136Y157533D01*
X12698Y156877D01*
X12643Y156602D01*
X14067D01*
Y158026D01*
D02*
G37*
G36*
X25091Y159539D02*
X23667D01*
X23721Y159265D01*
X24160Y158609D01*
X24816Y158170D01*
X25091Y158116D01*
Y159539D01*
D02*
G37*
G36*
X131500Y161924D02*
X131226Y161869D01*
X130569Y161431D01*
X130131Y160774D01*
X130076Y160500D01*
X131500D01*
Y161924D01*
D02*
G37*
G36*
X27764Y94500D02*
X26340D01*
X26395Y94226D01*
X26833Y93569D01*
X27490Y93131D01*
X27764Y93076D01*
Y94500D01*
D02*
G37*
G36*
X30187D02*
X28764D01*
Y93076D01*
X29038Y93131D01*
X29694Y93569D01*
X30133Y94226D01*
X30187Y94500D01*
D02*
G37*
G36*
X26091Y161963D02*
Y160539D01*
X27514D01*
X27460Y160814D01*
X27021Y161470D01*
X26365Y161908D01*
X26091Y161963D01*
D02*
G37*
G36*
X25091D02*
X24816Y161908D01*
X24160Y161470D01*
X23721Y160814D01*
X23667Y160539D01*
X25091D01*
Y161963D01*
D02*
G37*
G36*
X132500Y161924D02*
Y160500D01*
X133924D01*
X133869Y160774D01*
X133431Y161431D01*
X132774Y161869D01*
X132500Y161924D01*
D02*
G37*
G36*
X93791Y96018D02*
X93517Y95964D01*
X92861Y95525D01*
X92422Y94869D01*
X92368Y94595D01*
X93791D01*
Y96018D01*
D02*
G37*
G36*
X94791D02*
Y94595D01*
X96215D01*
X96161Y94869D01*
X95722Y95525D01*
X95065Y95964D01*
X94791Y96018D01*
D02*
G37*
G36*
X159500Y96424D02*
Y95000D01*
X160924D01*
X160869Y95274D01*
X160431Y95931D01*
X159774Y96369D01*
X159500Y96424D01*
D02*
G37*
G36*
X82043Y161428D02*
Y159000D01*
X84472D01*
X84435Y159275D01*
X84136Y159997D01*
X83661Y160617D01*
X83040Y161093D01*
X82318Y161392D01*
X82043Y161428D01*
D02*
G37*
G36*
X81043Y161428D02*
X80768Y161392D01*
X80046Y161093D01*
X79426Y160617D01*
X78950Y159997D01*
X78651Y159275D01*
X78615Y159000D01*
X81043D01*
Y161428D01*
D02*
G37*
G36*
X27514Y159539D02*
X26091D01*
Y158116D01*
X26365Y158170D01*
X27021Y158609D01*
X27460Y159265D01*
X27514Y159539D01*
D02*
G37*
G36*
X154500Y105472D02*
X154225Y105435D01*
X153503Y105136D01*
X152883Y104660D01*
X152407Y104040D01*
X152108Y103318D01*
X152072Y103043D01*
X154500D01*
Y105472D01*
D02*
G37*
G36*
X155500D02*
Y103043D01*
X157928D01*
X157892Y103318D01*
X157593Y104040D01*
X157117Y104660D01*
X156497Y105136D01*
X155775Y105435D01*
X155500Y105472D01*
D02*
G37*
G36*
X16491Y155602D02*
X15067D01*
Y154179D01*
X15341Y154233D01*
X15998Y154672D01*
X16436Y155328D01*
X16491Y155602D01*
D02*
G37*
G36*
X81043Y158000D02*
X78615D01*
X78651Y157725D01*
X78950Y157003D01*
X79426Y156383D01*
X80046Y155907D01*
X80768Y155608D01*
X81043Y155572D01*
Y158000D01*
D02*
G37*
G36*
X141500Y105472D02*
X141225Y105435D01*
X140503Y105136D01*
X139883Y104660D01*
X139407Y104040D01*
X139108Y103318D01*
X139072Y103043D01*
X141500D01*
Y105472D01*
D02*
G37*
G36*
X149000D02*
Y103043D01*
X151428D01*
X151392Y103318D01*
X151093Y104040D01*
X150617Y104660D01*
X149997Y105136D01*
X149275Y105435D01*
X149000Y105472D01*
D02*
G37*
G36*
X155224Y154286D02*
Y152862D01*
X156648D01*
X156594Y153136D01*
X156155Y153793D01*
X155499Y154231D01*
X155224Y154286D01*
D02*
G37*
G36*
X14067Y155602D02*
X12643D01*
X12698Y155328D01*
X13136Y154672D01*
X13793Y154233D01*
X14067Y154179D01*
Y155602D01*
D02*
G37*
G36*
X148000Y105472D02*
X147725Y105435D01*
X147003Y105136D01*
X146383Y104660D01*
X145907Y104040D01*
X145608Y103318D01*
X145572Y103043D01*
X148000D01*
Y105472D01*
D02*
G37*
G36*
X142500D02*
Y103043D01*
X144928D01*
X144892Y103318D01*
X144593Y104040D01*
X144117Y104660D01*
X143497Y105136D01*
X142775Y105435D01*
X142500Y105472D01*
D02*
G37*
G36*
X84472Y158000D02*
X82043D01*
Y155572D01*
X82318Y155608D01*
X83040Y155907D01*
X83661Y156383D01*
X84136Y157003D01*
X84435Y157725D01*
X84472Y158000D01*
D02*
G37*
G36*
X56657Y161831D02*
X49177D01*
Y153169D01*
X56657D01*
Y156296D01*
X58674D01*
X58723Y156223D01*
X59309Y155831D01*
X60000Y155694D01*
X60691Y155831D01*
X61277Y156223D01*
X61669Y156809D01*
X61806Y157500D01*
X61669Y158191D01*
X61277Y158777D01*
X60691Y159169D01*
X60000Y159306D01*
X59309Y159169D01*
X58723Y158777D01*
X58674Y158704D01*
X56657D01*
Y161831D01*
D02*
G37*
G36*
X144928Y102043D02*
X142500D01*
Y99615D01*
X142775Y99651D01*
X143497Y99950D01*
X144117Y100426D01*
X144593Y101046D01*
X144892Y101768D01*
X144928Y102043D01*
D02*
G37*
G36*
X151428D02*
X149000D01*
Y99615D01*
X149275Y99651D01*
X149997Y99950D01*
X150617Y100426D01*
X151093Y101046D01*
X151392Y101768D01*
X151428Y102043D01*
D02*
G37*
G36*
X34417Y106921D02*
X30362D01*
Y102079D01*
X34417D01*
Y102894D01*
X35835D01*
X38309Y100420D01*
X38331Y100309D01*
X38723Y99723D01*
X39309Y99331D01*
X40000Y99194D01*
X40691Y99331D01*
X41277Y99723D01*
X41669Y100309D01*
X41806Y101000D01*
X41688Y101594D01*
X41887Y101892D01*
X42042Y102033D01*
X42043Y102033D01*
Y103457D01*
X40620D01*
X40644Y103334D01*
X40183Y103087D01*
X37635Y105635D01*
X37115Y105983D01*
X36500Y106106D01*
X36500Y106106D01*
X34417D01*
Y106921D01*
D02*
G37*
%LPD*%
G36*
X77750Y51554D02*
X77767Y51504D01*
X77797Y51460D01*
X77838Y51421D01*
X77891Y51389D01*
X77956Y51362D01*
X78033Y51341D01*
X78122Y51327D01*
X78222Y51318D01*
X78334Y51315D01*
Y50724D01*
X78222Y50722D01*
X78122Y50713D01*
X78033Y50698D01*
X77956Y50677D01*
X77891Y50651D01*
X77838Y50618D01*
X77797Y50580D01*
X77767Y50535D01*
X77750Y50485D01*
X77744Y50429D01*
Y51610D01*
X77750Y51554D01*
D02*
G37*
G36*
X26990Y52881D02*
X27036Y52270D01*
X27076Y51993D01*
X27128Y51736D01*
X27191Y51499D01*
X27266Y51281D01*
X27353Y51082D01*
X27450Y50903D01*
X27560Y50744D01*
X24440D01*
X24550Y50903D01*
X24647Y51082D01*
X24734Y51281D01*
X24809Y51499D01*
X24872Y51736D01*
X24924Y51993D01*
X24964Y52270D01*
X25010Y52881D01*
X25016Y53217D01*
X26984D01*
X26990Y52881D01*
D02*
G37*
G36*
X106490Y23484D02*
X105516Y22510D01*
X105098Y22927D01*
X106073Y23902D01*
X106490Y23484D01*
D02*
G37*
G36*
X42213Y153973D02*
X42146Y153949D01*
X42087Y153909D01*
X42035Y153853D01*
X41992Y153781D01*
X41957Y153693D01*
X41929Y153589D01*
X41909Y153469D01*
X41898Y153333D01*
X41894Y153181D01*
X41106D01*
X41102Y153333D01*
X41091Y153469D01*
X41071Y153589D01*
X41043Y153693D01*
X41008Y153781D01*
X40965Y153853D01*
X40913Y153909D01*
X40854Y153949D01*
X40787Y153973D01*
X40713Y153981D01*
X42287D01*
X42213Y153973D01*
D02*
G37*
G36*
X41898Y151175D02*
X41909Y151039D01*
X41929Y150919D01*
X41957Y150815D01*
X41992Y150727D01*
X42035Y150655D01*
X42087Y150599D01*
X42146Y150559D01*
X42213Y150535D01*
X42287Y150527D01*
X40713D01*
X40787Y150535D01*
X40854Y150559D01*
X40913Y150599D01*
X40965Y150655D01*
X41008Y150727D01*
X41043Y150815D01*
X41071Y150919D01*
X41091Y151039D01*
X41102Y151175D01*
X41106Y151327D01*
X41894D01*
X41898Y151175D01*
D02*
G37*
G36*
X130555Y127756D02*
X130547Y127831D01*
X130524Y127898D01*
X130483Y127957D01*
X130428Y128008D01*
X130356Y128051D01*
X130268Y128087D01*
X130164Y128114D01*
X130044Y128134D01*
X129908Y128146D01*
X129756Y128150D01*
Y128937D01*
X129908Y128941D01*
X130044Y128953D01*
X130164Y128972D01*
X130268Y129000D01*
X130356Y129035D01*
X130428Y129079D01*
X130483Y129130D01*
X130524Y129189D01*
X130547Y129256D01*
X130555Y129331D01*
Y127756D01*
D02*
G37*
G36*
X134452Y129256D02*
X134476Y129189D01*
X134517Y129130D01*
X134572Y129079D01*
X134644Y129035D01*
X134732Y129000D01*
X134836Y128972D01*
X134956Y128953D01*
X135092Y128941D01*
X135244Y128937D01*
Y128150D01*
X135092Y128146D01*
X134956Y128134D01*
X134836Y128114D01*
X134732Y128087D01*
X134644Y128051D01*
X134572Y128008D01*
X134517Y127957D01*
X134476Y127898D01*
X134452Y127831D01*
X134444Y127756D01*
Y129331D01*
X134452Y129256D01*
D02*
G37*
G36*
X126252Y129453D02*
X126275Y129386D01*
X126315Y129327D01*
X126370Y129276D01*
X126441Y129232D01*
X126527Y129197D01*
X126630Y129169D01*
X126748Y129150D01*
X126882Y129138D01*
X127031Y129134D01*
Y128347D01*
X126882Y128342D01*
X126748Y128331D01*
X126630Y128311D01*
X126527Y128284D01*
X126441Y128248D01*
X126370Y128205D01*
X126315Y128154D01*
X126275Y128094D01*
X126252Y128028D01*
X126244Y127953D01*
Y129528D01*
X126252Y129453D01*
D02*
G37*
G36*
X42459Y138799D02*
X42486Y138445D01*
X42503Y138358D01*
X42523Y138287D01*
X42547Y138232D01*
X42575Y138193D01*
X42606Y138169D01*
X42641Y138161D01*
X41484D01*
X41520Y138169D01*
X41551Y138193D01*
X41579Y138232D01*
X41603Y138287D01*
X41623Y138358D01*
X41640Y138445D01*
X41653Y138547D01*
X41667Y138799D01*
X41669Y138949D01*
X42457D01*
X42459Y138799D01*
D02*
G37*
G36*
X44427D02*
X44455Y138445D01*
X44471Y138358D01*
X44492Y138287D01*
X44516Y138232D01*
X44543Y138193D01*
X44575Y138169D01*
X44610Y138161D01*
X43453D01*
X43488Y138169D01*
X43519Y138193D01*
X43547Y138232D01*
X43571Y138287D01*
X43592Y138358D01*
X43608Y138445D01*
X43621Y138547D01*
X43636Y138799D01*
X43638Y138949D01*
X44425D01*
X44427Y138799D01*
D02*
G37*
G36*
X102213Y70504D02*
X102146Y70480D01*
X102087Y70440D01*
X102035Y70384D01*
X101992Y70312D01*
X101957Y70224D01*
X101929Y70121D01*
X101909Y70001D01*
X101898Y69865D01*
X101894Y69713D01*
X101106D01*
X101102Y69865D01*
X101091Y70001D01*
X101071Y70121D01*
X101043Y70224D01*
X101008Y70312D01*
X100965Y70384D01*
X100913Y70440D01*
X100854Y70480D01*
X100787Y70504D01*
X100713Y70512D01*
X102287D01*
X102213Y70504D01*
D02*
G37*
G36*
X57377Y70403D02*
X57209Y70234D01*
X56489Y69410D01*
X56476Y69373D01*
X55373Y70476D01*
X55410Y70489D01*
X55461Y70518D01*
X55528Y70565D01*
X55609Y70629D01*
X55940Y70926D01*
X56403Y71377D01*
X57377Y70403D01*
D02*
G37*
G36*
X96661Y67032D02*
X91304D01*
X92331Y69000D01*
X91304Y70969D01*
X96661D01*
Y67032D01*
D02*
G37*
G36*
X142120Y79386D02*
X142038Y79383D01*
X141957Y79373D01*
X141877Y79356D01*
X141799Y79332D01*
X141722Y79300D01*
X141645Y79262D01*
X141570Y79216D01*
X141497Y79163D01*
X141424Y79103D01*
X141353Y79036D01*
X140796Y79593D01*
X140863Y79664D01*
X140923Y79737D01*
X140976Y79811D01*
X141022Y79886D01*
X141060Y79962D01*
X141092Y80039D01*
X141116Y80117D01*
X141133Y80197D01*
X141143Y80278D01*
X141146Y80360D01*
X142120Y79386D01*
D02*
G37*
G36*
X103453Y80256D02*
X103477Y80189D01*
X103516Y80130D01*
X103572Y80079D01*
X103644Y80035D01*
X103732Y80000D01*
X103836Y79972D01*
X103956Y79953D01*
X104092Y79941D01*
X104244Y79937D01*
Y79150D01*
X104092Y79146D01*
X103956Y79134D01*
X103836Y79114D01*
X103732Y79087D01*
X103644Y79051D01*
X103572Y79008D01*
X103516Y78957D01*
X103477Y78898D01*
X103453Y78831D01*
X103445Y78756D01*
Y80331D01*
X103453Y80256D01*
D02*
G37*
G36*
X142902Y74338D02*
X142702Y74038D01*
X142595Y73500D01*
Y59582D01*
X131918Y48905D01*
X126086D01*
X125691Y49169D01*
X125580Y49191D01*
X116872Y57899D01*
X116351Y58247D01*
X115736Y58369D01*
X115736Y58369D01*
X94901D01*
X91638Y61633D01*
X91829Y62095D01*
X93263D01*
X93632Y62168D01*
X94193Y61909D01*
X94213Y61809D01*
X94605Y61223D01*
X95191Y60831D01*
X95882Y60694D01*
X96573Y60831D01*
X97159Y61223D01*
X97208Y61296D01*
X105000D01*
X105000Y61296D01*
X105461Y61387D01*
X105851Y61648D01*
X107999Y63796D01*
X110134D01*
X110401Y63296D01*
X110331Y63191D01*
X110194Y62500D01*
X110331Y61809D01*
X110723Y61223D01*
X111309Y60831D01*
X112000Y60694D01*
X112691Y60831D01*
X113277Y61223D01*
X113326Y61296D01*
X115501D01*
X116176Y60621D01*
X116567Y60360D01*
X117028Y60268D01*
X117028Y60268D01*
X123674D01*
X123723Y60195D01*
X124309Y59804D01*
X125000Y59666D01*
X125691Y59804D01*
X126277Y60195D01*
X126669Y60781D01*
X126806Y61472D01*
X126669Y62164D01*
X126277Y62750D01*
X125691Y63141D01*
X125000Y63279D01*
X124309Y63141D01*
X123723Y62750D01*
X123674Y62677D01*
X117862D01*
X117742Y62831D01*
X117732Y62924D01*
X117885Y63461D01*
X118277Y63723D01*
X118669Y64309D01*
X118806Y65000D01*
X118669Y65691D01*
X118277Y66277D01*
X117691Y66669D01*
X117053Y66796D01*
X117103Y67296D01*
X136454D01*
X136454Y67296D01*
X136915Y67387D01*
X137306Y67649D01*
X140816Y71159D01*
X140816Y71159D01*
X141077Y71549D01*
X141169Y72010D01*
Y74456D01*
X141669Y74785D01*
X142130Y74694D01*
X142621Y74791D01*
X142902Y74338D01*
D02*
G37*
G36*
X77756Y59559D02*
X77791Y59461D01*
X77850Y59374D01*
X77933Y59299D01*
X78039Y59235D01*
X78169Y59183D01*
X78323Y59143D01*
X78500Y59114D01*
X78701Y59096D01*
X78925Y59091D01*
Y57910D01*
X78701Y57904D01*
X78500Y57886D01*
X78323Y57857D01*
X78169Y57817D01*
X78039Y57765D01*
X77933Y57701D01*
X77850Y57626D01*
X77791Y57539D01*
X77756Y57441D01*
X77744Y57331D01*
Y59669D01*
X77756Y59559D01*
D02*
G37*
G36*
X55750Y111546D02*
X55650Y111043D01*
X55788Y110352D01*
X56179Y109766D01*
X56765Y109374D01*
X57457Y109237D01*
X58148Y109374D01*
X58543Y109638D01*
X66349D01*
X66809Y109331D01*
X67500Y109194D01*
X68191Y109331D01*
X68645Y109033D01*
X68659Y108962D01*
X68963Y108507D01*
X69419Y108202D01*
X69957Y108095D01*
X71061D01*
X71491Y107535D01*
X71824Y107279D01*
X71654Y106779D01*
X47651D01*
X45596Y108834D01*
X45788Y109296D01*
X52294D01*
X52294Y109296D01*
X52755Y109387D01*
X53146Y109649D01*
X55290Y111793D01*
X55750Y111546D01*
D02*
G37*
G36*
X136213Y93504D02*
X136146Y93480D01*
X136087Y93440D01*
X136035Y93384D01*
X135992Y93312D01*
X135957Y93224D01*
X135929Y93120D01*
X135909Y93001D01*
X135898Y92865D01*
X135894Y92713D01*
X135106D01*
X135102Y92865D01*
X135091Y93001D01*
X135071Y93120D01*
X135043Y93224D01*
X135008Y93312D01*
X134965Y93384D01*
X134913Y93440D01*
X134854Y93480D01*
X134787Y93504D01*
X134713Y93512D01*
X136287D01*
X136213Y93504D01*
D02*
G37*
G36*
X91150Y69000D02*
X89969Y67032D01*
X85638D01*
X84457Y69000D01*
X85638Y70969D01*
X89969D01*
X91150Y69000D01*
D02*
G37*
G36*
X135898Y105138D02*
X135909Y105004D01*
X135929Y104886D01*
X135957Y104783D01*
X135992Y104697D01*
X136035Y104626D01*
X136087Y104571D01*
X136146Y104531D01*
X136213Y104508D01*
X136287Y104500D01*
X134713D01*
X134787Y104508D01*
X134854Y104531D01*
X134913Y104571D01*
X134965Y104626D01*
X135008Y104697D01*
X135043Y104783D01*
X135071Y104886D01*
X135091Y105004D01*
X135102Y105138D01*
X135106Y105287D01*
X135894D01*
X135898Y105138D01*
D02*
G37*
G36*
X78602Y123195D02*
X78581Y122982D01*
X78146Y122331D01*
X77993Y121563D01*
Y116917D01*
X78146Y116149D01*
X78581Y115498D01*
X79232Y115063D01*
X80000Y114910D01*
X80768Y115063D01*
X81419Y115498D01*
X81854Y116149D01*
X82007Y116917D01*
Y121220D01*
X82462Y121419D01*
X82796Y121152D01*
Y113592D01*
X82796Y113592D01*
X82887Y113131D01*
X83148Y112740D01*
X88648Y107241D01*
X88456Y106779D01*
X82695D01*
X82525Y107279D01*
X82661Y107383D01*
X83136Y108003D01*
X83435Y108725D01*
X83472Y109000D01*
X80543D01*
X77615D01*
X77651Y108725D01*
X77950Y108003D01*
X78426Y107383D01*
X78561Y107279D01*
X78392Y106779D01*
X75259D01*
X75089Y107279D01*
X75422Y107535D01*
X75864Y108110D01*
X76142Y108781D01*
X76236Y109500D01*
X76142Y110219D01*
X75864Y110890D01*
X75698Y111106D01*
X75728Y111310D01*
X75874Y111698D01*
X76431Y112069D01*
X76869Y112726D01*
X76924Y113000D01*
X75000D01*
Y114000D01*
X76924D01*
X76869Y114274D01*
X76561Y114736D01*
X76573Y115345D01*
X77055Y116066D01*
X77224Y116917D01*
Y118740D01*
X75000D01*
Y119740D01*
X77224D01*
Y121563D01*
X77055Y122414D01*
X76573Y123135D01*
X76333Y123296D01*
X76484Y123796D01*
X78001D01*
X78602Y123195D01*
D02*
G37*
G36*
X154210Y92735D02*
X154303Y92693D01*
X154349Y92519D01*
X154355Y92274D01*
X154328Y92154D01*
X153841Y91829D01*
X153449Y91242D01*
X153312Y90551D01*
X153449Y89860D01*
X153841Y89274D01*
X153914Y89225D01*
Y83882D01*
X153914Y83882D01*
X154006Y83421D01*
X154267Y83030D01*
X154839Y82458D01*
Y76905D01*
X146000D01*
X145462Y76798D01*
X145007Y76493D01*
X144305Y75792D01*
X143844Y76038D01*
X143936Y76500D01*
X143919Y76586D01*
X145352Y78019D01*
X145613Y78409D01*
X145704Y78870D01*
X145704Y78870D01*
Y81134D01*
X146136Y81403D01*
X146189Y81411D01*
X146309Y81331D01*
X147000Y81194D01*
X147691Y81331D01*
X148277Y81723D01*
X148669Y82309D01*
X148806Y83000D01*
X148669Y83691D01*
X148277Y84277D01*
X148204Y84326D01*
Y85500D01*
X148154Y85753D01*
X148481Y86170D01*
X148536Y86201D01*
X149191Y86331D01*
X149777Y86723D01*
X150169Y87309D01*
X150306Y88000D01*
X150169Y88691D01*
X149777Y89277D01*
X149951Y89748D01*
X149999Y89796D01*
X150543D01*
X150543Y89796D01*
X151004Y89887D01*
X151395Y90149D01*
X154009Y92763D01*
X154210Y92735D01*
D02*
G37*
G36*
X102096Y95454D02*
X102114Y95251D01*
X102144Y95072D01*
X102185Y94917D01*
X102238Y94786D01*
X102303Y94679D01*
X102380Y94595D01*
X102469Y94535D01*
X102569Y94500D01*
X102681Y94488D01*
X100319D01*
X100431Y94500D01*
X100531Y94535D01*
X100620Y94595D01*
X100697Y94679D01*
X100762Y94786D01*
X100815Y94917D01*
X100856Y95072D01*
X100886Y95251D01*
X100903Y95454D01*
X100909Y95681D01*
X102091D01*
X102096Y95454D01*
D02*
G37*
G36*
X147107Y90709D02*
X147355Y90296D01*
X147296Y90000D01*
X147296Y90000D01*
Y89326D01*
X147223Y89277D01*
X146831Y88691D01*
X146713Y88100D01*
X146467Y87910D01*
X146408Y87873D01*
X146225Y87792D01*
X145835Y87870D01*
X145835Y87870D01*
X140711D01*
X140250Y87778D01*
X139860Y87517D01*
X139860Y87517D01*
X137831Y85489D01*
X137370Y85680D01*
Y87562D01*
X137278Y88023D01*
X137017Y88413D01*
X135096Y90334D01*
X135288Y90796D01*
X147010D01*
X147107Y90709D01*
D02*
G37*
G36*
X148970Y93540D02*
X148954Y93520D01*
X148940Y93490D01*
X148928Y93450D01*
X148917Y93400D01*
X148909Y93340D01*
X148898Y93190D01*
X148894Y93000D01*
X148106D01*
X148105Y93100D01*
X148083Y93400D01*
X148072Y93450D01*
X148060Y93490D01*
X148046Y93520D01*
X148030Y93540D01*
X148012Y93550D01*
X148988D01*
X148970Y93540D01*
D02*
G37*
G36*
X124189Y95108D02*
Y92816D01*
X123689Y92486D01*
X123228Y92578D01*
X122537Y92440D01*
X121951Y92049D01*
X121902Y91976D01*
X120887D01*
X112204Y100658D01*
Y103174D01*
X112277Y103223D01*
X112669Y103809D01*
X112806Y104500D01*
X112669Y105191D01*
X112277Y105777D01*
X111691Y106169D01*
X111000Y106306D01*
X110309Y106169D01*
X109723Y105777D01*
X109331Y105191D01*
X109194Y104500D01*
X109331Y103809D01*
X109723Y103223D01*
X109796Y103174D01*
Y100569D01*
X109296Y100362D01*
X102249Y107409D01*
X102440Y107871D01*
X111426D01*
X124189Y95108D01*
D02*
G37*
G36*
X154281Y93624D02*
X154200Y93649D01*
X154116Y93660D01*
X154030Y93657D01*
X153941Y93641D01*
X153850Y93611D01*
X153757Y93568D01*
X153661Y93511D01*
X153562Y93440D01*
X153461Y93356D01*
X153358Y93258D01*
X152801Y93814D01*
X152899Y93918D01*
X152983Y94019D01*
X153054Y94117D01*
X153111Y94213D01*
X153154Y94307D01*
X153184Y94398D01*
X153200Y94487D01*
X153203Y94573D01*
X153192Y94656D01*
X153167Y94738D01*
X154281Y93624D01*
D02*
G37*
G36*
X131897Y84895D02*
X131905Y84801D01*
X131920Y84711D01*
X131941Y84626D01*
X131967Y84545D01*
X132000Y84468D01*
X132038Y84395D01*
X132083Y84327D01*
X132133Y84263D01*
X132189Y84203D01*
X130811D01*
X130867Y84263D01*
X130917Y84327D01*
X130962Y84395D01*
X131000Y84468D01*
X131033Y84545D01*
X131059Y84626D01*
X131080Y84711D01*
X131095Y84801D01*
X131103Y84895D01*
X131106Y84993D01*
X131894D01*
X131897Y84895D01*
D02*
G37*
G36*
X112700Y96756D02*
X112535Y96214D01*
X112309Y96169D01*
X111723Y95777D01*
X111331Y95191D01*
X111194Y94500D01*
X111331Y93809D01*
X111723Y93223D01*
X112309Y92831D01*
X113000Y92694D01*
X113086Y92711D01*
X116520Y89277D01*
Y87602D01*
X116447Y87553D01*
X116056Y86967D01*
X115918Y86276D01*
X116056Y85584D01*
X116447Y84998D01*
X117033Y84607D01*
X117724Y84469D01*
X118416Y84607D01*
X119002Y84998D01*
X119393Y85584D01*
X119531Y86276D01*
X119393Y86967D01*
X119002Y87553D01*
X118929Y87602D01*
Y89776D01*
X118918Y89832D01*
X119378Y90078D01*
X119536Y89920D01*
X119536Y89920D01*
X119927Y89659D01*
X120388Y89567D01*
X121902D01*
X121951Y89494D01*
X122537Y89103D01*
X123228Y88965D01*
X123920Y89103D01*
X124506Y89494D01*
X124760Y89875D01*
X125351Y89992D01*
X127796Y87547D01*
Y86826D01*
X127723Y86777D01*
X127331Y86191D01*
X127194Y85500D01*
X127331Y84809D01*
X127723Y84223D01*
X128309Y83831D01*
X129000Y83694D01*
X129104Y83714D01*
X129574Y83413D01*
X129627Y83100D01*
X129273Y82752D01*
X129000Y82806D01*
X128309Y82669D01*
X127723Y82277D01*
X127331Y81691D01*
X127194Y81000D01*
X127331Y80309D01*
X127723Y79723D01*
X128309Y79331D01*
X129000Y79194D01*
X129691Y79331D01*
X130277Y79723D01*
X130326Y79796D01*
X132819D01*
X132819Y79796D01*
X133280Y79887D01*
X133536Y80059D01*
X134036Y79864D01*
Y74466D01*
X133999Y74429D01*
X116971D01*
X116693Y74929D01*
X116806Y75500D01*
X116669Y76191D01*
X116277Y76777D01*
X116204Y76826D01*
Y77971D01*
X116204Y77971D01*
X116113Y78431D01*
X115851Y78822D01*
X115851Y78822D01*
X113854Y80820D01*
Y85032D01*
X113854Y85032D01*
X113762Y85492D01*
X113501Y85883D01*
X113501Y85883D01*
X109961Y89423D01*
Y98788D01*
X110461Y98995D01*
X112700Y96756D01*
D02*
G37*
G36*
X99555Y79390D02*
X99547Y79465D01*
X99524Y79532D01*
X99484Y79591D01*
X99428Y79642D01*
X99356Y79685D01*
X99268Y79720D01*
X99164Y79748D01*
X99044Y79768D01*
X98908Y79779D01*
X98756Y79783D01*
Y80571D01*
X98908Y80575D01*
X99044Y80587D01*
X99164Y80606D01*
X99268Y80634D01*
X99356Y80669D01*
X99428Y80713D01*
X99484Y80764D01*
X99524Y80823D01*
X99547Y80890D01*
X99555Y80965D01*
Y79390D01*
D02*
G37*
G36*
X134397Y86895D02*
X134406Y86801D01*
X134420Y86711D01*
X134441Y86626D01*
X134467Y86545D01*
X134500Y86468D01*
X134538Y86396D01*
X134583Y86327D01*
X134633Y86263D01*
X134689Y86203D01*
X133311D01*
X133367Y86263D01*
X133417Y86327D01*
X133462Y86396D01*
X133500Y86468D01*
X133533Y86545D01*
X133559Y86626D01*
X133580Y86711D01*
X133595Y86801D01*
X133603Y86895D01*
X133606Y86993D01*
X134394D01*
X134397Y86895D01*
D02*
G37*
G36*
X103453Y86169D02*
X103477Y86102D01*
X103516Y86043D01*
X103572Y85992D01*
X103644Y85949D01*
X103732Y85913D01*
X103836Y85886D01*
X103956Y85866D01*
X104092Y85854D01*
X104244Y85850D01*
Y85063D01*
X104092Y85059D01*
X103956Y85047D01*
X103836Y85028D01*
X103732Y85000D01*
X103644Y84965D01*
X103572Y84921D01*
X103516Y84870D01*
X103477Y84811D01*
X103453Y84744D01*
X103445Y84669D01*
Y86244D01*
X103453Y86169D01*
D02*
G37*
G36*
X99555Y84390D02*
X99547Y84465D01*
X99524Y84531D01*
X99484Y84591D01*
X99428Y84642D01*
X99356Y84685D01*
X99268Y84720D01*
X99164Y84748D01*
X99044Y84768D01*
X98908Y84780D01*
X98756Y84784D01*
Y85571D01*
X98908Y85575D01*
X99044Y85587D01*
X99164Y85606D01*
X99268Y85634D01*
X99356Y85669D01*
X99428Y85713D01*
X99484Y85764D01*
X99524Y85823D01*
X99547Y85890D01*
X99555Y85965D01*
Y84390D01*
D02*
G37*
G36*
X142713Y93612D02*
X142646Y93561D01*
X142587Y93498D01*
X142535Y93424D01*
X142492Y93339D01*
X142457Y93242D01*
X142429Y93133D01*
X142409Y93014D01*
X142398Y92883D01*
X142394Y92741D01*
X141606D01*
X141602Y92883D01*
X141591Y93014D01*
X141571Y93133D01*
X141543Y93242D01*
X141508Y93339D01*
X141465Y93424D01*
X141413Y93498D01*
X141354Y93561D01*
X141287Y93612D01*
X141213Y93652D01*
X142787D01*
X142713Y93612D01*
D02*
G37*
G36*
X80397Y123261D02*
X80426Y122939D01*
X80451Y122808D01*
X80483Y122697D01*
X80522Y122607D01*
X80568Y122536D01*
X80622Y122486D01*
X80683Y122456D01*
X80751Y122446D01*
X79250D01*
X79317Y122456D01*
X79378Y122486D01*
X79431Y122536D01*
X79478Y122607D01*
X79517Y122697D01*
X79549Y122808D01*
X79574Y122939D01*
X79592Y123090D01*
X79603Y123261D01*
X79606Y123453D01*
X80394D01*
X80397Y123261D01*
D02*
G37*
G36*
X55169Y125606D02*
X55193Y125575D01*
X55232Y125547D01*
X55287Y125523D01*
X55358Y125503D01*
X55445Y125486D01*
X55547Y125473D01*
X55799Y125459D01*
X55949Y125457D01*
Y124669D01*
X55799Y124667D01*
X55445Y124640D01*
X55358Y124623D01*
X55287Y124603D01*
X55232Y124579D01*
X55193Y124551D01*
X55169Y124520D01*
X55161Y124484D01*
Y125642D01*
X55169Y125606D01*
D02*
G37*
G36*
Y127575D02*
X55193Y127543D01*
X55232Y127516D01*
X55287Y127492D01*
X55358Y127471D01*
X55445Y127455D01*
X55547Y127442D01*
X55799Y127427D01*
X55949Y127425D01*
Y126638D01*
X55799Y126636D01*
X55445Y126608D01*
X55358Y126592D01*
X55287Y126571D01*
X55232Y126547D01*
X55193Y126520D01*
X55169Y126488D01*
X55161Y126453D01*
Y127610D01*
X55169Y127575D01*
D02*
G37*
G36*
X46543Y119831D02*
X46512Y119807D01*
X46484Y119768D01*
X46460Y119713D01*
X46440Y119642D01*
X46423Y119555D01*
X46410Y119453D01*
X46395Y119201D01*
X46394Y119051D01*
X45606D01*
X45605Y119201D01*
X45577Y119555D01*
X45560Y119642D01*
X45540Y119713D01*
X45516Y119768D01*
X45488Y119807D01*
X45457Y119831D01*
X45421Y119839D01*
X46579D01*
X46543Y119831D01*
D02*
G37*
G36*
X48512D02*
X48480Y119807D01*
X48453Y119768D01*
X48429Y119713D01*
X48408Y119642D01*
X48392Y119555D01*
X48379Y119453D01*
X48364Y119201D01*
X48362Y119051D01*
X47575D01*
X47573Y119201D01*
X47545Y119555D01*
X47529Y119642D01*
X47508Y119713D01*
X47484Y119768D01*
X47456Y119807D01*
X47425Y119831D01*
X47390Y119839D01*
X48547D01*
X48512Y119831D01*
D02*
G37*
G36*
X50511Y121976D02*
X50536Y121909D01*
X50576Y121850D01*
X50631Y121799D01*
X50703Y121756D01*
X50791Y121721D01*
X50895Y121693D01*
X51015Y121673D01*
X51151Y121661D01*
X51303Y121658D01*
Y120870D01*
X51151Y120866D01*
X51015Y120854D01*
X50895Y120835D01*
X50791Y120807D01*
X50703Y120772D01*
X50631Y120728D01*
X50576Y120677D01*
X50536Y120618D01*
X50511Y120551D01*
X50504Y120476D01*
Y122051D01*
X50511Y121976D01*
D02*
G37*
G36*
X55169Y131512D02*
X55193Y131481D01*
X55232Y131453D01*
X55287Y131429D01*
X55358Y131408D01*
X55445Y131392D01*
X55547Y131379D01*
X55799Y131364D01*
X55949Y131362D01*
Y130575D01*
X55799Y130573D01*
X55445Y130545D01*
X55358Y130529D01*
X55287Y130508D01*
X55232Y130484D01*
X55193Y130456D01*
X55169Y130425D01*
X55161Y130390D01*
Y131547D01*
X55169Y131512D01*
D02*
G37*
G36*
Y133480D02*
X55193Y133449D01*
X55232Y133421D01*
X55287Y133397D01*
X55358Y133377D01*
X55445Y133360D01*
X55547Y133347D01*
X55799Y133333D01*
X55949Y133331D01*
Y132543D01*
X55799Y132542D01*
X55445Y132514D01*
X55358Y132497D01*
X55287Y132477D01*
X55232Y132453D01*
X55193Y132425D01*
X55169Y132394D01*
X55161Y132359D01*
Y133516D01*
X55169Y133480D01*
D02*
G37*
G36*
X46543Y135303D02*
X46512Y135280D01*
X46484Y135240D01*
X46460Y135185D01*
X46440Y135114D01*
X46423Y135028D01*
X46410Y134925D01*
X46395Y134673D01*
X46395Y134641D01*
X46398Y134545D01*
X46409Y134409D01*
X46429Y134289D01*
X46457Y134185D01*
X46492Y134097D01*
X46535Y134025D01*
X46587Y133969D01*
X46646Y133929D01*
X46713Y133905D01*
X46787Y133897D01*
X45213D01*
X45287Y133905D01*
X45354Y133929D01*
X45413Y133969D01*
X45465Y134025D01*
X45508Y134097D01*
X45543Y134185D01*
X45571Y134289D01*
X45591Y134409D01*
X45602Y134545D01*
X45605Y134641D01*
X45605Y134673D01*
X45577Y135028D01*
X45560Y135114D01*
X45540Y135185D01*
X45516Y135240D01*
X45488Y135280D01*
X45457Y135303D01*
X45421Y135311D01*
X46579D01*
X46543Y135303D01*
D02*
G37*
G36*
X69050Y123296D02*
X68581Y122982D01*
X68146Y122331D01*
X67993Y121563D01*
Y116917D01*
X68146Y116149D01*
X68581Y115498D01*
X68595Y115489D01*
Y113000D01*
X68436Y112870D01*
X68095Y112688D01*
X67500Y112806D01*
X66809Y112669D01*
X66479Y112448D01*
X58543D01*
X58148Y112712D01*
X57457Y112850D01*
X56954Y112750D01*
X56708Y113210D01*
X57092Y113595D01*
X57092Y113595D01*
X57353Y113985D01*
X57444Y114446D01*
X57444Y114446D01*
Y116514D01*
X58966Y118036D01*
X62993D01*
Y116917D01*
X63146Y116149D01*
X63581Y115498D01*
X64232Y115063D01*
X65000Y114910D01*
X65768Y115063D01*
X66419Y115498D01*
X66854Y116149D01*
X67007Y116917D01*
Y121563D01*
X66854Y122331D01*
X66419Y122982D01*
X65950Y123296D01*
X66102Y123796D01*
X68898D01*
X69050Y123296D01*
D02*
G37*
G36*
X124465Y110847D02*
X124398Y110823D01*
X124339Y110784D01*
X124287Y110729D01*
X124244Y110658D01*
X124209Y110571D01*
X124181Y110469D01*
X124161Y110351D01*
X124150Y110217D01*
X124146Y110067D01*
X123358D01*
X123354Y110217D01*
X123343Y110351D01*
X123323Y110469D01*
X123295Y110571D01*
X123260Y110658D01*
X123216Y110729D01*
X123165Y110784D01*
X123106Y110823D01*
X123039Y110847D01*
X122965Y110854D01*
X124539D01*
X124465Y110847D01*
D02*
G37*
G36*
X37487Y113908D02*
X37497Y113827D01*
X37514Y113748D01*
X37538Y113669D01*
X37569Y113592D01*
X37608Y113515D01*
X37654Y113441D01*
X37707Y113367D01*
X37767Y113294D01*
X37834Y113223D01*
X37277Y112666D01*
X37206Y112733D01*
X37133Y112793D01*
X37059Y112846D01*
X36985Y112892D01*
X36908Y112931D01*
X36831Y112962D01*
X36753Y112986D01*
X36673Y113003D01*
X36592Y113013D01*
X36510Y113016D01*
X37484Y113990D01*
X37487Y113908D01*
D02*
G37*
G36*
X75397Y114895D02*
X75406Y114801D01*
X75420Y114711D01*
X75441Y114626D01*
X75467Y114545D01*
X75500Y114468D01*
X75538Y114395D01*
X75583Y114327D01*
X75633Y114263D01*
X75689Y114203D01*
X74311D01*
X74367Y114263D01*
X74417Y114327D01*
X74462Y114395D01*
X74500Y114468D01*
X74533Y114545D01*
X74559Y114626D01*
X74580Y114711D01*
X74594Y114801D01*
X74603Y114895D01*
X74606Y114993D01*
X75394D01*
X75397Y114895D01*
D02*
G37*
G36*
X117490Y50984D02*
X116516Y50010D01*
X116098Y50427D01*
X117073Y51402D01*
X117490Y50984D01*
D02*
G37*
G36*
X42606Y119831D02*
X42575Y119807D01*
X42547Y119768D01*
X42523Y119713D01*
X42503Y119642D01*
X42486Y119555D01*
X42473Y119453D01*
X42459Y119201D01*
X42457Y119051D01*
X41669D01*
X41667Y119201D01*
X41640Y119555D01*
X41623Y119642D01*
X41603Y119713D01*
X41579Y119768D01*
X41551Y119807D01*
X41520Y119831D01*
X41484Y119839D01*
X42641D01*
X42606Y119831D01*
D02*
G37*
G36*
X44575D02*
X44543Y119807D01*
X44516Y119768D01*
X44492Y119713D01*
X44471Y119642D01*
X44455Y119555D01*
X44442Y119453D01*
X44427Y119201D01*
X44425Y119051D01*
X43638D01*
X43636Y119201D01*
X43608Y119555D01*
X43592Y119642D01*
X43571Y119713D01*
X43547Y119768D01*
X43519Y119807D01*
X43488Y119831D01*
X43453Y119839D01*
X44610D01*
X44575Y119831D01*
D02*
G37*
G36*
X75707Y116047D02*
X75641Y116016D01*
X75583Y115965D01*
X75533Y115893D01*
X75490Y115800D01*
X75455Y115687D01*
X75428Y115553D01*
X75409Y115398D01*
X75398Y115223D01*
X75394Y115028D01*
X74606D01*
X74602Y115223D01*
X74572Y115553D01*
X74545Y115687D01*
X74510Y115800D01*
X74467Y115893D01*
X74417Y115965D01*
X74359Y116016D01*
X74293Y116047D01*
X74220Y116057D01*
X75780D01*
X75707Y116047D01*
D02*
G37*
G36*
X46814Y117895D02*
X46823Y117801D01*
X46838Y117711D01*
X46858Y117626D01*
X46885Y117545D01*
X46917Y117468D01*
X46956Y117395D01*
X47000Y117327D01*
X47050Y117263D01*
X47106Y117203D01*
X45728D01*
X45784Y117263D01*
X45835Y117327D01*
X45879Y117395D01*
X45917Y117468D01*
X45950Y117545D01*
X45976Y117626D01*
X45997Y117711D01*
X46012Y117801D01*
X46021Y117895D01*
X46024Y117993D01*
X46811D01*
X46814Y117895D01*
D02*
G37*
G36*
X63833Y118453D02*
X63825Y118528D01*
X63801Y118595D01*
X63761Y118654D01*
X63705Y118705D01*
X63633Y118748D01*
X63545Y118783D01*
X63441Y118811D01*
X63321Y118831D01*
X63185Y118842D01*
X63033Y118846D01*
Y119634D01*
X63185Y119638D01*
X63321Y119650D01*
X63441Y119669D01*
X63545Y119697D01*
X63633Y119732D01*
X63705Y119776D01*
X63761Y119827D01*
X63801Y119886D01*
X63825Y119953D01*
X63833Y120028D01*
Y118453D01*
D02*
G37*
%LPC*%
G36*
X81043Y112428D02*
Y110000D01*
X83472D01*
X83435Y110275D01*
X83136Y110997D01*
X82661Y111617D01*
X82040Y112093D01*
X81318Y112392D01*
X81043Y112428D01*
D02*
G37*
G36*
X80043Y112428D02*
X79768Y112392D01*
X79046Y112093D01*
X78426Y111617D01*
X77950Y110997D01*
X77651Y110275D01*
X77615Y110000D01*
X80043D01*
Y112428D01*
D02*
G37*
%LPD*%
G36*
X75395Y144380D02*
X75419Y144028D01*
X75430Y143972D01*
X75443Y143928D01*
X75458Y143896D01*
X75475Y143877D01*
X75493Y143871D01*
X74507D01*
X74525Y143877D01*
X74542Y143896D01*
X74557Y143928D01*
X74570Y143972D01*
X74581Y144028D01*
X74590Y144097D01*
X74602Y144273D01*
X74606Y144500D01*
X75394D01*
X75395Y144380D01*
D02*
G37*
G36*
X77999Y147485D02*
X77977Y147467D01*
X77957Y147440D01*
X77940Y147404D01*
X77926Y147359D01*
X77915Y147305D01*
X77905Y147242D01*
X77899Y147171D01*
X77894Y147000D01*
X77106D01*
X77105Y147090D01*
X77095Y147242D01*
X77086Y147305D01*
X77074Y147359D01*
X77060Y147404D01*
X77043Y147440D01*
X77023Y147467D01*
X77001Y147485D01*
X76976Y147494D01*
X78024D01*
X77999Y147485D01*
D02*
G37*
G36*
X70395Y144380D02*
X70419Y144028D01*
X70430Y143972D01*
X70443Y143928D01*
X70458Y143896D01*
X70474Y143877D01*
X70493Y143871D01*
X69507D01*
X69525Y143877D01*
X69542Y143896D01*
X69557Y143928D01*
X69570Y143972D01*
X69581Y144028D01*
X69590Y144097D01*
X69602Y144273D01*
X69606Y144500D01*
X70394D01*
X70395Y144380D01*
D02*
G37*
G36*
X72653Y157713D02*
X72613Y157787D01*
X72561Y157854D01*
X72498Y157913D01*
X72424Y157965D01*
X72339Y158008D01*
X72242Y158043D01*
X72133Y158071D01*
X72014Y158091D01*
X71883Y158102D01*
X71741Y158106D01*
Y158894D01*
X71883Y158898D01*
X72014Y158909D01*
X72133Y158929D01*
X72242Y158957D01*
X72339Y158992D01*
X72424Y159035D01*
X72498Y159087D01*
X72561Y159146D01*
X72613Y159213D01*
X72653Y159287D01*
Y157713D01*
D02*
G37*
G36*
X68305Y147512D02*
X68252Y147480D01*
X68205Y147439D01*
X68164Y147386D01*
X68130Y147322D01*
X68101Y147248D01*
X68079Y147163D01*
X68064Y147067D01*
X68054Y146960D01*
X68051Y146843D01*
X67264D01*
X67261Y146960D01*
X67251Y147067D01*
X67236Y147163D01*
X67214Y147248D01*
X67185Y147322D01*
X67151Y147386D01*
X67110Y147439D01*
X67063Y147480D01*
X67010Y147512D01*
X66950Y147532D01*
X68365D01*
X68305Y147512D01*
D02*
G37*
G36*
X55866Y158213D02*
X55890Y158146D01*
X55929Y158087D01*
X55984Y158035D01*
X56055Y157992D01*
X56142Y157957D01*
X56244Y157929D01*
X56362Y157909D01*
X56496Y157898D01*
X56646Y157894D01*
Y157106D01*
X56496Y157102D01*
X56362Y157091D01*
X56244Y157071D01*
X56142Y157043D01*
X56055Y157008D01*
X55984Y156965D01*
X55929Y156913D01*
X55890Y156854D01*
X55866Y156787D01*
X55858Y156713D01*
Y158287D01*
X55866Y158213D01*
D02*
G37*
%LPC*%
G36*
X14756Y122433D02*
X11933D01*
X11973Y122132D01*
X12282Y121386D01*
X12773Y120746D01*
X13414Y120254D01*
X14160Y119945D01*
X14756Y119867D01*
Y122433D01*
D02*
G37*
G36*
X15756Y108480D02*
Y105913D01*
X18579D01*
X18539Y106214D01*
X18230Y106960D01*
X17739Y107601D01*
X17098Y108092D01*
X16352Y108401D01*
X15756Y108480D01*
D02*
G37*
G36*
X8169Y131441D02*
X7291D01*
Y128748D01*
X11296D01*
X11253Y129074D01*
X10934Y129844D01*
X10427Y130506D01*
X9766Y131013D01*
X8996Y131332D01*
X8169Y131441D01*
D02*
G37*
G36*
X11296Y127748D02*
X7291D01*
Y125055D01*
X8169D01*
X8996Y125164D01*
X9766Y125483D01*
X10427Y125990D01*
X10934Y126652D01*
X11253Y127422D01*
X11296Y127748D01*
D02*
G37*
G36*
X15756Y125999D02*
Y123433D01*
X18579D01*
X18539Y123734D01*
X18230Y124480D01*
X17739Y125120D01*
X17098Y125612D01*
X16352Y125921D01*
X15756Y125999D01*
D02*
G37*
G36*
X14756D02*
X14160Y125921D01*
X13414Y125612D01*
X12773Y125120D01*
X12282Y124480D01*
X11973Y123734D01*
X11933Y123433D01*
X14756D01*
Y125999D01*
D02*
G37*
G36*
Y108480D02*
X14160Y108401D01*
X13414Y108092D01*
X12773Y107601D01*
X12282Y106960D01*
X11973Y106214D01*
X11933Y105913D01*
X14756D01*
Y108480D01*
D02*
G37*
G36*
X11692Y99598D02*
X7291D01*
Y96707D01*
X8366D01*
X9244Y96823D01*
X10062Y97162D01*
X10764Y97701D01*
X11303Y98403D01*
X11642Y99221D01*
X11692Y99598D01*
D02*
G37*
G36*
X18579Y104913D02*
X15756D01*
Y102347D01*
X16352Y102425D01*
X17098Y102734D01*
X17739Y103226D01*
X18230Y103867D01*
X18539Y104613D01*
X18579Y104913D01*
D02*
G37*
G36*
X8366Y103490D02*
X7291D01*
Y100598D01*
X11692D01*
X11642Y100976D01*
X11303Y101794D01*
X10764Y102496D01*
X10062Y103035D01*
X9244Y103374D01*
X8366Y103490D01*
D02*
G37*
G36*
X14756Y104913D02*
X11933D01*
X11973Y104613D01*
X12282Y103867D01*
X12773Y103226D01*
X13414Y102734D01*
X14160Y102425D01*
X14756Y102347D01*
Y104913D01*
D02*
G37*
%LPD*%
D13*
X142000Y102543D02*
D03*
Y95457D02*
D03*
X148500D02*
D03*
Y102543D02*
D03*
X26000Y49543D02*
D03*
Y42457D02*
D03*
X74457Y158500D02*
D03*
X81543D02*
D03*
X73457Y109500D02*
D03*
X80543D02*
D03*
X63449Y74677D02*
D03*
Y81764D02*
D03*
X56890D02*
D03*
Y74677D02*
D03*
X13000Y42457D02*
D03*
Y49543D02*
D03*
X156043Y71000D02*
D03*
X148957D02*
D03*
X155000Y95457D02*
D03*
Y102543D02*
D03*
D17*
X23610Y104500D02*
D03*
X32390D02*
D03*
D18*
X24000Y112488D02*
D03*
Y123512D02*
D03*
D19*
X41500Y157500D02*
D03*
X52917D02*
D03*
D30*
X135500Y95457D02*
D03*
Y102543D02*
D03*
X32500Y49543D02*
D03*
Y42457D02*
D03*
X19500Y42457D02*
D03*
Y49543D02*
D03*
X132500Y128543D02*
D03*
Y121457D02*
D03*
X101500Y79543D02*
D03*
Y72457D02*
D03*
Y85457D02*
D03*
Y92543D02*
D03*
D34*
X57457Y111043D02*
X69957D01*
X88500Y95957D02*
Y101378D01*
Y95957D02*
X89000Y95457D01*
X69957Y109500D02*
Y111043D01*
Y109500D02*
X73457D01*
X144000Y73500D02*
X146000Y75500D01*
X144000Y59000D02*
Y73500D01*
X132500Y47500D02*
X144000Y59000D01*
X156043Y71000D02*
Y75500D01*
X146000D02*
X156043D01*
X125000Y47500D02*
X132500D01*
X101500Y92543D02*
Y97000D01*
X93263Y63500D02*
X94693Y64930D01*
X87500Y63500D02*
X93263D01*
X94693Y64930D02*
Y69000D01*
X88000D02*
Y75177D01*
X93307D01*
X161760Y117740D02*
X162000Y117500D01*
X7500Y49543D02*
X13000D01*
X18500Y119291D02*
X24000D01*
Y123512D01*
X23610Y104500D02*
Y112488D01*
X24000D01*
X75000Y58500D02*
X81000D01*
X82500Y60000D01*
Y63500D01*
X70000Y111000D02*
Y119240D01*
D35*
X52294Y110500D02*
X56240Y114446D01*
X44517Y110500D02*
X52294D01*
X58467Y119240D02*
X65000D01*
X56240Y117013D02*
X58467Y119240D01*
X56240Y114446D02*
Y117013D01*
X52067Y112500D02*
X54665Y115098D01*
Y117665D01*
X62000Y125000D01*
X46000Y112500D02*
X52067D01*
X155118Y90551D02*
X155118Y90551D01*
X155118Y83882D02*
Y90551D01*
X148500Y88000D02*
Y90000D01*
X149500Y91000D01*
X150543D01*
X155000Y95457D01*
X148500Y93000D02*
Y95457D01*
X135500Y92000D02*
X142000D01*
X133954D02*
X135500D01*
Y95457D01*
X155037Y107425D02*
X161575D01*
X148500D02*
X155037D01*
X155000Y107388D02*
X155037Y107425D01*
X155000Y102543D02*
Y107388D01*
X145753Y107425D02*
X148500D01*
Y102543D02*
Y107425D01*
X161575D02*
X162000Y107000D01*
X144179Y105850D02*
X145753Y107425D01*
X142000Y105850D02*
X144179D01*
X142000Y102543D02*
Y105850D01*
X135500Y102543D02*
Y106500D01*
X142000Y95457D02*
Y96457D01*
Y92000D02*
Y95457D01*
X150748Y109000D02*
X155248Y113500D01*
X145101Y109000D02*
X150748D01*
X143526Y107425D02*
X145101Y109000D01*
X136425Y107425D02*
X143526D01*
X135500Y106500D02*
X136425Y107425D01*
X142000Y92000D02*
X147500D01*
X148500Y93000D01*
X131693Y94261D02*
X133954Y92000D01*
X131693Y94261D02*
Y98443D01*
X125136Y105000D02*
X131693Y98443D01*
X142874Y109000D02*
X147374Y113500D01*
X128500Y109000D02*
X142874D01*
X129000Y85500D02*
Y88046D01*
X125394Y91652D02*
X129000Y88046D01*
X125394Y91652D02*
Y95606D01*
X136165Y84347D02*
Y87562D01*
X130118Y93609D02*
X136165Y87562D01*
X130118Y93609D02*
Y97790D01*
X114109Y113799D02*
X130118Y97790D01*
X92701Y113799D02*
X114109D01*
X131500Y83500D02*
Y87773D01*
X126969Y92304D02*
X131500Y87773D01*
X126969Y92304D02*
Y96486D01*
X134000Y85500D02*
Y87500D01*
X128543Y92957D02*
X134000Y87500D01*
X128543Y92957D02*
Y97138D01*
X113457Y112224D02*
X128543Y97138D01*
X92049Y112224D02*
X113457D01*
X112805Y110650D02*
X126969Y96486D01*
X111925Y109075D02*
X125394Y95606D01*
X123752Y106384D02*
X125136Y105000D01*
X131000D01*
X144500Y78870D02*
Y81341D01*
X144492D02*
X144500D01*
X144492D02*
Y81349D01*
X143108Y82732D02*
X144492Y81349D01*
X139965Y78205D02*
X142130Y80370D01*
X147000Y83000D02*
Y85500D01*
X144307Y84307D02*
X144500Y84500D01*
X141232Y82732D02*
X143108D01*
X138390Y79890D02*
X141232Y82732D01*
X140711Y86665D02*
X145835D01*
X135240Y81194D02*
X140711Y86665D01*
X140580Y84307D02*
X144307D01*
X136815Y80542D02*
X140580Y84307D01*
X123752Y106384D02*
Y113500D01*
X112000Y62500D02*
X116000D01*
X129000Y81000D02*
X132819D01*
X136165Y84347D01*
X136815Y73315D02*
Y80542D01*
X138390Y72663D02*
Y79890D01*
X142130Y76500D02*
X144500Y78870D01*
X135240Y73967D02*
Y81194D01*
X134497Y73224D02*
X135240Y73967D01*
X113957Y73224D02*
X134497D01*
X139965Y72010D02*
Y78205D01*
X136454Y68500D02*
X139965Y72010D01*
X112000Y68500D02*
X136454D01*
X135802Y70075D02*
X138390Y72663D01*
X112652Y70075D02*
X135802D01*
X135150Y71650D02*
X136815Y73315D01*
X113305Y71650D02*
X135150D01*
X90744Y109075D02*
X111925D01*
X111000Y100159D02*
X120388Y90772D01*
X123228D01*
X113000Y94500D02*
X117724Y89776D01*
X112650Y80321D02*
X115000Y77971D01*
Y75500D02*
Y77971D01*
X90092Y107500D02*
X100454D01*
X111075Y79669D02*
X112224Y78519D01*
Y74957D02*
Y78519D01*
Y74957D02*
X113957Y73224D01*
X109500Y79017D02*
X109624Y78892D01*
Y78814D02*
Y78892D01*
Y78814D02*
X110650Y77788D01*
Y74305D02*
Y77788D01*
Y74305D02*
X113305Y71650D01*
X108049Y78161D02*
Y78240D01*
Y78161D02*
X109075Y77136D01*
Y73652D02*
Y77136D01*
Y73652D02*
X112652Y70075D01*
X104440Y79543D02*
X107500Y76484D01*
Y73000D02*
Y76484D01*
Y73000D02*
X112000Y68500D01*
X104000Y66500D02*
X106000Y68500D01*
X108000D01*
X99500Y66500D02*
X104000D01*
X107970Y78240D02*
X108049D01*
X107000Y79211D02*
X107970Y78240D01*
X107000Y79211D02*
Y84000D01*
X101500Y79543D02*
X104440D01*
X105543Y85457D02*
X107000Y84000D01*
X111000Y100159D02*
Y104500D01*
X58477Y132937D02*
X59190Y133650D01*
X80986D01*
X53736Y132937D02*
X58477D01*
X58736Y130968D02*
X59842Y132075D01*
X80334D01*
X53736Y130968D02*
X58736D01*
X60046Y125273D02*
X61698Y126925D01*
X78802D01*
X60000Y125273D02*
X60046D01*
X55991Y121264D02*
X60000Y125273D01*
X49937Y121264D02*
X55991D01*
X57563Y125063D02*
X61000Y128500D01*
X79454D01*
X53736Y125063D02*
X57563D01*
X57026Y127032D02*
X60495Y130500D01*
X79681D01*
X53736Y127032D02*
X57026D01*
X91396Y110650D02*
X112805D01*
X47152Y105575D02*
X100152D01*
X41240Y111487D02*
X47152Y105575D01*
X46500Y104000D02*
X99500D01*
X39665Y110835D02*
X46500Y104000D01*
X62000Y125000D02*
X78500D01*
X69957Y111043D02*
X70000Y111000D01*
X44032Y114469D02*
X46000Y112500D01*
X44032Y114469D02*
Y121264D01*
X42063Y112953D02*
X44517Y110500D01*
X42063Y112953D02*
Y121264D01*
X38500Y117000D02*
X39500Y116000D01*
Y113289D02*
Y116000D01*
Y113289D02*
X41240Y111549D01*
Y111487D02*
Y111549D01*
X39665Y110835D02*
Y110897D01*
X38397Y112165D02*
X39665Y110897D01*
X38335Y112165D02*
X38397D01*
X36500Y114000D02*
X38335Y112165D01*
X36500Y117000D02*
X38500D01*
X40000Y106500D02*
Y107500D01*
X37500Y110000D02*
X40000Y107500D01*
Y106500D02*
X42543Y103957D01*
X132500Y128543D02*
X138000D01*
X127760Y121260D02*
X127957Y121457D01*
X132500D01*
X123500Y121260D02*
X127760D01*
X127760Y128740D02*
X127957Y128543D01*
X132500D01*
X123500Y128740D02*
X127760D01*
X156043Y75500D02*
Y82957D01*
X154000Y62500D02*
X162000D01*
X148957Y67543D02*
X154000Y62500D01*
X148957Y67543D02*
Y71000D01*
X155118Y83882D02*
X156043Y82957D01*
X142000Y30000D02*
Y35000D01*
X145835Y86665D02*
X147000Y85500D01*
X117724Y86276D02*
Y89776D01*
X101500Y85457D02*
X105543D01*
X100866Y80177D02*
X101500Y79543D01*
X93307Y80177D02*
X100866D01*
X101221Y85177D02*
X101500Y85457D01*
X93307Y85177D02*
X101221D01*
X107500Y65000D02*
X117000D01*
X116000Y62500D02*
X117028Y61472D01*
X105000Y62500D02*
X107500Y65000D01*
X95882Y62500D02*
X105000D01*
X117028Y61472D02*
X125000D01*
X67658Y146843D02*
Y150500D01*
Y146843D02*
X70000Y144500D01*
Y140500D02*
Y144500D01*
X75000Y140500D02*
Y144500D01*
X77500Y147000D01*
Y150500D01*
X41500Y147500D02*
Y157500D01*
X52917D02*
X60000D01*
X68000Y158500D02*
X74457D01*
X61000Y151500D02*
X68000Y158500D01*
X61000Y149000D02*
Y151500D01*
Y149000D02*
X65000Y145000D01*
Y140500D02*
Y145000D01*
X78500Y125000D02*
X80000Y123500D01*
Y119240D02*
Y123500D01*
X47969Y119835D02*
Y121264D01*
X46000Y118500D02*
X46417Y118083D01*
Y116500D02*
Y118083D01*
X46000Y118500D02*
Y121264D01*
X47969D02*
X47969Y121264D01*
Y119037D02*
Y121264D01*
Y119037D02*
X50006Y117000D01*
X52500D01*
X46000Y129000D02*
Y136736D01*
X44032D02*
Y139032D01*
X44717Y139716D01*
X42063Y136736D02*
Y139568D01*
X43995Y141500D02*
X59500D01*
X42063Y139568D02*
X43995Y141500D01*
X44717Y139716D02*
X54189D01*
X55717Y138189D01*
X94693Y69000D02*
X101500D01*
Y72457D01*
X60760Y54760D02*
X66732D01*
X52500Y46500D02*
X60760Y54760D01*
X75000Y113500D02*
Y119240D01*
X84000Y113592D02*
X90092Y107500D01*
X85575Y114244D02*
X90744Y109075D01*
X87150Y114896D02*
X91396Y110650D01*
X88724Y115549D02*
X92049Y112224D01*
X90299Y116201D02*
X92701Y113799D01*
X84000Y113592D02*
Y121727D01*
X78802Y126925D02*
X84000Y121727D01*
X79454Y128500D02*
X85575Y122379D01*
Y114244D02*
Y122379D01*
X79681Y130500D02*
X87150Y123032D01*
Y114896D02*
Y123032D01*
X80334Y132075D02*
X88724Y123684D01*
Y115549D02*
Y123684D01*
X80986Y133650D02*
X90299Y124336D01*
Y116201D02*
Y124336D01*
X109500Y79017D02*
Y83727D01*
X112650Y80321D02*
Y85032D01*
X111075Y79669D02*
Y84379D01*
X105607Y87620D02*
X109500Y83727D01*
X100454Y107500D02*
X108757Y99197D01*
X100152Y105575D02*
X107182Y98545D01*
X99500Y104000D02*
X105607Y97892D01*
X108757Y88924D02*
X112650Y85032D01*
X108757Y88924D02*
Y99197D01*
X107182Y88272D02*
Y98545D01*
Y88272D02*
X111075Y84379D01*
X105607Y87620D02*
Y97892D01*
D36*
X57500Y95000D02*
X62500Y100000D01*
X36000Y95000D02*
X57500D01*
X32500Y98500D02*
X36000Y95000D01*
X23500Y98500D02*
X32500D01*
X17264Y92264D02*
X23500Y98500D01*
X7264Y92264D02*
X17264D01*
X161957Y121457D02*
X162000Y121500D01*
X106500Y125000D02*
X115232D01*
X81043Y95457D02*
X89000D01*
X65500Y95500D02*
X81000D01*
X55500Y69500D02*
X57500Y67500D01*
X50323Y74677D02*
X55500Y69500D01*
X57500Y67500D02*
X63449D01*
Y93449D02*
X65500Y95500D01*
X63449Y90177D02*
Y93449D01*
X57000Y90177D02*
X63449D01*
X28441D02*
X57000D01*
X28264Y90000D02*
Y95000D01*
Y76000D02*
Y90000D01*
X28441Y90177D01*
X36500Y36000D02*
X43000Y42500D01*
X32500Y36000D02*
X36500D01*
X7500Y43500D02*
Y49543D01*
X3500Y37000D02*
X13000D01*
Y42457D01*
X28264Y76000D02*
X40000D01*
X7500D02*
X28264D01*
X40000Y67000D02*
Y76000D01*
X7500Y49543D02*
Y76000D01*
X26000Y37000D02*
Y42457D01*
X19500Y37000D02*
X26000D01*
X19500D02*
Y42457D01*
X13000Y37000D02*
X19500D01*
Y53500D02*
Y67000D01*
Y49543D02*
Y53500D01*
X26000D01*
Y49543D02*
Y53500D01*
X32500D01*
Y49543D02*
Y53500D01*
X34630Y62000D02*
X43000D01*
Y79000D01*
X38500Y83500D02*
X43000Y79000D01*
X13370Y72000D02*
X19500D01*
X13370Y67000D02*
X19500D01*
Y69500D01*
Y72000D01*
X63449Y67500D02*
X72000D01*
X76000Y63500D01*
X82500D01*
X87500D01*
X43000Y42500D02*
X52500D01*
D37*
X87343Y140500D02*
Y150500D01*
X162000Y62500D02*
Y107000D01*
Y117500D01*
X102000Y140500D02*
X121500Y160000D01*
X87343Y140500D02*
X102000D01*
X162000Y117500D02*
Y121500D01*
Y36000D02*
Y62500D01*
X142000Y30000D02*
X156000D01*
X123500D02*
X142000D01*
X113216Y40284D02*
X123500Y30000D01*
X156000D02*
X162000Y36000D01*
X59000Y42500D02*
X61216Y40284D01*
X52500Y42500D02*
X59000D01*
D38*
X72047Y90177D02*
X80913D01*
X81043D01*
X80913Y69000D02*
Y90177D01*
X72047Y75177D02*
X78000D01*
Y80177D01*
X72047D02*
X78000D01*
X81000Y95500D02*
X81043Y95457D01*
Y90177D02*
Y95457D01*
Y90177D02*
X93307D01*
X55500Y69500D02*
X56890Y70890D01*
Y74677D01*
Y90067D02*
X57000Y90177D01*
X90158Y54500D02*
X113000D01*
X63449Y67500D02*
Y74677D01*
X103000Y26000D02*
X106500Y22500D01*
X89500Y26000D02*
X103000D01*
X89500Y16500D02*
X95000D01*
X98000Y19500D01*
Y22500D01*
X113000Y54500D02*
X117500Y50000D01*
X72047Y67547D02*
Y75177D01*
X72000Y67500D02*
X72047Y67547D01*
X80000Y140500D02*
X87343D01*
D39*
X115736Y56764D02*
X125000Y47500D01*
X94236Y56764D02*
X115736D01*
X87500Y63500D02*
X94236Y56764D01*
X41618Y53882D02*
Y55882D01*
X40500Y57000D02*
X41618Y55882D01*
X34630Y57000D02*
X40500D01*
X36500Y104500D02*
X40000Y101000D01*
X32390Y104500D02*
X36500D01*
D42*
X51500Y147500D02*
D03*
X67658Y150500D02*
D03*
X77500D02*
D03*
X87343D02*
D03*
X106500Y125000D02*
D03*
D43*
X41500Y147500D02*
D03*
X97185Y150500D02*
D03*
X96500Y125000D02*
D03*
D44*
X155248Y113500D02*
D03*
X131626D02*
D03*
X139500D02*
D03*
X147374D02*
D03*
D45*
X123752D02*
D03*
D46*
X6791Y100098D02*
D03*
D47*
Y128248D02*
D03*
D48*
X15256Y122933D02*
D03*
Y105413D02*
D03*
D49*
X57457Y111043D02*
D03*
X88500Y101378D02*
D03*
X94291Y94095D02*
D03*
X132000Y160000D02*
D03*
X159000Y94500D02*
D03*
X142130Y80370D02*
D03*
X147000Y83000D02*
D03*
X144500Y84500D02*
D03*
X148500Y88000D02*
D03*
X131000Y105000D02*
D03*
X134000Y85500D02*
D03*
X129000Y81000D02*
D03*
X131500Y83500D02*
D03*
X129000Y85500D02*
D03*
X113000Y94500D02*
D03*
X112000Y62500D02*
D03*
X108000Y68500D02*
D03*
X115000Y75500D02*
D03*
X67500Y111000D02*
D03*
X62500Y100000D02*
D03*
X7264Y92264D02*
D03*
X75000Y113500D02*
D03*
X42543Y103957D02*
D03*
X37500Y110000D02*
D03*
X128500Y109000D02*
D03*
X155118Y90551D02*
D03*
X138000Y128543D02*
D03*
X142000Y35000D02*
D03*
X125000Y47500D02*
D03*
X99500Y66500D02*
D03*
X111000Y104500D02*
D03*
X117724Y86276D02*
D03*
X123228Y90772D02*
D03*
X87500Y63500D02*
D03*
X101500Y97000D02*
D03*
X142130Y76500D02*
D03*
X50323Y74677D02*
D03*
X72291Y8709D02*
D03*
X32500Y36000D02*
D03*
X7500Y43500D02*
D03*
X28264Y95000D02*
D03*
X3500Y37000D02*
D03*
X102279Y45008D02*
D03*
X97555D02*
D03*
X107004D02*
D03*
Y40284D02*
D03*
X102279D02*
D03*
X97555D02*
D03*
Y49732D02*
D03*
X102279D02*
D03*
X107004D02*
D03*
X95882Y62500D02*
D03*
X117000Y65000D02*
D03*
X125000Y61472D02*
D03*
X89500Y16500D02*
D03*
Y26000D02*
D03*
X106500Y22500D02*
D03*
X98000D02*
D03*
X60000Y157500D02*
D03*
X90158Y54500D02*
D03*
X117500Y50000D02*
D03*
X72291Y40284D02*
D03*
X52500Y42500D02*
D03*
X41618Y53882D02*
D03*
X38500Y83500D02*
D03*
X19500Y69500D02*
D03*
X36500Y114000D02*
D03*
Y117000D02*
D03*
X46417Y116500D02*
D03*
X52500Y117000D02*
D03*
X55717Y138189D02*
D03*
X59500Y141500D02*
D03*
X48165Y131165D02*
D03*
X43835D02*
D03*
X48165Y126835D02*
D03*
X43835D02*
D03*
X18500Y119291D02*
D03*
X40000Y101000D02*
D03*
X86500Y58500D02*
D03*
X120866Y5512D02*
D03*
Y18898D02*
D03*
X117717Y27559D02*
D03*
X79528Y34843D02*
D03*
X7283Y27953D02*
D03*
X14370Y11220D02*
D03*
X33661Y6102D02*
D03*
X39370Y24606D02*
D03*
X81496Y6102D02*
D03*
X152362Y52165D02*
D03*
Y42323D02*
D03*
X25591Y160039D02*
D03*
X14567Y156102D02*
D03*
X6299Y145866D02*
D03*
X159449Y141142D02*
D03*
X154724Y152362D02*
D03*
X139370Y5512D02*
D03*
X159843Y23228D02*
D03*
X153740Y11220D02*
D03*
D50*
X94693Y69000D02*
D03*
X88000D02*
D03*
X80913D02*
D03*
D51*
X115232Y125000D02*
D03*
X123500Y128740D02*
D03*
Y121260D02*
D03*
X75000Y58500D02*
D03*
Y51020D02*
D03*
X66732Y54760D02*
D03*
D52*
X34630Y72000D02*
D03*
Y62000D02*
D03*
Y67000D02*
D03*
Y57000D02*
D03*
X13370Y67000D02*
D03*
Y72000D02*
D03*
Y62000D02*
D03*
Y57000D02*
D03*
X72047Y90177D02*
D03*
Y85177D02*
D03*
Y80177D02*
D03*
Y75177D02*
D03*
X93307Y90177D02*
D03*
Y80177D02*
D03*
Y85177D02*
D03*
Y75177D02*
D03*
D53*
X80000Y140500D02*
D03*
X70000D02*
D03*
X75000D02*
D03*
X65000D02*
D03*
X80000Y119240D02*
D03*
X75000D02*
D03*
X70000D02*
D03*
X65000D02*
D03*
D54*
X46000Y129000D02*
D03*
D55*
X42063Y121264D02*
D03*
X44032D02*
D03*
X46000D02*
D03*
X47969D02*
D03*
X49937D02*
D03*
Y136736D02*
D03*
X47969D02*
D03*
X46000D02*
D03*
X44032D02*
D03*
X42063D02*
D03*
D56*
X53736Y125063D02*
D03*
Y127032D02*
D03*
Y129000D02*
D03*
Y130968D02*
D03*
Y132937D02*
D03*
X38264D02*
D03*
Y130968D02*
D03*
Y129000D02*
D03*
Y127032D02*
D03*
Y125063D02*
D03*
D57*
X75000Y51020D02*
X82520D01*
X86500Y55000D01*
Y58500D01*
M02*
