G04 Layer_Color=8388736*
%FSLAX25Y25*%
%MOIN*%
G70*
G01*
G75*
%ADD61R,0.04724X0.08661*%
%ADD62R,0.07874X0.14567*%
%ADD63O,0.02165X0.07480*%
%ADD64R,0.12598X0.12598*%
%ADD65C,0.04724*%
%ADD66C,0.06693*%
%ADD67R,0.07874X0.04724*%
%ADD68P,0.06681X4X360.0*%
%ADD69R,0.10630X0.10630*%
%ADD70R,0.03661X0.01969*%
%ADD71R,0.01969X0.03661*%
%ADD72R,0.09449X0.07087*%
%ADD73R,0.04724X0.04724*%
%ADD74P,0.06681X4X270.0*%
%ADD75R,0.04724X0.07874*%
%ADD76R,0.04724X0.04724*%
%ADD77R,0.10236X0.09449*%
G04:AMPARAMS|DCode=78|XSize=66.93mil|YSize=55.12mil|CornerRadius=15.75mil|HoleSize=0mil|Usage=FLASHONLY|Rotation=0.000|XOffset=0mil|YOffset=0mil|HoleType=Round|Shape=RoundedRectangle|*
%AMROUNDEDRECTD78*
21,1,0.06693,0.02362,0,0,0.0*
21,1,0.03543,0.05512,0,0,0.0*
1,1,0.03150,0.01772,-0.01181*
1,1,0.03150,-0.01772,-0.01181*
1,1,0.03150,-0.01772,0.01181*
1,1,0.03150,0.01772,0.01181*
%
%ADD78ROUNDEDRECTD78*%
%ADD79R,0.06299X0.08661*%
%ADD80R,0.08268X0.09764*%
G04:AMPARAMS|DCode=81|XSize=39.37mil|YSize=39.37mil|CornerRadius=11.81mil|HoleSize=0mil|Usage=FLASHONLY|Rotation=90.000|XOffset=0mil|YOffset=0mil|HoleType=Round|Shape=RoundedRectangle|*
%AMROUNDEDRECTD81*
21,1,0.03937,0.01575,0,0,90.0*
21,1,0.01575,0.03937,0,0,90.0*
1,1,0.02362,0.00787,0.00787*
1,1,0.02362,0.00787,-0.00787*
1,1,0.02362,-0.00787,-0.00787*
1,1,0.02362,-0.00787,0.00787*
%
%ADD81ROUNDEDRECTD81*%
G04:AMPARAMS|DCode=82|XSize=39.37mil|YSize=39.37mil|CornerRadius=11.81mil|HoleSize=0mil|Usage=FLASHONLY|Rotation=180.000|XOffset=0mil|YOffset=0mil|HoleType=Round|Shape=RoundedRectangle|*
%AMROUNDEDRECTD82*
21,1,0.03937,0.01575,0,0,180.0*
21,1,0.01575,0.03937,0,0,180.0*
1,1,0.02362,-0.00787,0.00787*
1,1,0.02362,0.00787,0.00787*
1,1,0.02362,0.00787,-0.00787*
1,1,0.02362,-0.00787,-0.00787*
%
%ADD82ROUNDEDRECTD82*%
G04:AMPARAMS|DCode=83|XSize=98.43mil|YSize=82.68mil|CornerRadius=22.64mil|HoleSize=0mil|Usage=FLASHONLY|Rotation=90.000|XOffset=0mil|YOffset=0mil|HoleType=Round|Shape=RoundedRectangle|*
%AMROUNDEDRECTD83*
21,1,0.09843,0.03740,0,0,90.0*
21,1,0.05315,0.08268,0,0,90.0*
1,1,0.04528,0.01870,0.02658*
1,1,0.04528,0.01870,-0.02658*
1,1,0.04528,-0.01870,-0.02658*
1,1,0.04528,-0.01870,0.02658*
%
%ADD83ROUNDEDRECTD83*%
G04:AMPARAMS|DCode=84|XSize=169.29mil|YSize=82.68mil|CornerRadius=22.64mil|HoleSize=0mil|Usage=FLASHONLY|Rotation=90.000|XOffset=0mil|YOffset=0mil|HoleType=Round|Shape=RoundedRectangle|*
%AMROUNDEDRECTD84*
21,1,0.16929,0.03740,0,0,90.0*
21,1,0.12402,0.08268,0,0,90.0*
1,1,0.04528,0.01870,0.06201*
1,1,0.04528,0.01870,-0.06201*
1,1,0.04528,-0.01870,-0.06201*
1,1,0.04528,-0.01870,0.06201*
%
%ADD84ROUNDEDRECTD84*%
%ADD85O,0.06102X0.02362*%
G04:AMPARAMS|DCode=86|XSize=19.69mil|YSize=74.8mil|CornerRadius=0mil|HoleSize=0mil|Usage=FLASHONLY|Rotation=135.000|XOffset=0mil|YOffset=0mil|HoleType=Round|Shape=Round|*
%AMOVALD86*
21,1,0.05512,0.01969,0.00000,0.00000,225.0*
1,1,0.01969,0.01949,0.01949*
1,1,0.01969,-0.01949,-0.01949*
%
%ADD86OVALD86*%

G04:AMPARAMS|DCode=87|XSize=19.69mil|YSize=74.8mil|CornerRadius=0mil|HoleSize=0mil|Usage=FLASHONLY|Rotation=225.000|XOffset=0mil|YOffset=0mil|HoleType=Round|Shape=Round|*
%AMOVALD87*
21,1,0.05512,0.01969,0.00000,0.00000,315.0*
1,1,0.01969,-0.01949,0.01949*
1,1,0.01969,0.01949,-0.01949*
%
%ADD87OVALD87*%

%ADD88C,0.00787*%
%ADD89C,0.06890*%
%ADD90R,0.06890X0.06890*%
%ADD91R,0.06890X0.06890*%
D61*
X104331Y6693D02*
D03*
X80905D02*
D03*
X88779D02*
D03*
X96457D02*
D03*
D62*
X118504Y53937D02*
D03*
Y31890D02*
D03*
D63*
X98917Y41732D02*
D03*
X96358D02*
D03*
X93799D02*
D03*
X91240D02*
D03*
X88681D02*
D03*
X86122D02*
D03*
X83563D02*
D03*
X101476D02*
D03*
Y19291D02*
D03*
X98917D02*
D03*
X96358D02*
D03*
X93799D02*
D03*
X91240D02*
D03*
X88681D02*
D03*
X86122D02*
D03*
X83563D02*
D03*
D64*
X92520Y29724D02*
D03*
D65*
X78233Y33339D02*
D03*
Y26252D02*
D03*
X62061Y37348D02*
D03*
X67072Y32337D02*
D03*
X44488Y19882D02*
D03*
X37402D02*
D03*
X49803D02*
D03*
X56890D02*
D03*
X75590Y102559D02*
D03*
X68504D02*
D03*
X68057Y75841D02*
D03*
X63046Y80852D02*
D03*
X92520Y69882D02*
D03*
X85433D02*
D03*
X92716Y63386D02*
D03*
X85630D02*
D03*
X11865Y69345D02*
D03*
X16876Y74356D02*
D03*
X8715Y44345D02*
D03*
X13726Y49356D02*
D03*
X22978Y39907D02*
D03*
X17967Y34896D02*
D03*
X22691Y30369D02*
D03*
X27702Y35379D02*
D03*
D66*
X29921Y97441D02*
D03*
X89173Y102362D02*
D03*
X118504Y11614D02*
D03*
X88976Y110630D02*
D03*
D67*
X26575Y108858D02*
D03*
Y119882D02*
D03*
D68*
X13242Y39621D02*
D03*
X18253Y44631D02*
D03*
D69*
X52362Y113839D02*
D03*
D70*
X60098Y117776D02*
D03*
Y115807D02*
D03*
Y113839D02*
D03*
Y111870D02*
D03*
Y109902D02*
D03*
X44626D02*
D03*
Y111870D02*
D03*
Y113839D02*
D03*
Y115807D02*
D03*
Y117776D02*
D03*
D71*
X56299Y106102D02*
D03*
X54331D02*
D03*
X52362D02*
D03*
X50394D02*
D03*
X48425D02*
D03*
Y121575D02*
D03*
X50394D02*
D03*
X52362D02*
D03*
X54331D02*
D03*
X56299D02*
D03*
D72*
X119685Y88386D02*
D03*
Y113583D02*
D03*
D73*
X34252Y103543D02*
D03*
Y110630D02*
D03*
X5709Y72441D02*
D03*
Y79528D02*
D03*
D74*
X71797Y36865D02*
D03*
X66786Y41876D02*
D03*
D75*
X39173Y29134D02*
D03*
X49016D02*
D03*
D76*
X68484Y109299D02*
D03*
X75571D02*
D03*
X118110Y66142D02*
D03*
X92716Y56890D02*
D03*
X85630D02*
D03*
X92716Y76378D02*
D03*
X85630D02*
D03*
X125197Y66142D02*
D03*
D77*
X107087Y121653D02*
D03*
Y142126D02*
D03*
D78*
X119095Y142126D02*
D03*
Y134252D02*
D03*
D79*
X140748Y94232D02*
D03*
Y109705D02*
D03*
D80*
X126260Y76378D02*
D03*
X136732D02*
D03*
D81*
X130709Y66142D02*
D03*
X136614D02*
D03*
D82*
X34252Y121850D02*
D03*
Y115945D02*
D03*
D83*
X5709Y88976D02*
D03*
Y118504D02*
D03*
D84*
Y103740D02*
D03*
D85*
X16240Y98622D02*
D03*
Y101181D02*
D03*
Y103740D02*
D03*
Y106299D02*
D03*
Y108858D02*
D03*
D86*
X40082Y41503D02*
D03*
X38690Y42895D02*
D03*
X37298Y44287D02*
D03*
X35906Y45678D02*
D03*
X34514Y47070D02*
D03*
X33122Y48462D02*
D03*
X31730Y49854D02*
D03*
X30338Y51246D02*
D03*
X28946Y52638D02*
D03*
X27554Y54030D02*
D03*
X26162Y55422D02*
D03*
X24770Y56814D02*
D03*
X47320Y79364D02*
D03*
X48712Y77972D02*
D03*
X50104Y76580D02*
D03*
X51496Y75188D02*
D03*
X52888Y73796D02*
D03*
X54280Y72404D02*
D03*
X55672Y71012D02*
D03*
X57063Y69620D02*
D03*
X58455Y68228D02*
D03*
X59847Y66836D02*
D03*
X61239Y65444D02*
D03*
X62631Y64052D02*
D03*
D87*
X24770D02*
D03*
X26162Y65444D02*
D03*
X27554Y66836D02*
D03*
X28946Y68228D02*
D03*
X30338Y69620D02*
D03*
X31730Y71012D02*
D03*
X33122Y72404D02*
D03*
X34514Y73796D02*
D03*
X35906Y75188D02*
D03*
X37298Y76580D02*
D03*
X38690Y77972D02*
D03*
X40082Y79364D02*
D03*
X62631Y56814D02*
D03*
X61239Y55422D02*
D03*
X59847Y54030D02*
D03*
X58455Y52638D02*
D03*
X57063Y51246D02*
D03*
X55672Y49854D02*
D03*
X54280Y48462D02*
D03*
X52888Y47070D02*
D03*
X51496Y45678D02*
D03*
X50104Y44287D02*
D03*
X48712Y42895D02*
D03*
X47320Y41503D02*
D03*
D88*
X13779Y135826D02*
D03*
Y13779D02*
D03*
X135827Y135826D02*
D03*
X135827Y13779D02*
D03*
X14173Y95866D02*
D03*
Y111614D02*
D03*
D89*
X42717Y134055D02*
D03*
X60276Y137795D02*
D03*
X70118D02*
D03*
X79961D02*
D03*
X138386Y53701D02*
D03*
X42323Y8071D02*
D03*
X52323D02*
D03*
X62323D02*
D03*
D90*
X32717Y134055D02*
D03*
X89803Y137795D02*
D03*
X32323Y8071D02*
D03*
D91*
X138386Y43701D02*
D03*
M02*
