G04 Layer_Physical_Order=1*
G04 Layer_Color=255*
%FSLAX25Y25*%
%MOIN*%
G70*
G01*
G75*
%ADD10C,0.01181*%
%ADD11R,0.03937X0.07874*%
%ADD12R,0.07087X0.13780*%
%ADD13O,0.01378X0.06693*%
%ADD14R,0.11811X0.11811*%
%ADD15C,0.03937*%
%ADD16C,0.05906*%
%ADD17R,0.07087X0.03937*%
%ADD18P,0.05568X4X360.0*%
%ADD19R,0.09843X0.09843*%
%ADD20R,0.02874X0.01181*%
%ADD21R,0.01181X0.02874*%
%ADD22R,0.08661X0.06299*%
%ADD23R,0.03937X0.03937*%
%ADD24P,0.05568X4X270.0*%
%ADD25R,0.03937X0.07087*%
%ADD26R,0.03937X0.03937*%
%ADD27R,0.09449X0.08661*%
G04:AMPARAMS|DCode=28|XSize=59.06mil|YSize=47.24mil|CornerRadius=11.81mil|HoleSize=0mil|Usage=FLASHONLY|Rotation=0.000|XOffset=0mil|YOffset=0mil|HoleType=Round|Shape=RoundedRectangle|*
%AMROUNDEDRECTD28*
21,1,0.05906,0.02362,0,0,0.0*
21,1,0.03543,0.04724,0,0,0.0*
1,1,0.02362,0.01772,-0.01181*
1,1,0.02362,-0.01772,-0.01181*
1,1,0.02362,-0.01772,0.01181*
1,1,0.02362,0.01772,0.01181*
%
%ADD28ROUNDEDRECTD28*%
%ADD29R,0.05512X0.07874*%
%ADD30R,0.07480X0.08976*%
G04:AMPARAMS|DCode=31|XSize=31.5mil|YSize=31.5mil|CornerRadius=7.87mil|HoleSize=0mil|Usage=FLASHONLY|Rotation=90.000|XOffset=0mil|YOffset=0mil|HoleType=Round|Shape=RoundedRectangle|*
%AMROUNDEDRECTD31*
21,1,0.03150,0.01575,0,0,90.0*
21,1,0.01575,0.03150,0,0,90.0*
1,1,0.01575,0.00787,0.00787*
1,1,0.01575,0.00787,-0.00787*
1,1,0.01575,-0.00787,-0.00787*
1,1,0.01575,-0.00787,0.00787*
%
%ADD31ROUNDEDRECTD31*%
G04:AMPARAMS|DCode=32|XSize=31.5mil|YSize=31.5mil|CornerRadius=7.87mil|HoleSize=0mil|Usage=FLASHONLY|Rotation=180.000|XOffset=0mil|YOffset=0mil|HoleType=Round|Shape=RoundedRectangle|*
%AMROUNDEDRECTD32*
21,1,0.03150,0.01575,0,0,180.0*
21,1,0.01575,0.03150,0,0,180.0*
1,1,0.01575,-0.00787,0.00787*
1,1,0.01575,0.00787,0.00787*
1,1,0.01575,0.00787,-0.00787*
1,1,0.01575,-0.00787,-0.00787*
%
%ADD32ROUNDEDRECTD32*%
G04:AMPARAMS|DCode=33|XSize=90.55mil|YSize=74.8mil|CornerRadius=18.7mil|HoleSize=0mil|Usage=FLASHONLY|Rotation=90.000|XOffset=0mil|YOffset=0mil|HoleType=Round|Shape=RoundedRectangle|*
%AMROUNDEDRECTD33*
21,1,0.09055,0.03740,0,0,90.0*
21,1,0.05315,0.07480,0,0,90.0*
1,1,0.03740,0.01870,0.02658*
1,1,0.03740,0.01870,-0.02658*
1,1,0.03740,-0.01870,-0.02658*
1,1,0.03740,-0.01870,0.02658*
%
%ADD33ROUNDEDRECTD33*%
G04:AMPARAMS|DCode=34|XSize=161.42mil|YSize=74.8mil|CornerRadius=18.7mil|HoleSize=0mil|Usage=FLASHONLY|Rotation=90.000|XOffset=0mil|YOffset=0mil|HoleType=Round|Shape=RoundedRectangle|*
%AMROUNDEDRECTD34*
21,1,0.16142,0.03740,0,0,90.0*
21,1,0.12402,0.07480,0,0,90.0*
1,1,0.03740,0.01870,0.06201*
1,1,0.03740,0.01870,-0.06201*
1,1,0.03740,-0.01870,-0.06201*
1,1,0.03740,-0.01870,0.06201*
%
%ADD34ROUNDEDRECTD34*%
%ADD35O,0.05315X0.01575*%
G04:AMPARAMS|DCode=36|XSize=11.81mil|YSize=66.93mil|CornerRadius=0mil|HoleSize=0mil|Usage=FLASHONLY|Rotation=135.000|XOffset=0mil|YOffset=0mil|HoleType=Round|Shape=Round|*
%AMOVALD36*
21,1,0.05512,0.01181,0.00000,0.00000,225.0*
1,1,0.01181,0.01949,0.01949*
1,1,0.01181,-0.01949,-0.01949*
%
%ADD36OVALD36*%

G04:AMPARAMS|DCode=37|XSize=11.81mil|YSize=66.93mil|CornerRadius=0mil|HoleSize=0mil|Usage=FLASHONLY|Rotation=225.000|XOffset=0mil|YOffset=0mil|HoleType=Round|Shape=Round|*
%AMOVALD37*
21,1,0.05512,0.01181,0.00000,0.00000,315.0*
1,1,0.01181,-0.01949,0.01949*
1,1,0.01181,0.01949,-0.01949*
%
%ADD37OVALD37*%

%ADD38C,0.03937*%
%ADD39C,0.00787*%
%ADD40C,0.03543*%
%ADD41C,0.01575*%
%ADD42C,0.01969*%
%ADD43C,0.01378*%
%ADD44C,0.06102*%
%ADD45R,0.06102X0.06102*%
%ADD46R,0.06102X0.06102*%
%ADD47C,0.02362*%
G36*
X58075Y60965D02*
X58088Y60858D01*
X58110Y60753D01*
X58140Y60651D01*
X58179Y60552D01*
X58227Y60456D01*
X58283Y60362D01*
X58348Y60270D01*
X58422Y60182D01*
X58504Y60095D01*
X56850D01*
X56933Y60182D01*
X57006Y60270D01*
X57071Y60362D01*
X57128Y60456D01*
X57175Y60552D01*
X57214Y60651D01*
X57244Y60753D01*
X57266Y60858D01*
X57279Y60965D01*
X57284Y61074D01*
X58071D01*
X58075Y60965D01*
D02*
G37*
G36*
X59516Y62950D02*
X59460Y62935D01*
X59398Y62910D01*
X59331Y62874D01*
X59259Y62830D01*
X59180Y62775D01*
X59007Y62636D01*
X58812Y62458D01*
X58706Y62354D01*
X58149Y62911D01*
X58253Y63017D01*
X58570Y63385D01*
X58625Y63463D01*
X58670Y63536D01*
X58705Y63603D01*
X58730Y63665D01*
X58746Y63721D01*
X59516Y62950D01*
D02*
G37*
G36*
X94681Y57602D02*
X94705Y57535D01*
X94744Y57476D01*
X94799Y57425D01*
X94870Y57382D01*
X94956Y57346D01*
X95059Y57319D01*
X95177Y57299D01*
X95311Y57287D01*
X95460Y57284D01*
Y56496D01*
X95311Y56492D01*
X95177Y56480D01*
X95059Y56461D01*
X94956Y56433D01*
X94870Y56398D01*
X94799Y56354D01*
X94744Y56303D01*
X94705Y56244D01*
X94681Y56177D01*
X94673Y56102D01*
Y57677D01*
X94681Y57602D01*
D02*
G37*
G36*
X49611Y56831D02*
X49624Y56724D01*
X49645Y56619D01*
X49676Y56518D01*
X49715Y56419D01*
X49762Y56322D01*
X49819Y56228D01*
X49883Y56137D01*
X49957Y56048D01*
X50039Y55962D01*
X48386D01*
X48468Y56048D01*
X48542Y56137D01*
X48607Y56228D01*
X48663Y56322D01*
X48711Y56419D01*
X48750Y56518D01*
X48780Y56619D01*
X48802Y56724D01*
X48815Y56831D01*
X48819Y56940D01*
X49606D01*
X49611Y56831D01*
D02*
G37*
G36*
X83685Y56102D02*
X83677Y56177D01*
X83653Y56244D01*
X83614Y56303D01*
X83557Y56354D01*
X83486Y56398D01*
X83398Y56433D01*
X83294Y56461D01*
X83174Y56480D01*
X83038Y56492D01*
X82886Y56496D01*
Y57284D01*
X83038Y57287D01*
X83174Y57299D01*
X83294Y57319D01*
X83398Y57346D01*
X83486Y57382D01*
X83557Y57425D01*
X83614Y57476D01*
X83653Y57535D01*
X83677Y57602D01*
X83685Y57677D01*
Y56102D01*
D02*
G37*
G36*
X94561Y64098D02*
X94612Y64031D01*
X94675Y63972D01*
X94749Y63921D01*
X94835Y63878D01*
X94932Y63842D01*
X95040Y63815D01*
X95159Y63795D01*
X95290Y63784D01*
X95433Y63779D01*
Y62992D01*
X95290Y62988D01*
X95159Y62976D01*
X95040Y62957D01*
X94932Y62929D01*
X94835Y62894D01*
X94749Y62850D01*
X94675Y62799D01*
X94612Y62740D01*
X94561Y62673D01*
X94521Y62598D01*
Y64173D01*
X94561Y64098D01*
D02*
G37*
G36*
X55340Y67126D02*
X55284Y67111D01*
X55223Y67085D01*
X55155Y67050D01*
X55083Y67005D01*
X55004Y66951D01*
X54831Y66812D01*
X54636Y66634D01*
X54530Y66530D01*
X53974Y67087D01*
X54077Y67193D01*
X54394Y67561D01*
X54449Y67639D01*
X54494Y67712D01*
X54529Y67779D01*
X54554Y67841D01*
X54570Y67897D01*
X55340Y67126D01*
D02*
G37*
G36*
X34230Y69155D02*
X34237Y69130D01*
X34256Y69095D01*
X34286Y69051D01*
X34328Y68998D01*
X34447Y68862D01*
X34713Y68585D01*
X34157Y68029D01*
X34055Y68129D01*
X33646Y68486D01*
X33612Y68505D01*
X33587Y68512D01*
X33571Y68507D01*
X34235Y69171D01*
X34230Y69155D01*
D02*
G37*
G36*
X32847Y67841D02*
X32873Y67779D01*
X32908Y67712D01*
X32953Y67639D01*
X33007Y67561D01*
X33146Y67388D01*
X33324Y67193D01*
X33428Y67087D01*
X32871Y66530D01*
X32765Y66634D01*
X32397Y66951D01*
X32319Y67005D01*
X32246Y67050D01*
X32179Y67085D01*
X32117Y67111D01*
X32061Y67126D01*
X32832Y67897D01*
X32847Y67841D01*
D02*
G37*
G36*
X63549Y64142D02*
X63519Y64078D01*
X63506Y64007D01*
X63509Y63932D01*
X63529Y63850D01*
X63566Y63763D01*
X63620Y63670D01*
X63691Y63571D01*
X63779Y63467D01*
X63884Y63357D01*
X63327Y62800D01*
X63217Y62905D01*
X63112Y62992D01*
X63013Y63063D01*
X62920Y63117D01*
X62833Y63154D01*
X62752Y63174D01*
X62676Y63178D01*
X62606Y63164D01*
X62542Y63134D01*
X62483Y63087D01*
X63597Y64200D01*
X63549Y64142D01*
D02*
G37*
G36*
X73233Y66476D02*
X73246Y66369D01*
X73267Y66265D01*
X73298Y66163D01*
X73337Y66064D01*
X73384Y65968D01*
X73440Y65874D01*
X73506Y65782D01*
X73579Y65693D01*
X73661Y65607D01*
X72008D01*
X72090Y65693D01*
X72164Y65782D01*
X72229Y65874D01*
X72285Y65968D01*
X72333Y66064D01*
X72372Y66163D01*
X72402Y66265D01*
X72424Y66369D01*
X72437Y66476D01*
X72441Y66586D01*
X73228D01*
X73233Y66476D01*
D02*
G37*
G36*
X54288Y55763D02*
X54214Y55674D01*
X54149Y55583D01*
X54093Y55489D01*
X54045Y55392D01*
X54006Y55293D01*
X53976Y55192D01*
X53954Y55087D01*
X53941Y54980D01*
X53937Y54871D01*
X53150D01*
X53145Y54980D01*
X53132Y55087D01*
X53111Y55192D01*
X53080Y55293D01*
X53041Y55392D01*
X52994Y55489D01*
X52937Y55583D01*
X52873Y55674D01*
X52799Y55763D01*
X52716Y55849D01*
X54370D01*
X54288Y55763D01*
D02*
G37*
G36*
X27223Y50144D02*
X27167Y50129D01*
X27105Y50104D01*
X27038Y50068D01*
X26965Y50024D01*
X26887Y49969D01*
X26714Y49830D01*
X26519Y49652D01*
X26413Y49548D01*
X25856Y50105D01*
X25960Y50211D01*
X26277Y50579D01*
X26332Y50657D01*
X26377Y50730D01*
X26412Y50797D01*
X26437Y50859D01*
X26452Y50915D01*
X27223Y50144D01*
D02*
G37*
G36*
X60965Y50859D02*
X60990Y50797D01*
X61025Y50730D01*
X61070Y50657D01*
X61125Y50579D01*
X61264Y50406D01*
X61441Y50211D01*
X61545Y50105D01*
X60988Y49548D01*
X60883Y49652D01*
X60514Y49969D01*
X60436Y50024D01*
X60363Y50068D01*
X60296Y50104D01*
X60234Y50129D01*
X60178Y50144D01*
X60949Y50915D01*
X60965Y50859D01*
D02*
G37*
G36*
X78093Y49173D02*
X78007Y49255D01*
X77919Y49329D01*
X77827Y49394D01*
X77733Y49450D01*
X77637Y49498D01*
X77537Y49537D01*
X77436Y49567D01*
X77331Y49589D01*
X77224Y49602D01*
X77115Y49606D01*
Y50394D01*
X77224Y50398D01*
X77331Y50411D01*
X77436Y50433D01*
X77537Y50463D01*
X77637Y50502D01*
X77733Y50550D01*
X77827Y50606D01*
X77919Y50671D01*
X78007Y50744D01*
X78093Y50827D01*
Y49173D01*
D02*
G37*
G36*
X58181Y48075D02*
X58206Y48013D01*
X58241Y47946D01*
X58286Y47873D01*
X58341Y47795D01*
X58480Y47622D01*
X58658Y47427D01*
X58761Y47321D01*
X58205Y46764D01*
X58099Y46868D01*
X57731Y47185D01*
X57652Y47240D01*
X57579Y47285D01*
X57512Y47320D01*
X57451Y47345D01*
X57394Y47361D01*
X58165Y48131D01*
X58181Y48075D01*
D02*
G37*
G36*
X37604Y49604D02*
X37500Y49498D01*
X37183Y49130D01*
X37129Y49051D01*
X37084Y48978D01*
X37049Y48911D01*
X37023Y48850D01*
X37008Y48793D01*
X36237Y49564D01*
X36293Y49580D01*
X36355Y49605D01*
X36422Y49640D01*
X36495Y49685D01*
X36573Y49740D01*
X36746Y49879D01*
X36941Y50057D01*
X37047Y50160D01*
X37604Y49604D01*
D02*
G37*
G36*
X62357Y52251D02*
X62382Y52189D01*
X62417Y52122D01*
X62462Y52049D01*
X62517Y51971D01*
X62656Y51798D01*
X62833Y51603D01*
X62937Y51497D01*
X62380Y50940D01*
X62275Y51044D01*
X61906Y51361D01*
X61828Y51416D01*
X61755Y51460D01*
X61688Y51496D01*
X61626Y51521D01*
X61570Y51537D01*
X62341Y52307D01*
X62357Y52251D01*
D02*
G37*
G36*
X93111Y54945D02*
X93504D01*
X93429Y54937D01*
X93362Y54913D01*
X93303Y54873D01*
X93252Y54817D01*
X93209Y54745D01*
X93173Y54658D01*
X93161Y54611D01*
X93180Y54549D01*
X93218Y54450D01*
X93266Y54353D01*
X93322Y54260D01*
X93387Y54168D01*
X93461Y54079D01*
X93543Y53993D01*
X91890D01*
X91972Y54079D01*
X92046Y54168D01*
X92111Y54260D01*
X92167Y54353D01*
X92215Y54450D01*
X92254Y54549D01*
X92272Y54611D01*
X92260Y54658D01*
X92224Y54745D01*
X92181Y54817D01*
X92130Y54873D01*
X92071Y54913D01*
X92004Y54937D01*
X91929Y54945D01*
X92322D01*
X92323Y54972D01*
X93110D01*
X93111Y54945D01*
D02*
G37*
G36*
X48369Y54291D02*
X48283Y54374D01*
X48194Y54447D01*
X48103Y54512D01*
X48009Y54568D01*
X47912Y54616D01*
X47813Y54655D01*
X47711Y54685D01*
X47607Y54707D01*
X47500Y54720D01*
X47390Y54724D01*
Y55512D01*
X47500Y55516D01*
X47607Y55529D01*
X47711Y55551D01*
X47813Y55581D01*
X47912Y55620D01*
X48009Y55668D01*
X48103Y55724D01*
X48194Y55789D01*
X48283Y55863D01*
X48369Y55945D01*
Y54291D01*
D02*
G37*
G36*
X65140Y55035D02*
X65166Y54973D01*
X65201Y54906D01*
X65246Y54833D01*
X65301Y54755D01*
X65439Y54582D01*
X65617Y54387D01*
X65721Y54281D01*
X65164Y53724D01*
X65058Y53828D01*
X64690Y54145D01*
X64612Y54199D01*
X64539Y54244D01*
X64472Y54280D01*
X64410Y54305D01*
X64354Y54320D01*
X65125Y55091D01*
X65140Y55035D01*
D02*
G37*
G36*
X63749Y53643D02*
X63774Y53581D01*
X63809Y53514D01*
X63854Y53441D01*
X63909Y53363D01*
X64047Y53190D01*
X64225Y52995D01*
X64329Y52889D01*
X63772Y52332D01*
X63666Y52436D01*
X63298Y52753D01*
X63220Y52807D01*
X63147Y52852D01*
X63080Y52887D01*
X63018Y52913D01*
X62962Y52928D01*
X63733Y53699D01*
X63749Y53643D01*
D02*
G37*
G36*
X54636Y54232D02*
X55004Y53916D01*
X55083Y53861D01*
X55155Y53816D01*
X55223Y53781D01*
X55284Y53755D01*
X55340Y53740D01*
X54570Y52969D01*
X54554Y53025D01*
X54529Y53087D01*
X54494Y53154D01*
X54449Y53227D01*
X54394Y53305D01*
X54255Y53478D01*
X54077Y53673D01*
X53974Y53779D01*
X54530Y54336D01*
X54636Y54232D01*
D02*
G37*
G36*
X54586Y77721D02*
X54482Y77615D01*
X54165Y77247D01*
X54110Y77169D01*
X54065Y77096D01*
X54030Y77029D01*
X54005Y76967D01*
X53989Y76911D01*
X53219Y77681D01*
X53275Y77697D01*
X53337Y77722D01*
X53404Y77757D01*
X53477Y77802D01*
X53555Y77857D01*
X53728Y77996D01*
X53923Y78174D01*
X54029Y78278D01*
X54586Y77721D01*
D02*
G37*
G36*
X53194Y79113D02*
X53090Y79007D01*
X52773Y78639D01*
X52718Y78560D01*
X52673Y78488D01*
X52638Y78421D01*
X52613Y78359D01*
X52597Y78303D01*
X51827Y79073D01*
X51883Y79089D01*
X51945Y79114D01*
X52012Y79149D01*
X52084Y79194D01*
X52163Y79249D01*
X52336Y79388D01*
X52531Y79566D01*
X52637Y79669D01*
X53194Y79113D01*
D02*
G37*
G36*
X22221Y101211D02*
Y78687D01*
X21721Y78536D01*
X21454Y78935D01*
X20733Y79417D01*
X20382Y79487D01*
Y77362D01*
X19382D01*
Y79487D01*
X19031Y79417D01*
X18309Y78935D01*
X17827Y78213D01*
X17727Y77710D01*
X17658Y77362D01*
X17177Y77310D01*
X16876Y77350D01*
X16101Y77248D01*
X15379Y76949D01*
X15158Y76780D01*
X17229Y74709D01*
X19300Y72639D01*
X19469Y72859D01*
X19768Y73581D01*
X19870Y74356D01*
X19830Y74657D01*
X19882Y75138D01*
X20230Y75208D01*
X20733Y75308D01*
X21454Y75790D01*
X21721Y76189D01*
X22221Y76037D01*
Y70965D01*
X22221Y70965D01*
X22313Y70504D01*
X22574Y70113D01*
X23370Y69318D01*
X23328Y68985D01*
X26516Y65798D01*
X29541Y62773D01*
X29609Y62875D01*
X29733Y63495D01*
X29726Y63527D01*
X30041Y63589D01*
X30496Y63894D01*
X30801Y64350D01*
X30906Y64876D01*
X31433Y64981D01*
X31888Y65286D01*
X32043Y65518D01*
X32057Y65532D01*
X32611Y65682D01*
X32689Y65671D01*
X32765Y65620D01*
X33226Y65528D01*
X33226Y65528D01*
X42317D01*
X42317Y65528D01*
X42778Y65620D01*
X43169Y65881D01*
X46127Y68839D01*
X46127Y68839D01*
X46388Y69230D01*
X46480Y69691D01*
X46480Y69691D01*
Y71100D01*
X46487Y71137D01*
X46498Y71173D01*
X46512Y71209D01*
X46531Y71246D01*
X46554Y71285D01*
X46584Y71327D01*
X46610Y71359D01*
X46695Y71415D01*
X47130Y72067D01*
X47283Y72835D01*
X47255Y72974D01*
X47426Y73143D01*
X47690Y73313D01*
X48156Y73169D01*
X48249Y72701D01*
X48553Y72246D01*
X49009Y71941D01*
X49536Y71836D01*
X49641Y71309D01*
X49945Y70854D01*
X50401Y70549D01*
X50928Y70444D01*
X51033Y69917D01*
X51337Y69462D01*
X51793Y69157D01*
X52107Y69095D01*
X52101Y69063D01*
X52224Y68443D01*
X52293Y68340D01*
X55318Y71365D01*
X58506Y74553D01*
X58464Y74885D01*
X58922Y75344D01*
X58922Y75344D01*
X59183Y75734D01*
X59275Y76195D01*
X59275Y76195D01*
Y90354D01*
X59183Y90815D01*
X58922Y91206D01*
X58922Y91206D01*
X56716Y93412D01*
Y98457D01*
X57179Y98625D01*
X57216Y98619D01*
X57636Y97990D01*
X58287Y97555D01*
X59055Y97402D01*
X59713Y97533D01*
X60213Y97260D01*
Y87992D01*
X60213Y87992D01*
X60305Y87531D01*
X60566Y87141D01*
X63403Y84303D01*
X63169Y83830D01*
X63046Y83846D01*
X62271Y83744D01*
X61549Y83445D01*
X61329Y83276D01*
X63399Y81205D01*
X65470Y79135D01*
X65639Y79355D01*
X65938Y80077D01*
X66040Y80852D01*
X66023Y80976D01*
X66497Y81209D01*
X68661Y79045D01*
X68427Y78572D01*
X68057Y78621D01*
X67337Y78526D01*
X66667Y78248D01*
X66091Y77807D01*
X65649Y77231D01*
X65372Y76560D01*
X65277Y75841D01*
X65372Y75121D01*
X65415Y75016D01*
X65110Y74629D01*
X60869D01*
X60869Y74629D01*
X60408Y74538D01*
X60017Y74277D01*
X59545Y73805D01*
X59213Y73846D01*
X56025Y70658D01*
X52837Y67470D01*
X52879Y67138D01*
X48361Y62621D01*
X48100Y62230D01*
X48008Y61769D01*
X48008Y61769D01*
Y56853D01*
X48001Y56816D01*
X47990Y56780D01*
X47976Y56744D01*
X47958Y56707D01*
X47934Y56667D01*
X47905Y56626D01*
X47878Y56594D01*
X47793Y56537D01*
X47737Y56453D01*
X47705Y56426D01*
X47663Y56397D01*
X47624Y56373D01*
X47587Y56355D01*
X47551Y56341D01*
X47515Y56330D01*
X47478Y56322D01*
X42562D01*
X42101Y56231D01*
X41710Y55970D01*
X41710Y55970D01*
X36815Y51074D01*
X36214Y51180D01*
X36064Y51405D01*
X35840Y51554D01*
X35734Y52155D01*
X36114Y52535D01*
Y54421D01*
X34490D01*
X34507Y54334D01*
X34031Y53858D01*
X33430Y53964D01*
X33280Y54188D01*
X32825Y54493D01*
X32298Y54598D01*
X32193Y55124D01*
X31888Y55580D01*
X31433Y55885D01*
X30906Y55990D01*
X30801Y56516D01*
X30496Y56972D01*
X30041Y57277D01*
X29514Y57382D01*
X29409Y57908D01*
X29105Y58364D01*
X28649Y58669D01*
X28122Y58774D01*
X28017Y59300D01*
X27713Y59756D01*
X27257Y60061D01*
X26719Y60168D01*
X26181Y60061D01*
X25726Y59756D01*
X21828Y55859D01*
X21524Y55403D01*
X21417Y54865D01*
X21524Y54328D01*
X21828Y53872D01*
X22284Y53567D01*
X22811Y53462D01*
X22916Y52936D01*
X23220Y52480D01*
X23676Y52175D01*
X24203Y52071D01*
X24307Y51544D01*
X24612Y51088D01*
X24836Y50938D01*
X24857Y50880D01*
X24717Y50417D01*
X22835D01*
X22374Y50325D01*
X21983Y50064D01*
X21983Y50064D01*
X21097Y49178D01*
X21097Y49178D01*
X19351Y47432D01*
X18253Y48529D01*
X14356Y44631D01*
X18253Y40734D01*
X22151Y44631D01*
X21054Y45729D01*
X22008Y46683D01*
X22843Y45847D01*
X22864Y45816D01*
X22882Y45783D01*
X22897Y45747D01*
X22911Y45708D01*
X22922Y45664D01*
X22930Y45614D01*
X22934Y45572D01*
X22914Y45472D01*
X23067Y44704D01*
X23502Y44053D01*
X24153Y43618D01*
X24328Y43583D01*
X24473Y43105D01*
X23942Y42575D01*
X23924Y42559D01*
X23877Y42526D01*
X23869Y42521D01*
X23697Y42592D01*
X22978Y42687D01*
X22258Y42592D01*
X21588Y42314D01*
X21012Y41873D01*
X20571Y41297D01*
X20293Y40626D01*
X20198Y39907D01*
X20293Y39188D01*
X20571Y38517D01*
X21012Y37942D01*
X21588Y37500D01*
X22258Y37222D01*
X22978Y37127D01*
X23697Y37222D01*
X24368Y37500D01*
X24943Y37942D01*
X25385Y38517D01*
X25663Y39188D01*
X25758Y39907D01*
X25663Y40626D01*
X25592Y40798D01*
X25597Y40807D01*
X25630Y40853D01*
X25645Y40872D01*
X27861Y43087D01*
X28833D01*
X28955Y43082D01*
X29308Y42648D01*
Y38688D01*
X28667Y38047D01*
X28648Y38032D01*
X28602Y37998D01*
X28594Y37993D01*
X28422Y38065D01*
X27702Y38159D01*
X26983Y38065D01*
X26313Y37787D01*
X25737Y37345D01*
X25295Y36769D01*
X25017Y36099D01*
X24923Y35379D01*
X25017Y34660D01*
X25295Y33990D01*
X25737Y33414D01*
X26313Y32972D01*
X26983Y32695D01*
X27702Y32600D01*
X28422Y32695D01*
X29092Y32972D01*
X29668Y33414D01*
X30110Y33990D01*
X30387Y34660D01*
X30482Y35379D01*
X30387Y36099D01*
X30316Y36271D01*
X30321Y36279D01*
X30354Y36325D01*
X30370Y36344D01*
X30657Y36631D01*
X31119Y36439D01*
Y11909D01*
X28484D01*
Y4232D01*
X36161D01*
Y4364D01*
X36222Y4411D01*
X36661Y4549D01*
X38348Y2862D01*
X38141Y2362D01*
X11417D01*
X2362Y11417D01*
Y69178D01*
X2740Y69472D01*
X2862Y69472D01*
X5209D01*
Y72441D01*
Y75410D01*
X2862D01*
X2740Y75410D01*
X2362Y75704D01*
Y83513D01*
X2862Y83847D01*
X3145Y83730D01*
X3839Y83639D01*
X4504D01*
Y82284D01*
X2953D01*
Y76772D01*
X8465D01*
Y79731D01*
X8677Y79906D01*
X18701D01*
X19008Y79967D01*
X19268Y80141D01*
X19443Y80401D01*
X19504Y80709D01*
Y96740D01*
X19496Y96779D01*
X19500Y96819D01*
X19466Y96931D01*
X19443Y97047D01*
X19420Y97080D01*
X19409Y97118D01*
X19399Y97333D01*
X19794Y97925D01*
X19833Y98122D01*
X16240D01*
Y99122D01*
X19833D01*
X19794Y99319D01*
X19399Y99911D01*
X19508Y100439D01*
X19594Y100567D01*
X19716Y101181D01*
X19594Y101796D01*
X19434Y102035D01*
X19434Y102037D01*
X19700Y102536D01*
X20896D01*
X22221Y101211D01*
D02*
G37*
G36*
X83685Y75590D02*
X83677Y75665D01*
X83653Y75732D01*
X83614Y75791D01*
X83557Y75842D01*
X83486Y75886D01*
X83398Y75921D01*
X83294Y75949D01*
X83174Y75968D01*
X83038Y75980D01*
X82886Y75984D01*
Y76772D01*
X83038Y76776D01*
X83174Y76787D01*
X83294Y76807D01*
X83398Y76835D01*
X83486Y76870D01*
X83557Y76913D01*
X83614Y76964D01*
X83653Y77024D01*
X83677Y77091D01*
X83685Y77165D01*
Y75590D01*
D02*
G37*
G36*
X94681Y77091D02*
X94705Y77024D01*
X94744Y76964D01*
X94799Y76913D01*
X94870Y76870D01*
X94956Y76835D01*
X95059Y76807D01*
X95177Y76787D01*
X95311Y76776D01*
X95460Y76772D01*
Y75984D01*
X95311Y75980D01*
X95177Y75968D01*
X95059Y75949D01*
X94956Y75921D01*
X94870Y75886D01*
X94799Y75842D01*
X94744Y75791D01*
X94705Y75732D01*
X94681Y75665D01*
X94673Y75590D01*
Y77165D01*
X94681Y77091D01*
D02*
G37*
G36*
X48499Y86387D02*
X48535Y86376D01*
X48571Y86362D01*
X48608Y86343D01*
X48647Y86320D01*
X48689Y86291D01*
X48721Y86264D01*
X48778Y86179D01*
X49429Y85744D01*
X50197Y85591D01*
X50965Y85744D01*
X51616Y86179D01*
X51642Y86218D01*
X52142Y86067D01*
Y81083D01*
X51716Y80935D01*
X51642Y80922D01*
X51198Y81218D01*
X50671Y81323D01*
X50567Y81850D01*
X50262Y82306D01*
X49806Y82610D01*
X49269Y82717D01*
X48731Y82610D01*
X48275Y82306D01*
X47359Y81389D01*
X46884Y81622D01*
X46740Y82347D01*
X46257Y83069D01*
X45536Y83551D01*
X45185Y83620D01*
Y81496D01*
X44685D01*
Y80996D01*
X42561D01*
X42630Y80645D01*
X43112Y79924D01*
X43834Y79441D01*
X44559Y79297D01*
X44792Y78822D01*
X44378Y78408D01*
X44073Y77952D01*
X43966Y77415D01*
X44073Y76877D01*
X44378Y76421D01*
X44833Y76117D01*
X45360Y76012D01*
X45465Y75485D01*
X45597Y75288D01*
X45296Y74838D01*
X45276Y74842D01*
X44508Y74689D01*
X43856Y74254D01*
X43421Y73603D01*
X43277Y72878D01*
X43213Y72727D01*
X42924Y72438D01*
X42717Y72479D01*
X41949Y72327D01*
X41297Y71892D01*
X40862Y71241D01*
X40709Y70472D01*
X40729Y70373D01*
X40725Y70331D01*
X40717Y70281D01*
X40706Y70237D01*
X40693Y70198D01*
X40677Y70162D01*
X40659Y70129D01*
X40639Y70098D01*
X40052Y69511D01*
X36653D01*
X36400Y69988D01*
X36566Y70463D01*
X37000Y70549D01*
X37456Y70854D01*
X37761Y71309D01*
X37865Y71836D01*
X38392Y71941D01*
X38848Y72246D01*
X39153Y72701D01*
X39257Y73228D01*
X39784Y73333D01*
X40240Y73637D01*
X40545Y74093D01*
X40649Y74620D01*
X41176Y74725D01*
X41632Y75029D01*
X41936Y75485D01*
X42041Y76012D01*
X42568Y76117D01*
X43024Y76421D01*
X43328Y76877D01*
X43435Y77415D01*
X43328Y77952D01*
X43024Y78408D01*
X39127Y82306D01*
X38671Y82610D01*
X38133Y82717D01*
X37595Y82610D01*
X37140Y82306D01*
X36835Y81850D01*
X36730Y81323D01*
X36203Y81218D01*
X35748Y80914D01*
X35443Y80458D01*
X35338Y79931D01*
X34811Y79826D01*
X34356Y79522D01*
X34051Y79066D01*
X33946Y78539D01*
X33419Y78434D01*
X32964Y78130D01*
X32373Y78057D01*
X32225Y78183D01*
X32210Y78735D01*
X39869Y86394D01*
X48462D01*
X48499Y86387D01*
D02*
G37*
G36*
X49353Y86772D02*
X49267Y86854D01*
X49178Y86928D01*
X49087Y86993D01*
X48993Y87049D01*
X48896Y87097D01*
X48797Y87135D01*
X48695Y87166D01*
X48591Y87187D01*
X48484Y87200D01*
X48375Y87205D01*
Y87992D01*
X48484Y87997D01*
X48591Y88010D01*
X48695Y88031D01*
X48797Y88061D01*
X48896Y88100D01*
X48993Y88148D01*
X49087Y88204D01*
X49178Y88269D01*
X49267Y88343D01*
X49353Y88425D01*
Y86772D01*
D02*
G37*
G36*
X51532Y96314D02*
X51458Y96226D01*
X51393Y96134D01*
X51337Y96040D01*
X51289Y95944D01*
X51250Y95845D01*
X51220Y95743D01*
X51198Y95638D01*
X51185Y95531D01*
X51181Y95422D01*
X50394D01*
X50389Y95531D01*
X50376Y95638D01*
X50355Y95743D01*
X50324Y95845D01*
X50285Y95944D01*
X50238Y96040D01*
X50182Y96134D01*
X50116Y96226D01*
X50043Y96314D01*
X49961Y96401D01*
X51614D01*
X51532Y96314D01*
D02*
G37*
G36*
X6421Y84449D02*
X6354Y84425D01*
X6295Y84385D01*
X6244Y84329D01*
X6201Y84257D01*
X6165Y84169D01*
X6138Y84065D01*
X6118Y83945D01*
X6106Y83809D01*
X6102Y83657D01*
X5315D01*
X5311Y83809D01*
X5299Y83945D01*
X5280Y84065D01*
X5252Y84169D01*
X5217Y84257D01*
X5173Y84329D01*
X5122Y84385D01*
X5063Y84425D01*
X4996Y84449D01*
X4921Y84457D01*
X6496D01*
X6421Y84449D01*
D02*
G37*
G36*
X6106Y82120D02*
X6118Y81984D01*
X6138Y81864D01*
X6165Y81760D01*
X6201Y81672D01*
X6244Y81600D01*
X6295Y81544D01*
X6354Y81504D01*
X6421Y81480D01*
X6496Y81472D01*
X4921D01*
X4996Y81480D01*
X5063Y81504D01*
X5122Y81544D01*
X5173Y81600D01*
X5217Y81672D01*
X5252Y81760D01*
X5280Y81864D01*
X5299Y81984D01*
X5311Y82120D01*
X5315Y82271D01*
X6102D01*
X6106Y82120D01*
D02*
G37*
G36*
X27254Y94773D02*
X28035Y94174D01*
X28945Y93797D01*
X29921Y93669D01*
X30898Y93797D01*
X31808Y94174D01*
X32548Y94742D01*
X32862Y94681D01*
X33048Y94618D01*
Y85206D01*
X28479Y80638D01*
X28218Y80247D01*
X28126Y79786D01*
X28126Y79786D01*
Y76195D01*
X28126Y76195D01*
X28218Y75734D01*
X28479Y75344D01*
X29118Y74705D01*
X29012Y74104D01*
X28788Y73954D01*
X28483Y73498D01*
X28379Y72971D01*
X27852Y72867D01*
X27396Y72562D01*
X27246Y72338D01*
X26645Y72232D01*
X26204Y72673D01*
Y83934D01*
X26667Y84166D01*
X26704Y84161D01*
X27168Y83467D01*
X27889Y82985D01*
X28240Y82915D01*
Y85039D01*
Y87164D01*
X27889Y87094D01*
X27168Y86612D01*
X26704Y85918D01*
X26667Y85912D01*
X26204Y86145D01*
Y95351D01*
X26468Y95471D01*
X26704Y95490D01*
X27254Y94773D01*
D02*
G37*
G36*
X55977Y76329D02*
X55874Y76223D01*
X55557Y75855D01*
X55502Y75776D01*
X55457Y75704D01*
X55422Y75637D01*
X55397Y75575D01*
X55381Y75519D01*
X54611Y76289D01*
X54667Y76305D01*
X54729Y76330D01*
X54796Y76365D01*
X54868Y76410D01*
X54947Y76465D01*
X55120Y76604D01*
X55315Y76782D01*
X55421Y76886D01*
X55977Y76329D01*
D02*
G37*
G36*
X26519Y71214D02*
X26887Y70897D01*
X26965Y70843D01*
X27038Y70798D01*
X27105Y70762D01*
X27167Y70737D01*
X27223Y70722D01*
X26452Y69951D01*
X26437Y70007D01*
X26412Y70069D01*
X26377Y70136D01*
X26332Y70209D01*
X26277Y70287D01*
X26138Y70460D01*
X25960Y70655D01*
X25856Y70761D01*
X26413Y71318D01*
X26519Y71214D01*
D02*
G37*
G36*
X46020Y71905D02*
X45946Y71816D01*
X45882Y71725D01*
X45825Y71631D01*
X45778Y71534D01*
X45739Y71435D01*
X45708Y71333D01*
X45687Y71229D01*
X45674Y71122D01*
X45669Y71012D01*
X44882D01*
X44878Y71122D01*
X44865Y71229D01*
X44843Y71333D01*
X44813Y71435D01*
X44774Y71534D01*
X44726Y71631D01*
X44670Y71725D01*
X44605Y71816D01*
X44531Y71905D01*
X44449Y71991D01*
X46102D01*
X46020Y71905D01*
D02*
G37*
G36*
X94364Y70595D02*
X94415Y70527D01*
X94478Y70468D01*
X94552Y70417D01*
X94638Y70374D01*
X94735Y70339D01*
X94843Y70311D01*
X94963Y70291D01*
X95094Y70280D01*
X95236Y70276D01*
Y69488D01*
X95094Y69484D01*
X94963Y69472D01*
X94843Y69453D01*
X94735Y69425D01*
X94638Y69390D01*
X94552Y69346D01*
X94478Y69295D01*
X94415Y69236D01*
X94364Y69169D01*
X94324Y69095D01*
Y70669D01*
X94364Y70595D01*
D02*
G37*
G36*
X25127Y69822D02*
X25495Y69505D01*
X25574Y69451D01*
X25646Y69406D01*
X25713Y69371D01*
X25775Y69345D01*
X25831Y69330D01*
X25061Y68559D01*
X25045Y68615D01*
X25020Y68677D01*
X24985Y68744D01*
X24940Y68817D01*
X24885Y68895D01*
X24746Y69068D01*
X24568Y69263D01*
X24464Y69369D01*
X25021Y69926D01*
X25127Y69822D01*
D02*
G37*
G36*
X42705Y69291D02*
X42586Y69289D01*
X42471Y69278D01*
X42360Y69259D01*
X42254Y69233D01*
X42152Y69198D01*
X42054Y69155D01*
X41961Y69105D01*
X41872Y69046D01*
X41787Y68980D01*
X41706Y68906D01*
X41150Y69462D01*
X41224Y69543D01*
X41291Y69628D01*
X41349Y69717D01*
X41399Y69810D01*
X41442Y69908D01*
X41477Y70010D01*
X41503Y70116D01*
X41522Y70227D01*
X41533Y70341D01*
X41535Y70461D01*
X42705Y69291D01*
D02*
G37*
G36*
X60153Y72153D02*
X60050Y72047D01*
X59733Y71679D01*
X59678Y71601D01*
X59633Y71528D01*
X59598Y71461D01*
X59573Y71399D01*
X59557Y71343D01*
X58786Y72114D01*
X58843Y72129D01*
X58904Y72154D01*
X58972Y72190D01*
X59044Y72234D01*
X59123Y72289D01*
X59296Y72428D01*
X59491Y72606D01*
X59597Y72710D01*
X60153Y72153D01*
D02*
G37*
G36*
X57369Y74937D02*
X57266Y74831D01*
X56949Y74463D01*
X56894Y74385D01*
X56849Y74312D01*
X56814Y74245D01*
X56789Y74183D01*
X56773Y74127D01*
X56002Y74897D01*
X56059Y74913D01*
X56120Y74938D01*
X56188Y74973D01*
X56260Y75018D01*
X56339Y75073D01*
X56512Y75212D01*
X56707Y75390D01*
X56813Y75494D01*
X57369Y74937D01*
D02*
G37*
G36*
X32087Y76782D02*
X32455Y76465D01*
X32533Y76410D01*
X32606Y76365D01*
X32673Y76330D01*
X32735Y76305D01*
X32791Y76289D01*
X32020Y75519D01*
X32005Y75575D01*
X31979Y75637D01*
X31944Y75704D01*
X31899Y75776D01*
X31845Y75855D01*
X31706Y76028D01*
X31528Y76223D01*
X31424Y76329D01*
X31981Y76886D01*
X32087Y76782D01*
D02*
G37*
G36*
X30695Y75390D02*
X31063Y75073D01*
X31141Y75018D01*
X31214Y74973D01*
X31281Y74938D01*
X31343Y74913D01*
X31399Y74897D01*
X30628Y74127D01*
X30613Y74183D01*
X30588Y74245D01*
X30552Y74312D01*
X30507Y74385D01*
X30453Y74463D01*
X30314Y74636D01*
X30136Y74831D01*
X30032Y74937D01*
X30589Y75494D01*
X30695Y75390D01*
D02*
G37*
G36*
X71630Y76076D02*
Y72327D01*
X71189Y72091D01*
X71127Y72133D01*
X70776Y72203D01*
Y70079D01*
Y67954D01*
X71127Y68024D01*
X71189Y68066D01*
X71630Y67830D01*
Y66498D01*
X71623Y66462D01*
X71612Y66425D01*
X71598Y66389D01*
X71579Y66352D01*
X71556Y66313D01*
X71527Y66272D01*
X71500Y66240D01*
X71415Y66183D01*
X70980Y65532D01*
X70828Y64764D01*
X70980Y63996D01*
X71415Y63345D01*
X71455Y63318D01*
X71303Y62818D01*
X65568D01*
X64476Y63910D01*
X65573Y65007D01*
X65878Y65463D01*
X65985Y66001D01*
X65878Y66539D01*
X65573Y66994D01*
X65118Y67299D01*
X64591Y67404D01*
X64486Y67930D01*
X64181Y68386D01*
X63726Y68691D01*
X63199Y68796D01*
X63094Y69322D01*
X62789Y69778D01*
X62334Y70083D01*
X61807Y70187D01*
X61702Y70714D01*
X61398Y71170D01*
X61173Y71320D01*
X61082Y71839D01*
X61424Y72221D01*
X65641D01*
X65641Y72221D01*
X66102Y72313D01*
X66492Y72574D01*
X67092Y73173D01*
X67111Y73189D01*
X67157Y73222D01*
X67165Y73227D01*
X67337Y73156D01*
X68057Y73061D01*
X68776Y73156D01*
X69446Y73434D01*
X70022Y73875D01*
X70464Y74451D01*
X70742Y75121D01*
X70836Y75841D01*
X70788Y76212D01*
X71261Y76445D01*
X71630Y76076D01*
D02*
G37*
G36*
X67338Y74009D02*
X67256Y74033D01*
X67173Y74044D01*
X67087Y74041D01*
X66998Y74025D01*
X66907Y73995D01*
X66813Y73952D01*
X66717Y73895D01*
X66619Y73824D01*
X66518Y73740D01*
X66414Y73642D01*
X65858Y74199D01*
X65956Y74302D01*
X66040Y74403D01*
X66110Y74502D01*
X66167Y74598D01*
X66211Y74691D01*
X66241Y74782D01*
X66257Y74871D01*
X66260Y74957D01*
X66249Y75041D01*
X66224Y75122D01*
X67338Y74009D01*
D02*
G37*
G36*
X20472Y46293D02*
X20368Y46183D01*
X20280Y46079D01*
X20209Y45980D01*
X20155Y45887D01*
X20118Y45800D01*
X20098Y45718D01*
X20094Y45643D01*
X20108Y45573D01*
X20138Y45508D01*
X20185Y45450D01*
X19072Y46563D01*
X19130Y46516D01*
X19195Y46486D01*
X19265Y46472D01*
X19340Y46475D01*
X19422Y46496D01*
X19509Y46533D01*
X19602Y46587D01*
X19701Y46658D01*
X19805Y46745D01*
X19915Y46850D01*
X20472Y46293D01*
D02*
G37*
G36*
X94428Y16344D02*
X94420Y16297D01*
X94413Y16227D01*
X94397Y15885D01*
X94390Y15118D01*
X93209D01*
X93161Y16370D01*
X94437D01*
X94428Y16344D01*
D02*
G37*
G36*
X82885Y18110D02*
X82873Y18222D01*
X82837Y18323D01*
X82777Y18411D01*
X82694Y18488D01*
X82586Y18553D01*
X82455Y18606D01*
X82300Y18648D01*
X82121Y18677D01*
X81918Y18695D01*
X81692Y18701D01*
Y19882D01*
X81918Y19888D01*
X82121Y19906D01*
X82300Y19935D01*
X82455Y19976D01*
X82586Y20030D01*
X82694Y20095D01*
X82777Y20171D01*
X82837Y20260D01*
X82873Y20360D01*
X82885Y20472D01*
Y18110D01*
D02*
G37*
G36*
X91869Y16344D02*
X91861Y16297D01*
X91854Y16227D01*
X91838Y15885D01*
X91831Y15118D01*
X90650D01*
X90602Y16370D01*
X91878D01*
X91869Y16344D01*
D02*
G37*
G36*
X89372Y15512D02*
X89404Y15093D01*
X89420Y15017D01*
X89438Y14951D01*
X89458Y14896D01*
X89482Y14852D01*
X89508Y14820D01*
X87854D01*
X87880Y14852D01*
X87904Y14896D01*
X87925Y14951D01*
X87942Y15017D01*
X87958Y15093D01*
X87970Y15181D01*
X87987Y15391D01*
X87992Y15644D01*
X89370D01*
X89372Y15512D01*
D02*
G37*
G36*
X97049D02*
X97082Y15093D01*
X97097Y15017D01*
X97115Y14951D01*
X97135Y14896D01*
X97159Y14852D01*
X97185Y14820D01*
X95531D01*
X95558Y14852D01*
X95581Y14896D01*
X95602Y14951D01*
X95620Y15017D01*
X95635Y15093D01*
X95647Y15181D01*
X95664Y15391D01*
X95669Y15644D01*
X97047D01*
X97049Y15512D01*
D02*
G37*
G36*
X102166Y20360D02*
X102202Y20260D01*
X102262Y20171D01*
X102346Y20095D01*
X102453Y20030D01*
X102584Y19976D01*
X102739Y19935D01*
X102918Y19906D01*
X103121Y19888D01*
X103348Y19882D01*
Y18701D01*
X103121Y18695D01*
X102918Y18677D01*
X102739Y18648D01*
X102584Y18606D01*
X102453Y18553D01*
X102346Y18488D01*
X102262Y18411D01*
X102202Y18323D01*
X102166Y18222D01*
X102155Y18110D01*
Y20472D01*
X102166Y20360D01*
D02*
G37*
G36*
X119573Y25000D02*
X119472Y24965D01*
X119384Y24906D01*
X119307Y24823D01*
X119242Y24717D01*
X119189Y24587D01*
X119148Y24433D01*
X119118Y24256D01*
X119100Y24055D01*
X119095Y23831D01*
X117913D01*
X117908Y24055D01*
X117890Y24256D01*
X117860Y24433D01*
X117819Y24587D01*
X117766Y24717D01*
X117701Y24823D01*
X117624Y24906D01*
X117535Y24965D01*
X117435Y25000D01*
X117323Y25012D01*
X119685D01*
X119573Y25000D01*
D02*
G37*
G36*
X39886Y25607D02*
X39819Y25583D01*
X39760Y25543D01*
X39709Y25487D01*
X39665Y25415D01*
X39630Y25327D01*
X39602Y25223D01*
X39583Y25103D01*
X39571Y24967D01*
X39567Y24815D01*
X38780D01*
X38776Y24967D01*
X38764Y25103D01*
X38744Y25223D01*
X38717Y25327D01*
X38681Y25415D01*
X38638Y25487D01*
X38587Y25543D01*
X38528Y25583D01*
X38461Y25607D01*
X38386Y25615D01*
X39961D01*
X39886Y25607D01*
D02*
G37*
G36*
X79302Y24583D02*
X79201Y24476D01*
X79113Y24358D01*
X79036Y24227D01*
X78971Y24085D01*
X78918Y23930D01*
X78877Y23764D01*
X78847Y23586D01*
X78829Y23395D01*
X78823Y23193D01*
X77642D01*
X77636Y23395D01*
X77619Y23586D01*
X77589Y23764D01*
X77548Y23930D01*
X77495Y24085D01*
X77430Y24227D01*
X77353Y24358D01*
X77264Y24476D01*
X77164Y24583D01*
X77052Y24677D01*
X79414D01*
X79302Y24583D01*
D02*
G37*
G36*
X39452Y21375D02*
X39376Y21297D01*
X39205Y21096D01*
X39167Y21040D01*
X39139Y20989D01*
X39120Y20944D01*
X39110Y20904D01*
X39111Y20870D01*
X39120Y20841D01*
X38361Y21601D01*
X38390Y21591D01*
X38424Y21591D01*
X38464Y21600D01*
X38509Y21619D01*
X38559Y21647D01*
X38616Y21685D01*
X38677Y21733D01*
X38817Y21856D01*
X38895Y21932D01*
X39452Y21375D01*
D02*
G37*
G36*
X57287Y22456D02*
X57299Y22325D01*
X57319Y22205D01*
X57346Y22097D01*
X57382Y22000D01*
X57425Y21914D01*
X57476Y21840D01*
X57535Y21778D01*
X57602Y21726D01*
X57677Y21686D01*
X56102D01*
X56177Y21726D01*
X56244Y21778D01*
X56303Y21840D01*
X56354Y21914D01*
X56398Y22000D01*
X56433Y22097D01*
X56461Y22205D01*
X56480Y22325D01*
X56492Y22456D01*
X56496Y22598D01*
X57284D01*
X57287Y22456D01*
D02*
G37*
G36*
X86755Y16348D02*
X86748Y16293D01*
X86708Y15772D01*
X86625Y14690D01*
X86625D01*
X86625Y14690D01*
X85453Y14842D01*
X85484Y16370D01*
X86760D01*
X86755Y16348D01*
D02*
G37*
G36*
X147244Y29544D02*
Y11417D01*
X138189Y2362D01*
Y2362D01*
X107087D01*
Y11417D01*
X101793D01*
X101755Y11463D01*
X100960Y12952D01*
X100469Y14568D01*
X100431Y14955D01*
X100900Y15243D01*
X101476Y15129D01*
X102052Y15243D01*
X102541Y15570D01*
X102867Y16058D01*
X102982Y16634D01*
Y17874D01*
X103019Y17880D01*
X103091Y17886D01*
X117099D01*
Y15448D01*
X117093Y15380D01*
X117074Y15263D01*
X117051Y15174D01*
X117028Y15112D01*
X117009Y15074D01*
X116998Y15058D01*
X116996Y15056D01*
X116944Y15028D01*
X116915Y15004D01*
X116618Y14881D01*
X115836Y14282D01*
X115237Y13500D01*
X114860Y12591D01*
X114732Y11614D01*
X114860Y10638D01*
X115237Y9728D01*
X115836Y8947D01*
X116618Y8347D01*
X117528Y7970D01*
X118504Y7842D01*
X119480Y7970D01*
X120390Y8347D01*
X121171Y8947D01*
X121771Y9728D01*
X122148Y10638D01*
X122276Y11614D01*
X122148Y12591D01*
X121771Y13500D01*
X121171Y14282D01*
X120390Y14881D01*
X120093Y15004D01*
X120064Y15028D01*
X120011Y15056D01*
X120010Y15058D01*
X119999Y15074D01*
X119980Y15112D01*
X119957Y15174D01*
X119934Y15263D01*
X119915Y15380D01*
X119909Y15448D01*
Y19291D01*
Y24084D01*
X119915Y24155D01*
X119925Y24213D01*
X122835D01*
Y28385D01*
X122847Y28504D01*
X122889Y28621D01*
X122958Y28725D01*
X123078Y28837D01*
X123275Y28956D01*
X123560Y29072D01*
X123935Y29173D01*
X124400Y29250D01*
X124949Y29298D01*
X125335Y29309D01*
X145276D01*
X145944Y29397D01*
X146566Y29654D01*
X146744Y29791D01*
X147244Y29544D01*
D02*
G37*
G36*
X83611Y8563D02*
X83468Y8422D01*
X82982Y7996D01*
X82929Y7966D01*
X82892Y7955D01*
X82869Y7962D01*
X82862Y7987D01*
Y9312D01*
X83611Y8563D01*
D02*
G37*
G36*
X76380Y8494D02*
X76399Y8266D01*
X76416Y8164D01*
X76437Y8071D01*
X76463Y7987D01*
X76494Y7910D01*
X76529Y7843D01*
X76569Y7784D01*
X76614Y7733D01*
X74961D01*
X75006Y7784D01*
X75046Y7843D01*
X75081Y7910D01*
X75112Y7987D01*
X75138Y8071D01*
X75159Y8164D01*
X75176Y8266D01*
X75187Y8376D01*
X75197Y8621D01*
X76378D01*
X76380Y8494D01*
D02*
G37*
G36*
X52292Y5020D02*
X51822Y5018D01*
X50621Y4926D01*
X50291Y4867D01*
X49996Y4794D01*
X49736Y4706D01*
X49512Y4604D01*
X49322Y4489D01*
X49167Y4358D01*
X48610Y4915D01*
X48741Y5070D01*
X48856Y5260D01*
X48958Y5485D01*
X49045Y5744D01*
X49119Y6039D01*
X49178Y6369D01*
X49222Y6735D01*
X49270Y7570D01*
X49272Y8040D01*
X52292Y5020D01*
D02*
G37*
G36*
X94636Y11376D02*
X94989Y10569D01*
X95085Y10422D01*
X95170Y10337D01*
X95245Y10312D01*
X95308Y10349D01*
X95361Y10447D01*
X95403Y10606D01*
X94512Y5976D01*
X94547Y6216D01*
X94561Y6478D01*
X94557Y6762D01*
X94532Y7066D01*
X94488Y7392D01*
X94342Y8107D01*
X94239Y8496D01*
X93974Y9339D01*
X94497Y11767D01*
X94636Y11376D01*
D02*
G37*
G36*
X82831Y9426D02*
X82840Y9420D01*
X82848Y9409D01*
X82854Y9392D01*
X82859Y9371D01*
X82861Y9344D01*
X82862Y9312D01*
X82775Y9398D01*
X82792Y9413D01*
X82807Y9422D01*
X82820Y9427D01*
X82831Y9426D01*
D02*
G37*
G36*
X119100Y15475D02*
X119118Y15278D01*
X119148Y15099D01*
X119189Y14937D01*
X119242Y14791D01*
X119307Y14663D01*
X119384Y14552D01*
X119472Y14458D01*
X119573Y14380D01*
X119685Y14320D01*
X117323D01*
X117435Y14380D01*
X117535Y14458D01*
X117624Y14552D01*
X117701Y14663D01*
X117766Y14791D01*
X117819Y14937D01*
X117860Y15099D01*
X117890Y15278D01*
X117908Y15475D01*
X117913Y15688D01*
X119095D01*
X119100Y15475D01*
D02*
G37*
G36*
X99543Y16336D02*
X99535Y16276D01*
X99531Y16190D01*
X99534Y15939D01*
X99588Y15125D01*
X99611Y14856D01*
X98443Y14682D01*
X98280Y16370D01*
X99555D01*
X99543Y16336D01*
D02*
G37*
G36*
X32721Y11746D02*
X32732Y11610D01*
X32752Y11490D01*
X32779Y11386D01*
X32815Y11298D01*
X32858Y11226D01*
X32909Y11170D01*
X32969Y11130D01*
X33035Y11106D01*
X33110Y11098D01*
X31535D01*
X31610Y11106D01*
X31677Y11130D01*
X31736Y11170D01*
X31787Y11226D01*
X31831Y11298D01*
X31866Y11386D01*
X31894Y11490D01*
X31913Y11610D01*
X31925Y11746D01*
X31929Y11897D01*
X32717D01*
X32721Y11746D01*
D02*
G37*
G36*
X102374Y7593D02*
X102366Y7644D01*
X102341Y7706D01*
X102299Y7781D01*
X102241Y7868D01*
X102165Y7968D01*
X101965Y8204D01*
X101539Y8649D01*
X102264Y9595D01*
X102285Y9576D01*
X102304Y9564D01*
X102320Y9559D01*
X102334Y9560D01*
X102347Y9567D01*
X102357Y9582D01*
X102364Y9603D01*
X102370Y9630D01*
X102373Y9664D01*
X102374Y9705D01*
Y7593D01*
D02*
G37*
G36*
X91231Y9405D02*
X91092Y8894D01*
X90793Y7517D01*
X90734Y7110D01*
X90675Y6374D01*
X90675Y6045D01*
X90696Y5742D01*
X90736Y5466D01*
X89751Y10618D01*
X89798Y10433D01*
X89852Y10315D01*
X89916Y10264D01*
X89988Y10279D01*
X90069Y10362D01*
X90158Y10511D01*
X90256Y10728D01*
X90363Y11011D01*
X90603Y11778D01*
X91231Y9405D01*
D02*
G37*
G36*
X91636Y45590D02*
X91656Y45334D01*
X91673Y45216D01*
X91722Y45001D01*
X91753Y44904D01*
X91790Y44814D01*
X91831Y44730D01*
X91878Y44654D01*
X90602D01*
X90649Y44730D01*
X90690Y44814D01*
X90727Y44904D01*
X90759Y45001D01*
X90785Y45105D01*
X90807Y45216D01*
X90837Y45458D01*
X90844Y45590D01*
X90847Y45728D01*
X91634D01*
X91636Y45590D01*
D02*
G37*
G36*
X94195D02*
X94215Y45334D01*
X94232Y45216D01*
X94281Y45001D01*
X94313Y44904D01*
X94349Y44814D01*
X94390Y44730D01*
X94437Y44654D01*
X93161D01*
X93208Y44730D01*
X93249Y44814D01*
X93286Y44904D01*
X93318Y45001D01*
X93344Y45105D01*
X93366Y45216D01*
X93396Y45458D01*
X93403Y45590D01*
X93405Y45728D01*
X94193D01*
X94195Y45590D01*
D02*
G37*
G36*
X89077D02*
X89097Y45334D01*
X89114Y45216D01*
X89163Y45001D01*
X89194Y44904D01*
X89231Y44814D01*
X89272Y44730D01*
X89319Y44654D01*
X88043D01*
X88090Y44730D01*
X88131Y44814D01*
X88168Y44904D01*
X88200Y45001D01*
X88226Y45105D01*
X88248Y45216D01*
X88278Y45458D01*
X88285Y45590D01*
X88287Y45728D01*
X89075D01*
X89077Y45590D01*
D02*
G37*
G36*
X32791Y44577D02*
X32735Y44561D01*
X32673Y44536D01*
X32606Y44501D01*
X32533Y44456D01*
X32455Y44401D01*
X32282Y44262D01*
X32087Y44084D01*
X31981Y43981D01*
X31424Y44537D01*
X31528Y44643D01*
X31845Y45011D01*
X31899Y45090D01*
X31944Y45162D01*
X31979Y45230D01*
X32005Y45291D01*
X32020Y45347D01*
X32791Y44577D01*
D02*
G37*
G36*
X86516Y45712D02*
X86949D01*
X86866Y45625D01*
X86793Y45537D01*
X86728Y45445D01*
X86672Y45351D01*
X86624Y45255D01*
X86585Y45156D01*
X86576Y45124D01*
X86604Y45001D01*
X86635Y44904D01*
X86672Y44814D01*
X86713Y44730D01*
X86760Y44654D01*
X85484D01*
X85531Y44730D01*
X85572Y44814D01*
X85609Y44904D01*
X85641Y45001D01*
X85667Y45105D01*
X85670Y45119D01*
X85659Y45156D01*
X85620Y45255D01*
X85572Y45351D01*
X85516Y45445D01*
X85451Y45537D01*
X85378Y45625D01*
X85295Y45712D01*
X85728D01*
X85728Y45728D01*
X86516D01*
X86516Y45712D01*
D02*
G37*
G36*
X96754Y45590D02*
X96774Y45334D01*
X96791Y45216D01*
X96840Y45001D01*
X96872Y44904D01*
X96908Y44814D01*
X96950Y44730D01*
X96996Y44654D01*
X95721D01*
X95767Y44730D01*
X95808Y44814D01*
X95845Y44904D01*
X95877Y45001D01*
X95904Y45105D01*
X95925Y45216D01*
X95955Y45458D01*
X95962Y45590D01*
X95965Y45728D01*
X96752D01*
X96754Y45590D01*
D02*
G37*
G36*
X23992Y46965D02*
X24077Y46898D01*
X24166Y46840D01*
X24259Y46790D01*
X24357Y46747D01*
X24459Y46712D01*
X24565Y46686D01*
X24676Y46667D01*
X24790Y46656D01*
X24909Y46654D01*
X23740Y45484D01*
X23738Y45603D01*
X23727Y45718D01*
X23708Y45829D01*
X23681Y45935D01*
X23647Y46037D01*
X23604Y46135D01*
X23554Y46228D01*
X23495Y46317D01*
X23429Y46402D01*
X23354Y46483D01*
X23911Y47039D01*
X23992Y46965D01*
D02*
G37*
G36*
X97103Y46807D02*
X97029Y46718D01*
X96964Y46626D01*
X96908Y46532D01*
X96860Y46436D01*
X96821Y46337D01*
X96791Y46235D01*
X96769Y46130D01*
X96756Y46024D01*
X96752Y45914D01*
X95965D01*
X95960Y46024D01*
X95947Y46130D01*
X95926Y46235D01*
X95895Y46337D01*
X95856Y46436D01*
X95809Y46532D01*
X95752Y46626D01*
X95687Y46718D01*
X95614Y46807D01*
X95531Y46893D01*
X97185D01*
X97103Y46807D01*
D02*
G37*
G36*
X56789Y46683D02*
X56814Y46622D01*
X56849Y46554D01*
X56894Y46482D01*
X56949Y46403D01*
X57088Y46230D01*
X57266Y46035D01*
X57369Y45929D01*
X56813Y45373D01*
X56707Y45476D01*
X56339Y45793D01*
X56260Y45848D01*
X56188Y45893D01*
X56120Y45928D01*
X56059Y45953D01*
X56002Y45969D01*
X56773Y46739D01*
X56789Y46683D01*
D02*
G37*
G36*
X99313Y45590D02*
X99333Y45334D01*
X99350Y45216D01*
X99399Y45001D01*
X99431Y44904D01*
X99467Y44814D01*
X99509Y44730D01*
X99555Y44654D01*
X98280D01*
X98326Y44730D01*
X98368Y44814D01*
X98404Y44904D01*
X98436Y45001D01*
X98463Y45105D01*
X98485Y45216D01*
X98514Y45458D01*
X98521Y45590D01*
X98524Y45728D01*
X99311D01*
X99313Y45590D01*
D02*
G37*
G36*
X31399Y45969D02*
X31343Y45953D01*
X31281Y45928D01*
X31214Y45893D01*
X31141Y45848D01*
X31063Y45793D01*
X30890Y45654D01*
X30695Y45476D01*
X30589Y45373D01*
X30032Y45929D01*
X30136Y46035D01*
X30453Y46403D01*
X30507Y46482D01*
X30552Y46554D01*
X30588Y46622D01*
X30613Y46683D01*
X30628Y46739D01*
X31399Y45969D01*
D02*
G37*
G36*
X65233Y43991D02*
X65336Y43905D01*
X65433Y43835D01*
X65525Y43782D01*
X65611Y43746D01*
X65692Y43727D01*
X65767Y43724D01*
X65837Y43738D01*
X65901Y43769D01*
X65959Y43816D01*
X64846Y42702D01*
X64893Y42761D01*
X64924Y42825D01*
X64938Y42894D01*
X64935Y42970D01*
X64915Y43050D01*
X64879Y43137D01*
X64826Y43228D01*
X64757Y43326D01*
X64670Y43429D01*
X64567Y43537D01*
X65124Y44094D01*
X65233Y43991D01*
D02*
G37*
G36*
X39570Y33222D02*
X39594Y32998D01*
X39614Y32906D01*
X39641Y32829D01*
X39674Y32766D01*
X39713Y32716D01*
X39757Y32681D01*
X39808Y32660D01*
X39864Y32653D01*
X38482D01*
X38539Y32660D01*
X38589Y32681D01*
X38634Y32716D01*
X38673Y32766D01*
X38705Y32829D01*
X38732Y32906D01*
X38753Y32998D01*
X38768Y33103D01*
X38776Y33222D01*
X38780Y33356D01*
X39567D01*
X39570Y33222D01*
D02*
G37*
G36*
X49413Y33301D02*
X49425Y33165D01*
X49445Y33045D01*
X49472Y32941D01*
X49508Y32853D01*
X49551Y32781D01*
X49602Y32725D01*
X49661Y32685D01*
X49728Y32661D01*
X49803Y32653D01*
X48228D01*
X48303Y32661D01*
X48370Y32685D01*
X48429Y32725D01*
X48480Y32781D01*
X48524Y32853D01*
X48559Y32941D01*
X48587Y33045D01*
X48606Y33165D01*
X48618Y33301D01*
X48622Y33453D01*
X49409D01*
X49413Y33301D01*
D02*
G37*
G36*
X50968Y29847D02*
X50992Y29779D01*
X51032Y29721D01*
X51088Y29669D01*
X51160Y29626D01*
X51248Y29591D01*
X51352Y29563D01*
X51472Y29543D01*
X51608Y29531D01*
X51760Y29528D01*
Y28740D01*
X51608Y28736D01*
X51472Y28724D01*
X51352Y28705D01*
X51248Y28677D01*
X51160Y28642D01*
X51088Y28598D01*
X51032Y28547D01*
X50992Y28488D01*
X50968Y28421D01*
X50960Y28346D01*
Y29921D01*
X50968Y29847D01*
D02*
G37*
G36*
X119632Y30479D02*
X119519Y30267D01*
X119419Y30002D01*
X119333Y29685D01*
X119260Y29316D01*
X119201Y28893D01*
X119121Y27890D01*
X119095Y26676D01*
X117913D01*
X117907Y27309D01*
X117748Y29316D01*
X117675Y29685D01*
X117588Y30002D01*
X117489Y30267D01*
X117376Y30479D01*
X117250Y30638D01*
X119757D01*
X119632Y30479D01*
D02*
G37*
G36*
X122059Y35096D02*
X122166Y34795D01*
X122343Y34530D01*
X122592Y34299D01*
X122912Y34104D01*
X123303Y33945D01*
X123765Y33821D01*
X124299Y33732D01*
X124903Y33679D01*
X125578Y33661D01*
Y30118D01*
X124903Y30100D01*
X124299Y30047D01*
X123765Y29959D01*
X123303Y29835D01*
X122912Y29675D01*
X122592Y29480D01*
X122343Y29250D01*
X122166Y28984D01*
X122059Y28683D01*
X122023Y28346D01*
Y35433D01*
X122059Y35096D01*
D02*
G37*
G36*
X29901Y37022D02*
X29803Y36918D01*
X29719Y36817D01*
X29649Y36719D01*
X29592Y36623D01*
X29548Y36529D01*
X29518Y36438D01*
X29502Y36349D01*
X29499Y36263D01*
X29510Y36180D01*
X29535Y36099D01*
X28421Y37212D01*
X28503Y37187D01*
X28586Y37176D01*
X28672Y37179D01*
X28761Y37195D01*
X28852Y37225D01*
X28946Y37269D01*
X29042Y37326D01*
X29140Y37396D01*
X29241Y37481D01*
X29344Y37578D01*
X29901Y37022D01*
D02*
G37*
G36*
X25177Y41549D02*
X25079Y41446D01*
X24995Y41345D01*
X24924Y41246D01*
X24867Y41150D01*
X24824Y41057D01*
X24794Y40966D01*
X24778Y40877D01*
X24775Y40791D01*
X24786Y40707D01*
X24811Y40626D01*
X23697Y41740D01*
X23778Y41715D01*
X23862Y41704D01*
X23948Y41707D01*
X24037Y41723D01*
X24128Y41753D01*
X24221Y41796D01*
X24317Y41853D01*
X24416Y41924D01*
X24517Y42008D01*
X24620Y42106D01*
X25177Y41549D01*
D02*
G37*
G36*
X34183Y43185D02*
X34127Y43169D01*
X34065Y43144D01*
X33998Y43109D01*
X33925Y43064D01*
X33847Y43009D01*
X33674Y42870D01*
X33479Y42692D01*
X33373Y42589D01*
X32816Y43145D01*
X32920Y43251D01*
X33237Y43619D01*
X33291Y43698D01*
X33336Y43770D01*
X33371Y43838D01*
X33397Y43899D01*
X33412Y43955D01*
X34183Y43185D01*
D02*
G37*
G36*
X35575Y41793D02*
X35519Y41777D01*
X35457Y41752D01*
X35390Y41717D01*
X35317Y41672D01*
X35239Y41617D01*
X35066Y41478D01*
X34871Y41300D01*
X34765Y41197D01*
X34208Y41753D01*
X34312Y41859D01*
X34628Y42228D01*
X34683Y42306D01*
X34728Y42379D01*
X34763Y42446D01*
X34789Y42507D01*
X34804Y42564D01*
X35575Y41793D01*
D02*
G37*
G36*
X51221Y41115D02*
X51246Y41054D01*
X51281Y40986D01*
X51326Y40914D01*
X51381Y40836D01*
X51520Y40663D01*
X51698Y40467D01*
X51802Y40361D01*
X51245Y39805D01*
X51139Y39908D01*
X50771Y40225D01*
X50693Y40280D01*
X50620Y40325D01*
X50553Y40360D01*
X50491Y40385D01*
X50435Y40401D01*
X51205Y41172D01*
X51221Y41115D01*
D02*
G37*
G36*
X47468Y40537D02*
X47409Y40584D01*
X47345Y40615D01*
X47275Y40628D01*
X47199Y40625D01*
X47118Y40605D01*
X47031Y40568D01*
X46938Y40514D01*
X46839Y40443D01*
X46734Y40355D01*
X46624Y40250D01*
X46068Y40807D01*
X46172Y40917D01*
X46260Y41022D01*
X46331Y41120D01*
X46385Y41214D01*
X46422Y41301D01*
X46442Y41382D01*
X46446Y41458D01*
X46432Y41528D01*
X46402Y41592D01*
X46354Y41651D01*
X47468Y40537D01*
D02*
G37*
G36*
X38981Y102106D02*
X38994Y101999D01*
X39015Y101895D01*
X39046Y101793D01*
X39085Y101694D01*
X39132Y101597D01*
X39189Y101504D01*
X39254Y101412D01*
X39327Y101323D01*
X39409Y101237D01*
X37756D01*
X37838Y101323D01*
X37912Y101412D01*
X37977Y101504D01*
X38033Y101597D01*
X38081Y101694D01*
X38120Y101793D01*
X38150Y101895D01*
X38172Y101999D01*
X38185Y102106D01*
X38189Y102216D01*
X38976D01*
X38981Y102106D01*
D02*
G37*
G36*
X34965Y101591D02*
X34898Y101567D01*
X34839Y101527D01*
X34787Y101471D01*
X34744Y101399D01*
X34709Y101311D01*
X34681Y101207D01*
X34661Y101087D01*
X34650Y100951D01*
X34646Y100799D01*
X33858D01*
X33854Y100951D01*
X33843Y101087D01*
X33823Y101207D01*
X33795Y101311D01*
X33760Y101399D01*
X33716Y101471D01*
X33665Y101527D01*
X33606Y101567D01*
X33539Y101591D01*
X33465Y101599D01*
X35039D01*
X34965Y101591D01*
D02*
G37*
G36*
X77435Y103272D02*
X77486Y103205D01*
X77549Y103146D01*
X77623Y103094D01*
X77709Y103051D01*
X77806Y103016D01*
X77914Y102988D01*
X78033Y102969D01*
X78164Y102957D01*
X78307Y102953D01*
Y102165D01*
X78164Y102161D01*
X78033Y102150D01*
X77914Y102130D01*
X77806Y102102D01*
X77709Y102067D01*
X77623Y102024D01*
X77549Y101972D01*
X77486Y101913D01*
X77435Y101847D01*
X77395Y101772D01*
Y103347D01*
X77435Y103272D01*
D02*
G37*
G36*
X60811Y109327D02*
X60744Y109303D01*
X60685Y109263D01*
X60634Y109207D01*
X60590Y109135D01*
X60555Y109047D01*
X60527Y108943D01*
X60508Y108823D01*
X60496Y108687D01*
X60492Y108536D01*
X59705D01*
X59701Y108687D01*
X59689Y108823D01*
X59669Y108943D01*
X59642Y109047D01*
X59606Y109135D01*
X59563Y109207D01*
X59512Y109263D01*
X59453Y109303D01*
X59386Y109327D01*
X59311Y109335D01*
X60886D01*
X60811Y109327D01*
D02*
G37*
G36*
X18701Y121437D02*
X18342Y121365D01*
X17821Y121017D01*
X17821Y121017D01*
X14631Y117827D01*
X14193Y117740D01*
X13541Y117305D01*
X13106Y116654D01*
X12954Y115886D01*
X13106Y115118D01*
X13541Y114467D01*
X14193Y114032D01*
X14961Y113879D01*
X15729Y114032D01*
X16380Y114467D01*
X16815Y115118D01*
X16899Y115539D01*
X17028Y115682D01*
X18239Y116893D01*
X18701Y116702D01*
Y110464D01*
X15947D01*
X15712Y110905D01*
X15749Y110961D01*
X15879Y111614D01*
X15749Y112267D01*
X15380Y112820D01*
X14826Y113190D01*
X14173Y113320D01*
X13520Y113190D01*
X12967Y112820D01*
X12597Y112267D01*
X12467Y111614D01*
X12597Y110961D01*
X12963Y110414D01*
X13235Y109994D01*
X12887Y109473D01*
X12764Y108858D01*
X12887Y108244D01*
X13235Y107723D01*
Y107435D01*
X12887Y106914D01*
X12764Y106299D01*
X12887Y105685D01*
X13235Y105164D01*
Y104876D01*
X12887Y104355D01*
X12764Y103740D01*
X12887Y103126D01*
X13235Y102605D01*
Y102316D01*
X12887Y101796D01*
X12764Y101181D01*
X12887Y100567D01*
X13235Y100046D01*
Y99757D01*
X12887Y99237D01*
X12764Y98622D01*
X12887Y98008D01*
X13235Y97487D01*
X12963Y97067D01*
X12597Y96519D01*
X12467Y95866D01*
X12597Y95213D01*
X12967Y94660D01*
X13520Y94290D01*
X14173Y94160D01*
X14826Y94290D01*
X15380Y94660D01*
X15749Y95213D01*
X15879Y95866D01*
X15749Y96519D01*
X15712Y96575D01*
X15947Y97016D01*
X18110D01*
X18314Y97057D01*
X18701Y96740D01*
Y80709D01*
X8677D01*
Y82496D01*
X6913D01*
Y83424D01*
X7579D01*
X8328Y83523D01*
X9026Y83812D01*
X9626Y84272D01*
X10086Y84872D01*
X10375Y85570D01*
X10474Y86319D01*
Y88476D01*
X5709D01*
Y89476D01*
X10474D01*
Y91634D01*
X10375Y92383D01*
X10086Y93081D01*
X9626Y93681D01*
X9026Y94141D01*
X8603Y94316D01*
Y94857D01*
X9026Y95032D01*
X9626Y95492D01*
X10086Y96092D01*
X10375Y96790D01*
X10474Y97539D01*
Y103240D01*
X5709D01*
Y104240D01*
X10474D01*
Y109941D01*
X10375Y110690D01*
X10086Y111388D01*
X9626Y111988D01*
X9026Y112448D01*
X8603Y112623D01*
Y113164D01*
X9026Y113339D01*
X9626Y113800D01*
X10086Y114399D01*
X10375Y115097D01*
X10474Y115847D01*
Y118004D01*
X5709D01*
Y119004D01*
X10474D01*
Y121161D01*
X10375Y121911D01*
X10086Y122609D01*
X9692Y123122D01*
X9833Y123622D01*
X18701D01*
Y121437D01*
D02*
G37*
G36*
X30319Y101009D02*
X30331Y100877D01*
X30350Y100758D01*
X30378Y100652D01*
X30413Y100558D01*
X30457Y100478D01*
X30508Y100411D01*
X30567Y100356D01*
X30634Y100315D01*
X30709Y100287D01*
X29134D01*
X29209Y100315D01*
X29276Y100356D01*
X29335Y100411D01*
X29386Y100478D01*
X29429Y100558D01*
X29465Y100652D01*
X29492Y100758D01*
X29512Y100877D01*
X29524Y101009D01*
X29528Y101155D01*
X30315D01*
X30319Y101009D01*
D02*
G37*
G36*
X87718Y99793D02*
X87645Y99826D01*
X87568Y99844D01*
X87488Y99848D01*
X87404Y99836D01*
X87317Y99810D01*
X87226Y99769D01*
X87131Y99713D01*
X87033Y99643D01*
X86931Y99558D01*
X86826Y99458D01*
X86269Y100014D01*
X86369Y100120D01*
X86454Y100222D01*
X86524Y100320D01*
X86580Y100415D01*
X86621Y100506D01*
X86647Y100593D01*
X86659Y100677D01*
X86655Y100757D01*
X86637Y100834D01*
X86604Y100907D01*
X87718Y99793D01*
D02*
G37*
G36*
X61531Y114382D02*
X61555Y114351D01*
X61594Y114323D01*
X61649Y114299D01*
X61720Y114278D01*
X61807Y114262D01*
X61909Y114249D01*
X62161Y114234D01*
X62311Y114232D01*
Y113445D01*
X62161Y113443D01*
X61807Y113415D01*
X61720Y113399D01*
X61649Y113378D01*
X61594Y113354D01*
X61555Y113327D01*
X61531Y113295D01*
X61523Y113260D01*
Y114417D01*
X61531Y114382D01*
D02*
G37*
G36*
X147244Y138189D02*
Y34235D01*
X146744Y33988D01*
X146566Y34125D01*
X145944Y34383D01*
X145276Y34471D01*
X125335D01*
X124949Y34481D01*
X124400Y34529D01*
X123935Y34606D01*
X123560Y34707D01*
X123275Y34824D01*
X123078Y34943D01*
X122958Y35054D01*
X122889Y35158D01*
X122847Y35275D01*
X122835Y35394D01*
Y39567D01*
X114173D01*
Y24213D01*
X117083D01*
X117093Y24155D01*
X117099Y24084D01*
Y20696D01*
X103091D01*
X103019Y20703D01*
X102982Y20709D01*
Y21949D01*
X102867Y22525D01*
X102541Y23013D01*
X102052Y23339D01*
X101476Y23454D01*
X100900Y23339D01*
X100530Y23092D01*
X100197Y23044D01*
X99863Y23092D01*
X99493Y23339D01*
X99425Y23353D01*
Y24500D01*
X97244D01*
Y25500D01*
X99425D01*
Y29224D01*
X97244D01*
Y30224D01*
X99425D01*
Y33949D01*
X97244D01*
Y34449D01*
X96744D01*
Y36630D01*
X93020D01*
Y34449D01*
X92020D01*
Y36630D01*
X88295D01*
Y34449D01*
X87795D01*
Y33949D01*
X85614D01*
Y30224D01*
X87795D01*
Y29224D01*
X85614D01*
Y25500D01*
X87795D01*
Y24500D01*
X85614D01*
Y23353D01*
X85546Y23339D01*
X85058Y23013D01*
X84627D01*
X84139Y23339D01*
X83563Y23454D01*
X82987Y23339D01*
X82499Y23013D01*
X82172Y22525D01*
X82058Y21949D01*
Y20709D01*
X82021Y20703D01*
X81948Y20696D01*
X79921D01*
X79638Y20929D01*
Y23419D01*
X79644Y23483D01*
X79663Y23601D01*
X79688Y23702D01*
X79717Y23787D01*
X79749Y23856D01*
X79782Y23912D01*
X79817Y23959D01*
X79854Y23998D01*
X79931Y24063D01*
X79953Y24090D01*
X79982Y24110D01*
X79996Y24131D01*
X80198Y24286D01*
X80640Y24862D01*
X80918Y25532D01*
X81012Y26252D01*
X80918Y26971D01*
X80640Y27642D01*
X80198Y28218D01*
X79623Y28659D01*
X78952Y28937D01*
X78233Y29032D01*
X77513Y28937D01*
X76843Y28659D01*
X76267Y28218D01*
X75826Y27642D01*
X75548Y26971D01*
X75453Y26252D01*
X75548Y25532D01*
X75826Y24862D01*
X76267Y24286D01*
X76469Y24131D01*
X76484Y24110D01*
X76513Y24090D01*
X76534Y24063D01*
X76611Y23998D01*
X76649Y23959D01*
X76683Y23912D01*
X76717Y23856D01*
X76748Y23787D01*
X76777Y23702D01*
X76802Y23601D01*
X76822Y23483D01*
X76828Y23419D01*
Y18185D01*
X74794Y16151D01*
X74489Y15695D01*
X74382Y15157D01*
Y8399D01*
X74380Y8373D01*
X74371Y8318D01*
X74369Y8309D01*
X74368Y8309D01*
X73933Y7658D01*
X73780Y6890D01*
X73933Y6122D01*
X74368Y5471D01*
X75019Y5035D01*
X75787Y4883D01*
X76556Y5035D01*
X77207Y5471D01*
X77642Y6122D01*
X77649Y6161D01*
X78149Y6112D01*
Y2362D01*
X49024D01*
X48817Y2862D01*
X49779Y3824D01*
X49792Y3835D01*
X49888Y3893D01*
X50031Y3958D01*
X50222Y4022D01*
X50459Y4081D01*
X50723Y4128D01*
X51855Y4215D01*
X52191Y4216D01*
X52323Y4199D01*
X53325Y4331D01*
X54259Y4718D01*
X55060Y5333D01*
X55676Y6135D01*
X56063Y7069D01*
X56195Y8071D01*
X56063Y9073D01*
X55676Y10007D01*
X55060Y10809D01*
X54259Y11424D01*
X53325Y11811D01*
X52323Y11943D01*
X51321Y11811D01*
X50387Y11424D01*
X49585Y10809D01*
X48970Y10007D01*
X48583Y9073D01*
X48451Y8071D01*
X48469Y7939D01*
X48467Y7594D01*
X48423Y6806D01*
X48384Y6489D01*
X48333Y6207D01*
X48274Y5970D01*
X48210Y5779D01*
X48145Y5636D01*
X48087Y5540D01*
X48076Y5527D01*
X47296Y4747D01*
X45384D01*
X45263Y5248D01*
X45862Y6028D01*
X46270Y7013D01*
X46343Y7571D01*
X42323D01*
Y8071D01*
X41823D01*
Y12091D01*
X41265Y12018D01*
X40280Y11610D01*
X39434Y10960D01*
X39106Y10533D01*
X38606Y10703D01*
Y12205D01*
X38606Y12205D01*
X38514Y12666D01*
X38253Y13056D01*
X35102Y16207D01*
Y17571D01*
X35602Y17789D01*
X36012Y17475D01*
X36682Y17197D01*
X37402Y17102D01*
X38121Y17197D01*
X38791Y17475D01*
X39367Y17916D01*
X39809Y18492D01*
X40086Y19162D01*
X40181Y19882D01*
X40086Y20601D01*
X40010Y20787D01*
X40025Y20802D01*
X40025Y20802D01*
X40286Y21193D01*
X40378Y21654D01*
X40378Y21654D01*
Y24803D01*
X41929D01*
Y33465D01*
X41638D01*
X41447Y33926D01*
X47178Y39658D01*
X48275Y38561D01*
X48731Y38256D01*
X49269Y38149D01*
X49806Y38256D01*
X50262Y38561D01*
X50293Y38606D01*
X50864Y38689D01*
X51158Y38436D01*
Y37703D01*
X48164Y34710D01*
X47903Y34319D01*
X47811Y33858D01*
X47519Y33465D01*
X46260D01*
Y24803D01*
X51772D01*
Y27314D01*
X52272Y27521D01*
X55686Y24107D01*
Y22450D01*
X55683Y22426D01*
X55674Y22370D01*
X55672Y22360D01*
X55500Y22289D01*
X54924Y21847D01*
X54483Y21272D01*
X54205Y20601D01*
X54110Y19882D01*
X54205Y19162D01*
X54483Y18492D01*
X54924Y17916D01*
X55500Y17475D01*
X56170Y17197D01*
X56890Y17102D01*
X57609Y17197D01*
X58280Y17475D01*
X58855Y17916D01*
X59297Y18492D01*
X59575Y19162D01*
X59669Y19882D01*
X59575Y20601D01*
X59297Y21272D01*
X58855Y21847D01*
X58280Y22289D01*
X58108Y22360D01*
X58105Y22370D01*
X58096Y22426D01*
X58094Y22450D01*
Y24606D01*
X58094Y24606D01*
X58002Y25067D01*
X57741Y25458D01*
X57741Y25458D01*
X53214Y29985D01*
X52823Y30246D01*
X52362Y30338D01*
X52362Y30338D01*
X51772D01*
Y33465D01*
X50978D01*
X50787Y33926D01*
X53214Y36353D01*
X53475Y36744D01*
X53566Y37205D01*
Y39244D01*
X53475Y39705D01*
X53214Y40096D01*
X53214Y40096D01*
X52716Y40594D01*
X52822Y41195D01*
X53046Y41344D01*
X53351Y41800D01*
X53455Y42327D01*
X53982Y42432D01*
X54438Y42736D01*
X54742Y43192D01*
X54805Y43506D01*
X54836Y43500D01*
X55457Y43624D01*
X55559Y43692D01*
X52534Y46717D01*
X49509Y49742D01*
X49441Y49640D01*
X49317Y49019D01*
X49323Y48988D01*
X49009Y48925D01*
X48553Y48621D01*
X48249Y48165D01*
X48144Y47638D01*
X47617Y47533D01*
X47162Y47229D01*
X46857Y46773D01*
X46752Y46246D01*
X46225Y46141D01*
X45770Y45837D01*
X45465Y45381D01*
X45360Y44854D01*
X44833Y44749D01*
X44378Y44445D01*
X44073Y43989D01*
X43966Y43451D01*
X44073Y42914D01*
X44378Y42458D01*
X45475Y41361D01*
X38322Y34208D01*
X38061Y33817D01*
X37991Y33465D01*
X36417D01*
Y24803D01*
X37969D01*
Y22966D01*
X37593Y22636D01*
X37402Y22662D01*
X36682Y22567D01*
X36012Y22289D01*
X35602Y21975D01*
X35102Y22193D01*
Y40019D01*
X35602Y40171D01*
X35748Y39952D01*
X36203Y39648D01*
X36730Y39543D01*
X36835Y39016D01*
X37140Y38561D01*
X37595Y38256D01*
X38133Y38149D01*
X38671Y38256D01*
X39127Y38561D01*
X43024Y42458D01*
X43328Y42914D01*
X43435Y43451D01*
X43328Y43989D01*
X43024Y44445D01*
X42568Y44749D01*
X42041Y44854D01*
X41936Y45381D01*
X41632Y45837D01*
X41176Y46141D01*
X40649Y46246D01*
X40545Y46773D01*
X40240Y47229D01*
X39784Y47533D01*
X39257Y47638D01*
X39153Y48165D01*
X38848Y48621D01*
X38624Y48770D01*
X38518Y49371D01*
X43060Y53914D01*
X47478D01*
X47515Y53906D01*
X47551Y53895D01*
X47587Y53881D01*
X47624Y53863D01*
X47663Y53840D01*
X47705Y53810D01*
X47737Y53784D01*
X47793Y53699D01*
X48445Y53264D01*
X49213Y53111D01*
X49981Y53264D01*
X50632Y53699D01*
X51067Y54350D01*
X51220Y55118D01*
X51067Y55886D01*
X50632Y56537D01*
X50547Y56594D01*
X50520Y56626D01*
X50491Y56668D01*
X50468Y56706D01*
X50449Y56744D01*
X50435Y56780D01*
X50424Y56816D01*
X50417Y56853D01*
Y61270D01*
X54763Y65616D01*
X55364Y65510D01*
X55513Y65286D01*
X55969Y64981D01*
X56496Y64876D01*
X56601Y64350D01*
X56905Y63894D01*
X57129Y63744D01*
X57235Y63143D01*
X56826Y62734D01*
X56565Y62343D01*
X56473Y61882D01*
X56473Y61882D01*
Y60986D01*
X56465Y60950D01*
X56454Y60913D01*
X56440Y60877D01*
X56422Y60840D01*
X56399Y60801D01*
X56369Y60760D01*
X56343Y60728D01*
X56258Y60671D01*
X55823Y60020D01*
X55670Y59252D01*
X55823Y58484D01*
X56258Y57833D01*
X56775Y57487D01*
X56876Y57088D01*
X56856Y56898D01*
X56601Y56516D01*
X56496Y55990D01*
X55969Y55885D01*
X55889Y55831D01*
X55439Y56132D01*
X55550Y56693D01*
X55398Y57461D01*
X54962Y58112D01*
X54311Y58547D01*
X53543Y58700D01*
X52775Y58547D01*
X52124Y58112D01*
X51689Y57461D01*
X51536Y56693D01*
X51689Y55925D01*
X52124Y55274D01*
X52209Y55217D01*
X52235Y55185D01*
X52265Y55144D01*
X52288Y55105D01*
X52306Y55067D01*
X52321Y55031D01*
X52332Y54995D01*
X52339Y54958D01*
Y54766D01*
X52339Y54766D01*
X52431Y54305D01*
X52692Y53915D01*
X53060Y53547D01*
X52953Y52946D01*
X52729Y52797D01*
X52425Y52341D01*
X52320Y51814D01*
X51793Y51709D01*
X51337Y51405D01*
X51033Y50949D01*
X50970Y50635D01*
X50939Y50641D01*
X50318Y50517D01*
X50216Y50449D01*
X53241Y47424D01*
X56429Y44236D01*
X56761Y44278D01*
X57402Y43637D01*
X57402Y43637D01*
X57793Y43376D01*
X58254Y43284D01*
X63590D01*
X63883Y42871D01*
X62888Y41876D01*
X66786Y37978D01*
X70683Y41876D01*
X68162Y44397D01*
X68353Y44859D01*
X80709D01*
X80709Y44859D01*
X81169Y44950D01*
X81497Y45169D01*
X81716Y45076D01*
X81939Y44883D01*
X81841Y44390D01*
Y42232D01*
X83563D01*
Y41732D01*
X84063D01*
Y37452D01*
X84222Y37484D01*
X84781Y37857D01*
X85353Y37813D01*
X85546Y37684D01*
X86122Y37569D01*
X86698Y37684D01*
X87186Y38010D01*
X87617D01*
X88105Y37684D01*
X88681Y37569D01*
X89257Y37684D01*
X89627Y37931D01*
X89961Y37979D01*
X90294Y37931D01*
X90664Y37684D01*
X91240Y37569D01*
X91816Y37684D01*
X92304Y38010D01*
X92735D01*
X93223Y37684D01*
X93799Y37569D01*
X94375Y37684D01*
X94745Y37931D01*
X95079Y37979D01*
X95412Y37931D01*
X95782Y37684D01*
X96358Y37569D01*
X96934Y37684D01*
X97423Y38010D01*
X97853D01*
X98341Y37684D01*
X98917Y37569D01*
X99493Y37684D01*
X99687Y37813D01*
X100259Y37857D01*
X100817Y37484D01*
X100976Y37452D01*
Y41732D01*
Y46012D01*
X100817Y45981D01*
X100622Y45850D01*
X100122Y46117D01*
Y69882D01*
Y76378D01*
X100030Y76839D01*
X99769Y77229D01*
X99378Y77491D01*
X98917Y77582D01*
X95472D01*
Y79134D01*
X89961D01*
Y73622D01*
X95472D01*
Y75174D01*
X97713D01*
Y71086D01*
X95088D01*
X95064Y71088D01*
X95007Y71098D01*
X94998Y71100D01*
X94927Y71272D01*
X94485Y71847D01*
X93910Y72289D01*
X93239Y72567D01*
X92520Y72662D01*
X91800Y72567D01*
X91130Y72289D01*
X90554Y71847D01*
X90112Y71272D01*
X89835Y70601D01*
X89740Y69882D01*
X89835Y69162D01*
X90112Y68492D01*
X90554Y67916D01*
X91130Y67475D01*
X91800Y67197D01*
X92520Y67102D01*
X93239Y67197D01*
X93910Y67475D01*
X94485Y67916D01*
X94927Y68492D01*
X94998Y68664D01*
X95007Y68666D01*
X95064Y68676D01*
X95088Y68678D01*
X97713D01*
Y64522D01*
X97557Y64412D01*
X97213Y64301D01*
X96917Y64498D01*
X96457Y64590D01*
X95285D01*
X95261Y64592D01*
X95204Y64601D01*
X95195Y64604D01*
X95124Y64776D01*
X94682Y65351D01*
X94106Y65793D01*
X93436Y66071D01*
X92716Y66166D01*
X91997Y66071D01*
X91327Y65793D01*
X90751Y65351D01*
X90309Y64776D01*
X90032Y64105D01*
X89937Y63386D01*
X90032Y62666D01*
X90309Y61996D01*
X90751Y61420D01*
X91327Y60979D01*
X91997Y60701D01*
X92716Y60606D01*
X93436Y60701D01*
X94106Y60979D01*
X94682Y61420D01*
X94752Y61512D01*
X95252Y61342D01*
Y59646D01*
X89961D01*
Y54134D01*
X90451D01*
X90806Y53634D01*
X90710Y53150D01*
X90862Y52381D01*
X91297Y51730D01*
X91948Y51295D01*
X92716Y51143D01*
X93485Y51295D01*
X94136Y51730D01*
X94571Y52381D01*
X94724Y53150D01*
X94627Y53634D01*
X94982Y54134D01*
X95472D01*
Y55686D01*
X96457D01*
X96917Y55777D01*
X97213Y55975D01*
X97557Y55863D01*
X97713Y55753D01*
Y49729D01*
X97272Y49493D01*
X97126Y49591D01*
X96358Y49743D01*
X95590Y49591D01*
X94939Y49155D01*
X94510Y48513D01*
X94458Y48437D01*
X93968Y48348D01*
X89102Y53214D01*
X88712Y53475D01*
X88251Y53566D01*
X88251Y53566D01*
X79348D01*
X79157Y54028D01*
X80814Y55686D01*
X82874D01*
Y54134D01*
X88386D01*
Y59646D01*
X82874D01*
Y58094D01*
X80315D01*
X79854Y58002D01*
X79463Y57741D01*
X79463Y57741D01*
X76863Y55141D01*
X66020D01*
X65943Y55237D01*
X65917Y55275D01*
X65899Y55303D01*
X65899Y55305D01*
X65897Y55309D01*
X65878Y55403D01*
X65763Y55575D01*
X65758Y55585D01*
X65754Y55588D01*
X65573Y55859D01*
X61676Y59756D01*
X61220Y60061D01*
X60682Y60168D01*
X60145Y60061D01*
X60046Y59995D01*
X59531Y60020D01*
X59096Y60671D01*
X59127Y61099D01*
X59143Y61151D01*
X59689Y61110D01*
X60145Y60805D01*
X60682Y60698D01*
X61220Y60805D01*
X61676Y61110D01*
X62773Y62207D01*
X64218Y60763D01*
X64608Y60502D01*
X65069Y60410D01*
X65069Y60410D01*
X74606D01*
X74606Y60410D01*
X75067Y60502D01*
X75458Y60763D01*
X75733Y61038D01*
X75929Y60933D01*
X77846D01*
Y62850D01*
X77742Y63046D01*
X80576Y65881D01*
X80837Y66271D01*
X80929Y66732D01*
Y73517D01*
X82374Y74962D01*
X82874Y74755D01*
Y73622D01*
X88386D01*
Y79134D01*
X82874D01*
Y77582D01*
X82087D01*
X81626Y77491D01*
X81235Y77229D01*
X78873Y74867D01*
X78612Y74477D01*
X78520Y74016D01*
X78520Y74016D01*
Y67231D01*
X75163Y63874D01*
X74717Y64135D01*
X74842Y64764D01*
X74689Y65532D01*
X74254Y66183D01*
X74169Y66240D01*
X74143Y66272D01*
X74113Y66313D01*
X74090Y66352D01*
X74072Y66389D01*
X74057Y66425D01*
X74046Y66462D01*
X74039Y66498D01*
Y76575D01*
X73947Y77036D01*
X73686Y77426D01*
X73686Y77426D01*
X62622Y88491D01*
Y96313D01*
X63122Y96464D01*
X63388Y96065D01*
X64110Y95583D01*
X64461Y95513D01*
Y97638D01*
Y99762D01*
X64110Y99692D01*
X63388Y99210D01*
X63122Y98811D01*
X62622Y98963D01*
Y103937D01*
X62622Y103937D01*
X62530Y104398D01*
X62269Y104788D01*
X62269Y104789D01*
X61303Y105755D01*
Y108524D01*
X62323D01*
Y110267D01*
X62823Y110474D01*
X64850Y108447D01*
X64850Y108447D01*
X65240Y108186D01*
X65701Y108095D01*
X65728D01*
Y106543D01*
X71240D01*
Y111788D01*
X72815D01*
Y106543D01*
X78327D01*
Y108095D01*
X79504D01*
Y103763D01*
X78159D01*
X78135Y103765D01*
X78078Y103775D01*
X78069Y103777D01*
X77998Y103949D01*
X77556Y104525D01*
X76980Y104966D01*
X76310Y105244D01*
X75590Y105339D01*
X74871Y105244D01*
X74201Y104966D01*
X73625Y104525D01*
X73183Y103949D01*
X72906Y103279D01*
X72811Y102559D01*
X72906Y101840D01*
X73183Y101169D01*
X73625Y100593D01*
X74201Y100152D01*
X74871Y99874D01*
X75590Y99779D01*
X76310Y99874D01*
X76980Y100152D01*
X77556Y100593D01*
X77998Y101169D01*
X78069Y101341D01*
X78078Y101343D01*
X78135Y101353D01*
X78159Y101355D01*
X80210D01*
X84188Y97377D01*
X84188Y97377D01*
X84339Y97225D01*
X84360Y97194D01*
X84378Y97161D01*
X84393Y97125D01*
X84407Y97086D01*
X84418Y97042D01*
X84426Y96992D01*
X84430Y96950D01*
X84410Y96850D01*
X84563Y96082D01*
X84998Y95431D01*
X85649Y94996D01*
X86417Y94843D01*
X87185Y94996D01*
X87836Y95431D01*
X88272Y96082D01*
X88424Y96850D01*
X88272Y97619D01*
X87836Y98270D01*
X87613Y98419D01*
X87850Y98862D01*
X88197Y98718D01*
X89173Y98590D01*
X90150Y98718D01*
X91059Y99095D01*
X91841Y99695D01*
X92440Y100476D01*
X92817Y101386D01*
X92946Y102362D01*
X92817Y103339D01*
X92440Y104248D01*
X91841Y105030D01*
X91059Y105629D01*
X90150Y106006D01*
X89173Y106135D01*
X88197Y106006D01*
X87287Y105629D01*
X86506Y105030D01*
X85906Y104248D01*
X85529Y103339D01*
X85401Y102362D01*
X85529Y101386D01*
X85811Y100705D01*
X85803Y100695D01*
X85039Y99931D01*
X81913Y103058D01*
Y109299D01*
X81913Y109299D01*
X81913Y109299D01*
Y110236D01*
X81821Y110697D01*
X81560Y111088D01*
X78804Y113844D01*
X78414Y114105D01*
X77953Y114196D01*
X77953Y114196D01*
X71640D01*
X71415Y114696D01*
X71736Y115177D01*
X71889Y115945D01*
X71736Y116713D01*
X71301Y117364D01*
X70650Y117799D01*
X69882Y117952D01*
X69114Y117799D01*
X68731Y117543D01*
X68370Y117904D01*
X68390Y117933D01*
X68542Y118701D01*
X68390Y119469D01*
X67955Y120120D01*
X67304Y120555D01*
X66535Y120708D01*
X65767Y120555D01*
X65116Y120120D01*
X65060Y120035D01*
X65027Y120009D01*
X64986Y119979D01*
X64947Y119956D01*
X64910Y119938D01*
X64874Y119923D01*
X64838Y119913D01*
X64801Y119905D01*
X64567D01*
X64567Y119905D01*
X64106Y119813D01*
X63715Y119552D01*
X63143Y118980D01*
X62323D01*
Y119153D01*
X61541D01*
X61523Y119157D01*
X61506Y119153D01*
X58284D01*
Y119760D01*
X57677D01*
Y123799D01*
X47047D01*
Y119760D01*
X46441D01*
Y119153D01*
X43218D01*
X43201Y119157D01*
X43184Y119153D01*
X42402D01*
Y118980D01*
X41636D01*
X41599Y118987D01*
X41563Y118998D01*
X41527Y119012D01*
X41490Y119031D01*
X41451Y119054D01*
X41410Y119083D01*
X41377Y119110D01*
X41321Y119195D01*
X40670Y119630D01*
X39902Y119783D01*
X39134Y119630D01*
X38482Y119195D01*
X38047Y118544D01*
X37894Y117776D01*
X38047Y117008D01*
X38482Y116356D01*
X39134Y115921D01*
X39341Y115880D01*
X39486Y115402D01*
X37731Y113647D01*
X37508Y113313D01*
X37288Y113307D01*
X37008Y113386D01*
Y113386D01*
X36122D01*
X35971Y113886D01*
X36175Y114022D01*
X36523Y114543D01*
X36645Y115157D01*
Y116732D01*
X36523Y117347D01*
X36175Y117868D01*
X35654Y118216D01*
X35039Y118338D01*
X33465D01*
X32850Y118216D01*
X32329Y117868D01*
X31981Y117347D01*
X31859Y116732D01*
Y115157D01*
X31981Y114543D01*
X32329Y114022D01*
X32533Y113886D01*
X32381Y113386D01*
X31496D01*
Y107874D01*
X36878D01*
X37008Y107874D01*
X37378Y107562D01*
Y106612D01*
X37008Y106299D01*
X31496D01*
Y103053D01*
X31401Y102977D01*
X30773Y103017D01*
X30773Y103017D01*
X28187Y105602D01*
X28394Y106102D01*
X30906D01*
Y111614D01*
X22244D01*
Y110541D01*
X22229Y110534D01*
X22108Y110502D01*
X21939Y110474D01*
X21821Y110464D01*
X19504D01*
Y116702D01*
X19443Y117009D01*
X19268Y117270D01*
X19218Y117873D01*
X19622Y118276D01*
X21821D01*
X21939Y118266D01*
X22108Y118238D01*
X22229Y118206D01*
X22244Y118200D01*
Y117126D01*
X30906D01*
Y122638D01*
X22244D01*
Y121564D01*
X22229Y121558D01*
X22108Y121526D01*
X21939Y121498D01*
X21821Y121487D01*
X19504D01*
Y123622D01*
X19443Y123929D01*
X19268Y124190D01*
X19008Y124364D01*
X18701Y124425D01*
X9833D01*
X9786Y124416D01*
X9739Y124419D01*
X9634Y124385D01*
X9526Y124364D01*
X9486Y124337D01*
X9441Y124323D01*
X9357Y124251D01*
X9265Y124190D01*
X9239Y124150D01*
X9203Y124119D01*
X9153Y124021D01*
X9091Y123929D01*
X8982Y123815D01*
X8490Y123660D01*
X8273Y123750D01*
X7579Y123842D01*
X3839D01*
X3145Y123750D01*
X2862Y123633D01*
X2362Y123968D01*
Y138189D01*
X11417Y147244D01*
X23700D01*
X23851Y146744D01*
X23778Y146695D01*
X23343Y146044D01*
X23190Y145276D01*
X23343Y144508D01*
X23778Y143856D01*
X24429Y143421D01*
X25197Y143269D01*
X25965Y143421D01*
X26322Y143660D01*
X26515Y143670D01*
X93036D01*
X95835Y140870D01*
Y131299D01*
X95835Y131299D01*
X95957Y130685D01*
X96306Y130164D01*
X100982Y125487D01*
X101264Y125185D01*
X101462Y124939D01*
X101575Y124779D01*
Y124163D01*
X101571Y124147D01*
X101575Y124129D01*
Y116535D01*
X112598D01*
Y117755D01*
X112615Y117912D01*
X112668Y118062D01*
X112757Y118196D01*
X112905Y118333D01*
X113137Y118474D01*
X113465Y118608D01*
X113892Y118722D01*
X114416Y118809D01*
X115032Y118863D01*
X115428Y118874D01*
X121909D01*
X122629Y118969D01*
X123299Y119246D01*
X123875Y119688D01*
X128934Y124747D01*
X129376Y125323D01*
X129654Y125993D01*
X129748Y126713D01*
X129654Y127432D01*
X129376Y128102D01*
X128934Y128678D01*
X128358Y129120D01*
X127688Y129398D01*
X126969Y129492D01*
X126249Y129398D01*
X125579Y129120D01*
X125003Y128678D01*
X122336Y126011D01*
X121874Y126203D01*
Y128293D01*
X121898Y129210D01*
X121992Y130247D01*
X122059Y130673D01*
X122140Y131053D01*
X122231Y131376D01*
X122329Y131640D01*
X122429Y131844D01*
X122558Y132040D01*
X122579Y132091D01*
X122720Y132303D01*
X122873Y133071D01*
Y135433D01*
X122720Y136201D01*
X122285Y136852D01*
X121634Y137287D01*
X120866Y137440D01*
X117323D01*
X116555Y137287D01*
X115904Y136852D01*
X115469Y136201D01*
X115316Y135433D01*
Y133071D01*
X115469Y132303D01*
X115610Y132091D01*
X115631Y132040D01*
X115760Y131844D01*
X115860Y131640D01*
X115958Y131376D01*
X116049Y131053D01*
X116130Y130673D01*
X116196Y130254D01*
X116315Y128615D01*
Y124433D01*
X115428D01*
X115032Y124444D01*
X114416Y124498D01*
X113892Y124585D01*
X113465Y124699D01*
X113137Y124833D01*
X112905Y124975D01*
X112757Y125111D01*
X112668Y125245D01*
X112615Y125395D01*
X112598Y125552D01*
Y126772D01*
X104941D01*
X104932Y126773D01*
X104929Y126772D01*
X104415D01*
X104305Y126834D01*
X104115Y126965D01*
X103683Y127328D01*
X99047Y131964D01*
Y141535D01*
X99047Y141535D01*
X98924Y142150D01*
X98576Y142671D01*
X94836Y146411D01*
X94338Y146744D01*
X94331Y146781D01*
X94494Y147244D01*
X101575D01*
Y137008D01*
X112598D01*
Y147244D01*
X138189D01*
X147244Y138189D01*
D02*
G37*
G36*
X61531Y112414D02*
X61555Y112382D01*
X61594Y112354D01*
X61649Y112330D01*
X61720Y112310D01*
X61807Y112293D01*
X61909Y112280D01*
X62161Y112266D01*
X62311Y112264D01*
Y111476D01*
X62161Y111475D01*
X61807Y111447D01*
X61720Y111430D01*
X61649Y111410D01*
X61594Y111386D01*
X61555Y111358D01*
X61531Y111327D01*
X61523Y111292D01*
Y112449D01*
X61531Y112414D01*
D02*
G37*
G36*
X34650Y113224D02*
X34661Y113090D01*
X34681Y112972D01*
X34709Y112870D01*
X34744Y112783D01*
X34787Y112712D01*
X34839Y112657D01*
X34898Y112618D01*
X34965Y112594D01*
X35039Y112586D01*
X33465D01*
X33539Y112594D01*
X33606Y112618D01*
X33665Y112657D01*
X33716Y112712D01*
X33760Y112783D01*
X33795Y112870D01*
X33823Y112972D01*
X33843Y113090D01*
X33854Y113224D01*
X33858Y113374D01*
X34646D01*
X34650Y113224D01*
D02*
G37*
G36*
X56843Y104669D02*
X56811Y104646D01*
X56783Y104606D01*
X56760Y104551D01*
X56739Y104481D01*
X56722Y104394D01*
X56710Y104291D01*
X56695Y104040D01*
X56693Y103890D01*
X55905D01*
X55904Y104040D01*
X55876Y104394D01*
X55859Y104481D01*
X55839Y104551D01*
X55815Y104606D01*
X55787Y104646D01*
X55756Y104669D01*
X55721Y104677D01*
X56878D01*
X56843Y104669D01*
D02*
G37*
G36*
X54874D02*
X54843Y104646D01*
X54815Y104606D01*
X54791Y104551D01*
X54771Y104481D01*
X54754Y104394D01*
X54741Y104291D01*
X54726Y104040D01*
X54724Y103890D01*
X53937D01*
X53935Y104040D01*
X53907Y104394D01*
X53891Y104481D01*
X53870Y104551D01*
X53846Y104606D01*
X53819Y104646D01*
X53787Y104669D01*
X53752Y104677D01*
X54909D01*
X54874Y104669D01*
D02*
G37*
G36*
X121731Y132243D02*
X121591Y131957D01*
X121467Y131625D01*
X121360Y131246D01*
X121269Y130819D01*
X121195Y130345D01*
X121096Y129257D01*
X121063Y127981D01*
X117126D01*
X117118Y128642D01*
X116994Y130345D01*
X116920Y130819D01*
X116829Y131246D01*
X116722Y131625D01*
X116598Y131957D01*
X116458Y132243D01*
X116302Y132481D01*
X121887D01*
X121731Y132243D01*
D02*
G37*
G36*
X27101Y108255D02*
X27073Y108182D01*
X27049Y108080D01*
X27027Y107951D01*
X26995Y107611D01*
X26971Y106914D01*
X27362D01*
X27287Y106906D01*
X27220Y106882D01*
X27161Y106842D01*
X27110Y106786D01*
X27067Y106714D01*
X27031Y106626D01*
X27004Y106522D01*
X26984Y106402D01*
X26972Y106266D01*
X26969Y106114D01*
X26181D01*
X26177Y106266D01*
X26165Y106402D01*
X26146Y106522D01*
X26118Y106626D01*
X26083Y106714D01*
X26039Y106786D01*
X25988Y106842D01*
X25929Y106882D01*
X25862Y106906D01*
X25787Y106914D01*
X26178D01*
X26101Y108080D01*
X26076Y108182D01*
X26049Y108255D01*
X26018Y108302D01*
X27132D01*
X27101Y108255D01*
D02*
G37*
G36*
X18515Y106966D02*
X18620Y106908D01*
X18728Y106858D01*
X18839Y106814D01*
X18953Y106777D01*
X19070Y106747D01*
X19190Y106723D01*
X19313Y106706D01*
X19439Y106696D01*
X19567Y106693D01*
Y105905D01*
X19439Y105902D01*
X19313Y105892D01*
X19190Y105875D01*
X19070Y105852D01*
X18953Y105821D01*
X18839Y105784D01*
X18728Y105740D01*
X18620Y105690D01*
X18515Y105633D01*
X18413Y105569D01*
Y107030D01*
X18515Y106966D01*
D02*
G37*
G36*
X23055Y107283D02*
X23040Y107433D01*
X22992Y107567D01*
X22913Y107685D01*
X22802Y107787D01*
X22659Y107874D01*
X22484Y107945D01*
X22278Y108000D01*
X22040Y108039D01*
X21770Y108063D01*
X21469Y108071D01*
Y109646D01*
X21770Y109653D01*
X22040Y109677D01*
X22278Y109717D01*
X22484Y109772D01*
X22659Y109843D01*
X22802Y109929D01*
X22913Y110031D01*
X22992Y110150D01*
X23040Y110284D01*
X23055Y110433D01*
Y107283D01*
D02*
G37*
G36*
X48969Y104669D02*
X48937Y104646D01*
X48910Y104606D01*
X48885Y104551D01*
X48865Y104481D01*
X48849Y104394D01*
X48836Y104291D01*
X48821Y104040D01*
X48819Y103890D01*
X48031D01*
X48030Y104040D01*
X48002Y104394D01*
X47985Y104481D01*
X47965Y104551D01*
X47941Y104606D01*
X47913Y104646D01*
X47882Y104669D01*
X47847Y104677D01*
X49004D01*
X48969Y104669D01*
D02*
G37*
G36*
X18515Y104407D02*
X18620Y104349D01*
X18728Y104299D01*
X18839Y104255D01*
X18953Y104218D01*
X19070Y104188D01*
X19190Y104164D01*
X19313Y104147D01*
X19439Y104137D01*
X19567Y104134D01*
Y103347D01*
X19439Y103343D01*
X19313Y103333D01*
X19190Y103316D01*
X19070Y103293D01*
X18953Y103262D01*
X18839Y103225D01*
X18728Y103182D01*
X18620Y103131D01*
X18515Y103074D01*
X18413Y103010D01*
Y104471D01*
X18515Y104407D01*
D02*
G37*
G36*
X77535Y110011D02*
X77559Y109944D01*
X77598Y109885D01*
X77653Y109834D01*
X77724Y109791D01*
X77811Y109755D01*
X77913Y109728D01*
X78031Y109708D01*
X78165Y109696D01*
X78315Y109692D01*
Y108905D01*
X78165Y108901D01*
X78031Y108889D01*
X77913Y108870D01*
X77811Y108842D01*
X77724Y108807D01*
X77653Y108763D01*
X77598Y108712D01*
X77559Y108653D01*
X77535Y108586D01*
X77527Y108511D01*
Y110086D01*
X77535Y110011D01*
D02*
G37*
G36*
X66540Y108511D02*
X66532Y108586D01*
X66508Y108653D01*
X66468Y108712D01*
X66412Y108763D01*
X66340Y108807D01*
X66252Y108842D01*
X66148Y108870D01*
X66028Y108889D01*
X65892Y108901D01*
X65740Y108905D01*
Y109692D01*
X65892Y109696D01*
X66028Y109708D01*
X66148Y109728D01*
X66252Y109755D01*
X66340Y109791D01*
X66412Y109834D01*
X66468Y109885D01*
X66508Y109944D01*
X66532Y110011D01*
X66540Y110086D01*
Y108511D01*
D02*
G37*
G36*
X50937Y104669D02*
X50906Y104646D01*
X50878Y104606D01*
X50854Y104551D01*
X50834Y104481D01*
X50817Y104394D01*
X50804Y104291D01*
X50789Y104040D01*
X50787Y103890D01*
X50000D01*
X49998Y104040D01*
X49970Y104394D01*
X49954Y104481D01*
X49933Y104551D01*
X49909Y104606D01*
X49882Y104646D01*
X49850Y104669D01*
X49815Y104677D01*
X50972D01*
X50937Y104669D01*
D02*
G37*
G36*
X16641Y116453D02*
X16142Y115898D01*
X14972Y117067D01*
X14988Y117072D01*
X15012Y117087D01*
X15046Y117112D01*
X15139Y117191D01*
X15432Y117471D01*
X15527Y117566D01*
X16641Y116453D01*
D02*
G37*
G36*
X40831Y118520D02*
X40920Y118447D01*
X41011Y118382D01*
X41105Y118325D01*
X41202Y118278D01*
X41301Y118239D01*
X41403Y118208D01*
X41507Y118187D01*
X41614Y118174D01*
X41724Y118169D01*
Y117382D01*
X41614Y117378D01*
X41507Y117365D01*
X41403Y117343D01*
X41301Y117313D01*
X41202Y117274D01*
X41105Y117226D01*
X41011Y117170D01*
X40920Y117105D01*
X40831Y117031D01*
X40745Y116949D01*
Y118602D01*
X40831Y118520D01*
D02*
G37*
G36*
X43201Y117197D02*
X43193Y117232D01*
X43170Y117264D01*
X43130Y117291D01*
X43075Y117315D01*
X43004Y117336D01*
X42917Y117352D01*
X42815Y117365D01*
X42563Y117380D01*
X42414Y117382D01*
Y118169D01*
X42563Y118171D01*
X42917Y118199D01*
X43004Y118216D01*
X43075Y118236D01*
X43130Y118260D01*
X43170Y118288D01*
X43193Y118319D01*
X43201Y118354D01*
Y117197D01*
D02*
G37*
G36*
X69038Y115118D02*
X68952Y115200D01*
X68863Y115274D01*
X68772Y115339D01*
X68678Y115395D01*
X68581Y115443D01*
X68482Y115482D01*
X68381Y115512D01*
X68276Y115534D01*
X68169Y115547D01*
X68060Y115551D01*
Y116339D01*
X68169Y116343D01*
X68276Y116356D01*
X68381Y116378D01*
X68482Y116408D01*
X68581Y116447D01*
X68678Y116495D01*
X68772Y116551D01*
X68863Y116616D01*
X68952Y116689D01*
X69038Y116772D01*
Y115118D01*
D02*
G37*
G36*
X43201Y115228D02*
X43193Y115264D01*
X43170Y115295D01*
X43130Y115323D01*
X43075Y115347D01*
X43004Y115367D01*
X42917Y115384D01*
X42815Y115397D01*
X42563Y115411D01*
X42414Y115413D01*
Y116201D01*
X42563Y116203D01*
X42917Y116230D01*
X43004Y116247D01*
X43075Y116267D01*
X43130Y116291D01*
X43170Y116319D01*
X43193Y116350D01*
X43201Y116386D01*
Y115228D01*
D02*
G37*
G36*
X61531Y116350D02*
X61555Y116319D01*
X61594Y116291D01*
X61649Y116267D01*
X61720Y116247D01*
X61807Y116230D01*
X61909Y116217D01*
X62161Y116203D01*
X62311Y116201D01*
Y115413D01*
X62161Y115411D01*
X61807Y115384D01*
X61720Y115367D01*
X61649Y115347D01*
X61594Y115323D01*
X61555Y115295D01*
X61531Y115264D01*
X61523Y115228D01*
Y116386D01*
X61531Y116350D01*
D02*
G37*
G36*
X23055Y118307D02*
X23040Y118457D01*
X22992Y118591D01*
X22913Y118709D01*
X22802Y118811D01*
X22659Y118898D01*
X22484Y118968D01*
X22278Y119024D01*
X22040Y119063D01*
X21770Y119087D01*
X21469Y119095D01*
Y120669D01*
X21770Y120677D01*
X22040Y120701D01*
X22278Y120740D01*
X22484Y120795D01*
X22659Y120866D01*
X22802Y120953D01*
X22913Y121055D01*
X22992Y121173D01*
X23040Y121307D01*
X23055Y121457D01*
Y118307D01*
D02*
G37*
G36*
X26055Y146095D02*
X26083Y146088D01*
X26124Y146082D01*
X26246Y146073D01*
X26651Y146063D01*
X26786Y146063D01*
Y144488D01*
X26040Y144449D01*
Y146102D01*
X26055Y146095D01*
D02*
G37*
G36*
X85488Y98343D02*
X85573Y98276D01*
X85662Y98218D01*
X85755Y98167D01*
X85853Y98125D01*
X85955Y98090D01*
X86061Y98064D01*
X86172Y98045D01*
X86286Y98034D01*
X86405Y98031D01*
X85236Y96862D01*
X85233Y96981D01*
X85223Y97096D01*
X85204Y97207D01*
X85177Y97313D01*
X85143Y97415D01*
X85100Y97513D01*
X85050Y97606D01*
X84991Y97695D01*
X84925Y97780D01*
X84850Y97860D01*
X85407Y98417D01*
X85488Y98343D01*
D02*
G37*
G36*
X61531Y118319D02*
X61555Y118288D01*
X61594Y118260D01*
X61649Y118236D01*
X61720Y118216D01*
X61807Y118199D01*
X61909Y118186D01*
X62161Y118171D01*
X62311Y118169D01*
Y117382D01*
X62161Y117380D01*
X61807Y117352D01*
X61720Y117336D01*
X61649Y117315D01*
X61594Y117291D01*
X61555Y117264D01*
X61531Y117232D01*
X61523Y117197D01*
Y118354D01*
X61531Y118319D01*
D02*
G37*
G36*
X111827Y125216D02*
X111945Y124882D01*
X112142Y124587D01*
X112419Y124331D01*
X112774Y124114D01*
X113209Y123937D01*
X113722Y123799D01*
X114314Y123701D01*
X114986Y123642D01*
X115736Y123622D01*
Y119685D01*
X114986Y119665D01*
X114314Y119606D01*
X113722Y119508D01*
X113209Y119370D01*
X112774Y119193D01*
X112419Y118976D01*
X112142Y118720D01*
X111945Y118425D01*
X111827Y118091D01*
X111787Y117717D01*
Y125591D01*
X111827Y125216D01*
D02*
G37*
G36*
X65692Y117874D02*
X65606Y117956D01*
X65517Y118030D01*
X65426Y118095D01*
X65332Y118151D01*
X65235Y118199D01*
X65136Y118238D01*
X65034Y118268D01*
X64930Y118290D01*
X64823Y118303D01*
X64713Y118307D01*
Y119095D01*
X64823Y119099D01*
X64930Y119112D01*
X65034Y119133D01*
X65136Y119164D01*
X65235Y119203D01*
X65332Y119250D01*
X65426Y119307D01*
X65517Y119372D01*
X65606Y119445D01*
X65692Y119528D01*
Y117874D01*
D02*
G37*
G36*
X34965Y114371D02*
X34898Y114347D01*
X34839Y114307D01*
X34787Y114251D01*
X34744Y114179D01*
X34709Y114091D01*
X34681Y113987D01*
X34661Y113867D01*
X34650Y113731D01*
X34646Y113579D01*
X33858D01*
X33854Y113731D01*
X33843Y113867D01*
X33823Y113987D01*
X33796Y114091D01*
X33760Y114179D01*
X33717Y114251D01*
X33667Y114307D01*
X33608Y114347D01*
X33541Y114371D01*
X33467Y114379D01*
X35039Y114379D01*
X34965Y114371D01*
D02*
G37*
G36*
X47453Y113051D02*
X47445Y113126D01*
X47421Y113193D01*
X47382Y113252D01*
X47327Y113303D01*
X47256Y113347D01*
X47170Y113382D01*
X47067Y113409D01*
X46949Y113429D01*
X46815Y113441D01*
X46721Y113443D01*
X46689Y113443D01*
X46334Y113415D01*
X46248Y113399D01*
X46177Y113378D01*
X46122Y113354D01*
X46082Y113327D01*
X46059Y113295D01*
X46051Y113260D01*
Y114417D01*
X46059Y114382D01*
X46082Y114351D01*
X46122Y114323D01*
X46177Y114299D01*
X46248Y114278D01*
X46334Y114262D01*
X46437Y114249D01*
X46689Y114234D01*
X46721Y114234D01*
X46815Y114236D01*
X46949Y114248D01*
X47067Y114268D01*
X47170Y114295D01*
X47256Y114331D01*
X47327Y114374D01*
X47382Y114425D01*
X47421Y114484D01*
X47445Y114551D01*
X47453Y114626D01*
Y113051D01*
D02*
G37*
G36*
X58126Y100902D02*
X58210Y100836D01*
X58299Y100777D01*
X58393Y100726D01*
X58491Y100684D01*
X58592Y100649D01*
X58699Y100623D01*
X58809Y100604D01*
X58924Y100593D01*
X59043Y100591D01*
X57874Y99421D01*
X57871Y99540D01*
X57861Y99655D01*
X57842Y99766D01*
X57815Y99872D01*
X57781Y99974D01*
X57738Y100072D01*
X57688Y100165D01*
X57629Y100254D01*
X57563Y100339D01*
X57488Y100420D01*
X58045Y100976D01*
X58126Y100902D01*
D02*
G37*
G36*
X103073Y126792D02*
X103629Y126325D01*
X103879Y126153D01*
X104111Y126022D01*
X104324Y125930D01*
X104519Y125880D01*
X104696Y125870D01*
X104855Y125901D01*
X104995Y125972D01*
X104364Y125531D01*
X105783Y124284D01*
X106116Y124046D01*
X106413Y123861D01*
X106674Y123728D01*
X106899Y123649D01*
X107088Y123622D01*
X105118Y121652D01*
X105092Y121842D01*
X105012Y122067D01*
X104880Y122327D01*
X104694Y122624D01*
X104456Y122957D01*
X103820Y123729D01*
X103022Y124592D01*
X102374Y124139D01*
X102481Y124244D01*
X102539Y124375D01*
X102549Y124532D01*
X102510Y124715D01*
X102423Y124925D01*
X102288Y125161D01*
X102104Y125423D01*
X101871Y125711D01*
X101261Y126366D01*
X102768Y127086D01*
X103073Y126792D01*
D02*
G37*
G36*
X42189Y113991D02*
Y112248D01*
X42402D01*
Y108524D01*
X46441D01*
Y107917D01*
X47047D01*
Y104695D01*
X47044Y104677D01*
X47047Y104660D01*
Y103878D01*
X47221D01*
Y93110D01*
X47221Y93110D01*
X47313Y92649D01*
X47574Y92259D01*
X49797Y90036D01*
X49632Y89493D01*
X49429Y89453D01*
X48778Y89018D01*
X48721Y88933D01*
X48689Y88906D01*
X48647Y88877D01*
X48609Y88854D01*
X48571Y88835D01*
X48535Y88821D01*
X48499Y88810D01*
X48462Y88803D01*
X39370D01*
X39370Y88803D01*
X38909Y88711D01*
X38519Y88450D01*
X35918Y85850D01*
X35456Y86041D01*
Y100787D01*
X36260D01*
X36577Y100401D01*
X36576Y100394D01*
X36728Y99626D01*
X37163Y98975D01*
X37815Y98539D01*
X38583Y98387D01*
X39351Y98539D01*
X40002Y98975D01*
X40437Y99626D01*
X40590Y100394D01*
X40437Y101162D01*
X40002Y101813D01*
X39917Y101869D01*
X39891Y101902D01*
X39861Y101943D01*
X39838Y101982D01*
X39819Y102019D01*
X39805Y102055D01*
X39794Y102092D01*
X39787Y102128D01*
Y112296D01*
X41689Y114199D01*
X42189Y113991D01*
D02*
G37*
%LPC*%
G36*
X15543Y36613D02*
X15374Y36393D01*
X15075Y35671D01*
X14973Y34896D01*
X15075Y34121D01*
X15374Y33399D01*
X15543Y33179D01*
X17260Y34896D01*
X15543Y36613D01*
D02*
G37*
G36*
X17967Y34189D02*
X16250Y32472D01*
X16470Y32303D01*
X17192Y32004D01*
X17967Y31902D01*
X18742Y32004D01*
X19464Y32303D01*
X19684Y32472D01*
X17967Y34189D01*
D02*
G37*
G36*
X20391Y36613D02*
X18674Y34896D01*
X20391Y33179D01*
X20560Y33399D01*
X20859Y34121D01*
X20961Y34896D01*
X20859Y35671D01*
X20560Y36393D01*
X20391Y36613D01*
D02*
G37*
G36*
X17967Y37890D02*
X17192Y37788D01*
X16470Y37489D01*
X16250Y37320D01*
X17967Y35603D01*
X19684Y37320D01*
X19464Y37489D01*
X18742Y37788D01*
X17967Y37890D01*
D02*
G37*
G36*
X8715Y47125D02*
X7996Y47030D01*
X7325Y46752D01*
X6750Y46310D01*
X6308Y45735D01*
X6030Y45064D01*
X5935Y44345D01*
X6030Y43626D01*
X6101Y43454D01*
X6096Y43445D01*
X6063Y43399D01*
X6047Y43380D01*
X4956Y42289D01*
X4694Y41898D01*
X4603Y41437D01*
X4694Y40976D01*
X4956Y40586D01*
X4956Y40586D01*
X7457Y38084D01*
Y35199D01*
X7450Y35162D01*
X7439Y35126D01*
X7425Y35090D01*
X7406Y35053D01*
X7383Y35014D01*
X7354Y34973D01*
X7327Y34940D01*
X7242Y34884D01*
X6807Y34233D01*
X6654Y33465D01*
X6807Y32697D01*
X7242Y32045D01*
X7893Y31610D01*
X8661Y31457D01*
X9430Y31610D01*
X10081Y32045D01*
X10516Y32697D01*
X10668Y33465D01*
X10516Y34233D01*
X10081Y34884D01*
X10085Y35252D01*
X10433Y35607D01*
X10894Y35699D01*
X11285Y35960D01*
X12145Y36820D01*
X13242Y35723D01*
X17140Y39621D01*
X13242Y43518D01*
X9345Y39621D01*
X8986Y39961D01*
X7753Y41194D01*
X7755Y41246D01*
X7781Y41292D01*
X8123Y41643D01*
X8715Y41565D01*
X9434Y41660D01*
X10105Y41938D01*
X10680Y42379D01*
X11122Y42955D01*
X11400Y43626D01*
X11495Y44345D01*
X11400Y45064D01*
X11122Y45735D01*
X10680Y46310D01*
X10105Y46752D01*
X9434Y47030D01*
X8715Y47125D01*
D02*
G37*
G36*
X22691Y33363D02*
X21916Y33261D01*
X21194Y32961D01*
X20974Y32793D01*
X22691Y31076D01*
X24408Y32793D01*
X24188Y32961D01*
X23466Y33261D01*
X22691Y33363D01*
D02*
G37*
G36*
X13779Y20504D02*
X12467Y20375D01*
X11206Y19993D01*
X10043Y19371D01*
X9024Y18535D01*
X8187Y17516D01*
X7566Y16353D01*
X7183Y15091D01*
X7054Y13779D01*
X7183Y12467D01*
X7566Y11206D01*
X8187Y10043D01*
X9024Y9024D01*
X10043Y8187D01*
X11206Y7566D01*
X12467Y7183D01*
X13779Y7054D01*
X15091Y7183D01*
X16353Y7566D01*
X17516Y8187D01*
X18535Y9024D01*
X19371Y10043D01*
X19993Y11206D01*
X20375Y12467D01*
X20505Y13779D01*
X20375Y15091D01*
X19993Y16353D01*
X19371Y17516D01*
X18535Y18535D01*
X17516Y19371D01*
X16353Y19993D01*
X15091Y20375D01*
X13779Y20504D01*
D02*
G37*
G36*
X15248Y28043D02*
X13624D01*
X13693Y27692D01*
X14175Y26971D01*
X14897Y26489D01*
X15248Y26419D01*
Y28043D01*
D02*
G37*
G36*
X17872D02*
X16248D01*
Y26419D01*
X16599Y26489D01*
X17321Y26971D01*
X17803Y27692D01*
X17872Y28043D01*
D02*
G37*
G36*
X15248Y30668D02*
X14897Y30598D01*
X14175Y30116D01*
X13693Y29394D01*
X13624Y29043D01*
X15248D01*
Y30668D01*
D02*
G37*
G36*
X16248D02*
Y29043D01*
X17872D01*
X17803Y29394D01*
X17321Y30116D01*
X16599Y30598D01*
X16248Y30668D01*
D02*
G37*
G36*
X20267Y32086D02*
X20098Y31866D01*
X19799Y31144D01*
X19697Y30369D01*
X19799Y29594D01*
X20098Y28872D01*
X20267Y28651D01*
X21984Y30369D01*
X20267Y32086D01*
D02*
G37*
G36*
X22691Y29661D02*
X20974Y27944D01*
X21194Y27775D01*
X21916Y27476D01*
X22691Y27374D01*
X23466Y27476D01*
X24188Y27775D01*
X24408Y27944D01*
X22691Y29661D01*
D02*
G37*
G36*
X25115Y32086D02*
X23398Y30369D01*
X25115Y28651D01*
X25284Y28872D01*
X25583Y29594D01*
X25686Y30369D01*
X25583Y31144D01*
X25284Y31866D01*
X25115Y32086D01*
D02*
G37*
G36*
X26140Y21744D02*
X24516D01*
Y20120D01*
X24867Y20189D01*
X25588Y20672D01*
X26070Y21393D01*
X26140Y21744D01*
D02*
G37*
G36*
X23516D02*
X21891D01*
X21961Y21393D01*
X22443Y20672D01*
X23165Y20189D01*
X23516Y20120D01*
Y21744D01*
D02*
G37*
G36*
Y24369D02*
X23165Y24299D01*
X22443Y23817D01*
X21961Y23095D01*
X21891Y22744D01*
X23516D01*
Y24369D01*
D02*
G37*
G36*
X24516D02*
Y22744D01*
X26140D01*
X26070Y23095D01*
X25588Y23817D01*
X24867Y24299D01*
X24516Y24369D01*
D02*
G37*
G36*
X11865Y72125D02*
X11145Y72030D01*
X10475Y71752D01*
X9899Y71310D01*
X9457Y70735D01*
X9180Y70064D01*
X9177Y70046D01*
X8677Y70078D01*
Y71941D01*
X6209D01*
Y69472D01*
X8597D01*
X8773Y69426D01*
X9094Y69273D01*
X9180Y68625D01*
X9457Y67955D01*
X9899Y67379D01*
X10475Y66938D01*
X11145Y66660D01*
X11865Y66565D01*
X12584Y66660D01*
X12756Y66731D01*
X12764Y66726D01*
X12810Y66693D01*
X12829Y66677D01*
X13035Y66471D01*
X13035Y66471D01*
X13426Y66210D01*
X13887Y66119D01*
X21001D01*
X21295Y65825D01*
X21352Y65762D01*
X21458Y65630D01*
X21485Y65592D01*
X21502Y65563D01*
X21503Y65561D01*
X21505Y65557D01*
X21524Y65463D01*
X21639Y65291D01*
X21644Y65281D01*
X21647Y65278D01*
X21828Y65007D01*
X22679Y64157D01*
X22678Y63993D01*
X22332Y63621D01*
X21564Y63468D01*
X20913Y63033D01*
X20478Y62382D01*
X20325Y61614D01*
X20478Y60846D01*
X20913Y60195D01*
X21564Y59760D01*
X22332Y59607D01*
X23100Y59760D01*
X23752Y60195D01*
X24187Y60846D01*
X24340Y61614D01*
X24711Y61960D01*
X24875Y61961D01*
X25726Y61110D01*
X26181Y60805D01*
X26719Y60698D01*
X27257Y60805D01*
X27713Y61110D01*
X28017Y61566D01*
X28080Y61880D01*
X28111Y61874D01*
X28732Y61997D01*
X28834Y62065D01*
X25809Y65091D01*
X22650Y68249D01*
X22367Y68178D01*
X22293Y68213D01*
X21960Y68435D01*
X21500Y68527D01*
X21500Y68527D01*
X15026D01*
X14602Y69027D01*
X14644Y69345D01*
X14549Y70064D01*
X14272Y70735D01*
X13830Y71310D01*
X13254Y71752D01*
X12584Y72030D01*
X11865Y72125D01*
D02*
G37*
G36*
X63046Y80145D02*
X61329Y78428D01*
X61549Y78259D01*
X62271Y77960D01*
X63046Y77858D01*
X63821Y77960D01*
X64543Y78259D01*
X64763Y78428D01*
X63046Y80145D01*
D02*
G37*
G36*
X60622Y82569D02*
X60453Y82349D01*
X60154Y81627D01*
X60052Y80852D01*
X60154Y80077D01*
X60453Y79355D01*
X60622Y79135D01*
X62339Y80852D01*
X60622Y82569D01*
D02*
G37*
G36*
X16876Y73649D02*
X15158Y71932D01*
X15379Y71763D01*
X16101Y71464D01*
X16876Y71362D01*
X17650Y71464D01*
X18373Y71763D01*
X18593Y71932D01*
X16876Y73649D01*
D02*
G37*
G36*
X14451Y76073D02*
X14283Y75853D01*
X13984Y75131D01*
X13882Y74356D01*
X13984Y73581D01*
X14283Y72859D01*
X14451Y72639D01*
X16169Y74356D01*
X14451Y76073D01*
D02*
G37*
G36*
X6209Y75410D02*
Y72941D01*
X8677D01*
Y75410D01*
X6209D01*
D02*
G37*
G36*
X15850Y54368D02*
X11602D01*
X11671Y54017D01*
X12154Y53295D01*
X12875Y52813D01*
X13089Y52771D01*
X13073Y52264D01*
X12951Y52248D01*
X12229Y51949D01*
X12009Y51780D01*
X13726Y50063D01*
X15443Y51780D01*
X15223Y51949D01*
X14501Y52248D01*
X14379Y52264D01*
X14363Y52771D01*
X14577Y52813D01*
X15299Y53295D01*
X15780Y54017D01*
X15850Y54368D01*
D02*
G37*
G36*
X38739Y54421D02*
X37114D01*
Y52797D01*
X37465Y52867D01*
X38187Y53349D01*
X38669Y54070D01*
X38739Y54421D01*
D02*
G37*
G36*
X16150Y51073D02*
X14433Y49356D01*
X16150Y47639D01*
X16319Y47859D01*
X16618Y48581D01*
X16720Y49356D01*
X16618Y50131D01*
X16319Y50853D01*
X16150Y51073D01*
D02*
G37*
G36*
X11302Y51073D02*
X11133Y50853D01*
X10834Y50131D01*
X10732Y49356D01*
X10834Y48581D01*
X11133Y47859D01*
X11302Y47639D01*
X13019Y49356D01*
X11302Y51073D01*
D02*
G37*
G36*
X13726Y48649D02*
X12009Y46932D01*
X12229Y46763D01*
X12951Y46464D01*
X13726Y46362D01*
X14501Y46464D01*
X15223Y46763D01*
X15443Y46932D01*
X13726Y48649D01*
D02*
G37*
G36*
X36114Y57046D02*
X35763Y56976D01*
X35042Y56494D01*
X34560Y55772D01*
X34490Y55421D01*
X36114D01*
Y57046D01*
D02*
G37*
G36*
X14226Y56992D02*
Y55368D01*
X15850D01*
X15780Y55719D01*
X15299Y56440D01*
X14577Y56922D01*
X14226Y56992D01*
D02*
G37*
G36*
X13226D02*
X12875Y56922D01*
X12154Y56440D01*
X11671Y55719D01*
X11602Y55368D01*
X13226D01*
Y56992D01*
D02*
G37*
G36*
X37114Y57046D02*
Y55421D01*
X38739D01*
X38669Y55772D01*
X38187Y56494D01*
X37465Y56976D01*
X37114Y57046D01*
D02*
G37*
%LPD*%
G36*
X9059Y35177D02*
X9072Y35070D01*
X9094Y34966D01*
X9124Y34864D01*
X9163Y34765D01*
X9211Y34668D01*
X9267Y34574D01*
X9332Y34483D01*
X9406Y34394D01*
X9488Y34308D01*
X7835D01*
X7917Y34394D01*
X7991Y34483D01*
X8055Y34574D01*
X8112Y34668D01*
X8159Y34765D01*
X8198Y34864D01*
X8229Y34966D01*
X8250Y35070D01*
X8263Y35177D01*
X8268Y35287D01*
X9055D01*
X9059Y35177D01*
D02*
G37*
G36*
X7996Y42512D02*
X7915Y42537D01*
X7831Y42548D01*
X7745Y42545D01*
X7656Y42529D01*
X7565Y42499D01*
X7472Y42456D01*
X7376Y42399D01*
X7277Y42328D01*
X7176Y42244D01*
X7073Y42146D01*
X6516Y42703D01*
X6614Y42806D01*
X6698Y42907D01*
X6769Y43006D01*
X6826Y43102D01*
X6869Y43195D01*
X6899Y43286D01*
X6915Y43375D01*
X6918Y43461D01*
X6907Y43545D01*
X6882Y43626D01*
X7996Y42512D01*
D02*
G37*
G36*
X12416Y37680D02*
X12357Y37728D01*
X12293Y37758D01*
X12224Y37772D01*
X12149Y37769D01*
X12068Y37750D01*
X11982Y37714D01*
X11890Y37661D01*
X11792Y37591D01*
X11689Y37505D01*
X11581Y37402D01*
X11024Y37959D01*
X11127Y38067D01*
X11213Y38170D01*
X11283Y38268D01*
X11336Y38359D01*
X11372Y38446D01*
X11391Y38527D01*
X11394Y38602D01*
X11380Y38671D01*
X11350Y38735D01*
X11302Y38794D01*
X12416Y37680D01*
D02*
G37*
G36*
X23899Y62624D02*
X23825Y62544D01*
X23758Y62459D01*
X23700Y62370D01*
X23649Y62276D01*
X23607Y62179D01*
X23572Y62077D01*
X23546Y61971D01*
X23527Y61860D01*
X23516Y61745D01*
X23513Y61626D01*
X22344Y62795D01*
X22463Y62798D01*
X22578Y62809D01*
X22689Y62827D01*
X22795Y62854D01*
X22897Y62889D01*
X22995Y62931D01*
X23088Y62982D01*
X23177Y63040D01*
X23262Y63107D01*
X23343Y63181D01*
X23899Y62624D01*
D02*
G37*
G36*
X24918Y63087D02*
X24860Y63134D01*
X24796Y63164D01*
X24726Y63178D01*
X24650Y63174D01*
X24568Y63154D01*
X24481Y63117D01*
X24388Y63063D01*
X24290Y62992D01*
X24185Y62905D01*
X24075Y62800D01*
X23518Y63357D01*
X23623Y63467D01*
X23710Y63571D01*
X23781Y63670D01*
X23835Y63763D01*
X23873Y63850D01*
X23893Y63932D01*
X23896Y64007D01*
X23883Y64078D01*
X23852Y64142D01*
X23805Y64200D01*
X24918Y63087D01*
D02*
G37*
G36*
X13672Y68545D02*
X13661Y68461D01*
X13664Y68375D01*
X13680Y68286D01*
X13710Y68195D01*
X13754Y68102D01*
X13811Y68006D01*
X13881Y67907D01*
X13966Y67806D01*
X14064Y67703D01*
X13507Y67146D01*
X13403Y67244D01*
X13302Y67328D01*
X13204Y67399D01*
X13108Y67456D01*
X13014Y67499D01*
X12923Y67529D01*
X12835Y67545D01*
X12748Y67548D01*
X12665Y67537D01*
X12584Y67512D01*
X13697Y68626D01*
X13672Y68545D01*
D02*
G37*
G36*
X22343Y67038D02*
X22711Y66721D01*
X22790Y66667D01*
X22862Y66622D01*
X22930Y66587D01*
X22991Y66561D01*
X23047Y66546D01*
X22277Y65775D01*
X22261Y65831D01*
X22236Y65893D01*
X22201Y65960D01*
X22156Y66033D01*
X22101Y66111D01*
X21962Y66284D01*
X21784Y66479D01*
X21680Y66585D01*
X22237Y67142D01*
X22343Y67038D01*
D02*
G37*
%LPC*%
G36*
X44185Y83620D02*
X43834Y83551D01*
X43112Y83069D01*
X42630Y82347D01*
X42561Y81996D01*
X44185D01*
Y83620D01*
D02*
G37*
G36*
X30865Y84539D02*
X29240D01*
Y82915D01*
X29591Y82985D01*
X30313Y83467D01*
X30795Y84188D01*
X30865Y84539D01*
D02*
G37*
G36*
X29240Y87164D02*
Y85539D01*
X30865D01*
X30795Y85890D01*
X30313Y86612D01*
X29591Y87094D01*
X29240Y87164D01*
D02*
G37*
G36*
X69776Y69579D02*
X68151D01*
X68221Y69228D01*
X68703Y68506D01*
X69425Y68024D01*
X69776Y67954D01*
Y69579D01*
D02*
G37*
G36*
Y72203D02*
X69425Y72133D01*
X68703Y71651D01*
X68221Y70930D01*
X68151Y70579D01*
X69776D01*
Y72203D01*
D02*
G37*
G36*
X135827Y20504D02*
X134514Y20375D01*
X133253Y19993D01*
X132090Y19371D01*
X131071Y18535D01*
X130235Y17516D01*
X129613Y16353D01*
X129230Y15091D01*
X129101Y13779D01*
X129230Y12467D01*
X129613Y11206D01*
X130235Y10043D01*
X131071Y9024D01*
X132090Y8187D01*
X133253Y7566D01*
X134514Y7183D01*
X135827Y7054D01*
X137139Y7183D01*
X138400Y7566D01*
X139563Y8187D01*
X140582Y9024D01*
X141418Y10043D01*
X142040Y11206D01*
X142423Y12467D01*
X142552Y13779D01*
X142423Y15091D01*
X142040Y16353D01*
X141418Y17516D01*
X140582Y18535D01*
X139563Y19371D01*
X138400Y19993D01*
X137139Y20375D01*
X135827Y20504D01*
D02*
G37*
G36*
X126665Y6784D02*
X125041D01*
X125111Y6432D01*
X125593Y5711D01*
X126314Y5229D01*
X126665Y5159D01*
Y6784D01*
D02*
G37*
G36*
X129290D02*
X127665D01*
Y5159D01*
X128016Y5229D01*
X128738Y5711D01*
X129220Y6432D01*
X129290Y6784D01*
D02*
G37*
G36*
X126665Y9408D02*
X126314Y9338D01*
X125593Y8856D01*
X125111Y8134D01*
X125041Y7784D01*
X126665D01*
Y9408D01*
D02*
G37*
G36*
X127665D02*
Y7784D01*
X129290D01*
X129220Y8134D01*
X128738Y8856D01*
X128016Y9338D01*
X127665Y9408D01*
D02*
G37*
G36*
X144201Y24762D02*
Y23138D01*
X145825D01*
X145755Y23489D01*
X145273Y24210D01*
X144552Y24692D01*
X144201Y24762D01*
D02*
G37*
G36*
X143201D02*
X142850Y24692D01*
X142128Y24210D01*
X141646Y23489D01*
X141576Y23138D01*
X143201D01*
Y24762D01*
D02*
G37*
G36*
Y22138D02*
X141576D01*
X141646Y21787D01*
X142128Y21065D01*
X142850Y20583D01*
X143201Y20513D01*
Y22138D01*
D02*
G37*
G36*
X145825D02*
X144201D01*
Y20513D01*
X144552Y20583D01*
X145273Y21065D01*
X145755Y21787D01*
X145825Y22138D01*
D02*
G37*
G36*
X55799Y36180D02*
X55448Y36110D01*
X54727Y35628D01*
X54245Y34906D01*
X54175Y34555D01*
X55799D01*
Y36180D01*
D02*
G37*
G36*
X62061Y36641D02*
X60344Y34924D01*
X60564Y34755D01*
X61286Y34456D01*
X62061Y34354D01*
X62836Y34456D01*
X63559Y34755D01*
X63779Y34924D01*
X62061Y36641D01*
D02*
G37*
G36*
X35039Y124460D02*
X34752D01*
Y122350D01*
X36862D01*
Y122638D01*
X36723Y123335D01*
X36328Y123926D01*
X35737Y124321D01*
X35039Y124460D01*
D02*
G37*
G36*
X56799Y36180D02*
Y34555D01*
X58424D01*
X58354Y34906D01*
X57872Y35628D01*
X57150Y36110D01*
X56799Y36180D01*
D02*
G37*
G36*
X33752Y121350D02*
X31642D01*
Y121063D01*
X31781Y120366D01*
X32176Y119774D01*
X32767Y119379D01*
X33465Y119241D01*
X33752D01*
Y121350D01*
D02*
G37*
G36*
X55799Y33555D02*
X54175D01*
X54245Y33204D01*
X54727Y32483D01*
X55448Y32001D01*
X55799Y31931D01*
Y33555D01*
D02*
G37*
G36*
X130077Y42413D02*
X128453D01*
Y40789D01*
X128804Y40859D01*
X129525Y41341D01*
X130007Y42062D01*
X130077Y42413D01*
D02*
G37*
G36*
X71797Y40762D02*
X67899Y36865D01*
X71609Y33155D01*
X70290Y31836D01*
X69817Y32070D01*
X69852Y32337D01*
X69757Y33057D01*
X69480Y33727D01*
X69038Y34303D01*
X68462Y34744D01*
X67792Y35022D01*
X67072Y35117D01*
X66353Y35022D01*
X65683Y34744D01*
X65107Y34303D01*
X64665Y33727D01*
X64388Y33057D01*
X64293Y32337D01*
X64388Y31618D01*
X64665Y30947D01*
X65107Y30371D01*
X65683Y29930D01*
X66353Y29652D01*
X66978Y29570D01*
X67140Y29315D01*
X67208Y29071D01*
X67142Y28994D01*
X67090Y28969D01*
X66358Y28823D01*
X65707Y28388D01*
X65272Y27737D01*
X65119Y26969D01*
X65272Y26200D01*
X65707Y25549D01*
X66358Y25114D01*
X67126Y24961D01*
X67894Y25114D01*
X68545Y25549D01*
X68980Y26200D01*
X69133Y26969D01*
X69113Y27068D01*
X69117Y27110D01*
X69126Y27160D01*
X69137Y27204D01*
X69150Y27243D01*
X69165Y27279D01*
X69183Y27312D01*
X69204Y27343D01*
X70635Y28774D01*
X70635Y28774D01*
X74788Y32928D01*
X75316Y32749D01*
X75341Y32564D01*
X75640Y31841D01*
X76116Y31221D01*
X76736Y30746D01*
X77458Y30446D01*
X77733Y30410D01*
Y33339D01*
X78233D01*
Y33839D01*
X81161D01*
X81125Y34113D01*
X80826Y34836D01*
X80350Y35456D01*
X79730Y35932D01*
X79517Y36020D01*
X79462Y36584D01*
X79805Y36813D01*
X80287Y37535D01*
X80357Y37886D01*
X76108D01*
X76178Y37535D01*
X76660Y36813D01*
X77004Y36584D01*
X76948Y36020D01*
X76736Y35932D01*
X76116Y35456D01*
X75854Y35115D01*
X75274Y35104D01*
X75239Y35125D01*
X74597Y35767D01*
X75694Y36865D01*
X71797Y40762D01*
D02*
G37*
G36*
X108752Y44644D02*
X108401Y44574D01*
X107679Y44092D01*
X107197Y43371D01*
X107128Y43020D01*
X108752D01*
Y44644D01*
D02*
G37*
G36*
X5406Y128240D02*
X3781D01*
X3851Y127889D01*
X4333Y127168D01*
X5054Y126686D01*
X5406Y126616D01*
Y128240D01*
D02*
G37*
G36*
X127453Y42413D02*
X125828D01*
X125898Y42062D01*
X126380Y41341D01*
X127102Y40859D01*
X127453Y40789D01*
Y42413D01*
D02*
G37*
G36*
X58424Y33555D02*
X56799D01*
Y31931D01*
X57150Y32001D01*
X57872Y32483D01*
X58354Y33204D01*
X58424Y33555D01*
D02*
G37*
G36*
X8030Y128240D02*
X6406D01*
Y126616D01*
X6757Y126686D01*
X7478Y127168D01*
X7960Y127889D01*
X8030Y128240D01*
D02*
G37*
G36*
X87295Y36630D02*
X85614D01*
Y34949D01*
X87295D01*
Y36630D01*
D02*
G37*
G36*
X103198Y41232D02*
X101976D01*
Y37452D01*
X102135Y37484D01*
X102694Y37857D01*
X103067Y38416D01*
X103198Y39075D01*
Y41232D01*
D02*
G37*
G36*
X62061Y40342D02*
X61286Y40240D01*
X60564Y39941D01*
X60344Y39772D01*
X62061Y38055D01*
X63779Y39772D01*
X63559Y39941D01*
X62836Y40240D01*
X62061Y40342D01*
D02*
G37*
G36*
X33752Y124460D02*
X33465D01*
X32767Y124321D01*
X32176Y123926D01*
X31781Y123335D01*
X31642Y122638D01*
Y122350D01*
X33752D01*
Y124460D01*
D02*
G37*
G36*
X83063Y41232D02*
X81841D01*
Y39075D01*
X81972Y38416D01*
X82345Y37857D01*
X82904Y37484D01*
X83063Y37452D01*
Y41232D01*
D02*
G37*
G36*
X77733Y40510D02*
X77382Y40440D01*
X76660Y39958D01*
X76178Y39237D01*
X76108Y38886D01*
X77733D01*
Y40510D01*
D02*
G37*
G36*
X142224Y47539D02*
X134547D01*
Y39862D01*
X142224D01*
Y47539D01*
D02*
G37*
G36*
X101976Y46012D02*
Y42232D01*
X103198D01*
Y44390D01*
X103067Y45049D01*
X102694Y45607D01*
X102135Y45981D01*
X101976Y46012D01*
D02*
G37*
G36*
X78733Y40510D02*
Y38886D01*
X80357D01*
X80287Y39237D01*
X79805Y39958D01*
X79084Y40440D01*
X78733Y40510D01*
D02*
G37*
G36*
X90839Y127847D02*
X89214D01*
X89284Y127495D01*
X89766Y126774D01*
X90488Y126292D01*
X90839Y126222D01*
Y127847D01*
D02*
G37*
G36*
X111376Y42020D02*
X109752D01*
Y40395D01*
X110103Y40465D01*
X110825Y40947D01*
X111307Y41669D01*
X111376Y42020D01*
D02*
G37*
G36*
X64486Y39065D02*
X62769Y37348D01*
X64486Y35631D01*
X64654Y35851D01*
X64954Y36573D01*
X65056Y37348D01*
X64954Y38123D01*
X64654Y38845D01*
X64486Y39065D01*
D02*
G37*
G36*
X99425Y36630D02*
X97744D01*
Y34949D01*
X99425D01*
Y36630D01*
D02*
G37*
G36*
X59637Y39065D02*
X59468Y38845D01*
X59169Y38123D01*
X59067Y37348D01*
X59169Y36573D01*
X59468Y35851D01*
X59637Y35631D01*
X61354Y37348D01*
X59637Y39065D01*
D02*
G37*
G36*
X93463Y127847D02*
X91839D01*
Y126222D01*
X92190Y126292D01*
X92911Y126774D01*
X93393Y127495D01*
X93463Y127847D01*
D02*
G37*
G36*
X108752Y42020D02*
X107128D01*
X107197Y41669D01*
X107679Y40947D01*
X108401Y40465D01*
X108752Y40395D01*
Y42020D01*
D02*
G37*
G36*
X36862Y121350D02*
X34752D01*
Y119241D01*
X35039D01*
X35737Y119379D01*
X36328Y119774D01*
X36723Y120366D01*
X36862Y121063D01*
Y121350D01*
D02*
G37*
G36*
X70563Y12754D02*
X70212Y12685D01*
X69490Y12202D01*
X69008Y11481D01*
X68939Y11130D01*
X70563D01*
Y12754D01*
D02*
G37*
G36*
X71563D02*
Y11130D01*
X73187D01*
X73118Y11481D01*
X72636Y12202D01*
X71914Y12685D01*
X71563Y12754D01*
D02*
G37*
G36*
X80461Y141816D02*
Y138295D01*
X83981D01*
X83908Y138853D01*
X83499Y139838D01*
X82850Y140685D01*
X82004Y141334D01*
X81018Y141742D01*
X80461Y141816D01*
D02*
G37*
G36*
X118595Y141626D02*
X115099D01*
Y140945D01*
X115268Y140094D01*
X115750Y139372D01*
X116472Y138890D01*
X117323Y138721D01*
X118595D01*
Y141626D01*
D02*
G37*
G36*
X129683Y142610D02*
X128059D01*
Y140986D01*
X128410Y141056D01*
X129131Y141538D01*
X129614Y142259D01*
X129683Y142610D01*
D02*
G37*
G36*
X127059D02*
X125435D01*
X125505Y142259D01*
X125987Y141538D01*
X126708Y141056D01*
X127059Y140986D01*
Y142610D01*
D02*
G37*
G36*
X123090Y141626D02*
X119595D01*
Y138721D01*
X120866D01*
X121717Y138890D01*
X122439Y139372D01*
X122921Y140094D01*
X123090Y140945D01*
Y141626D01*
D02*
G37*
G36*
X79461Y137295D02*
X75940D01*
X76014Y136738D01*
X76422Y135752D01*
X77071Y134906D01*
X77918Y134257D01*
X78903Y133848D01*
X79461Y133775D01*
Y137295D01*
D02*
G37*
G36*
X52731Y19382D02*
X50303D01*
Y16954D01*
X50578Y16990D01*
X51300Y17289D01*
X51920Y17765D01*
X52396Y18385D01*
X52695Y19107D01*
X52731Y19382D01*
D02*
G37*
G36*
X44988Y22810D02*
Y19882D01*
Y16954D01*
X45263Y16990D01*
X45985Y17289D01*
X46605Y17765D01*
X46830Y18058D01*
X47461D01*
X47686Y17765D01*
X48306Y17289D01*
X49028Y16990D01*
X49303Y16954D01*
Y19882D01*
Y22810D01*
X49028Y22774D01*
X48306Y22475D01*
X47686Y21999D01*
X47461Y21706D01*
X46830D01*
X46605Y21999D01*
X45985Y22475D01*
X45263Y22774D01*
X44988Y22810D01*
D02*
G37*
G36*
X60276Y141667D02*
X59273Y141535D01*
X58340Y141148D01*
X57538Y140533D01*
X56923Y139731D01*
X56536Y138797D01*
X56404Y137795D01*
X56536Y136793D01*
X56923Y135859D01*
X57538Y135058D01*
X58340Y134442D01*
X59273Y134055D01*
X60276Y133924D01*
X61278Y134055D01*
X62211Y134442D01*
X63013Y135058D01*
X63629Y135859D01*
X64015Y136793D01*
X64147Y137795D01*
X64015Y138797D01*
X63629Y139731D01*
X63013Y140533D01*
X62211Y141148D01*
X61278Y141535D01*
X60276Y141667D01*
D02*
G37*
G36*
X79461Y141816D02*
X78903Y141742D01*
X77918Y141334D01*
X77071Y140685D01*
X76422Y139838D01*
X76014Y138853D01*
X75940Y138295D01*
X79461D01*
Y141816D01*
D02*
G37*
G36*
X93642Y141634D02*
X85965D01*
Y133957D01*
X93642D01*
Y141634D01*
D02*
G37*
G36*
X70118Y141667D02*
X69116Y141535D01*
X68182Y141148D01*
X67380Y140533D01*
X66765Y139731D01*
X66378Y138797D01*
X66246Y137795D01*
X66378Y136793D01*
X66765Y135859D01*
X67380Y135058D01*
X68182Y134442D01*
X69116Y134055D01*
X70118Y133924D01*
X71120Y134055D01*
X72054Y134442D01*
X72856Y135058D01*
X73471Y135859D01*
X73858Y136793D01*
X73990Y137795D01*
X73858Y138797D01*
X73471Y139731D01*
X72856Y140533D01*
X72054Y141148D01*
X71120Y141535D01*
X70118Y141667D01*
D02*
G37*
G36*
X127059Y145235D02*
X126708Y145165D01*
X125987Y144683D01*
X125505Y143961D01*
X125435Y143610D01*
X127059D01*
Y145235D01*
D02*
G37*
G36*
X128059D02*
Y143610D01*
X129683D01*
X129614Y143961D01*
X129131Y144683D01*
X128410Y145165D01*
X128059Y145235D01*
D02*
G37*
G36*
X62323Y11943D02*
X61321Y11811D01*
X60387Y11424D01*
X59585Y10809D01*
X58970Y10007D01*
X58583Y9073D01*
X58451Y8071D01*
X58583Y7069D01*
X58970Y6135D01*
X59585Y5333D01*
X60387Y4718D01*
X61321Y4331D01*
X62323Y4199D01*
X63325Y4331D01*
X64259Y4718D01*
X65061Y5333D01*
X65676Y6135D01*
X66063Y7069D01*
X66194Y8071D01*
X66063Y9073D01*
X65676Y10007D01*
X65061Y10809D01*
X64259Y11424D01*
X63325Y11811D01*
X62323Y11943D01*
D02*
G37*
G36*
X70563Y10130D02*
X68939D01*
X69008Y9779D01*
X69490Y9057D01*
X70212Y8575D01*
X70563Y8506D01*
Y10130D01*
D02*
G37*
G36*
X73187D02*
X71563D01*
Y8506D01*
X71914Y8575D01*
X72636Y9057D01*
X73118Y9779D01*
X73187Y10130D01*
D02*
G37*
G36*
X42823Y12091D02*
Y8571D01*
X46343D01*
X46270Y9128D01*
X45862Y10114D01*
X45212Y10960D01*
X44366Y11610D01*
X43380Y12018D01*
X42823Y12091D01*
D02*
G37*
G36*
X118595Y145531D02*
X117323D01*
X116472Y145362D01*
X115750Y144880D01*
X115268Y144158D01*
X115099Y143307D01*
Y142626D01*
X118595D01*
Y145531D01*
D02*
G37*
G36*
X120866D02*
X119595D01*
Y142626D01*
X123090D01*
Y143307D01*
X122921Y144158D01*
X122439Y144880D01*
X121717Y145362D01*
X120866Y145531D01*
D02*
G37*
G36*
X91839Y130471D02*
Y128847D01*
X93463D01*
X93393Y129198D01*
X92911Y129919D01*
X92190Y130401D01*
X91839Y130471D01*
D02*
G37*
G36*
X13779Y142552D02*
X12467Y142422D01*
X11206Y142040D01*
X10043Y141418D01*
X9024Y140582D01*
X8187Y139563D01*
X7566Y138400D01*
X7183Y137138D01*
X7054Y135826D01*
X7183Y134514D01*
X7566Y133253D01*
X8187Y132090D01*
X9024Y131071D01*
X10043Y130235D01*
X11206Y129613D01*
X12467Y129230D01*
X13779Y129101D01*
X15091Y129230D01*
X16353Y129613D01*
X17516Y130235D01*
X18535Y131071D01*
X19371Y132090D01*
X19993Y133253D01*
X20375Y134514D01*
X20505Y135826D01*
X20375Y137138D01*
X19993Y138400D01*
X19371Y139563D01*
X18535Y140582D01*
X17516Y141418D01*
X16353Y142040D01*
X15091Y142422D01*
X13779Y142552D01*
D02*
G37*
G36*
X5406Y130865D02*
X5054Y130795D01*
X4333Y130313D01*
X3851Y129591D01*
X3781Y129240D01*
X5406D01*
Y130865D01*
D02*
G37*
G36*
X135827Y142552D02*
X134514Y142422D01*
X133253Y142040D01*
X132090Y141418D01*
X131071Y140582D01*
X130235Y139563D01*
X129613Y138400D01*
X129230Y137138D01*
X129101Y135826D01*
X129230Y134514D01*
X129613Y133253D01*
X130235Y132090D01*
X131071Y131071D01*
X132090Y130235D01*
X133253Y129613D01*
X134514Y129230D01*
X135827Y129101D01*
X137139Y129230D01*
X138400Y129613D01*
X139563Y130235D01*
X140582Y131071D01*
X141419Y132090D01*
X142040Y133253D01*
X142423Y134514D01*
X142552Y135826D01*
X142423Y137138D01*
X142040Y138400D01*
X141419Y139563D01*
X140582Y140582D01*
X139563Y141418D01*
X138400Y142040D01*
X137139Y142422D01*
X135827Y142552D01*
D02*
G37*
G36*
X81161Y32839D02*
X78733D01*
Y30410D01*
X79008Y30446D01*
X79730Y30746D01*
X80350Y31221D01*
X80826Y31841D01*
X81125Y32564D01*
X81161Y32839D01*
D02*
G37*
G36*
X90839Y130471D02*
X90488Y130401D01*
X89766Y129919D01*
X89284Y129198D01*
X89214Y128847D01*
X90839D01*
Y130471D01*
D02*
G37*
G36*
X43988Y22810D02*
X43713Y22774D01*
X42991Y22475D01*
X42371Y21999D01*
X41895Y21379D01*
X41596Y20657D01*
X41560Y20382D01*
X43988D01*
Y22810D01*
D02*
G37*
G36*
X50303Y22810D02*
Y20382D01*
X52731D01*
X52695Y20657D01*
X52396Y21379D01*
X51920Y21999D01*
X51300Y22475D01*
X50578Y22774D01*
X50303Y22810D01*
D02*
G37*
G36*
X43988Y19382D02*
X41560D01*
X41596Y19107D01*
X41895Y18385D01*
X42371Y17765D01*
X42991Y17289D01*
X43713Y16990D01*
X43988Y16954D01*
Y19382D01*
D02*
G37*
G36*
X83981Y137295D02*
X80461D01*
Y133775D01*
X81018Y133848D01*
X82004Y134257D01*
X82850Y134906D01*
X83499Y135752D01*
X83908Y136738D01*
X83981Y137295D01*
D02*
G37*
G36*
X36555Y137894D02*
X28878D01*
Y130217D01*
X36555D01*
Y137894D01*
D02*
G37*
G36*
X6406Y130865D02*
Y129240D01*
X8030D01*
X7960Y129591D01*
X7478Y130313D01*
X6757Y130795D01*
X6406Y130865D01*
D02*
G37*
G36*
X42717Y137927D02*
X41715Y137795D01*
X40781Y137408D01*
X39979Y136793D01*
X39364Y135991D01*
X38977Y135057D01*
X38845Y134055D01*
X38977Y133053D01*
X39364Y132119D01*
X39979Y131317D01*
X40781Y130702D01*
X41715Y130315D01*
X42717Y130183D01*
X43719Y130315D01*
X44652Y130702D01*
X45454Y131317D01*
X46069Y132119D01*
X46456Y133053D01*
X46588Y134055D01*
X46456Y135057D01*
X46069Y135991D01*
X45454Y136793D01*
X44652Y137408D01*
X43719Y137795D01*
X42717Y137927D01*
D02*
G37*
G36*
X109752Y44644D02*
Y43020D01*
X111376D01*
X111307Y43371D01*
X110825Y44092D01*
X110103Y44574D01*
X109752Y44644D01*
D02*
G37*
G36*
X70432Y88279D02*
X68807D01*
Y86655D01*
X69158Y86725D01*
X69880Y87207D01*
X70362Y87928D01*
X70432Y88279D01*
D02*
G37*
G36*
X88361Y69382D02*
X85933D01*
Y66954D01*
X86208Y66990D01*
X86930Y67289D01*
X87550Y67765D01*
X88026Y68385D01*
X88325Y69107D01*
X88361Y69382D01*
D02*
G37*
G36*
X137402Y68752D02*
X137114D01*
Y66642D01*
X139224D01*
Y66929D01*
X139085Y67627D01*
X138690Y68218D01*
X138099Y68613D01*
X137402Y68752D01*
D02*
G37*
G36*
X84933Y69382D02*
X82505D01*
X82541Y69107D01*
X82840Y68385D01*
X83316Y67765D01*
X83936Y67289D01*
X84658Y66990D01*
X84933Y66954D01*
Y69382D01*
D02*
G37*
G36*
Y72810D02*
X84658Y72774D01*
X83936Y72475D01*
X83316Y71999D01*
X82840Y71379D01*
X82541Y70657D01*
X82505Y70382D01*
X84933D01*
Y72810D01*
D02*
G37*
G36*
X68004Y105487D02*
X67729Y105451D01*
X67007Y105152D01*
X66387Y104676D01*
X65911Y104056D01*
X65612Y103334D01*
X65576Y103059D01*
X68004D01*
Y105487D01*
D02*
G37*
G36*
X67807Y88279D02*
X66183D01*
X66252Y87928D01*
X66735Y87207D01*
X67456Y86725D01*
X67807Y86655D01*
Y88279D01*
D02*
G37*
G36*
X69004Y105487D02*
Y103059D01*
X71432D01*
X71396Y103334D01*
X71097Y104056D01*
X70621Y104676D01*
X70001Y105152D01*
X69279Y105451D01*
X69004Y105487D01*
D02*
G37*
G36*
X136114Y68752D02*
X135827D01*
X135129Y68613D01*
X134538Y68218D01*
X134143Y67627D01*
X134004Y66929D01*
Y66642D01*
X136114D01*
Y68752D01*
D02*
G37*
G36*
X139224Y65642D02*
X137114D01*
Y63532D01*
X137402D01*
X138099Y63671D01*
X138690Y64066D01*
X139085Y64657D01*
X139224Y65354D01*
Y65642D01*
D02*
G37*
G36*
X127953Y68898D02*
X122441D01*
Y63386D01*
X127953D01*
Y64365D01*
X128039Y64447D01*
X128582Y64525D01*
X128786Y64219D01*
X129307Y63871D01*
X129921Y63749D01*
X131496D01*
X132111Y63871D01*
X132631Y64219D01*
X132980Y64740D01*
X133102Y65354D01*
Y66929D01*
X132980Y67544D01*
X132631Y68064D01*
X132111Y68413D01*
X131496Y68535D01*
X129921D01*
X129307Y68413D01*
X128786Y68064D01*
X128582Y67759D01*
X128039Y67836D01*
X127953Y67919D01*
Y68898D01*
D02*
G37*
G36*
X136114Y65642D02*
X134004D01*
Y65354D01*
X134143Y64657D01*
X134538Y64066D01*
X135129Y63671D01*
X135827Y63532D01*
X136114D01*
Y65642D01*
D02*
G37*
G36*
X144504Y109205D02*
X141248D01*
Y104768D01*
X144504D01*
Y109205D01*
D02*
G37*
G36*
X101534Y88870D02*
X99910D01*
Y87246D01*
X100260Y87315D01*
X100982Y87798D01*
X101464Y88519D01*
X101534Y88870D01*
D02*
G37*
G36*
X140248Y109205D02*
X136992D01*
Y104768D01*
X140248D01*
Y109205D01*
D02*
G37*
G36*
X95366Y98909D02*
X93742D01*
X93812Y98558D01*
X94294Y97837D01*
X95015Y97355D01*
X95366Y97285D01*
Y98909D01*
D02*
G37*
G36*
X98909Y88870D02*
X97285D01*
X97355Y88519D01*
X97837Y87798D01*
X98558Y87315D01*
X98909Y87246D01*
Y88870D01*
D02*
G37*
G36*
X85130Y66314D02*
X84855Y66278D01*
X84133Y65979D01*
X83513Y65503D01*
X83037Y64883D01*
X82738Y64161D01*
X82702Y63886D01*
X85130D01*
Y66314D01*
D02*
G37*
G36*
X86130Y66314D02*
Y63886D01*
X88558D01*
X88522Y64161D01*
X88223Y64883D01*
X87747Y65503D01*
X87127Y65979D01*
X86405Y66278D01*
X86130Y66314D01*
D02*
G37*
G36*
X85933Y72810D02*
Y70382D01*
X88361D01*
X88325Y70657D01*
X88026Y71379D01*
X87550Y71999D01*
X86930Y72475D01*
X86208Y72774D01*
X85933Y72810D01*
D02*
G37*
G36*
X71432Y102059D02*
X69004D01*
Y99631D01*
X69279Y99667D01*
X70001Y99966D01*
X70621Y100442D01*
X71097Y101062D01*
X71396Y101784D01*
X71432Y102059D01*
D02*
G37*
G36*
X68004D02*
X65576D01*
X65612Y101784D01*
X65911Y101062D01*
X66387Y100442D01*
X67007Y99966D01*
X67729Y99667D01*
X68004Y99631D01*
Y102059D01*
D02*
G37*
G36*
X97991Y98909D02*
X96366D01*
Y97285D01*
X96717Y97355D01*
X97439Y97837D01*
X97921Y98558D01*
X97991Y98909D01*
D02*
G37*
G36*
X65461Y99762D02*
Y98138D01*
X67085D01*
X67015Y98489D01*
X66533Y99210D01*
X65812Y99692D01*
X65461Y99762D01*
D02*
G37*
G36*
X95366Y101534D02*
X95015Y101464D01*
X94294Y100982D01*
X93812Y100260D01*
X93742Y99910D01*
X95366D01*
Y101534D01*
D02*
G37*
G36*
X141260Y81653D02*
X132205D01*
Y71102D01*
X141260D01*
Y81653D01*
D02*
G37*
G36*
X96366Y101534D02*
Y99910D01*
X97991D01*
X97921Y100260D01*
X97439Y100982D01*
X96717Y101464D01*
X96366Y101534D01*
D02*
G37*
G36*
X144291Y98957D02*
X137205D01*
Y95915D01*
X137189Y95908D01*
X137069Y95876D01*
X136900Y95848D01*
X136782Y95838D01*
X133071D01*
X132456Y95716D01*
X131936Y95368D01*
X131936Y95368D01*
X126559Y89991D01*
X125226D01*
X125108Y90002D01*
X124939Y90030D01*
X124819Y90062D01*
X124803Y90068D01*
Y92323D01*
X114567D01*
Y84449D01*
X124803D01*
Y86703D01*
X124819Y86710D01*
X124939Y86742D01*
X125108Y86770D01*
X125226Y86780D01*
X127224D01*
X127224Y86780D01*
X127839Y86902D01*
X128360Y87251D01*
X133736Y92627D01*
X136782D01*
X136900Y92616D01*
X137069Y92588D01*
X137189Y92556D01*
X137205Y92550D01*
Y89508D01*
X139066D01*
X139072Y89492D01*
X139104Y89372D01*
X139132Y89203D01*
X139142Y89085D01*
Y88739D01*
X138894Y88367D01*
X138741Y87598D01*
X138894Y86830D01*
X139329Y86179D01*
X139980Y85744D01*
X140748Y85591D01*
X141516Y85744D01*
X142167Y86179D01*
X142602Y86830D01*
X142755Y87598D01*
X142602Y88367D01*
X142364Y88723D01*
X142354Y88917D01*
Y89085D01*
X142364Y89203D01*
X142392Y89372D01*
X142424Y89492D01*
X142430Y89508D01*
X144291D01*
Y98957D01*
D02*
G37*
G36*
X45169Y53306D02*
X44818Y53236D01*
X44097Y52754D01*
X43615Y52032D01*
X43545Y51681D01*
X45169D01*
Y53306D01*
D02*
G37*
G36*
X46169D02*
Y51681D01*
X47794D01*
X47724Y52032D01*
X47242Y52754D01*
X46520Y53236D01*
X46169Y53306D01*
D02*
G37*
G36*
X89476Y114551D02*
Y111130D01*
X92897D01*
X92827Y111662D01*
X92429Y112623D01*
X91795Y113449D01*
X90970Y114083D01*
X90008Y114481D01*
X89476Y114551D01*
D02*
G37*
G36*
X138386Y57573D02*
X137384Y57441D01*
X136450Y57054D01*
X135648Y56438D01*
X135033Y55637D01*
X134646Y54703D01*
X134514Y53701D01*
X134646Y52699D01*
X135033Y51765D01*
X135648Y50963D01*
X136450Y50348D01*
X137384Y49961D01*
X138386Y49829D01*
X139388Y49961D01*
X140322Y50348D01*
X141123Y50963D01*
X141739Y51765D01*
X142126Y52699D01*
X142257Y53701D01*
X142126Y54703D01*
X141739Y55637D01*
X141123Y56438D01*
X140322Y57054D01*
X139388Y57441D01*
X138386Y57573D01*
D02*
G37*
G36*
X144504Y114642D02*
X141248D01*
Y110205D01*
X144504D01*
Y114642D01*
D02*
G37*
G36*
X140248D02*
X136992D01*
Y110205D01*
X140248D01*
Y114642D01*
D02*
G37*
G36*
X99910Y91494D02*
Y89870D01*
X101534D01*
X101464Y90221D01*
X100982Y90943D01*
X100260Y91425D01*
X99910Y91494D01*
D02*
G37*
G36*
X88476Y114551D02*
X87945Y114481D01*
X86983Y114083D01*
X86157Y113449D01*
X85524Y112623D01*
X85125Y111662D01*
X85055Y111130D01*
X88476D01*
Y114551D01*
D02*
G37*
G36*
X47794Y50681D02*
X46169D01*
Y49057D01*
X46520Y49126D01*
X47242Y49609D01*
X47724Y50330D01*
X47794Y50681D01*
D02*
G37*
G36*
X67085Y97138D02*
X65461D01*
Y95513D01*
X65812Y95583D01*
X66533Y96065D01*
X67015Y96787D01*
X67085Y97138D01*
D02*
G37*
G36*
X118004Y53437D02*
X113961D01*
Y46047D01*
X118004D01*
Y53437D01*
D02*
G37*
G36*
X124803Y117520D02*
X114567D01*
Y115639D01*
X114521Y115611D01*
X114409Y115566D01*
X114238Y115520D01*
X114010Y115482D01*
X113847Y115468D01*
X101233D01*
X101162Y115516D01*
X100394Y115668D01*
X99626Y115516D01*
X98975Y115081D01*
X98539Y114429D01*
X98387Y113661D01*
X98539Y112893D01*
X98975Y112242D01*
X99626Y111807D01*
X100394Y111654D01*
X101162Y111807D01*
X101233Y111855D01*
X108430D01*
Y85433D01*
X108567Y84742D01*
X108959Y84156D01*
X115649Y77466D01*
X115665Y77381D01*
X116101Y76730D01*
X116752Y76295D01*
X116865Y75813D01*
X116812Y75735D01*
X116705Y75197D01*
Y69023D01*
X116699Y68950D01*
X116690Y68898D01*
X115354D01*
Y63386D01*
X120866D01*
Y68898D01*
X119530D01*
X119521Y68950D01*
X119515Y69023D01*
Y74572D01*
X121012D01*
X121175Y74557D01*
X121404Y74519D01*
X121575Y74474D01*
X121687Y74428D01*
X121732Y74400D01*
Y71102D01*
X130787D01*
Y81653D01*
X121732D01*
Y78355D01*
X121687Y78328D01*
X121575Y78282D01*
X121404Y78236D01*
X121175Y78199D01*
X121012Y78184D01*
X120040D01*
X119391Y78833D01*
X119374Y78918D01*
X118939Y79569D01*
X118288Y80004D01*
X118203Y80021D01*
X112043Y86181D01*
Y111855D01*
X113847D01*
X114010Y111841D01*
X114238Y111803D01*
X114409Y111757D01*
X114521Y111712D01*
X114567Y111684D01*
Y109646D01*
X124803D01*
Y117520D01*
D02*
G37*
G36*
X127453Y45038D02*
X127102Y44968D01*
X126380Y44486D01*
X125898Y43764D01*
X125828Y43413D01*
X127453D01*
Y45038D01*
D02*
G37*
G36*
X128453D02*
Y43413D01*
X130077D01*
X130007Y43764D01*
X129525Y44486D01*
X128804Y44968D01*
X128453Y45038D01*
D02*
G37*
G36*
X45169Y50681D02*
X43545D01*
X43615Y50330D01*
X44097Y49609D01*
X44818Y49126D01*
X45169Y49057D01*
Y50681D01*
D02*
G37*
G36*
X123047Y53437D02*
X119004D01*
Y46047D01*
X123047D01*
Y53437D01*
D02*
G37*
G36*
X118004Y61827D02*
X113961D01*
Y54437D01*
X118004D01*
Y61827D01*
D02*
G37*
G36*
X110146Y63345D02*
Y61721D01*
X111770D01*
X111700Y62072D01*
X111218Y62793D01*
X110497Y63275D01*
X110146Y63345D01*
D02*
G37*
G36*
X88476Y110130D02*
X85055D01*
X85125Y109598D01*
X85524Y108636D01*
X86157Y107811D01*
X86983Y107177D01*
X87945Y106779D01*
X88476Y106709D01*
Y110130D01*
D02*
G37*
G36*
X109146Y60720D02*
X107521D01*
X107591Y60369D01*
X108073Y59648D01*
X108795Y59166D01*
X109146Y59096D01*
Y60720D01*
D02*
G37*
G36*
X111770D02*
X110146D01*
Y59096D01*
X110497Y59166D01*
X111218Y59648D01*
X111700Y60369D01*
X111770Y60720D01*
D02*
G37*
G36*
X88558Y62886D02*
X86130D01*
Y60457D01*
X86405Y60494D01*
X87127Y60793D01*
X87747Y61269D01*
X88223Y61889D01*
X88522Y62611D01*
X88558Y62886D01*
D02*
G37*
G36*
X67807Y90904D02*
X67456Y90834D01*
X66735Y90352D01*
X66252Y89631D01*
X66183Y89280D01*
X67807D01*
Y90904D01*
D02*
G37*
G36*
X109146Y63345D02*
X108795Y63275D01*
X108073Y62793D01*
X107591Y62072D01*
X107521Y61721D01*
X109146D01*
Y63345D01*
D02*
G37*
G36*
X85130Y62886D02*
X82702D01*
X82738Y62611D01*
X83037Y61889D01*
X83513Y61269D01*
X84133Y60793D01*
X84855Y60494D01*
X85130Y60457D01*
Y62886D01*
D02*
G37*
G36*
X78847Y62557D02*
Y60933D01*
X80471D01*
X80401Y61284D01*
X79919Y62006D01*
X79198Y62488D01*
X78847Y62557D01*
D02*
G37*
G36*
X80471Y59933D02*
X78847D01*
Y58309D01*
X79198Y58378D01*
X79919Y58861D01*
X80401Y59582D01*
X80471Y59933D01*
D02*
G37*
G36*
X98909Y91494D02*
X98558Y91425D01*
X97837Y90943D01*
X97355Y90221D01*
X97285Y89870D01*
X98909D01*
Y91494D01*
D02*
G37*
G36*
X123047Y61827D02*
X119004D01*
Y54437D01*
X123047D01*
Y61827D01*
D02*
G37*
G36*
X77846Y59933D02*
X76222D01*
X76292Y59582D01*
X76774Y58861D01*
X77495Y58378D01*
X77846Y58309D01*
Y59933D01*
D02*
G37*
G36*
X68807Y90904D02*
Y89280D01*
X70432D01*
X70362Y89631D01*
X69880Y90352D01*
X69158Y90834D01*
X68807Y90904D01*
D02*
G37*
G36*
X92897Y110130D02*
X89476D01*
Y106709D01*
X90008Y106779D01*
X90970Y107177D01*
X91795Y107811D01*
X92429Y108636D01*
X92827Y109598D01*
X92897Y110130D01*
D02*
G37*
%LPD*%
G36*
X68880Y31537D02*
X68869Y31453D01*
X68872Y31367D01*
X68888Y31278D01*
X68918Y31187D01*
X68962Y31094D01*
X69019Y30998D01*
X69089Y30899D01*
X69174Y30798D01*
X69271Y30695D01*
X68715Y30138D01*
X68611Y30236D01*
X68510Y30320D01*
X68412Y30391D01*
X68316Y30448D01*
X68222Y30491D01*
X68131Y30521D01*
X68042Y30537D01*
X67956Y30540D01*
X67873Y30529D01*
X67791Y30505D01*
X68905Y31618D01*
X68880Y31537D01*
D02*
G37*
G36*
X73681Y35988D02*
X73651Y35924D01*
X73637Y35853D01*
X73641Y35778D01*
X73661Y35696D01*
X73698Y35609D01*
X73752Y35516D01*
X73823Y35417D01*
X73911Y35313D01*
X74015Y35203D01*
X73459Y34646D01*
X73348Y34751D01*
X73244Y34838D01*
X73145Y34909D01*
X73052Y34963D01*
X72965Y35000D01*
X72884Y35021D01*
X72808Y35024D01*
X72738Y35010D01*
X72674Y34980D01*
X72615Y34933D01*
X73729Y36046D01*
X73681Y35988D01*
D02*
G37*
G36*
X68693Y27979D02*
X68619Y27898D01*
X68552Y27813D01*
X68494Y27724D01*
X68443Y27631D01*
X68401Y27533D01*
X68366Y27431D01*
X68339Y27325D01*
X68321Y27214D01*
X68310Y27099D01*
X68307Y26980D01*
X67138Y28150D01*
X67257Y28152D01*
X67372Y28163D01*
X67482Y28182D01*
X67589Y28208D01*
X67691Y28243D01*
X67788Y28286D01*
X67882Y28336D01*
X67971Y28394D01*
X68056Y28461D01*
X68136Y28535D01*
X68693Y27979D01*
D02*
G37*
G36*
X127153Y67211D02*
X127189Y67110D01*
X127249Y67022D01*
X127332Y66945D01*
X127440Y66880D01*
X127571Y66827D01*
X127726Y66785D01*
X127905Y66756D01*
X128108Y66738D01*
X128152Y66737D01*
X128199Y66738D01*
X128422Y66756D01*
X128619Y66785D01*
X128789Y66826D01*
X128934Y66878D01*
X129052Y66943D01*
X129144Y67018D01*
X129209Y67106D01*
X129249Y67205D01*
X129262Y67316D01*
Y64967D01*
X129249Y65078D01*
X129209Y65178D01*
X129144Y65265D01*
X129052Y65341D01*
X128934Y65405D01*
X128789Y65458D01*
X128619Y65499D01*
X128422Y65528D01*
X128199Y65545D01*
X128152Y65546D01*
X128108Y65545D01*
X127905Y65528D01*
X127726Y65498D01*
X127571Y65457D01*
X127440Y65403D01*
X127332Y65339D01*
X127249Y65262D01*
X127189Y65173D01*
X127153Y65073D01*
X127141Y64961D01*
Y67323D01*
X127153Y67211D01*
D02*
G37*
G36*
X142173Y90303D02*
X142039Y90256D01*
X141921Y90176D01*
X141819Y90065D01*
X141732Y89923D01*
X141661Y89748D01*
X141606Y89542D01*
X141567Y89304D01*
X141543Y89036D01*
X141575Y88442D01*
X139921D01*
X139929Y88456D01*
X139935Y88484D01*
X139941Y88525D01*
X139951Y88648D01*
X139956Y88892D01*
X139953Y89034D01*
X139929Y89304D01*
X139890Y89542D01*
X139835Y89748D01*
X139764Y89923D01*
X139677Y90065D01*
X139575Y90176D01*
X139457Y90256D01*
X139323Y90303D01*
X139173Y90319D01*
X142323D01*
X142173Y90303D01*
D02*
G37*
G36*
X138016Y92658D02*
X138000Y92807D01*
X137953Y92941D01*
X137873Y93059D01*
X137762Y93161D01*
X137619Y93248D01*
X137445Y93319D01*
X137239Y93374D01*
X137001Y93413D01*
X136731Y93437D01*
X136429Y93445D01*
Y95020D01*
X136731Y95028D01*
X137001Y95051D01*
X137239Y95091D01*
X137445Y95146D01*
X137619Y95217D01*
X137762Y95303D01*
X137873Y95406D01*
X137953Y95524D01*
X138000Y95657D01*
X138016Y95807D01*
Y92658D01*
D02*
G37*
G36*
X124008Y89811D02*
X124055Y89677D01*
X124135Y89559D01*
X124246Y89457D01*
X124388Y89370D01*
X124563Y89299D01*
X124769Y89244D01*
X125007Y89205D01*
X125277Y89181D01*
X125578Y89173D01*
Y87598D01*
X125277Y87590D01*
X125007Y87567D01*
X124769Y87528D01*
X124563Y87472D01*
X124388Y87402D01*
X124246Y87315D01*
X124135Y87213D01*
X124055Y87094D01*
X124008Y86961D01*
X123992Y86811D01*
Y89961D01*
X124008Y89811D01*
D02*
G37*
G36*
X115378Y111693D02*
X115358Y111880D01*
X115299Y112047D01*
X115200Y112195D01*
X115061Y112323D01*
X114883Y112431D01*
X114665Y112520D01*
X114408Y112589D01*
X114111Y112638D01*
X113774Y112667D01*
X113398Y112677D01*
Y114646D01*
X113774Y114655D01*
X114111Y114685D01*
X114408Y114734D01*
X114665Y114803D01*
X114883Y114892D01*
X115061Y115000D01*
X115200Y115128D01*
X115299Y115276D01*
X115358Y115443D01*
X115378Y115630D01*
Y111693D01*
D02*
G37*
G36*
X118707Y69053D02*
X118724Y68850D01*
X118754Y68671D01*
X118795Y68516D01*
X118848Y68384D01*
X118913Y68277D01*
X118990Y68194D01*
X119079Y68134D01*
X119179Y68098D01*
X119291Y68086D01*
X116929D01*
X117041Y68098D01*
X117142Y68134D01*
X117230Y68194D01*
X117307Y68277D01*
X117372Y68384D01*
X117425Y68516D01*
X117466Y68671D01*
X117496Y68850D01*
X117514Y69053D01*
X117520Y69279D01*
X118701D01*
X118707Y69053D01*
D02*
G37*
G36*
X122544Y74410D02*
X122524Y74597D01*
X122465Y74764D01*
X122365Y74911D01*
X122227Y75039D01*
X122049Y75148D01*
X121831Y75236D01*
X121573Y75305D01*
X121276Y75354D01*
X120940Y75384D01*
X120563Y75394D01*
Y77362D01*
X120940Y77372D01*
X121276Y77402D01*
X121573Y77451D01*
X121831Y77520D01*
X122049Y77608D01*
X122227Y77716D01*
X122365Y77845D01*
X122465Y77992D01*
X122524Y78159D01*
X122544Y78347D01*
Y74410D01*
D02*
G37*
G36*
X119430Y75404D02*
X119363Y75389D01*
X119290Y75364D01*
X119213Y75328D01*
X119130Y75281D01*
X119043Y75224D01*
X118950Y75157D01*
X118749Y74989D01*
X118528Y74779D01*
X117693Y75614D01*
X117803Y75727D01*
X118070Y76036D01*
X118138Y76129D01*
X118195Y76217D01*
X118241Y76300D01*
X118277Y76377D01*
X118302Y76450D01*
X118317Y76517D01*
X119430Y75404D01*
D02*
G37*
%LPC*%
G36*
X45825Y101469D02*
X44201D01*
Y99844D01*
X44552Y99914D01*
X45273Y100396D01*
X45755Y101118D01*
X45825Y101469D01*
D02*
G37*
G36*
X43201D02*
X41576D01*
X41646Y101118D01*
X42128Y100396D01*
X42850Y99914D01*
X43201Y99844D01*
Y101469D01*
D02*
G37*
G36*
Y104093D02*
X42850Y104023D01*
X42128Y103541D01*
X41646Y102820D01*
X41576Y102469D01*
X43201D01*
Y104093D01*
D02*
G37*
G36*
X44201D02*
Y102469D01*
X45825D01*
X45755Y102820D01*
X45273Y103541D01*
X44552Y104023D01*
X44201Y104093D01*
D02*
G37*
%LPD*%
D10*
X98917Y16248D02*
G03*
X101846Y9177I10000J0D01*
G01*
X83193Y8981D02*
G03*
X86122Y16052I-7071J7071D01*
G01*
X93799Y13109D02*
G03*
X96457Y6693I9073J0D01*
G01*
X88779D02*
G03*
X91240Y12634I-5941J5941D01*
G01*
X118504Y11614D02*
Y19291D01*
Y31890D01*
X101476Y19291D02*
X118504D01*
X78233Y17603D02*
X79921Y19291D01*
X75787Y15157D02*
X78233Y17603D01*
Y26252D01*
X75787Y6890D02*
Y15157D01*
X101846Y9177D02*
X104331Y6693D01*
X98917Y16248D02*
Y19291D01*
X118110Y75197D02*
X119291Y76378D01*
X118110Y66142D02*
Y75197D01*
X79921Y19291D02*
X83563D01*
X80905Y6693D02*
X83193Y8981D01*
X86122Y16052D02*
Y19291D01*
X93799Y13109D02*
Y19291D01*
X91240Y12634D02*
Y19291D01*
X125197Y66142D02*
X130709D01*
D11*
X104331Y6693D02*
D03*
X80905D02*
D03*
X88779D02*
D03*
X96457D02*
D03*
D12*
X118504Y53937D02*
D03*
Y31890D02*
D03*
D13*
X98917Y41732D02*
D03*
X96358D02*
D03*
X93799D02*
D03*
X91240D02*
D03*
X88681D02*
D03*
X86122D02*
D03*
X83563D02*
D03*
X101476D02*
D03*
Y19291D02*
D03*
X98917D02*
D03*
X96358D02*
D03*
X93799D02*
D03*
X91240D02*
D03*
X88681D02*
D03*
X86122D02*
D03*
X83563D02*
D03*
D14*
X92520Y29724D02*
D03*
D15*
X78233Y33339D02*
D03*
Y26252D02*
D03*
X62061Y37348D02*
D03*
X67072Y32337D02*
D03*
X44488Y19882D02*
D03*
X37402D02*
D03*
X49803D02*
D03*
X56890D02*
D03*
X75590Y102559D02*
D03*
X68504D02*
D03*
X68057Y75841D02*
D03*
X63046Y80852D02*
D03*
X92520Y69882D02*
D03*
X85433D02*
D03*
X92716Y63386D02*
D03*
X85630D02*
D03*
X11865Y69345D02*
D03*
X16876Y74356D02*
D03*
X8715Y44345D02*
D03*
X13726Y49356D02*
D03*
X22978Y39907D02*
D03*
X17967Y34896D02*
D03*
X22691Y30369D02*
D03*
X27702Y35379D02*
D03*
D16*
X29921Y97441D02*
D03*
X89173Y102362D02*
D03*
X118504Y11614D02*
D03*
X88976Y110630D02*
D03*
D17*
X26575Y108858D02*
D03*
Y119882D02*
D03*
D18*
X13242Y39621D02*
D03*
X18253Y44631D02*
D03*
D19*
X52362Y113839D02*
D03*
D20*
X60098Y117776D02*
D03*
Y115807D02*
D03*
Y113839D02*
D03*
Y111870D02*
D03*
Y109902D02*
D03*
X44626D02*
D03*
Y111870D02*
D03*
Y113839D02*
D03*
Y115807D02*
D03*
Y117776D02*
D03*
D21*
X56299Y106102D02*
D03*
X54331D02*
D03*
X52362D02*
D03*
X50394D02*
D03*
X48425D02*
D03*
Y121575D02*
D03*
X50394D02*
D03*
X52362D02*
D03*
X54331D02*
D03*
X56299D02*
D03*
D22*
X119685Y88386D02*
D03*
Y113583D02*
D03*
D23*
X34252Y103543D02*
D03*
Y110630D02*
D03*
X5709Y72441D02*
D03*
Y79528D02*
D03*
D24*
X71797Y36865D02*
D03*
X66786Y41876D02*
D03*
D25*
X39173Y29134D02*
D03*
X49016D02*
D03*
D26*
X68484Y109299D02*
D03*
X75571D02*
D03*
X118110Y66142D02*
D03*
X92716Y56890D02*
D03*
X85630D02*
D03*
X92716Y76378D02*
D03*
X85630D02*
D03*
X125197Y66142D02*
D03*
D27*
X107087Y121653D02*
D03*
Y142126D02*
D03*
D28*
X119095Y142126D02*
D03*
Y134252D02*
D03*
D29*
X140748Y94232D02*
D03*
Y109705D02*
D03*
D30*
X126260Y76378D02*
D03*
X136732D02*
D03*
D31*
X130709Y66142D02*
D03*
X136614D02*
D03*
D32*
X34252Y121850D02*
D03*
Y115945D02*
D03*
D33*
X5709Y88976D02*
D03*
Y118504D02*
D03*
D34*
Y103740D02*
D03*
D35*
X16240Y98622D02*
D03*
Y101181D02*
D03*
Y103740D02*
D03*
Y106299D02*
D03*
Y108858D02*
D03*
D36*
X40082Y41503D02*
D03*
X38690Y42895D02*
D03*
X37298Y44287D02*
D03*
X35906Y45678D02*
D03*
X34514Y47070D02*
D03*
X33122Y48462D02*
D03*
X31730Y49854D02*
D03*
X30338Y51246D02*
D03*
X28946Y52638D02*
D03*
X27554Y54030D02*
D03*
X26162Y55422D02*
D03*
X24770Y56814D02*
D03*
X47320Y79364D02*
D03*
X48712Y77972D02*
D03*
X50104Y76580D02*
D03*
X51496Y75188D02*
D03*
X52888Y73796D02*
D03*
X54280Y72404D02*
D03*
X55672Y71012D02*
D03*
X57063Y69620D02*
D03*
X58455Y68228D02*
D03*
X59847Y66836D02*
D03*
X61239Y65444D02*
D03*
X62631Y64052D02*
D03*
D37*
X24770D02*
D03*
X26162Y65444D02*
D03*
X27554Y66836D02*
D03*
X28946Y68228D02*
D03*
X30338Y69620D02*
D03*
X31730Y71012D02*
D03*
X33122Y72404D02*
D03*
X34514Y73796D02*
D03*
X35906Y75188D02*
D03*
X37298Y76580D02*
D03*
X38690Y77972D02*
D03*
X40082Y79364D02*
D03*
X62631Y56814D02*
D03*
X61239Y55422D02*
D03*
X59847Y54030D02*
D03*
X58455Y52638D02*
D03*
X57063Y51246D02*
D03*
X55672Y49854D02*
D03*
X54280Y48462D02*
D03*
X52888Y47070D02*
D03*
X51496Y45678D02*
D03*
X50104Y44287D02*
D03*
X48712Y42895D02*
D03*
X47320Y41503D02*
D03*
D38*
X121909Y121653D02*
X126969Y126713D01*
X118898Y121653D02*
X121909D01*
X107087D02*
X118898D01*
X119095Y121850D01*
Y134252D01*
D39*
X67890Y89197D02*
X68307Y88779D01*
X41594Y115807D02*
X44626D01*
X38583Y112795D02*
X41594Y115807D01*
X38583Y100394D02*
Y112795D01*
X44626Y113839D02*
X52362D01*
X26575Y105512D02*
Y108858D01*
Y105512D02*
X29921Y102165D01*
Y97441D02*
Y102165D01*
X21063Y106299D02*
X25000Y102362D01*
Y72174D02*
Y102362D01*
Y72174D02*
X28946Y68228D01*
X21395Y103740D02*
X23425Y101710D01*
Y70965D02*
Y101710D01*
Y70965D02*
X27554Y66836D01*
X29331Y76195D02*
Y79786D01*
X34252Y84707D01*
Y103543D01*
X53937Y92188D02*
Y97441D01*
Y92188D02*
X56496Y89629D01*
X50394Y100984D02*
X53937Y97441D01*
X54331Y100394D02*
X55512Y99213D01*
Y92913D02*
Y99213D01*
Y92913D02*
X58071Y90354D01*
Y76195D02*
Y90354D01*
X56496Y77404D02*
Y89629D01*
X50787Y93110D02*
X54921Y88976D01*
Y78613D02*
Y88976D01*
X48425Y93110D02*
X53347Y88189D01*
Y79822D02*
Y88189D01*
X30906Y79134D02*
X39370Y87598D01*
X30906Y77404D02*
Y79134D01*
X39370Y87598D02*
X50197D01*
X75571Y109299D02*
X80709D01*
Y102559D02*
Y109299D01*
X60098Y113839D02*
X67658D01*
X85039Y98228D02*
X86417Y96850D01*
X80709Y102559D02*
X85039Y98228D01*
X89173Y102362D01*
X47795Y3543D02*
X52323Y8071D01*
X39370Y3543D02*
X47795D01*
X37402Y5512D02*
X39370Y3543D01*
X37402Y5512D02*
Y12205D01*
X22978Y39907D02*
X27362Y44291D01*
X28951D01*
X33122Y48462D01*
X30512Y38189D02*
Y43068D01*
X27702Y35379D02*
X30512Y38189D01*
X32323Y42095D02*
X35906Y45678D01*
X61417Y87992D02*
X72835Y76575D01*
X65069Y61614D02*
X74606D01*
X62631Y64052D02*
X65069Y61614D01*
X57677Y61882D02*
X61239Y65444D01*
X57677Y59252D02*
Y61882D01*
X53543Y54766D02*
Y56693D01*
X59847Y54030D02*
X63877Y50000D01*
X63456Y47638D02*
X80056D01*
X59463Y46063D02*
X80709D01*
X55672Y49854D02*
X59463Y46063D01*
X58254Y44488D02*
X64173D01*
X58455Y52638D02*
X63456Y47638D01*
X54280Y48462D02*
X58254Y44488D01*
X63877Y50000D02*
X78937D01*
X83206Y50787D02*
X87598D01*
X80056Y47638D02*
X83206Y50787D01*
X83858Y49213D02*
X86946D01*
X80709Y46063D02*
X83858Y49213D01*
X67126Y26969D02*
X69784Y29626D01*
X72835Y64764D02*
Y76575D01*
X61417Y87992D02*
Y103937D01*
X60098Y105256D02*
X61417Y103937D01*
X60098Y105256D02*
Y109902D01*
X21949Y48327D02*
X22835Y49213D01*
X18253Y44631D02*
X21949Y48327D01*
X22067D01*
X24921Y45472D01*
X33898Y15709D02*
X37402Y12205D01*
X49016Y29134D02*
X52362D01*
X56890Y24606D01*
Y19882D02*
Y24606D01*
X39173Y21654D02*
Y29134D01*
X37402Y19882D02*
X39173Y21654D01*
X49016Y29134D02*
Y33858D01*
X52362Y37205D01*
Y39244D01*
X48712Y42895D02*
X52362Y39244D01*
X39173Y29134D02*
Y33356D01*
X47320Y41503D01*
X69784Y29626D02*
X74410Y34252D01*
X67072Y32337D02*
X69784Y29626D01*
X71797Y36865D02*
X74410Y34252D01*
X64173Y44488D02*
X66786Y41876D01*
X65641Y73425D02*
X68057Y75841D01*
X60869Y73425D02*
X65641D01*
X34252Y110630D02*
Y115945D01*
X39902Y117776D02*
X44626D01*
X56299Y102165D02*
X59055Y99410D01*
X56299Y102165D02*
Y106102D01*
X50787Y93110D02*
Y97244D01*
X48425Y93110D02*
Y106102D01*
X54331Y100394D02*
Y106102D01*
X50394Y100984D02*
Y106102D01*
X75590Y102559D02*
X80709D01*
X65701Y109299D02*
X68484D01*
X63130Y111870D02*
X65701Y109299D01*
X60098Y111870D02*
X63130D01*
X64429Y115807D02*
X64567Y115945D01*
X69882D01*
X64567Y118701D02*
X66535D01*
X63642Y117776D02*
X64567Y118701D01*
X60098Y117776D02*
X63642D01*
X60098Y115807D02*
X64429D01*
X8661Y38583D02*
X10433Y36811D01*
X5807Y41437D02*
X8661Y38583D01*
Y33465D02*
Y38583D01*
X22332Y61614D02*
X24770Y64052D01*
X45276Y69691D02*
Y72835D01*
X33226Y66732D02*
X42317D01*
X45276Y69691D01*
X30338Y69620D02*
X33226Y66732D01*
X40551Y68307D02*
X42717Y70472D01*
X34435Y68307D02*
X40551D01*
X31730Y71012D02*
X34435Y68307D01*
X49213Y55118D02*
Y61769D01*
X42562Y55118D02*
X49213D01*
X96358Y41732D02*
Y47736D01*
X82087Y76378D02*
X85630D01*
X79724Y74016D02*
X82087Y76378D01*
X79724Y66732D02*
Y74016D01*
X74606Y61614D02*
X79724Y66732D01*
X92716Y63386D02*
X96457D01*
Y56890D02*
Y63386D01*
X92716Y56890D02*
X96457D01*
X98917Y41732D02*
Y69882D01*
Y76378D01*
X92520Y69882D02*
X98917D01*
X92716Y76378D02*
X98917D01*
X92716Y56890D02*
X92716Y56890D01*
Y53150D02*
Y56890D01*
X80315Y56890D02*
X85630D01*
X77362Y53937D02*
X80315Y56890D01*
X65508Y53937D02*
X77362D01*
X62631Y56814D02*
X65508Y53937D01*
X86122Y41732D02*
Y46555D01*
X86946Y49213D02*
X88681Y47478D01*
X87598Y50787D02*
X91240Y47146D01*
X88251Y52362D02*
X93799Y46814D01*
X88681Y41732D02*
Y47478D01*
X91240Y41732D02*
Y47146D01*
X64299Y52362D02*
X88251D01*
X93799Y41732D02*
Y46814D01*
X61239Y55422D02*
X64299Y52362D01*
X33898Y15709D02*
Y40886D01*
X32323Y8071D02*
Y42095D01*
X11865Y69345D02*
X13887Y67323D01*
X21500D01*
X16876Y74356D02*
X17251D01*
X10433Y36811D02*
X13242Y39621D01*
X5807Y41437D02*
X8715Y44345D01*
X22835Y49213D02*
X25521D01*
X28946Y52638D01*
X33898Y40886D02*
X37298Y44287D01*
X5709Y79528D02*
Y88976D01*
X16240Y106299D02*
X21063D01*
X16240Y103740D02*
X21395D01*
X54280Y72404D02*
X58071Y76195D01*
X52888Y73796D02*
X56496Y77404D01*
X51496Y75188D02*
X54921Y78613D01*
X53543Y54766D02*
X57063Y51246D01*
X50104Y76580D02*
X53347Y79822D01*
X29331Y76195D02*
X33122Y72404D01*
X30906Y77404D02*
X34514Y73796D01*
X57063Y69620D02*
X60869Y73425D01*
X21500Y67323D02*
X24770Y64052D01*
X34514Y47070D02*
X42562Y55118D01*
X80709Y109299D02*
X80709D01*
X80709D02*
Y110236D01*
X49213Y61769D02*
X57063Y69620D01*
X30512Y43068D02*
X34514Y47070D01*
X31730Y49854D02*
X36614Y54738D01*
Y54921D01*
X67658Y113839D02*
X68504Y112992D01*
X77953D01*
X80709Y110236D01*
D40*
X118504Y31890D02*
X118504Y31890D01*
X145276D01*
D41*
X25197Y145276D02*
X93701D01*
X97441Y141535D01*
Y131299D02*
Y141535D01*
Y131299D02*
X107087Y121653D01*
X18957Y119882D02*
X26575D01*
X14961Y115886D02*
X18957Y119882D01*
X16240Y108858D02*
X26575D01*
X127224Y88386D02*
X133071Y94232D01*
X119685Y88386D02*
X127224D01*
X140748Y87598D02*
Y94232D01*
X133071D02*
X140748D01*
D42*
X117520Y78150D02*
X119291Y76378D01*
X110236Y85433D02*
X117520Y78150D01*
X110236Y85433D02*
Y113661D01*
X119606D01*
X100394D02*
X110236D01*
X119606D02*
X119685Y113583D01*
X119291Y76378D02*
X126260D01*
D43*
X96358Y13976D02*
Y19291D01*
X88681Y13976D02*
Y19291D01*
D44*
X42717Y134055D02*
D03*
X60276Y137795D02*
D03*
X70118D02*
D03*
X79961D02*
D03*
X138386Y53701D02*
D03*
X42323Y8071D02*
D03*
X52323D02*
D03*
X62323D02*
D03*
D45*
X32717Y134055D02*
D03*
X89803Y137795D02*
D03*
X32323Y8071D02*
D03*
D46*
X138386Y43701D02*
D03*
D47*
X127559Y143110D02*
D03*
X91339Y128347D02*
D03*
X5906Y128740D02*
D03*
X56299Y34055D02*
D03*
X24016Y22244D02*
D03*
X127953Y42913D02*
D03*
X143701Y22638D02*
D03*
X109252Y42520D02*
D03*
X126969Y126713D02*
D03*
X68307Y88779D02*
D03*
X95866Y99410D02*
D03*
X109646Y61221D02*
D03*
X92520Y29724D02*
D03*
X87795D02*
D03*
X97244D02*
D03*
Y25000D02*
D03*
X92520D02*
D03*
X87795D02*
D03*
Y34449D02*
D03*
X92520D02*
D03*
X97244D02*
D03*
X145276Y31890D02*
D03*
X25197Y145276D02*
D03*
X14961Y115886D02*
D03*
X117520Y78150D02*
D03*
X86417Y96850D02*
D03*
X50197Y87598D02*
D03*
X72835Y64764D02*
D03*
X57677Y59252D02*
D03*
X53543Y56693D02*
D03*
X67126Y26969D02*
D03*
X24921Y45472D02*
D03*
X39902Y117776D02*
D03*
X38583Y100394D02*
D03*
X59055Y99410D02*
D03*
X50787Y97244D02*
D03*
X69882Y115945D02*
D03*
X66535Y118701D02*
D03*
X8661Y33465D02*
D03*
X22332Y61614D02*
D03*
X42717Y70472D02*
D03*
X45276Y72835D02*
D03*
X49213Y55118D02*
D03*
X96358Y47736D02*
D03*
X92716Y53150D02*
D03*
X86122Y46555D02*
D03*
X78937Y50000D02*
D03*
X75787Y6890D02*
D03*
X96358Y13976D02*
D03*
X88681D02*
D03*
X50197Y111673D02*
D03*
Y116004D02*
D03*
X54527Y111673D02*
D03*
Y116004D02*
D03*
X140748Y87598D02*
D03*
X100394Y113661D02*
D03*
X64961Y97638D02*
D03*
X78347Y60433D02*
D03*
X43701Y101969D02*
D03*
X19882Y77362D02*
D03*
X13726Y54868D02*
D03*
X15748Y28543D02*
D03*
X71063Y10630D02*
D03*
X78233Y38386D02*
D03*
X36614Y54921D02*
D03*
X45669Y51181D02*
D03*
X127165Y7283D02*
D03*
X28740Y85039D02*
D03*
X99410Y89370D02*
D03*
X44685Y81496D02*
D03*
X70276Y70079D02*
D03*
M02*
