%FSTAX23Y23*%
%MOIN*%
%SFA1B1*%

%IPPOS*%
%ADD10C,0.007870*%
%ADD11C,0.013780*%
%ADD12C,0.019690*%
%ADD13C,0.027560*%
%ADD15C,0.011810*%
%ADD16C,0.015750*%
%ADD23R,0.059060X0.070870*%
%ADD24R,0.039370X0.039370*%
%ADD25C,0.039370*%
%ADD31R,0.070870X0.039370*%
%ADD37R,0.024800X0.032680*%
%ADD42O,0.047240X0.041340*%
%ADD43O,0.070870X0.049210*%
%ADD44O,0.078740X0.049210*%
%ADD45R,0.061020X0.061020*%
%ADD46C,0.061020*%
%ADD47C,0.053150*%
%ADD48R,0.053150X0.053150*%
%ADD49C,0.023620*%
%ADD50C,0.005910*%
%ADD51R,0.028740X0.011810*%
%ADD52R,0.011810X0.028740*%
%ADD53R,0.098430X0.098430*%
%ADD54R,0.055120X0.023620*%
%ADD55O,0.070080X0.023620*%
%ADD56O,0.023620X0.070080*%
%ADD57R,0.003940X0.003940*%
%LNstepperpcb-1*%
%LPD*%
G36*
X00196Y01262D02*
X00196D01*
Y01213*
X00192Y01211*
X00186Y01212*
X00184Y01215*
X00184Y01217*
X00185Y01221*
X00185Y01224*
X00157*
Y01198*
X00162Y01199*
X00164Y01196*
X00165Y01195*
X00164Y01192*
X00166Y01185*
X0017Y01178*
X00177Y01174*
X00185Y01172*
X00192Y01174*
X00196Y01172*
Y01152*
X00196*
Y01097*
X00196*
Y00972*
X00165Y0094*
X00081*
X0008Y00941*
X00072Y00942*
X00064Y00941*
X00058Y00936*
X00054Y0093*
X00052Y00922*
X00053Y00919*
X0005Y00915*
X00017*
Y00983*
X00022Y00984*
X00022Y00983*
X00028Y00976*
X00035Y0097*
X00044Y00967*
X00053Y00966*
X00062*
Y01*
Y01035*
X00053*
X00044Y01034*
X00035Y01031*
X00028Y01025*
X00022Y01018*
X00022Y01017*
X00017Y01018*
Y01278*
X00017Y01278*
Y01286*
X00017Y01286*
Y01328*
X00196*
Y01262*
G37*
G36*
X01635Y0149D02*
Y01488D01*
Y00159*
X01625Y00149*
X01492Y00015*
X00161*
X00017Y00159*
Y00352*
X00022Y00354*
X00027Y00351*
X00035Y00349*
X00042Y00351*
X00043Y00351*
X0026*
X00266Y00353*
X00272Y00357*
X00276Y00363*
X00278Y0037*
Y004*
X00278*
X00278Y004*
Y00401*
X00279Y00404*
X00279Y00404*
X00279Y00404*
X0028Y00406*
X00284Y0041*
X00286Y00417*
X00287Y00424*
X00286Y00431*
X00284Y00438*
X00279Y00444*
X00273Y00448*
X00267Y00451*
X0026Y00452*
X00252Y00451*
X00246Y00448*
X0024Y00444*
X00235Y00438*
X00233Y00431*
X00232Y00424*
X00233Y00417*
X00235Y0041*
X00239Y00406*
X0024Y00404*
X0024Y00404*
X0024Y00404*
X0024Y00404*
X0024*
X0024Y00404*
X00241Y00401*
Y004*
X00241Y004*
X00241*
Y00388*
X00213*
Y00397*
X00222*
Y00452*
X00167*
Y00397*
X00176*
Y00388*
X00148*
Y004*
X00148*
X00148Y004*
Y00401*
X00149Y00404*
X00149Y00404*
X00149Y00404*
X0015Y00406*
X00154Y0041*
X00156Y00417*
X00157Y00424*
X00156Y00431*
X00154Y00438*
X00149Y00444*
X00143Y00448*
X00137Y00451*
X0013Y00452*
X00122Y00451*
X00116Y00448*
X0011Y00444*
X00105Y00438*
X00103Y00431*
X00102Y00424*
X00103Y00417*
X00105Y0041*
X00109Y00406*
X0011Y00404*
X0011Y00404*
X0011Y00404*
X00111Y00401*
Y004*
X00111Y004*
X00111*
Y00388*
X00043*
X00042Y00388*
X00035Y0039*
X00027Y00388*
X00022Y00385*
X00017Y00387*
Y00907*
X0005*
X0005Y00907*
X0005Y00907*
X00051Y00907*
X00053Y00907*
X00053Y00908*
X00053Y00908*
X00054Y00909*
X00058Y00908*
X00064Y00904*
X00072Y00902*
X0008Y00904*
X00081Y00904*
X00172*
X00179Y00905*
X00185Y00909*
X0019Y00915*
X00196*
Y00921*
X00242Y00966*
X00262*
X00264Y00962*
X00262Y00958*
X00261Y00955*
X00303*
X00303Y00958*
X003Y00962*
X00302Y00966*
X00317*
X00347Y00937*
X00353Y00933*
X0036Y00931*
X00575*
X00581Y00933*
X00587Y00937*
X00631Y00981*
X00632Y00981*
X00639Y00985*
X00643Y00992*
X00645Y01*
X00643Y01007*
X00639Y01014*
X00632Y01018*
X00625Y0102*
X00617Y01018*
X0061Y01014*
X00606Y01007*
X00606Y01006*
X00567Y00968*
X00367*
X00337Y00997*
X00331Y01001*
X00325Y01003*
X00235*
X00228Y01001*
X00222Y00997*
X00209Y00985*
X00204Y00986*
Y01097*
X00222*
Y01082*
X00222Y01082*
X00222*
Y01069*
X00215*
Y0102*
X00256*
Y01069*
X0025*
Y01082*
X00251Y0109*
X00253Y01097*
X00283*
Y01152*
X00204*
Y01172*
X00204Y01173*
X00204Y01174*
X00204Y01174*
X00205Y01175*
X00209Y01178*
X0024*
X00245Y01179*
X00249Y01182*
X00252Y01187*
X00254Y01192*
Y01201*
X00254*
X00254Y01202*
X00255Y01207*
X00283*
Y01262*
X00204*
Y01328*
X00204Y01331*
X00202Y01334*
X00199Y01336*
X00196Y01336*
X00017*
Y0149*
X00161Y01633*
X01492*
X01635Y0149*
G37*
%LNstepperpcb-2*%
%LPC*%
G36*
X01518Y00444D02*
X01515Y00443D01*
X01507Y00438*
X01503Y00431*
X01502Y00428*
X01518*
Y00444*
G37*
G36*
X01528D02*
Y00428D01*
X01544*
X01544Y00431*
X01539Y00438*
X01532Y00443*
X01528Y00444*
G37*
G36*
X00096Y0043D02*
X0008D01*
Y00413*
X00083Y00414*
X0009Y00419*
X00095Y00426*
X00096Y0043*
G37*
G36*
X00717Y00424D02*
X00714Y00423D01*
X00707Y00418*
X00702Y00411*
X00701Y00407*
X00717*
Y00424*
G37*
G36*
X00727D02*
Y00407D01*
X00744*
X00743Y00411*
X00738Y00418*
X00731Y00423*
X00727Y00424*
G37*
G36*
X0007Y0043D02*
X00053D01*
X00054Y00426*
X00059Y00419*
X00066Y00414*
X0007Y00413*
Y0043*
G37*
G36*
X0053Y00446D02*
Y0043D01*
X00546*
X00545Y00433*
X0054Y0044*
X00533Y00445*
X0053Y00446*
G37*
G36*
X0007Y00456D02*
X00066Y00455D01*
X00059Y0045*
X00054Y00443*
X00053Y0044*
X0007*
Y00456*
G37*
G36*
X0008D02*
Y0044D01*
X00096*
X00095Y00443*
X0009Y0045*
X00083Y00455*
X0008Y00456*
G37*
G36*
X0032Y00454D02*
X00295D01*
Y00429*
X0032*
Y00454*
G37*
G36*
X00354D02*
X0033D01*
Y00429*
X00354*
Y00454*
G37*
G36*
X0052Y00446D02*
X00516Y00445D01*
X00509Y0044*
X00504Y00433*
X00503Y0043*
X0052*
Y00446*
G37*
G36*
X00546Y0042D02*
X0053D01*
Y00403*
X00533Y00404*
X0054Y00409*
X00545Y00416*
X00546Y0042*
G37*
G36*
X01425Y00371D02*
Y00355D01*
X01441*
X0144Y00358*
X01435Y00365*
X01428Y0037*
X01425Y00371*
G37*
G36*
X0032Y00381D02*
X00316Y0038D01*
X00309Y00375*
X00304Y00368*
X00303Y00365*
X0032*
Y00381*
G37*
G36*
X0033D02*
Y00365D01*
X00346*
X00345Y00368*
X0034Y00375*
X00333Y0038*
X0033Y00381*
G37*
G36*
X0079Y00369D02*
X00786Y00368D01*
X00779Y00364*
X00774Y00356*
X00774Y00353*
X0079*
Y00369*
G37*
G36*
X008D02*
Y00353D01*
X00816*
X00815Y00356*
X00811Y00364*
X00803Y00368*
X008Y00369*
G37*
G36*
X01415Y00371D02*
X01411Y0037D01*
X01404Y00365*
X01399Y00358*
X01398Y00355*
X01415*
Y00371*
G37*
G36*
X00717Y00397D02*
X00701D01*
X00702Y00394*
X00707Y00387*
X00714Y00382*
X00717Y00381*
Y00397*
G37*
G36*
X01518Y00418D02*
X01502D01*
X01503Y00414*
X01507Y00407*
X01515Y00402*
X01518Y00401*
Y00418*
G37*
G36*
X01544D02*
X01528D01*
Y00401*
X01532Y00402*
X01539Y00407*
X01544Y00414*
X01544Y00418*
G37*
G36*
X0052Y0042D02*
X00503D01*
X00504Y00416*
X00509Y00409*
X00516Y00404*
X0052Y00403*
Y0042*
G37*
G36*
X00744Y00397D02*
X00727D01*
Y00381*
X00731Y00382*
X00738Y00387*
X00743Y00394*
X00744Y00397*
G37*
G36*
X0032Y00419D02*
X00295D01*
Y00394*
X0032*
Y00419*
G37*
G36*
X00354D02*
X0033D01*
Y00394*
X00354*
Y00419*
G37*
G36*
X00125Y0049D02*
X001D01*
X00101Y00487*
X00104Y0048*
X00108Y00474*
X00115Y00469*
X00122Y00466*
X00125Y00466*
Y0049*
G37*
G36*
X0039Y00665D02*
X00351D01*
Y00647*
X00369*
X00378Y00649*
X00385Y00654*
X0039Y00661*
X0039Y00665*
G37*
G36*
X00341Y00692D02*
X00323D01*
X00314Y0069*
X00307Y00685*
X00302Y00678*
X00301Y00675*
X00341*
Y00692*
G37*
G36*
X00369D02*
X00351D01*
Y00675*
X0039*
X0039Y00678*
X00385Y00685*
X00378Y0069*
X00369Y00692*
G37*
G36*
X00341Y00665D02*
X00301D01*
X00302Y00661*
X00307Y00654*
X00314Y00649*
X00323Y00647*
X00341*
Y00665*
G37*
G36*
X00128Y00615D02*
X00089D01*
X00089Y00611*
X00094Y00604*
X00101Y00599*
X0011Y00597*
X00128*
Y00615*
G37*
G36*
Y00642D02*
X0011D01*
X00101Y0064*
X00094Y00635*
X00089Y00628*
X00089Y00625*
X00128*
Y00642*
G37*
G36*
X00385Y00855D02*
X00377Y00853D01*
X0037Y00849*
X00366Y00842*
X00364Y00835*
X00366Y00827*
X0037Y0082*
X00377Y00816*
X00378Y00816*
X00411Y00782*
Y00638*
X00377*
X00377Y00638*
X00369Y0064*
X00323*
X00315Y00638*
X00308Y00634*
X00304Y00627*
X00303Y0062*
X00304Y00612*
X00308Y00605*
X00315Y00601*
X00323Y00599*
X00369*
X00377Y00601*
X00377Y00601*
X0043*
X00436Y00603*
X00442Y00607*
X00446Y00613*
X00448Y0062*
Y0079*
X00446Y00796*
X00442Y00802*
X00403Y00841*
X00403Y00842*
X00399Y00849*
X00392Y00853*
X00385Y00855*
G37*
G36*
X00341Y00742D02*
X00323D01*
X00314Y0074*
X00307Y00735*
X00302Y00728*
X00301Y00725*
X00341*
Y00742*
G37*
G36*
X00369D02*
X00351D01*
Y00725*
X0039*
X0039Y00728*
X00385Y00735*
X00378Y0074*
X00369Y00742*
G37*
G36*
X00563Y00812D02*
X00539D01*
X00539Y00809*
X00542Y00802*
X00547Y00796*
X00553Y00791*
X00561Y00788*
X00563Y00788*
Y00812*
G37*
G36*
X0039Y00715D02*
X00351D01*
Y00697*
X00369*
X00378Y00699*
X00385Y00704*
X0039Y00711*
X0039Y00715*
G37*
G36*
X01518Y00705D02*
X01494D01*
Y0068*
X01497Y00681*
X01504Y00684*
X0151Y00688*
X01515Y00695*
X01518Y00702*
X01518Y00705*
G37*
G36*
X00156Y0074D02*
X0011D01*
X00102Y00738*
X00096Y00734*
X00091Y00727*
X0009Y0072*
X00091Y00712*
X00096Y00705*
X00102Y00701*
X0011Y00699*
X00156*
X00164Y00701*
X00165Y00701*
X00176*
Y00695*
Y00688*
X00165*
X00164Y00688*
X00156Y0069*
X0011*
X00102Y00688*
X00096Y00684*
X00091Y00677*
X0009Y0067*
X00091Y00662*
X00096Y00655*
X00102Y00651*
X0011Y00649*
X00156*
X00164Y00651*
X00165Y00651*
X00176*
Y00638*
X00172Y00635*
X00165Y0064*
X00156Y00642*
X00138*
Y0062*
Y00597*
X00156*
X00165Y00599*
X00172Y00604*
X00176Y00601*
Y00588*
X00172Y00585*
X00165Y0059*
X00156Y00592*
X00138*
Y0057*
Y00547*
X00156*
X00165Y00549*
X00172Y00554*
X00176Y00551*
Y00535*
Y00522*
X00167*
Y00467*
X00222*
Y00513*
X00226Y00516*
X00235Y00515*
X00237Y00511*
X00235Y00509*
X00233Y00502*
X00232Y00495*
X00233Y00488*
X00235Y00481*
X0024Y00475*
X00246Y00471*
X00252Y00468*
X0026Y00467*
X00267Y00468*
X00273Y00471*
X00279Y00475*
X00284Y00481*
X00286Y00488*
X00287Y00495*
X00286Y00502*
X00284Y00509*
X00282Y00511*
X00284Y00515*
X00293Y00516*
X00297Y00513*
Y00467*
X00352*
Y00522*
X00343*
Y00535*
X00341Y00541*
X00339Y00545*
X00341Y00549*
X00369*
X00377Y00551*
X0038Y00553*
X00397*
X00399Y00549*
X00397Y00546*
X00396Y00538*
X00397Y00531*
X00401Y00524*
X00408Y0052*
X00416Y00518*
X00423Y0052*
X0043Y00524*
X00434Y00531*
X00436Y00538*
X00434Y00546*
X00432Y0055*
Y00558*
X00431Y00563*
X00431Y00564*
X00427Y0057*
X00416Y00581*
X00411Y00584*
X0041Y00585*
X00405Y00586*
X0038*
X00377Y00588*
X00369Y0059*
X00323*
X00315Y00588*
X00308Y00584*
X00304Y00577*
X00303Y0057*
X00304Y00562*
X00307Y00557*
X00305Y00553*
X00213*
Y0067*
Y00695*
Y0072*
X00211Y00726*
X00207Y00732*
X00201Y00736*
X00195Y00738*
X00165*
X00164Y00738*
X00156Y0074*
G37*
G36*
X00341Y00715D02*
X00301D01*
X00302Y00711*
X00307Y00704*
X00314Y00699*
X00323Y00697*
X00341*
Y00715*
G37*
G36*
X00135Y00524D02*
Y005D01*
X00159*
X00158Y00503*
X00155Y0051*
X00151Y00516*
X00144Y00521*
X00137Y00524*
X00135Y00524*
G37*
G36*
X00865Y00605D02*
X00857Y00603D01*
X0085Y00599*
X00846Y00592*
X00844Y00585*
X00846Y00577*
X0085Y0057*
X0085Y0057*
X00852Y00567*
Y00554*
X0082Y00522*
X00785*
Y00529*
X00714*
Y0049*
X00785*
Y00498*
X00825*
X00829Y00499*
X00833Y00501*
X00873Y00541*
X00876Y00545*
X00877Y0055*
Y00567*
X00879Y0057*
X00879Y0057*
X00883Y00577*
X00885Y00585*
X00883Y00592*
X00879Y00599*
X00872Y00603*
X00865Y00605*
G37*
G36*
X00662Y00542D02*
X00629D01*
Y00525*
X00662*
Y00542*
G37*
G36*
X00125Y00524D02*
X00122Y00524D01*
X00115Y00521*
X00108Y00516*
X00104Y0051*
X00101Y00503*
X001Y005*
X00125*
Y00524*
G37*
G36*
X00159Y0049D02*
X00135D01*
Y00466*
X00137Y00466*
X00144Y00469*
X00151Y00474*
X00155Y0048*
X00158Y00487*
X00159Y0049*
G37*
G36*
X01518Y00516D02*
X01502D01*
X01503Y00513*
X01507Y00505*
X01515Y00501*
X01518Y005*
Y00516*
G37*
G36*
X01544D02*
X01528D01*
Y005*
X01532Y00501*
X01539Y00505*
X01544Y00513*
X01544Y00516*
G37*
G36*
X00662Y00569D02*
X00629D01*
Y00552*
X00662*
Y00569*
G37*
G36*
X00704D02*
X00672D01*
Y00552*
X00704*
Y00569*
G37*
G36*
X00128Y00592D02*
X0011D01*
X00101Y0059*
X00094Y00585*
X00089Y00578*
X00089Y00575*
X00128*
Y00592*
G37*
G36*
Y00565D02*
X00089D01*
X00089Y00561*
X00094Y00554*
X00101Y00549*
X0011Y00547*
X00128*
Y00565*
G37*
G36*
X00704Y00542D02*
X00672D01*
Y00525*
X00704*
Y00542*
G37*
G36*
X01518Y00542D02*
X01515Y00542D01*
X01507Y00537*
X01503Y0053*
X01502Y00526*
X01518*
Y00542*
G37*
G36*
X01528D02*
Y00526D01*
X01544*
X01544Y0053*
X01539Y00537*
X01532Y00542*
X01528Y00542*
G37*
G36*
X00138Y00107D02*
X00122D01*
X00123Y00103*
X00127Y00096*
X00135Y00091*
X00138Y0009*
Y00107*
G37*
G36*
X00164D02*
X00148D01*
Y0009*
X00152Y00091*
X00159Y00096*
X00164Y00103*
X00164Y00107*
G37*
G36*
X01532D02*
X01516D01*
X01516Y00103*
X01521Y00096*
X01528Y00091*
X01532Y0009*
Y00107*
G37*
G36*
X00819Y00082D02*
Y00066D01*
X00836*
X00835Y00069*
X0083Y00076*
X00823Y00081*
X00819Y00082*
G37*
G36*
X00331D02*
X00328Y00081D01*
X0032Y00076*
X00316Y00069*
X00315Y00066*
X00331*
Y00082*
G37*
G36*
X00341D02*
Y00066D01*
X00357*
X00357Y00069*
X00352Y00076*
X00345Y00081*
X00341Y00082*
G37*
G36*
X00809D02*
X00806Y00081D01*
X00799Y00076*
X00794Y00069*
X00793Y00066*
X00809*
Y00082*
G37*
G36*
X00148Y00133D02*
Y00117D01*
X00164*
X00164Y0012*
X00159Y00127*
X00152Y00132*
X00148Y00133*
G37*
G36*
X01532D02*
X01528Y00132D01*
X01521Y00127*
X01516Y0012*
X01516Y00117*
X01532*
Y00133*
G37*
G36*
X01542D02*
Y00117D01*
X01558*
X01557Y0012*
X01553Y00127*
X01545Y00132*
X01542Y00133*
G37*
G36*
X00138D02*
X00135Y00132D01*
X00127Y00127*
X00123Y0012*
X00122Y00117*
X00138*
Y00133*
G37*
G36*
X01558Y00107D02*
X01542D01*
Y0009*
X01545Y00091*
X01553Y00096*
X01557Y00103*
X01558Y00107*
G37*
G36*
X00717Y00108D02*
X00714Y00107D01*
X00707Y00102*
X00702Y00095*
X00701Y00092*
X00717*
Y00108*
G37*
G36*
X00727D02*
Y00092D01*
X00744*
X00743Y00095*
X00738Y00102*
X00731Y00107*
X00727Y00108*
G37*
G36*
X00331Y00056D02*
X00315D01*
X00316Y00052*
X0032Y00045*
X00328Y0004*
X00331Y00039*
Y00056*
G37*
G36*
X00357D02*
X00341D01*
Y00039*
X00345Y0004*
X00352Y00045*
X00357Y00052*
X00357Y00056*
G37*
G36*
X00809D02*
X00793D01*
X00794Y00052*
X00799Y00045*
X00806Y0004*
X00809Y00039*
Y00056*
G37*
G36*
X01414Y0005D02*
X01398D01*
Y00033*
X01402Y00034*
X01409Y00039*
X01414Y00046*
X01414Y0005*
G37*
G36*
X01203D02*
X01187D01*
X01188Y00046*
X01192Y00039*
X012Y00034*
X01203Y00033*
Y0005*
G37*
G36*
X01229D02*
X01213D01*
Y00033*
X01217Y00034*
X01224Y00039*
X01229Y00046*
X01229Y0005*
G37*
G36*
X01388D02*
X01372D01*
X01373Y00046*
X01377Y00039*
X01385Y00034*
X01388Y00033*
Y0005*
G37*
G36*
X01398Y00076D02*
Y0006D01*
X01414*
X01414Y00063*
X01409Y0007*
X01402Y00075*
X01398Y00076*
G37*
G36*
X00717Y00082D02*
X00701D01*
X00702Y00078*
X00707Y00071*
X00714Y00066*
X00717Y00065*
Y00082*
G37*
G36*
X00744D02*
X00727D01*
Y00065*
X00731Y00066*
X00738Y00071*
X00743Y00078*
X00744Y00082*
G37*
G36*
X01388Y00076D02*
X01385Y00075D01*
X01377Y0007*
X01373Y00063*
X01372Y0006*
X01388*
Y00076*
G37*
G36*
X00836Y00056D02*
X00819D01*
Y00039*
X00823Y0004*
X0083Y00045*
X00835Y00052*
X00836Y00056*
G37*
G36*
X01203Y00076D02*
X012Y00075D01*
X01192Y0007*
X01188Y00063*
X01187Y0006*
X01203*
Y00076*
G37*
G36*
X01213D02*
Y0006D01*
X01229*
X01229Y00063*
X01224Y0007*
X01217Y00075*
X01213Y00076*
G37*
G36*
X00216Y00283D02*
X00203Y00282D01*
X0019Y00278*
X00179Y00272*
X00168Y00264*
X0016Y00253*
X00154Y00242*
X0015Y00229*
X00149Y00216*
X0015Y00203*
X00154Y0019*
X0016Y00179*
X00168Y00168*
X00179Y0016*
X0019Y00154*
X00203Y0015*
X00216Y00149*
X00229Y0015*
X00242Y00154*
X00253Y0016*
X00264Y00168*
X00272Y00179*
X00278Y0019*
X00282Y00203*
X00283Y00216*
X00282Y00229*
X00278Y00242*
X00272Y00253*
X00264Y00264*
X00253Y00272*
X00242Y00278*
X00229Y00282*
X00216Y00283*
G37*
G36*
X01172Y00296D02*
X01168Y00296D01*
X01161Y00291*
X01156Y00284*
X01155Y0028*
X01172*
Y00296*
G37*
G36*
X01182D02*
Y0028D01*
X01198*
X01197Y00284*
X01192Y00291*
X01185Y00296*
X01182Y00296*
G37*
G36*
X00067Y003D02*
X00064Y003D01*
X00057Y00295*
X00052Y00288*
X00051Y00284*
X00067*
Y003*
G37*
G36*
X00094Y00274D02*
X00077D01*
Y00258*
X00081Y00258*
X00088Y00263*
X00093Y00271*
X00094Y00274*
G37*
G36*
X01172Y0027D02*
X01155D01*
X01156Y00267*
X01161Y00259*
X01168Y00255*
X01172Y00254*
Y0027*
G37*
G36*
X01198D02*
X01182D01*
Y00254*
X01185Y00255*
X01192Y00259*
X01197Y00267*
X01198Y0027*
G37*
G36*
X00067Y00274D02*
X00051D01*
X00052Y00271*
X00057Y00263*
X00064Y00258*
X00067Y00258*
Y00274*
G37*
G36*
X01441Y00345D02*
X01425D01*
Y00328*
X01428Y00329*
X01435Y00334*
X0144Y00341*
X01441Y00345*
G37*
G36*
X0032Y00355D02*
X00303D01*
X00304Y00351*
X00309Y00344*
X00316Y00339*
X0032Y00338*
Y00355*
G37*
G36*
X00346D02*
X0033D01*
Y00338*
X00333Y00339*
X0034Y00344*
X00345Y00351*
X00346Y00355*
G37*
G36*
X01415Y00345D02*
X01398D01*
X01399Y00341*
X01404Y00334*
X01411Y00329*
X01415Y00328*
Y00345*
G37*
G36*
X00077Y003D02*
Y00284D01*
X00094*
X00093Y00288*
X00088Y00295*
X00081Y003*
X00077Y003*
G37*
G36*
X0079Y00343D02*
X00774D01*
X00774Y00339*
X00779Y00332*
X00786Y00327*
X0079Y00327*
Y00343*
G37*
G36*
X00816D02*
X008D01*
Y00327*
X00803Y00327*
X00811Y00332*
X00815Y00339*
X00816Y00343*
G37*
G36*
X01213Y0021D02*
Y00193D01*
X01229*
X01229Y00197*
X01224Y00204*
X01217Y00209*
X01213Y0021*
G37*
G36*
X00895Y0028D02*
X00887Y00278D01*
X0088Y00274*
X00876Y00267*
X00874Y0026*
X00876Y00252*
X0088Y00245*
X00887Y00241*
X00895Y00239*
X00902Y00241*
X00907Y00244*
X00908Y00244*
X00965*
X00967Y0024*
X00965Y00239*
X00961Y00232*
X00959Y00225*
X00961Y00217*
X00964Y00212*
X00965Y00211*
X00963Y00203*
X00958Y00196*
X00957Y00195*
X00957Y00195*
X00946Y00186*
X00934Y00181*
X0092Y00179*
X0092Y0018*
X00908*
X00907Y0018*
X00902Y00183*
X00895Y00185*
X00887Y00183*
X0088Y00179*
X00876Y00172*
X00874Y00165*
X00876Y00157*
X0088Y0015*
X00887Y00146*
X00895Y00144*
X00902Y00146*
X00907Y00149*
X00908Y00149*
X0092*
Y00149*
X00936Y00151*
X00952Y00156*
X00966Y00163*
X00979Y00174*
X00979Y00174*
X00987Y00185*
X00993Y00198*
X00995Y00212*
X00995Y00212*
X00998Y00217*
X01Y00225*
X00998Y00232*
X00994Y00239*
X00993Y00239*
X00994Y00244*
X01005Y00243*
X01021Y00238*
X01035Y0023*
X01038Y00229*
X0104Y00224*
X01044Y00222*
X01043Y00222*
X01043*
X01043*
X01045Y0022*
X01045Y00219*
X01046Y00217*
X0105Y0021*
X01057Y00206*
X01065Y00204*
X01072Y00206*
X01079Y0021*
X01083Y00217*
X01085Y00225*
X01083Y00232*
X01079Y00239*
X01072Y00243*
X01065Y00244*
X01056Y00253*
X0104Y00262*
X01024Y00269*
X01006Y00273*
X00988Y00275*
Y00275*
X00908*
X00907Y00275*
X00902Y00278*
X00895Y0028*
G37*
G36*
X01593Y00227D02*
X01577D01*
X01577Y00223*
X01582Y00216*
X01589Y00211*
X01593Y00211*
Y00227*
G37*
G36*
X01203Y0021D02*
X012Y00209D01*
X01192Y00204*
X01188Y00197*
X01187Y00193*
X01203*
Y0021*
G37*
G36*
X01437Y00283D02*
X01423Y00282D01*
X01411Y00278*
X01399Y00272*
X01389Y00264*
X01381Y00253*
X01374Y00242*
X01371Y00229*
X01369Y00216*
X01371Y00203*
X01374Y0019*
X01381Y00179*
X01389Y00168*
X01399Y0016*
X01411Y00154*
X01423Y0015*
X01437Y00149*
X0145Y0015*
X01462Y00154*
X01474Y0016*
X01484Y00168*
X01492Y00179*
X01499Y0019*
X01502Y00203*
X01504Y00216*
X01502Y00229*
X01499Y00242*
X01492Y00253*
X01484Y00264*
X01474Y00272*
X01462Y00278*
X0145Y00282*
X01437Y00283*
G37*
G36*
X01203Y00183D02*
X01187D01*
X01188Y0018*
X01192Y00173*
X012Y00168*
X01203Y00167*
Y00183*
G37*
G36*
X01229D02*
X01213D01*
Y00167*
X01217Y00168*
X01224Y00173*
X01229Y0018*
X01229Y00183*
G37*
G36*
X01603Y00253D02*
Y00237D01*
X01619*
X01618Y0024*
X01614Y00248*
X01606Y00252*
X01603Y00253*
G37*
G36*
X00388Y00267D02*
X00385Y00266D01*
X00377Y00261*
X00373Y00254*
X00372Y00251*
X00388*
Y00267*
G37*
G36*
X00398D02*
Y00251D01*
X00414*
X00414Y00254*
X00409Y00261*
X00402Y00266*
X00398Y00267*
G37*
G36*
X01593Y00253D02*
X01589Y00252D01*
X01582Y00248*
X01577Y0024*
X01577Y00237*
X01593*
Y00253*
G37*
G36*
X01619Y00227D02*
X01603D01*
Y00211*
X01606Y00211*
X01614Y00216*
X01618Y00223*
X01619Y00227*
G37*
G36*
X00388Y00241D02*
X00372D01*
X00373Y00237*
X00377Y0023*
X00385Y00225*
X00388Y00224*
Y00241*
G37*
G36*
X00414D02*
X00398D01*
Y00224*
X00402Y00225*
X00409Y0023*
X00414Y00237*
X00414Y00241*
G37*
G36*
X01589Y01406D02*
X01573D01*
X01573Y01402*
X01578Y01395*
X01585Y0139*
X01589Y0139*
Y01406*
G37*
G36*
X01615D02*
X01599D01*
Y0139*
X01603Y0139*
X0161Y01395*
X01615Y01402*
X01615Y01406*
G37*
G36*
X00595Y01435D02*
X00587Y01433D01*
X0058Y01429*
X0058Y01429*
X00578Y01427*
X00575Y01427*
Y01427*
X00439*
X00435Y01426*
X00431Y01423*
X00412Y01404*
X00409Y014*
X00408Y01395*
Y01389*
X00406*
Y01349*
X004*
Y01343*
X0036*
Y01315*
Y01295*
Y01276*
Y01256*
Y01236*
X004*
Y0123*
X00406*
Y0119*
X00408*
Y01154*
X00403Y01152*
X00391Y01164*
X00391Y01165*
X0039Y01165*
X00386Y01169*
X00386Y01169*
X00386Y01171*
X00386Y01171*
X00384Y01178*
X0038Y01185*
X00373Y01189*
X00366Y01191*
X00358Y01189*
X00351Y01185*
X00347Y01178*
X00346Y01171*
X00347Y01163*
X00351Y01157*
Y01153*
X00347Y01147*
X00346Y01139*
X00347Y01132*
X00351Y01125*
X00358Y01121*
X00362Y0112*
X00363Y01115*
X00358Y01112*
X00353Y01104*
X00352Y01101*
X00374*
Y01096*
X00379*
Y01075*
X00382Y01075*
X00389Y0108*
X00394Y01087*
X00399Y01088*
X00422Y01065*
X0042Y0106*
X00416Y0106*
X00409Y01055*
X00404Y01048*
X00404Y01044*
X00446*
X00445Y01048*
X00441Y01054*
X00444Y01058*
X00666*
X00693Y01031*
X00697Y01028*
X00702Y01027*
X00862*
X00864Y01023*
X00861Y01018*
X0086Y01014*
X00903*
X00902Y01018*
X00898Y01023*
X00901Y01027*
X01023*
X01044Y01007*
Y00952*
X01042*
X0104*
X01034*
X01031Y00956*
X01031Y00958*
X01032Y00959*
X01032Y0096*
X01033Y00962*
X01035Y0097*
X01033Y00977*
X01029Y00984*
X01022Y00988*
X01015Y0099*
X01007Y00988*
X01Y00984*
X00996Y00977*
X00994Y0097*
X00996Y00962*
X00997Y0096*
X00997Y00959*
X00998Y00958*
X00998Y00956*
X00995Y00952*
X00987*
Y00897*
X0104*
X01042*
X01044Y00896*
Y00882*
X01042*
X00987*
Y00868*
X00979Y00864*
X00973Y00864*
X00972Y00864*
X0097Y00865*
X0097Y00865*
X00963Y0087*
X00956Y00871*
X00909*
X00902Y0087*
X00895Y00865*
X00891Y00859*
X00889Y00851*
X00891Y00844*
X00895Y00837*
X00902Y00833*
X00909Y00831*
X00956*
X00963Y00833*
X0097Y00837*
X0097Y00837*
X00972Y00839*
X00975Y00839*
Y00839*
Y00839*
X00983*
X00987Y00839*
Y00827*
Y00822*
Y00813*
X00982*
X0098Y00814*
Y00813*
X00975*
Y00813*
Y00813*
X00972Y00814*
X0097Y00815*
X0097Y00815*
X00963Y0082*
X00956Y00821*
X00909*
X00902Y0082*
X00895Y00815*
X00891Y00809*
X00889Y00801*
X00891Y00794*
X00895Y00787*
X00902Y00783*
X00909Y00781*
X00956*
X00963Y00783*
X00965Y00784*
X00966Y00784*
X00967Y00785*
X00972Y00786*
X00975Y00785*
X00975Y00786*
X00978Y00785*
X00979Y00785*
X00985Y00783*
X00987Y00782*
Y00767*
X01042*
X01043Y00767*
Y00752*
X01042*
X00987*
Y00702*
X00974*
Y00709*
X00974Y00712*
X00972Y00715*
X00969Y00717*
X00966Y00717*
X00913*
X00912Y00717*
X00912Y00717*
X00911Y00717*
X00909Y00717*
X00909Y00716*
X00909Y00716*
X00908Y00716*
X00907Y00715*
X00907Y00715*
X00905Y00715*
X00904Y00715*
X00904Y00716*
X00903Y00716*
X00902Y00717*
X00902Y00717*
X00902Y00717*
X00901Y00717*
X009Y00717*
X00899Y00717*
X00894*
Y00733*
X00898Y00735*
X00902Y00733*
X00909Y00731*
X00956*
X00963Y00733*
X0097Y00737*
X00974Y00744*
X00976Y00751*
X00974Y00759*
X0097Y00765*
X00963Y0077*
X00956Y00771*
X00909*
X00902Y0077*
X00895Y00766*
X00895*
X00895*
X00895Y00765*
X0088*
X00874Y00764*
X0087Y00761*
X00867Y00757*
X00865Y00751*
Y00717*
X00856*
X00855Y00717*
X00854Y00717*
X00853Y00717*
X00853Y00717*
X00852Y00716*
X00851Y00716*
X00851Y00715*
X0085Y00715*
X0085Y00714*
X00849Y00713*
X00837Y00694*
X00837Y00693*
X00836Y00691*
X00836Y00691*
X00836Y00691*
X00836Y0069*
X00836Y00688*
X00836Y00688*
X00836Y00688*
X00837Y00686*
X00837Y00685*
X00849Y00666*
X0085Y00665*
X0085Y00664*
X00851Y00664*
X00851Y00663*
X00852Y00663*
X00852Y00663*
X00853Y00662*
X00853Y00662*
X00854Y00662*
X00855Y00662*
X00856Y00662*
X00899*
X009Y00662*
X00901Y00662*
X00902Y00662*
X00902Y00662*
X00903Y00663*
X00903Y00663*
X00904Y00663*
X00904Y00664*
X00905Y00664*
X00905Y00665*
X00907Y00664*
X00908Y00663*
X00909Y00663*
X00909Y00663*
X00909Y00662*
X00911Y00662*
X00912Y00662*
X00912Y00662*
X00913Y00662*
X00932*
Y00655*
X00926Y00649*
X00889*
X00889Y00649*
X00889Y00649*
X00889*
X00882Y00653*
X00875Y00655*
X00867Y00653*
X00866Y00653*
X00767*
X00735Y00685*
Y00731*
X00743*
X00751Y00733*
X00756Y00736*
X00756Y00736*
X0078*
X00785Y00737*
X0079Y00741*
X00793Y00746*
X00795Y00751*
Y00801*
X00793Y00807*
X0079Y00812*
X00785Y00815*
X0078Y00816*
X00756*
X00756Y00817*
X00751Y0082*
X00743Y00821*
X00697*
X00689Y0082*
X00683Y00815*
X00678Y00809*
X00677Y00801*
X00678Y00794*
X00683Y00787*
X00689Y00783*
X00697Y00781*
X00743*
X00751Y00783*
X00756Y00786*
X00756Y00786*
X00764*
Y00766*
X00756*
X00756Y00767*
X00751Y0077*
X00743Y00771*
X00697*
X00689Y0077*
X00683Y00765*
X00678Y00759*
X00677Y00751*
X00678Y00744*
X00683Y00737*
X00689Y00733*
X00697Y00731*
X00705*
Y00693*
X00649*
Y00715*
X00649*
X00649Y00716*
X0065Y00721*
X00654Y00727*
X00654Y00727*
X00654Y00727*
X00654Y00727*
X00654Y00727*
X00658Y00732*
X00661Y00739*
X00662Y00746*
X00661Y00753*
X00658Y0076*
X00654Y00766*
X00648Y0077*
X00641Y00773*
X00634Y00774*
X00627Y00773*
X0062Y0077*
X00614Y00766*
X0061Y0076*
X00607Y00753*
X00606Y00746*
X00607Y00739*
X0061Y00732*
X00614Y00727*
X00614Y00727*
X00614Y00727*
X00614Y00727*
X00614Y00727*
X00618Y00721*
X00619Y00716*
X00619Y00715*
X00619*
Y00693*
X00582*
X00578Y00697*
X00579Y00698*
X00582Y00703*
X00583Y00708*
Y00715*
X00584*
X00583Y00716*
X00585Y00721*
X00588Y00727*
X00588Y00727*
X00588Y00727*
X00589Y00727*
X00592Y00732*
X00595Y00739*
X00596Y00746*
X00595Y00753*
X00592Y0076*
X00588Y00766*
X00582Y0077*
X00576Y00773*
X00568Y00774*
X00561Y00773*
X00555Y0077*
X00549Y00766*
X00544Y0076*
X00542Y00753*
X00541Y00746*
X00541Y0074*
X00537Y00738*
X00521Y00753*
X00521Y00754*
X00517Y0076*
X0051Y00765*
X00503Y00766*
X00495Y00765*
X00489Y0076*
X00484Y00754*
X00483Y00746*
X00484Y00739*
X00489Y00732*
X00495Y00728*
X00496Y00728*
X00542Y00682*
X00562Y00662*
X00568Y00658*
X00575Y00656*
X00712*
X00747Y00622*
X00753Y00618*
X0076Y00616*
X0081*
Y00605*
X00804Y00599*
X00785*
Y00604*
X00714*
Y00565*
X00785*
Y0057*
X0081*
X00815Y00572*
X00819Y00575*
X00834Y0059*
X00837Y00594*
X00839Y006*
Y00616*
X00866*
X00867Y00616*
X00871Y00615*
X00922Y00564*
X0092Y0056*
X00914*
X00914Y0056*
X00909Y00563*
X00901Y00565*
X00893Y00563*
X00887Y00559*
X00883Y00552*
X00881Y00545*
X00883Y00537*
X00887Y0053*
X00893Y00526*
X00901Y00524*
X00909Y00526*
X00914Y00529*
X00914Y00529*
X01123*
X01155Y00498*
X01155Y00498*
X01156Y00492*
X0116Y00485*
X01167Y00481*
X01175Y00479*
X01182Y00481*
X01189Y00485*
X01193Y00492*
X01195Y005*
X01194Y005*
X01199Y00502*
X0123Y00471*
X01231Y00467*
X01235Y0046*
X01242Y00456*
X0125Y00454*
X01257Y00456*
X01264Y0046*
X01264*
X01264Y0046*
X01264Y0046*
X01325*
X0133Y00462*
X01334Y00465*
X01456Y00586*
X01459Y00591*
X0146Y00596*
Y0069*
X01465Y00692*
X01468Y00688*
X01474Y00684*
X01481Y00681*
X01484Y0068*
Y0071*
X01489*
Y00715*
X01518*
X01518Y00717*
X01515Y00724*
X0151Y00731*
X01504Y00735*
X01504Y00736*
X01505Y0074*
X01542*
X01545Y00737*
X01545Y00735*
X01541Y00729*
X0154Y00729*
X0154Y00729*
X0154Y00729*
X01536Y00723*
X01533Y00717*
X01532Y0071*
X01533Y00702*
X01536Y00696*
X0154Y0069*
X01546Y00685*
X01553Y00683*
X0156Y00682*
X01567Y00683*
X01574Y00685*
X0158Y0069*
X01584Y00696*
X01587Y00702*
X01588Y0071*
X01587Y00717*
X01584Y00723*
X0158Y00729*
X0158Y00729*
X0158Y00729*
X01579Y00729*
X01575Y00735*
X01574Y00742*
X01574Y00743*
X01574*
Y00755*
X01573Y0076*
X01572Y00761*
Y00829*
X01571Y00834*
X0157Y00835*
X01568Y00838*
X01563Y00843*
Y00888*
X01563*
X01563Y00891*
X01565Y00893*
X01565Y00893*
X01569Y00899*
X01571Y00907*
X01569Y00915*
X01565Y00921*
X01561Y00924*
X01561Y00929*
X01563Y0093*
X01567Y00933*
X01572Y00932*
X01574Y00929*
X01581Y00924*
X01585Y00923*
Y00945*
Y00966*
X01581Y00965*
X01579Y00964*
X01575Y00965*
X01574Y00968*
X01569Y00974*
X01563Y00978*
X01557Y00981*
X0155Y00982*
X01542Y00981*
X01536Y00978*
X0153Y00974*
X01525Y00968*
X01523Y00961*
X01522Y00954*
X01522Y00953*
X01522Y00952*
X01522Y00951*
X01522Y00951*
X01522Y00949*
X01521Y00944*
X01518Y0094*
X01518Y0094*
X01518Y0094*
X01518Y0094*
X01518Y00939*
X01513Y00932*
X01511Y00923*
X01511Y00923*
X01503Y00915*
X01489Y00901*
X01489Y00902*
X01487Y009*
X01485Y009*
X01485Y009*
X01477Y00898*
X0147Y00894*
X01466Y00887*
X01466Y00886*
X01461Y00883*
X01454Y00886*
X01444Y00888*
Y00888*
X01434Y00886*
X01424Y00882*
X01416Y00876*
X01416Y00876*
X01384Y00843*
X01379Y00846*
X0138Y00852*
X0138*
X01378Y00866*
X01373Y00878*
X01364Y00889*
X01364Y00889*
X01363Y0089*
X01362Y00891*
X0135Y00903*
X01352Y00907*
X01475*
X01479Y00908*
X01483Y00911*
X01493Y00921*
X01495Y00923*
X01496Y00925*
X01496Y00929*
X01497Y00929*
X01497Y00929*
X01498Y0093*
X01504Y00934*
X01509Y0094*
X01511Y00947*
X01512Y00954*
X01511Y00961*
X01509Y00968*
X01504Y00974*
X01498Y00978*
X01492Y00981*
X01485Y00982*
X01477Y00981*
X01471Y00978*
X01465Y00974*
X0146Y00968*
X01458Y00961*
X01457Y00954*
X01458Y00947*
X0146Y0094*
X01464Y00936*
X01461Y00932*
X01443*
X0144Y00936*
X01444Y0094*
X01446Y00947*
X01447Y00954*
X01446Y00961*
X01444Y00968*
X01439Y00974*
X01433Y00978*
X01427Y00981*
X0142Y00982*
X01412Y00981*
X01406Y00978*
X014Y00974*
X01395Y00968*
X01393Y00961*
X01392Y00954*
X01393Y00947*
X01395Y0094*
X01399Y00936*
X01396Y00932*
X01382*
Y00982*
X0134*
X01328Y00984*
X01328Y00989*
X01325Y00992*
X01285Y01033*
X01286Y01037*
X0129*
Y01037*
Y01037*
X01293Y01037*
X01295Y01035*
X01295Y01035*
X01302Y01031*
X0131Y01029*
X01317Y01031*
X01323Y01035*
X01327Y01032*
Y00997*
X01382*
Y01052*
X01373*
X01373Y01054*
X01375Y01058*
X0141*
X01411Y01053*
X01405Y01051*
X01398Y01046*
X01394Y0104*
X01391Y01033*
X0139Y0103*
X01449*
X01448Y01033*
X01445Y0104*
X01441Y01046*
X01434Y01051*
X01428Y01053*
X01429Y01058*
X01431*
X01436Y01059*
X0144Y01062*
X01456Y01077*
X01507*
X01512Y01078*
X01516Y01081*
X01522Y01087*
X01522Y01087*
X01522Y01088*
X01531Y01094*
X01541Y01098*
X01551Y011*
X01552Y011*
X01561Y01101*
X01569Y01104*
X01577Y0111*
X01582Y01117*
X01586Y01126*
X01587Y01135*
X01586Y01143*
X01582Y01152*
X01577Y01159*
X01569Y01165*
X01561Y01168*
X01552Y01169*
X01543Y01168*
X01535Y01165*
X01527Y01159*
X01522Y01152*
X01518Y01143*
X01517Y01135*
X01517Y01134*
X01516Y01123*
X01512Y01113*
X01505Y01105*
X01505Y01104*
X01505Y01104*
X01502Y01102*
X01495*
X01493Y01106*
X01498Y0111*
X01503Y01117*
X01507Y01126*
X01508Y01135*
X01507Y01143*
X01503Y01152*
X01498Y01159*
X01491Y01165*
X01482Y01168*
X01473Y01169*
X01464Y01168*
X01456Y01165*
X01449Y01159*
X01443Y01152*
X0144Y01143*
X01438Y01135*
X0144Y01126*
X01442Y0112*
X0142Y01098*
X01415*
X01413Y01103*
X01421Y01108*
X01426Y01116*
X0143Y01125*
X01431Y0113*
X01358*
X01359Y01125*
X01363Y01116*
X01368Y01108*
X01376Y01103*
X01374Y01098*
X01331*
X0133Y01103*
X01333Y01104*
X0134Y0111*
X01346Y01117*
X01349Y01126*
X01351Y01135*
X01349Y01143*
X01346Y01152*
X0134Y01159*
X01333Y01165*
X01325Y01168*
X01316Y01169*
X01307Y01168*
X01298Y01165*
X01291Y01159*
X01286Y01152*
X01282Y01143*
X01281Y01135*
X01282Y01126*
X01286Y01117*
X01291Y0111*
X01298Y01104*
X01302Y01103*
X01301Y01098*
X01286*
Y01098*
X01284Y01099*
X01281Y011*
X01281Y011*
X01275Y01105*
X01271Y01105*
Y01169*
X01203*
Y011*
X0122*
X01224Y01091*
X01225Y01081*
X01225Y0108*
X01225*
Y01077*
X0122Y01075*
X01149Y01146*
X01145Y01149*
X01141Y0115*
X00932*
X00915Y01167*
Y01243*
X00914Y01247*
X00911Y01251*
X00825Y01337*
X00821Y0134*
X00816Y01341*
X00816*
X00559*
Y01343*
X00519*
Y01349*
X00513*
Y01385*
X0052*
X00537Y01381*
X00538Y01374*
X00542Y01367*
X00549Y01363*
X00557Y01361*
X00564Y01363*
X00571Y01367*
X00575Y01374*
X00577Y01381*
X00575Y01389*
X00571Y01396*
X00568Y01398*
X00569Y01402*
X00575*
Y01402*
Y01402*
X00578Y01402*
X0058Y014*
X0058Y014*
X00587Y01396*
X00595Y01394*
X00602Y01396*
X00609Y014*
X00613Y01407*
X00615Y01415*
X00613Y01422*
X00609Y01429*
X00602Y01433*
X00595Y01435*
G37*
G36*
X01437Y01504D02*
X01423Y01502D01*
X01411Y01499*
X01399Y01492*
X01389Y01484*
X01381Y01474*
X01374Y01462*
X01371Y0145*
X01369Y01437*
X01371Y01423*
X01374Y01411*
X01381Y01399*
X01389Y01389*
X01399Y01381*
X01411Y01374*
X01423Y01371*
X01437Y01369*
X0145Y01371*
X01462Y01374*
X01474Y01381*
X01484Y01389*
X01492Y01399*
X01499Y01411*
X01502Y01423*
X01504Y01437*
X01502Y0145*
X01499Y01462*
X01492Y01474*
X01484Y01484*
X01474Y01492*
X01462Y01499*
X0145Y01502*
X01437Y01504*
G37*
G36*
X00795Y014D02*
X00777D01*
Y01381*
X00779Y01373*
X00784Y01366*
X00791Y01361*
X00795Y0136*
Y014*
G37*
G36*
X00822D02*
X00805D01*
Y0136*
X00808Y01361*
X00815Y01366*
X0082Y01373*
X00822Y01381*
Y014*
G37*
G36*
X00216Y01504D02*
X00203Y01502D01*
X0019Y01499*
X00179Y01492*
X00168Y01484*
X0016Y01474*
X00154Y01462*
X0015Y0145*
X00149Y01437*
X0015Y01423*
X00154Y01411*
X0016Y01399*
X00168Y01389*
X00179Y01381*
X0019Y01374*
X00203Y01371*
X00216Y01369*
X00229Y01371*
X00242Y01374*
X00253Y01381*
X00264Y01389*
X00272Y01399*
X00278Y01411*
X00282Y01423*
X00283Y01437*
X00282Y0145*
X00278Y01462*
X00272Y01474*
X00264Y01484*
X00253Y01492*
X00242Y01499*
X00229Y01502*
X00216Y01504*
G37*
G36*
X00795Y01449D02*
X00791Y01448D01*
X00784Y01443*
X00779Y01436*
X00777Y01428*
Y0141*
X00795*
Y01449*
G37*
G36*
X00452Y01618D02*
X00377D01*
Y01531*
X00396*
X004Y01523*
X00396Y01513*
X00376*
Y01436*
X00453*
Y01513*
X00433*
X00429Y01523*
X00433Y01531*
X00452*
Y01618*
G37*
G36*
X00057Y01453D02*
X00041D01*
X00042Y0145*
X00047Y01442*
X00054Y01438*
X00057Y01437*
Y01453*
G37*
G36*
X00084D02*
X00067D01*
Y01437*
X00071Y01438*
X00078Y01442*
X00083Y0145*
X00084Y01453*
G37*
G36*
X00515Y01513D02*
X00504Y01512D01*
X00495Y01508*
X00487Y01502*
X00481Y01494*
X00477Y01485*
X00476Y01475*
X00477Y01464*
X00481Y01455*
X00487Y01447*
X00495Y01441*
X00504Y01437*
X00515Y01436*
X00525Y01437*
X00534Y01441*
X00542Y01447*
X00548Y01455*
X00552Y01464*
X00553Y01475*
X00552Y01485*
X00548Y01494*
X00542Y01502*
X00534Y01508*
X00525Y01512*
X00515Y01513*
G37*
G36*
X00805Y01449D02*
Y0141D01*
X00822*
Y01428*
X0082Y01436*
X00815Y01443*
X00808Y01448*
X00805Y01449*
G37*
G36*
X01589Y01432D02*
X01585Y01431D01*
X01578Y01427*
X01573Y01419*
X01573Y01416*
X01589*
Y01432*
G37*
G36*
X01599D02*
Y01416D01*
X01615*
X01615Y01419*
X0161Y01427*
X01603Y01431*
X01599Y01432*
G37*
G36*
X01272Y01234D02*
X0124D01*
Y01217*
X01272*
Y01234*
G37*
G36*
X0132Y01244D02*
X01295D01*
Y01219*
X0132*
Y01244*
G37*
G36*
X01354D02*
X0133D01*
Y01219*
X01354*
Y01244*
G37*
G36*
X0123Y01234D02*
X01197D01*
Y01217*
X0123*
Y01234*
G37*
G36*
X01272Y01207D02*
X0124D01*
Y0119*
X01272*
Y01207*
G37*
G36*
X00147Y01224D02*
X00119D01*
X00119Y01221*
X00122Y01213*
X00127Y01207*
X00134Y01202*
X00141Y01199*
X00147Y01198*
Y01224*
G37*
G36*
X01003Y01288D02*
X00926D01*
Y01211*
X01003*
Y01288*
G37*
G36*
X01065Y01288D02*
X01054Y01287D01*
X01045Y01283*
X01037Y01277*
X01031Y01269*
X01027Y0126*
X01026Y0125*
X01027Y01239*
X01031Y0123*
X01037Y01222*
X01045Y01216*
X01054Y01212*
X01065Y01211*
X01075Y01212*
X01084Y01216*
X01092Y01222*
X01092Y01222*
X01092Y01222*
X01092Y01222*
X01098Y01227*
X01106Y0123*
X01113Y01231*
X01116*
Y0123*
X01187*
Y01269*
X01116*
Y01268*
X01113*
X01106Y01269*
X01098Y01272*
X01092Y01277*
X01092Y01277*
X01092Y01277*
X01092Y01277*
X01084Y01283*
X01075Y01287*
X01065Y01288*
G37*
G36*
X00062Y01317D02*
X00057D01*
X00048Y01316*
X00039Y01312*
X00032Y01307*
X00026Y01299*
X00023Y01291*
X00022Y01287*
X00062*
Y01317*
G37*
G36*
X00078D02*
X00072D01*
Y01287*
X00112*
X00112Y01291*
X00108Y01299*
X00103Y01307*
X00096Y01312*
X00087Y01316*
X00078Y01317*
G37*
G36*
X01352Y01312D02*
X01297D01*
Y01299*
X01293Y01298*
X01287Y01297*
X01287Y01297*
X01286*
X01286Y01297*
X01283*
X01282Y01298*
X01277Y01299*
X0127*
Y01307*
X01199*
Y01267*
X0127*
Y01272*
X01274Y01274*
X01274Y01274*
X01279Y01273*
X01286*
X01286Y01273*
X01287Y01273*
X01287Y01273*
X01293Y01272*
X01297Y0127*
Y01257*
X01352*
Y0127*
X01356Y01272*
X01361Y01273*
X01363Y01272*
X01365Y01271*
X01365Y01271*
X01372Y01266*
X0138Y01265*
X01387Y01266*
X01394Y01271*
X01398Y01277*
X014Y01285*
X01398Y01293*
X01394Y01299*
X01387Y01303*
X0138Y01305*
X01372Y01303*
X01365Y01299*
X01365Y01299*
X01363Y01298*
X01361Y01297*
X01356Y01298*
X01352Y01299*
Y01312*
G37*
G36*
X00112Y01277D02*
X00072D01*
Y01247*
X00078*
X00087Y01248*
X00096Y01252*
X00103Y01257*
X00108Y01265*
X00112Y01273*
X00112Y01277*
G37*
G36*
X00147Y01259D02*
X00141Y01259D01*
X00134Y01256*
X00127Y01251*
X00122Y01244*
X00119Y01237*
X00119Y01234*
X00147*
Y01259*
G37*
G36*
X00157D02*
Y01234D01*
X00185*
X00185Y01237*
X00182Y01244*
X00177Y01251*
X0017Y01256*
X00163Y01259*
X00157Y01259*
G37*
G36*
X00062Y01277D02*
X00022D01*
X00023Y01273*
X00026Y01265*
X00032Y01257*
X00039Y01252*
X00048Y01248*
X00057Y01247*
X00062*
Y01277*
G37*
G36*
X01315Y01595D02*
X01298D01*
X01299Y01591*
X01304Y01584*
X01311Y01579*
X01315Y01578*
Y01595*
G37*
G36*
X01341D02*
X01325D01*
Y01578*
X01328Y01579*
X01335Y01584*
X0134Y01591*
X01341Y01595*
G37*
G36*
X0025Y01595D02*
X00234D01*
X00235Y01591*
X0024Y01584*
X00247Y01579*
X0025Y01579*
Y01595*
G37*
G36*
X0015Y01582D02*
Y01566D01*
X00166*
X00166Y01569*
X00161Y01576*
X00154Y01581*
X0015Y01582*
G37*
G36*
X0081Y0158D02*
X00786D01*
X00786Y01577*
X00789Y0157*
X00794Y01563*
X008Y01559*
X00807Y01556*
X0081Y01555*
Y0158*
G37*
G36*
X00844D02*
X0082D01*
Y01555*
X00823Y01556*
X0083Y01559*
X00836Y01563*
X00841Y0157*
X00844Y01577*
X00844Y0158*
G37*
G36*
X0014Y01582D02*
X00137Y01581D01*
X00129Y01576*
X00125Y01569*
X00124Y01566*
X0014*
Y01582*
G37*
G36*
X00277Y01595D02*
X0026D01*
Y01579*
X00264Y01579*
X00271Y01584*
X00276Y01591*
X00277Y01595*
G37*
G36*
X01325Y01621D02*
Y01605D01*
X01341*
X0134Y01608*
X01335Y01615*
X01328Y0162*
X01325Y01621*
G37*
G36*
X0025Y01621D02*
X00247Y0162D01*
X0024Y01616*
X00235Y01608*
X00234Y01605*
X0025*
Y01621*
G37*
G36*
X0026D02*
Y01605D01*
X00277*
X00276Y01608*
X00271Y01616*
X00264Y0162*
X0026Y01621*
G37*
G36*
X01315Y01621D02*
X01311Y0162D01*
X01304Y01615*
X01299Y01608*
X01298Y01605*
X01315*
Y01621*
G37*
G36*
X0081Y01614D02*
X00807Y01613D01*
X008Y0161*
X00794Y01606*
X00789Y01599*
X00786Y01592*
X00786Y0159*
X0081*
Y01614*
G37*
G36*
X0082D02*
Y0159D01*
X00844*
X00844Y01592*
X00841Y01599*
X00836Y01606*
X0083Y0161*
X00823Y01613*
X0082Y01614*
G37*
G36*
X00744Y01612D02*
X00737Y01611D01*
X0073Y01609*
X00724Y01604*
X00724Y01604*
X00719Y016*
X00713Y01597*
X00707Y01597*
X00706Y01597*
X00706*
X00706Y01597*
X0068*
X00675Y01596*
X00673Y01595*
X00671Y01593*
X00601Y01523*
X00598Y01519*
X00597Y01515*
Y0149*
X00598Y01485*
X00601Y01481*
X00626Y01456*
X00635Y01442*
X00631Y01435*
X00629Y01428*
Y01381*
X00631Y01374*
X00635Y01367*
X00642Y01363*
X0065Y01361*
X00657Y01363*
X00664Y01367*
X00668Y01374*
X0067Y01381*
Y01428*
X00668Y01435*
X00664Y01442*
X00664Y01442*
X00662Y01444*
X00662Y01447*
X00662*
Y0145*
X00661Y01454*
X0066Y01456*
X00658Y01458*
X00622Y01494*
Y0151*
X00638Y01526*
X00642Y01523*
X00639Y01515*
X00637Y01505*
X00639Y01494*
X00643Y01485*
X00649Y01477*
X00657Y01471*
X00663Y01469*
X00663Y01468*
X00664Y01468*
Y01468*
X00664Y01468*
X00664Y01468*
X00664*
X00664Y01468*
X00664*
X00665Y01463*
X00668Y01459*
X00685Y01442*
X00681Y01435*
X00679Y01428*
Y01381*
X00681Y01374*
X00685Y01367*
X00692Y01363*
X007Y01361*
X00707Y01363*
X00714Y01367*
X00718Y01374*
X0072Y01381*
Y01428*
X00718Y01435*
X00714Y01442*
X00712Y01443*
X00712Y01443*
X00712Y01445*
X00712*
X00711Y01449*
X0071Y01451*
X00708Y01453*
X00695Y01466*
X00695Y01471*
X00703Y01477*
X0071Y01485*
X00713Y01494*
X00715Y01505*
X00713Y01515*
X0071Y01524*
X00703Y01532*
X00695Y01538*
X00686Y01542*
X00676Y01543*
X00666Y01542*
X00657Y01538*
X00654Y01542*
X00684Y01572*
X00706*
X00706Y01572*
X00706*
X00707Y01572*
X00713Y01572*
X00719Y01569*
X00724Y01565*
X00724Y01565*
X00724Y01565*
X0073Y0156*
X00737Y01558*
X00744Y01557*
X00751Y01558*
X00758Y0156*
X00764Y01565*
X00768Y01571*
X00771Y01577*
X00772Y01585*
X00771Y01592*
X00768Y01598*
X00764Y01604*
X00758Y01609*
X00751Y01611*
X00744Y01612*
G37*
G36*
X00913Y015D02*
X00878D01*
Y01464*
X00884Y01465*
X00893Y01469*
X00902Y01476*
X00908Y01484*
X00912Y01494*
X00913Y015*
G37*
G36*
X0101Y01543D02*
X00933D01*
Y01466*
X0101*
Y01543*
G37*
G36*
X01542Y01518D02*
X01526D01*
X01526Y01515*
X01531Y01507*
X01538Y01503*
X01542Y01502*
Y01518*
G37*
G36*
X00868Y015D02*
X00833D01*
X00833Y01494*
X00838Y01484*
X00844Y01476*
X00852Y01469*
X00862Y01465*
X00868Y01464*
Y015*
G37*
G36*
X00775Y01543D02*
X00764Y01542D01*
X00755Y01538*
X00747Y01532*
X00741Y01524*
X00737Y01515*
X00736Y01505*
X00737Y01494*
X00741Y01485*
X00747Y01477*
X00754Y01472*
X00755Y01467*
X00741Y01453*
X00738Y01449*
X00737Y01445*
X00737*
X00737Y01443*
X00737Y01443*
X00735Y01442*
X00731Y01435*
X00729Y01428*
Y01381*
X00731Y01374*
X00735Y01367*
X00742Y01363*
X0075Y01361*
X00757Y01363*
X00764Y01367*
X00768Y01374*
X0077Y01381*
Y01428*
X00768Y01435*
X00764Y01442*
X00783Y01461*
X00785Y01463*
X00786Y01465*
X00786Y01468*
X00786Y01468*
X00786Y01468*
X00786Y01468*
X00786Y01468*
X00786Y01468*
X00794Y01471*
X00802Y01477*
X00808Y01485*
X00812Y01494*
X00813Y01505*
X00812Y01515*
X00808Y01524*
X00802Y01532*
X00794Y01538*
X00785Y01542*
X00775Y01543*
G37*
G36*
X00057Y01479D02*
X00054Y01479D01*
X00047Y01474*
X00042Y01467*
X00041Y01463*
X00057*
Y01479*
G37*
G36*
X00067D02*
Y01463D01*
X00084*
X00083Y01467*
X00078Y01474*
X00071Y01479*
X00067Y01479*
G37*
G36*
X01568Y01518D02*
X01552D01*
Y01502*
X01555Y01503*
X01562Y01507*
X01567Y01515*
X01568Y01518*
G37*
G36*
X0014Y01556D02*
X00124D01*
X00125Y01552*
X00129Y01545*
X00137Y0154*
X0014Y01539*
Y01556*
G37*
G36*
X00166D02*
X0015D01*
Y01539*
X00154Y0154*
X00161Y01545*
X00166Y01552*
X00166Y01556*
G37*
G36*
X00566Y01618D02*
X00491D01*
Y01531*
X00566*
Y01556*
X00574Y0156*
X00576Y01559*
X00578Y0156*
X00579Y01559*
X00581Y0156*
X00587Y01559*
X00589Y01558*
X00589Y01558*
X00592Y01556*
X006Y01554*
X00607Y01556*
X00614Y0156*
X00618Y01567*
X0062Y01575*
X00618Y01582*
X00614Y01589*
X00607Y01593*
X006Y01595*
X00592Y01593*
X00589Y01591*
X00589Y01591*
X00587Y0159*
X00581Y01589*
X00579Y0159*
X00578Y01589*
X00576Y0159*
X00574Y01589*
X00566Y01593*
Y01618*
G37*
G36*
X01552Y01544D02*
Y01528D01*
X01568*
X01567Y01532*
X01562Y01539*
X01555Y01544*
X01552Y01544*
G37*
G36*
X00868Y01545D02*
X00862Y01544D01*
X00852Y0154*
X00844Y01533*
X00838Y01525*
X00833Y01515*
X00833Y0151*
X00868*
Y01545*
G37*
G36*
X00878D02*
Y0151D01*
X00913*
X00912Y01515*
X00908Y01525*
X00902Y01533*
X00893Y0154*
X00884Y01544*
X00878Y01545*
G37*
G36*
X01542Y01544D02*
X01538Y01544D01*
X01531Y01539*
X01526Y01532*
X01526Y01528*
X01542*
Y01544*
G37*
G36*
X00943Y00958D02*
X0094Y00957D01*
X00933Y00952*
X00928Y00945*
X00927Y00942*
X00943*
Y00958*
G37*
G36*
X00953D02*
Y00942D01*
X0097*
X00969Y00945*
X00964Y00952*
X00957Y00957*
X00953Y00958*
G37*
G36*
X01595Y00966D02*
Y0095D01*
X01611*
X0161Y00953*
X01605Y0096*
X01598Y00965*
X01595Y00966*
G37*
G36*
X01611Y0094D02*
X01595D01*
Y00923*
X01598Y00924*
X01605Y00929*
X0161Y00936*
X01611Y0094*
G37*
G36*
X00277Y00945D02*
X00261D01*
X00262Y00941*
X00266Y00934*
X00274Y00929*
X00277Y00928*
Y00945*
G37*
G36*
X00303D02*
X00287D01*
Y00928*
X00291Y00929*
X00298Y00934*
X00303Y00941*
X00303Y00945*
G37*
G36*
X00876Y01004D02*
X0086D01*
X00861Y01001*
X00866Y00994*
X00873Y00989*
X00876Y00988*
Y01004*
G37*
G36*
X00903D02*
X00886D01*
Y00988*
X0089Y00989*
X00897Y00994*
X00902Y01001*
X00903Y01004*
G37*
G36*
X00344Y01069D02*
X00303D01*
Y0102*
X00344*
Y01028*
X00358*
X0038Y01006*
X00381Y01002*
X00385Y00995*
X00392Y00991*
X004Y00989*
X00407Y00991*
X00414Y00995*
X00418Y01002*
X0042Y0101*
X00419Y01014*
X0042Y01015*
Y01034*
X00402*
X00399Y01033*
X00376Y01056*
X00371Y01059*
X0037Y0106*
X00365Y01061*
X00344*
Y01069*
G37*
G36*
X00663Y00812D02*
X00639D01*
Y00788*
X00642Y00788*
X00649Y00791*
X00655Y00796*
X0066Y00802*
X00663Y00809*
X00663Y00812*
G37*
G36*
X00629D02*
X00605D01*
X00605Y00809*
X00608Y00802*
X00613Y00796*
X00619Y00791*
X00626Y00788*
X00629Y00788*
Y00812*
G37*
G36*
X00116Y00995D02*
X00072D01*
Y00966*
X00082*
X00091Y00967*
X001Y0097*
X00107Y00976*
X00112Y00983*
X00116Y00991*
X00116Y00995*
G37*
G36*
X00743Y00871D02*
X00697D01*
X00689Y0087*
X00683Y00865*
X00678Y00859*
X00677Y00851*
X00678Y00844*
X00683Y00837*
X00689Y00833*
X00697Y00831*
X00743*
X00751Y00833*
X00757Y00837*
X00762Y00844*
X00763Y00851*
X00762Y00859*
X00757Y00865*
X00751Y0087*
X00743Y00871*
G37*
G36*
X00715Y00896D02*
X00676D01*
X00676Y00893*
X00681Y00886*
X00688Y00881*
X00697Y00879*
X00715*
Y00896*
G37*
G36*
X00764D02*
X00725D01*
Y00879*
X00743*
X00752Y00881*
X00759Y00886*
X00764Y00893*
X00764Y00896*
G37*
G36*
X00573Y00846D02*
Y00822D01*
X00598*
X00597Y00825*
X00594Y00832*
X0059Y00838*
X00583Y00843*
X00576Y00846*
X00573Y00846*
G37*
G36*
X00629D02*
X00626Y00846D01*
X00619Y00843*
X00613Y00838*
X00608Y00832*
X00605Y00825*
X00605Y00822*
X00629*
Y00846*
G37*
G36*
X00639D02*
Y00822D01*
X00663*
X00663Y00825*
X0066Y00832*
X00655Y00838*
X00649Y00843*
X00642Y00846*
X00639Y00846*
G37*
G36*
X00563D02*
X00561Y00846D01*
X00553Y00843*
X00547Y00838*
X00542Y00832*
X00539Y00825*
X00539Y00822*
X00563*
Y00846*
G37*
G36*
X00743Y00924D02*
X00725D01*
Y00906*
X00764*
X00764Y0091*
X00759Y00917*
X00752Y00922*
X00743Y00924*
G37*
G36*
X0097Y00932D02*
X00927D01*
X00928Y00928*
X00928Y00928*
X00925Y00924*
X00909*
X00901Y00922*
X00894Y00917*
X00889Y0091*
X00888Y00906*
X00977*
X00976Y0091*
X00972Y00917*
X00965Y00922*
X00969Y00928*
X0097Y00932*
G37*
G36*
X00928Y00896D02*
X00888D01*
X00889Y00893*
X00894Y00886*
X00901Y00881*
X00909Y00879*
X00928*
Y00896*
G37*
G36*
X00977D02*
X00938D01*
Y00879*
X00956*
X00964Y00881*
X00972Y00886*
X00976Y00893*
X00977Y00896*
G37*
G36*
X00715Y00924D02*
X00697D01*
X00688Y00922*
X00681Y00917*
X00676Y0091*
X00676Y00906*
X00715*
Y00924*
G37*
G36*
X01545Y0102D02*
X0152D01*
X01521Y01017*
X01524Y0101*
X01528Y01004*
X01535Y00999*
X01542Y00996*
X01545Y00996*
Y0102*
G37*
G36*
X00157Y01084D02*
Y01059D01*
X00185*
X00185Y01062*
X00182Y01069*
X00177Y01076*
X0017Y0108*
X00163Y01084*
X00157Y01084*
G37*
G36*
X00369Y01091D02*
X00352D01*
X00353Y01087*
X00358Y0108*
X00365Y01075*
X00369Y01075*
Y01091*
G37*
G36*
X00147Y01084D02*
X00141Y01084D01*
X00134Y0108*
X00127Y01076*
X00122Y01069*
X00119Y01062*
X00119Y01059*
X00147*
Y01084*
G37*
G36*
X0148Y01054D02*
X01477Y01054D01*
X0147Y01051*
X01463Y01046*
X01459Y0104*
X01456Y01033*
X01455Y0103*
X0148*
Y01054*
G37*
G36*
X0149D02*
Y0103D01*
X01514*
X01513Y01033*
X0151Y0104*
X01506Y01046*
X01499Y01051*
X01492Y01054*
X0149Y01054*
G37*
G36*
X00598Y00812D02*
X00573D01*
Y00788*
X00576Y00788*
X00583Y00791*
X0059Y00796*
X00594Y00802*
X00597Y00809*
X00598Y00812*
G37*
G36*
X01354Y01209D02*
X0133D01*
Y01184*
X01354*
Y01209*
G37*
G36*
X0123Y01207D02*
X01197D01*
Y0119*
X0123*
Y01207*
G37*
G36*
X0132Y01209D02*
X01295D01*
Y01184*
X0132*
Y01209*
G37*
G36*
X0139Y01171D02*
X01385Y0117D01*
X01376Y01166*
X01368Y01161*
X01363Y01153*
X01359Y01144*
X01358Y0114*
X0139*
Y01171*
G37*
G36*
X014D02*
Y0114D01*
X01431*
X0143Y01144*
X01426Y01153*
X01421Y01161*
X01413Y01166*
X01404Y0117*
X014Y01171*
G37*
G36*
X0148Y0102D02*
X01455D01*
X01456Y01017*
X01459Y0101*
X01463Y01004*
X0147Y00999*
X01477Y00996*
X0148Y00996*
Y0102*
G37*
G36*
X01514D02*
X0149D01*
Y00996*
X01492Y00996*
X01499Y00999*
X01506Y01004*
X0151Y0101*
X01513Y01017*
X01514Y0102*
G37*
G36*
X00082Y01035D02*
X00072D01*
Y01005*
X00116*
X00116Y0101*
X00112Y01018*
X00107Y01025*
X001Y01031*
X00091Y01034*
X00082Y01035*
G37*
G36*
X01579Y0102D02*
X01555D01*
Y00996*
X01557Y00996*
X01564Y00999*
X01571Y01004*
X01575Y0101*
X01578Y01017*
X01579Y0102*
G37*
G36*
X01415D02*
X0139D01*
X01391Y01017*
X01394Y0101*
X01398Y01004*
X01405Y00999*
X01412Y00996*
X01415Y00996*
Y0102*
G37*
G36*
X01449D02*
X01425D01*
Y00996*
X01427Y00996*
X01434Y00999*
X01441Y01004*
X01445Y0101*
X01448Y01017*
X01449Y0102*
G37*
G36*
X00446Y01034D02*
X0043D01*
Y01018*
X00433Y01019*
X00441Y01023*
X00445Y01031*
X00446Y01034*
G37*
G36*
X00147Y01049D02*
X00119D01*
X00119Y01046*
X00122Y01038*
X00127Y01032*
X00134Y01027*
X00141Y01024*
X00147Y01023*
Y01049*
G37*
G36*
X00185D02*
X00157D01*
Y01023*
X00163Y01024*
X0017Y01027*
X00177Y01032*
X00182Y01038*
X00185Y01046*
X00185Y01049*
G37*
G36*
X01555Y01054D02*
Y0103D01*
X01579*
X01578Y01033*
X01575Y0104*
X01571Y01046*
X01564Y01051*
X01557Y01054*
X01555Y01054*
G37*
G36*
X01545D02*
X01542Y01054D01*
X01535Y01051*
X01528Y01046*
X01524Y0104*
X01521Y01033*
X0152Y0103*
X01545*
Y01054*
G37*
%LNstepperpcb-3*%
%LPD*%
G36*
X00573Y00704D02*
X00572Y00702D01*
X00564Y00694*
X00564Y00693*
X00553Y00704*
X00554Y00704*
X00554Y00705*
X00555Y00705*
X00556Y00706*
X00559Y00709*
X00564Y00713*
X00573Y00704*
G37*
G36*
X00966Y0067D02*
X00913D01*
X00923Y0069*
X00913Y00709*
X00966*
Y0067*
G37*
G36*
X00782Y01231D02*
X00783Y01226D01*
X00781Y01223*
X00779Y01215*
Y01169*
X00781Y01161*
X00785Y01154*
X00792Y0115*
X008Y01149*
X00807Y0115*
X00814Y01154*
X00818Y01161*
X0082Y01169*
Y01213*
X00824Y01215*
X00827Y01212*
Y01135*
X00828Y01131*
X00831Y01127*
X00886Y01072*
X00884Y01067*
X00826*
X00824Y01072*
X00826Y01073*
X00831Y0108*
X00834Y01087*
X00834Y0109*
X00776*
X00776Y01087*
X00779Y0108*
X00784Y01073*
X00785Y01072*
X00784Y01067*
X00752*
X0075Y01072*
X00754Y01075*
X00758Y01081*
X00761Y01087*
X00762Y01095*
X00761Y01102*
X00758Y01108*
X00758Y01109*
X00758Y01114*
X00765Y01119*
X0077Y01126*
X00771Y0113*
X0075*
Y0114*
X00771*
X0077Y01143*
X00765Y0115*
Y01153*
X0077Y0116*
X00772Y01169*
Y01187*
X0075*
Y01197*
X00772*
Y01215*
X0077Y01224*
X00766Y01229*
X00769Y01234*
X00779*
X00782Y01231*
G37*
G36*
X01419Y00763D02*
D01*
X01422Y00761*
X01424Y00754*
X01428Y00747*
X01435Y00743*
X01435Y00743*
X01437Y00738*
X01436Y00738*
X01433Y00733*
X01432Y00728*
Y00602*
X01319Y00489*
X01306*
X01304Y00493*
X01305Y00494*
X01309Y00501*
X0131Y00504*
X01268*
X01268Y00501*
X01273Y00494*
X01274Y00493*
X01272Y00489*
X01264*
X01264Y00489*
X01264Y00489*
X01264*
X01257Y00493*
X01253Y00494*
X01168Y00578*
X01163Y00582*
X01162Y00582*
X01157Y00583*
X00949*
X00916Y00616*
X00918Y0062*
X00932*
X00935Y00621*
X00939Y00618*
X0094Y00617*
X00944Y0061*
X00951Y00606*
X00958Y00604*
X00966Y00606*
X00973Y0061*
X00973Y0061*
X00975Y00612*
X00977Y00612*
Y00612*
Y00612*
X0105*
X01054Y00613*
X01058Y00616*
X01079Y00637*
X01099*
X01102Y00633*
X01101Y00632*
X01099Y00625*
X01101Y00617*
X01105Y0061*
X01112Y00606*
X0112Y00604*
X01127Y00606*
X01134Y0061*
X01134Y0061*
X01136Y00612*
X01139Y00612*
Y00612*
Y00612*
X01155*
X01161Y00606*
X01165Y00603*
X0117Y00602*
X01199*
X01201Y00597*
X01198Y00596*
X01194Y00589*
X01193Y00585*
X01235*
X01235Y00589*
X0123Y00596*
X01228Y00597*
X01229Y00602*
X0123*
Y00602*
Y00602*
X01233Y00602*
X01235Y006*
X01235Y006*
X01242Y00596*
X0125Y00594*
X01257Y00596*
X01264Y006*
X01268Y00607*
X0127Y00614*
X01268Y00622*
X01264Y00628*
X01257Y00633*
X0125Y00634*
X01242Y00633*
X01235Y00628*
X01235Y00628*
X01233Y00627*
X0123Y00626*
Y00626*
X01179*
X01177Y00631*
X01184Y00635*
X01188Y00642*
X0119Y0065*
X01188Y00657*
X01184Y00664*
X01178Y00668*
X01179Y00672*
X0132*
X01325Y00673*
X01329Y00676*
X01414Y00761*
X01414Y00761*
X01416Y00762*
X01419Y00763*
X01419Y00763*
G37*
G36*
X00911Y0069D02*
X00899Y0067D01*
X00856*
X00844Y0069*
X00856Y00709*
X00899*
X00911Y0069*
G37*
G36*
X01198Y0093D02*
D01*
X01198Y0093*
X01198Y0093*
X01199Y00927*
X012Y00925*
X012Y00925*
X01201Y00917*
X01206Y00911*
X01212Y00906*
X0122Y00905*
X01228Y00906*
X01234Y00911*
X01237Y00914*
X01241Y00913*
Y00891*
X01242Y00886*
X01245Y00882*
X0127Y00857*
X01269Y00855*
X01271Y00847*
X01275Y0084*
X01282Y00836*
X01289Y00835*
Y0083*
X01282Y00828*
X01275Y00824*
X01271Y00817*
X01269Y0081*
X01271Y00802*
X01275Y00795*
X01282Y00791*
X0129Y00789*
X01297Y00791*
X01304Y00795*
X01304Y00795*
X01306Y00797*
X01309Y00797*
Y00797*
Y00797*
X01328*
Y00797*
X01331Y00798*
X01333Y00793*
X01284Y00744*
X01171*
X01168Y00748*
X0117Y00755*
X01168Y00762*
X01164Y00769*
X01157Y00773*
X0115Y00775*
X01149Y00775*
X01147Y00775*
X01145Y00777*
X01145Y00776*
X0113Y00791*
Y00817*
X01134Y00818*
X01139Y00811*
X01147Y00806*
X0115Y00805*
Y00826*
X01155*
Y00831*
X01176*
X01176Y00835*
X01173Y00838*
X01176Y00842*
X01177Y00842*
X01184Y00844*
X01191Y00848*
X01195Y00855*
X01197Y00862*
X01195Y0087*
X01191Y00876*
X01191Y00876*
X01189Y00879*
X01189Y00881*
X01189*
Y00897*
X01188Y00902*
X01185Y00906*
X01151Y0094*
X01152Y0094*
X0115Y00942*
X0115Y00944*
X0115Y00945*
X01148Y00952*
X01144Y00959*
X01143Y00959*
X01145Y00964*
X01164*
X01198Y0093*
G37*
%LNstepperpcb-4*%
%LPC*%
G36*
X01176Y00821D02*
X0116D01*
Y00805*
X01164Y00806*
X01171Y00811*
X01176Y00818*
X01176Y00821*
G37*
G36*
X01284Y00531D02*
X0128Y0053D01*
X01273Y00525*
X01268Y00518*
X01268Y00514*
X01284*
Y00531*
G37*
G36*
X008Y01124D02*
X00797Y01123D01*
X0079Y0112*
X00784Y01116*
X00779Y01109*
X00776Y01102*
X00776Y011*
X008*
Y01124*
G37*
G36*
X0081D02*
Y011D01*
X00834*
X00834Y01102*
X00831Y01109*
X00826Y01116*
X0082Y0112*
X00813Y01123*
X0081Y01124*
G37*
G36*
X01235Y00575D02*
X01219D01*
Y00559*
X01223Y0056*
X0123Y00564*
X01235Y00572*
X01235Y00575*
G37*
G36*
X01209D02*
X01193D01*
X01194Y00572*
X01198Y00564*
X01206Y0056*
X01209Y00559*
Y00575*
G37*
G36*
X01294Y00531D02*
Y00514D01*
X0131*
X01309Y00518*
X01305Y00525*
X01297Y0053*
X01294Y00531*
G37*
%LNstepperpcb-5*%
%LPD*%
G54D10*
X01435Y00801D02*
D01*
X01433Y00802*
X01432Y00803*
X01431Y00803*
X0143Y00804*
X01429Y00805*
X01427Y00805*
X01426Y00806*
X01425Y00806*
X01423Y00806*
X01422Y00807*
X01421Y00807*
X0142Y00807*
D01*
X01418Y00807*
X01416Y00806*
X01414Y00806*
X01412Y00805*
X0141Y00805*
X01409Y00804*
X01407Y00803*
X01405Y00802*
X01403Y00801*
X01402Y008*
X014Y00799*
X014Y00798*
X01442Y00782D02*
D01*
X01442Y00783*
X01442Y00785*
X01442Y00787*
X01441Y00789*
X01441Y00791*
X0144Y00793*
X01439Y00794*
X01438Y00796*
X01437Y00797*
X01436Y00799*
X01435Y008*
X01435Y00801*
X01444Y00852D02*
D01*
X01442Y00852*
X0144Y00852*
X01438Y00851*
X01436Y00851*
X01434Y0085*
X01432Y00849*
X0143Y00848*
X01428Y00847*
X01426Y00846*
X01424Y00844*
X01422Y00843*
X01422Y00843*
X0147Y00849D02*
D01*
X0147Y0085*
X0147Y00852*
X01469Y00854*
X01469Y00856*
X01468Y00858*
X01468Y0086*
X01467Y00861*
X01466Y00863*
X01465Y00864*
X01464Y00866*
X01462Y00867*
X01462Y00868*
X01461Y00869D02*
D01*
X01461*
X01461Y00869*
X01461Y00869*
X01461Y00869*
X01461Y00869*
X01444Y00875D02*
D01*
X01442Y00875*
X0144Y00875*
X01439Y00875*
X01437Y00874*
X01435Y00874*
X01433Y00873*
X01431Y00872*
X01429Y00871*
X01428Y0087*
X01426Y00869*
X01425Y00868*
X01424Y00867*
X01461Y00869D02*
D01*
X0146Y0087*
X01459Y00871*
X01457Y00872*
X01456Y00873*
X01454Y00873*
X01453Y00874*
X01451Y00874*
X0145Y00875*
X01448Y00875*
X01446Y00875*
X01445Y00875*
X01444Y00875*
X01355Y00822D02*
D01*
X01357Y00824*
X01359Y00826*
X01361Y00829*
X01362Y00831*
X01364Y00834*
X01365Y00837*
X01366Y00839*
X01367Y00842*
X01367Y00845*
X01367Y00848*
X01368Y00851*
X01368Y00852*
D01*
X01368Y00855*
X01367Y00858*
X01367Y0086*
X01366Y00863*
X01365Y00866*
X01364Y00868*
X01363Y00871*
X01361Y00873*
X0136Y00876*
X01358Y00878*
X01356Y0088*
X01356Y00881*
X01328Y0081D02*
D01*
X0133Y0081*
X01333Y0081*
X01335Y0081*
X01338Y00811*
X0134Y00812*
X01343Y00813*
X01345Y00814*
X01347Y00815*
X01349Y00817*
X01351Y00818*
X01353Y0082*
X01354Y0082*
X01527Y00931D02*
D01*
X01526Y00931*
X01526Y0093*
X01525Y00929*
X01525Y00929*
X01524Y00928*
X01524Y00927*
X01524Y00926*
X01523Y00925*
X01523Y00925*
X01523Y00924*
X01523Y00923*
X01523Y00923*
X0152Y00915D02*
D01*
X0152Y00915*
X01521Y00916*
X01521Y00917*
X01522Y00917*
X01522Y00918*
X01522Y00919*
X01523Y00919*
X01523Y0092*
X01523Y00921*
X01523Y00922*
X01523Y00923*
X01523Y00923*
X00415Y01539D02*
D01*
X00415Y01534*
X00415Y0153*
X00416Y01525*
X00417Y01521*
X00418Y01517*
X0042Y01513*
X00422Y01509*
X00424Y01505*
X00427Y01501*
X0043Y01497*
X00433Y01494*
X00433Y01493*
X00415Y0152D02*
D01*
X00415Y01517*
X00415Y01513*
X00415Y0151*
X00416Y01507*
X00417Y01504*
X00418Y01501*
X0042Y01498*
X00421Y01496*
X00423Y01493*
X00425Y01491*
X00427Y01488*
X00428Y01488*
X00396Y01493D02*
D01*
X00399Y01497*
X00402Y015*
X00404Y01504*
X00406Y01508*
X00408Y01512*
X0041Y01516*
X00412Y0152*
X00413Y01524*
X00414Y01529*
X00414Y01533*
X00414Y01538*
X00415Y01539*
X00401Y01488D02*
D01*
X00403Y0149*
X00405Y01492*
X00407Y01495*
X00409Y01498*
X0041Y01501*
X00412Y01503*
X00413Y01506*
X00413Y01509*
X00414Y01513*
X00414Y01516*
X00414Y01519*
X00415Y0152*
X00676Y01468D02*
D01*
X00676Y01469*
X00676Y0147*
X00676Y0147*
X00676Y01471*
X00675Y01472*
X00675Y01473*
X00675Y01474*
X00674Y01474*
X00674Y01475*
X00673Y01476*
X00673Y01476*
X00672Y01477*
X00672Y01477*
X00671Y01478*
X0067Y01478*
X00669Y01479*
X00669Y01479*
X00668Y01479*
X00668Y01479*
X00684D02*
D01*
X00684Y01479*
X00683Y01479*
X00682Y01478*
X00681Y01478*
X00681Y01477*
X0068Y01477*
X00679Y01476*
X00679Y01476*
X00678Y01475*
X00678Y01474*
X00677Y01474*
X00677Y01473*
X00677Y01472*
X00677Y01471*
X00676Y0147*
X00676Y0147*
X00676Y01469*
X00676Y01468*
X00676Y01468*
X00775Y0147D02*
D01*
X00774Y0147*
X00774Y01471*
X00774Y01472*
X00774Y01472*
X00774Y01473*
X00774Y01473*
X00773Y01474*
X00773Y01475*
X00773Y01475*
X00772Y01476*
X00772Y01476*
X00771Y01477*
X00771Y01477*
X0077Y01478*
X0077Y01478*
X00769Y01478*
X00768Y01479*
X00768Y01479*
X00767Y01479*
X00782D02*
D01*
X00781Y01479*
X0078Y01478*
X0078Y01478*
X00779Y01478*
X00779Y01477*
X00778Y01477*
X00778Y01477*
X00777Y01476*
X00777Y01476*
X00776Y01475*
X00776Y01474*
X00776Y01474*
X00775Y01473*
X00775Y01473*
X00775Y01472*
X00775Y01471*
X00775Y01471*
X00775Y0147*
X00775Y0147*
X01513Y01096D02*
D01*
X01516Y01099*
X01518Y01102*
X01521Y01105*
X01522Y01108*
X01524Y01111*
X01526Y01115*
X01527Y01119*
X01528Y01122*
X01529Y01126*
X01529Y0113*
X01529Y01134*
X01529Y01135*
X01527Y01109D02*
D01*
X01528Y01111*
X0153Y01113*
X01531Y01115*
X01533Y01117*
X01534Y01119*
X01535Y01122*
X01536Y01124*
X01536Y01126*
X01537Y01129*
X01537Y01131*
X01537Y01134*
X01537Y01135*
X01552Y01112D02*
D01*
X01548Y01112*
X01544Y01111*
X01541Y01111*
X01537Y0111*
X01533Y01109*
X0153Y01107*
X01526Y01105*
X01523Y01104*
X0152Y01101*
X01517Y01099*
X01514Y01097*
X01513Y01096*
X01552Y0112D02*
D01*
X01549Y0112*
X01547Y01119*
X01545Y01119*
X01542Y01118*
X0154Y01118*
X01537Y01117*
X01535Y01116*
X01533Y01114*
X01531Y01113*
X01529Y01111*
X01527Y0111*
X01527Y01109*
X01237Y0108D02*
D01*
X01237Y01084*
X01236Y01087*
X01236Y01091*
X01235Y01095*
X01234Y01099*
X01232Y01102*
X01231Y01106*
X01229Y01109*
X01227Y01112*
X01224Y01115*
X01222Y01118*
X01221Y01118*
X01237Y01099D02*
D01*
X01237Y01101*
X01237Y01104*
X01236Y01106*
X01236Y01109*
X01235Y01111*
X01234Y01113*
X01233Y01116*
X01232Y01118*
X0123Y0112*
X01229Y01122*
X01227Y01124*
X01227Y01124*
X01253Y01118D02*
D01*
X0125Y01116*
X01248Y01113*
X01246Y0111*
X01244Y01106*
X01242Y01103*
X01241Y01099*
X01239Y01096*
X01238Y01092*
X01238Y01088*
X01237Y01085*
X01237Y01081*
X01237Y0108*
X01247Y01124D02*
D01*
X01246Y01122*
X01244Y0112*
X01243Y01118*
X01241Y01116*
X0124Y01114*
X01239Y01112*
X01239Y01109*
X01238Y01107*
X01237Y01104*
X01237Y01102*
X01237Y01099*
X01237Y01099*
X01355Y0092D02*
D01*
X01354Y00922*
X01354Y00924*
X01354Y00926*
X01353Y00928*
X01353Y0093*
X01352Y00932*
X01351Y00934*
X0135Y00935*
X01349Y00937*
X01347Y00939*
X01346Y0094*
X01345Y00942*
X01344Y00942*
X01365D02*
D01*
X01363Y00941*
X01362Y00939*
X01361Y00938*
X01359Y00936*
X01358Y00934*
X01357Y00932*
X01356Y0093*
X01356Y00928*
X01355Y00926*
X01355Y00924*
X01355Y00922*
X01355Y0092*
X01355Y0092*
Y01057D02*
D01*
X01355Y01055*
X01355Y01054*
X01355Y01052*
X01355Y0105*
X01356Y01049*
X01357Y01047*
X01357Y01045*
X01358Y01044*
X01359Y01042*
X0136Y01041*
X01362Y0104*
X01363Y01038*
X01364Y01037*
X01345D02*
D01*
X01346Y01038*
X01347Y0104*
X01349Y01041*
X0135Y01042*
X01351Y01044*
X01352Y01045*
X01352Y01047*
X01353Y01049*
X01354Y0105*
X01354Y01052*
X01354Y01054*
X01354Y01056*
X01355Y01057*
X0142Y01055D02*
D01*
X0142Y01053*
X0142Y01052*
X0142Y0105*
X0142Y01049*
X01421Y01048*
X01421Y01046*
X01422Y01045*
X01423Y01044*
X01423Y01043*
X01424Y01042*
X01425Y01041*
X01426Y0104*
X01427Y01039*
X01428Y01038*
X01411D02*
D01*
X01412Y01039*
X01413Y0104*
X01414Y01041*
X01415Y01042*
X01416Y01043*
X01416Y01044*
X01417Y01045*
X01418Y01046*
X01418Y01048*
X01419Y01049*
X01419Y0105*
X01419Y01052*
X01419Y01053*
X0142Y01055*
Y0092D02*
D01*
X01419Y00922*
X01419Y00924*
X01419Y00926*
X01418Y00928*
X01418Y0093*
X01417Y00932*
X01416Y00934*
X01415Y00935*
X01414Y00937*
X01412Y00939*
X01411Y0094*
X0141Y00942*
X01409Y00942*
X0143D02*
D01*
X01428Y00941*
X01427Y00939*
X01426Y00938*
X01424Y00936*
X01423Y00934*
X01422Y00932*
X01421Y0093*
X01421Y00928*
X0142Y00926*
X0142Y00924*
X0142Y00922*
X0142Y0092*
X0142Y0092*
X01485Y0093D02*
D01*
X01484Y0093*
X01484Y00931*
X01484Y00932*
X01484Y00933*
X01484Y00933*
X01484Y00934*
X01483Y00935*
X01483Y00935*
X01482Y00936*
X01482Y00937*
X01481Y00937*
X01481Y00938*
X0148Y00938*
X0148Y00939*
X01479Y00939*
X01478Y0094*
X01478Y0094*
X01491D02*
D01*
X0149Y00939*
X0149Y00939*
X01489Y00939*
X01488Y00938*
X01488Y00938*
X01487Y00937*
X01487Y00936*
X01486Y00936*
X01486Y00935*
X01486Y00934*
X01485Y00934*
X01485Y00933*
X01485Y00932*
X01485Y00931*
X01485Y00931*
X01485Y0093*
X01485Y0093*
Y01063D02*
D01*
X01485Y0106*
X01485Y01058*
X01485Y01055*
X01486Y01052*
X01487Y0105*
X01488Y01047*
X01489Y01045*
X0149Y01043*
X01492Y01041*
X01493Y01039*
X01495Y01037*
X01496Y01036*
X01473D02*
D01*
X01475Y01038*
X01477Y0104*
X01478Y01042*
X0148Y01045*
X01481Y01047*
X01482Y01049*
X01483Y01052*
X01484Y01054*
X01484Y01057*
X01484Y0106*
X01484Y01062*
X01485Y01063*
X00706Y01585D02*
D01*
X00709Y01585*
X00711Y01585*
X00714Y01585*
X00717Y01586*
X00719Y01587*
X00722Y01588*
X00724Y01589*
X00726Y0159*
X00728Y01592*
X0073Y01593*
X00732Y01595*
X00733Y01596*
Y01573D02*
D01*
X00731Y01575*
X00729Y01577*
X00727Y01578*
X00724Y0158*
X00722Y01581*
X0072Y01582*
X00717Y01583*
X00715Y01584*
X00712Y01584*
X00709Y01584*
X00707Y01584*
X00706Y01585*
X01363Y01285D02*
D01*
X0136Y01285*
X01357Y01285*
X01355Y01284*
X01352Y01283*
X0135Y01283*
X01347Y01282*
X01345Y0128*
X01342Y01279*
X0134Y01278*
X01338Y01276*
X01336Y01274*
X01336Y01274*
Y01296D02*
D01*
X01338Y01294*
X0134Y01293*
X01342Y01291*
X01344Y0129*
X01346Y01288*
X01349Y01287*
X01351Y01287*
X01354Y01286*
X01357Y01285*
X01359Y01285*
X01362Y01285*
X01363Y01285*
X01286D02*
D01*
X01289Y01285*
X01292Y01285*
X01294Y01286*
X01297Y01286*
X01299Y01287*
X01302Y01288*
X01304Y01289*
X01307Y01291*
X01309Y01292*
X01311Y01294*
X01313Y01296*
X01313Y01296*
Y01274D02*
D01*
X01311Y01276*
X01309Y01277*
X01307Y01279*
X01305Y0128*
X01303Y01281*
X013Y01282*
X01298Y01283*
X01295Y01284*
X01292Y01284*
X0129Y01285*
X01287Y01285*
X01286Y01285*
Y01214D02*
D01*
X01289Y01214*
X01292Y01214*
X01294Y01215*
X01297Y01216*
X01299Y01216*
X01302Y01217*
X01304Y01219*
X01307Y0122*
X01309Y01221*
X01311Y01223*
X01313Y01225*
X01313Y01225*
Y01203D02*
D01*
X01311Y01205*
X01309Y01206*
X01307Y01208*
X01305Y01209*
X01303Y01211*
X013Y01212*
X01298Y01212*
X01295Y01213*
X01292Y01214*
X0129Y01214*
X01287Y01214*
X01286Y01214*
X01269Y01287D02*
D01*
X01268Y01287*
X01267Y01287*
X01265Y01286*
X01264Y01286*
X01263Y01286*
X01262Y01285*
X0126Y01285*
X01259Y01284*
X01258Y01283*
X01257Y01282*
X01256Y01282*
X01256Y01281*
Y01292D02*
D01*
X01257Y01292*
X01258Y01291*
X01259Y0129*
X0126Y01289*
X01261Y01289*
X01262Y01288*
X01264Y01288*
X01265Y01287*
X01266Y01287*
X01268Y01287*
X01269Y01287*
X01269Y01287*
Y01212D02*
D01*
X01268Y01212*
X01267Y01212*
X01265Y01212*
X01264Y01211*
X01263Y01211*
X01262Y0121*
X0126Y0121*
X01259Y01209*
X01258Y01208*
X01257Y01208*
X01256Y01207*
X01256Y01207*
Y01218D02*
D01*
X01257Y01217*
X01258Y01216*
X01259Y01215*
X0126Y01214*
X01261Y01214*
X01262Y01213*
X01264Y01213*
X01265Y01213*
X01266Y01212*
X01268Y01212*
X01269Y01212*
X01269Y01212*
X00415Y01507D02*
D01*
X00414Y01511*
X00414Y01515*
X00413Y0152*
X00412Y01524*
X00411Y01528*
X00409Y01532*
X00407Y01536*
X00405Y0154*
X00403Y01543*
X004Y01547*
X00397Y0155*
X00396Y01551*
X00415Y01526D02*
D01*
X00414Y01529*
X00414Y01532*
X00414Y01535*
X00413Y01538*
X00412Y0154*
X00411Y01543*
X00409Y01546*
X00408Y01548*
X00406Y01551*
X00404Y01553*
X00402Y01556*
X00402Y01556*
X00433Y01551D02*
D01*
X0043Y01547*
X00427Y01544*
X00424Y0154*
X00422Y01537*
X0042Y01533*
X00419Y01529*
X00417Y01525*
X00416Y01521*
X00415Y01516*
X00415Y01512*
X00415Y01508*
X00415Y01507*
X00427Y01556D02*
D01*
X00425Y01554*
X00423Y01552*
X00421Y01549*
X0042Y01547*
X00419Y01544*
X00417Y01541*
X00416Y01538*
X00416Y01535*
X00415Y01533*
X00415Y0153*
X00415Y01527*
X00415Y01526*
X0059Y01575D02*
D01*
X00586Y01574*
X00582Y01574*
X00578Y01573*
X00573Y01572*
X00569Y01571*
X00565Y01569*
X00561Y01567*
X00558Y01565*
X00554Y01563*
X00551Y0156*
X00548Y01557*
X00547Y01556*
X00571Y01575D02*
D01*
X00568Y01574*
X00565Y01574*
X00563Y01574*
X0056Y01573*
X00557Y01572*
X00554Y01571*
X00551Y01569*
X00549Y01568*
X00546Y01566*
X00544Y01564*
X00542Y01562*
X00541Y01562*
X00547Y01593D02*
D01*
X0055Y0159*
X00553Y01587*
X00557Y01584*
X00561Y01582*
X00564Y0158*
X00568Y01579*
X00572Y01577*
X00577Y01576*
X00581Y01575*
X00585Y01575*
X00589Y01575*
X0059Y01575*
X00541Y01587D02*
D01*
X00543Y01585*
X00546Y01583*
X00548Y01581*
X00551Y0158*
X00553Y01579*
X00556Y01577*
X00559Y01576*
X00562Y01576*
X00565Y01575*
X00568Y01575*
X00571Y01575*
X00571Y01575*
X007Y01445D02*
D01*
X007Y01444*
X007Y01443*
X007Y01442*
X007Y01441*
X007Y0144*
X00701Y01439*
X00701Y01438*
X00702Y01437*
X00702Y01436*
X00703Y01436*
X00703Y01435*
X00704Y01434*
X00705Y01434*
X00694D02*
D01*
X00695Y01434*
X00696Y01435*
X00697Y01436*
X00697Y01437*
X00698Y01437*
X00698Y01438*
X00698Y01439*
X00699Y0144*
X00699Y01441*
X00699Y01442*
X00699Y01443*
X00699Y01444*
X007Y01445*
X0075D02*
D01*
X0075Y01444*
X0075Y01443*
X0075Y01442*
X0075Y01441*
X0075Y0144*
X00751Y01439*
X00751Y01438*
X00752Y01437*
X00752Y01436*
X00753Y01436*
X00753Y01435*
X00754Y01434*
X00755Y01434*
X00744D02*
D01*
X00745Y01434*
X00746Y01435*
X00747Y01436*
X00747Y01437*
X00748Y01437*
X00748Y01438*
X00748Y01439*
X00749Y0144*
X00749Y01441*
X00749Y01442*
X00749Y01443*
X00749Y01444*
X0075Y01445*
X0065Y01447D02*
D01*
X0065Y01445*
X0065Y01444*
X0065Y01443*
X0065Y01442*
X00651Y0144*
X00651Y01439*
X00652Y01438*
X00652Y01437*
X00653Y01436*
X00654Y01435*
X00655Y01434*
X00655Y01433*
X00644D02*
D01*
X00645Y01434*
X00646Y01435*
X00646Y01436*
X00647Y01438*
X00648Y01439*
X00648Y0144*
X00649Y01441*
X00649Y01442*
X00649Y01444*
X00649Y01445*
X00649Y01446*
X0065Y01447*
X008Y01234D02*
D01*
X008Y01233*
X008Y01231*
X008Y0123*
X008Y01229*
X00801Y01228*
X00801Y01226*
X00802Y01225*
X00802Y01224*
X00803Y01223*
X00804Y01222*
X00805Y01221*
X00805Y01221*
X00794D02*
D01*
X00795Y01222*
X00796Y01223*
X00796Y01224*
X00797Y01225*
X00798Y01226*
X00798Y01227*
X00799Y01229*
X00799Y0123*
X00799Y01231*
X00799Y01232*
X00799Y01234*
X008Y01234*
X0075Y0115D02*
D01*
X00749Y01151*
X00749Y01152*
X00749Y01154*
X00749Y01155*
X00748Y01156*
X00748Y01157*
X00747Y01159*
X00747Y0116*
X00746Y01161*
X00745Y01162*
X00744Y01163*
X00744Y01163*
X00755D02*
D01*
X00754Y01162*
X00753Y01161*
X00753Y0116*
X00752Y01159*
X00751Y01158*
X00751Y01156*
X0075Y01155*
X0075Y01154*
X0075Y01153*
X0075Y01151*
X0075Y0115*
X0075Y0115*
X0063Y01192D02*
D01*
X00632Y01192*
X00633Y01192*
X00634Y01192*
X00636Y01193*
X00637Y01193*
X00638Y01194*
X00639Y01194*
X00641Y01195*
X00642Y01196*
X00643Y01196*
X00644Y01197*
X00644Y01197*
Y01186D02*
D01*
X00643Y01187*
X00642Y01188*
X00641Y01189*
X0064Y0119*
X00639Y0119*
X00637Y01191*
X00636Y01191*
X00635Y01191*
X00633Y01192*
X00632Y01192*
X00631Y01192*
X0063Y01192*
X01044Y00795D02*
D01*
X01043Y00795*
X01041Y00795*
X0104Y00795*
X01039Y00794*
X01037Y00794*
X01036Y00793*
X01035Y00793*
X01034Y00792*
X01032Y00791*
X01031Y0079*
X0103Y00789*
X01029Y00788*
X01028Y00787*
X01028Y00786*
X01028Y00786*
Y00804D02*
D01*
X01028Y00803*
X01029Y00801*
X0103Y00801*
X01031Y008*
X01032Y00799*
X01033Y00798*
X01035Y00797*
X01036Y00797*
X01037Y00796*
X01038Y00796*
X0104Y00795*
X01041Y00795*
X01042Y00795*
X01044Y00795*
X01044Y00795*
X00992Y00801D02*
D01*
X00993Y00801*
X00994Y00801*
X00995Y00802*
X00996Y00802*
X00997Y00802*
X00998Y00803*
X00999Y00803*
X01Y00804*
X01001Y00804*
X01002Y00805*
X01003Y00806*
X01003Y00806*
Y00784D02*
D01*
X01Y00787*
X00997Y00789*
X00994Y00792*
X0099Y00794*
X00986Y00796*
X00983Y00797*
X00979Y00799*
X00975Y008*
X00971Y00801*
X00966Y00801*
X00962Y00801*
X00961Y00801*
X01009Y00789D02*
D01*
X01007Y00791*
X01005Y00793*
X01002Y00795*
X01Y00796*
X00997Y00797*
X00995Y00799*
X00992Y00799*
X00989Y008*
X00987Y00801*
X00984Y00801*
X00981Y00801*
X0098Y00801*
X01015Y0069D02*
D01*
X01014Y00692*
X01014Y00694*
X01014Y00696*
X01013Y00698*
X01013Y007*
X01012Y00702*
X01011Y00704*
X0101Y00705*
X01009Y00707*
X01007Y00709*
X01006Y0071*
X01005Y00712*
X01004Y00712*
X01025D02*
D01*
X01023Y00711*
X01022Y00709*
X01021Y00708*
X01019Y00706*
X01018Y00704*
X01017Y00702*
X01016Y007*
X01016Y00698*
X01015Y00696*
X01015Y00694*
X01015Y00692*
X01015Y0069*
X01015Y0069*
X00975Y00801D02*
D01*
X00973Y00801*
X00972Y00801*
X00971Y00801*
X0097Y00801*
X00968Y008*
X00967Y008*
X00966Y00799*
X00965Y00798*
X00964Y00798*
X00963Y00797*
X00962Y00796*
X00961Y00796*
Y00807D02*
D01*
X00962Y00806*
X00963Y00805*
X00964Y00804*
X00966Y00804*
X00967Y00803*
X00968Y00803*
X00969Y00802*
X00971Y00802*
X00972Y00802*
X00973Y00801*
X00974Y00801*
X00975Y00801*
X00978Y00797D02*
D01*
X00976Y00797*
X00974Y00798*
X00973Y00798*
X00971Y00798*
X0097Y00798*
X00968Y00797*
X00966Y00797*
X00965Y00797*
X00963Y00796*
X00962Y00795*
X0096Y00795*
X0096Y00794*
X00963Y00805D02*
D01*
X00963Y00804*
X00964Y00804*
X00964Y00803*
X00965Y00802*
X00966Y00801*
X00967Y00801*
X00967Y008*
X00968Y008*
X00969Y00799*
X0097Y00799*
X00971Y00799*
X00971Y00799*
X00975Y00851D02*
D01*
X00973Y00851*
X00972Y00851*
X00971Y00851*
X0097Y00851*
X00968Y0085*
X00967Y0085*
X00966Y00849*
X00965Y00848*
X00964Y00848*
X00963Y00847*
X00962Y00846*
X00961Y00846*
Y00857D02*
D01*
X00962Y00856*
X00963Y00855*
X00964Y00854*
X00966Y00854*
X00967Y00853*
X00968Y00853*
X00969Y00852*
X00971Y00852*
X00972Y00852*
X00973Y00851*
X00974Y00851*
X00975Y00851*
X01053Y00854D02*
D01*
X0105Y00854*
X01047Y00854*
X01045Y00853*
X01042Y00853*
X0104Y00852*
X01037Y00851*
X01035Y0085*
X01032Y00848*
X0103Y00847*
X01028Y00845*
X01026Y00843*
X01026Y00843*
Y00865D02*
D01*
X01028Y00863*
X0103Y00862*
X01032Y0086*
X01034Y00859*
X01036Y00858*
X01039Y00857*
X01041Y00856*
X01044Y00855*
X01047Y00855*
X01049Y00854*
X01052Y00854*
X01053Y00854*
X0097Y00851D02*
D01*
X00973Y00851*
X00976Y00852*
X0098Y00852*
X00983Y00853*
X00986Y00854*
X00989Y00855*
X00992Y00857*
X00995Y00858*
X00998Y0086*
X01Y00862*
X01003Y00865*
X01003Y00865*
X00989Y00851D02*
D01*
X00991Y00851*
X00993Y00852*
X00995Y00852*
X00997Y00852*
X00999Y00853*
X01Y00854*
X01002Y00855*
X01004Y00856*
X01006Y00857*
X01007Y00858*
X01009Y00859*
X01009Y0086*
X01003Y00843D02*
D01*
X01002Y00844*
X01Y00846*
X00999Y00847*
X00997Y00848*
X00995Y00849*
X00993Y00849*
X00992Y0085*
X0099Y00851*
X00988Y00851*
X00986Y00851*
X00984Y00851*
X00983Y00851*
X00632Y00547D02*
D01*
X00633Y00547*
X00635Y00547*
X00636Y00548*
X00637Y00548*
X00639Y00548*
X0064Y00549*
X00641Y00549*
X00642Y0055*
X00643Y00551*
X00644Y00552*
X00645Y00552*
X00646Y00553*
Y00542D02*
D01*
X00645Y00542*
X00644Y00543*
X00642Y00544*
X00641Y00545*
X0064Y00545*
X00639Y00546*
X00638Y00546*
X00636Y00547*
X00635Y00547*
X00634Y00547*
X00632Y00547*
X00632Y00547*
X01489Y00675D02*
D01*
X01489Y00677*
X01489Y00679*
X01488Y00681*
X01488Y00683*
X01487Y00685*
X01486Y00687*
X01486Y00689*
X01485Y00691*
X01483Y00693*
X01482Y00694*
X01481Y00696*
X01479Y00697*
X01479Y00698*
X01499D02*
D01*
X01498Y00696*
X01496Y00695*
X01495Y00693*
X01494Y00691*
X01493Y0069*
X01492Y00688*
X01491Y00686*
X0149Y00684*
X0149Y00682*
X01489Y0068*
X01489Y00678*
X01489Y00675*
X01489Y00675*
X01527Y00931D02*
D01*
X01528Y00932*
X01529Y00934*
X0153Y00935*
X01531Y00937*
X01532Y00938*
X01532Y0094*
X01533Y00942*
X01533Y00943*
X01534Y00945*
X01534Y00947*
X01534Y00949*
X01534Y0095*
X01534Y00952*
X01548Y00938D02*
D01*
X01546Y00939*
X01544Y00939*
X01542Y00939*
X01541Y00938*
X01539Y00938*
X01537Y00937*
X01535Y00937*
X01534Y00936*
X01532Y00935*
X01531Y00935*
X01529Y00933*
X01528Y00932*
X01527Y00931*
X0155Y01063D02*
D01*
X0155Y0106*
X0155Y01058*
X0155Y01055*
X01551Y01052*
X01552Y0105*
X01553Y01047*
X01554Y01045*
X01555Y01043*
X01557Y01041*
X01558Y01039*
X0156Y01037*
X01561Y01036*
X01538D02*
D01*
X0154Y01038*
X01542Y0104*
X01543Y01042*
X01545Y01045*
X01546Y01047*
X01547Y01049*
X01548Y01052*
X01549Y01054*
X01549Y01057*
X01549Y0106*
X01549Y01062*
X0155Y01063*
X01551Y00888D02*
D01*
X01551Y00889*
X0155Y00891*
X0155Y00892*
X0155Y00893*
X0155Y00894*
X01549Y00896*
X01548Y00897*
X01548Y00898*
X01547Y00899*
X01546Y009*
X01545Y00901*
X01545Y00901*
X01556D02*
D01*
X01555Y009*
X01555Y00899*
X01554Y00898*
X01553Y00897*
X01552Y00896*
X01552Y00895*
X01552Y00894*
X01551Y00892*
X01551Y00891*
X01551Y0089*
X01551Y00888*
X01551Y00888*
X01136Y00768D02*
D01*
X01137Y00767*
X01138Y00766*
X01139Y00765*
X0114Y00765*
X01141Y00764*
X01143Y00764*
X01144Y00763*
X01145Y00763*
X01147Y00763*
X01148Y00762*
X01149Y00762*
X0115Y00762*
X01142Y00755D02*
D01*
X01142Y00756*
X01141Y00757*
X01141Y00758*
X01141Y0076*
X0114Y00761*
X0114Y00762*
X01139Y00763*
X01139Y00765*
X01138Y00766*
X01137Y00767*
X01136Y00768*
X01136Y00768*
X01405Y0077D02*
D01*
X01406Y0077*
X01407Y00772*
X01408Y00773*
X01409Y00774*
X01409Y00775*
X0141Y00776*
X0141Y00777*
X0141Y00779*
X01411Y0078*
X01411Y00781*
X01411Y00783*
X01411Y00783*
X01419Y00775D02*
D01*
X01417Y00775*
X01416Y00775*
X01415Y00775*
X01414Y00774*
X01412Y00774*
X01411Y00773*
X0141Y00773*
X01409Y00772*
X01408Y00771*
X01407Y00771*
X01406Y0077*
X01405Y0077*
X0147Y00842D02*
D01*
X0147Y00841*
X0147Y00839*
X0147Y00838*
X01471Y00837*
X01471Y00835*
X01472Y00834*
X01472Y00833*
X01473Y00832*
X01474Y00831*
X01474Y0083*
X01475Y00829*
X01476Y00828*
X01464D02*
D01*
X01465Y00829*
X01466Y0083*
X01467Y00832*
X01468Y00833*
X01468Y00834*
X01469Y00835*
X01469Y00836*
X01469Y00838*
X0147Y00839*
X0147Y0084*
X0147Y00842*
X0147Y00842*
X01429Y00848D02*
D01*
X01429Y00848*
X0143Y00848*
X01431Y00849*
X01432Y00849*
X01433Y0085*
X01433Y0085*
X01434Y00851*
X01435Y00851*
X01435Y00852*
X01436Y00853*
X01436Y00853*
X01437Y00854*
X01437Y00855*
X0144Y00846D02*
D01*
X01439Y00846*
X01438Y00847*
X01437Y00847*
X01437Y00847*
X01436Y00848*
X01435Y00848*
X01434Y00848*
X01433Y00848*
X01432Y00848*
X01431Y00848*
X0143Y00848*
X01429Y00848*
X01429Y00848*
X01498Y00893D02*
D01*
X01497Y00892*
X01496Y00891*
X01495Y0089*
X01495Y00889*
X01494Y00888*
X01494Y00886*
X01493Y00885*
X01493Y00884*
X01493Y00882*
X01492Y00881*
X01492Y0088*
X01492Y0088*
X01485Y00887D02*
D01*
X01486Y00887*
X01487Y00888*
X01488Y00888*
X0149Y00888*
X01491Y00889*
X01492Y00889*
X01493Y0089*
X01495Y0089*
X01496Y00891*
X01497Y00892*
X01498Y00893*
X01498Y00893*
X0129Y0105D02*
D01*
X01292Y0105*
X01293Y0105*
X01294Y0105*
X01296Y0105*
X01297Y01051*
X01298Y01051*
X01299Y01052*
X01301Y01052*
X01302Y01053*
X01303Y01054*
X01304Y01055*
X01304Y01055*
Y01044D02*
D01*
X01303Y01045*
X01302Y01046*
X01301Y01046*
X013Y01047*
X01299Y01048*
X01297Y01048*
X01296Y01049*
X01295Y01049*
X01293Y01049*
X01292Y01049*
X01291Y01049*
X0129Y0105*
X0134Y00874D02*
D01*
X0134Y00872*
X0134Y00871*
X0134Y0087*
X0134Y00868*
X01341Y00867*
X01341Y00866*
X01342Y00865*
X01342Y00863*
X01343Y00862*
X01344Y00861*
X01345Y0086*
X01345Y0086*
X01334D02*
D01*
X01335Y00861*
X01336Y00862*
X01336Y00863*
X01337Y00864*
X01338Y00865*
X01338Y00867*
X01339Y00868*
X01339Y00869*
X01339Y00871*
X01339Y00872*
X01339Y00873*
X0134Y00874*
X01309Y0081D02*
D01*
X01307Y00809*
X01306Y00809*
X01305Y00809*
X01303Y00809*
X01302Y00808*
X01301Y00808*
X013Y00807*
X01298Y00807*
X01297Y00806*
X01296Y00805*
X01295Y00804*
X01295Y00804*
Y00815D02*
D01*
X01296Y00814*
X01297Y00813*
X01298Y00813*
X01299Y00812*
X013Y00811*
X01302Y00811*
X01303Y0081*
X01304Y0081*
X01306Y0081*
X01307Y0081*
X01308Y0081*
X01309Y0081*
X01315Y00854D02*
D01*
X01315Y00852*
X01315Y00851*
X01315Y0085*
X01315Y00848*
X01316Y00847*
X01316Y00846*
X01317Y00845*
X01317Y00843*
X01318Y00842*
X01319Y00841*
X0132Y0084*
X0132Y0084*
X01309D02*
D01*
X0131Y00841*
X01311Y00842*
X01311Y00843*
X01312Y00844*
X01313Y00845*
X01313Y00847*
X01314Y00848*
X01314Y00849*
X01314Y00851*
X01314Y00852*
X01314Y00853*
X01315Y00854*
X01143Y00931D02*
D01*
X01142Y00932*
X01141Y00933*
X0114Y00934*
X01139Y00934*
X01138Y00935*
X01136Y00935*
X01135Y00936*
X01134Y00936*
X01132Y00936*
X01131Y00937*
X0113Y00937*
X0113Y00937*
X01137Y00945D02*
D01*
X01137Y00943*
X01138Y00942*
X01138Y00941*
X01138Y00939*
X01139Y00938*
X01139Y00937*
X0114Y00936*
X0114Y00934*
X01141Y00933*
X01142Y00932*
X01143Y00931*
X01143Y00931*
X01139Y00625D02*
D01*
X01137Y00624*
X01136Y00624*
X01135Y00624*
X01133Y00624*
X01132Y00623*
X01131Y00623*
X0113Y00622*
X01128Y00622*
X01127Y00621*
X01126Y0062*
X01125Y00619*
X01125Y00619*
Y0063D02*
D01*
X01126Y00629*
X01127Y00628*
X01128Y00628*
X01129Y00627*
X0113Y00626*
X01132Y00626*
X01133Y00625*
X01134Y00625*
X01136Y00625*
X01137Y00625*
X01138Y00625*
X01139Y00625*
X01045Y00677D02*
D01*
X01046Y00678*
X01047Y00679*
X01048Y0068*
X01048Y00681*
X01049Y00682*
X01049Y00684*
X0105Y00685*
X0105Y00686*
X0105Y00687*
X01051Y00689*
X01051Y0069*
X01051Y0069*
X01059Y00683D02*
D01*
X01057Y00683*
X01056Y00682*
X01055Y00682*
X01053Y00682*
X01052Y00681*
X01051Y00681*
X0105Y0068*
X01048Y0068*
X01047Y00679*
X01046Y00678*
X01045Y00677*
X01045Y00677*
X0075Y01154D02*
D01*
X0075Y01152*
X0075Y01151*
X0075Y0115*
X0075Y01148*
X00751Y01147*
X00751Y01146*
X00752Y01145*
X00752Y01143*
X00753Y01142*
X00754Y01141*
X00755Y0114*
X00755Y0114*
X00744D02*
D01*
X00745Y01141*
X00746Y01142*
X00746Y01143*
X00747Y01144*
X00748Y01145*
X00748Y01147*
X00749Y01148*
X00749Y01149*
X00749Y01151*
X00749Y01152*
X00749Y01153*
X0075Y01154*
X01286Y01086D02*
D01*
X01285Y01086*
X01284Y01086*
X01282Y01086*
X01281Y01085*
X0128Y01085*
X01278Y01084*
X01277Y01084*
X01276Y01083*
X01275Y01082*
X01274Y01082*
X01273Y01081*
X01273Y01081*
Y01092D02*
D01*
X01274Y01091*
X01275Y0109*
X01276Y01089*
X01277Y01088*
X01278Y01088*
X01279Y01087*
X01281Y01087*
X01282Y01087*
X01283Y01086*
X01285Y01086*
X01286Y01086*
X01286Y01086*
X0136Y01285D02*
D01*
X01362Y01285*
X01363Y01285*
X01364Y01285*
X01366Y01286*
X01367Y01286*
X01368Y01287*
X01369Y01287*
X01371Y01288*
X01372Y01289*
X01373Y01289*
X01374Y0129*
X01374Y01291*
Y01279D02*
D01*
X01373Y0128*
X01372Y01281*
X01371Y01282*
X0137Y01283*
X01369Y01283*
X01367Y01284*
X01366Y01284*
X01365Y01284*
X01363Y01285*
X01362Y01285*
X01361Y01285*
X0136Y01285*
X0142Y0033D02*
D01*
X01419Y00332*
X01419Y00333*
X01419Y00334*
X01419Y00336*
X01418Y00337*
X01418Y00338*
X01417Y00339*
X01417Y00341*
X01416Y00342*
X01415Y00343*
X01414Y00344*
X01414Y00344*
X01425D02*
D01*
X01424Y00343*
X01423Y00342*
X01423Y00341*
X01422Y0034*
X01421Y00339*
X01421Y00337*
X0142Y00336*
X0142Y00335*
X0142Y00333*
X0142Y00332*
X0142Y00331*
X0142Y0033*
X01014Y00665D02*
D01*
X01012Y00664*
X01011Y00664*
X0101Y00664*
X01008Y00664*
X01007Y00663*
X01006Y00663*
X01005Y00662*
X01003Y00662*
X01002Y00661*
X01001Y0066*
X01Y00659*
X01Y00659*
Y0067D02*
D01*
X01001Y00669*
X01002Y00668*
X01003Y00668*
X01004Y00667*
X01005Y00666*
X01007Y00666*
X01008Y00665*
X01009Y00665*
X01011Y00665*
X01012Y00665*
X01013Y00665*
X01014Y00665*
X0111Y01025D02*
D01*
X01109Y01027*
X01109Y01028*
X01109Y01029*
X01109Y01031*
X01108Y01032*
X01108Y01033*
X01107Y01034*
X01107Y01036*
X01106Y01037*
X01105Y01038*
X01104Y01039*
X01104Y01039*
X01115D02*
D01*
X01114Y01038*
X01113Y01037*
X01113Y01036*
X01112Y01035*
X01111Y01034*
X01111Y01032*
X0111Y01031*
X0111Y0103*
X0111Y01028*
X0111Y01027*
X0111Y01026*
X0111Y01025*
X01177Y00881D02*
D01*
X01177Y0088*
X01177Y00879*
X01177Y00877*
X01177Y00876*
X01178Y00875*
X01178Y00874*
X01179Y00872*
X0118Y00871*
X0118Y0087*
X01181Y00869*
X01182Y00868*
X01182Y00868*
X01171D02*
D01*
X01172Y00869*
X01173Y0087*
X01174Y00871*
X01174Y00872*
X01175Y00873*
X01175Y00874*
X01176Y00876*
X01176Y00877*
X01177Y00878*
X01177Y0088*
X01177Y00881*
X01177Y00881*
X01207Y00938D02*
D01*
X01208Y00937*
X01209Y00936*
X0121Y00936*
X01211Y00935*
X01212Y00934*
X01213Y00934*
X01214Y00933*
X01216Y00933*
X01217Y00933*
X01218Y00933*
X0122Y00933*
X0122Y00933*
X01212Y00925D02*
D01*
X01212Y00926*
X01212Y00927*
X01212Y00929*
X01211Y0093*
X01211Y00931*
X0121Y00932*
X0121Y00934*
X01209Y00935*
X01208Y00936*
X01208Y00937*
X01207Y00938*
X01207Y00938*
X01442Y0078D02*
D01*
X01442Y00779*
X01443Y00778*
X01443Y00776*
X01443Y00775*
X01444Y00774*
X01444Y00773*
X01445Y00771*
X01445Y0077*
X01446Y00769*
X01447Y00768*
X01448Y00767*
X01448Y00767*
X01437D02*
D01*
X01438Y00768*
X01439Y00769*
X01439Y0077*
X0144Y00771*
X01441Y00772*
X01441Y00774*
X01442Y00775*
X01442Y00776*
X01442Y00777*
X01442Y00779*
X01442Y0078*
X01442Y0078*
X00977Y00625D02*
D01*
X00976Y00624*
X00975Y00624*
X00973Y00624*
X00972Y00624*
X00971Y00623*
X0097Y00623*
X00968Y00622*
X00967Y00622*
X00966Y00621*
X00965Y0062*
X00964Y00619*
X00964Y00619*
Y0063D02*
D01*
X00965Y00629*
X00966Y00628*
X00967Y00628*
X00968Y00627*
X00969Y00626*
X00971Y00626*
X00972Y00625*
X00973Y00625*
X00974Y00625*
X00976Y00625*
X00977Y00625*
X00977Y00625*
X0115Y0065D02*
D01*
X01152Y0065*
X01153Y0065*
X01154Y0065*
X01156Y0065*
X01157Y00651*
X01158Y00651*
X01159Y00652*
X01161Y00652*
X01162Y00653*
X01163Y00654*
X01164Y00655*
X01164Y00655*
Y00644D02*
D01*
X01163Y00645*
X01162Y00646*
X01161Y00646*
X0116Y00647*
X01159Y00648*
X01157Y00648*
X01156Y00649*
X01155Y00649*
X01153Y00649*
X01152Y00649*
X01151Y00649*
X0115Y0065*
X0123Y00614D02*
D01*
X01232Y00614*
X01233Y00614*
X01234Y00615*
X01236Y00615*
X01237Y00615*
X01238Y00616*
X01239Y00616*
X01241Y00617*
X01242Y00618*
X01243Y00619*
X01244Y0062*
X01244Y0062*
Y00609D02*
D01*
X01243Y0061*
X01242Y0061*
X01241Y00611*
X0124Y00612*
X01239Y00612*
X01237Y00613*
X01236Y00613*
X01235Y00614*
X01233Y00614*
X01232Y00614*
X01231Y00614*
X0123Y00614*
X00585Y01573D02*
D01*
X00586Y01574*
X00587Y01574*
X00588Y01574*
X00588Y01575*
X00589Y01575*
X0059Y01575*
X0059Y01576*
X00591Y01577*
X00592Y01577*
X00592Y01578*
X00593Y01579*
X00593Y01579*
X00595Y01568D02*
D01*
X00594Y01569*
X00592Y0157*
X0059Y0157*
X00589Y01571*
X00587Y01571*
X00585Y01572*
X00584Y01572*
X00582Y01572*
X0058Y01572*
X00578Y01572*
X00576Y01571*
X00576Y01571*
Y01578D02*
D01*
X00578Y01577*
X00579Y01577*
X00581Y01577*
X00583Y01577*
X00585Y01577*
X00587Y01578*
X00588Y01578*
X0059Y01579*
X00592Y01579*
X00593Y0158*
X00595Y01581*
X00595Y01581*
X00593Y0157D02*
D01*
X00592Y01571*
X00592Y01572*
X00591Y01572*
X00591Y01573*
X0059Y01573*
X00589Y01574*
X00589Y01574*
X00588Y01575*
X00587Y01575*
X00586Y01575*
X00585Y01576*
X00585Y01576*
X0058Y01575D02*
D01*
X00582Y01575*
X00583Y01575*
X00584Y01575*
X00586Y01575*
X00587Y01576*
X00588Y01576*
X00589Y01577*
X00591Y01577*
X00592Y01578*
X00593Y01579*
X00594Y0158*
X00594Y0158*
Y01569D02*
D01*
X00593Y0157*
X00592Y01571*
X00591Y01571*
X0059Y01572*
X00589Y01573*
X00587Y01573*
X00586Y01574*
X00585Y01574*
X00583Y01574*
X00582Y01574*
X00581Y01574*
X0058Y01575*
X00382Y01156D02*
D01*
X00381Y01157*
X0038Y01158*
X00379Y01159*
X00377Y0116*
X00376Y01161*
X00374Y01161*
X00373Y01162*
X00371Y01162*
X00369Y01163*
X00368Y01163*
X00366Y01163*
X00366Y01163*
X00374Y01171D02*
D01*
X00374Y0117*
X00374Y01169*
X00374Y01168*
X00374Y01167*
X00374Y01166*
X00375Y01165*
X00375Y01164*
X00376Y01163*
X00376Y01162*
X00377Y01162*
X00378Y01161*
X00378Y01161*
X00464Y0118D02*
D01*
X00464Y01179*
X00464Y01179*
X00464Y01178*
X00464Y01177*
X00464Y01176*
X00465Y01175*
X00465Y01175*
X00465Y01174*
X00466Y01173*
X00466Y01173*
X00467Y01172*
X00468Y01171*
X00468Y01171*
X00468Y01171*
X00459D02*
D01*
X0046Y01171*
X0046Y01172*
X00461Y01172*
X00461Y01173*
X00462Y01174*
X00462Y01175*
X00463Y01175*
X00463Y01176*
X00463Y01177*
X00463Y01178*
X00464Y01178*
X00464Y01179*
X00464Y0118*
Y0118*
X005Y01169D02*
D01*
X00502Y01169*
X00503Y01169*
X00504Y01169*
X00505Y0117*
X00507Y0117*
X00508Y0117*
X00509Y01171*
X0051Y01172*
X00511Y01172*
X00512Y01173*
X00513Y01174*
X00514Y01174*
Y01163D02*
D01*
X00513Y01164*
X00512Y01165*
X00511Y01166*
X00509Y01166*
X00508Y01167*
X00507Y01168*
X00506Y01168*
X00505Y01168*
X00503Y01169*
X00502Y01169*
X00501Y01169*
X005Y01169*
X00543Y01395D02*
D01*
X00544Y01394*
X00545Y01393*
X00546Y01392*
X00547Y01392*
X00549Y01391*
X0055Y01391*
X00551Y0139*
X00552Y0139*
X00554Y01389*
X00555Y01389*
X00556Y01389*
X00557Y01389*
X00549Y01381D02*
D01*
X00549Y01383*
X00549Y01384*
X00548Y01385*
X00548Y01387*
X00548Y01388*
X00547Y01389*
X00547Y0139*
X00546Y01391*
X00545Y01393*
X00544Y01394*
X00543Y01395*
X00543Y01395*
X00575Y01415D02*
D01*
X00577Y01415*
X00578Y01415*
X00579Y01415*
X00581Y01415*
X00582Y01416*
X00583Y01416*
X00584Y01417*
X00586Y01417*
X00587Y01418*
X00588Y01419*
X00589Y0142*
X00589Y0142*
Y01409D02*
D01*
X00588Y0141*
X00587Y01411*
X00586Y01411*
X00585Y01412*
X00584Y01413*
X00582Y01413*
X00581Y01414*
X0058Y01414*
X00578Y01414*
X00577Y01414*
X00576Y01414*
X00575Y01415*
X00466Y01323D02*
D01*
X00467Y01322*
X00468Y01321*
X00469Y0132*
X00471Y0132*
X00472Y01319*
X00473Y01318*
X00475Y01318*
X00476Y01318*
X00478Y01317*
X00479Y01317*
X00481Y01317*
X00481Y01317*
X00438D02*
D01*
X00439Y01317*
X00441Y01317*
X00442Y01317*
X00444Y01318*
X00445Y01318*
X00447Y01319*
X00448Y01319*
X00449Y0132*
X00451Y01321*
X00452Y01322*
X00453Y01323*
X00453Y01323*
X0042Y01142D02*
Y01212D01*
X00902Y01162D02*
Y01243D01*
X00887Y01155D02*
Y01236D01*
X00871Y01148D02*
Y0123D01*
X00855Y01142D02*
Y01223D01*
X0084Y01135D02*
Y01217D01*
X00902Y01162D02*
X00927Y01137D01*
X00887Y01155D02*
X0092Y01122D01*
X00871Y01148D02*
X00913Y01106D01*
X00855Y01142D02*
X00907Y0109D01*
X0084Y01135D02*
X009Y01075D01*
X0075Y01135D02*
Y01192D01*
X00865Y0055D02*
Y00585D01*
X00825Y0051D02*
X00865Y0055D01*
X0075Y0051D02*
X00825D01*
X00525Y00465D02*
X00607Y00547D01*
X00667*
X01015Y0069D02*
Y00724D01*
X00946Y0069D02*
X01015D01*
X00541Y01397D02*
X00557Y01381D01*
X00447Y01397D02*
X00541D01*
X0042Y01395D02*
X00439Y01415D01*
X00595*
X0042Y01367D02*
Y01395D01*
X0044Y0139D02*
X00447Y01397D01*
X0044Y01367D02*
Y0139D01*
X0046Y0129D02*
Y01367D01*
X00479Y0119D02*
Y01212D01*
D01*
X0046Y01185D02*
Y01212D01*
X00464Y01165D02*
Y0118D01*
X0046Y01185D02*
X00464Y0118D01*
X00479Y01198D02*
Y01212D01*
X008Y01192D02*
Y01235D01*
X0065Y01405D02*
Y0145D01*
X0061Y0149D02*
X0065Y0145D01*
X0061Y0149D02*
Y01515D01*
X0068Y01585*
X00744*
X00529Y01575D02*
X006D01*
X00415Y01475D02*
Y01575D01*
X00775Y0147D02*
Y01505D01*
X0075Y01445D02*
X00775Y0147D01*
X0075Y01405D02*
Y01445D01*
X007Y01405D02*
Y01445D01*
X00676Y01468D02*
X007Y01445D01*
X00676Y01468D02*
Y01505D01*
X0117Y00614D02*
X0125D01*
X00958Y00625D02*
X0105D01*
X01075Y0065*
X0116Y00625D02*
X0117Y00614D01*
X01075Y0065D02*
X0117D01*
X00933Y00851D02*
X01012D01*
X01015Y00854*
X00933Y00801D02*
X01008D01*
X01015Y00795*
Y00854D02*
X01055D01*
X01177Y00862D02*
Y00897D01*
X0142Y003D02*
Y0035D01*
X01551Y00838D02*
X0156Y00829D01*
X01489Y00675D02*
Y0071D01*
Y00675D02*
X0154Y00625D01*
X0162*
X0156Y00755D02*
Y00829D01*
X01235Y01287D02*
X01277D01*
X01279Y01285D02*
X01325D01*
X01277Y01287D02*
X01279Y01285D01*
X01235Y01212D02*
X01277D01*
X01279Y01214D02*
X01325D01*
X01277Y01212D02*
X01279Y01214D01*
X01325Y01285D02*
X0138D01*
X00699Y0111D02*
X007Y0111D01*
X00913Y01106D02*
X01128D01*
X0111Y01001D02*
Y01045D01*
X0113Y00945D02*
X01177Y00897D01*
X00907Y0109D02*
X01119D01*
X0112Y00625D02*
X0116D01*
X01237Y01063D02*
Y01135D01*
X01251Y0105D02*
X0131D01*
X01237Y01063D02*
X01251Y0105D01*
X01119Y0109D02*
X01253Y00956D01*
X01128Y01106D02*
X01269Y00964D01*
X0092Y01122D02*
X01134D01*
X01285Y00971*
X00927Y01137D02*
X01141D01*
X01301Y00977*
X01251Y0105D02*
X01316Y00984D01*
X01475Y0092D02*
X01485Y0093D01*
X0142Y0092D02*
X01475D01*
X01431Y0107D02*
X01451Y0109D01*
X01507*
X01552Y01135*
X0142Y0092D02*
Y00954D01*
Y00964*
X01438Y01055D02*
X01457Y01074D01*
X01615D02*
X0162Y0107D01*
X01485Y01025D02*
Y01074D01*
X01457D02*
X01485D01*
X0155Y01025D02*
Y01073D01*
X0155Y01074*
X01485D02*
X0155D01*
X01615*
X01355Y0092D02*
Y00954D01*
Y0092D02*
X0142D01*
X01485Y0093D02*
Y00954D01*
X01033Y00665D02*
X01059Y0069D01*
X00995Y00665D02*
X01033D01*
X01169Y00976D02*
X0122Y00925D01*
X01135Y00976D02*
X01169D01*
X0111Y01001D02*
X01135Y00976D01*
X00366Y01138D02*
Y01139D01*
X00368Y01171D02*
X00452Y01086D01*
X00366Y01171D02*
X00368D01*
X005Y01169D02*
X00519D01*
X00479Y0119D02*
X005Y01169D01*
X01267Y01086D02*
X01425D01*
X01473Y01135*
X0142Y01025D02*
Y01055D01*
X01438*
X01355Y01025D02*
Y01057D01*
X01368Y0107*
X01431*
X01551Y00838D02*
Y00907D01*
X01126Y007D02*
X01302D01*
X01139Y00732D02*
X01289D01*
X01302Y007D02*
X014Y00798D01*
X01132Y00716D02*
X01295D01*
X01442Y00761D02*
Y00782D01*
X01295Y00716D02*
X01422Y00843D01*
X0147Y00823D02*
Y00849D01*
X01461Y00869D02*
Y00869D01*
X01462Y00868*
X01289Y00732D02*
X01424Y00867D01*
X0132Y00685D02*
X01419Y00783D01*
X01118Y00685D02*
X0132D01*
X0129Y0081D02*
X01328D01*
X01354Y0082D02*
X01355Y00822D01*
X01253Y00891D02*
Y00956D01*
Y00891D02*
X0129Y00855D01*
X0134D02*
Y00875D01*
X01316Y00942D02*
Y00984D01*
Y00942D02*
X01339Y0092D01*
X01355*
X01301Y00936D02*
X01353Y00883D01*
X01301Y00936D02*
Y00977D01*
X01285Y00929D02*
Y00971D01*
Y00929D02*
X0134Y00875D01*
X01269Y00921D02*
Y00964D01*
Y00921D02*
X01315Y00875D01*
Y00835D02*
Y00875D01*
X01485Y0088D02*
X01512Y00907D01*
X01527Y00931D02*
X0155Y00954D01*
X01512Y00907D02*
X0152Y00915D01*
X01015Y00795D02*
X01044D01*
X01055Y00784*
Y00748D02*
X01118Y00685D01*
X01055Y00748D02*
Y00784D01*
X01055Y00854D02*
X0107Y00839D01*
Y00755D02*
X01126Y007D01*
X0107Y00755D02*
Y00839D01*
X01056Y00876D02*
X01086Y00845D01*
Y00762D02*
X01132Y00716D01*
X01086Y00762D02*
Y00845D01*
X01071Y00882D02*
X01102Y00852D01*
Y00768D02*
X01139Y00732D01*
X01102Y00768D02*
Y00852D01*
X01087Y00889D02*
X01118Y00858D01*
Y00786D02*
X0115Y00755D01*
X01118Y00786D02*
Y00858D01*
X01087Y00889D02*
Y0103D01*
X009Y01075D02*
X01043D01*
X01087Y0103*
X01071Y00882D02*
Y01022D01*
X01038Y01055D02*
X01071Y01022D01*
X01028Y0104D02*
X01056Y01012D01*
Y00876D02*
Y01012D01*
X00702Y0104D02*
X01028D01*
X00708Y01055D02*
X01038D01*
X00366Y01138D02*
X00434Y0107D01*
X00671*
X00702Y0104*
X00678Y01086D02*
X00708Y01055D01*
X0061Y01192D02*
X0065D01*
X00499Y01212D02*
X00582D01*
X00537Y0125D02*
X00597D01*
X00537Y0127D02*
X00593D01*
X00537Y01329D02*
X00816D01*
X00641Y01246D02*
X00788D01*
X008Y01235*
X00582Y01212D02*
X00631Y01261D01*
X00795*
X0084Y01217*
X00597Y0125D02*
X00624Y01277D01*
X00801*
X00855Y01223*
X00816Y01329D02*
X00902Y01243D01*
X00814Y01309D02*
X00887Y01236D01*
X00537Y01309D02*
X00814D01*
X00593Y0127D02*
X00616Y01293D01*
X00808*
X00871Y0123*
X0044Y01144D02*
Y01212D01*
X0042Y01142D02*
X0045Y01112D01*
X0053*
X0061Y01192*
X0044Y01144D02*
X00457Y01127D01*
X00523*
X00641Y01246*
X00452Y01086D02*
X00678D01*
G54D11*
X0092Y00165D02*
D01*
X00924Y00165*
X00929Y00165*
X00934Y00166*
X00938Y00167*
X00943Y00169*
X00947Y0017*
X00952Y00173*
X00956Y00175*
X0096Y00178*
X00964Y00181*
X00967Y00184*
X00968Y00185*
D01*
X0097Y00187*
X00972Y00189*
X00973Y00191*
X00975Y00193*
X00976Y00196*
X00977Y00198*
X00978Y00201*
X00978Y00203*
X00979Y00206*
X00979Y00209*
X00979Y00212*
X0098Y00212*
X01059Y0023D02*
D01*
X01054Y00235*
X01048Y00239*
X01043Y00243*
X01037Y00247*
X0103Y0025*
X01024Y00253*
X01017Y00255*
X01011Y00257*
X01004Y00258*
X00997Y00259*
X0099Y00259*
X00988Y0026*
X00811Y01405D02*
D01*
X00811Y01404*
X0081Y01404*
X00809Y01404*
X00808Y01404*
X00807Y01404*
X00807Y01403*
X00806Y01403*
X00805Y01403*
X00804Y01402*
X00804Y01402*
X00803Y01401*
X00803Y01401*
Y01408D02*
D01*
X00804Y01407*
X00804Y01407*
X00805Y01406*
X00806Y01406*
X00806Y01406*
X00807Y01405*
X00808Y01405*
X00809Y01405*
X0081Y01405*
X0081Y01405*
X00811Y01405*
X00811Y01405*
X00634Y00715D02*
D01*
X00634Y00718*
X00634Y0072*
X00633Y00722*
X00633Y00724*
X00632Y00726*
X00631Y00728*
X0063Y0073*
X00629Y00732*
X00628Y00734*
X00627Y00735*
X00625Y00737*
X00625Y00737*
X00643D02*
D01*
X00642Y00736*
X0064Y00734*
X00639Y00732*
X00638Y0073*
X00637Y00728*
X00636Y00726*
X00635Y00724*
X00635Y00722*
X00634Y0072*
X00634Y00718*
X00634Y00716*
X00634Y00715*
X00568D02*
D01*
X00568Y00718*
X00568Y0072*
X00568Y00722*
X00567Y00724*
X00567Y00726*
X00566Y00728*
X00565Y0073*
X00564Y00732*
X00563Y00734*
X00561Y00735*
X0056Y00737*
X00559Y00737*
X00577D02*
D01*
X00576Y00736*
X00575Y00734*
X00573Y00732*
X00572Y0073*
X00571Y00728*
X0057Y00726*
X0057Y00724*
X00569Y00722*
X00569Y0072*
X00569Y00718*
X00568Y00716*
X00568Y00715*
X00755Y00901D02*
D01*
X00754Y00901*
X00753Y00901*
X00753Y00901*
X00752Y00901*
X00751Y00901*
X0075Y009*
X0075Y009*
X00749Y00899*
X00748Y00899*
X00747Y00898*
X00747Y00898*
X00747Y00898*
Y00905D02*
D01*
X00747Y00904*
X00748Y00904*
X00749Y00903*
X00749Y00903*
X0075Y00902*
X00751Y00902*
X00752Y00902*
X00752Y00902*
X00753Y00901*
X00754Y00901*
X00755Y00901*
X00755Y00901*
Y00801D02*
D01*
X00754Y00801*
X00753Y00801*
X00753Y00801*
X00752Y00801*
X00751Y00801*
X0075Y008*
X0075Y008*
X00749Y00799*
X00748Y00799*
X00747Y00798*
X00747Y00798*
X00747Y00798*
Y00805D02*
D01*
X00747Y00804*
X00748Y00804*
X00749Y00803*
X00749Y00803*
X0075Y00802*
X00751Y00802*
X00752Y00802*
X00752Y00802*
X00753Y00801*
X00754Y00801*
X00755Y00801*
X00755Y00801*
X0072Y00739D02*
D01*
X0072Y0074*
X0072Y00741*
X0072Y00742*
X0072Y00743*
X00719Y00743*
X00719Y00744*
X00719Y00745*
X00718Y00746*
X00718Y00746*
X00717Y00747*
X00717Y00748*
X00716Y00748*
X00723D02*
D01*
X00723Y00747*
X00722Y00747*
X00722Y00746*
X00721Y00745*
X00721Y00744*
X00721Y00744*
X0072Y00743*
X0072Y00742*
X0072Y00741*
X0072Y0074*
X0072Y0074*
X0072Y00739*
X00755Y00751D02*
D01*
X00754Y00751*
X00753Y00751*
X00753Y00751*
X00752Y00751*
X00751Y00751*
X0075Y0075*
X0075Y0075*
X00749Y00749*
X00748Y00749*
X00747Y00748*
X00747Y00748*
X00747Y00748*
Y00755D02*
D01*
X00747Y00754*
X00748Y00754*
X00749Y00753*
X00749Y00753*
X0075Y00752*
X00751Y00752*
X00752Y00752*
X00752Y00752*
X00753Y00751*
X00754Y00751*
X00755Y00751*
X00755Y00751*
X00897Y00901D02*
D01*
X00898Y00901*
X00899Y00901*
X009Y00902*
X00901Y00902*
X00902Y00902*
X00902Y00902*
X00903Y00903*
X00904Y00903*
X00904Y00904*
X00905Y00904*
X00906Y00905*
X00906Y00905*
Y00898D02*
D01*
X00905Y00898*
X00905Y00899*
X00904Y00899*
X00903Y009*
X00902Y009*
X00902Y009*
X00901Y00901*
X009Y00901*
X00899Y00901*
X00898Y00901*
X00898Y00901*
X00897Y00901*
X00906Y00165D02*
D01*
X00906Y00164*
X00905Y00164*
X00904Y00164*
X00903Y00164*
X00902Y00164*
X00902Y00163*
X00901Y00163*
X009Y00163*
X00899Y00162*
X00899Y00162*
X00898Y00161*
X00898Y00161*
Y00168D02*
D01*
X00899Y00167*
X00899Y00167*
X009Y00166*
X00901Y00166*
X00901Y00166*
X00902Y00165*
X00903Y00165*
X00904Y00165*
X00905Y00165*
X00905Y00165*
X00906Y00165*
X00906Y00165*
Y0026D02*
D01*
X00906Y00259*
X00905Y00259*
X00904Y00259*
X00903Y00259*
X00902Y00259*
X00902Y00258*
X00901Y00258*
X009Y00258*
X00899Y00257*
X00899Y00257*
X00898Y00256*
X00898Y00256*
Y00263D02*
D01*
X00899Y00262*
X00899Y00262*
X009Y00261*
X00901Y00261*
X00901Y00261*
X00902Y0026*
X00903Y0026*
X00904Y0026*
X00905Y0026*
X00905Y0026*
X00906Y0026*
X00906Y0026*
X0106Y00223D02*
D01*
X01059Y00225*
X01059Y00226*
X01058Y00227*
X01058Y00228*
X01057Y00229*
X01056Y0023*
X01055Y00231*
X01055Y00232*
X01054Y00233*
X01052Y00234*
X01051Y00235*
X01051Y00235*
X0098Y00213D02*
D01*
X00979Y00213*
X00979Y00214*
X00979Y00215*
X00979Y00216*
X00979Y00217*
X00978Y00217*
X00978Y00218*
X00978Y00219*
X00977Y0022*
X00977Y0022*
X00976Y00221*
X00976Y00221*
X00983D02*
D01*
X00982Y0022*
X00982Y0022*
X00981Y00219*
X00981Y00218*
X00981Y00218*
X0098Y00217*
X0098Y00216*
X0098Y00215*
X0098Y00214*
X0098Y00214*
X0098Y00213*
X0098Y00213*
X00913Y00545D02*
D01*
X00912Y00544*
X00911Y00544*
X0091Y00544*
X0091Y00544*
X00909Y00544*
X00908Y00543*
X00907Y00543*
X00907Y00543*
X00906Y00542*
X00905Y00542*
X00905Y00541*
X00905Y00541*
Y00548D02*
D01*
X00905Y00547*
X00906Y00547*
X00906Y00546*
X00907Y00546*
X00908Y00546*
X00909Y00545*
X00909Y00545*
X0091Y00545*
X00911Y00545*
X00912Y00545*
X00913Y00545*
X00913Y00545*
X01166Y00508D02*
D01*
X01167Y00507*
X01167Y00507*
X01168Y00506*
X01169Y00506*
X01169Y00506*
X0117Y00505*
X01171Y00505*
X01172Y00505*
X01173Y00505*
X01173Y00504*
X01174Y00504*
X01175Y00504*
X0117Y005D02*
D01*
X0117Y005*
X01169Y00501*
X01169Y00502*
X01169Y00503*
X01169Y00504*
X01169Y00504*
X01168Y00505*
X01168Y00506*
X01167Y00506*
X01167Y00507*
X01166Y00508*
X01166Y00508*
X008Y01405D02*
X00873D01*
X0072Y00675D02*
X0072Y00675D01*
Y00751*
X0113Y00545D02*
X01175Y005D01*
X00634Y00675D02*
Y00746D01*
X00901Y00545D02*
X0113D01*
X00568Y009D02*
X0057Y00901D01*
X00568Y00708D02*
Y00746D01*
X00555Y00695D02*
X00568Y00708D01*
X0081Y00901D02*
X00933D01*
X0081D02*
Y00954D01*
X0081Y00955D02*
X0081Y00954D01*
X0072Y00801D02*
X0078D01*
Y00751D02*
Y00801D01*
X0072Y00751D02*
X0078D01*
X00809Y0069D02*
Y00901D01*
X0081*
X0072D02*
X00809D01*
X00895Y00165D02*
X0092D01*
X0098Y00212D02*
Y00225D01*
X00895Y0026D02*
X00988D01*
X01059Y0023D02*
X01065Y00225D01*
G54D12*
X01114Y0125D02*
D01*
X01111Y01249*
X01107Y01249*
X01104Y01248*
X01101Y01248*
X01097Y01246*
X01094Y01245*
X01091Y01244*
X01088Y01242*
X01085Y0124*
X01082Y01238*
X0108Y01235*
X01079Y01235*
Y01264D02*
D01*
X01082Y01262*
X01084Y0126*
X01087Y01258*
X0109Y01256*
X01093Y01254*
X01097Y01253*
X011Y01252*
X01103Y01251*
X01107Y0125*
X0111Y0125*
X01114Y0125*
X01114Y0125*
X00325Y00519D02*
D01*
X00325Y00517*
X00325Y00515*
X00325Y00514*
X00325Y00512*
X00326Y00511*
X00327Y00509*
X00327Y00508*
X00328Y00506*
X00329Y00505*
X0033Y00503*
X00331Y00502*
X00331Y00502*
X00318D02*
D01*
X00319Y00503*
X0032Y00504*
X00321Y00506*
X00322Y00507*
X00322Y00509*
X00323Y0051*
X00323Y00512*
X00324Y00513*
X00324Y00515*
X00324Y00517*
X00324Y00518*
X00325Y00519*
X00195Y004D02*
D01*
X00194Y00402*
X00194Y00404*
X00194Y00405*
X00194Y00407*
X00193Y00408*
X00192Y0041*
X00192Y00411*
X00191Y00413*
X0019Y00414*
X00189Y00416*
X00188Y00417*
X00188Y00417*
X00201D02*
D01*
X002Y00416*
X00199Y00415*
X00198Y00413*
X00197Y00412*
X00197Y0041*
X00196Y00409*
X00196Y00407*
X00195Y00406*
X00195Y00404*
X00195Y00402*
X00195Y00401*
X00195Y004*
Y00519D02*
D01*
X00195Y00517*
X00195Y00515*
X00195Y00514*
X00195Y00512*
X00196Y00511*
X00197Y00509*
X00197Y00508*
X00198Y00506*
X00199Y00505*
X002Y00503*
X00201Y00502*
X00201Y00502*
X00188D02*
D01*
X00189Y00503*
X0019Y00504*
X00191Y00506*
X00192Y00507*
X00192Y00509*
X00193Y0051*
X00193Y00512*
X00194Y00513*
X00194Y00515*
X00194Y00517*
X00194Y00518*
X00195Y00519*
X0026D02*
D01*
X0026Y00517*
X0026Y00515*
X0026Y00514*
X0026Y00512*
X00261Y00511*
X00262Y00509*
X00262Y00508*
X00263Y00506*
X00264Y00505*
X00265Y00503*
X00266Y00502*
X00266Y00502*
X00253D02*
D01*
X00254Y00503*
X00255Y00504*
X00256Y00506*
X00257Y00507*
X00257Y00509*
X00258Y0051*
X00258Y00512*
X00259Y00513*
X00259Y00515*
X00259Y00517*
X00259Y00518*
X0026Y00519*
Y004D02*
D01*
X00259Y00402*
X00259Y00404*
X00259Y00405*
X00259Y00407*
X00258Y00408*
X00257Y0041*
X00257Y00411*
X00256Y00413*
X00255Y00414*
X00254Y00416*
X00253Y00417*
X00253Y00417*
X00266D02*
D01*
X00265Y00416*
X00264Y00415*
X00263Y00413*
X00262Y00412*
X00262Y0041*
X00261Y00409*
X00261Y00407*
X0026Y00406*
X0026Y00404*
X0026Y00402*
X0026Y00401*
X0026Y004*
X0013D02*
D01*
X00129Y00402*
X00129Y00404*
X00129Y00405*
X00129Y00407*
X00128Y00408*
X00127Y0041*
X00127Y00411*
X00126Y00413*
X00125Y00414*
X00124Y00416*
X00123Y00417*
X00123Y00417*
X00136D02*
D01*
X00135Y00416*
X00134Y00415*
X00133Y00413*
X00132Y00412*
X00132Y0041*
X00131Y00409*
X00131Y00407*
X0013Y00406*
X0013Y00404*
X0013Y00402*
X0013Y00401*
X0013Y004*
X0043Y00425D02*
X00525D01*
X00825Y00635D02*
X00875D01*
X0076D02*
X00825D01*
X0072Y00675D02*
X0076Y00635D01*
X00634Y00675D02*
X0072D01*
X00195Y0067D02*
Y00695D01*
X00133Y0067D02*
X00195D01*
X00133Y0072D02*
X00195D01*
X00385Y00835D02*
X0043Y0079D01*
Y0062D02*
Y0079D01*
X00346Y0062D02*
X0043D01*
X00325Y00495D02*
Y00535D01*
X0026D02*
X00325D01*
X0026Y00495D02*
Y00535D01*
X00195D02*
X0026D01*
X00195Y00495D02*
Y00535D01*
Y0067*
X0013Y0037D02*
X00195D01*
Y00424*
Y0037D02*
X0026D01*
Y00424*
X00075Y00495D02*
Y0076D01*
X004Y0067D02*
Y0076D01*
X00075D02*
X00282D01*
X004*
X0013Y0037D02*
Y00424D01*
X00035Y0037D02*
X0013D01*
X00075Y00435D02*
Y00495D01*
X00325Y0036D02*
X00365D01*
X0043Y00425*
X00282Y009D02*
X00284Y00901D01*
X00282Y0076D02*
Y009D01*
Y0095*
X00284Y00901D02*
X0057D01*
X00634*
Y00934*
X00655Y00955*
X00575Y00675D02*
X00634D01*
X00503Y00746D02*
X00555Y00695D01*
X00575Y00675*
X00655Y00955D02*
X0081D01*
X0081Y00954D02*
X0089D01*
X01065Y0125D02*
X01152D01*
X01619Y01214D02*
X0162Y01215D01*
X00072Y00922D02*
X00172D01*
X00235Y00985*
X00325*
X0036Y0095*
X00575*
X00625Y01*
X00195Y00695D02*
Y0072D01*
G54D13*
X00873Y01464D02*
D01*
X00873Y01467*
X00873Y0147*
X00872Y01472*
X00871Y01475*
X0087Y01478*
X00869Y01481*
X00868Y01483*
X00867Y01486*
X00865Y01488*
X00863Y0149*
X00862Y01492*
X00861Y01493*
X00885D02*
D01*
X00883Y01491*
X00881Y01488*
X00879Y01486*
X00878Y01484*
X00877Y01481*
X00876Y01479*
X00875Y01476*
X00874Y01473*
X00873Y0147*
X00873Y01468*
X00873Y01465*
X00873Y01464*
X00525Y00425D02*
X0059D01*
X00612Y00402*
X0156Y003D02*
X0162Y0036D01*
X01132Y00402D02*
X01235Y003D01*
X0142*
X0156*
X0162Y0036D02*
Y00625D01*
Y01175D02*
Y01215D01*
X00873Y01405D02*
X0102D01*
X01215Y016*
X0162Y0107D02*
Y01175D01*
Y00625D02*
Y0107D01*
X00873Y01405D02*
Y01505D01*
G54D15*
X00236Y01101D02*
D01*
X00236Y01102*
X00235Y01103*
X00235Y01105*
X00235Y01106*
X00234Y01107*
X00234Y01109*
X00233Y0111*
X00233Y01111*
X00232Y01112*
X00231Y01113*
X0023Y01114*
X0023Y01115*
X00249D02*
D01*
X00247Y01112*
X00245Y0111*
X00243Y01107*
X00241Y01104*
X0024Y01101*
X00239Y01098*
X00238Y01095*
X00237Y01092*
X00236Y01089*
X00236Y01086*
X00236Y01083*
X00236Y01082*
X0024Y01201D02*
D01*
X00239Y01204*
X00239Y01206*
X00239Y01208*
X00238Y01211*
X00237Y01213*
X00237Y01215*
X00236Y01217*
X00234Y01219*
X00233Y01221*
X00232Y01223*
X0023Y01224*
X0023Y01225*
X00249D02*
D01*
X00248Y01223*
X00246Y01221*
X00245Y01219*
X00244Y01217*
X00243Y01215*
X00242Y01213*
X00241Y01211*
X0024Y01209*
X0024Y01207*
X0024Y01204*
X0024Y01202*
X0024Y01201*
X00236Y01064D02*
D01*
X00236Y01063*
X00236Y01062*
X00236Y01061*
X00236Y0106*
X00237Y01059*
X00237Y01058*
X00237Y01057*
X00238Y01056*
X00239Y01055*
X00239Y01054*
X0024Y01053*
X0024Y01053*
X00231D02*
D01*
X00232Y01054*
X00232Y01055*
X00233Y01056*
X00234Y01057*
X00234Y01057*
X00235Y01058*
X00235Y0106*
X00235Y01061*
X00235Y01062*
X00236Y01063*
X00236Y01064*
X00236Y01064*
X00701Y01095D02*
D01*
X00703Y01095*
X00705Y01095*
X00708Y01095*
X0071Y01096*
X00712Y01097*
X00714Y01097*
X00716Y01098*
X00718Y011*
X0072Y01101*
X00722Y01102*
X00724Y01104*
X00724Y01104*
Y01085D02*
D01*
X00723Y01086*
X00721Y01088*
X00719Y01089*
X00717Y0109*
X00715Y01091*
X00713Y01092*
X00711Y01093*
X00708Y01094*
X00706Y01094*
X00704Y01094*
X00701Y01094*
X00701Y01095*
X007Y01154D02*
D01*
X00699Y01155*
X00699Y01156*
X00699Y01157*
X00699Y01158*
X00699Y01159*
X00698Y0116*
X00698Y01161*
X00697Y01162*
X00697Y01163*
X00696Y01164*
X00695Y01164*
X00695Y01165*
X00704D02*
D01*
X00703Y01164*
X00702Y01163*
X00702Y01162*
X00701Y01161*
X00701Y0116*
X007Y0116*
X007Y01159*
X007Y01158*
X007Y01157*
X007Y01156*
X007Y01155*
X007Y01154*
X00895Y00751D02*
D01*
X00896Y00751*
X00897Y00751*
X00898Y00752*
X00899Y00752*
X009Y00752*
X00901Y00753*
X00902Y00753*
X00903Y00753*
X00903Y00754*
X00904Y00755*
X00905Y00755*
X00905Y00755*
Y00747D02*
D01*
X00904Y00748*
X00904Y00748*
X00903Y00749*
X00902Y00749*
X00901Y0075*
X009Y0075*
X00899Y00751*
X00898Y00751*
X00897Y00751*
X00896Y00751*
X00895Y00751*
X00895Y00751*
X01015Y00958D02*
D01*
X01015Y00956*
X01015Y00954*
X01015Y00951*
X01016Y00949*
X01017Y00947*
X01017Y00945*
X01018Y00943*
X0102Y00941*
X01021Y00939*
X01022Y00937*
X01024Y00935*
X01024Y00935*
X01005D02*
D01*
X01006Y00936*
X01008Y00938*
X01009Y0094*
X0101Y00942*
X01011Y00944*
X01012Y00946*
X01013Y00948*
X01014Y00951*
X01014Y00953*
X01014Y00955*
X01014Y00958*
X01015Y00958*
X00096Y00495D02*
D01*
X00099Y00495*
X00101Y00495*
X00103Y00496*
X00105Y00496*
X00108Y00497*
X0011Y00498*
X00112Y00499*
X00114Y005*
X00116Y00501*
X00118Y00503*
X00119Y00504*
X0012Y00505*
Y00485D02*
D01*
X00118Y00487*
X00116Y00488*
X00114Y0049*
X00112Y00491*
X0011Y00492*
X00108Y00493*
X00106Y00493*
X00104Y00494*
X00101Y00495*
X00099Y00495*
X00097Y00495*
X00096Y00495*
X0078Y00585D02*
D01*
X00779Y00584*
X00778Y00584*
X00777Y00584*
X00776Y00584*
X00775Y00584*
X00774Y00583*
X00773Y00583*
X00772Y00582*
X00771Y00582*
X0077Y00581*
X0077Y0058*
X00769Y0058*
Y00589D02*
D01*
X0077Y00588*
X00771Y00587*
X00772Y00587*
X00773Y00586*
X00773Y00586*
X00774Y00585*
X00775Y00585*
X00776Y00585*
X00777Y00585*
X00778Y00585*
X00779Y00585*
X0078Y00585*
X0156Y00743D02*
D01*
X0156Y0074*
X0156Y00738*
X01561Y00736*
X01561Y00734*
X01562Y00731*
X01563Y00729*
X01564Y00727*
X01565Y00725*
X01566Y00723*
X01568Y00721*
X01569Y0072*
X0157Y00719*
X0155D02*
D01*
X01552Y00721*
X01553Y00723*
X01555Y00725*
X01556Y00727*
X01557Y00729*
X01558Y00731*
X01558Y00733*
X01559Y00735*
X0156Y00738*
X0156Y0074*
X0156Y00742*
X0156Y00743*
X00588Y0111D02*
D01*
X00587Y0111*
X00586Y0111*
X00585Y0111*
X00584Y01109*
X00583Y01109*
X00583Y01109*
X00582Y01108*
X00581Y01108*
X0058Y01107*
X00579Y01107*
X00578Y01106*
X00578Y01106*
Y01114D02*
D01*
X00579Y01113*
X0058Y01113*
X00581Y01112*
X00581Y01112*
X00582Y01111*
X00583Y01111*
X00584Y01111*
X00585Y0111*
X00586Y0111*
X00587Y0111*
X00588Y0111*
X00588Y0111*
X0069D02*
D01*
X00689Y0111*
X00688Y0111*
X00687Y0111*
X00685Y01109*
X00684Y01109*
X00683Y01109*
X00682Y01108*
X00681Y01108*
X00681Y01107*
X0068Y01106*
X00679Y01106*
X00679Y01105*
Y01114D02*
D01*
X00679Y01113*
X0068Y01113*
X00681Y01112*
X00682Y01112*
X00682Y01111*
X00683Y01111*
X00684Y0111*
X00685Y0111*
X00686Y0111*
X00687Y0111*
X00687Y0111*
X00688Y0111*
X00661D02*
D01*
X00662Y0111*
X00663Y0111*
X00664Y0111*
X00665Y0111*
X00666Y01111*
X00666Y01111*
X00667Y01111*
X00668Y01112*
X00669Y01112*
X0067Y01113*
X0067Y01114*
X0067Y01114*
Y01105D02*
D01*
X0067Y01106*
X00669Y01107*
X00668Y01107*
X00667Y01108*
X00666Y01108*
X00665Y01109*
X00664Y01109*
X00663Y0111*
X00662Y0111*
X00661Y0111*
X00659Y0111*
X00659Y0111*
X01264Y00475D02*
D01*
X01263Y00474*
X01262Y00474*
X01261Y00474*
X0126Y00474*
X01259Y00474*
X01258Y00473*
X01257Y00473*
X01256Y00472*
X01255Y00472*
X01255Y00471*
X01254Y0047*
X01254Y0047*
Y00479D02*
D01*
X01254Y00478*
X01255Y00477*
X01256Y00477*
X01257Y00476*
X01258Y00476*
X01259Y00475*
X0126Y00475*
X01261Y00475*
X01262Y00475*
X01263Y00475*
X01264Y00475*
X01264Y00475*
X00889Y00635D02*
D01*
X00888Y00634*
X00887Y00634*
X00886Y00634*
X00885Y00634*
X00884Y00634*
X00883Y00633*
X00882Y00633*
X00881Y00632*
X0088Y00632*
X0088Y00631*
X00879Y0063*
X00879Y0063*
Y00639D02*
D01*
X00879Y00638*
X0088Y00637*
X00881Y00637*
X00882Y00636*
X00883Y00636*
X00884Y00635*
X00885Y00635*
X00886Y00635*
X00887Y00635*
X00888Y00635*
X00889Y00635*
X00889Y00635*
X0102Y00967D02*
D01*
X01019Y00965*
X01018Y00964*
X01018Y00962*
X01017Y0096*
X01017Y00959*
X01016Y00957*
X01016Y00955*
Y00954*
X01016Y00952*
X01017Y0095*
X01017Y00949*
X01017Y00948*
X01015Y00955D02*
D01*
X01014Y00956*
X01014Y00957*
X01014Y00958*
X01014Y00959*
X01014Y0096*
X01013Y00961*
X01013Y00962*
X01012Y00963*
X01012Y00964*
X01011Y00964*
X0101Y00965*
X0101Y00965*
X01019D02*
D01*
X01018Y00965*
X01017Y00964*
X01017Y00963*
X01016Y00962*
X01016Y00961*
X01015Y0096*
X01015Y00959*
X01015Y00958*
X01015Y00957*
X01015Y00956*
X01015Y00955*
X01015Y00955*
X01012Y00948D02*
D01*
X01012Y0095*
X01012Y00951*
X01013Y00953*
X01013Y00955*
X01013Y00957*
X01012Y00958*
X01012Y0096*
X01012Y00962*
X01011Y00963*
X0101Y00965*
X0101Y00966*
X01009Y00967*
X00199Y01192D02*
D01*
X00198Y01192*
X00197Y01192*
X00196Y01192*
X00195Y01192*
X00194Y01192*
X00193Y01191*
X00192Y01191*
X00191Y0119*
X0019Y0119*
X0019Y01189*
X00189Y01188*
X00189Y01188*
Y01197D02*
D01*
X00189Y01196*
X0019Y01195*
X00191Y01195*
X00192Y01194*
X00193Y01194*
X00194Y01193*
X00195Y01193*
X00196Y01193*
X00197Y01193*
X00198Y01192*
X00199Y01192*
X00199Y01192*
X007Y0111D02*
Y01192D01*
X00825Y006D02*
Y00635D01*
X0081Y00585D02*
X00825Y006D01*
X0075Y00585D02*
X0081D01*
X00236Y01124D02*
X0024D01*
X00236Y01045D02*
Y01124D01*
X0024Y01192D02*
Y01235D01*
X00185Y01192D02*
X0024D01*
X00075Y00495D02*
X0013D01*
X01617Y01177D02*
X0162Y01175D01*
X0088Y00751D02*
X00933D01*
X0088Y0069D02*
Y00751D01*
X00946Y00649D02*
Y0069D01*
X00875Y00635D02*
X00932D01*
X00946Y00649*
X01015Y00925D02*
Y0097D01*
X0125Y00475D02*
X01325D01*
X0156Y0071D02*
Y00755D01*
X00699Y01095D02*
X00734D01*
X00699D02*
Y0111D01*
X00574D02*
X00699D01*
X01325Y00475D02*
X01446Y00596D01*
Y00728*
X01473Y00755*
X0156*
G54D16*
X00323Y01045D02*
X00365D01*
X004Y0101*
X00346Y0057D02*
X00405D01*
X00416Y00558*
Y00538D02*
Y00558D01*
X00875Y00635D02*
X00942Y00567D01*
X01157*
X0125Y00475*
G54D23*
X00529Y01575D03*
X00415D03*
G54D24*
X01015Y00925D03*
Y00854D03*
Y00724D03*
Y00795D03*
X01325Y01214D03*
Y01285D03*
X00195Y00495D03*
Y00424D03*
X00325D03*
Y00495D03*
X01355Y01025D03*
Y00954D03*
G54D25*
X0155Y01025D03*
Y00954D03*
X01489Y0071D03*
X0156D03*
X0013Y00495D03*
Y00424D03*
X00568Y00746D03*
Y00817D03*
X00634D03*
Y00746D03*
X00805Y01095D03*
X00734D03*
X00815Y01585D03*
X00744D03*
X0026Y00424D03*
Y00495D03*
X01485Y01025D03*
Y00954D03*
X0142D03*
Y01025D03*
G54D31*
X0024Y01235D03*
Y01124D03*
G54D37*
X00323Y01045D03*
X00236D03*
G54D42*
X00152Y01054D03*
Y01229D03*
G54D43*
X00067Y01282D03*
G54D44*
X00067Y01D03*
G54D45*
X00965Y0125D03*
X00971Y01505D03*
X00415Y01475D03*
G54D46*
X01065Y0125D03*
X00873Y01505D03*
X00775D03*
X00676D03*
X00515Y01475D03*
G54D47*
X01473Y01135D03*
X01395D03*
X01316D03*
X01552D03*
G54D48*
X01237Y01135D03*
G54D49*
X0107Y00497D03*
X01022D03*
X00975D03*
Y00402D03*
X01022D03*
X0107D03*
Y0045D03*
X00975D03*
X01022D03*
X00438Y01268D03*
X00481D03*
X00438Y01311D03*
X00481D03*
X01537Y00112D03*
X01598Y00232D03*
X01393Y00055D03*
X01547Y01523D03*
X01594Y01411D03*
X00062Y01458D03*
X00145Y01561D03*
X00255Y016D03*
X01523Y00423D03*
Y00521D03*
X00814Y00061D03*
X00393Y00246D03*
X00336Y00061D03*
X00143Y00112D03*
X00072Y00279D03*
X00795Y00348D03*
X01177Y00275D03*
X01208Y00188D03*
Y00055D03*
X00865Y00585D03*
X004Y0101D03*
X00185Y01192D03*
X00595Y01415D03*
X00557Y01381D03*
X00519Y01169D03*
X00464Y01165D03*
X00366Y01171D03*
Y01139D03*
X00385Y00835D03*
X00416Y00538D03*
X00525Y00425D03*
X00722Y00402D03*
X01175Y005D03*
X00901Y00545D03*
X006Y01575D03*
X0098Y00225D03*
X01065D03*
X00895Y0026D03*
Y00165D03*
X0125Y00614D03*
X0117Y0065D03*
X00958Y00625D03*
X00035Y0037D03*
X00282Y0095D03*
X00075Y00435D03*
X00325Y0036D03*
X00722Y00087D03*
X00503Y00746D03*
X01442Y00761D03*
X01015Y0097D03*
X00875Y00635D03*
X0122Y00925D03*
X01177Y00862D03*
X0111Y01045D03*
X00995Y00665D03*
X0125Y00475D03*
X0142Y0035D03*
X0138Y01285D03*
X01267Y01086D03*
X00374Y01096D03*
X00425Y01039D03*
X0075Y01135D03*
X00072Y00922D03*
X00625Y01D03*
X00675Y0111D03*
X01059Y0069D03*
X0112Y00625D03*
X0113Y00945D03*
X0129Y00855D03*
X01315Y00835D03*
X0129Y0081D03*
X0134Y00855D03*
X0131Y0105D03*
X01485Y0088D03*
X01444Y00852D03*
X0147Y00823D03*
X01419Y00783D03*
X0159Y00945D03*
X0132Y016D03*
X00948Y00937D03*
X00881Y01009D03*
X00574Y0111D03*
X0115Y00755D03*
X01551Y00907D03*
X01289Y00509D03*
X01214Y0058D03*
X01155Y00826D03*
G54D50*
X00787Y0051D02*
D01*
X00785Y0051*
X00784Y00509*
X00782Y00509*
X00781Y00509*
X00779Y00508*
X00778Y00508*
X00777Y00507*
X00775Y00506*
X00774Y00506*
X00773Y00505*
X00772Y00504*
X00772Y00503*
Y00516D02*
D01*
X00773Y00515*
X00774Y00514*
X00775Y00513*
X00776Y00512*
X00778Y00512*
X00779Y00511*
X0078Y00511*
X00782Y0051*
X00783Y0051*
X00785Y0051*
X00786Y0051*
X00787*
X00865Y00563D02*
D01*
X00864Y00565*
X00864Y00566*
X00864Y00568*
X00864Y00569*
X00863Y0057*
X00863Y00572*
X00862Y00573*
X00861Y00574*
X0086Y00576*
X00859Y00577*
X00858Y00578*
X00858Y00578*
X00871D02*
D01*
X0087Y00577*
X00869Y00576*
X00868Y00575*
X00867Y00573*
X00867Y00572*
X00866Y00571*
X00865Y00569*
X00865Y00568*
X00865Y00566*
X00865Y00565*
X00865Y00563*
Y00563*
G54D51*
X00382Y0125D03*
Y0127D03*
Y0129D03*
Y01309D03*
Y01329D03*
X00537D03*
Y01309D03*
Y0129D03*
Y0127D03*
Y0125D03*
G54D52*
X0042Y01367D03*
X0044D03*
X0046D03*
X00479D03*
X00499D03*
Y01212D03*
X00479D03*
X0046D03*
X0044D03*
X0042D03*
G54D53*
X0046Y0129D03*
G54D54*
X00667Y00547D03*
X0075Y0051D03*
Y00585D03*
X01235Y01212D03*
Y01287D03*
X01152Y0125D03*
G54D55*
X00933Y00751D03*
Y00851D03*
Y00801D03*
Y00901D03*
X0072Y00751D03*
Y00801D03*
Y00851D03*
Y00901D03*
X00133Y0057D03*
Y0062D03*
Y0072D03*
Y0067D03*
X00346Y0057D03*
Y0067D03*
Y0062D03*
Y0072D03*
G54D56*
X0065Y01192D03*
X007D03*
X0075D03*
X008D03*
X0065Y01405D03*
X0075D03*
X007D03*
X008D03*
G54D57*
X00809Y0069D03*
X0088D03*
X00946D03*
M02*