%FSTAX23Y23*%
%MOIN*%
%SFA1B1*%

%IPPOS*%
%ADD45R,0.061020X0.061020*%
%ADD46C,0.061020*%
%ADD68R,0.066930X0.078740*%
%ADD69R,0.047240X0.047240*%
%ADD70C,0.047240*%
%ADD76R,0.078740X0.047240*%
%ADD82R,0.032680X0.040550*%
%ADD86O,0.055120X0.049210*%
%ADD87O,0.078740X0.057090*%
%ADD88O,0.086610X0.057090*%
%ADD89C,0.007870*%
%ADD90R,0.068900X0.068900*%
%ADD91C,0.068900*%
%ADD92R,0.187010X0.055120*%
%ADD93R,0.036610X0.019690*%
%ADD94R,0.019690X0.036610*%
%ADD95R,0.106300X0.106300*%
%ADD96R,0.062990X0.031500*%
%ADD97O,0.077950X0.031500*%
%ADD98O,0.031500X0.077950*%
%ADD99R,0.011810X0.011810*%
%LNstepperpcb-1*%
%LPD*%
G36*
X01102Y00366D02*
X00944D01*
Y00523*
X01102*
Y00366*
G37*
G54D45*
X01237Y01135D03*
G54D46*
X01473Y01135D03*
X01395D03*
X01316D03*
X01552D03*
G54D68*
X00529Y01575D03*
X00415D03*
G54D69*
X01015Y00925D03*
Y00854D03*
Y00724D03*
Y00795D03*
X01325Y01214D03*
Y01285D03*
X00195Y00495D03*
Y00424D03*
X00325D03*
Y00495D03*
X01355Y01025D03*
Y00954D03*
G54D70*
X0155Y01025D03*
Y00954D03*
X01489Y0071D03*
X0156D03*
X0013Y00495D03*
Y00424D03*
X00568Y00746D03*
Y00817D03*
X00634D03*
Y00746D03*
X00805Y01095D03*
X00734D03*
X00815Y01585D03*
X00744D03*
X0026Y00424D03*
Y00495D03*
X01485Y01025D03*
Y00954D03*
X0142D03*
Y01025D03*
G54D76*
X0024Y01235D03*
Y01124D03*
G54D82*
X00323Y01045D03*
X00236D03*
G54D86*
X00152Y01054D03*
Y01229D03*
G54D87*
X00067Y01282D03*
G54D88*
X00067Y01D03*
G54D89*
X01437Y00216D03*
X00216D03*
Y01437D03*
X01437D03*
G54D90*
X00965Y0125D03*
X00971Y01505D03*
X00415Y01475D03*
G54D91*
X01065Y0125D03*
X00873Y01505D03*
X00775D03*
X00676D03*
X00515Y01475D03*
G54D92*
X00879Y0069D03*
G54D93*
X00382Y0125D03*
Y0127D03*
Y0129D03*
Y01309D03*
Y01329D03*
X00537D03*
Y01309D03*
Y0129D03*
Y0127D03*
Y0125D03*
G54D94*
X0042Y01367D03*
X0044D03*
X0046D03*
X00479D03*
X00499D03*
Y01212D03*
X00479D03*
X0046D03*
X0044D03*
X0042D03*
G54D95*
X0046Y0129D03*
G54D96*
X00667Y00547D03*
X0075Y0051D03*
Y00585D03*
X01235Y01212D03*
Y01287D03*
X01152Y0125D03*
G54D97*
X00933Y00751D03*
Y00851D03*
Y00801D03*
Y00901D03*
X0072Y00751D03*
Y00801D03*
Y00851D03*
Y00901D03*
X00133Y0057D03*
Y0062D03*
Y0072D03*
Y0067D03*
X00346Y0057D03*
Y0067D03*
Y0062D03*
Y0072D03*
G54D98*
X0065Y01192D03*
X007D03*
X0075D03*
X008D03*
X0065Y01405D03*
X0075D03*
X007D03*
X008D03*
G54D99*
X00809Y0069D03*
X0088D03*
X00946D03*
M02*