%FSTAX23Y23*%
%MOIN*%
%SFA1B1*%

%IPPOS*%
%AMD18*
4,1,8,-0.017700,0.050200,-0.017700,-0.050200,-0.008900,-0.059100,0.008900,-0.059100,0.017700,-0.050200,0.017700,0.050200,0.008900,0.059100,-0.008900,0.059100,-0.017700,0.050200,0.0*
1,1,0.017720,-0.008900,0.050200*
1,1,0.017720,-0.008900,-0.050200*
1,1,0.017720,0.008900,-0.050200*
1,1,0.017720,0.008900,0.050200*
%
%AMD22*
4,1,8,0.034400,-0.014800,0.034400,0.014800,0.019700,0.029500,-0.019700,0.029500,-0.034400,0.014800,-0.034400,-0.014800,-0.019700,-0.029500,0.019700,-0.029500,0.034400,-0.014800,0.0*
1,1,0.029520,0.019700,-0.014800*
1,1,0.029520,0.019700,0.014800*
1,1,0.029520,-0.019700,0.014800*
1,1,0.029520,-0.019700,-0.014800*
%
%AMD28*
4,1,8,-0.023600,0.017700,-0.023600,-0.017700,-0.011800,-0.029500,0.011800,-0.029500,0.023600,-0.017700,0.023600,0.017700,0.011800,0.029500,-0.011800,0.029500,-0.023600,0.017700,0.0*
1,1,0.023620,-0.011800,0.017700*
1,1,0.023620,-0.011800,-0.017700*
1,1,0.023620,0.011800,-0.017700*
1,1,0.023620,0.011800,0.017700*
%
%ADD10C,0.007870*%
%ADD11C,0.013780*%
%ADD12C,0.019690*%
%ADD13C,0.027560*%
%ADD14C,0.029530*%
%ADD15C,0.011810*%
%ADD16C,0.015750*%
%ADD17O,0.053150X0.015750*%
G04~CAMADD=18~8~0.0~0.0~1181.1~354.3~88.6~0.0~15~0.0~0.0~0.0~0.0~0~0.0~0.0~0.0~0.0~0~0.0~0.0~0.0~90.0~355.0~1181.0*
%ADD18D18*%
%ADD19O,0.013780X0.066930*%
%ADD20R,0.118110X0.118110*%
%ADD21C,0.059060*%
G04~CAMADD=22~8~0.0~0.0~590.6~689.0~147.6~0.0~15~0.0~0.0~0.0~0.0~0~0.0~0.0~0.0~0.0~0~0.0~0.0~0.0~270.0~689.0~590.0*
%ADD22D22*%
%ADD23R,0.068900X0.059060*%
%ADD24R,0.033470X0.041340*%
%ADD25R,0.059060X0.070870*%
%ADD26R,0.039370X0.039370*%
%ADD27C,0.039370*%
G04~CAMADD=28~8~0.0~0.0~590.6~472.4~118.1~0.0~15~0.0~0.0~0.0~0.0~0~0.0~0.0~0.0~0.0~0~0.0~0.0~0.0~90.0~472.0~590.0*
%ADD28D28*%
%ADD29R,0.055120X0.078740*%
%ADD30R,0.086610X0.094490*%
%ADD31R,0.062990X0.157480*%
%ADD32R,0.074800X0.089760*%
%ADD33R,0.070870X0.039370*%
%ADD34R,0.039370X0.039370*%
%ADD35R,0.066930X0.094490*%
%ADD36R,0.070870X0.137800*%
%ADD37R,0.024800X0.032680*%
%ADD38R,0.039370X0.078740*%
%ADD39O,0.066930X0.011810*%
%ADD40O,0.011810X0.066930*%
%ADD41C,0.039370*%
%ADD42O,0.078740X0.049210*%
%ADD43C,0.041340*%
%ADD44R,0.061020X0.061020*%
%ADD45C,0.061020*%
%ADD46C,0.053150*%
%ADD47R,0.053150X0.053150*%
%ADD48C,0.023620*%
%LNstepperpcb-1*%
%LPD*%
G36*
X01275Y00795D02*
D01*
X01282Y00791*
X0129Y00789*
X0129Y00789*
X01292Y00789*
X01294Y00787*
X01294Y00788*
X01294Y00788*
X01414Y00668*
X01418Y00666*
X01422Y00665*
X01437*
X01441Y00661*
X01441Y0066*
X0144Y00656*
X01435Y00655*
X01431Y00652*
X01426Y00655*
X01421Y00656*
X01415Y00655*
X01411Y00652*
X01406Y00655*
X01401Y00656*
X01396Y00655*
X01393Y00653*
X01393Y00653*
X01388Y00657*
X01386Y00657*
Y00614*
Y00571*
X01388Y00572*
X01393Y00575*
X01393Y00575*
X01396Y00574*
X01401Y00573*
X01406Y00574*
X01411Y00577*
X01415Y00574*
X01421Y00573*
X01426Y00574*
X01431Y00577*
X01435Y00574*
X0144Y00573*
X01446Y00574*
X0145Y00577*
X01455Y00574*
X0146Y00573*
X01466Y00574*
X0147Y00577*
X01474Y00574*
X0148Y00573*
X01485Y00574*
X0149Y00577*
X01494Y00574*
X015Y00573*
X01505Y00574*
X01509Y00577*
X01512Y00581*
X01514Y00587*
Y00642*
X01512Y00647*
X01511Y00649*
X01513Y00651*
X01517Y00653*
X01518Y00652*
X01523Y00651*
X01578*
X01584Y00652*
X01588Y00655*
X01591Y0066*
X01592Y00665*
X01591Y00671*
X01588Y00675*
X01591Y0068*
X01592Y00685*
X01591Y0069*
X01588Y00695*
X01591Y00699*
X01592Y00705*
X01591Y0071*
X01588Y00715*
X01591Y00719*
X01592Y00724*
X01592Y00728*
X01595Y00732*
X01608*
X01613Y00733*
X01617Y00736*
X01631Y0075*
X01635Y00748*
Y00159*
X01625Y00149*
X01492Y00015*
X01168*
Y0011*
X01156*
X01155Y00113*
X01155*
Y00186*
X01155*
X01154Y00201*
X01148Y00214*
X01139Y00226*
X01139Y00226*
X01139Y00226*
X01109Y00256*
X01108Y00257*
X01103Y00264*
X01101Y00273*
X01101Y00274*
Y00303*
X01106Y00305*
X01106Y00305*
X01112Y00304*
X01118Y00305*
X01123Y00308*
X01126Y00313*
X01126Y00314*
X01165*
X0117Y00316*
X01175Y00319*
X01185Y00329*
X01188Y00334*
X0119Y0034*
Y00486*
X0119Y00487*
X01193Y00492*
X01195Y005*
X01193Y00507*
X01189Y00514*
X01182Y00518*
X01175Y0052*
X01167Y00518*
X0116Y00514*
X01156Y00507*
X01154Y005*
X01156Y00492*
X01159Y00487*
X01159Y00486*
Y00346*
X01158Y00345*
X01127*
Y00372*
X01126Y00378*
X01123Y00382*
X01118Y00386*
X01112Y00387*
X01106Y00386*
X01101Y00382*
X01097*
X01092Y00386*
X01091Y00386*
Y00397*
X0107*
Y00407*
X01091*
Y00445*
X00953*
Y00407*
X00975*
Y00397*
X00953*
Y00386*
X00953Y00386*
X00948Y00382*
X00943*
X00938Y00386*
X00933Y00387*
X00927Y00386*
X00922Y00382*
X00919Y00378*
X00918Y00372*
Y00345*
X00906*
X00895Y00356*
Y00383*
X00895*
X00895Y00384*
X00896Y00389*
X00899Y00394*
X00899Y00394*
X00899Y00394*
X009Y00395*
X00904Y004*
X00906Y00407*
X00907Y00414*
X00906Y00421*
X00904Y00428*
X00899Y00434*
X00893Y00438*
X00887Y00441*
X0088Y00442*
X00872Y00441*
X00866Y00438*
X0086Y00434*
X00855Y00428*
X00853Y00421*
X00852Y00414*
X00853Y00407*
X00854Y00403*
X0085Y004*
X0082Y00431*
Y00522*
X009*
X00909Y00524*
X00916Y00529*
X00916Y0053*
X00921Y0053*
X00926Y00527*
X00928Y00527*
Y0057*
X00938*
Y00527*
X00939Y00527*
X00945Y00531*
X00948Y00532*
X00953Y00529*
X00958Y00528*
X00964Y00529*
X00969Y00532*
X00973*
X00978Y00529*
X00984Y00528*
X0099Y00529*
X00995Y00532*
X00999*
X01004Y00529*
X0101Y00528*
X01015Y00529*
X0102Y00532*
X01024*
X01029Y00529*
X01035Y00528*
X01041Y00529*
X01046Y00532*
X0105*
X01055Y00529*
X01061Y00528*
X01066Y00529*
X01071Y00532*
X01076*
X01081Y00529*
X01086Y00528*
X01092Y00529*
X01097Y00532*
X01099*
X011Y00531*
X01105Y00527*
X01107Y00527*
Y0057*
X01112*
Y00575*
X01129*
Y00587*
X01134Y00587*
X01135Y00584*
X01137Y0058*
X01181Y00536*
X01185Y00533*
X0119Y00532*
X01276*
X01277Y00528*
X01273Y00525*
X01268Y00518*
X01268Y00514*
X0131*
X01309Y00518*
X01305Y00525*
X013Y00528*
X01299Y00532*
Y00534*
X01303Y00536*
X01311Y00544*
X01314Y00548*
X01315Y00553*
Y0057*
X01319Y00573*
X01322Y00573*
X01328Y00574*
X01332Y00577*
X01337Y00574*
X01342Y00573*
X01346Y00573*
X0135Y0057*
Y00557*
X01328Y00535*
X01325Y00531*
X01324Y00526*
Y00488*
X01324*
X01324Y00487*
X01323Y00481*
X01321Y00475*
X01316Y00469*
X01311Y00465*
X01305Y00462*
X01299Y00462*
X01298Y00462*
X01298*
X01298Y00462*
X01279*
X01271Y0047*
X01272Y0047*
X0127Y00472*
X0127Y00474*
X0127Y00475*
X01268Y00482*
X01264Y00489*
X01257Y00493*
X0125Y00495*
X01242Y00493*
X01235Y00489*
X01231Y00482*
X01229Y00475*
X01231Y00467*
X01235Y0046*
X01242Y00456*
X0125Y00454*
X0125Y00454*
X01252Y00454*
X01254Y00452*
X01254Y00453*
X01254Y00453*
X01266Y00441*
X01268Y00439*
X0127Y00438*
X01275Y00437*
X01298*
X01298Y00437*
X01298*
X01299Y00437*
X01305Y00437*
X01311Y00434*
X01316Y0043*
X01316Y0043*
X01316Y0043*
X01322Y00425*
X01329Y00423*
X01336Y00422*
X01343Y00423*
X0135Y00425*
X01356Y0043*
X0136Y00436*
X01363Y00442*
X01364Y0045*
X01363Y00457*
X0136Y00463*
X01356Y00469*
X01356Y00469*
X01352Y00475*
X01349Y00481*
X01348Y00487*
X01348Y00488*
X01348*
Y00521*
X0137Y00543*
X01373Y00547*
X01374Y00552*
Y00568*
X01376Y0057*
Y00614*
Y00657*
X01375Y00657*
X0137Y00653*
X0137Y00653*
X01367Y00655*
X01362Y00656*
X01356Y00655*
X01352Y00652*
X01347Y00655*
X01342Y00656*
X01337Y00655*
X01332Y00652*
X01328Y00655*
X01322Y00656*
X01317Y00655*
X01312Y00652*
X01308Y00655*
X01303Y00656*
X01297Y00655*
X01293Y00652*
X01288Y00655*
X01283Y00656*
X01278Y00655*
X01273Y00652*
X0127Y00647*
X01269Y00642*
Y0063*
X01265Y00628*
X01264Y00628*
X01264Y00628*
X01257Y00633*
X0125Y00634*
X01242Y00633*
X01235Y00628*
X01231Y00622*
X01229Y00614*
X01231Y00607*
X01235Y006*
X01242Y00596*
X0125Y00594*
X01257Y00596*
X01264Y006*
X01264Y006*
X01265Y00601*
X01269Y00598*
Y00587*
X0127Y00581*
X01273Y00577*
X01278Y00574*
X01283Y00573*
X01287Y00573*
X01291Y0057*
Y00558*
X0129Y00557*
X01227*
X01225Y00561*
X0123Y00564*
X01235Y00572*
X01235Y00575*
X01193*
X01194Y00572*
X01198Y00564*
X01203Y00561*
X01202Y00557*
X01194*
X01158Y00593*
Y00629*
X01162Y00631*
X0117Y00629*
X01177Y00631*
X01184Y00635*
X01188Y00642*
X0119Y0065*
X01193Y00653*
X01197*
X01199Y00652*
X01204Y00651*
X01259*
X01265Y00652*
X01269Y00655*
X01272Y0066*
X01273Y00665*
X01272Y00671*
X01269Y00675*
X01272Y0068*
X01273Y00685*
X01272Y0069*
X01269Y00695*
X01272Y00699*
X01273Y00705*
X01272Y0071*
X01269Y00715*
X01272Y00719*
X01273Y00724*
X01272Y0073*
X01269Y00734*
X01272Y00739*
X01273Y00744*
X01272Y0075*
X01269Y00754*
X01272Y00758*
X01273Y00764*
X01272Y00769*
X01269Y00774*
X01272Y00778*
X01273Y00784*
X01272Y00789*
X01269Y00793*
X0127Y00795*
X01275Y00795*
X01275Y00795*
G37*
G36*
X00759Y00529D02*
X00766Y00524D01*
X00775Y00522*
X00789*
Y00425*
X00791Y00419*
X00794Y00414*
X00869Y00339*
X00889Y00319*
X00894Y00316*
X009Y00314*
X00919*
X00919Y00313*
X00922Y00308*
X00927Y00305*
X00933Y00304*
X00938Y00305*
X00939Y00305*
X00943Y00303*
Y00265*
X00943Y00265*
X00942Y0026*
X0094Y00256*
X0094Y00256*
X00932Y00247*
X00926Y00236*
X00923Y00224*
X00921Y00212*
X00921*
Y00189*
X00922Y00188*
X0092Y00175*
X00918Y00171*
X00913Y00171*
X00913Y00172*
X00909Y00179*
X00902Y00183*
X00895Y00185*
X00887Y00183*
X00885Y00182*
X00885*
X00885Y00182*
X00884Y00182*
X00884*
X00884Y00182*
X00881Y00182*
X00878Y00182*
X00874Y00184*
Y00208*
X00799*
Y00121*
X00874*
Y00145*
X00878Y00147*
X00881Y00147*
X00885Y00147*
X00885Y00147*
X00885Y00147*
X00885Y00147*
X00885*
X00887Y00146*
X00895Y00144*
X00896Y00137*
X00893Y00129*
X00891Y00115*
X00891*
Y00115*
X0089Y00112*
X00878*
Y00017*
X00876Y00015*
X00568*
Y00017*
Y00071*
X00569Y00071*
X00575Y00072*
X00604*
X00613Y00074*
X0062Y00079*
X00645Y00104*
X0065Y00111*
X00652Y0012*
Y00415*
Y0049*
X00725Y00563*
X00759Y00529*
G37*
G36*
X00188Y01241D02*
X00183Y0124D01*
X00182Y01244*
X00177Y01251*
X0017Y01256*
X00163Y01259*
X00157Y01259*
Y01229*
X00152*
Y01224*
X00119*
X00119Y01221*
X00122Y01213*
X00123Y01213*
X0012Y01208*
X00113*
X00107Y01207*
X00101Y01204*
X00099Y012*
X00094*
X0009Y01205*
X00084Y01209*
X00076Y01211*
X00072*
Y01141*
Y01072*
X00076*
X00084Y01073*
X0009Y01077*
X00094Y01083*
X00099*
X00101Y01079*
X00107Y01075*
X00113Y01074*
X0012*
X00123Y0107*
X00122Y01069*
X00119Y01062*
X00119Y01059*
X00152*
Y01054*
X00157*
Y01023*
X00163Y01024*
X0017Y01027*
X00177Y01032*
X00182Y01038*
X00183Y01042*
X00188Y01041*
Y00994*
Y00979*
X00188Y00978*
X00187Y00977*
Y00923*
X00174*
Y00945*
X00114*
Y00923*
X00092*
X00091Y0093*
X00086Y00936*
X0008Y00941*
X00072Y00942*
X00064Y00941*
X00058Y00936*
X00054Y0093*
X00052Y00922*
X00053Y00919*
X0005Y00915*
X00017*
Y00983*
X00022Y00984*
X00022Y00983*
X00028Y00976*
X00035Y0097*
X00044Y00967*
X00053Y00966*
X00062*
Y01*
Y01035*
X00053*
X00044Y01034*
X00035Y01031*
X00028Y01025*
X00022Y01018*
X00022Y01017*
X00017Y01018*
Y01278*
X00022Y01278*
X00023Y01273*
X00026Y01265*
X00032Y01257*
X00039Y01252*
X00048Y01248*
X00057Y01247*
X00062*
Y01282*
X00067*
Y01287*
X00112*
X00112Y01291*
X00108Y01299*
X00103Y01307*
X00096Y01312*
X00088Y01315*
X00089Y0132*
X00188*
Y01241*
G37*
G36*
X0125Y01096D02*
X01249Y01094D01*
X01247Y01086*
X01249Y01078*
X01253Y01072*
X01253Y01072*
X01255Y0107*
X01255Y01067*
X01255*
Y01032*
X01256Y01027*
X01259Y01023*
X0126Y01023*
X0126Y01022*
X01303Y00979*
X01301Y00974*
X01297Y00974*
X01293Y00971*
X01288Y00974*
X01283Y00975*
X01278Y00974*
X01273Y00971*
X0127Y00966*
X01269Y00961*
Y00906*
X0127Y009*
X01273Y00896*
X01278Y00893*
X01283Y00892*
X01288Y00893*
X01293Y00896*
X01297Y00893*
X01303Y00892*
X01303Y00892*
X01305Y00887*
X01304Y00887*
X01304Y00887*
X01294Y00876*
X01292Y00874*
X0129Y00875*
X01282Y00873*
X01276Y00869*
X01273Y0087*
X01271Y00874*
X01272Y00877*
X01273Y00882*
X01272Y00887*
X01269Y00892*
X01265Y00895*
X01259Y00896*
X01244*
Y00897*
X01243Y00902*
X01242Y00903*
X0124Y00906*
X0124Y00906*
X01238Y00909*
X01237Y00913*
X01238Y00916*
X01238Y00917*
X01238Y00917*
X01239Y00917*
X0124Y00925*
X01239Y00932*
X01234Y00939*
X01228Y00943*
X0122Y00945*
X01212Y00943*
X01206Y00939*
X01201Y00932*
X012Y00925*
X01201Y00917*
X01206Y00911*
X01208Y00909*
Y00909*
X01208Y00909*
X01208Y00909*
X01208Y00909*
X01209Y00904*
X01211Y009*
X01207Y00896*
X01204*
X01199Y00895*
X01194Y00892*
X01191Y00887*
X0119Y00882*
X0119Y00882*
X01184Y00881*
X01177Y00882*
X01169Y00881*
X01163Y00876*
X01158Y0087*
X01157Y00862*
X01158Y00855*
X0116Y00852*
X01157Y00848*
X01155Y00849*
X01147Y00847*
X01139Y00842*
X01134Y00835*
X01134Y00831*
X01155*
Y00821*
X01134*
X01134Y00818*
X01139Y00811*
X01138Y00806*
X01052*
X01047Y00805*
X01043Y00802*
X01036Y00796*
X01031Y00796*
X01027Y00798*
Y00811*
X01009*
X01008Y00816*
X01014Y00819*
X01021Y00823*
X01025Y0083*
X01028Y00837*
X01029Y0084*
X0097*
X00971Y00837*
X00974Y0083*
X00978Y00823*
X00985Y00819*
X00991Y00816*
X0099Y00811*
X00972*
Y00756*
X01027*
Y00769*
X01031Y00771*
X01037Y00771*
X01038Y00771*
Y00771*
X01041*
X01046Y00772*
X0105Y00775*
X01057Y00782*
X0112*
X01122Y00777*
X01098Y00754*
X01054*
X01049Y00753*
X01048Y00752*
X01046Y0075*
X01009Y00713*
X01006Y00709*
X01005Y00705*
Y00686*
X01001Y00683*
X00995Y00685*
X00987Y00683*
X0098Y00679*
X0098Y00679*
X00978Y00677*
X00975Y00677*
Y00677*
X00945*
X0094Y00676*
X00936Y00673*
X00899Y00636*
X00894Y00637*
X00893Y00642*
X00893Y00643*
Y00766*
X00896Y00769*
X00901Y00768*
Y00756*
X00956*
Y00811*
X00901*
Y00799*
X00896Y00798*
X00893Y00801*
Y00827*
X00896Y0083*
X00903Y00829*
X00909Y00825*
X00909Y00825*
X00909Y00825*
X00909Y00825*
X00915Y0082*
X00921Y00818*
X00929Y00817*
X00936Y00818*
X00943Y0082*
X00948Y00825*
X00953Y00831*
X00955Y00837*
X00956Y00845*
X00955Y00852*
X00953Y00858*
X00948Y00864*
X00943Y00869*
X00936Y00871*
X00929Y00872*
X00921Y00871*
X00915Y00869*
X00909Y00864*
X00909Y00864*
X00909Y00864*
X00909Y00864*
X00903Y0086*
X00896Y00859*
X00893Y00862*
Y00917*
X00924Y00949*
X00928Y00946*
X00928Y00945*
X00927Y00942*
X0097*
X00969Y00945*
X00968Y00947*
X0097Y00951*
X01006*
X01007Y00951*
X01008Y00951*
X01058Y009*
X01064Y00896*
X01071Y00895*
X01145*
X01152Y00896*
X01158Y009*
X01192Y00934*
X01196Y0094*
X01198Y00947*
Y0107*
X01222Y01094*
X01228Y01098*
X01237Y011*
X01237Y011*
X01239Y011*
X01248*
X0125Y01096*
G37*
G36*
X01635Y0149D02*
Y01488D01*
Y01307*
X01631Y01305*
X01593Y01343*
X01589Y01346*
X01585Y01347*
X01429*
X01424Y01346*
X01421Y01343*
X01384Y01307*
X01384Y01307*
X01382Y01306*
X0138Y01305*
X0138*
X01372Y01303*
X01365Y01299*
X01361Y01293*
X01359Y01285*
X01361Y01277*
X01365Y01271*
X01372Y01266*
X0138Y01265*
X01387Y01266*
X01394Y01271*
X01398Y01277*
X014Y01285*
X014Y01285*
X014Y01288*
X01402Y0129*
X01401Y0129*
X01434Y01322*
X01442*
Y01322*
Y01319*
Y01267*
X01455*
X01456Y01263*
X01457Y01257*
X01457Y01256*
X01457*
Y01235*
X01457*
X01458Y01228*
X01461Y01221*
X01465Y01216*
X01471Y01211*
X01477Y01208*
X01485Y01207*
Y01207*
X01485Y01207*
X01496Y01206*
X01506Y01202*
Y01182*
X01591*
Y01257*
X01506*
Y01237*
X01496Y01233*
X01485Y01232*
X01485Y01232*
X01484Y01232*
X01482Y01233*
X01481Y01235*
X01481*
Y01256*
X01481*
X01481Y01257*
X01482Y01263*
X01484Y01267*
X01497*
Y01319*
Y01322*
X01497Y01322*
X01512*
Y01322*
Y01267*
X01567*
Y0128*
X01571Y01282*
X01577Y01282*
X01578Y01282*
Y01282*
X01585*
X01602Y01265*
Y00968*
X01598Y00965*
X01595Y00966*
Y00945*
Y00923*
X01598Y00924*
X01602Y00921*
Y00779*
X01599Y00776*
X01594Y00776*
X01592Y0078*
X01592Y00784*
X01591Y00789*
X01588Y00793*
X01591Y00798*
X01592Y00803*
X01591Y00809*
X01588Y00813*
X01591Y00818*
X01592Y00823*
X01591Y00828*
X01588Y00833*
X01591Y00837*
X01592Y00843*
X01591Y00848*
X01589Y00851*
X0159Y00851*
X01593Y00856*
X01593Y00857*
X01551*
Y00867*
X01593*
X01593Y00868*
X0159Y00874*
X01589Y00874*
X01591Y00877*
X01592Y00882*
X01591Y00887*
X01588Y00892*
X01584Y00895*
X01578Y00896*
X01573*
X01569Y009*
X01571Y00907*
X01569Y00915*
X01565Y00921*
X01558Y00926*
X01551Y00927*
X01543Y00926*
X01536Y00921*
X01532Y00915*
X01531Y00907*
X01532Y009*
X01529Y00896*
X01523*
X01518Y00895*
X01513Y00892*
X0151Y00887*
X01509Y00882*
X01504*
X01503Y00887*
X01503Y00888*
X01504Y00893*
X01505Y00893*
X01509Y00896*
X01512Y009*
X01514Y00906*
Y00961*
X01512Y00966*
X01509Y00971*
X01505Y00974*
X015Y00975*
X01494Y00974*
X0149Y00971*
X01485Y00974*
X0148Y00975*
X01474Y00974*
X0147Y00971*
X01466Y00974*
X0146Y00975*
X01456Y00974*
X01452Y00977*
Y01018*
X01522Y01087*
X01522Y01087*
X01522Y01088*
X01531Y01094*
X01541Y01098*
X01551Y011*
X01552Y011*
X01561Y01101*
X01569Y01104*
X01577Y0111*
X01582Y01117*
X01586Y01126*
X01587Y01135*
X01586Y01143*
X01582Y01152*
X01577Y01159*
X01569Y01165*
X01561Y01168*
X01552Y01169*
X01543Y01168*
X01535Y01165*
X01527Y01159*
X01522Y01152*
X01518Y01143*
X01517Y01135*
X01517Y01134*
X01516Y01123*
X01512Y01113*
X01505Y01105*
X01505Y01104*
X01505Y01104*
X01432Y01031*
X01429Y01028*
X01428Y01023*
Y00977*
X01425Y00974*
X01421Y00975*
X01415Y00974*
X01413Y00972*
X01413Y00972*
X01407Y00976*
X01406Y00976*
Y00933*
X01396*
Y00976*
X01395Y00976*
X0139Y00972*
X01389Y00972*
X01387Y00974*
X01381Y00975*
X01378Y00974*
X01374Y00977*
Y00982*
X01373Y00986*
X0137Y0099*
X01342Y01018*
X01342Y01019*
X01335Y01027*
X01331Y01038*
X01329Y01049*
X0133Y0105*
X01328Y01057*
X01324Y01064*
X01317Y01068*
X01317Y01068*
X01316Y01073*
X01324Y01082*
X01326Y01084*
X01327Y01086*
X01328Y0109*
X01328*
X01328*
Y0109*
X01328Y0109*
X01328Y01091*
X01329Y01098*
X01334Y01104*
X01334Y01105*
X01336Y01106*
X01336Y01107*
X01338Y01108*
X01338Y01108*
X0134Y0111*
X01346Y01117*
X01349Y01126*
X01351Y01135*
X01349Y01143*
X01346Y01152*
X0134Y01159*
X01333Y01165*
X01325Y01168*
X01316Y01169*
X01307Y01168*
X01298Y01165*
X01291Y01159*
X01286Y01152*
X01282Y01143*
X01281Y01135*
X01282Y01126*
X01286Y01117*
X01291Y0111*
X01294Y01108*
X01294Y01108*
X01295Y01107*
X01295Y01106*
X01297Y01105*
X01298Y01104*
X01302Y01098*
X01303Y01094*
X01292Y01083*
X01287Y01085*
X01287Y01086*
X01286Y01094*
X01281Y011*
X01275Y01105*
X01271Y01105*
Y01169*
X01203*
Y01136*
X01202Y01135*
X01202Y01134*
X01201Y01126*
X01198Y01122*
X01194Y01124*
Y01129*
X01192Y01134*
X01189Y01138*
X0119Y01139*
X01189Y01139*
X01185Y01145*
X01182Y01152*
X01181Y0116*
X01181Y01162*
X01181Y01162*
X01181Y01163*
X01181Y01163*
X01181Y01165*
X0118Y01175*
X01176Y01184*
X0117Y01192*
X01162Y01198*
X01153Y01201*
X01143Y01203*
X01133Y01201*
X01124Y01198*
X01117Y01192*
X01111Y01184*
X01107Y01175*
X01105Y01165*
X01107Y01155*
X01111Y01146*
X01117Y01138*
X01124Y01132*
X01133Y01128*
X01143Y01127*
X01145Y01127*
X01145Y01127*
X01146Y01127*
X01146Y01127*
X01148Y01127*
X01156Y01126*
X01163Y01123*
X01165Y01122*
Y01088*
X01163Y01084*
X01161Y01077*
Y00954*
X01154Y00947*
X01149Y00948*
X01148Y00952*
X01144Y00958*
X01146Y00963*
X01153*
Y01018*
X01066*
Y01005*
X01062Y01003*
X01056Y01002*
X01056Y01003*
X01056*
X01056Y01002*
X01049*
X01046Y01007*
X01044Y01013*
X01043Y0102*
X01043*
X01042Y01027*
X01039Y01033*
X01035Y01039*
X01029Y01044*
X01022Y01046*
X01015Y01047*
X01008Y01046*
X01001Y01044*
X00995Y01039*
X00991Y01033*
X00988Y01027*
X00987Y0102*
X00988Y01012*
X00991Y01006*
X00995Y01*
X01001Y00995*
X01006Y00993*
X01006Y00991*
X01003Y00988*
X00957*
X00956Y00992*
X00959Y00994*
X00965Y00998*
X0097Y01005*
X00973Y01012*
X00973Y01015*
X00915*
X00915Y01012*
X00918Y01005*
X00923Y00998*
X00929Y00994*
X00932Y00992*
X00931Y00988*
X0092*
X00913Y00986*
X00907Y00982*
X00862Y00937*
X00858Y00931*
X00856Y00925*
Y00845*
Y00785*
Y00643*
X00856Y00642*
X00854Y00635*
X00856Y00627*
X0086Y0062*
X00867Y00616*
X00872Y00615*
X00873Y0061*
X00869Y00606*
X00869Y00607*
X00867Y00605*
X00865Y00605*
X00865Y00605*
X00857Y00603*
X0085Y00599*
X00846Y00592*
X00844Y00585*
X00846Y00577*
X0085Y00571*
X00848Y00567*
X00784*
X00756Y00595*
X00835Y00674*
X0084Y00681*
X00842Y0069*
Y01103*
X00883Y01145*
X00888Y01152*
X00889Y0116*
Y01248*
X00921Y0128*
X00926Y01278*
Y01211*
X01003*
Y01287*
X01043*
X01045Y01283*
X01037Y01277*
X01031Y01269*
X01027Y0126*
X01026Y0125*
X01027Y01239*
X01031Y0123*
X01037Y01222*
X01045Y01216*
X01054Y01212*
X01065Y01211*
X01075Y01212*
X01084Y01216*
X01092Y01222*
X01098Y0123*
X01102Y01239*
X01103Y0125*
X01102Y0126*
X01098Y01269*
X01092Y01277*
X01084Y01283*
X01086Y01287*
X01235*
X01243Y01289*
X0125Y01294*
X01265Y01309*
X0127Y01316*
X01272Y01325*
Y0138*
X01285*
Y01474*
X01214*
Y0138*
X01227*
Y01334*
X01225Y01332*
X0092*
X00911Y0133*
X00904Y01325*
X00859Y0128*
X00854Y01282*
Y01293*
X00907Y01346*
X01045*
Y0134*
X01086*
Y01389*
X01045*
Y01383*
X009*
X00893Y01381*
X00887Y01377*
X00823Y01314*
X00819Y01308*
X00818Y01301*
Y01181*
X00775Y01138*
X00774Y01139*
X0077Y01141*
X0077Y01143*
X00765Y0115*
X00758Y01155*
X00755Y01156*
Y01135*
Y01113*
X00758Y01114*
X00765Y01119*
X0077Y01116*
Y01035*
X00702Y00968*
X00472*
Y00968*
X00471Y00968*
X00471*
X00471Y00968*
X00469Y00975*
X00465Y00981*
X00458Y00986*
X00456Y00986*
X00455Y00992*
X00455Y00993*
X00455*
Y00995*
X00454Y01*
X00454Y01001*
X0045Y01006*
X00449Y01008*
X00452Y01012*
X00456Y0101*
X00459Y0101*
Y01039*
Y01068*
X00456Y01068*
X00449Y01065*
X00443Y0106*
X00439Y01056*
X00433Y0106*
X0043Y0106*
Y01039*
X00425*
Y01034*
X00404*
X00404Y01033*
X004Y01029*
X004Y0103*
X00392Y01028*
X00385Y01024*
X00381Y01017*
X00379Y0101*
X00381Y01002*
X00385Y00995*
X00392Y00991*
X004Y00989*
X00407Y00991*
X00411Y00993*
X00418*
X00419Y00986*
X00413Y00981*
X00409Y00975*
X00407Y00967*
Y00932*
X00409Y00924*
X00413Y00918*
X00419Y00913*
X00427Y00912*
X00451*
X00458Y00913*
X00464Y00917*
X00468Y00915*
X00468Y00907*
X00464Y00895*
X00461Y0089*
X00436*
Y0086*
X0043Y00857*
X00418Y00854*
X00408Y00853*
X00407*
X00406Y00853*
Y00853*
X00393*
X00392Y00853*
X00385Y00855*
X00377Y00853*
X0037Y00849*
X00366Y00842*
X00364Y00835*
X00366Y00827*
X0037Y0082*
X00377Y00816*
X00385Y00814*
X00392Y00816*
X00393Y00816*
X00406*
Y00816*
X00407Y00816*
X00408*
X00418Y00815*
X0043Y00812*
X00436Y00809*
Y00779*
X00538*
Y0089*
X00513*
X0051Y00895*
X00506Y00907*
X00505Y00918*
Y00918*
X00505Y00919*
X00505*
Y00931*
X006*
X00603Y00927*
X00598Y00921*
X00597Y0092*
X00591Y00912*
X00587Y00903*
X00586Y00893*
X00587Y00883*
X00591Y00874*
X00597Y00867*
X00605Y00861*
X00614Y00857*
X00624Y00855*
X00633Y00857*
X00642Y00861*
X0065Y00867*
X00656Y00874*
X0066Y00883*
X00661Y00893*
X0066Y00903*
X00656Y00912*
X0065Y0092*
X00649Y00921*
X00644Y00927*
X00647Y00931*
X0071*
X00716Y00933*
X00722Y00937*
X00793Y01007*
X00797Y01005*
Y00699*
X00709Y0061*
X00614Y00515*
X00609Y00508*
X00607Y005*
Y00415*
Y00129*
X00595Y00116*
X00575*
X00569Y00117*
X00568Y00118*
Y00171*
X00481*
Y00017*
X00479Y00015*
X00161*
X00017Y00159*
Y00352*
X00022Y00354*
X00027Y00351*
X00035Y00349*
X00042Y00351*
X00049Y00355*
X00053Y00362*
X00055Y0037*
X00053Y00377*
X00053Y00378*
Y00419*
X00057Y00421*
X00059Y00419*
X00066Y00414*
X0007Y00413*
Y00435*
Y00456*
X00066Y00455*
X00059Y0045*
X00057Y00448*
X00053Y0045*
Y00473*
X00128*
Y00646*
X00053*
Y00728*
X00494*
X00495Y00728*
X00503Y00726*
X00502Y00721*
X00495*
Y00677*
X00527*
Y00721*
X00503*
X00503Y00726*
X0051Y00728*
X00517Y00732*
X00521Y00739*
X00523Y00746*
X00521Y00754*
X00517Y0076*
X0051Y00765*
X00503Y00766*
X00495Y00765*
X00494Y00764*
X00061*
X0006Y00769*
X0007Y00779*
X0007Y00779*
X0007Y0078*
X00072Y00782*
X00117*
Y00887*
X00095*
X00092Y00896*
X0009Y00907*
Y00908*
X0009Y00909*
X0009*
Y00914*
X00091Y00914*
X00091Y00915*
X00196*
Y0092*
X0021*
Y0095*
Y00979*
X00196*
Y00994*
Y01129*
X00253*
Y01128*
Y01071*
X00303*
X00304Y01069*
Y01069*
X00326*
Y011*
X00336*
Y01069*
X00358*
Y01075*
X00362Y01077*
X00365Y01075*
X00369Y01075*
Y01096*
X00374*
Y01101*
X00395*
X00394Y01104*
X00389Y01112*
X00382Y01117*
X00377Y01118*
X00376Y01122*
X0038Y01125*
X00384Y01132*
X00386Y01139*
X00384Y01147*
X0038Y01153*
Y01157*
X00384Y01163*
X00386Y01171*
X00384Y01178*
X0038Y01185*
X00373Y01189*
X00366Y01191*
X00362Y0119*
X00358Y01193*
Y01205*
X00331*
Y0121*
X00326*
Y0124*
X00304*
Y01238*
X00303*
X00253*
Y01181*
X00251Y01179*
X00204*
X00202Y01183*
X00203Y01185*
X00205Y01192*
X00203Y012*
X00199Y01207*
X00196Y01208*
Y01328*
X00017*
Y0149*
X00161Y01633*
X00994*
X00995Y0163*
X00996Y01629*
X0099Y01624*
X00952Y01586*
X00947Y0158*
X00945Y01574*
X00944Y01566*
Y01543*
X00933*
Y01466*
X0101*
Y01543*
X00999*
Y01555*
X01021Y01577*
X0113*
X01131Y01577*
X01171*
Y01522*
X01086*
Y01467*
X01111*
Y01445*
X01113Y01438*
X01117Y01432*
X01135Y01413*
Y01389*
X01133*
Y0134*
X01174*
Y01389*
X01171*
Y01421*
X0117Y01428*
X01166Y01433*
X01148Y01452*
Y01467*
X01173*
Y01471*
X01195*
X01203Y01473*
X01211Y01478*
X01216Y01486*
X01218Y01494*
Y01535*
X01285*
Y01629*
Y0163*
X01288Y01633*
X01355*
X01357Y01629*
X01351Y01624*
X01345Y01616*
X01343Y01611*
X01338Y01611*
X01335Y01615*
X01328Y0162*
X01325Y01621*
Y016*
Y01578*
X01328Y01579*
X01335Y01584*
X01336Y01585*
X01338Y01585*
X01341Y01585*
X01345Y01576*
X01351Y01568*
X01359Y01561*
X01369Y01557*
X01374Y01557*
Y01596*
X01379*
Y01601*
X01419*
X01418Y01606*
X01414Y01616*
X01408Y01624*
X01402Y01629*
X01403Y01633*
X01492*
X01635Y0149*
G37*
%LNstepperpcb-2*%
%LPC*%
G36*
X0032Y00381D02*
X00316Y0038D01*
X00309Y00375*
X00304Y00368*
X00303Y00365*
X0032*
Y00381*
G37*
G36*
X008Y00369D02*
Y00353D01*
X00816*
X00815Y00356*
X00811Y00364*
X00803Y00368*
X008Y00369*
G37*
G36*
X01425Y00371D02*
Y00355D01*
X01441*
X0144Y00358*
X01435Y00365*
X01428Y0037*
X01425Y00371*
G37*
G36*
X01415D02*
X01411Y0037D01*
X01404Y00365*
X01399Y00358*
X01398Y00355*
X01415*
Y00371*
G37*
G36*
X0033Y00381D02*
Y00365D01*
X00346*
X00345Y00368*
X0034Y00375*
X00333Y0038*
X0033Y00381*
G37*
G36*
X01544Y00418D02*
X01528D01*
Y00401*
X01532Y00402*
X01539Y00407*
X01544Y00414*
X01544Y00418*
G37*
G36*
X0052Y0042D02*
X00503D01*
X00504Y00416*
X00509Y00409*
X00516Y00404*
X0052Y00403*
Y0042*
G37*
G36*
X00546D02*
X0053D01*
Y00403*
X00533Y00404*
X0054Y00409*
X00545Y00416*
X00546Y0042*
G37*
G36*
X00717Y00397D02*
X00701D01*
X00702Y00394*
X00707Y00387*
X00714Y00382*
X00717Y00381*
Y00397*
G37*
G36*
X00744D02*
X00727D01*
Y00381*
X00731Y00382*
X00738Y00387*
X00743Y00394*
X00744Y00397*
G37*
G36*
X01518Y00418D02*
X01502D01*
X01503Y00414*
X01507Y00407*
X01515Y00402*
X01518Y00401*
Y00418*
G37*
G36*
X0079Y00369D02*
X00786Y00368D01*
X00779Y00364*
X00774Y00356*
X00774Y00353*
X0079*
Y00369*
G37*
G36*
X00077Y003D02*
Y00284D01*
X00094*
X00093Y00288*
X00088Y00295*
X00081Y003*
X00077Y003*
G37*
G36*
X0052Y00394D02*
X00479D01*
Y0032*
X0052*
Y00394*
G37*
G36*
X0057D02*
X0053D01*
Y0032*
X0057*
Y00394*
G37*
G36*
X01172Y00296D02*
X01168Y00296D01*
X01161Y00291*
X01156Y00284*
X01155Y0028*
X01172*
Y00296*
G37*
G36*
X01182D02*
Y0028D01*
X01198*
X01197Y00284*
X01192Y00291*
X01185Y00296*
X01182Y00296*
G37*
G36*
X00067Y003D02*
X00064Y003D01*
X00057Y00295*
X00052Y00288*
X00051Y00284*
X00067*
Y003*
G37*
G36*
X01441Y00345D02*
X01425D01*
Y00328*
X01428Y00329*
X01435Y00334*
X0144Y00341*
X01441Y00345*
G37*
G36*
X0032Y00355D02*
X00303D01*
X00304Y00351*
X00309Y00344*
X00316Y00339*
X0032Y00338*
Y00355*
G37*
G36*
X00346D02*
X0033D01*
Y00338*
X00333Y00339*
X0034Y00344*
X00345Y00351*
X00346Y00355*
G37*
G36*
X0079Y00343D02*
X00774D01*
X00774Y00339*
X00779Y00332*
X00786Y00327*
X0079Y00327*
Y00343*
G37*
G36*
X00816D02*
X008D01*
Y00327*
X00803Y00327*
X00811Y00332*
X00815Y00339*
X00816Y00343*
G37*
G36*
X01415Y00345D02*
X01398D01*
X01399Y00341*
X01404Y00334*
X01411Y00329*
X01415Y00328*
Y00345*
G37*
G36*
X01284Y00504D02*
X01268D01*
X01268Y00501*
X01273Y00494*
X0128Y00489*
X01284Y00488*
Y00504*
G37*
G36*
X0131D02*
X01294D01*
Y00488*
X01297Y00489*
X01305Y00494*
X01309Y00501*
X0131Y00504*
G37*
G36*
X00875Y00514D02*
X00872Y00514D01*
X00865Y00511*
X00858Y00506*
X00854Y005*
X00851Y00493*
X0085Y0049*
X00875*
Y00514*
G37*
G36*
Y0048D02*
X0085D01*
X00851Y00477*
X00854Y0047*
X00858Y00464*
X00865Y00459*
X00872Y00456*
X00875Y00456*
Y0048*
G37*
G36*
X00909D02*
X00885D01*
Y00456*
X00887Y00456*
X00894Y00459*
X00901Y00464*
X00905Y0047*
X00908Y00477*
X00909Y0048*
G37*
G36*
X0038Y00646D02*
X00301D01*
Y00473*
X0038*
Y0054*
X00386Y00542*
X00389Y00543*
X00396Y00535*
X00397Y00531*
X00401Y00524*
X00408Y0052*
X00412Y00519*
X00426Y00506*
X00431Y00502*
X00432Y00502*
X00437Y00501*
X00443*
X0045Y005*
X00454Y00498*
Y0047*
X00525*
Y00564*
X00454*
Y00536*
X0045Y00534*
X00443Y00533*
X00435Y00542*
X00434Y00546*
X0043Y00553*
X00423Y00557*
X00419Y00558*
X00406Y00571*
X00401Y00574*
X004Y00575*
X00395Y00576*
Y00576*
X00394Y00576*
X00394*
X00386Y00577*
X0038Y00579*
Y00646*
G37*
G36*
X00885Y00514D02*
Y0049D01*
X00909*
X00908Y00493*
X00905Y005*
X00901Y00506*
X00894Y00511*
X00887Y00514*
X00885Y00514*
G37*
G36*
X01091Y00519D02*
X01075D01*
Y00502*
X01091*
Y00519*
G37*
G36*
X01518Y00542D02*
X01515Y00542D01*
X01507Y00537*
X01503Y0053*
X01502Y00526*
X01518*
Y00542*
G37*
G36*
X01528D02*
Y00526D01*
X01544*
X01544Y0053*
X01539Y00537*
X01532Y00542*
X01528Y00542*
G37*
G36*
X01518Y00516D02*
X01502D01*
X01503Y00513*
X01507Y00505*
X01515Y00501*
X01518Y005*
Y00516*
G37*
G36*
X01544D02*
X01528D01*
Y005*
X01532Y00501*
X01539Y00505*
X01544Y00513*
X01544Y00516*
G37*
G36*
X0097Y00519D02*
X00953D01*
Y00502*
X0097*
Y00519*
G37*
G36*
X01065D02*
X01027D01*
Y00497*
Y00455*
X01091*
Y00492*
X0107*
Y00497*
X01065*
Y00519*
G37*
G36*
X01402Y00445D02*
X01378D01*
X01378Y00442*
X01381Y00435*
X01386Y00428*
X01392Y00424*
X01399Y00421*
X01402Y0042*
Y00445*
G37*
G36*
X01436D02*
X01412D01*
Y0042*
X01415Y00421*
X01422Y00424*
X01428Y00428*
X01433Y00435*
X01436Y00442*
X01436Y00445*
G37*
G36*
X01518Y00444D02*
X01515Y00443D01*
X01507Y00438*
X01503Y00431*
X01502Y00428*
X01518*
Y00444*
G37*
G36*
X00717Y00424D02*
X00714Y00423D01*
X00707Y00418*
X00702Y00411*
X00701Y00407*
X00717*
Y00424*
G37*
G36*
X00727D02*
Y00407D01*
X00744*
X00743Y00411*
X00738Y00418*
X00731Y00423*
X00727Y00424*
G37*
G36*
X00096Y0043D02*
X0008D01*
Y00413*
X00083Y00414*
X0009Y00419*
X00095Y00426*
X00096Y0043*
G37*
G36*
X01528Y00444D02*
Y00428D01*
X01544*
X01544Y00431*
X01539Y00438*
X01532Y00443*
X01528Y00444*
G37*
G36*
X01402Y00479D02*
X01399Y00478D01*
X01392Y00475*
X01386Y00471*
X01381Y00464*
X01378Y00457*
X01378Y00455*
X01402*
Y00479*
G37*
G36*
X01412D02*
Y00455D01*
X01436*
X01436Y00457*
X01433Y00464*
X01428Y00471*
X01422Y00475*
X01415Y00478*
X01412Y00479*
G37*
G36*
X01017Y00519D02*
X0098D01*
Y00497*
X00975*
Y00492*
X00953*
Y00455*
X01017*
Y00497*
Y00519*
G37*
G36*
X0052Y00446D02*
X00516Y00445D01*
X00509Y0044*
X00504Y00433*
X00503Y0043*
X0052*
Y00446*
G37*
G36*
X0053D02*
Y0043D01*
X00546*
X00545Y00433*
X0054Y0044*
X00533Y00445*
X0053Y00446*
G37*
G36*
X0008Y00456D02*
Y0044D01*
X00096*
X00095Y00443*
X0009Y0045*
X00083Y00455*
X0008Y00456*
G37*
G36*
X00762Y00305D02*
X00727D01*
Y00265*
X00762*
Y00305*
G37*
G36*
X00809Y00082D02*
X00806Y00081D01*
X00799Y00076*
X00794Y00069*
X00793Y00066*
X00809*
Y00082*
G37*
G36*
X00819D02*
Y00066D01*
X00836*
X00835Y00069*
X0083Y00076*
X00823Y00081*
X00819Y00082*
G37*
G36*
X00138Y00107D02*
X00122D01*
X00123Y00103*
X00127Y00096*
X00135Y00091*
X00138Y0009*
Y00107*
G37*
G36*
X00744Y00082D02*
X00727D01*
Y00065*
X00731Y00066*
X00738Y00071*
X00743Y00078*
X00744Y00082*
G37*
G36*
X00331Y00082D02*
X00328Y00081D01*
X0032Y00076*
X00316Y00069*
X00315Y00066*
X00331*
Y00082*
G37*
G36*
X00341D02*
Y00066D01*
X00357*
X00357Y00069*
X00352Y00076*
X00345Y00081*
X00341Y00082*
G37*
G36*
X00164Y00107D02*
X00148D01*
Y0009*
X00152Y00091*
X00159Y00096*
X00164Y00103*
X00164Y00107*
G37*
G36*
X00727Y00108D02*
Y00092D01*
X00744*
X00743Y00095*
X00738Y00102*
X00731Y00107*
X00727Y00108*
G37*
G36*
X00138Y00133D02*
X00135Y00132D01*
X00127Y00127*
X00123Y0012*
X00122Y00117*
X00138*
Y00133*
G37*
G36*
X00148D02*
Y00117D01*
X00164*
X00164Y0012*
X00159Y00127*
X00152Y00132*
X00148Y00133*
G37*
G36*
X01532Y00107D02*
X01516D01*
X01516Y00103*
X01521Y00096*
X01528Y00091*
X01532Y0009*
Y00107*
G37*
G36*
X01558D02*
X01542D01*
Y0009*
X01545Y00091*
X01553Y00096*
X01557Y00103*
X01558Y00107*
G37*
G36*
X00717Y00108D02*
X00714Y00107D01*
X00707Y00102*
X00702Y00095*
X00701Y00092*
X00717*
Y00108*
G37*
G36*
X01414Y0005D02*
X01398D01*
Y00033*
X01402Y00034*
X01409Y00039*
X01414Y00046*
X01414Y0005*
G37*
G36*
X00331Y00056D02*
X00315D01*
X00316Y00052*
X0032Y00045*
X00328Y0004*
X00331Y00039*
Y00056*
G37*
G36*
X00357D02*
X00341D01*
Y00039*
X00345Y0004*
X00352Y00045*
X00357Y00052*
X00357Y00056*
G37*
G36*
X01203Y0005D02*
X01187D01*
X01188Y00046*
X01192Y00039*
X012Y00034*
X01203Y00033*
Y0005*
G37*
G36*
X01229D02*
X01213D01*
Y00033*
X01217Y00034*
X01224Y00039*
X01229Y00046*
X01229Y0005*
G37*
G36*
X01388D02*
X01372D01*
X01373Y00046*
X01377Y00039*
X01385Y00034*
X01388Y00033*
Y0005*
G37*
G36*
X00809Y00056D02*
X00793D01*
X00794Y00052*
X00799Y00045*
X00806Y0004*
X00809Y00039*
Y00056*
G37*
G36*
X01388Y00076D02*
X01385Y00075D01*
X01377Y0007*
X01373Y00063*
X01372Y0006*
X01388*
Y00076*
G37*
G36*
X01398D02*
Y0006D01*
X01414*
X01414Y00063*
X01409Y0007*
X01402Y00075*
X01398Y00076*
G37*
G36*
X00717Y00082D02*
X00701D01*
X00702Y00078*
X00707Y00071*
X00714Y00066*
X00717Y00065*
Y00082*
G37*
G36*
X00836Y00056D02*
X00819D01*
Y00039*
X00823Y0004*
X0083Y00045*
X00835Y00052*
X00836Y00056*
G37*
G36*
X01203Y00076D02*
X012Y00075D01*
X01192Y0007*
X01188Y00063*
X01187Y0006*
X01203*
Y00076*
G37*
G36*
X01213D02*
Y0006D01*
X01229*
X01229Y00063*
X01224Y0007*
X01217Y00075*
X01213Y00076*
G37*
G36*
X01532Y00133D02*
X01528Y00132D01*
X01521Y00127*
X01516Y0012*
X01516Y00117*
X01532*
Y00133*
G37*
G36*
X01593Y00253D02*
X01589Y00252D01*
X01582Y00248*
X01577Y0024*
X01577Y00237*
X01593*
Y00253*
G37*
G36*
X01603D02*
Y00237D01*
X01619*
X01618Y0024*
X01614Y00248*
X01606Y00252*
X01603Y00253*
G37*
G36*
X00874Y00303D02*
X00799D01*
Y00216*
X00874*
Y0024*
X00878Y00242*
X00881Y00242*
X00885Y00242*
X00885Y00242*
X00885Y00242*
X00885Y00242*
X00885*
X00887Y00241*
X00895Y00239*
X00902Y00241*
X00909Y00245*
X00913Y00252*
X00915Y0026*
X00913Y00267*
X00909Y00274*
X00902Y00278*
X00895Y0028*
X00887Y00278*
X00885Y00277*
X00885*
X00885Y00277*
X00885Y00277*
X00884Y00277*
X00883*
X00881Y00277*
X00878Y00277*
X00874Y00279*
Y00303*
G37*
G36*
X00414Y00241D02*
X00398D01*
Y00224*
X00402Y00225*
X00409Y0023*
X00414Y00237*
X00414Y00241*
G37*
G36*
X0052Y0031D02*
X00479D01*
Y00236*
X0052*
Y0031*
G37*
G36*
X0057D02*
X0053D01*
Y00236*
X0057*
Y0031*
G37*
G36*
X00388Y00267D02*
X00385Y00266D01*
X00377Y00261*
X00373Y00254*
X00372Y00251*
X00388*
Y00267*
G37*
G36*
X00067Y00274D02*
X00051D01*
X00052Y00271*
X00057Y00263*
X00064Y00258*
X00067Y00258*
Y00274*
G37*
G36*
X00094D02*
X00077D01*
Y00258*
X00081Y00258*
X00088Y00263*
X00093Y00271*
X00094Y00274*
G37*
G36*
X00717Y00305D02*
X00683D01*
Y00265*
X00717*
Y00305*
G37*
G36*
X00398Y00267D02*
Y00251D01*
X00414*
X00414Y00254*
X00409Y00261*
X00402Y00266*
X00398Y00267*
G37*
G36*
X01172Y0027D02*
X01155D01*
X01156Y00267*
X01161Y00259*
X01168Y00255*
X01172Y00254*
Y0027*
G37*
G36*
X01198D02*
X01182D01*
Y00254*
X01185Y00255*
X01192Y00259*
X01197Y00267*
X01198Y0027*
G37*
G36*
X00216Y00283D02*
X00203Y00282D01*
X0019Y00278*
X00179Y00272*
X00168Y00264*
X0016Y00253*
X00154Y00242*
X0015Y00229*
X00149Y00216*
X0015Y00203*
X00154Y0019*
X0016Y00179*
X00168Y00168*
X00179Y0016*
X0019Y00154*
X00203Y0015*
X00216Y00149*
X00229Y0015*
X00242Y00154*
X00253Y0016*
X00264Y00168*
X00272Y00179*
X00278Y0019*
X00282Y00203*
X00283Y00216*
X00282Y00229*
X00278Y00242*
X00272Y00253*
X00264Y00264*
X00253Y00272*
X00242Y00278*
X00229Y00282*
X00216Y00283*
G37*
G36*
X01437D02*
X01423Y00282D01*
X01411Y00278*
X01399Y00272*
X01389Y00264*
X01381Y00253*
X01374Y00242*
X01371Y00229*
X01369Y00216*
X01371Y00203*
X01374Y0019*
X01381Y00179*
X01389Y00168*
X01399Y0016*
X01411Y00154*
X01423Y0015*
X01437Y00149*
X0145Y0015*
X01462Y00154*
X01474Y0016*
X01484Y00168*
X01492Y00179*
X01499Y0019*
X01502Y00203*
X01504Y00216*
X01502Y00229*
X01499Y00242*
X01492Y00253*
X01484Y00264*
X01474Y00272*
X01462Y00278*
X0145Y00282*
X01437Y00283*
G37*
G36*
X01203Y00183D02*
X01187D01*
X01188Y0018*
X01192Y00173*
X012Y00168*
X01203Y00167*
Y00183*
G37*
G36*
X01542Y00133D02*
Y00117D01*
X01558*
X01557Y0012*
X01553Y00127*
X01545Y00132*
X01542Y00133*
G37*
G36*
X00717Y0016D02*
X00683D01*
Y00119*
X00717*
Y0016*
G37*
G36*
X00762D02*
X00727D01*
Y00119*
X00762*
Y0016*
G37*
G36*
X01229Y00183D02*
X01213D01*
Y00167*
X01217Y00168*
X01224Y00173*
X01229Y0018*
X01229Y00183*
G37*
G36*
X01619Y00227D02*
X01603D01*
Y00211*
X01606Y00211*
X01614Y00216*
X01618Y00223*
X01619Y00227*
G37*
G36*
X00762Y00255D02*
X00683D01*
Y00214*
Y0021*
Y0017*
X00762*
Y0021*
Y00214*
Y00255*
G37*
G36*
X00388Y00241D02*
X00372D01*
X00373Y00237*
X00377Y0023*
X00385Y00225*
X00388Y00224*
Y00241*
G37*
G36*
X01203Y0021D02*
X012Y00209D01*
X01192Y00204*
X01188Y00197*
X01187Y00193*
X01203*
Y0021*
G37*
G36*
X01213D02*
Y00193D01*
X01229*
X01229Y00197*
X01224Y00204*
X01217Y00209*
X01213Y0021*
G37*
G36*
X01593Y00227D02*
X01577D01*
X01577Y00223*
X01582Y00216*
X01589Y00211*
X01593Y00211*
Y00227*
G37*
G36*
X01129Y00565D02*
X01117D01*
Y00527*
X01118Y00527*
X01124Y00531*
X01128Y00536*
X01129Y00543*
Y00565*
G37*
G36*
X00433Y01263D02*
X00417D01*
X00417Y01259*
X00422Y01252*
X00429Y01247*
X00433Y01247*
Y01263*
G37*
G36*
X00112Y01277D02*
X00072D01*
Y01247*
X00078*
X00087Y01248*
X00096Y01252*
X00103Y01257*
X00108Y01265*
X00112Y01273*
X00112Y01277*
G37*
G36*
X00433Y01332D02*
X00429Y01332D01*
X00422Y01327*
X00417Y0132*
X00417Y01316*
X00433*
Y01332*
G37*
G36*
X01396Y0126D02*
X01381D01*
X01371Y01258*
X01363Y01252*
X01358Y01244*
X01356Y01234*
Y01225*
X01396*
Y0126*
G37*
G36*
X0142D02*
X01406D01*
Y01225*
X01446*
Y01234*
X01444Y01244*
X01438Y01252*
X0143Y01258*
X0142Y0126*
G37*
G36*
X00147Y01259D02*
X00141Y01259D01*
X00134Y01256*
X00127Y01251*
X00122Y01244*
X00119Y01237*
X00119Y01234*
X00147*
Y01259*
G37*
G36*
X00486Y01332D02*
Y01316D01*
X00502*
X00502Y0132*
X00497Y01327*
X0049Y01332*
X00486Y01332*
G37*
G36*
X01589Y01406D02*
X01573D01*
X01573Y01402*
X01578Y01395*
X01585Y0139*
X01589Y0139*
Y01406*
G37*
G36*
X01615D02*
X01599D01*
Y0139*
X01603Y0139*
X0161Y01395*
X01615Y01402*
X01615Y01406*
G37*
G36*
X01589Y01432D02*
X01585Y01431D01*
X01578Y01427*
X01573Y01419*
X01573Y01416*
X01589*
Y01432*
G37*
G36*
X00476Y01332D02*
X00473Y01332D01*
X00465Y01327*
X00462Y01322*
X00457*
X00454Y01327*
X00446Y01332*
X00443Y01332*
Y01311*
X00438*
Y01306*
X00417*
X00417Y01303*
X00422Y01295*
X00427Y01292*
Y01287*
X00422Y01284*
X00417Y01276*
X00417Y01273*
X00438*
Y01268*
X00443*
Y01247*
X00446Y01247*
X00454Y01252*
X00457Y01257*
X00462*
X00465Y01252*
X00466Y01248*
X00463Y01246*
X00458Y01239*
X00455Y01232*
X00455Y0123*
X00513*
X00513Y01232*
X0051Y01239*
X00505Y01246*
X00499Y0125*
X00497Y01252*
X00502Y01259*
X00502Y01263*
X00481*
Y01273*
X00502*
X00502Y01276*
X00497Y01284*
X00492Y01287*
Y01292*
X00497Y01295*
X00502Y01303*
X00502Y01306*
X00481*
Y01311*
X00476*
Y01332*
G37*
G36*
X00216Y01504D02*
X00203Y01502D01*
X0019Y01499*
X00179Y01492*
X00168Y01484*
X0016Y01474*
X00154Y01462*
X0015Y0145*
X00149Y01437*
X0015Y01423*
X00154Y01411*
X0016Y01399*
X00168Y01389*
X00179Y01381*
X0019Y01374*
X00203Y01371*
X00216Y01369*
X00229Y01371*
X00242Y01374*
X00253Y01381*
X00264Y01389*
X00272Y01399*
X00278Y01411*
X00282Y01423*
X00283Y01437*
X00282Y0145*
X00278Y01462*
X00272Y01474*
X00264Y01484*
X00253Y01492*
X00242Y01499*
X00229Y01502*
X00216Y01504*
G37*
G36*
X01437D02*
X01423Y01502D01*
X01411Y01499*
X01399Y01492*
X01389Y01484*
X01381Y01474*
X01374Y01462*
X01371Y0145*
X01369Y01437*
X01371Y01423*
X01374Y01411*
X01381Y01399*
X01389Y01389*
X01399Y01381*
X01411Y01374*
X01423Y01371*
X01437Y01369*
X0145Y01371*
X01462Y01374*
X01474Y01381*
X01484Y01389*
X01492Y01399*
X01499Y01411*
X01502Y01423*
X01504Y01437*
X01502Y0145*
X01499Y01462*
X01492Y01474*
X01484Y01484*
X01474Y01492*
X01462Y01499*
X0145Y01502*
X01437Y01504*
G37*
G36*
X01446Y01215D02*
X01406D01*
Y01179*
X0142*
X0143Y01181*
X01438Y01187*
X01444Y01195*
X01446Y01205*
Y01215*
G37*
G36*
X0077D02*
X00746D01*
X00746Y01212*
X00749Y01205*
X00754Y01198*
X0076Y01194*
X00767Y01191*
X0077Y0119*
Y01215*
G37*
G36*
X00804D02*
X0078D01*
Y0119*
X00783Y01191*
X0079Y01194*
X00796Y01198*
X00801Y01205*
X00804Y01212*
X00804Y01215*
G37*
G36*
X00062Y01211D02*
X00059D01*
X00051Y01209*
X00045Y01205*
X00041Y01199*
X00039Y01191*
Y01146*
X00062*
Y01211*
G37*
G36*
X00519Y01189D02*
X00512Y01187D01*
X00505Y01183*
X00501Y01176*
X00499Y01169*
X00501Y01161*
X00501Y01161*
X00498Y01157*
X00486*
X00483Y0116*
X00484Y01165*
X00482Y01172*
X00478Y01179*
X00471Y01183*
X00464Y01185*
X00456Y01183*
X00449Y01179*
X00445Y01172*
X00444Y01165*
X00445Y01157*
X00449Y0115*
X0045Y0115*
X00451Y01148*
X00451Y01145*
X00452Y01145*
X00452Y01144*
X0045Y01138*
X00446Y01132*
X00445Y01131*
X00445Y01131*
X00445Y0113*
X00445Y0113*
X00444Y0113*
X0044Y01124*
X00437Y01117*
X00436Y0111*
X00437Y01103*
X0044Y01096*
X00444Y0109*
X0045Y01086*
X00456Y01083*
X00464Y01082*
X00471Y01083*
X00478Y01086*
X00483Y0109*
X00488Y01096*
X00491Y01103*
X00491Y0111*
X00491Y01117*
X00488Y01124*
X00485Y01128*
X00487Y01132*
X00502*
Y01082*
X00557*
Y01091*
X00561Y01094*
X00563Y01093*
X00564Y01092*
X00565Y01093*
X00566Y01091*
X00574Y0109*
X00582Y01091*
X00583Y01093*
X00588Y0109*
Y0108*
X00562Y01054*
X00557Y01056*
Y01067*
X00502*
Y01012*
X00557*
Y01026*
X00557Y01026*
X00563Y01027*
X00564Y01027*
X00564*
Y01027*
X00569Y01028*
X00573Y01031*
X00608Y01066*
X0061Y01069*
X00611Y0107*
X00612Y01075*
Y01131*
X00611Y01136*
X00608Y0114*
X00571Y01177*
X00567Y0118*
X00562Y01181*
X00538*
Y01181*
X00536Y01181*
X00533Y01183*
X00533Y01183*
X00527Y01187*
X00519Y01189*
G37*
G36*
X01396Y01215D02*
X01356D01*
Y01205*
X01358Y01195*
X01363Y01187*
X01371Y01181*
X01381Y01179*
X01396*
Y01215*
G37*
G36*
X00595Y01435D02*
X00587Y01433D01*
X0058Y01429*
X00576Y01422*
X00574Y01415*
X00576Y01407*
X0058Y014*
X00587Y01396*
X00595Y01394*
X00602Y01396*
X00609Y014*
X00609Y014*
X00611Y01402*
X00614Y01402*
Y01402*
Y01402*
X0066*
X0066Y01402*
X00669Y01401*
X00677Y01398*
X00684Y01393*
X00684Y01393*
X00684Y01392*
X00689Y01386*
X0069Y01378*
X0069Y01377*
Y0137*
X00661*
Y01259*
X00682*
X00687Y0125*
X00689Y01245*
X00689Y01245*
X00684Y01239*
X00684Y01239*
X0068Y01233*
X00677Y01227*
X00676Y0122*
X00677Y01212*
X0068Y01206*
X00684Y012*
X0069Y01195*
X00697Y01193*
X00704Y01192*
X00711Y01193*
X00718Y01195*
X00724Y012*
X00728Y01206*
X00731Y01212*
X00732Y0122*
X00731Y01227*
X00728Y01233*
X00724Y01239*
X00724Y01239*
X0072Y01245*
X00718Y01248*
X00723Y01259*
X00744*
Y0137*
X00714*
Y01377*
X00715*
X00713Y01389*
X00708Y014*
X00701Y0141*
X00701Y0141*
X00689Y01419*
X00675Y01425*
X0066Y01427*
Y01427*
X00614*
Y01427*
X00611Y01427*
X00609Y01429*
X00609Y01429*
X00602Y01433*
X00595Y01435*
G37*
G36*
X00358Y0124D02*
X00336D01*
Y01215*
X00358*
Y0124*
G37*
G36*
X0077Y01249D02*
X00767Y01248D01*
X0076Y01245*
X00754Y01241*
X00749Y01234*
X00746Y01227*
X00746Y01225*
X0077*
Y01249*
G37*
G36*
X0078D02*
Y01225D01*
X00804*
X00804Y01227*
X00801Y01234*
X00796Y01241*
X0079Y01245*
X00783Y01248*
X0078Y01249*
G37*
G36*
X00479Y0122D02*
X00455D01*
X00455Y01217*
X00458Y0121*
X00463Y01203*
X00469Y01199*
X00476Y01196*
X00479Y01195*
Y0122*
G37*
G36*
X00513D02*
X00489D01*
Y01195*
X00492Y01196*
X00499Y01199*
X00505Y01203*
X0051Y0121*
X00513Y01217*
X00513Y0122*
G37*
G36*
X00557Y01401D02*
X00549Y014D01*
X00542Y01396*
X00538Y01389*
X00537Y01381*
X00538Y01374*
X00532Y0137*
X00515*
Y01259*
X00536*
X0054Y01251*
X00539Y0125*
X00535Y01244*
X00535Y01244*
X00531Y01238*
X00528Y01232*
X00527Y01225*
X00528Y01217*
X00531Y01211*
X00535Y01205*
X00541Y012*
X00547Y01198*
X00555Y01197*
X00562Y01198*
X00569Y012*
X00574Y01205*
X00579Y01211*
X00582Y01217*
X00582Y01225*
X00582Y01232*
X00579Y01238*
X00574Y01244*
X00574Y01244*
X00571Y01248*
X00572Y0125*
X00577Y01259*
X00598*
Y0137*
X00581*
X00575Y01374*
X00577Y01381*
X00575Y01389*
X00571Y01396*
X00564Y014*
X00557Y01401*
G37*
G36*
X01599Y01432D02*
Y01416D01*
X01615*
X01615Y01419*
X0161Y01427*
X01603Y01431*
X01599Y01432*
G37*
G36*
X00166Y01556D02*
X0015D01*
Y01539*
X00154Y0154*
X00161Y01545*
X00166Y01552*
X00166Y01556*
G37*
G36*
X01419Y01591D02*
X01384D01*
Y01557*
X0139Y01557*
X01399Y01561*
X01408Y01568*
X01414Y01576*
X01418Y01586*
X01419Y01591*
G37*
G36*
X0014Y01582D02*
X00137Y01581D01*
X00129Y01576*
X00125Y01569*
X00124Y01566*
X0014*
Y01582*
G37*
G36*
X01542Y01544D02*
X01538Y01544D01*
X01531Y01539*
X01526Y01532*
X01526Y01528*
X01542*
Y01544*
G37*
G36*
X01552D02*
Y01528D01*
X01568*
X01567Y01532*
X01562Y01539*
X01555Y01544*
X01552Y01544*
G37*
G36*
X0014Y01556D02*
X00124D01*
X00125Y01552*
X00129Y01545*
X00137Y0154*
X0014Y01539*
Y01556*
G37*
G36*
X0015Y01582D02*
Y01566D01*
X00166*
X00166Y01569*
X00161Y01576*
X00154Y01581*
X0015Y01582*
G37*
G36*
X01315Y01621D02*
X01311Y0162D01*
X01304Y01615*
X01299Y01608*
X01298Y01605*
X01315*
Y01621*
G37*
G36*
X0025Y01621D02*
X00247Y0162D01*
X0024Y01616*
X00235Y01608*
X00234Y01605*
X0025*
Y01621*
G37*
G36*
X0026D02*
Y01605D01*
X00277*
X00276Y01608*
X00271Y01616*
X00264Y0162*
X0026Y01621*
G37*
G36*
X01315Y01595D02*
X01298D01*
X01299Y01591*
X01304Y01584*
X01311Y01579*
X01315Y01578*
Y01595*
G37*
G36*
X0025Y01595D02*
X00234D01*
X00235Y01591*
X0024Y01584*
X00247Y01579*
X0025Y01579*
Y01595*
G37*
G36*
X00277D02*
X0026D01*
Y01579*
X00264Y01579*
X00271Y01584*
X00276Y01591*
X00277Y01595*
G37*
G36*
X00057Y01479D02*
X00054Y01479D01*
X00047Y01474*
X00042Y01467*
X00041Y01463*
X00057*
Y01479*
G37*
G36*
X00067D02*
Y01463D01*
X00084*
X00083Y01467*
X00078Y01474*
X00071Y01479*
X00067Y01479*
G37*
G36*
X00868Y015D02*
X00833D01*
X00833Y01494*
X00838Y01484*
X00844Y01476*
X00852Y01469*
X00862Y01465*
X00868Y01464*
Y015*
G37*
G36*
X00453Y01513D02*
X00376D01*
Y01436*
X00453*
Y01513*
G37*
G36*
X00057Y01453D02*
X00041D01*
X00042Y0145*
X00047Y01442*
X00054Y01438*
X00057Y01437*
Y01453*
G37*
G36*
X00084D02*
X00067D01*
Y01437*
X00071Y01438*
X00078Y01442*
X00083Y0145*
X00084Y01453*
G37*
G36*
X00913Y015D02*
X00878D01*
Y01464*
X00884Y01465*
X00893Y01469*
X00902Y01476*
X00908Y01484*
X00912Y01494*
X00913Y015*
G37*
G36*
X01568Y01518D02*
X01552D01*
Y01502*
X01555Y01503*
X01562Y01507*
X01567Y01515*
X01568Y01518*
G37*
G36*
X00868Y01545D02*
X00862Y01544D01*
X00852Y0154*
X00844Y01533*
X00838Y01525*
X00833Y01515*
X00833Y0151*
X00868*
Y01545*
G37*
G36*
X00878D02*
Y0151D01*
X00913*
X00912Y01515*
X00908Y01525*
X00902Y01533*
X00893Y0154*
X00884Y01544*
X00878Y01545*
G37*
G36*
X006Y01595D02*
X00592Y01593D01*
X00585Y01589*
X00581Y01582*
X00579Y01575*
X00581Y01567*
X00585Y0156*
X00592Y01556*
X006Y01554*
X00607Y01556*
X00614Y0156*
X00614Y0156*
X00616Y01562*
X00619Y01562*
Y01562*
Y01562*
X0067*
X0067Y01563*
X00684Y01561*
X00697Y01557*
X0071Y0155*
X0072Y01542*
X00721Y01541*
X00721Y01541*
X00722Y0154*
X00729Y01531*
X00734Y01518*
X00736Y01506*
X00736Y01505*
X00737Y01494*
X00741Y01485*
X00747Y01477*
X00755Y01471*
X00764Y01467*
X00775Y01466*
X00785Y01467*
X00794Y01471*
X00802Y01477*
X00808Y01485*
X00812Y01494*
X00813Y01505*
X00812Y01515*
X00808Y01524*
X00802Y01532*
X00794Y01538*
X00785Y01542*
X00775Y01543*
X00773Y01543*
X00761Y01545*
X00748Y0155*
X00739Y01557*
X00738Y01558*
X00738Y01559*
X00723Y01571*
X00707Y01579*
X00688Y01585*
X0067Y01587*
Y01587*
X00619*
Y01587*
X00616Y01587*
X00614Y01589*
X00614Y01589*
X00607Y01593*
X006Y01595*
G37*
G36*
X00676Y01543D02*
X00666Y01542D01*
X00657Y01538*
X00649Y01532*
X00643Y01524*
X00639Y01515*
X00637Y01505*
X00639Y01494*
X0064Y01492*
X00639Y01492*
X0064Y0149*
X00637Y01487*
X00579*
Y01487*
X00577Y01487*
X00565Y01488*
X00553Y01493*
X00543Y01501*
X00542Y01502*
X00534Y01508*
X00525Y01512*
X00515Y01513*
X00504Y01512*
X00495Y01508*
X00487Y01502*
X00481Y01494*
X00477Y01485*
X00476Y01475*
X00477Y01464*
X00481Y01455*
X00487Y01447*
X00495Y01441*
X00504Y01437*
X00515Y01436*
X00525Y01437*
X00534Y01441*
X00542Y01447*
X00543Y01448*
X00553Y01456*
X00565Y01461*
X00577Y01462*
X00579Y01462*
Y01462*
X00646*
X00651Y01463*
X00655Y01466*
X00655Y01466*
X00655Y01466*
X00657Y01468*
X00661Y01468*
X00663Y01468*
X00664Y01468*
X00666Y01467*
X00676Y01466*
X00686Y01467*
X00695Y01471*
X00703Y01477*
X0071Y01485*
X00713Y01494*
X00715Y01505*
X00713Y01515*
X0071Y01524*
X00703Y01532*
X00695Y01538*
X00686Y01542*
X00676Y01543*
G37*
G36*
X01542Y01518D02*
X01526D01*
X01526Y01515*
X01531Y01507*
X01538Y01503*
X01542Y01502*
Y01518*
G37*
G36*
X014Y01171D02*
Y0114D01*
X01431*
X0143Y01144*
X01426Y01153*
X01421Y01161*
X01413Y01166*
X01404Y0117*
X014Y01171*
G37*
G36*
X00245Y00945D02*
X0022D01*
Y0092*
X00245*
Y00945*
G37*
G36*
X01585Y0094D02*
X01568D01*
X01569Y00936*
X01574Y00929*
X01581Y00924*
X01585Y00923*
Y0094*
G37*
G36*
X00277Y00945D02*
X00261D01*
X00262Y00941*
X00266Y00934*
X00274Y00929*
X00277Y00928*
Y00945*
G37*
G36*
X00394D02*
X00365D01*
Y0091*
X00372*
X0038Y00911*
X00388Y00916*
X00392Y00923*
X00394Y00932*
Y00945*
G37*
G36*
X00943Y00932D02*
X00927D01*
X00928Y00928*
X00933Y00921*
X0094Y00916*
X00943Y00915*
Y00932*
G37*
G36*
X0097D02*
X00953D01*
Y00915*
X00957Y00916*
X00964Y00921*
X00969Y00928*
X0097Y00932*
G37*
G36*
X00303Y00945D02*
X00287D01*
Y00928*
X00291Y00929*
X00298Y00934*
X00303Y00941*
X00303Y00945*
G37*
G36*
X00245Y00979D02*
X0022D01*
Y00955*
X00245*
Y00979*
G37*
G36*
X00277Y00971D02*
X00274Y0097D01*
X00266Y00965*
X00262Y00958*
X00261Y00955*
X00277*
Y00971*
G37*
G36*
X00287D02*
Y00955D01*
X00303*
X00303Y00958*
X00298Y00965*
X00291Y0097*
X00287Y00971*
G37*
G36*
X01585Y00966D02*
X01581Y00965D01*
X01574Y0096*
X01569Y00953*
X01568Y0095*
X01585*
Y00966*
G37*
G36*
X00116Y00995D02*
X00072D01*
Y00966*
X00082*
X00091Y00967*
X001Y0097*
X00107Y00976*
X0011Y00979*
X00114Y00978*
Y00955*
X00139*
Y00979*
X00115*
X00113Y00983*
X00116Y00991*
X00116Y00995*
G37*
G36*
X00174Y00979D02*
X00149D01*
Y00955*
X00174*
Y00979*
G37*
G36*
X00527Y00667D02*
X00495D01*
Y00622*
X00527*
Y00667*
G37*
G36*
X00485Y00721D02*
X00452D01*
Y00677*
X00485*
Y00721*
G37*
G36*
X00277Y00892D02*
X00229D01*
Y00889*
X00224*
X00182*
Y00835*
Y0078*
X00224*
X00226*
X00229Y00777*
X00277*
Y00835*
Y00892*
G37*
G36*
X01209Y00601D02*
X01206Y00601D01*
X01198Y00596*
X01194Y00589*
X01193Y00585*
X01209*
Y00601*
G37*
G36*
X01219D02*
Y00585D01*
X01235*
X01235Y00589*
X0123Y00596*
X01223Y00601*
X01219Y00601*
G37*
G36*
X00485Y00667D02*
X00452D01*
Y00622*
X00485*
Y00667*
G37*
G36*
X00335Y0083D02*
X00287D01*
Y00777*
X00335*
Y0083*
G37*
G36*
X00995Y00874D02*
X00992Y00873D01*
X00985Y0087*
X00978Y00866*
X00974Y00859*
X00971Y00852*
X0097Y0085*
X00995*
Y00874*
G37*
G36*
X01005D02*
Y0085D01*
X01029*
X01028Y00852*
X01025Y00859*
X01021Y00866*
X01014Y0087*
X01007Y00873*
X01005Y00874*
G37*
G36*
X00355Y00945D02*
X00326D01*
Y00932*
X00328Y00923*
X00333Y00916*
X0034Y00911*
X00348Y0091*
X00355*
Y00945*
G37*
G36*
X00172Y0083D02*
X00129D01*
Y0078*
X00172*
Y0083*
G37*
G36*
Y00889D02*
X00129D01*
Y0084*
X00172*
Y00889*
G37*
G36*
X00335Y00892D02*
X00287D01*
Y0084*
X00335*
Y00892*
G37*
G36*
X00355Y00989D02*
X00348D01*
X0034Y00988*
X00333Y00983*
X00328Y00976*
X00326Y00967*
Y00955*
X00355*
Y00989*
G37*
G36*
X00395Y01091D02*
X00379D01*
Y01075*
X00382Y01075*
X00389Y0108*
X00394Y01087*
X00395Y01091*
G37*
G36*
X00939Y01114D02*
X00936Y01113D01*
X00929Y0111*
X00923Y01106*
X00918Y01099*
X00915Y01092*
X00915Y0109*
X00939*
Y01114*
G37*
G36*
X00949D02*
Y0109D01*
X00973*
X00973Y01092*
X0097Y01099*
X00965Y01106*
X00959Y0111*
X00952Y01113*
X00949Y01114*
G37*
G36*
X00939Y0108D02*
X00915D01*
X00915Y01077*
X00918Y0107*
X00923Y01063*
X00929Y01059*
X00936Y01056*
X00939Y01055*
Y0108*
G37*
G36*
X00973D02*
X00949D01*
Y01055*
X00952Y01056*
X00959Y01059*
X00965Y01063*
X0097Y0107*
X00973Y01077*
X00973Y0108*
G37*
G36*
X00062Y01136D02*
X00039D01*
Y01091*
X00041Y01084*
X00045Y01077*
X00051Y01073*
X00059Y01072*
X00062*
Y01136*
G37*
G36*
X0139Y0113D02*
X01358D01*
X01359Y01125*
X01363Y01116*
X01368Y01108*
X01376Y01103*
X01385Y01099*
X0139Y01098*
Y0113*
G37*
G36*
X00745D02*
X00728D01*
X00729Y01126*
X00734Y01119*
X00741Y01114*
X00745Y01113*
Y0113*
G37*
G36*
Y01156D02*
X00741Y01155D01*
X00734Y0115*
X00729Y01143*
X00728Y0114*
X00745*
Y01156*
G37*
G36*
X0139Y01171D02*
X01385Y0117D01*
X01376Y01166*
X01368Y01161*
X01363Y01153*
X01359Y01144*
X01358Y0114*
X0139*
Y01171*
G37*
G36*
X01431Y0113D02*
X014D01*
Y01098*
X01404Y01099*
X01413Y01103*
X01421Y01108*
X01426Y01116*
X0143Y01125*
X01431Y0113*
G37*
G36*
X01473Y01169D02*
X01464Y01168D01*
X01456Y01165*
X01449Y01159*
X01443Y01152*
X0144Y01143*
X01438Y01135*
X0144Y01126*
X01443Y01117*
X01449Y0111*
X01456Y01104*
X01464Y01101*
X01473Y011*
X01482Y01101*
X01491Y01104*
X01498Y0111*
X01503Y01117*
X01507Y01126*
X01508Y01135*
X01507Y01143*
X01503Y01152*
X01498Y01159*
X01491Y01165*
X01482Y01168*
X01473Y01169*
G37*
G36*
X01153Y01116D02*
X01066D01*
Y01103*
X01062Y01102*
X01056Y01101*
X01056Y01101*
X01056*
X01056Y01101*
X01054*
X01049Y011*
X01045Y01097*
X01043Y01098*
X01037Y01102*
X01036Y01103*
X01036Y01103*
X01035Y01103*
X01035Y01104*
X01035Y01104*
X01029Y01109*
X01022Y01111*
X01015Y01112*
X01008Y01111*
X01001Y01109*
X00995Y01104*
X00991Y01098*
X00988Y01092*
X00987Y01085*
X00988Y01077*
X00991Y01071*
X00995Y01065*
X01001Y0106*
X01008Y01058*
X01015Y01057*
X01022Y01058*
X01029Y0106*
X01035Y01065*
X01035Y01065*
X01035Y01066*
X01036Y01066*
X01036Y01066*
X01037Y01067*
X01043Y01071*
X01049Y01072*
X01049Y01072*
X0105*
Y01072*
X01054Y01073*
X01058Y01076*
X01058Y01076*
X01062Y01076*
X01066Y01074*
Y01061*
X0109*
X01093Y01057*
X01093Y01056*
X01092Y01055*
X01092Y01054*
X01091Y01052*
X01089Y01045*
X01091Y01037*
X01095Y0103*
X01102Y01026*
X0111Y01024*
X01117Y01026*
X01124Y0103*
X01128Y01037*
X0113Y01045*
X01128Y01052*
X01127Y01054*
X01127Y01055*
X01126Y01056*
X01126Y01057*
X01129Y01061*
X01153*
Y01116*
G37*
G36*
X00903Y01004D02*
X00886D01*
Y00988*
X0089Y00989*
X00897Y00994*
X00902Y01001*
X00903Y01004*
G37*
G36*
X00082Y01035D02*
X00072D01*
Y01005*
X00116*
X00116Y0101*
X00112Y01018*
X00107Y01025*
X001Y01031*
X00091Y01034*
X00082Y01035*
G37*
G36*
X00493Y01034D02*
X00469D01*
Y0101*
X00471Y0101*
X00479Y01013*
X00485Y01018*
X0049Y01024*
X00493Y01031*
X00493Y01034*
G37*
G36*
X00372Y00989D02*
X00365D01*
Y00955*
X00394*
Y00967*
X00392Y00976*
X00388Y00983*
X0038Y00988*
X00372Y00989*
G37*
G36*
X00675Y0113D02*
X00667Y01128D01*
X0066Y01124*
X00656Y01117*
X00654Y0111*
X00656Y01102*
X00656Y01101*
Y01057*
X00618Y01018*
X00617Y01018*
X0061Y01014*
X00606Y01007*
X00604Y01*
X00606Y00992*
X0061Y00985*
X00617Y00981*
X00625Y00979*
X00632Y00981*
X00639Y00985*
X00643Y00992*
X00643Y00993*
X00687Y01037*
X00691Y01043*
X00693Y0105*
Y01101*
X00693Y01102*
X00695Y0111*
X00693Y01117*
X00689Y01124*
X00682Y01128*
X00675Y0113*
G37*
G36*
X00876Y01004D02*
X0086D01*
X00861Y01001*
X00866Y00994*
X00873Y00989*
X00876Y00988*
Y01004*
G37*
G36*
Y01031D02*
X00873Y0103D01*
X00866Y01025*
X00861Y01018*
X0086Y01014*
X00876*
Y01031*
G37*
G36*
X00949Y01049D02*
Y01025D01*
X00973*
X00973Y01027*
X0097Y01034*
X00965Y01041*
X00959Y01045*
X00952Y01048*
X00949Y01049*
G37*
G36*
X0042Y0106D02*
X00416Y0106D01*
X00409Y01055*
X00404Y01048*
X00404Y01044*
X0042*
Y0106*
G37*
G36*
X00469Y01068D02*
Y01044D01*
X00493*
X00493Y01047*
X0049Y01054*
X00485Y0106*
X00479Y01065*
X00471Y01068*
X00469Y01068*
G37*
G36*
X00886Y01031D02*
Y01014D01*
X00903*
X00902Y01018*
X00897Y01025*
X0089Y0103*
X00886Y01031*
G37*
G36*
X00147Y01049D02*
X00119D01*
X00119Y01046*
X00122Y01038*
X00127Y01032*
X00134Y01027*
X00141Y01024*
X00147Y01023*
Y01049*
G37*
G36*
X00939Y01049D02*
X00936Y01048D01*
X00929Y01045*
X00923Y01041*
X00918Y01034*
X00915Y01027*
X00915Y01025*
X00939*
Y01049*
G37*
%LNstepperpcb-3*%
%LPD*%
G54D10*
X01432Y00783D02*
D01*
X01433Y00783*
X01435Y00783*
X01436Y00783*
X01438Y00784*
X01439Y00784*
X0144Y00785*
X01442Y00785*
X01443Y00786*
X01444Y00787*
X01445Y00788*
X01446Y00789*
X01446Y00789*
X01461Y00795D02*
D01*
X01459Y00795*
X01458Y00795*
X01456Y00794*
X01455Y00794*
X01454Y00794*
X01452Y00793*
X01451Y00792*
X0145Y00792*
X01449Y00791*
X01448Y0079*
X01447Y00789*
X01446Y00789*
X01468Y00795D02*
D01*
X01469Y00795*
X0147Y00795*
X01471Y00795*
X01472Y00795*
X01473Y00796*
X01474Y00796*
X01475Y00796*
X01475Y00797*
X01476Y00797*
X01477Y00798*
X01478Y00799*
X01478Y00799*
X01489Y00803D02*
D01*
X01488Y00803*
X01487Y00803*
X01485Y00803*
X01484Y00803*
X01483Y00802*
X01482Y00802*
X01481Y00801*
X01481Y00801*
X0148Y008*
X01479Y008*
X01478Y00799*
X01478Y00799*
X01492Y00848D02*
D01*
X01491Y00849*
X0149Y00849*
X01489Y0085*
X01489Y0085*
X01488Y00851*
X01487Y00851*
X01486Y00851*
X01485Y00852*
X01484Y00852*
X01483Y00852*
X01482Y00852*
X01482Y00852*
X01492Y00848D02*
D01*
X01493Y00847*
X01494Y00846*
X01495Y00846*
X01496Y00845*
X01497Y00844*
X01498Y00844*
X01499Y00843*
X015Y00843*
X01502Y00843*
X01503Y00843*
X01504Y00843*
X01505Y00843*
X01502Y00784D02*
D01*
X01501Y00783*
X015Y00783*
X01499Y00783*
X01498Y00783*
X01497Y00783*
X01496Y00782*
X01495Y00782*
X01494Y00781*
X01493Y00781*
X01493Y0078*
X01492Y00779*
X01492Y00779*
X0147Y00761D02*
D01*
X0147Y00761*
X01471Y00761*
X01472Y00762*
X01472Y00762*
X01473Y00762*
X01474Y00762*
X01475Y00763*
X01475Y00763*
X01476Y00763*
X01476Y00764*
X01477Y00764*
X01477Y00764*
X01364Y00858D02*
D01*
X01364Y0086*
X01363Y00862*
X01363Y00864*
X01363Y00866*
X01362Y00868*
X01361Y00869*
X01361Y00871*
X0136Y00873*
X01359Y00874*
X01357Y00876*
X01356Y00877*
X01356Y00877*
D01*
X01355Y00878*
X01354Y00879*
X01353Y0088*
X01351Y00881*
X0135Y00881*
X01349Y00882*
X01347Y00882*
X01346Y00883*
X01345Y00883*
X01343Y00883*
X01342Y00883*
X01342Y00883*
X00579Y01475D02*
D01*
X00574Y01474*
X0057Y01474*
X00565Y01473*
X00561Y01472*
X00557Y01471*
X00553Y01469*
X00549Y01467*
X00545Y01465*
X00541Y01462*
X00537Y01459*
X00534Y01456*
X00533Y01456*
X0056Y01475D02*
D01*
X00557Y01474*
X00553Y01474*
X0055Y01474*
X00547Y01473*
X00544Y01472*
X00541Y01471*
X00538Y01469*
X00536Y01468*
X00533Y01466*
X00531Y01464*
X00528Y01462*
X00528Y01461*
X00533Y01493D02*
D01*
X00537Y0149*
X0054Y01487*
X00544Y01485*
X00548Y01483*
X00552Y01481*
X00556Y01479*
X0056Y01477*
X00564Y01476*
X00569Y01475*
X00573Y01475*
X00578Y01475*
X00579Y01475*
X00528Y01488D02*
D01*
X0053Y01486*
X00532Y01484*
X00535Y01482*
X00538Y0148*
X00541Y01479*
X00543Y01477*
X00546Y01476*
X00549Y01476*
X00553Y01475*
X00556Y01475*
X00559Y01475*
X0056Y01475*
X00646D02*
D01*
X00647Y01476*
X00648Y01477*
X00649Y01478*
X0065Y01479*
X0065Y0148*
X00651Y01482*
X00651Y01483*
X00652Y01484*
X00652Y01486*
X00652Y01487*
X00652Y01489*
X00652Y0149*
X00652Y01492*
X00652Y01493*
X00651Y01494*
X00651Y01496*
X00651Y01496*
X00667Y01479D02*
D01*
X00666Y0148*
X00665Y0148*
X00663Y0148*
X00662Y0148*
X0066Y01481*
X00659Y0148*
X00657Y0148*
X00656Y0148*
X00655Y0148*
X00653Y01479*
X00652Y01479*
X00651Y01478*
X00649Y01477*
X00648Y01476*
X00647Y01476*
X00646Y01475*
X00646Y01475*
X00729Y0155D02*
D01*
X00732Y01547*
X00736Y01544*
X0074Y01541*
X00743Y01539*
X00747Y01537*
X00752Y01535*
X00756Y01534*
X0076Y01533*
X00764Y01532*
X00769Y01531*
X00773Y01531*
X00775Y01531*
X00743Y01536D02*
D01*
X00745Y01534*
X00747Y01532*
X0075Y0153*
X00753Y01529*
X00755Y01527*
X00758Y01526*
X00761Y01525*
X00764Y01524*
X00767Y01524*
X00771Y01523*
X00774Y01523*
X00775Y01523*
X00748Y01505D02*
D01*
X00748Y01509*
X00747Y01513*
X00747Y01518*
X00745Y01522*
X00744Y01526*
X00742Y01531*
X0074Y01535*
X00738Y01538*
X00736Y01542*
X00733Y01546*
X0073Y01549*
X00729Y0155*
X00756Y01505D02*
D01*
X00756Y01508*
X00755Y01511*
X00755Y01514*
X00754Y01517*
X00753Y0152*
X00752Y01523*
X00751Y01526*
X00749Y01528*
X00747Y01531*
X00745Y01534*
X00743Y01536*
X00743Y01536*
X01513Y01096D02*
D01*
X01516Y01099*
X01518Y01102*
X01521Y01105*
X01522Y01108*
X01524Y01111*
X01526Y01115*
X01527Y01119*
X01528Y01122*
X01529Y01126*
X01529Y0113*
X01529Y01134*
X01529Y01135*
X01527Y01109D02*
D01*
X01528Y01111*
X0153Y01113*
X01531Y01115*
X01533Y01117*
X01534Y01119*
X01535Y01122*
X01536Y01124*
X01536Y01126*
X01537Y01129*
X01537Y01131*
X01537Y01134*
X01537Y01135*
X01552Y01112D02*
D01*
X01548Y01112*
X01544Y01111*
X01541Y01111*
X01537Y0111*
X01533Y01109*
X0153Y01107*
X01526Y01105*
X01523Y01104*
X0152Y01101*
X01517Y01099*
X01514Y01097*
X01513Y01096*
X01552Y0112D02*
D01*
X01549Y0112*
X01547Y01119*
X01545Y01119*
X01542Y01118*
X0154Y01118*
X01537Y01117*
X01535Y01116*
X01533Y01114*
X01531Y01113*
X01529Y01111*
X01527Y0111*
X01527Y01109*
X01316Y0109D02*
D01*
X01316Y01092*
X01315Y01095*
X01315Y01097*
X01315Y01099*
X01314Y01101*
X01313Y01103*
X01312Y01105*
X01311Y01107*
X0131Y01109*
X01308Y01111*
X01307Y01112*
X01305Y01114*
X01303Y01115*
X01302Y01116*
X01316Y01106D02*
D01*
X01316Y01107*
X01316Y01108*
X01315Y0111*
X01315Y01111*
X01314Y01113*
X01314Y01114*
X01313Y01115*
X01313Y01117*
X01312Y01118*
X01311Y01119*
X0131Y0112*
X01309Y01121*
X01308Y01122*
X01307Y01123*
X01329Y01116D02*
D01*
X01327Y01115*
X01326Y01113*
X01324Y01112*
X01323Y0111*
X01321Y01108*
X0132Y01106*
X01319Y01104*
X01318Y01102*
X01317Y011*
X01317Y01098*
X01316Y01096*
X01316Y01094*
X01316Y01091*
X01316Y0109*
X01324Y01123D02*
D01*
X01323Y01122*
X01322Y01121*
X01321Y0112*
X0132Y01118*
X01319Y01117*
X01319Y01116*
X01318Y01115*
X01317Y01113*
X01317Y01112*
X01316Y01111*
X01316Y01109*
X01316Y01108*
X01316Y01106*
X01316Y01106*
X01578Y01295D02*
D01*
X01575Y01294*
X01573Y01294*
X0157Y01294*
X01567Y01293*
X01565Y01292*
X01562Y01291*
X0156Y0129*
X01558Y01289*
X01556Y01287*
X01554Y01286*
X01552Y01284*
X01551Y01283*
Y01306D02*
D01*
X01553Y01304*
X01555Y01302*
X01557Y01301*
X0156Y01299*
X01562Y01298*
X01564Y01297*
X01567Y01296*
X01569Y01295*
X01572Y01295*
X01575Y01295*
X01577Y01295*
X01578Y01295*
X01469Y01256D02*
D01*
X01469Y01259*
X01469Y01262*
X01468Y01264*
X01468Y01267*
X01467Y01269*
X01466Y01272*
X01465Y01274*
X01463Y01277*
X01462Y01279*
X0146Y01281*
X01458Y01283*
X01458Y01283*
X0148D02*
D01*
X01478Y01281*
X01477Y01279*
X01475Y01277*
X01474Y01275*
X01473Y01273*
X01472Y0127*
X01471Y01268*
X0147Y01265*
X0147Y01262*
X01469Y0126*
X01469Y01257*
X01469Y01256*
X01336Y00488D02*
D01*
X01336Y00485*
X01336Y00482*
X01337Y0048*
X01338Y00477*
X01338Y00475*
X01339Y00472*
X01341Y0047*
X01342Y00467*
X01343Y00465*
X01345Y00463*
X01347Y00461*
X01347Y00461*
X01325D02*
D01*
X01327Y00463*
X01328Y00465*
X0133Y00467*
X01331Y00469*
X01333Y00471*
X01334Y00474*
X01334Y00476*
X01335Y00479*
X01336Y00482*
X01336Y00484*
X01336Y00487*
X01336Y00488*
X01298Y0045D02*
D01*
X01301Y0045*
X01303Y0045*
X01306Y0045*
X01309Y00451*
X01311Y00452*
X01314Y00453*
X01316Y00454*
X01318Y00455*
X0132Y00457*
X01323Y00458*
X01325Y0046*
X01325Y00461*
Y00438D02*
D01*
X01323Y0044*
X01321Y00442*
X01319Y00443*
X01317Y00445*
X01314Y00446*
X01312Y00447*
X01309Y00448*
X01307Y00449*
X01304Y00449*
X01301Y00449*
X01299Y00449*
X01298Y0045*
X01086Y00606D02*
D01*
X01086Y00605*
X01086Y00604*
X01087Y00604*
X01087Y00603*
X01087Y00602*
X01087Y00601*
X01088Y00601*
X01088Y006*
X01089Y00599*
X01089Y00599*
X0109Y00598*
X0109Y00598*
X01083D02*
D01*
X01083Y00598*
X01084Y00599*
X01084Y006*
X01085Y006*
X01085Y00601*
X01085Y00602*
X01086Y00603*
X01086Y00603*
X01086Y00604*
X01086Y00605*
X01086Y00606*
X01086Y00606*
X01061D02*
D01*
X01061Y00605*
X01061Y00604*
X01061Y00604*
X01061Y00603*
X01061Y00602*
X01062Y00601*
X01062Y00601*
X01062Y006*
X01063Y00599*
X01063Y00599*
X01064Y00598*
X01064Y00598*
X01057D02*
D01*
X01058Y00598*
X01058Y00599*
X01059Y006*
X01059Y006*
X0106Y00601*
X0106Y00602*
X0106Y00603*
X0106Y00603*
X01061Y00604*
X01061Y00605*
X01061Y00606*
X01061Y00606*
X01035D02*
D01*
X01035Y00605*
X01035Y00604*
X01035Y00604*
X01036Y00603*
X01036Y00602*
X01036Y00601*
X01036Y00601*
X01037Y006*
X01037Y00599*
X01038Y00599*
X01038Y00598*
X01039Y00598*
X01032D02*
D01*
X01032Y00598*
X01033Y00599*
X01033Y006*
X01034Y006*
X01034Y00601*
X01034Y00602*
X01035Y00603*
X01035Y00603*
X01035Y00604*
X01035Y00605*
X01035Y00606*
X01035Y00606*
X0101D02*
D01*
X0101Y00605*
X0101Y00604*
X0101Y00604*
X0101Y00603*
X0101Y00602*
X01011Y00601*
X01011Y00601*
X01011Y006*
X01012Y00599*
X01012Y00599*
X01013Y00598*
X01013Y00598*
X01006D02*
D01*
X01007Y00598*
X01007Y00599*
X01008Y006*
X01008Y006*
X01008Y00601*
X01009Y00602*
X01009Y00603*
X01009Y00603*
X01009Y00604*
X01009Y00605*
X01009Y00606*
X0101Y00606*
X00984D02*
D01*
X00984Y00605*
X00984Y00604*
X00984Y00604*
X00984Y00603*
X00985Y00602*
X00985Y00601*
X00985Y00601*
X00986Y006*
X00986Y00599*
X00987Y00599*
X00987Y00598*
X00987Y00598*
X0098D02*
D01*
X00981Y00598*
X00982Y00599*
X00982Y006*
X00982Y006*
X00983Y00601*
X00983Y00602*
X00983Y00603*
X00984Y00603*
X00984Y00604*
X00984Y00605*
X00984Y00606*
X00984Y00606*
X00958D02*
D01*
X00958Y00605*
X00958Y00604*
X00959Y00604*
X00959Y00603*
X00959Y00602*
X00959Y00601*
X0096Y00601*
X0096Y006*
X00961Y00599*
X00961Y00599*
X00962Y00598*
X00962Y00598*
X00955D02*
D01*
X00955Y00598*
X00956Y00599*
X00956Y006*
X00957Y006*
X00957Y00601*
X00958Y00602*
X00958Y00603*
X00958Y00603*
X00958Y00604*
X00958Y00605*
X00958Y00606*
X00958Y00606*
X00555Y01263D02*
D01*
X00555Y0126*
X00555Y01257*
X00555Y01255*
X00556Y01252*
X00557Y0125*
X00558Y01247*
X00559Y01245*
X0056Y01242*
X00562Y0124*
X00564Y01238*
X00565Y01236*
X00566Y01236*
X00544D02*
D01*
X00545Y01238*
X00547Y0124*
X00549Y01242*
X0055Y01244*
X00551Y01246*
X00552Y01249*
X00553Y01251*
X00554Y01254*
X00554Y01257*
X00555Y01259*
X00555Y01262*
X00555Y01263*
X00446Y01225D02*
D01*
X00448Y01225*
X00451Y01225*
X00454Y01225*
X00456Y01226*
X00459Y01227*
X00461Y01228*
X00464Y01229*
X00466Y0123*
X00468Y01232*
X0047Y01233*
X00472Y01235*
X00473Y01236*
Y01213D02*
D01*
X00471Y01215*
X00469Y01217*
X00466Y01218*
X00464Y0122*
X00462Y01221*
X00459Y01222*
X00457Y01223*
X00454Y01224*
X00452Y01224*
X00449Y01224*
X00446Y01224*
X00446Y01225*
X00704Y01258D02*
D01*
X00704Y01255*
X00704Y01252*
X00705Y0125*
X00706Y01247*
X00706Y01245*
X00707Y01242*
X00709Y0124*
X0071Y01237*
X00711Y01235*
X00713Y01233*
X00715Y01231*
X00715Y01231*
X00693D02*
D01*
X00695Y01233*
X00696Y01235*
X00698Y01237*
X00699Y01239*
X00701Y01241*
X00702Y01244*
X00702Y01246*
X00703Y01249*
X00704Y01252*
X00704Y01254*
X00704Y01257*
X00704Y01258*
X00775D02*
D01*
X00775Y01255*
X00775Y01252*
X00776Y0125*
X00776Y01247*
X00777Y01245*
X00778Y01242*
X00779Y0124*
X00781Y01237*
X00782Y01235*
X00784Y01233*
X00786Y01231*
X00786Y01231*
X00764D02*
D01*
X00766Y01233*
X00767Y01235*
X00769Y01237*
X0077Y01239*
X00771Y01241*
X00772Y01244*
X00773Y01246*
X00774Y01249*
X00774Y01252*
X00775Y01254*
X00775Y01257*
X00775Y01258*
X00702Y01367D02*
D01*
X00702Y01366*
X00702Y01365*
X00703Y01365*
X00703Y01364*
X00703Y01363*
X00703Y01363*
X00704Y01362*
X00704Y01361*
X00704Y01361*
X00705Y0136*
X00705Y0136*
X00706Y01359*
X00706Y01359*
X00707Y01358*
X00707Y01358*
X00708Y01358*
X00709Y01357*
X00709Y01357*
X0071Y01357*
X00695D02*
D01*
X00695Y01357*
X00696Y01357*
X00697Y01358*
X00697Y01358*
X00698Y01358*
X00699Y01359*
X00699Y01359*
X007Y0136*
X007Y0136*
X007Y01361*
X00701Y01361*
X00701Y01362*
X00702Y01363*
X00702Y01363*
X00702Y01364*
X00702Y01365*
X00702Y01365*
X00702Y01366*
X00702Y01367*
X00704Y01225D02*
D01*
X00704Y01231*
X00703Y01236*
X00702Y01241*
X00701Y01247*
X00699Y01252*
X00697Y01257*
X00695Y01261*
X00692Y01266*
X00689Y01271*
X00686Y01275*
X00682Y01279*
X00681Y0128*
X00704Y01244D02*
D01*
X00704Y01248*
X00704Y01252*
X00703Y01256*
X00702Y0126*
X00701Y01264*
X00699Y01268*
X00697Y01272*
X00695Y01275*
X00693Y01278*
X0069Y01282*
X00688Y01285*
X00687Y01285*
X00704Y01263D02*
D01*
X00704Y01266*
X00704Y01269*
X00703Y01271*
X00703Y01274*
X00702Y01277*
X00701Y01279*
X00699Y01282*
X00698Y01284*
X00697Y01286*
X00695Y01288*
X00693Y0129*
X00693Y01291*
X00723Y0128D02*
D01*
X0072Y01277*
X00717Y01273*
X00715Y01269*
X00712Y01265*
X0071Y01261*
X00708Y01257*
X00707Y01253*
X00706Y01248*
X00705Y01244*
X00704Y01239*
X00704Y01235*
X00704Y01234*
X00718Y01285D02*
D01*
X00715Y01283*
X00713Y01281*
X00712Y01278*
X0071Y01275*
X00708Y01272*
X00707Y01269*
X00706Y01266*
X00705Y01263*
X00705Y0126*
X00704Y01257*
X00704Y01253*
X00704Y01253*
X00557Y01381D02*
D01*
X00557Y01379*
X00557Y01377*
X00557Y01375*
X00558Y01372*
X00559Y0137*
X0056Y01368*
X00561Y01366*
X00562Y01364*
X00563Y01362*
X00564Y0136*
X00566Y01358*
X00568Y01357*
X00569Y01355*
X00571Y01354*
X00572Y01353*
X00557Y01367D02*
D01*
X00557Y01366*
X00557Y01364*
X00557Y01362*
X00558Y01361*
X00558Y01359*
X00559Y01357*
X0056Y01356*
X0056Y01354*
X00561Y01353*
X00562Y01352*
X00563Y0135*
X00565Y01349*
X00566Y01348*
X00567Y01347*
X00568Y01347*
X00541Y01353D02*
D01*
X00543Y01355*
X00545Y01356*
X00547Y01358*
X00548Y01359*
X0055Y01361*
X00551Y01363*
X00552Y01365*
X00553Y01367*
X00554Y01369*
X00555Y01371*
X00556Y01373*
X00556Y01376*
X00556Y01378*
X00557Y0138*
X00557Y01381*
X00545Y01347D02*
D01*
X00547Y01348*
X00548Y01349*
X00549Y0135*
X0055Y01351*
X00551Y01352*
X00552Y01354*
X00553Y01355*
X00554Y01357*
X00555Y01358*
X00555Y0136*
X00556Y01361*
X00556Y01363*
X00557Y01365*
X00557Y01366*
X00557Y01367*
X00555Y01234D02*
D01*
X00555Y01239*
X00554Y01243*
X00553Y01248*
X00552Y01252*
X00551Y01256*
X00549Y0126*
X00547Y01265*
X00545Y01268*
X00542Y01272*
X0054Y01276*
X00537Y01279*
X00536Y0128*
X00555Y01253D02*
D01*
X00555Y01256*
X00554Y0126*
X00554Y01263*
X00553Y01266*
X00552Y01269*
X00551Y01272*
X00549Y01275*
X00548Y01277*
X00546Y0128*
X00544Y01282*
X00542Y01285*
X00541Y01285*
X00578Y0128D02*
D01*
X00574Y01276*
X0057Y01272*
X00567Y01267*
X00564Y01262*
X00562Y01258*
X0056Y01253*
X00558Y01247*
X00557Y01242*
X00556Y01237*
X00555Y01231*
X00555Y01226*
X00555Y01225*
X00572Y01285D02*
D01*
X00569Y01282*
X00567Y01279*
X00564Y01276*
X00562Y01272*
X0056Y01269*
X00559Y01265*
X00557Y01261*
X00556Y01257*
X00555Y01253*
X00555Y01249*
X00555Y01245*
X00555Y01244*
X00566Y01291D02*
D01*
X00565Y01289*
X00563Y01287*
X00561Y01284*
X0056Y01282*
X00558Y0128*
X00557Y01277*
X00556Y01274*
X00556Y01272*
X00555Y01269*
X00555Y01266*
X00555Y01263*
X00555Y01263*
X01038Y00784D02*
D01*
X01035Y00783*
X01032Y00783*
X0103Y00783*
X01027Y00782*
X01025Y00781*
X01022Y0078*
X0102Y00779*
X01017Y00778*
X01015Y00776*
X01013Y00775*
X01011Y00773*
X01011Y00772*
Y00795D02*
D01*
X01013Y00793*
X01015Y00791*
X01017Y0079*
X01019Y00788*
X01021Y00787*
X01024Y00786*
X01026Y00785*
X01029Y00784*
X01032Y00784*
X01034Y00784*
X01037Y00784*
X01038Y00784*
X0016Y01167D02*
D01*
X00159Y01167*
X00158Y01167*
X00158Y01167*
X00157Y01166*
X00156Y01166*
X00156Y01166*
X00155Y01166*
X00155Y01165*
X00154Y01165*
X00153Y01165*
X00153Y01164*
X00153Y01164*
Y0117D02*
D01*
X00153Y01169*
X00154Y01169*
X00154Y01168*
X00155Y01168*
X00156Y01168*
X00156Y01167*
X00157Y01167*
X00157Y01167*
X00158Y01167*
X00159Y01167*
X00159Y01167*
X0016Y01167*
Y01141D02*
D01*
X00159Y01141*
X00158Y01141*
X00158Y01141*
X00157Y01141*
X00156Y01141*
X00156Y0114*
X00155Y0114*
X00155Y0114*
X00154Y01139*
X00153Y01139*
X00153Y01139*
X00153Y01138*
Y01144D02*
D01*
X00153Y01144*
X00154Y01143*
X00154Y01143*
X00155Y01142*
X00156Y01142*
X00156Y01142*
X00157Y01142*
X00157Y01141*
X00158Y01141*
X00159Y01141*
X00159Y01141*
X0016Y01141*
X00278Y01134D02*
D01*
X00278Y01132*
X00278Y0113*
X00279Y01128*
X00279Y01126*
X0028Y01124*
X00281Y01122*
X00282Y0112*
X00283Y01118*
X00284Y01116*
X00285Y01114*
X00287Y01113*
X00287Y01112*
X00269D02*
D01*
X0027Y01114*
X00272Y01116*
X00273Y01118*
X00274Y01119*
X00275Y01121*
X00276Y01123*
X00277Y01125*
X00277Y01127*
X00278Y01129*
X00278Y01132*
X00278Y01134*
X00278Y01134*
X0111Y01051D02*
D01*
X01109Y01053*
X01109Y01056*
X01109Y01059*
X01108Y01061*
X01107Y01064*
X01106Y01066*
X01105Y01069*
X01104Y01071*
X01102Y01073*
X01101Y01075*
X01099Y01077*
X01098Y01078*
X01121D02*
D01*
X01119Y01076*
X01117Y01074*
X01116Y01071*
X01114Y01069*
X01113Y01067*
X01112Y01064*
X01111Y01062*
X0111Y01059*
X0111Y01057*
X0111Y01054*
X0111Y01051*
X0111Y01051*
X01056Y01089D02*
D01*
X01058Y01089*
X01061Y01089*
X01064Y0109*
X01066Y0109*
X01069Y01091*
X01071Y01092*
X01074Y01093*
X01076Y01094*
X01078Y01096*
X0108Y01098*
X01082Y01099*
X01083Y011*
Y01078D02*
D01*
X01081Y01079*
X01079Y01081*
X01076Y01083*
X01074Y01084*
X01072Y01085*
X01069Y01086*
X01067Y01087*
X01064Y01088*
X01062Y01088*
X01059Y01089*
X01056Y01089*
X01056Y01089*
X0111Y00965D02*
D01*
X01109Y00965*
X01109Y00966*
X01109Y00967*
X01109Y00968*
X01109Y00969*
X01108Y0097*
X01108Y00971*
X01107Y00972*
X01107Y00972*
X01106Y00973*
X01106Y00974*
X01105Y00974*
X01104Y00975*
X01104Y00975*
X01103Y00976*
X01102Y00976*
X01117D02*
D01*
X01116Y00976*
X01115Y00975*
X01114Y00975*
X01114Y00974*
X01113Y00974*
X01112Y00973*
X01112Y00972*
X01111Y00971*
X01111Y0097*
X01111Y0097*
X0111Y00969*
X0111Y00968*
X0111Y00967*
X0111Y00966*
X0111Y00965*
X0111Y00965*
X01056Y0099D02*
D01*
X01058Y0099*
X01061Y00991*
X01064Y00991*
X01066Y00992*
X01069Y00993*
X01071Y00994*
X01074Y00995*
X01076Y00996*
X01078Y00998*
X0108Y00999*
X01082Y01001*
X01083Y01001*
Y00979D02*
D01*
X01081Y00981*
X01079Y00983*
X01076Y00984*
X01074Y00986*
X01072Y00987*
X01069Y00988*
X01067Y00989*
X01064Y00989*
X01062Y0099*
X01059Y0099*
X01056Y0099*
X01056Y0099*
X01042Y00993D02*
D01*
X0104Y00994*
X01038Y00996*
X01036Y00998*
X01033Y00999*
X01031Y01*
X01029Y01001*
X01026Y01002*
X01023Y01003*
X01021Y01003*
X01018Y01004*
X01016Y01004*
X01015Y01004*
X01031Y0102D02*
D01*
X01031Y01017*
X01031Y01014*
X01032Y01012*
X01032Y01009*
X01033Y01006*
X01034Y01004*
X01035Y01002*
X01036Y00999*
X01038Y00997*
X0104Y00995*
X01041Y00993*
X01042Y00993*
X0105Y01085D02*
D01*
X01047Y01084*
X01045Y01084*
X01043Y01084*
X01041Y01083*
X01039Y01083*
X01037Y01082*
X01035Y01081*
X01034Y0108*
X01032Y01079*
X0103Y01077*
X01029Y01076*
X01027Y01075*
X01027Y01074*
Y01095D02*
D01*
X01028Y01093*
X0103Y01092*
X01031Y01091*
X01033Y01089*
X01035Y01088*
X01037Y01087*
X01039Y01086*
X01041Y01086*
X01043Y01085*
X01045Y01085*
X01047Y01085*
X01049Y01085*
X0105Y01085*
X00258Y00835D02*
D01*
X00252Y00834*
X00246Y00834*
X00241Y00833*
X00235Y00831*
X0023Y0083*
X00225Y00828*
X0022Y00825*
X00215Y00822*
X0021Y00819*
X00206Y00816*
X00202Y00812*
X00201Y00811*
X00239Y00835D02*
D01*
X00234Y00834*
X0023Y00834*
X00226Y00833*
X00222Y00832*
X00218Y00831*
X00214Y00829*
X0021Y00827*
X00206Y00825*
X00202Y00823*
X00199Y0082*
X00196Y00817*
X00195Y00816*
X0022Y00835D02*
D01*
X00217Y00834*
X00214Y00834*
X00211Y00834*
X00208Y00833*
X00205Y00832*
X00202Y00831*
X002Y00829*
X00197Y00828*
X00194Y00826*
X00192Y00824*
X0019Y00822*
X00189Y00822*
X00201Y00858D02*
D01*
X00205Y00854*
X00209Y00851*
X00214Y00848*
X00218Y00845*
X00224Y00842*
X00229Y0084*
X00234Y00838*
X00239Y00837*
X00245Y00835*
X00251Y00835*
X00256Y00835*
X00258Y00835*
X00195Y00853D02*
D01*
X00198Y0085*
X00201Y00847*
X00205Y00844*
X00209Y00842*
X00213Y0084*
X00217Y00839*
X00221Y00837*
X00225Y00836*
X00229Y00835*
X00233Y00835*
X00238Y00835*
X00239Y00835*
X00189Y00847D02*
D01*
X00192Y00845*
X00194Y00843*
X00196Y00841*
X00199Y0084*
X00202Y00839*
X00204Y00837*
X00207Y00836*
X0021Y00836*
X00213Y00835*
X00216Y00835*
X00219Y00835*
X0022Y00835*
X00187D02*
D01*
X00194Y00835*
X002Y00835*
X00207Y00837*
X00213Y00838*
X0022Y0084*
X00226Y00843*
X00232Y00846*
X00237Y00849*
X00243Y00853*
X00248Y00857*
X00253Y00861*
X00254Y00862*
X00206Y00835D02*
D01*
X00211Y00835*
X00217Y00835*
X00222Y00836*
X00227Y00837*
X00232Y00839*
X00237Y00841*
X00242Y00843*
X00246Y00846*
X00251Y00849*
X00255Y00852*
X00259Y00856*
X0026Y00857*
X00225Y00835D02*
D01*
X00229Y00835*
X00233Y00835*
X00237Y00836*
X00241Y00837*
X00245Y00838*
X00248Y00839*
X00252Y00841*
X00255Y00843*
X00259Y00845*
X00262Y00848*
X00265Y00851*
X00265Y00851*
X00254Y00807D02*
D01*
X00249Y00811*
X00244Y00815*
X00239Y00819*
X00233Y00823*
X00227Y00826*
X00221Y00828*
X00215Y0083*
X00208Y00832*
X00202Y00833*
X00195Y00834*
X00189Y00834*
X00187Y00835*
X0026Y00812D02*
D01*
X00256Y00816*
X00252Y00819*
X00248Y00822*
X00243Y00825*
X00238Y00827*
X00233Y00829*
X00228Y00831*
X00223Y00833*
X00218Y00834*
X00213Y00834*
X00207Y00834*
X00206Y00835*
X00265Y00818D02*
D01*
X00263Y00821*
X00259Y00823*
X00256Y00825*
X00253Y00827*
X00249Y00829*
X00246Y00831*
X00242Y00832*
X00238Y00833*
X00234Y00834*
X0023Y00834*
X00226Y00834*
X00225Y00835*
X00244Y00831D02*
D01*
X00243Y00832*
X00243Y00833*
X00243Y00833*
X00242Y00834*
X00242Y00835*
X00241Y00836*
X00241Y00836*
X0024Y00837*
X0024Y00838*
X00239Y00838*
X00238Y00839*
X00237Y00839*
X00237Y0084*
X00236Y0084*
X00235Y00841*
X00234Y00841*
Y00828D02*
D01*
X00235Y00828*
X00236Y00829*
X00237Y00829*
X00238Y0083*
X00238Y0083*
X00239Y00831*
X0024Y00831*
X0024Y00832*
X00241Y00833*
X00241Y00833*
X00242Y00834*
X00242Y00835*
X00243Y00836*
X00243Y00836*
X00243Y00837*
X00244Y00838*
X00464Y01145D02*
D01*
X00464Y01142*
X00464Y0114*
X00464Y01138*
X00465Y01136*
X00465Y01134*
X00466Y01132*
X00467Y0113*
X00468Y01129*
X00469Y01127*
X00471Y01125*
X00472Y01124*
X00474Y01122*
X00474Y01122*
X00453D02*
D01*
X00455Y01123*
X00456Y01125*
X00458Y01126*
X00459Y01128*
X0046Y0113*
X00461Y01132*
X00462Y01134*
X00462Y01136*
X00463Y01138*
X00463Y0114*
X00464Y01142*
X00464Y01144*
X00464Y01145*
X00564Y01039D02*
D01*
X00562Y01039*
X0056Y01039*
X00558Y01038*
X00556Y01038*
X00554Y01037*
X00552Y01036*
X0055Y01036*
X00548Y01035*
X00546Y01033*
X00545Y01032*
X00543Y01031*
X00542Y01029*
X00541Y01029*
Y01049D02*
D01*
X00543Y01048*
X00544Y01046*
X00546Y01045*
X00548Y01044*
X00549Y01043*
X00551Y01042*
X00553Y01041*
X00555Y0104*
X00557Y0104*
X00559Y01039*
X00561Y01039*
X00564Y01039*
X00564Y01039*
X00568Y0111D02*
D01*
X00565Y0111*
X00562Y0111*
X0056Y01109*
X00557Y01108*
X00555Y01108*
X00552Y01107*
X0055Y01105*
X00547Y01104*
X00545Y01103*
X00543Y01101*
X00541Y01099*
X00541Y01099*
Y01121D02*
D01*
X00543Y01119*
X00545Y01118*
X00547Y01116*
X00549Y01115*
X00551Y01113*
X00554Y01112*
X00556Y01112*
X00559Y01111*
X00562Y0111*
X00564Y0111*
X00567Y0111*
X00568Y0111*
X0053Y01145D02*
D01*
X0053Y01142*
X0053Y0114*
X0053Y01138*
X00531Y01136*
X00531Y01134*
X00532Y01132*
X00533Y0113*
X00534Y01129*
X00535Y01127*
X00537Y01125*
X00538Y01124*
X00539Y01122*
X0054Y01122*
X00519D02*
D01*
X00521Y01123*
X00522Y01125*
X00523Y01126*
X00525Y01128*
X00526Y0113*
X00527Y01132*
X00528Y01134*
X00528Y01136*
X00529Y01138*
X00529Y0114*
X00529Y01142*
X00529Y01144*
X0053Y01145*
X00362Y0121D02*
D01*
X0036Y01209*
X00358Y01209*
X00356Y01209*
X00353Y01208*
X00351Y01208*
X00349Y01207*
X00347Y01206*
X00346Y01205*
X00344Y01204*
X00342Y01202*
X00341Y01201*
X0034Y012*
Y01219D02*
D01*
X00342Y01217*
X00343Y01216*
X00345Y01214*
X00347Y01213*
X00349Y01212*
X00351Y01212*
X00353Y01211*
X00355Y0121*
X00357Y0121*
X00359Y0121*
X00361Y0121*
X00362Y0121*
X00278Y01175D02*
D01*
X00278Y01177*
X00278Y01179*
X00277Y01181*
X00277Y01183*
X00276Y01185*
X00275Y01187*
X00274Y01189*
X00273Y01191*
X00272Y01193*
X00271Y01195*
X00269Y01196*
X00269Y01197*
X00287D02*
D01*
X00285Y01195*
X00284Y01193*
X00283Y01192*
X00282Y0119*
X00281Y01188*
X0028Y01186*
X00279Y01184*
X00279Y01182*
X00278Y0118*
X00278Y01177*
X00278Y01175*
X00278Y01175*
X01485Y0122D02*
D01*
X01488Y0122*
X01492Y0122*
X01496Y01221*
X015Y01222*
X01503Y01223*
X01507Y01224*
X0151Y01226*
X01514Y01228*
X01517Y0123*
X0152Y01232*
X01523Y01235*
X01525Y01237*
X01503Y0122D02*
D01*
X01505Y0122*
X01508Y0122*
X01511Y0122*
X01513Y01221*
X01516Y01222*
X01518Y01223*
X0152Y01224*
X01523Y01225*
X01525Y01227*
X01527Y01228*
X01529Y0123*
X0153Y01232*
X01525Y01202D02*
D01*
X01522Y01205*
X01519Y01207*
X01516Y0121*
X01513Y01212*
X01509Y01214*
X01506Y01215*
X01502Y01217*
X01499Y01218*
X01495Y01218*
X01491Y01219*
X01487Y01219*
X01485Y0122*
X0153Y01207D02*
D01*
X01529Y01209*
X01527Y01211*
X01524Y01213*
X01522Y01214*
X0152Y01215*
X01517Y01216*
X01515Y01217*
X01512Y01218*
X0151Y01219*
X01507Y01219*
X01505Y01219*
X01503Y0122*
X01551Y00888D02*
D01*
X01551Y00889*
X0155Y00891*
X0155Y00892*
X0155Y00893*
X0155Y00894*
X01549Y00896*
X01548Y00897*
X01548Y00898*
X01547Y00899*
X01546Y009*
X01545Y00901*
X01545Y00901*
X01556D02*
D01*
X01555Y009*
X01555Y00899*
X01554Y00898*
X01553Y00897*
X01552Y00896*
X01552Y00895*
X01552Y00894*
X01551Y00892*
X01551Y00891*
X01551Y0089*
X01551Y00888*
X01551Y00888*
X01166Y00755D02*
D01*
X01165Y00754*
X01164Y00754*
X01163Y00754*
X01162Y00754*
X01161Y00754*
X01161Y00753*
X0116Y00753*
X01159Y00753*
X01158Y00752*
X01158Y00751*
X01157Y00751*
X01156Y0075*
X01156Y0075*
Y00759D02*
D01*
X01156Y00759*
X01157Y00758*
X01158Y00757*
X01158Y00757*
X01159Y00756*
X0116Y00756*
X01161Y00756*
X01161Y00755*
X01162Y00755*
X01163Y00755*
X01164Y00755*
X01165Y00755*
X01166Y00755*
X00559Y01108D02*
D01*
X0056Y01108*
X00561Y01108*
X00562Y01109*
X00563Y01109*
X00563Y0111*
X00564Y0111*
X00565Y01111*
X00565Y01111*
X00566Y01112*
X00567Y01113*
X00567Y01114*
X00567Y01114*
X0057Y01103D02*
D01*
X00569Y01104*
X00567Y01105*
X00565Y01105*
X00564Y01106*
X00562Y01106*
X0056Y01106*
X00559Y01106*
X00557Y01106*
X00555Y01106*
X00553Y01106*
X00552Y01106*
X00551Y01106*
Y01114D02*
D01*
X00553Y01114*
X00555Y01114*
X00556Y01113*
X00558Y01113*
X0056Y01114*
X00562Y01114*
X00563Y01114*
X00565Y01115*
X00567Y01115*
X00568Y01116*
X0057Y01117*
X0057Y01117*
X00567Y01106D02*
D01*
X00567Y01107*
X00566Y01108*
X00566Y01108*
X00565Y01109*
X00564Y0111*
X00564Y0111*
X00563Y01111*
X00562Y01111*
X00561Y01111*
X0056Y01112*
X00559Y01112*
X00559Y01112*
X00555Y0111D02*
D01*
X00556Y0111*
X00558Y0111*
X00559Y0111*
X0056Y01111*
X00562Y01111*
X00563Y01112*
X00564Y01112*
X00565Y01113*
X00566Y01114*
X00567Y01114*
X00568Y01115*
X00569Y01116*
Y01104D02*
D01*
X00568Y01105*
X00566Y01106*
X00565Y01107*
X00564Y01108*
X00563Y01108*
X00562Y01109*
X00561Y01109*
X00559Y01109*
X00558Y0111*
X00557Y0111*
X00555Y0111*
X00555Y0111*
X0159Y00928D02*
D01*
X01589Y00929*
X01589Y0093*
X01589Y00931*
X01589Y00932*
X01589Y00933*
X01588Y00933*
X01588Y00934*
X01587Y00935*
X01587Y00936*
X01586Y00937*
X01586Y00937*
X01585Y00938*
X01585Y00938*
X01594D02*
D01*
X01594Y00938*
X01593Y00937*
X01592Y00936*
X01592Y00936*
X01591Y00935*
X01591Y00934*
X01591Y00933*
X0159Y00932*
X0159Y00931*
X0159Y00931*
X0159Y0093*
X0159Y00929*
X0159Y00928*
X01489Y00823D02*
D01*
X01488Y00823*
X01486Y00823*
X01485Y00822*
X01484Y00822*
X01482Y00822*
X01481Y00821*
X0148Y00821*
X01479Y0082*
X01478Y00819*
X01477Y00818*
X01476Y00818*
X01476Y00817*
Y00828D02*
D01*
X01477Y00828*
X01478Y00827*
X01479Y00826*
X0148Y00825*
X01481Y00825*
X01482Y00824*
X01483Y00824*
X01485Y00823*
X01486Y00823*
X01487Y00823*
X01489Y00823*
X01489Y00823*
X01463Y00852D02*
D01*
X01462Y00852*
X01461Y00852*
X01459Y00851*
X01458Y00851*
X01457Y00851*
X01456Y0085*
X01454Y0085*
X01453Y00849*
X01452Y00848*
X01451Y00847*
X0145Y00847*
X0145Y00846*
Y00857D02*
D01*
X01451Y00857*
X01452Y00856*
X01453Y00855*
X01454Y00854*
X01455Y00854*
X01457Y00853*
X01458Y00853*
X01459Y00852*
X0146Y00852*
X01462Y00852*
X01463Y00852*
X01463Y00852*
X01465Y0088D02*
D01*
X01467Y0088*
X01468Y0088*
X01469Y0088*
X01471Y0088*
X01472Y00881*
X01473Y00881*
X01474Y00882*
X01476Y00882*
X01477Y00883*
X01478Y00884*
X01479Y00885*
X01479Y00885*
Y00874D02*
D01*
X01478Y00875*
X01477Y00876*
X01476Y00876*
X01475Y00877*
X01474Y00878*
X01472Y00878*
X01471Y00879*
X0147Y00879*
X01468Y00879*
X01467Y00879*
X01466Y00879*
X01465Y0088*
X0131Y01034D02*
D01*
X01309Y01035*
X01309Y01036*
X01309Y01036*
X01309Y01037*
X01309Y01038*
X01309Y01039*
X01308Y01039*
X01308Y0104*
X01307Y01041*
X01307Y01041*
X01306Y01042*
X01306Y01042*
X01305Y01043*
X01305Y01043*
X01314D02*
D01*
X01314Y01043*
X01313Y01042*
X01312Y01042*
X01312Y01041*
X01311Y0104*
X01311Y0104*
X01311Y01039*
X0131Y01038*
X0131Y01038*
X0131Y01037*
X0131Y01036*
X0131Y01035*
X0131Y01034*
X0131Y01034*
X01317Y0105D02*
D01*
X01318Y01046*
X01318Y01042*
X01319Y01038*
X0132Y01034*
X01321Y0103*
X01322Y01027*
X01324Y01023*
X01326Y0102*
X01328Y01016*
X01331Y01013*
X01333Y0101*
X01334Y0101*
X0131Y0105D02*
D01*
X0131Y01047*
X0131Y01044*
X0131Y01042*
X01311Y01039*
X01312Y01037*
X01313Y01034*
X01314Y01032*
X01315Y0103*
X01317Y01028*
X01318Y01026*
X0132Y01024*
X0132Y01023*
X01302Y0105D02*
D01*
X01302Y01048*
X01302Y01047*
X01302Y01046*
X01302Y01044*
X01303Y01043*
X01303Y01042*
X01304Y01041*
X01304Y0104*
X01305Y01039*
X01306Y01038*
X01307Y01037*
X01307Y01037*
X0134Y00835D02*
D01*
X01339Y00837*
X01339Y00838*
X01339Y00839*
X01339Y00841*
X01338Y00842*
X01338Y00843*
X01337Y00844*
X01337Y00846*
X01336Y00847*
X01335Y00848*
X01334Y00849*
X01334Y00849*
X01345D02*
D01*
X01344Y00848*
X01343Y00847*
X01343Y00846*
X01342Y00845*
X01341Y00844*
X01341Y00842*
X0134Y00841*
X0134Y0084*
X0134Y00838*
X0134Y00837*
X0134Y00836*
X0134Y00835*
X01303Y00796D02*
D01*
X01302Y00797*
X01301Y00798*
X013Y00799*
X01299Y00799*
X01298Y008*
X01296Y008*
X01295Y00801*
X01294Y00801*
X01292Y00801*
X01291Y00802*
X0129Y00802*
X0129Y00802*
X01297Y0081D02*
D01*
X01297Y00808*
X01298Y00807*
X01298Y00806*
X01298Y00804*
X01299Y00803*
X01299Y00802*
X013Y00801*
X013Y00799*
X01301Y00798*
X01302Y00797*
X01303Y00796*
X01303Y00796*
X01315Y00815D02*
D01*
X01314Y00817*
X01314Y00818*
X01314Y00819*
X01314Y00821*
X01313Y00822*
X01313Y00823*
X01312Y00824*
X01312Y00826*
X01311Y00827*
X0131Y00828*
X01309Y00829*
X01309Y00829*
X0132D02*
D01*
X01319Y00828*
X01318Y00827*
X01318Y00826*
X01317Y00825*
X01316Y00824*
X01316Y00822*
X01315Y00821*
X01315Y0082*
X01315Y00818*
X01315Y00817*
X01315Y00816*
X01315Y00815*
X01116Y00958D02*
D01*
X01117Y00957*
X01118Y00956*
X01119Y00955*
X0112Y00955*
X01121Y00954*
X01123Y00954*
X01124Y00953*
X01125Y00953*
X01127Y00953*
X01128Y00952*
X01129Y00952*
X0113Y00952*
X01122Y00945D02*
D01*
X01122Y00946*
X01121Y00947*
X01121Y00948*
X01121Y0095*
X0112Y00951*
X0112Y00952*
X01119Y00953*
X01119Y00955*
X01118Y00956*
X01117Y00957*
X01116Y00958*
X01116Y00958*
X011Y00625D02*
D01*
X01102Y00625*
X01103Y00625*
X01104Y00625*
X01106Y00625*
X01107Y00626*
X01108Y00626*
X01109Y00627*
X01111Y00627*
X01112Y00628*
X01113Y00629*
X01114Y0063*
X01114Y0063*
Y00619D02*
D01*
X01113Y0062*
X01112Y00621*
X01111Y00621*
X0111Y00622*
X01109Y00623*
X01107Y00623*
X01106Y00624*
X01105Y00624*
X01103Y00624*
X01102Y00624*
X01101Y00624*
X011Y00625*
X01078Y0069D02*
D01*
X01076Y0069*
X01075Y0069*
X01074Y0069*
X01072Y0069*
X01071Y00689*
X0107Y00689*
X01069Y00688*
X01067Y00688*
X01066Y00687*
X01065Y00686*
X01064Y00685*
X01064Y00685*
Y00696D02*
D01*
X01065Y00695*
X01066Y00694*
X01067Y00694*
X01068Y00693*
X0107Y00692*
X01071Y00692*
X01072Y00691*
X01073Y00691*
X01075Y00691*
X01076Y00691*
X01077Y0069*
X01078Y0069*
X00411Y01053D02*
D01*
X00412Y01052*
X00413Y01051*
X00415Y0105*
X00416Y01049*
X00417Y01049*
X00418Y01048*
X00419Y01048*
X00421Y01047*
X00422Y01047*
X00423Y01047*
X00425Y01047*
X00425Y01047*
X00417Y01039D02*
D01*
X00417Y0104*
X00417Y01042*
X00417Y01043*
X00416Y01044*
X00416Y01046*
X00415Y01047*
X00415Y01048*
X00414Y01049*
X00413Y0105*
X00413Y01051*
X00412Y01052*
X00411Y01053*
X01267Y01067D02*
D01*
X01267Y01068*
X01267Y0107*
X01267Y01071*
X01266Y01072*
X01266Y01074*
X01266Y01075*
X01265Y01076*
X01264Y01077*
X01264Y01078*
X01263Y01079*
X01262Y0108*
X01262Y01081*
X01273D02*
D01*
X01272Y0108*
X01271Y01079*
X0127Y01077*
X0127Y01076*
X01269Y01075*
X01268Y01074*
X01268Y01073*
X01268Y01071*
X01267Y0107*
X01267Y01069*
X01267Y01067*
X01267Y01067*
X01393Y01298D02*
D01*
X01392Y01297*
X01391Y01296*
X0139Y01295*
X0139Y01294*
X01389Y01293*
X01389Y01292*
X01388Y0129*
X01388Y01289*
X01388Y01288*
X01387Y01287*
X01387Y01285*
X01387Y01285*
X0138Y01293D02*
D01*
X01381Y01293*
X01382Y01293*
X01383Y01293*
X01385Y01294*
X01386Y01294*
X01387Y01294*
X01388Y01295*
X0139Y01296*
X01391Y01296*
X01392Y01297*
X01393Y01298*
X01393Y01298*
X01263Y00461D02*
D01*
X01262Y00462*
X01261Y00463*
X0126Y00464*
X01259Y00464*
X01258Y00465*
X01256Y00465*
X01255Y00466*
X01254Y00466*
X01252Y00466*
X01251Y00467*
X0125Y00467*
X0125Y00467*
X01257Y00475D02*
D01*
X01257Y00473*
X01258Y00472*
X01258Y00471*
X01258Y00469*
X01259Y00468*
X01259Y00467*
X0126Y00466*
X0126Y00464*
X01261Y00463*
X01262Y00462*
X01263Y00461*
X01263Y00461*
X00975Y00665D02*
D01*
X00977Y00665*
X00978Y00665*
X00979Y00665*
X00981Y00665*
X00982Y00666*
X00983Y00666*
X00984Y00667*
X00986Y00667*
X00987Y00668*
X00988Y00669*
X00989Y0067*
X00989Y0067*
Y00659D02*
D01*
X00988Y0066*
X00987Y00661*
X00986Y00661*
X00985Y00662*
X00984Y00663*
X00982Y00663*
X00981Y00664*
X0098Y00664*
X00978Y00664*
X00977Y00664*
X00976Y00664*
X00975Y00665*
X0111Y01064D02*
D01*
X0111Y01062*
X0111Y01061*
X0111Y0106*
X0111Y01058*
X01111Y01057*
X01111Y01056*
X01112Y01055*
X01112Y01053*
X01113Y01052*
X01114Y01051*
X01115Y0105*
X01115Y0105*
X01104D02*
D01*
X01105Y01051*
X01106Y01052*
X01106Y01053*
X01107Y01054*
X01108Y01055*
X01108Y01057*
X01109Y01058*
X01109Y01059*
X01109Y01061*
X01109Y01062*
X01109Y01063*
X0111Y01064*
X01107Y0106D02*
D01*
X01107Y01059*
X01108Y01058*
X01108Y01057*
X01109Y01056*
X01109Y01055*
X0111Y01055*
X0111Y01054*
X01111Y01053*
X01112Y01053*
X01112Y01052*
X01113Y01051*
X01113Y01051*
X01103Y01048D02*
D01*
X01103Y0105*
X01104Y01052*
X01105Y01053*
X01105Y01055*
X01106Y01056*
X01106Y01058*
X01106Y0106*
Y01062*
X01106Y01063*
X01106Y01065*
X01105Y01067*
X01105Y01067*
X01114D02*
D01*
X01113Y01065*
X01113Y01064*
X01113Y01062*
X01113Y0106*
X01113Y01059*
X01113Y01057*
X01114Y01055*
X01114Y01054*
X01115Y01052*
X01115Y0105*
X01116Y01049*
X01116Y01048*
X01106Y01051D02*
D01*
X01106Y01052*
X01107Y01052*
X01108Y01053*
X01109Y01054*
X01109Y01054*
X0111Y01055*
X0111Y01056*
X01111Y01057*
X01111Y01058*
X01112Y01058*
X01112Y01059*
X01112Y0106*
X01196Y00862D02*
D01*
X01194Y00862*
X01193Y00862*
X01192Y00862*
X01191Y00862*
X01189Y00861*
X01188Y00861*
X01187Y0086*
X01186Y00859*
X01185Y00859*
X01184Y00858*
X01183Y00857*
X01182Y00857*
Y00868D02*
D01*
X01183Y00867*
X01184Y00866*
X01185Y00865*
X01187Y00865*
X01188Y00864*
X01189Y00864*
X0119Y00863*
X01191Y00863*
X01193Y00862*
X01194Y00862*
X01195Y00862*
X01196Y00862*
X01227Y00922D02*
D01*
X01227Y0092*
X01226Y00919*
X01226Y00917*
X01226Y00916*
X01225Y00914*
X01225Y00913*
X01225Y00911*
X01226Y0091*
X01226Y00908*
X01226Y00907*
X01227Y00905*
X01227Y00904*
X01228Y00902*
X01229Y00901*
X0123Y009*
X01231Y00898*
X01232Y00897*
X01232Y00897*
X0122Y00925D02*
D01*
X0122Y00924*
X01219Y00922*
X01219Y00921*
X01219Y0092*
X01219Y00919*
X01218Y00918*
X01219Y00916*
X01219Y00915*
X01219Y00914*
X01219Y00913*
X0122Y00912*
X0122Y0091*
X01221Y00909*
X01221Y00908*
X01222Y00907*
X01223Y00906*
X01223Y00905*
X01224Y00905*
X0122Y00909D02*
D01*
X0122Y0091*
X0122Y00911*
X0122Y00911*
X0122Y00912*
X01219Y00913*
X01219Y00914*
X01219Y00914*
X01218Y00915*
X01218Y00916*
X01217Y00917*
X01217Y00917*
X01216Y00918*
X01215Y00918*
X01215Y00918*
X01225D02*
D01*
X01224Y00918*
X01223Y00917*
X01223Y00917*
X01222Y00916*
X01222Y00915*
X01221Y00915*
X01221Y00914*
X01221Y00913*
X0122Y00912*
X0122Y00912*
X0122Y00911*
X0122Y0091*
X0122Y00909*
X0122Y00909*
X01461Y00761D02*
D01*
X0146Y00761*
X01459Y00761*
X01457Y00761*
X01456Y00761*
X01455Y0076*
X01454Y0076*
X01452Y00759*
X01451Y00758*
X0145Y00758*
X01449Y00757*
X01448Y00756*
X01448Y00756*
Y00767D02*
D01*
X01449Y00766*
X0145Y00765*
X01451Y00764*
X01452Y00764*
X01453Y00763*
X01455Y00763*
X01456Y00762*
X01457Y00762*
X01458Y00762*
X0146Y00761*
X01461Y00761*
X01461Y00761*
X00958Y00605D02*
D01*
X00958Y00607*
X00958Y00608*
X00958Y00609*
X00958Y00611*
X00957Y00612*
X00957Y00613*
X00956Y00614*
X00955Y00616*
X00955Y00617*
X00954Y00618*
X00953Y00619*
X00953Y00619*
X00964D02*
D01*
X00963Y00618*
X00962Y00617*
X00961Y00616*
X00961Y00615*
X0096Y00614*
X0096Y00612*
X00959Y00611*
X00959Y0061*
X00959Y00608*
X00958Y00607*
X00958Y00606*
X00958Y00605*
X01183Y00663D02*
D01*
X01182Y00662*
X01181Y00661*
X0118Y0066*
X0118Y00659*
X01179Y00658*
X01179Y00656*
X01178Y00655*
X01178Y00654*
X01178Y00652*
X01177Y00651*
X01177Y0065*
X01177Y0065*
X0117Y00657D02*
D01*
X01171Y00657*
X01172Y00658*
X01173Y00658*
X01175Y00658*
X01176Y00659*
X01177Y00659*
X01178Y0066*
X0118Y0066*
X01181Y00661*
X01182Y00662*
X01183Y00663*
X01183Y00663*
X01269Y00614D02*
D01*
X01267Y00614*
X01266Y00614*
X01265Y00614*
X01263Y00613*
X01262Y00613*
X01261Y00613*
X0126Y00612*
X01258Y00611*
X01257Y00611*
X01256Y0061*
X01255Y00609*
X01255Y00609*
Y0062D02*
D01*
X01256Y00619*
X01257Y00618*
X01258Y00617*
X01259Y00617*
X0126Y00616*
X01262Y00615*
X01263Y00615*
X01264Y00615*
X01266Y00614*
X01267Y00614*
X01268Y00614*
X01269Y00614*
X00619Y01575D02*
D01*
X00617Y01574*
X00616Y01574*
X00615Y01574*
X00613Y01574*
X00612Y01573*
X00611Y01573*
X0061Y01572*
X00608Y01572*
X00607Y01571*
X00606Y0157*
X00605Y01569*
X00605Y01569*
Y0158D02*
D01*
X00606Y01579*
X00607Y01578*
X00608Y01578*
X00609Y01577*
X0061Y01576*
X00612Y01576*
X00613Y01575*
X00614Y01575*
X00616Y01575*
X00617Y01575*
X00618Y01575*
X00619Y01575*
X00347Y01139D02*
D01*
X00348Y01139*
X00349Y01139*
X00351Y0114*
X00352Y0114*
X00353Y0114*
X00354Y01141*
X00356Y01141*
X00357Y01142*
X00358Y01143*
X00359Y01144*
X0036Y01145*
X0036Y01145*
Y01134D02*
D01*
X00359Y01135*
X00358Y01135*
X00357Y01136*
X00356Y01137*
X00355Y01137*
X00353Y01138*
X00352Y01138*
X00351Y01139*
X0035Y01139*
X00348Y01139*
X00347Y01139*
X00347Y01139*
Y01171D02*
D01*
X00348Y01171*
X00349Y01171*
X00351Y01171*
X00352Y01171*
X00353Y01172*
X00354Y01172*
X00356Y01173*
X00357Y01174*
X00358Y01174*
X00359Y01175*
X0036Y01176*
X0036Y01176*
Y01165D02*
D01*
X00359Y01166*
X00358Y01167*
X00357Y01168*
X00356Y01168*
X00355Y01169*
X00353Y01169*
X00352Y0117*
X00351Y0117*
X0035Y01171*
X00348Y01171*
X00347Y01171*
X00347Y01171*
X00464Y01145D02*
D01*
X00464Y01147*
X00463Y01148*
X00463Y01149*
X00463Y01151*
X00463Y01152*
X00462Y01153*
X00461Y01154*
X00461Y01156*
X0046Y01157*
X00459Y01158*
X00458Y01159*
X00458Y01159*
X00469D02*
D01*
X00468Y01158*
X00468Y01157*
X00467Y01156*
X00466Y01155*
X00465Y01154*
X00465Y01152*
X00465Y01151*
X00464Y0115*
X00464Y01148*
X00464Y01147*
X00464Y01146*
X00464Y01145*
X00538Y01169D02*
D01*
X00537Y01169*
X00536Y01169*
X00534Y01168*
X00533Y01168*
X00532Y01168*
X0053Y01167*
X00529Y01167*
X00528Y01166*
X00527Y01165*
X00526Y01164*
X00525Y01163*
X00525Y01163*
Y01174D02*
D01*
X00526Y01173*
X00527Y01173*
X00528Y01172*
X00529Y01171*
X0053Y01171*
X00531Y0117*
X00533Y0117*
X00534Y01169*
X00535Y01169*
X00537Y01169*
X00538Y01169*
X00538Y01169*
X00557Y01362D02*
D01*
X00557Y01364*
X00556Y01365*
X00556Y01366*
X00556Y01368*
X00556Y01369*
X00555Y0137*
X00554Y01371*
X00554Y01372*
X00553Y01374*
X00552Y01375*
X00551Y01376*
X00551Y01376*
X00562D02*
D01*
X00561Y01375*
X0056Y01374*
X0056Y01373*
X00559Y01372*
X00558Y0137*
X00558Y01369*
X00557Y01368*
X00557Y01367*
X00557Y01365*
X00557Y01364*
X00557Y01363*
X00557Y01362*
X00561Y01365D02*
D01*
X00561Y01366*
X0056Y01367*
X0056Y01368*
X0056Y01369*
X00559Y01369*
X00558Y0137*
X00558Y01371*
X00557Y01372*
X00556Y01372*
X00555Y01373*
X00555Y01374*
X00554Y01374*
X00553Y01374*
X00563Y01377D02*
D01*
X00563Y01376*
X00562Y01375*
X00562Y01374*
X00561Y01373*
X00561Y01372*
X00561Y01371*
X00561Y0137*
X00561Y01369*
X00561Y01368*
X00561Y01367*
X00561Y01366*
X00561Y01365*
X00561Y01365*
X00552D02*
D01*
X00552Y01366*
X00553Y01367*
X00553Y01368*
X00553Y01369*
X00553Y0137*
X00553Y01371*
X00552Y01372*
X00552Y01373*
X00552Y01374*
X00551Y01375*
X00551Y01376*
X0055Y01377*
X0055Y01377*
X0056Y01374D02*
D01*
X00559Y01374*
X00558Y01373*
X00557Y01373*
X00557Y01372*
X00556Y01371*
X00555Y01371*
X00555Y0137*
X00554Y01369*
X00554Y01368*
X00553Y01367*
X00553Y01366*
X00552Y01365*
X00552Y01365*
X00614Y01415D02*
D01*
X00612Y01414*
X00611Y01414*
X0061Y01414*
X00608Y01414*
X00607Y01413*
X00606Y01413*
X00605Y01412*
X00603Y01412*
X00602Y01411*
X00601Y0141*
X006Y01409*
X006Y01409*
Y0142D02*
D01*
X00601Y01419*
X00602Y01418*
X00603Y01418*
X00604Y01417*
X00605Y01416*
X00607Y01416*
X00608Y01415*
X00609Y01415*
X00611Y01415*
X00612Y01415*
X00613Y01415*
X00614Y01415*
X00438Y01254D02*
D01*
X00438Y01255*
X00438Y01256*
X00438Y01257*
X00437Y01258*
X00437Y01258*
X00437Y01259*
X00436Y0126*
X00436Y01261*
X00435Y01262*
X00435Y01263*
X00434Y01263*
X00434Y01264*
X00442D02*
D01*
X00441Y01263*
X00441Y01262*
X0044Y01261*
X0044Y01261*
X00439Y0126*
X00439Y01259*
X00438Y01258*
X00438Y01257*
X00438Y01256*
X00438Y01255*
X00438Y01254*
X00438Y01254*
X00878Y00598D02*
D01*
X00877Y00597*
X00876Y00596*
X00875Y00595*
X00875Y00594*
X00874Y00593*
X00874Y00591*
X00873Y0059*
X00873Y00589*
X00873Y00587*
X00872Y00586*
X00872Y00585*
X00872Y00585*
X00865Y00592D02*
D01*
X00866Y00592*
X00867Y00593*
X00868Y00593*
X0087Y00593*
X00871Y00594*
X00872Y00594*
X00873Y00595*
X00875Y00595*
X00876Y00596*
X00877Y00597*
X00878Y00598*
X00878Y00598*
X01326Y00883D02*
D01*
X01325Y00883*
X01323Y00883*
X01322Y00883*
X01321Y00883*
X0132Y00882*
X01318Y00882*
X01317Y00881*
X01316Y00881*
X01315Y0088*
X01314Y00879*
X01313Y00878*
X01313Y00878*
X00729Y0155D02*
D01*
X00725Y01554*
X0072Y01558*
X00715Y01561*
X0071Y01564*
X00705Y01567*
X007Y01569*
X00694Y01571*
X00689Y01572*
X00683Y01573*
X00677Y01574*
X00671Y01574*
X0067Y01575*
X00692Y01401D02*
D01*
X0069Y01403*
X00688Y01405*
X00685Y01407*
X00682Y01409*
X00679Y0141*
X00676Y01411*
X00673Y01412*
X0067Y01413*
X00667Y01414*
X00664Y01414*
X00661Y01414*
X0066Y01415*
X00702Y01377D02*
D01*
X00702Y01379*
X00702Y01382*
X00702Y01384*
X00701Y01386*
X007Y01389*
X00699Y01391*
X00698Y01393*
X00697Y01395*
X00696Y01397*
X00694Y01399*
X00693Y01401*
X00692Y01401*
X00327Y01171D02*
D01*
X00327Y01171*
X00326Y01171*
X00326Y01171*
X00325Y0117*
X00325Y0117*
X00324Y0117*
X00324Y0117*
X00324Y0117*
X00323Y01169*
X00323Y01169*
X00322Y01169*
X00322Y01169*
X00318Y01167D02*
D01*
X00318Y01167*
X00319Y01167*
X00319Y01167*
X00319Y01167*
X0032Y01167*
X0032Y01167*
X00321Y01168*
X00321Y01168*
X00322Y01168*
X00322Y01168*
X00322Y01169*
X00322Y01169*
X00318Y01139D02*
D01*
X00318Y0114*
X00318Y0114*
X00317Y0114*
X00317Y0114*
X00316Y01141*
X00316Y01141*
X00316Y01141*
X00315Y01141*
X00315Y01141*
X00314Y01141*
X00314Y01141*
X00314Y01141*
X01469Y01235D02*
D01*
X01469Y01234*
X01469Y01233*
X01469Y01232*
X0147Y01231*
X0147Y0123*
X0147Y01229*
X01471Y01228*
X01471Y01227*
X01472Y01226*
X01473Y01225*
X01473Y01224*
X01474Y01223*
X01475Y01223*
X01476Y01222*
X01477Y01222*
X01478Y01221*
X01479Y01221*
X0148Y0122*
X01481Y0122*
X01482Y0122*
X01483Y0122*
X01484Y0122*
X01485Y0122*
X01381Y00891D02*
D01*
X01381Y0089*
X01382Y0089*
X01382Y00889*
X01382Y00888*
X01382Y00887*
X01382Y00886*
X01383Y00886*
X01383Y00885*
X01384Y00884*
X01384Y00884*
X01385Y00883*
X01385Y00882*
X01386Y00882*
X01387Y00881*
X01387Y00881*
X01388Y00881*
X01389Y0088*
X0139Y0088*
X0139Y0088*
X01391Y0088*
X01392Y00879*
X01393Y00879*
X01393Y00879*
X00131Y01167D02*
X00278D01*
X00152Y01229D02*
Y01235D01*
Y01054D02*
Y01055D01*
X00557Y01315D02*
Y01381D01*
X00702Y01315D02*
X00704Y01313D01*
Y0122D02*
Y01313D01*
X00555Y01225D02*
Y01312D01*
X00423Y0121D02*
X00438Y01225D01*
Y01268*
Y01225D02*
X00484D01*
X0053Y01039D02*
X00564D01*
X00464Y01145D02*
Y01165D01*
Y0111D02*
Y01145D01*
X0053Y0111D02*
Y01145D01*
X00464D02*
X0053D01*
X00131Y01141D02*
X00278D01*
Y011D02*
Y01141D01*
Y01167D02*
Y0121D01*
X00177Y00835D02*
X00282D01*
X01295Y00545D02*
X01303Y00553D01*
Y00614*
X0125D02*
X01283D01*
X0119Y00545D02*
X01295D01*
X00958Y0057D02*
Y00625D01*
X01146Y00588D02*
X0119Y00545D01*
X01177Y00862D02*
X01232D01*
X0111Y00965D02*
Y0099D01*
X01015Y01085D02*
X0105D01*
X01054Y01089D02*
X0111D01*
X0105Y01085D02*
X01054Y01089D01*
X01Y00784D02*
D01*
X0117Y0065D02*
X01185Y00665D01*
X01232*
X0123Y00683D02*
X01232Y00685D01*
X01162D02*
X01232D01*
X01362Y00552D02*
Y00614D01*
X01336Y00526D02*
X01362Y00552D01*
X01336Y0045D02*
Y00526D01*
X01381Y00553D02*
Y00614D01*
Y00553D02*
X01407Y00527D01*
X01275Y0045D02*
X01336D01*
X0125Y00475D02*
X01275Y0045D01*
X01549Y00743D02*
X01551Y00744D01*
Y00764D02*
X01604D01*
X01614Y00774*
X01551Y00862D02*
X01592D01*
X01598Y00868*
X01401Y00933D02*
Y01048D01*
X01395Y01055D02*
X01401Y01048D01*
X0144Y00933D02*
Y01023D01*
X01552Y01135*
X0154Y01295D02*
X0159D01*
X01614Y0127*
X0138Y01285D02*
X01429Y01335D01*
X01585*
X01322Y00933D02*
Y00977D01*
X01342Y00933D02*
Y00979D01*
X0111Y01045D02*
Y01089D01*
X00331Y0121D02*
X004D01*
Y01122D02*
Y0121D01*
X00423*
X00775Y0122D02*
Y0129D01*
X00873Y01388*
X01476Y00665D02*
X01551D01*
X01478Y00685D02*
X01551D01*
X0146Y00614D02*
Y00659D01*
X00984Y0057D02*
Y00617D01*
X00945Y00665D02*
X00995D01*
X00865Y00585D02*
X00945Y00665D01*
X0101Y0057D02*
Y0062D01*
X0116Y00705D02*
X01232D01*
X01185Y00784D02*
X01232D01*
X0111Y00965D02*
X0113Y00945D01*
X01146Y00588D02*
Y00638D01*
X01585Y01335D02*
X0163Y0129D01*
X01614Y00774D02*
Y0127D01*
X01598Y00868D02*
Y0092D01*
X01316Y0109D02*
Y01135D01*
X01285Y01037D02*
X01342Y00979D01*
X01285Y01037D02*
Y01059D01*
X01316Y0109*
X01269Y0103D02*
X01322Y00977D01*
X01362Y00933D02*
Y00982D01*
X0131Y01034D02*
X01362Y00982D01*
X0131Y01034D02*
Y0105D01*
X0159Y00928D02*
Y00945D01*
Y00928D02*
X01598Y0092D01*
X0053Y0111D02*
X00574D01*
X01551Y00744D02*
X01608D01*
X0163Y00765*
Y0129*
X00984Y00617D02*
X01017Y0065D01*
X0101Y0062D02*
X01033Y00644D01*
X01059Y0069D02*
X01145D01*
X0116Y00705*
X01086Y0057D02*
Y00616D01*
X01095Y00625*
X0112*
X01035Y0057D02*
Y00612D01*
X01061Y0057D02*
Y00615D01*
X01Y00784D02*
X01041D01*
X01052Y00794D02*
X01175D01*
X01041Y00784D02*
X01052Y00794D01*
X01175D02*
X01185Y00784D01*
X01166Y00778D02*
X0118Y00764D01*
X01232*
X0115Y00755D02*
X01166D01*
X01176Y00744*
X01232*
X01061Y00615D02*
X01094Y00648D01*
X01136*
X01146Y00638*
X01035Y00612D02*
X01088Y00665D01*
X01142*
X01162Y00685*
X01232Y00882D02*
Y00897D01*
X0122Y00909D02*
X01232Y00897D01*
X0122Y00909D02*
Y00925D01*
X00374Y01096D02*
X004Y01122D01*
X00394Y0107D02*
X00425Y01039D01*
X00374Y0107D02*
X00394D01*
X00564Y01039D02*
X006Y01075D01*
Y01131*
X00519Y01169D02*
X00562D01*
X006Y01131*
X01267Y01032D02*
Y01086D01*
X01551Y00882D02*
Y00907D01*
X0147Y00823D02*
X01551D01*
X01489Y00803D02*
X01551D01*
X01461Y00795D02*
X01468D01*
X01505Y00843D02*
X01551D01*
X01444Y00852D02*
X01482D01*
X01502Y00784D02*
X01551D01*
X01477Y00764D02*
X01492Y00779D01*
X01442Y00761D02*
X0147D01*
X01303Y00868D02*
X01313Y00878D01*
X01326Y00883D02*
X01342D01*
X01455Y00708D02*
X01478Y00685D01*
X01449Y00692D02*
X01476Y00665D01*
X01442Y00677D02*
X0146Y00659D01*
X0114Y00778D02*
X01166D01*
X01103Y00742D02*
X0114Y00778D01*
X01017Y00705D02*
X01054Y00742D01*
X01033Y00644D02*
Y00698D01*
X01059Y00724*
X01232*
X01017Y0065D02*
Y00705D01*
X01054Y00742D02*
X01103D01*
X01315Y00809D02*
X01431Y00692D01*
X0134Y00807D02*
Y00855D01*
Y00807D02*
X01438Y00708D01*
X01455*
X01364Y00805D02*
Y00858D01*
Y00805D02*
X01444Y00724D01*
X01551*
X01315Y00809D02*
Y00835D01*
X01431Y00692D02*
X01449D01*
X0129Y0081D02*
X01422Y00677D01*
X01442*
X00331Y011D02*
X00352D01*
X00356Y01096D02*
X00374D01*
X00352Y011D02*
X00356Y01096D01*
X0129Y00855D02*
X01303Y00868D01*
X00646Y01475D02*
X00676Y01505D01*
X00515Y01475D02*
X00646D01*
X00619Y01575D02*
X0067D01*
X00614Y01415D02*
X0066D01*
X00702Y01315D02*
Y01377D01*
X00327Y01171D02*
X00347D01*
X00278Y01167D02*
X00318D01*
X00278Y01141D02*
X00314D01*
X00318Y01139D02*
X00347D01*
X01469Y01235D02*
Y01256D01*
X01381Y00891D02*
Y00933D01*
X01393Y00879D02*
X01465D01*
X01044Y0099D02*
X0111D01*
X01015Y0102D02*
X01044Y0099D01*
G54D11*
X01035Y00219D02*
D01*
X01035Y00216*
X01035Y00213*
X01036Y0021*
X01037Y00208*
X01037Y00205*
X01039Y00202*
X0104Y002*
X01041Y00197*
X01043Y00195*
X01044Y00193*
X01046Y00191*
X01047Y0019*
X01063Y0015D02*
D01*
X01063Y00154*
X01063Y00158*
X01062Y00162*
X01061Y00166*
X0106Y0017*
X01059Y00173*
X01057Y00177*
X01055Y0018*
X01053Y00184*
X0105Y00187*
X01047Y0019*
X01047Y0019*
X00998Y00192D02*
D01*
X00999Y00194*
X01001Y00197*
X01003Y00199*
X01004Y00201*
X01006Y00204*
X01007Y00207*
X01008Y00209*
X01008Y00212*
X01009Y00215*
X01009Y00218*
X01009Y00221*
X0101Y00221*
X00998Y00192D02*
D01*
X00995Y0019*
X00994Y00188*
X00992Y00185*
X0099Y00183*
X00989Y0018*
X00988Y00177*
X00987Y00174*
X00986Y00171*
X00985Y00168*
X00985Y00165*
X00985Y00162*
X00985Y00162*
X01086Y00274D02*
D01*
X01086Y00271*
X01087Y00268*
X01087Y00265*
X01088Y00263*
X01089Y0026*
X0109Y00258*
X01091Y00255*
X01092Y00253*
X01094Y0025*
X01096Y00248*
X01097Y00246*
X01098Y00246*
X0114Y00186D02*
D01*
X0114Y00189*
X0114Y00192*
X01139Y00195*
X01139Y00198*
X01138Y002*
X01137Y00203*
X01135Y00205*
X01134Y00208*
X01132Y0021*
X01131Y00213*
X01129Y00215*
X01128Y00215*
X0095Y00246D02*
D01*
X00952Y00247*
X00953Y00248*
X00954Y0025*
X00955Y00252*
X00956Y00253*
X00957Y00255*
X00957Y00257*
X00958Y00259*
X00958Y00261*
X00958Y00263*
X00958Y00264*
X00958Y00265*
X0095Y00246D02*
D01*
X00948Y00243*
X00946Y00241*
X00944Y00238*
X00942Y00235*
X00941Y00232*
X0094Y00229*
X00939Y00226*
X00938Y00223*
X00937Y0022*
X00937Y00216*
X00937Y00213*
X00937Y00212*
X00917Y00141D02*
D01*
X0092Y00145*
X00923Y00148*
X00926Y00152*
X00928Y00156*
X0093Y0016*
X00932Y00165*
X00934Y00169*
X00935Y00174*
X00936Y00178*
X00936Y00183*
X00936Y00188*
X00937Y00189*
X00917Y00141D02*
D01*
X00915Y00139*
X00913Y00137*
X00912Y00135*
X00911Y00133*
X00909Y00131*
X00908Y00128*
X00908Y00126*
X00907Y00123*
X00906Y00121*
X00906Y00118*
X00906Y00116*
X00906Y00115*
X00982Y00259D02*
D01*
X00982Y0026*
X00982Y0026*
X00983Y00261*
X00983Y00261*
X00983Y00261*
X00983Y00262*
X00984Y00262*
X00984Y00263*
X00984Y00263*
X00984Y00264*
X00984Y00264*
X00984Y00264*
X00982Y00259D02*
D01*
X00981Y00259*
X00981Y00259*
X00981Y00258*
X0098Y00258*
X0098Y00257*
X0098Y00257*
X0098Y00256*
X0098Y00256*
X0098Y00255*
X0098Y00255*
X00979Y00254*
X0098Y00254*
X01061Y00266D02*
D01*
X01061Y00265*
X01061Y00265*
X01061Y00264*
X01061Y00264*
X01061Y00264*
X01061Y00263*
X01061Y00263*
X01062Y00262*
X01062Y00262*
X01062Y00262*
X01062Y00261*
X01062Y00261*
X01065Y00256D02*
D01*
X01064Y00257*
X01064Y00257*
X01064Y00258*
X01064Y00258*
X01064Y00259*
X01064Y00259*
X01064Y0026*
X01063Y0026*
X01063Y0026*
X01063Y00261*
X01063Y00261*
X01062Y00261*
X00906Y00115D02*
D01*
X00906Y00113*
X00906Y00111*
X00907Y00109*
X00907Y00107*
X00908Y00104*
X00909Y00102*
X0091Y00101*
X00911Y00099*
X00912Y00097*
X00913Y00095*
X00915Y00094*
X00915Y00093*
X00897D02*
D01*
X00898Y00095*
X009Y00096*
X00901Y00098*
X00902Y001*
X00903Y00102*
X00904Y00104*
X00905Y00106*
X00905Y00108*
X00906Y0011*
X00906Y00112*
X00906Y00115*
X00906Y00115*
X00985D02*
D01*
X00985Y00113*
X00985Y00111*
X00985Y00109*
X00986Y00107*
X00987Y00104*
X00987Y00102*
X00988Y00101*
X00989Y00099*
X00991Y00097*
X00992Y00095*
X00993Y00094*
X00994Y00093*
X00976D02*
D01*
X00977Y00095*
X00979Y00096*
X0098Y00098*
X00981Y001*
X00982Y00102*
X00983Y00104*
X00983Y00106*
X00984Y00108*
X00984Y0011*
X00985Y00112*
X00985Y00115*
X00985Y00115*
X01063D02*
D01*
X01064Y00113*
X01064Y00111*
X01064Y00109*
X01065Y00107*
X01065Y00104*
X01066Y00102*
X01067Y00101*
X01068Y00099*
X01069Y00097*
X01071Y00095*
X01072Y00094*
X01073Y00093*
X01054D02*
D01*
X01056Y00095*
X01057Y00096*
X01059Y00098*
X0106Y001*
X01061Y00102*
X01061Y00104*
X01062Y00106*
X01063Y00108*
X01063Y0011*
X01063Y00112*
X01063Y00115*
X01063Y00115*
X0114Y00113D02*
D01*
X0114Y00111*
X01141Y00109*
X01141Y00107*
X01141Y00105*
X01142Y00102*
X01143Y001*
X01144Y00099*
X01145Y00097*
X01146Y00095*
X01147Y00093*
X01149Y00092*
X01149Y00091*
X01131D02*
D01*
X01133Y00093*
X01134Y00094*
X01135Y00096*
X01136Y00098*
X01137Y001*
X01138Y00102*
X01139Y00104*
X01139Y00106*
X0114Y00108*
X0114Y0011*
X0114Y00113*
X0114Y00113*
X0088Y00383D02*
D01*
X00879Y00385*
X00879Y00387*
X00879Y0039*
X00878Y00392*
X00878Y00394*
X00877Y00396*
X00876Y00398*
X00875Y004*
X00874Y00401*
X00872Y00403*
X00871Y00405*
X0087Y00405*
X00889D02*
D01*
X00887Y00403*
X00886Y00402*
X00884Y004*
X00883Y00398*
X00882Y00396*
X00882Y00394*
X00881Y00392*
X0088Y0039*
X0088Y00388*
X0088Y00386*
X0088Y00384*
X0088Y00383*
X00891Y0026D02*
D01*
X00887Y00259*
X00884Y00259*
X0088Y00258*
X00876Y00257*
X00873Y00256*
X00869Y00255*
X00866Y00253*
X00862Y00251*
X00859Y00249*
X00856Y00247*
X00853Y00244*
X00853Y00243*
Y00276D02*
D01*
X00855Y00273*
X00858Y00271*
X00861Y00268*
X00865Y00266*
X00868Y00265*
X00872Y00263*
X00875Y00262*
X00879Y00261*
X00883Y0026*
X00886Y0026*
X0089Y0026*
X00891Y0026*
Y00165D02*
D01*
X00887Y00164*
X00884Y00164*
X0088Y00163*
X00876Y00162*
X00873Y00161*
X00869Y0016*
X00866Y00158*
X00862Y00156*
X00859Y00154*
X00856Y00152*
X00853Y00149*
X00853Y00148*
Y00181D02*
D01*
X00855Y00178*
X00858Y00176*
X00861Y00173*
X00865Y00171*
X00868Y0017*
X00872Y00168*
X00875Y00167*
X00879Y00166*
X00883Y00165*
X00886Y00165*
X0089Y00165*
X00891Y00165*
X00883D02*
D01*
X00883Y00165*
X00884Y00165*
X00885Y00165*
X00886Y00165*
X00887Y00165*
X00887Y00166*
X00888Y00166*
X00889Y00166*
X0089Y00167*
X0089Y00167*
X00891Y00168*
X00891Y00168*
Y00161D02*
D01*
X0089Y00162*
X0089Y00162*
X00889Y00163*
X00888Y00163*
X00888Y00163*
X00887Y00164*
X00886Y00164*
X00885Y00164*
X00884Y00164*
X00884Y00164*
X00883Y00164*
X00883Y00165*
X00892Y0016D02*
D01*
X00891Y00161*
X0089Y00161*
X00889Y00161*
X00888Y00162*
X00887Y00162*
X00886Y00162*
X00885Y00162*
X00884*
X00883Y00162*
X00882Y00162*
X00881Y00162*
X00881Y00162*
Y00167D02*
D01*
X00882Y00167*
X00883Y00167*
X00884Y00167*
X00885Y00167*
X00886Y00167*
X00887Y00167*
X00888Y00167*
X00889Y00167*
X0089Y00168*
X00891Y00168*
X00892Y00169*
X00892Y00169*
X00883Y0026D02*
D01*
X00883Y0026*
X00884Y0026*
X00885Y0026*
X00886Y0026*
X00887Y0026*
X00887Y00261*
X00888Y00261*
X00889Y00261*
X0089Y00262*
X0089Y00262*
X00891Y00263*
X00891Y00263*
Y00256D02*
D01*
X0089Y00257*
X0089Y00257*
X00889Y00258*
X00888Y00258*
X00888Y00258*
X00887Y00259*
X00886Y00259*
X00885Y00259*
X00884Y00259*
X00884Y00259*
X00883Y00259*
X00883Y0026*
X00881Y00262D02*
D01*
X00882Y00262*
X00883Y00262*
X00884Y00262*
X00885Y00262*
X00886Y00262*
X00887Y00262*
X00888Y00262*
X00889Y00262*
X0089Y00263*
X00891Y00263*
X00892Y00264*
X00892Y00264*
Y00255D02*
D01*
X00891Y00256*
X0089Y00256*
X00889Y00256*
X00888Y00257*
X00887Y00257*
X00886Y00257*
X00885Y00257*
X00884*
X00883Y00257*
X00882Y00257*
X00881Y00257*
X00881Y00257*
X01065Y00236D02*
D01*
X01065Y00236*
X01065Y00235*
X01065Y00234*
X01065Y00233*
X01065Y00232*
X01066Y00232*
X01066Y00231*
X01066Y0023*
X01067Y00229*
X01067Y00229*
X01068Y00228*
X01068Y00228*
X01061D02*
D01*
X01062Y00229*
X01062Y00229*
X01063Y0023*
X01063Y00231*
X01063Y00231*
X01064Y00232*
X01064Y00233*
X01064Y00234*
X01064Y00235*
X01064Y00235*
X01064Y00236*
X01065Y00236*
X0098D02*
D01*
X0098Y00236*
X0098Y00235*
X0098Y00234*
X0098Y00233*
X0098Y00232*
X00981Y00232*
X00981Y00231*
X00981Y0023*
X00982Y00229*
X00982Y00229*
X00983Y00228*
X00983Y00228*
X00976D02*
D01*
X00977Y00229*
X00977Y00229*
X00978Y0023*
X00978Y00231*
X00978Y00231*
X00979Y00232*
X00979Y00233*
X00979Y00234*
X00979Y00235*
X00979Y00235*
X00979Y00236*
X0098Y00236*
X01175Y00488D02*
D01*
X01174Y00488*
X01174Y00489*
X01174Y0049*
X01174Y00491*
X01174Y00492*
X01173Y00492*
X01173Y00493*
X01173Y00494*
X01172Y00495*
X01172Y00495*
X01171Y00496*
X01171Y00496*
X01178D02*
D01*
X01177Y00495*
X01177Y00495*
X01176Y00494*
X01176Y00493*
X01176Y00493*
X01175Y00492*
X01175Y00491*
X01175Y0049*
X01175Y00489*
X01175Y00489*
X01175Y00488*
X01175Y00488*
X01112Y0033D02*
X01165D01*
X01175Y0034*
Y005*
X0088Y0035D02*
Y00414D01*
Y0035D02*
X009Y0033D01*
X00933*
X0063Y00415D02*
X0063Y00414D01*
X00837Y0026D02*
X00895D01*
X00837Y00165D02*
X00895D01*
X00805Y00425D02*
Y00545D01*
Y00425D02*
X0088Y0035D01*
X00035Y0075D02*
X00038Y00746D01*
X00984Y00264D02*
Y0033D01*
X01035Y00219D02*
Y0033D01*
X01063Y00064D02*
Y0015D01*
X0101Y00221D02*
Y0033D01*
X00985Y00064D02*
Y00162D01*
X01086Y00274D02*
Y0033D01*
X0114Y00062D02*
Y00186D01*
X01098Y00246D02*
X01128Y00215D01*
X00958Y00265D02*
Y0033D01*
X00937Y00189D02*
Y00212D01*
X00906Y00064D02*
Y00115D01*
X0098Y00225D02*
Y00254D01*
X01065Y00225D02*
Y00256D01*
X01061Y00266D02*
Y0033D01*
G54D12*
X01208Y01106D02*
D01*
X0121Y01108*
X01212Y0111*
X01214Y01113*
X01215Y01115*
X01217Y01117*
X01218Y0112*
X01219Y01123*
X01219Y01125*
X0122Y01128*
X0122Y01131*
X0122Y01134*
X0122Y01135*
X01237Y01118D02*
D01*
X01234Y01118*
X01231Y01117*
X01229Y01117*
X01226Y01116*
X01223Y01115*
X01221Y01114*
X01218Y01113*
X01216Y01112*
X01213Y0111*
X01211Y01108*
X01209Y01106*
X01208Y01106*
X00965Y01299D02*
D01*
X00965Y01296*
X00965Y01292*
X00966Y01289*
X00966Y01286*
X00968Y01282*
X00969Y01279*
X0097Y01276*
X00972Y01273*
X00974Y0127*
X00976Y01267*
X00979Y01265*
X00979Y01264*
X0095D02*
D01*
X00952Y01267*
X00954Y01269*
X00956Y01272*
X00958Y01275*
X0096Y01278*
X00961Y01282*
X00962Y01285*
X00963Y01288*
X00964Y01292*
X00964Y01295*
X00964Y01299*
X00965Y01299*
X0113Y01471D02*
D01*
X01129Y01472*
X01129Y01474*
X01129Y01476*
X01129Y01477*
X01128Y01479*
X01127Y0148*
X01127Y01482*
X01126Y01483*
X01125Y01485*
X01124Y01486*
X01123Y01487*
X01123Y01487*
X01136D02*
D01*
X01135Y01486*
X01134Y01485*
X01133Y01484*
X01132Y01482*
X01132Y01481*
X01131Y01479*
X01131Y01478*
X0113Y01476*
X0113Y01474*
X0113Y01473*
X0113Y01471*
X0113Y01471*
X00072Y00909D02*
D01*
X00072Y00904*
X00073Y00899*
X00074Y00895*
X00075Y0089*
X00076Y00886*
X00078Y00881*
X0008Y00877*
X00082Y00873*
X00085Y00869*
X00088Y00866*
X00091Y00862*
X00092Y00861*
X00053D02*
D01*
X00056Y00865*
X00059Y00868*
X00061Y00872*
X00064Y00876*
X00066Y0088*
X00068Y00885*
X00069Y00889*
X0007Y00894*
X00071Y00898*
X00072Y00903*
X00072Y00907*
X00072Y00909*
X00035Y0077D02*
D01*
X00037Y00772*
X00039Y00775*
X00041Y00777*
X00042Y0078*
X00044Y00783*
X00045Y00786*
X00046Y00789*
X00047Y00792*
X00048Y00796*
X00048Y00799*
X00048Y00802*
X00048Y00806*
X00048Y00809*
X00048Y00812*
X00047Y00816*
X00046Y00818*
X00057Y00792D02*
D01*
X00059Y00794*
X0006Y00795*
X00061Y00797*
X00062Y00799*
X00063Y00801*
X00064Y00803*
X00065Y00805*
X00065Y00807*
X00066Y00809*
X00066Y00812*
X00066Y00814*
X00066Y00816*
X00066Y00818*
X00066Y00821*
X00065Y00823*
X00065Y00825*
X00487Y00919D02*
D01*
X00487Y00914*
X00488Y00908*
X00489Y00902*
X0049Y00897*
X00492Y00892*
X00494Y00886*
X00496Y00881*
X00499Y00876*
X00502Y00872*
X00506Y00867*
X0051Y00863*
X00511Y00862*
X00463D02*
D01*
X00467Y00866*
X00471Y00871*
X00474Y00875*
X00477Y0088*
X00479Y00885*
X00481Y0089*
X00483Y00896*
X00485Y00901*
X00486Y00907*
X00487Y00912*
X00487Y00918*
X00487Y00919*
X00406Y00835D02*
D01*
X00412Y00835*
X00417Y00835*
X00423Y00836*
X00428Y00838*
X00434Y00839*
X00439Y00841*
X00444Y00844*
X00449Y00847*
X00454Y0085*
X00458Y00853*
X00462Y00857*
X00463Y00858*
Y00811D02*
D01*
X00459Y00815*
X00455Y00818*
X0045Y00821*
X00445Y00824*
X0044Y00827*
X00435Y00829*
X0043Y00831*
X00424Y00832*
X00419Y00834*
X00413Y00834*
X00407Y00834*
X00406Y00835*
X00472Y0095D02*
D01*
X0047Y00949*
X00468Y00949*
X00465Y00949*
X00463Y00948*
X00461Y00947*
X00459Y00947*
X00457Y00946*
X00455Y00944*
X00453Y00943*
X00451Y00942*
X00449Y0094*
X00449Y0094*
Y00959D02*
D01*
X0045Y00958*
X00452Y00956*
X00454Y00955*
X00456Y00954*
X00458Y00953*
X0046Y00952*
X00462Y00951*
X00465Y0095*
X00467Y0095*
X00469Y0095*
X00472Y0095*
X00472Y0095*
X00624D02*
X0071D01*
X00487D02*
X00624D01*
X00487Y00835D02*
Y0095D01*
X00439D02*
X00487D01*
X00385Y00835D02*
X00487D01*
X00035Y0077D02*
X00072Y00807D01*
Y00835*
X01153Y01365D02*
Y01421D01*
X0113Y01445D02*
X01153Y01421D01*
X0113Y01445D02*
Y01494D01*
X00035Y0037D02*
Y0056D01*
X00075Y00385D02*
Y00435D01*
Y00385D02*
X001Y0036D01*
X00325*
X00035Y0056D02*
Y0075D01*
Y0077*
X00038Y00746D02*
X00503D01*
X00875Y00635D02*
Y00785D01*
Y00845*
Y00925*
X00836Y01301D02*
X009Y01365D01*
X01066*
X00965Y0125D02*
Y0131D01*
X0118Y00947D02*
Y01077D01*
X01237Y01135*
X0071Y0095D02*
X00788Y01028D01*
Y01125*
X00836Y01173*
Y01301*
X00072Y00835D02*
Y00922D01*
X00625Y01D02*
X00675Y0105D01*
Y0111*
X0132Y01245D02*
X01345Y0122D01*
X0132Y01245D02*
Y016D01*
X00875Y00925D02*
X0092Y0097D01*
X01015*
X01071Y00913*
X01145*
X0118Y00947*
G54D13*
X00525Y004D02*
D01*
X00525Y00397*
X00525Y00393*
X00526Y0039*
X00527Y00386*
X00528Y00383*
X00529Y00379*
X00531Y00376*
X00532Y00373*
X00534Y0037*
X00537Y00367*
X00539Y00364*
X0054Y00364*
X00509D02*
D01*
X00512Y00366*
X00514Y00369*
X00516Y00372*
X00518Y00375*
X0052Y00378*
X00521Y00382*
X00522Y00385*
X00523Y00389*
X00524Y00392*
X00524Y00396*
X00524Y004*
X00525Y004*
X00577Y00094D02*
D01*
X00573Y00094*
X0057Y00094*
X00566Y00093*
X00562Y00092*
X00559Y00091*
X00556Y0009*
X00552Y00088*
X00549Y00086*
X00546Y00084*
X00543Y00082*
X0054Y0008*
X0054Y00079*
Y0011D02*
D01*
X00542Y00107*
X00545Y00105*
X00548Y00103*
X00551Y00101*
X00555Y00099*
X00558Y00098*
X00561Y00097*
X00565Y00096*
X00569Y00095*
X00572Y00094*
X00576Y00094*
X00577Y00094*
X0125Y01382D02*
D01*
X01249Y01384*
X01249Y01387*
X01249Y01389*
X01248Y01391*
X01247Y01393*
X01247Y01396*
X01246Y01398*
X01244Y014*
X01243Y01402*
X01242Y01403*
X0124Y01405*
X0124Y01406*
X01259D02*
D01*
X01258Y01404*
X01256Y01402*
X01255Y014*
X01254Y01398*
X01253Y01396*
X01252Y01394*
X01251Y01392*
X0125Y0139*
X0125Y01387*
X0125Y01385*
X0125Y01383*
X0125Y01382*
X00523Y00672D02*
D01*
X0052Y00672*
X00518Y00672*
X00516Y00671*
X00514Y00671*
X00511Y0067*
X00509Y00669*
X00507Y00668*
X00505Y00667*
X00503Y00666*
X00501Y00664*
X005Y00663*
X00499Y00662*
Y00682D02*
D01*
X00501Y0068*
X00503Y00679*
X00505Y00677*
X00507Y00676*
X00509Y00675*
X00511Y00674*
X00513Y00673*
X00515Y00673*
X00518Y00672*
X0052Y00672*
X00522Y00672*
X00523Y00672*
X00722Y00121D02*
D01*
X00722Y00123*
X00722Y00126*
X00722Y00128*
X00721Y00131*
X0072Y00134*
X00719Y00136*
X00718Y00138*
X00717Y00141*
X00715Y00143*
X00714Y00145*
X00712Y00147*
X00711Y00147*
X00734D02*
D01*
X00732Y00146*
X0073Y00143*
X00729Y00141*
X00727Y00139*
X00726Y00137*
X00725Y00134*
X00724Y00132*
X00723Y00129*
X00723Y00127*
X00723Y00124*
X00722Y00121*
X00722Y00121*
X01192Y0131D02*
X01235D01*
X00965D02*
X01192D01*
X00525Y00315D02*
Y00425D01*
X0063Y00415D02*
Y005D01*
Y0012D02*
Y00415D01*
X00525Y00094D02*
X00604D01*
X0063Y0012*
X0125Y01325D02*
Y01427D01*
X00725Y00595D02*
X00775Y00545D01*
X0063Y005D02*
X00725Y00595D01*
X0082Y0069*
X00775Y00545D02*
X00805D01*
X009*
X00722Y00087D02*
Y00165D01*
X00525Y00425D02*
X0058Y0048D01*
Y00635*
X00542Y00672D02*
X0058Y00635D01*
X0049Y00672D02*
X00542D01*
X01235Y0131D02*
X0125Y01325D01*
X00867Y01257D02*
X0092Y0131D01*
X00867Y0116D02*
Y01257D01*
X0082Y01112D02*
X00867Y0116D01*
X0082Y0069D02*
Y01112D01*
X00965Y0131D02*
D01*
X0092D02*
X00965D01*
G54D14*
X01219Y01582D02*
D01*
X01221Y01582*
X01223Y01582*
X01225Y01583*
X01227Y01583*
X01229Y01584*
X01231Y01585*
X01233Y01585*
X01235Y01587*
X01237Y01588*
X01238Y01589*
X0124Y01591*
X0124Y01591*
Y01573D02*
D01*
X01239Y01574*
X01237Y01576*
X01235Y01577*
X01234Y01578*
X01232Y01579*
X0123Y0158*
X01228Y01581*
X01226Y01581*
X01223Y01581*
X01221Y01582*
X01219Y01582*
X01219Y01582*
X01195D02*
X0125D01*
X01195Y01494D02*
Y01582D01*
X0113Y01494D02*
X01195D01*
G54D15*
X00895Y00845D02*
D01*
X00898Y00845*
X009Y00845*
X00902Y00845*
X00905Y00846*
X00907Y00847*
X00909Y00847*
X00911Y00848*
X00913Y0085*
X00915Y00851*
X00917Y00852*
X00918Y00854*
X00919Y00854*
Y00835D02*
D01*
X00917Y00836*
X00915Y00838*
X00913Y00839*
X00911Y0084*
X00909Y00841*
X00907Y00842*
X00905Y00843*
X00903Y00844*
X00901Y00844*
X00898Y00844*
X00896Y00844*
X00895Y00845*
Y00784D02*
D01*
X00898Y00784*
X009Y00784*
X00902Y00784*
X00905Y00785*
X00907Y00786*
X00909Y00786*
X00911Y00787*
X00913Y00789*
X00915Y0079*
X00917Y00791*
X00918Y00793*
X00919Y00793*
Y00774D02*
D01*
X00917Y00775*
X00915Y00777*
X00913Y00778*
X00911Y00779*
X00909Y0078*
X00907Y00781*
X00905Y00782*
X00903Y00783*
X00901Y00783*
X00898Y00783*
X00896Y00784*
X00895Y00784*
X00248Y0095D02*
D01*
X00246Y00949*
X00244Y00949*
X00241Y00949*
X00239Y00948*
X00237Y00947*
X00235Y00947*
X00233Y00946*
X00231Y00944*
X00229Y00943*
X00227Y00942*
X00225Y0094*
X00225Y0094*
Y00959D02*
D01*
X00226Y00958*
X00228Y00956*
X0023Y00955*
X00232Y00954*
X00234Y00953*
X00236Y00952*
X00238Y00951*
X00241Y0095*
X00243Y0095*
X00245Y0095*
X00248Y0095*
X00248Y0095*
X00035Y0056D02*
D01*
X00038Y0056*
X00041Y0056*
X00044Y0056*
X00047Y00561*
X0005Y00562*
X00052Y00563*
X00055Y00565*
X00058Y00566*
X0006Y00568*
X00063Y0057*
X00065Y00572*
X00067Y00574*
X00069Y00576*
Y00543D02*
D01*
X00067Y00546*
X00064Y00548*
X00062Y0055*
X0006Y00552*
X00057Y00553*
X00054Y00555*
X00052Y00556*
X00049Y00557*
X00046Y00558*
X00043Y00559*
X0004Y00559*
X00037Y00559*
X00035Y0056*
X00282Y00929D02*
D01*
X00282Y00922*
X00283Y00916*
X00284Y0091*
X00286Y00904*
X00288Y00898*
X0029Y00892*
X00293Y00886*
X00296Y00881*
X00299Y00876*
X00303Y00871*
X00307Y00866*
X00309Y00865*
X00282Y009D02*
D01*
X00282Y00896*
X00283Y00892*
X00283Y00887*
X00285Y00883*
X00286Y00879*
X00287Y00875*
X00289Y00871*
X00292Y00867*
X00294Y00864*
X00297Y00861*
X00299Y00857*
X003Y00857*
X00256Y00865D02*
D01*
X0026Y00869*
X00264Y00874*
X00268Y0088*
X00271Y00885*
X00274Y00891*
X00276Y00896*
X00278Y00902*
X0028Y00908*
X00281Y00915*
X00282Y00921*
X00282Y00927*
X00282Y00929*
X00264Y00857D02*
D01*
X00267Y0086*
X0027Y00863*
X00272Y00867*
X00274Y0087*
X00276Y00874*
X00278Y00878*
X00279Y00882*
X00281Y00886*
X00281Y00891*
X00282Y00895*
X00282Y00899*
X00282Y009*
X00317Y0095D02*
D01*
X0032Y0095*
X00323Y0095*
X00326Y0095*
X00329Y00951*
X00332Y00952*
X00335Y00953*
X00337Y00955*
X0034Y00956*
X00342Y00958*
X00345Y0096*
X00347Y00962*
X00348Y00962*
Y00937D02*
D01*
X00345Y00939*
X00343Y00941*
X00341Y00943*
X00338Y00944*
X00335Y00945*
X00333Y00947*
X0033Y00948*
X00327Y00948*
X00324Y00949*
X00321Y00949*
X00318Y00949*
X00317Y0095*
X0118Y01129D02*
D01*
X01177Y01131*
X01175Y01133*
X01172Y01134*
X0117Y01136*
X01167Y01137*
X01164Y01139*
X01161Y0114*
X01158Y0114*
X01155Y01141*
X01152Y01141*
X01149Y01141*
X01146Y01141*
X01145Y01141*
X01167Y01163D02*
D01*
X01167Y0116*
X01167Y01157*
X01167Y01154*
X01168Y01151*
X01168Y01148*
X01169Y01145*
X0117Y01142*
X01172Y01139*
X01173Y01137*
X01175Y01134*
X01177Y01132*
X01179Y01129*
X0118Y01129*
X00624Y0095D02*
D01*
X00624Y00946*
X00624Y00942*
X00625Y00938*
X00626Y00934*
X00627Y00931*
X00628Y00927*
X0063Y00924*
X00632Y0092*
X00634Y00917*
X00636Y00914*
X00639Y00911*
X0064Y0091*
X00607D02*
D01*
X0061Y00913*
X00612Y00916*
X00614Y00919*
X00616Y00922*
X00618Y00926*
X0062Y00929*
X00621Y00933*
X00622Y00937*
X00623Y0094*
X00623Y00944*
X00624Y00948*
X00624Y0095*
X00268D02*
D01*
X00269Y0095*
X0027Y0095*
X00271Y0095*
X00272Y0095*
X00273Y0095*
X00274Y00951*
X00275Y00951*
X00275Y00952*
X00276Y00952*
X00277Y00953*
X00278Y00954*
X00278Y00954*
Y00945D02*
D01*
X00277Y00946*
X00276Y00947*
X00276Y00947*
X00275Y00948*
X00274Y00948*
X00273Y00949*
X00272Y00949*
X00271Y00949*
X0027Y00949*
X00269Y00949*
X00268Y00949*
X00268Y0095*
X00282Y00964D02*
D01*
X00282Y00963*
X00282Y00962*
X00282Y00961*
X00283Y0096*
X00283Y00959*
X00283Y00958*
X00284Y00957*
X00284Y00956*
X00285Y00955*
X00285Y00955*
X00286Y00954*
X00286Y00954*
X00278D02*
D01*
X00279Y00954*
X00279Y00955*
X0028Y00956*
X0028Y00957*
X00281Y00958*
X00281Y00959*
X00282Y0096*
X00282Y00961*
X00282Y00962*
X00282Y00963*
X00282Y00964*
X00282Y00964*
Y00935D02*
D01*
X00282Y00936*
X00282Y00937*
X00282Y00938*
X00282Y00939*
X00281Y0094*
X00281Y00941*
X0028Y00942*
X0028Y00943*
X00279Y00944*
X00279Y00944*
X00278Y00945*
X00278Y00945*
X00286D02*
D01*
X00286Y00945*
X00285Y00944*
X00284Y00943*
X00284Y00942*
X00283Y00941*
X00283Y0094*
X00283Y00939*
X00283Y00938*
X00282Y00937*
X00282Y00936*
X00282Y00935*
X00282Y00935*
X00296Y0095D02*
D01*
X00295Y00949*
X00294Y00949*
X00293Y00949*
X00292Y00949*
X00292Y00949*
X00291Y00948*
X0029Y00948*
X00289Y00947*
X00288Y00947*
X00287Y00946*
X00286Y00945*
X00286Y00945*
Y00954D02*
D01*
X00287Y00953*
X00288Y00952*
X00289Y00952*
X00289Y00951*
X0029Y00951*
X00291Y0095*
X00292Y0095*
X00293Y0095*
X00294Y0095*
X00295Y0095*
X00296Y0095*
X00296Y0095*
X0017Y01192D02*
D01*
X00171Y01192*
X00172Y01193*
X00173Y01193*
X00174Y01193*
X00175Y01193*
X00176Y01194*
X00177Y01194*
X00178Y01195*
X00179Y01195*
X00179Y01196*
X0018Y01196*
X0018Y01197*
Y01188D02*
D01*
X0018Y01189*
X00179Y0119*
X00178Y0119*
X00177Y01191*
X00176Y01191*
X00175Y01191*
X00174Y01192*
X00173Y01192*
X00172Y01192*
X00171Y01192*
X0017Y01192*
X0017Y01192*
X00624Y00893D02*
Y0095D01*
X01192Y0131D02*
X01194Y01308D01*
X01143Y01165D02*
X0118Y01129D01*
Y01077D02*
Y01129D01*
X00245Y01039D02*
X00344D01*
X00194Y0109D02*
X00245Y01039D01*
X00131Y0109D02*
X00194D01*
X00282Y00977D02*
X00344Y01039D01*
X00131Y01192D02*
X00185D01*
X00282Y0095D02*
Y00977D01*
Y0095D02*
X0036D01*
X00215D02*
X00282D01*
Y00835D02*
Y0095D01*
X00035Y0056D02*
X00089D01*
X00933Y00485D02*
Y0057D01*
Y00485D02*
X00933Y00485D01*
X01112Y0045D02*
Y0057D01*
X01022Y0045D02*
X0107D01*
X00875Y00784D02*
X00929D01*
X00875Y00785D02*
X00875Y00784D01*
X00875Y00845D02*
X00929D01*
X00374Y0107D02*
Y01096D01*
X00344Y01039D02*
X00374Y01069D01*
G54D16*
X00395Y0056D02*
D01*
X00391Y00559*
X00388Y00559*
X00384Y00558*
X00381Y00558*
X00377Y00556*
X00374Y00555*
X00371Y00554*
X00368Y00552*
X00365Y0055*
X00362Y00548*
X0036Y00545*
X00358Y00543*
Y00576D02*
D01*
X0036Y00573*
X00363Y00571*
X00366Y00569*
X00369Y00567*
X00372Y00565*
X00375Y00564*
X00378Y00562*
X00381Y00561*
X00385Y0056*
X00388Y0056*
X00392Y0056*
X00395Y0056*
X00442Y00517D02*
D01*
X00445Y00517*
X00449Y00518*
X00452Y00518*
X00455Y00519*
X00458Y0052*
X00461Y00521*
X00464Y00523*
X00467Y00524*
X0047Y00526*
X00473Y00528*
X00475Y0053*
X00476Y00531*
Y00503D02*
D01*
X00473Y00505*
X00471Y00508*
X00468Y00509*
X00465Y00511*
X00462Y00513*
X00459Y00514*
X00456Y00515*
X00453Y00516*
X00449Y00517*
X00446Y00517*
X00443Y00517*
X00442Y00517*
X00439Y00993D02*
D01*
X00439Y00991*
X00439Y00988*
X0044Y00986*
X0044Y00983*
X00441Y0098*
X00442Y00978*
X00443Y00976*
X00445Y00973*
X00446Y00971*
X00448Y00969*
X0045Y00967*
X0045Y00967*
X00428D02*
D01*
X0043Y00968*
X00431Y00971*
X00433Y00973*
X00434Y00975*
X00435Y00977*
X00436Y0098*
X00437Y00982*
X00438Y00985*
X00438Y00987*
X00439Y0099*
X00439Y00993*
X00439Y00993*
Y0095D02*
Y00995D01*
X00425Y0101D02*
X00439Y00995D01*
X004Y0101D02*
X00425D01*
X00437Y00517D02*
X0049D01*
X0034Y0056D02*
X00395D01*
X00416Y00538*
X00437Y00517*
G54D17*
X00131Y01192D03*
Y01167D03*
Y01141D03*
Y01116D03*
Y0109D03*
G54D18*
X00067Y01141D03*
G54D19*
X00933Y00345D03*
X00958D03*
X00984D03*
X0101D03*
X01035D03*
X01061D03*
X01086D03*
X01112D03*
Y0057D03*
X00933D03*
X00958D03*
X00984D03*
X0101D03*
X01035D03*
X01061D03*
X01086D03*
G54D20*
X01022Y0045D03*
G54D21*
X00624Y00893D03*
X01379Y01596D03*
X01143Y01165D03*
G54D22*
X01401Y0122D03*
G54D23*
X01548Y0122D03*
G54D24*
X00278Y0121D03*
X00331D03*
X00278Y011D03*
X00331D03*
G54D25*
X00722Y00165D03*
X00837D03*
X00722Y0026D03*
X00837D03*
G54D26*
X0053Y0111D03*
Y01039D03*
G54D27*
X00464Y01039D03*
Y0111D03*
X01015Y01085D03*
X00944D03*
X01015Y0102D03*
X00944D03*
X00929Y00845D03*
X01D03*
X00775Y0122D03*
X00704D03*
X00484Y01225D03*
X00555D03*
X0088Y00414D03*
Y00485D03*
X01407Y0045D03*
X01336D03*
G54D28*
X00439Y0095D03*
X0036D03*
G54D29*
X0049Y00672D03*
Y00517D03*
X0125Y01427D03*
Y01582D03*
G54D30*
X00282Y00835D03*
X00487D03*
G54D31*
X00089Y0056D03*
X0034D03*
G54D32*
X00177Y00835D03*
X00072D03*
G54D33*
X0111Y0099D03*
Y01089D03*
X0113Y01605D03*
Y01494D03*
G54D34*
X00144Y0095D03*
X00215D03*
X01Y00784D03*
X00929D03*
X01469Y01295D03*
X0154D03*
G54D35*
X00557Y01315D03*
X00702D03*
G54D36*
X00525Y00094D03*
Y00315D03*
G54D37*
X01066Y01365D03*
X01153D03*
G54D38*
X0114Y00062D03*
X01063Y00064D03*
X00985D03*
X00906D03*
G54D39*
X01232Y00882D03*
Y00862D03*
Y00843D03*
Y00823D03*
Y00803D03*
Y00784D03*
Y00764D03*
Y00744D03*
Y00724D03*
Y00705D03*
Y00685D03*
Y00665D03*
X01551D03*
Y00685D03*
Y00705D03*
Y00724D03*
Y00744D03*
Y00764D03*
Y00784D03*
Y00803D03*
Y00823D03*
Y00843D03*
Y00862D03*
Y00882D03*
G54D40*
X01283Y00614D03*
X01303D03*
X01322D03*
X01342D03*
X01362D03*
X01381D03*
X01401D03*
X01421D03*
X0144D03*
X0146D03*
X0148D03*
X015D03*
Y00933D03*
X0148D03*
X0146D03*
X0144D03*
X01421D03*
X01401D03*
X01381D03*
X01362D03*
X01342D03*
X01322D03*
X01303D03*
X01283D03*
G54D41*
X0101Y01605D02*
X0113D01*
X00971Y01566D02*
X0101Y01605D01*
X00971Y01505D02*
Y01566D01*
G54D42*
X00067Y01D03*
Y01282D03*
G54D43*
X00152Y01229D03*
Y01054D03*
G54D44*
X00965Y0125D03*
X00971Y01505D03*
X00415Y01475D03*
G54D45*
X01065Y0125D03*
X00873Y01505D03*
X00775D03*
X00676D03*
X00515Y01475D03*
G54D46*
X01473Y01135D03*
X01395D03*
X01316D03*
X01552D03*
G54D47*
X01237Y01135D03*
G54D48*
X00438Y01268D03*
X00481D03*
X00438Y01311D03*
X00481D03*
X0107Y00497D03*
X01022D03*
X00975D03*
Y00402D03*
X01022D03*
X0107D03*
Y0045D03*
X00975D03*
X01022D03*
X01537Y00112D03*
X01598Y00232D03*
X01393Y00055D03*
X01547Y01523D03*
X01594Y01411D03*
X00062Y01458D03*
X00145Y01561D03*
X00255Y016D03*
X01523Y00423D03*
Y00521D03*
X00814Y00061D03*
X00393Y00246D03*
X00336Y00061D03*
X00143Y00112D03*
X00072Y00279D03*
X00795Y00348D03*
X01177Y00275D03*
X01208Y00188D03*
Y00055D03*
X00865Y00585D03*
X004Y0101D03*
X00185Y01192D03*
X00595Y01415D03*
X00557Y01381D03*
X00519Y01169D03*
X00464Y01165D03*
X00366Y01171D03*
Y01139D03*
X00385Y00835D03*
X00416Y00538D03*
X00525Y00425D03*
X00722Y00402D03*
X01175Y005D03*
X00901Y00545D03*
X006Y01575D03*
X0098Y00225D03*
X01065D03*
X00895Y0026D03*
Y00165D03*
X0125Y00614D03*
X0117Y0065D03*
X00958Y00625D03*
X00035Y0037D03*
X00282Y0095D03*
X00075Y00435D03*
X00325Y0036D03*
X00722Y00087D03*
X00503Y00746D03*
X01442Y00761D03*
X01015Y0097D03*
X00875Y00635D03*
X0122Y00925D03*
X01177Y00862D03*
X0111Y01045D03*
X00995Y00665D03*
X0125Y00475D03*
X0142Y0035D03*
X0138Y01285D03*
X01267Y01086D03*
X00374Y01096D03*
X00425Y01039D03*
X0075Y01135D03*
X00072Y00922D03*
X00625Y01D03*
X00675Y0111D03*
X01059Y0069D03*
X0112Y00625D03*
X0113Y00945D03*
X0129Y00855D03*
X01315Y00835D03*
X0129Y0081D03*
X0134Y00855D03*
X0131Y0105D03*
X01485Y0088D03*
X01444Y00852D03*
X0147Y00823D03*
X01419Y00783D03*
X0159Y00945D03*
X0132Y016D03*
X00948Y00937D03*
X00881Y01009D03*
X00574Y0111D03*
X0115Y00755D03*
X01551Y00907D03*
X01289Y00509D03*
X01214Y0058D03*
X01155Y00826D03*
M02*