%FSTAX23Y23*%
%MOIN*%
%SFA1B1*%

%IPPOS*%
%AMD76*
4,1,8,-0.021700,0.050200,-0.021700,-0.050200,-0.008900,-0.063000,0.008900,-0.063000,0.021700,-0.050200,0.021700,0.050200,0.008900,0.063000,-0.008900,0.063000,-0.021700,0.050200,0.0*
1,1,0.025600,-0.008900,0.050200*
1,1,0.025600,-0.008900,-0.050200*
1,1,0.025600,0.008900,-0.050200*
1,1,0.025600,0.008900,0.050200*
%
%AMD81*
4,1,8,-0.027600,0.017700,-0.027600,-0.017700,-0.011800,-0.033500,0.011800,-0.033500,0.027600,-0.017700,0.027600,0.017700,0.011800,0.033500,-0.011800,0.033500,-0.027600,0.017700,0.0*
1,1,0.031500,-0.011800,0.017700*
1,1,0.031500,-0.011800,-0.017700*
1,1,0.031500,0.011800,-0.017700*
1,1,0.031500,0.011800,0.017700*
%
%AMD84*
4,1,8,0.038400,-0.014800,0.038400,0.014800,0.019700,0.033500,-0.019700,0.033500,-0.038400,0.014800,-0.038400,-0.014800,-0.019700,-0.033500,0.019700,-0.033500,0.038400,-0.014800,0.0*
1,1,0.037400,0.019700,-0.014800*
1,1,0.037400,0.019700,0.014800*
1,1,0.037400,-0.019700,0.014800*
1,1,0.037400,-0.019700,-0.014800*
%
%ADD42C,0.061020*%
%ADD43R,0.061020X0.061020*%
%ADD62O,0.019690X0.074800*%
%ADD63O,0.074800X0.019690*%
%ADD64R,0.047240X0.047240*%
%ADD65C,0.047240*%
%ADD66R,0.047240X0.086610*%
%ADD67R,0.125980X0.125980*%
%ADD68O,0.025590X0.074800*%
%ADD69R,0.032680X0.040550*%
%ADD70R,0.078740X0.047240*%
%ADD71R,0.066930X0.078740*%
%ADD72R,0.078740X0.145670*%
%ADD73R,0.062990X0.086610*%
%ADD74R,0.074800X0.102360*%
%ADD75O,0.061020X0.023620*%
G04~CAMADD=76~8~0.0~0.0~1259.8~433.1~128.0~0.0~15~0.0~0.0~0.0~0.0~0~0.0~0.0~0.0~0.0~0~0.0~0.0~0.0~90.0~434.0~1260.0*
%ADD76D76*%
%ADD77R,0.041340X0.049210*%
%ADD78R,0.082680X0.097640*%
%ADD79R,0.070870X0.165350*%
%ADD80R,0.094490X0.102360*%
G04~CAMADD=81~8~0.0~0.0~669.3~551.2~157.5~0.0~15~0.0~0.0~0.0~0.0~0~0.0~0.0~0.0~0.0~0~0.0~0.0~0.0~90.0~552.0~670.0*
%ADD81D81*%
%ADD82R,0.047240X0.047240*%
%ADD83R,0.076770X0.066930*%
G04~CAMADD=84~8~0.0~0.0~669.3~767.7~187.0~0.0~15~0.0~0.0~0.0~0.0~0~0.0~0.0~0.0~0.0~0~0.0~0.0~0.0~270.0~768.0~669.0*
%ADD84D84*%
%ADD85C,0.066930*%
%ADD86C,0.068900*%
%ADD87R,0.068900X0.068900*%
%ADD88C,0.007870*%
%ADD89O,0.086610X0.055120*%
%ADD90O,0.078740X0.051180*%
%ADD91O,0.055120X0.049210*%
%LNstepperpcb-1*%
%LPD*%
G54D42*
X01552Y01135D03*
X01316D03*
X01395D03*
X01473D03*
G54D43*
X01237Y01135D03*
G54D62*
X01283Y00933D03*
X01303D03*
X01322D03*
X01342D03*
X01362D03*
X01381D03*
X01401D03*
X01421D03*
X0144D03*
X0146D03*
X0148D03*
X015D03*
Y00614D03*
X0148D03*
X0146D03*
X0144D03*
X01421D03*
X01401D03*
X01381D03*
X01362D03*
X01342D03*
X01322D03*
X01303D03*
X01283D03*
G54D63*
X01551Y00882D03*
Y00862D03*
Y00843D03*
Y00823D03*
Y00803D03*
Y00784D03*
Y00764D03*
Y00744D03*
Y00724D03*
Y00705D03*
Y00685D03*
Y00665D03*
X01232D03*
Y00685D03*
Y00705D03*
Y00724D03*
Y00744D03*
Y00764D03*
Y00784D03*
Y00803D03*
Y00823D03*
Y00843D03*
Y00862D03*
Y00882D03*
G54D64*
X0154Y01295D03*
X01469D03*
X00929Y00784D03*
X01D03*
X00215Y0095D03*
X00144D03*
G54D65*
X01336Y0045D03*
X01407D03*
X0088Y00485D03*
Y00414D03*
X00555Y01225D03*
X00484D03*
X00704Y0122D03*
X00775D03*
X01Y00845D03*
X00929D03*
X00944Y0102D03*
X01015D03*
X00944Y01085D03*
X01015D03*
X00464Y0111D03*
Y01039D03*
G54D66*
X00906Y00064D03*
X00985D03*
X01063D03*
X0114Y00062D03*
G54D67*
X01022Y0045D03*
G54D68*
X01112Y0057D03*
X01086D03*
X01061D03*
X01035D03*
X0101D03*
X00984D03*
X00958D03*
X00933D03*
X01112Y0033D03*
X01086D03*
X01061D03*
X01035D03*
X0101D03*
X00984D03*
X00958D03*
X00933D03*
G54D69*
X01153Y01365D03*
X01066D03*
G54D70*
X0113Y01494D03*
Y01605D03*
X0111Y01089D03*
Y0099D03*
G54D71*
X00837Y0026D03*
X00722D03*
X00837Y00165D03*
X00722D03*
G54D72*
X00525Y00315D03*
Y00094D03*
G54D73*
X0125Y01582D03*
Y01427D03*
X0049Y00517D03*
Y00672D03*
G54D74*
X00702Y01315D03*
X00557D03*
G54D75*
X00131Y01192D03*
Y01167D03*
Y01141D03*
Y01116D03*
Y0109D03*
G54D76*
X00067Y01141D03*
G54D77*
X00331Y011D03*
X00278D03*
X00331Y0121D03*
X00278D03*
G54D78*
X00072Y00835D03*
X00177D03*
G54D79*
X0034Y0056D03*
X00089D03*
G54D80*
X00487Y00835D03*
X00282D03*
G54D81*
X0036Y0095D03*
X00439D03*
G54D82*
X0053Y01039D03*
Y0111D03*
G54D83*
X01548Y0122D03*
G54D84*
X01401Y0122D03*
G54D85*
X01143Y01165D03*
X01379Y01596D03*
X00624Y00893D03*
G54D86*
X00515Y01475D03*
X00676Y01505D03*
X00775D03*
X00873D03*
X01065Y0125D03*
G54D87*
X00415Y01475D03*
X00971Y01505D03*
X00965Y0125D03*
G54D88*
X01437Y01437D03*
X00216D03*
Y00216D03*
X01437D03*
G54D89*
X00067Y01D03*
G54D90*
X00067Y01282D03*
G54D91*
X00152Y01229D03*
Y01054D03*
M02*