%FSTAX23Y23*%
%MOIN*%
%SFA1B1*%

%IPPOS*%
%ADD35C,0.007870*%
%ADD57C,0.005910*%
%ADD58C,0.023620*%
%ADD59C,0.009840*%
%ADD60C,0.003940*%
%LNstepperpcb-1*%
%LPD*%
G36*
X00546Y00277D02*
X00546Y00276D01*
X00546*
X00552Y00248*
X00552Y00247*
X00552Y00247*
X00576Y00237*
X00576Y00237*
X00577Y00237*
X00577Y00237*
X00601Y00253*
X00602Y00254*
X00603Y00253*
X00603Y00253*
X00623Y00233*
X00623Y00232*
X00623Y00231*
X00623Y00231*
X00607Y00207*
X00607Y00207*
X00607Y00206*
X00617Y00183*
X00617Y00182*
X00618Y00182*
X00618Y00182*
X00646Y00176*
X00646Y00176*
X00647Y00175*
X00647*
X00647Y00147*
X00646Y00145*
X00646Y00145*
Y00145*
X00618Y0014*
X00617Y00139*
X00617Y00139*
X00607Y00115*
X00607Y00115*
X00607Y00114*
X00607Y00114*
X00623Y00091*
X00623Y0009*
X00623Y00089*
X00623Y00089*
X00603Y00068*
X00602Y00068*
X00601Y00068*
X00601Y00068*
X00577Y00084*
X00576Y00085*
X00576Y00084*
X00565Y0008*
X00565Y0008*
X00563Y0008*
X00563Y00081*
X00544Y00129*
X00543Y0013*
X00544Y00131*
X00544Y00131*
X00544Y00131*
X00547Y00132*
X00554Y00137*
X00559Y00144*
X00563Y00152*
X00564Y00161*
X00563Y00169*
X00559Y00177*
X00554Y00184*
X00547Y00189*
X00539Y00193*
X00531Y00194*
X00522Y00193*
X00514Y00189*
X00507Y00184*
X00502Y00177*
X00499Y00169*
X00497Y00161*
X00499Y00152*
X00502Y00144*
X00507Y00137*
X00514Y00132*
X00517Y00131*
X00517Y00131*
X00517Y00131*
X00518Y0013*
X00518Y00129*
X00498Y00081*
X00498Y0008*
X00497Y0008*
X00496Y0008*
X00485Y00084*
X00485Y00085*
X00484Y00084*
X00484Y00084*
X0046Y00068*
X00459Y00068*
X00458Y00068*
X00458Y00069*
X00438Y00089*
X00438Y0009*
X00438Y00091*
X00438Y00091*
X00454Y00114*
X00454Y00115*
X00454Y00115*
X00445Y00139*
X00444Y00139*
X00443Y0014*
Y0014*
X00416Y00145*
X00415Y00145*
X00414Y00147*
X00414*
X00414Y00175*
X00415Y00176*
X00416Y00176*
X00416Y00176*
X00443Y00182*
X00444Y00182*
X00445Y00183*
X00454Y00206*
X00454Y00207*
X00454Y00207*
X00454Y00207*
X00438Y00231*
X00438Y00232*
X00438Y00233*
X00438Y00233*
X00458Y00253*
X00459Y00254*
X0046Y00253*
X0046Y00253*
X00484Y00237*
X00485Y00237*
X00485Y00237*
X00509Y00247*
X00509Y00247*
X0051Y00248*
X00509Y00248*
X00515Y00276*
X00515Y00277*
X00516Y00277*
Y00277*
X00545Y00277*
X00546Y00277*
G37*
G54D35*
X01371Y00983D02*
Y00997D01*
X01339Y00983D02*
Y00997D01*
X01435Y00982D02*
Y00997D01*
X01404Y00982D02*
Y00997D01*
X015Y00982D02*
Y00997D01*
X01469Y00982D02*
Y00997D01*
X00309Y00453D02*
Y00467D01*
X00341Y00453D02*
Y00467D01*
X00211Y00453D02*
Y00467D01*
X00179Y00453D02*
Y00467D01*
X00244Y00452D02*
Y00467D01*
X00275Y00452D02*
Y00467D01*
X00772Y01569D02*
X00787D01*
X00772Y016D02*
X00787D01*
X00263Y01017D02*
X00296D01*
X00263Y01072D02*
X00296D01*
X01309Y01243D02*
Y01257D01*
X01341Y01243D02*
Y01257D01*
X0116Y01277D02*
Y01309D01*
X01175*
X0116Y0119D02*
Y01222D01*
Y0119D02*
X01175D01*
X00204Y00743D02*
X00275D01*
Y00546D02*
Y00743D01*
X00204Y00546D02*
Y00743D01*
Y00546D02*
X00275D01*
X00762Y01079D02*
X00777D01*
X00762Y0111D02*
X00777D01*
X00455Y01607D02*
X00489D01*
X00455Y01543D02*
X00489D01*
X00823Y01263D02*
Y01334D01*
X00626D02*
X00823D01*
X00626Y01263D02*
X00823D01*
X00626D02*
Y01334D01*
X0065Y00774D02*
Y0079D01*
X00618Y00774D02*
Y0079D01*
X00584Y00774D02*
Y0079D01*
X00553Y00774D02*
Y0079D01*
X01031Y00753D02*
Y00767D01*
X00999Y00753D02*
Y00767D01*
X00791Y00925D02*
X00862D01*
X00791Y00728D02*
Y00925D01*
X00862Y00728D02*
Y00925D01*
X00791Y00728D02*
X00862D01*
X00999Y00883D02*
Y00897D01*
X01031Y00883D02*
Y00897D01*
X00145Y00452D02*
Y00467D01*
X00114Y00452D02*
Y00467D01*
X00675Y00606D02*
X0069D01*
X00675Y00575D02*
Y00606D01*
Y00488D02*
X0069D01*
X00675D02*
Y0052D01*
X01517Y00694D02*
X01532D01*
X01517Y00725D02*
X01532D01*
X01534Y00982D02*
Y00997D01*
X01565Y00982D02*
Y00997D01*
G54D57*
X00271Y01152D02*
Y01207D01*
X00208Y01152D02*
Y01207D01*
X00375Y01374D02*
X00399D01*
X00375Y0135D02*
Y01374D01*
X0052D02*
X00544D01*
Y0135D02*
Y01374D01*
Y01205D02*
Y01229D01*
X0052Y01205D02*
X00544D01*
X00375D02*
X00399D01*
X00375D02*
Y01229D01*
X01226Y00261D02*
X01239D01*
X01246Y00254*
Y00228*
X01239Y00221*
X01226*
X01219Y00228*
Y00254*
X01226Y00261*
X01206Y00208D02*
Y00248D01*
X01187*
X0118Y00241*
Y00228*
X01187Y00221*
X01206*
X01147D02*
X0116D01*
X01167Y00228*
Y00241*
X0116Y00248*
X01147*
X01141Y00241*
Y00234*
X01167*
X01127Y00221D02*
Y00248D01*
X01108*
X01101Y00241*
Y00221*
X01049D02*
Y00261D01*
X01023Y00221*
Y00261*
X01009Y00221D02*
X00996D01*
X01003*
Y00248*
X01009*
X00977D02*
Y00221D01*
Y00234*
X0097Y00241*
X00964Y00248*
X00957*
X00937D02*
Y00228D01*
X00931Y00221*
X00911*
Y00215*
X00918Y00208*
X00924*
X00911Y00221D02*
Y00248D01*
X00891Y00221D02*
X00878D01*
X00872Y00228*
Y00241*
X00878Y00248*
X00891*
X00898Y00241*
Y00228*
X00891Y00221*
X008Y00261D02*
X00813D01*
X00819Y00254*
Y00228*
X00813Y00221*
X008*
X00793Y00228*
Y00254*
X008Y00261*
X0078Y00221D02*
Y00248D01*
X0076*
X00754Y00241*
Y00221*
X00721D02*
X00734D01*
X0074Y00228*
Y00241*
X00734Y00248*
X00721*
X00714Y00241*
Y00234*
X0074*
X0116Y0018D02*
X01167Y00186D01*
X0118*
X01187Y0018*
Y00173*
X0118Y00167*
X01167*
X0116Y0016*
Y00153*
X01167Y00147*
X0118*
X01187Y00153*
X01141Y0018D02*
Y00173D01*
X01147*
X01134*
X01141*
Y00153*
X01134Y00147*
X01095D02*
X01108D01*
X01114Y00153*
Y00167*
X01108Y00173*
X01095*
X01088Y00167*
Y0016*
X01114*
X01075Y00134D02*
Y00173D01*
X01055*
X01049Y00167*
Y00153*
X01055Y00147*
X01075*
X01036Y00134D02*
Y00173D01*
X01016*
X01009Y00167*
Y00153*
X01016Y00147*
X01036*
X00977D02*
X0099D01*
X00996Y00153*
Y00167*
X0099Y00173*
X00977*
X0097Y00167*
Y0016*
X00996*
X00957Y00173D02*
Y00147D01*
Y0016*
X0095Y00167*
X00944Y00173*
X00937*
X00878Y00147D02*
Y00186D01*
X00859*
X00852Y0018*
Y00167*
X00859Y0016*
X00878*
X00813Y0018D02*
X00819Y00186D01*
X00832*
X00839Y0018*
Y00153*
X00832Y00147*
X00819*
X00813Y00153*
X008Y00186D02*
Y00147D01*
X0078*
X00773Y00153*
Y0016*
X0078Y00167*
X008*
X0078*
X00773Y00173*
Y0018*
X0078Y00186*
X008*
X01157Y00072D02*
X01144D01*
X0115*
Y00112*
X01157Y00105*
X01098Y00112D02*
X01111Y00105D01*
X01124Y00092*
Y00079*
X01118Y00072*
X01105*
X01098Y00079*
Y00085*
X01105Y00092*
X01124*
X01085Y00072D02*
Y00079D01*
X01078*
Y00072*
X01085*
X01052Y00105D02*
X01046Y00112D01*
X01032*
X01026Y00105*
Y00079*
X01032Y00072*
X01046*
X01052Y00079*
Y00105*
X01013D02*
X01006Y00112D01*
X00993*
X00986Y00105*
Y00099*
X00993Y00092*
X00986Y00085*
Y00079*
X00993Y00072*
X01006*
X01013Y00079*
Y00085*
X01006Y00092*
X01013Y00099*
Y00105*
X01006Y00092D02*
X00993D01*
X00973Y00072D02*
Y00079D01*
X00967*
Y00072*
X00973*
X00914D02*
X00941D01*
X00914Y00099*
Y00105*
X00921Y00112*
X00934*
X00941Y00105*
X00901D02*
X00895Y00112D01*
X00882*
X00875Y00105*
Y00079*
X00882Y00072*
X00895*
X00901Y00079*
Y00105*
X00862Y00072D02*
X00849D01*
X00855*
Y00112*
X00862Y00105*
X00829Y00079D02*
X00822Y00072D01*
X00809*
X00803Y00079*
Y00105*
X00809Y00112*
X00822*
X00829Y00105*
Y00099*
X00822Y00092*
X00803*
X01499Y0087D02*
X01505Y00864D01*
Y00851*
X01499Y00844*
X01473*
X01466Y00851*
Y00864*
X01473Y0087*
X01499Y00883D02*
X01505Y0089D01*
Y00903*
X01499Y0091*
X01492*
X01486Y00903*
Y00896*
Y00903*
X01479Y0091*
X01473*
X01466Y00903*
Y0089*
X01473Y00883*
X01161Y01336D02*
Y01362D01*
X01168Y01369*
X01181*
X01187Y01362*
Y01336*
X01181Y0133*
X01168*
X01174Y01343D02*
X01161Y0133D01*
X01168D02*
X01161Y01336D01*
X01148Y0133D02*
X01135D01*
X01141*
Y01369*
X01148Y01362*
X00904Y00595D02*
Y00634D01*
X00885*
X00878Y00627*
Y00614*
X00885Y00608*
X00904*
X00891D02*
X00878Y00595D01*
X00845D02*
Y00634D01*
X00865Y00614*
X00839*
X01125Y00735D02*
Y00774D01*
X01105*
X01098Y00767*
Y00754*
X01105Y00748*
X01125*
X01111D02*
X01098Y00735D01*
X01059Y00774D02*
X01085D01*
Y00754*
X01072Y00761*
X01065*
X01059Y00754*
Y00741*
X01065Y00735*
X01079*
X01085Y00741*
X01125Y00865D02*
Y00904D01*
X01105*
X01098Y00897*
Y00884*
X01105Y00878*
X01125*
X01111D02*
X01098Y00865D01*
X01059Y00904D02*
X01072Y00897D01*
X01085Y00884*
Y00871*
X01079Y00865*
X01065*
X01059Y00871*
Y00878*
X01065Y00884*
X01085*
X00356Y01551D02*
Y0159D01*
X00336*
X0033Y01583*
Y0157*
X00336Y01564*
X00356*
X00343D02*
X0033Y01551D01*
X00316D02*
X00303D01*
X0031*
Y0159*
X00316Y01583*
X00257Y01551D02*
X00284D01*
X00257Y01577*
Y01583*
X00264Y0159*
X00277*
X00284Y01583*
X0086Y00994D02*
Y00961D01*
X00853Y00955*
X0084*
X00833Y00961*
Y00994*
X0082Y00987D02*
X00814Y00994D01*
X008*
X00794Y00987*
Y00981*
X008Y00974*
X00807*
X008*
X00794Y00968*
Y00961*
X008Y00955*
X00814*
X0082Y00961*
X00917Y01375D02*
Y01343D01*
X0091Y01336*
X00897*
X00891Y01343*
Y01375*
X00851D02*
X00864Y01369D01*
X00877Y01356*
Y01343*
X00871Y01336*
X00858*
X00851Y01343*
Y01349*
X00858Y01356*
X00877*
X00587Y00621D02*
X00594Y00614D01*
Y00601*
X00587Y00595*
X00561*
X00555Y00601*
Y00614*
X00561Y00621*
Y00634D02*
X00555Y0064D01*
Y00654*
X00561Y0066*
X00587*
X00594Y00654*
Y0064*
X00587Y00634*
X00581*
X00574Y0064*
Y0066*
X00942Y01597D02*
X00948Y01604D01*
X00961*
X00968Y01597*
Y01571*
X00961Y01564*
X00948*
X00942Y01571*
X00902Y01564D02*
X00929D01*
X00902Y01591*
Y01597*
X00909Y01604*
X00922*
X00929Y01597*
X00889D02*
X00883Y01604D01*
X0087*
X00863Y01597*
Y01571*
X0087Y01564*
X00883*
X00889Y01571*
Y01597*
X0153Y00791D02*
X01536Y00798D01*
X01549*
X01556Y00791*
Y00765*
X01549Y00759*
X01536*
X0153Y00765*
X0149Y00798D02*
X01516D01*
Y00778*
X01503Y00785*
X01497*
X0149Y00778*
Y00765*
X01497Y00759*
X0151*
X01516Y00765*
X01434Y00872D02*
X0144Y00866D01*
Y00853*
X01434Y00846*
X01408*
X01401Y00853*
Y00866*
X01408Y00872*
X01401Y00885D02*
Y00898D01*
Y00892*
X0144*
X01434Y00885*
X01564Y0087D02*
X0157Y00864D01*
Y00851*
X01564Y00844*
X01538*
X01531Y00851*
Y00864*
X01538Y0087*
X01531Y0091D02*
Y00883D01*
X01557Y0091*
X01564*
X0157Y00903*
Y0089*
X01564Y00883*
X00647Y00621D02*
X00654Y00614D01*
Y00601*
X00647Y00595*
X00621*
X00615Y00601*
Y00614*
X00621Y00621*
X00615Y00634D02*
Y00647D01*
Y0064*
X00654*
X00647Y00634*
Y00667D02*
X00654Y00673D01*
Y00686*
X00647Y00693*
X00621*
X00615Y00686*
Y00673*
X00621Y00667*
X00647*
X00277Y00311D02*
X00284Y00304D01*
Y00291*
X00277Y00285*
X00251*
X00245Y00291*
Y00304*
X00251Y00311*
X00245Y00324D02*
Y00337D01*
Y0033*
X00284*
X00277Y00324*
X00284Y00383D02*
X00277Y0037D01*
X00264Y00357*
X00251*
X00245Y00363*
Y00376*
X00251Y00383*
X00258*
X00264Y00376*
Y00357*
X00142Y00311D02*
X00149Y00304D01*
Y00291*
X00142Y00285*
X00116*
X0011Y00291*
Y00304*
X00116Y00311*
X0011Y00324D02*
Y00337D01*
Y0033*
X00149*
X00142Y00324*
X00149Y00357D02*
Y00383D01*
X00142*
X00116Y00357*
X0011*
X00923Y01107D02*
X0093Y01114D01*
X00943*
X0095Y01107*
Y01081*
X00943Y01075*
X0093*
X00923Y01081*
X0091Y01075D02*
X00897D01*
X00904*
Y01114*
X0091Y01107*
X00877Y01081D02*
X00871Y01075D01*
X00858*
X00851Y01081*
Y01107*
X00858Y01114*
X00871*
X00877Y01107*
Y01101*
X00871Y01094*
X00851*
X00301Y00994D02*
Y00955D01*
X00282*
X00275Y00961*
Y00987*
X00282Y00994*
X00301*
X00236Y00955D02*
X00262D01*
X00236Y00981*
Y00987*
X00242Y00994*
X00255*
X00262Y00987*
X00233Y01318D02*
X00259D01*
Y01299*
X00246*
X00259*
Y01279*
X0022D02*
X00207D01*
X00213*
Y01318*
X0022Y01312*
X01336Y00846D02*
X01375D01*
Y00866*
X01369Y00872*
X01356*
X01349Y00866*
Y00846*
Y00859D02*
X01336Y00872D01*
Y00885D02*
Y00898D01*
Y00892*
X01375*
X01369Y00885*
X01435Y0123D02*
Y01269D01*
X01415*
X01408Y01262*
Y01249*
X01415Y01243*
X01435*
X01421D02*
X01408Y0123D01*
X01369D02*
X01395D01*
X01369Y01256*
Y01262*
X01375Y01269*
X01389*
X01395Y01262*
X00175Y00285D02*
X00214D01*
Y00304*
X00207Y00311*
X00194*
X00188Y00304*
Y00285*
Y00298D02*
X00175Y00311D01*
X00181Y00324D02*
X00175Y0033D01*
Y00344*
X00181Y0035*
X00207*
X00214Y00344*
Y0033*
X00207Y00324*
X00201*
X00194Y0033*
Y0035*
X00305Y00285D02*
X00344D01*
Y00304*
X00337Y00311*
X00324*
X00318Y00304*
Y00285*
Y00298D02*
X00305Y00311D01*
Y00324D02*
Y00337D01*
Y0033*
X00344*
X00337Y00324*
Y00357D02*
X00344Y00363D01*
Y00376*
X00337Y00383*
X00311*
X00305Y00376*
Y00363*
X00311Y00357*
X00337*
X00275Y00804D02*
Y00771D01*
X00268Y00765*
X00255*
X00248Y00771*
Y00804*
X00209D02*
X00235D01*
Y00784*
X00222Y00791*
X00215*
X00209Y00784*
Y00771*
X00215Y00765*
X00229*
X00235Y00771*
X00496Y01165D02*
Y01132D01*
X00489Y01125*
X00476*
X00469Y01132*
Y01165*
X00456D02*
X0043D01*
Y01158*
X00456Y01132*
Y01125*
X00695Y00469D02*
Y00436D01*
X00688Y0043*
X00675*
X00668Y00436*
Y00469*
X00629Y0043D02*
X00655D01*
X00629Y00456*
Y00462*
X00635Y00469*
X00649*
X00655Y00462*
X00737Y00686D02*
X00744Y00692D01*
X00757*
X00763Y00686*
Y0066*
X00757Y00653*
X00744*
X00737Y0066*
X00724Y00692D02*
Y00653D01*
X00711Y00666*
X00698Y00653*
Y00692*
X01066Y00686D02*
X01072Y00692D01*
X01085*
X01092Y00686*
Y0066*
X01085Y00653*
X01072*
X01066Y0066*
X01026Y00686D02*
X01033Y00692D01*
X01046*
X01053Y00686*
Y0066*
X01046Y00653*
X01033*
X01026Y0066*
X01013Y00692D02*
Y00653D01*
X01Y00666*
X00987Y00653*
Y00692*
G54D58*
X00255Y00585D02*
D01*
X00255Y00586*
X00255Y00587*
X00255Y00588*
X00255Y00589*
X00255Y00589*
X00254Y0059*
X00254Y00591*
X00253Y00592*
X00253Y00592*
X00252Y00593*
X00252Y00594*
X00251Y00594*
X00251Y00595*
X0025Y00595*
X00249Y00596*
X00249Y00596*
X00248Y00596*
X00247Y00597*
X00246Y00597*
X00245Y00597*
X00245Y00597*
X00244Y00597*
X00243*
X00242Y00597*
X00241Y00597*
X00241Y00597*
X0024Y00597*
X00239Y00596*
X00238Y00596*
X00238Y00596*
X00237Y00595*
X00236Y00595*
X00236Y00594*
X00235Y00594*
X00234Y00593*
X00234Y00592*
X00233Y00592*
X00233Y00591*
X00233Y0059*
X00232Y00589*
X00232Y00589*
X00232Y00588*
X00232Y00587*
X00232Y00586*
X00232Y00585*
X00232Y00585*
X00232Y00584*
X00232Y00583*
X00232Y00582*
X00232Y00581*
X00233Y00581*
X00233Y0058*
X00233Y00579*
X00234Y00579*
X00234Y00578*
X00235Y00577*
X00236Y00577*
X00236Y00576*
X00237Y00576*
X00238Y00575*
X00238Y00575*
X00239Y00574*
X0024Y00574*
X00241Y00574*
X00241Y00574*
X00242Y00574*
X00243Y00574*
X00244*
X00245Y00574*
X00245Y00574*
X00246Y00574*
X00247Y00574*
X00248Y00574*
X00249Y00575*
X00249Y00575*
X0025Y00576*
X00251Y00576*
X00251Y00577*
X00252Y00577*
X00252Y00578*
X00253Y00579*
X00253Y00579*
X00254Y0058*
X00254Y00581*
X00255Y00581*
X00255Y00582*
X00255Y00583*
X00255Y00584*
X00255Y00585*
X00255Y00585*
X00795Y01302D02*
D01*
X00795Y01303*
X00795Y01304*
X00795Y01305*
X00795Y01305*
X00795Y01306*
X00794Y01307*
X00794Y01308*
X00794Y01308*
X00793Y01309*
X00793Y0131*
X00792Y0131*
X00791Y01311*
X00791Y01311*
X0079Y01312*
X00789Y01312*
X00789Y01313*
X00788Y01313*
X00787Y01313*
X00786Y01314*
X00786Y01314*
X00785Y01314*
X00784Y01314*
X00783*
X00782Y01314*
X00782Y01314*
X00781Y01314*
X0078Y01313*
X00779Y01313*
X00778Y01313*
X00778Y01312*
X00777Y01312*
X00776Y01311*
X00776Y01311*
X00775Y0131*
X00775Y0131*
X00774Y01309*
X00774Y01308*
X00773Y01308*
X00773Y01307*
X00772Y01306*
X00772Y01305*
X00772Y01305*
X00772Y01304*
X00772Y01303*
X00772Y01302*
X00772Y01301*
X00772Y013*
X00772Y013*
X00772Y01299*
X00772Y01298*
X00773Y01297*
X00773Y01297*
X00774Y01296*
X00774Y01295*
X00775Y01295*
X00775Y01294*
X00776Y01293*
X00776Y01293*
X00777Y01292*
X00778Y01292*
X00778Y01292*
X00779Y01291*
X0078Y01291*
X00781Y01291*
X00782Y01291*
X00782Y0129*
X00783Y0129*
X00784*
X00785Y0129*
X00786Y01291*
X00786Y01291*
X00787Y01291*
X00788Y01291*
X00789Y01292*
X00789Y01292*
X0079Y01292*
X00791Y01293*
X00791Y01293*
X00792Y01294*
X00793Y01295*
X00793Y01295*
X00794Y01296*
X00794Y01297*
X00794Y01297*
X00795Y01298*
X00795Y01299*
X00795Y013*
X00795Y013*
X00795Y01301*
X00795Y01302*
X00842Y00767D02*
D01*
X00842Y00768*
X00842Y00769*
X00842Y0077*
X00842Y0077*
X00841Y00771*
X00841Y00772*
X00841Y00773*
X0084Y00773*
X0084Y00774*
X00839Y00775*
X00839Y00775*
X00838Y00776*
X00837Y00777*
X00837Y00777*
X00836Y00777*
X00835Y00778*
X00835Y00778*
X00834Y00778*
X00833Y00779*
X00832Y00779*
X00831Y00779*
X00831Y00779*
X0083*
X00829Y00779*
X00828Y00779*
X00827Y00779*
X00827Y00778*
X00826Y00778*
X00825Y00778*
X00824Y00777*
X00824Y00777*
X00823Y00777*
X00822Y00776*
X00822Y00775*
X00821Y00775*
X00821Y00774*
X0082Y00773*
X0082Y00773*
X00819Y00772*
X00819Y00771*
X00819Y0077*
X00819Y0077*
X00819Y00769*
X00818Y00768*
X00818Y00767*
X00818Y00766*
X00819Y00766*
X00819Y00765*
X00819Y00764*
X00819Y00763*
X00819Y00762*
X0082Y00762*
X0082Y00761*
X00821Y0076*
X00821Y0076*
X00822Y00759*
X00822Y00758*
X00823Y00758*
X00824Y00757*
X00824Y00757*
X00825Y00757*
X00826Y00756*
X00827Y00756*
X00827Y00756*
X00828Y00756*
X00829Y00755*
X0083Y00755*
X00831*
X00831Y00755*
X00832Y00756*
X00833Y00756*
X00834Y00756*
X00835Y00756*
X00835Y00757*
X00836Y00757*
X00837Y00757*
X00837Y00758*
X00838Y00758*
X00839Y00759*
X00839Y0076*
X0084Y0076*
X0084Y00761*
X00841Y00762*
X00841Y00762*
X00841Y00763*
X00842Y00764*
X00842Y00765*
X00842Y00766*
X00842Y00766*
X00842Y00767*
G54D59*
X01228Y0132D02*
D01*
X01228Y01321*
X01228Y01321*
X01228Y01321*
X01227Y01322*
X01227Y01322*
X01227Y01322*
X01227Y01323*
X01227Y01323*
X01227Y01323*
X01226Y01324*
X01226Y01324*
X01226Y01324*
X01226Y01324*
X01225Y01324*
X01225Y01325*
X01225Y01325*
X01225Y01325*
X01224Y01325*
X01224Y01325*
X01224Y01325*
X01223Y01325*
X01223Y01325*
X01223*
X01222Y01325*
X01222Y01325*
X01221Y01325*
X01221Y01325*
X01221Y01325*
X01221Y01325*
X0122Y01325*
X0122Y01324*
X0122Y01324*
X01219Y01324*
X01219Y01324*
X01219Y01324*
X01219Y01323*
X01219Y01323*
X01218Y01323*
X01218Y01322*
X01218Y01322*
X01218Y01322*
X01218Y01321*
X01218Y01321*
X01218Y01321*
X01218Y0132*
X01218Y0132*
X01218Y0132*
X01218Y01319*
X01218Y01319*
X01218Y01319*
X01218Y01318*
X01218Y01318*
X01219Y01318*
X01219Y01317*
X01219Y01317*
X01219Y01317*
X01219Y01317*
X0122Y01316*
X0122Y01316*
X0122Y01316*
X01221Y01316*
X01221Y01316*
X01221Y01316*
X01221Y01316*
X01222Y01316*
X01222Y01315*
X01223Y01315*
X01223*
X01223Y01315*
X01224Y01316*
X01224Y01316*
X01224Y01316*
X01225Y01316*
X01225Y01316*
X01225Y01316*
X01225Y01316*
X01226Y01316*
X01226Y01317*
X01226Y01317*
X01226Y01317*
X01227Y01317*
X01227Y01318*
X01227Y01318*
X01227Y01318*
X01227Y01319*
X01227Y01319*
X01228Y01319*
X01228Y0132*
X01228Y0132*
X01228Y0132*
X0015Y00536D02*
D01*
X0015Y00536*
X0015Y00537*
X0015Y00537*
X0015Y00537*
X0015Y00538*
X0015Y00538*
X00149Y00538*
X00149Y00539*
X00149Y00539*
X00149Y00539*
X00149Y00539*
X00148Y0054*
X00148Y0054*
X00148Y0054*
X00147Y0054*
X00147Y0054*
X00147Y00541*
X00147Y00541*
X00146Y00541*
X00146Y00541*
X00146Y00541*
X00145Y00541*
X00145*
X00144Y00541*
X00144Y00541*
X00144Y00541*
X00143Y00541*
X00143Y00541*
X00143Y0054*
X00143Y0054*
X00142Y0054*
X00142Y0054*
X00142Y0054*
X00141Y00539*
X00141Y00539*
X00141Y00539*
X00141Y00539*
X00141Y00538*
X00141Y00538*
X0014Y00538*
X0014Y00537*
X0014Y00537*
X0014Y00537*
X0014Y00536*
X0014Y00536*
X0014Y00536*
X0014Y00535*
X0014Y00535*
X0014Y00535*
X0014Y00534*
X00141Y00534*
X00141Y00534*
X00141Y00533*
X00141Y00533*
X00141Y00533*
X00141Y00533*
X00142Y00532*
X00142Y00532*
X00142Y00532*
X00143Y00532*
X00143Y00532*
X00143Y00531*
X00143Y00531*
X00144Y00531*
X00144Y00531*
X00144Y00531*
X00145Y00531*
X00145*
X00146Y00531*
X00146Y00531*
X00146Y00531*
X00147Y00531*
X00147Y00531*
X00147Y00532*
X00147Y00532*
X00148Y00532*
X00148Y00532*
X00148Y00532*
X00149Y00533*
X00149Y00533*
X00149Y00533*
X00149Y00533*
X00149Y00534*
X0015Y00534*
X0015Y00534*
X0015Y00535*
X0015Y00535*
X0015Y00535*
X0015Y00536*
X0015Y00536*
X00838Y01204D02*
D01*
X00838Y01204*
X00838Y01204*
X00838Y01205*
X00838Y01205*
X00838Y01205*
X00837Y01206*
X00837Y01206*
X00837Y01206*
X00837Y01207*
X00837Y01207*
X00837Y01207*
X00836Y01207*
X00836Y01208*
X00836Y01208*
X00835Y01208*
X00835Y01208*
X00835Y01208*
X00834Y01208*
X00834Y01208*
X00834Y01209*
X00833Y01209*
X00833Y01209*
X00833*
X00832Y01209*
X00832Y01209*
X00832Y01208*
X00831Y01208*
X00831Y01208*
X00831Y01208*
X00831Y01208*
X0083Y01208*
X0083Y01208*
X0083Y01207*
X00829Y01207*
X00829Y01207*
X00829Y01207*
X00829Y01206*
X00829Y01206*
X00828Y01206*
X00828Y01205*
X00828Y01205*
X00828Y01205*
X00828Y01204*
X00828Y01204*
X00828Y01204*
X00828Y01203*
X00828Y01203*
X00828Y01203*
X00828Y01202*
X00828Y01202*
X00828Y01202*
X00829Y01201*
X00829Y01201*
X00829Y01201*
X00829Y01201*
X00829Y012*
X0083Y012*
X0083Y012*
X0083Y012*
X00831Y01199*
X00831Y01199*
X00831Y01199*
X00831Y01199*
X00832Y01199*
X00832Y01199*
X00832Y01199*
X00833Y01199*
X00833*
X00833Y01199*
X00834Y01199*
X00834Y01199*
X00834Y01199*
X00835Y01199*
X00835Y01199*
X00835Y01199*
X00836Y012*
X00836Y012*
X00836Y012*
X00837Y012*
X00837Y01201*
X00837Y01201*
X00837Y01201*
X00837Y01201*
X00837Y01202*
X00838Y01202*
X00838Y01202*
X00838Y01203*
X00838Y01203*
X00838Y01203*
X00838Y01204*
X00737Y00718D02*
D01*
X00737Y00718*
X00737Y00718*
X00737Y00719*
X00737Y00719*
X00736Y00719*
X00736Y0072*
X00736Y0072*
X00736Y0072*
X00736Y00721*
X00736Y00721*
X00735Y00721*
X00735Y00721*
X00735Y00722*
X00735Y00722*
X00734Y00722*
X00734Y00722*
X00734Y00722*
X00733Y00722*
X00733Y00723*
X00733Y00723*
X00732Y00723*
X00732Y00723*
X00732*
X00731Y00723*
X00731Y00723*
X00731Y00723*
X0073Y00722*
X0073Y00722*
X0073Y00722*
X00729Y00722*
X00729Y00722*
X00729Y00722*
X00728Y00721*
X00728Y00721*
X00728Y00721*
X00728Y00721*
X00728Y0072*
X00727Y0072*
X00727Y0072*
X00727Y00719*
X00727Y00719*
X00727Y00719*
X00727Y00718*
X00727Y00718*
X00727Y00718*
X00727Y00717*
X00727Y00717*
X00727Y00717*
X00727Y00716*
X00727Y00716*
X00727Y00716*
X00727Y00716*
X00728Y00715*
X00728Y00715*
X00728Y00715*
X00728Y00714*
X00728Y00714*
X00729Y00714*
X00729Y00714*
X00729Y00714*
X0073Y00713*
X0073Y00713*
X0073Y00713*
X00731Y00713*
X00731Y00713*
X00731Y00713*
X00732Y00713*
X00732*
X00732Y00713*
X00733Y00713*
X00733Y00713*
X00733Y00713*
X00734Y00713*
X00734Y00713*
X00734Y00714*
X00735Y00714*
X00735Y00714*
X00735Y00714*
X00735Y00714*
X00736Y00715*
X00736Y00715*
X00736Y00715*
X00736Y00716*
X00736Y00716*
X00736Y00716*
X00737Y00716*
X00737Y00717*
X00737Y00717*
X00737Y00717*
X00737Y00718*
X00354Y01211D02*
D01*
X00354Y01211*
X00354Y01211*
X00354Y01212*
X00354Y01212*
X00354Y01212*
X00354Y01213*
X00354Y01213*
X00353Y01213*
X00353Y01214*
X00353Y01214*
X00353Y01214*
X00353Y01214*
X00352Y01215*
X00352Y01215*
X00352Y01215*
X00351Y01215*
X00351Y01215*
X00351Y01215*
X0035Y01216*
X0035Y01216*
X0035Y01216*
X00349Y01216*
X00349*
X00349Y01216*
X00348Y01216*
X00348Y01216*
X00348Y01215*
X00347Y01215*
X00347Y01215*
X00347Y01215*
X00347Y01215*
X00346Y01215*
X00346Y01214*
X00346Y01214*
X00346Y01214*
X00345Y01214*
X00345Y01213*
X00345Y01213*
X00345Y01213*
X00345Y01212*
X00345Y01212*
X00344Y01212*
X00344Y01211*
X00344Y01211*
X00344Y01211*
X00344Y0121*
X00344Y0121*
X00344Y0121*
X00345Y01209*
X00345Y01209*
X00345Y01209*
X00345Y01208*
X00345Y01208*
X00345Y01208*
X00346Y01208*
X00346Y01207*
X00346Y01207*
X00346Y01207*
X00347Y01207*
X00347Y01206*
X00347Y01206*
X00347Y01206*
X00348Y01206*
X00348Y01206*
X00348Y01206*
X00349Y01206*
X00349Y01206*
X00349*
X0035Y01206*
X0035Y01206*
X0035Y01206*
X00351Y01206*
X00351Y01206*
X00351Y01206*
X00352Y01206*
X00352Y01207*
X00352Y01207*
X00353Y01207*
X00353Y01207*
X00353Y01208*
X00353Y01208*
X00353Y01208*
X00354Y01208*
X00354Y01209*
X00354Y01209*
X00354Y01209*
X00354Y0121*
X00354Y0121*
X00354Y0121*
X00354Y01211*
X00743Y00618D02*
D01*
X00743Y00618*
X00743Y00619*
X00743Y00619*
X00742Y00619*
X00742Y0062*
X00742Y0062*
X00742Y0062*
X00742Y00621*
X00742Y00621*
X00741Y00621*
X00741Y00621*
X00741Y00622*
X00741Y00622*
X0074Y00622*
X0074Y00622*
X0074Y00622*
X0074Y00623*
X00739Y00623*
X00739Y00623*
X00739Y00623*
X00738Y00623*
X00738Y00623*
X00738*
X00737Y00623*
X00737Y00623*
X00736Y00623*
X00736Y00623*
X00736Y00623*
X00736Y00622*
X00735Y00622*
X00735Y00622*
X00735Y00622*
X00734Y00622*
X00734Y00621*
X00734Y00621*
X00734Y00621*
X00734Y00621*
X00733Y0062*
X00733Y0062*
X00733Y0062*
X00733Y00619*
X00733Y00619*
X00733Y00619*
X00733Y00618*
X00733Y00618*
X00733Y00618*
X00733Y00617*
X00733Y00617*
X00733Y00617*
X00733Y00616*
X00733Y00616*
X00733Y00616*
X00734Y00615*
X00734Y00615*
X00734Y00615*
X00734Y00615*
X00734Y00614*
X00735Y00614*
X00735Y00614*
X00735Y00614*
X00736Y00614*
X00736Y00613*
X00736Y00613*
X00736Y00613*
X00737Y00613*
X00737Y00613*
X00738Y00613*
X00738*
X00738Y00613*
X00739Y00613*
X00739Y00613*
X00739Y00613*
X0074Y00613*
X0074Y00614*
X0074Y00614*
X0074Y00614*
X00741Y00614*
X00741Y00614*
X00741Y00615*
X00741Y00615*
X00742Y00615*
X00742Y00615*
X00742Y00616*
X00742Y00616*
X00742Y00616*
X00742Y00617*
X00743Y00617*
X00743Y00617*
X00743Y00618*
X00743Y00618*
G54D60*
X00334Y01073D02*
D01*
X00334Y01073*
X00334Y01073*
X00334Y01073*
X00334Y01073*
X00334Y01073*
X00334Y01073*
X00334Y01074*
X00334Y01074*
X00333Y01074*
X00333Y01074*
X00333Y01074*
X00333Y01074*
X00333Y01074*
X00333Y01074*
X00333Y01074*
X00333Y01074*
X00333Y01074*
X00332Y01075*
X00332Y01075*
X00332Y01075*
X00332Y01075*
X00332Y01075*
X00332*
X00332Y01075*
X00332Y01075*
X00331Y01075*
X00331Y01075*
X00331Y01074*
X00331Y01074*
X00331Y01074*
X00331Y01074*
X00331Y01074*
X00331Y01074*
X0033Y01074*
X0033Y01074*
X0033Y01074*
X0033Y01074*
X0033Y01074*
X0033Y01073*
X0033Y01073*
X0033Y01073*
X0033Y01073*
X0033Y01073*
X0033Y01073*
X0033Y01073*
X0033Y01073*
X0033Y01072*
X0033Y01072*
X0033Y01072*
X0033Y01072*
X0033Y01072*
X0033Y01072*
X0033Y01072*
X0033Y01071*
X0033Y01071*
X0033Y01071*
X00331Y01071*
X00331Y01071*
X00331Y01071*
X00331Y01071*
X00331Y01071*
X00331Y01071*
X00331Y01071*
X00331Y01071*
X00332Y01071*
X00332Y01071*
X00332Y01071*
X00332*
X00332Y01071*
X00332Y01071*
X00332Y01071*
X00332Y01071*
X00333Y01071*
X00333Y01071*
X00333Y01071*
X00333Y01071*
X00333Y01071*
X00333Y01071*
X00333Y01071*
X00333Y01071*
X00333Y01071*
X00334Y01072*
X00334Y01072*
X00334Y01072*
X00334Y01072*
X00334Y01072*
X00334Y01072*
X00334Y01072*
X00334Y01073*
X00334Y01073*
M02*