%FSTAX23Y23*%
%MOIN*%
%SFA1B1*%

%IPPOS*%
%ADD13C,0.039370*%
%ADD17R,0.024800X0.032680*%
%ADD18R,0.070870X0.039370*%
%ADD19R,0.059060X0.070870*%
%ADD30R,0.039370X0.039370*%
%ADD34C,0.011810*%
%ADD35C,0.007870*%
%ADD36C,0.019690*%
%ADD37C,0.027560*%
%ADD38C,0.013780*%
%ADD39C,0.015750*%
%ADD42C,0.061020*%
%ADD43R,0.061020X0.061020*%
%ADD44C,0.053150*%
%ADD45R,0.053150X0.053150*%
%ADD46O,0.078740X0.047240*%
%ADD47O,0.070870X0.043310*%
%ADD48O,0.047240X0.041340*%
%ADD49C,0.019690*%
%ADD50R,0.003940X0.003940*%
%ADD51R,0.055120X0.023620*%
%ADD52O,0.070080X0.023620*%
%ADD53O,0.023620X0.070080*%
%ADD54R,0.098430X0.098430*%
%ADD55R,0.011810X0.028740*%
%ADD56R,0.028740X0.011810*%
%ADD57C,0.005910*%
%LNstepperpcb-1*%
%LPD*%
G36*
X01635Y0149D02*
Y01488D01*
Y00159*
X01625Y00149*
X01492Y00015*
X00161*
X00017Y00159*
Y00354*
X0002Y00356*
X00022Y00356*
X00028Y00353*
X00035Y00351*
X0026*
X00266Y00353*
X00272Y00357*
X00276Y00363*
X00278Y0037*
Y00403*
X00279Y00404*
X00284Y0041*
X00286Y00417*
X00287Y00424*
X00286Y00431*
X00284Y00438*
X00279Y00444*
X00273Y00448*
X00267Y00451*
X0026Y00452*
X00252Y00451*
X00246Y00448*
X0024Y00444*
X00235Y00438*
X00233Y00431*
X00232Y00424*
X00233Y00417*
X00235Y0041*
X0024Y00404*
X00241Y00403*
Y00388*
X00213*
Y00397*
X00222*
Y00452*
X00167*
Y00397*
X00176*
Y00388*
X00148*
Y00403*
X00149Y00404*
X00154Y0041*
X00156Y00417*
X00157Y00424*
X00156Y00431*
X00154Y00438*
X00149Y00444*
X00143Y00448*
X00137Y00451*
X0013Y00452*
X00122Y00451*
X00116Y00448*
X0011Y00444*
X00105Y00438*
X00103Y00431*
X00102Y00424*
X00103Y00417*
X00105Y0041*
X0011Y00404*
X00111Y00403*
Y00388*
X00035*
X00028Y00386*
X00022Y00383*
X0002Y00383*
X00017Y00385*
Y00907*
X0005*
X00051Y00907*
X00051Y00907*
X00052Y00907*
X00054Y00907*
X00054Y00908*
X00054Y00908*
X00054Y00908*
X00058Y00909*
X00061Y00908*
X00065Y00905*
X00072Y00904*
X00172*
X00179Y00905*
X00185Y00909*
X0019Y00915*
X00196*
Y00921*
X00242Y00966*
X00264*
X00266Y00961*
X00263Y00957*
X00263Y00955*
X00301*
X00301Y00957*
X00298Y00961*
X00301Y00966*
X00317*
X00347Y00937*
X00353Y00933*
X0036Y00931*
X00575*
X00581Y00933*
X00587Y00937*
X00637Y00987*
X00641Y00993*
X00643Y01*
X00641Y01006*
X00637Y01012*
X00631Y01016*
X00625Y01018*
X00618Y01016*
X00612Y01012*
X00567Y00968*
X00367*
X00337Y00997*
X00331Y01001*
X00325Y01003*
X00235*
X00228Y01001*
X00222Y00997*
X00209Y00985*
X00204Y00986*
Y01097*
X00221*
X00221Y01096*
X00222Y01096*
Y0107*
X00221Y01069*
X00221Y01069*
X00215*
Y0102*
X00256*
Y01069*
X0025*
X0025Y01069*
X0025Y0107*
Y01096*
X0025Y01096*
X0025Y01097*
X00283*
Y01152*
X00204*
Y01173*
X00204Y01173*
X00205Y01175*
X00207Y01178*
X00207Y01178*
X00208Y01178*
X0024*
X00245Y01179*
X00249Y01182*
X00252Y01187*
X00254Y01192*
Y01206*
X00254Y01207*
X00254Y01207*
X00283*
Y01262*
X00204*
Y01328*
X00204Y01331*
X00202Y01334*
X00199Y01336*
X00196Y01336*
X00017*
Y0149*
X00161Y01633*
X01492*
X01635Y0149*
G37*
G36*
X00242Y0107D02*
X00242Y01068D01*
X00242Y01066*
X00242Y01065*
X00243Y01064*
X00244Y01063*
X00244Y01062*
X00245Y01061*
X00246Y01061*
X00247Y01061*
X00224*
X00225Y01061*
X00226Y01061*
X00227Y01062*
X00228Y01063*
X00228Y01064*
X00229Y01065*
X00229Y01066*
X00229Y01068*
X0023Y0107*
X0023Y01073*
X00242*
X00242Y0107*
G37*
G36*
X0025Y01215D02*
X00249Y01215D01*
X00248Y01214*
X00248Y01213*
X00247Y01212*
X00246Y01211*
X00246Y01209*
X00246Y01208*
X00245Y01206*
X00245Y01203*
X00234*
X00234Y01206*
X00233Y01208*
X00233Y01209*
X00233Y01211*
X00232Y01212*
X00231Y01213*
X00231Y01214*
X0023Y01215*
X00229Y01215*
X00228Y01215*
X00251*
X0025Y01215*
G37*
G36*
X00246Y01105D02*
X00245Y01104D01*
X00244Y01104*
X00244Y01103*
X00243Y01102*
X00242Y01101*
X00242Y01099*
X00242Y01097*
X00242Y01095*
X00242Y01093*
X0023*
X0023Y01095*
X00229Y01097*
X00229Y01099*
X00229Y01101*
X00228Y01102*
X00228Y01103*
X00227Y01104*
X00226Y01104*
X00225Y01105*
X00224Y01105*
X00247*
X00246Y01105*
G37*
G36*
X00192Y01199D02*
X00192Y01199D01*
X00193Y01199*
X00193Y01199*
X00194Y01199*
X00195Y01198*
X00197Y01198*
X00198Y01198*
Y01187*
X00197Y01187*
X00194Y01186*
X00193Y01186*
X00193Y01186*
X00192Y01186*
X00192Y01186*
X00192Y01186*
Y01199*
X00192Y01199*
G37*
G36*
X00196Y01262D02*
X00196D01*
Y01212*
X00191Y01209*
X00191Y01209*
X00186Y0121*
X00185Y01211*
X00183Y01213*
X00183Y01215*
X00185Y01221*
X00185Y01224*
X00157*
Y01198*
X00163Y01199*
X00163Y01199*
X00167Y01195*
X00166Y01192*
X00168Y01186*
X00172Y0118*
X00178Y01176*
X00185Y01174*
X00191Y01176*
X00196Y01173*
Y01152*
X00196*
Y01097*
X00196*
Y00972*
X00165Y0094*
X00072*
X00065Y00939*
X00059Y00935*
X00055Y00929*
X00054Y00922*
X00055Y0092*
X0005Y00915*
X00017*
Y00983*
X00022Y00984*
X00022Y00984*
X00028Y00977*
X00035Y00971*
X00043Y00968*
X00052Y00967*
X00062*
Y01*
Y01034*
X00052*
X00043Y01033*
X00035Y0103*
X00028Y01024*
X00022Y01017*
X00022Y01017*
X00017Y01018*
Y01278*
X00022Y01278*
X00023Y01274*
X00026Y01266*
X00031Y01259*
X00038Y01254*
X00045Y01251*
X00054Y0125*
X00062*
Y01282*
Y01314*
X00054*
X00045Y01313*
X00038Y0131*
X00031Y01305*
X00026Y01298*
X00023Y0129*
X00022Y01286*
X00017Y01286*
Y01328*
X00196*
Y01262*
G37*
%LNstepperpcb-2*%
%LPC*%
G36*
X00135Y00524D02*
Y005D01*
X00159*
X00158Y00503*
X00155Y0051*
X00151Y00516*
X00144Y00521*
X00137Y00524*
X00135Y00524*
G37*
G36*
X01518Y00516D02*
X01504D01*
X01504Y00513*
X01509Y00507*
X01515Y00502*
X01518Y00502*
Y00516*
G37*
G36*
X00125Y0049D02*
X001D01*
X00101Y00487*
X00104Y0048*
X00108Y00474*
X00115Y00469*
X00122Y00466*
X00125Y00466*
Y0049*
G37*
G36*
X00159D02*
X00135D01*
Y00466*
X00137Y00466*
X00144Y00469*
X00151Y00474*
X00155Y0048*
X00158Y00487*
X00159Y0049*
G37*
G36*
X00125Y00524D02*
X00122Y00524D01*
X00115Y00521*
X00108Y00516*
X00104Y0051*
X00101Y00503*
X001Y005*
X00125*
Y00524*
G37*
G36*
X01542Y00516D02*
X01528D01*
Y00502*
X01531Y00502*
X01537Y00507*
X01542Y00513*
X01542Y00516*
G37*
G36*
X01528Y0054D02*
Y00526D01*
X01542*
X01542Y00529*
X01537Y00535*
X01531Y0054*
X01528Y0054*
G37*
G36*
X00128Y00565D02*
X00089D01*
X00089Y00561*
X00094Y00554*
X00101Y00549*
X0011Y00547*
X00128*
Y00565*
G37*
G36*
X00662Y00569D02*
X00629D01*
Y00552*
X00662*
Y00569*
G37*
G36*
X01518Y0054D02*
X01515Y0054D01*
X01509Y00535*
X01504Y00529*
X01504Y00526*
X01518*
Y0054*
G37*
G36*
X00865Y00603D02*
X00858Y00601D01*
X00852Y00597*
X00848Y00591*
X00846Y00585*
X00848Y00578*
X00852Y00572*
X00853Y00571*
Y00554*
X0082Y00521*
X00785*
Y00529*
X00714*
Y0049*
X00785*
Y00499*
X00825*
X00829Y005*
X00833Y00502*
X00872Y00542*
X00875Y00545*
X00876Y0055*
Y00571*
X00877Y00572*
X00881Y00578*
X00883Y00585*
X00881Y00591*
X00877Y00597*
X00871Y00601*
X00865Y00603*
G37*
G36*
X00662Y00542D02*
X00629D01*
Y00525*
X00662*
Y00542*
G37*
G36*
X00704D02*
X00672D01*
Y00525*
X00704*
Y00542*
G37*
G36*
X00727Y00422D02*
Y00407D01*
X00742*
X00741Y0041*
X00737Y00417*
X0073Y00421*
X00727Y00422*
G37*
G36*
X00717D02*
X00715Y00421D01*
X00708Y00417*
X00704Y0041*
X00703Y00407*
X00717*
Y00422*
G37*
G36*
X00094Y0043D02*
X0008D01*
Y00415*
X00082Y00416*
X00089Y0042*
X00093Y00427*
X00094Y0043*
G37*
G36*
X0007D02*
X00055D01*
X00056Y00427*
X0006Y0042*
X00067Y00416*
X0007Y00415*
Y0043*
G37*
G36*
X01542Y00418D02*
X01528D01*
Y00403*
X01531Y00404*
X01537Y00408*
X01542Y00415*
X01542Y00418*
G37*
G36*
X01518D02*
X01504D01*
X01504Y00415*
X01509Y00408*
X01515Y00404*
X01518Y00403*
Y00418*
G37*
G36*
X00544Y0042D02*
X0053D01*
Y00405*
X00532Y00406*
X00539Y0041*
X00543Y00417*
X00544Y0042*
G37*
G36*
X0052D02*
X00505D01*
X00506Y00417*
X0051Y0041*
X00517Y00406*
X0052Y00405*
Y0042*
G37*
G36*
X0053Y00444D02*
Y0043D01*
X00544*
X00543Y00432*
X00539Y00439*
X00532Y00443*
X0053Y00444*
G37*
G36*
X0052D02*
X00517Y00443D01*
X0051Y00439*
X00506Y00432*
X00505Y0043*
X0052*
Y00444*
G37*
G36*
X0008Y00454D02*
Y0044D01*
X00094*
X00093Y00442*
X00089Y00449*
X00082Y00453*
X0008Y00454*
G37*
G36*
X0007D02*
X00067Y00453D01*
X0006Y00449*
X00056Y00442*
X00055Y0044*
X0007*
Y00454*
G37*
G36*
X01528Y00442D02*
Y00428D01*
X01542*
X01542Y0043*
X01537Y00437*
X01531Y00441*
X01528Y00442*
G37*
G36*
X01518D02*
X01515Y00441D01*
X01509Y00437*
X01504Y0043*
X01504Y00428*
X01518*
Y00442*
G37*
G36*
X00354Y00454D02*
X0033D01*
Y00429*
X00354*
Y00454*
G37*
G36*
X0032D02*
X00295D01*
Y00429*
X0032*
Y00454*
G37*
G36*
X00573Y00846D02*
Y00822D01*
X00598*
X00597Y00825*
X00594Y00832*
X0059Y00838*
X00583Y00843*
X00576Y00846*
X00573Y00846*
G37*
G36*
X00629D02*
X00626Y00846D01*
X00619Y00843*
X00613Y00838*
X00608Y00832*
X00605Y00825*
X00605Y00822*
X00629*
Y00846*
G37*
G36*
X00743Y00871D02*
X00697D01*
X00689Y0087*
X00683Y00865*
X00678Y00859*
X00677Y00851*
X00678Y00844*
X00683Y00837*
X00689Y00833*
X00697Y00831*
X00743*
X00751Y00833*
X00757Y00837*
X00762Y00844*
X00763Y00851*
X00762Y00859*
X00757Y00865*
X00751Y0087*
X00743Y00871*
G37*
G36*
X00639Y00846D02*
Y00822D01*
X00663*
X00663Y00825*
X0066Y00832*
X00655Y00838*
X00649Y00843*
X00642Y00846*
X00639Y00846*
G37*
G36*
X00598Y00812D02*
X00573D01*
Y00788*
X00576Y00788*
X00583Y00791*
X0059Y00796*
X00594Y00802*
X00597Y00809*
X00598Y00812*
G37*
G36*
X00563D02*
X00539D01*
X00539Y00809*
X00542Y00802*
X00547Y00796*
X00553Y00791*
X00561Y00788*
X00563Y00788*
Y00812*
G37*
G36*
Y00846D02*
X00561Y00846D01*
X00553Y00843*
X00547Y00838*
X00542Y00832*
X00539Y00825*
X00539Y00822*
X00563*
Y00846*
G37*
G36*
X00629Y00812D02*
X00605D01*
X00605Y00809*
X00608Y00802*
X00613Y00796*
X00619Y00791*
X00626Y00788*
X00629Y00788*
Y00812*
G37*
G36*
X00962Y00935D02*
X00923D01*
X00924Y00933*
X00927Y00929*
X00924Y00924*
X00909*
X00901Y00922*
X00894Y00917*
X00889Y0091*
X00888Y00906*
X00933*
X00977*
X00976Y0091*
X00972Y00917*
X00964Y00922*
X0096Y00923*
X0096Y00923*
X00958Y00928*
X00961Y00933*
X00962Y00935*
G37*
G36*
X00715Y00924D02*
X00697D01*
X00688Y00922*
X00681Y00917*
X00676Y0091*
X00676Y00906*
X00715*
Y00924*
G37*
G36*
X01609Y0094D02*
X01595D01*
Y00925*
X01597Y00926*
X01604Y0093*
X01608Y00937*
X01609Y0094*
G37*
G36*
X00743Y00924D02*
X00725D01*
Y00906*
X00764*
X00764Y0091*
X00759Y00917*
X00752Y00922*
X00743Y00924*
G37*
G36*
X00764Y00896D02*
X00725D01*
Y00879*
X00743*
X00752Y00881*
X00759Y00886*
X00764Y00893*
X00764Y00896*
G37*
G36*
X00715D02*
X00676D01*
X00676Y00893*
X00681Y00886*
X00688Y00881*
X00697Y00879*
X00715*
Y00896*
G37*
G36*
X00977D02*
X00938D01*
Y00879*
X00956*
X00964Y00881*
X00972Y00886*
X00976Y00893*
X00977Y00896*
G37*
G36*
X00928D02*
X00888D01*
X00889Y00893*
X00894Y00886*
X00901Y00881*
X00909Y00879*
X00928*
Y00896*
G37*
G36*
X00663Y00812D02*
X00639D01*
Y00788*
X00642Y00788*
X00649Y00791*
X00655Y00796*
X0066Y00802*
X00663Y00809*
X00663Y00812*
G37*
G36*
X00341Y00665D02*
X00301D01*
X00302Y00661*
X00307Y00654*
X00314Y00649*
X00323Y00647*
X00341*
Y00665*
G37*
G36*
X00385Y00853D02*
X00378Y00851D01*
X00372Y00847*
X00368Y00841*
X00366Y00835*
X00368Y00828*
X00372Y00822*
X00411Y00782*
Y00638*
X00377*
X00377Y00638*
X00369Y0064*
X00323*
X00315Y00638*
X00308Y00634*
X00304Y00627*
X00303Y0062*
X00304Y00612*
X00308Y00605*
X00315Y00601*
X00323Y00599*
X00369*
X00377Y00601*
X00377Y00601*
X0043*
X00436Y00603*
X00442Y00607*
X00446Y00613*
X00448Y0062*
Y0079*
X00446Y00796*
X00442Y00802*
X00397Y00847*
X00391Y00851*
X00385Y00853*
G37*
G36*
X00341Y00692D02*
X00323D01*
X00314Y0069*
X00307Y00685*
X00302Y00678*
X00301Y00675*
X00341*
Y00692*
G37*
G36*
X0039Y00665D02*
X00351D01*
Y00647*
X00369*
X00378Y00649*
X00385Y00654*
X0039Y00661*
X0039Y00665*
G37*
G36*
X00128Y00592D02*
X0011D01*
X00101Y0059*
X00094Y00585*
X00089Y00578*
X00089Y00575*
X00128*
Y00592*
G37*
G36*
X00704Y00569D02*
X00672D01*
Y00552*
X00704*
Y00569*
G37*
G36*
X00128Y00642D02*
X0011D01*
X00101Y0064*
X00094Y00635*
X00089Y00628*
X00089Y00625*
X00128*
Y00642*
G37*
G36*
Y00615D02*
X00089D01*
X00089Y00611*
X00094Y00604*
X00101Y00599*
X0011Y00597*
X00128*
Y00615*
G37*
G36*
X0039Y00715D02*
X00351D01*
Y00697*
X00369*
X00378Y00699*
X00385Y00704*
X0039Y00711*
X0039Y00715*
G37*
G36*
X00341D02*
X00301D01*
X00302Y00711*
X00307Y00704*
X00314Y00699*
X00323Y00697*
X00341*
Y00715*
G37*
G36*
X00369Y00742D02*
X00351D01*
Y00725*
X0039*
X0039Y00728*
X00385Y00735*
X00378Y0074*
X00369Y00742*
G37*
G36*
X00341D02*
X00323D01*
X00314Y0074*
X00307Y00735*
X00302Y00728*
X00301Y00725*
X00341*
Y00742*
G37*
G36*
X01484Y00705D02*
X0146D01*
X0146Y00702*
X01463Y00695*
X01468Y00688*
X01474Y00684*
X01481Y00681*
X01484Y0068*
Y00705*
G37*
G36*
X00369Y00692D02*
X00351D01*
Y00675*
X0039*
X0039Y00678*
X00385Y00685*
X00378Y0069*
X00369Y00692*
G37*
G36*
X00156Y0074D02*
X0011D01*
X00102Y00738*
X00096Y00734*
X00091Y00727*
X0009Y0072*
X00091Y00712*
X00096Y00705*
X00102Y00701*
X0011Y00699*
X00156*
X00164Y00701*
X00165Y00701*
X00176*
Y00688*
X00165*
X00164Y00688*
X00156Y0069*
X0011*
X00102Y00688*
X00096Y00684*
X00091Y00677*
X0009Y0067*
X00091Y00662*
X00096Y00655*
X00102Y00651*
X0011Y00649*
X00156*
X00164Y00651*
X00165Y00651*
X00176*
Y00637*
X00171Y00636*
X00165Y0064*
X00156Y00642*
X00138*
Y0062*
Y00597*
X00156*
X00165Y00599*
X00171Y00603*
X00176Y00602*
Y00587*
X00171Y00586*
X00165Y0059*
X00156Y00592*
X00138*
Y0057*
Y00547*
X00156*
X00165Y00549*
X00171Y00553*
X00176Y00552*
Y00522*
X00167*
Y00467*
X00222*
Y00516*
X00234*
X00235Y00516*
X00236Y00515*
X00237Y00511*
X00237Y00511*
X00235Y00509*
X00233Y00502*
X00232Y00495*
X00233Y00488*
X00235Y00481*
X0024Y00475*
X00246Y00471*
X00252Y00468*
X0026Y00467*
X00267Y00468*
X00273Y00471*
X00279Y00475*
X00284Y00481*
X00286Y00488*
X00287Y00495*
X00286Y00502*
X00284Y00509*
X00282Y00511*
X00282Y00511*
X00283Y00515*
X00284Y00516*
X00285Y00516*
X00297*
Y00467*
X00352*
Y00522*
X00343*
Y00535*
X00341Y00541*
X00339Y00544*
X00342Y00549*
X00369*
X00377Y00551*
X0038Y00553*
X00398*
X004Y00552*
Y00546*
X00399Y00545*
X00398Y00538*
X00399Y00531*
X00403Y00526*
X00409Y00522*
X00416Y0052*
X00423Y00522*
X00428Y00526*
X00432Y00531*
X00434Y00538*
X00432Y00545*
X00432Y00546*
Y00558*
X00431Y00564*
X00427Y0057*
X00416Y00581*
X00411Y00584*
X00405Y00586*
X0038*
X00377Y00588*
X00369Y0059*
X00323*
X00315Y00588*
X00308Y00584*
X00304Y00577*
X00303Y0057*
X00304Y00562*
X00307Y00558*
X00304Y00553*
X00213*
Y0067*
Y00695*
Y0072*
X00211Y00726*
X00207Y00732*
X00201Y00736*
X00195Y00738*
X00165*
X00164Y00738*
X00156Y0074*
G37*
G36*
X01518Y00705D02*
X01494D01*
Y0068*
X01497Y00681*
X01504Y00684*
X0151Y00688*
X01515Y00695*
X01518Y00702*
X01518Y00705*
G37*
G36*
X01532Y00107D02*
X01518D01*
X01518Y00104*
X01523Y00097*
X01529Y00093*
X01532Y00092*
Y00107*
G37*
G36*
X00162D02*
X00148D01*
Y00092*
X00151Y00093*
X00158Y00097*
X00162Y00104*
X00162Y00107*
G37*
G36*
X00138Y00131D02*
X00135Y0013D01*
X00129Y00126*
X00125Y00119*
X00124Y00117*
X00138*
Y00131*
G37*
G36*
X01556Y00107D02*
X01542D01*
Y00092*
X01545Y00093*
X01551Y00097*
X01556Y00104*
X01556Y00107*
G37*
G36*
X00717Y00106D02*
X00715Y00105D01*
X00708Y00101*
X00704Y00094*
X00703Y00092*
X00717*
Y00106*
G37*
G36*
X00742Y00082D02*
X00727D01*
Y00067*
X0073Y00068*
X00737Y00072*
X00741Y00079*
X00742Y00082*
G37*
G36*
X00138Y00107D02*
X00124D01*
X00125Y00104*
X00129Y00097*
X00135Y00093*
X00138Y00092*
Y00107*
G37*
G36*
X00727Y00106D02*
Y00092D01*
X00742*
X00741Y00094*
X00737Y00101*
X0073Y00105*
X00727Y00106*
G37*
G36*
X01203Y00183D02*
X01189D01*
X01189Y00181*
X01194Y00174*
X012Y0017*
X01203Y00169*
Y00183*
G37*
G36*
X01437Y00283D02*
X01423Y00282D01*
X01411Y00278*
X01399Y00272*
X01389Y00264*
X01381Y00253*
X01374Y00242*
X01371Y00229*
X01369Y00216*
X01371Y00203*
X01374Y0019*
X01381Y00179*
X01389Y00168*
X01399Y0016*
X01411Y00154*
X01423Y0015*
X01437Y00149*
X0145Y0015*
X01462Y00154*
X01474Y0016*
X01484Y00168*
X01492Y00179*
X01499Y0019*
X01502Y00203*
X01504Y00216*
X01502Y00229*
X01499Y00242*
X01492Y00253*
X01484Y00264*
X01474Y00272*
X01462Y00278*
X0145Y00282*
X01437Y00283*
G37*
G36*
X01203Y00208D02*
X012Y00207D01*
X01194Y00203*
X01189Y00196*
X01189Y00193*
X01203*
Y00208*
G37*
G36*
X01227Y00183D02*
X01213D01*
Y00169*
X01216Y0017*
X01222Y00174*
X01227Y00181*
X01227Y00183*
G37*
G36*
X01532Y00131D02*
X01529Y0013D01*
X01523Y00126*
X01518Y00119*
X01518Y00117*
X01532*
Y00131*
G37*
G36*
X00148D02*
Y00117D01*
X00162*
X00162Y00119*
X00158Y00126*
X00151Y0013*
X00148Y00131*
G37*
G36*
X00216Y00283D02*
X00203Y00282D01*
X0019Y00278*
X00179Y00272*
X00168Y00264*
X0016Y00253*
X00154Y00242*
X0015Y00229*
X00149Y00216*
X0015Y00203*
X00154Y0019*
X0016Y00179*
X00168Y00168*
X00179Y0016*
X0019Y00154*
X00203Y0015*
X00216Y00149*
X00229Y0015*
X00242Y00154*
X00253Y0016*
X00264Y00168*
X00272Y00179*
X00278Y0019*
X00282Y00203*
X00283Y00216*
X00282Y00229*
X00278Y00242*
X00272Y00253*
X00264Y00264*
X00253Y00272*
X00242Y00278*
X00229Y00282*
X00216Y00283*
G37*
G36*
X01542Y00131D02*
Y00117D01*
X01556*
X01556Y00119*
X01551Y00126*
X01545Y0013*
X01542Y00131*
G37*
G36*
X00717Y00082D02*
X00703D01*
X00704Y00079*
X00708Y00072*
X00715Y00068*
X00717Y00067*
Y00082*
G37*
G36*
X00355Y00056D02*
X00341D01*
Y00041*
X00344Y00042*
X0035Y00046*
X00355Y00053*
X00355Y00056*
G37*
G36*
X00331D02*
X00317D01*
X00317Y00053*
X00322Y00046*
X00328Y00042*
X00331Y00041*
Y00056*
G37*
G36*
X00834D02*
X00819D01*
Y00041*
X00822Y00042*
X00829Y00046*
X00833Y00053*
X00834Y00056*
G37*
G36*
X00809D02*
X00795D01*
X00796Y00053*
X008Y00046*
X00807Y00042*
X00809Y00041*
Y00056*
G37*
G36*
X01227Y0005D02*
X01213D01*
Y00035*
X01216Y00036*
X01222Y0004*
X01227Y00047*
X01227Y0005*
G37*
G36*
X01203D02*
X01189D01*
X01189Y00047*
X01194Y0004*
X012Y00036*
X01203Y00035*
Y0005*
G37*
G36*
X01412D02*
X01398D01*
Y00035*
X01401Y00036*
X01408Y0004*
X01412Y00047*
X01412Y0005*
G37*
G36*
X01388D02*
X01374D01*
X01375Y00047*
X01379Y0004*
X01385Y00036*
X01388Y00035*
Y0005*
G37*
G36*
X00341Y0008D02*
Y00066D01*
X00355*
X00355Y00068*
X0035Y00075*
X00344Y00079*
X00341Y0008*
G37*
G36*
X00331D02*
X00328Y00079D01*
X00322Y00075*
X00317Y00068*
X00317Y00066*
X00331*
Y0008*
G37*
G36*
X00819D02*
Y00066D01*
X00834*
X00833Y00068*
X00829Y00075*
X00822Y00079*
X00819Y0008*
G37*
G36*
X00809D02*
X00807Y00079D01*
X008Y00075*
X00796Y00068*
X00795Y00066*
X00809*
Y0008*
G37*
G36*
X01213Y00074D02*
Y0006D01*
X01227*
X01227Y00062*
X01222Y00069*
X01216Y00073*
X01213Y00074*
G37*
G36*
X01203D02*
X012Y00073D01*
X01194Y00069*
X01189Y00062*
X01189Y0006*
X01203*
Y00074*
G37*
G36*
X01398D02*
Y0006D01*
X01412*
X01412Y00062*
X01408Y00069*
X01401Y00073*
X01398Y00074*
G37*
G36*
X01388D02*
X01385Y00073D01*
X01379Y00069*
X01375Y00062*
X01374Y0006*
X01388*
Y00074*
G37*
G36*
X01213Y00208D02*
Y00193D01*
X01227*
X01227Y00196*
X01222Y00203*
X01216Y00207*
X01213Y00208*
G37*
G36*
X00344Y00355D02*
X0033D01*
Y0034*
X00332Y00341*
X00339Y00345*
X00343Y00352*
X00344Y00355*
G37*
G36*
X0032D02*
X00305D01*
X00306Y00352*
X0031Y00345*
X00317Y00341*
X0032Y0034*
Y00355*
G37*
G36*
X008Y00367D02*
Y00353D01*
X00814*
X00813Y00356*
X00809Y00362*
X00803Y00367*
X008Y00367*
G37*
G36*
X0079D02*
X00787Y00367D01*
X0078Y00362*
X00776Y00356*
X00776Y00353*
X0079*
Y00367*
G37*
G36*
X00814Y00343D02*
X008D01*
Y00329*
X00803Y00329*
X00809Y00334*
X00813Y0034*
X00814Y00343*
G37*
G36*
X0079D02*
X00776D01*
X00776Y0034*
X0078Y00334*
X00787Y00329*
X0079Y00329*
Y00343*
G37*
G36*
X01439Y00345D02*
X01425D01*
Y0033*
X01427Y00331*
X01434Y00335*
X01438Y00342*
X01439Y00345*
G37*
G36*
X01415D02*
X014D01*
X01401Y00342*
X01405Y00335*
X01412Y00331*
X01415Y0033*
Y00345*
G37*
G36*
X00742Y00397D02*
X00727D01*
Y00383*
X0073Y00384*
X00737Y00388*
X00741Y00395*
X00742Y00397*
G37*
G36*
X00717D02*
X00703D01*
X00704Y00395*
X00708Y00388*
X00715Y00384*
X00717Y00383*
Y00397*
G37*
G36*
X00354Y00419D02*
X0033D01*
Y00394*
X00354*
Y00419*
G37*
G36*
X0032D02*
X00295D01*
Y00394*
X0032*
Y00419*
G37*
G36*
X01425Y00369D02*
Y00355D01*
X01439*
X01438Y00357*
X01434Y00364*
X01427Y00368*
X01425Y00369*
G37*
G36*
X01415D02*
X01412Y00368D01*
X01405Y00364*
X01401Y00357*
X014Y00355*
X01415*
Y00369*
G37*
G36*
X0033Y00379D02*
Y00365D01*
X00344*
X00343Y00367*
X00339Y00374*
X00332Y00378*
X0033Y00379*
G37*
G36*
X0032D02*
X00317Y00378D01*
X0031Y00374*
X00306Y00367*
X00305Y00365*
X0032*
Y00379*
G37*
G36*
X00077Y00298D02*
Y00284D01*
X00092*
X00091Y00287*
X00087Y00293*
X0008Y00298*
X00077Y00298*
G37*
G36*
X01593Y00251D02*
X0159Y0025D01*
X01584Y00246*
X01579Y0024*
X01579Y00237*
X01593*
Y00251*
G37*
G36*
X00412Y00241D02*
X00398D01*
Y00226*
X00401Y00227*
X00408Y00231*
X00412Y00238*
X00412Y00241*
G37*
G36*
X00388Y00265D02*
X00385Y00264D01*
X00379Y0026*
X00375Y00253*
X00374Y00251*
X00388*
Y00265*
G37*
G36*
X01603Y00251D02*
Y00237D01*
X01617*
X01617Y0024*
X01612Y00246*
X01606Y0025*
X01603Y00251*
G37*
G36*
X01593Y00227D02*
X01579D01*
X01579Y00224*
X01584Y00217*
X0159Y00213*
X01593Y00213*
Y00227*
G37*
G36*
X00895Y00278D02*
X00888Y00276D01*
X00882Y00272*
X00878Y00266*
X00876Y0026*
X00878Y00253*
X00882Y00247*
X00888Y00243*
X00895Y00241*
X00901Y00243*
X00904Y00244*
X00968*
X0097Y00239*
X00967Y00237*
X00963Y00231*
X00961Y00225*
X00963Y00218*
X00964Y00215*
Y00201*
X00943Y0018*
X00904*
X00901Y00181*
X00895Y00183*
X00888Y00181*
X00882Y00177*
X00878Y00171*
X00876Y00165*
X00878Y00158*
X00882Y00152*
X00888Y00148*
X00895Y00146*
X00901Y00148*
X00904Y00149*
X0095*
X00955Y00151*
X0096Y00154*
X0099Y00184*
X00993Y00189*
X00995Y00195*
Y00215*
X00996Y00218*
X00998Y00225*
X00996Y00231*
X00992Y00237*
X00989Y00239*
X00991Y00244*
X01023*
X01047Y0022*
X01048Y00218*
X01052Y00212*
X01058Y00208*
X01065Y00206*
X01071Y00208*
X01077Y00212*
X01081Y00218*
X01083Y00225*
X01081Y00231*
X01077Y00237*
X01071Y00241*
X01069Y00242*
X0104Y0027*
X01035Y00273*
X0103Y00275*
X00904*
X00901Y00276*
X00895Y00278*
G37*
G36*
X00388Y00241D02*
X00374D01*
X00375Y00238*
X00379Y00231*
X00385Y00227*
X00388Y00226*
Y00241*
G37*
G36*
X01617Y00227D02*
X01603D01*
Y00213*
X01606Y00213*
X01612Y00217*
X01617Y00224*
X01617Y00227*
G37*
G36*
X01172Y00294D02*
X01169Y00294D01*
X01162Y00289*
X01158Y00283*
X01157Y0028*
X01172*
Y00294*
G37*
G36*
X00092Y00274D02*
X00077D01*
Y0026*
X0008Y0026*
X00087Y00265*
X00091Y00271*
X00092Y00274*
G37*
G36*
X00067Y00298D02*
X00065Y00298D01*
X00058Y00293*
X00054Y00287*
X00053Y00284*
X00067*
Y00298*
G37*
G36*
X01182Y00294D02*
Y0028D01*
X01196*
X01195Y00283*
X01191Y00289*
X01184Y00294*
X01182Y00294*
G37*
G36*
X01172Y0027D02*
X01157D01*
X01158Y00267*
X01162Y00261*
X01169Y00256*
X01172Y00256*
Y0027*
G37*
G36*
X00398Y00265D02*
Y00251D01*
X00412*
X00412Y00253*
X00408Y0026*
X00401Y00264*
X00398Y00265*
G37*
G36*
X00067Y00274D02*
X00053D01*
X00054Y00271*
X00058Y00265*
X00065Y0026*
X00067Y0026*
Y00274*
G37*
G36*
X01196Y0027D02*
X01182D01*
Y00256*
X01184Y00256*
X01191Y00261*
X01195Y00267*
X01196Y0027*
G37*
G36*
X00057Y01453D02*
X00043D01*
X00044Y0145*
X00048Y01444*
X00055Y01439*
X00057Y01439*
Y01453*
G37*
G36*
X0132Y01209D02*
X01295D01*
Y01184*
X0132*
Y01209*
G37*
G36*
X00082Y01453D02*
X00067D01*
Y01439*
X0007Y01439*
X00077Y01444*
X00081Y0145*
X00082Y01453*
G37*
G36*
X00067Y01477D02*
Y01463D01*
X00082*
X00081Y01466*
X00077Y01472*
X0007Y01477*
X00067Y01477*
G37*
G36*
X00057D02*
X00055Y01477D01*
X00048Y01472*
X00044Y01466*
X00043Y01463*
X00057*
Y01477*
G37*
G36*
X01354Y01209D02*
X0133D01*
Y01184*
X01354*
Y01209*
G37*
G36*
X00515Y01513D02*
X00504Y01512D01*
X00495Y01508*
X00487Y01502*
X00481Y01494*
X00477Y01485*
X00476Y01475*
X00477Y01464*
X00481Y01455*
X00487Y01447*
X00495Y01441*
X00504Y01437*
X00515Y01436*
X00525Y01437*
X00534Y01441*
X00542Y01447*
X00548Y01455*
X00552Y01464*
X00553Y01475*
X00552Y01485*
X00548Y01494*
X00542Y01502*
X00534Y01508*
X00525Y01512*
X00515Y01513*
G37*
G36*
X01272Y01207D02*
X0124D01*
Y0119*
X01272*
Y01207*
G37*
G36*
X00452Y01618D02*
X00377D01*
Y01531*
X00402*
Y01513*
X00376*
Y01436*
X00453*
Y01513*
X00427*
Y01531*
X00452*
Y01618*
G37*
G36*
X0123Y01207D02*
X01197D01*
Y0119*
X0123*
Y01207*
G37*
G36*
X00868Y015D02*
X00833D01*
X00833Y01494*
X00838Y01484*
X00844Y01476*
X00852Y01469*
X00862Y01465*
X00868Y01464*
Y015*
G37*
G36*
X00878Y01545D02*
Y0151D01*
X00913*
X00912Y01515*
X00908Y01525*
X00902Y01533*
X00893Y0154*
X00884Y01544*
X00878Y01545*
G37*
G36*
X00868D02*
X00862Y01544D01*
X00852Y0154*
X00844Y01533*
X00838Y01525*
X00833Y01515*
X00833Y0151*
X00868*
Y01545*
G37*
G36*
X0037Y01095D02*
X00355D01*
X00356Y01092*
X0036Y01085*
X00367Y01081*
X0037Y0108*
Y01095*
G37*
G36*
X01542Y01542D02*
X01539Y01542D01*
X01532Y01537*
X01528Y01531*
X01528Y01528*
X01542*
Y01542*
G37*
G36*
X01566Y01518D02*
X01552D01*
Y01504*
X01554Y01504*
X01561Y01509*
X01565Y01515*
X01566Y01518*
G37*
G36*
X0101Y01543D02*
X00933D01*
Y01466*
X0101*
Y01543*
G37*
G36*
X00913Y015D02*
X00878D01*
Y01464*
X00884Y01465*
X00893Y01469*
X00902Y01476*
X00908Y01484*
X00912Y01494*
X00913Y015*
G37*
G36*
X014Y01171D02*
Y0114D01*
X01431*
X0143Y01144*
X01426Y01153*
X01421Y01161*
X01413Y01166*
X01404Y0117*
X014Y01171*
G37*
G36*
X01542Y01518D02*
X01528D01*
X01528Y01515*
X01532Y01509*
X01539Y01504*
X01542Y01504*
Y01518*
G37*
G36*
X0139Y01171D02*
X01385Y0117D01*
X01376Y01166*
X01368Y01161*
X01363Y01153*
X01359Y01144*
X01358Y0114*
X0139*
Y01171*
G37*
G36*
X01352Y01312D02*
X01297D01*
Y01297*
X01283*
X01282Y01298*
X01277Y01299*
X0127*
Y01307*
X01199*
Y01267*
X0127*
Y01271*
X01274Y01274*
X01275Y01274*
X01279Y01273*
X01297*
Y01257*
X01352*
Y01273*
X01366*
X01367Y01272*
X01373Y01268*
X0138Y01267*
X01386Y01268*
X01392Y01272*
X01396Y01278*
X01398Y01285*
X01396Y01292*
X01392Y01298*
X01386Y01302*
X0138Y01303*
X01373Y01302*
X01367Y01298*
X01366Y01297*
X01352*
Y01312*
G37*
G36*
X01613Y01406D02*
X01599D01*
Y01392*
X01602Y01392*
X01608Y01397*
X01613Y01403*
X01613Y01406*
G37*
G36*
X00795Y01449D02*
X00791Y01448D01*
X00784Y01443*
X00779Y01436*
X00777Y01428*
Y0141*
X00795*
Y01449*
G37*
G36*
X00595Y01433D02*
X00588Y01431D01*
X00582Y01427*
X00581Y01427*
X00439*
X00435Y01426*
X00431Y01423*
X00412Y01404*
X00409Y014*
X00408Y01395*
Y01389*
X00406*
Y01381*
X00406Y01381*
X00406Y01381*
Y01349*
X004*
Y01343*
X0036*
Y01315*
Y01276*
Y01236*
X004*
Y0123*
X00406*
Y01198*
X00406Y01198*
X00406Y01198*
Y0119*
X00408*
Y01169*
X00403Y01168*
X00403Y01168*
X00393Y01178*
X00389Y01181*
X00385Y01182*
X00378*
X00377Y01182*
X00371Y01186*
X00365Y01188*
X00358Y01186*
X00352Y01182*
X00348Y01176*
X00346Y0117*
X00348Y01163*
X00351Y01158*
X00351Y01155*
X00351Y01151*
X00348Y01146*
X00346Y0114*
X00348Y01133*
X00352Y01127*
X00358Y01123*
X00362Y01122*
X00364Y01117*
X00364Y01116*
X0036Y01114*
X00356Y01107*
X00355Y01105*
X00375*
Y011*
X0038*
Y0108*
X00382Y01081*
X00389Y01085*
X00391Y01089*
X00397Y0109*
X00423Y01064*
X00421Y01059*
X00417Y01058*
X00411Y01053*
X00406Y01047*
X00406Y01044*
X00425*
Y01039*
X0043*
Y0102*
X00433Y0102*
X00439Y01025*
X00444Y01031*
X00444Y01035*
X0045Y01037*
X00456Y01031*
X0046Y01028*
X00465Y01027*
X00865*
X00867Y01023*
X00866Y01021*
X00865Y01018*
X00904*
X00903Y01021*
X00902Y01023*
X00904Y01027*
X0099*
X01044Y00973*
Y00957*
X01042Y00952*
X01039*
X01029*
X01029Y00953*
X01029Y00954*
Y00959*
X01031Y00963*
X01033Y0097*
X01031Y00976*
X01027Y00982*
X01021Y00986*
X01015Y00988*
X01008Y00986*
X01002Y00982*
X00998Y00976*
X00996Y0097*
X00998Y00963*
X01Y00959*
Y00954*
X01Y00953*
X01Y00952*
X00987*
Y00897*
X01042*
X01044Y00893*
Y00886*
X01042Y00882*
X00987*
Y00863*
X00971*
X0097Y00865*
X00963Y0087*
X00956Y00871*
X00909*
X00902Y0087*
X00895Y00865*
X00891Y00859*
X00889Y00851*
X00891Y00844*
X00895Y00837*
X00902Y00833*
X00909Y00831*
X00956*
X00963Y00833*
X0097Y00837*
X00971Y00839*
X00987*
Y00827*
Y00822*
Y00813*
X00971*
X0097Y00815*
X00963Y0082*
X00956Y00821*
X00909*
X00902Y0082*
X00895Y00815*
X00891Y00809*
X00889Y00801*
X00891Y00794*
X00895Y00787*
X00902Y00783*
X00909Y00781*
X00956*
X00963Y00783*
X0097Y00787*
X00971Y00789*
X00987*
Y00767*
X01042*
Y00773*
X01047Y00775*
X01062Y00759*
Y0073*
X01063Y00725*
X01066Y00721*
X0108Y00707*
X01078Y00702*
X01073Y00701*
X01067Y00697*
X01066Y00697*
X0106*
X01055Y00696*
X01051Y00693*
X01035Y00677*
X01025*
X01024Y00679*
X01023Y00682*
X01026Y00685*
X01027Y0069*
Y00697*
X01042*
Y00752*
X00987*
Y00702*
X00974*
Y00709*
X00974Y00712*
X00972Y00715*
X00969Y00717*
X00966Y00717*
X00913*
X00912Y00717*
X00912Y00717*
X00911Y00717*
X00909Y00717*
X00909Y00716*
X00909Y00716*
X00906Y00715*
X00902Y00717*
X00902Y00717*
X00902Y00717*
X00901Y00717*
X009Y00717*
X00899Y00717*
X00894*
Y00732*
X00899Y00735*
X00902Y00733*
X00909Y00731*
X00956*
X00963Y00733*
X0097Y00737*
X00974Y00744*
X00976Y00751*
X00974Y00759*
X0097Y00765*
X00963Y0077*
X00956Y00771*
X00909*
X00902Y0077*
X00895Y00765*
X00895Y00765*
X0088*
X00874Y00764*
X0087Y00761*
X00867Y00757*
X00865Y00751*
Y00717*
X00856*
X00855Y00717*
X00854Y00717*
X00853Y00717*
X00853Y00717*
X00852Y00716*
X00851Y00716*
X00851Y00715*
X0085Y00715*
X0085Y00714*
X00849Y00713*
X00837Y00694*
X00837Y00693*
X00836Y00691*
X00836Y00691*
X00836Y00691*
X00836Y0069*
X00836Y00688*
X00836Y00688*
X00836Y00688*
X00837Y00686*
X00837Y00685*
X00849Y00666*
X0085Y00665*
X0085Y00664*
X00851Y00664*
X00851Y00663*
X00852Y00663*
X00853Y00662*
X00853Y00662*
X00854Y00662*
X00855Y00662*
X00856Y00662*
X00899*
X009Y00662*
X00901Y00662*
X00902Y00662*
X00902Y00662*
X00904Y00663*
X00906Y00664*
X00909Y00663*
X00909Y00663*
X00909Y00662*
X00911Y00662*
X00912Y00662*
X00912Y00662*
X00913Y00662*
X00932*
Y00655*
X00926Y00649*
X00885*
X00881Y00651*
X00875Y00653*
X00767*
X00735Y00685*
Y00731*
X00743*
X00751Y00733*
X00756Y00736*
X0078*
X00785Y00737*
X0079Y00741*
X00793Y00746*
X00795Y00751*
Y00801*
X00793Y00807*
X0079Y00812*
X00785Y00815*
X0078Y00816*
X00756*
X00751Y0082*
X00743Y00821*
X00697*
X00689Y0082*
X00683Y00815*
X00678Y00809*
X00677Y00801*
X00678Y00794*
X00683Y00787*
X00689Y00783*
X00697Y00781*
X00743*
X00751Y00783*
X00756Y00786*
X00764*
Y00766*
X00756*
X00751Y0077*
X00743Y00771*
X00697*
X00689Y0077*
X00683Y00765*
X00678Y00759*
X00677Y00751*
X00678Y00744*
X00683Y00737*
X00689Y00733*
X00697Y00731*
X00705*
Y00693*
X00649*
Y00723*
X00654Y00727*
X00658Y00732*
X00661Y00739*
X00662Y00746*
X00661Y00753*
X00658Y0076*
X00654Y00766*
X00648Y0077*
X00641Y00773*
X00634Y00774*
X00627Y00773*
X0062Y0077*
X00614Y00766*
X0061Y0076*
X00607Y00753*
X00606Y00746*
X00607Y00739*
X0061Y00732*
X00614Y00727*
X00619Y00723*
Y00693*
X00582*
X00578Y00697*
X00579Y00698*
X00582Y00703*
X00583Y00708*
Y00723*
X00588Y00727*
X00592Y00732*
X00595Y00739*
X00596Y00746*
X00595Y00753*
X00592Y0076*
X00588Y00766*
X00582Y0077*
X00576Y00773*
X00568Y00774*
X00561Y00773*
X00555Y0077*
X00549Y00766*
X00544Y0076*
X00542Y00753*
X00541Y00746*
X00541Y0074*
X00538Y00738*
X00537Y00738*
X00516Y00759*
X0051Y00763*
X00503Y00764*
X00496Y00763*
X0049Y00759*
X00486Y00753*
X00485Y00746*
X00486Y00739*
X0049Y00734*
X00542Y00682*
X00562Y00662*
X00568Y00658*
X00575Y00656*
X00712*
X00747Y00622*
X00753Y00618*
X0076Y00616*
X0081*
Y00605*
X00804Y00599*
X00786*
X00785Y00599*
X00785Y00599*
Y00604*
X00777*
X00777Y00604*
X00777Y00604*
X00714*
Y00565*
X00777*
X00777Y00565*
X00777Y00565*
X00785*
Y0057*
X00785Y0057*
X00786Y0057*
X0081*
X00815Y00572*
X00819Y00575*
X00834Y0059*
X00837Y00594*
X00839Y006*
Y00616*
X0087*
X00922Y00564*
X0092Y0056*
X0091*
X00908Y00561*
X00901Y00563*
X00894Y00561*
X00888Y00557*
X00884Y00551*
X00883Y00545*
X00884Y00538*
X00888Y00532*
X00894Y00528*
X00901Y00526*
X00908Y00528*
X0091Y00529*
X01123*
X01157Y00495*
X01158Y00493*
X01162Y00487*
X01168Y00483*
X01175Y00481*
X01181Y00483*
X01187Y00487*
X01191Y00493*
X01193Y005*
X01192Y00502*
X01197Y00505*
X01233Y00469*
X01233Y00468*
X01237Y00462*
X01243Y00458*
X0125Y00456*
X01256Y00458*
X0126Y0046*
X01325*
X0133Y00462*
X01334Y00465*
X01449Y0058*
X01452Y00584*
X01454Y0059*
Y00729*
X01465Y0074*
X01473*
X01474Y00735*
X01474Y00735*
X01468Y00731*
X01463Y00724*
X0146Y00717*
X0146Y00715*
X01489*
X01518*
X01518Y00717*
X01515Y00724*
X0151Y00731*
X01504Y00735*
X01504Y00735*
X01505Y0074*
X01546*
Y00733*
X0154Y00729*
X01536Y00723*
X01533Y00717*
X01532Y0071*
X01533Y00702*
X01536Y00696*
X0154Y0069*
X01546Y00685*
X01553Y00683*
X0156Y00682*
X01567Y00683*
X01574Y00685*
X0158Y0069*
X01584Y00696*
X01587Y00702*
X01588Y0071*
X01587Y00717*
X01584Y00723*
X0158Y00729*
X01574Y00733*
Y00755*
X01573Y0076*
X01572Y00761*
Y00829*
X01571Y00834*
X01568Y00838*
X01563Y00843*
Y00892*
X01563Y00892*
X01567Y00898*
X01569Y00905*
X01567Y00912*
X01563Y00918*
X01558Y00922*
X01556Y00922*
X01556Y00927*
X01557Y00927*
X01563Y0093*
X01567Y00933*
X01574Y00933*
X01575Y0093*
X01582Y00926*
X01585Y00925*
Y00945*
Y00964*
X01582Y00963*
X01581Y00963*
X01575Y00965*
X01574Y00968*
X01569Y00974*
X01563Y00978*
X01557Y00981*
X0155Y00982*
X01542Y00981*
X01536Y00978*
X0153Y00974*
X01525Y00968*
X01523Y00961*
X01522Y00954*
X01523Y00947*
X01523Y00945*
X01523Y00945*
X01523Y00945*
X01523Y00944*
X01503Y00924*
X01501Y00925*
X01498Y00928*
X01499Y0093*
X01504Y00934*
X01509Y0094*
X01511Y00947*
X01512Y00954*
X01511Y00961*
X01509Y00968*
X01504Y00974*
X01498Y00978*
X01492Y00981*
X01485Y00982*
X01477Y00981*
X01471Y00978*
X01465Y00974*
X0146Y00968*
X01458Y00961*
X01457Y00954*
X01458Y00947*
X0146Y0094*
X01463Y00937*
X01461Y00932*
X01443*
X01441Y00937*
X01444Y0094*
X01446Y00947*
X01447Y00954*
X01446Y00961*
X01444Y00968*
X01439Y00974*
X01433Y00978*
X01427Y00981*
X0142Y00982*
X01412Y00981*
X01406Y00978*
X014Y00974*
X01395Y00968*
X01393Y00961*
X01392Y00954*
X01393Y00947*
X01395Y0094*
X01398Y00937*
X01396Y00932*
X01382*
Y00982*
X01332*
X01328Y00984*
X01328Y00989*
X01325Y00992*
X01325Y00993*
X01327Y00997*
X01327Y00997*
X01332Y00997*
X01382*
Y01052*
X01367*
Y0106*
X01369Y01062*
X01435*
X01439Y01063*
X01443Y01065*
X01456Y01077*
X01507*
X01512Y01078*
X01516Y01081*
X01538Y01103*
X01543Y01101*
X01552Y011*
X01561Y01101*
X01569Y01104*
X01577Y0111*
X01582Y01117*
X01586Y01126*
X01587Y01135*
X01586Y01143*
X01582Y01152*
X01577Y01159*
X01569Y01165*
X01561Y01168*
X01552Y01169*
X01543Y01168*
X01535Y01165*
X01527Y01159*
X01522Y01152*
X01518Y01143*
X01517Y01135*
X01518Y01126*
X01521Y0112*
X01502Y01102*
X01495*
X01493Y01107*
X01498Y0111*
X01503Y01117*
X01507Y01126*
X01508Y01135*
X01507Y01143*
X01503Y01152*
X01498Y01159*
X01491Y01165*
X01482Y01168*
X01473Y01169*
X01464Y01168*
X01456Y01165*
X01449Y01159*
X01443Y01152*
X0144Y01143*
X01438Y01135*
X0144Y01126*
X01442Y0112*
X01425Y01103*
X01422Y01103*
X01421Y01108*
X01426Y01116*
X0143Y01125*
X01431Y0113*
X01358*
X01359Y01125*
X01363Y01116*
X01368Y01108*
X01371Y01107*
X01369Y01102*
X01338*
X01336Y01107*
X0134Y0111*
X01346Y01117*
X01349Y01126*
X01351Y01135*
X01349Y01143*
X01346Y01152*
X0134Y01159*
X01333Y01165*
X01325Y01168*
X01316Y01169*
X01307Y01168*
X01298Y01165*
X01291Y01159*
X01286Y01152*
X01282Y01143*
X01281Y01135*
X01282Y01126*
X01286Y01117*
X0129Y01112*
X01287Y01107*
X01285Y01108*
X01278Y01106*
X01276Y01105*
X01271Y01108*
Y01169*
X01203*
Y011*
X01225*
Y01077*
X0122Y01075*
X01149Y01146*
X01145Y01149*
X01141Y0115*
X00932*
X00915Y01167*
Y01243*
X00914Y01247*
X00911Y01251*
X00818Y01345*
X00814Y01347*
X00809Y01348*
X00591*
X00587Y01347*
X00583Y01345*
X00579Y01341*
X00559*
Y01343*
X00551*
X00551Y01343*
X00551Y01343*
X00519*
Y01349*
X00513*
Y01385*
X00535*
X00539Y01381*
X0054Y01374*
X00544Y01369*
X0055Y01365*
X00557Y01363*
X00564Y01365*
X00569Y01369*
X00573Y01374*
X00575Y01381*
X00573Y01388*
X00569Y01394*
X00565Y01397*
X00565Y01402*
X00565Y01402*
X00581*
X00582Y01402*
X00588Y01398*
X00595Y01396*
X00601Y01398*
X00607Y01402*
X00611Y01408*
X00613Y01415*
X00611Y01421*
X00607Y01427*
X00601Y01431*
X00595Y01433*
G37*
G36*
X01589Y01406D02*
X01575D01*
X01575Y01403*
X0158Y01397*
X01586Y01392*
X01589Y01392*
Y01406*
G37*
G36*
X00216Y01504D02*
X00203Y01502D01*
X0019Y01499*
X00179Y01492*
X00168Y01484*
X0016Y01474*
X00154Y01462*
X0015Y0145*
X00149Y01437*
X0015Y01423*
X00154Y01411*
X0016Y01399*
X00168Y01389*
X00179Y01381*
X0019Y01374*
X00203Y01371*
X00216Y01369*
X00229Y01371*
X00242Y01374*
X00253Y01381*
X00264Y01389*
X00272Y01399*
X00278Y01411*
X00282Y01423*
X00283Y01437*
X00282Y0145*
X00278Y01462*
X00272Y01474*
X00264Y01484*
X00253Y01492*
X00242Y01499*
X00229Y01502*
X00216Y01504*
G37*
G36*
X01437D02*
X01423Y01502D01*
X01411Y01499*
X01399Y01492*
X01389Y01484*
X01381Y01474*
X01374Y01462*
X01371Y0145*
X01369Y01437*
X01371Y01423*
X01374Y01411*
X01381Y01399*
X01389Y01389*
X01399Y01381*
X01411Y01374*
X01423Y01371*
X01437Y01369*
X0145Y01371*
X01462Y01374*
X01474Y01381*
X01484Y01389*
X01492Y01399*
X01499Y01411*
X01502Y01423*
X01504Y01437*
X01502Y0145*
X01499Y01462*
X01492Y01474*
X01484Y01484*
X01474Y01492*
X01462Y01499*
X0145Y01502*
X01437Y01504*
G37*
G36*
X00775Y01543D02*
X00764Y01542D01*
X00755Y01538*
X00747Y01532*
X00741Y01524*
X00737Y01515*
X00736Y01505*
X00737Y01494*
X00741Y01485*
X00747Y01477*
X00753Y01472*
X00754Y01466*
X00741Y01453*
X00738Y01449*
X00737Y01445*
Y01443*
X00735Y01442*
X00731Y01435*
X00729Y01428*
Y01381*
X00731Y01374*
X00735Y01367*
X00742Y01363*
X0075Y01361*
X00757Y01363*
X00764Y01367*
X00768Y01374*
X0077Y01381*
Y01428*
X00768Y01435*
X00764Y01442*
X00783Y01461*
X00786Y01465*
X00786Y01468*
X00794Y01471*
X00802Y01477*
X00808Y01485*
X00812Y01494*
X00813Y01505*
X00812Y01515*
X00808Y01524*
X00802Y01532*
X00794Y01538*
X00785Y01542*
X00775Y01543*
G37*
G36*
X00795Y014D02*
X00777D01*
Y01381*
X00779Y01373*
X00784Y01366*
X00791Y01361*
X00795Y0136*
Y014*
G37*
G36*
X00822D02*
X00805D01*
Y0136*
X00808Y01361*
X00815Y01366*
X0082Y01373*
X00822Y01381*
Y014*
G37*
G36*
X00805Y01449D02*
Y0141D01*
X00822*
Y01428*
X0082Y01436*
X00815Y01443*
X00808Y01448*
X00805Y01449*
G37*
G36*
X0132Y01244D02*
X01295D01*
Y01219*
X0132*
Y01244*
G37*
G36*
X01354D02*
X0133D01*
Y01219*
X01354*
Y01244*
G37*
G36*
X01272Y01234D02*
X0124D01*
Y01217*
X01272*
Y01234*
G37*
G36*
X01003Y01288D02*
X00926D01*
Y01211*
X01003*
Y01288*
G37*
G36*
X0123Y01234D02*
X01197D01*
Y01217*
X0123*
Y01234*
G37*
G36*
X01599Y0143D02*
Y01416D01*
X01613*
X01613Y01419*
X01608Y01425*
X01602Y0143*
X01599Y0143*
G37*
G36*
X01589D02*
X01586Y0143D01*
X0158Y01425*
X01575Y01419*
X01575Y01416*
X01589*
Y0143*
G37*
G36*
X01065Y01288D02*
X01054Y01287D01*
X01045Y01283*
X01037Y01277*
X01031Y01269*
X01027Y0126*
X01026Y0125*
X01027Y01239*
X01031Y0123*
X01037Y01222*
X01045Y01216*
X01054Y01212*
X01065Y01211*
X01075Y01212*
X01084Y01216*
X01092Y01222*
X01098Y0123*
X01099Y01231*
X01116*
Y0123*
X01187*
Y01269*
X01116*
Y01268*
X01099*
X01098Y01269*
X01092Y01277*
X01084Y01283*
X01075Y01287*
X01065Y01288*
G37*
G36*
X0015Y0158D02*
Y01566D01*
X00164*
X00164Y01568*
X00159Y01575*
X00153Y01579*
X0015Y0158*
G37*
G36*
X0088Y01008D02*
X00865D01*
X00866Y01006*
X0087Y00999*
X00877Y00995*
X0088Y00994*
Y01008*
G37*
G36*
X00904D02*
X0089D01*
Y00994*
X00892Y00995*
X00899Y00999*
X00903Y01006*
X00904Y01008*
G37*
G36*
X01339Y01595D02*
X01325D01*
Y0158*
X01327Y01581*
X01334Y01585*
X01338Y01592*
X01339Y01595*
G37*
G36*
X01315D02*
X013D01*
X01301Y01592*
X01305Y01585*
X01312Y01581*
X01315Y0158*
Y01595*
G37*
G36*
X00744Y01612D02*
X00737Y01611D01*
X0073Y01609*
X00724Y01604*
X0072Y01598*
X00719Y01597*
X00719Y01597*
X00719Y01597*
X00718Y01597*
X0068*
X00675Y01596*
X00671Y01593*
X00601Y01523*
X00598Y01519*
X00597Y01515*
Y0149*
X00598Y01485*
X00601Y01481*
X00635Y01447*
X00635Y01442*
X00631Y01435*
X00629Y01428*
Y01381*
X00631Y01374*
X00635Y01367*
X00642Y01363*
X0065Y01361*
X00657Y01363*
X00664Y01367*
X00668Y01374*
X0067Y01381*
Y01428*
X00668Y01435*
X00664Y01442*
X00662Y01443*
Y0145*
X00661Y01454*
X00658Y01458*
X00622Y01494*
Y0151*
X00638Y01526*
X00643Y01524*
X00639Y01515*
X00637Y01505*
X00639Y01494*
X00643Y01485*
X00649Y01477*
X00657Y01471*
X00664Y01468*
Y01468*
X00665Y01463*
X00668Y01459*
X00685Y01442*
X00681Y01435*
X00679Y01428*
Y01381*
X00681Y01374*
X00685Y01367*
X00692Y01363*
X007Y01361*
X00707Y01363*
X00714Y01367*
X00718Y01374*
X0072Y01381*
Y01428*
X00718Y01435*
X00714Y01442*
X00712Y01443*
Y01445*
X00711Y01449*
X00708Y01453*
X00695Y01466*
X00696Y01472*
X00703Y01477*
X0071Y01485*
X00713Y01494*
X00715Y01505*
X00713Y01515*
X0071Y01524*
X00703Y01532*
X00695Y01538*
X00686Y01542*
X00676Y01543*
X00666Y01542*
X00657Y01538*
X00654Y01542*
X00684Y01572*
X00718*
X00719Y01572*
X00719Y01572*
X00719Y01572*
X0072Y01571*
X00724Y01565*
X0073Y0156*
X00737Y01558*
X00744Y01557*
X00751Y01558*
X00758Y0156*
X00764Y01565*
X00768Y01571*
X00771Y01577*
X00772Y01585*
X00771Y01592*
X00768Y01598*
X00764Y01604*
X00758Y01609*
X00751Y01611*
X00744Y01612*
G37*
G36*
X01415Y0102D02*
X0139D01*
X01391Y01017*
X01394Y0101*
X01398Y01004*
X01405Y00999*
X01412Y00996*
X01415Y00996*
Y0102*
G37*
G36*
X0148D02*
X01455D01*
X01456Y01017*
X01459Y0101*
X01463Y01004*
X0147Y00999*
X01477Y00996*
X0148Y00996*
Y0102*
G37*
G36*
X01545D02*
X0152D01*
X01521Y01017*
X01524Y0101*
X01528Y01004*
X01535Y00999*
X01542Y00996*
X01545Y00996*
Y0102*
G37*
G36*
X01579D02*
X01555D01*
Y00996*
X01557Y00996*
X01564Y00999*
X01571Y01004*
X01575Y0101*
X01578Y01017*
X01579Y0102*
G37*
G36*
X0014Y0158D02*
X00137Y01579D01*
X00131Y01575*
X00126Y01568*
X00126Y01566*
X0014*
Y0158*
G37*
G36*
X0025Y01595D02*
X00236D01*
X00237Y01592*
X00241Y01586*
X00248Y01581*
X0025Y01581*
Y01595*
G37*
G36*
X01315Y01619D02*
X01312Y01618D01*
X01305Y01614*
X01301Y01607*
X013Y01605*
X01315*
Y01619*
G37*
G36*
X00277Y00945D02*
X00263D01*
X00263Y00942*
X00268Y00935*
X00274Y00931*
X00277Y0093*
Y00945*
G37*
G36*
X00301D02*
X00287D01*
Y0093*
X0029Y00931*
X00296Y00935*
X00301Y00942*
X00301Y00945*
G37*
G36*
X0026Y01619D02*
Y01605D01*
X00275*
X00274Y01608*
X0027Y01614*
X00263Y01619*
X0026Y01619*
G37*
G36*
X0025D02*
X00248Y01619D01*
X00241Y01614*
X00237Y01608*
X00236Y01605*
X0025*
Y01619*
G37*
G36*
X01325Y01619D02*
Y01605D01*
X01339*
X01338Y01607*
X01334Y01614*
X01327Y01618*
X01325Y01619*
G37*
G36*
X00937Y0096D02*
X00935Y00959D01*
X00928Y00955*
X00924Y00948*
X00923Y00945*
X00937*
Y0096*
G37*
G36*
X00947D02*
Y00945D01*
X00962*
X00961Y00948*
X00957Y00955*
X0095Y00959*
X00947Y0096*
G37*
G36*
X01595Y00964D02*
Y0095D01*
X01609*
X01608Y00952*
X01604Y00959*
X01597Y00963*
X01595Y00964*
G37*
G36*
X0082Y01614D02*
Y0159D01*
X00844*
X00844Y01592*
X00841Y01599*
X00836Y01606*
X0083Y0161*
X00823Y01613*
X0082Y01614*
G37*
G36*
X0081D02*
X00807Y01613D01*
X008Y0161*
X00794Y01606*
X00789Y01599*
X00786Y01592*
X00786Y0159*
X0081*
Y01614*
G37*
G36*
X00275Y01595D02*
X0026D01*
Y01581*
X00263Y01581*
X0027Y01586*
X00274Y01592*
X00275Y01595*
G37*
G36*
X01545Y01054D02*
X01542Y01054D01*
X01535Y01051*
X01528Y01046*
X01524Y0104*
X01521Y01033*
X0152Y0103*
X01545*
Y01054*
G37*
G36*
X01555D02*
Y0103D01*
X01579*
X01578Y01033*
X01575Y0104*
X01571Y01046*
X01564Y01051*
X01557Y01054*
X01555Y01054*
G37*
G36*
X00164Y01556D02*
X0015D01*
Y01541*
X00153Y01542*
X00159Y01546*
X00164Y01553*
X00164Y01556*
G37*
G36*
X0081Y0158D02*
X00786D01*
X00786Y01577*
X00789Y0157*
X00794Y01563*
X008Y01559*
X00807Y01556*
X0081Y01555*
Y0158*
G37*
G36*
X01415Y01054D02*
X01412Y01054D01*
X01405Y01051*
X01398Y01046*
X01394Y0104*
X01391Y01033*
X0139Y0103*
X01415*
Y01054*
G37*
G36*
X0149D02*
Y0103D01*
X01514*
X01513Y01033*
X0151Y0104*
X01506Y01046*
X01499Y01051*
X01492Y01054*
X0149Y01054*
G37*
G36*
X01552Y01542D02*
Y01528D01*
X01566*
X01565Y01531*
X01561Y01537*
X01554Y01542*
X01552Y01542*
G37*
G36*
X0014Y01556D02*
X00126D01*
X00126Y01553*
X00131Y01546*
X00137Y01542*
X0014Y01541*
Y01556*
G37*
G36*
X0148Y01054D02*
X01477Y01054D01*
X0147Y01051*
X01463Y01046*
X01459Y0104*
X01456Y01033*
X01455Y0103*
X0148*
Y01054*
G37*
G36*
X01425D02*
Y0103D01*
X01449*
X01448Y01033*
X01445Y0104*
X01441Y01046*
X01434Y01051*
X01427Y01054*
X01425Y01054*
G37*
G36*
X00844Y0158D02*
X0082D01*
Y01555*
X00823Y01556*
X0083Y01559*
X00836Y01563*
X00841Y0157*
X00844Y01577*
X00844Y0158*
G37*
G36*
X00566Y01618D02*
X00491D01*
Y01531*
X00566*
Y01562*
X00586*
X00587Y01562*
X00593Y01558*
X006Y01556*
X00606Y01558*
X00612Y01562*
X00616Y01568*
X00618Y01575*
X00616Y01581*
X00612Y01587*
X00606Y01591*
X006Y01593*
X00593Y01591*
X00587Y01587*
X00586Y01587*
X00566*
Y01618*
G37*
G36*
X01449Y0102D02*
X01425D01*
Y00996*
X01427Y00996*
X01434Y00999*
X01441Y01004*
X01445Y0101*
X01448Y01017*
X01449Y0102*
G37*
G36*
X01514D02*
X0149D01*
Y00996*
X01492Y00996*
X01499Y00999*
X01506Y01004*
X0151Y0101*
X01513Y01017*
X01514Y0102*
G37*
G36*
X00344Y01069D02*
X00303D01*
Y0102*
X00344*
Y01028*
X00358*
X00383Y01004*
X00383Y01003*
X00387Y00997*
X00393Y00993*
X004Y00991*
X00406Y00993*
X00412Y00997*
X00416Y01003*
X00418Y0101*
X00416Y01015*
X00418Y01018*
X0042Y0102*
X0042*
Y01034*
X00406*
X00406Y01033*
X00401Y0103*
X00376Y01056*
X00371Y01059*
X00365Y01061*
X00344*
Y01069*
G37*
G36*
X00147Y01224D02*
X00119D01*
X00119Y01221*
X00122Y01213*
X00127Y01207*
X00134Y01202*
X00141Y01199*
X00147Y01198*
Y01224*
G37*
G36*
X00157Y01084D02*
Y01059D01*
X00185*
X00185Y01062*
X00182Y01069*
X00177Y01076*
X0017Y0108*
X00163Y01084*
X00157Y01084*
G37*
G36*
X00081Y01314D02*
X00072D01*
Y01287*
X00112*
X00112Y0129*
X00109Y01298*
X00104Y01305*
X00097Y0131*
X00089Y01313*
X00081Y01314*
G37*
G36*
X00112Y01277D02*
X00072D01*
Y0125*
X00081*
X00089Y01251*
X00097Y01254*
X00104Y01259*
X00109Y01266*
X00112Y01274*
X00112Y01277*
G37*
G36*
X00157Y01259D02*
Y01234D01*
X00185*
X00185Y01237*
X00182Y01244*
X00177Y01251*
X0017Y01256*
X00163Y01259*
X00157Y01259*
G37*
G36*
X00147D02*
X00141Y01259D01*
X00134Y01256*
X00127Y01251*
X00122Y01244*
X00119Y01237*
X00119Y01234*
X00147*
Y01259*
G37*
G36*
Y01084D02*
X00141Y01084D01*
X00134Y0108*
X00127Y01076*
X00122Y01069*
X00119Y01062*
X00119Y01059*
X00147*
Y01084*
G37*
G36*
X00116Y00995D02*
X00072D01*
Y00967*
X00083*
X00092Y00968*
X001Y00971*
X00107Y00977*
X00113Y00984*
X00116Y00992*
X00116Y00995*
G37*
G36*
X00185Y01049D02*
X00157D01*
Y01023*
X00163Y01024*
X0017Y01027*
X00177Y01032*
X00182Y01038*
X00185Y01046*
X00185Y01049*
G37*
G36*
X00083Y01034D02*
X00072D01*
Y01005*
X00116*
X00116Y01009*
X00113Y01017*
X00107Y01024*
X001Y0103*
X00092Y01033*
X00083Y01034*
G37*
G36*
X00147Y01049D02*
X00119D01*
X00119Y01046*
X00122Y01038*
X00127Y01032*
X00134Y01027*
X00141Y01024*
X00147Y01023*
Y01049*
G37*
%LNstepperpcb-3*%
%LPD*%
G36*
X00777Y00515D02*
X00777Y00515D01*
X00777Y00514*
X00778Y00514*
X00778Y00513*
X00779Y00513*
X0078Y00513*
X00781Y00513*
X00782Y00513*
X00783Y00513*
Y00507*
X00782Y00507*
X00781Y00507*
X0078Y00506*
X00779Y00506*
X00778Y00506*
X00778Y00506*
X00777Y00505*
X00777Y00505*
X00777Y00504*
X00777Y00504*
Y00516*
X00777Y00515*
G37*
G36*
X00269Y00528D02*
X0027Y00522D01*
X0027Y00519*
X00271Y00517*
X00271Y00514*
X00272Y00512*
X00273Y0051*
X00274Y00509*
X00275Y00507*
X00244*
X00245Y00509*
X00246Y0051*
X00247Y00512*
X00248Y00514*
X00248Y00517*
X00249Y00519*
X00249Y00522*
X0025Y00528*
X0025Y00532*
X00269*
X00269Y00528*
G37*
G36*
X01064Y00234D02*
X01055Y00225D01*
X0105Y00229*
X0106Y00239*
X01064Y00234*
G37*
G36*
X00422Y01539D02*
X00421Y01539D01*
X0042Y01539*
X0042Y01538*
X00419Y01537*
X00419Y01536*
X00419Y01535*
X00419Y01534*
X00418Y01533*
X00418Y01531*
X00411*
X00411Y01533*
X0041Y01534*
X0041Y01535*
X0041Y01536*
X0041Y01537*
X00409Y01538*
X00409Y01539*
X00408Y01539*
X00407Y01539*
X00407Y01539*
X00422*
X00422Y01539*
G37*
G36*
X00418Y01511D02*
X00419Y0151D01*
X00419Y01509*
X00419Y01508*
X00419Y01507*
X0042Y01506*
X0042Y01505*
X00421Y01505*
X00422Y01505*
X00422Y01505*
X00407*
X00407Y01505*
X00408Y01505*
X00409Y01505*
X00409Y01506*
X0041Y01507*
X0041Y01508*
X0041Y01509*
X0041Y0151*
X00411Y01511*
X00411Y01513*
X00418*
X00418Y01511*
G37*
G36*
X01305Y01277D02*
X01305Y01278D01*
X01305Y01278*
X01304Y01279*
X01304Y0128*
X01303Y0128*
X01302Y0128*
X01301Y01281*
X013Y01281*
X01299Y01281*
X01297Y01281*
Y01289*
X01299Y01289*
X013Y01289*
X01301Y01289*
X01302Y0129*
X01303Y0129*
X01304Y0129*
X01304Y01291*
X01305Y01291*
X01305Y01292*
X01305Y01293*
Y01277*
G37*
G36*
X01344Y01292D02*
X01344Y01291D01*
X01345Y01291*
X01345Y0129*
X01346Y0129*
X01347Y0129*
X01348Y01289*
X01349Y01289*
X0135Y01289*
X01352Y01289*
Y01281*
X0135Y01281*
X01349Y01281*
X01348Y01281*
X01347Y0128*
X01346Y0128*
X01345Y0128*
X01345Y01279*
X01344Y01278*
X01344Y01278*
X01344Y01277*
Y01293*
X01344Y01292*
G37*
G36*
X01262Y01294D02*
X01262Y01293D01*
X01263Y01293*
X01263Y01292*
X01264Y01292*
X01265Y01291*
X01266Y01291*
X01267Y01291*
X01268Y01291*
X0127Y01291*
Y01283*
X01268Y01283*
X01267Y01283*
X01266Y01283*
X01265Y01282*
X01264Y01282*
X01263Y01282*
X01263Y01281*
X01262Y0128*
X01262Y0128*
X01262Y01279*
Y01295*
X01262Y01294*
G37*
G36*
X00424Y01387D02*
X00424Y01384D01*
X00425Y01383*
X00425Y01382*
X00425Y01382*
X00425Y01381*
X00426Y01381*
X00426Y01381*
X00414*
X00415Y01381*
X00415Y01381*
X00415Y01382*
X00416Y01382*
X00416Y01383*
X00416Y01384*
X00416Y01385*
X00416Y01387*
X00416Y01389*
X00424*
X00424Y01387*
G37*
G36*
X00444D02*
X00444Y01384D01*
X00444Y01383*
X00444Y01382*
X00445Y01382*
X00445Y01381*
X00445Y01381*
X00446Y01381*
X00434*
X00434Y01381*
X00435Y01381*
X00435Y01382*
X00435Y01382*
X00435Y01383*
X00436Y01384*
X00436Y01385*
X00436Y01387*
X00436Y01389*
X00444*
X00444Y01387*
G37*
G36*
X01022Y00705D02*
X01021Y00704D01*
X0102Y00704*
X0102Y00703*
X01019Y00703*
X01019Y00702*
X01019Y00701*
X01019Y007*
X01018Y00698*
X01018Y00697*
X01011*
X01011Y00698*
X0101Y007*
X0101Y00701*
X0101Y00702*
X0101Y00703*
X01009Y00703*
X01009Y00704*
X01008Y00704*
X01007Y00705*
X01007Y00705*
X01022*
X01022Y00705*
G37*
G36*
X00573Y00704D02*
X00572Y00702D01*
X00564Y00694*
X00564Y00693*
X00553Y00704*
X00554Y00704*
X00554Y00705*
X00555Y00705*
X00556Y00706*
X00559Y00709*
X00564Y00713*
X00573Y00704*
G37*
G36*
X00966Y0067D02*
X00913D01*
X00923Y0069*
X00913Y00709*
X00966*
Y0067*
G37*
G36*
X01421Y00793D02*
X0142Y00793D01*
X01419Y00793*
X01418Y00793*
X01417Y00793*
X01417Y00793*
X01416Y00792*
X01415Y00792*
X01414Y00791*
X01414Y00791*
X01413Y0079*
X01407Y00795*
X01408Y00796*
X01409Y00797*
X01409Y00798*
X0141Y00798*
X0141Y00799*
X0141Y008*
X01411Y00801*
X01411Y00801*
X01411Y00802*
X01411Y00803*
X01421Y00793*
G37*
G36*
X01034Y00802D02*
X01034Y00801D01*
X01035Y00801*
X01035Y008*
X01036Y008*
X01037Y008*
X01038Y00799*
X01039Y00799*
X0104Y00799*
X01042Y00799*
Y00791*
X0104Y00791*
X01039Y00791*
X01038Y00791*
X01037Y0079*
X01036Y0079*
X01035Y0079*
X01035Y00789*
X01034Y00788*
X01034Y00788*
X01034Y00787*
Y00803*
X01034Y00802*
G37*
G36*
X01429Y00743D02*
X01427Y0074D01*
X01425Y00735*
Y00595*
X01319Y00489*
X0126*
X01256Y00491*
X01255Y00491*
X01168Y00578*
X01163Y00582*
X01157Y00583*
X00949*
X00916Y00616*
X00918Y0062*
X00932*
X00936Y00621*
X00941Y00619*
X00942Y00618*
X00946Y00612*
X00951Y00608*
X00958Y00606*
X00965Y00608*
X00971Y00612*
X00972Y00612*
X0105*
X01054Y00613*
X01058Y00616*
X01079Y00637*
X01101*
X01104Y00632*
X01103Y00631*
X01101Y00625*
X01103Y00618*
X01107Y00612*
X01113Y00608*
X0112Y00606*
X01126Y00608*
X01132Y00612*
X01133Y00612*
X01155*
X01161Y00606*
X01165Y00603*
X0117Y00602*
X01236*
X01237Y00601*
X01243Y00598*
X0125Y00596*
X01256Y00598*
X01262Y00601*
X01266Y00607*
X01268Y00614*
X01266Y00621*
X01262Y00627*
X01256Y00631*
X0125Y00632*
X01243Y00631*
X01237Y00627*
X01236Y00626*
X01178*
X01177Y00628*
X01177Y00629*
X01178Y00634*
X01182Y00637*
X01186Y00643*
X01188Y0065*
X01186Y00656*
X01182Y00662*
X01176Y00666*
X0117Y00667*
X01171Y00672*
X01364*
X01369Y00673*
X01373Y00676*
X01408Y00711*
X0141Y00715*
X01411Y0072*
Y00744*
X01416Y00747*
X01421Y00746*
X01426Y00747*
X01429Y00743*
G37*
G36*
X00777Y00595D02*
X00777Y00594D01*
X00778Y00593*
X00779Y00592*
X0078Y00592*
X00781Y00591*
X00783Y00591*
X00785Y00591*
X00787Y0059*
X00789Y0059*
Y00579*
X00787Y00579*
X00785Y00578*
X00783Y00578*
X00781Y00578*
X0078Y00577*
X00779Y00577*
X00778Y00576*
X00777Y00575*
X00777Y00574*
X00777Y00573*
Y00596*
X00777Y00595*
G37*
G36*
X00557Y01115D02*
X00556Y0111D01*
X00557Y01103*
X00561Y01097*
X00567Y01093*
X00574Y01092*
X00581Y01093*
X00585Y01096*
X00663*
X00668Y01093*
X00675Y01091*
X00681Y01093*
X00686Y0109*
X00686Y01089*
X00689Y01085*
X00694Y01082*
X00699Y0108*
X0071*
X00714Y01075*
X00718Y01072*
X00716Y01067*
X00476*
X00455Y01088*
X00457Y01092*
X00522*
X00527Y01093*
X00531Y01096*
X00552Y01117*
X00557Y01115*
G37*
G36*
X01362Y00935D02*
X01361Y00934D01*
X0136Y00934*
X0136Y00933*
X01359Y00933*
X01359Y00932*
X01359Y00931*
X01359Y0093*
X01358Y00928*
X01358Y00927*
X01351*
X01351Y00928*
X0135Y0093*
X0135Y00931*
X0135Y00932*
X0135Y00933*
X01349Y00933*
X01349Y00934*
X01348Y00934*
X01347Y00935*
X01347Y00935*
X01362*
X01362Y00935*
G37*
G36*
X00911Y0069D02*
X00899Y0067D01*
X00856*
X00844Y0069*
X00856Y00709*
X00899*
X00911Y0069*
G37*
G36*
X01358Y01051D02*
X01359Y0105D01*
X01359Y01048*
X01359Y01047*
X01359Y01046*
X0136Y01046*
X0136Y01045*
X01361Y01045*
X01362Y01045*
X01362Y01045*
X01347*
X01347Y01045*
X01348Y01045*
X01349Y01045*
X01349Y01046*
X0135Y01046*
X0135Y01047*
X0135Y01048*
X0135Y0105*
X01351Y01051*
X01351Y01052*
X01358*
X01358Y01051*
G37*
G36*
X00786Y01231D02*
X00785Y01229D01*
X00781Y01223*
X00779Y01215*
Y01169*
X00781Y01161*
X00785Y01154*
X00792Y0115*
X008Y01149*
X00807Y0115*
X00814Y01154*
X00818Y01161*
X0082Y01169*
Y01212*
X00824Y01214*
X00827Y01211*
Y01135*
X00828Y01131*
X00831Y01127*
X00886Y01072*
X00884Y01067*
X00826*
X00825Y01072*
X00826Y01073*
X00831Y0108*
X00834Y01087*
X00834Y0109*
X00805*
X00776*
X00776Y01087*
X00779Y0108*
X00784Y01073*
X00785Y01072*
X00783Y01067*
X00752*
X0075Y01072*
X00754Y01075*
X00758Y01081*
X00761Y01087*
X00762Y01095*
X00761Y01102*
X00758Y01108*
X00756Y01111*
X00757Y01113*
X00758Y01116*
X00764Y0112*
X00768Y01127*
X00769Y0113*
X0075*
Y0114*
X00769*
X00768Y01142*
X00765Y01147*
X00765Y01153*
X0077Y0116*
X00772Y01169*
Y01187*
X0075*
Y01197*
X00772*
Y01215*
X0077Y01224*
X00765Y01231*
X00763Y01232*
X00764Y01237*
X0078*
X00786Y01231*
G37*
G36*
X01542Y00927D02*
X01543Y00926D01*
X01543Y00925*
X01543Y00922*
X01543Y00921*
X01538Y00918*
X01534Y00912*
X01533Y00905*
X01534Y00898*
X01538Y00892*
X01539Y00892*
Y00838*
X0154Y00834*
X01542Y0083*
X01548Y00824*
Y00769*
X0146*
X01454Y00767*
X0145Y00764*
X01443Y00757*
X01438Y0076*
X01439Y00765*
X01439Y00765*
X01453Y0078*
X01456Y00784*
X01457Y00788*
Y00811*
X01461Y00814*
X01461Y00814*
X01463Y00813*
X0147Y00811*
X01476Y00813*
X01482Y00817*
X01486Y00823*
X01488Y0083*
X01486Y00836*
X01482Y00842*
X01482Y00843*
Y00855*
X01481Y00857*
X01484Y00861*
X01485Y00862*
X01491Y00863*
X01497Y00867*
X01501Y00873*
X01503Y0088*
X01501Y00886*
X01497Y00892*
X01499Y00897*
X01499Y00897*
X01505*
X0151Y00898*
X01513Y00901*
X0154Y00927*
X01542Y00927*
G37*
G36*
X0102Y00954D02*
X01021Y00952D01*
X01021Y0095*
X01021Y00949*
X01022Y00947*
X01023Y00946*
X01023Y00945*
X01024Y00945*
X01025Y00945*
X01026Y00944*
X01003*
X01004Y00945*
X01005Y00945*
X01006Y00945*
X01006Y00946*
X01007Y00947*
X01008Y00949*
X01008Y0095*
X01008Y00952*
X01009Y00954*
X01009Y00956*
X0102*
X0102Y00954*
G37*
G36*
X01471Y00907D02*
X01473Y00902D01*
X01472Y009*
Y00893*
X01472Y00892*
X01468Y00886*
X01467Y00881*
X01464Y00879*
X01464Y00878*
X01462Y00877*
X01458Y00878*
X01407*
X01402Y00877*
X01398Y00875*
X01378Y00854*
X01373Y00856*
Y00875*
X01372Y0088*
X0137Y00884*
X0135Y00903*
X01352Y00907*
X0147*
X01471Y00907*
G37*
G36*
X01489Y00935D02*
X01489Y00935D01*
X01489Y00934*
X01489Y00934*
X01489Y00934*
X01489Y00933*
X01488Y00931*
X01488Y0093*
X01481*
X01481Y00931*
X0148Y00934*
X0148Y00934*
X0148Y00934*
X0148Y00935*
X0148Y00935*
X0148Y00935*
X01489*
X01489Y00935*
G37*
G36*
X01241Y00951D02*
Y00928D01*
X01236Y00924*
X01232Y00925*
X01225Y00924*
X01219Y0092*
X01219Y00919*
X01208*
X01122Y01006*
Y01031*
X01122Y01032*
X01126Y01038*
X01128Y01045*
X01126Y01051*
X01122Y01057*
X01116Y01061*
X0111Y01063*
X01103Y01061*
X01097Y01057*
X01093Y01051*
X01091Y01045*
X01093Y01038*
X01097Y01032*
X01097Y01031*
Y01005*
X01092Y01003*
X01022Y01074*
X01024Y01078*
X01114*
X01241Y00951*
G37*
G36*
X01542Y00936D02*
X01542Y00936D01*
X01541Y00936*
X0154Y00936*
X01539Y00936*
X01538Y00936*
X01537Y00935*
X01536Y00935*
X01535Y00934*
X01534Y00933*
X01533Y00932*
X01528Y00938*
X01528Y00939*
X01529Y0094*
X0153Y00941*
X01531Y00942*
X01531Y00943*
X01531Y00943*
X01532Y00944*
X01532Y00945*
X01531Y00946*
X01531Y00947*
X01542Y00936*
G37*
G36*
X01318Y00848D02*
X01319Y00848D01*
X01319Y00847*
X01319Y00846*
X01319Y00845*
X0132Y00844*
X0132Y00843*
X0132Y00843*
X01321Y00842*
X01321Y00842*
X01308*
X01308Y00842*
X01309Y00843*
X01309Y00843*
X0131Y00844*
X0131Y00845*
X0131Y00846*
X0131Y00847*
X0131Y00848*
X01311Y00848*
X01311Y00849*
X01318*
X01318Y00848*
G37*
G36*
X01127Y00967D02*
X01125Y00962D01*
X01123Y00961*
X01117Y00957*
X01113Y00951*
X01111Y00945*
X01113Y00938*
X01117Y00932*
X01123Y00928*
X0113Y00926*
X0113Y00927*
X01165Y00892*
Y00876*
X01164Y00875*
X0116Y00869*
X01159Y00862*
X0116Y00855*
X01164Y00849*
X0117Y00846*
X01177Y00844*
X01184Y00846*
X0119Y00849*
X01193Y00855*
X01195Y00862*
X01193Y00869*
X0119Y00875*
X01189Y00876*
Y00897*
X01189Y00898*
X01193Y009*
X01195Y00899*
X01199Y00896*
X01203Y00895*
X01219*
X01219Y00894*
X01225Y00891*
X01232Y00889*
X01239Y00891*
X01245Y00894*
X01247Y00898*
X01253Y00899*
X01277Y00875*
Y00868*
X01277Y00867*
X01273Y00861*
X01271Y00855*
X01273Y00848*
X01277Y00842*
X01283Y00838*
X0129Y00836*
X01291Y00837*
X01295Y00834*
X01296Y00831*
X01292Y00827*
X0129Y00828*
X01283Y00826*
X01277Y00822*
X01273Y00816*
X01271Y0081*
X01273Y00803*
X01277Y00797*
X01283Y00793*
X0129Y00791*
X01296Y00793*
X01302Y00797*
X01303Y00797*
X01328*
X01332Y00798*
X01335Y008*
X0134Y00798*
Y00744*
X01339Y00744*
X01169*
X01166Y00749*
X01168Y00755*
X01166Y00761*
X01162Y00767*
X01162Y00768*
Y00779*
X01161Y00784*
X01158Y00788*
X01138Y00808*
Y0085*
X01137Y00854*
X01135Y00858*
X01099Y00894*
Y00987*
X01104Y00989*
X01127Y00967*
G37*
G36*
X00995Y00793D02*
X00995Y00794D01*
X00995Y00795*
X00994Y00795*
X00994Y00796*
X00993Y00796*
X00992Y00797*
X00991Y00797*
X0099Y00797*
X00989Y00797*
X00987Y00797*
Y00805*
X00989Y00805*
X0099Y00805*
X00991Y00806*
X00992Y00806*
X00993Y00806*
X00994Y00807*
X00994Y00807*
X00995Y00808*
X00995Y00808*
X00995Y00809*
Y00793*
G37*
G36*
X01343Y00868D02*
X01344Y00868D01*
X01344Y00867*
X01344Y00866*
X01344Y00865*
X01345Y00864*
X01345Y00863*
X01345Y00863*
X01346Y00862*
X01346Y00862*
X01333*
X01333Y00862*
X01334Y00863*
X01334Y00863*
X01335Y00864*
X01335Y00865*
X01335Y00866*
X01335Y00867*
X01335Y00868*
X01336Y00868*
X01336Y00869*
X01343*
X01343Y00868*
G37*
G36*
X01034Y00861D02*
X01034Y00861D01*
X01035Y0086*
X01035Y00859*
X01036Y00859*
X01037Y00859*
X01038Y00858*
X01039Y00858*
X0104Y00858*
X01042Y00858*
Y0085*
X0104Y0085*
X01039Y0085*
X01038Y0085*
X01037Y0085*
X01036Y00849*
X01035Y00849*
X01035Y00848*
X01034Y00848*
X01034Y00847*
X01034Y00846*
Y00862*
X01034Y00861*
G37*
G36*
X00995Y00843D02*
X00995Y00844D01*
X00995Y00845*
X00994Y00845*
X00994Y00846*
X00993Y00846*
X00992Y00847*
X00991Y00847*
X0099Y00847*
X00989Y00847*
X00987Y00847*
Y00855*
X00989Y00855*
X0099Y00855*
X00991Y00856*
X00992Y00856*
X00993Y00856*
X00994Y00857*
X00994Y00857*
X00995Y00858*
X00995Y00858*
X00995Y00859*
Y00843*
G37*
G36*
X01427Y00936D02*
X01426Y00935D01*
X01425Y00934*
X01425Y00934*
X01424Y00933*
X01424Y00932*
X01424Y00931*
X01424Y0093*
X01423Y00928*
X01423Y00927*
X01416*
X01416Y00928*
X01415Y0093*
X01415Y00931*
X01415Y00932*
X01415Y00933*
X01414Y00934*
X01414Y00934*
X01413Y00935*
X01412Y00936*
X01412Y00936*
X01427*
X01427Y00936*
G37*
G36*
X00803Y01232D02*
X00804Y01229D01*
X00804Y01228*
X00804Y01226*
X00805Y01226*
X00805Y01225*
X00806Y01224*
X00806Y01224*
X00807Y01224*
X00792*
X00793Y01224*
X00793Y01224*
X00794Y01225*
X00794Y01226*
X00795Y01226*
X00795Y01228*
X00795Y01229*
X00795Y0123*
X00796Y01232*
X00796Y01234*
X00803*
X00803Y01232*
G37*
G36*
X00551Y01256D02*
X00551Y01255D01*
X00552Y01255*
X00552Y01255*
X00553Y01255*
X00554Y01254*
X00555Y01254*
X00557Y01254*
X00559Y01254*
Y01246*
X00557Y01246*
X00554Y01246*
X00553Y01246*
X00552Y01246*
X00552Y01245*
X00551Y01245*
X00551Y01245*
X00551Y01244*
Y01256*
X00551Y01256*
G37*
G36*
Y01275D02*
X00551Y01275D01*
X00552Y01275*
X00552Y01274*
X00553Y01274*
X00554Y01274*
X00555Y01274*
X00557Y01274*
X00559Y01274*
Y01266*
X00557Y01266*
X00554Y01266*
X00553Y01265*
X00552Y01265*
X00552Y01265*
X00551Y01265*
X00551Y01264*
X00551Y01264*
Y01276*
X00551Y01275*
G37*
G36*
X00465Y01198D02*
X00465Y01198D01*
X00464Y01197*
X00464Y01197*
X00464Y01196*
X00464Y01195*
X00464Y01194*
X00463Y01192*
X00463Y0119*
X00456*
X00456Y01192*
X00455Y01195*
X00455Y01196*
X00455Y01197*
X00455Y01197*
X00454Y01198*
X00454Y01198*
X00454Y01198*
X00465*
X00465Y01198*
G37*
G36*
X00485D02*
X00484Y01198D01*
X00484Y01197*
X00484Y01197*
X00484Y01196*
X00483Y01195*
X00483Y01194*
X00483Y01192*
X00483Y0119*
X00475*
X00475Y01192*
X00475Y01195*
X00475Y01196*
X00475Y01197*
X00474Y01197*
X00474Y01198*
X00474Y01198*
X00473Y01198*
X00485*
X00485Y01198*
G37*
G36*
X00505Y01219D02*
X00505Y01219D01*
X00505Y01218*
X00506Y01217*
X00507Y01217*
X00507Y01217*
X00508Y01216*
X0051Y01216*
X00511Y01216*
X00513Y01216*
Y01208*
X00511Y01208*
X0051Y01208*
X00508Y01208*
X00507Y01208*
X00507Y01207*
X00506Y01207*
X00505Y01206*
X00505Y01206*
X00505Y01205*
X00505Y01204*
Y0122*
X00505Y01219*
G37*
G36*
X00551Y01315D02*
X00551Y01314D01*
X00552Y01314*
X00552Y01314*
X00553Y01314*
X00554Y01313*
X00555Y01313*
X00557Y01313*
X00559Y01313*
Y01305*
X00557Y01305*
X00554Y01305*
X00553Y01305*
X00552Y01305*
X00552Y01304*
X00551Y01304*
X00551Y01304*
X00551Y01303*
Y01315*
X00551Y01315*
G37*
G36*
Y01334D02*
X00551Y01334D01*
X00552Y01334*
X00552Y01333*
X00553Y01333*
X00554Y01333*
X00555Y01333*
X00557Y01333*
X00559Y01333*
Y01325*
X00557Y01325*
X00554Y01325*
X00553Y01324*
X00552Y01324*
X00552Y01324*
X00551Y01324*
X00551Y01323*
X00551Y01323*
Y01335*
X00551Y01334*
G37*
G36*
X00465Y01353D02*
X00465Y01352D01*
X00464Y01352*
X00464Y01351*
X00464Y01351*
X00464Y0135*
X00464Y01349*
X00463Y01346*
Y01346*
X00463Y01345*
X00464Y01344*
X00464Y01342*
X00464Y01341*
X00464Y0134*
X00465Y0134*
X00465Y01339*
X00466Y01339*
X00467Y01339*
X00467Y01338*
X00452*
X00452Y01339*
X00453Y01339*
X00454Y01339*
X00454Y0134*
X00455Y0134*
X00455Y01341*
X00455Y01342*
X00455Y01344*
X00456Y01345*
X00456Y01346*
Y01346*
X00455Y0135*
X00455Y01351*
X00455Y01351*
X00455Y01352*
X00454Y01352*
X00454Y01353*
X00454Y01353*
X00465*
X00465Y01353*
G37*
G36*
X0069Y01232D02*
X00685Y01229D01*
X00681Y01223*
X00679Y01215*
Y01169*
X00681Y01161*
X00685Y01154*
X00685Y01154*
Y0113*
X00684Y01128*
X0068Y01126*
X00675Y01128*
X00668Y01126*
X00664Y01124*
X00585*
X00581Y01127*
X00574Y01128*
X00569Y01127*
X00567Y01132*
X0057Y01135*
X00573Y01139*
X00574Y01144*
Y01165*
X00589Y0118*
X00629*
Y01169*
X00631Y01161*
X00635Y01154*
X00642Y0115*
X0065Y01149*
X00657Y0115*
X00664Y01154*
X00668Y01161*
X0067Y01169*
Y01215*
X00668Y01223*
X00664Y01229*
X00659Y01232*
X00661Y01237*
X00688*
X0069Y01232*
G37*
G36*
X01244Y01108D02*
X01243Y01108D01*
X01243Y01107*
X01242Y01107*
X01242Y01106*
X01242Y01105*
X01241Y01104*
X01241Y01103*
X01241Y01102*
X01241Y011*
X01233*
X01233Y01102*
X01233Y01103*
X01233Y01104*
X01232Y01105*
X01232Y01106*
X01232Y01107*
X01231Y01107*
X01231Y01108*
X0123Y01108*
X01229Y01108*
X01245*
X01244Y01108*
G37*
G36*
X00374Y01139D02*
X00374Y01138D01*
X00375Y01137*
X00375Y01136*
X00375Y01135*
X00376Y01135*
X00376Y01134*
X00377Y01133*
X00377Y01132*
X00378Y01132*
X00372Y01126*
X00372Y01127*
X00371Y01127*
X0037Y01128*
X00369Y01128*
X00369Y01129*
X00368Y01129*
X00367Y01129*
X00366Y0113*
X00365Y0113*
X00365Y0113*
X00374Y01139*
X00374Y01139*
G37*
G36*
X00753Y01148D02*
X00754Y01148D01*
X00754Y01147*
X00754Y01146*
X00754Y01145*
X00755Y01144*
X00755Y01143*
X00755Y01143*
X00756Y01142*
X00756Y01142*
X00743*
X00743Y01142*
X00744Y01143*
X00744Y01143*
X00745Y01144*
X00745Y01145*
X00745Y01146*
X00745Y01147*
X00745Y01148*
X00746Y01148*
X00746Y01149*
X00753*
X00753Y01148*
G37*
G36*
X01174Y00509D02*
X01165Y005D01*
X0116Y00504*
X0117Y00514*
X01174Y00509*
G37*
G36*
X00426Y01198D02*
X00425Y01198D01*
X00425Y01197*
X00425Y01197*
X00425Y01196*
X00424Y01195*
X00424Y01194*
X00424Y01192*
X00424Y0119*
X00416*
X00416Y01192*
X00416Y01195*
X00416Y01196*
X00416Y01197*
X00415Y01197*
X00415Y01198*
X00415Y01198*
X00414Y01198*
X00426*
X00426Y01198*
G37*
G36*
X00445D02*
X00445Y01198D01*
X00445Y01197*
X00444Y01197*
X00444Y01196*
X00444Y01195*
X00444Y01194*
X00444Y01192*
X00444Y0119*
X00436*
X00436Y01192*
X00436Y01195*
X00435Y01196*
X00435Y01197*
X00435Y01197*
X00435Y01198*
X00434Y01198*
X00434Y01198*
X00446*
X00445Y01198*
G37*
G36*
X00757Y0116D02*
X00756Y0116D01*
X00755Y01159*
X00755Y01158*
X00754Y01158*
X00754Y01156*
X00754Y01155*
X00754Y01153*
X00753Y01152*
X00753Y0115*
X00746*
X00746Y01152*
X00745Y01155*
X00745Y01156*
X00745Y01158*
X00744Y01158*
X00744Y01159*
X00743Y0116*
X00742Y0116*
X00742Y0116*
X00757*
X00757Y0116*
G37*
G36*
X00468Y01178D02*
X00468Y01178D01*
X00468Y01177*
X00468Y01176*
X00468Y01175*
X00469Y01174*
X00469Y01173*
X0047Y01173*
X0047Y01172*
X00471Y01172*
X00457*
X00457Y01172*
X00458Y01173*
X00458Y01173*
X00459Y01174*
X00459Y01175*
X00459Y01176*
X00459Y01177*
X0046Y01178*
X0046Y01178*
X0046Y01179*
X00468*
X00468Y01178*
G37*
G36*
X00638Y01184D02*
X00638Y01185D01*
X00638Y01185*
X00637Y01186*
X00637Y01187*
X00636Y01187*
X00635Y01187*
X00634Y01188*
X00633Y01188*
X00631Y01188*
X0063Y01188*
Y01196*
X00631Y01196*
X00633Y01196*
X00634Y01196*
X00635Y01196*
X00636Y01197*
X00637Y01197*
X00637Y01198*
X00638Y01198*
X00638Y01199*
X00638Y012*
Y01184*
G37*
G36*
X00753Y01443D02*
X00754Y0144D01*
X00754Y01439*
X00754Y01439*
X00754Y01438*
X00754Y01438*
X00754Y01438*
X00745*
X00745Y01438*
X00745Y01438*
X00745Y01439*
X00745Y01439*
X00745Y0144*
X00745Y0144*
X00746Y01442*
X00746Y01445*
X00753*
X00753Y01443*
G37*
G36*
X00779Y01474D02*
X00779Y01474D01*
X00779Y01474*
X00779Y01474*
X00779Y01473*
X00779Y01473*
X00779Y01472*
X00778Y01471*
X00778Y0147*
X00771*
X00771Y0147*
X0077Y01472*
X0077Y01473*
X0077Y01473*
X0077Y01474*
X0077Y01474*
X0077Y01474*
X0077Y01474*
X00769Y01474*
X0078*
X00779Y01474*
G37*
G36*
X00703Y01443D02*
X00704Y0144D01*
X00704Y01439*
X00704Y01439*
X00704Y01438*
X00704Y01438*
X00704Y01438*
X00695*
X00695Y01438*
X00695Y01438*
X00695Y01439*
X00695Y01439*
X00695Y0144*
X00695Y0144*
X00696Y01442*
X00696Y01445*
X00703*
X00703Y01443*
G37*
G36*
X00726Y01577D02*
X00726Y01577D01*
X00725Y01578*
X00724Y01579*
X00724Y01579*
X00723Y0158*
X00722Y0158*
X00721Y0158*
X0072Y0158*
X00718Y01581*
X00717Y01581*
Y01588*
X00718Y01588*
X0072Y01589*
X00721Y01589*
X00722Y01589*
X00723Y01589*
X00724Y0159*
X00724Y0159*
X00725Y01591*
X00726Y01592*
X00726Y01592*
Y01577*
G37*
G36*
X00683Y01475D02*
X00682Y01474D01*
X00682Y01474*
X00681Y01473*
X00681Y01473*
X00681Y01472*
X0068Y01471*
X0068Y0147*
X0068Y01469*
X0068Y01468*
X00672*
X00672Y01469*
X00672Y0147*
X00672Y01471*
X00672Y01472*
X00671Y01473*
X00671Y01473*
X00671Y01474*
X0067Y01474*
X0067Y01475*
X00669Y01475*
X00683*
X00683Y01475*
G37*
G36*
X00558Y01582D02*
X00558Y01581D01*
X00559Y0158*
X00559Y0158*
X0056Y01579*
X00561Y01579*
X00562Y01579*
X00563Y01579*
X00564Y01578*
X00566Y01578*
Y01571*
X00564Y01571*
X00563Y0157*
X00562Y0157*
X00561Y0157*
X0056Y0157*
X00559Y01569*
X00559Y01569*
X00558Y01568*
X00558Y01567*
X00558Y01567*
Y01582*
X00558Y01582*
G37*
%LNstepperpcb-4*%
%LPC*%
G36*
X0081Y01124D02*
Y011D01*
X00834*
X00834Y01102*
X00831Y01109*
X00826Y01116*
X0082Y0112*
X00813Y01123*
X0081Y01124*
G37*
G36*
X008D02*
X00797Y01123D01*
X0079Y0112*
X00784Y01116*
X00779Y01109*
X00776Y01102*
X00776Y011*
X008*
Y01124*
G37*
%LNstepperpcb-5*%
%LPD*%
G54D13*
X0142Y01025D03*
Y00954D03*
X01485D03*
Y01025D03*
X0026Y00495D03*
Y00424D03*
X00744Y01585D03*
X00815D03*
X00734Y01095D03*
X00805D03*
X00634Y00746D03*
Y00817D03*
X00568D03*
Y00746D03*
X0013Y00424D03*
Y00495D03*
X0156Y0071D03*
X01489D03*
X0155Y00954D03*
Y01025D03*
G54D17*
X00236Y01045D03*
X00323D03*
G54D18*
X0024Y01124D03*
Y01235D03*
G54D19*
X00415Y01575D03*
X00529D03*
G54D30*
X01355Y00954D03*
Y01025D03*
X00325Y00495D03*
Y00424D03*
X00195D03*
Y00495D03*
X01325Y01285D03*
Y01214D03*
X01015Y00795D03*
Y00724D03*
Y00854D03*
Y00925D03*
G54D34*
X00574Y0111D02*
X00699D01*
X00885Y00959D02*
Y01013D01*
Y00959D02*
X0089Y00954D01*
X00699Y01095D02*
Y0111D01*
Y01095D02*
X00734D01*
X0144Y00735D02*
X0146Y00755D01*
X0144Y0059D02*
Y00735D01*
X01325Y00475D02*
X0144Y0059D01*
X0156Y0071D02*
Y00755D01*
X0146D02*
X0156D01*
X0125Y00475D02*
X01325D01*
X01015Y00925D02*
Y0097D01*
X00932Y00635D02*
X00946Y00649D01*
X00875Y00635D02*
X00932D01*
X00946Y00649D02*
Y0069D01*
X0088D02*
Y00751D01*
X00933*
X01617Y01177D02*
X0162Y01175D01*
X00075Y00495D02*
X0013D01*
X00185Y01192D02*
X0024D01*
Y01235*
X00236Y01045D02*
Y01124D01*
X0024*
X0075Y00585D02*
X0081D01*
X00825Y006*
Y00635*
X007Y0111D02*
Y01192D01*
G54D35*
X00522Y01105D02*
X00562Y01144D01*
X00445Y01105D02*
X00522D01*
X00584Y01192D02*
X0065D01*
X00562Y0117D02*
X00584Y01192D01*
X00562Y01144D02*
Y0117D01*
X0052Y01125D02*
X00546Y0115D01*
Y01176*
X0062Y0125*
X0046Y01125D02*
X0052D01*
X01551Y00905D02*
D01*
Y00838D02*
Y00905D01*
X01485Y0088D02*
Y009D01*
X01495Y0091*
X01505*
X0155Y00954*
X01485Y0093D02*
Y00954D01*
X01355Y0092D02*
X0142D01*
X01339D02*
X01355D01*
Y00954*
X0155Y01074D02*
X01615D01*
X01485D02*
X0155D01*
X0155Y01073D02*
X0155Y01074D01*
X0155Y01025D02*
Y01073D01*
X01457Y01074D02*
X01485D01*
Y01025D02*
Y01074D01*
X01615D02*
X0162Y0107D01*
X01441Y01058D02*
X01457Y01074D01*
X0142Y01058D02*
X01441D01*
X0142Y01025D02*
Y01058D01*
X01355Y01025D02*
Y01065D01*
X0142Y00954D02*
Y00964D01*
Y0092D02*
Y00954D01*
X01507Y0109D02*
X01552Y01135D01*
X01451Y0109D02*
X01507D01*
X01435Y01074D02*
X01451Y0109D01*
X01364Y01074D02*
X01435D01*
X01355Y01065D02*
X01364Y01074D01*
X0142Y0092D02*
X01475D01*
X01485Y0093*
X01316Y00942D02*
X01339Y0092D01*
X01316Y00942D02*
Y00984D01*
X01251Y0105D02*
X01316Y00984D01*
X01428Y0109D02*
X01473Y01135D01*
X01285Y0109D02*
X01428D01*
X0129Y00855D02*
Y0088D01*
X01253Y00916D02*
X0129Y0088D01*
X01253Y00916D02*
Y00956D01*
X01361Y00843D02*
Y00875D01*
X01301Y00936D02*
X01361Y00875D01*
X01301Y00936D02*
Y00977D01*
X01141Y01137D02*
X01301Y00977D01*
X00927Y01137D02*
X01141D01*
X01315Y00835D02*
Y00877D01*
X01269Y00923D02*
X01315Y00877D01*
X01269Y00923D02*
Y00964D01*
X0134Y00855D02*
Y00875D01*
X01285Y00929D02*
X0134Y00875D01*
X01285Y00929D02*
Y00971D01*
X01134Y01122D02*
X01285Y00971D01*
X0092Y01122D02*
X01134D01*
X01128Y01106D02*
X01269Y00964D01*
X01119Y0109D02*
X01253Y00956D01*
X01237Y01063D02*
X01251Y0105D01*
X0131*
X01445Y00788D02*
Y00813D01*
X01444D02*
X01445D01*
X01444D02*
Y00813D01*
X01431Y00827D02*
X01444Y00813D01*
X01399Y00782D02*
X01421Y00803D01*
X0147Y0083D02*
Y00855D01*
X01443Y00843D02*
X01445Y00845D01*
X01412Y00827D02*
X01431D01*
X01383Y00798D02*
X01412Y00827D01*
X01407Y00866D02*
X01458D01*
X01352Y00811D02*
X01407Y00866D01*
X01405Y00843D02*
X01443D01*
X01368Y00805D02*
X01405Y00843D01*
X01237Y01063D02*
Y01135D01*
X0112Y00625D02*
X0116D01*
X0129Y0081D02*
X01328D01*
X01361Y00843*
X01368Y00733D02*
Y00805D01*
X01383Y00726D02*
Y00798D01*
X01421Y00765D02*
X01445Y00788D01*
X01352Y00739D02*
Y00811D01*
X01344Y00732D02*
X01352Y00739D01*
X01139Y00732D02*
X01344D01*
X01399Y0072D02*
Y00782D01*
X01364Y00685D02*
X01399Y0072D01*
X0112Y00685D02*
X01364D01*
X01358Y007D02*
X01383Y00726D01*
X01126Y007D02*
X01358D01*
X01351Y00716D02*
X01368Y00733D01*
X01133Y00716D02*
X01351D01*
X00907Y0109D02*
X01119D01*
X0111Y01001D02*
X01203Y00907D01*
X01232*
X0113Y00945D02*
X01177Y00897D01*
X01126Y00803D02*
X0115Y00779D01*
Y00755D02*
Y00779D01*
X009Y01075D02*
X01004D01*
X0111Y00796D02*
X01122Y00785D01*
Y00749D02*
Y00785D01*
Y00749D02*
X01139Y00732D01*
X01095Y0079D02*
X01096Y00788D01*
Y00788D02*
Y00788D01*
Y00788D02*
X01106Y00777D01*
Y00743D02*
Y00777D01*
Y00743D02*
X01133Y00716D01*
X0108Y00781D02*
Y00782D01*
Y00781D02*
X0109Y00771D01*
Y00736D02*
Y00771D01*
Y00736D02*
X01126Y007D01*
X01044Y00795D02*
X01075Y00764D01*
Y0073D02*
Y00764D01*
Y0073D02*
X0112Y00685D01*
X0104Y00665D02*
X0106Y00685D01*
X0108*
X00995Y00665D02*
X0104D01*
X01079Y00782D02*
X0108D01*
X0107Y00792D02*
X01079Y00782D01*
X0107Y00792D02*
Y0084D01*
X01015Y00795D02*
X01044D01*
X01055Y00854D02*
X0107Y0084D01*
X0111Y01001D02*
Y01045D01*
X00584Y01329D02*
X00591Y01336D01*
X00809*
X00537Y01329D02*
X00584D01*
X00587Y01309D02*
X00598Y0132D01*
X00803*
X00537Y01309D02*
X00587D01*
X006Y01252D02*
X00616Y01269D01*
X00788*
X006Y01252D02*
X006D01*
X00559Y01212D02*
X006Y01252D01*
X00499Y01212D02*
X00559D01*
X00575Y0125D02*
X0061Y01285D01*
X00794*
X00537Y0125D02*
X00575D01*
X0057Y0127D02*
X00604Y01305D01*
X00796*
X00537Y0127D02*
X0057D01*
X00913Y01106D02*
X01128D01*
X00471Y01055D02*
X01001D01*
X00412Y01114D02*
X00471Y01055D01*
X00465Y0104D02*
X00995D01*
X00396Y01108D02*
X00465Y0104D01*
X0062Y0125D02*
X00785D01*
X00699Y0111D02*
X007Y0111D01*
X0044Y01144D02*
X0046Y01125D01*
X0044Y01144D02*
Y01212D01*
X0042Y01129D02*
X00445Y01105D01*
X0042Y01129D02*
Y01212D01*
X00385Y0117D02*
X00395Y0116D01*
Y01132D02*
Y0116D01*
Y01132D02*
X00412Y01115D01*
Y01114D02*
Y01115D01*
X00396Y01108D02*
Y01108D01*
X00383Y01121D02*
X00396Y01108D01*
X00383Y01121D02*
X00383D01*
X00365Y0114D02*
X00383Y01121D01*
X00365Y0117D02*
X00385D01*
X004Y01065D02*
Y01075D01*
X00375Y011D02*
X004Y01075D01*
Y01065D02*
X00425Y01039D01*
X01325Y01285D02*
X0138D01*
X01277Y01212D02*
X01279Y01214D01*
X01325*
X01235Y01212D02*
X01277D01*
Y01287D02*
X01279Y01285D01*
X01325*
X01235Y01287D02*
X01277D01*
X0156Y00755D02*
Y00829D01*
X0154Y00625D02*
X0162D01*
X01489Y00675D02*
X0154Y00625D01*
X01489Y00675D02*
Y0071D01*
X01551Y00838D02*
X0156Y00829D01*
X0142Y003D02*
Y0035D01*
X01458Y00866D02*
X0147Y00855D01*
X01177Y00862D02*
Y00897D01*
X01015Y00854D02*
X01055D01*
X01008Y00801D02*
X01015Y00795D01*
X00933Y00801D02*
X01008D01*
X01012Y00851D02*
X01015Y00854D01*
X00933Y00851D02*
X01012D01*
X01075Y0065D02*
X0117D01*
X0116Y00625D02*
X0117Y00614D01*
X0105Y00625D02*
X01075Y0065D01*
X00958Y00625D02*
X0105D01*
X0117Y00614D02*
X0125D01*
X00676Y01468D02*
Y01505D01*
Y01468D02*
X007Y01445D01*
Y01405D02*
Y01445D01*
X0075Y01405D02*
Y01445D01*
X00775Y0147*
Y01505*
X00415Y01475D02*
Y01575D01*
X00529D02*
X006D01*
X0068Y01585D02*
X00744D01*
X0061Y01515D02*
X0068Y01585D01*
X0061Y0149D02*
Y01515D01*
Y0149D02*
X0065Y0145D01*
Y01405D02*
Y0145D01*
X00785Y0125D02*
X008Y01235D01*
Y01192D02*
Y01235D01*
X00479Y01198D02*
Y01212D01*
X0046Y01185D02*
X00464Y0118D01*
Y01165D02*
Y0118D01*
X0046Y01185D02*
Y01212D01*
X00479D02*
D01*
Y0119D02*
Y01212D01*
Y0119D02*
X005Y0117D01*
X00525*
X0046Y0129D02*
Y01367D01*
X0044D02*
Y0139D01*
X00447Y01397*
X0042Y01367D02*
Y01395D01*
X00439Y01415D02*
X00595D01*
X0042Y01395D02*
X00439Y01415D01*
X00447Y01397D02*
X00541D01*
X00557Y01381*
X00946Y0069D02*
X01015D01*
Y00724*
X00607Y00547D02*
X00667D01*
X00525Y00465D02*
X00607Y00547D01*
X0075Y01135D02*
Y01192D01*
X0084Y01135D02*
X009Y01075D01*
X00855Y01142D02*
X00907Y0109D01*
X00871Y01148D02*
X00913Y01106D01*
X00887Y01155D02*
X0092Y01122D01*
X00902Y01162D02*
X00927Y01137D01*
X0084Y01135D02*
Y01217D01*
X00788Y01269D02*
X0084Y01217D01*
X00794Y01285D02*
X00855Y01223D01*
Y01142D02*
Y01223D01*
X00796Y01305D02*
X00871Y0123D01*
Y01148D02*
Y0123D01*
X00803Y0132D02*
X00887Y01236D01*
Y01155D02*
Y01236D01*
X00809Y01336D02*
X00902Y01243D01*
Y01162D02*
Y01243D01*
X01095Y0079D02*
Y00837D01*
X01126Y00803D02*
Y0085D01*
X0111Y00796D02*
Y00843D01*
X01056Y00876D02*
X01095Y00837D01*
X01004Y01075D02*
X01087Y00991D01*
X01001Y01055D02*
X01071Y00985D01*
X00995Y0104D02*
X01056Y00978D01*
X01087Y00889D02*
X01126Y0085D01*
X01087Y00889D02*
Y00991D01*
X01071Y00882D02*
Y00985D01*
Y00882D02*
X0111Y00843D01*
X01056Y00876D02*
Y00978D01*
G54D36*
X00575Y0095D02*
X00625Y01D01*
X0036Y0095D02*
X00575D01*
X00325Y00985D02*
X0036Y0095D01*
X00235Y00985D02*
X00325D01*
X00172Y00922D02*
X00235Y00985D01*
X00072Y00922D02*
X00172D01*
X01619Y01214D02*
X0162Y01215D01*
X01065Y0125D02*
X01152D01*
X0081Y00954D02*
X0089D01*
X00655Y00955D02*
X0081D01*
X00555Y00695D02*
X00575Y00675D01*
X00503Y00746D02*
X00555Y00695D01*
X00575Y00675D02*
X00634D01*
Y00934D02*
X00655Y00955D01*
X00634Y00901D02*
Y00934D01*
X0057Y00901D02*
X00634D01*
X00284D02*
X0057D01*
X00282Y009D02*
Y0095D01*
Y0076D02*
Y009D01*
X00284Y00901*
X00365Y0036D02*
X0043Y00425D01*
X00325Y0036D02*
X00365D01*
X00075Y00435D02*
Y00495D01*
X00035Y0037D02*
X0013D01*
Y00424*
X00282Y0076D02*
X004D01*
X00075D02*
X00282D01*
X004Y0067D02*
Y0076D01*
X00075Y00495D02*
Y0076D01*
X0026Y0037D02*
Y00424D01*
X00195Y0037D02*
X0026D01*
X00195D02*
Y00424D01*
X0013Y0037D02*
X00195D01*
Y00535D02*
Y0067D01*
Y00495D02*
Y00535D01*
X0026*
Y00495D02*
Y00535D01*
X00325*
Y00495D02*
Y00535D01*
X00346Y0062D02*
X0043D01*
Y0079*
X00385Y00835D02*
X0043Y0079D01*
X00133Y0072D02*
X00195D01*
X00133Y0067D02*
X00195D01*
Y00695*
Y0072*
X00634Y00675D02*
X0072D01*
X0076Y00635*
X00825*
X00875*
X0043Y00425D02*
X00525D01*
G54D37*
X00873Y01405D02*
Y01505D01*
X0162Y00625D02*
Y0107D01*
Y01175*
X0102Y01405D02*
X01215Y016D01*
X00873Y01405D02*
X0102D01*
X0162Y01175D02*
Y01215D01*
Y0036D02*
Y00625D01*
X0142Y003D02*
X0156D01*
X01235D02*
X0142D01*
X01132Y00402D02*
X01235Y003D01*
X0156D02*
X0162Y0036D01*
X0059Y00425D02*
X00612Y00402D01*
X00525Y00425D02*
X0059D01*
G54D38*
X0072Y00901D02*
X00809D01*
X0081*
X00809Y0069D02*
Y00901D01*
X0072Y00751D02*
X0078D01*
Y00801*
X0072D02*
X0078D01*
X0081Y00955D02*
X0081Y00954D01*
Y00901D02*
Y00954D01*
Y00901D02*
X00933D01*
X00555Y00695D02*
X00568Y00708D01*
Y00746*
Y009D02*
X0057Y00901D01*
X00901Y00545D02*
X0113D01*
X00634Y00675D02*
Y00746D01*
X0103Y0026D02*
X01065Y00225D01*
X00895Y0026D02*
X0103D01*
X00895Y00165D02*
X0095D01*
X0098Y00195*
Y00225*
X0113Y00545D02*
X01175Y005D01*
X0072Y00675D02*
Y00751D01*
X0072Y00675D02*
X0072Y00675D01*
X008Y01405D02*
X00873D01*
G54D39*
X01157Y00567D02*
X0125Y00475D01*
X00942Y00567D02*
X01157D01*
X00875Y00635D02*
X00942Y00567D01*
X00416Y00538D02*
Y00558D01*
X00405Y0057D02*
X00416Y00558D01*
X00346Y0057D02*
X00405D01*
X00365Y01045D02*
X004Y0101D01*
X00323Y01045D02*
X00365D01*
G54D42*
X00515Y01475D03*
X00676Y01505D03*
X00775D03*
X00873D03*
X01065Y0125D03*
G54D43*
X00415Y01475D03*
X00971Y01505D03*
X00965Y0125D03*
G54D44*
X01552Y01135D03*
X01316D03*
X01395D03*
X01473D03*
G54D45*
X01237Y01135D03*
G54D46*
X00067Y01D03*
G54D47*
X00067Y01282D03*
G54D48*
X00152Y01229D03*
Y01054D03*
G54D49*
X00574Y0111D03*
X00885Y01013D03*
X00942Y0094D03*
X0132Y016D03*
X0159Y00945D03*
X01421Y00803D03*
X0147Y0083D03*
X01445Y00845D03*
X01485Y0088D03*
X0131Y0105D03*
X0134Y00855D03*
X0129Y0081D03*
X01315Y00835D03*
X0129Y00855D03*
X0113Y00945D03*
X0112Y00625D03*
X0108Y00685D03*
X0115Y00755D03*
X00675Y0111D03*
X00625Y01D03*
X00072Y00922D03*
X0075Y01135D03*
X00425Y01039D03*
X00375Y011D03*
X01285Y0109D03*
X01551Y00905D03*
X0138Y01285D03*
X0142Y0035D03*
X0125Y00475D03*
X00995Y00665D03*
X0111Y01045D03*
X01177Y00862D03*
X01232Y00907D03*
X00875Y00635D03*
X01015Y0097D03*
X01421Y00765D03*
X00503Y00746D03*
X00722Y00087D03*
X00325Y0036D03*
X00075Y00435D03*
X00282Y0095D03*
X00035Y0037D03*
X01022Y0045D03*
X00975D03*
X0107D03*
Y00402D03*
X01022D03*
X00975D03*
Y00497D03*
X01022D03*
X0107D03*
X00958Y00625D03*
X0117Y0065D03*
X0125Y00614D03*
X00895Y00165D03*
Y0026D03*
X01065Y00225D03*
X0098D03*
X006Y01575D03*
X00901Y00545D03*
X01175Y005D03*
X00722Y00402D03*
X00525Y00425D03*
X00416Y00538D03*
X00385Y00835D03*
X00195Y00695D03*
X00365Y0114D03*
Y0117D03*
X00464Y01165D03*
X00525Y0117D03*
X00557Y01381D03*
X00595Y01415D03*
X00481Y01311D03*
X00438D03*
X00481Y01268D03*
X00438D03*
X00185Y01192D03*
X004Y0101D03*
X00865Y00585D03*
X01208Y00055D03*
Y00188D03*
X01177Y00275D03*
X00795Y00348D03*
X00072Y00279D03*
X00143Y00112D03*
X00336Y00061D03*
X00393Y00246D03*
X00814Y00061D03*
X01523Y00521D03*
Y00423D03*
X00255Y016D03*
X00145Y01561D03*
X00062Y01458D03*
X01594Y01411D03*
X01547Y01523D03*
X01393Y00055D03*
X01598Y00232D03*
X01537Y00112D03*
G54D50*
X00946Y0069D03*
X0088D03*
X00809D03*
G54D51*
X01152Y0125D03*
X01235Y01287D03*
Y01212D03*
X0075Y00585D03*
Y0051D03*
X00667Y00547D03*
G54D52*
X00346Y0072D03*
Y0062D03*
Y0067D03*
Y0057D03*
X00133Y0067D03*
Y0072D03*
Y0062D03*
Y0057D03*
X0072Y00901D03*
Y00851D03*
Y00801D03*
Y00751D03*
X00933Y00901D03*
Y00801D03*
Y00851D03*
Y00751D03*
G54D53*
X008Y01405D03*
X007D03*
X0075D03*
X0065D03*
X008Y01192D03*
X0075D03*
X007D03*
X0065D03*
G54D54*
X0046Y0129D03*
G54D55*
X0042Y01212D03*
X0044D03*
X0046D03*
X00479D03*
X00499D03*
Y01367D03*
X00479D03*
X0046D03*
X0044D03*
X0042D03*
G54D56*
X00537Y0125D03*
Y0127D03*
Y0129D03*
Y01309D03*
Y01329D03*
X00382D03*
Y01309D03*
Y0129D03*
Y0127D03*
Y0125D03*
G54D57*
X0075Y0051D02*
X00825D01*
X00865Y0055*
Y00585*
M02*