%FSTAX23Y23*%
%MOIN*%
%SFA1B1*%

%IPPOS*%
%ADD10C,0.007870*%
%ADD49C,0.005910*%
%ADD57C,0.009840*%
%ADD59C,0.003940*%
%ADD60C,0.023620*%
%LNstepperpcb-1*%
%LPD*%
G36*
X00529Y00278D02*
X0053Y00277D01*
X0053Y00277*
X00535Y00249*
X00535Y00248*
X00536Y00248*
X00559Y00238*
X0056Y00238*
X00561Y00238*
X00561Y00238*
X00584Y00254*
X00585Y00254*
X00586Y00254*
X00586Y00254*
X00606Y00234*
X00607Y00233*
X00606Y00232*
X00606Y00232*
X00591Y00208*
X0059Y00208*
X0059Y00207*
X006Y00184*
X006Y00183*
X00601Y00183*
Y00183*
X00629Y00177*
X0063Y00177*
X0063Y00176*
X0063*
X0063Y00147*
X0063Y00146*
X00629Y00146*
X00629Y00146*
X00601Y00141*
X006Y0014*
X006Y0014*
X0059Y00116*
X0059Y00116*
X00591Y00115*
X00591Y00115*
X00606Y00091*
X00607Y00091*
X00606Y00089*
X00606Y0009*
X00586Y00069*
X00585Y00069*
X00584Y00069*
X00584Y00069*
X00561Y00085*
X0056Y00086*
X00559Y00085*
X00549Y00081*
X00548Y00081*
X00547Y00081*
X00547Y00082*
X00527Y0013*
X00527Y0013*
X00527Y00132*
X00528Y00132*
X00528Y00132*
X00531Y00133*
X00537Y00138*
X00543Y00145*
X00546Y00153*
X00547Y00162*
X00546Y0017*
X00543Y00178*
X00537Y00185*
X00531Y0019*
X00523Y00194*
X00514Y00195*
X00506Y00194*
X00498Y0019*
X00491Y00185*
X00485Y00178*
X00482Y0017*
X00481Y00162*
X00482Y00153*
X00485Y00145*
X00491Y00138*
X00498Y00133*
X005Y00132*
X005Y00132*
X00501Y00132*
X00501Y0013*
X00501Y0013*
X00481Y00082*
X00481Y00081*
X0048Y00081*
X00479Y00081*
X00469Y00085*
X00468Y00086*
X00467Y00085*
X00467Y00085*
X00444Y00069*
X00443Y00069*
X00442Y00069*
X00442Y00069*
X00422Y00089*
X00421Y00091*
X00422Y00091*
X00422Y00091*
X00438Y00115*
X00438Y00116*
X00438Y00116*
X00428Y0014*
X00428Y0014*
X00427Y00141*
X00427Y00141*
X00399Y00146*
X00398Y00146*
X00398Y00147*
X00398*
X00398Y00176*
X00398Y00177*
X00399Y00177*
Y00177*
X00427Y00183*
X00428Y00183*
X00428Y00184*
X00438Y00207*
X00438Y00208*
X00438Y00208*
X00438Y00208*
X00422Y00232*
X00421Y00233*
X00422Y00234*
X00422Y00234*
X00442Y00254*
X00443Y00254*
X00444Y00254*
X00444Y00254*
X00467Y00238*
X00468Y00238*
X00469Y00238*
X00492Y00248*
X00493Y00248*
X00493Y00249*
X00493*
X00498Y00277*
X00499Y00278*
X005Y00278*
Y00278*
X00528Y00278*
X00529Y00278*
G37*
G54D10*
X01565Y00982D02*
Y00997D01*
X01534Y00982D02*
Y00997D01*
X01517Y00725D02*
X01532D01*
X01517Y00694D02*
X01532D01*
X00675Y00488D02*
Y0052D01*
Y00488D02*
X0069D01*
X00675Y00575D02*
Y00606D01*
X0069*
X00114Y00452D02*
Y00467D01*
X00145Y00452D02*
Y00467D01*
X01031Y00883D02*
Y00897D01*
X00999Y00883D02*
Y00897D01*
X00791Y00728D02*
X00862D01*
Y00925*
X00791Y00728D02*
Y00925D01*
X00862*
X00999Y00753D02*
Y00767D01*
X01031Y00753D02*
Y00767D01*
X00553Y00774D02*
Y0079D01*
X00584Y00774D02*
Y0079D01*
X00618Y00774D02*
Y0079D01*
X0065Y00774D02*
Y0079D01*
X00626Y01263D02*
Y01334D01*
Y01263D02*
X00823D01*
X00626Y01334D02*
X00823D01*
Y01263D02*
Y01334D01*
X00455Y01543D02*
X00489D01*
X00455Y01607D02*
X00489D01*
X00762Y0111D02*
X00777D01*
X00762Y01079D02*
X00777D01*
X00204Y00546D02*
X00275D01*
X00204D02*
Y00743D01*
X00275Y00546D02*
Y00743D01*
X00204D02*
X00275D01*
X0116Y0119D02*
X01175D01*
X0116D02*
Y01222D01*
Y01309D02*
X01175D01*
X0116Y01277D02*
Y01309D01*
X01341Y01243D02*
Y01257D01*
X01309Y01243D02*
Y01257D01*
X00263Y01072D02*
X00296D01*
X00263Y01017D02*
X00296D01*
X00772Y016D02*
X00787D01*
X00772Y01569D02*
X00787D01*
X00275Y00452D02*
Y00467D01*
X00244Y00452D02*
Y00467D01*
X00179Y00453D02*
Y00467D01*
X00211Y00453D02*
Y00467D01*
X00341Y00453D02*
Y00467D01*
X00309Y00453D02*
Y00467D01*
X01469Y00982D02*
Y00997D01*
X015Y00982D02*
Y00997D01*
X01404Y00982D02*
Y00997D01*
X01435Y00982D02*
Y00997D01*
X01339Y00983D02*
Y00997D01*
X01371Y00983D02*
Y00997D01*
G54D49*
X00375Y01205D02*
Y01229D01*
Y01205D02*
X00399D01*
X0052D02*
X00544D01*
Y01229*
Y0135D02*
Y01374D01*
X0052D02*
X00544D01*
X00375Y0135D02*
Y01374D01*
X00399*
X00208Y01152D02*
Y01207D01*
X00271Y01152D02*
Y01207D01*
X0049Y01167D02*
Y01134D01*
X00483Y01127*
X0047*
X00464Y01134*
Y01167*
X00451D02*
X00424D01*
Y0116*
X00451Y01134*
Y01127*
X00753Y00464D02*
Y00431D01*
X00747Y00425*
X00734*
X00727Y00431*
Y00464*
X00688Y00425D02*
X00714D01*
X00688Y00451*
Y00457*
X00694Y00464*
X00708*
X00714Y00457*
X00275Y00804D02*
Y00771D01*
X00268Y00765*
X00255*
X00248Y00771*
Y00804*
X00209D02*
X00235D01*
Y00784*
X00222Y00791*
X00215*
X00209Y00784*
Y00771*
X00215Y00765*
X00229*
X00235Y00771*
X00305Y00285D02*
X00344D01*
Y00304*
X00337Y00311*
X00324*
X00318Y00304*
Y00285*
Y00298D02*
X00305Y00311D01*
Y00324D02*
Y00337D01*
Y0033*
X00344*
X00337Y00324*
Y00357D02*
X00344Y00363D01*
Y00376*
X00337Y00383*
X00311*
X00305Y00376*
Y00363*
X00311Y00357*
X00337*
X00175Y00285D02*
X00214D01*
Y00305*
X00207Y00311*
X00194*
X00188Y00305*
Y00285*
Y00298D02*
X00175Y00311D01*
X00181Y00324D02*
X00175Y00331D01*
Y00344*
X00181Y00351*
X00207*
X00214Y00344*
Y00331*
X00207Y00324*
X00201*
X00194Y00331*
Y00351*
X01435Y0123D02*
Y01269D01*
X01415*
X01408Y01262*
Y01249*
X01415Y01243*
X01435*
X01421D02*
X01408Y0123D01*
X01369D02*
X01395D01*
X01369Y01256*
Y01262*
X01375Y01269*
X01389*
X01395Y01262*
X01336Y00846D02*
X01375D01*
Y00866*
X01369Y00872*
X01356*
X01349Y00866*
Y00846*
Y00859D02*
X01336Y00872D01*
Y00885D02*
Y00898D01*
Y00892*
X01375*
X01369Y00885*
X00241Y01318D02*
X00267D01*
Y01299*
X00254*
X00267*
Y01279*
X00228D02*
X00215D01*
X00221*
Y01318*
X00228Y01312*
X00301Y00994D02*
Y00955D01*
X00282*
X00275Y00961*
Y00987*
X00282Y00994*
X00301*
X00236Y00955D02*
X00262D01*
X00236Y00981*
Y00987*
X00242Y00994*
X00255*
X00262Y00987*
X00923Y01107D02*
X0093Y01114D01*
X00943*
X0095Y01107*
Y01081*
X00943Y01075*
X0093*
X00923Y01081*
X0091Y01075D02*
X00897D01*
X00904*
Y01114*
X0091Y01107*
X00877Y01081D02*
X00871Y01075D01*
X00858*
X00851Y01081*
Y01107*
X00858Y01114*
X00871*
X00877Y01107*
Y01101*
X00871Y01094*
X00851*
X00142Y00311D02*
X00149Y00304D01*
Y00291*
X00142Y00285*
X00116*
X0011Y00291*
Y00304*
X00116Y00311*
X0011Y00324D02*
Y00337D01*
Y0033*
X00149*
X00142Y00324*
X00149Y00357D02*
Y00383D01*
X00142*
X00116Y00357*
X0011*
X00277Y00311D02*
X00284Y00304D01*
Y00291*
X00277Y00285*
X00251*
X00245Y00291*
Y00304*
X00251Y00311*
X00245Y00324D02*
Y00337D01*
Y0033*
X00284*
X00277Y00324*
X00284Y00383D02*
X00277Y0037D01*
X00264Y00357*
X00251*
X00245Y00363*
Y00376*
X00251Y00383*
X00258*
X00264Y00376*
Y00357*
X00648Y009D02*
X00655Y00893D01*
Y0088*
X00648Y00874*
X00622*
X00616Y0088*
Y00893*
X00622Y009*
X00616Y00913D02*
Y00926D01*
Y00919*
X00655*
X00648Y00913*
Y00946D02*
X00655Y00952D01*
Y00965*
X00648Y00972*
X00622*
X00616Y00965*
Y00952*
X00622Y00946*
X00648*
X01564Y0087D02*
X0157Y00864D01*
Y00851*
X01564Y00844*
X01538*
X01531Y00851*
Y00864*
X01538Y0087*
X01531Y0091D02*
Y00883D01*
X01557Y0091*
X01564*
X0157Y00903*
Y0089*
X01564Y00883*
X01434Y00872D02*
X0144Y00866D01*
Y00853*
X01434Y00846*
X01408*
X01401Y00853*
Y00866*
X01408Y00872*
X01401Y00885D02*
Y00898D01*
Y00892*
X0144*
X01434Y00885*
X01532Y0066D02*
X01539Y00667D01*
X01552*
X01559Y0066*
Y00634*
X01552Y00627*
X01539*
X01532Y00634*
X01493Y00667D02*
X01519D01*
Y00647*
X01506Y00654*
X015*
X01493Y00647*
Y00634*
X015Y00627*
X01513*
X01519Y00634*
X00942Y01597D02*
X00948Y01604D01*
X00961*
X00968Y01597*
Y01571*
X00961Y01564*
X00948*
X00942Y01571*
X00902Y01564D02*
X00929D01*
X00902Y01591*
Y01597*
X00909Y01604*
X00922*
X00929Y01597*
X00889D02*
X00883Y01604D01*
X0087*
X00863Y01597*
Y01571*
X0087Y01564*
X00883*
X00889Y01571*
Y01597*
X00583Y00902D02*
X0059Y00895D01*
Y00882*
X00583Y00875*
X00557*
X00551Y00882*
Y00895*
X00557Y00902*
Y00915D02*
X00551Y00921D01*
Y00935*
X00557Y00941*
X00583*
X0059Y00935*
Y00921*
X00583Y00915*
X00577*
X0057Y00921*
Y00941*
X00917Y01375D02*
Y01343D01*
X0091Y01336*
X00897*
X00891Y01343*
Y01375*
X00851D02*
X00864Y01369D01*
X00877Y01356*
Y01343*
X00871Y01336*
X00858*
X00851Y01343*
Y01349*
X00858Y01356*
X00877*
X0086Y00994D02*
Y00961D01*
X00853Y00955*
X0084*
X00833Y00961*
Y00994*
X0082Y00987D02*
X00814Y00994D01*
X008*
X00794Y00987*
Y00981*
X008Y00974*
X00807*
X008*
X00794Y00968*
Y00961*
X008Y00955*
X00814*
X0082Y00961*
X00356Y01551D02*
Y0159D01*
X00336*
X0033Y01583*
Y0157*
X00336Y01564*
X00356*
X00343D02*
X0033Y01551D01*
X00316D02*
X00303D01*
X0031*
Y0159*
X00316Y01583*
X00257Y01551D02*
X00284D01*
X00257Y01577*
Y01583*
X00264Y0159*
X00277*
X00284Y01583*
X01125Y00865D02*
Y00904D01*
X01105*
X01098Y00897*
Y00884*
X01105Y00878*
X01125*
X01111D02*
X01098Y00865D01*
X01059Y00904D02*
X01072Y00897D01*
X01085Y00884*
Y00871*
X01079Y00865*
X01065*
X01059Y00871*
Y00878*
X01065Y00884*
X01085*
X01125Y00735D02*
Y00774D01*
X01105*
X01098Y00767*
Y00754*
X01105Y00748*
X01125*
X01111D02*
X01098Y00735D01*
X01059Y00774D02*
X01085D01*
Y00754*
X01072Y00761*
X01065*
X01059Y00754*
Y00741*
X01065Y00735*
X01079*
X01085Y00741*
X00904Y00595D02*
Y00634D01*
X00885*
X00878Y00627*
Y00614*
X00885Y00608*
X00904*
X00891D02*
X00878Y00595D01*
X00845D02*
Y00634D01*
X00865Y00614*
X00839*
X01161Y01336D02*
Y01362D01*
X01168Y01369*
X01181*
X01187Y01362*
Y01336*
X01181Y0133*
X01168*
X01174Y01343D02*
X01161Y0133D01*
X01168D02*
X01161Y01336D01*
X01148Y0133D02*
X01135D01*
X01141*
Y01369*
X01148Y01362*
X01499Y0087D02*
X01505Y00864D01*
Y00851*
X01499Y00844*
X01473*
X01466Y00851*
Y00864*
X01473Y0087*
X01499Y00883D02*
X01505Y0089D01*
Y00903*
X01499Y0091*
X01492*
X01486Y00903*
Y00896*
Y00903*
X01479Y0091*
X01473*
X01466Y00903*
Y0089*
X01473Y00883*
X0122Y0009D02*
X01207D01*
X01213*
Y00129*
X0122Y00123*
X01187D02*
X01181Y00129D01*
X01168*
X01161Y00123*
Y00116*
X01168Y0011*
X01161Y00103*
Y00097*
X01168Y0009*
X01181*
X01187Y00097*
Y00103*
X01181Y0011*
X01187Y00116*
Y00123*
X01181Y0011D02*
X01168D01*
X01148Y0009D02*
Y00097D01*
X01141*
Y0009*
X01148*
X01115Y00123D02*
X01108Y00129D01*
X01095*
X01089Y00123*
Y00097*
X01095Y0009*
X01108*
X01115Y00097*
Y00123*
X01076Y00097D02*
X01069Y0009D01*
X01056*
X01049Y00097*
Y00123*
X01056Y00129*
X01069*
X01076Y00123*
Y00116*
X01069Y0011*
X01049*
X01036Y0009D02*
Y00097D01*
X0103*
Y0009*
X01036*
X00977D02*
X01004D01*
X00977Y00116*
Y00123*
X00984Y00129*
X00997*
X01004Y00123*
X00964D02*
X00958Y00129D01*
X00944*
X00938Y00123*
Y00097*
X00944Y0009*
X00958*
X00964Y00097*
Y00123*
X00925Y0009D02*
X00912D01*
X00918*
Y00129*
X00925Y00123*
X00892Y00097D02*
X00885Y0009D01*
X00872*
X00866Y00097*
Y00123*
X00872Y00129*
X00885*
X00892Y00123*
Y00116*
X00885Y0011*
X00866*
X012Y00196D02*
X01213D01*
X0122Y0019*
Y00164*
X01213Y00157*
X012*
X01194Y00164*
Y0019*
X012Y00196*
X01181Y00144D02*
Y00183D01*
X01161*
X01154Y00177*
Y00164*
X01161Y00157*
X01181*
X01122D02*
X01135D01*
X01141Y00164*
Y00177*
X01135Y00183*
X01122*
X01115Y00177*
Y0017*
X01141*
X01102Y00157D02*
Y00183D01*
X01082*
X01076Y00177*
Y00157*
X01023D02*
Y00196D01*
X00997Y00157*
Y00196*
X00984Y00157D02*
X00971D01*
X00977*
Y00183*
X00984*
X00951D02*
Y00157D01*
Y0017*
X00944Y00177*
X00938Y00183*
X00931*
X00912D02*
Y00164D01*
X00905Y00157*
X00885*
Y0015*
X00892Y00144*
X00899*
X00885Y00157D02*
Y00183D01*
X00866Y00157D02*
X00853D01*
X00846Y00164*
Y00177*
X00853Y00183*
X00866*
X00872Y00177*
Y00164*
X00866Y00157*
X00774Y00196D02*
X00787D01*
X00794Y0019*
Y00164*
X00787Y00157*
X00774*
X00767Y00164*
Y0019*
X00774Y00196*
X00754Y00157D02*
Y00183D01*
X00735*
X00728Y00177*
Y00157*
X00695D02*
X00708D01*
X00715Y00164*
Y00177*
X00708Y00183*
X00695*
X00689Y00177*
Y0017*
X00715*
X01068Y0068D02*
X01074Y00687D01*
X01087*
X01094Y0068*
Y00654*
X01087Y00647*
X01074*
X01068Y00654*
X01028Y0068D02*
X01035Y00687D01*
X01048*
X01055Y0068*
Y00654*
X01048Y00647*
X01035*
X01028Y00654*
X01015Y00687D02*
Y00647D01*
X01002Y0066*
X00989Y00647*
Y00687*
X00737Y00686D02*
X00744Y00692D01*
X00757*
X00763Y00686*
Y0066*
X00757Y00653*
X00744*
X00737Y0066*
X00724Y00692D02*
Y00653D01*
X00711Y00666*
X00698Y00653*
Y00692*
X01194Y00249D02*
X012Y00255D01*
X01213*
X0122Y00249*
Y00242*
X01213Y00236*
X012*
X01194Y00229*
Y00223*
X012Y00216*
X01213*
X0122Y00223*
X01174Y00249D02*
Y00242D01*
X01181*
X01168*
X01174*
Y00223*
X01168Y00216*
X01128D02*
X01141D01*
X01148Y00223*
Y00236*
X01141Y00242*
X01128*
X01122Y00236*
Y00229*
X01148*
X01108Y00203D02*
Y00242D01*
X01089*
X01082Y00236*
Y00223*
X01089Y00216*
X01108*
X01069Y00203D02*
Y00242D01*
X01049*
X01043Y00236*
Y00223*
X01049Y00216*
X01069*
X0101D02*
X01023D01*
X0103Y00223*
Y00236*
X01023Y00242*
X0101*
X01004Y00236*
Y00229*
X0103*
X0099Y00242D02*
Y00216D01*
Y00229*
X00984Y00236*
X00977Y00242*
X00971*
X00912Y00216D02*
Y00255D01*
X00892*
X00885Y00249*
Y00236*
X00892Y00229*
X00912*
X00846Y00249D02*
X00853Y00255D01*
X00866*
X00872Y00249*
Y00223*
X00866Y00216*
X00853*
X00846Y00223*
X00833Y00255D02*
Y00216D01*
X00813*
X00807Y00223*
Y00229*
X00813Y00236*
X00833*
X00813*
X00807Y00242*
Y00249*
X00813Y00255*
X00833*
G54D57*
X00354Y01211D02*
D01*
X00354Y01211*
X00354Y01211*
X00354Y01212*
X00354Y01212*
X00354Y01212*
X00354Y01213*
X00354Y01213*
X00353Y01213*
X00353Y01214*
X00353Y01214*
X00353Y01214*
X00353Y01214*
X00352Y01215*
X00352Y01215*
X00352Y01215*
X00351Y01215*
X00351Y01215*
X00351Y01215*
X0035Y01216*
X0035Y01216*
X0035Y01216*
X00349Y01216*
X00349*
X00349Y01216*
X00348Y01216*
X00348Y01216*
X00348Y01215*
X00347Y01215*
X00347Y01215*
X00347Y01215*
X00347Y01215*
X00346Y01215*
X00346Y01214*
X00346Y01214*
X00346Y01214*
X00345Y01214*
X00345Y01213*
X00345Y01213*
X00345Y01213*
X00345Y01212*
X00345Y01212*
X00344Y01212*
X00344Y01211*
X00344Y01211*
X00344Y01211*
X00344Y0121*
X00344Y0121*
X00344Y0121*
X00345Y01209*
X00345Y01209*
X00345Y01209*
X00345Y01208*
X00345Y01208*
X00345Y01208*
X00346Y01208*
X00346Y01207*
X00346Y01207*
X00346Y01207*
X00347Y01207*
X00347Y01206*
X00347Y01206*
X00347Y01206*
X00348Y01206*
X00348Y01206*
X00348Y01206*
X00349Y01206*
X00349Y01206*
X00349*
X0035Y01206*
X0035Y01206*
X0035Y01206*
X00351Y01206*
X00351Y01206*
X00351Y01206*
X00352Y01206*
X00352Y01207*
X00352Y01207*
X00353Y01207*
X00353Y01207*
X00353Y01208*
X00353Y01208*
X00353Y01208*
X00354Y01208*
X00354Y01209*
X00354Y01209*
X00354Y01209*
X00354Y0121*
X00354Y0121*
X00354Y0121*
X00354Y01211*
X00743Y00618D02*
D01*
X00743Y00618*
X00743Y00619*
X00743Y00619*
X00742Y00619*
X00742Y0062*
X00742Y0062*
X00742Y0062*
X00742Y00621*
X00742Y00621*
X00741Y00621*
X00741Y00621*
X00741Y00622*
X00741Y00622*
X0074Y00622*
X0074Y00622*
X0074Y00622*
X0074Y00623*
X00739Y00623*
X00739Y00623*
X00739Y00623*
X00738Y00623*
X00738Y00623*
X00738*
X00737Y00623*
X00737Y00623*
X00736Y00623*
X00736Y00623*
X00736Y00623*
X00736Y00622*
X00735Y00622*
X00735Y00622*
X00735Y00622*
X00734Y00622*
X00734Y00621*
X00734Y00621*
X00734Y00621*
X00734Y00621*
X00733Y0062*
X00733Y0062*
X00733Y0062*
X00733Y00619*
X00733Y00619*
X00733Y00619*
X00733Y00618*
X00733Y00618*
X00733Y00618*
X00733Y00617*
X00733Y00617*
X00733Y00617*
X00733Y00616*
X00733Y00616*
X00733Y00616*
X00734Y00615*
X00734Y00615*
X00734Y00615*
X00734Y00615*
X00734Y00614*
X00735Y00614*
X00735Y00614*
X00735Y00614*
X00736Y00614*
X00736Y00613*
X00736Y00613*
X00736Y00613*
X00737Y00613*
X00737Y00613*
X00738Y00613*
X00738*
X00738Y00613*
X00739Y00613*
X00739Y00613*
X00739Y00613*
X0074Y00613*
X0074Y00614*
X0074Y00614*
X0074Y00614*
X00741Y00614*
X00741Y00614*
X00741Y00615*
X00741Y00615*
X00742Y00615*
X00742Y00615*
X00742Y00616*
X00742Y00616*
X00742Y00616*
X00742Y00617*
X00743Y00617*
X00743Y00617*
X00743Y00618*
X00743Y00618*
X00737Y00718D02*
D01*
X00737Y00718*
X00737Y00718*
X00737Y00719*
X00737Y00719*
X00736Y00719*
X00736Y0072*
X00736Y0072*
X00736Y0072*
X00736Y00721*
X00736Y00721*
X00735Y00721*
X00735Y00721*
X00735Y00722*
X00735Y00722*
X00734Y00722*
X00734Y00722*
X00734Y00722*
X00733Y00722*
X00733Y00723*
X00733Y00723*
X00732Y00723*
X00732Y00723*
X00732*
X00731Y00723*
X00731Y00723*
X00731Y00723*
X0073Y00722*
X0073Y00722*
X0073Y00722*
X00729Y00722*
X00729Y00722*
X00729Y00722*
X00728Y00721*
X00728Y00721*
X00728Y00721*
X00728Y00721*
X00728Y0072*
X00727Y0072*
X00727Y0072*
X00727Y00719*
X00727Y00719*
X00727Y00719*
X00727Y00718*
X00727Y00718*
X00727Y00718*
X00727Y00717*
X00727Y00717*
X00727Y00717*
X00727Y00716*
X00727Y00716*
X00727Y00716*
X00727Y00716*
X00728Y00715*
X00728Y00715*
X00728Y00715*
X00728Y00714*
X00728Y00714*
X00729Y00714*
X00729Y00714*
X00729Y00714*
X0073Y00713*
X0073Y00713*
X0073Y00713*
X00731Y00713*
X00731Y00713*
X00731Y00713*
X00732Y00713*
X00732*
X00732Y00713*
X00733Y00713*
X00733Y00713*
X00733Y00713*
X00734Y00713*
X00734Y00713*
X00734Y00714*
X00735Y00714*
X00735Y00714*
X00735Y00714*
X00735Y00714*
X00736Y00715*
X00736Y00715*
X00736Y00715*
X00736Y00716*
X00736Y00716*
X00736Y00716*
X00737Y00716*
X00737Y00717*
X00737Y00717*
X00737Y00717*
X00737Y00718*
X00838Y01204D02*
D01*
X00838Y01204*
X00838Y01204*
X00838Y01205*
X00838Y01205*
X00838Y01205*
X00837Y01206*
X00837Y01206*
X00837Y01206*
X00837Y01207*
X00837Y01207*
X00837Y01207*
X00836Y01207*
X00836Y01208*
X00836Y01208*
X00835Y01208*
X00835Y01208*
X00835Y01208*
X00834Y01208*
X00834Y01208*
X00834Y01209*
X00833Y01209*
X00833Y01209*
X00833*
X00832Y01209*
X00832Y01209*
X00832Y01208*
X00831Y01208*
X00831Y01208*
X00831Y01208*
X00831Y01208*
X0083Y01208*
X0083Y01208*
X0083Y01207*
X00829Y01207*
X00829Y01207*
X00829Y01207*
X00829Y01206*
X00829Y01206*
X00828Y01206*
X00828Y01205*
X00828Y01205*
X00828Y01205*
X00828Y01204*
X00828Y01204*
X00828Y01204*
X00828Y01203*
X00828Y01203*
X00828Y01203*
X00828Y01202*
X00828Y01202*
X00828Y01202*
X00829Y01201*
X00829Y01201*
X00829Y01201*
X00829Y01201*
X00829Y012*
X0083Y012*
X0083Y012*
X0083Y012*
X00831Y01199*
X00831Y01199*
X00831Y01199*
X00831Y01199*
X00832Y01199*
X00832Y01199*
X00832Y01199*
X00833Y01199*
X00833*
X00833Y01199*
X00834Y01199*
X00834Y01199*
X00834Y01199*
X00835Y01199*
X00835Y01199*
X00835Y01199*
X00836Y012*
X00836Y012*
X00836Y012*
X00837Y012*
X00837Y01201*
X00837Y01201*
X00837Y01201*
X00837Y01201*
X00837Y01202*
X00838Y01202*
X00838Y01202*
X00838Y01203*
X00838Y01203*
X00838Y01203*
X00838Y01204*
X0015Y00536D02*
D01*
X0015Y00536*
X0015Y00537*
X0015Y00537*
X0015Y00537*
X0015Y00538*
X0015Y00538*
X00149Y00538*
X00149Y00539*
X00149Y00539*
X00149Y00539*
X00149Y00539*
X00148Y0054*
X00148Y0054*
X00148Y0054*
X00147Y0054*
X00147Y0054*
X00147Y00541*
X00147Y00541*
X00146Y00541*
X00146Y00541*
X00146Y00541*
X00145Y00541*
X00145*
X00144Y00541*
X00144Y00541*
X00144Y00541*
X00143Y00541*
X00143Y00541*
X00143Y0054*
X00143Y0054*
X00142Y0054*
X00142Y0054*
X00142Y0054*
X00141Y00539*
X00141Y00539*
X00141Y00539*
X00141Y00539*
X00141Y00538*
X00141Y00538*
X0014Y00538*
X0014Y00537*
X0014Y00537*
X0014Y00537*
X0014Y00536*
X0014Y00536*
X0014Y00536*
X0014Y00535*
X0014Y00535*
X0014Y00535*
X0014Y00534*
X00141Y00534*
X00141Y00534*
X00141Y00533*
X00141Y00533*
X00141Y00533*
X00141Y00533*
X00142Y00532*
X00142Y00532*
X00142Y00532*
X00143Y00532*
X00143Y00532*
X00143Y00531*
X00143Y00531*
X00144Y00531*
X00144Y00531*
X00144Y00531*
X00145Y00531*
X00145*
X00146Y00531*
X00146Y00531*
X00146Y00531*
X00147Y00531*
X00147Y00531*
X00147Y00532*
X00147Y00532*
X00148Y00532*
X00148Y00532*
X00148Y00532*
X00149Y00533*
X00149Y00533*
X00149Y00533*
X00149Y00533*
X00149Y00534*
X0015Y00534*
X0015Y00534*
X0015Y00535*
X0015Y00535*
X0015Y00535*
X0015Y00536*
X0015Y00536*
X01228Y0132D02*
D01*
X01228Y01321*
X01228Y01321*
X01228Y01321*
X01227Y01322*
X01227Y01322*
X01227Y01322*
X01227Y01323*
X01227Y01323*
X01227Y01323*
X01226Y01324*
X01226Y01324*
X01226Y01324*
X01226Y01324*
X01225Y01324*
X01225Y01325*
X01225Y01325*
X01225Y01325*
X01224Y01325*
X01224Y01325*
X01224Y01325*
X01223Y01325*
X01223Y01325*
X01223*
X01222Y01325*
X01222Y01325*
X01221Y01325*
X01221Y01325*
X01221Y01325*
X01221Y01325*
X0122Y01325*
X0122Y01324*
X0122Y01324*
X01219Y01324*
X01219Y01324*
X01219Y01324*
X01219Y01323*
X01219Y01323*
X01218Y01323*
X01218Y01322*
X01218Y01322*
X01218Y01322*
X01218Y01321*
X01218Y01321*
X01218Y01321*
X01218Y0132*
X01218Y0132*
X01218Y0132*
X01218Y01319*
X01218Y01319*
X01218Y01319*
X01218Y01318*
X01218Y01318*
X01219Y01318*
X01219Y01317*
X01219Y01317*
X01219Y01317*
X01219Y01317*
X0122Y01316*
X0122Y01316*
X0122Y01316*
X01221Y01316*
X01221Y01316*
X01221Y01316*
X01221Y01316*
X01222Y01316*
X01222Y01315*
X01223Y01315*
X01223*
X01223Y01315*
X01224Y01316*
X01224Y01316*
X01224Y01316*
X01225Y01316*
X01225Y01316*
X01225Y01316*
X01225Y01316*
X01226Y01316*
X01226Y01317*
X01226Y01317*
X01226Y01317*
X01227Y01317*
X01227Y01318*
X01227Y01318*
X01227Y01318*
X01227Y01319*
X01227Y01319*
X01228Y01319*
X01228Y0132*
X01228Y0132*
X01228Y0132*
G54D59*
X00334Y01073D02*
D01*
X00334Y01073*
X00334Y01073*
X00334Y01073*
X00334Y01073*
X00334Y01073*
X00334Y01073*
X00334Y01074*
X00334Y01074*
X00333Y01074*
X00333Y01074*
X00333Y01074*
X00333Y01074*
X00333Y01074*
X00333Y01074*
X00333Y01074*
X00333Y01074*
X00333Y01074*
X00332Y01075*
X00332Y01075*
X00332Y01075*
X00332Y01075*
X00332Y01075*
X00332*
X00332Y01075*
X00332Y01075*
X00331Y01075*
X00331Y01075*
X00331Y01074*
X00331Y01074*
X00331Y01074*
X00331Y01074*
X00331Y01074*
X00331Y01074*
X0033Y01074*
X0033Y01074*
X0033Y01074*
X0033Y01074*
X0033Y01074*
X0033Y01073*
X0033Y01073*
X0033Y01073*
X0033Y01073*
X0033Y01073*
X0033Y01073*
X0033Y01073*
X0033Y01073*
X0033Y01072*
X0033Y01072*
X0033Y01072*
X0033Y01072*
X0033Y01072*
X0033Y01072*
X0033Y01072*
X0033Y01071*
X0033Y01071*
X0033Y01071*
X00331Y01071*
X00331Y01071*
X00331Y01071*
X00331Y01071*
X00331Y01071*
X00331Y01071*
X00331Y01071*
X00331Y01071*
X00332Y01071*
X00332Y01071*
X00332Y01071*
X00332*
X00332Y01071*
X00332Y01071*
X00332Y01071*
X00332Y01071*
X00333Y01071*
X00333Y01071*
X00333Y01071*
X00333Y01071*
X00333Y01071*
X00333Y01071*
X00333Y01071*
X00333Y01071*
X00333Y01071*
X00334Y01072*
X00334Y01072*
X00334Y01072*
X00334Y01072*
X00334Y01072*
X00334Y01072*
X00334Y01072*
X00334Y01073*
X00334Y01073*
G54D60*
X00842Y00767D02*
D01*
X00842Y00768*
X00842Y00769*
X00842Y0077*
X00842Y0077*
X00841Y00771*
X00841Y00772*
X00841Y00773*
X0084Y00773*
X0084Y00774*
X00839Y00775*
X00839Y00775*
X00838Y00776*
X00837Y00777*
X00837Y00777*
X00836Y00777*
X00835Y00778*
X00835Y00778*
X00834Y00778*
X00833Y00779*
X00832Y00779*
X00831Y00779*
X00831Y00779*
X0083*
X00829Y00779*
X00828Y00779*
X00827Y00779*
X00827Y00778*
X00826Y00778*
X00825Y00778*
X00824Y00777*
X00824Y00777*
X00823Y00777*
X00822Y00776*
X00822Y00775*
X00821Y00775*
X00821Y00774*
X0082Y00773*
X0082Y00773*
X00819Y00772*
X00819Y00771*
X00819Y0077*
X00819Y0077*
X00819Y00769*
X00818Y00768*
X00818Y00767*
X00818Y00766*
X00819Y00766*
X00819Y00765*
X00819Y00764*
X00819Y00763*
X00819Y00762*
X0082Y00762*
X0082Y00761*
X00821Y0076*
X00821Y0076*
X00822Y00759*
X00822Y00758*
X00823Y00758*
X00824Y00757*
X00824Y00757*
X00825Y00757*
X00826Y00756*
X00827Y00756*
X00827Y00756*
X00828Y00756*
X00829Y00755*
X0083Y00755*
X00831*
X00831Y00755*
X00832Y00756*
X00833Y00756*
X00834Y00756*
X00835Y00756*
X00835Y00757*
X00836Y00757*
X00837Y00757*
X00837Y00758*
X00838Y00758*
X00839Y00759*
X00839Y0076*
X0084Y0076*
X0084Y00761*
X00841Y00762*
X00841Y00762*
X00841Y00763*
X00842Y00764*
X00842Y00765*
X00842Y00766*
X00842Y00766*
X00842Y00767*
X00795Y01302D02*
D01*
X00795Y01303*
X00795Y01304*
X00795Y01305*
X00795Y01305*
X00795Y01306*
X00794Y01307*
X00794Y01308*
X00794Y01308*
X00793Y01309*
X00793Y0131*
X00792Y0131*
X00791Y01311*
X00791Y01311*
X0079Y01312*
X00789Y01312*
X00789Y01313*
X00788Y01313*
X00787Y01313*
X00786Y01314*
X00786Y01314*
X00785Y01314*
X00784Y01314*
X00783*
X00782Y01314*
X00782Y01314*
X00781Y01314*
X0078Y01313*
X00779Y01313*
X00778Y01313*
X00778Y01312*
X00777Y01312*
X00776Y01311*
X00776Y01311*
X00775Y0131*
X00775Y0131*
X00774Y01309*
X00774Y01308*
X00773Y01308*
X00773Y01307*
X00772Y01306*
X00772Y01305*
X00772Y01305*
X00772Y01304*
X00772Y01303*
X00772Y01302*
X00772Y01301*
X00772Y013*
X00772Y013*
X00772Y01299*
X00772Y01298*
X00773Y01297*
X00773Y01297*
X00774Y01296*
X00774Y01295*
X00775Y01295*
X00775Y01294*
X00776Y01293*
X00776Y01293*
X00777Y01292*
X00778Y01292*
X00778Y01292*
X00779Y01291*
X0078Y01291*
X00781Y01291*
X00782Y01291*
X00782Y0129*
X00783Y0129*
X00784*
X00785Y0129*
X00786Y01291*
X00786Y01291*
X00787Y01291*
X00788Y01291*
X00789Y01292*
X00789Y01292*
X0079Y01292*
X00791Y01293*
X00791Y01293*
X00792Y01294*
X00793Y01295*
X00793Y01295*
X00794Y01296*
X00794Y01297*
X00794Y01297*
X00795Y01298*
X00795Y01299*
X00795Y013*
X00795Y013*
X00795Y01301*
X00795Y01302*
X00255Y00585D02*
D01*
X00255Y00586*
X00255Y00587*
X00255Y00588*
X00255Y00589*
X00255Y00589*
X00254Y0059*
X00254Y00591*
X00253Y00592*
X00253Y00592*
X00252Y00593*
X00252Y00594*
X00251Y00594*
X00251Y00595*
X0025Y00595*
X00249Y00596*
X00249Y00596*
X00248Y00596*
X00247Y00597*
X00246Y00597*
X00245Y00597*
X00245Y00597*
X00244Y00597*
X00243*
X00242Y00597*
X00241Y00597*
X00241Y00597*
X0024Y00597*
X00239Y00596*
X00238Y00596*
X00238Y00596*
X00237Y00595*
X00236Y00595*
X00236Y00594*
X00235Y00594*
X00234Y00593*
X00234Y00592*
X00233Y00592*
X00233Y00591*
X00233Y0059*
X00232Y00589*
X00232Y00589*
X00232Y00588*
X00232Y00587*
X00232Y00586*
X00232Y00585*
X00232Y00585*
X00232Y00584*
X00232Y00583*
X00232Y00582*
X00232Y00581*
X00233Y00581*
X00233Y0058*
X00233Y00579*
X00234Y00579*
X00234Y00578*
X00235Y00577*
X00236Y00577*
X00236Y00576*
X00237Y00576*
X00238Y00575*
X00238Y00575*
X00239Y00574*
X0024Y00574*
X00241Y00574*
X00241Y00574*
X00242Y00574*
X00243Y00574*
X00244*
X00245Y00574*
X00245Y00574*
X00246Y00574*
X00247Y00574*
X00248Y00574*
X00249Y00575*
X00249Y00575*
X0025Y00576*
X00251Y00576*
X00251Y00577*
X00252Y00577*
X00252Y00578*
X00253Y00579*
X00253Y00579*
X00254Y0058*
X00254Y00581*
X00255Y00581*
X00255Y00582*
X00255Y00583*
X00255Y00584*
X00255Y00585*
X00255Y00585*
M02*