%FSTAX23Y23*%
%MOIN*%
%SFA1B1*%

%IPPOS*%
%AMD68*
4,1,4,0.000000,0.033400,-0.033400,0.000000,0.000000,-0.033400,0.033400,0.000000,0.000000,0.033400,0.0*
%
%AMD74*
4,1,4,0.033400,0.000000,0.000000,0.033400,-0.033400,0.000000,0.000000,-0.033400,0.033400,0.000000,0.0*
%
%AMD78*
4,1,8,0.017700,0.027600,-0.017700,0.027600,-0.033500,0.011800,-0.033500,-0.011800,-0.017700,-0.027600,0.017700,-0.027600,0.033500,-0.011800,0.033500,0.011800,0.017700,0.027600,0.0*
1,1,0.031500,0.017700,0.011800*
1,1,0.031500,-0.017700,0.011800*
1,1,0.031500,-0.017700,-0.011800*
1,1,0.031500,0.017700,-0.011800*
%
%AMD81*
4,1,8,-0.019700,0.007900,-0.019700,-0.007900,-0.007900,-0.019700,0.007900,-0.019700,0.019700,-0.007900,0.019700,0.007900,0.007900,0.019700,-0.007900,0.019700,-0.019700,0.007900,0.0*
1,1,0.023620,-0.007900,0.007900*
1,1,0.023620,-0.007900,-0.007900*
1,1,0.023620,0.007900,-0.007900*
1,1,0.023620,0.007900,0.007900*
%
%AMD82*
4,1,8,-0.007900,-0.019700,0.007900,-0.019700,0.019700,-0.007900,0.019700,0.007900,0.007900,0.019700,-0.007900,0.019700,-0.019700,0.007900,-0.019700,-0.007900,-0.007900,-0.019700,0.0*
1,1,0.023620,-0.007900,-0.007900*
1,1,0.023620,0.007900,-0.007900*
1,1,0.023620,0.007900,0.007900*
1,1,0.023620,-0.007900,0.007900*
%
%AMD83*
4,1,8,-0.041300,0.026600,-0.041300,-0.026600,-0.018700,-0.049200,0.018700,-0.049200,0.041300,-0.026600,0.041300,0.026600,0.018700,0.049200,-0.018700,0.049200,-0.041300,0.026600,0.0*
1,1,0.045280,-0.018700,0.026600*
1,1,0.045280,-0.018700,-0.026600*
1,1,0.045280,0.018700,-0.026600*
1,1,0.045280,0.018700,0.026600*
%
%AMD84*
4,1,8,-0.041300,0.062000,-0.041300,-0.062000,-0.018700,-0.084600,0.018700,-0.084600,0.041300,-0.062000,0.041300,0.062000,0.018700,0.084600,-0.018700,0.084600,-0.041300,0.062000,0.0*
1,1,0.045280,-0.018700,0.062000*
1,1,0.045280,-0.018700,-0.062000*
1,1,0.045280,0.018700,-0.062000*
1,1,0.045280,0.018700,0.062000*
%
%AMD86*
4,1,4,-0.026400,-0.012500,-0.012500,-0.026400,0.026400,0.012500,0.012500,0.026400,-0.026400,-0.012500,0.0*
1,1,0.019690,-0.019400,-0.019400*
1,1,0.019690,0.019400,0.019400*
%
%AMD87*
4,1,4,0.012500,-0.026400,0.026400,-0.012500,-0.012500,0.026400,-0.026400,0.012500,0.012500,-0.026400,0.0*
1,1,0.019690,0.019400,-0.019400*
1,1,0.019690,-0.019400,0.019400*
%
%ADD61R,0.047240X0.086610*%
%ADD62R,0.078740X0.145670*%
%ADD63O,0.021650X0.074800*%
%ADD64R,0.125980X0.125980*%
%ADD65C,0.047240*%
%ADD66C,0.066930*%
%ADD67R,0.078740X0.047240*%
G04~CAMADD=68~10~0.0~472.4~0.0~0.0~0.0~0.0~0~0.0~0.0~0.0~0.0~0~0.0~0.0~0.0~0.0~0~0.0~0.0~0.0~405.0~472.4~0.0*
%ADD68D68*%
%ADD69R,0.106300X0.106300*%
%ADD70R,0.036610X0.019690*%
%ADD71R,0.019690X0.036610*%
%ADD72R,0.094490X0.070870*%
%ADD73R,0.047240X0.047240*%
G04~CAMADD=74~10~0.0~472.4~0.0~0.0~0.0~0.0~0~0.0~0.0~0.0~0.0~0~0.0~0.0~0.0~0.0~0~0.0~0.0~0.0~315.0~472.4~0.0*
%ADD74D74*%
%ADD75R,0.047240X0.078740*%
%ADD76R,0.047240X0.047240*%
%ADD77R,0.102360X0.094490*%
G04~CAMADD=78~8~0.0~0.0~669.3~551.2~157.5~0.0~15~0.0~0.0~0.0~0.0~0~0.0~0.0~0.0~0.0~0~0.0~0.0~0.0~0.0~669.3~551.2*
%ADD78D78*%
%ADD79R,0.062990X0.086610*%
%ADD80R,0.082680X0.097640*%
G04~CAMADD=81~8~0.0~0.0~393.7~393.7~118.1~0.0~15~0.0~0.0~0.0~0.0~0~0.0~0.0~0.0~0.0~0~0.0~0.0~0.0~90.0~394.0~394.0*
%ADD81D81*%
G04~CAMADD=82~8~0.0~0.0~393.7~393.7~118.1~0.0~15~0.0~0.0~0.0~0.0~0~0.0~0.0~0.0~0.0~0~0.0~0.0~0.0~180.0~394.0~394.0*
%ADD82D82*%
G04~CAMADD=83~8~0.0~0.0~984.3~826.8~226.4~0.0~15~0.0~0.0~0.0~0.0~0~0.0~0.0~0.0~0.0~0~0.0~0.0~0.0~90.0~827.0~984.0*
%ADD83D83*%
G04~CAMADD=84~8~0.0~0.0~1692.9~826.8~226.4~0.0~15~0.0~0.0~0.0~0.0~0~0.0~0.0~0.0~0.0~0~0.0~0.0~0.0~90.0~826.0~1692.0*
%ADD84D84*%
%ADD85O,0.061020X0.023620*%
G04~CAMADD=86~3~0.0~0.0~196.9~748.0~0.0~0.0~0~0.0~0.0~0.0~0.0~0~0.0~0.0~0.0~0.0~0~0.0~0.0~0.0~135.0~586.0~586.0*
%ADD86D86*%
G04~CAMADD=87~3~0.0~0.0~196.9~748.0~0.0~0.0~0~0.0~0.0~0.0~0.0~0~0.0~0.0~0.0~0.0~0~0.0~0.0~0.0~225.0~586.0~586.0*
%ADD87D87*%
%ADD88C,0.007870*%
%ADD89C,0.068900*%
%ADD90R,0.068900X0.068900*%
%ADD91R,0.068900X0.068900*%
%LNstepperpcb-1*%
%LPD*%
G54D61*
X01043Y00066D03*
X00809D03*
X00887D03*
X00964D03*
G54D62*
X01185Y00539D03*
Y00318D03*
G54D63*
X00989Y00417D03*
X00963D03*
X00937D03*
X00912D03*
X00886D03*
X00861D03*
X00835D03*
X01014D03*
Y00192D03*
X00989D03*
X00963D03*
X00937D03*
X00912D03*
X00886D03*
X00861D03*
X00835D03*
G54D64*
X00925Y00297D03*
G54D65*
X00782Y00333D03*
Y00262D03*
X0062Y00373D03*
X0067Y00323D03*
X00444Y00198D03*
X00374D03*
X00498D03*
X00568D03*
X00755Y01025D03*
X00685D03*
X0068Y00758D03*
X0063Y00808D03*
X00925Y00698D03*
X00854D03*
X00927Y00633D03*
X00856D03*
X00118Y00693D03*
X00168Y00743D03*
X00087Y00443D03*
X00137Y00493D03*
X00229Y00399D03*
X00179Y00348D03*
X00226Y00303D03*
X00277Y00353D03*
G54D66*
X00299Y00974D03*
X00891Y01023D03*
X01185Y00116D03*
X00889Y01106D03*
G54D67*
X00265Y01088D03*
Y01198D03*
G54D68*
X00132Y00396D03*
X00182Y00446D03*
G54D69*
X00523Y01138D03*
G54D70*
X006Y01177D03*
Y01158D03*
Y01138D03*
Y01118D03*
Y01099D03*
X00446D03*
Y01118D03*
Y01138D03*
Y01158D03*
Y01177D03*
G54D71*
X00562Y01061D03*
X00543D03*
X00523D03*
X00503D03*
X00484D03*
Y01215D03*
X00503D03*
X00523D03*
X00543D03*
X00562D03*
G54D72*
X01196Y00883D03*
Y01135D03*
G54D73*
X00342Y01035D03*
Y01106D03*
X00057Y00724D03*
Y00795D03*
G54D74*
X00717Y00368D03*
X00667Y00418D03*
G54D75*
X00391Y00291D03*
X0049D03*
G54D76*
X00684Y01092D03*
X00755D03*
X01181Y00661D03*
X00927Y00568D03*
X00856D03*
X00927Y00763D03*
X00856D03*
X01251Y00661D03*
G54D77*
X0107Y01216D03*
Y01421D03*
G54D78*
X0119Y01421D03*
Y01342D03*
G54D79*
X01407Y00942D03*
Y01097D03*
G54D80*
X01262Y00763D03*
X01367D03*
G54D81*
X01307Y00661D03*
X01366D03*
G54D82*
X00342Y01218D03*
Y01159D03*
G54D83*
X00057Y00889D03*
Y01185D03*
G54D84*
X00057Y01037D03*
G54D85*
X00162Y00986D03*
Y01011D03*
Y01037D03*
Y01062D03*
Y01088D03*
G54D86*
X004Y00415D03*
X00386Y00428D03*
X00372Y00442D03*
X00359Y00456D03*
X00345Y0047D03*
X00331Y00484D03*
X00317Y00498D03*
X00303Y00512D03*
X00289Y00526D03*
X00275Y0054D03*
X00261Y00554D03*
X00247Y00568D03*
X00473Y00793D03*
X00487Y00779D03*
X00501Y00765D03*
X00514Y00751D03*
X00528Y00737D03*
X00542Y00724D03*
X00556Y0071D03*
X0057Y00696D03*
X00584Y00682D03*
X00598Y00668D03*
X00612Y00654D03*
X00626Y0064D03*
G54D87*
X00247Y0064D03*
X00261Y00654D03*
X00275Y00668D03*
X00289Y00682D03*
X00303Y00696D03*
X00317Y0071D03*
X00331Y00724D03*
X00345Y00737D03*
X00359Y00751D03*
X00372Y00765D03*
X00386Y00779D03*
X004Y00793D03*
X00626Y00568D03*
X00612Y00554D03*
X00598Y0054D03*
X00584Y00526D03*
X0057Y00512D03*
X00556Y00498D03*
X00542Y00484D03*
X00528Y0047D03*
X00514Y00456D03*
X00501Y00442D03*
X00487Y00428D03*
X00473Y00415D03*
G54D88*
X00137Y01358D03*
Y00137D03*
X01358Y01358D03*
Y00137D03*
X00141Y00958D03*
Y01116D03*
G54D89*
X00427Y0134D03*
X00602Y01377D03*
X00701D03*
X00799D03*
X01383Y00537D03*
X00423Y0008D03*
X00523D03*
X00623D03*
G54D90*
X00327Y0134D03*
X00898Y01377D03*
X00323Y0008D03*
G54D91*
X01383Y00437D03*
M02*