%FSTAX23Y23*%
%MOIN*%
%SFA1B1*%

%IPPOS*%
%AMD18*
4,1,4,0.000000,0.027700,-0.027700,0.000000,0.000000,-0.027700,0.027700,0.000000,0.000000,0.027700,0.0*
%
%AMD24*
4,1,4,0.027700,0.000000,0.000000,0.027700,-0.027700,0.000000,0.000000,-0.027700,0.027700,0.000000,0.0*
%
%AMD28*
4,1,8,0.017700,0.023600,-0.017700,0.023600,-0.029500,0.011800,-0.029500,-0.011800,-0.017700,-0.023600,0.017700,-0.023600,0.029500,-0.011800,0.029500,0.011800,0.017700,0.023600,0.0*
1,1,0.023620,0.017700,0.011800*
1,1,0.023620,-0.017700,0.011800*
1,1,0.023620,-0.017700,-0.011800*
1,1,0.023620,0.017700,-0.011800*
%
%AMD31*
4,1,8,-0.015700,0.007900,-0.015700,-0.007900,-0.007900,-0.015700,0.007900,-0.015700,0.015700,-0.007900,0.015700,0.007900,0.007900,0.015700,-0.007900,0.015700,-0.015700,0.007900,0.0*
1,1,0.015740,-0.007900,0.007900*
1,1,0.015740,-0.007900,-0.007900*
1,1,0.015740,0.007900,-0.007900*
1,1,0.015740,0.007900,0.007900*
%
%AMD32*
4,1,8,-0.007900,-0.015700,0.007900,-0.015700,0.015700,-0.007900,0.015700,0.007900,0.007900,0.015700,-0.007900,0.015700,-0.015700,0.007900,-0.015700,-0.007900,-0.007900,-0.015700,0.0*
1,1,0.015740,-0.007900,-0.007900*
1,1,0.015740,0.007900,-0.007900*
1,1,0.015740,0.007900,0.007900*
1,1,0.015740,-0.007900,0.007900*
%
%AMD33*
4,1,8,-0.037400,0.026600,-0.037400,-0.026600,-0.018700,-0.045300,0.018700,-0.045300,0.037400,-0.026600,0.037400,0.026600,0.018700,0.045300,-0.018700,0.045300,-0.037400,0.026600,0.0*
1,1,0.037400,-0.018700,0.026600*
1,1,0.037400,-0.018700,-0.026600*
1,1,0.037400,0.018700,-0.026600*
1,1,0.037400,0.018700,0.026600*
%
%AMD34*
4,1,8,-0.037400,0.062000,-0.037400,-0.062000,-0.018700,-0.080700,0.018700,-0.080700,0.037400,-0.062000,0.037400,0.062000,0.018700,0.080700,-0.018700,0.080700,-0.037400,0.062000,0.0*
1,1,0.037400,-0.018700,0.062000*
1,1,0.037400,-0.018700,-0.062000*
1,1,0.037400,0.018700,-0.062000*
1,1,0.037400,0.018700,0.062000*
%
%AMD36*
4,1,4,-0.023600,-0.015300,-0.015300,-0.023600,0.023600,0.015300,0.015300,0.023600,-0.023600,-0.015300,0.0*
1,1,0.011810,-0.019400,-0.019400*
1,1,0.011810,0.019400,0.019400*
%
%AMD37*
4,1,4,0.015300,-0.023600,0.023600,-0.015300,-0.015300,0.023600,-0.023600,0.015300,0.015300,-0.023600,0.0*
1,1,0.011810,0.019400,-0.019400*
1,1,0.011810,-0.019400,0.019400*
%
%ADD10C,0.011810*%
%ADD11R,0.039370X0.078740*%
%ADD12R,0.070870X0.137800*%
%ADD13O,0.013780X0.066930*%
%ADD14R,0.118110X0.118110*%
%ADD15C,0.039370*%
%ADD16C,0.059060*%
%ADD17R,0.070870X0.039370*%
G04~CAMADD=18~10~0.0~393.7~0.0~0.0~0.0~0.0~0~0.0~0.0~0.0~0.0~0~0.0~0.0~0.0~0.0~0~0.0~0.0~0.0~405.0~393.7~0.0*
%ADD18D18*%
%ADD19R,0.098430X0.098430*%
%ADD20R,0.028740X0.011810*%
%ADD21R,0.011810X0.028740*%
%ADD22R,0.086610X0.062990*%
%ADD23R,0.039370X0.039370*%
G04~CAMADD=24~10~0.0~393.7~0.0~0.0~0.0~0.0~0~0.0~0.0~0.0~0.0~0~0.0~0.0~0.0~0.0~0~0.0~0.0~0.0~315.0~393.7~0.0*
%ADD24D24*%
%ADD25R,0.039370X0.070870*%
%ADD26R,0.039370X0.039370*%
%ADD27R,0.094490X0.086610*%
G04~CAMADD=28~8~0.0~0.0~590.6~472.4~118.1~0.0~15~0.0~0.0~0.0~0.0~0~0.0~0.0~0.0~0.0~0~0.0~0.0~0.0~0.0~590.6~472.4*
%ADD28D28*%
%ADD29R,0.055120X0.078740*%
%ADD30R,0.074800X0.089760*%
G04~CAMADD=31~8~0.0~0.0~315.0~315.0~78.7~0.0~15~0.0~0.0~0.0~0.0~0~0.0~0.0~0.0~0.0~0~0.0~0.0~0.0~90.0~314.0~314.0*
%ADD31D31*%
G04~CAMADD=32~8~0.0~0.0~315.0~315.0~78.7~0.0~15~0.0~0.0~0.0~0.0~0~0.0~0.0~0.0~0.0~0~0.0~0.0~0.0~180.0~314.0~314.0*
%ADD32D32*%
G04~CAMADD=33~8~0.0~0.0~905.5~748.0~187.0~0.0~15~0.0~0.0~0.0~0.0~0~0.0~0.0~0.0~0.0~0~0.0~0.0~0.0~90.0~749.0~906.0*
%ADD33D33*%
G04~CAMADD=34~8~0.0~0.0~1614.2~748.0~187.0~0.0~15~0.0~0.0~0.0~0.0~0~0.0~0.0~0.0~0.0~0~0.0~0.0~0.0~90.0~748.0~1614.0*
%ADD34D34*%
%ADD35O,0.053150X0.015750*%
G04~CAMADD=36~3~0.0~0.0~118.1~669.3~0.0~0.0~0~0.0~0.0~0.0~0.0~0~0.0~0.0~0.0~0.0~0~0.0~0.0~0.0~135.0~506.0~506.0*
%ADD36D36*%
G04~CAMADD=37~3~0.0~0.0~118.1~669.3~0.0~0.0~0~0.0~0.0~0.0~0.0~0~0.0~0.0~0.0~0.0~0~0.0~0.0~0.0~225.0~506.0~506.0*
%ADD37D37*%
%ADD38C,0.039370*%
%ADD39C,0.007870*%
%ADD40C,0.035430*%
%ADD41C,0.015750*%
%ADD42C,0.019690*%
%ADD43C,0.013780*%
%ADD44C,0.061020*%
%ADD45R,0.061020X0.061020*%
%ADD46R,0.061020X0.061020*%
%ADD47C,0.023620*%
%LNstepperpcb-1*%
%LPD*%
G36*
X00993Y00455D02*
X00993Y00453D01*
X00993Y00452*
X00993Y0045*
X00994Y00449*
X00994Y00448*
X00995Y00447*
X00995Y00446*
X00982*
X00983Y00447*
X00983Y00448*
X00984Y00449*
X00984Y0045*
X00984Y00451*
X00984Y00452*
X00985Y00454*
X00985Y00455*
X00985Y00457*
X00993*
X00993Y00455*
G37*
G36*
X00509Y00298D02*
X00509Y00297D01*
X0051Y00297*
X0051Y00296*
X00511Y00296*
X00512Y00295*
X00513Y00295*
X00514Y00295*
X00516Y00295*
X00517Y00295*
Y00287*
X00516Y00287*
X00514Y00287*
X00513Y00287*
X00512Y00286*
X00511Y00286*
X0051Y00285*
X0051Y00285*
X00509Y00284*
X00509Y00284*
X00509Y00283*
Y00299*
X00509Y00298*
G37*
G36*
X00854Y00983D02*
X00855Y00982D01*
X00856Y00982*
X00857Y00981*
X00858Y00981*
X00859Y0098*
X0086Y0098*
X00861Y0098*
X00862Y0098*
X00864Y0098*
X00852Y00968*
X00852Y00969*
X00852Y0097*
X00852Y00972*
X00851Y00973*
X00851Y00974*
X00851Y00975*
X0085Y00976*
X00849Y00976*
X00849Y00977*
X00848Y00978*
X00854Y00984*
X00854Y00983*
G37*
G36*
X00967Y00455D02*
X00967Y00453D01*
X00967Y00452*
X00968Y0045*
X00968Y00449*
X00969Y00448*
X00969Y00447*
X00969Y00446*
X00957*
X00957Y00447*
X00958Y00448*
X00958Y00449*
X00958Y0045*
X00959Y00451*
X00959Y00452*
X00959Y00454*
X00959Y00455*
X00959Y00457*
X00967*
X00967Y00455*
G37*
G36*
X0122Y0035D02*
X01221Y00347D01*
X01223Y00345*
X01225Y00342*
X01229Y00341*
X01233Y00339*
X01237Y00338*
X01242Y00337*
X01249Y00336*
X01255Y00336*
Y00301*
X01249Y00301*
X01242Y003*
X01237Y00299*
X01233Y00298*
X01229Y00296*
X01225Y00294*
X01223Y00292*
X01221Y00289*
X0122Y00286*
X0122Y00283*
Y00354*
X0122Y0035*
G37*
G36*
X00313Y00459D02*
X00313Y00459D01*
X00312Y00459*
X00312Y00458*
X00311Y00458*
X0031Y00457*
X00308Y00456*
X00306Y00454*
X00305Y00453*
X003Y00459*
X00301Y0046*
X00304Y00464*
X00305Y00464*
X00305Y00465*
X00305Y00466*
X00306Y00466*
X00306Y00467*
X00313Y00459*
G37*
G36*
X00421Y01139D02*
Y01122D01*
X00424*
Y01085*
X00464*
Y01079*
X0047*
Y01046*
X0047Y01046*
X0047Y01046*
Y01038*
X00472*
Y00931*
X00473Y00926*
X00475Y00922*
X00497Y009*
X00496Y00894*
X00494Y00894*
X00487Y0089*
X00487Y00889*
X00486Y00889*
X00486Y00888*
X00486Y00888*
X00485Y00888*
X00485Y00888*
X00484Y00888*
X00484Y00888*
X00393*
X00389Y00887*
X00385Y00884*
X00359Y00858*
X00354Y0086*
Y01007*
X00362*
X00365Y01004*
X00365Y01003*
X00367Y00996*
X00371Y00989*
X00378Y00985*
X00385Y00983*
X00393Y00985*
X004Y00989*
X00404Y00996*
X00405Y01003*
X00404Y01011*
X004Y01018*
X00399Y01018*
X00398Y01019*
X00398Y01019*
X00398Y01019*
X00398Y0102*
X00398Y0102*
X00397Y0102*
X00397Y01021*
Y01122*
X00416Y01141*
X00421Y01139*
G37*
G36*
X00581Y01009D02*
X00582Y01008D01*
X00582Y01007*
X00583Y01007*
X00584Y01006*
X00585Y01006*
X00586Y01006*
X00588Y01006*
X00589Y01005*
X0059Y01005*
X00578Y00994*
X00578Y00995*
X00578Y00996*
X00578Y00997*
X00578Y00998*
X00577Y00999*
X00577Y01*
X00576Y01001*
X00576Y01002*
X00575Y01003*
X00574Y01004*
X0058Y01009*
X00581Y01009*
G37*
G36*
X00941Y00455D02*
X00942Y00453D01*
X00942Y00452*
X00942Y0045*
X00943Y00449*
X00943Y00448*
X00943Y00447*
X00944Y00446*
X00931*
X00932Y00447*
X00932Y00448*
X00932Y00449*
X00933Y0045*
X00933Y00451*
X00933Y00452*
X00933Y00454*
X00934Y00455*
X00934Y00457*
X00941*
X00941Y00455*
G37*
G36*
X0089D02*
X0089Y00453D01*
X00891Y00452*
X00891Y0045*
X00891Y00449*
X00892Y00448*
X00892Y00447*
X00893Y00446*
X0088*
X0088Y00447*
X00881Y00448*
X00881Y00449*
X00882Y0045*
X00882Y00451*
X00882Y00452*
X00882Y00454*
X00882Y00455*
X00882Y00457*
X0089*
X0089Y00455*
G37*
G36*
X00635Y00641D02*
X00635Y0064D01*
X00635Y0064*
X00635Y00639*
X00635Y00638*
X00635Y00637*
X00636Y00636*
X00636Y00635*
X00637Y00634*
X00638Y00633*
X00633Y00628*
X00632Y00629*
X00631Y00629*
X0063Y0063*
X00629Y00631*
X00628Y00631*
X00627Y00631*
X00626Y00631*
X00626Y00631*
X00625Y00631*
X00624Y0063*
X00635Y00642*
X00635Y00641*
G37*
G36*
X00327Y00445D02*
X00327Y00445D01*
X00326Y00445*
X00326Y00445*
X00325Y00444*
X00324Y00444*
X00322Y00442*
X0032Y0044*
X00319Y00439*
X00314Y00445*
X00315Y00446*
X00318Y0045*
X00318Y0045*
X00319Y00451*
X00319Y00452*
X0032Y00452*
X0032Y00453*
X00327Y00445*
G37*
G36*
X00865Y00457D02*
X00869D01*
X00868Y00456*
X00867Y00455*
X00867Y00454*
X00866Y00453*
X00866Y00452*
X00865Y00451*
X00865Y00451*
X00866Y0045*
X00866Y00449*
X00866Y00448*
X00867Y00447*
X00867Y00446*
X00854*
X00855Y00447*
X00855Y00448*
X00856Y00449*
X00856Y0045*
X00856Y00451*
X00856Y00451*
X00856Y00451*
X00856Y00452*
X00855Y00453*
X00855Y00454*
X00854Y00455*
X00853Y00456*
X00852Y00457*
X00857*
Y00457*
X00865*
Y00457*
G37*
G36*
X00916Y00455D02*
X00916Y00453D01*
X00916Y00452*
X00917Y0045*
X00917Y00449*
X00917Y00448*
X00918Y00447*
X00918Y00446*
X00906*
X00906Y00447*
X00906Y00448*
X00907Y00449*
X00907Y0045*
X00907Y00451*
X00908Y00452*
X00908Y00454*
X00908Y00455*
X00908Y00457*
X00916*
X00916Y00455*
G37*
G36*
X00515Y00963D02*
X00514Y00962D01*
X00513Y00961*
X00513Y0096*
X00512Y00959*
X00512Y00958*
X00512Y00957*
X00511Y00956*
X00511Y00955*
X00511Y00954*
X00503*
X00503Y00955*
X00503Y00956*
X00503Y00957*
X00503Y00958*
X00502Y00959*
X00502Y0096*
X00501Y00961*
X00501Y00962*
X005Y00963*
X00499Y00964*
X00516*
X00515Y00963*
G37*
G36*
X00945Y0064D02*
X00946Y0064D01*
X00946Y00639*
X00947Y00639*
X00948Y00638*
X00949Y00638*
X0095Y00638*
X00951Y00637*
X00952Y00637*
X00954Y00637*
Y00629*
X00952Y00629*
X00951Y00629*
X0095Y00629*
X00949Y00629*
X00948Y00628*
X00947Y00628*
X00946Y00627*
X00946Y00627*
X00945Y00626*
X00945Y00625*
Y00641*
X00945Y0064*
G37*
G36*
X00595Y00629D02*
X00594Y00629D01*
X00593Y00629*
X00593Y00628*
X00592Y00628*
X00591Y00627*
X0059Y00626*
X00588Y00624*
X00587Y00623*
X00581Y00629*
X00582Y0063*
X00585Y00633*
X00586Y00634*
X00586Y00635*
X00587Y00636*
X00587Y00636*
X00587Y00637*
X00595Y00629*
G37*
G36*
X00185Y01044D02*
X00186Y01043D01*
X00187Y01042*
X00188Y01042*
X00189Y01042*
X0019Y01041*
X00191Y01041*
X00193Y01041*
X00194Y01041*
X00195Y01041*
Y01033*
X00194Y01033*
X00193Y01033*
X00191Y01033*
X0019Y01032*
X00189Y01032*
X00188Y01032*
X00187Y01031*
X00186Y01031*
X00185Y0103*
X00184Y0103*
Y01044*
X00185Y01044*
G37*
G36*
X00239Y00469D02*
X0024Y00468D01*
X00241Y00468*
X00242Y00467*
X00243Y00467*
X00244Y00467*
X00245Y00466*
X00246Y00466*
X00247Y00466*
X00249Y00466*
X00237Y00454*
X00237Y00456*
X00237Y00457*
X00237Y00458*
X00236Y00459*
X00236Y0046*
X00236Y00461*
X00235Y00462*
X00234Y00463*
X00234Y00464*
X00233Y00464*
X00239Y0047*
X00239Y00469*
G37*
G36*
X01195Y0025D02*
X01194Y00249D01*
X01193Y00249*
X01193Y00248*
X01192Y00247*
X01191Y00245*
X01191Y00244*
X01191Y00242*
X01191Y0024*
X0119Y00238*
X01179*
X01179Y0024*
X01178Y00242*
X01178Y00244*
X01178Y00245*
X01177Y00247*
X01177Y00248*
X01176Y00249*
X01175Y00249*
X01174Y0025*
X01173Y0025*
X01196*
X01195Y0025*
G37*
G36*
X00793Y00245D02*
X00792Y00244D01*
X00791Y00243*
X0079Y00242*
X00789Y0024*
X00789Y00239*
X00788Y00237*
X00788Y00235*
X00788Y00233*
X00788Y00231*
X00776*
X00776Y00233*
X00776Y00235*
X00775Y00237*
X00775Y00239*
X00774Y0024*
X00774Y00242*
X00773Y00243*
X00772Y00244*
X00771Y00245*
X0077Y00246*
X00794*
X00793Y00245*
G37*
G36*
X00509Y01046D02*
X00509Y01046D01*
X00508Y01046*
X00508Y01045*
X00508Y01044*
X00508Y01043*
X00508Y01042*
X00507Y0104*
X00507Y01038*
X005*
X00499Y0104*
X00499Y01043*
X00499Y01044*
X00499Y01045*
X00499Y01046*
X00498Y01046*
X00498Y01046*
X00498Y01046*
X00509*
X00509Y01046*
G37*
G36*
X00548D02*
X00548Y01046D01*
X00548Y01046*
X00547Y01045*
X00547Y01044*
X00547Y01043*
X00547Y01042*
X00547Y0104*
X00547Y01038*
X00539*
X00539Y0104*
X00539Y01043*
X00538Y01044*
X00538Y01045*
X00538Y01046*
X00538Y01046*
X00537Y01046*
X00537Y01046*
X00549*
X00548Y01046*
G37*
G36*
X00971Y00468D02*
X0097Y00467D01*
X00969Y00466*
X00969Y00465*
X00968Y00464*
X00968Y00463*
X00967Y00462*
X00967Y00461*
X00967Y0046*
X00967Y00459*
X00959*
X00959Y0046*
X00959Y00461*
X00959Y00462*
X00958Y00463*
X00958Y00464*
X00958Y00465*
X00957Y00466*
X00956Y00467*
X00956Y00468*
X00955Y00468*
X00971*
X00971Y00468*
G37*
G36*
X00489Y01046D02*
X00489Y01046D01*
X00489Y01046*
X00488Y01045*
X00488Y01044*
X00488Y01043*
X00488Y01042*
X00488Y0104*
X00488Y01038*
X0048*
X0048Y0104*
X0048Y01043*
X00479Y01044*
X00479Y01045*
X00479Y01046*
X00479Y01046*
X00478Y01046*
X00478Y01046*
X0049*
X00489Y01046*
G37*
G36*
X00774Y01032D02*
X00774Y01032D01*
X00775Y01031*
X00776Y0103*
X00777Y0103*
X00778Y0103*
X00779Y01029*
X0078Y01029*
X00781Y01029*
X00783Y01029*
Y01021*
X00781Y01021*
X0078Y01021*
X00779Y01021*
X00778Y01021*
X00777Y0102*
X00776Y0102*
X00775Y01019*
X00774Y01019*
X00774Y01018*
X00773Y01017*
Y01033*
X00774Y01032*
G37*
G36*
X00567Y00466D02*
X00568Y00466D01*
X00568Y00465*
X00568Y00464*
X00569Y00464*
X0057Y00462*
X00572Y0046*
X00573Y00459*
X00568Y00453*
X00567Y00454*
X00563Y00457*
X00562Y00458*
X00561Y00458*
X00561Y00459*
X0056Y00459*
X0056Y00459*
X00567Y00467*
X00567Y00466*
G37*
G36*
X0058Y00609D02*
X0058Y00608D01*
X00581Y00607*
X00581Y00606*
X00581Y00605*
X00582Y00604*
X00582Y00603*
X00583Y00602*
X00584Y00601*
X00585Y006*
X00568*
X00569Y00601*
X0057Y00602*
X0057Y00603*
X00571Y00604*
X00571Y00605*
X00572Y00606*
X00572Y00607*
X00572Y00608*
X00572Y00609*
X00572Y0061*
X0058*
X0058Y00609*
G37*
G36*
X00877Y00997D02*
X00876Y00998D01*
X00875Y00998*
X00874Y00998*
X00874Y00998*
X00873Y00998*
X00872Y00997*
X00871Y00997*
X0087Y00996*
X00869Y00995*
X00868Y00994*
X00862Y01*
X00863Y01001*
X00864Y01002*
X00865Y01003*
X00865Y01004*
X00866Y01005*
X00866Y01005*
X00866Y01006*
X00866Y01007*
X00866Y01008*
X00866Y01009*
X00877Y00997*
G37*
G36*
X01196Y00304D02*
X01195Y00302D01*
X01194Y003*
X01193Y00296*
X01192Y00293*
X01192Y00288*
X01191Y00278*
X0119Y00266*
X01179*
X01179Y00273*
X01177Y00293*
X01176Y00296*
X01175Y003*
X01174Y00302*
X01173Y00304*
X01172Y00306*
X01197*
X01196Y00304*
G37*
G36*
X00349Y01015D02*
X00348Y01015D01*
X00348Y01015*
X00347Y01014*
X00347Y01013*
X00347Y01013*
X00346Y01012*
X00346Y0101*
X00346Y01009*
X00346Y01007*
X00338*
X00338Y01009*
X00338Y0101*
X00338Y01012*
X00337Y01013*
X00337Y01013*
X00337Y01014*
X00336Y01015*
X00336Y01015*
X00335Y01015*
X00334Y01015*
X0035*
X00349Y01015*
G37*
G36*
X00389Y01021D02*
X00389Y01019D01*
X0039Y01018*
X0039Y01017*
X0039Y01016*
X00391Y01015*
X00391Y01015*
X00392Y01014*
X00393Y01013*
X00394Y01012*
X00377*
X00378Y01013*
X00379Y01014*
X00379Y01015*
X0038Y01015*
X0038Y01016*
X00381Y01017*
X00381Y01018*
X00381Y01019*
X00381Y01021*
X00381Y01022*
X00389*
X00389Y01021*
G37*
G36*
X00398Y00256D02*
X00398Y00255D01*
X00397Y00255*
X00397Y00254*
X00396Y00254*
X00396Y00253*
X00396Y00252*
X00395Y00251*
X00395Y00249*
X00395Y00248*
X00387*
X00387Y00249*
X00387Y00251*
X00387Y00252*
X00387Y00253*
X00386Y00254*
X00386Y00254*
X00385Y00255*
X00385Y00255*
X00384Y00256*
X00383Y00256*
X00399*
X00398Y00256*
G37*
G36*
X00303Y0101D02*
X00303Y01008D01*
X00303Y01007*
X00303Y01006*
X00304Y01005*
X00304Y01004*
X00305Y01004*
X00305Y01003*
X00306Y01003*
X00307Y01002*
X00291*
X00292Y01003*
X00292Y01003*
X00293Y01004*
X00293Y01004*
X00294Y01005*
X00294Y01006*
X00294Y01007*
X00295Y01008*
X00295Y0101*
X00295Y01011*
X00303*
X00303Y0101*
G37*
G36*
X00395Y00332D02*
X00395Y00329D01*
X00396Y00329*
X00396Y00328*
X00396Y00327*
X00397Y00327*
X00397Y00326*
X00398Y00326*
X00398Y00326*
X00384*
X00385Y00326*
X00385Y00326*
X00386Y00327*
X00386Y00327*
X00387Y00328*
X00387Y00329*
X00387Y00329*
X00387Y00331*
X00387Y00332*
X00387Y00333*
X00395*
X00395Y00332*
G37*
G36*
X00673Y0074D02*
X00672Y0074D01*
X00671Y0074*
X0067Y0074*
X00669Y0074*
X00669Y00739*
X00668Y00739*
X00667Y00738*
X00666Y00738*
X00665Y00737*
X00664Y00736*
X00658Y00741*
X00659Y00743*
X0066Y00744*
X00661Y00745*
X00661Y00745*
X00662Y00746*
X00662Y00747*
X00662Y00748*
X00662Y00749*
X00662Y0075*
X00662Y00751*
X00673Y0074*
G37*
G36*
X00306Y00753D02*
X0031Y0075D01*
X00311Y0075*
X00312Y00749*
X00312Y00749*
X00313Y00749*
X00313Y00748*
X00306Y00741*
X00306Y00741*
X00305Y00742*
X00305Y00743*
X00305Y00743*
X00304Y00744*
X00303Y00746*
X00301Y00748*
X003Y00749*
X00305Y00754*
X00306Y00753*
G37*
G36*
X00355Y00417D02*
X00355Y00417D01*
X00354Y00417*
X00353Y00417*
X00353Y00416*
X00352Y00416*
X0035Y00414*
X00348Y00413*
X00347Y00411*
X00342Y00417*
X00343Y00418*
X00346Y00422*
X00346Y00423*
X00347Y00423*
X00347Y00424*
X00347Y00425*
X00348Y00425*
X00355Y00417*
G37*
G36*
X00716Y0076D02*
Y00723D01*
X00711Y0072*
X00711Y00721*
X00707Y00722*
Y007*
Y00679*
X00711Y0068*
X00711Y0068*
X00716Y00678*
Y00664*
X00716Y00664*
X00716Y00664*
X00715Y00663*
X00715Y00663*
X00715Y00663*
X00715Y00662*
X00715Y00662*
X00714Y00661*
X00709Y00655*
X00708Y00647*
X00709Y00639*
X00714Y00633*
X00714Y00633*
X00713Y00628*
X00655*
X00644Y00639*
X00655Y0065*
X00658Y00654*
X00659Y0066*
X00658Y00665*
X00655Y00669*
X00651Y00672*
X00645Y00674*
X00644Y00679*
X00641Y00683*
X00637Y00686*
X00631Y00687*
X0063Y00693*
X00627Y00697*
X00623Y007*
X00618Y00701*
X00617Y00707*
X00613Y00711*
X00611Y00713*
X0061Y00718*
X00614Y00722*
X00656*
X00661Y00723*
X00664Y00725*
X0067Y00731*
X00671Y00731*
X00671Y00732*
X00671Y00732*
X00673Y00731*
X0068Y0073*
X00687Y00731*
X00694Y00734*
X007Y00738*
X00704Y00744*
X00707Y00751*
X00708Y00758*
X00707Y00762*
X00712Y00764*
X00716Y0076*
G37*
G36*
X00251Y00415D02*
X0025Y00414D01*
X00249Y00413*
X00249Y00412*
X00248Y00411*
X00248Y0041*
X00247Y00409*
X00247Y00408*
X00247Y00407*
X00247Y00407*
X00248Y00406*
X00236Y00417*
X00237Y00417*
X00238Y00417*
X00239Y00417*
X0024Y00417*
X00241Y00417*
X00242Y00417*
X00243Y00418*
X00244Y00419*
X00245Y0042*
X00246Y00421*
X00251Y00415*
G37*
G36*
X0032Y00767D02*
X00324Y00764D01*
X00325Y00764*
X00326Y00763*
X00326Y00763*
X00327Y00763*
X00327Y00762*
X0032Y00755*
X0032Y00755*
X00319Y00756*
X00319Y00757*
X00318Y00757*
X00318Y00758*
X00317Y0076*
X00315Y00762*
X00314Y00763*
X00319Y00768*
X0032Y00767*
G37*
G36*
X00573Y00749D02*
X00572Y00748D01*
X00569Y00744*
X00568Y00743*
X00568Y00743*
X00568Y00742*
X00567Y00741*
X00567Y00741*
X0056Y00748*
X0056Y00749*
X00561Y00749*
X00561Y00749*
X00562Y0075*
X00563Y0075*
X00565Y00752*
X00567Y00753*
X00568Y00754*
X00573Y00749*
G37*
G36*
X00299Y0037D02*
X00298Y00369D01*
X00297Y00368*
X00296Y00367*
X00295Y00366*
X00295Y00365*
X00295Y00364*
X00295Y00363*
X00294Y00362*
X00295Y00361*
X00295Y0036*
X00284Y00372*
X00285Y00371*
X00285Y00371*
X00286Y00371*
X00287Y00371*
X00288Y00372*
X00289Y00372*
X0029Y00373*
X00291Y00373*
X00292Y00374*
X00293Y00375*
X00299Y0037*
G37*
G36*
X00601Y00721D02*
X006Y0072D01*
X00597Y00716*
X00596Y00716*
X00596Y00715*
X00595Y00714*
X00595Y00713*
X00595Y00713*
X00587Y00721*
X00588Y00721*
X00589Y00721*
X00589Y00721*
X0059Y00722*
X00591Y00722*
X00592Y00724*
X00594Y00726*
X00595Y00727*
X00601Y00721*
G37*
G36*
X00427Y00692D02*
X00425Y00692D01*
X00424Y00692*
X00423Y00692*
X00422Y00692*
X00421Y00691*
X0042Y00691*
X00419Y00691*
X00418Y0069*
X00417Y00689*
X00417Y00689*
X00411Y00694*
X00412Y00695*
X00412Y00696*
X00413Y00697*
X00413Y00698*
X00414Y00699*
X00414Y007*
X00415Y00701*
X00415Y00702*
X00415Y00703*
X00415Y00704*
X00427Y00692*
G37*
G36*
X00251Y00698D02*
X00254Y00695D01*
X00255Y00694*
X00256Y00694*
X00257Y00693*
X00257Y00693*
X00258Y00693*
X0025Y00685*
X0025Y00686*
X0025Y00686*
X00249Y00687*
X00249Y00688*
X00248Y00688*
X00247Y0069*
X00245Y00692*
X00244Y00693*
X0025Y00699*
X00251Y00698*
G37*
G36*
X00265Y00712D02*
X00268Y00708D01*
X00269Y00708*
X0027Y00707*
X00271Y00707*
X00271Y00707*
X00272Y00707*
X00264Y00699*
X00264Y007*
X00264Y007*
X00263Y00701*
X00263Y00702*
X00262Y00702*
X00261Y00704*
X00259Y00706*
X00258Y00707*
X00264Y00713*
X00265Y00712*
G37*
G36*
X00943Y00705D02*
X00944Y00705D01*
X00944Y00704*
X00945Y00704*
X00946Y00703*
X00947Y00703*
X00948Y00703*
X00949Y00702*
X0095Y00702*
X00952Y00702*
Y00694*
X0095Y00694*
X00949Y00694*
X00948Y00694*
X00947Y00694*
X00946Y00693*
X00945Y00693*
X00944Y00692*
X00944Y00692*
X00943Y00691*
X00943Y0069*
Y00706*
X00943Y00705*
G37*
G36*
X00342Y00691D02*
X00342Y00691D01*
X00342Y0069*
X00342Y0069*
X00343Y00689*
X00344Y00688*
X00347Y00685*
X00341Y0068*
X0034Y00681*
X00336Y00684*
X00336Y00685*
X00335Y00685*
X00335Y00685*
X00342Y00691*
X00342Y00691*
G37*
G36*
X0046Y00719D02*
X00459Y00718D01*
X00458Y00717*
X00458Y00716*
X00457Y00715*
X00457Y00714*
X00457Y00713*
X00456Y00712*
X00456Y00711*
X00456Y0071*
X00448*
X00448Y00711*
X00448Y00712*
X00448Y00713*
X00448Y00714*
X00447Y00715*
X00447Y00716*
X00446Y00717*
X00446Y00718*
X00445Y00719*
X00444Y00719*
X00461*
X0046Y00719*
G37*
G36*
X00512Y00411D02*
X00512Y0041D01*
X00512Y00409*
X00513Y00409*
X00513Y00408*
X00515Y00406*
X00516Y00404*
X00518Y00403*
X00512Y00398*
X00511Y00399*
X00507Y00402*
X00506Y00402*
X00506Y00403*
X00505Y00403*
X00504Y00403*
X00504Y00404*
X00512Y00411*
X00512Y00411*
G37*
G36*
X00474Y00405D02*
X00474Y00405D01*
X00473Y00406*
X00472Y00406*
X00471Y00406*
X00471Y00406*
X0047Y00405*
X00469Y00405*
X00468Y00404*
X00467Y00403*
X00466Y00402*
X0046Y00408*
X00461Y00409*
X00462Y0041*
X00463Y00411*
X00463Y00412*
X00464Y00413*
X00464Y00413*
X00464Y00414*
X00464Y00415*
X00464Y00415*
X00463Y00416*
X00474Y00405*
G37*
G36*
X00652Y00439D02*
X00653Y00439D01*
X00654Y00438*
X00655Y00437*
X00656Y00437*
X00656Y00437*
X00657Y00437*
X00658Y00437*
X00659Y00437*
X00659Y00438*
X00648Y00427*
X00648Y00427*
X00649Y00428*
X00649Y00428*
X00649Y00429*
X00649Y0043*
X00648Y00431*
X00648Y00432*
X00647Y00433*
X00646Y00434*
X00645Y00435*
X00651Y0044*
X00652Y00439*
G37*
G36*
X00272Y00947D02*
X0028Y00941D01*
X00289Y00937*
X00299Y00936*
X00308Y00937*
X00318Y00941*
X00325Y00947*
X00328Y00946*
X0033Y00946*
Y00852*
X00284Y00806*
X00282Y00802*
X00281Y00797*
Y00761*
X00282Y00757*
X00284Y00753*
X00291Y00747*
X0029Y00741*
X00287Y00739*
X00284Y00734*
X00283Y00729*
X00278Y00728*
X00273Y00725*
X00272Y00723*
X00266Y00722*
X00262Y00726*
Y00839*
X00266Y00841*
X00267Y00841*
X00271Y00834*
X00278Y00829*
X00282Y00829*
Y0085*
Y00871*
X00278Y0087*
X00271Y00866*
X00267Y00859*
X00266Y00859*
X00262Y00861*
Y00953*
X00264Y00954*
X00267Y00954*
X00272Y00947*
G37*
G36*
X00484Y00863D02*
X00485Y00863D01*
X00485Y00863*
X00486Y00863*
X00486Y00863*
X00486Y00862*
X00487Y00862*
X00487Y00861*
X00494Y00857*
X00501Y00855*
X00509Y00857*
X00516Y00861*
X00516Y00862*
X00521Y0086*
Y0081*
X00517Y00809*
X00516Y00809*
X00511Y00812*
X00506Y00813*
X00505Y00818*
X00502Y00823*
X00498Y00826*
X00492Y00827*
X00487Y00826*
X00482Y00823*
X00473Y00813*
X00468Y00816*
X00467Y00823*
X00462Y0083*
X00455Y00835*
X00451Y00836*
Y00814*
X00446*
Y00809*
X00425*
X00426Y00806*
X00431Y00799*
X00438Y00794*
X00445Y00792*
X00447Y00788*
X00443Y00784*
X0044Y00779*
X00439Y00774*
X0044Y00768*
X00443Y00764*
X00448Y00761*
X00453Y0076*
X00454Y00754*
X00455Y00752*
X00452Y00748*
X00452Y00748*
X00445Y00746*
X00438Y00742*
X00434Y00736*
X00432Y00728*
X00432Y00727*
X00429Y00724*
X00427Y00724*
X00419Y00723*
X00412Y00718*
X00408Y00712*
X00407Y00704*
X00407Y00703*
X00407Y00703*
X00407Y00702*
X00407Y00702*
X00406Y00701*
X00406Y00701*
X00406Y00701*
X00406Y007*
X004Y00695*
X00366*
X00364Y00699*
X00365Y00704*
X0037Y00705*
X00374Y00708*
X00377Y00713*
X00378Y00718*
X00383Y00719*
X00388Y00722*
X00391Y00727*
X00392Y00732*
X00397Y00733*
X00402Y00736*
X00405Y0074*
X00406Y00746*
X00411Y00747*
X00416Y0075*
X00419Y00754*
X0042Y0076*
X00425Y00761*
X0043Y00764*
X00433Y00768*
X00434Y00774*
X00433Y00779*
X0043Y00784*
X00391Y00823*
X00386Y00826*
X00381Y00827*
X00375Y00826*
X00371Y00823*
X00368Y00818*
X00367Y00813*
X00362Y00812*
X00357Y00809*
X00354Y00804*
X00353Y00799*
X00348Y00798*
X00343Y00795*
X0034Y0079*
X00339Y00785*
X00334Y00784*
X00329Y00781*
X00323Y0078*
X00322Y00781*
X00322Y00787*
X00398Y00863*
X00484*
X00484Y00863*
G37*
G36*
X00061Y00821D02*
X00061Y00819D01*
X00061Y00818*
X00061Y00817*
X00062Y00816*
X00062Y00816*
X00062Y00815*
X00063Y00815*
X00064Y00814*
X00064Y00814*
X00049*
X00049Y00814*
X0005Y00815*
X00051Y00815*
X00051Y00816*
X00052Y00816*
X00052Y00817*
X00052Y00818*
X00052Y00819*
X00053Y00821*
X00053Y00822*
X00061*
X00061Y00821*
G37*
G36*
X00493Y00867D02*
X00492Y00868D01*
X00491Y00869*
X0049Y00869*
X00489Y0087*
X00488Y0087*
X00487Y00871*
X00486Y00871*
X00485Y00871*
X00484Y00872*
X00483Y00872*
Y00879*
X00484Y00879*
X00485Y0088*
X00486Y0088*
X00487Y0088*
X00488Y00881*
X00489Y00881*
X0049Y00882*
X00491Y00882*
X00492Y00883*
X00493Y00884*
Y00867*
G37*
G36*
X00494Y00333D02*
X00494Y00331D01*
X00494Y0033*
X00494Y00329*
X00495Y00328*
X00495Y00327*
X00496Y00327*
X00496Y00326*
X00497Y00326*
X00498Y00326*
X00482*
X00483Y00326*
X00483Y00326*
X00484Y00327*
X00484Y00327*
X00485Y00328*
X00485Y00329*
X00485Y0033*
X00486Y00331*
X00486Y00333*
X00486Y00334*
X00494*
X00494Y00333*
G37*
G36*
X00732Y00664D02*
X00732Y00663D01*
X00732Y00662*
X00732Y00661*
X00733Y0066*
X00733Y00659*
X00734Y00658*
X00735Y00657*
X00735Y00656*
X00736Y00656*
X0072*
X0072Y00656*
X00721Y00657*
X00722Y00658*
X00722Y00659*
X00723Y0066*
X00723Y00661*
X00724Y00662*
X00724Y00663*
X00724Y00664*
X00724Y00665*
X00732*
X00732Y00664*
G37*
G36*
X00064Y00844D02*
X00063Y00844D01*
X00062Y00843*
X00062Y00843*
X00062Y00842*
X00061Y00841*
X00061Y0084*
X00061Y00839*
X00061Y00838*
X00061Y00836*
X00053*
X00053Y00838*
X00052Y00839*
X00052Y0084*
X00052Y00841*
X00052Y00842*
X00051Y00843*
X00051Y00843*
X0005Y00844*
X00049Y00844*
X00049Y00844*
X00064*
X00064Y00844*
G37*
G36*
X00328Y00678D02*
X00328Y00677D01*
X00329Y00677*
X00329Y00676*
X0033Y00675*
X00331Y00673*
X00333Y00671*
X00334Y0067*
X00328Y00665*
X00327Y00666*
X00323Y00669*
X00323Y0067*
X00322Y0067*
X00321Y0067*
X00321Y00671*
X0032Y00671*
X00328Y00678*
X00328Y00678*
G37*
G36*
X00946Y0077D02*
X00947Y0077D01*
X00947Y00769*
X00947Y00769*
X00948Y00768*
X00949Y00768*
X0095Y00768*
X00951Y00767*
X00953Y00767*
X00954Y00767*
Y00759*
X00953Y00759*
X00951Y00759*
X0095Y00759*
X00949Y00759*
X00948Y00758*
X00947Y00758*
X00947Y00757*
X00947Y00757*
X00946Y00756*
X00946Y00755*
Y00771*
X00946Y0077*
G37*
G36*
X00222Y01012D02*
Y00786D01*
X00217Y00785*
X00214Y00789*
X00207Y00794*
X00203Y00794*
Y00773*
X00193*
Y00794*
X0019Y00794*
X00183Y00789*
X00178Y00782*
X00177Y00777*
X00176Y00773*
X00171Y00773*
X00168Y00773*
X00161Y00772*
X00153Y00769*
X00151Y00767*
X00172Y00747*
X00193Y00726*
X00194Y00728*
X00197Y00735*
X00198Y00743*
X00198Y00746*
X00198Y00751*
X00202Y00752*
X00207Y00753*
X00214Y00757*
X00217Y00761*
X00222Y0076*
Y00709*
X00223Y00705*
X00225Y00701*
X00233Y00693*
X00233Y00689*
X00265Y00657*
X00295Y00627*
X00296Y00628*
X00297Y00634*
X00297Y00635*
X003Y00635*
X00304Y00638*
X00308Y00643*
X00309Y00648*
X00314Y00649*
X00318Y00652*
X0032Y00655*
X0032Y00655*
X00326Y00656*
X00326Y00656*
X00327Y00656*
X00332Y00655*
X00423*
X00427Y00656*
X00431Y00658*
X00461Y00688*
X00463Y00692*
X00464Y00696*
Y00711*
X00464Y00711*
X00464Y00711*
X00465Y00712*
X00465Y00712*
X00465Y00712*
X00465Y00713*
X00466Y00713*
X00466Y00714*
X00471Y0072*
X00472Y00728*
X00472Y00729*
X00474Y00731*
X00476Y00733*
X00481Y00731*
X00482Y00727*
X00485Y00722*
X0049Y00719*
X00495Y00718*
X00496Y00713*
X00499Y00708*
X00504Y00705*
X00509Y00704*
X0051Y00699*
X00513Y00694*
X00517Y00691*
X00521Y0069*
X00521Y0069*
X00522Y00684*
X00522Y00683*
X00553Y00713*
X00585Y00745*
X00584Y00748*
X00589Y00753*
X00591Y00757*
X00592Y00761*
Y00903*
X00591Y00908*
X00589Y00912*
X00567Y00934*
Y00984*
X00571Y00986*
X00572Y00986*
X00576Y00979*
X00582Y00975*
X0059Y00974*
X00597Y00975*
X00602Y00972*
Y00879*
X00603Y00875*
X00605Y00871*
X00634Y00843*
X00631Y00838*
X0063Y00838*
X00622Y00837*
X00615Y00834*
X00613Y00832*
X00633Y00812*
X00654Y00791*
X00656Y00793*
X00659Y008*
X0066Y00808*
X0066Y00809*
X00664Y00812*
X00686Y0079*
X00684Y00785*
X0068Y00786*
X00673Y00785*
X00666Y00782*
X0066Y00778*
X00656Y00772*
X00653Y00765*
X00652Y00758*
X00653Y00751*
X00654Y0075*
X00651Y00746*
X00608*
X00604Y00745*
X006Y00742*
X00595Y00738*
X00592Y00738*
X0056Y00706*
X00528Y00674*
X00528Y00671*
X00483Y00626*
X00481Y00622*
X0048Y00617*
Y00568*
X0048Y00568*
X00479Y00567*
X00479Y00567*
X00479Y00567*
X00479Y00566*
X00479Y00566*
X00478Y00565*
X00477Y00565*
X00477Y00564*
X00477Y00564*
X00476Y00563*
X00476Y00563*
X00475Y00563*
X00475Y00563*
X00475Y00563*
X00474Y00563*
X00425*
X00421Y00562*
X00417Y00559*
X00368Y0051*
X00362Y00511*
X0036Y00514*
X00358Y00515*
X00357Y00521*
X00361Y00525*
Y00544*
X00344*
X00345Y00543*
X0034Y00538*
X00334Y00539*
X00332Y00541*
X00328Y00544*
X00322Y00545*
X00321Y00551*
X00318Y00555*
X00314Y00558*
X00309Y00559*
X00308Y00565*
X00304Y00569*
X003Y00572*
X00295Y00573*
X00294Y00579*
X00291Y00583*
X00286Y00586*
X00281Y00587*
X0028Y00593*
X00277Y00597*
X00272Y006*
X00267Y00601*
X00261Y006*
X00257Y00597*
X00218Y00558*
X00215Y00554*
X00214Y00548*
X00215Y00543*
X00218Y00538*
X00222Y00535*
X00228Y00534*
X00229Y00529*
X00232Y00524*
X00236Y00521*
X00242Y0052*
X00243Y00515*
X00246Y0051*
X00248Y00509*
X00248Y00508*
X00247Y00504*
X00228*
X00223Y00503*
X00219Y005*
X0021Y00491*
X00193Y00474*
X00182Y00485*
X00143Y00446*
X00182Y00407*
X00221Y00446*
X0021Y00457*
X0022Y00466*
X00228Y00458*
X00228Y00458*
X00228Y00457*
X00228Y00457*
X00229Y00457*
X00229Y00456*
X00229Y00456*
X00229Y00455*
X00229Y00454*
X0023Y00447*
X00235Y0044*
X00241Y00436*
X00243Y00435*
X00244Y00431*
X00239Y00425*
X00239Y00425*
X00238Y00425*
X00238Y00425*
X00236Y00425*
X00229Y00426*
X00222Y00425*
X00215Y00423*
X0021Y00418*
X00205Y00412*
X00202Y00406*
X00201Y00399*
X00202Y00391*
X00205Y00385*
X0021Y00379*
X00215Y00375*
X00222Y00372*
X00229Y00371*
X00236Y00372*
X00243Y00375*
X00249Y00379*
X00253Y00385*
X00256Y00391*
X00257Y00399*
X00256Y00406*
X00255Y00407*
X00255Y00408*
X00256Y00408*
X00256Y00408*
X00278Y0043*
X00288*
X00289Y0043*
X00293Y00426*
Y00386*
X00286Y0038*
X00286Y0038*
X00286Y00379*
X00285Y00379*
X00284Y0038*
X00277Y00381*
X00269Y0038*
X00263Y00377*
X00257Y00373*
X00252Y00367*
X0025Y0036*
X00249Y00353*
X0025Y00346*
X00252Y00339*
X00257Y00334*
X00263Y00329*
X00269Y00326*
X00277Y00326*
X00284Y00326*
X0029Y00329*
X00296Y00334*
X00301Y00339*
X00303Y00346*
X00304Y00353*
X00303Y0036*
X00303Y00362*
X00303Y00362*
X00303Y00363*
X00303Y00363*
X00306Y00366*
X00311Y00364*
Y00119*
X00284*
Y00042*
X00361*
Y00043*
X00362Y00044*
X00366Y00045*
X00383Y00028*
X00381Y00023*
X00114*
X00023Y00114*
Y00691*
X00027Y00694*
X00028*
X00052*
Y00724*
Y00754*
X00028*
X00027*
X00023Y00757*
Y00835*
X00028Y00838*
X00031Y00837*
X00038Y00836*
X00045*
Y00822*
X00029*
Y00767*
X00084*
Y00797*
X00086Y00799*
X00187*
X0019Y00799*
X00192Y00801*
X00194Y00804*
X00195Y00807*
Y00967*
X00194Y00967*
X00195Y00968*
X00194Y00969*
X00194Y0097*
X00194Y0097*
X00194Y00971*
X00193Y00973*
X00197Y00979*
X00198Y00981*
X00162*
Y00991*
X00198*
X00197Y00993*
X00193Y00999*
X00195Y01004*
X00195Y01005*
X00197Y01011*
X00195Y01017*
X00194Y0102*
Y0102*
X00197Y01025*
X00208*
X00222Y01012*
G37*
G36*
X00559Y00763D02*
X00558Y00762D01*
X00555Y00758*
X00555Y00757*
X00554Y00757*
X00554Y00756*
X00553Y00755*
X00553Y00755*
X00546Y00762*
X00546Y00763*
X00547Y00763*
X00547Y00763*
X00548Y00764*
X00549Y00764*
X00551Y00766*
X00553Y00767*
X00554Y00768*
X00559Y00763*
G37*
G36*
X00836Y00755D02*
X00836Y00756D01*
X00836Y00757*
X00836Y00757*
X00835Y00758*
X00834Y00758*
X00833Y00759*
X00832Y00759*
X00831Y00759*
X0083Y00759*
X00828Y00759*
Y00767*
X0083Y00767*
X00831Y00767*
X00832Y00768*
X00833Y00768*
X00834Y00768*
X00835Y00769*
X00836Y00769*
X00836Y0077*
X00836Y0077*
X00836Y00771*
Y00755*
G37*
G36*
X00553Y00671D02*
X00552Y00671D01*
X00552Y0067*
X00551Y0067*
X0055Y0067*
X0055Y00669*
X00548Y00668*
X00546Y00666*
X00545Y00665*
X00539Y0067*
X0054Y00671*
X00543Y00675*
X00544Y00676*
X00544Y00677*
X00545Y00677*
X00545Y00678*
X00545Y00678*
X00553Y00671*
G37*
G36*
X00531Y00791D02*
X0053Y0079D01*
X00527Y00786*
X00527Y00785*
X00526Y00784*
X00526Y00784*
X00526Y00783*
X00525Y00783*
X00518Y0079*
X00518Y0079*
X00519Y00791*
X0052Y00791*
X0052Y00791*
X00521Y00792*
X00523Y00793*
X00525Y00795*
X00526Y00796*
X00531Y00791*
G37*
G36*
X00341Y00431D02*
X00341Y00431D01*
X0034Y00431*
X00339Y00431*
X00339Y0043*
X00338Y0043*
X00336Y00428*
X00334Y00426*
X00333Y00425*
X00328Y00431*
X00329Y00432*
X00332Y00436*
X00332Y00436*
X00333Y00437*
X00333Y00438*
X00333Y00438*
X00334Y00439*
X00341Y00431*
G37*
G36*
X00545Y00777D02*
X00544Y00776D01*
X00541Y00772*
X00541Y00771*
X0054Y0077*
X0054Y0077*
X0054Y00769*
X00539Y00769*
X00532Y00776*
X00532Y00776*
X00533Y00777*
X00534Y00777*
X00534Y00778*
X00535Y00778*
X00537Y00779*
X00539Y00781*
X0054Y00782*
X00545Y00777*
G37*
G36*
X00568Y01046D02*
X00568Y01046D01*
X00567Y01046*
X00567Y01045*
X00567Y01044*
X00567Y01043*
X00567Y01042*
X00566Y0104*
X00566Y01038*
X00559*
X00559Y0104*
X00558Y01043*
X00558Y01044*
X00558Y01045*
X00558Y01046*
X00557Y01046*
X00557Y01046*
X00557Y01046*
X00568*
X00568Y01046*
G37*
G36*
X00944Y00163D02*
X00944Y00162D01*
X00944Y00162*
X00943Y00158*
X00943Y00151*
X00932*
X00931Y00163*
X00944*
X00944Y00163*
G37*
G36*
X0078Y00491D02*
X0078Y00492D01*
X00779Y00493*
X00778Y00493*
X00777Y00494*
X00776Y00494*
X00775Y00495*
X00774Y00495*
X00773Y00495*
X00772Y00496*
X00771Y00496*
Y00503*
X00772Y00503*
X00773Y00504*
X00774Y00504*
X00775Y00504*
X00776Y00505*
X00777Y00505*
X00778Y00506*
X00779Y00506*
X0078Y00507*
X0078Y00508*
Y00491*
G37*
G36*
X00946Y00113D02*
X00949Y00105D01*
X0095Y00104*
X00951Y00103*
X00952Y00103*
X00953Y00103*
X00953Y00104*
X00954Y00106*
X00945Y00059*
X00945Y00062*
X00945Y00064*
X00945Y00067*
X00945Y0007*
X00944Y00073*
X00943Y00081*
X00942Y00084*
X00939Y00093*
X00944Y00117*
X00946Y00113*
G37*
G36*
X00918Y00163D02*
X00918Y00162D01*
X00918Y00162*
X00918Y00158*
X00918Y00151*
X00906*
X00906Y00163*
X00918*
X00918Y00163*
G37*
G36*
X00893Y00155D02*
X00894Y0015D01*
X00894Y0015*
X00894Y00149*
X00894Y00148*
X00894Y00148*
X00895Y00148*
X00878*
X00878Y00148*
X00879Y00148*
X00879Y00149*
X00879Y0015*
X00879Y0015*
X00879Y00151*
X00879Y00153*
X00879Y00156*
X00893*
X00893Y00155*
G37*
G36*
X01217Y01322D02*
X01215Y01319D01*
X01214Y01316*
X01213Y01312*
X01212Y01308*
X01211Y01303*
X0121Y01292*
X0121Y01279*
X01171*
X01171Y01286*
X01169Y01303*
X01169Y01308*
X01168Y01312*
X01167Y01316*
X01165Y01319*
X01164Y01322*
X01163Y01324*
X01218*
X01217Y01322*
G37*
G36*
X0097Y00155D02*
X0097Y0015D01*
X0097Y0015*
X00971Y00149*
X00971Y00148*
X00971Y00148*
X00971Y00148*
X00955*
X00955Y00148*
X00955Y00148*
X00956Y00149*
X00956Y0015*
X00956Y0015*
X00956Y00151*
X00956Y00153*
X00956Y00156*
X0097*
X0097Y00155*
G37*
G36*
X01472Y01381D02*
Y00342D01*
X01467Y00339*
X01465Y00341*
X01459Y00343*
X01452Y00344*
X01253*
X01249Y00344*
X01244Y00345*
X01239Y00346*
X01235Y00347*
X01232Y00348*
X0123Y00349*
X01229Y0035*
X01228Y00351*
X01228Y00352*
X01228Y00353*
Y00395*
X01141*
Y00242*
X0117*
X0117Y00241*
X0117Y0024*
Y00206*
X0103*
X0103Y00207*
X01029Y00207*
Y00219*
X01028Y00225*
X01025Y0023*
X0102Y00233*
X01014Y00234*
X01009Y00233*
X01005Y0023*
X01001Y0023*
X00998Y0023*
X00994Y00233*
X00994Y00233*
Y00245*
X00972*
Y00255*
X00994*
Y00292*
X00972*
Y00302*
X00994*
Y00339*
X00972*
Y00344*
X00967*
Y00366*
X0093*
Y00344*
X0092*
Y00366*
X00882*
Y00344*
X00877*
Y00339*
X00856*
Y00302*
X00877*
Y00292*
X00856*
Y00255*
X00877*
Y00245*
X00856*
Y00233*
X00855Y00233*
X0085Y0023*
X00846*
X00841Y00233*
X00835Y00234*
X00829Y00233*
X00824Y0023*
X00821Y00225*
X0082Y00219*
Y00207*
X0082Y00207*
X00819Y00206*
X00799*
X00796Y00209*
Y00234*
X00796Y00234*
X00796Y00236*
X00796Y00237*
X00797Y00237*
X00797Y00238*
X00797Y00239*
X00798Y00239*
X00798Y00239*
X00799Y0024*
X00799Y0024*
X00799Y00241*
X00799Y00241*
X00801Y00242*
X00806Y00248*
X00809Y00255*
X0081Y00262*
X00809Y00269*
X00806Y00276*
X00801Y00282*
X00796Y00286*
X00789Y00289*
X00782Y0029*
X00775Y00289*
X00768Y00286*
X00762Y00282*
X00758Y00276*
X00755Y00269*
X00754Y00262*
X00755Y00255*
X00758Y00248*
X00762Y00242*
X00764Y00241*
X00764Y00241*
X00765Y0024*
X00765Y0024*
X00766Y00239*
X00766Y00239*
X00766Y00239*
X00767Y00238*
X00767Y00237*
X00767Y00237*
X00768Y00236*
X00768Y00234*
X00768Y00234*
Y00181*
X00747Y00161*
X00744Y00156*
X00743Y00151*
Y00083*
X00743Y00083*
X00743Y00083*
X00743Y00083*
X00743*
X00739Y00076*
X00737Y00068*
X00739Y00061*
X00743Y00054*
X0075Y0005*
X00757Y00048*
X00765Y0005*
X00772Y00054*
X00776Y00061*
X00776Y00061*
X00781Y00061*
Y00023*
X0049*
X00488Y00028*
X00497Y00038*
X00497Y00038*
X00498Y00038*
X005Y00039*
X00502Y0004*
X00504Y0004*
X00507Y00041*
X00518Y00042*
X00521Y00042*
X00523Y00041*
X00533Y00043*
X00542Y00047*
X0055Y00053*
X00556Y00061*
X0056Y0007*
X00561Y0008*
X0056Y0009*
X00556Y001*
X0055Y00108*
X00542Y00114*
X00533Y00118*
X00523Y00119*
X00513Y00118*
X00503Y00114*
X00495Y00108*
X00489Y001*
X00485Y0009*
X00484Y0008*
X00484Y00079*
X00484Y00075*
X00484Y00068*
X00483Y00064*
X00483Y00062*
X00482Y00059*
X00482Y00057*
X00481Y00056*
X0048Y00055*
X0048Y00055*
X00472Y00047*
X00453*
X00452Y00052*
X00458Y0006*
X00462Y0007*
X00463Y00075*
X00423*
Y0008*
X00418*
Y0012*
X00412Y0012*
X00402Y00116*
X00394Y00109*
X00391Y00105*
X00386Y00107*
Y00122*
X00385Y00126*
X00382Y0013*
X00351Y00162*
Y00175*
X00356Y00177*
X0036Y00174*
X00366Y00171*
X00374Y00171*
X00381Y00171*
X00387Y00174*
X00393Y00179*
X00398Y00184*
X004Y00191*
X00401Y00198*
X004Y00206*
X004Y00207*
X004Y00208*
X00402Y00211*
X00403Y00216*
Y00248*
X00419*
Y00334*
X00416*
X00414Y00339*
X00471Y00396*
X00482Y00385*
X00487Y00382*
X00492Y00381*
X00498Y00382*
X00502Y00385*
X00502Y00386*
X00508Y00386*
X00511Y00384*
Y00377*
X00481Y00347*
X00479Y00343*
X00478Y00338*
X00475Y00334*
X00462*
Y00248*
X00517*
Y00273*
X00522Y00275*
X00556Y00241*
Y00224*
X00556Y00224*
X00556Y00223*
X00556Y00223*
X00555Y00222*
X00549Y00218*
X00544Y00212*
X00542Y00206*
X00541Y00198*
X00542Y00191*
X00544Y00184*
X00549Y00179*
X00555Y00174*
X00561Y00171*
X00568Y00171*
X00576Y00171*
X00582Y00174*
X00588Y00179*
X00592Y00184*
X00595Y00191*
X00596Y00198*
X00595Y00206*
X00592Y00212*
X00588Y00218*
X00582Y00222*
X00581Y00223*
X00581Y00223*
X0058Y00224*
X0058Y00224*
Y00246*
X0058Y0025*
X00577Y00254*
X00532Y00299*
X00528Y00302*
X00523Y00303*
X00517*
Y00334*
X00509*
X00507Y00339*
X00532Y00363*
X00534Y00367*
X00535Y00372*
Y00392*
X00534Y00397*
X00532Y004*
X00527Y00405*
X00528Y00411*
X0053Y00413*
X00533Y00418*
X00534Y00423*
X00539Y00424*
X00544Y00427*
X00547Y00431*
X00548Y00435*
X00548Y00435*
X00554Y00436*
X00555Y00436*
X00525Y00467*
X00495Y00497*
X00494Y00496*
X00493Y0049*
X00493Y00489*
X0049Y00489*
X00485Y00486*
X00482Y00481*
X00481Y00476*
X00476Y00475*
X00471Y00472*
X00468Y00467*
X00467Y00462*
X00462Y00461*
X00457Y00458*
X00454Y00453*
X00453Y00448*
X00448Y00447*
X00443Y00444*
X0044Y00439*
X00439Y00434*
X0044Y00429*
X00443Y00424*
X00454Y00413*
X00383Y00342*
X0038Y00338*
X00379Y00334*
X00364*
Y00248*
X00379*
Y00229*
X00375Y00226*
X00374Y00226*
X00366Y00225*
X0036Y00222*
X00356Y00219*
X00351Y00221*
Y004*
X00356Y00401*
X00357Y00399*
X00362Y00396*
X00367Y00395*
X00368Y0039*
X00371Y00385*
X00375Y00382*
X00381Y00381*
X00386Y00382*
X00391Y00385*
X0043Y00424*
X00433Y00429*
X00434Y00434*
X00433Y00439*
X0043Y00444*
X00425Y00447*
X0042Y00448*
X00419Y00453*
X00416Y00458*
X00411Y00461*
X00406Y00462*
X00405Y00467*
X00402Y00472*
X00397Y00475*
X00392Y00476*
X00391Y00481*
X00388Y00486*
X00386Y00487*
X00385Y00493*
X0043Y00539*
X00474*
X00475Y00539*
X00475Y00538*
X00475Y00538*
X00476Y00538*
X00476Y00538*
X00477Y00538*
X00477Y00537*
X00477Y00536*
X00484Y00532*
X00492Y00531*
X00499Y00532*
X00506Y00536*
X0051Y00543*
X00512Y00551*
X0051Y00558*
X00506Y00565*
X00505Y00565*
X00505Y00566*
X00504Y00566*
X00504Y00567*
X00504Y00567*
X00504Y00567*
X00504Y00568*
X00504Y00568*
Y00612*
X00547Y00656*
X00553Y00655*
X00555Y00652*
X00559Y00649*
X00564Y00648*
X00566Y00643*
X00569Y00638*
X00571Y00637*
X00572Y00631*
X00568Y00627*
X00565Y00623*
X00564Y00618*
Y00609*
X00564Y00609*
X00564Y00609*
X00564Y00608*
X00564Y00608*
X00563Y00608*
X00563Y00607*
X00563Y00607*
X00562Y00606*
X00558Y006*
X00556Y00592*
X00558Y00584*
X00562Y00578*
X00567Y00574*
X00568Y0057*
X00568Y00568*
X00566Y00565*
X00564Y00559*
X00559Y00558*
X00558Y00558*
X00554Y00561*
X00555Y00566*
X00553Y00574*
X00549Y00581*
X00543Y00585*
X00535Y00587*
X00527Y00585*
X00521Y00581*
X00516Y00574*
X00515Y00566*
X00516Y00559*
X00521Y00552*
X00522Y00552*
X00522Y00551*
X00522Y00551*
X00522Y00551*
X00523Y0055*
X00523Y0055*
X00523Y00549*
X00523Y00549*
Y00547*
X00524Y00543*
X00526Y00539*
X0053Y00535*
X00529Y00529*
X00527Y00527*
X00524Y00523*
X00523Y00518*
X00517Y00517*
X00513Y00514*
X0051Y00509*
X00509Y00506*
X00509Y00506*
X00503Y00505*
X00502Y00504*
X00532Y00474*
X00564Y00442*
X00567Y00442*
X00574Y00436*
X00577Y00433*
X00582Y00432*
X00635*
X00638Y00428*
X00628Y00418*
X00667Y00379*
X00706Y00418*
X00681Y00443*
X00683Y00448*
X00807*
X00811Y00449*
X00814Y00451*
X00817Y0045*
X00819Y00448*
X00818Y00443*
Y00422*
X00835*
Y00417*
X0084*
Y00374*
X00842Y00374*
X00847Y00378*
X00853Y00378*
X00855Y00376*
X00861Y00375*
X00866Y00376*
X00871Y0038*
X00876*
X00881Y00376*
X00886Y00375*
X00892Y00376*
X00896Y00379*
X00899Y00379*
X00902Y00379*
X00906Y00376*
X00912Y00375*
X00918Y00376*
X00923Y0038*
X00927*
X00932Y00376*
X00937Y00375*
X00943Y00376*
X00947Y00379*
X0095Y00379*
X00954Y00379*
X00957Y00376*
X00963Y00375*
X00969Y00376*
X00974Y0038*
X00978*
X00983Y00376*
X00989Y00375*
X00994Y00376*
X00996Y00378*
X01002Y00378*
X01008Y00374*
X01009Y00374*
Y00417*
Y0046*
X01008Y00459*
X01006Y00458*
X01001Y00461*
Y00698*
Y00763*
X01Y00768*
X00997Y00772*
X00993Y00774*
X00989Y00775*
X00954*
Y00791*
X00899*
Y00736*
X00954*
Y00751*
X00977*
Y0071*
X0095*
X0095Y0071*
X0095Y0071*
X00949Y00711*
X00949Y00712*
X00944Y00718*
X00939Y00722*
X00932Y00725*
X00925Y00726*
X00918Y00725*
X00911Y00722*
X00905Y00718*
X00901Y00712*
X00898Y00706*
X00897Y00698*
X00898Y00691*
X00901Y00684*
X00905Y00679*
X00911Y00674*
X00918Y00671*
X00925Y00671*
X00932Y00671*
X00939Y00674*
X00944Y00679*
X00949Y00684*
X00949Y00686*
X0095Y00686*
X0095Y00686*
X0095Y00686*
X00977*
Y00645*
X00975Y00644*
X00972Y00643*
X00969Y00644*
X00964Y00645*
X00952*
X00952Y00645*
X00952Y00646*
X00951Y00646*
X00951Y00647*
X00946Y00653*
X00941Y00657*
X00934Y0066*
X00927Y00661*
X00919Y0066*
X00913Y00657*
X00907Y00653*
X00903Y00647*
X009Y00641*
X00899Y00633*
X009Y00626*
X00903Y00619*
X00907Y00614*
X00913Y00609*
X00919Y00607*
X00927Y00606*
X00934Y00607*
X00941Y00609*
X00946Y00614*
X00947Y00615*
X00952Y00613*
Y00596*
X00899*
Y00541*
X00904*
X00908Y00536*
X00907Y00531*
X00908Y00523*
X00912Y00517*
X00919Y00512*
X00927Y00511*
X00934Y00512*
X00941Y00517*
X00945Y00523*
X00947Y00531*
X00946Y00536*
X00949Y00541*
X00954*
Y00556*
X00964*
X00969Y00557*
X00972Y00559*
X00975Y00558*
X00977Y00557*
Y00497*
X00972Y00494*
X00971Y00495*
X00963Y00497*
X00955Y00495*
X00949Y00491*
X00945Y00485*
X00944Y00484*
X00939Y00483*
X00891Y00532*
X00887Y00534*
X00882Y00535*
X00793*
X00791Y0054*
X00808Y00556*
X00828*
Y00541*
X00883*
Y00596*
X00828*
Y0058*
X00803*
X00798Y0058*
X00794Y00577*
X00768Y00551*
X0066*
X00659Y00552*
X00659Y00552*
X00658Y00553*
Y00553*
X00658Y00553*
X00658Y00554*
X00657Y00555*
X00657Y00555*
X00657Y00555*
X00655Y00558*
X00616Y00597*
X00612Y006*
X00606Y00601*
X00601Y006*
X006Y00599*
X00595Y006*
X0059Y00606*
X00591Y0061*
X00591Y00611*
X00596Y00611*
X00601Y00608*
X00606Y00606*
X00612Y00608*
X00616Y00611*
X00627Y00622*
X00642Y00607*
X00646Y00605*
X0065Y00604*
X00746*
X0075Y00605*
X00754Y00607*
X00757Y0061*
X00759Y00609*
X00778*
Y00628*
X00777Y0063*
X00805Y00658*
X00808Y00662*
X00809Y00667*
Y00735*
X00823Y00749*
X00828Y00747*
Y00736*
X00883*
Y00791*
X00828*
Y00775*
X0082*
X00816Y00774*
X00812Y00772*
X00788Y00748*
X00786Y00744*
X00785Y0074*
Y00672*
X00751Y00638*
X00747Y00641*
X00748Y00647*
X00746Y00655*
X00742Y00661*
X00741Y00662*
X00741Y00662*
X00741Y00663*
X0074Y00663*
X0074Y00663*
X0074Y00664*
X0074Y00664*
X0074Y00664*
Y00765*
X00739Y0077*
X00736Y00774*
X00626Y00884*
Y00963*
X00631Y00964*
X00633Y0096*
X00641Y00955*
X00644Y00955*
Y00976*
Y00997*
X00641Y00996*
X00633Y00992*
X00631Y00988*
X00626Y00989*
Y01039*
X00625Y01043*
X00622Y01047*
Y01047*
X00613Y01057*
Y01085*
X00623*
Y01102*
X00628Y01104*
X00648Y01084*
X00652Y01081*
X00657Y0108*
X00657*
Y01065*
X00712*
Y01117*
X00728*
Y01065*
X00783*
Y0108*
X00795*
Y01037*
X00781*
X00781Y01037*
X0078Y01037*
X0078Y01037*
X00779Y01039*
X00775Y01045*
X00769Y01049*
X00763Y01052*
X00755Y01053*
X00748Y01052*
X00742Y01049*
X00736Y01045*
X00731Y01039*
X00729Y01032*
X00728Y01025*
X00729Y01018*
X00731Y01011*
X00736Y01005*
X00742Y01001*
X00748Y00998*
X00755Y00997*
X00763Y00998*
X00769Y01001*
X00775Y01005*
X00779Y01011*
X0078Y01013*
X0078Y01013*
X00781Y01013*
X00781Y01013*
X00802*
X00841Y00973*
X00843Y00972*
X00843Y00971*
X00843Y00971*
X00843Y00971*
X00844Y0097*
X00844Y0097*
X00844Y00969*
X00844Y00969*
X00844Y00968*
X00845Y0096*
X00849Y00954*
X00856Y00949*
X00864Y00948*
X00871Y00949*
X00878Y00954*
X00882Y0096*
X00884Y00968*
X00882Y00976*
X00878Y00982*
X00876Y00984*
X00878Y00988*
X00881Y00987*
X00891Y00985*
X00901Y00987*
X0091Y0099*
X00918Y00996*
X00924Y01004*
X00928Y01013*
X00929Y01023*
X00928Y01033*
X00924Y01042*
X00918Y0105*
X0091Y01056*
X00901Y0106*
X00891Y01061*
X00881Y0106*
X00872Y01056*
X00865Y0105*
X00859Y01042*
X00855Y01033*
X00854Y01023*
X00855Y01013*
X00858Y01007*
X00858Y01006*
X0085Y00999*
X00819Y0103*
Y01092*
Y01102*
X00818Y01106*
X00815Y0111*
X00788Y01138*
X00784Y01141*
X00779Y01141*
X00716*
X00714Y01146*
X00717Y01151*
X00718Y01159*
X00717Y01167*
X00713Y01173*
X00706Y01177*
X00698Y01179*
X00691Y01177*
X00687Y01175*
X00683Y01179*
X00683Y01179*
X00685Y01187*
X00683Y01194*
X00679Y01201*
X00673Y01205*
X00665Y01207*
X00657Y01205*
X00651Y01201*
X0065Y012*
X0065Y012*
X00649Y01199*
X00649Y01199*
X00649Y01199*
X00648Y01199*
X00648Y01199*
X00648Y01199*
X00645*
X00641Y01198*
X00637Y01195*
X00631Y01189*
X00623*
Y01191*
X00615*
X00615Y01191*
X00615Y01191*
X00582*
Y01197*
X00576*
Y01237*
X0047*
Y01197*
X00464*
Y01191*
X00432*
X00432Y01191*
X00431Y01191*
X00424*
Y01189*
X00416*
X00415Y01189*
X00415Y01189*
X00415Y0119*
X00414Y0119*
X00414Y0119*
X00414Y0119*
X00413Y01191*
X00413Y01191*
X00406Y01196*
X00399Y01197*
X00391Y01196*
X00384Y01191*
X0038Y01185*
X00378Y01177*
X0038Y0117*
X00384Y01163*
X00391Y01159*
X00393Y01158*
X00394Y01154*
X00377Y01136*
X00375Y01133*
X00372Y01133*
X0037Y01133*
X00361*
X00359Y01138*
X00361Y0114*
X00365Y01145*
X00366Y01151*
Y01167*
X00365Y01173*
X00361Y01178*
X00356Y01182*
X0035Y01183*
X00334*
X00328Y01182*
X00323Y01178*
X00319Y01173*
X00318Y01167*
Y01151*
X00319Y01145*
X00323Y0114*
X00325Y01138*
X00323Y01133*
X00314*
Y01078*
X00368*
X0037*
X00373Y01075*
Y01066*
X0037Y01062*
X00314*
Y0103*
X00314Y01029*
X00307Y0103*
X00281Y01056*
X00283Y01061*
X00309*
Y01116*
X00222*
Y01105*
X00222Y01105*
X00221Y01105*
X00219Y01104*
X00218Y01104*
X00195*
Y01167*
X00194Y0117*
X00192Y01172*
X00192Y01178*
X00196Y01182*
X00218*
X00219Y01182*
X00221Y01182*
X00222Y01182*
X00222Y01182*
Y01171*
X00309*
Y01226*
X00222*
Y01215*
X00222Y01215*
X00221Y01215*
X00219Y01214*
X00218Y01214*
X00195*
Y01236*
X00194Y01239*
X00192Y01241*
X0019Y01243*
X00187Y01244*
X00098*
X00097Y01244*
X00097Y01244*
X00096Y01243*
X00095Y01243*
X00094Y01243*
X00094Y01243*
X00093Y01242*
X00092Y01241*
X00092Y01241*
X00092Y01241*
X00091Y0124*
X0009Y01239*
X00089Y01238*
X00084Y01236*
X00082Y01237*
X00075Y01238*
X00038*
X00031Y01237*
X00028Y01236*
X00023Y01239*
Y01381*
X00114Y01472*
X00237*
X00238Y01467*
X00237Y01466*
X00233Y0146*
X00231Y01452*
X00233Y01445*
X00237Y01438*
X00244Y01434*
X00251Y01432*
X00259Y01434*
X00263Y01436*
X00265Y01436*
X0093*
X00958Y01408*
Y01312*
X00959Y01306*
X00963Y01301*
X01009Y01254*
X01012Y01251*
X01014Y01249*
X01015Y01247*
Y01241*
X01015Y01241*
X01015Y01241*
Y01165*
X01125*
Y01177*
X01126Y01179*
X01126Y0118*
X01127Y01181*
X01129Y01183*
X01131Y01184*
X01134Y01186*
X01138Y01187*
X01144Y01188*
X0115Y01188*
X01154Y01188*
X01219*
X01226Y01189*
X01232Y01192*
X01238Y01196*
X01289Y01247*
X01293Y01253*
X01296Y01259*
X01297Y01267*
X01296Y01274*
X01293Y01281*
X01289Y01286*
X01283Y01291*
X01276Y01293*
X01269Y01294*
X01262Y01293*
X01255Y01291*
X0125Y01286*
X01223Y0126*
X01218Y01262*
Y01282*
X01218Y01292*
X01219Y01302*
X0122Y01306*
X01221Y0131*
X01222Y01313*
X01223Y01316*
X01224Y01318*
X01225Y0132*
X01225Y0132*
X01227Y01323*
X01228Y0133*
Y01354*
X01227Y01362*
X01222Y01368*
X01216Y01372*
X01208Y01374*
X01173*
X01165Y01372*
X01159Y01368*
X01154Y01362*
X01153Y01354*
Y0133*
X01154Y01323*
X01156Y0132*
X01156Y0132*
X01157Y01318*
X01158Y01316*
X01159Y01313*
X0116Y0131*
X01161Y01306*
X01161Y01302*
X01163Y01286*
Y01244*
X01154*
X0115Y01244*
X01144Y01244*
X01138Y01245*
X01134Y01246*
X01131Y01248*
X01129Y01249*
X01127Y01251*
X01126Y01252*
X01126Y01253*
X01125Y01255*
Y01267*
X01049*
X01049Y01267*
X01049Y01267*
X01044*
X01043Y01268*
X01041Y01269*
X01036Y01273*
X0099Y01319*
Y01415*
X00989Y01421*
X00985Y01426*
X00948Y01464*
X00943Y01467*
X00943Y01467*
X00944Y01472*
X01013*
Y01426*
X0107*
X01128*
Y01472*
X01381*
X01472Y01381*
G37*
G36*
X00828Y00181D02*
X00828Y00182D01*
X00828Y00183*
X00827Y00184*
X00826Y00184*
X00825Y00185*
X00824Y00186*
X00823Y00186*
X00821Y00186*
X00819Y00186*
X00816Y00187*
Y00198*
X00819Y00198*
X00821Y00199*
X00823Y00199*
X00824Y00199*
X00825Y002*
X00826Y002*
X00827Y00201*
X00828Y00202*
X00828Y00203*
X00828Y00204*
Y00181*
G37*
G36*
X01021Y00203D02*
X01022Y00202D01*
X01022Y00201*
X01023Y002*
X01024Y002*
X01025Y00199*
X01027Y00199*
X01029Y00199*
X01031Y00198*
X01033Y00198*
Y00187*
X01031Y00186*
X01029Y00186*
X01027Y00186*
X01025Y00186*
X01024Y00185*
X01023Y00184*
X01022Y00184*
X01022Y00183*
X01021Y00182*
X01021Y00181*
Y00204*
X01021Y00203*
G37*
G36*
X0023Y01183D02*
X0023Y01184D01*
X00229Y01185*
X00229Y01187*
X00228Y01188*
X00226Y01188*
X00224Y01189*
X00222Y0119*
X0022Y0119*
X00217Y0119*
X00214Y0119*
Y01206*
X00217Y01206*
X0022Y01207*
X00222Y01207*
X00224Y01207*
X00226Y01208*
X00228Y01209*
X00229Y0121*
X00229Y01211*
X0023Y01213*
X0023Y01214*
Y01183*
G37*
G36*
X0103Y01267D02*
X01036Y01263D01*
X01038Y01261*
X01041Y0126*
X01043Y01259*
X01045Y01258*
X01046Y01258*
X01048Y01259*
X01049Y01259*
X01043Y01255*
X01057Y01242*
X01061Y0124*
X01064Y01238*
X01066Y01237*
X01068Y01236*
X0107Y01236*
X01051Y01216*
X0105Y01218*
X0105Y0122*
X01048Y01223*
X01046Y01226*
X01044Y01229*
X01038Y01237*
X0103Y01245*
X01023Y01241*
X01024Y01242*
X01025Y01243*
X01025Y01245*
X01025Y01247*
X01024Y01249*
X01022Y01251*
X01021Y01254*
X01018Y01257*
X01012Y01263*
X01027Y0127*
X0103Y01267*
G37*
G36*
X00623Y00522D02*
X00623Y00521D01*
X00624Y00521*
X00624Y0052*
X00625Y00519*
X00626Y00517*
X00628Y00516*
X00629Y00514*
X00623Y00509*
X00622Y0051*
X00619Y00513*
X00618Y00514*
X00617Y00514*
X00616Y00514*
X00616Y00515*
X00615Y00515*
X00623Y00523*
X00623Y00522*
G37*
G36*
X00542Y00557D02*
X00542Y00556D01*
X00541Y00555*
X0054Y00554*
X0054Y00553*
X0054Y00552*
X00539Y00551*
X00539Y0055*
X00539Y00549*
X00539Y00548*
X00531*
X00531Y00549*
X00531Y0055*
X00531Y00551*
X0053Y00552*
X0053Y00553*
X00529Y00554*
X00529Y00555*
X00528Y00556*
X00527Y00557*
X00527Y00558*
X00543*
X00542Y00557*
G37*
G36*
X00272Y00501D02*
X00271Y00501D01*
X00271Y00501*
X0027Y005*
X00269Y005*
X00268Y00499*
X00267Y00498*
X00265Y00496*
X00264Y00495*
X00258Y00501*
X00259Y00502*
X00262Y00505*
X00263Y00506*
X00263Y00507*
X00264Y00507*
X00264Y00508*
X00264Y00509*
X00272Y00501*
G37*
G36*
X00867Y00163D02*
X00867Y00162D01*
X00867Y00157*
X00866Y00146*
X00854Y00148*
X00854Y00163*
X00867*
X00867Y00163*
G37*
G36*
X00546Y00542D02*
X0055Y00539D01*
X0055Y00538*
X00551Y00538*
X00552Y00537*
X00552Y00537*
X00553Y00537*
X00545Y00529*
X00545Y0053*
X00545Y0053*
X00544Y00531*
X00544Y00532*
X00543Y00533*
X00542Y00534*
X0054Y00536*
X00539Y00537*
X00545Y00543*
X00546Y00542*
G37*
G36*
X00651Y0055D02*
X00651Y00549D01*
X00652Y00549*
X00652Y00548*
X00653Y00547*
X00654Y00545*
X00656Y00543*
X00657Y00542*
X00651Y00537*
X0065Y00538*
X00646Y00541*
X00646Y00541*
X00645Y00542*
X00644Y00542*
X00644Y00543*
X00643Y00543*
X00651Y0055*
X00651Y0055*
G37*
G36*
X00931Y00549D02*
X00935D01*
X00934Y00549*
X00933Y00549*
X00933Y00548*
X00932Y00548*
X00932Y00547*
X00931Y00546*
X00931Y00546*
X00931Y00545*
X00932Y00544*
X00932Y00543*
X00933Y00542*
X00933Y00541*
X00934Y0054*
X00935Y00539*
X00918*
X00919Y0054*
X0092Y00541*
X00921Y00542*
X00921Y00543*
X00922Y00544*
X00922Y00545*
X00922Y00546*
X00922Y00546*
X00922Y00547*
X00921Y00548*
X00921Y00548*
X0092Y00549*
X0092Y00549*
X00919Y00549*
X00923*
X00923Y00549*
X00931*
X00931Y00549*
G37*
G36*
X00836Y00085D02*
X00834Y00084D01*
X00829Y00079*
X00829Y00079*
X00828Y00079*
X00828Y00079*
X00828Y00079*
Y00093*
X00836Y00085*
G37*
G36*
X00763Y00084D02*
X00763Y00082D01*
X00764Y00081*
X00764Y0008*
X00764Y00079*
X00764Y00079*
X00765Y00078*
X00765Y00077*
X00766Y00077*
X00749*
X0075Y00077*
X0075Y00078*
X0075Y00079*
X00751Y00079*
X00751Y0008*
X00751Y00081*
X00751Y00082*
X00751Y00083*
X00751Y00086*
X00763*
X00763Y00084*
G37*
G36*
X00637Y00536D02*
X00637Y00535D01*
X00638Y00535*
X00638Y00534*
X00639Y00533*
X0064Y00531*
X00642Y00529*
X00643Y00528*
X00637Y00523*
X00636Y00524*
X00632Y00527*
X00632Y00528*
X00631Y00528*
X0063Y00528*
X0063Y00529*
X00629Y00529*
X00637Y00536*
X00637Y00536*
G37*
G36*
X01472Y00295D02*
Y00114D01*
X01381Y00023*
X0107*
Y00114*
X01017*
X01017Y00114*
X01009Y00129*
X01004Y00145*
X01004Y00149*
X01009Y00152*
X01014Y00151*
X0102Y00152*
X01025Y00155*
X01028Y0016*
X01029Y00166*
Y00178*
X0103Y00178*
X0103Y00178*
X0117*
Y00154*
X0117Y00153*
X0117Y00152*
X0117Y00151*
X0117Y00151*
X0117Y0015*
X01169Y0015*
X01169Y0015*
X01169Y0015*
X01169Y0015*
X01166Y00148*
X01158Y00142*
X01152Y00135*
X01148Y00125*
X01147Y00116*
X01148Y00106*
X01152Y00097*
X01158Y00089*
X01166Y00083*
X01175Y00079*
X01185Y00078*
X01194Y00079*
X01203Y00083*
X01211Y00089*
X01217Y00097*
X01221Y00106*
X01222Y00116*
X01221Y00125*
X01217Y00135*
X01211Y00142*
X01203Y00148*
X012Y0015*
X012Y0015*
X012Y0015*
X012Y0015*
X01199Y0015*
X01199Y00151*
X01199Y00151*
X01199Y00152*
X01199Y00153*
X01199Y00154*
Y00192*
Y0024*
X01199Y00241*
X01199Y00242*
X01228*
Y00283*
X01228Y00285*
X01228Y00286*
X01229Y00287*
X0123Y00288*
X01232Y00289*
X01235Y0029*
X01239Y00291*
X01244Y00292*
X01249Y00292*
X01253Y00293*
X01452*
X01459Y00293*
X01465Y00296*
X01467Y00297*
X01472Y00295*
G37*
G36*
X00828Y00094D02*
X00828Y00094D01*
X00828Y00094*
X00828Y00093*
X00828Y00093*
X00828Y00093*
X00828Y00093*
X00827Y00093*
X00827Y00094*
X00828Y00094*
X00828Y00094*
X00828Y00094*
G37*
G36*
X00376Y00496D02*
X00375Y00494D01*
X00371Y00491*
X00371Y0049*
X0037Y00489*
X0037Y00489*
X0037Y00488*
X0037Y00487*
X00362Y00495*
X00362Y00495*
X00363Y00496*
X00364Y00496*
X00364Y00496*
X00365Y00497*
X00367Y00498*
X00369Y005*
X0037Y00501*
X00376Y00496*
G37*
G36*
X01191Y00154D02*
X01191Y00152D01*
X01191Y0015*
X01191Y00149*
X01192Y00147*
X01193Y00146*
X01193Y00145*
X01194Y00144*
X01195Y00143*
X01196Y00143*
X01173*
X01174Y00143*
X01175Y00144*
X01176Y00145*
X01177Y00146*
X01177Y00147*
X01178Y00149*
X01178Y0015*
X01178Y00152*
X01179Y00154*
X01179Y00156*
X0119*
X01191Y00154*
G37*
G36*
X00995Y00163D02*
X00995Y00162D01*
X00995Y00161*
X00995Y00159*
X00995Y00151*
X00996Y00148*
X00984Y00146*
X00982Y00163*
X00995*
X00995Y00163*
G37*
G36*
X00483Y00542D02*
X00482Y00543D01*
X00481Y00544*
X00481Y00545*
X0048Y00545*
X00479Y00546*
X00478Y00546*
X00477Y00546*
X00476Y00547*
X00475Y00547*
X00473Y00547*
Y00555*
X00475Y00555*
X00476Y00555*
X00477Y00555*
X00478Y00555*
X00479Y00556*
X0048Y00556*
X00481Y00557*
X00481Y00557*
X00482Y00558*
X00483Y00559*
Y00542*
G37*
G36*
X01023Y00075D02*
X01023Y00076D01*
X01023Y00077*
X01022Y00077*
X01022Y00078*
X01021Y00079*
X01019Y00082*
X01015Y00086*
X01022Y00095*
X01022Y00095*
X01023Y00095*
X01023Y00095*
X01023Y00095*
X01023Y00095*
X01023Y00095*
X01023Y00096*
X01023Y00096*
X01023Y00096*
X01023Y00097*
Y00075*
G37*
G36*
X00912Y00094D02*
X0091Y00088D01*
X00907Y00075*
X00907Y00071*
X00906Y00063*
Y0006*
X00906Y00057*
X00907Y00054*
X00897Y00106*
X00897Y00104*
X00898Y00103*
X00899Y00102*
X00899Y00102*
X009Y00103*
X00901Y00105*
X00902Y00107*
X00903Y0011*
X00906Y00117*
X00912Y00094*
G37*
G36*
X00327Y00117D02*
X00327Y00116D01*
X00327Y00114*
X00327Y00113*
X00328Y00112*
X00328Y00112*
X00329Y00111*
X00329Y00111*
X0033Y00111*
X00331Y0011*
X00315*
X00316Y00111*
X00316Y00111*
X00317Y00111*
X00317Y00112*
X00318Y00112*
X00318Y00113*
X00318Y00114*
X00319Y00116*
X00319Y00117*
X00319Y00118*
X00327*
X00327Y00117*
G37*
G36*
X00946Y00576D02*
X00947Y00575D01*
X00947Y00574*
X00947Y00574*
X00948Y00573*
X00949Y00573*
X0095Y00573*
X00951Y00572*
X00953Y00572*
X00954Y00572*
Y00564*
X00953Y00564*
X00951Y00564*
X0095Y00564*
X00949Y00564*
X00948Y00563*
X00947Y00563*
X00947Y00563*
X00947Y00562*
X00946Y00561*
X00946Y00561*
Y00576*
X00946Y00576*
G37*
G36*
X00836Y00561D02*
X00836Y00561D01*
X00836Y00562*
X00836Y00563*
X00835Y00563*
X00834Y00563*
X00833Y00564*
X00832Y00564*
X00831Y00564*
X0083Y00564*
X00828Y00564*
Y00572*
X0083Y00572*
X00831Y00572*
X00832Y00573*
X00833Y00573*
X00834Y00573*
X00835Y00574*
X00836Y00574*
X00836Y00575*
X00836Y00576*
X00836Y00576*
Y00561*
G37*
G36*
X00775Y011D02*
X00775Y01099D01*
X00775Y01098*
X00776Y01098*
X00777Y01097*
X00778Y01097*
X00779Y01097*
X0078Y01097*
X00781Y01096*
X00783Y01096*
Y01089*
X00781Y01089*
X0078Y01088*
X00779Y01088*
X00778Y01088*
X00777Y01088*
X00776Y01087*
X00775Y01087*
X00775Y01086*
X00775Y01085*
X00775Y01085*
Y011*
X00775Y011*
G37*
G36*
X00608Y01093D02*
X00607Y01093D01*
X00606Y01092*
X00606Y01092*
X00605Y01091*
X00605Y0109*
X00605Y01089*
X00605Y01088*
X00604Y01086*
X00604Y01085*
X00597*
X00597Y01086*
X00596Y01088*
X00596Y01089*
X00596Y0109*
X00596Y01091*
X00595Y01092*
X00595Y01092*
X00594Y01093*
X00593Y01093*
X00593Y01093*
X00608*
X00608Y01093*
G37*
G36*
X00522Y0005D02*
X00518Y0005D01*
X00506Y00049*
X00502Y00048*
X00499Y00047*
X00497Y00047*
X00495Y00046*
X00493Y00044*
X00491Y00043*
X00486Y00049*
X00487Y0005*
X00488Y00052*
X00489Y00054*
X0049Y00057*
X00491Y0006*
X00491Y00063*
X00492Y00067*
X00492Y00075*
X00492Y0008*
X00522Y0005*
G37*
G36*
X00615Y01124D02*
X00615Y01123D01*
X00615Y01123*
X00616Y01123*
X00617Y01123*
X00618Y01122*
X00619Y01122*
X00621Y01122*
X00623Y01122*
Y01114*
X00621Y01114*
X00618Y01114*
X00617Y01114*
X00616Y01114*
X00615Y01113*
X00615Y01113*
X00615Y01113*
X00615Y01112*
Y01124*
X00615Y01124*
G37*
G36*
X00187Y01214D02*
X00183Y01213D01*
X00178Y0121*
X00146Y01178*
X00141Y01177*
X00135Y01173*
X00131Y01166*
X00129Y01158*
X00131Y01151*
X00135Y01144*
X00141Y0114*
X00149Y01138*
X00157Y0114*
X00163Y01144*
X00168Y01151*
X00168Y01155*
X0017Y01156*
X00182Y01168*
X00187Y01167*
Y01104*
X00159*
X00157Y01109*
X00157Y01109*
X00158Y01116*
X00157Y01122*
X00153Y01128*
X00148Y01131*
X00141Y01133*
X00135Y01131*
X00129Y01128*
X00125Y01122*
X00124Y01116*
X00125Y01109*
X00129Y01104*
X00132Y01099*
X00128Y01094*
X00127Y01088*
X00128Y01082*
X00132Y01077*
Y01074*
X00128Y01069*
X00127Y01062*
X00128Y01056*
X00132Y01051*
Y01048*
X00128Y01043*
X00127Y01037*
X00128Y01031*
X00132Y01026*
Y01023*
X00128Y01017*
X00127Y01011*
X00128Y01005*
X00132Y01*
Y00997*
X00128Y00992*
X00127Y00986*
X00128Y0098*
X00132Y00974*
X00129Y0097*
X00125Y00965*
X00124Y00958*
X00125Y00952*
X00129Y00946*
X00135Y00942*
X00141Y00941*
X00148Y00942*
X00153Y00946*
X00157Y00952*
X00158Y00958*
X00157Y00965*
X00157Y00965*
X00159Y0097*
X00181*
X00183Y0097*
X00187Y00967*
Y00807*
X00086*
Y00824*
X00069*
Y00834*
X00075*
X00083Y00835*
X0009Y00838*
X00096Y00842*
X001Y00848*
X00103Y00855*
X00104Y00863*
Y00884*
X00057*
Y00894*
X00104*
Y00916*
X00103Y00923*
X001Y0093*
X00096Y00936*
X0009Y00941*
X00086Y00943*
Y00948*
X0009Y0095*
X00096Y00954*
X001Y0096*
X00103Y00967*
X00104Y00975*
Y01032*
X00057*
Y01042*
X00104*
Y01099*
X00103Y01106*
X001Y01113*
X00096Y01119*
X0009Y01124*
X00086Y01126*
Y01131*
X0009Y01133*
X00096Y01138*
X001Y01143*
X00103Y0115*
X00104Y01158*
Y0118*
X00057*
Y0119*
X00104*
Y01211*
X00103Y01219*
X001Y01226*
X00096Y01231*
X00098Y01236*
X00187*
Y01214*
G37*
G36*
X00496Y00568D02*
X00496Y00567D01*
X00496Y00566*
X00496Y00565*
X00497Y00564*
X00497Y00563*
X00498Y00562*
X00498Y00561*
X00499Y0056*
X005Y00559*
X00483*
X00484Y0056*
X00485Y00561*
X00486Y00562*
X00486Y00563*
X00487Y00564*
X00487Y00565*
X00487Y00566*
X00488Y00567*
X00488Y00568*
X00488Y00569*
X00496*
X00496Y00568*
G37*
G36*
X00185Y01069D02*
X00186Y01069D01*
X00187Y01068*
X00188Y01068*
X00189Y01067*
X0019Y01067*
X00191Y01067*
X00193Y01067*
X00194Y01066*
X00195Y01066*
Y01059*
X00194Y01059*
X00193Y01058*
X00191Y01058*
X0019Y01058*
X00189Y01058*
X00188Y01057*
X00187Y01057*
X00186Y01056*
X00185Y01056*
X00184Y01055*
Y0107*
X00185Y01069*
G37*
G36*
X00271Y01082D02*
X0027Y01081D01*
X0027Y0108*
X0027Y01079*
X00269Y01076*
X00269Y01069*
X00273*
X00272Y01069*
X00272Y01068*
X00271Y01068*
X00271Y01067*
X0027Y01067*
X0027Y01066*
X0027Y01065*
X00269Y01064*
X00269Y01062*
X00269Y01061*
X00261*
X00261Y01062*
X00261Y01064*
X00261Y01065*
X00261Y01066*
X0026Y01067*
X0026Y01067*
X00259Y01068*
X00259Y01068*
X00258Y01069*
X00257Y01069*
X00261*
X00261Y0108*
X0026Y01081*
X0026Y01082*
X0026Y01083*
X00271*
X00271Y01082*
G37*
G36*
X0026Y0146D02*
X0026Y0146D01*
X00261Y0146*
X00262Y0146*
X00266Y0146*
X00267*
Y01444*
X0026Y01444*
Y01461*
X0026Y0146*
G37*
G36*
X00609Y00508D02*
X00609Y00507D01*
X0061Y00507*
X0061Y00506*
X00611Y00505*
X00612Y00504*
X00614Y00502*
X00615Y00501*
X00609Y00495*
X00608Y00496*
X00605Y00499*
X00604Y005*
X00603Y005*
X00602Y00501*
X00602Y00501*
X00601Y00501*
X00609Y00509*
X00609Y00508*
G37*
G36*
X0023Y01072D02*
X0023Y01074D01*
X00229Y01075*
X00229Y01076*
X00228Y01077*
X00226Y01078*
X00224Y01079*
X00222Y0108*
X0022Y0108*
X00217Y0108*
X00214Y0108*
Y01096*
X00217Y01096*
X0022Y01096*
X00222Y01097*
X00224Y01097*
X00226Y01098*
X00228Y01099*
X00229Y011*
X00229Y01101*
X0023Y01102*
X0023Y01104*
Y01072*
G37*
G36*
X00665Y01085D02*
X00665Y01085D01*
X00665Y01086*
X00664Y01087*
X00664Y01087*
X00663Y01088*
X00662Y01088*
X00661Y01088*
X0066Y01088*
X00658Y01089*
X00657Y01089*
Y01096*
X00658Y01096*
X0066Y01097*
X00661Y01097*
X00662Y01097*
X00663Y01097*
X00664Y01098*
X00664Y01098*
X00665Y01099*
X00665Y011*
X00665Y011*
Y01085*
G37*
G36*
X00572Y00224D02*
X00572Y00223D01*
X00573Y00222*
X00573Y0022*
X00573Y0022*
X00574Y00219*
X00574Y00218*
X00575Y00217*
X00576Y00217*
X00576Y00216*
X00561*
X00561Y00217*
X00562Y00217*
X00563Y00218*
X00563Y00219*
X00563Y0022*
X00564Y0022*
X00564Y00222*
X00564Y00223*
X00564Y00224*
X00564Y00225*
X00572*
X00572Y00224*
G37*
G36*
X00394Y00213D02*
X00393Y00212D01*
X00392Y0021*
X00391Y0021*
X00391Y00209*
X00391Y00209*
X00391Y00209*
X00391Y00208*
X00391Y00208*
X00383Y00216*
X00383Y00215*
X00384*
X00384Y00216*
X00385Y00216*
X00385Y00216*
X00386Y00216*
X00386Y00217*
X00388Y00218*
X00388Y00219*
X00394Y00213*
G37*
G36*
X00166Y01164D02*
X00161Y01158D01*
X00149Y0117*
X00149Y0117*
X0015Y0117*
X0015Y01171*
X00151Y01171*
X00154Y01174*
X00155Y01175*
X00166Y01164*
G37*
G36*
X00408Y01185D02*
X00409Y01184D01*
X0041Y01183*
X00411Y01183*
X00412Y01182*
X00413Y01182*
X00414Y01182*
X00415Y01181*
X00416Y01181*
X00417Y01181*
Y01173*
X00416Y01173*
X00415Y01173*
X00414Y01173*
X00413Y01173*
X00412Y01172*
X00411Y01172*
X0041Y01171*
X00409Y01171*
X00408Y0117*
X00407Y01169*
Y01186*
X00408Y01185*
G37*
G36*
X00615Y01163D02*
X00615Y01163D01*
X00615Y01162*
X00616Y01162*
X00617Y01162*
X00618Y01162*
X00619Y01162*
X00621Y01162*
X00623Y01162*
Y01154*
X00621Y01154*
X00618Y01153*
X00617Y01153*
X00616Y01153*
X00615Y01153*
X00615Y01152*
X00615Y01152*
X00615Y01152*
Y01163*
X00615Y01163*
G37*
G36*
X00581Y0048D02*
X00582Y0048D01*
X00582Y00479*
X00582Y00478*
X00583Y00477*
X00584Y00476*
X00586Y00474*
X00587Y00473*
X00582Y00467*
X0058Y00468*
X00577Y00471*
X00576Y00472*
X00575Y00472*
X00575Y00473*
X00574Y00473*
X00573Y00473*
X00581Y00481*
X00581Y0048*
G37*
G36*
X01118Y01252D02*
X01119Y01248D01*
X01121Y01245*
X01124Y01243*
X01127Y01241*
X01132Y01239*
X01137Y01237*
X01143Y01237*
X01149Y01236*
X01157Y01236*
Y01196*
X01149Y01196*
X01143Y01196*
X01137Y01195*
X01132Y01193*
X01127Y01191*
X01124Y01189*
X01121Y01187*
X01119Y01184*
X01118Y0118*
X01117Y01177*
Y01255*
X01118Y01252*
G37*
G36*
X00656Y01178D02*
X00656Y01179D01*
X00655Y0118*
X00654Y0118*
X00653Y01181*
X00652Y01181*
X00651Y01182*
X0065Y01182*
X00649Y01182*
X00648Y01183*
X00647Y01183*
Y0119*
X00648Y0119*
X00649Y01191*
X0065Y01191*
X00651Y01191*
X00652Y01192*
X00653Y01192*
X00654Y01193*
X00655Y01193*
X00656Y01194*
X00656Y01195*
Y01178*
G37*
G36*
X00432Y01171D02*
X00431Y01172D01*
X00431Y01172*
X00431Y01172*
X0043Y01173*
X0043Y01173*
X00429Y01173*
X00428Y01173*
X00425Y01173*
X00424Y01173*
Y01181*
X00425Y01181*
X00429Y01181*
X0043Y01182*
X0043Y01182*
X00431Y01182*
X00431Y01182*
X00431Y01183*
X00432Y01183*
Y01171*
G37*
G36*
X00615Y01183D02*
X00615Y01182D01*
X00615Y01182*
X00616Y01182*
X00617Y01182*
X00618Y01181*
X00619Y01181*
X00621Y01181*
X00623Y01181*
Y01173*
X00621Y01173*
X00618Y01173*
X00617Y01173*
X00616Y01173*
X00615Y01172*
X00615Y01172*
X00615Y01172*
X00615Y01171*
Y01183*
X00615Y01183*
G37*
G36*
X00432Y01152D02*
X00431Y01152D01*
X00431Y01152*
X00431Y01153*
X0043Y01153*
X0043Y01153*
X00429Y01153*
X00428Y01153*
X00425Y01154*
X00424Y01154*
Y01162*
X00425Y01162*
X00429Y01162*
X0043Y01162*
X0043Y01162*
X00431Y01162*
X00431Y01163*
X00431Y01163*
X00432Y01163*
Y01152*
G37*
G36*
X00615Y01143D02*
X00615Y01143D01*
X00615Y01143*
X00616Y01142*
X00617Y01142*
X00618Y01142*
X00619Y01142*
X00621Y01142*
X00623Y01142*
Y01134*
X00621Y01134*
X00618Y01134*
X00617Y01133*
X00616Y01133*
X00615Y01133*
X00615Y01133*
X00615Y01132*
X00615Y01132*
Y01144*
X00615Y01143*
G37*
G36*
X00349Y01143D02*
X00348Y01143D01*
X00348Y01143*
X00347Y01142*
X00347Y01141*
X00347Y0114*
X00346Y01139*
X00346Y01138*
X00346Y01137*
X00346Y01135*
X00338*
X00338Y01137*
X00338Y01138*
X00338Y01139*
X00337Y0114*
X00337Y01141*
X00337Y01142*
X00336Y01143*
X00336Y01143*
X00335Y01143*
X00334Y01143*
X0035*
X00349Y01143*
G37*
G36*
X00204Y00462D02*
X00203Y00461D01*
X00202Y0046*
X00202Y00459*
X00201Y00458*
X00201Y00458*
X002Y00457*
X002Y00456*
X00201Y00455*
X00201Y00455*
X00201Y00454*
X0019Y00465*
X00191Y00465*
X00191Y00464*
X00192Y00464*
X00193Y00464*
X00194Y00464*
X00195Y00465*
X00196Y00465*
X00197Y00466*
X00198Y00467*
X00199Y00468*
X00204Y00462*
G37*
G36*
X00346Y01132D02*
X00346Y0113D01*
X00346Y01129*
X00347Y01128*
X00347Y01127*
X00347Y01127*
X00348Y01126*
X00348Y01126*
X00349Y01125*
X0035Y01125*
X00334*
X00335Y01125*
X00336Y01126*
X00336Y01126*
X00337Y01127*
X00337Y01127*
X00337Y01128*
X00338Y01129*
X00338Y0113*
X00338Y01132*
X00338Y01133*
X00346*
X00346Y01132*
G37*
G36*
X0069Y01151D02*
X00689Y01152D01*
X00688Y01152*
X00687Y01153*
X00686Y01153*
X00685Y01154*
X00684Y01154*
X00683Y01155*
X00682Y01155*
X00681Y01155*
X0068Y01155*
Y01163*
X00681Y01163*
X00682Y01163*
X00683Y01163*
X00684Y01164*
X00685Y01164*
X00686Y01164*
X00687Y01165*
X00688Y01166*
X00689Y01166*
X0069Y01167*
Y01151*
G37*
G36*
X00474Y0113D02*
X00474Y01131D01*
X00474Y01131*
X00473Y01132*
X00473Y01133*
X00472Y01133*
X00471Y01133*
X0047Y01134*
X00469Y01134*
X00468Y01134*
X00467Y01134*
X00466*
X00463Y01134*
X00462Y01133*
X00461Y01133*
X00461Y01133*
X0046Y01133*
X0046Y01132*
X0046Y01132*
Y01144*
X0046Y01143*
X0046Y01143*
X00461Y01143*
X00461Y01142*
X00462Y01142*
X00463Y01142*
X00464Y01142*
X00466Y01142*
X00467*
X00468Y01142*
X00469Y01142*
X0047Y01142*
X00471Y01142*
X00472Y01143*
X00473Y01143*
X00473Y01144*
X00474Y01144*
X00474Y01145*
X00474Y01146*
Y0113*
G37*
%LNstepperpcb-2*%
%LPC*%
G36*
X00432Y0104D02*
X00428Y0104D01*
X00421Y01035*
X00416Y01028*
X00415Y01024*
X00432*
Y0104*
G37*
G36*
Y01014D02*
X00415D01*
X00416Y01011*
X00421Y01003*
X00428Y00999*
X00432Y00998*
Y01014*
G37*
G36*
X00458D02*
X00442D01*
Y00998*
X00445Y00999*
X00452Y01003*
X00457Y01011*
X00458Y01014*
G37*
G36*
X00442Y0104D02*
Y01024D01*
X00458*
X00457Y01028*
X00452Y01035*
X00445Y0104*
X00442Y0104*
G37*
G36*
X00697Y00722D02*
X00694Y00721D01*
X00687Y00716*
X00682Y00709*
X00681Y00705*
X00697*
Y00722*
G37*
G36*
Y00695D02*
X00681D01*
X00682Y00692*
X00687Y00685*
X00694Y0068*
X00697Y00679*
Y00695*
G37*
G36*
X00292Y00871D02*
Y00855D01*
X00308*
X00307Y00858*
X00303Y00866*
X00295Y0087*
X00292Y00871*
G37*
G36*
X00308Y00845D02*
X00292D01*
Y00829*
X00295Y00829*
X00303Y00834*
X00307Y00841*
X00308Y00845*
G37*
G36*
X00441Y00836D02*
X00438Y00835D01*
X00431Y0083*
X00426Y00823*
X00425Y00819*
X00441*
Y00836*
G37*
G36*
X00113Y0051D02*
X00111Y00508D01*
X00108Y00501*
X00107Y00493*
X00108Y00485*
X00111Y00478*
X00113Y00476*
X0013Y00493*
X00113Y0051*
G37*
G36*
X00137Y00486D02*
X0012Y00469D01*
X00122Y00467*
X00129Y00464*
X00137Y00463*
X00145Y00464*
X00152Y00467*
X00154Y00469*
X00137Y00486*
G37*
G36*
X00161Y0051D02*
X00144Y00493D01*
X00161Y00476*
X00163Y00478*
X00166Y00485*
X00167Y00493*
X00166Y00501*
X00163Y00508*
X00161Y0051*
G37*
G36*
X00235Y00217D02*
X00218D01*
X00219Y00213*
X00224Y00206*
X00231Y00201*
X00235Y00201*
Y00217*
G37*
G36*
X00261D02*
X00245D01*
Y00201*
X00248Y00201*
X00255Y00206*
X0026Y00213*
X00261Y00217*
G37*
G36*
X00152Y0028D02*
X00136D01*
X00136Y00276*
X00141Y00269*
X00148Y00264*
X00152Y00264*
Y0028*
G37*
G36*
X00178D02*
X00162D01*
Y00264*
X00165Y00264*
X00173Y00269*
X00178Y00276*
X00178Y0028*
G37*
G36*
X00226Y00296D02*
X00209Y00279D01*
X00211Y00277*
X00219Y00274*
X00226Y00273*
X00234Y00274*
X00241Y00277*
X00244Y00279*
X00226Y00296*
G37*
G36*
X00235Y00243D02*
X00231Y00242D01*
X00224Y00238*
X00219Y0023*
X00218Y00227*
X00235*
Y00243*
G37*
G36*
X00245D02*
Y00227D01*
X00261*
X0026Y0023*
X00255Y00238*
X00248Y00242*
X00245Y00243*
G37*
G36*
X00137Y00205D02*
X00124Y00203D01*
X00112Y00199*
X001Y00193*
X0009Y00185*
X00081Y00175*
X00075Y00163*
X00071Y0015*
X0007Y00137*
X00071Y00124*
X00075Y00112*
X00081Y001*
X0009Y0009*
X001Y00081*
X00112Y00075*
X00124Y00071*
X00137Y0007*
X0015Y00071*
X00163Y00075*
X00175Y00081*
X00185Y0009*
X00193Y001*
X00199Y00112*
X00203Y00124*
X00205Y00137*
X00203Y0015*
X00199Y00163*
X00193Y00175*
X00185Y00185*
X00175Y00193*
X00163Y00199*
X0015Y00203*
X00137Y00205*
G37*
G36*
X00251Y0032D02*
X00233Y00303D01*
X00251Y00286*
X00252Y00288*
X00255Y00295*
X00256Y00303*
X00255Y00311*
X00252Y00318*
X00251Y0032*
G37*
G36*
X00087Y00471D02*
X00079Y0047D01*
X00073Y00467*
X00067Y00463*
X00063Y00457*
X0006Y0045*
X00059Y00443*
X0006Y00436*
X00061Y00434*
X0006Y00434*
X0006Y00433*
X0006Y00433*
X00049Y00422*
X00046Y00418*
X00046Y00414*
X00046Y00409*
X00049Y00405*
X00074Y0038*
Y00351*
X00074Y00351*
X00074Y00351*
X00074Y0035*
X00074Y0035*
X00073Y0035*
X00073Y00349*
X00073Y00349*
X00072Y00348*
X00068Y00342*
X00066Y00334*
X00068Y00326*
X00072Y0032*
X00078Y00316*
X00086Y00314*
X00094Y00316*
X001Y0032*
X00105Y00326*
X00106Y00334*
X00105Y00342*
X001Y00348*
X001Y00352*
X00104Y00356*
X00108Y00356*
X00112Y00359*
X00121Y00368*
X00132Y00357*
X00171Y00396*
X00132Y00435*
X00093Y00396*
X00089Y00399*
X00077Y00411*
X00077Y00412*
X00077Y00412*
X00081Y00416*
X00087Y00415*
X00094Y00416*
X00101Y00419*
X00106Y00423*
X00111Y00429*
X00114Y00436*
X00114Y00443*
X00114Y0045*
X00111Y00457*
X00106Y00463*
X00101Y00467*
X00094Y0047*
X00087Y00471*
G37*
G36*
X00179Y00378D02*
X00171Y00377D01*
X00164Y00374*
X00162Y00373*
X00179Y00356*
X00196Y00373*
X00194Y00374*
X00187Y00377*
X00179Y00378*
G37*
G36*
X00226Y00333D02*
X00219Y00332D01*
X00211Y00329*
X00209Y00327*
X00226Y0031*
X00244Y00327*
X00241Y00329*
X00234Y00332*
X00226Y00333*
G37*
G36*
X00179Y00341D02*
X00162Y00324D01*
X00164Y00323*
X00171Y0032*
X00179Y00319*
X00187Y0032*
X00194Y00323*
X00196Y00324*
X00179Y00341*
G37*
G36*
X00202Y0032D02*
X002Y00318D01*
X00197Y00311*
X00196Y00303*
X00197Y00295*
X002Y00288*
X00202Y00286*
X00219Y00303*
X00202Y0032*
G37*
G36*
X00152Y00306D02*
X00148Y00305D01*
X00141Y00301*
X00136Y00293*
X00136Y0029*
X00152*
Y00306*
G37*
G36*
X00162D02*
Y0029D01*
X00178*
X00178Y00293*
X00173Y00301*
X00165Y00305*
X00162Y00306*
G37*
G36*
X00155Y00366D02*
X00153Y00363D01*
X0015Y00356*
X00149Y00348*
X0015Y00341*
X00153Y00333*
X00155Y00331*
X00172Y00348*
X00155Y00366*
G37*
G36*
X00203D02*
X00186Y00348D01*
X00203Y00331*
X00205Y00333*
X00208Y00341*
X00209Y00348*
X00208Y00356*
X00205Y00363*
X00203Y00366*
G37*
G36*
X00387Y00544D02*
X00371D01*
Y00527*
X00374Y00528*
X00381Y00533*
X00386Y0054*
X00387Y00544*
G37*
G36*
X00158Y00543D02*
X00116D01*
X00116Y0054*
X00121Y00532*
X00128Y00528*
X0013Y00527*
X0013Y00522*
X00129Y00522*
X00122Y00519*
X0012Y00517*
X00137Y005*
X00154Y00517*
X00152Y00519*
X00145Y00522*
X00143Y00522*
X00143Y00527*
X00145Y00528*
X00152Y00532*
X00157Y0054*
X00158Y00543*
G37*
G36*
X00371Y0057D02*
Y00554D01*
X00387*
X00386Y00557*
X00381Y00564*
X00374Y00569*
X00371Y0057*
G37*
G36*
X00132Y00569D02*
X00128Y00569D01*
X00121Y00564*
X00116Y00557*
X00116Y00553*
X00132*
Y00569*
G37*
G36*
X00142D02*
Y00553D01*
X00158*
X00157Y00557*
X00152Y00564*
X00145Y00569*
X00142Y00569*
G37*
G36*
X00361Y0057D02*
X00357Y00569D01*
X0035Y00564*
X00345Y00557*
X00344Y00554*
X00361*
Y0057*
G37*
G36*
X00144Y0076D02*
X00142Y00758D01*
X00139Y00751*
X00138Y00743*
X00139Y00735*
X00142Y00728*
X00144Y00726*
X00161Y00743*
X00144Y0076*
G37*
G36*
X00062Y00754D02*
Y00729D01*
X00086*
Y00754*
X00062*
G37*
G36*
X00168Y00736D02*
X00151Y00719D01*
X00153Y00717*
X00161Y00714*
X00168Y00713*
X00176Y00714*
X00183Y00717*
X00185Y00719*
X00168Y00736*
G37*
G36*
X00606Y00825D02*
X00604Y00823D01*
X00601Y00816*
X006Y00808*
X00601Y008*
X00604Y00793*
X00606Y00791*
X00623Y00808*
X00606Y00825*
G37*
G36*
X0063Y00801D02*
X00613Y00784D01*
X00615Y00782*
X00622Y00779*
X0063Y00778*
X00638Y00779*
X00645Y00782*
X00647Y00784*
X0063Y00801*
G37*
G36*
X00118Y00721D02*
X00111Y0072D01*
X00104Y00717*
X00098Y00713*
X00094Y00707*
X00091Y007*
X00091Y007*
X00086Y007*
Y00719*
X00062*
Y00694*
X00085*
X00087Y00694*
X0009Y00692*
X00091Y00686*
X00094Y00679*
X00098Y00673*
X00104Y00669*
X00111Y00666*
X00118Y00665*
X00125Y00666*
X00127Y00667*
X00127Y00667*
X00128Y00666*
X00128Y00666*
X0013Y00664*
X00134Y00662*
X00138Y00661*
X0021*
X00212Y00658*
X00213Y00657*
X00214Y00656*
X00214Y00655*
X00215Y00655*
X00215Y00655*
X00215Y00655*
X00215Y00654*
X00216Y00652*
X00216Y00652*
X00216Y00652*
X00218Y0065*
X00226Y00641*
X00226Y00639*
X00223Y00636*
X00215Y00634*
X00209Y0063*
X00204Y00623*
X00203Y00616*
X00204Y00608*
X00209Y00601*
X00215Y00597*
X00223Y00596*
X00231Y00597*
X00237Y00601*
X00241Y00608*
X00243Y00616*
X00247Y00619*
X00248Y00619*
X00257Y00611*
X00261Y00608*
X00267Y00606*
X00272Y00608*
X00277Y00611*
X0028Y00615*
X0028Y00618*
X00281Y00618*
X00287Y00619*
X00288Y0062*
X00258Y0065*
X00226Y00682*
X00223Y00681*
X00222Y00682*
X00219Y00684*
X00215Y00685*
X0015*
X00146Y0069*
X00146Y00693*
X00145Y007*
X00142Y00707*
X00138Y00713*
X00132Y00717*
X00125Y0072*
X00118Y00721*
G37*
G36*
X00477Y00506D02*
X00461D01*
Y0049*
X00465Y00491*
X00472Y00496*
X00477Y00503*
X00477Y00506*
G37*
G36*
X01274Y00424D02*
X01258D01*
X01258Y0042*
X01263Y00413*
X01271Y00408*
X01274Y00407*
Y00424*
G37*
G36*
X013D02*
X01284D01*
Y00407*
X01288Y00408*
X01295Y00413*
X013Y0042*
X013Y00424*
G37*
G36*
X01284Y0045D02*
Y00434D01*
X013*
X013Y00437*
X01295Y00444*
X01288Y00449*
X01284Y0045*
G37*
G36*
X0118Y00534D02*
X01139D01*
Y0046*
X0118*
Y00534*
G37*
G36*
X0123D02*
X0119D01*
Y0046*
X0123*
Y00534*
G37*
G36*
X01274Y0045D02*
X01271Y00449D01*
X01263Y00444*
X01258Y00437*
X01258Y00434*
X01274*
Y0045*
G37*
G36*
X01019Y0046D02*
Y00422D01*
X01031*
Y00443*
X0103Y0045*
X01026Y00456*
X01021Y00459*
X01019Y0046*
G37*
G36*
X00451Y00506D02*
X00435D01*
X00436Y00503*
X0044Y00496*
X00448Y00491*
X00451Y0049*
Y00506*
G37*
G36*
X01097Y00446D02*
Y0043D01*
X01113*
X01113Y00433*
X01108Y0044*
X01101Y00445*
X01097Y00446*
G37*
G36*
X01087D02*
X01084Y00445D01*
X01076Y0044*
X01071Y00433*
X01071Y0043*
X01087*
Y00446*
G37*
G36*
X00503Y00228D02*
Y00203D01*
X00527*
X00526Y00206*
X00523Y00213*
X00519Y00219*
X00513Y00224*
X00505Y00227*
X00503Y00228*
G37*
G36*
X00439D02*
X00437Y00227D01*
X00429Y00224*
X00423Y00219*
X00418Y00213*
X00415Y00206*
X00415Y00203*
X00439*
Y00228*
G37*
G36*
Y00193D02*
X00415D01*
X00415Y00191*
X00418Y00183*
X00423Y00177*
X00429Y00172*
X00437Y00169*
X00439Y00169*
Y00193*
G37*
G36*
X00623Y00119D02*
X00613Y00118D01*
X00603Y00114*
X00595Y00108*
X00589Y001*
X00585Y0009*
X00584Y0008*
X00585Y0007*
X00589Y00061*
X00595Y00053*
X00603Y00047*
X00613Y00043*
X00623Y00041*
X00633Y00043*
X00642Y00047*
X0065Y00053*
X00656Y00061*
X0066Y0007*
X00661Y0008*
X0066Y0009*
X00656Y001*
X0065Y00108*
X00642Y00114*
X00633Y00118*
X00623Y00119*
G37*
G36*
X00715Y00127D02*
Y00111D01*
X00731*
X00731Y00114*
X00726Y00122*
X00719Y00126*
X00715Y00127*
G37*
G36*
X00527Y00193D02*
X00503D01*
Y00169*
X00505Y00169*
X00513Y00172*
X00519Y00177*
X00523Y00183*
X00526Y00191*
X00527Y00193*
G37*
G36*
X00449Y00228D02*
Y00198D01*
Y00169*
X00452Y00169*
X00459Y00172*
X00466Y00177*
X00468Y0018*
X00474*
X00476Y00177*
X00483Y00172*
X0049Y00169*
X00493Y00169*
Y00198*
Y00228*
X0049Y00227*
X00483Y00224*
X00476Y00219*
X00474Y00217*
X00468*
X00466Y00219*
X00459Y00224*
X00452Y00227*
X00449Y00228*
G37*
G36*
X00705Y00127D02*
X00702Y00126D01*
X00694Y00122*
X0069Y00114*
X00689Y00111*
X00705*
Y00127*
G37*
G36*
Y00101D02*
X00689D01*
X0069Y00097*
X00694Y0009*
X00702Y00085*
X00705Y00085*
Y00101*
G37*
G36*
X00731D02*
X00715D01*
Y00085*
X00719Y00085*
X00726Y0009*
X00731Y00097*
X00731Y00101*
G37*
G36*
X00428Y0012D02*
Y00085D01*
X00463*
X00462Y00091*
X00458Y00101*
X00452Y00109*
X00443Y00116*
X00433Y0012*
X00428Y0012*
G37*
G36*
X00596Y0039D02*
X00594Y00388D01*
X00591Y00381*
X0059Y00373*
X00591Y00365*
X00594Y00358*
X00596Y00356*
X00613Y00373*
X00596Y0039*
G37*
G36*
X0083Y00412D02*
X00818D01*
Y0039*
X00819Y00384*
X00823Y00378*
X00829Y00374*
X0083Y00374*
Y00412*
G37*
G36*
X00644Y0039D02*
X00627Y00373D01*
X00644Y00356*
X00646Y00358*
X00649Y00365*
X0065Y00373*
X00649Y00381*
X00646Y00388*
X00644Y0039*
G37*
G36*
X00872Y00366D02*
X00856D01*
Y00349*
X00872*
Y00366*
G37*
G36*
X00994D02*
X00977D01*
Y00349*
X00994*
Y00366*
G37*
G36*
X01422Y00475D02*
X01345D01*
Y00398*
X01422*
Y00475*
G37*
G36*
X01087Y0042D02*
X01071D01*
X01071Y00416*
X01076Y00409*
X01084Y00404*
X01087Y00403*
Y0042*
G37*
G36*
X01113D02*
X01097D01*
Y00403*
X01101Y00404*
X01108Y00409*
X01113Y00416*
X01113Y0042*
G37*
G36*
X00787Y00405D02*
Y00388D01*
X00803*
X00802Y00392*
X00798Y00399*
X0079Y00404*
X00787Y00405*
G37*
G36*
X01031Y00412D02*
X01019D01*
Y00374*
X01021Y00374*
X01026Y00378*
X0103Y00384*
X01031Y0039*
Y00412*
G37*
G36*
X0062Y00403D02*
X00612Y00402D01*
X00605Y00399*
X00603Y00397*
X0062Y0038*
X00637Y00397*
X00635Y00399*
X00628Y00402*
X0062Y00403*
G37*
G36*
X00777Y00405D02*
X00773Y00404D01*
X00766Y00399*
X00761Y00392*
X00761Y00388*
X00777*
Y00405*
G37*
G36*
X00717Y00407D02*
X00678Y00368D01*
X00716Y00331*
X00702Y00318*
X00698Y0032*
X00698Y00323*
X00697Y0033*
X00694Y00337*
X0069Y00343*
X00684Y00347*
X00677Y0035*
X0067Y00351*
X00663Y0035*
X00656Y00347*
X00651Y00343*
X00646Y00337*
X00643Y0033*
X00642Y00323*
X00643Y00316*
X00646Y00309*
X00651Y00303*
X00656Y00299*
X00663Y00296*
X00669Y00295*
X00671Y00293*
X00672Y0029*
X00671Y00289*
X0067Y00289*
X00663Y00288*
X00657Y00283*
X00652Y00277*
X00651Y00269*
X00652Y00262*
X00657Y00255*
X00663Y00251*
X00671Y00249*
X00678Y00251*
X00685Y00255*
X00689Y00262*
X00691Y00269*
X00691Y0027*
X00691Y00271*
X00691Y00271*
X00691Y00272*
X00691Y00272*
X00691Y00272*
X00691Y00273*
X00692Y00273*
X00706Y00287*
X00747Y00329*
X00753Y00327*
X00753Y00325*
X00756Y00318*
X00761Y00312*
X00767Y00307*
X00774Y00304*
X00777Y00304*
Y00333*
X00782*
Y00338*
X00811*
X00811Y00341*
X00808Y00348*
X00803Y00354*
X00797Y00359*
X00795Y0036*
X00794Y00365*
X00798Y00368*
X00802Y00375*
X00803Y00378*
X00761*
X00761Y00375*
X00766Y00368*
X0077Y00365*
X00769Y0036*
X00767Y00359*
X00761Y00354*
X00758Y00351*
X00752Y00351*
X00752Y00351*
X00745Y00357*
X00756Y00368*
X00717Y00407*
G37*
G36*
X00811Y00328D02*
X00787D01*
Y00304*
X0079Y00304*
X00797Y00307*
X00803Y00312*
X00808Y00318*
X00811Y00325*
X00811Y00328*
G37*
G36*
X0062Y00366D02*
X00603Y00349D01*
X00605Y00347*
X00612Y00344*
X0062Y00343*
X00628Y00344*
X00635Y00347*
X00637Y00349*
X0062Y00366*
G37*
G36*
X00557Y00361D02*
X00554Y00361D01*
X00547Y00356*
X00542Y00349*
X00541Y00345*
X00557*
Y00361*
G37*
G36*
X00567D02*
Y00345D01*
X00584*
X00583Y00349*
X00578Y00356*
X00571Y00361*
X00567Y00361*
G37*
G36*
X00557Y00335D02*
X00541D01*
X00542Y00332*
X00547Y00324*
X00554Y0032*
X00557Y00319*
Y00335*
G37*
G36*
X00584D02*
X00567D01*
Y00319*
X00571Y0032*
X00578Y00324*
X00583Y00332*
X00584Y00335*
G37*
G36*
X00979Y00989D02*
X00963D01*
Y00972*
X00967Y00973*
X00974Y00978*
X00979Y00985*
X00979Y00989*
G37*
G36*
X00654Y00997D02*
Y00981D01*
X0067*
X0067Y00984*
X00665Y00992*
X00658Y00996*
X00654Y00997*
G37*
G36*
X00714Y0102D02*
X0069D01*
Y00996*
X00692Y00996*
X007Y00999*
X00706Y01004*
X0071Y0101*
X00713Y01017*
X00714Y0102*
G37*
G36*
X00794Y01372D02*
X00759D01*
X0076Y01367*
X00764Y01357*
X0077Y01349*
X00779Y01342*
X00789Y01338*
X00794Y01337*
Y01372*
G37*
G36*
X0067Y00971D02*
X00654D01*
Y00955*
X00658Y00955*
X00665Y0096*
X0067Y00967*
X0067Y00971*
G37*
G36*
X00953Y00989D02*
X00937D01*
X00938Y00985*
X00942Y00978*
X0095Y00973*
X00953Y00972*
Y00989*
G37*
G36*
X0068Y0102D02*
X00655D01*
X00656Y01017*
X00659Y0101*
X00663Y01004*
X0067Y00999*
X00677Y00996*
X0068Y00996*
Y0102*
G37*
G36*
X00953Y01015D02*
X0095Y01014D01*
X00942Y01009*
X00938Y01002*
X00937Y00999*
X00953*
Y01015*
G37*
G36*
X00963D02*
Y00999D01*
X00979*
X00979Y01002*
X00974Y01009*
X00967Y01014*
X00963Y01015*
G37*
G36*
X00839Y01372D02*
X00804D01*
Y01337*
X0081Y01338*
X0082Y01342*
X00828Y01349*
X00834Y01357*
X00839Y01367*
X00839Y01372*
G37*
G36*
X00602Y01416D02*
X00592Y01415D01*
X00583Y01411*
X00575Y01405*
X00569Y01397*
X00565Y01387*
X00564Y01377*
X00565Y01367*
X00569Y01358*
X00575Y0135*
X00583Y01344*
X00592Y0134*
X00602Y01339*
X00612Y0134*
X00622Y01344*
X0063Y0135*
X00636Y01358*
X0064Y01367*
X00641Y01377*
X0064Y01387*
X00636Y01397*
X0063Y01405*
X00622Y01411*
X00612Y01415*
X00602Y01416*
G37*
G36*
X00678Y00882D02*
X00661D01*
X00662Y00879*
X00667Y00872*
X00674Y00867*
X00678Y00866*
Y00882*
G37*
G36*
X00704D02*
X00688D01*
Y00866*
X00691Y00867*
X00698Y00872*
X00703Y00879*
X00704Y00882*
G37*
G36*
X00936Y01416D02*
X00859D01*
Y01339*
X00936*
Y01416*
G37*
G36*
X01442Y00989D02*
X01372D01*
Y00959*
X01371Y00959*
X0137Y00958*
X01369Y00958*
X01367Y00958*
X0133*
X01324Y00957*
X01319Y00953*
X01265Y00899*
X01252*
X01251Y009*
X01249Y009*
X01248Y009*
X01248Y009*
Y00923*
X01145*
Y00844*
X01248*
Y00867*
X01248Y00867*
X01249Y00867*
X01251Y00867*
X01252Y00867*
X01272*
X01278Y00869*
X01283Y00872*
X01337Y00926*
X01367*
X01369Y00926*
X0137Y00925*
X01371Y00925*
X01372Y00925*
Y00895*
X0139*
X0139Y00894*
X01391Y00893*
X01391Y00892*
X01391Y0089*
Y00887*
X01388Y00883*
X01387Y00875*
X01388Y00868*
X01393Y00861*
X01399Y00857*
X01407Y00855*
X01415Y00857*
X01421Y00861*
X01426Y00868*
X01427Y00875*
X01426Y00883*
X01423Y00887*
X01423Y00889*
Y0089*
X01423Y00892*
X01423Y00893*
X01424Y00894*
X01424Y00895*
X01442*
Y00989*
G37*
G36*
X01065Y01416D02*
X01013D01*
Y01367*
X01065*
Y01416*
G37*
G36*
X00989Y00888D02*
X00972D01*
X00973Y00885*
X00978Y00877*
X00985Y00873*
X00989Y00872*
Y00888*
G37*
G36*
X00688Y00909D02*
Y00892D01*
X00704*
X00703Y00896*
X00698Y00903*
X00691Y00908*
X00688Y00909*
G37*
G36*
X00989Y00914D02*
X00985Y00914D01*
X00978Y00909*
X00973Y00902*
X00972Y00898*
X00989*
Y00914*
G37*
G36*
X00999D02*
Y00898D01*
X01015*
X01014Y00902*
X01009Y00909*
X01002Y00914*
X00999Y00914*
G37*
G36*
X01015Y00888D02*
X00999D01*
Y00872*
X01002Y00873*
X01009Y00877*
X01014Y00885*
X01015Y00888*
G37*
G36*
X00701Y01416D02*
X00691Y01415D01*
X00681Y01411*
X00673Y01405*
X00667Y01397*
X00663Y01387*
X00662Y01377*
X00663Y01367*
X00667Y01358*
X00673Y0135*
X00681Y01344*
X00691Y0134*
X00701Y01339*
X00711Y0134*
X0072Y01344*
X00728Y0135*
X00734Y01358*
X00738Y01367*
X00739Y01377*
X00738Y01387*
X00734Y01397*
X00728Y01405*
X0072Y01411*
X00711Y01415*
X00701Y01416*
G37*
G36*
X00678Y00909D02*
X00674Y00908D01*
X00667Y00903*
X00662Y00896*
X00661Y00892*
X00678*
Y00909*
G37*
G36*
X00934Y01278D02*
X00918D01*
Y01262*
X00921Y01262*
X00929Y01267*
X00933Y01274*
X00934Y01278*
G37*
G36*
X00054Y01282D02*
X00037D01*
X00038Y01278*
X00043Y01271*
X0005Y01266*
X00054Y01266*
Y01282*
G37*
G36*
X0008D02*
X00064D01*
Y01266*
X00067Y01266*
X00074Y01271*
X00079Y01278*
X0008Y01282*
G37*
G36*
X00337Y01244D02*
X00334D01*
X00327Y01243*
X00321Y01239*
X00317Y01233*
X00316Y01226*
Y01223*
X00337*
Y01244*
G37*
G36*
X0035D02*
X00347D01*
Y01223*
X00368*
Y01226*
X00367Y01233*
X00363Y01239*
X00357Y01243*
X0035Y01244*
G37*
G36*
X00908Y01278D02*
X00892D01*
X00892Y01274*
X00897Y01267*
X00904Y01262*
X00908Y01262*
Y01278*
G37*
G36*
Y01304D02*
X00904Y01304D01*
X00897Y01299*
X00892Y01291*
X00892Y01288*
X00908*
Y01304*
G37*
G36*
X00054Y01308D02*
X0005Y01307D01*
X00043Y01303*
X00038Y01295*
X00037Y01292*
X00054*
Y01308*
G37*
G36*
X00064D02*
Y01292D01*
X0008*
X00079Y01295*
X00074Y01303*
X00067Y01307*
X00064Y01308*
G37*
G36*
X00427Y01379D02*
X00417Y01377D01*
X00407Y01374*
X00399Y01367*
X00393Y01359*
X00389Y0135*
X00388Y0134*
X00389Y0133*
X00393Y01321*
X00399Y01313*
X00407Y01307*
X00417Y01303*
X00427Y01301*
X00437Y01303*
X00446Y01307*
X00454Y01313*
X0046Y01321*
X00464Y0133*
X00465Y0134*
X00464Y0135*
X0046Y01359*
X00454Y01367*
X00446Y01374*
X00437Y01377*
X00427Y01379*
G37*
G36*
X00918Y01304D02*
Y01288D01*
X00934*
X00933Y01291*
X00929Y01299*
X00921Y01304*
X00918Y01304*
G37*
G36*
X00137Y01425D02*
X00124Y01424D01*
X00112Y0142*
X001Y01414*
X0009Y01405*
X00081Y01395*
X00075Y01384*
X00071Y01371*
X0007Y01358*
X00071Y01345*
X00075Y01332*
X00081Y0132*
X0009Y0131*
X001Y01302*
X00112Y01296*
X00124Y01292*
X00137Y01291*
X0015Y01292*
X00163Y01296*
X00175Y01302*
X00185Y0131*
X00193Y0132*
X00199Y01332*
X00203Y01345*
X00205Y01358*
X00203Y01371*
X00199Y01384*
X00193Y01395*
X00185Y01405*
X00175Y01414*
X00163Y0142*
X0015Y01424*
X00137Y01425*
G37*
G36*
X01358D02*
X01345Y01424D01*
X01332Y0142*
X0132Y01414*
X0131Y01405*
X01302Y01395*
X01296Y01384*
X01292Y01371*
X01291Y01358*
X01292Y01345*
X01296Y01332*
X01302Y0132*
X0131Y0131*
X0132Y01302*
X01332Y01296*
X01345Y01292*
X01358Y01291*
X01371Y01292*
X01384Y01296*
X01395Y01302*
X01405Y0131*
X01414Y0132*
X0142Y01332*
X01424Y01345*
X01425Y01358*
X01424Y01371*
X0142Y01384*
X01414Y01395*
X01405Y01405*
X01395Y01414*
X01384Y0142*
X01371Y01424*
X01358Y01425*
G37*
G36*
X00368Y01213D02*
X00347D01*
Y01192*
X0035*
X00357Y01193*
X00363Y01197*
X00367Y01203*
X00368Y0121*
Y01213*
G37*
G36*
X01445Y01092D02*
X01412D01*
Y01047*
X01445*
Y01092*
G37*
G36*
X00884Y01101D02*
X0085D01*
X00851Y01095*
X00855Y01086*
X00861Y01078*
X00869Y01071*
X00879Y01067*
X00884Y01067*
Y01101*
G37*
G36*
X00928D02*
X00894D01*
Y01067*
X009Y01067*
X00909Y01071*
X00917Y01078*
X00924Y01086*
X00928Y01095*
X00928Y01101*
G37*
G36*
X0068Y01054D02*
X00677Y01054D01*
X0067Y01051*
X00663Y01046*
X00659Y0104*
X00656Y01033*
X00655Y0103*
X0068*
Y01054*
G37*
G36*
X0069D02*
Y0103D01*
X00714*
X00713Y01033*
X0071Y0104*
X00706Y01046*
X007Y01051*
X00692Y01054*
X0069Y01054*
G37*
G36*
X01402Y01092D02*
X01369D01*
Y01047*
X01402*
Y01092*
G37*
G36*
Y01146D02*
X01369D01*
Y01102*
X01402*
Y01146*
G37*
G36*
X00365Y01378D02*
X00288D01*
Y01302*
X00365*
Y01378*
G37*
G36*
X01248Y01175D02*
X01145D01*
Y01156*
X01145Y01156*
X01144Y01155*
X01142Y01155*
X0114Y01154*
X01138Y01154*
X01012*
X01011Y01155*
X01003Y01156*
X00996Y01155*
X00989Y0115*
X00985Y01144*
X00983Y01136*
X00985Y01128*
X00989Y01122*
X00996Y01118*
X01003Y01116*
X01011Y01118*
X01012Y01118*
X01084*
Y00854*
X01085Y00847*
X01089Y00841*
X01156Y00774*
X01156Y00773*
X01161Y00767*
X01167Y00762*
X01168Y00758*
X01168Y00757*
X01167Y00751*
Y0069*
X01166Y00689*
X01166Y00688*
X01153*
Y00633*
X01208*
Y00688*
X01195*
X01195Y00689*
X01195Y0069*
Y00745*
X0121*
X01211Y00745*
X01214Y00745*
X01215Y00744*
X01216Y00744*
X01217Y00744*
Y00711*
X01307*
Y00816*
X01217*
Y00783*
X01216Y00783*
X01215Y00782*
X01214Y00782*
X01211Y00781*
X0121Y00781*
X012*
X01193Y00788*
X01193Y00789*
X01189Y00795*
X01182Y008*
X01182Y008*
X0112Y00861*
Y01118*
X01138*
X0114Y01118*
X01142Y01118*
X01144Y01117*
X01145Y01117*
X01145Y01116*
Y01096*
X01248*
Y01175*
G37*
G36*
X00337Y01213D02*
X00316D01*
Y0121*
X00317Y01203*
X00321Y01197*
X00327Y01193*
X00334Y01192*
X00337*
Y01213*
G37*
G36*
X01445Y01146D02*
X01412D01*
Y01102*
X01445*
Y01146*
G37*
G36*
X00884Y01145D02*
X00879Y01144D01*
X00869Y0114*
X00861Y01134*
X00855Y01126*
X00851Y01116*
X0085Y01111*
X00884*
Y01145*
G37*
G36*
X00894D02*
Y01111D01*
X00928*
X00928Y01116*
X00924Y01126*
X00917Y01134*
X00909Y0114*
X009Y01144*
X00894Y01145*
G37*
G36*
X00788Y00625D02*
Y00609D01*
X00804*
X00804Y00612*
X00799Y0062*
X00791Y00624*
X00788Y00625*
G37*
G36*
X0128Y01452D02*
Y01436D01*
X01296*
X01296Y01439*
X01291Y01446*
X01284Y01451*
X0128Y01452*
G37*
G36*
X01091Y00633D02*
X01087Y00632D01*
X0108Y00627*
X01075Y0062*
X01075Y00617*
X01091*
Y00633*
G37*
G36*
X01117Y00607D02*
X01101D01*
Y0059*
X01104Y00591*
X01112Y00596*
X01117Y00603*
X01117Y00607*
G37*
G36*
X00885Y00628D02*
X00861D01*
Y00604*
X00864Y00604*
X00871Y00607*
X00877Y00612*
X00882Y00618*
X00885Y00626*
X00885Y00628*
G37*
G36*
X00851D02*
X00827D01*
X00827Y00626*
X0083Y00618*
X00835Y00612*
X00841Y00607*
X00848Y00604*
X00851Y00604*
Y00628*
G37*
G36*
X01101Y00633D02*
Y00617D01*
X01117*
X01117Y0062*
X01112Y00627*
X01104Y00632*
X01101Y00633*
G37*
G36*
X01279Y00688D02*
X01224D01*
Y00633*
X01279*
Y00643*
X0128Y00644*
X01285Y00645*
X01287Y00642*
X01293Y00638*
X01299Y00637*
X01314*
X01321Y00638*
X01326Y00642*
X01329Y00647*
X01331Y00653*
Y00669*
X01329Y00675*
X01326Y0068*
X01321Y00684*
X01314Y00685*
X01299*
X01293Y00684*
X01287Y0068*
X01285Y00677*
X0128Y00678*
X01279Y00679*
Y00688*
G37*
G36*
X00851Y00663D02*
X00848Y00662D01*
X00841Y00659*
X00835Y00655*
X0083Y00648*
X00827Y00641*
X00827Y00638*
X00851*
Y00663*
G37*
G36*
X00861D02*
Y00638D01*
X00885*
X00885Y00641*
X00882Y00648*
X00877Y00655*
X00871Y00659*
X00864Y00662*
X00861Y00663*
G37*
G36*
X0127Y01452D02*
X01267Y01451D01*
X01259Y01446*
X01255Y01439*
X01254Y01436*
X0127*
Y01452*
G37*
G36*
X01361Y00656D02*
X0134D01*
Y00653*
X01341Y00646*
X01345Y0064*
X01351Y00636*
X01358Y00635*
X01361*
Y00656*
G37*
G36*
X01392D02*
X01371D01*
Y00635*
X01374*
X0138Y00636*
X01386Y0064*
X0139Y00646*
X01392Y00653*
Y00656*
G37*
G36*
X01091Y00607D02*
X01075D01*
X01075Y00603*
X0108Y00596*
X01087Y00591*
X01091Y0059*
Y00607*
G37*
G36*
X00461Y00533D02*
Y00516D01*
X00477*
X00477Y0052*
X00472Y00527*
X00465Y00532*
X00461Y00533*
G37*
G36*
X0118Y00618D02*
X01139D01*
Y00544*
X0118*
Y00618*
G37*
G36*
X01383Y00575D02*
X01373Y00574D01*
X01364Y0057*
X01356Y00564*
X0135Y00556*
X01346Y00547*
X01345Y00537*
X01346Y00526*
X0135Y00517*
X01356Y00509*
X01364Y00503*
X01373Y00499*
X01383Y00498*
X01393Y00499*
X01403Y00503*
X01411Y00509*
X01417Y00517*
X01421Y00526*
X01422Y00537*
X01421Y00547*
X01417Y00556*
X01411Y00564*
X01403Y0057*
X01393Y00574*
X01383Y00575*
G37*
G36*
X00451Y00533D02*
X00448Y00532D01*
X0044Y00527*
X00436Y0052*
X00435Y00516*
X00451*
Y00533*
G37*
G36*
X0123Y00618D02*
X0119D01*
Y00544*
X0123*
Y00618*
G37*
G36*
X00778Y00599D02*
X00762D01*
X00762Y00595*
X00767Y00588*
X00774Y00583*
X00778Y00583*
Y00599*
G37*
G36*
X00804D02*
X00788D01*
Y00583*
X00791Y00583*
X00799Y00588*
X00804Y00595*
X00804Y00599*
G37*
G36*
X01208Y01455D02*
X01195D01*
Y01426*
X0123*
Y01433*
X01229Y01441*
X01224Y01448*
X01217Y01453*
X01208Y01455*
G37*
G36*
X00804Y01418D02*
Y01382D01*
X00839*
X00839Y01388*
X00834Y01398*
X00828Y01406*
X0082Y01413*
X0081Y01417*
X00804Y01418*
G37*
G36*
X01414Y00758D02*
X01372D01*
Y00708*
X01414*
Y00758*
G37*
G36*
X01185Y01416D02*
X0115D01*
Y01409*
X01152Y014*
X01157Y01393*
X01164Y01388*
X01173Y01387*
X01185*
Y01416*
G37*
G36*
X00794Y01418D02*
X00789Y01417D01*
X00779Y01413*
X0077Y01406*
X00764Y01398*
X0076Y01388*
X00759Y01382*
X00794*
Y01418*
G37*
G36*
X01128Y01416D02*
X01075D01*
Y01367*
X01128*
Y01416*
G37*
G36*
X01362Y00818D02*
X01319D01*
Y00768*
X01362*
Y00818*
G37*
G36*
X01414D02*
X01372D01*
Y00768*
X01414*
Y00818*
G37*
G36*
X01362Y00758D02*
X01319D01*
Y00708*
X01362*
Y00758*
G37*
G36*
X01374Y00687D02*
X01371D01*
Y00666*
X01392*
Y00669*
X0139Y00676*
X01386Y00682*
X0138Y00686*
X01374Y00687*
G37*
G36*
X00849Y00693D02*
X00825D01*
X00825Y00691*
X00828Y00683*
X00833Y00677*
X00839Y00672*
X00846Y00669*
X00849Y00669*
Y00693*
G37*
G36*
X00883D02*
X00859D01*
Y00669*
X00862Y00669*
X00869Y00672*
X00875Y00677*
X0088Y00683*
X00883Y00691*
X00883Y00693*
G37*
G36*
X01185Y01455D02*
X01173D01*
X01164Y01453*
X01157Y01448*
X01152Y01441*
X0115Y01433*
Y01426*
X01185*
Y01455*
G37*
G36*
X01361Y00687D02*
X01358D01*
X01351Y00686*
X01345Y00682*
X01341Y00676*
X0134Y00669*
Y00666*
X01361*
Y00687*
G37*
G36*
X01296Y01426D02*
X0128D01*
Y01409*
X01284Y0141*
X01291Y01415*
X01296Y01422*
X01296Y01426*
G37*
G36*
X0127D02*
X01254D01*
X01255Y01422*
X01259Y01415*
X01267Y0141*
X0127Y01409*
Y01426*
G37*
G36*
X00849Y00728D02*
X00846Y00727D01*
X00839Y00724*
X00833Y00719*
X00828Y00713*
X00825Y00706*
X00825Y00703*
X00849*
Y00728*
G37*
G36*
X00859D02*
Y00703D01*
X00883*
X00883Y00706*
X0088Y00713*
X00875Y00719*
X00869Y00724*
X00862Y00727*
X00859Y00728*
G37*
G36*
X0123Y01416D02*
X01195D01*
Y01387*
X01208*
X01217Y01388*
X01224Y01393*
X01229Y014*
X0123Y01409*
Y01416*
G37*
G36*
X01432Y00221D02*
X01415D01*
X01416Y00217*
X01421Y0021*
X01428Y00205*
X01432Y00205*
Y00221*
G37*
G36*
X01458D02*
X01442D01*
Y00205*
X01445Y00205*
X01452Y0021*
X01457Y00217*
X01458Y00221*
G37*
G36*
X01442Y00247D02*
Y00231D01*
X01458*
X01457Y00234*
X01452Y00242*
X01445Y00246*
X01442Y00247*
G37*
G36*
X01432D02*
X01428Y00246D01*
X01421Y00242*
X01416Y00234*
X01415Y00231*
X01432*
Y00247*
G37*
G36*
X01358Y00205D02*
X01345Y00203D01*
X01332Y00199*
X0132Y00193*
X0131Y00185*
X01302Y00175*
X01296Y00163*
X01292Y0015*
X01291Y00137*
X01292Y00124*
X01296Y00112*
X01302Y001*
X0131Y0009*
X0132Y00081*
X01332Y00075*
X01345Y00071*
X01358Y0007*
X01371Y00071*
X01384Y00075*
X01395Y00081*
X01405Y0009*
X01414Y001*
X0142Y00112*
X01424Y00124*
X01425Y00137*
X01424Y0015*
X0142Y00163*
X01414Y00175*
X01405Y00185*
X01395Y00193*
X01384Y00199*
X01371Y00203*
X01358Y00205*
G37*
G36*
X01266Y00094D02*
X01263Y00093D01*
X01255Y00088*
X01251Y00081*
X0125Y00077*
X01266*
Y00094*
G37*
G36*
X01276D02*
Y00077D01*
X01292*
X01292Y00081*
X01287Y00088*
X0128Y00093*
X01276Y00094*
G37*
G36*
X01266Y00067D02*
X0125D01*
X01251Y00064*
X01255Y00057*
X01263Y00052*
X01266Y00051*
Y00067*
G37*
G36*
X01292D02*
X01276D01*
Y00051*
X0128Y00052*
X01287Y00057*
X01292Y00064*
X01292Y00067*
G37*
%LNstepperpcb-3*%
%LPD*%
G36*
X00124Y00376D02*
X00123Y00377D01*
X00122Y00377*
X00122Y00377*
X00121Y00377*
X0012Y00377*
X00119Y00377*
X00118Y00376*
X00117Y00375*
X00116Y00375*
X00115Y00374*
X0011Y00379*
X00111Y0038*
X00112Y00381*
X00112Y00382*
X00113Y00383*
X00113Y00384*
X00113Y00385*
X00113Y00386*
X00113Y00386*
X00113Y00387*
X00113Y00387*
X00124Y00376*
G37*
G36*
X00079Y00425D02*
X00079Y00425D01*
X00078Y00425*
X00077Y00425*
X00076Y00425*
X00075Y00424*
X00074Y00424*
X00073Y00423*
X00072Y00423*
X00071Y00422*
X0007Y00421*
X00065Y00427*
X00066Y00428*
X00066Y00429*
X00067Y0043*
X00068Y00431*
X00068Y00431*
X00068Y00432*
X00069Y00433*
X00069Y00434*
X00069Y00435*
X00068Y00436*
X00079Y00425*
G37*
G36*
X0009Y00351D02*
X0009Y0035D01*
X0009Y00349*
X00091Y00348*
X00091Y00347*
X00092Y00346*
X00092Y00345*
X00093Y00344*
X00094Y00343*
X00094Y00343*
X00078*
X00079Y00343*
X00079Y00344*
X0008Y00345*
X00081Y00346*
X00081Y00347*
X00081Y00348*
X00082Y00349*
X00082Y0035*
X00082Y00351*
X00082Y00352*
X0009*
X0009Y00351*
G37*
G36*
X00136Y00685D02*
X00136Y00684D01*
X00136Y00683*
X00136Y00682*
X00137Y00681*
X00137Y00681*
X00138Y0068*
X00138Y00679*
X00139Y00678*
X0014Y00677*
X00135Y00671*
X00134Y00672*
X00133Y00673*
X00132Y00673*
X00131Y00674*
X0013Y00674*
X00129Y00675*
X00128Y00675*
X00127Y00675*
X00126Y00675*
X00125Y00675*
X00136Y00686*
X00136Y00685*
G37*
G36*
X00249Y0063D02*
X00248Y00631D01*
X00247Y00631*
X00247Y00631*
X00246Y00631*
X00245Y00631*
X00244Y00631*
X00243Y0063*
X00242Y00629*
X00241Y00629*
X0024Y00628*
X00235Y00633*
X00236Y00634*
X00237Y00635*
X00237Y00636*
X00238Y00637*
X00238Y00638*
X00238Y00639*
X00238Y0064*
X00238Y0064*
X00238Y00641*
X00238Y00642*
X00249Y0063*
G37*
G36*
X00238Y00626D02*
X00238Y00625D01*
X00237Y00624*
X00237Y00623*
X00236Y00622*
X00236Y00621*
X00235Y0062*
X00235Y00619*
X00235Y00618*
X00235Y00617*
X00235Y00616*
X00223Y00627*
X00224Y00627*
X00225Y00628*
X00226Y00628*
X00227Y00628*
X00228Y00628*
X00229Y00629*
X0023Y00629*
X00231Y0063*
X00232Y00631*
X00233Y00631*
X00238Y00626*
G37*
G36*
X00223Y0067D02*
X00227Y00667D01*
X00227Y00666*
X00228Y00666*
X00229Y00665*
X00229Y00665*
X0023Y00665*
X00222Y00657*
X00222Y00658*
X00222Y00658*
X00222Y00659*
X00221Y0066*
X00221Y00661*
X00219Y00662*
X00217Y00664*
X00216Y00665*
X00222Y00671*
X00223Y0067*
G37*
G36*
X00688Y00315D02*
X00688Y00314D01*
X00688Y00313*
X00688Y00312*
X00689Y00311*
X00689Y0031*
X0069Y00309*
X0069Y00308*
X00691Y00307*
X00692Y00306*
X00687Y00301*
X00686Y00302*
X00685Y00303*
X00684Y00303*
X00683Y00304*
X00682Y00304*
X00681Y00305*
X0068Y00305*
X00679Y00305*
X00678Y00305*
X00677Y00305*
X00689Y00316*
X00688Y00315*
G37*
G36*
X00686Y00279D02*
X00686Y00278D01*
X00685Y00278*
X00684Y00277*
X00684Y00276*
X00684Y00275*
X00683Y00274*
X00683Y00273*
X00683Y00272*
X00683Y0027*
X00683Y00269*
X00671Y00281*
X00672Y00281*
X00673Y00281*
X00674Y00281*
X00675Y00282*
X00676Y00282*
X00677Y00282*
X00678Y00283*
X00679Y00283*
X0068Y00284*
X00681Y00285*
X00686Y00279*
G37*
G36*
X00736Y00359D02*
X00736Y00359D01*
X00736Y00358*
X00736Y00357*
X00736Y00356*
X00736Y00356*
X00737Y00355*
X00738Y00354*
X00739Y00353*
X0074Y00352*
X00734Y00346*
X00733Y00347*
X00732Y00348*
X00731Y00349*
X0073Y00349*
X00729Y0035*
X00728Y0035*
X00728Y0035*
X00727Y0035*
X00726Y00349*
X00726Y00349*
X00737Y0036*
X00736Y00359*
G37*
G36*
X0138Y00926D02*
X0138Y00928D01*
X01379Y00929*
X01378Y0093*
X01377Y00931*
X01376Y00932*
X01374Y00933*
X01372Y00933*
X0137Y00934*
X01367Y00934*
X01364Y00934*
Y0095*
X01367Y0095*
X0137Y0095*
X01372Y0095*
X01374Y00951*
X01376Y00952*
X01377Y00953*
X01378Y00954*
X01379Y00955*
X0138Y00956*
X0138Y00958*
Y00926*
G37*
G36*
X01421Y00903D02*
X0142Y00902D01*
X01419Y00901*
X01418Y009*
X01417Y00899*
X01416Y00897*
X01416Y00895*
X01415Y00893*
X01415Y0089*
X01415Y00884*
X01399*
X01399Y00884*
X01399Y00884*
X01399Y00885*
X01399Y00886*
X01399Y00888*
X01399Y0089*
X01399Y00893*
X01398Y00895*
X01398Y00897*
X01397Y00899*
X01396Y009*
X01395Y00901*
X01394Y00902*
X01393Y00903*
X01391Y00903*
X01423*
X01421Y00903*
G37*
G36*
X0124Y00898D02*
X0124Y00896D01*
X01241Y00895*
X01242Y00894*
X01243Y00893*
X01245Y00892*
X01247Y00892*
X0125Y00892*
X01252Y00891*
X01255Y00891*
Y00875*
X01252Y00875*
X0125Y00875*
X01247Y00875*
X01245Y00874*
X01243Y00874*
X01242Y00873*
X01241Y00872*
X0124Y0087*
X0124Y00869*
X01239Y00868*
Y00899*
X0124Y00898*
G37*
G36*
X01187Y0069D02*
X01187Y00688D01*
X01187Y00686*
X01187Y00685*
X01188Y00683*
X01189Y00682*
X01189Y00681*
X0119Y00681*
X01191Y0068*
X01192Y0068*
X01169*
X0117Y0068*
X01171Y00681*
X01172Y00681*
X01173Y00682*
X01173Y00683*
X01174Y00685*
X01174Y00686*
X01174Y00688*
X01175Y0069*
X01175Y00692*
X01187*
X01187Y0069*
G37*
G36*
X01225Y00744D02*
X01225Y00745D01*
X01224Y00747*
X01223Y00749*
X01222Y0075*
X0122Y00751*
X01218Y00752*
X01215Y00753*
X01212Y00753*
X01209Y00753*
X01205Y00753*
Y00773*
X01209Y00773*
X01212Y00774*
X01215Y00774*
X01218Y00775*
X0122Y00776*
X01222Y00777*
X01223Y00778*
X01224Y00779*
X01225Y00781*
X01225Y00783*
Y00744*
G37*
G36*
X01153Y01116D02*
X01153Y01118D01*
X01152Y0112*
X01152Y01121*
X0115Y01123*
X01148Y01124*
X01146Y01125*
X01144Y01125*
X01141Y01126*
X01137Y01126*
X01133Y01126*
Y01146*
X01137Y01146*
X01141Y01146*
X01144Y01147*
X01146Y01148*
X01148Y01148*
X0115Y0115*
X01152Y01151*
X01152Y01152*
X01153Y01154*
X01153Y01156*
Y01116*
G37*
G36*
X01194Y00754D02*
X01193Y00753D01*
X01192Y00753*
X01192Y00753*
X01191Y00752*
X0119Y00752*
X01189Y00751*
X01187Y00749*
X01185Y00747*
X01176Y00756*
X01178Y00757*
X0118Y0076*
X01181Y00761*
X01181Y00762*
X01182Y00763*
X01182Y00763*
X01183Y00764*
X01183Y00765*
X01194Y00754*
G37*
G36*
X01271Y00672D02*
X01271Y00671D01*
X01272Y0067*
X01273Y00669*
X01274Y00668*
X01275Y00668*
X01277Y00667*
X01279Y00667*
X01281Y00667*
X01281Y00667*
X01281Y00667*
X01284Y00667*
X01286Y00667*
X01287Y00668*
X01289Y00668*
X0129Y00669*
X01291Y0067*
X01292Y00671*
X01292Y00672*
X01292Y00673*
Y00649*
X01292Y0065*
X01292Y00651*
X01291Y00652*
X0129Y00653*
X01289Y00654*
X01287Y00654*
X01286Y00654*
X01284Y00655*
X01281Y00655*
X01281Y00655*
X01281Y00655*
X01279Y00655*
X01277Y00654*
X01275Y00654*
X01274Y00654*
X01273Y00653*
X01272Y00652*
X01271Y00651*
X01271Y0065*
X01271Y00649*
Y00673*
X01271Y00672*
G37*
G54D10*
X00989Y00162D02*
D01*
X00989Y00155*
X0099Y00148*
X00991Y00141*
X00993Y00134*
X00995Y00128*
X00997Y00121*
X01Y00115*
X01004Y00109*
X01008Y00103*
X01012Y00098*
X01017Y00093*
X01018Y00091*
X00831Y00089D02*
D01*
X00836Y00094*
X00841Y001*
X00845Y00106*
X00848Y00112*
X00851Y00118*
X00854Y00124*
X00856Y00131*
X00858Y00138*
X00859Y00144*
X0086Y00151*
X00861Y00158*
X00861Y0016*
X00937Y00131D02*
D01*
X00938Y00124*
X00938Y00118*
X00939Y00112*
X00941Y00106*
X00943Y001*
X00945Y00094*
X00948Y00088*
X00951Y00083*
X00955Y00077*
X00959Y00072*
X00963Y00068*
X00964Y00066*
X00887D02*
D01*
X00891Y00071*
X00895Y00075*
X00898Y0008*
X00901Y00085*
X00904Y0009*
X00906Y00096*
X00908Y00101*
X0091Y00107*
X00911Y00113*
X00912Y00119*
X00912Y00124*
X00912Y00126*
X01185Y00116D02*
Y00192D01*
Y00318*
X01014Y00192D02*
X01185D01*
X00782Y00176D02*
X00799Y00192D01*
X00757Y00151D02*
X00782Y00176D01*
Y00262*
X00757Y00068D02*
Y00151D01*
X01018Y00091D02*
X01043Y00066D01*
X00989Y00162D02*
Y00192D01*
X01181Y00751D02*
X01192Y00763D01*
X01181Y00661D02*
Y00751D01*
X00799Y00192D02*
X00835D01*
X00809Y00066D02*
X00831Y00089D01*
X00861Y0016D02*
Y00192D01*
X00937Y00131D02*
Y00192D01*
X00912Y00126D02*
Y00192D01*
X01251Y00661D02*
X01307D01*
G54D11*
X01043Y00066D03*
X00809D03*
X00887D03*
X00964D03*
G54D12*
X01185Y00539D03*
Y00318D03*
G54D13*
X00989Y00417D03*
X00963D03*
X00937D03*
X00912D03*
X00886D03*
X00861D03*
X00835D03*
X01014D03*
Y00192D03*
X00989D03*
X00963D03*
X00937D03*
X00912D03*
X00886D03*
X00861D03*
X00835D03*
G54D14*
X00925Y00297D03*
G54D15*
X00782Y00333D03*
Y00262D03*
X0062Y00373D03*
X0067Y00323D03*
X00444Y00198D03*
X00374D03*
X00498D03*
X00568D03*
X00755Y01025D03*
X00685D03*
X0068Y00758D03*
X0063Y00808D03*
X00925Y00698D03*
X00854D03*
X00927Y00633D03*
X00856D03*
X00118Y00693D03*
X00168Y00743D03*
X00087Y00443D03*
X00137Y00493D03*
X00229Y00399D03*
X00179Y00348D03*
X00226Y00303D03*
X00277Y00353D03*
G54D16*
X00299Y00974D03*
X00891Y01023D03*
X01185Y00116D03*
X00889Y01106D03*
G54D17*
X00265Y01088D03*
Y01198D03*
G54D18*
X00132Y00396D03*
X00182Y00446D03*
G54D19*
X00523Y01138D03*
G54D20*
X006Y01177D03*
Y01158D03*
Y01138D03*
Y01118D03*
Y01099D03*
X00446D03*
Y01118D03*
Y01138D03*
Y01158D03*
Y01177D03*
G54D21*
X00562Y01061D03*
X00543D03*
X00523D03*
X00503D03*
X00484D03*
Y01215D03*
X00503D03*
X00523D03*
X00543D03*
X00562D03*
G54D22*
X01196Y00883D03*
Y01135D03*
G54D23*
X00342Y01035D03*
Y01106D03*
X00057Y00724D03*
Y00795D03*
G54D24*
X00717Y00368D03*
X00667Y00418D03*
G54D25*
X00391Y00291D03*
X0049D03*
G54D26*
X00684Y01092D03*
X00755D03*
X01181Y00661D03*
X00927Y00568D03*
X00856D03*
X00927Y00763D03*
X00856D03*
X01251Y00661D03*
G54D27*
X0107Y01216D03*
Y01421D03*
G54D28*
X0119Y01421D03*
Y01342D03*
G54D29*
X01407Y00942D03*
Y01097D03*
G54D30*
X01262Y00763D03*
X01367D03*
G54D31*
X01307Y00661D03*
X01366D03*
G54D32*
X00342Y01218D03*
Y01159D03*
G54D33*
X00057Y00889D03*
Y01185D03*
G54D34*
X00057Y01037D03*
G54D35*
X00162Y00986D03*
Y01011D03*
Y01037D03*
Y01062D03*
Y01088D03*
G54D36*
X004Y00415D03*
X00386Y00428D03*
X00372Y00442D03*
X00359Y00456D03*
X00345Y0047D03*
X00331Y00484D03*
X00317Y00498D03*
X00303Y00512D03*
X00289Y00526D03*
X00275Y0054D03*
X00261Y00554D03*
X00247Y00568D03*
X00473Y00793D03*
X00487Y00779D03*
X00501Y00765D03*
X00514Y00751D03*
X00528Y00737D03*
X00542Y00724D03*
X00556Y0071D03*
X0057Y00696D03*
X00584Y00682D03*
X00598Y00668D03*
X00612Y00654D03*
X00626Y0064D03*
G54D37*
X00247Y0064D03*
X00261Y00654D03*
X00275Y00668D03*
X00289Y00682D03*
X00303Y00696D03*
X00317Y0071D03*
X00331Y00724D03*
X00345Y00737D03*
X00359Y00751D03*
X00372Y00765D03*
X00386Y00779D03*
X004Y00793D03*
X00626Y00568D03*
X00612Y00554D03*
X00598Y0054D03*
X00584Y00526D03*
X0057Y00512D03*
X00556Y00498D03*
X00542Y00484D03*
X00528Y0047D03*
X00514Y00456D03*
X00501Y00442D03*
X00487Y00428D03*
X00473Y00415D03*
G54D38*
X01219Y01216D02*
X01269Y01267D01*
X01188Y01216D02*
X01219D01*
X0107D02*
X01188D01*
X0119Y01218*
Y01342*
G54D39*
X00678Y00891D02*
X00683Y00887D01*
X00415Y01158D02*
X00446D01*
X00385Y01127D02*
X00415Y01158D01*
X00385Y01003D02*
Y01127D01*
X00446Y01138D02*
X00523D01*
X00265Y01055D02*
Y01088D01*
Y01055D02*
X00299Y01021D01*
Y00974D02*
Y01021D01*
X0021Y01062D02*
X0025Y01023D01*
Y00721D02*
Y01023D01*
Y00721D02*
X00289Y00682D01*
X00213Y01037D02*
X00234Y01017D01*
Y00709D02*
Y01017D01*
Y00709D02*
X00275Y00668D01*
X00293Y00761D02*
Y00797D01*
X00342Y00847*
Y01035*
X00539Y00921D02*
Y00974D01*
Y00921D02*
X00564Y00896D01*
X00503Y01009D02*
X00539Y00974D01*
X00543Y01003D02*
X00555Y00992D01*
Y00929D02*
Y00992D01*
Y00929D02*
X0058Y00903D01*
Y00761D02*
Y00903D01*
X00564Y00774D02*
Y00896D01*
X00507Y00931D02*
X00549Y00889D01*
Y00786D02*
Y00889D01*
X00484Y00931D02*
X00533Y00881D01*
Y00798D02*
Y00881D01*
X00309Y00791D02*
X00393Y00875D01*
X00309Y00774D02*
Y00791D01*
X00393Y00875D02*
X00501D01*
X00755Y01092D02*
X00807D01*
Y01025D02*
Y01092D01*
X006Y01138D02*
X00676D01*
X0085Y00982D02*
X00864Y00968D01*
X00807Y01025D02*
X0085Y00982D01*
X00891Y01023*
X00477Y00035D02*
X00523Y0008D01*
X00393Y00035D02*
X00477D01*
X00374Y00055D02*
X00393Y00035D01*
X00374Y00055D02*
Y00122D01*
X00229Y00399D02*
X00273Y00442D01*
X00289*
X00331Y00484*
X00305Y00381D02*
Y0043D01*
X00277Y00353D02*
X00305Y00381D01*
X00323Y0042D02*
X00359Y00456D01*
X00614Y00879D02*
X00728Y00765D01*
X0065Y00616D02*
X00746D01*
X00626Y0064D02*
X0065Y00616D01*
X00576Y00618D02*
X00612Y00654D01*
X00576Y00592D02*
Y00618D01*
X00535Y00547D02*
Y00566D01*
X00598Y0054D02*
X00638Y005D01*
X00634Y00476D02*
X008D01*
X00594Y0046D02*
X00807D01*
X00556Y00498D02*
X00594Y0046D01*
X00582Y00444D02*
X00641D01*
X00584Y00526D02*
X00634Y00476D01*
X00542Y00484D02*
X00582Y00444D01*
X00638Y005D02*
X00789D01*
X00832Y00507D02*
X00875D01*
X008Y00476D02*
X00832Y00507D01*
X00838Y00492D02*
X00869D01*
X00807Y0046D02*
X00838Y00492D01*
X00671Y00269D02*
X00697Y00296D01*
X00728Y00647D02*
Y00765D01*
X00614Y00879D02*
Y01039D01*
X006Y01052D02*
X00614Y01039D01*
X006Y01052D02*
Y01099D01*
X00219Y00483D02*
X00228Y00492D01*
X00182Y00446D02*
X00219Y00483D01*
X0022*
X00249Y00454*
X00338Y00157D02*
X00374Y00122D01*
X0049Y00291D02*
X00523D01*
X00568Y00246*
Y00198D02*
Y00246D01*
X00391Y00216D02*
Y00291D01*
X00374Y00198D02*
X00391Y00216D01*
X0049Y00291D02*
Y00338D01*
X00523Y00372*
Y00392*
X00487Y00428D02*
X00523Y00392D01*
X00391Y00291D02*
Y00333D01*
X00473Y00415*
X00697Y00296D02*
X00744Y00342D01*
X0067Y00323D02*
X00697Y00296D01*
X00717Y00368D02*
X00744Y00342D01*
X00641Y00444D02*
X00667Y00418D01*
X00656Y00734D02*
X0068Y00758D01*
X00608Y00734D02*
X00656D01*
X00342Y01106D02*
Y01159D01*
X00399Y01177D02*
X00446D01*
X00562Y01021D02*
X0059Y00994D01*
X00562Y01021D02*
Y01061D01*
X00507Y00931D02*
Y00972D01*
X00484Y00931D02*
Y01061D01*
X00543Y01003D02*
Y01061D01*
X00503Y01009D02*
Y01061D01*
X00755Y01025D02*
X00807D01*
X00657Y01092D02*
X00684D01*
X00631Y01118D02*
X00657Y01092D01*
X006Y01118D02*
X00631D01*
X00644Y01158D02*
X00645Y01159D01*
X00698*
X00645Y01187D02*
X00665D01*
X00636Y01177D02*
X00645Y01187D01*
X006Y01177D02*
X00636D01*
X006Y01158D02*
X00644D01*
X00086Y00385D02*
X00104Y00368D01*
X00058Y00414D02*
X00086Y00385D01*
Y00334D02*
Y00385D01*
X00223Y00616D02*
X00247Y0064D01*
X00452Y00696D02*
Y00728D01*
X00332Y00667D02*
X00423D01*
X00452Y00696*
X00303Y00696D02*
X00332Y00667D01*
X00405Y00683D02*
X00427Y00704D01*
X00344Y00683D02*
X00405D01*
X00317Y0071D02*
X00344Y00683D01*
X00492Y00551D02*
Y00617D01*
X00425Y00551D02*
X00492D01*
X00963Y00417D02*
Y00477D01*
X0082Y00763D02*
X00856D01*
X00797Y0074D02*
X0082Y00763D01*
X00797Y00667D02*
Y0074D01*
X00746Y00616D02*
X00797Y00667D01*
X00927Y00633D02*
X00964D01*
Y00568D02*
Y00633D01*
X00927Y00568D02*
X00964D01*
X00989Y00417D02*
Y00698D01*
Y00763*
X00925Y00698D02*
X00989D01*
X00927Y00763D02*
X00989D01*
X00927Y00568D02*
D01*
Y00531D02*
Y00568D01*
X00803D02*
X00856D01*
X00773Y00539D02*
X00803Y00568D01*
X00655Y00539D02*
X00773D01*
X00626Y00568D02*
X00655Y00539D01*
X00861Y00417D02*
Y00465D01*
X00869Y00492D02*
X00886Y00474D01*
X00875Y00507D02*
X00912Y00471D01*
X00882Y00523D02*
X00937Y00468D01*
X00886Y00417D02*
Y00474D01*
X00912Y00417D02*
Y00471D01*
X00642Y00523D02*
X00882D01*
X00937Y00417D02*
Y00468D01*
X00612Y00554D02*
X00642Y00523D01*
X00338Y00157D02*
Y00408D01*
X00323Y0008D02*
Y0042D01*
X00118Y00693D02*
X00138Y00673D01*
X00215*
X00168Y00743D02*
X00172D01*
X00104Y00368D02*
X00132Y00396D01*
X00058Y00414D02*
X00087Y00443D01*
X00228Y00492D02*
X00255D01*
X00289Y00526*
X00338Y00408D02*
X00372Y00442D01*
X00057Y00795D02*
Y00889D01*
X00162Y01062D02*
X0021D01*
X00162Y01037D02*
X00213D01*
X00542Y00724D02*
X0058Y00761D01*
X00528Y00737D02*
X00564Y00774D01*
X00514Y00751D02*
X00549Y00786D01*
X00535Y00547D02*
X0057Y00512D01*
X00501Y00765D02*
X00533Y00798D01*
X00293Y00761D02*
X00331Y00724D01*
X00309Y00774D02*
X00345Y00737D01*
X0057Y00696D02*
X00608Y00734D01*
X00215Y00673D02*
X00247Y0064D01*
X00345Y0047D02*
X00425Y00551D01*
X00807Y01092D02*
D01*
Y01102D01*
X00492Y00617D02*
X0057Y00696D01*
X00305Y0043D02*
X00345Y0047D01*
X00317Y00498D02*
X00366Y00547D01*
Y00549*
X00676Y01138D02*
X00685Y01129D01*
X00779*
X00807Y01102*
G54D40*
X01185Y00318D02*
D01*
X01452*
G54D41*
X00251Y01452D02*
X00937D01*
X00974Y01415*
Y01312D02*
Y01415D01*
Y01312D02*
X0107Y01216D01*
X00189Y01198D02*
X00265D01*
X00149Y01158D02*
X00189Y01198D01*
X00162Y01088D02*
X00265D01*
X01272Y00883D02*
X0133Y00942D01*
X01196Y00883D02*
X01272D01*
X01407Y00875D02*
Y00942D01*
X0133D02*
X01407D01*
G54D42*
X01175Y00781D02*
X01192Y00763D01*
X01102Y00854D02*
X01175Y00781D01*
X01102Y00854D02*
Y01136D01*
X01196*
X01003D02*
X01102D01*
X01196D02*
X01196Y01135D01*
X01192Y00763D02*
X01262D01*
G54D43*
X00963Y00139D02*
Y00192D01*
X00886Y00139D02*
Y00192D01*
G54D44*
X00427Y0134D03*
X00602Y01377D03*
X00701D03*
X00799D03*
X01383Y00537D03*
X00423Y0008D03*
X00523D03*
X00623D03*
G54D45*
X00327Y0134D03*
X00898Y01377D03*
X00323Y0008D03*
G54D46*
X01383Y00437D03*
G54D47*
X01275Y01431D03*
X00913Y01283D03*
X00059Y01287D03*
X00562Y0034D03*
X0024Y00222D03*
X01279Y00429D03*
X01437Y00226D03*
X01092Y00425D03*
X01269Y01267D03*
X00683Y00887D03*
X00958Y00994D03*
X01096Y00612D03*
X00925Y00297D03*
X00877D03*
X00972D03*
Y0025D03*
X00925D03*
X00877D03*
Y00344D03*
X00925D03*
X00972D03*
X01452Y00318D03*
X00251Y01452D03*
X00149Y01158D03*
X01175Y00781D03*
X00864Y00968D03*
X00501Y00875D03*
X00728Y00647D03*
X00576Y00592D03*
X00535Y00566D03*
X00671Y00269D03*
X00249Y00454D03*
X00399Y01177D03*
X00385Y01003D03*
X0059Y00994D03*
X00507Y00972D03*
X00698Y01159D03*
X00665Y01187D03*
X00086Y00334D03*
X00223Y00616D03*
X00427Y00704D03*
X00452Y00728D03*
X00492Y00551D03*
X00963Y00477D03*
X00927Y00531D03*
X00861Y00465D03*
X00789Y005D03*
X00757Y00068D03*
X00963Y00139D03*
X00886D03*
X00501Y01116D03*
Y0116D03*
X00545Y01116D03*
Y0116D03*
X01407Y00875D03*
X01003Y01136D03*
X00649Y00976D03*
X00783Y00604D03*
X00437Y01019D03*
X00198Y00773D03*
X00137Y00548D03*
X00157Y00285D03*
X0071Y00106D03*
X00782Y00383D03*
X00366Y00549D03*
X00456Y00511D03*
X01271Y00072D03*
X00287Y0085D03*
X00994Y00893D03*
X00446Y00814D03*
X00702Y007D03*
M02*