%FSTAX23Y23*%
%MOIN*%
%SFA1B1*%

%IPPOS*%
%ADD65C,0.047240*%
%ADD73R,0.047240X0.047240*%
%ADD75R,0.047240X0.078740*%
%ADD76R,0.047240X0.047240*%
%ADD79R,0.062990X0.086610*%
%ADD88C,0.007870*%
%ADD89C,0.068900*%
%ADD90R,0.068900X0.068900*%
%ADD91R,0.068900X0.068900*%
%ADD92R,0.187010X0.055120*%
%ADD93R,0.040550X0.032680*%
%ADD94O,0.031500X0.077950*%
%ADD95R,0.102360X0.074800*%
%ADD96R,0.078740X0.066930*%
%ADD97O,0.077950X0.031500*%
%ADD98R,0.011810X0.011810*%
%ADD99R,0.031500X0.062990*%
%ADD100R,0.066930X0.078740*%
%LNstepperpcb-1*%
%LPD*%
G36*
X01004Y00213D02*
X00847D01*
Y0037*
X01004*
Y00213*
G37*
G54D65*
X00385Y00911D03*
X00314D03*
X00399Y01242D03*
X00328D03*
X01255Y00976D03*
Y00905D03*
X006Y01273D03*
X00529D03*
X00705Y00986D03*
X00775D03*
X00998Y00783D03*
Y00712D03*
X00933D03*
Y00783D03*
X01125Y00905D03*
Y00976D03*
G54D73*
X00564Y00718D03*
Y00647D03*
X0132Y00976D03*
Y00905D03*
X0119D03*
Y00976D03*
X00564Y00777D03*
Y00848D03*
G54D75*
X00974Y01377D03*
X01084D03*
G54D76*
X01322Y00789D03*
X01393D03*
G54D79*
X01185Y01421D03*
Y01267D03*
G54D88*
X00137Y01358D03*
Y00137D03*
X01358Y01358D03*
Y00137D03*
X00141Y00958D03*
Y01116D03*
G54D89*
X00427Y0134D03*
X00602Y01377D03*
X00701D03*
X00799D03*
X01383Y00537D03*
X00423Y0008D03*
X00523D03*
X00623D03*
G54D90*
X00327Y0134D03*
X00898Y01377D03*
X00323Y0008D03*
G54D91*
X01383Y00437D03*
G54D92*
X008Y00887D03*
G54D93*
X00177Y01219D03*
Y01131D03*
G54D94*
X00815Y01273D03*
X00715D03*
X00765D03*
X00665D03*
X00815Y01061D03*
X00765D03*
X00715D03*
X00665D03*
G54D95*
X00307Y01149D03*
Y01003D03*
G54D96*
X00779Y00139D03*
Y00253D03*
X01055Y00139D03*
Y00253D03*
G54D97*
X01328Y01191D03*
Y01091D03*
Y01141D03*
Y01041D03*
X01116Y01141D03*
Y01191D03*
Y01091D03*
Y01041D03*
X00854Y00673D03*
Y00723D03*
Y00773D03*
Y00823D03*
X00641Y00673D03*
Y00773D03*
Y00723D03*
Y00823D03*
G54D98*
X00868Y00887D03*
X00801D03*
X0073D03*
G54D99*
X01358Y00631D03*
X0132Y00714D03*
X01395D03*
X00631Y0024D03*
X00706D03*
X00669Y00157D03*
G54D100*
X00327Y01423D03*
X00441D03*
M02*