%FSLAX25Y25*%
%MOIN*%
G70*
G01*
G75*
G04 Layer_Color=65535*
%ADD10C,0.00787*%
%ADD11C,0.01575*%
%ADD12C,0.02756*%
%ADD13C,0.03150*%
%ADD14C,0.01969*%
%ADD15C,0.01181*%
%ADD16C,0.03937*%
%ADD17C,0.02362*%
%ADD18C,0.05906*%
%ADD19R,0.03937X0.03937*%
%ADD20O,0.08661X0.02362*%
%ADD21C,0.03937*%
%ADD22R,0.09449X0.06693*%
%ADD23R,0.15748X0.06299*%
%ADD24R,0.07874X0.05512*%
%ADD25R,0.05512X0.07874*%
%ADD26R,0.01181X0.02874*%
%ADD27R,0.02874X0.01181*%
%ADD28R,0.09843X0.09843*%
%ADD29C,0.05906*%
%ADD30R,0.05118X0.05118*%
%ADD31C,0.05118*%
%ADD32R,0.06890X0.06890*%
%ADD33C,0.06890*%
%ADD34C,0.06102*%
%ADD35R,0.06102X0.06102*%
%ADD36R,0.06102X0.06102*%
%ADD37R,0.06102X0.06000*%
%ADD38C,0.19685*%
%ADD39R,0.08071X0.08071*%
%ADD40C,0.08071*%
%ADD41C,0.02756*%
%ADD42C,0.02362*%
%ADD43R,0.10039X0.11614*%
%ADD44R,0.03937X0.03937*%
%ADD45R,0.08976X0.07480*%
%ADD46R,0.02362X0.05512*%
%ADD47R,0.08583X0.06378*%
%ADD48O,0.07008X0.02362*%
%ADD49R,0.07087X0.05906*%
%ADD50C,0.01000*%
%ADD51C,0.00984*%
%ADD52C,0.00591*%
G36*
X18079Y101903D02*
X18115Y101817D01*
X18112Y101816D01*
X18646Y99029D01*
X18682Y98943D01*
X18739Y98919D01*
X21074Y97952D01*
X21131Y97929D01*
X21217Y97964D01*
X21215Y97967D01*
X23564Y99560D01*
X23650Y99595D01*
X23765Y99548D01*
X23756Y99539D01*
X25773Y97539D01*
X25821Y97425D01*
X25785Y97339D01*
X25783Y97340D01*
X24190Y94991D01*
X24154Y94906D01*
X24178Y94848D01*
X25145Y92514D01*
X25169Y92457D01*
X25254Y92421D01*
X25255Y92424D01*
X28043Y91889D01*
X28128Y91854D01*
X28176Y91739D01*
X28163D01*
X28176Y88899D01*
Y88899D01*
X28128Y88784D01*
X28043Y88748D01*
X28042Y88751D01*
X25254Y88217D01*
X25169Y88181D01*
X25145Y88124D01*
X25145D01*
X24178Y85790D01*
X24154Y85732D01*
X24190Y85646D01*
X24192Y85648D01*
X25785Y83299D01*
X25821Y83213D01*
X25773Y83099D01*
X25765Y83107D01*
X23765Y81090D01*
X23650Y81042D01*
X23564Y81078D01*
X23566Y81081D01*
X21217Y82674D01*
X21131Y82709D01*
X21074Y82685D01*
X20005Y82243D01*
X19947Y82219D01*
X19833Y82266D01*
X19809Y82324D01*
X17841Y87144D01*
X17817Y87201D01*
X17865Y87316D01*
X17917Y87337D01*
X17918Y87335D01*
X18200Y87452D01*
X18886Y87978D01*
X19412Y88664D01*
X19742Y89462D01*
X19855Y90319D01*
X19742Y91176D01*
X19412Y91974D01*
X18886Y92660D01*
X18200Y93186D01*
X17401Y93517D01*
X16544Y93630D01*
X15687Y93517D01*
X14889Y93186D01*
X14203Y92660D01*
X13677Y91974D01*
X13346Y91176D01*
X13234Y90319D01*
X13346Y89462D01*
X13677Y88664D01*
X14203Y87978D01*
X14889Y87452D01*
X15171Y87335D01*
X15172Y87337D01*
X15224Y87316D01*
X15272Y87201D01*
X15248Y87144D01*
X13280Y82324D01*
X13256Y82266D01*
X13141Y82219D01*
X13084Y82243D01*
X12015Y82685D01*
X11958Y82709D01*
X11872Y82674D01*
X11874Y82671D01*
X9525Y81078D01*
X9439Y81042D01*
X9324Y81090D01*
X9333Y81099D01*
X7316Y83099D01*
X7268Y83213D01*
X7304Y83299D01*
X7306Y83297D01*
X8899Y85646D01*
X8935Y85732D01*
X8911Y85790D01*
X7944Y88124D01*
X7920Y88181D01*
X7834Y88217D01*
X7834Y88214D01*
X5046Y88748D01*
X4961Y88784D01*
X4913Y88899D01*
X4925D01*
X4913Y91739D01*
X4961Y91854D01*
X5046Y91889D01*
X5047Y91886D01*
X7834Y92421D01*
X7920Y92457D01*
X7944Y92514D01*
X7944D01*
X8911Y94848D01*
X8935Y94906D01*
X8899Y94991D01*
X8896Y94990D01*
X7304Y97339D01*
X7268Y97425D01*
X7316Y97539D01*
X7324Y97531D01*
X9324Y99548D01*
X9439Y99595D01*
X9525Y99560D01*
X9523Y99557D01*
X11872Y97964D01*
X11958Y97929D01*
X12015Y97952D01*
X14349Y98919D01*
X14407Y98943D01*
X14442Y99029D01*
X14439Y99029D01*
X14974Y101817D01*
X15009Y101903D01*
X15124Y101950D01*
X15124D01*
Y101938D01*
X17965Y101950D01*
X17965D01*
X18079Y101903D01*
D02*
G37*
D10*
X250291Y123378D02*
X268992D01*
X250291D02*
Y154677D01*
X268992D01*
Y123378D02*
Y154677D01*
X264300Y17900D02*
X265700D01*
X264300Y21100D02*
X265700D01*
X140500Y73500D02*
Y83500D01*
X100500Y73500D02*
X140500D01*
X100500D02*
Y83500D01*
X140500D01*
X167300Y92400D02*
X168700D01*
X167300Y95600D02*
X168700D01*
X201957Y78374D02*
Y112626D01*
X209043Y78374D02*
Y112626D01*
X201957D02*
X209043D01*
X201957Y78374D02*
X209043D01*
X222925Y106213D02*
Y107787D01*
X226075Y106213D02*
Y107787D01*
X224905Y59244D02*
Y64756D01*
X213094Y59244D02*
Y64756D01*
X260713Y48075D02*
X262287D01*
X260713Y44925D02*
X262287D01*
X221713Y41925D02*
X223287D01*
X221713Y45075D02*
X223287D01*
X127205Y125516D02*
Y127287D01*
X152795Y125713D02*
Y127484D01*
X83205Y125516D02*
Y127287D01*
X108795Y125713D02*
Y127484D01*
X39205Y125516D02*
Y127287D01*
X64795Y125713D02*
Y127484D01*
X272500Y117657D02*
Y157158D01*
X295500D01*
Y117657D02*
Y157158D01*
X272500Y117657D02*
X295500D01*
X231575Y74713D02*
Y76287D01*
X228425Y74713D02*
Y76287D01*
X260800Y55100D02*
X262200D01*
X260800Y51900D02*
X262200D01*
X123118Y60106D02*
Y64811D01*
X103118Y60106D02*
X123118D01*
X103118D02*
Y64811D01*
X28157Y29378D02*
Y65205D01*
X208079Y29378D02*
Y65205D01*
X28157Y29378D02*
X208079D01*
X28157Y65205D02*
X208079D01*
X197555Y203291D02*
Y204669D01*
X179445Y203291D02*
Y204669D01*
X197555Y213331D02*
Y214709D01*
X179445Y213331D02*
Y214709D01*
Y203291D02*
X197555D01*
X179445Y214709D02*
X197555D01*
X272839Y9815D02*
X295673D01*
X272839D02*
Y39342D01*
X295673D01*
Y9815D02*
Y39342D01*
X295779Y50972D02*
Y100185D01*
X272945D02*
X295779D01*
X272945Y50972D02*
Y100185D01*
Y50972D02*
X295779D01*
X34831Y139555D02*
X36209D01*
X34831Y121445D02*
X36209D01*
X24791Y139555D02*
X26169D01*
X24791Y121445D02*
X26169D01*
X36209D02*
Y139555D01*
X24791Y121445D02*
Y139555D01*
X78831D02*
X80209D01*
X78831Y121445D02*
X80209D01*
X68791Y139555D02*
X70169D01*
X68791Y121445D02*
X70169D01*
X80209D02*
Y139555D01*
X68791Y121445D02*
Y139555D01*
X122831D02*
X124209D01*
X122831Y121445D02*
X124209D01*
X112791Y139555D02*
X114169D01*
X112791Y121445D02*
X114169D01*
X124209D02*
Y139555D01*
X112791Y121445D02*
Y139555D01*
X26614Y181079D02*
X67165D01*
X26614Y144465D02*
Y181079D01*
Y144465D02*
X67165D01*
Y181079D01*
X70114D02*
X110665D01*
X70114Y144465D02*
Y181079D01*
Y144465D02*
X110665D01*
Y181079D01*
X113114D02*
X153665D01*
X113114Y144465D02*
Y181079D01*
Y144465D02*
X153665D01*
Y181079D01*
X267500Y160000D02*
X297000D01*
X267500Y200000D02*
X297000D01*
X267500Y160000D02*
Y200000D01*
X297000Y160000D02*
Y200000D01*
X180327Y169685D02*
X203161D01*
Y140157D02*
Y169685D01*
X180327Y140157D02*
X203161D01*
X180327D02*
Y169685D01*
X156327Y169843D02*
X179161D01*
Y140315D02*
Y169843D01*
X156327Y140315D02*
X179161D01*
X156327D02*
Y169843D01*
X204327D02*
X227161D01*
Y140315D02*
Y169843D01*
X204327Y140315D02*
X227161D01*
X204327D02*
Y169843D01*
X274500Y111500D02*
X294500D01*
X274500Y101500D02*
Y111500D01*
Y101500D02*
X294500D01*
Y111500D01*
D50*
X62693Y203000D02*
G03*
X62693Y203000I-16000J0D01*
G01*
X60685Y183441D02*
G03*
X60685Y183441I-500J0D01*
G01*
X104185D02*
G03*
X104185Y183441I-500J0D01*
G01*
X147185D02*
G03*
X147185Y183441I-500J0D01*
G01*
X106193Y203031D02*
G03*
X106193Y203031I-16000J0D01*
G01*
X149193D02*
G03*
X149193Y203031I-16000J0D01*
G01*
X70693Y202001D02*
X66694D01*
X68694Y200002D02*
Y204000D01*
X114193Y202032D02*
X110194D01*
X112194Y200033D02*
Y204032D01*
X157193Y202032D02*
X153194D01*
X155194Y200033D02*
Y204032D01*
D51*
X196543Y113847D02*
G03*
X196543Y113847I-492J0D01*
G01*
X177378Y213921D02*
G03*
X177378Y213921I-492J0D01*
G01*
X26071Y118886D02*
G03*
X26071Y118886I-492J0D01*
G01*
X70071D02*
G03*
X70071Y118886I-492J0D01*
G01*
X114071D02*
G03*
X114071Y118886I-492J0D01*
G01*
X249929Y70260D02*
G03*
X249929Y70260I-492J0D01*
G01*
D52*
X247567Y67701D02*
X250028D01*
Y65240D02*
Y67701D01*
Y50772D02*
Y53232D01*
X247567Y50772D02*
X250028D01*
X233098D02*
X235559D01*
X233098D02*
Y53232D01*
Y67701D02*
X235559D01*
X233098Y65240D02*
Y67701D01*
X89000Y100000D02*
X90312D01*
X89656D01*
Y103936D01*
X89000Y103280D01*
X92280Y100000D02*
X93592D01*
X92936D01*
Y103936D01*
X92280Y103280D01*
X95560Y103936D02*
Y101312D01*
X96872Y100000D01*
X98183Y101312D01*
Y103936D01*
X99495Y100000D02*
X100807D01*
X100151D01*
Y103936D01*
X99495Y103280D01*
X68000Y88500D02*
Y92436D01*
X69968D01*
X70624Y91780D01*
Y90468D01*
X69968Y89812D01*
X68000D01*
X69312D02*
X70624Y88500D01*
X74560Y92436D02*
X71936D01*
Y88500D01*
X74560D01*
X71936Y90468D02*
X73248D01*
X75871Y92436D02*
Y89812D01*
X77183Y88500D01*
X78495Y89812D01*
Y92436D01*
X79807Y88500D02*
Y89156D01*
X80463D01*
Y88500D01*
X79807D01*
X85711D02*
X83087D01*
X85711Y91124D01*
Y91780D01*
X85055Y92436D01*
X83743D01*
X83087Y91780D01*
X238000Y98280D02*
X238656Y98936D01*
X239968D01*
X240624Y98280D01*
Y97624D01*
X239968Y96968D01*
X239312D01*
X239968D01*
X240624Y96312D01*
Y95656D01*
X239968Y95000D01*
X238656D01*
X238000Y95656D01*
X241936Y98936D02*
Y96312D01*
X243248Y95000D01*
X244560Y96312D01*
Y98936D01*
X245871Y98280D02*
X246527Y98936D01*
X247839D01*
X248495Y98280D01*
Y97624D01*
X247839Y96968D01*
X247183D01*
X247839D01*
X248495Y96312D01*
Y95656D01*
X247839Y95000D01*
X246527D01*
X245871Y95656D01*
X146824Y103836D02*
X144200D01*
Y101868D01*
X145512Y102524D01*
X146168D01*
X146824Y101868D01*
Y100556D01*
X146168Y99900D01*
X144856D01*
X144200Y100556D01*
X148136Y103836D02*
Y101212D01*
X149448Y99900D01*
X150760Y101212D01*
Y103836D01*
X126000Y103936D02*
X128624D01*
Y103280D01*
X126000Y100656D01*
Y100000D01*
X129936Y103936D02*
Y101312D01*
X131248Y100000D01*
X132560Y101312D01*
Y103936D01*
X136495Y100000D02*
X133871D01*
X136495Y102624D01*
Y103280D01*
X135839Y103936D01*
X134527D01*
X133871Y103280D01*
X164500Y206500D02*
X165812D01*
X165156D01*
Y210436D01*
X164500Y209780D01*
X170404Y206500D02*
X167780D01*
X170404Y209124D01*
Y209780D01*
X169748Y210436D01*
X168436D01*
X167780Y209780D01*
X171715Y210436D02*
Y207812D01*
X173027Y206500D01*
X174339Y207812D01*
Y210436D01*
X260667Y41280D02*
X260011Y41936D01*
X258699D01*
X258043Y41280D01*
Y38656D01*
X258699Y38000D01*
X260011D01*
X260667Y38656D01*
X261979Y41280D02*
X262635Y41936D01*
X263947D01*
X264603Y41280D01*
Y40624D01*
X263947Y39968D01*
X263291D01*
X263947D01*
X264603Y39312D01*
Y38656D01*
X263947Y38000D01*
X262635D01*
X261979Y38656D01*
X230075Y87525D02*
X229419Y88181D01*
X228107D01*
X227451Y87525D01*
Y84901D01*
X228107Y84245D01*
X229419D01*
X230075Y84901D01*
X231387Y84245D02*
X232699D01*
X232043D01*
Y88181D01*
X231387Y87525D01*
X222624Y38280D02*
X221968Y38936D01*
X220656D01*
X220000Y38280D01*
Y35656D01*
X220656Y35000D01*
X221968D01*
X222624Y35656D01*
X226560Y35000D02*
X223936D01*
X226560Y37624D01*
Y38280D01*
X225904Y38936D01*
X224592D01*
X223936Y38280D01*
X224575Y119068D02*
X223919Y119724D01*
X222607D01*
X221951Y119068D01*
Y116444D01*
X222607Y115788D01*
X223919D01*
X224575Y116444D01*
X225887Y119724D02*
X228511D01*
Y119068D01*
X225887Y116444D01*
Y115788D01*
X26624Y186780D02*
X25968Y187436D01*
X24656D01*
X24000Y186780D01*
Y184156D01*
X24656Y183500D01*
X25968D01*
X26624Y184156D01*
X27936Y186780D02*
X28592Y187436D01*
X29904D01*
X30560Y186780D01*
Y186124D01*
X29904Y185468D01*
X30560Y184812D01*
Y184156D01*
X29904Y183500D01*
X28592D01*
X27936Y184156D01*
Y184812D01*
X28592Y185468D01*
X27936Y186124D01*
Y186780D01*
X28592Y185468D02*
X29904D01*
X68624Y186780D02*
X67968Y187436D01*
X66656D01*
X66000Y186780D01*
Y184156D01*
X66656Y183500D01*
X67968D01*
X68624Y184156D01*
X69936Y183500D02*
X71248D01*
X70592D01*
Y187436D01*
X69936Y186780D01*
X73216Y183500D02*
X74527D01*
X73871D01*
Y187436D01*
X73216Y186780D01*
X110124D02*
X109468Y187436D01*
X108156D01*
X107500Y186780D01*
Y184156D01*
X108156Y183500D01*
X109468D01*
X110124Y184156D01*
X111436Y183500D02*
X112748D01*
X112092D01*
Y187436D01*
X111436Y186780D01*
X116683Y183500D02*
Y187436D01*
X114716Y185468D01*
X117339D01*
X176451Y221780D02*
Y217845D01*
X178419D01*
X179075Y218501D01*
Y221125D01*
X178419Y221780D01*
X176451D01*
X183011Y217845D02*
X180387D01*
X183011Y220469D01*
Y221125D01*
X182355Y221780D01*
X181043D01*
X180387Y221125D01*
X15000Y125936D02*
Y122000D01*
X16968D01*
X17624Y122656D01*
Y125280D01*
X16968Y125936D01*
X15000D01*
X18936Y125280D02*
X19592Y125936D01*
X20904D01*
X21560Y125280D01*
Y124624D01*
X20904Y123968D01*
X20248D01*
X20904D01*
X21560Y123312D01*
Y122656D01*
X20904Y122000D01*
X19592D01*
X18936Y122656D01*
X71500Y116436D02*
Y112500D01*
X73468D01*
X74124Y113156D01*
Y115780D01*
X73468Y116436D01*
X71500D01*
X77404Y112500D02*
Y116436D01*
X75436Y114468D01*
X78060D01*
X115500Y116436D02*
Y112500D01*
X117468D01*
X118124Y113156D01*
Y115780D01*
X117468Y116436D01*
X115500D01*
X122060D02*
X119436D01*
Y114468D01*
X120748Y115124D01*
X121404D01*
X122060Y114468D01*
Y113156D01*
X121404Y112500D01*
X120092D01*
X119436Y113156D01*
X223624Y188436D02*
X221000D01*
Y186468D01*
X222312D01*
X221000D01*
Y184500D01*
X224936D02*
X226248D01*
X225592D01*
Y188436D01*
X224936Y187780D01*
X111124Y103280D02*
X110468Y103936D01*
X109156D01*
X108500Y103280D01*
Y100656D01*
X109156Y100000D01*
X110468D01*
X111124Y100656D01*
Y101968D01*
X109812D01*
X112436Y100000D02*
Y103936D01*
X115060Y100000D01*
Y103936D01*
X116372D02*
Y100000D01*
X118339D01*
X118995Y100656D01*
Y103280D01*
X118339Y103936D01*
X116372D01*
X268624Y109436D02*
X267312D01*
X267968D01*
Y106156D01*
X267312Y105500D01*
X266656D01*
X266000Y106156D01*
X269936Y105500D02*
X271248D01*
X270592D01*
Y109436D01*
X269936Y108780D01*
X283124Y47936D02*
X281812D01*
X282468D01*
Y44656D01*
X281812Y44000D01*
X281156D01*
X280500Y44656D01*
X287060Y44000D02*
X284436D01*
X287060Y46624D01*
Y47280D01*
X286404Y47936D01*
X285092D01*
X284436Y47280D01*
X243124Y153936D02*
X241812D01*
X242468D01*
Y150656D01*
X241812Y150000D01*
X241156D01*
X240500Y150656D01*
X244436Y153280D02*
X245092Y153936D01*
X246404D01*
X247060Y153280D01*
Y152624D01*
X246404Y151968D01*
X245748D01*
X246404D01*
X247060Y151312D01*
Y150656D01*
X246404Y150000D01*
X245092D01*
X244436Y150656D01*
X261624Y161436D02*
X260312D01*
X260968D01*
Y158156D01*
X260312Y157500D01*
X259656D01*
X259000Y158156D01*
X264904Y157500D02*
Y161436D01*
X262936Y159468D01*
X265560D01*
X167624Y136936D02*
X166312D01*
X166968D01*
Y133656D01*
X166312Y133000D01*
X165656D01*
X165000Y133656D01*
X168936D02*
X169592Y133000D01*
X170904D01*
X171560Y133656D01*
Y136280D01*
X170904Y136936D01*
X169592D01*
X168936Y136280D01*
Y135624D01*
X169592Y134968D01*
X171560D01*
X190124Y136936D02*
X188812D01*
X189468D01*
Y133656D01*
X188812Y133000D01*
X188156D01*
X187500Y133656D01*
X191436Y133000D02*
X192748D01*
X192092D01*
Y136936D01*
X191436Y136280D01*
X194715Y133000D02*
X196027D01*
X195371D01*
Y136936D01*
X194715Y136280D01*
X30975Y72080D02*
X29663D01*
X30319D01*
Y68801D01*
X29663Y68145D01*
X29007D01*
X28351Y68801D01*
X34911Y72080D02*
X33599Y71425D01*
X32287Y70113D01*
Y68801D01*
X32943Y68145D01*
X34255D01*
X34911Y68801D01*
Y69457D01*
X34255Y70113D01*
X32287D01*
X266124Y33436D02*
X264812D01*
X265468D01*
Y30156D01*
X264812Y29500D01*
X264156D01*
X263500Y30156D01*
X267436Y32780D02*
X268092Y33436D01*
X269404D01*
X270060Y32780D01*
Y32124D01*
X269404Y31468D01*
X270060Y30812D01*
Y30156D01*
X269404Y29500D01*
X268092D01*
X267436Y30156D01*
Y30812D01*
X268092Y31468D01*
X267436Y32124D01*
Y32780D01*
X268092Y31468D02*
X269404D01*
X270564Y178124D02*
Y176812D01*
Y177468D01*
X273844D01*
X274500Y176812D01*
Y176156D01*
X273844Y175500D01*
X274500Y179436D02*
Y180748D01*
Y180092D01*
X270564D01*
X271220Y179436D01*
X274500Y185339D02*
Y182715D01*
X271876Y185339D01*
X271220D01*
X270564Y184683D01*
Y183371D01*
X271220Y182715D01*
X49500Y108936D02*
Y105000D01*
X52124D01*
X53436D02*
X54748D01*
X54092D01*
Y108936D01*
X53436Y108280D01*
X94034Y109470D02*
Y105535D01*
X96658D01*
X100594D02*
X97970D01*
X100594Y108158D01*
Y108814D01*
X99938Y109470D01*
X98626D01*
X97970Y108814D01*
X137500Y109436D02*
Y105500D01*
X140124D01*
X141436Y108780D02*
X142092Y109436D01*
X143404D01*
X144060Y108780D01*
Y108124D01*
X143404Y107468D01*
X142748D01*
X143404D01*
X144060Y106812D01*
Y106156D01*
X143404Y105500D01*
X142092D01*
X141436Y106156D01*
X255800Y59200D02*
Y63136D01*
X257768D01*
X258424Y62480D01*
Y61168D01*
X257768Y60512D01*
X255800D01*
X257112D02*
X258424Y59200D01*
X259736D02*
X261048D01*
X260392D01*
Y63136D01*
X259736Y62480D01*
X162251Y99745D02*
Y103681D01*
X164219D01*
X164875Y103025D01*
Y101713D01*
X164219Y101057D01*
X162251D01*
X163563D02*
X164875Y99745D01*
X166187Y103025D02*
X166843Y103681D01*
X168155D01*
X168811Y103025D01*
Y102369D01*
X168155Y101713D01*
X167499D01*
X168155D01*
X168811Y101057D01*
Y100401D01*
X168155Y99745D01*
X166843D01*
X166187Y100401D01*
X260500Y11500D02*
Y15436D01*
X262468D01*
X263124Y14780D01*
Y13468D01*
X262468Y12812D01*
X260500D01*
X261812D02*
X263124Y11500D01*
X264436D02*
X265748D01*
X265092D01*
Y15436D01*
X264436Y14780D01*
X267716D02*
X268372Y15436D01*
X269683D01*
X270339Y14780D01*
Y14124D01*
X269683Y13468D01*
X270339Y12812D01*
Y12156D01*
X269683Y11500D01*
X268372D01*
X267716Y12156D01*
Y12812D01*
X268372Y13468D01*
X267716Y14124D01*
Y14780D01*
X268372Y13468D02*
X269683D01*
X231950Y77780D02*
Y74500D01*
X232606Y73844D01*
X233918D01*
X234574Y74500D01*
Y77780D01*
X235886Y73844D02*
X237198D01*
X236542D01*
Y77780D01*
X235886Y77124D01*
X191251Y121380D02*
Y118101D01*
X191907Y117445D01*
X193219D01*
X193875Y118101D01*
Y121380D01*
X195187Y120725D02*
X195843Y121380D01*
X197155D01*
X197811Y120725D01*
Y120069D01*
X197155Y119413D01*
X196499D01*
X197155D01*
X197811Y118757D01*
Y118101D01*
X197155Y117445D01*
X195843D01*
X195187Y118101D01*
X58500Y150936D02*
Y147656D01*
X59156Y147000D01*
X60468D01*
X61124Y147656D01*
Y150936D01*
X65060D02*
X62436D01*
Y148968D01*
X63748Y149624D01*
X64404D01*
X65060Y148968D01*
Y147656D01*
X64404Y147000D01*
X63092D01*
X62436Y147656D01*
X102000Y150936D02*
Y147656D01*
X102656Y147000D01*
X103968D01*
X104624Y147656D01*
Y150936D01*
X108560D02*
X107248Y150280D01*
X105936Y148968D01*
Y147656D01*
X106592Y147000D01*
X107904D01*
X108560Y147656D01*
Y148312D01*
X107904Y148968D01*
X105936D01*
X144500Y150936D02*
Y147656D01*
X145156Y147000D01*
X146468D01*
X147124Y147656D01*
Y150936D01*
X148436D02*
X151060D01*
Y150280D01*
X148436Y147656D01*
Y147000D01*
X204000Y71936D02*
Y71280D01*
X205312Y69968D01*
X206624Y71280D01*
Y71936D01*
X205312Y69968D02*
Y68000D01*
X207936D02*
X209248D01*
X208592D01*
Y71936D01*
X207936Y71280D01*
X101124Y89436D02*
X99812D01*
X100468D01*
Y86156D01*
X99812Y85500D01*
X99156D01*
X98500Y86156D01*
X102436Y89436D02*
X105060D01*
Y88780D01*
X102436Y86156D01*
Y85500D01*
X212703Y137118D02*
X211391D01*
X212047D01*
Y133838D01*
X211391Y133182D01*
X210735D01*
X210079Y133838D01*
X214015Y133182D02*
X215326D01*
X214670D01*
Y137118D01*
X214015Y136462D01*
X217294D02*
X217950Y137118D01*
X219262D01*
X219918Y136462D01*
Y133838D01*
X219262Y133182D01*
X217950D01*
X217294Y133838D01*
Y136462D01*
X33244Y85280D02*
X33900Y85936D01*
X35212D01*
X35868Y85280D01*
Y84624D01*
X35212Y83968D01*
X34556D01*
X35212D01*
X35868Y83312D01*
Y82656D01*
X35212Y82000D01*
X33900D01*
X33244Y82656D01*
X37180Y85280D02*
X37836Y85936D01*
X39148D01*
X39804Y85280D01*
Y82656D01*
X39148Y82000D01*
X37836D01*
X37180Y82656D01*
Y85280D01*
X41116Y82000D02*
Y82656D01*
X41772D01*
Y82000D01*
X41116D01*
X44395Y85280D02*
X45051Y85936D01*
X46363D01*
X47019Y85280D01*
Y82656D01*
X46363Y82000D01*
X45051D01*
X44395Y82656D01*
Y85280D01*
X50955Y85936D02*
X49643Y85280D01*
X48331Y83968D01*
Y82656D01*
X48987Y82000D01*
X50299D01*
X50955Y82656D01*
Y83312D01*
X50299Y83968D01*
X48331D01*
X52267Y82000D02*
Y82656D01*
X52923D01*
Y82000D01*
X52267D01*
X58170D02*
X55547D01*
X58170Y84624D01*
Y85280D01*
X57515Y85936D01*
X56203D01*
X55547Y85280D01*
X59482D02*
X60138Y85936D01*
X61450D01*
X62106Y85280D01*
Y82656D01*
X61450Y82000D01*
X60138D01*
X59482Y82656D01*
Y85280D01*
X33244Y88500D02*
Y92436D01*
X35212D01*
X35868Y91780D01*
Y90468D01*
X35212Y89812D01*
X33244D01*
X34556D02*
X35868Y88500D01*
X37180D02*
Y92436D01*
X39148D01*
X39804Y91780D01*
Y90468D01*
X39148Y89812D01*
X37180D01*
X41116Y92436D02*
X42428D01*
X41772D01*
Y88500D01*
X41116D01*
X42428D01*
X48331Y92436D02*
Y88500D01*
Y90468D01*
X50955D01*
Y92436D01*
Y88500D01*
X52923Y91124D02*
X54235D01*
X54891Y90468D01*
Y88500D01*
X52923D01*
X52267Y89156D01*
X52923Y89812D01*
X54891D01*
X56858Y91780D02*
Y91124D01*
X56203D01*
X57515D01*
X56858D01*
Y89156D01*
X57515Y88500D01*
X35212Y99436D02*
X33900D01*
X33244Y98780D01*
Y96156D01*
X33900Y95500D01*
X35212D01*
X35868Y96156D01*
Y98780D01*
X35212Y99436D01*
X37180Y94188D02*
Y98124D01*
X39148D01*
X39804Y97468D01*
Y96156D01*
X39148Y95500D01*
X37180D01*
X43083D02*
X41772D01*
X41116Y96156D01*
Y97468D01*
X41772Y98124D01*
X43083D01*
X43739Y97468D01*
Y96812D01*
X41116D01*
X45051Y95500D02*
Y98124D01*
X47019D01*
X47675Y97468D01*
Y95500D01*
X52923D02*
Y99436D01*
X55547Y95500D01*
Y99436D01*
X56858Y98124D02*
Y96156D01*
X57515Y95500D01*
X59482D01*
Y94844D01*
X58826Y94188D01*
X58170D01*
X59482Y95500D02*
Y98124D01*
X60794D02*
Y95500D01*
Y96812D01*
X61450Y97468D01*
X62106Y98124D01*
X62762D01*
X64730Y95500D02*
X66042D01*
X65386D01*
Y98124D01*
X64730D01*
X68666Y95500D02*
X69978D01*
X70634Y96156D01*
Y97468D01*
X69978Y98124D01*
X68666D01*
X68010Y97468D01*
Y96156D01*
X68666Y95500D01*
X77849Y99436D02*
X76537D01*
X75881Y98780D01*
Y96156D01*
X76537Y95500D01*
X77849D01*
X78505Y96156D01*
Y98780D01*
X77849Y99436D01*
X79817Y95500D02*
Y98124D01*
X81785D01*
X82441Y97468D01*
Y95500D01*
X85721D02*
X84409D01*
X83753Y96156D01*
Y97468D01*
X84409Y98124D01*
X85721D01*
X86377Y97468D01*
Y96812D01*
X83753D01*
X253564Y12000D02*
X257500D01*
Y13968D01*
X256844Y14624D01*
X256188D01*
X255532Y13968D01*
Y12000D01*
Y13968D01*
X254876Y14624D01*
X254220D01*
X253564Y13968D01*
Y12000D01*
Y15936D02*
X256844D01*
X257500Y16592D01*
Y17904D01*
X256844Y18560D01*
X253564D01*
Y19872D02*
Y22495D01*
Y21183D01*
X257500D01*
X253564Y23807D02*
Y26431D01*
Y25119D01*
X257500D01*
X253564Y29711D02*
Y28399D01*
X254220Y27743D01*
X256844D01*
X257500Y28399D01*
Y29711D01*
X256844Y30367D01*
X254220D01*
X253564Y29711D01*
X257500Y31679D02*
X253564D01*
X257500Y34302D01*
X253564D01*
X257124Y171280D02*
X256468Y171936D01*
X255156D01*
X254500Y171280D01*
Y168656D01*
X255156Y168000D01*
X256468D01*
X257124Y168656D01*
Y169968D01*
X255812D01*
X258436Y168000D02*
Y171936D01*
X261060Y168000D01*
Y171936D01*
X262371D02*
Y168000D01*
X264339D01*
X264995Y168656D01*
Y171280D01*
X264339Y171936D01*
X262371D01*
X258000Y205468D02*
X260624D01*
X259312Y206780D02*
Y204156D01*
X261936Y203500D02*
X263248D01*
X262592D01*
Y207436D01*
X261936Y206780D01*
X267839Y203500D02*
X265215D01*
X267839Y206124D01*
Y206780D01*
X267183Y207436D01*
X265872D01*
X265215Y206780D01*
X269151Y207436D02*
Y204812D01*
X270463Y203500D01*
X271775Y204812D01*
Y207436D01*
X246000Y111500D02*
X247312D01*
X246656D01*
Y115436D01*
X246000Y114780D01*
X251904Y111500D02*
X249280D01*
X251904Y114124D01*
Y114780D01*
X251248Y115436D01*
X249936D01*
X249280Y114780D01*
X253216D02*
X253871Y115436D01*
X255183D01*
X255839Y114780D01*
Y112156D01*
X255183Y111500D01*
X253871D01*
X253216Y112156D01*
Y114780D01*
X263055Y115436D02*
X261743D01*
X261087Y114780D01*
Y112156D01*
X261743Y111500D01*
X263055D01*
X263711Y112156D01*
Y114780D01*
X263055Y115436D01*
X265023D02*
Y111500D01*
Y113468D01*
X265679Y114124D01*
X266991D01*
X267647Y113468D01*
Y111500D01*
X268958D02*
Y114124D01*
X269614D01*
X270270Y113468D01*
Y111500D01*
Y113468D01*
X270926Y114124D01*
X271582Y113468D01*
Y111500D01*
X265564Y89000D02*
X269500D01*
Y91624D01*
X266064Y79500D02*
X270000D01*
X268032D01*
Y82124D01*
X266064D01*
X270000D01*
X268032Y69500D02*
Y72124D01*
X268532Y59000D02*
Y61624D01*
X267220Y60312D02*
X269844D01*
X257220Y72124D02*
X256564Y71468D01*
Y70156D01*
X257220Y69500D01*
X259844D01*
X260500Y70156D01*
Y71468D01*
X259844Y72124D01*
X260500Y73436D02*
X257876D01*
X256564Y74748D01*
X257876Y76060D01*
X260500D01*
X258532D01*
Y73436D01*
X260500Y77372D02*
X256564D01*
X260500Y79995D01*
X256564D01*
Y85243D02*
X260500D01*
Y87211D01*
X259844Y87867D01*
X259188D01*
X258532D01*
X257876Y87211D01*
Y85243D01*
Y89179D02*
X259844D01*
X260500Y89835D01*
Y91803D01*
X257876D01*
X260500Y93114D02*
Y95082D01*
X259844Y95738D01*
X259188Y95082D01*
Y93770D01*
X258532Y93114D01*
X257876Y93770D01*
Y95738D01*
X212124Y129936D02*
X209500D01*
Y127968D01*
X210812D01*
X209500D01*
Y126000D01*
X213436D02*
Y128624D01*
X214748Y129936D01*
X216060Y128624D01*
Y126000D01*
Y127968D01*
X213436D01*
X217372Y126000D02*
Y129936D01*
X219995Y126000D01*
Y129936D01*
X221307Y129280D02*
X221963Y129936D01*
X223275D01*
X223931Y129280D01*
Y128624D01*
X223275Y127968D01*
X222619D01*
X223275D01*
X223931Y127312D01*
Y126656D01*
X223275Y126000D01*
X221963D01*
X221307Y126656D01*
X163624Y130436D02*
X161000D01*
Y128468D01*
X162312D01*
X161000D01*
Y126500D01*
X164936D02*
Y129124D01*
X166248Y130436D01*
X167560Y129124D01*
Y126500D01*
Y128468D01*
X164936D01*
X168871Y126500D02*
Y130436D01*
X171495Y126500D01*
Y130436D01*
X175431Y126500D02*
X172807D01*
X175431Y129124D01*
Y129780D01*
X174775Y130436D01*
X173463D01*
X172807Y129780D01*
X189624Y130436D02*
X187000D01*
Y128468D01*
X188312D01*
X187000D01*
Y126500D01*
X190936D02*
Y129124D01*
X192248Y130436D01*
X193560Y129124D01*
Y126500D01*
Y128468D01*
X190936D01*
X194871Y126500D02*
Y130436D01*
X197495Y126500D01*
Y130436D01*
X198807Y126500D02*
X200119D01*
X199463D01*
Y130436D01*
X198807Y129780D01*
X146124Y79280D02*
X145468Y79936D01*
X144156D01*
X143500Y79280D01*
Y78624D01*
X144156Y77968D01*
X145468D01*
X146124Y77312D01*
Y76656D01*
X145468Y76000D01*
X144156D01*
X143500Y76656D01*
X147436Y79936D02*
Y76000D01*
X148748Y77312D01*
X150060Y76000D01*
Y79936D01*
X151372D02*
Y76000D01*
X153339D01*
X153995Y76656D01*
Y79280D01*
X153339Y79936D01*
X151372D01*
M02*
