%FSLAX25Y25*%
%MOIN*%
G70*
G01*
G75*
G04 Layer_Physical_Order=1*
G04 Layer_Color=255*
%ADD10C,0.03937*%
%ADD11C,0.03150*%
%ADD12C,0.00787*%
%ADD13C,0.01575*%
%ADD14C,0.01969*%
%ADD15C,0.02362*%
%ADD16C,0.02756*%
%ADD17C,0.01181*%
%ADD18R,0.09843X0.09843*%
%ADD19R,0.02874X0.01181*%
%ADD20R,0.01181X0.02874*%
%ADD21R,0.05512X0.07874*%
%ADD22R,0.07874X0.05512*%
%ADD23C,0.05906*%
%ADD24R,0.03937X0.03937*%
%ADD25C,0.03937*%
%ADD26R,0.15748X0.06299*%
%ADD27R,0.09449X0.06693*%
%ADD28O,0.08661X0.02362*%
%ADD29C,0.05906*%
%ADD30R,0.06890X0.06890*%
%ADD31C,0.06890*%
%ADD32C,0.06102*%
%ADD33R,0.06102X0.06102*%
%ADD34R,0.06102X0.06102*%
%ADD35C,0.08071*%
%ADD36R,0.08071X0.08071*%
%ADD37C,0.19685*%
%ADD38R,0.06102X0.06000*%
%ADD39C,0.05118*%
%ADD40R,0.05118X0.05118*%
%ADD41C,0.02756*%
%ADD42C,0.02362*%
G36*
X233622Y109441D02*
X234643Y108570D01*
X234852Y108430D01*
X235042Y108321D01*
X235213Y108243D01*
X235366Y108197D01*
X235501Y108181D01*
X234319Y106999D01*
X234303Y107134D01*
X234257Y107287D01*
X234179Y107458D01*
X234070Y107648D01*
X233930Y107857D01*
X233759Y108084D01*
X233324Y108595D01*
X232764Y109179D01*
X233321Y109736D01*
X233622Y109441D01*
D02*
G37*
G36*
X16609Y65158D02*
X16493Y65236D01*
X16308Y65305D01*
X16055Y65367D01*
X15732Y65420D01*
X14882Y65502D01*
X13092Y65563D01*
X12358Y65567D01*
Y67535D01*
X13092Y67540D01*
X16055Y67736D01*
X16308Y67797D01*
X16493Y67866D01*
X16609Y67944D01*
Y65158D01*
D02*
G37*
G36*
X19507Y67866D02*
X19692Y67797D01*
X19945Y67736D01*
X20267Y67682D01*
X21118Y67601D01*
X22908Y67540D01*
X23642Y67535D01*
Y65567D01*
X22908Y65563D01*
X19945Y65367D01*
X19692Y65305D01*
X19507Y65236D01*
X19391Y65158D01*
Y67944D01*
X19507Y67866D01*
D02*
G37*
G36*
X236441Y104752D02*
X236582Y104677D01*
X236758Y104610D01*
X236970Y104553D01*
X237216Y104504D01*
X237498Y104464D01*
X238167Y104411D01*
X238976Y104394D01*
Y103606D01*
X238554Y103602D01*
X237216Y103496D01*
X236970Y103447D01*
X236758Y103390D01*
X236582Y103323D01*
X236441Y103248D01*
X236335Y103164D01*
Y104836D01*
X236441Y104752D01*
D02*
G37*
G36*
X119114Y27585D02*
Y19941D01*
X122837D01*
X122953Y19918D01*
Y19918D01*
X122971Y19933D01*
X124306Y19758D01*
X125568Y19235D01*
X126541Y18488D01*
X126628Y18382D01*
X126638Y18391D01*
X126638Y18391D01*
X127381Y17649D01*
X127381Y17649D01*
X127772Y17387D01*
X127772Y17387D01*
X127772Y17387D01*
D01*
X127772Y17387D01*
X127772Y17387D01*
X128233Y17296D01*
X130103D01*
X130264Y16822D01*
X130064Y16669D01*
X129414Y15823D01*
X129006Y14837D01*
X128933Y14279D01*
X136973D01*
X136900Y14837D01*
X136492Y15823D01*
X135842Y16669D01*
X135643Y16822D01*
X135803Y17296D01*
X136000D01*
X136000Y17296D01*
X136461Y17387D01*
X136852Y17649D01*
X138851Y19648D01*
X138851Y19648D01*
X139113Y20039D01*
X139113Y20039D01*
X139113Y20039D01*
X139204Y20500D01*
X139204Y20500D01*
Y21582D01*
X139678Y21743D01*
X140215Y21042D01*
X141017Y20426D01*
X141951Y20040D01*
X142953Y19908D01*
X143955Y20040D01*
X144889Y20426D01*
X145691Y21042D01*
X146306Y21844D01*
X146796Y21641D01*
Y15918D01*
X146306Y15715D01*
X145691Y16517D01*
X144889Y17132D01*
X143955Y17519D01*
X142953Y17651D01*
X141951Y17519D01*
X141017Y17132D01*
X140215Y16517D01*
X139600Y15715D01*
X139213Y14782D01*
X139081Y13780D01*
X139213Y12777D01*
X139600Y11844D01*
X140215Y11042D01*
X141017Y10426D01*
X141577Y10195D01*
X141480Y9704D01*
X134982D01*
X134885Y10195D01*
X134996Y10241D01*
X135842Y10890D01*
X136492Y11737D01*
X136900Y12722D01*
X136973Y13280D01*
X128933D01*
X129006Y12722D01*
X129414Y11737D01*
X130064Y10890D01*
X130910Y10241D01*
X131021Y10195D01*
X130924Y9704D01*
X124427D01*
X124329Y10195D01*
X124889Y10426D01*
X125691Y11042D01*
X126306Y11844D01*
X126693Y12777D01*
X126825Y13780D01*
X126693Y14782D01*
X126306Y15715D01*
X125691Y16517D01*
X124889Y17132D01*
X123955Y17519D01*
X122953Y17651D01*
X122847Y17637D01*
X121600Y17802D01*
X120338Y18324D01*
X119365Y19071D01*
X119365Y19071D01*
X119282Y19173D01*
D01*
D01*
X119280Y19174D01*
X119279Y19176D01*
X119278Y19177D01*
X119278Y19177D01*
D01*
D01*
D01*
D01*
D01*
X119278Y19177D01*
D01*
X119268Y19168D01*
X119268D01*
X119268Y19168D01*
X119084Y19352D01*
X118693Y19613D01*
X118233Y19704D01*
X118233Y19704D01*
X114427D01*
X114329Y20195D01*
X114889Y20426D01*
X115691Y21042D01*
X116306Y21844D01*
X116693Y22777D01*
X116825Y23779D01*
X116811Y23885D01*
X116975Y25133D01*
X117498Y26394D01*
X118245Y27368D01*
X118351Y27455D01*
X118341Y27465D01*
X118341Y27465D01*
X118653Y27776D01*
X119114Y27585D01*
D02*
G37*
G36*
X295500Y2000D02*
X209547D01*
X209386Y2473D01*
X209466Y2534D01*
X210364Y3433D01*
X210379Y3418D01*
X210556Y3625D01*
X214918Y7987D01*
X215360Y8563D01*
X215638Y9233D01*
X215732Y9953D01*
X215733Y9953D01*
X215732Y9953D01*
Y9953D01*
Y11000D01*
X220270D01*
X221017Y10426D01*
X221951Y10040D01*
X222953Y9908D01*
X223955Y10040D01*
X224889Y10426D01*
X225691Y11042D01*
X226306Y11844D01*
X226693Y12777D01*
X226824Y13780D01*
X226693Y14782D01*
X226306Y15715D01*
X225691Y16517D01*
X224889Y17132D01*
X223955Y17519D01*
X222953Y17651D01*
X221951Y17519D01*
X221017Y17132D01*
X220270Y16559D01*
X215636D01*
X214889Y17132D01*
X213955Y17519D01*
X212953Y17651D01*
X211951Y17519D01*
X211017Y17132D01*
X210215Y16517D01*
X209600Y15715D01*
X209213Y14782D01*
X209081Y13780D01*
X209096Y13663D01*
X208933Y12006D01*
X208416Y10301D01*
X207576Y8729D01*
X206559Y7490D01*
X206433Y7364D01*
X206433D01*
X206433Y7364D01*
D01*
D01*
Y7364D01*
X206433Y7364D01*
D01*
D01*
D01*
X206433Y7364D01*
D01*
X206349Y7280D01*
X146136D01*
X145945Y7742D01*
X148852Y10649D01*
X149113Y11039D01*
X149204Y11500D01*
X149204Y11500D01*
Y11500D01*
Y11500D01*
X149204D01*
X149204D01*
Y11582D01*
X149204Y11582D01*
X149678Y11743D01*
X150215Y11042D01*
X151017Y10426D01*
X151951Y10040D01*
X152953Y9908D01*
X153955Y10040D01*
X154889Y10426D01*
X155691Y11042D01*
X156306Y11844D01*
X156693Y12777D01*
X156825Y13780D01*
X156693Y14782D01*
X156306Y15715D01*
X155691Y16517D01*
X154889Y17132D01*
X153955Y17519D01*
X152953Y17651D01*
X151951Y17519D01*
X151017Y17132D01*
X150215Y16517D01*
X149678Y15816D01*
X149204Y15977D01*
Y21582D01*
X149678Y21743D01*
X150215Y21042D01*
X151017Y20426D01*
X151951Y20040D01*
X152953Y19908D01*
X153955Y20040D01*
X154889Y20426D01*
X155691Y21042D01*
X156306Y21844D01*
X156693Y22777D01*
X156825Y23779D01*
X156693Y24782D01*
X156306Y25715D01*
X155691Y26517D01*
X154889Y27132D01*
X154472Y27305D01*
X154569Y27796D01*
X161337D01*
X161434Y27305D01*
X161017Y27132D01*
X160215Y26517D01*
X159600Y25715D01*
X159213Y24782D01*
X159081Y23779D01*
X159213Y22777D01*
X159600Y21844D01*
X160215Y21042D01*
X161017Y20426D01*
X161951Y20040D01*
X162953Y19908D01*
X163955Y20040D01*
X164889Y20426D01*
X165691Y21042D01*
X166306Y21844D01*
X166693Y22777D01*
X166825Y23779D01*
X166693Y24782D01*
X166306Y25715D01*
X165691Y26517D01*
X164889Y27132D01*
X164472Y27305D01*
X164569Y27796D01*
X169114D01*
Y27796D01*
Y27567D01*
X169114Y27442D01*
X169114Y27442D01*
X169114D01*
Y19992D01*
X176792D01*
Y27442D01*
X176792Y27442D01*
D01*
D01*
X176792Y27567D01*
D01*
X177021Y27796D01*
X180712D01*
X180910Y27318D01*
X180064Y26669D01*
X179414Y25823D01*
X179006Y24837D01*
X178933Y24280D01*
X186973D01*
X186900Y24837D01*
X186492Y25823D01*
X185842Y26669D01*
X184996Y27318D01*
X185194Y27796D01*
X191337D01*
X191435Y27305D01*
X191017Y27132D01*
X190215Y26517D01*
X189600Y25715D01*
X189213Y24782D01*
X189081Y23779D01*
X189213Y22777D01*
X189600Y21844D01*
X190215Y21042D01*
X191017Y20426D01*
X191951Y20040D01*
X192953Y19908D01*
X193955Y20040D01*
X194889Y20426D01*
X195691Y21042D01*
X196306Y21844D01*
X196693Y22777D01*
X196825Y23779D01*
X196693Y24782D01*
X196306Y25715D01*
X195691Y26517D01*
X194889Y27132D01*
X194472Y27305D01*
X194569Y27796D01*
X201337D01*
X201434Y27305D01*
X201017Y27132D01*
X200215Y26517D01*
X199600Y25715D01*
X199213Y24782D01*
X199081Y23779D01*
X199213Y22777D01*
X199600Y21844D01*
X200215Y21042D01*
X201017Y20426D01*
X201951Y20040D01*
X202953Y19908D01*
X203955Y20040D01*
X204889Y20426D01*
X205691Y21042D01*
X206306Y21844D01*
X206693Y22777D01*
X206824Y23779D01*
X206693Y24782D01*
X206306Y25715D01*
X205691Y26517D01*
X204889Y27132D01*
X204471Y27305D01*
X204569Y27796D01*
X211337D01*
X211434Y27305D01*
X211017Y27132D01*
X210215Y26517D01*
X209600Y25715D01*
X209213Y24782D01*
X209081Y23779D01*
X209213Y22777D01*
X209600Y21844D01*
X210215Y21042D01*
X211017Y20426D01*
X211951Y20040D01*
X212953Y19908D01*
X213955Y20040D01*
X214889Y20426D01*
X215690Y21042D01*
X216306Y21844D01*
X216692Y22777D01*
X216825Y23779D01*
X216692Y24782D01*
X216306Y25715D01*
X215690Y26517D01*
X214889Y27132D01*
X214471Y27305D01*
X214569Y27796D01*
X219114D01*
Y27618D01*
X219114D01*
Y19941D01*
X226791D01*
Y21675D01*
X227279Y21772D01*
X229529D01*
X230297Y21925D01*
X230948Y22360D01*
X232014Y23427D01*
X232430Y23149D01*
X231985Y22074D01*
X231594Y20448D01*
X231463Y18779D01*
X231594Y17111D01*
X231985Y15484D01*
X232625Y13939D01*
X233500Y12512D01*
X234586Y11240D01*
X235858Y10153D01*
X237285Y9279D01*
X238831Y8638D01*
X240458Y8248D01*
X242126Y8117D01*
X243794Y8248D01*
X245421Y8638D01*
X246967Y9279D01*
X248393Y10153D01*
X249666Y11240D01*
X250752Y12512D01*
X251626Y13939D01*
X252267Y15484D01*
X252657Y17111D01*
X252789Y18779D01*
X252657Y20448D01*
X252267Y22074D01*
X251626Y23620D01*
X250752Y25047D01*
X249666Y26319D01*
X248393Y27406D01*
X246967Y28280D01*
X245421Y28920D01*
X243794Y29311D01*
X242126Y29442D01*
X240458Y29311D01*
X238831Y28920D01*
X237756Y28475D01*
X237478Y28891D01*
X241580Y32993D01*
X260252D01*
Y23302D01*
X260233D01*
X260240Y23244D01*
X260159Y22631D01*
X260004Y22256D01*
X258701D01*
Y16744D01*
X264213D01*
Y22256D01*
X262909D01*
X262754Y22631D01*
X262673Y23244D01*
X262681Y23302D01*
X262661D01*
Y32993D01*
X263500D01*
X264268Y33146D01*
X264919Y33581D01*
X271419Y40081D01*
X271854Y40732D01*
X272007Y41500D01*
Y46500D01*
Y53500D01*
Y57500D01*
Y65000D01*
X271880Y65641D01*
X271854Y65768D01*
X271419Y66419D01*
X264419Y73419D01*
X263768Y73854D01*
X263000Y74007D01*
X242331D01*
X237507Y78831D01*
Y88106D01*
X237540Y88155D01*
X237708Y89000D01*
X237540Y89845D01*
X237507Y89894D01*
Y102408D01*
X237883Y102738D01*
X238613Y102642D01*
X239817Y102143D01*
X240774Y101408D01*
X240832Y101332D01*
X241614Y100733D01*
X242524Y100356D01*
X243500Y100228D01*
X244476Y100356D01*
X245386Y100733D01*
X246167Y101332D01*
X246767Y102114D01*
X247144Y103024D01*
X247272Y104000D01*
X247144Y104976D01*
X246767Y105886D01*
X246167Y106667D01*
X245386Y107267D01*
X244476Y107644D01*
X243500Y107772D01*
X242524Y107644D01*
X241614Y107267D01*
X240832Y106667D01*
X240774Y106592D01*
X239817Y105857D01*
X238613Y105358D01*
X237883Y105262D01*
X237507Y105592D01*
Y107000D01*
X237354Y107768D01*
X236919Y108419D01*
X236268Y108854D01*
X235500Y109007D01*
X235482Y109003D01*
X235408Y109037D01*
X235275Y109113D01*
X235129Y109211D01*
X234199Y110004D01*
X232808Y111395D01*
X232417Y111656D01*
X231957Y111748D01*
X231957Y111748D01*
X228322D01*
X228302Y111767D01*
Y111767D01*
D01*
D01*
D01*
X228302D01*
X228302D01*
D01*
D01*
X228300Y111767D01*
Y111767D01*
D01*
Y111767D01*
X228244Y111760D01*
X227631Y111841D01*
X227005Y112100D01*
X226468Y112512D01*
X226466Y112509D01*
X225890Y112951D01*
X225219Y113228D01*
X224500Y113323D01*
X223781Y113228D01*
X223110Y112951D01*
X222534Y112509D01*
X222533Y112511D01*
X221965Y112075D01*
X221303Y111801D01*
X220594Y111708D01*
Y111704D01*
X219999D01*
Y111718D01*
X219738Y111770D01*
X219520Y111916D01*
X219518Y111919D01*
X218866Y112354D01*
X218098Y112507D01*
X211799D01*
X211031Y112354D01*
X210380Y111919D01*
X209945Y111268D01*
X209792Y110500D01*
X209945Y109732D01*
X210380Y109081D01*
X211031Y108646D01*
X211799Y108493D01*
X218098D01*
X218866Y108646D01*
X219518Y109081D01*
X219520Y109084D01*
X219738Y109230D01*
X219999Y109282D01*
Y109292D01*
Y109296D01*
X220594D01*
Y109275D01*
X220754Y109296D01*
X220906D01*
X221748Y109128D01*
X222495Y108629D01*
X222534Y108578D01*
X223110Y108136D01*
X223781Y107858D01*
X224500Y107764D01*
X225219Y107858D01*
X225890Y108136D01*
X226466Y108578D01*
X226468Y108575D01*
X227005Y108987D01*
X227631Y109246D01*
X228244Y109327D01*
X228302Y109319D01*
Y109339D01*
X231458D01*
X232434Y108363D01*
X232728Y108056D01*
X233132Y107582D01*
X233275Y107392D01*
X233387Y107225D01*
X233463Y107092D01*
X233497Y107018D01*
X233493Y107000D01*
Y104000D01*
Y89894D01*
X233460Y89845D01*
X233292Y89000D01*
X233460Y88155D01*
X233493Y88106D01*
Y79077D01*
X233433Y79073D01*
Y79014D01*
X233493Y79010D01*
Y78000D01*
X233646Y77232D01*
X234081Y76581D01*
X240081Y70581D01*
X240732Y70146D01*
X241500Y69993D01*
X262169D01*
X267993Y64169D01*
Y58786D01*
X266956Y58704D01*
X257312D01*
X257167Y59183D01*
X257856Y59644D01*
X258335Y60360D01*
X258503Y61205D01*
X258335Y62050D01*
X257856Y62766D01*
X257140Y63244D01*
X256295Y63412D01*
X255450Y63244D01*
X254734Y62766D01*
X254713Y62734D01*
X254366Y62502D01*
X253929Y62415D01*
X253919Y62416D01*
Y62413D01*
Y62409D01*
X253765D01*
X253574Y62871D01*
X255499Y64796D01*
X257124D01*
Y64791D01*
Y64788D01*
X257133Y64789D01*
X257571Y64702D01*
X257918Y64470D01*
X257939Y64439D01*
X258655Y63960D01*
X259500Y63792D01*
X260345Y63960D01*
X261061Y64439D01*
X261540Y65155D01*
X261708Y66000D01*
X261540Y66845D01*
X261061Y67561D01*
X260345Y68040D01*
X259500Y68208D01*
X258655Y68040D01*
X257939Y67561D01*
X257918Y67529D01*
X257571Y67298D01*
X257133Y67211D01*
X257124Y67212D01*
Y67209D01*
Y67204D01*
X255000D01*
X255000Y67204D01*
X254539Y67113D01*
X254149Y66852D01*
X254149Y66852D01*
X251848Y64551D01*
X251524Y64551D01*
Y64551D01*
X247484D01*
Y65158D01*
X246878D01*
Y69197D01*
X236248D01*
Y65158D01*
X235642D01*
Y64551D01*
X231602D01*
Y64377D01*
X229826D01*
X228704Y65499D01*
Y66336D01*
X228961Y66387D01*
X229351Y66649D01*
X230852Y68148D01*
X231113Y68539D01*
X231204Y69000D01*
D01*
D01*
D01*
X231204Y69000D01*
D01*
X231204Y69000D01*
X231216D01*
X231275Y69295D01*
X231442Y69546D01*
X231566Y69628D01*
X231541Y69665D01*
X231606Y69715D01*
X231730Y69798D01*
X231747Y69824D01*
X231965Y69991D01*
X232407Y70567D01*
X232685Y71237D01*
X232780Y71957D01*
X232685Y72676D01*
X232407Y73347D01*
X231965Y73922D01*
X231390Y74364D01*
X230719Y74642D01*
X230000Y74736D01*
X229281Y74642D01*
X228610Y74364D01*
X228034Y73922D01*
X227593Y73347D01*
X227315Y72676D01*
X227220Y71957D01*
X227315Y71237D01*
X227593Y70567D01*
X228034Y69991D01*
X228253Y69824D01*
X228270Y69798D01*
X228394Y69715D01*
X228443Y69678D01*
X228445Y69644D01*
X228434Y69628D01*
X228434Y69628D01*
X228447Y69615D01*
X228467Y69318D01*
X228125Y68953D01*
X227750D01*
X226568Y70135D01*
X226177Y70396D01*
X225717Y70488D01*
D01*
D01*
D01*
X225717Y70488D01*
D01*
X225716Y70504D01*
X225714Y70503D01*
Y70503D01*
X225624Y70491D01*
X224890Y70638D01*
X224512Y70890D01*
Y73417D01*
X213488D01*
Y65150D01*
X224512D01*
Y67677D01*
X224890Y67930D01*
X225288Y68009D01*
X226296Y67001D01*
Y65000D01*
X226296Y65000D01*
X226387Y64539D01*
X226648Y64148D01*
X228475Y62322D01*
X228475Y62322D01*
X228533Y62283D01*
X228582Y61785D01*
X226648Y59851D01*
X226387Y59461D01*
X226296Y59000D01*
X226296Y59000D01*
Y56499D01*
X225776Y55979D01*
X225416Y56027D01*
X224671Y56335D01*
X224512Y56457D01*
Y58850D01*
X213488D01*
Y50583D01*
X217002D01*
X217578Y49194D01*
X217753Y47865D01*
Y47664D01*
X217735Y47483D01*
X217735D01*
Y47304D01*
X217733Y47302D01*
X217733D01*
X217740Y47244D01*
X217659Y46631D01*
X217400Y46005D01*
X216988Y45468D01*
X216991Y45465D01*
X216549Y44890D01*
X216272Y44219D01*
X216177Y43500D01*
X216272Y42781D01*
X216549Y42110D01*
X216991Y41535D01*
X217567Y41093D01*
X218237Y40815D01*
X218957Y40720D01*
X219676Y40815D01*
X220346Y41093D01*
X220922Y41535D01*
X221364Y42110D01*
X221642Y42781D01*
X221736Y43500D01*
X221642Y44219D01*
X221364Y44890D01*
X220922Y45465D01*
X220925Y45468D01*
X220918Y45477D01*
Y45477D01*
X220918D01*
X220513Y46005D01*
X220254Y46631D01*
X220173Y47244D01*
X220181Y47302D01*
X220161D01*
Y47508D01*
X220275Y48669D01*
X220621Y49808D01*
X221035Y50583D01*
X224512D01*
Y52976D01*
X224671Y53098D01*
X225416Y53407D01*
X226126Y53500D01*
X226213Y53489D01*
D01*
X226216Y53488D01*
X226217Y53512D01*
D01*
D01*
D01*
X226677Y53604D01*
X227068Y53865D01*
X228351Y55149D01*
X228351Y55149D01*
X228613Y55539D01*
X228704Y56000D01*
X228704Y56000D01*
Y58501D01*
X230204Y60000D01*
X231390D01*
Y59736D01*
X233827D01*
Y58736D01*
X231390D01*
Y57646D01*
X231602D01*
Y55890D01*
Y53921D01*
X235642D01*
Y53315D01*
X236248D01*
Y49276D01*
X236422D01*
Y44625D01*
X235361Y43564D01*
X234883Y43709D01*
X234740Y44428D01*
X234214Y45214D01*
X233428Y45740D01*
X233000Y45825D01*
Y43500D01*
X232500D01*
Y43000D01*
X230175D01*
X230260Y42572D01*
X230786Y41786D01*
X231572Y41260D01*
X232291Y41117D01*
X232436Y40639D01*
X228726Y36929D01*
X184853D01*
X184661Y37391D01*
X185271Y38000D01*
X185271Y38000D01*
X185273Y37998D01*
X185294Y38023D01*
X185346Y38075D01*
X186063Y38626D01*
X186997Y39013D01*
X187938Y39136D01*
X188000Y39128D01*
X189002Y39260D01*
X189936Y39647D01*
X190738Y40262D01*
X191353Y41064D01*
X191740Y41998D01*
X191872Y43000D01*
X191740Y44002D01*
X191353Y44936D01*
X190738Y45738D01*
X189936Y46353D01*
X189002Y46740D01*
X188000Y46872D01*
X186998Y46740D01*
X186064Y46353D01*
X185262Y45738D01*
X184647Y44936D01*
X184260Y44002D01*
X184128Y43000D01*
X184136Y42938D01*
X184013Y41997D01*
X183626Y41063D01*
X183075Y40346D01*
X183023Y40294D01*
X182998Y40273D01*
X183000Y40271D01*
X183000Y40271D01*
X182028Y39299D01*
X180260D01*
X180099Y39772D01*
X180738Y40262D01*
X181353Y41064D01*
X181740Y41998D01*
X181872Y43000D01*
X181740Y44002D01*
X181353Y44936D01*
X180738Y45738D01*
X179936Y46353D01*
X179002Y46740D01*
X178000Y46872D01*
X176998Y46740D01*
X176064Y46353D01*
X175262Y45738D01*
X174647Y44936D01*
X174260Y44002D01*
X174128Y43000D01*
X174260Y41998D01*
X174647Y41064D01*
X175262Y40262D01*
X175901Y39772D01*
X175741Y39299D01*
X170259D01*
X170099Y39772D01*
X170738Y40262D01*
X171353Y41064D01*
X171740Y41998D01*
X171872Y43000D01*
X171740Y44002D01*
X171353Y44936D01*
X170780Y45683D01*
Y50317D01*
X171353Y51064D01*
X171740Y51998D01*
X171872Y53000D01*
X171740Y54002D01*
X171353Y54936D01*
X170780Y55683D01*
Y60720D01*
X196849D01*
X201327Y56242D01*
X201136Y55780D01*
X191839D01*
Y56839D01*
X184161D01*
Y49161D01*
X191839D01*
Y50220D01*
X205000D01*
X205719Y50315D01*
X206390Y50593D01*
X206965Y51034D01*
X207407Y51610D01*
X207685Y52281D01*
X207780Y53000D01*
Y56500D01*
X207685Y57219D01*
X207604Y57416D01*
X207407Y57890D01*
X206965Y58465D01*
X199966Y65465D01*
X199390Y65907D01*
X198719Y66185D01*
X198000Y66280D01*
X170780D01*
Y73000D01*
X170685Y73719D01*
X170544Y74059D01*
X170960Y74337D01*
X174207Y71089D01*
X174598Y70828D01*
X175059Y70737D01*
X202624D01*
Y70732D01*
Y70729D01*
X202633Y70730D01*
X203071Y70643D01*
X203418Y70411D01*
X203439Y70380D01*
X204155Y69901D01*
X205000Y69733D01*
X205845Y69901D01*
X206561Y70380D01*
X207040Y71096D01*
X207208Y71941D01*
X207040Y72786D01*
X206561Y73502D01*
X205845Y73981D01*
X205000Y74149D01*
X204155Y73981D01*
X204063Y73919D01*
X203647Y74197D01*
X203708Y74500D01*
X203540Y75345D01*
X203061Y76061D01*
X202345Y76540D01*
X201500Y76708D01*
X200655Y76540D01*
X199939Y76061D01*
X199918Y76029D01*
X199571Y75797D01*
X199133Y75711D01*
X199132Y75711D01*
X199127Y75711D01*
X199127D01*
D01*
D01*
X199127D01*
X199124Y75712D01*
D01*
D01*
X199124D01*
Y75709D01*
D01*
D01*
Y75709D01*
D01*
D01*
X199124D01*
Y75709D01*
D01*
D01*
D01*
X199124Y75704D01*
X187435D01*
X187199Y76145D01*
X187540Y76655D01*
X187708Y77500D01*
X187540Y78345D01*
X187061Y79061D01*
X186778Y79250D01*
Y79750D01*
X187061Y79939D01*
X187540Y80655D01*
X187708Y81500D01*
X187540Y82345D01*
X187061Y83061D01*
X186345Y83540D01*
X185500Y83708D01*
X184655Y83540D01*
X183939Y83061D01*
X183918Y83030D01*
X183571Y82797D01*
X183133Y82711D01*
X183124Y82712D01*
Y82709D01*
Y82704D01*
X173226D01*
X170004Y85926D01*
X169613Y86187D01*
X169152Y86279D01*
X169152Y86279D01*
X152966D01*
X152917Y86777D01*
X153191Y86831D01*
X153777Y87223D01*
X158748Y92194D01*
X161701D01*
Y91244D01*
X167213D01*
Y96756D01*
X161701D01*
Y95806D01*
X158000D01*
X157309Y95669D01*
X156795Y95326D01*
X156766Y95316D01*
X156655Y95291D01*
X156518Y95268D01*
X155727Y95217D01*
X155534Y95204D01*
X153178D01*
Y95217D01*
X153055Y95205D01*
X151887Y95358D01*
X150683Y95857D01*
X149726Y96592D01*
X149668Y96667D01*
X148886Y97267D01*
X148794Y97305D01*
X148891Y97796D01*
X154624D01*
Y97791D01*
Y97788D01*
X154633Y97789D01*
X155071Y97702D01*
X155418Y97470D01*
X155439Y97439D01*
X156155Y96960D01*
X157000Y96792D01*
X157845Y96960D01*
X158561Y97439D01*
X159040Y98155D01*
X159208Y99000D01*
X159040Y99845D01*
X158561Y100561D01*
X158291Y100742D01*
X158436Y101220D01*
X162000D01*
X162719Y101315D01*
X163390Y101593D01*
X163965Y102034D01*
X163965Y102034D01*
X163965Y102034D01*
X189651Y127720D01*
X233349D01*
X244035Y117034D01*
X244610Y116593D01*
X245281Y116315D01*
X246000Y116220D01*
X265500D01*
X266219Y116315D01*
X266890Y116593D01*
X267465Y117034D01*
X269966Y119535D01*
X270407Y120110D01*
X270685Y120781D01*
X270780Y121500D01*
Y130849D01*
X274151Y134220D01*
X278817D01*
X279564Y133647D01*
X280498Y133260D01*
X281500Y133128D01*
X282502Y133260D01*
X283436Y133647D01*
X284238Y134262D01*
X284853Y135064D01*
X285240Y135998D01*
X285372Y137000D01*
X285240Y138002D01*
X284853Y138936D01*
X284238Y139738D01*
X283436Y140353D01*
X282502Y140740D01*
X281500Y140872D01*
X280498Y140740D01*
X279564Y140353D01*
X278817Y139780D01*
X273000D01*
X272281Y139685D01*
X271610Y139407D01*
X271035Y138965D01*
X266035Y133966D01*
X265593Y133390D01*
X265315Y132719D01*
X265220Y132000D01*
Y122651D01*
X264349Y121780D01*
X247151D01*
X236466Y132466D01*
X235890Y132907D01*
X235219Y133185D01*
X234500Y133280D01*
X188500D01*
X187781Y133185D01*
X187110Y132907D01*
X186535Y132466D01*
X160849Y106780D01*
X100651D01*
X98780Y108651D01*
Y109965D01*
X104661D01*
Y111826D01*
X105063Y111992D01*
X105845Y112095D01*
X108306D01*
X108655Y111862D01*
X109500Y111694D01*
X110345Y111862D01*
X111061Y112340D01*
X111540Y113057D01*
X111708Y113902D01*
X111540Y114746D01*
X111061Y115463D01*
X110345Y115941D01*
X109500Y116109D01*
X108655Y115941D01*
X108306Y115708D01*
X105845D01*
X105063Y115811D01*
X104661Y115977D01*
Y117839D01*
X87339D01*
Y115977D01*
X86937Y115811D01*
X86155Y115708D01*
X80694D01*
X80345Y115941D01*
X79500Y116109D01*
X78655Y115941D01*
X77939Y115463D01*
X77460Y114746D01*
X77292Y113902D01*
X77460Y113057D01*
X77939Y112340D01*
X78655Y111862D01*
X79500Y111694D01*
X80345Y111862D01*
X80694Y112095D01*
X86155D01*
X86937Y111992D01*
X87339Y111826D01*
Y109965D01*
X93220D01*
Y107500D01*
X93220Y107500D01*
X93220D01*
X93315Y106781D01*
X93593Y106110D01*
X94034Y105535D01*
X97535Y102034D01*
X98110Y101593D01*
X98781Y101315D01*
X99500Y101220D01*
X155564D01*
X155709Y100742D01*
X155439Y100561D01*
X155418Y100530D01*
X155071Y100297D01*
X154633Y100211D01*
X154624Y100212D01*
Y100209D01*
Y100204D01*
X136000D01*
X136000Y100204D01*
X135539Y100113D01*
X135149Y99852D01*
X135149Y99852D01*
X134517Y99220D01*
X134517Y99220D01*
X134508Y99229D01*
X134430Y99133D01*
X133495Y98416D01*
X132291Y97917D01*
X131095Y97760D01*
X131000Y97772D01*
X130024Y97644D01*
X129114Y97267D01*
X128332Y96667D01*
X127733Y95886D01*
X127356Y94976D01*
X127228Y94000D01*
X127356Y93024D01*
X127733Y92114D01*
X128332Y91333D01*
X129114Y90733D01*
X130024Y90356D01*
X131000Y90228D01*
X131976Y90356D01*
X132886Y90733D01*
X133668Y91333D01*
X134267Y92114D01*
X134644Y93024D01*
X134772Y94000D01*
X134760Y94095D01*
X134917Y95291D01*
X135416Y96495D01*
X136133Y97430D01*
X136229Y97508D01*
X136220Y97517D01*
X136220Y97517D01*
X136499Y97796D01*
X145109D01*
X145206Y97305D01*
X145114Y97267D01*
X144333Y96667D01*
X143733Y95886D01*
X143356Y94976D01*
X143228Y94000D01*
X143356Y93024D01*
X143733Y92114D01*
X144333Y91333D01*
X145114Y90733D01*
X145204Y90696D01*
X145309Y90169D01*
X144723Y89777D01*
X140223Y85277D01*
X139831Y84691D01*
X139694Y84000D01*
X139694Y84000D01*
X139694D01*
X139694Y84000D01*
X139694D01*
Y82339D01*
X139339D01*
Y82339D01*
X131661D01*
Y74661D01*
X139339D01*
Y74661D01*
X139340D01*
X139694Y74308D01*
Y72748D01*
X135449Y68503D01*
X98479D01*
X98077Y68772D01*
X97232Y68940D01*
X96387Y68772D01*
X95985Y68503D01*
X81497D01*
X81148Y68737D01*
X80303Y68905D01*
X79458Y68737D01*
X78891Y68357D01*
X64127D01*
X63825Y68559D01*
X62980Y68727D01*
X62135Y68559D01*
X61833Y68357D01*
X47422D01*
X46967Y68662D01*
X46122Y68830D01*
X45277Y68662D01*
X44822Y68357D01*
X28912D01*
X28463Y68658D01*
X27618Y68826D01*
X26773Y68658D01*
X26324Y68357D01*
X22478D01*
X21170Y68402D01*
X20780Y68440D01*
Y74349D01*
X29651Y83220D01*
X37500D01*
X38219Y83315D01*
X38890Y83593D01*
X39465Y84035D01*
X53966Y98535D01*
X54407Y99110D01*
X54685Y99781D01*
X54780Y100500D01*
X54780Y100500D01*
X54780Y100500D01*
Y100500D01*
Y109965D01*
X60661D01*
Y111826D01*
X61063Y111992D01*
X61845Y112095D01*
X64806D01*
X65155Y111862D01*
X66000Y111694D01*
X66845Y111862D01*
X67561Y112340D01*
X68040Y113057D01*
X68208Y113902D01*
X68040Y114746D01*
X67561Y115463D01*
X66845Y115941D01*
X66000Y116109D01*
X65155Y115941D01*
X64806Y115708D01*
X61845D01*
X61063Y115811D01*
X60661Y115977D01*
Y117839D01*
X43339D01*
Y115977D01*
X42937Y115811D01*
X42155Y115708D01*
X37194D01*
X36845Y115941D01*
X36000Y116109D01*
X35155Y115941D01*
X34439Y115463D01*
X33960Y114746D01*
X33792Y113902D01*
X33960Y113057D01*
X34439Y112340D01*
X35155Y111862D01*
X36000Y111694D01*
X36845Y111862D01*
X37194Y112095D01*
X42155D01*
X42937Y111992D01*
X43339Y111826D01*
Y109965D01*
X49220D01*
Y101651D01*
X36349Y88780D01*
X28500D01*
X27781Y88685D01*
X27110Y88407D01*
X26535Y87966D01*
X16035Y77465D01*
X15593Y76890D01*
X15315Y76219D01*
X15220Y75500D01*
Y68485D01*
X13787Y68390D01*
X13295Y68357D01*
X11245D01*
X10896Y68591D01*
X10051Y68759D01*
X9206Y68591D01*
X8490Y68112D01*
X8011Y67396D01*
X7843Y66551D01*
X8011Y65706D01*
X8490Y64990D01*
X9206Y64512D01*
X10051Y64343D01*
X10896Y64512D01*
X11245Y64745D01*
X13522D01*
X14830Y64700D01*
X15220Y64662D01*
Y37500D01*
X15220Y37500D01*
X15220D01*
X15315Y36781D01*
X15593Y36110D01*
X16035Y35535D01*
X23720Y27849D01*
Y23823D01*
X23239Y23687D01*
X22406Y25047D01*
X21319Y26319D01*
X20047Y27406D01*
X18620Y28280D01*
X17074Y28920D01*
X15448Y29311D01*
X13780Y29442D01*
X12111Y29311D01*
X10485Y28920D01*
X8939Y28280D01*
X7512Y27406D01*
X6240Y26319D01*
X5153Y25047D01*
X4279Y23620D01*
X3638Y22074D01*
X3248Y20448D01*
X3117Y18779D01*
X3248Y17111D01*
X3638Y15484D01*
X4279Y13939D01*
X5153Y12512D01*
X6240Y11240D01*
X7512Y10153D01*
X8939Y9279D01*
X10485Y8638D01*
X12111Y8248D01*
X13780Y8117D01*
X15448Y8248D01*
X17074Y8638D01*
X18620Y9279D01*
X20047Y10153D01*
X21319Y11240D01*
X22406Y12512D01*
X23239Y13872D01*
X23720Y13736D01*
Y8500D01*
X23720Y8500D01*
X23720D01*
X23815Y7781D01*
X24093Y7110D01*
X24534Y6534D01*
X28534Y2534D01*
X28534Y2534D01*
X28534D01*
X28534Y2534D01*
X28534D01*
X28534Y2534D01*
Y2534D01*
Y2534D01*
D01*
D01*
X28534D01*
Y2534D01*
X28614Y2473D01*
X28453Y2000D01*
X2000D01*
Y223500D01*
X295500D01*
Y2000D01*
D02*
G37*
G36*
X41749Y33048D02*
Y30195D01*
X41735D01*
X41749Y30058D01*
X41589Y28842D01*
X41066Y27581D01*
X40300Y26582D01*
X40215Y26517D01*
X39600Y25715D01*
X39213Y24782D01*
X39081Y23779D01*
X39213Y22777D01*
X39600Y21844D01*
X40215Y21042D01*
X41017Y20426D01*
X41951Y20040D01*
X42953Y19908D01*
X43955Y20040D01*
X44889Y20426D01*
X45691Y21042D01*
X46306Y21844D01*
X46796Y21641D01*
Y20500D01*
X46796Y20500D01*
X46887Y20039D01*
X47148Y19648D01*
X49148Y17649D01*
X49148Y17649D01*
X49539Y17387D01*
X50000Y17296D01*
X50000Y17296D01*
X50452D01*
X50613Y16822D01*
X50215Y16517D01*
X49600Y15715D01*
X49213Y14782D01*
X49081Y13780D01*
X49213Y12777D01*
X49600Y11844D01*
X50215Y11042D01*
X51017Y10426D01*
X51951Y10040D01*
X52953Y9908D01*
X53955Y10040D01*
X54889Y10426D01*
X55691Y11042D01*
X56306Y11844D01*
X56693Y12777D01*
X56825Y13780D01*
X56693Y14782D01*
X56306Y15715D01*
X55691Y16517D01*
X55293Y16822D01*
X55454Y17296D01*
X60103D01*
X60264Y16822D01*
X60064Y16669D01*
X59414Y15823D01*
X59006Y14837D01*
X58933Y14279D01*
X66973D01*
X66900Y14837D01*
X66492Y15823D01*
X65842Y16669D01*
X65642Y16822D01*
X65803Y17296D01*
X67673D01*
X67674Y17296D01*
X68134Y17387D01*
X68525Y17649D01*
X69268Y18391D01*
D01*
X69278Y18382D01*
X69365Y18488D01*
X70338Y19235D01*
X71600Y19758D01*
X72935Y19933D01*
X72953Y19918D01*
Y19918D01*
X73069Y19941D01*
X76442D01*
X76442Y19941D01*
Y19941D01*
X76792Y19941D01*
X76796Y19937D01*
Y19325D01*
X76638Y19168D01*
X76638Y19168D01*
X76629Y19177D01*
X76541Y19071D01*
X75568Y18324D01*
X74306Y17802D01*
X73059Y17637D01*
X72953Y17651D01*
X71951Y17519D01*
X71017Y17132D01*
X70215Y16517D01*
X69600Y15715D01*
X69213Y14782D01*
X69081Y13780D01*
X69213Y12777D01*
X69600Y11844D01*
X70215Y11042D01*
X71017Y10426D01*
X71951Y10040D01*
X72953Y9908D01*
X73955Y10040D01*
X74889Y10426D01*
X75691Y11042D01*
X76306Y11844D01*
X76693Y12777D01*
X76825Y13780D01*
X76811Y13885D01*
X76975Y15133D01*
X77498Y16394D01*
X78245Y17368D01*
X78351Y17455D01*
X78341Y17465D01*
X78341Y17465D01*
X78851Y17975D01*
X78851Y17975D01*
X79113Y18366D01*
X79204Y18826D01*
Y21582D01*
X79678Y21743D01*
X80215Y21042D01*
X81017Y20426D01*
X81951Y20040D01*
X82953Y19908D01*
X83955Y20040D01*
X84889Y20426D01*
X85691Y21042D01*
X86306Y21844D01*
X86693Y22777D01*
X86825Y23779D01*
X86693Y24782D01*
X86306Y25715D01*
X85691Y26517D01*
X84889Y27132D01*
X83955Y27519D01*
X82953Y27651D01*
X81951Y27519D01*
X81017Y27132D01*
X80215Y26517D01*
X79678Y25817D01*
X79204Y25977D01*
Y26501D01*
X80999Y28296D01*
X102398D01*
X102430Y27797D01*
X101895Y27726D01*
X100910Y27318D01*
X100064Y26669D01*
X99414Y25823D01*
X99006Y24837D01*
X98933Y24280D01*
X102953D01*
Y23779D01*
X103453D01*
Y19759D01*
X104011Y19833D01*
X104996Y20241D01*
X105842Y20890D01*
X106310Y21500D01*
X106420Y21500D01*
X106814Y21408D01*
X106887Y21039D01*
X107149Y20649D01*
X110149Y17649D01*
X110539Y17387D01*
X110589Y17378D01*
X110702Y16891D01*
X110215Y16517D01*
X109600Y15715D01*
X109213Y14782D01*
X109081Y13780D01*
X109213Y12777D01*
X109600Y11844D01*
X110215Y11042D01*
X111017Y10426D01*
X111951Y10040D01*
X112953Y9908D01*
X113059Y9922D01*
X114306Y9758D01*
X115568Y9235D01*
X116541Y8488D01*
X116629Y8382D01*
X116638Y8391D01*
X116638Y8391D01*
X117102Y7927D01*
X117053Y7430D01*
X116828Y7280D01*
X31651D01*
X29280Y9651D01*
Y11484D01*
X29753Y11644D01*
X30215Y11042D01*
X31017Y10426D01*
X31951Y10040D01*
X32953Y9908D01*
X33955Y10040D01*
X34889Y10426D01*
X35691Y11042D01*
X36306Y11844D01*
X36693Y12777D01*
X36825Y13780D01*
X36693Y14782D01*
X36306Y15715D01*
X35691Y16517D01*
X34889Y17132D01*
X33955Y17519D01*
X32953Y17651D01*
X31951Y17519D01*
X31017Y17132D01*
X30215Y16517D01*
X29753Y15915D01*
X29280Y16076D01*
Y21134D01*
X29753Y21295D01*
X30064Y20890D01*
X30910Y20241D01*
X31896Y19833D01*
X32453Y19759D01*
Y23779D01*
Y27800D01*
X31896Y27726D01*
X30910Y27318D01*
X30064Y26669D01*
X29753Y26264D01*
X29280Y26425D01*
Y29000D01*
X29280Y29000D01*
X29280Y29000D01*
Y29000D01*
X29280D01*
X29280Y29000D01*
X29185Y29719D01*
X28907Y30390D01*
X28466Y30966D01*
X20780Y38651D01*
Y40515D01*
X21221Y40751D01*
X21655Y40460D01*
X22500Y40292D01*
X23345Y40460D01*
X24061Y40939D01*
X24082Y40971D01*
X24429Y41203D01*
X24867Y41289D01*
X24876Y41288D01*
Y41296D01*
X33501D01*
X41749Y33048D01*
D02*
G37*
G36*
X262287Y56256D02*
X262287D01*
Y50744D01*
X267799D01*
D01*
X267799D01*
X267993Y50550D01*
Y48322D01*
X267755Y48164D01*
X267545Y48060D01*
X267012Y48468D01*
X267009Y48465D01*
X266433Y48907D01*
X265763Y49185D01*
X265043Y49280D01*
X264324Y49185D01*
X263653Y48907D01*
X263078Y48465D01*
X262636Y47890D01*
X262358Y47219D01*
X262264Y46500D01*
X262358Y45781D01*
X262636Y45110D01*
X263078Y44535D01*
X263653Y44093D01*
X264324Y43815D01*
X265043Y43720D01*
X265763Y43815D01*
X266433Y44093D01*
X267009Y44535D01*
X267012Y44532D01*
X267545Y44940D01*
X267755Y44837D01*
X267993Y44678D01*
Y42331D01*
X262669Y37007D01*
X241772D01*
X241581Y37469D01*
X250151Y46039D01*
X250151Y46039D01*
X250412Y46430D01*
X250412Y46430D01*
X250412Y46430D01*
X250503Y46891D01*
X250503Y46891D01*
Y53921D01*
X251524D01*
Y55890D01*
Y56063D01*
X252234D01*
X252296Y56001D01*
Y55000D01*
X252296Y55000D01*
X252387Y54539D01*
X252648Y54149D01*
X254149Y52649D01*
X254539Y52387D01*
X255000Y52296D01*
D01*
D01*
D01*
X255000Y52295D01*
Y52292D01*
Y52284D01*
X255002Y52283D01*
X255201Y51292D01*
Y50744D01*
X260713D01*
Y56256D01*
D01*
Y56256D01*
X260753Y56296D01*
X262287D01*
Y56256D01*
D02*
G37*
G36*
X51629Y64266D02*
X51392Y64108D01*
X50913Y63392D01*
X50745Y62547D01*
X50913Y61702D01*
X51392Y60986D01*
X51424Y60965D01*
X51656Y60618D01*
X51743Y60180D01*
X51741Y60171D01*
X51749D01*
Y55198D01*
X51275Y55037D01*
X50738Y55738D01*
X49936Y56353D01*
X49002Y56740D01*
X48000Y56872D01*
X46998Y56740D01*
X46064Y56353D01*
X45262Y55738D01*
X44647Y54936D01*
X44260Y54002D01*
X44128Y53000D01*
X44260Y51998D01*
X44647Y51064D01*
X45262Y50262D01*
X46064Y49647D01*
X46998Y49260D01*
X48000Y49128D01*
X49002Y49260D01*
X49936Y49647D01*
X50738Y50262D01*
X51275Y50963D01*
X51749Y50802D01*
Y45198D01*
X51275Y45037D01*
X50738Y45738D01*
X49936Y46353D01*
X49002Y46740D01*
X48000Y46872D01*
X46998Y46740D01*
X46064Y46353D01*
X45262Y45738D01*
X44647Y44936D01*
X44260Y44002D01*
X44128Y43000D01*
X44260Y41998D01*
X44647Y41064D01*
X45262Y40262D01*
X46064Y39647D01*
X46998Y39260D01*
X48000Y39128D01*
X49002Y39260D01*
X49936Y39647D01*
X50738Y40262D01*
X51275Y40963D01*
X51749Y40802D01*
Y30195D01*
X51735D01*
X51749Y30058D01*
X51588Y28842D01*
X51066Y27581D01*
X50300Y26582D01*
X50215Y26517D01*
X49678Y25817D01*
X49204Y25977D01*
Y32500D01*
X49113Y32961D01*
X48851Y33351D01*
X48851Y33351D01*
X37204Y44999D01*
Y49624D01*
X37212D01*
X37211Y49633D01*
X37297Y50071D01*
X37530Y50418D01*
X37561Y50439D01*
X38040Y51155D01*
X38208Y52000D01*
X38040Y52845D01*
X37561Y53561D01*
X36845Y54040D01*
X36000Y54208D01*
X35155Y54040D01*
X34439Y53561D01*
X33960Y52845D01*
X33792Y52000D01*
X33960Y51155D01*
X34439Y50439D01*
X34470Y50418D01*
X34703Y50071D01*
X34789Y49633D01*
X34788Y49624D01*
X34796D01*
Y44500D01*
X34796Y44500D01*
X34887Y44039D01*
X35034Y43819D01*
X34681Y43466D01*
X34461Y43613D01*
X34000Y43704D01*
X34000Y43704D01*
X24876D01*
Y43709D01*
X24876Y43709D01*
X24876Y43709D01*
Y43709D01*
Y43712D01*
X24867Y43711D01*
X24429Y43797D01*
X24082Y44030D01*
X24061Y44061D01*
X23345Y44540D01*
X22500Y44708D01*
X21655Y44540D01*
X21221Y44249D01*
X20780Y44485D01*
Y64617D01*
X22705Y64745D01*
X26524D01*
X26773Y64578D01*
X27618Y64410D01*
X28463Y64578D01*
X28712Y64745D01*
X45034D01*
X45277Y64582D01*
X46122Y64414D01*
X46967Y64582D01*
X47210Y64745D01*
X51484D01*
X51629Y64266D01*
D02*
G37*
G36*
X269165Y56664D02*
X269059Y56748D01*
X268918Y56823D01*
X268742Y56890D01*
X268530Y56947D01*
X268284Y56996D01*
X268002Y57036D01*
X267333Y57089D01*
X266524Y57106D01*
Y57894D01*
X266946Y57898D01*
X268284Y58004D01*
X268530Y58053D01*
X268742Y58110D01*
X268918Y58177D01*
X269059Y58252D01*
X269165Y58336D01*
Y56664D01*
D02*
G37*
G36*
X157305Y93304D02*
X157228Y93361D01*
X157121Y93413D01*
X156981Y93458D01*
X156811Y93497D01*
X156609Y93531D01*
X156111Y93579D01*
X155488Y93603D01*
X155129Y93606D01*
Y94394D01*
X155488Y94397D01*
X156609Y94469D01*
X156811Y94503D01*
X156981Y94542D01*
X157121Y94587D01*
X157228Y94639D01*
X157305Y94696D01*
Y93304D01*
D02*
G37*
G36*
X145431Y84753D02*
X145535Y84230D01*
X146014Y83514D01*
X146730Y83035D01*
X146849Y83011D01*
X146939Y82561D01*
X146460Y81845D01*
X146292Y81000D01*
X146460Y80155D01*
X146939Y79439D01*
X147655Y78960D01*
X148500Y78792D01*
X149345Y78960D01*
X150061Y79439D01*
X150540Y80155D01*
X150708Y81000D01*
X150700Y81037D01*
X150782Y81447D01*
X151030Y81818D01*
X151037Y81823D01*
X151032Y81829D01*
X151032Y81829D01*
X151499Y82296D01*
X162177D01*
X162322Y81817D01*
X161939Y81561D01*
X161460Y80845D01*
X161292Y80000D01*
X161381Y79556D01*
X161027Y79202D01*
X161000Y79208D01*
X160155Y79040D01*
X159439Y78561D01*
X158960Y77845D01*
X158792Y77000D01*
X158960Y76155D01*
X159439Y75439D01*
X160155Y74960D01*
X161000Y74792D01*
X161845Y74960D01*
X162561Y75439D01*
X162582Y75471D01*
X162929Y75703D01*
X163367Y75789D01*
X163376Y75788D01*
Y75788D01*
X163384Y75795D01*
X166117Y75619D01*
X166262Y75140D01*
X166034Y74966D01*
X165593Y74390D01*
X165315Y73719D01*
X165220Y73000D01*
Y63500D01*
Y55780D01*
X160683D01*
X159936Y56353D01*
X159002Y56740D01*
X158000Y56872D01*
X156998Y56740D01*
X156064Y56353D01*
X155317Y55780D01*
X150683D01*
X149936Y56353D01*
X149002Y56740D01*
X148000Y56872D01*
X146998Y56740D01*
X146064Y56353D01*
X145262Y55738D01*
X144647Y54936D01*
X144260Y54002D01*
X144128Y53000D01*
X144260Y51998D01*
X144647Y51064D01*
X145262Y50262D01*
X146064Y49647D01*
X146998Y49260D01*
X148000Y49128D01*
X149002Y49260D01*
X149936Y49647D01*
X150683Y50220D01*
X155317D01*
X156064Y49647D01*
X156998Y49260D01*
X158000Y49128D01*
X159002Y49260D01*
X159936Y49647D01*
X160683Y50220D01*
X165220D01*
Y45683D01*
X164647Y44936D01*
X164260Y44002D01*
X164128Y43000D01*
X164260Y41998D01*
X164647Y41064D01*
X165262Y40262D01*
X165901Y39772D01*
X165741Y39299D01*
X160259D01*
X160099Y39772D01*
X160738Y40262D01*
X161353Y41064D01*
X161740Y41998D01*
X161872Y43000D01*
X161740Y44002D01*
X161353Y44936D01*
X160738Y45738D01*
X159936Y46353D01*
X159002Y46740D01*
X158000Y46872D01*
X156998Y46740D01*
X156064Y46353D01*
X155262Y45738D01*
X154647Y44936D01*
X154260Y44002D01*
X154128Y43000D01*
X154260Y41998D01*
X154647Y41064D01*
X155262Y40262D01*
X155901Y39772D01*
X155740Y39299D01*
X150259D01*
X150099Y39772D01*
X150738Y40262D01*
X151353Y41064D01*
X151740Y41998D01*
X151872Y43000D01*
X151740Y44002D01*
X151353Y44936D01*
X150738Y45738D01*
X149936Y46353D01*
X149002Y46740D01*
X148000Y46872D01*
X146998Y46740D01*
X146064Y46353D01*
X145262Y45738D01*
X144647Y44936D01*
X144260Y44002D01*
X144128Y43000D01*
X144260Y41998D01*
X144647Y41064D01*
X145262Y40262D01*
X145901Y39772D01*
X145740Y39299D01*
X140260D01*
X140099Y39772D01*
X140738Y40262D01*
X141353Y41064D01*
X141740Y41998D01*
X141872Y43000D01*
X141740Y44002D01*
X141353Y44936D01*
X140738Y45738D01*
X139936Y46353D01*
X139002Y46740D01*
X138000Y46872D01*
X136998Y46740D01*
X136064Y46353D01*
X135262Y45738D01*
X135079Y45499D01*
X134606Y45660D01*
Y50340D01*
X135079Y50501D01*
X135262Y50262D01*
X136064Y49647D01*
X136998Y49260D01*
X138000Y49128D01*
X139002Y49260D01*
X139936Y49647D01*
X140738Y50262D01*
X141353Y51064D01*
X141740Y51998D01*
X141872Y53000D01*
X141740Y54002D01*
X141353Y54936D01*
X140738Y55738D01*
X139936Y56353D01*
X139002Y56740D01*
X138000Y56872D01*
X136998Y56740D01*
X136064Y56353D01*
X135262Y55738D01*
X135079Y55499D01*
X134923Y55552D01*
X134810Y56039D01*
X139665Y60894D01*
X141442D01*
X141587Y60416D01*
X141286Y60214D01*
X140760Y59428D01*
X140675Y59000D01*
X145325D01*
X145240Y59428D01*
X144714Y60214D01*
X144413Y60416D01*
X144558Y60894D01*
X150500D01*
X150500Y60894D01*
X151013Y60996D01*
X151114Y61017D01*
X151635Y61365D01*
X151635Y61365D01*
X151635Y61365D01*
X158635Y68365D01*
X158635Y68365D01*
X158983Y68885D01*
X159106Y69500D01*
Y71488D01*
X159124Y71533D01*
X159540Y72155D01*
X159708Y73000D01*
X159540Y73845D01*
X159061Y74561D01*
X158345Y75040D01*
X157500Y75208D01*
X156655Y75040D01*
X155939Y74561D01*
X155460Y73845D01*
X155292Y73000D01*
X155460Y72155D01*
X155876Y71533D01*
X155894Y71488D01*
Y70165D01*
X149835Y64106D01*
X139000D01*
X138385Y63983D01*
X137865Y63635D01*
X131865Y57635D01*
X131517Y57114D01*
X131496Y57012D01*
X131394Y56500D01*
X131394Y56500D01*
Y56009D01*
X130921Y55848D01*
X130889Y55889D01*
X130043Y56539D01*
X129058Y56947D01*
X128500Y57020D01*
Y53000D01*
Y48980D01*
X129058Y49053D01*
X130043Y49461D01*
X130889Y50111D01*
X130921Y50152D01*
X131394Y49991D01*
Y45660D01*
X130921Y45499D01*
X130738Y45738D01*
X129936Y46353D01*
X129002Y46740D01*
X128000Y46872D01*
X126998Y46740D01*
X126064Y46353D01*
X125262Y45738D01*
X124647Y44936D01*
X124260Y44002D01*
X124128Y43000D01*
X124260Y41998D01*
X124647Y41064D01*
X125262Y40262D01*
X126064Y39647D01*
X126998Y39260D01*
X128000Y39128D01*
X129002Y39260D01*
X129936Y39647D01*
X130738Y40262D01*
X130920Y40500D01*
X130972D01*
X131415Y40397D01*
X131496Y39987D01*
X131517Y39886D01*
X131865Y39365D01*
X131865Y39365D01*
X131865Y39365D01*
X134672Y36557D01*
X134672Y36557D01*
X134672D01*
X134672Y36557D01*
X134672D01*
X134672Y36557D01*
Y36557D01*
Y36557D01*
D01*
D01*
X134672D01*
Y36557D01*
X135193Y36209D01*
X135295Y36189D01*
X135807Y36087D01*
X135807Y36087D01*
X138450D01*
X138642Y35625D01*
X135795Y32779D01*
X116635D01*
X116444Y33241D01*
X118851Y35649D01*
X119113Y36039D01*
X119204Y36500D01*
Y36584D01*
X119218D01*
X119204Y36721D01*
X119365Y37938D01*
X119887Y39199D01*
X120653Y40197D01*
X120738Y40262D01*
X121353Y41064D01*
X121740Y41998D01*
X121872Y43000D01*
X121740Y44002D01*
X121353Y44936D01*
X120738Y45738D01*
X119936Y46353D01*
X119002Y46740D01*
X118000Y46872D01*
X116998Y46740D01*
X116064Y46353D01*
X115262Y45738D01*
X114647Y44936D01*
X114260Y44002D01*
X114128Y43000D01*
X114260Y41998D01*
X114647Y41064D01*
X115262Y40262D01*
X115347Y40197D01*
X116113Y39199D01*
X116635Y37938D01*
X116763Y36966D01*
X114151Y34354D01*
X112923D01*
X112462Y34262D01*
X112305Y34158D01*
X112071Y34001D01*
X112071Y34001D01*
X108774Y30704D01*
X104935D01*
X104699Y31145D01*
X105040Y31655D01*
X105208Y32500D01*
X105040Y33345D01*
X104561Y34061D01*
X103845Y34540D01*
X103000Y34708D01*
X102155Y34540D01*
X101439Y34061D01*
X101418Y34029D01*
X101071Y33797D01*
X100633Y33711D01*
X100624Y33712D01*
Y33709D01*
Y33704D01*
X59876D01*
Y33709D01*
Y33712D01*
X59867Y33711D01*
X59429Y33797D01*
X59082Y34029D01*
X59061Y34061D01*
X58345Y34540D01*
X57500Y34708D01*
X56655Y34540D01*
X55939Y34061D01*
X55460Y33345D01*
X55292Y32500D01*
X55460Y31655D01*
X55939Y30939D01*
X56655Y30460D01*
X57500Y30292D01*
X58345Y30460D01*
X59061Y30939D01*
X59082Y30970D01*
X59429Y31203D01*
X59867Y31289D01*
X59876Y31288D01*
Y31296D01*
X100624D01*
Y31291D01*
Y31288D01*
X100633Y31289D01*
X100739Y31268D01*
X100996Y30840D01*
X100955Y30704D01*
X80500D01*
X80039Y30613D01*
X79883Y30508D01*
X79649Y30351D01*
X79649Y30351D01*
X77148Y27852D01*
X76992Y27618D01*
X76792Y27618D01*
X76792D01*
X76525Y27618D01*
X76525Y27618D01*
Y27618D01*
X69115D01*
Y23896D01*
X69091Y23779D01*
X69091D01*
X69107Y23762D01*
X68931Y22426D01*
X68409Y21165D01*
X67662Y20191D01*
X67555Y20104D01*
X67565Y20095D01*
D01*
X67175Y19704D01*
X64427D01*
X64329Y20195D01*
X64889Y20426D01*
X65691Y21042D01*
X66306Y21844D01*
X66693Y22777D01*
X66825Y23779D01*
X66693Y24782D01*
X66306Y25715D01*
X65691Y26517D01*
X64889Y27132D01*
X63955Y27519D01*
X62953Y27651D01*
X61951Y27519D01*
X61017Y27132D01*
X60215Y26517D01*
X59600Y25715D01*
X59213Y24782D01*
X59081Y23779D01*
X59213Y22777D01*
X59600Y21844D01*
X60215Y21042D01*
X61017Y20426D01*
X61577Y20195D01*
X61480Y19704D01*
X54427D01*
X54329Y20195D01*
X54889Y20426D01*
X55691Y21042D01*
X56306Y21844D01*
X56693Y22777D01*
X56825Y23779D01*
X56693Y24782D01*
X56306Y25715D01*
X55691Y26517D01*
X55606Y26582D01*
X54840Y27581D01*
X54318Y28842D01*
X54158Y30058D01*
X54171Y30195D01*
X54157D01*
Y40861D01*
X54647Y41064D01*
X55262Y40262D01*
X56064Y39647D01*
X56998Y39260D01*
X58000Y39128D01*
X59002Y39260D01*
X59936Y39647D01*
X60738Y40262D01*
X61353Y41064D01*
X61740Y41998D01*
X61872Y43000D01*
X61740Y44002D01*
X61353Y44936D01*
X60738Y45738D01*
X59936Y46353D01*
X59002Y46740D01*
X58000Y46872D01*
X56998Y46740D01*
X56064Y46353D01*
X55262Y45738D01*
X54647Y44936D01*
X54157Y45139D01*
Y50861D01*
X54647Y51064D01*
X55262Y50262D01*
X56064Y49647D01*
X56998Y49260D01*
X58000Y49128D01*
X59002Y49260D01*
X59936Y49647D01*
X60738Y50262D01*
X61353Y51064D01*
X61740Y51998D01*
X61872Y53000D01*
X61740Y54002D01*
X61353Y54936D01*
X60738Y55738D01*
X59936Y56353D01*
X59002Y56740D01*
X58000Y56872D01*
X56998Y56740D01*
X56064Y56353D01*
X55262Y55738D01*
X54647Y54936D01*
X54157Y55139D01*
Y60171D01*
X54165D01*
X54164Y60180D01*
X54251Y60618D01*
X54483Y60965D01*
X54514Y60986D01*
X54993Y61702D01*
X55161Y62547D01*
X54993Y63392D01*
X54514Y64108D01*
X54277Y64266D01*
X54422Y64745D01*
X61739D01*
X62135Y64480D01*
X62980Y64312D01*
X63825Y64480D01*
X64222Y64745D01*
X79327D01*
X79458Y64657D01*
X80303Y64489D01*
X80793Y64587D01*
X81172Y64260D01*
X80765Y56275D01*
X80311Y56065D01*
X79936Y56353D01*
X79002Y56740D01*
X78000Y56872D01*
X76998Y56740D01*
X76064Y56353D01*
X75262Y55738D01*
X74647Y54936D01*
X74260Y54002D01*
X74128Y53000D01*
X74260Y51998D01*
X74647Y51064D01*
X75262Y50262D01*
X76064Y49647D01*
X76998Y49260D01*
X78000Y49128D01*
X79002Y49260D01*
X79936Y49647D01*
X80719Y50248D01*
X80739Y50261D01*
X80738Y50262D01*
X80762Y50294D01*
X81392Y50778D01*
X82163Y51097D01*
X82898Y51194D01*
X83101D01*
X83837Y51097D01*
X84608Y50778D01*
X85238Y50294D01*
X85262Y50262D01*
X85261Y50261D01*
X85281Y50248D01*
X86064Y49647D01*
X86998Y49260D01*
X88000Y49128D01*
X89002Y49260D01*
X89936Y49647D01*
X90738Y50262D01*
X91353Y51064D01*
X91740Y51998D01*
X91872Y53000D01*
X91740Y54002D01*
X91353Y54936D01*
X90738Y55738D01*
X89936Y56353D01*
X89002Y56740D01*
X88000Y56872D01*
X86998Y56740D01*
X86064Y56353D01*
X85689Y56065D01*
X85236Y56275D01*
X84824Y64528D01*
X85169Y64890D01*
X96091D01*
X96387Y64693D01*
X97232Y64525D01*
X98077Y64693D01*
X98373Y64890D01*
X136197D01*
X136888Y65028D01*
X137474Y65420D01*
X142777Y70723D01*
X143169Y71309D01*
X143306Y72000D01*
X143306Y72000D01*
X143306Y72000D01*
Y72000D01*
Y83252D01*
X144953Y84898D01*
X145431Y84753D01*
D02*
G37*
%LPC*%
G36*
X108500Y57020D02*
Y53500D01*
X112020D01*
X111947Y54058D01*
X111539Y55043D01*
X110889Y55889D01*
X110043Y56539D01*
X109058Y56947D01*
X108500Y57020D01*
D02*
G37*
G36*
X98500D02*
Y53500D01*
X102020D01*
X101947Y54058D01*
X101539Y55043D01*
X100889Y55889D01*
X100043Y56539D01*
X99058Y56947D01*
X98500Y57020D01*
D02*
G37*
G36*
X107500D02*
X106942Y56947D01*
X105957Y56539D01*
X105111Y55889D01*
X104461Y55043D01*
X104053Y54058D01*
X103980Y53500D01*
X107500D01*
Y57020D01*
D02*
G37*
G36*
X117500D02*
X116942Y56947D01*
X115957Y56539D01*
X115111Y55889D01*
X114461Y55043D01*
X114053Y54058D01*
X113980Y53500D01*
X117500D01*
Y57020D01*
D02*
G37*
G36*
X145325Y58000D02*
X143500D01*
Y56175D01*
X143928Y56260D01*
X144714Y56786D01*
X145240Y57572D01*
X145325Y58000D01*
D02*
G37*
G36*
X199201Y82724D02*
X196551D01*
Y81000D01*
X201325D01*
X201255Y81351D01*
X200773Y82073D01*
X200052Y82555D01*
X199201Y82724D01*
D02*
G37*
G36*
X142500Y58000D02*
X140675D01*
X140760Y57572D01*
X141286Y56786D01*
X142072Y56260D01*
X142500Y56175D01*
Y58000D01*
D02*
G37*
G36*
X118500Y57020D02*
Y53500D01*
X122020D01*
X121947Y54058D01*
X121539Y55043D01*
X120889Y55889D01*
X120043Y56539D01*
X119058Y56947D01*
X118500Y57020D01*
D02*
G37*
G36*
X127500D02*
X126942Y56947D01*
X125957Y56539D01*
X125111Y55889D01*
X124461Y55043D01*
X124053Y54058D01*
X123980Y53500D01*
X127500D01*
Y57020D01*
D02*
G37*
G36*
X97500D02*
X96942Y56947D01*
X95957Y56539D01*
X95111Y55889D01*
X94461Y55043D01*
X94053Y54058D01*
X93980Y53500D01*
X97500D01*
Y57020D01*
D02*
G37*
G36*
X107500Y52500D02*
X103980D01*
X104053Y51942D01*
X104461Y50957D01*
X105111Y50111D01*
X105957Y49461D01*
X106942Y49053D01*
X107500Y48980D01*
Y52500D01*
D02*
G37*
G36*
X112020D02*
X108500D01*
Y48980D01*
X109058Y49053D01*
X110043Y49461D01*
X110889Y50111D01*
X111539Y50957D01*
X111947Y51942D01*
X112020Y52500D01*
D02*
G37*
G36*
X102020D02*
X98500D01*
Y48980D01*
X99058Y49053D01*
X100043Y49461D01*
X100889Y50111D01*
X101539Y50957D01*
X101947Y51942D01*
X102020Y52500D01*
D02*
G37*
G36*
X258457Y49428D02*
Y47000D01*
X260885D01*
X260849Y47275D01*
X260550Y47997D01*
X260074Y48617D01*
X259454Y49093D01*
X258732Y49392D01*
X258457Y49428D01*
D02*
G37*
G36*
X97500Y52500D02*
X93980D01*
X94053Y51942D01*
X94461Y50957D01*
X95111Y50111D01*
X95957Y49461D01*
X96942Y49053D01*
X97500Y48980D01*
Y52500D01*
D02*
G37*
G36*
X117500D02*
X113980D01*
X114053Y51942D01*
X114461Y50957D01*
X115111Y50111D01*
X115957Y49461D01*
X116942Y49053D01*
X117500Y48980D01*
Y52500D01*
D02*
G37*
G36*
X68000Y56872D02*
X66998Y56740D01*
X66064Y56353D01*
X65262Y55738D01*
X64647Y54936D01*
X64260Y54002D01*
X64128Y53000D01*
X64260Y51998D01*
X64647Y51064D01*
X65262Y50262D01*
X66064Y49647D01*
X66998Y49260D01*
X68000Y49128D01*
X69002Y49260D01*
X69936Y49647D01*
X70738Y50262D01*
X71353Y51064D01*
X71740Y51998D01*
X71872Y53000D01*
X71740Y54002D01*
X71353Y54936D01*
X70738Y55738D01*
X69936Y56353D01*
X69002Y56740D01*
X68000Y56872D01*
D02*
G37*
G36*
X178000D02*
X176998Y56740D01*
X176064Y56353D01*
X175262Y55738D01*
X174647Y54936D01*
X174260Y54002D01*
X174128Y53000D01*
X174260Y51998D01*
X174647Y51064D01*
X175262Y50262D01*
X176064Y49647D01*
X176998Y49260D01*
X178000Y49128D01*
X179002Y49260D01*
X179936Y49647D01*
X180738Y50262D01*
X181353Y51064D01*
X181740Y51998D01*
X181872Y53000D01*
X181740Y54002D01*
X181353Y54936D01*
X180738Y55738D01*
X179936Y56353D01*
X179002Y56740D01*
X178000Y56872D01*
D02*
G37*
G36*
X181000Y87708D02*
X180155Y87540D01*
X179439Y87061D01*
X178960Y86345D01*
X178792Y85500D01*
X178960Y84655D01*
X179439Y83939D01*
X180155Y83460D01*
X181000Y83292D01*
X181845Y83460D01*
X182561Y83939D01*
X182588Y83979D01*
X182993Y84250D01*
X183519Y84354D01*
Y84355D01*
X190858D01*
Y84345D01*
X191198Y84277D01*
X191474Y84093D01*
X191482Y84081D01*
X192133Y83646D01*
X192902Y83493D01*
X199201D01*
X199969Y83646D01*
X200620Y84081D01*
X201055Y84732D01*
X201208Y85500D01*
X201055Y86268D01*
X200620Y86919D01*
X199969Y87354D01*
X199201Y87507D01*
X192902D01*
X192133Y87354D01*
X191482Y86919D01*
X191457Y86882D01*
X191172Y86763D01*
X190898D01*
X190858Y86769D01*
Y86763D01*
X183519D01*
Y86773D01*
X183448Y86763D01*
X183234D01*
Y86772D01*
X182866Y86845D01*
X182577Y87038D01*
X182561Y87061D01*
X181845Y87540D01*
X181000Y87708D01*
D02*
G37*
G36*
X122020Y52500D02*
X118500D01*
Y48980D01*
X119058Y49053D01*
X120043Y49461D01*
X120889Y50111D01*
X121539Y50957D01*
X121947Y51942D01*
X122020Y52500D01*
D02*
G37*
G36*
X127500D02*
X123980D01*
X124053Y51942D01*
X124461Y50957D01*
X125111Y50111D01*
X125957Y49461D01*
X126942Y49053D01*
X127500Y48980D01*
Y52500D01*
D02*
G37*
G36*
X105500Y82372D02*
X104498Y82240D01*
X103564Y81853D01*
X102762Y81238D01*
X102147Y80436D01*
X101760Y79502D01*
X101628Y78500D01*
X101760Y77498D01*
X102147Y76564D01*
X102762Y75762D01*
X103564Y75147D01*
X104498Y74760D01*
X105500Y74628D01*
X106502Y74760D01*
X107436Y75147D01*
X108238Y75762D01*
X108853Y76564D01*
X109240Y77498D01*
X109372Y78500D01*
X109240Y79502D01*
X108853Y80436D01*
X108238Y81238D01*
X107436Y81853D01*
X106502Y82240D01*
X105500Y82372D01*
D02*
G37*
G36*
X115500D02*
X114498Y82240D01*
X113564Y81853D01*
X112762Y81238D01*
X112147Y80436D01*
X111760Y79502D01*
X111628Y78500D01*
X111760Y77498D01*
X112147Y76564D01*
X112762Y75762D01*
X113564Y75147D01*
X114498Y74760D01*
X115500Y74628D01*
X116502Y74760D01*
X117436Y75147D01*
X118238Y75762D01*
X118853Y76564D01*
X119240Y77498D01*
X119372Y78500D01*
X119240Y79502D01*
X118853Y80436D01*
X118238Y81238D01*
X117436Y81853D01*
X116502Y82240D01*
X115500Y82372D01*
D02*
G37*
G36*
X129520Y78000D02*
X126000D01*
Y74480D01*
X126558Y74553D01*
X127543Y74961D01*
X128389Y75611D01*
X129039Y76457D01*
X129447Y77442D01*
X129520Y78000D01*
D02*
G37*
G36*
X125000D02*
X121480D01*
X121553Y77442D01*
X121961Y76457D01*
X122611Y75611D01*
X123457Y74961D01*
X124442Y74553D01*
X125000Y74480D01*
Y78000D01*
D02*
G37*
G36*
X218098Y82507D02*
X211799D01*
X211031Y82354D01*
X210380Y81919D01*
X209945Y81268D01*
X209792Y80500D01*
X209945Y79732D01*
X210380Y79081D01*
X211031Y78646D01*
X211799Y78493D01*
X218098D01*
X218866Y78646D01*
X219518Y79081D01*
X219953Y79732D01*
X220106Y80500D01*
X219953Y81268D01*
X219518Y81919D01*
X218866Y82354D01*
X218098Y82507D01*
D02*
G37*
G36*
X195551Y80000D02*
X190777D01*
X190847Y79649D01*
X191329Y78927D01*
X192051Y78446D01*
X192902Y78276D01*
X195551D01*
Y80000D01*
D02*
G37*
G36*
X201325D02*
X196551D01*
Y78276D01*
X199201D01*
X200052Y78446D01*
X200773Y78927D01*
X201255Y79649D01*
X201325Y80000D01*
D02*
G37*
G36*
X282000Y94214D02*
X280998Y94082D01*
X280064Y93695D01*
X279262Y93080D01*
X278647Y92278D01*
X278260Y91345D01*
X278128Y90342D01*
X278260Y89340D01*
X278647Y88407D01*
X279262Y87605D01*
X280064Y86989D01*
X280998Y86603D01*
X282000Y86471D01*
X282106Y86485D01*
X283353Y86321D01*
X284615Y85798D01*
X285588Y85051D01*
X285675Y84945D01*
X285685Y84954D01*
X285685Y84954D01*
X287871Y82769D01*
Y76986D01*
X287422Y76800D01*
X287398Y76825D01*
X287398Y76825D01*
X287291Y76912D01*
X286544Y77885D01*
X286022Y79146D01*
X285858Y80394D01*
X285872Y80500D01*
X285740Y81502D01*
X285353Y82436D01*
X284738Y83238D01*
X283936Y83853D01*
X283002Y84240D01*
X282000Y84372D01*
X280998Y84240D01*
X280064Y83853D01*
X279262Y83238D01*
X278647Y82436D01*
X278260Y81502D01*
X278128Y80500D01*
X278260Y79498D01*
X278647Y78564D01*
X279262Y77762D01*
X280064Y77147D01*
X280998Y76760D01*
X282000Y76628D01*
X282106Y76642D01*
X283353Y76478D01*
X284615Y75956D01*
X285588Y75209D01*
X285675Y75102D01*
X285685Y75112D01*
X285685Y75112D01*
X286296Y74501D01*
Y72154D01*
X285805Y72057D01*
X285539Y72701D01*
X284889Y73547D01*
X284043Y74196D01*
X283058Y74604D01*
X282500Y74678D01*
Y70657D01*
Y66637D01*
X283058Y66711D01*
X284043Y67119D01*
X284889Y67768D01*
X285539Y68614D01*
X285805Y69258D01*
X286296Y69161D01*
Y64653D01*
X285839D01*
Y64653D01*
X278161D01*
Y56976D01*
X285839D01*
Y56976D01*
X285942D01*
X286296Y56623D01*
Y48999D01*
X285001Y47704D01*
X277376D01*
Y47709D01*
Y47712D01*
X277367Y47711D01*
X276929Y47798D01*
X276582Y48030D01*
X276561Y48061D01*
X275845Y48540D01*
X275000Y48708D01*
X274155Y48540D01*
X273439Y48061D01*
X272960Y47345D01*
X272792Y46500D01*
X272960Y45655D01*
X273439Y44939D01*
Y44518D01*
X272960Y43802D01*
X272792Y42957D01*
X272960Y42112D01*
X273439Y41396D01*
X274155Y40917D01*
X275000Y40749D01*
X275845Y40917D01*
X276561Y41396D01*
X276582Y41427D01*
X276929Y41659D01*
X277367Y41746D01*
X277376Y41745D01*
Y41752D01*
X284184D01*
X284184Y41752D01*
X284645Y41844D01*
X285035Y42105D01*
X289926Y46996D01*
X289926Y46996D01*
X290187Y47387D01*
X290187Y47387D01*
X290187Y47387D01*
X290279Y47848D01*
X290279Y47848D01*
Y83268D01*
X290279Y83268D01*
X290187Y83729D01*
X289926Y84119D01*
X289926Y84119D01*
X287388Y86657D01*
X287388Y86657D01*
X287398Y86667D01*
X287291Y86754D01*
X286544Y87728D01*
X286022Y88989D01*
X285858Y90237D01*
X285872Y90342D01*
X285740Y91345D01*
X285353Y92278D01*
X284738Y93080D01*
X283936Y93695D01*
X283002Y94082D01*
X282000Y94214D01*
D02*
G37*
G36*
X229500Y78543D02*
X227072D01*
X227108Y78268D01*
X227407Y77546D01*
X227883Y76926D01*
X228503Y76450D01*
X229225Y76151D01*
X229500Y76115D01*
Y78543D01*
D02*
G37*
G36*
X232928D02*
X230500D01*
Y76115D01*
X230775Y76151D01*
X231497Y76450D01*
X232117Y76926D01*
X232593Y77546D01*
X232892Y78268D01*
X232928Y78543D01*
D02*
G37*
G36*
X125000Y82520D02*
X124442Y82447D01*
X123457Y82039D01*
X122611Y81389D01*
X121961Y80543D01*
X121553Y79558D01*
X121480Y79000D01*
X125000D01*
Y82520D01*
D02*
G37*
G36*
X48325Y60500D02*
X46500D01*
Y58675D01*
X46928Y58760D01*
X47714Y59286D01*
X48240Y60072D01*
X48325Y60500D01*
D02*
G37*
G36*
X45500Y63325D02*
X45072Y63240D01*
X44286Y62714D01*
X43760Y61928D01*
X43675Y61500D01*
X45500D01*
Y63325D01*
D02*
G37*
G36*
Y60500D02*
X43675D01*
X43760Y60072D01*
X44286Y59286D01*
X45072Y58760D01*
X45500Y58675D01*
Y60500D01*
D02*
G37*
G36*
X195551Y82724D02*
X192902D01*
X192051Y82555D01*
X191329Y82073D01*
X190847Y81351D01*
X190777Y81000D01*
X195551D01*
Y82724D01*
D02*
G37*
G36*
X230500Y81972D02*
Y79543D01*
X232928D01*
X232892Y79818D01*
X232593Y80540D01*
X232117Y81160D01*
X231497Y81636D01*
X230775Y81935D01*
X230500Y81972D01*
D02*
G37*
G36*
X281500Y70157D02*
X277980D01*
X278053Y69600D01*
X278461Y68614D01*
X279111Y67768D01*
X279957Y67119D01*
X280942Y66711D01*
X281500Y66637D01*
Y70157D01*
D02*
G37*
G36*
Y74678D02*
X280942Y74604D01*
X279957Y74196D01*
X279111Y73547D01*
X278461Y72701D01*
X278053Y71715D01*
X277980Y71157D01*
X281500D01*
Y74678D01*
D02*
G37*
G36*
X126000Y82520D02*
Y79000D01*
X129520D01*
X129447Y79558D01*
X129039Y80543D01*
X128389Y81389D01*
X127543Y82039D01*
X126558Y82447D01*
X126000Y82520D01*
D02*
G37*
G36*
X46500Y63325D02*
Y61500D01*
X48325D01*
X48240Y61928D01*
X47714Y62714D01*
X46928Y63240D01*
X46500Y63325D01*
D02*
G37*
G36*
X229500Y81972D02*
X229225Y81935D01*
X228503Y81636D01*
X227883Y81160D01*
X227407Y80540D01*
X227108Y79818D01*
X227072Y79543D01*
X229500D01*
Y81972D01*
D02*
G37*
G36*
X162453Y17800D02*
X161896Y17726D01*
X160910Y17318D01*
X160064Y16669D01*
X159414Y15823D01*
X159006Y14837D01*
X158933Y14279D01*
X162453D01*
Y17800D01*
D02*
G37*
G36*
X163453D02*
Y14279D01*
X166973D01*
X166900Y14837D01*
X166492Y15823D01*
X165842Y16669D01*
X164996Y17318D01*
X164011Y17726D01*
X163453Y17800D01*
D02*
G37*
G36*
X202453D02*
X201895Y17726D01*
X200910Y17318D01*
X200064Y16669D01*
X199414Y15823D01*
X199006Y14837D01*
X198933Y14279D01*
X202453D01*
Y17800D01*
D02*
G37*
G36*
X192953Y17651D02*
X191951Y17519D01*
X191017Y17132D01*
X190215Y16517D01*
X189600Y15715D01*
X189213Y14782D01*
X189081Y13780D01*
X189213Y12777D01*
X189600Y11844D01*
X190215Y11042D01*
X191017Y10426D01*
X191951Y10040D01*
X192953Y9908D01*
X193955Y10040D01*
X194889Y10426D01*
X195691Y11042D01*
X196306Y11844D01*
X196693Y12777D01*
X196825Y13780D01*
X196693Y14782D01*
X196306Y15715D01*
X195691Y16517D01*
X194889Y17132D01*
X193955Y17519D01*
X192953Y17651D01*
D02*
G37*
G36*
X82453Y17800D02*
X81896Y17726D01*
X80910Y17318D01*
X80064Y16669D01*
X79414Y15823D01*
X79006Y14837D01*
X78933Y14279D01*
X82453D01*
Y17800D01*
D02*
G37*
G36*
X83453D02*
Y14279D01*
X86973D01*
X86900Y14837D01*
X86492Y15823D01*
X85842Y16669D01*
X84996Y17318D01*
X84011Y17726D01*
X83453Y17800D01*
D02*
G37*
G36*
X203453D02*
Y14279D01*
X206973D01*
X206900Y14837D01*
X206492Y15823D01*
X205842Y16669D01*
X204996Y17318D01*
X204011Y17726D01*
X203453Y17800D01*
D02*
G37*
G36*
X186973Y23280D02*
X183453D01*
Y19759D01*
X184011Y19833D01*
X184996Y20241D01*
X185842Y20890D01*
X186492Y21736D01*
X186900Y22722D01*
X186973Y23280D01*
D02*
G37*
G36*
X92953Y27651D02*
X91951Y27519D01*
X91017Y27132D01*
X90215Y26517D01*
X89600Y25715D01*
X89213Y24782D01*
X89081Y23779D01*
X89213Y22777D01*
X89600Y21844D01*
X90215Y21042D01*
X91017Y20426D01*
X91951Y20040D01*
X92953Y19908D01*
X93955Y20040D01*
X94889Y20426D01*
X95691Y21042D01*
X96306Y21844D01*
X96693Y22777D01*
X96825Y23779D01*
X96693Y24782D01*
X96306Y25715D01*
X95691Y26517D01*
X94889Y27132D01*
X93955Y27519D01*
X92953Y27651D01*
D02*
G37*
G36*
X285339Y23496D02*
X277661D01*
Y21510D01*
X277590Y21455D01*
X276198Y20878D01*
X274875Y20704D01*
X272365D01*
X272345Y20724D01*
Y20724D01*
D01*
D01*
D01*
X272345D01*
X272345D01*
D01*
D01*
X272343Y20724D01*
Y20724D01*
D01*
Y20724D01*
X272288Y20717D01*
X271674Y20797D01*
X271299Y20953D01*
Y22256D01*
X265787D01*
Y16744D01*
X271299D01*
Y18047D01*
X271674Y18203D01*
X272288Y18283D01*
X272345Y18276D01*
Y18296D01*
X274704D01*
Y18280D01*
X274869Y18296D01*
X275565D01*
X276678Y18149D01*
X277661Y17742D01*
Y15819D01*
X285339D01*
Y23496D01*
D02*
G37*
G36*
X36973Y23280D02*
X33453D01*
Y19759D01*
X34011Y19833D01*
X34996Y20241D01*
X35842Y20890D01*
X36492Y21736D01*
X36900Y22722D01*
X36973Y23280D01*
D02*
G37*
G36*
X102453D02*
X98933D01*
X99006Y22722D01*
X99414Y21736D01*
X100064Y20890D01*
X100910Y20241D01*
X101895Y19833D01*
X102453Y19759D01*
Y23280D01*
D02*
G37*
G36*
X182453D02*
X178933D01*
X179006Y22722D01*
X179414Y21736D01*
X180064Y20890D01*
X180910Y20241D01*
X181895Y19833D01*
X182453Y19759D01*
Y23280D01*
D02*
G37*
G36*
X86973Y13280D02*
X83453D01*
Y9759D01*
X84011Y9833D01*
X84996Y10241D01*
X85842Y10890D01*
X86492Y11737D01*
X86900Y12722D01*
X86973Y13280D01*
D02*
G37*
G36*
X162453D02*
X158933D01*
X159006Y12722D01*
X159414Y11737D01*
X160064Y10890D01*
X160910Y10241D01*
X161896Y9833D01*
X162453Y9759D01*
Y13280D01*
D02*
G37*
G36*
X166973D02*
X163453D01*
Y9759D01*
X164011Y9833D01*
X164996Y10241D01*
X165842Y10890D01*
X166492Y11737D01*
X166900Y12722D01*
X166973Y13280D01*
D02*
G37*
G36*
X62453D02*
X58933D01*
X59006Y12722D01*
X59414Y11737D01*
X60064Y10890D01*
X60910Y10241D01*
X61896Y9833D01*
X62453Y9759D01*
Y13280D01*
D02*
G37*
G36*
X66973D02*
X63453D01*
Y9759D01*
X64011Y9833D01*
X64996Y10241D01*
X65842Y10890D01*
X66492Y11737D01*
X66900Y12722D01*
X66973Y13280D01*
D02*
G37*
G36*
X82453D02*
X78933D01*
X79006Y12722D01*
X79414Y11737D01*
X80064Y10890D01*
X80910Y10241D01*
X81896Y9833D01*
X82453Y9759D01*
Y13280D01*
D02*
G37*
G36*
X202453D02*
X198933D01*
X199006Y12722D01*
X199414Y11737D01*
X200064Y10890D01*
X200910Y10241D01*
X201895Y9833D01*
X202453Y9759D01*
Y13280D01*
D02*
G37*
G36*
X102953Y17651D02*
X101951Y17519D01*
X101017Y17132D01*
X100215Y16517D01*
X99600Y15715D01*
X99213Y14782D01*
X99081Y13780D01*
X99213Y12777D01*
X99600Y11844D01*
X100215Y11042D01*
X101017Y10426D01*
X101951Y10040D01*
X102953Y9908D01*
X103955Y10040D01*
X104889Y10426D01*
X105691Y11042D01*
X106306Y11844D01*
X106693Y12777D01*
X106825Y13780D01*
X106693Y14782D01*
X106306Y15715D01*
X105691Y16517D01*
X104889Y17132D01*
X103955Y17519D01*
X102953Y17651D01*
D02*
G37*
G36*
X172953D02*
X171951Y17519D01*
X171017Y17132D01*
X170215Y16517D01*
X169600Y15715D01*
X169213Y14782D01*
X169081Y13780D01*
X169213Y12777D01*
X169600Y11844D01*
X170215Y11042D01*
X171017Y10426D01*
X171951Y10040D01*
X172953Y9908D01*
X173955Y10040D01*
X174889Y10426D01*
X175691Y11042D01*
X176306Y11844D01*
X176693Y12777D01*
X176825Y13780D01*
X176693Y14782D01*
X176306Y15715D01*
X175691Y16517D01*
X174889Y17132D01*
X173955Y17519D01*
X172953Y17651D01*
D02*
G37*
G36*
X182953D02*
X181951Y17519D01*
X181017Y17132D01*
X180215Y16517D01*
X179600Y15715D01*
X179213Y14782D01*
X179081Y13780D01*
X179213Y12777D01*
X179600Y11844D01*
X180215Y11042D01*
X181017Y10426D01*
X181951Y10040D01*
X182953Y9908D01*
X183955Y10040D01*
X184889Y10426D01*
X185691Y11042D01*
X186306Y11844D01*
X186693Y12777D01*
X186825Y13780D01*
X186693Y14782D01*
X186306Y15715D01*
X185691Y16517D01*
X184889Y17132D01*
X183955Y17519D01*
X182953Y17651D01*
D02*
G37*
G36*
X206973Y13280D02*
X203453D01*
Y9759D01*
X204011Y9833D01*
X204996Y10241D01*
X205842Y10890D01*
X206492Y11737D01*
X206900Y12722D01*
X206973Y13280D01*
D02*
G37*
G36*
X42953Y17651D02*
X41951Y17519D01*
X41017Y17132D01*
X40215Y16517D01*
X39600Y15715D01*
X39213Y14782D01*
X39081Y13780D01*
X39213Y12777D01*
X39600Y11844D01*
X40215Y11042D01*
X41017Y10426D01*
X41951Y10040D01*
X42953Y9908D01*
X43955Y10040D01*
X44889Y10426D01*
X45691Y11042D01*
X46306Y11844D01*
X46693Y12777D01*
X46825Y13780D01*
X46693Y14782D01*
X46306Y15715D01*
X45691Y16517D01*
X44889Y17132D01*
X43955Y17519D01*
X42953Y17651D01*
D02*
G37*
G36*
X92953D02*
X91951Y17519D01*
X91017Y17132D01*
X90215Y16517D01*
X89600Y15715D01*
X89213Y14782D01*
X89081Y13780D01*
X89213Y12777D01*
X89600Y11844D01*
X90215Y11042D01*
X91017Y10426D01*
X91951Y10040D01*
X92953Y9908D01*
X93955Y10040D01*
X94889Y10426D01*
X95691Y11042D01*
X96306Y11844D01*
X96693Y12777D01*
X96825Y13780D01*
X96693Y14782D01*
X96306Y15715D01*
X95691Y16517D01*
X94889Y17132D01*
X93955Y17519D01*
X92953Y17651D01*
D02*
G37*
G36*
X251500Y43000D02*
X249675D01*
X249760Y42572D01*
X250286Y41786D01*
X251072Y41260D01*
X251500Y41175D01*
Y43000D01*
D02*
G37*
G36*
X254325D02*
X252500D01*
Y41175D01*
X252928Y41260D01*
X253714Y41786D01*
X254240Y42572D01*
X254325Y43000D01*
D02*
G37*
G36*
X257457Y46000D02*
X255028D01*
X255065Y45725D01*
X255364Y45003D01*
X255839Y44383D01*
X256460Y43907D01*
X257182Y43608D01*
X257457Y43572D01*
Y46000D01*
D02*
G37*
G36*
X98000Y46872D02*
X96998Y46740D01*
X96064Y46353D01*
X95262Y45738D01*
X94647Y44936D01*
X94260Y44002D01*
X94128Y43000D01*
X94260Y41998D01*
X94647Y41064D01*
X95262Y40262D01*
X96064Y39647D01*
X96998Y39260D01*
X98000Y39128D01*
X99002Y39260D01*
X99936Y39647D01*
X100738Y40262D01*
X101353Y41064D01*
X101740Y41998D01*
X101872Y43000D01*
X101740Y44002D01*
X101353Y44936D01*
X100738Y45738D01*
X99936Y46353D01*
X99002Y46740D01*
X98000Y46872D01*
D02*
G37*
G36*
X225543Y43000D02*
X223115D01*
X223151Y42725D01*
X223450Y42003D01*
X223926Y41383D01*
X224546Y40907D01*
X225268Y40608D01*
X225543Y40572D01*
Y43000D01*
D02*
G37*
G36*
X228972D02*
X226543D01*
Y40572D01*
X226818Y40608D01*
X227540Y40907D01*
X228161Y41383D01*
X228636Y42003D01*
X228935Y42725D01*
X228972Y43000D01*
D02*
G37*
G36*
X260885Y46000D02*
X258457D01*
Y43572D01*
X258732Y43608D01*
X259454Y43907D01*
X260074Y44383D01*
X260550Y45003D01*
X260849Y45725D01*
X260885Y46000D01*
D02*
G37*
G36*
X251500Y45825D02*
X251072Y45740D01*
X250286Y45214D01*
X249760Y44428D01*
X249675Y44000D01*
X251500D01*
Y45825D01*
D02*
G37*
G36*
X252500D02*
Y44000D01*
X254325D01*
X254240Y44428D01*
X253714Y45214D01*
X252928Y45740D01*
X252500Y45825D01*
D02*
G37*
G36*
X257457Y49428D02*
X257182Y49392D01*
X256460Y49093D01*
X255839Y48617D01*
X255364Y47997D01*
X255065Y47275D01*
X255028Y47000D01*
X257457D01*
Y49428D01*
D02*
G37*
G36*
X225543Y46428D02*
X225268Y46392D01*
X224546Y46093D01*
X223926Y45617D01*
X223450Y44997D01*
X223151Y44275D01*
X223115Y44000D01*
X225543D01*
Y46428D01*
D02*
G37*
G36*
X226543D02*
Y44000D01*
X228972D01*
X228935Y44275D01*
X228636Y44997D01*
X228161Y45617D01*
X227540Y46093D01*
X226818Y46392D01*
X226543Y46428D01*
D02*
G37*
G36*
X232000Y45825D02*
X231572Y45740D01*
X230786Y45214D01*
X230260Y44428D01*
X230175Y44000D01*
X232000D01*
Y45825D01*
D02*
G37*
G36*
X281000Y33520D02*
X280442Y33447D01*
X279457Y33039D01*
X278611Y32389D01*
X277961Y31543D01*
X277553Y30558D01*
X277480Y30000D01*
X281000D01*
Y33520D01*
D02*
G37*
G36*
X282000D02*
Y30000D01*
X285520D01*
X285447Y30558D01*
X285039Y31543D01*
X284389Y32389D01*
X283543Y33039D01*
X282558Y33447D01*
X282000Y33520D01*
D02*
G37*
G36*
X8500Y34500D02*
X6675D01*
X6760Y34072D01*
X7286Y33286D01*
X8072Y32760D01*
X8500Y32675D01*
Y34500D01*
D02*
G37*
G36*
X33453Y27800D02*
Y24280D01*
X36973D01*
X36900Y24837D01*
X36492Y25823D01*
X35842Y26669D01*
X34996Y27318D01*
X34011Y27726D01*
X33453Y27800D01*
D02*
G37*
G36*
X281000Y29000D02*
X277480D01*
X277553Y28442D01*
X277961Y27457D01*
X278611Y26611D01*
X279457Y25961D01*
X280442Y25553D01*
X281000Y25480D01*
Y29000D01*
D02*
G37*
G36*
X285520D02*
X282000D01*
Y25480D01*
X282558Y25553D01*
X283543Y25961D01*
X284389Y26611D01*
X285039Y27457D01*
X285447Y28442D01*
X285520Y29000D01*
D02*
G37*
G36*
X11325Y34500D02*
X9500D01*
Y32675D01*
X9928Y32760D01*
X10714Y33286D01*
X11240Y34072D01*
X11325Y34500D01*
D02*
G37*
G36*
X68000Y46872D02*
X66998Y46740D01*
X66064Y46353D01*
X65262Y45738D01*
X64647Y44936D01*
X64260Y44002D01*
X64128Y43000D01*
X64260Y41998D01*
X64647Y41064D01*
X65262Y40262D01*
X66064Y39647D01*
X66998Y39260D01*
X68000Y39128D01*
X69002Y39260D01*
X69936Y39647D01*
X70738Y40262D01*
X71353Y41064D01*
X71740Y41998D01*
X71872Y43000D01*
X71740Y44002D01*
X71353Y44936D01*
X70738Y45738D01*
X69936Y46353D01*
X69002Y46740D01*
X68000Y46872D01*
D02*
G37*
G36*
X78000D02*
X76998Y46740D01*
X76064Y46353D01*
X75262Y45738D01*
X74647Y44936D01*
X74260Y44002D01*
X74128Y43000D01*
X74260Y41998D01*
X74647Y41064D01*
X75262Y40262D01*
X76064Y39647D01*
X76998Y39260D01*
X78000Y39128D01*
X79002Y39260D01*
X79936Y39647D01*
X80738Y40262D01*
X81353Y41064D01*
X81740Y41998D01*
X81872Y43000D01*
X81740Y44002D01*
X81353Y44936D01*
X80738Y45738D01*
X79936Y46353D01*
X79002Y46740D01*
X78000Y46872D01*
D02*
G37*
G36*
X88000D02*
X86998Y46740D01*
X86064Y46353D01*
X85262Y45738D01*
X84647Y44936D01*
X84260Y44002D01*
X84128Y43000D01*
X84260Y41998D01*
X84647Y41064D01*
X85262Y40262D01*
X86064Y39647D01*
X86998Y39260D01*
X88000Y39128D01*
X89002Y39260D01*
X89936Y39647D01*
X90738Y40262D01*
X91353Y41064D01*
X91740Y41998D01*
X91872Y43000D01*
X91740Y44002D01*
X91353Y44936D01*
X90738Y45738D01*
X89936Y46353D01*
X89002Y46740D01*
X88000Y46872D01*
D02*
G37*
G36*
X8500Y37325D02*
X8072Y37240D01*
X7286Y36714D01*
X6760Y35928D01*
X6675Y35500D01*
X8500D01*
Y37325D01*
D02*
G37*
G36*
X9500D02*
Y35500D01*
X11325D01*
X11240Y35928D01*
X10714Y36714D01*
X9928Y37240D01*
X9500Y37325D01*
D02*
G37*
G36*
X108000Y46872D02*
X106998Y46740D01*
X106064Y46353D01*
X105262Y45738D01*
X104647Y44936D01*
X104260Y44002D01*
X104128Y43000D01*
X104142Y42894D01*
X103978Y41647D01*
X103456Y40385D01*
X102709Y39412D01*
X102602Y39325D01*
X102612Y39315D01*
X101501Y38204D01*
X76876D01*
Y38209D01*
Y38212D01*
X76867Y38211D01*
X76429Y38298D01*
X76082Y38530D01*
X76061Y38561D01*
X75345Y39040D01*
X74500Y39208D01*
X73655Y39040D01*
X72939Y38561D01*
X72460Y37845D01*
X72292Y37000D01*
X72460Y36155D01*
X72939Y35439D01*
X73655Y34960D01*
X74500Y34792D01*
X75345Y34960D01*
X76061Y35439D01*
X76082Y35471D01*
X76429Y35702D01*
X76867Y35789D01*
X76876Y35788D01*
Y35796D01*
X102000D01*
X102000Y35796D01*
X102461Y35887D01*
X102851Y36149D01*
X104315Y37612D01*
X104325Y37602D01*
X104412Y37709D01*
X105385Y38456D01*
X106647Y38978D01*
X107894Y39142D01*
X108000Y39128D01*
X109002Y39260D01*
X109936Y39647D01*
X110738Y40262D01*
X111353Y41064D01*
X111740Y41998D01*
X111872Y43000D01*
X111740Y44002D01*
X111353Y44936D01*
X110738Y45738D01*
X109936Y46353D01*
X109002Y46740D01*
X108000Y46872D01*
D02*
G37*
G36*
X218098Y87507D02*
X211799D01*
X211031Y87354D01*
X210380Y86919D01*
X209945Y86268D01*
X209792Y85500D01*
X209945Y84732D01*
X210380Y84081D01*
X211031Y83646D01*
X211799Y83493D01*
X218098D01*
X218866Y83646D01*
X219518Y84081D01*
X219953Y84732D01*
X220106Y85500D01*
X219953Y86268D01*
X219518Y86919D01*
X218866Y87354D01*
X218098Y87507D01*
D02*
G37*
G36*
X119307Y175067D02*
X115390D01*
X115477Y174407D01*
X115925Y173325D01*
X116637Y172397D01*
X117566Y171684D01*
X118647Y171237D01*
X119307Y171150D01*
Y175067D01*
D02*
G37*
G36*
X124224D02*
X120307D01*
Y171150D01*
X120967Y171237D01*
X122049Y171684D01*
X122977Y172397D01*
X123690Y173325D01*
X124138Y174407D01*
X124224Y175067D01*
D02*
G37*
G36*
X132693D02*
X128776D01*
X128862Y174407D01*
X129310Y173325D01*
X130023Y172397D01*
X130951Y171684D01*
X132033Y171237D01*
X132693Y171150D01*
Y175067D01*
D02*
G37*
G36*
X81225D02*
X77307D01*
Y171150D01*
X77967Y171237D01*
X79049Y171684D01*
X79977Y172397D01*
X80690Y173325D01*
X81138Y174407D01*
X81225Y175067D01*
D02*
G37*
G36*
X89693D02*
X85776D01*
X85862Y174407D01*
X86310Y173325D01*
X87023Y172397D01*
X87951Y171684D01*
X89033Y171237D01*
X89693Y171150D01*
Y175067D01*
D02*
G37*
G36*
X94610D02*
X90693D01*
Y171150D01*
X91353Y171237D01*
X92435Y171684D01*
X93363Y172397D01*
X94076Y173325D01*
X94523Y174407D01*
X94610Y175067D01*
D02*
G37*
G36*
X46193Y179984D02*
X45533Y179897D01*
X44451Y179449D01*
X43523Y178737D01*
X42810Y177808D01*
X42362Y176727D01*
X42276Y176067D01*
X46193D01*
Y179984D01*
D02*
G37*
G36*
X47193D02*
Y176067D01*
X51110D01*
X51023Y176727D01*
X50576Y177808D01*
X49863Y178737D01*
X48935Y179449D01*
X47853Y179897D01*
X47193Y179984D01*
D02*
G37*
G36*
X76307D02*
X75647Y179897D01*
X74566Y179449D01*
X73637Y178737D01*
X72925Y177808D01*
X72477Y176727D01*
X72390Y176067D01*
X76307D01*
Y179984D01*
D02*
G37*
G36*
X137610Y175067D02*
X133693D01*
Y171150D01*
X134353Y171237D01*
X135434Y171684D01*
X136363Y172397D01*
X137075Y173325D01*
X137523Y174407D01*
X137610Y175067D01*
D02*
G37*
G36*
X32807Y179984D02*
X32147Y179897D01*
X31065Y179449D01*
X30137Y178737D01*
X29425Y177808D01*
X28977Y176727D01*
X28890Y176067D01*
X32807D01*
Y179984D01*
D02*
G37*
G36*
X33807D02*
Y176067D01*
X37725D01*
X37638Y176727D01*
X37190Y177808D01*
X36477Y178737D01*
X35549Y179449D01*
X34467Y179897D01*
X33807Y179984D01*
D02*
G37*
G36*
X284000Y169500D02*
X279487D01*
X279594Y168685D01*
X280102Y167461D01*
X280909Y166409D01*
X281961Y165602D01*
X283186Y165094D01*
X284000Y164987D01*
Y169500D01*
D02*
G37*
G36*
X289513D02*
X285000D01*
Y164987D01*
X285814Y165094D01*
X287039Y165602D01*
X288091Y166409D01*
X288898Y167461D01*
X289406Y168685D01*
X289513Y169500D01*
D02*
G37*
G36*
X284000Y175013D02*
X283186Y174906D01*
X281961Y174398D01*
X280909Y173591D01*
X280102Y172539D01*
X279594Y171315D01*
X279487Y170500D01*
X284000D01*
Y175013D01*
D02*
G37*
G36*
X139886Y165269D02*
X138781Y165123D01*
X137751Y164697D01*
X136867Y164018D01*
X136189Y163134D01*
X135763Y162105D01*
X135617Y161000D01*
X135763Y159895D01*
X136189Y158866D01*
X136778Y158098D01*
X136856Y157982D01*
X136856D01*
X136859Y157976D01*
Y157976D01*
X136860Y157975D01*
X136867Y157981D01*
X136867Y157982D01*
D01*
X136934Y157930D01*
X137352Y157306D01*
X137477Y156674D01*
Y143035D01*
X131339D01*
Y135161D01*
X137757D01*
X137792Y134986D01*
Y133914D01*
X135085Y131208D01*
X132000D01*
X131155Y131040D01*
X130439Y130561D01*
X124849Y124972D01*
X122043D01*
Y127488D01*
X114957D01*
Y118039D01*
X122043D01*
Y120556D01*
X125764D01*
X126609Y120724D01*
X127325Y121203D01*
X127325Y121203D01*
X127325Y121203D01*
X132914Y126792D01*
X136000D01*
X136845Y126960D01*
X137561Y127439D01*
X141561Y131439D01*
X142040Y132155D01*
X142208Y133000D01*
Y134986D01*
X142243Y135161D01*
X148661D01*
Y143035D01*
X142294D01*
Y156674D01*
X142420Y157306D01*
X142837Y157930D01*
X142904Y157982D01*
X142911Y157975D01*
X142993Y158098D01*
X143583Y158866D01*
X144009Y159895D01*
X144155Y161000D01*
X144009Y162105D01*
X143583Y163134D01*
X142904Y164018D01*
X142020Y164697D01*
X140991Y165123D01*
X139886Y165269D01*
D02*
G37*
G36*
X96886D02*
X95781Y165123D01*
X94751Y164697D01*
X93867Y164018D01*
X93189Y163134D01*
X92763Y162105D01*
X92617Y161000D01*
X92763Y159895D01*
X93189Y158866D01*
X93778Y158098D01*
X93856Y157982D01*
X93856D01*
X93859Y157976D01*
Y157976D01*
X93860Y157975D01*
X93867Y157981D01*
X93867Y157982D01*
D01*
X93934Y157930D01*
X94352Y157306D01*
X94477Y156674D01*
Y144778D01*
X94360Y143887D01*
X94007Y143035D01*
X87339D01*
Y135161D01*
X93757D01*
X93792Y134986D01*
Y133914D01*
X91085Y131208D01*
X88000D01*
X87155Y131040D01*
X86439Y130561D01*
X80849Y124972D01*
X78043D01*
Y127488D01*
X70957D01*
Y118039D01*
X78043D01*
Y120556D01*
X81764D01*
X82609Y120724D01*
X83325Y121203D01*
X83325Y121203D01*
X83325Y121203D01*
X88915Y126792D01*
X92000D01*
X92845Y126960D01*
X93561Y127439D01*
X97561Y131439D01*
X98040Y132155D01*
X98208Y133000D01*
Y134986D01*
X98243Y135161D01*
X104661D01*
Y143035D01*
X99294D01*
Y156674D01*
X99420Y157306D01*
X99837Y157930D01*
X99904Y157982D01*
X99904Y157982D01*
D01*
D01*
D01*
X99904Y157981D01*
X99911Y157975D01*
X99912Y157976D01*
X99912D01*
X99939Y158016D01*
X99939Y158016D01*
X99993Y158098D01*
X100583Y158866D01*
X101009Y159895D01*
X101155Y161000D01*
X101009Y162105D01*
X100583Y163134D01*
X99904Y164018D01*
X99020Y164697D01*
X97991Y165123D01*
X96886Y165269D01*
D02*
G37*
G36*
X53386D02*
X52281Y165123D01*
X51251Y164697D01*
X50367Y164018D01*
X49689Y163134D01*
X49262Y162105D01*
X49117Y161000D01*
X49262Y159895D01*
X49689Y158866D01*
X50314Y158052D01*
X50360Y157982D01*
X50360D01*
X50362Y157978D01*
D01*
X50363Y157977D01*
X50367Y157981D01*
X50367Y157982D01*
D01*
X50399Y157957D01*
X50819Y157409D01*
X51099Y156734D01*
X51178Y156134D01*
Y146465D01*
X51072Y145389D01*
X50684Y144109D01*
X50110Y143035D01*
X43339D01*
Y135161D01*
X49757D01*
X49792Y134986D01*
Y133914D01*
X47085Y131208D01*
X44000D01*
X43155Y131040D01*
X42439Y130561D01*
X36849Y124972D01*
X34043D01*
Y127488D01*
X26957D01*
Y118039D01*
X34043D01*
Y120556D01*
X37764D01*
X38609Y120724D01*
X39325Y121203D01*
X39325Y121203D01*
X39325Y121203D01*
X44914Y126792D01*
X48000D01*
X48845Y126960D01*
X49561Y127439D01*
X49561Y127439D01*
X49561Y127439D01*
X53561Y131439D01*
X54040Y132155D01*
X54208Y133000D01*
Y134986D01*
X54243Y135161D01*
X60661D01*
Y143035D01*
X55594D01*
Y156134D01*
X55673Y156734D01*
X55952Y157409D01*
X56372Y157957D01*
X56404Y157982D01*
X56409Y157977D01*
X56458Y158052D01*
X57083Y158866D01*
X57509Y159895D01*
X57655Y161000D01*
X57509Y162105D01*
X57083Y163134D01*
X56404Y164018D01*
X55520Y164697D01*
X54491Y165123D01*
X53386Y165269D01*
D02*
G37*
G36*
X46193Y175067D02*
X42276D01*
X42362Y174407D01*
X42810Y173325D01*
X43523Y172397D01*
X44451Y171684D01*
X45533Y171237D01*
X46193Y171150D01*
Y175067D01*
D02*
G37*
G36*
X51110D02*
X47193D01*
Y171150D01*
X47853Y171237D01*
X48935Y171684D01*
X49863Y172397D01*
X50576Y173325D01*
X51023Y174407D01*
X51110Y175067D01*
D02*
G37*
G36*
X76307D02*
X72390D01*
X72477Y174407D01*
X72925Y173325D01*
X73637Y172397D01*
X74566Y171684D01*
X75647Y171237D01*
X76307Y171150D01*
Y175067D01*
D02*
G37*
G36*
X285000Y175013D02*
Y170500D01*
X289513D01*
X289406Y171315D01*
X288898Y172539D01*
X288091Y173591D01*
X287039Y174398D01*
X285814Y174906D01*
X285000Y175013D01*
D02*
G37*
G36*
X32807Y175067D02*
X28890D01*
X28977Y174407D01*
X29425Y173325D01*
X30137Y172397D01*
X31065Y171684D01*
X32147Y171237D01*
X32807Y171150D01*
Y175067D01*
D02*
G37*
G36*
X37725D02*
X33807D01*
Y171150D01*
X34467Y171237D01*
X35549Y171684D01*
X36477Y172397D01*
X37190Y173325D01*
X37638Y174407D01*
X37725Y175067D01*
D02*
G37*
G36*
X77307Y179984D02*
Y176067D01*
X81225D01*
X81138Y176727D01*
X80690Y177808D01*
X79977Y178737D01*
X79049Y179449D01*
X77967Y179897D01*
X77307Y179984D01*
D02*
G37*
G36*
X13780Y222356D02*
X12111Y222224D01*
X10485Y221834D01*
X8939Y221194D01*
X7512Y220319D01*
X6240Y219233D01*
X5153Y217960D01*
X4279Y216534D01*
X3638Y214988D01*
X3248Y213361D01*
X3117Y211693D01*
X3248Y210025D01*
X3638Y208398D01*
X4279Y206852D01*
X5153Y205425D01*
X6240Y204153D01*
X7512Y203066D01*
X8939Y202192D01*
X10485Y201552D01*
X12111Y201161D01*
X13780Y201030D01*
X15448Y201161D01*
X17074Y201552D01*
X18620Y202192D01*
X20047Y203066D01*
X21319Y204153D01*
X22406Y205425D01*
X23280Y206852D01*
X23920Y208398D01*
X24311Y210025D01*
X24442Y211693D01*
X24311Y213361D01*
X23920Y214988D01*
X23280Y216534D01*
X22406Y217960D01*
X21319Y219233D01*
X20047Y220319D01*
X18620Y221194D01*
X17074Y221834D01*
X15448Y222224D01*
X13780Y222356D01*
D02*
G37*
G36*
X242126D02*
X240458Y222224D01*
X238831Y221834D01*
X237285Y221194D01*
X235858Y220319D01*
X234586Y219233D01*
X233500Y217960D01*
X232625Y216534D01*
X231985Y214988D01*
X231594Y213361D01*
X231463Y211693D01*
X231594Y210025D01*
X231985Y208398D01*
X232625Y206852D01*
X233500Y205425D01*
X234586Y204153D01*
X235858Y203066D01*
X237285Y202192D01*
X238831Y201552D01*
X240458Y201161D01*
X242126Y201030D01*
X243794Y201161D01*
X245421Y201552D01*
X246967Y202192D01*
X248393Y203066D01*
X249666Y204153D01*
X250752Y205425D01*
X251626Y206852D01*
X252267Y208398D01*
X252657Y210025D01*
X252789Y211693D01*
X252657Y213361D01*
X252267Y214988D01*
X251626Y216534D01*
X250752Y217960D01*
X249666Y219233D01*
X248393Y220319D01*
X246967Y221194D01*
X245421Y221834D01*
X243794Y222224D01*
X242126Y222356D01*
D02*
G37*
G36*
X283465D02*
X281797Y222224D01*
X280170Y221834D01*
X278624Y221194D01*
X277197Y220319D01*
X275925Y219233D01*
X274838Y217960D01*
X273964Y216534D01*
X273324Y214988D01*
X272933Y213361D01*
X272802Y211693D01*
X272933Y210025D01*
X273324Y208398D01*
X273964Y206852D01*
X274838Y205425D01*
X275925Y204153D01*
X277197Y203066D01*
X278624Y202192D01*
X280170Y201552D01*
X281797Y201161D01*
X283465Y201030D01*
X285133Y201161D01*
X286759Y201552D01*
X288305Y202192D01*
X289732Y203066D01*
X291004Y204153D01*
X292091Y205425D01*
X292965Y206852D01*
X293605Y208398D01*
X293996Y210025D01*
X294127Y211693D01*
X293996Y213361D01*
X293605Y214988D01*
X292965Y216534D01*
X292091Y217960D01*
X291004Y219233D01*
X289732Y220319D01*
X288305Y221194D01*
X286759Y221834D01*
X285133Y222224D01*
X283465Y222356D01*
D02*
G37*
G36*
X87721Y202532D02*
X83803D01*
Y198614D01*
X84464Y198701D01*
X85545Y199149D01*
X86473Y199861D01*
X87186Y200790D01*
X87634Y201871D01*
X87721Y202532D01*
D02*
G37*
G36*
X125803D02*
X121886D01*
X121973Y201871D01*
X122421Y200790D01*
X123133Y199861D01*
X124062Y199149D01*
X125143Y198701D01*
X125803Y198614D01*
Y202532D01*
D02*
G37*
G36*
X130721D02*
X126803D01*
Y198614D01*
X127463Y198701D01*
X128545Y199149D01*
X129473Y199861D01*
X130186Y200790D01*
X130634Y201871D01*
X130721Y202532D01*
D02*
G37*
G36*
X83803Y207449D02*
Y203532D01*
X87721D01*
X87634Y204192D01*
X87186Y205273D01*
X86473Y206202D01*
X85545Y206914D01*
X84464Y207362D01*
X83803Y207449D01*
D02*
G37*
G36*
X125803D02*
X125143Y207362D01*
X124062Y206914D01*
X123133Y206202D01*
X122421Y205273D01*
X121973Y204192D01*
X121886Y203532D01*
X125803D01*
Y207449D01*
D02*
G37*
G36*
X126803D02*
Y203532D01*
X130721D01*
X130634Y204192D01*
X130186Y205273D01*
X129473Y206202D01*
X128545Y206914D01*
X127463Y207362D01*
X126803Y207449D01*
D02*
G37*
G36*
X39303Y207417D02*
X38643Y207330D01*
X37562Y206883D01*
X36633Y206170D01*
X35921Y205242D01*
X35473Y204160D01*
X35386Y203500D01*
X39303D01*
Y207417D01*
D02*
G37*
G36*
X40303D02*
Y203500D01*
X44221D01*
X44134Y204160D01*
X43686Y205242D01*
X42973Y206170D01*
X42045Y206883D01*
X40964Y207330D01*
X40303Y207417D01*
D02*
G37*
G36*
X82803Y207449D02*
X82143Y207362D01*
X81062Y206914D01*
X80133Y206202D01*
X79421Y205273D01*
X78973Y204192D01*
X78886Y203532D01*
X82803D01*
Y207449D01*
D02*
G37*
G36*
X120307Y179984D02*
Y176067D01*
X124224D01*
X124138Y176727D01*
X123690Y177808D01*
X122977Y178737D01*
X122049Y179449D01*
X120967Y179897D01*
X120307Y179984D01*
D02*
G37*
G36*
X132693D02*
X132033Y179897D01*
X130951Y179449D01*
X130023Y178737D01*
X129310Y177808D01*
X128862Y176727D01*
X128776Y176067D01*
X132693D01*
Y179984D01*
D02*
G37*
G36*
X133693D02*
Y176067D01*
X137610D01*
X137523Y176727D01*
X137075Y177808D01*
X136363Y178737D01*
X135434Y179449D01*
X134353Y179897D01*
X133693Y179984D01*
D02*
G37*
G36*
X89693D02*
X89033Y179897D01*
X87951Y179449D01*
X87023Y178737D01*
X86310Y177808D01*
X85862Y176727D01*
X85776Y176067D01*
X89693D01*
Y179984D01*
D02*
G37*
G36*
X90693D02*
Y176067D01*
X94610D01*
X94523Y176727D01*
X94076Y177808D01*
X93363Y178737D01*
X92435Y179449D01*
X91353Y179897D01*
X90693Y179984D01*
D02*
G37*
G36*
X119307D02*
X118647Y179897D01*
X117566Y179449D01*
X116637Y178737D01*
X115925Y177808D01*
X115477Y176727D01*
X115390Y176067D01*
X119307D01*
Y179984D01*
D02*
G37*
G36*
X39303Y202500D02*
X35386D01*
X35473Y201840D01*
X35921Y200758D01*
X36633Y199830D01*
X37562Y199117D01*
X38643Y198670D01*
X39303Y198583D01*
Y202500D01*
D02*
G37*
G36*
X44221D02*
X40303D01*
Y198583D01*
X40964Y198670D01*
X42045Y199117D01*
X42973Y199830D01*
X43686Y200758D01*
X44134Y201840D01*
X44221Y202500D01*
D02*
G37*
G36*
X82803Y202532D02*
X78886D01*
X78973Y201871D01*
X79421Y200790D01*
X80133Y199861D01*
X81062Y199149D01*
X82143Y198701D01*
X82803Y198614D01*
Y202532D01*
D02*
G37*
G36*
X196236Y212772D02*
X195260Y212644D01*
X195017Y212543D01*
X191512D01*
Y205457D01*
X192464D01*
Y200799D01*
X190832Y199168D01*
X190233Y198386D01*
X189856Y197476D01*
X189728Y196500D01*
Y190272D01*
X186451D01*
X185877Y190713D01*
X184704Y191199D01*
X183445Y191365D01*
X182186Y191199D01*
X181013Y190713D01*
X180005Y189940D01*
X179232Y188932D01*
X178746Y187759D01*
X178580Y186500D01*
X178746Y185241D01*
X179232Y184068D01*
X180005Y183060D01*
X181013Y182287D01*
X182186Y181801D01*
X183445Y181635D01*
X184704Y181801D01*
X185877Y182287D01*
X186451Y182728D01*
X200124D01*
X200698Y182287D01*
X201871Y181801D01*
X203130Y181635D01*
X204389Y181801D01*
X205562Y182287D01*
X206570Y183060D01*
X207343Y184068D01*
X207829Y185241D01*
X207994Y186500D01*
X207829Y187759D01*
X207343Y188932D01*
X206570Y189940D01*
X205562Y190713D01*
X204389Y191199D01*
X203130Y191365D01*
X201871Y191199D01*
X200698Y190713D01*
X200124Y190272D01*
X197272D01*
Y194937D01*
X198904Y196569D01*
X199503Y197350D01*
X199880Y198260D01*
X200009Y199236D01*
Y205457D01*
X200961D01*
Y212543D01*
X197455D01*
X197213Y212644D01*
X196236Y212772D01*
D02*
G37*
G36*
X289323Y194823D02*
X279677D01*
Y193772D01*
X276000D01*
X275024Y193644D01*
X274114Y193267D01*
X273333Y192667D01*
X270937Y190272D01*
X265191D01*
X264617Y190713D01*
X263444Y191199D01*
X262185Y191365D01*
X260926Y191199D01*
X259753Y190713D01*
X259179Y190272D01*
X245506D01*
X244932Y190713D01*
X243759Y191199D01*
X242500Y191365D01*
X241241Y191199D01*
X240068Y190713D01*
X239060Y189940D01*
X238287Y188932D01*
X237801Y187759D01*
X237636Y186500D01*
X237801Y185241D01*
X238287Y184068D01*
X239060Y183060D01*
X240068Y182287D01*
X241241Y181801D01*
X242500Y181635D01*
X243759Y181801D01*
X244932Y182287D01*
X245506Y182728D01*
X259179D01*
X259753Y182287D01*
X260926Y181801D01*
X262185Y181635D01*
X263444Y181801D01*
X264617Y182287D01*
X265191Y182728D01*
X272500D01*
X273476Y182856D01*
X274386Y183233D01*
X275167Y183833D01*
X275167Y183833D01*
X275167Y183833D01*
X277563Y186228D01*
X279677D01*
Y185177D01*
X289323D01*
Y194823D01*
D02*
G37*
G36*
X160500Y218772D02*
X56500D01*
X55524Y218644D01*
X54614Y218267D01*
X53833Y217668D01*
X53233Y216886D01*
X52856Y215976D01*
X52728Y215000D01*
X52856Y214024D01*
X53233Y213114D01*
X53672Y212541D01*
X53629Y211992D01*
X53231Y210333D01*
X52578Y208756D01*
X51686Y207302D01*
X51627Y207232D01*
X49350D01*
Y198768D01*
X51627D01*
X51686Y198698D01*
X52578Y197243D01*
X53231Y195667D01*
X53629Y194008D01*
X53756Y192400D01*
Y188965D01*
X53851Y188245D01*
X54128Y187575D01*
X54570Y186999D01*
X57299Y184270D01*
Y179799D01*
X55847D01*
Y171335D01*
X64311D01*
Y179799D01*
X62858D01*
Y185421D01*
X62764Y186141D01*
X62486Y186811D01*
X62044Y187387D01*
X59315Y190116D01*
Y192307D01*
X59326D01*
X59315Y192481D01*
Y211228D01*
X96534D01*
X96844Y210835D01*
X96731Y210364D01*
X96078Y208788D01*
X95186Y207333D01*
X95127Y207264D01*
X92850D01*
Y198799D01*
X95127D01*
X95186Y198730D01*
X96078Y197275D01*
X96731Y195699D01*
X97129Y194040D01*
X97256Y192431D01*
Y188965D01*
X97256Y188965D01*
X97256D01*
X97351Y188245D01*
X97628Y187575D01*
X98070Y186999D01*
X100799Y184270D01*
Y179799D01*
X99347D01*
Y171335D01*
X107811D01*
Y179799D01*
X106358D01*
Y185421D01*
X106264Y186141D01*
X105986Y186811D01*
X105544Y187387D01*
X102815Y190116D01*
Y192339D01*
X102826D01*
X102815Y192513D01*
Y211228D01*
X139534D01*
X139844Y210835D01*
X139731Y210364D01*
X139078Y208788D01*
X138186Y207333D01*
X138127Y207264D01*
X135850D01*
Y198799D01*
X138127D01*
X138186Y198730D01*
X139078Y197275D01*
X139731Y195699D01*
X140129Y194040D01*
X140256Y192431D01*
Y188965D01*
X140256Y188965D01*
X140256D01*
X140350Y188245D01*
X140628Y187575D01*
X141070Y186999D01*
X143799Y184270D01*
Y179799D01*
X142347D01*
Y171335D01*
X150811D01*
Y179799D01*
X149358D01*
Y185421D01*
X149264Y186141D01*
X148986Y186811D01*
X148544Y187387D01*
X145815Y190116D01*
Y192339D01*
X145826D01*
X145815Y192513D01*
Y211228D01*
X156142D01*
X156220Y207302D01*
Y171000D01*
Y124500D01*
X156315Y123781D01*
X156593Y123110D01*
X157035Y122535D01*
X157610Y122093D01*
X158281Y121815D01*
X159000Y121720D01*
X159719Y121815D01*
X160390Y122093D01*
X160966Y122535D01*
X161407Y123110D01*
X161685Y123781D01*
X161780Y124500D01*
Y168220D01*
X168747D01*
X168763Y168127D01*
X168894Y166095D01*
Y165465D01*
X168891D01*
X168894Y165433D01*
Y165359D01*
X168776Y164463D01*
X168518Y163839D01*
X166661D01*
Y156161D01*
X174339D01*
Y163839D01*
X172482D01*
X172224Y164463D01*
X172106Y165359D01*
Y165433D01*
X172109Y165465D01*
X172106D01*
Y166202D01*
X172143Y167168D01*
X172235Y168114D01*
X172293Y168466D01*
X172322Y168591D01*
X192804D01*
X192894Y167231D01*
Y165465D01*
X192891D01*
X192894Y165433D01*
Y165359D01*
X192776Y164463D01*
X192518Y163839D01*
X190661D01*
Y156161D01*
X198339D01*
Y163839D01*
X196482D01*
X196224Y164463D01*
X196106Y165359D01*
Y165433D01*
X196109Y165465D01*
X196106D01*
Y167415D01*
X196141Y168454D01*
X196202Y169082D01*
X196231Y169259D01*
X198269Y169394D01*
X216894D01*
Y165308D01*
X216891D01*
X216894Y165275D01*
Y165201D01*
X216776Y164305D01*
X216518Y163681D01*
X214661D01*
Y156004D01*
X222339D01*
Y163681D01*
X220482D01*
X220224Y164305D01*
X220106Y165201D01*
Y165275D01*
X220109Y165308D01*
X220106D01*
Y171000D01*
X219983Y171615D01*
X219635Y172135D01*
X219114Y172483D01*
X218500Y172606D01*
X198085D01*
X197046Y172641D01*
X196418Y172702D01*
X196216Y172735D01*
X196121Y172758D01*
X195422Y173225D01*
X194500Y173408D01*
X171887D01*
X171219Y173685D01*
X170500Y173780D01*
X161780D01*
Y207732D01*
X162242Y207923D01*
X163832Y206332D01*
X164614Y205733D01*
X165524Y205356D01*
X166390Y205242D01*
X166640Y204809D01*
X166531Y204547D01*
X165891Y203712D01*
X165832Y203667D01*
X165233Y202886D01*
X164856Y201976D01*
X164728Y201000D01*
X164856Y200024D01*
X165233Y199114D01*
X165832Y198333D01*
X166614Y197733D01*
X167524Y197356D01*
X168500Y197228D01*
X169476Y197356D01*
X170386Y197733D01*
X171168Y198333D01*
X171767Y199114D01*
X172144Y200024D01*
X172272Y201000D01*
X172144Y201976D01*
X171767Y202886D01*
X171168Y203667D01*
X171109Y203712D01*
X170469Y204547D01*
X170359Y204812D01*
X170637Y205228D01*
X180764D01*
X181740Y205356D01*
X181983Y205457D01*
X185488D01*
Y212543D01*
X181983D01*
X181740Y212644D01*
X180764Y212772D01*
X168063D01*
X163168Y217668D01*
X162386Y218267D01*
X161476Y218644D01*
X160500Y218772D01*
D02*
G37*
G36*
X126500Y165269D02*
X125395Y165123D01*
X124366Y164697D01*
X123482Y164018D01*
X122803Y163134D01*
X122377Y162105D01*
X122231Y161000D01*
X122377Y159895D01*
X122803Y158866D01*
X123482Y157982D01*
X124366Y157303D01*
X125395Y156877D01*
X126500Y156731D01*
X127605Y156877D01*
X128634Y157303D01*
X129518Y157982D01*
X130197Y158866D01*
X130623Y159895D01*
X130769Y161000D01*
X130623Y162105D01*
X130197Y163134D01*
X129518Y164018D01*
X128634Y164697D01*
X127605Y165123D01*
X126500Y165269D01*
D02*
G37*
G36*
X293339Y110339D02*
X285661D01*
Y102661D01*
X293339D01*
Y110339D01*
D02*
G37*
G36*
X185000Y107708D02*
X184155Y107540D01*
X183439Y107061D01*
X182960Y106345D01*
X182792Y105500D01*
X182960Y104655D01*
X183439Y103939D01*
X184155Y103460D01*
X185000Y103292D01*
X185845Y103460D01*
X186561Y103939D01*
X186582Y103971D01*
X186929Y104202D01*
X187367Y104289D01*
X187376Y104288D01*
Y104296D01*
X191001D01*
Y104292D01*
Y104282D01*
X191262Y104230D01*
X191480Y104084D01*
X191482Y104081D01*
X192133Y103646D01*
X192902Y103493D01*
X199201D01*
X199969Y103646D01*
X200620Y104081D01*
X201055Y104732D01*
X201208Y105500D01*
X201055Y106268D01*
X200620Y106919D01*
X199969Y107354D01*
X199201Y107507D01*
X192902D01*
X192133Y107354D01*
X191482Y106919D01*
X191480Y106916D01*
X191262Y106770D01*
X191001Y106718D01*
Y106704D01*
X187376D01*
Y106709D01*
Y106712D01*
X187367Y106711D01*
X186929Y106798D01*
X186582Y107029D01*
X186561Y107061D01*
X185845Y107540D01*
X185000Y107708D01*
D02*
G37*
G36*
X218098Y107507D02*
X211799D01*
X211031Y107354D01*
X210380Y106919D01*
X209945Y106268D01*
X209792Y105500D01*
X209945Y104732D01*
X210380Y104081D01*
X211031Y103646D01*
X211799Y103493D01*
X218098D01*
X218866Y103646D01*
X219518Y104081D01*
X219953Y104732D01*
X220106Y105500D01*
X219953Y106268D01*
X219518Y106919D01*
X218866Y107354D01*
X218098Y107507D01*
D02*
G37*
G36*
X227428Y102957D02*
X225000D01*
Y100528D01*
X225275Y100565D01*
X225997Y100864D01*
X226617Y101339D01*
X227093Y101960D01*
X227392Y102682D01*
X227428Y102957D01*
D02*
G37*
G36*
X199201Y112507D02*
X192902D01*
X192133Y112354D01*
X191482Y111919D01*
X191047Y111268D01*
X190894Y110500D01*
X191047Y109732D01*
X191482Y109081D01*
X192133Y108646D01*
X192902Y108493D01*
X199201D01*
X199969Y108646D01*
X200620Y109081D01*
X200622Y109084D01*
X200840Y109230D01*
X201102Y109282D01*
Y109292D01*
Y109296D01*
X202501D01*
X203796Y108001D01*
Y101648D01*
X203351Y101351D01*
X202961Y101613D01*
X202500Y101704D01*
X201102D01*
Y101718D01*
X200840Y101770D01*
X200622Y101916D01*
X200620Y101919D01*
X199969Y102354D01*
X199201Y102507D01*
X192902D01*
X192133Y102354D01*
X191761Y102106D01*
X179511D01*
X179467Y102124D01*
X178845Y102540D01*
X178000Y102708D01*
X177155Y102540D01*
X176439Y102061D01*
X175960Y101345D01*
X175792Y100500D01*
X175960Y99655D01*
X176439Y98939D01*
X177155Y98460D01*
X178000Y98292D01*
X178430Y98378D01*
X178666Y97937D01*
X176335Y95606D01*
X174395D01*
X174395Y95613D01*
X174395D01*
X174299Y96338D01*
Y96756D01*
X168787D01*
Y91244D01*
X174299D01*
Y91662D01*
X174395Y92387D01*
X174395D01*
X174395Y92394D01*
X177000D01*
X177000Y92394D01*
X177513Y92496D01*
X177614Y92517D01*
X178135Y92865D01*
X182135Y96865D01*
X182135Y96865D01*
X182483Y97386D01*
X182606Y98000D01*
Y98894D01*
X191761D01*
X192133Y98646D01*
X192902Y98493D01*
X199201D01*
X199969Y98646D01*
X200620Y99081D01*
Y99081D01*
X200909Y99244D01*
X201296Y98927D01*
Y96769D01*
X200817Y96624D01*
X200620Y96919D01*
X199969Y97354D01*
X199201Y97507D01*
X192902D01*
X192133Y97354D01*
X191482Y96919D01*
X191480Y96916D01*
X191262Y96770D01*
X191001Y96718D01*
Y96704D01*
X190376D01*
Y96709D01*
Y96712D01*
X190367Y96711D01*
X189929Y96798D01*
X189582Y97030D01*
X189561Y97061D01*
X188845Y97540D01*
X188000Y97708D01*
X187155Y97540D01*
X186439Y97061D01*
X185960Y96345D01*
X185792Y95500D01*
X185960Y94655D01*
X186439Y93939D01*
X187155Y93460D01*
X188000Y93292D01*
X188845Y93460D01*
X189561Y93939D01*
X189582Y93971D01*
X189929Y94203D01*
X190367Y94289D01*
X190376Y94288D01*
Y94296D01*
X191001D01*
Y94292D01*
Y94282D01*
X191262Y94230D01*
X191480Y94084D01*
X191482Y94081D01*
X192133Y93646D01*
X192902Y93493D01*
X199201D01*
X199969Y93646D01*
X200620Y94081D01*
X200817Y94376D01*
X201296Y94231D01*
Y92074D01*
X200909Y91756D01*
X200620Y91919D01*
Y91919D01*
X199969Y92354D01*
X199201Y92507D01*
X192902D01*
X192133Y92354D01*
X191482Y91919D01*
X191047Y91268D01*
X190894Y90500D01*
X191047Y89732D01*
X191482Y89081D01*
X192133Y88646D01*
X192902Y88493D01*
X199201D01*
X199969Y88646D01*
X200620Y89081D01*
X200622Y89084D01*
X200840Y89230D01*
X201102Y89282D01*
Y89292D01*
Y89296D01*
X202500D01*
X202961Y89387D01*
X203351Y89648D01*
X203796Y89352D01*
Y82876D01*
X203788D01*
X203789Y82867D01*
X203702Y82429D01*
X203470Y82082D01*
X203439Y82061D01*
X202960Y81345D01*
X202792Y80500D01*
X202960Y79655D01*
X203439Y78939D01*
X204155Y78460D01*
X205000Y78292D01*
X205845Y78460D01*
X206561Y78939D01*
X207040Y79655D01*
X207208Y80500D01*
X207040Y81345D01*
X206561Y82061D01*
X206529Y82082D01*
X206297Y82429D01*
X206211Y82867D01*
X206212Y82876D01*
X206204D01*
Y108500D01*
X206204Y108500D01*
X206113Y108961D01*
X205852Y109352D01*
X205852Y109352D01*
X203852Y111352D01*
X203461Y111613D01*
X203000Y111704D01*
X203000Y111704D01*
X201102D01*
Y111718D01*
X200840Y111770D01*
X200622Y111916D01*
X200620Y111919D01*
X199969Y112354D01*
X199201Y112507D01*
D02*
G37*
G36*
X279500Y110372D02*
X278498Y110240D01*
X277564Y109853D01*
X276762Y109238D01*
X276147Y108436D01*
X275760Y107502D01*
X275628Y106500D01*
X275760Y105498D01*
X276147Y104564D01*
X276762Y103762D01*
X277564Y103147D01*
X278498Y102760D01*
X279500Y102628D01*
X280502Y102760D01*
X281436Y103147D01*
X282238Y103762D01*
X282853Y104564D01*
X283240Y105498D01*
X283372Y106500D01*
X283240Y107502D01*
X282853Y108436D01*
X282238Y109238D01*
X281436Y109853D01*
X280502Y110240D01*
X279500Y110372D01*
D02*
G37*
G36*
X285551Y126657D02*
X282000D01*
Y123106D01*
X285551D01*
Y126657D01*
D02*
G37*
G36*
X281000Y131209D02*
X277449D01*
Y127657D01*
X281000D01*
Y131209D01*
D02*
G37*
G36*
X285551D02*
X282000D01*
Y127657D01*
X285551D01*
Y131209D01*
D02*
G37*
G36*
X224000Y106385D02*
X223725Y106349D01*
X223003Y106050D01*
X222383Y105574D01*
X221907Y104954D01*
X221608Y104232D01*
X221572Y103957D01*
X224000D01*
Y106385D01*
D02*
G37*
G36*
X225000D02*
Y103957D01*
X227428D01*
X227392Y104232D01*
X227093Y104954D01*
X226617Y105574D01*
X225997Y106050D01*
X225275Y106349D01*
X225000Y106385D01*
D02*
G37*
G36*
X281000Y126657D02*
X277449D01*
Y123106D01*
X281000D01*
Y126657D01*
D02*
G37*
G36*
X224000Y102957D02*
X221572D01*
X221608Y102682D01*
X221907Y101960D01*
X222383Y101339D01*
X223003Y100864D01*
X223725Y100565D01*
X224000Y100528D01*
Y102957D01*
D02*
G37*
G36*
X117921Y93500D02*
X114500D01*
Y90079D01*
X115032Y90149D01*
X115993Y90547D01*
X116819Y91181D01*
X117453Y92007D01*
X117851Y92968D01*
X117921Y93500D01*
D02*
G37*
G36*
X224000Y95000D02*
X222175D01*
X222260Y94572D01*
X222786Y93786D01*
X223572Y93260D01*
X224000Y93175D01*
Y95000D01*
D02*
G37*
G36*
X226825D02*
X225000D01*
Y93175D01*
X225428Y93260D01*
X226214Y93786D01*
X226740Y94572D01*
X226825Y95000D01*
D02*
G37*
G36*
X133500Y87708D02*
X132655Y87540D01*
X131939Y87061D01*
X131918Y87029D01*
X131571Y86797D01*
X131133Y86711D01*
X131124Y86712D01*
Y86709D01*
Y86704D01*
X90376D01*
Y86709D01*
Y86712D01*
X90367Y86711D01*
X89929Y86797D01*
X89582Y87029D01*
X89561Y87061D01*
X88845Y87540D01*
X88000Y87708D01*
X87155Y87540D01*
X86439Y87061D01*
X85960Y86345D01*
X85792Y85500D01*
X85960Y84655D01*
X86439Y83939D01*
X87155Y83460D01*
X88000Y83292D01*
X88845Y83460D01*
X89561Y83939D01*
X89582Y83970D01*
X89929Y84202D01*
X90367Y84289D01*
X90376Y84288D01*
Y84296D01*
X131124D01*
Y84291D01*
Y84288D01*
X131133Y84289D01*
X131571Y84202D01*
X131918Y83970D01*
X131939Y83939D01*
X132655Y83460D01*
X133500Y83292D01*
X134345Y83460D01*
X135061Y83939D01*
X135540Y84655D01*
X135708Y85500D01*
X135540Y86345D01*
X135061Y87061D01*
X134345Y87540D01*
X133500Y87708D01*
D02*
G37*
G36*
X218098Y92507D02*
X211799D01*
X211031Y92354D01*
X210380Y91919D01*
X209945Y91268D01*
X209792Y90500D01*
X209945Y89732D01*
X210380Y89081D01*
X211031Y88646D01*
X211799Y88493D01*
X218098D01*
X218866Y88646D01*
X219518Y89081D01*
X219953Y89732D01*
X220106Y90500D01*
X219953Y91268D01*
X219518Y91919D01*
X218866Y92354D01*
X218098Y92507D01*
D02*
G37*
G36*
X113500Y93500D02*
X110079D01*
X110149Y92968D01*
X110547Y92007D01*
X111181Y91181D01*
X112007Y90547D01*
X112968Y90149D01*
X113500Y90079D01*
Y93500D01*
D02*
G37*
G36*
X224000Y97825D02*
X223572Y97740D01*
X222786Y97214D01*
X222260Y96428D01*
X222175Y96000D01*
X224000D01*
Y97825D01*
D02*
G37*
G36*
X225000D02*
Y96000D01*
X226825D01*
X226740Y96428D01*
X226214Y97214D01*
X225428Y97740D01*
X225000Y97825D01*
D02*
G37*
G36*
X218098Y102507D02*
X211799D01*
X211031Y102354D01*
X210380Y101919D01*
X209945Y101268D01*
X209792Y100500D01*
X209945Y99732D01*
X210380Y99081D01*
X211031Y98646D01*
X211799Y98493D01*
X218098D01*
X218866Y98646D01*
X219518Y99081D01*
X219953Y99732D01*
X220106Y100500D01*
X219953Y101268D01*
X219518Y101919D01*
X218866Y102354D01*
X218098Y102507D01*
D02*
G37*
G36*
Y97507D02*
X211799D01*
X211031Y97354D01*
X210380Y96919D01*
X209945Y96268D01*
X209792Y95500D01*
X209945Y94732D01*
X210380Y94081D01*
X211031Y93646D01*
X211799Y93493D01*
X218098D01*
X218866Y93646D01*
X219518Y94081D01*
X219953Y94732D01*
X220106Y95500D01*
X219953Y96268D01*
X219518Y96919D01*
X218866Y97354D01*
X218098Y97507D01*
D02*
G37*
G36*
X113500Y97921D02*
X112968Y97851D01*
X112007Y97453D01*
X111181Y96819D01*
X110547Y95993D01*
X110149Y95032D01*
X110079Y94500D01*
X113500D01*
Y97921D01*
D02*
G37*
G36*
X114500D02*
Y94500D01*
X117921D01*
X117851Y95032D01*
X117453Y95993D01*
X116819Y96819D01*
X115993Y97453D01*
X115032Y97851D01*
X114500Y97921D01*
D02*
G37*
G36*
X255500Y130752D02*
X252441D01*
Y127693D01*
X255500D01*
Y130752D01*
D02*
G37*
G36*
X122256Y143173D02*
X119000D01*
Y138736D01*
X122256D01*
Y143173D01*
D02*
G37*
G36*
X281500Y150714D02*
X280498Y150582D01*
X279564Y150196D01*
X278762Y149580D01*
X278147Y148778D01*
X277760Y147845D01*
X277628Y146843D01*
X277760Y145841D01*
X278147Y144907D01*
X278762Y144105D01*
X279564Y143490D01*
X280498Y143103D01*
X281500Y142971D01*
X282502Y143103D01*
X283436Y143490D01*
X284238Y144105D01*
X284853Y144907D01*
X285240Y145841D01*
X285372Y146843D01*
X285240Y147845D01*
X284853Y148778D01*
X284238Y149580D01*
X283436Y150196D01*
X282502Y150582D01*
X281500Y150714D01*
D02*
G37*
G36*
X118000Y143173D02*
X114744D01*
Y138736D01*
X118000D01*
Y143173D01*
D02*
G37*
G36*
X74000D02*
X70744D01*
Y138736D01*
X74000D01*
Y143173D01*
D02*
G37*
G36*
X78256D02*
X75000D01*
Y138736D01*
X78256D01*
Y143173D01*
D02*
G37*
G36*
X256000Y150375D02*
X255126Y150260D01*
X254312Y149923D01*
X253613Y149387D01*
X253077Y148688D01*
X252740Y147874D01*
X252625Y147000D01*
X252740Y146126D01*
X253077Y145312D01*
X253613Y144613D01*
X254312Y144077D01*
X255126Y143740D01*
X256000Y143625D01*
X256874Y143740D01*
X257688Y144077D01*
X258387Y144613D01*
X258923Y145312D01*
X259260Y146126D01*
X259375Y147000D01*
X259260Y147874D01*
X258923Y148688D01*
X258387Y149387D01*
X257688Y149923D01*
X256874Y150260D01*
X256000Y150375D01*
D02*
G37*
G36*
X40000Y165269D02*
X38895Y165123D01*
X37866Y164697D01*
X36981Y164018D01*
X36303Y163134D01*
X35877Y162105D01*
X35731Y161000D01*
X35877Y159895D01*
X36303Y158866D01*
X36981Y157982D01*
X37866Y157303D01*
X38895Y156877D01*
X40000Y156731D01*
X41105Y156877D01*
X42134Y157303D01*
X43018Y157982D01*
X43697Y158866D01*
X44123Y159895D01*
X44269Y161000D01*
X44123Y162105D01*
X43697Y163134D01*
X43018Y164018D01*
X42134Y164697D01*
X41105Y165123D01*
X40000Y165269D01*
D02*
G37*
G36*
X83500D02*
X82395Y165123D01*
X81366Y164697D01*
X80481Y164018D01*
X79803Y163134D01*
X79377Y162105D01*
X79231Y161000D01*
X79377Y159895D01*
X79803Y158866D01*
X80481Y157982D01*
X81366Y157303D01*
X82395Y156877D01*
X83500Y156731D01*
X84605Y156877D01*
X85634Y157303D01*
X86519Y157982D01*
X87197Y158866D01*
X87623Y159895D01*
X87769Y161000D01*
X87623Y162105D01*
X87197Y163134D01*
X86519Y164018D01*
X85634Y164697D01*
X84605Y165123D01*
X83500Y165269D01*
D02*
G37*
G36*
X194500Y154029D02*
X193498Y153897D01*
X192564Y153510D01*
X191762Y152895D01*
X191147Y152093D01*
X190760Y151160D01*
X190628Y150157D01*
X190760Y149155D01*
X191147Y148222D01*
X191762Y147420D01*
X192564Y146804D01*
X193498Y146418D01*
X194500Y146286D01*
X195502Y146418D01*
X196436Y146804D01*
X197238Y147420D01*
X197853Y148222D01*
X198240Y149155D01*
X198372Y150157D01*
X198240Y151160D01*
X197853Y152093D01*
X197238Y152895D01*
X196436Y153510D01*
X195502Y153897D01*
X194500Y154029D01*
D02*
G37*
G36*
X218500Y153872D02*
X217498Y153740D01*
X216564Y153353D01*
X215762Y152738D01*
X215147Y151936D01*
X214760Y151002D01*
X214628Y150000D01*
X214760Y148998D01*
X215147Y148064D01*
X215762Y147262D01*
X216564Y146647D01*
X217498Y146260D01*
X218500Y146128D01*
X219502Y146260D01*
X220436Y146647D01*
X221238Y147262D01*
X221853Y148064D01*
X222240Y148998D01*
X222372Y150000D01*
X222240Y151002D01*
X221853Y151936D01*
X221238Y152738D01*
X220436Y153353D01*
X219502Y153740D01*
X218500Y153872D01*
D02*
G37*
G36*
X170500Y154029D02*
X169498Y153897D01*
X168564Y153510D01*
X167762Y152895D01*
X167147Y152093D01*
X166760Y151160D01*
X166628Y150157D01*
X166760Y149155D01*
X167147Y148222D01*
X167762Y147420D01*
X168564Y146804D01*
X169498Y146418D01*
X170500Y146286D01*
X171502Y146418D01*
X172436Y146804D01*
X173238Y147420D01*
X173853Y148222D01*
X174240Y149155D01*
X174372Y150157D01*
X174240Y151160D01*
X173853Y152093D01*
X173238Y152895D01*
X172436Y153510D01*
X171502Y153897D01*
X170500Y154029D01*
D02*
G37*
G36*
X34256Y143173D02*
X31000D01*
Y138736D01*
X34256D01*
Y143173D01*
D02*
G37*
G36*
Y137736D02*
X31000D01*
Y133299D01*
X34256D01*
Y137736D01*
D02*
G37*
G36*
X259559Y130752D02*
X256500D01*
Y127693D01*
X259559D01*
Y130752D01*
D02*
G37*
G36*
X30000Y137736D02*
X26744D01*
Y133299D01*
X30000D01*
Y137736D01*
D02*
G37*
G36*
X255500Y134811D02*
X252441D01*
Y131752D01*
X255500D01*
Y134811D01*
D02*
G37*
G36*
X259559D02*
X256500D01*
Y131752D01*
X259559D01*
Y134811D01*
D02*
G37*
G36*
X74000Y137736D02*
X70744D01*
Y133299D01*
X74000D01*
Y137736D01*
D02*
G37*
G36*
X122256D02*
X119000D01*
Y133299D01*
X122256D01*
Y137736D01*
D02*
G37*
G36*
X256000Y142501D02*
X255126Y142386D01*
X254312Y142049D01*
X254125Y141906D01*
X239626D01*
X238907Y141811D01*
X238236Y141533D01*
X237661Y141092D01*
X236506Y139937D01*
X185658D01*
X184938Y139842D01*
X184268Y139565D01*
X183692Y139123D01*
X161250Y116681D01*
X148661D01*
Y117839D01*
X131339D01*
Y115977D01*
X130937Y115811D01*
X130155Y115708D01*
X123694D01*
X123345Y115941D01*
X122500Y116109D01*
X121655Y115941D01*
X120939Y115463D01*
X120460Y114746D01*
X120292Y113902D01*
X120460Y113057D01*
X120939Y112340D01*
X121655Y111862D01*
X122500Y111694D01*
X123345Y111862D01*
X123694Y112095D01*
X130155D01*
X130937Y111992D01*
X131339Y111826D01*
Y109965D01*
X148661D01*
Y111122D01*
X162402D01*
X163121Y111217D01*
X163791Y111494D01*
X164367Y111936D01*
X186809Y134378D01*
X237657D01*
X238377Y134473D01*
X239047Y134750D01*
X239623Y135192D01*
X240777Y136346D01*
X254125D01*
X254312Y136203D01*
X255126Y135866D01*
X256000Y135751D01*
X256874Y135866D01*
X257688Y136203D01*
X258387Y136739D01*
X258923Y137438D01*
X259260Y138252D01*
X259375Y139126D01*
X259260Y140000D01*
X258923Y140814D01*
X258387Y141513D01*
X257688Y142049D01*
X256874Y142386D01*
X256000Y142501D01*
D02*
G37*
G36*
X30000Y143173D02*
X26744D01*
Y138736D01*
X30000D01*
Y143173D01*
D02*
G37*
G36*
X78256Y137736D02*
X75000D01*
Y133299D01*
X78256D01*
Y137736D01*
D02*
G37*
G36*
X118000D02*
X114744D01*
Y133299D01*
X118000D01*
Y137736D01*
D02*
G37*
%LPD*%
G36*
X161066Y212831D02*
X161046Y212634D01*
X161012Y211892D01*
X160968Y206894D01*
X157032D01*
X156911Y212913D01*
X161089D01*
X161066Y212831D01*
D02*
G37*
G36*
X195706Y172052D02*
X195854Y171997D01*
X196056Y171948D01*
X196314Y171905D01*
X196994Y171840D01*
X198426Y171791D01*
X199013Y171787D01*
Y170213D01*
X198426Y170209D01*
X196056Y170052D01*
X195854Y170003D01*
X195706Y169948D01*
X195614Y169886D01*
X195552Y169794D01*
X195497Y169646D01*
X195448Y169444D01*
X195405Y169186D01*
X195340Y168506D01*
X195291Y167074D01*
X195287Y166487D01*
X193713D01*
X193709Y167074D01*
X193552Y169444D01*
X193503Y169646D01*
X193448Y169794D01*
X193386Y169887D01*
X195613D01*
Y172114D01*
X195706Y172052D01*
D02*
G37*
G36*
X171552Y169794D02*
X171497Y169646D01*
X171487Y169609D01*
X171893D01*
X171778Y169456D01*
X171675Y169241D01*
X171584Y168963D01*
X171505Y168622D01*
X171439Y168218D01*
X171342Y167223D01*
X171293Y165976D01*
X171287Y165259D01*
X169713D01*
X169706Y165976D01*
X169561Y168218D01*
X169495Y168622D01*
X169416Y168963D01*
X169325Y169241D01*
X169222Y169456D01*
X169107Y169609D01*
X169512D01*
X169503Y169646D01*
X169448Y169794D01*
X169386Y169887D01*
X171614D01*
X171552Y169794D01*
D02*
G37*
D10*
X52539Y204044D02*
G03*
X56535Y213693I-9649J9649D01*
G01*
Y192307D02*
G03*
X52539Y201956I-13646J0D01*
G01*
X208399Y5399D02*
G03*
X211870Y13780I-8381J8381D01*
G01*
X46693Y179131D02*
G03*
X47737Y176611I3564J0D01*
G01*
X45649D02*
G03*
X46693Y179131I-2520J2520D01*
G01*
X60079D02*
G03*
X61123Y176611I3564J0D01*
G01*
X59035D02*
G03*
X60079Y179131I-2520J2520D01*
G01*
X90193D02*
G03*
X91237Y176611I3564J0D01*
G01*
X89149D02*
G03*
X90193Y179131I-2520J2520D01*
G01*
X103579D02*
G03*
X104623Y176611I3564J0D01*
G01*
X102535D02*
G03*
X103579Y179131I-2520J2520D01*
G01*
X133193D02*
G03*
X134237Y176611I3564J0D01*
G01*
X132149D02*
G03*
X133193Y179131I-2520J2520D01*
G01*
X146579D02*
G03*
X147623Y176611I3564J0D01*
G01*
X145535D02*
G03*
X146579Y179131I-2520J2520D01*
G01*
X96039Y204076D02*
G03*
X100035Y213724I-9649J9649D01*
G01*
Y192339D02*
G03*
X96039Y201988I-13646J0D01*
G01*
X139039Y204076D02*
G03*
X143035Y213724I-9649J9649D01*
G01*
Y192339D02*
G03*
X139039Y201988I-13646J0D01*
G01*
X143035Y188965D02*
Y214965D01*
X100035Y188965D02*
Y214965D01*
X56535Y188965D02*
Y214965D01*
X120000Y186000D02*
X133193D01*
X90193Y175567D02*
Y186000D01*
X46693Y175567D02*
Y186000D01*
X162402Y113902D02*
X185658Y137157D01*
X157000Y113902D02*
X162402D01*
X140000D02*
X157000D01*
X159000Y124500D02*
Y171000D01*
Y215000D01*
Y171000D02*
X170500D01*
X246000Y119000D02*
X265500D01*
X99500Y104000D02*
X162000D01*
X273000Y137000D02*
X281500D01*
X168000Y43000D02*
Y53000D01*
X158000D02*
X168000D01*
X148000D02*
X158000D01*
X143035Y188965D02*
X146579Y185421D01*
X265500Y119000D02*
X268000Y121500D01*
X96000Y107500D02*
X99500Y104000D01*
X96000Y107500D02*
Y113402D01*
X268000Y121500D02*
Y132000D01*
X273000Y137000D01*
X76807Y186000D02*
X90193D01*
X33307D02*
X46693D01*
X103579Y175567D02*
Y185421D01*
X100035Y188965D02*
X103579Y185421D01*
X60079Y175567D02*
Y185421D01*
X56535Y188965D02*
X60079Y185421D01*
X133193Y175567D02*
Y186000D01*
X143000Y215000D02*
X143035Y214965D01*
X100000Y215000D02*
X100035Y214965D01*
X56500Y215000D02*
X56535Y214965D01*
X146579Y175567D02*
Y185421D01*
X234500Y130500D02*
X246000Y119000D01*
X162000Y104000D02*
X188500Y130500D01*
X234500D01*
X188000Y53000D02*
X205000D01*
X168000D02*
Y63500D01*
X198000D01*
X205000Y56500D01*
Y53000D02*
Y56500D01*
X168000Y63500D02*
Y73000D01*
X52000Y100500D02*
Y113902D01*
X37500Y86000D02*
X52000Y100500D01*
X28500Y86000D02*
X37500D01*
X18000Y75500D02*
X28500Y86000D01*
X212953Y13780D02*
X222953D01*
X212953Y9953D02*
Y13780D01*
X207500Y4500D02*
X212953Y9953D01*
X30500Y4500D02*
X207500D01*
X26500Y8500D02*
X30500Y4500D01*
X26500Y8500D02*
Y29000D01*
X18000Y37500D02*
X26500Y29000D01*
X18000Y37500D02*
Y66551D01*
Y75500D01*
X185658Y137157D02*
X237657D01*
X239626Y139126D02*
X256000D01*
X237657Y137157D02*
X239626Y139126D01*
D11*
X39803Y198485D02*
G03*
X38481Y201678I-4515J0D01*
G01*
X41126D02*
G03*
X39803Y198485I3192J-3192D01*
G01*
X33307Y180082D02*
G03*
X34629Y176889I4515J0D01*
G01*
X31985D02*
G03*
X33307Y180082I-3192J3192D01*
G01*
Y171052D02*
G03*
X31985Y174245I-4515J0D01*
G01*
X34629D02*
G03*
X33307Y171052I3192J-3192D01*
G01*
X76807Y180082D02*
G03*
X78129Y176889I4515J0D01*
G01*
X75485D02*
G03*
X76807Y180082I-3192J3192D01*
G01*
Y171052D02*
G03*
X75485Y174245I-4515J0D01*
G01*
X78129D02*
G03*
X76807Y171052I3192J-3192D01*
G01*
X96886Y156485D02*
G03*
X95564Y159678I-4515J0D01*
G01*
X98208D02*
G03*
X96886Y156485I3192J-3192D01*
G01*
X119807Y180082D02*
G03*
X121129Y176889I4515J0D01*
G01*
X118485D02*
G03*
X119807Y180082I-3192J3192D01*
G01*
Y171052D02*
G03*
X118485Y174245I-4515J0D01*
G01*
X121129D02*
G03*
X119807Y171052I3192J-3192D01*
G01*
X139886Y156485D02*
G03*
X138564Y159678I-4515J0D01*
G01*
X141208D02*
G03*
X139886Y156485I3192J-3192D01*
G01*
X83303Y198517D02*
G03*
X81981Y201709I-4515J0D01*
G01*
X84626D02*
G03*
X83303Y198517I3192J-3192D01*
G01*
X126303D02*
G03*
X124981Y201709I-4515J0D01*
G01*
X127626D02*
G03*
X126303Y198517I3192J-3192D01*
G01*
X139886Y143176D02*
G03*
X141114Y140212I4192J0D01*
G01*
X138886D02*
G03*
X139886Y142625I-2413J2413D01*
G01*
X94886Y140212D02*
G03*
X96886Y145039I-4827J4827D01*
G01*
X30500Y142269D02*
G03*
X31335Y140252I2851J0D01*
G01*
X29665D02*
G03*
X30500Y142269I-2016J2016D01*
G01*
X74500D02*
G03*
X75335Y140252I2851J0D01*
G01*
X73665D02*
G03*
X74500Y142269I-2016J2016D01*
G01*
X118500D02*
G03*
X119335Y140252I2851J0D01*
G01*
X117665D02*
G03*
X118500Y142269I-2016J2016D01*
G01*
X139886Y138713D02*
Y161000D01*
X96000Y138598D02*
X96886Y139484D01*
X120000Y186000D02*
X126303Y192303D01*
X119807Y185807D02*
X120000Y186000D01*
X119807Y175567D02*
Y185807D01*
X126303Y192303D02*
Y203031D01*
X76807Y186000D02*
Y187307D01*
Y175567D02*
Y186000D01*
Y187307D02*
X83303Y193803D01*
Y203031D01*
X33307Y186000D02*
Y186307D01*
Y175567D02*
Y186000D01*
X39803Y192803D02*
Y203000D01*
X33307Y186307D02*
X39803Y192803D01*
X30500Y138236D02*
Y163500D01*
X74500Y138236D02*
Y164500D01*
X118500Y138236D02*
Y165000D01*
X76807Y166807D02*
Y175567D01*
X33307Y166307D02*
Y175567D01*
X170500Y171000D02*
X194500D01*
X119807Y166307D02*
Y175567D01*
X118500Y165000D02*
X119807Y166307D01*
X74500Y164500D02*
X76807Y166807D01*
X30500Y163500D02*
X33307Y166307D01*
X139886Y138713D02*
X140000Y138598D01*
X96886Y139484D02*
Y161000D01*
D12*
X103463Y38463D02*
G03*
X105342Y43000I-4537J4537D01*
G01*
X104808Y39808D02*
G03*
X106130Y43000I-3192J3192D01*
G01*
X108000Y40343D02*
G03*
X103463Y38463I0J-6416D01*
G01*
X108000Y41130D02*
G03*
X104808Y39808I0J-4515D01*
G01*
X118000Y36584D02*
G03*
X116121Y41121I-6416J0D01*
G01*
X118000Y38485D02*
G03*
X116678Y41678I-4515J0D01*
G01*
X119879Y41121D02*
G03*
X118000Y36584I4537J-4537D01*
G01*
X119322Y41678D02*
G03*
X118000Y38485I3192J-3192D01*
G01*
X42953Y30195D02*
G03*
X44832Y25659I6416J0D01*
G01*
X42953Y28294D02*
G03*
X44275Y25102I4515J0D01*
G01*
X41074Y25659D02*
G03*
X42953Y30195I-4537J4537D01*
G01*
X41631Y25102D02*
G03*
X42953Y28294I-3192J3192D01*
G01*
X52953Y30195D02*
G03*
X54832Y25659I6416J0D01*
G01*
X52953Y28294D02*
G03*
X54275Y25102I4515J0D01*
G01*
X51074Y25659D02*
G03*
X52953Y30195I-4537J4537D01*
G01*
X51631Y25102D02*
G03*
X52953Y28294I-3192J3192D01*
G01*
X68417Y19243D02*
G03*
X70296Y23779I-4537J4537D01*
G01*
X69761Y20587D02*
G03*
X71083Y23779I-3192J3192D01*
G01*
X72953Y21122D02*
G03*
X68417Y19243I0J-6416D01*
G01*
X72953Y21910D02*
G03*
X69761Y20587I0J-4515D01*
G01*
X77490Y18316D02*
G03*
X75611Y13780I4537J-4537D01*
G01*
X76145Y16972D02*
G03*
X74823Y13780I3192J-3192D01*
G01*
X72953Y16437D02*
G03*
X77490Y18316I0J6416D01*
G01*
X72953Y15650D02*
G03*
X76145Y16972I0J4515D01*
G01*
X98417Y19243D02*
G03*
X100296Y23779I-4537J4537D01*
G01*
X99761Y20587D02*
G03*
X101083Y23779I-3192J3192D01*
G01*
X102953Y21122D02*
G03*
X98417Y19243I0J-6416D01*
G01*
X102953Y21910D02*
G03*
X99761Y20587I0J-4515D01*
G01*
X117490Y28316D02*
G03*
X115611Y23779I4537J-4537D01*
G01*
X116146Y26972D02*
G03*
X114823Y23779I3192J-3192D01*
G01*
X112953Y26437D02*
G03*
X117490Y28316I0J6416D01*
G01*
X112953Y25650D02*
G03*
X116146Y26972I0J4515D01*
G01*
X117490Y9243D02*
G03*
X112953Y11122I-4537J-4537D01*
G01*
X116146Y10587D02*
G03*
X112953Y11909I-3192J-3192D01*
G01*
X115611Y13780D02*
G03*
X117490Y9243I6416J0D01*
G01*
X114823Y13780D02*
G03*
X116146Y10587I4515J0D01*
G01*
X127490Y19243D02*
G03*
X122953Y21122I-4537J-4537D01*
G01*
X126146Y20587D02*
G03*
X122953Y21910I-3192J-3192D01*
G01*
X125611Y23779D02*
G03*
X127490Y19243I6416J0D01*
G01*
X124823Y23779D02*
G03*
X126146Y20587I4515J0D01*
G01*
X118417Y18316D02*
G03*
X122953Y16437I4537J4537D01*
G01*
X119761Y16972D02*
G03*
X122953Y15650I3192J3192D01*
G01*
X120296Y13780D02*
G03*
X118417Y18316I-6416J0D01*
G01*
X121083Y13780D02*
G03*
X119761Y16972I-4515J0D01*
G01*
X162953Y8000D02*
G03*
X161223Y11762I-4955J0D01*
G01*
X162953Y9713D02*
G03*
X161736Y12360I-3487J0D01*
G01*
X164683Y11762D02*
G03*
X162953Y8000I3226J-3762D01*
G01*
X164170Y12360D02*
G03*
X162953Y9713I2270J-2647D01*
G01*
X178417Y19243D02*
G03*
X180296Y23779I-4537J4537D01*
G01*
X179761Y20587D02*
G03*
X181083Y23779I-3192J3192D01*
G01*
X182953Y21122D02*
G03*
X178417Y19243I0J-6416D01*
G01*
X182953Y21910D02*
G03*
X179761Y20587I0J-4515D01*
G01*
X202953Y8000D02*
G03*
X201223Y11762I-4955J0D01*
G01*
X202953Y9713D02*
G03*
X201736Y12360I-3487J0D01*
G01*
X204683Y11762D02*
G03*
X202953Y8000I3226J-3762D01*
G01*
X204170Y12360D02*
G03*
X202953Y9713I2270J-2647D01*
G01*
X274704Y19500D02*
G03*
X279621Y21537I0J6953D01*
G01*
X276605Y19500D02*
G03*
X280178Y20980I0J5052D01*
G01*
X279621Y17778D02*
G03*
X275465Y19500I-4156J-4156D01*
G01*
X280178Y18335D02*
G03*
X277365Y19500I-2812J-2812D01*
G01*
X286537Y85806D02*
G03*
X282000Y87685I-4537J-4537D01*
G01*
X285192Y87150D02*
G03*
X282000Y88472I-3192J-3192D01*
G01*
X284658Y90342D02*
G03*
X286537Y85806I6416J0D01*
G01*
X283870Y90342D02*
G03*
X285192Y87150I4515J0D01*
G01*
X286537Y75963D02*
G03*
X282000Y77842I-4537J-4537D01*
G01*
X285192Y77308D02*
G03*
X282000Y78630I-3192J-3192D01*
G01*
X284658Y80500D02*
G03*
X286537Y75963I6416J0D01*
G01*
X283870Y80500D02*
G03*
X285192Y77308I4515J0D01*
G01*
X237322Y104000D02*
G03*
X241690Y105809I0J6178D01*
G01*
X239223Y104000D02*
G03*
X242247Y105253I0J4277D01*
G01*
X241690Y102190D02*
G03*
X237322Y104000I-4369J-4369D01*
G01*
X242247Y102747D02*
G03*
X239223Y104000I-3024J-3024D01*
G01*
X272345Y19500D02*
G03*
X269657Y18386I0J-3802D01*
G01*
Y20614D02*
G03*
X272345Y19500I2688J2688D01*
G01*
X261457Y23302D02*
G03*
X262570Y20614I3802J0D01*
G01*
X260343D02*
G03*
X261457Y23302I-2688J2688D01*
G01*
X135369Y98369D02*
G03*
X133559Y94000I4369J-4369D01*
G01*
X134024Y97024D02*
G03*
X132772Y94000I3024J-3024D01*
G01*
X131000Y96559D02*
G03*
X135369Y98369I0J6178D01*
G01*
X131000Y95772D02*
G03*
X134024Y97024I0J4277D01*
G01*
X201102Y110500D02*
G03*
X199758Y109943I0J-1901D01*
G01*
Y111057D02*
G03*
X201102Y110500I1344J1344D01*
G01*
X191001Y105500D02*
G03*
X192345Y106057I0J1901D01*
G01*
Y104943D02*
G03*
X191001Y105500I-1344J-1344D01*
G01*
X201102Y100500D02*
G03*
X199758Y99943I0J-1901D01*
G01*
Y101057D02*
G03*
X201102Y100500I1344J1344D01*
G01*
X191001Y95500D02*
G03*
X192345Y96057I0J1901D01*
G01*
Y94943D02*
G03*
X191001Y95500I-1344J-1344D01*
G01*
X201102Y90500D02*
G03*
X199758Y89943I0J-1901D01*
G01*
Y91057D02*
G03*
X201102Y90500I1344J1344D01*
G01*
X191143Y85559D02*
G03*
X192345Y86057I0J1699D01*
G01*
Y84943D02*
G03*
X190858Y85559I-1487J-1487D01*
G01*
X219999Y110500D02*
G03*
X218655Y109943I0J-1901D01*
G01*
Y111057D02*
G03*
X219999Y110500I1344J1344D01*
G01*
X224500Y99655D02*
G03*
X223387Y102343I-3802J0D01*
G01*
X225613D02*
G03*
X224500Y99655I2688J-2688D01*
G01*
X220594Y110500D02*
G03*
X223387Y111657I0J3950D01*
G01*
X222495Y110500D02*
G03*
X223943Y111100I0J2049D01*
G01*
X223387Y109430D02*
G03*
X220803Y110500I-2584J-2584D01*
G01*
X228302Y110543D02*
G03*
X225613Y109430I0J-3802D01*
G01*
Y111657D02*
G03*
X228302Y110543I2688J2688D01*
G01*
X218957Y47692D02*
G03*
X216912Y52629I-6981J0D01*
G01*
X218957Y49593D02*
G03*
X217469Y53185I-5080J0D01*
G01*
X221088Y52629D02*
G03*
X218957Y47483I5145J-5145D01*
G01*
X220531Y53185D02*
G03*
X218957Y49384I3801J-3801D01*
G01*
X219974Y53742D02*
G03*
X218957Y51285I2457J-2457D01*
G01*
X226216Y54716D02*
G03*
X222756Y52967I0J-4296D01*
G01*
X224659Y54716D02*
G03*
X222122Y53433I0J-3150D01*
G01*
X222756Y56466D02*
G03*
X226216Y54716I3460J2546D01*
G01*
X222122Y56000D02*
G03*
X224659Y54716I2537J1867D01*
G01*
X225716Y69283D02*
G03*
X222879Y67714I0J-3349D01*
G01*
X224293Y69283D02*
G03*
X222212Y68133I0J-2456D01*
G01*
X222879Y70853D02*
G03*
X225716Y69283I2837J1780D01*
G01*
X222212Y70434D02*
G03*
X224293Y69283I2080J1305D01*
G01*
X268845Y46500D02*
G03*
X266157Y45386I0J-3802D01*
G01*
Y47613D02*
G03*
X268845Y46500I2688J2688D01*
G01*
X229845Y43500D02*
G03*
X227157Y42386I0J-3802D01*
G01*
Y44614D02*
G03*
X229845Y43500I2688J2688D01*
G01*
X218957Y47302D02*
G03*
X220070Y44614I3802J0D01*
G01*
X217843D02*
G03*
X218957Y47302I-2688J2688D01*
G01*
X230000Y69000D02*
G03*
X229121Y70650I-1988J0D01*
G01*
X230879D02*
G03*
X230000Y69000I1109J-1650D01*
G01*
X255000Y53500D02*
G03*
X256650Y54379I0J1988D01*
G01*
Y52621D02*
G03*
X255000Y53500I-1650J-1109D01*
G01*
X268845D02*
G03*
X266157Y52386I0J-3802D01*
G01*
Y54614D02*
G03*
X268845Y53500I2688J2688D01*
G01*
X153178Y94000D02*
G03*
X148810Y92190I0J-6178D01*
G01*
X151277Y94000D02*
G03*
X148253Y92747I0J-4277D01*
G01*
X148810Y95810D02*
G03*
X153178Y94000I4369J4369D01*
G01*
X148253Y95253D02*
G03*
X151277Y94000I3024J3024D01*
G01*
X233827Y59236D02*
G03*
X237615Y61453I0J4345D01*
G01*
X235173Y59236D02*
G03*
X238302Y61068I0J3589D01*
G01*
X236518Y59236D02*
G03*
X238988Y60682I0J2834D01*
G01*
X237615Y57019D02*
G03*
X233827Y59236I-3788J-2128D01*
G01*
X238302Y57405D02*
G03*
X235173Y59236I-3130J-1758D01*
G01*
X238988Y57790D02*
G03*
X236518Y59236I-2471J-1388D01*
G01*
X76876Y37000D02*
G03*
X75196Y36304I0J-2376D01*
G01*
Y37696D02*
G03*
X76876Y37000I1680J1680D01*
G01*
X202624Y71941D02*
G03*
X204304Y72637I0J2376D01*
G01*
Y71245D02*
G03*
X202624Y71941I-1680J-1680D01*
G01*
X277376Y42957D02*
G03*
X275696Y42261I0J-2376D01*
G01*
Y43653D02*
G03*
X277376Y42957I1680J1680D01*
G01*
Y46500D02*
G03*
X275696Y45804I0J-2376D01*
G01*
Y47196D02*
G03*
X277376Y46500I1680J1680D01*
G01*
X154624Y99000D02*
G03*
X156304Y99696I0J2376D01*
G01*
Y98304D02*
G03*
X154624Y99000I-1680J-1680D01*
G01*
X224500Y97876D02*
G03*
X225196Y96196I2376J0D01*
G01*
X223804D02*
G03*
X224500Y97876I-1680J1680D01*
G01*
X190376Y95500D02*
G03*
X188696Y94804I0J-2376D01*
G01*
Y96196D02*
G03*
X190376Y95500I1680J1680D01*
G01*
X187376Y105500D02*
G03*
X185696Y104804I0J-2376D01*
G01*
Y106196D02*
G03*
X187376Y105500I1680J1680D01*
G01*
X183519Y85559D02*
G03*
X181696Y84804I0J-2578D01*
G01*
Y86196D02*
G03*
X183234Y85559I1538J1538D01*
G01*
X230124Y43500D02*
G03*
X231804Y44196I0J2376D01*
G01*
Y42804D02*
G03*
X230124Y43500I-1680J-1680D01*
G01*
X257124Y66000D02*
G03*
X258804Y66696I0J2376D01*
G01*
Y65304D02*
G03*
X257124Y66000I-1680J-1680D01*
G01*
X253919Y61205D02*
G03*
X255599Y61901I0J2376D01*
G01*
Y60509D02*
G03*
X253919Y61205I-1680J-1680D01*
G01*
X59876Y32500D02*
G03*
X58196Y31804I0J-2376D01*
G01*
Y33196D02*
G03*
X59876Y32500I1680J1680D01*
G01*
X100624D02*
G03*
X102304Y33196I0J2376D01*
G01*
Y31804D02*
G03*
X100624Y32500I-1680J-1680D01*
G01*
X36000Y49624D02*
G03*
X35304Y51304I-2376J0D01*
G01*
X36696D02*
G03*
X36000Y49624I1680J-1680D01*
G01*
X24876Y42500D02*
G03*
X23196Y41804I0J-2376D01*
G01*
Y43196D02*
G03*
X24876Y42500I1680J1680D01*
G01*
X52953Y60171D02*
G03*
X52257Y61851I-2376J0D01*
G01*
X53649D02*
G03*
X52953Y60171I1680J-1680D01*
G01*
X239339Y60616D02*
G03*
X236995Y59729I-219J-2963D01*
G01*
X239398Y61402D02*
G03*
X238177Y60940I-114J-1542D01*
G01*
X237967Y59636D02*
G03*
X238612Y61357I-1629J1591D01*
G01*
X239407Y60614D02*
G03*
X238574Y60258I14J-1184D01*
G01*
X236995Y58743D02*
G03*
X239339Y57856I2125J2076D01*
G01*
X238177Y57533D02*
G03*
X239398Y57071I1106J1081D01*
G01*
X238574Y58215D02*
G03*
X239407Y57858I847J828D01*
G01*
X238612Y57116D02*
G03*
X237967Y58836I-2273J129D01*
G01*
X205000Y82876D02*
G03*
X205696Y81196I2376J0D01*
G01*
X204304D02*
G03*
X205000Y82876I-1680J1680D01*
G01*
X199124Y74500D02*
G03*
X200804Y75196I0J2376D01*
G01*
Y73804D02*
G03*
X199124Y74500I-1680J-1680D01*
G01*
X163376Y77000D02*
G03*
X161696Y76304I0J-2376D01*
G01*
Y77696D02*
G03*
X163376Y77000I1680J1680D01*
G01*
X165876Y80000D02*
G03*
X164196Y79304I0J-2376D01*
G01*
Y80696D02*
G03*
X165876Y80000I1680J1680D01*
G01*
X183124Y77500D02*
G03*
X184804Y78196I0J2376D01*
G01*
Y76804D02*
G03*
X183124Y77500I-1680J-1680D01*
G01*
Y81500D02*
G03*
X184804Y82196I0J2376D01*
G01*
Y80804D02*
G03*
X183124Y81500I-1680J-1680D01*
G01*
X150180Y82680D02*
G03*
X149484Y81000I1680J-1680D01*
G01*
X148500Y81984D02*
G03*
X150180Y82680I0J2376D01*
G01*
X149951Y85075D02*
G03*
X148271Y84379I0J-2376D01*
G01*
Y85771D02*
G03*
X149951Y85075I1680J1680D01*
G01*
X90376Y85500D02*
G03*
X88696Y84804I0J-2376D01*
G01*
Y86196D02*
G03*
X90376Y85500I1680J1680D01*
G01*
X131124D02*
G03*
X132804Y86196I0J2376D01*
G01*
Y84804D02*
G03*
X131124Y85500I-1680J-1680D01*
G01*
X88000D02*
X133500D01*
X148500Y81000D02*
X151000Y83500D01*
X172727Y81500D02*
X185500D01*
X169152Y85075D02*
X172727Y81500D01*
X147575Y85075D02*
X169152D01*
X151000Y83500D02*
X168500D01*
X174500Y77500D01*
X185500D01*
X181059Y85559D02*
X195992D01*
X196051Y85500D01*
X181000D02*
X181059Y85559D01*
X175000Y74500D02*
X201500D01*
X169500Y80000D02*
X175000Y74500D01*
X163500Y80000D02*
X169500D01*
X170000Y77000D02*
X175059Y71941D01*
X161000Y77000D02*
X170000D01*
X175059Y71941D02*
X205000D01*
Y80500D02*
Y108500D01*
X178000Y8000D02*
X202953D01*
X162953D02*
X178000D01*
Y18826D01*
X182953Y23779D01*
X38000Y8000D02*
X98000D01*
Y18826D01*
X102953Y23779D01*
X202953Y8000D02*
Y13780D01*
X162953Y8000D02*
Y13780D01*
X80158Y66551D02*
X80303Y66697D01*
X22500Y42500D02*
X34000D01*
X42953Y33547D01*
Y23779D02*
Y33547D01*
X67674Y18500D02*
X72953Y23779D01*
X50000Y18500D02*
X67674D01*
X48000Y20500D02*
X50000Y18500D01*
X48000Y20500D02*
Y32500D01*
X36000Y44500D02*
X48000Y32500D01*
X36000Y44500D02*
Y52000D01*
X52953Y23779D02*
Y62547D01*
X118233Y18500D02*
X122953Y13780D01*
X111000Y18500D02*
X118233D01*
X108000Y21500D02*
X111000Y18500D01*
X108000Y21500D02*
Y26000D01*
X136000Y18500D02*
X138000Y20500D01*
X128233Y18500D02*
X136000D01*
X122953Y23779D02*
X128233Y18500D01*
X138000Y20500D02*
Y26500D01*
X112953Y13780D02*
X118233Y8500D01*
X145000D01*
X148000Y11500D01*
Y26701D01*
X112953Y23779D02*
X119174Y30000D01*
X136946D01*
X108000Y26000D02*
X113575Y31575D01*
X136294D01*
X249299Y61205D02*
X256295D01*
X249299Y63173D02*
X252173D01*
X255000Y66000D01*
X259500D01*
X233827Y59236D02*
X241563D01*
X219000Y69283D02*
X225716D01*
X227500Y67500D01*
Y65000D02*
Y67500D01*
Y65000D02*
X229327Y63173D01*
X233827D01*
X229705Y61205D02*
X233827D01*
X227500Y59000D02*
X229705Y61205D01*
X227500Y56000D02*
Y59000D01*
X226217Y54716D02*
X227500Y56000D01*
X219000Y54716D02*
X226217D01*
X218957Y43500D02*
Y54673D01*
X219000Y54716D01*
X226043Y43500D02*
X232500D01*
X255000Y53500D02*
X257957D01*
X253500Y55000D02*
X255000Y53500D01*
X253500Y55000D02*
Y56500D01*
X252732Y57268D02*
X253500Y56500D01*
X249299Y57268D02*
X252732D01*
X249299Y59236D02*
X253264D01*
X255000Y57500D01*
X270000D01*
X265043Y46500D02*
X270000D01*
X237626Y44126D02*
Y51500D01*
X239595Y43867D02*
Y51500D01*
X243531Y45577D02*
Y51500D01*
X245500Y45319D02*
Y51500D01*
X249299Y46891D02*
Y55299D01*
X265043Y53500D02*
X270000D01*
X227500Y67500D02*
X228500D01*
X230000Y69000D01*
Y71957D01*
X196051Y100500D02*
X202500D01*
Y90500D02*
Y100500D01*
X196051Y90500D02*
X202500D01*
X196051Y110500D02*
X203000D01*
X205000Y108500D01*
X223957Y110500D02*
X224000Y110543D01*
X214949Y110500D02*
X223957D01*
X224500Y95500D02*
Y103457D01*
X231957Y110543D02*
X235500Y107000D01*
X224500Y110543D02*
X231957D01*
X235500Y104000D02*
X243500D01*
X188000Y95500D02*
X196051D01*
X185000Y105500D02*
X196051D01*
X148000Y26701D02*
X150299Y29000D01*
X231408D01*
X249299Y46891D01*
X138000Y26500D02*
X142500Y31000D01*
X231181D01*
X245500Y45319D01*
X230529Y32575D02*
X243531Y45577D01*
X132953Y23779D02*
X141748Y32575D01*
X230529D01*
X136946Y30000D02*
X141096Y34150D01*
X229877D01*
X239595Y43867D01*
X136294Y31575D02*
X140444Y35724D01*
X229224D01*
X237626Y44126D01*
X147000Y94000D02*
X158000D01*
X131000D02*
X136000Y99000D01*
X157000D01*
X38000Y8000D02*
Y18733D01*
X268543Y19500D02*
X281343D01*
X281500Y19658D01*
X261457Y19500D02*
Y34957D01*
X261500Y35000D01*
X57500Y32500D02*
X103000D01*
X287500Y48500D02*
Y75000D01*
X285500Y46500D02*
X287500Y48500D01*
X284184Y42957D02*
X289075Y47848D01*
X275000Y46500D02*
X285500D01*
X275000Y42957D02*
X284184D01*
X282000Y90342D02*
X289075Y83268D01*
Y47848D02*
Y83268D01*
X282000Y80500D02*
X287500Y75000D01*
X72953Y13780D02*
X78000Y18826D01*
Y27000D01*
X80500Y29500D01*
X109273D01*
X112923Y33150D01*
X114650D01*
X118000Y36500D01*
Y43000D01*
X74500Y37000D02*
X102000D01*
X108000Y43000D01*
D13*
X184135Y39136D02*
G03*
X185736Y43000I-3864J3864D01*
G01*
X188000Y40736D02*
G03*
X184135Y39136I0J-5465D01*
G01*
X218500Y165308D02*
G03*
X220101Y161443I5465J0D01*
G01*
X216899D02*
G03*
X218500Y165308I-3864J3864D01*
G01*
X194500Y165465D02*
G03*
X196101Y161601I5465J0D01*
G01*
X192899D02*
G03*
X194500Y165465I-3864J3864D01*
G01*
X170500D02*
G03*
X172101Y161601I5465J0D01*
G01*
X168899D02*
G03*
X170500Y165465I-3864J3864D01*
G01*
X174395Y94000D02*
G03*
X172379Y93165I0J-2851D01*
G01*
Y94835D02*
G03*
X174395Y94000I2016J2016D01*
G01*
X157500Y71574D02*
G03*
X157082Y72582I-1426J0D01*
G01*
X157918D02*
G03*
X157500Y71574I1008J-1008D01*
G01*
X179426Y100500D02*
G03*
X178418Y100082I0J-1426D01*
G01*
Y100918D02*
G03*
X179426Y100500I1008J1008D01*
G01*
X157500Y69500D02*
Y73000D01*
X150500Y62500D02*
X157500Y69500D01*
X170500Y160000D02*
Y171000D01*
X194500Y160000D02*
Y171000D01*
X218500Y159843D02*
Y171000D01*
X194500D02*
X218500D01*
X182693Y37693D02*
X188000Y43000D01*
X135807Y37693D02*
X182693D01*
X133000Y40500D02*
X135807Y37693D01*
X133000Y40500D02*
Y56500D01*
X139000Y62500D01*
X150500D01*
X171543Y94000D02*
X177000D01*
X181000Y98000D01*
Y100500D01*
X178000D02*
X181000D01*
X196051D01*
D14*
X83010Y53000D02*
G03*
X86538Y54461I0J4990D01*
G01*
Y51538D02*
G03*
X83010Y53000I-3528J-3528D01*
G01*
X82990D02*
G03*
X79461Y51538I0J-4990D01*
G01*
Y54461D02*
G03*
X82990Y53000I3528J3528D01*
G01*
X162081Y94000D02*
G03*
X163761Y94696I0J2376D01*
G01*
Y93304D02*
G03*
X162081Y94000I-1680J-1680D01*
G01*
X130048Y113902D02*
G03*
X133745Y115433I0J5228D01*
G01*
Y112370D02*
G03*
X130048Y113902I-3697J-3697D01*
G01*
X105952D02*
G03*
X102255Y112370I0J-5228D01*
G01*
Y115433D02*
G03*
X105952Y113902I3697J3697D01*
G01*
X86048D02*
G03*
X89745Y115433I0J5228D01*
G01*
Y112370D02*
G03*
X86048Y113902I-3697J-3697D01*
G01*
X61952D02*
G03*
X58255Y112370I0J-5228D01*
G01*
Y115433D02*
G03*
X61952Y113902I3697J3697D01*
G01*
X42048D02*
G03*
X45744Y115433I0J5228D01*
G01*
Y112370D02*
G03*
X42048Y113902I-3697J-3697D01*
G01*
X97197Y66697D02*
X136197D01*
X18000Y66551D02*
X80158D01*
X152500Y88500D02*
X158000Y94000D01*
X146000Y88500D02*
X152500D01*
X141500Y84000D02*
X146000Y88500D01*
X141500Y72000D02*
Y84000D01*
X136197Y66697D02*
X141500Y72000D01*
X97197Y66697D02*
X97232Y66732D01*
X83000Y66697D02*
X97197D01*
X97000Y66500D02*
X97197Y66697D01*
X122500Y113902D02*
X139000D01*
X96000D02*
X109500D01*
X79500D02*
X96000D01*
X52000D02*
X66000D01*
X36000D02*
X52000D01*
X83000Y53000D02*
X88000D01*
X78000D02*
X83000D01*
Y66697D01*
X80303D02*
X83000D01*
X158000Y94000D02*
X164457D01*
X10051Y66551D02*
X18000D01*
D15*
X227467Y23779D02*
G03*
X224275Y22457I0J-4515D01*
G01*
Y25102D02*
G03*
X227467Y23779I3192J3192D01*
G01*
X270000Y46500D02*
Y53500D01*
X222953Y23779D02*
X229529D01*
X240749Y35000D01*
X263500D02*
X270000Y41500D01*
Y46500D01*
Y53500D02*
Y57500D01*
Y65000D01*
X263000Y72000D02*
X270000Y65000D01*
X241500Y72000D02*
X263000D01*
X235500Y78000D02*
X241500Y72000D01*
X235500Y78000D02*
Y89000D01*
Y104000D01*
Y107000D01*
X240749Y35000D02*
X261500D01*
X263500D01*
D16*
X53386Y156010D02*
G03*
X51924Y159538I-4990J0D01*
G01*
X54847D02*
G03*
X53386Y156010I3528J-3528D01*
G01*
X140000Y134821D02*
G03*
X138747Y137846I-4277J0D01*
G01*
X141253D02*
G03*
X140000Y134821I3024J-3024D01*
G01*
X96000D02*
G03*
X94747Y137846I-4277J0D01*
G01*
X97253D02*
G03*
X96000Y134821I3024J-3024D01*
G01*
X50747Y140351D02*
G03*
X53386Y146721I-6370J6370D01*
G01*
X52000Y134821D02*
G03*
X50747Y137846I-4277J0D01*
G01*
X53253D02*
G03*
X52000Y134821I3024J-3024D01*
G01*
X33827Y122764D02*
G03*
X31474Y121789I0J-3327D01*
G01*
Y123738D02*
G03*
X33827Y122764I2352J2352D01*
G01*
X77827D02*
G03*
X75474Y121789I0J-3327D01*
G01*
Y123738D02*
G03*
X77827Y122764I2352J2352D01*
G01*
X121827D02*
G03*
X119474Y121789I0J-3327D01*
G01*
Y123738D02*
G03*
X121827Y122764I2352J2352D01*
G01*
X140000Y138598D02*
Y139098D01*
Y133000D02*
Y138598D01*
X118500Y122764D02*
X125764D01*
X132000Y129000D01*
X136000D01*
X140000Y133000D01*
X96000Y138598D02*
Y139098D01*
Y133000D02*
Y138598D01*
X74500Y122764D02*
X81764D01*
X88000Y129000D01*
X92000D01*
X96000Y133000D01*
X52000D02*
Y139098D01*
X48000Y129000D02*
X52000Y133000D01*
X44000Y129000D02*
X48000D01*
X37764Y122764D02*
X44000Y129000D01*
X30500Y122764D02*
X37764D01*
X52000Y139098D02*
X53386Y140484D01*
Y161000D01*
D17*
X168500Y206703D02*
G03*
X170170Y202670I5703J0D01*
G01*
X166830D02*
G03*
X168500Y206703I-4033J4033D01*
G01*
X166500Y209000D02*
X168500Y207000D01*
Y201000D02*
Y207000D01*
D18*
X241563Y59236D02*
D03*
D19*
X249299Y63173D02*
D03*
Y61205D02*
D03*
Y59236D02*
D03*
Y57268D02*
D03*
Y55299D02*
D03*
X233827D02*
D03*
Y57268D02*
D03*
Y59236D02*
D03*
Y61205D02*
D03*
Y63173D02*
D03*
D20*
X245500Y51500D02*
D03*
X243531D02*
D03*
X241563D02*
D03*
X239595D02*
D03*
X237626D02*
D03*
Y66972D02*
D03*
X239595D02*
D03*
X241563D02*
D03*
X243531D02*
D03*
X245500D02*
D03*
D21*
X118500Y122764D02*
D03*
Y138236D02*
D03*
X74500Y122764D02*
D03*
Y138236D02*
D03*
X30500Y122764D02*
D03*
Y138236D02*
D03*
D22*
X180764Y209000D02*
D03*
X196236D02*
D03*
D23*
X147000Y94000D02*
D03*
X131000D02*
D03*
X114000D02*
D03*
X243500Y104000D02*
D03*
X168500Y201000D02*
D03*
D24*
X265043Y53500D02*
D03*
X257957D02*
D03*
X164457Y94000D02*
D03*
X171543D02*
D03*
X261457Y19500D02*
D03*
X268543D02*
D03*
D25*
X230000Y71957D02*
D03*
Y79043D02*
D03*
X218957Y43500D02*
D03*
X226043D02*
D03*
X265043Y46500D02*
D03*
X257957D02*
D03*
X224500Y110543D02*
D03*
Y103457D02*
D03*
D26*
X52000Y139098D02*
D03*
Y113902D02*
D03*
X96000Y139098D02*
D03*
Y113902D02*
D03*
X140000Y139098D02*
D03*
Y113902D02*
D03*
D27*
X219000Y69283D02*
D03*
Y54716D02*
D03*
D28*
X214949Y80500D02*
D03*
Y85500D02*
D03*
Y90500D02*
D03*
Y95500D02*
D03*
Y100500D02*
D03*
Y105500D02*
D03*
Y110500D02*
D03*
X196051Y80500D02*
D03*
Y85500D02*
D03*
Y90500D02*
D03*
Y95500D02*
D03*
Y100500D02*
D03*
Y105500D02*
D03*
Y110500D02*
D03*
D29*
X159000Y215000D02*
X160500D01*
X143000D02*
X159000D01*
X193500Y186500D02*
Y196500D01*
X196236Y199236D01*
Y209000D01*
X242500Y186500D02*
X262185D01*
X272500D01*
X56500Y215000D02*
X100000D01*
X143000D01*
X160500D02*
X166500Y209000D01*
X180764D01*
X193500Y186500D02*
X203130D01*
X183445D02*
X193500D01*
X272500D02*
X276000Y190000D01*
X284500D01*
D30*
X140083Y203031D02*
D03*
X97083D02*
D03*
X146579Y175567D02*
D03*
X103579D02*
D03*
X60079D02*
D03*
X53583Y203000D02*
D03*
D31*
X126303Y203031D02*
D03*
X83303D02*
D03*
X139886Y161000D02*
D03*
X133193Y175567D02*
D03*
X126500Y161000D02*
D03*
X119807Y175567D02*
D03*
X96886Y161000D02*
D03*
X90193Y175567D02*
D03*
X83500Y161000D02*
D03*
X76807Y175567D02*
D03*
X53386Y161000D02*
D03*
X46693Y175567D02*
D03*
X40000Y161000D02*
D03*
X33307Y175567D02*
D03*
X39803Y203000D02*
D03*
D32*
X279500Y106500D02*
D03*
X170500Y150157D02*
D03*
X194500D02*
D03*
X218500Y150000D02*
D03*
X282000Y70657D02*
D03*
Y80500D02*
D03*
Y90342D02*
D03*
X281500Y29500D02*
D03*
X222953Y13780D02*
D03*
X212953Y23779D02*
D03*
X202953D02*
D03*
X212953Y13780D02*
D03*
X202953D02*
D03*
X192953Y23779D02*
D03*
Y13780D02*
D03*
X182953Y23779D02*
D03*
Y13780D02*
D03*
X172953D02*
D03*
X162953Y23779D02*
D03*
Y13780D02*
D03*
X152953Y23779D02*
D03*
Y13780D02*
D03*
X142953D02*
D03*
Y23779D02*
D03*
X132953Y13780D02*
D03*
Y23779D02*
D03*
X122953Y13780D02*
D03*
X112953D02*
D03*
Y23779D02*
D03*
X102953Y13780D02*
D03*
Y23779D02*
D03*
X92953Y13780D02*
D03*
Y23779D02*
D03*
X82953Y13780D02*
D03*
Y23779D02*
D03*
X72953Y13780D02*
D03*
X62953Y23779D02*
D03*
Y13780D02*
D03*
X52953Y23779D02*
D03*
Y13780D02*
D03*
X42953Y23779D02*
D03*
Y13780D02*
D03*
X32953Y23779D02*
D03*
Y13780D02*
D03*
X48000Y53000D02*
D03*
Y43000D02*
D03*
X58000Y53000D02*
D03*
Y43000D02*
D03*
X68000Y53000D02*
D03*
Y43000D02*
D03*
X78000Y53000D02*
D03*
Y43000D02*
D03*
X88000D02*
D03*
Y53000D02*
D03*
X128000D02*
D03*
Y43000D02*
D03*
X138000D02*
D03*
Y53000D02*
D03*
X178000D02*
D03*
X168000D02*
D03*
X148000D02*
D03*
X158000D02*
D03*
Y43000D02*
D03*
X148000D02*
D03*
X168000D02*
D03*
X178000D02*
D03*
X188000D02*
D03*
X118000D02*
D03*
Y53000D02*
D03*
X108000Y43000D02*
D03*
Y53000D02*
D03*
X98000Y43000D02*
D03*
Y53000D02*
D03*
X281500Y137000D02*
D03*
Y146843D02*
D03*
X125500Y78500D02*
D03*
X115500D02*
D03*
X105500D02*
D03*
D33*
X289500Y106500D02*
D03*
X222953Y23779D02*
D03*
X122953D02*
D03*
X72953D02*
D03*
X188000Y53000D02*
D03*
X135500Y78500D02*
D03*
D34*
X170500Y160000D02*
D03*
X194500D02*
D03*
X218500Y159843D02*
D03*
X282000Y60815D02*
D03*
X281500Y19658D02*
D03*
Y127157D02*
D03*
D35*
X203130Y186500D02*
D03*
X183445D02*
D03*
X242500D02*
D03*
X262185D02*
D03*
X284500Y170000D02*
D03*
D36*
Y190000D02*
D03*
D37*
X242126Y211693D02*
D03*
Y18779D02*
D03*
X283465Y211693D02*
D03*
X13780D02*
D03*
Y18779D02*
D03*
D38*
X172953Y23779D02*
D03*
D39*
X256000Y147000D02*
D03*
Y139126D02*
D03*
D40*
Y131252D02*
D03*
D41*
X252000Y43500D02*
D03*
X143000Y58500D02*
D03*
X46000Y61000D02*
D03*
X9000Y35000D02*
D03*
X133500Y85500D02*
D03*
X88000D02*
D03*
X147575Y85075D02*
D03*
X148500Y81000D02*
D03*
X97232Y66732D02*
D03*
X185500Y81500D02*
D03*
Y77500D02*
D03*
X163500Y80000D02*
D03*
X161000Y77000D02*
D03*
X201500Y74500D02*
D03*
X205000Y80500D02*
D03*
X122500Y113902D02*
D03*
X79500D02*
D03*
X109500D02*
D03*
X159000Y124500D02*
D03*
X66000Y113902D02*
D03*
X36000D02*
D03*
X52953Y62547D02*
D03*
X22500Y42500D02*
D03*
X36000Y52000D02*
D03*
X80303Y66697D02*
D03*
X62980Y66520D02*
D03*
X46122Y66622D02*
D03*
X27618Y66618D02*
D03*
X10051Y66551D02*
D03*
X103000Y32500D02*
D03*
X57500D02*
D03*
X256295Y61205D02*
D03*
X259500Y66000D02*
D03*
X232500Y43500D02*
D03*
X235500Y89000D02*
D03*
X181000Y85500D02*
D03*
X185000Y105500D02*
D03*
X188000Y95500D02*
D03*
X224500D02*
D03*
X178000Y100500D02*
D03*
X168000Y73000D02*
D03*
X205000Y53000D02*
D03*
X157000Y113902D02*
D03*
X157500Y73000D02*
D03*
X157000Y99000D02*
D03*
X275000Y46500D02*
D03*
Y42957D02*
D03*
X205000Y71941D02*
D03*
X74500Y37000D02*
D03*
D42*
X239398Y57071D02*
D03*
Y61402D02*
D03*
X243728Y57071D02*
D03*
Y61402D02*
D03*
M02*
