%FSLAX25Y25*%
%MOIN*%
G70*
G01*
G75*
G04 Layer_Physical_Order=2*
G04 Layer_Color=16711680*
%ADD10C,0.03937*%
%ADD11C,0.03150*%
%ADD12C,0.00787*%
%ADD13C,0.01575*%
%ADD14C,0.01969*%
%ADD15C,0.02362*%
%ADD16C,0.02756*%
%ADD17C,0.01181*%
%ADD18R,0.09843X0.09843*%
%ADD19R,0.02874X0.01181*%
%ADD20R,0.01181X0.02874*%
%ADD21R,0.05512X0.07874*%
%ADD22R,0.07874X0.05512*%
%ADD23C,0.05906*%
%ADD24R,0.03937X0.03937*%
%ADD25C,0.03937*%
%ADD26R,0.15748X0.06299*%
%ADD27R,0.09449X0.06693*%
%ADD28O,0.08661X0.02362*%
%ADD29C,0.05906*%
%ADD30R,0.06890X0.06890*%
%ADD31C,0.06890*%
%ADD32C,0.06102*%
%ADD33R,0.06102X0.06102*%
%ADD34R,0.06102X0.06102*%
%ADD35C,0.08071*%
%ADD36R,0.08071X0.08071*%
%ADD37C,0.19685*%
%ADD38R,0.06102X0.06000*%
%ADD39C,0.05118*%
%ADD40R,0.05118X0.05118*%
%ADD41C,0.02756*%
%ADD42C,0.02362*%
%ADD43R,0.07087X0.05906*%
%ADD44O,0.07008X0.02362*%
%ADD45R,0.02362X0.05512*%
%ADD46R,0.03937X0.03937*%
%ADD47R,0.08583X0.06378*%
%ADD48R,0.08976X0.07480*%
%ADD49R,0.10039X0.11614*%
G36*
X295500Y97449D02*
X295500D01*
X295331D01*
X295146Y97449D01*
X295146Y97449D01*
Y97449D01*
X292309D01*
X292274Y97501D01*
X292216Y97793D01*
X292206D01*
Y97793D01*
X292206D01*
X292107Y98547D01*
X291816Y99250D01*
X291353Y99853D01*
X291352Y99852D01*
X291318Y99874D01*
X290858Y100562D01*
X290696Y101374D01*
X290704Y101414D01*
Y101414D01*
X290722D01*
X290707Y101523D01*
X290865Y102314D01*
X291097Y102661D01*
X293339D01*
Y110339D01*
X285661D01*
Y102661D01*
X287903D01*
X288135Y102314D01*
X288293Y101523D01*
X288279Y101423D01*
Y101423D01*
X288278Y101414D01*
X288279Y101414D01*
X288279D01*
X288437Y100215D01*
X288900Y99097D01*
X289637Y98137D01*
D01*
X289637Y98137D01*
D01*
D01*
X289752Y97866D01*
X289477Y97449D01*
X286669D01*
Y89969D01*
X295146D01*
X295146Y89969D01*
Y89969D01*
X295331Y89969D01*
X295500Y89799D01*
Y86032D01*
X295500D01*
X295331D01*
X295146Y86032D01*
X295146Y86032D01*
Y86032D01*
X286669D01*
Y83601D01*
X286617Y83566D01*
X286325Y83508D01*
Y83508D01*
Y83508D01*
D01*
D01*
D01*
X286325D01*
X286325D01*
D01*
D01*
X286325Y83508D01*
Y83508D01*
D01*
Y83508D01*
D01*
X284894Y83367D01*
X284661Y83296D01*
X283936Y83853D01*
X283002Y84240D01*
X282000Y84372D01*
X280998Y84240D01*
X280064Y83853D01*
X279979Y83788D01*
X279937Y83795D01*
X279937Y83795D01*
X279780Y83691D01*
X279346Y83604D01*
X279233Y83627D01*
X278819Y83752D01*
X278788Y83773D01*
X278783Y83763D01*
X278671Y83797D01*
X278635Y83822D01*
X278507Y83847D01*
X277869Y84040D01*
X277414Y84085D01*
X277401Y84118D01*
X277401D01*
X277346Y84128D01*
X277238Y84290D01*
X277238Y84290D01*
X277151Y84419D01*
X276500Y84854D01*
X275732Y85007D01*
X271087D01*
X270319Y84854D01*
X269667Y84419D01*
X269232Y83768D01*
X269080Y83000D01*
X269232Y82232D01*
X269667Y81581D01*
X270319Y81146D01*
X271087Y80993D01*
X275732D01*
X276500Y81146D01*
X276706Y81283D01*
X276828Y81364D01*
X276855Y81323D01*
X276992Y81414D01*
X277314Y81478D01*
X277474Y81446D01*
X277474Y81446D01*
X278045Y81121D01*
X278050Y81113D01*
X278136Y80679D01*
X278128Y80639D01*
X278128D01*
X278144Y80620D01*
X278142Y80608D01*
X278140Y80595D01*
X278140Y80593D01*
X278128Y80500D01*
X278260Y79498D01*
X278647Y78564D01*
X279262Y77762D01*
X280064Y77147D01*
X280998Y76760D01*
X282000Y76628D01*
X283002Y76760D01*
X283936Y77147D01*
X284738Y77762D01*
X285353Y78564D01*
X285740Y79498D01*
X285872Y80500D01*
X285802Y81033D01*
X286278Y81096D01*
X286325Y81087D01*
X286325D01*
Y81083D01*
Y81075D01*
X286617Y81017D01*
X286669Y80982D01*
Y78551D01*
X295146D01*
X295146Y78551D01*
Y78551D01*
X295331Y78551D01*
X295500Y78382D01*
Y2000D01*
X2000D01*
Y223500D01*
X295500D01*
Y97449D01*
D02*
G37*
%LPC*%
G36*
X86602Y104965D02*
X81091D01*
Y99453D01*
X82449D01*
X82729Y98778D01*
X82746Y98644D01*
X82417Y98268D01*
X82075D01*
Y91181D01*
X82839D01*
Y89457D01*
X82839Y89457D01*
X82931Y88996D01*
X83192Y88605D01*
X85468Y86329D01*
X85465Y86326D01*
X85463Y86323D01*
X85470Y86317D01*
X85718Y85947D01*
X85800Y85537D01*
X85792Y85500D01*
X85960Y84655D01*
X86439Y83939D01*
X87155Y83460D01*
X88000Y83292D01*
X88845Y83460D01*
X89561Y83939D01*
X90040Y84655D01*
X90208Y85500D01*
X90040Y86345D01*
X89561Y87061D01*
X88845Y87540D01*
X88000Y87708D01*
X87963Y87700D01*
X87553Y87782D01*
X87182Y88029D01*
X87177Y88037D01*
X87171Y88032D01*
X85247Y89956D01*
Y91181D01*
X86012D01*
Y98268D01*
X85247D01*
Y98934D01*
X85351Y99453D01*
X86602D01*
Y104965D01*
D02*
G37*
G36*
X218098Y87507D02*
X211799D01*
X211031Y87354D01*
X210380Y86919D01*
X209945Y86268D01*
X209792Y85500D01*
X209945Y84732D01*
X210380Y84081D01*
X211031Y83646D01*
X211799Y83493D01*
X218098D01*
X218866Y83646D01*
X219518Y84081D01*
X219953Y84732D01*
X220106Y85500D01*
X219953Y86268D01*
X219518Y86919D01*
X218866Y87354D01*
X218098Y87507D01*
D02*
G37*
G36*
X243000Y84885D02*
Y82457D01*
X245428D01*
X245392Y82732D01*
X245093Y83454D01*
X244617Y84074D01*
X243997Y84550D01*
X243275Y84849D01*
X243000Y84885D01*
D02*
G37*
G36*
X205000Y82708D02*
X204155Y82540D01*
X203439Y82061D01*
X203418Y82029D01*
X203071Y81797D01*
X202633Y81711D01*
X202624Y81712D01*
Y81709D01*
Y81704D01*
X201102D01*
Y81718D01*
X200840Y81770D01*
X200622Y81916D01*
X200620Y81919D01*
X199969Y82354D01*
X199201Y82507D01*
X192902D01*
X192133Y82354D01*
X191482Y81919D01*
X191047Y81268D01*
X190894Y80500D01*
X191047Y79732D01*
X191482Y79081D01*
X192133Y78646D01*
X192902Y78493D01*
X199201D01*
X199969Y78646D01*
X200620Y79081D01*
X200622Y79084D01*
X200840Y79230D01*
X201102Y79282D01*
Y79292D01*
Y79296D01*
X202624D01*
Y79291D01*
Y79288D01*
X202633Y79289D01*
X203071Y79203D01*
X203418Y78970D01*
X203439Y78939D01*
X204155Y78460D01*
X205000Y78292D01*
X205845Y78460D01*
X206561Y78939D01*
X207040Y79655D01*
X207208Y80500D01*
X207040Y81345D01*
X206561Y82061D01*
X205845Y82540D01*
X205000Y82708D01*
D02*
G37*
G36*
X103532Y104965D02*
X98020D01*
Y99453D01*
X99378D01*
X99658Y98778D01*
X99676Y98644D01*
X99346Y98268D01*
X99004D01*
Y91181D01*
X102941D01*
Y98268D01*
X102177D01*
Y98934D01*
X102280Y99453D01*
X103532D01*
Y100756D01*
X103906Y100911D01*
X104520Y100992D01*
X104578Y100985D01*
Y101004D01*
X129942D01*
X145043Y85904D01*
Y85904D01*
X145043Y85903D01*
X145038Y85898D01*
X145038D01*
X145038Y85898D01*
X145038Y85898D01*
D01*
X145045Y85892D01*
X145293Y85522D01*
X145375Y85112D01*
X145367Y85075D01*
X145535Y84230D01*
X146014Y83514D01*
X146730Y83035D01*
X146817Y83018D01*
X146915Y82527D01*
X146571Y82297D01*
X146133Y82211D01*
X146124Y82212D01*
Y82209D01*
Y82204D01*
X143999D01*
X139851Y86352D01*
X139461Y86613D01*
X139000Y86704D01*
X139000Y86704D01*
X135876D01*
Y86709D01*
Y86712D01*
X135867Y86711D01*
X135429Y86797D01*
X135082Y87029D01*
X135061Y87061D01*
X134345Y87540D01*
X133500Y87708D01*
X132655Y87540D01*
X131939Y87061D01*
X131460Y86345D01*
X131292Y85500D01*
X131460Y84655D01*
X131939Y83939D01*
X132655Y83460D01*
X133500Y83292D01*
X134345Y83460D01*
X135061Y83939D01*
X135082Y83970D01*
X135429Y84202D01*
X135867Y84289D01*
X135876Y84288D01*
Y84296D01*
X138501D01*
X142648Y80149D01*
X143039Y79887D01*
X143500Y79796D01*
X146124D01*
Y79791D01*
Y79788D01*
X146133Y79789D01*
X146571Y79703D01*
X146918Y79470D01*
X146939Y79439D01*
X147655Y78960D01*
X148500Y78792D01*
X149345Y78960D01*
X150061Y79439D01*
X150540Y80155D01*
X150708Y81000D01*
X150540Y81845D01*
X150061Y82561D01*
X149345Y83040D01*
X149225Y83064D01*
X149136Y83514D01*
X149615Y84230D01*
X149783Y85075D01*
X149615Y85920D01*
X149136Y86636D01*
X148420Y87115D01*
X147575Y87283D01*
X147538Y87275D01*
X147128Y87357D01*
X146757Y87604D01*
X146751Y87612D01*
D01*
X146751Y87612D01*
X146751Y87612D01*
X146751Y87612D01*
X146746Y87607D01*
X131292Y103060D01*
X130902Y103321D01*
X130441Y103413D01*
X130441Y103413D01*
X104597D01*
X104578Y103433D01*
Y103433D01*
D01*
D01*
D01*
X104578D01*
X104578D01*
D01*
D01*
X104576Y103433D01*
Y103433D01*
D01*
Y103433D01*
X104520Y103425D01*
X103906Y103506D01*
X103532Y103661D01*
Y104965D01*
D02*
G37*
G36*
X242000Y84885D02*
X241725Y84849D01*
X241003Y84550D01*
X240383Y84074D01*
X239907Y83454D01*
X239608Y82732D01*
X239572Y82457D01*
X242000D01*
Y84885D01*
D02*
G37*
G36*
X251650Y85224D02*
X249827D01*
X248976Y85054D01*
X248254Y84572D01*
X247772Y83851D01*
X247702Y83500D01*
X251650D01*
Y85224D01*
D02*
G37*
G36*
X225000Y90472D02*
Y88043D01*
X227428D01*
X227392Y88318D01*
X227093Y89040D01*
X226617Y89661D01*
X225997Y90136D01*
X225275Y90435D01*
X225000Y90472D01*
D02*
G37*
G36*
X199201Y92507D02*
X192902D01*
X192133Y92354D01*
X191482Y91919D01*
X191047Y91268D01*
X190894Y90500D01*
X191047Y89732D01*
X191482Y89081D01*
X192133Y88646D01*
X192902Y88493D01*
X199201D01*
X199969Y88646D01*
X200620Y89081D01*
X201055Y89732D01*
X201208Y90500D01*
X201055Y91268D01*
X200620Y91919D01*
X199969Y92354D01*
X199201Y92507D01*
D02*
G37*
G36*
X218098D02*
X211799D01*
X211031Y92354D01*
X210380Y91919D01*
X209945Y91268D01*
X209792Y90500D01*
X209945Y89732D01*
X210380Y89081D01*
X211031Y88646D01*
X211799Y88493D01*
X218098D01*
X218866Y88646D01*
X219518Y89081D01*
X219953Y89732D01*
X220106Y90500D01*
X219953Y91268D01*
X219518Y91919D01*
X218866Y92354D01*
X218098Y92507D01*
D02*
G37*
G36*
X224000Y90472D02*
X223725Y90435D01*
X223003Y90136D01*
X222383Y89661D01*
X221907Y89040D01*
X221608Y88318D01*
X221572Y88043D01*
X224000D01*
Y90472D01*
D02*
G37*
G36*
X254472Y85224D02*
X252650D01*
Y83500D01*
X256597D01*
X256527Y83851D01*
X256045Y84572D01*
X255324Y85054D01*
X254472Y85224D01*
D02*
G37*
G36*
X224000Y87043D02*
X221572D01*
X221608Y86768D01*
X221907Y86046D01*
X222383Y85426D01*
X223003Y84950D01*
X223725Y84651D01*
X224000Y84615D01*
Y87043D01*
D02*
G37*
G36*
X227428D02*
X225000D01*
Y84615D01*
X225275Y84651D01*
X225997Y84950D01*
X226617Y85426D01*
X227093Y86046D01*
X227392Y86768D01*
X227428Y87043D01*
D02*
G37*
G36*
X129520Y78000D02*
X126000D01*
Y74480D01*
X126558Y74553D01*
X127543Y74961D01*
X128389Y75611D01*
X129039Y76457D01*
X129447Y77442D01*
X129520Y78000D01*
D02*
G37*
G36*
X272909Y77500D02*
X268962D01*
X269032Y77149D01*
X269514Y76428D01*
X270236Y75946D01*
X271087Y75776D01*
X272909D01*
Y77500D01*
D02*
G37*
G36*
X277857D02*
X273909D01*
Y75776D01*
X275732D01*
X276583Y75946D01*
X277305Y76428D01*
X277787Y77149D01*
X277857Y77500D01*
D02*
G37*
G36*
X125000Y78000D02*
X121480D01*
X121553Y77442D01*
X121961Y76457D01*
X122611Y75611D01*
X123457Y74961D01*
X124442Y74553D01*
X125000Y74480D01*
Y78000D01*
D02*
G37*
G36*
X254472Y95007D02*
X249827D01*
X249059Y94854D01*
X248408Y94419D01*
X247972Y93768D01*
X247820Y93000D01*
X247972Y92232D01*
X248408Y91581D01*
X249059Y91146D01*
X249827Y90993D01*
X254472D01*
X255241Y91146D01*
X255892Y91581D01*
X255894Y91584D01*
X256112Y91730D01*
X256373Y91782D01*
Y91792D01*
Y91796D01*
X256501D01*
X258296Y90001D01*
Y68376D01*
X258288D01*
X258289Y68367D01*
X258203Y67929D01*
X257978Y67593D01*
X257756Y67661D01*
X257500Y67798D01*
Y69705D01*
X257408Y70166D01*
X257147Y70556D01*
X257147Y70556D01*
X253354Y74349D01*
Y75993D01*
X254472D01*
X255241Y76146D01*
X255892Y76581D01*
X256327Y77232D01*
X256480Y78000D01*
X256327Y78768D01*
X255892Y79419D01*
X255241Y79854D01*
X254472Y80007D01*
X249827D01*
X249059Y79854D01*
X248408Y79419D01*
X247972Y78768D01*
X247820Y78000D01*
X247972Y77232D01*
X248408Y76581D01*
X249059Y76146D01*
X249827Y75993D01*
X250945D01*
Y73850D01*
X250945Y73850D01*
X251037Y73390D01*
X251298Y72999D01*
X255091Y69206D01*
Y63581D01*
X255083D01*
X255085Y63571D01*
X254998Y63134D01*
X254766Y62787D01*
X254734Y62766D01*
X254256Y62050D01*
X254087Y61205D01*
X254256Y60360D01*
X254734Y59644D01*
X255450Y59165D01*
X256295Y58997D01*
X257140Y59165D01*
X257856Y59644D01*
X258335Y60360D01*
X258503Y61205D01*
X258335Y62050D01*
X257856Y62766D01*
X257825Y62787D01*
X257593Y63134D01*
X257506Y63571D01*
X257507Y63581D01*
X257500D01*
Y64202D01*
X257941Y64438D01*
X258655Y63960D01*
X259500Y63792D01*
X260345Y63960D01*
X261061Y64439D01*
X261540Y65155D01*
X261708Y66000D01*
X261540Y66845D01*
X261061Y67561D01*
X261030Y67582D01*
X260798Y67929D01*
X260711Y68367D01*
X260712Y68376D01*
X260704D01*
Y90500D01*
X260613Y90961D01*
X260508Y91117D01*
X260351Y91351D01*
X260351Y91351D01*
X257852Y93852D01*
X257461Y94113D01*
X257000Y94204D01*
X257000Y94204D01*
X256373D01*
Y94218D01*
X256112Y94270D01*
X255894Y94416D01*
X255892Y94419D01*
X255241Y94854D01*
X254472Y95007D01*
D02*
G37*
G36*
X281500Y74678D02*
X280942Y74604D01*
X279957Y74196D01*
X279111Y73547D01*
X278461Y72701D01*
X278053Y71715D01*
X277980Y71157D01*
X281500D01*
Y74678D01*
D02*
G37*
G36*
X282500D02*
Y71157D01*
X286020D01*
X285947Y71715D01*
X285539Y72701D01*
X284889Y73547D01*
X284043Y74196D01*
X283058Y74604D01*
X282500Y74678D01*
D02*
G37*
G36*
X272909Y80224D02*
X271087D01*
X270236Y80054D01*
X269514Y79572D01*
X269032Y78851D01*
X268962Y78500D01*
X272909D01*
Y80224D01*
D02*
G37*
G36*
X245428Y81457D02*
X243000D01*
Y79028D01*
X243275Y79065D01*
X243997Y79364D01*
X244617Y79839D01*
X245093Y80460D01*
X245392Y81182D01*
X245428Y81457D01*
D02*
G37*
G36*
X251650Y82500D02*
X247702D01*
X247772Y82149D01*
X248254Y81428D01*
X248976Y80945D01*
X249827Y80776D01*
X251650D01*
Y82500D01*
D02*
G37*
G36*
X256597D02*
X252650D01*
Y80776D01*
X254472D01*
X255324Y80945D01*
X256045Y81428D01*
X256527Y82149D01*
X256597Y82500D01*
D02*
G37*
G36*
X242000Y81457D02*
X239572D01*
X239608Y81182D01*
X239907Y80460D01*
X240383Y79839D01*
X241003Y79364D01*
X241725Y79065D01*
X242000Y79028D01*
Y81457D01*
D02*
G37*
G36*
X275732Y80224D02*
X273909D01*
Y78500D01*
X277857D01*
X277787Y78851D01*
X277305Y79572D01*
X276583Y80054D01*
X275732Y80224D01*
D02*
G37*
G36*
X125000Y82520D02*
X124442Y82447D01*
X123457Y82039D01*
X122611Y81389D01*
X121961Y80543D01*
X121553Y79558D01*
X121480Y79000D01*
X125000D01*
Y82520D01*
D02*
G37*
G36*
X126000D02*
Y79000D01*
X129520D01*
X129447Y79558D01*
X129039Y80543D01*
X128389Y81389D01*
X127543Y82039D01*
X126558Y82447D01*
X126000Y82520D01*
D02*
G37*
G36*
X201325Y110000D02*
X196551D01*
Y108276D01*
X199201D01*
X200052Y108446D01*
X200773Y108928D01*
X201255Y109649D01*
X201325Y110000D01*
D02*
G37*
G36*
X218098Y112507D02*
X211799D01*
X211031Y112354D01*
X210380Y111919D01*
X209945Y111268D01*
X209792Y110500D01*
X209945Y109732D01*
X210380Y109081D01*
X211031Y108646D01*
X211799Y108493D01*
X218098D01*
X218866Y108646D01*
X219518Y109081D01*
X219953Y109732D01*
X220106Y110500D01*
X219953Y111268D01*
X219518Y111919D01*
X218866Y112354D01*
X218098Y112507D01*
D02*
G37*
G36*
X195551Y112724D02*
X192902D01*
X192051Y112555D01*
X191329Y112073D01*
X190847Y111351D01*
X190777Y111000D01*
X195551D01*
Y112724D01*
D02*
G37*
G36*
Y110000D02*
X190777D01*
X190847Y109649D01*
X191329Y108928D01*
X192051Y108446D01*
X192902Y108276D01*
X195551D01*
Y110000D01*
D02*
G37*
G36*
X199201Y107507D02*
X192902D01*
X192133Y107354D01*
X191482Y106919D01*
X191047Y106268D01*
X190894Y105500D01*
X191047Y104732D01*
X191482Y104081D01*
X192133Y103646D01*
X192902Y103493D01*
X199201D01*
X199969Y103646D01*
X200620Y104081D01*
X201055Y104732D01*
X201208Y105500D01*
X201055Y106268D01*
X200620Y106919D01*
X199969Y107354D01*
X199201Y107507D01*
D02*
G37*
G36*
X218098D02*
X211799D01*
X211031Y107354D01*
X210380Y106919D01*
X209945Y106268D01*
X209792Y105500D01*
X209945Y104732D01*
X210380Y104081D01*
X211031Y103646D01*
X211799Y103493D01*
X218098D01*
X218866Y103646D01*
X219518Y104081D01*
X219953Y104732D01*
X220106Y105500D01*
X219953Y106268D01*
X219518Y106919D01*
X218866Y107354D01*
X218098Y107507D01*
D02*
G37*
G36*
X152020Y113197D02*
X146500D01*
Y106890D01*
X152020D01*
Y113197D01*
D02*
G37*
G36*
X105925Y135764D02*
X95374D01*
Y126709D01*
X105925D01*
Y128932D01*
X106790Y129290D01*
X107318Y129360D01*
X107694Y129030D01*
Y115096D01*
X107460Y114746D01*
X107292Y113902D01*
X107460Y113057D01*
X107939Y112340D01*
X108655Y111862D01*
X109500Y111694D01*
X110345Y111862D01*
X111061Y112340D01*
X111540Y113057D01*
X111708Y113902D01*
X111540Y114746D01*
X111306Y115096D01*
Y131236D01*
X111169Y131928D01*
X110777Y132513D01*
X110191Y132905D01*
X109500Y133043D01*
X108051D01*
Y133049D01*
X107990Y133043D01*
X107850D01*
X106790Y133182D01*
X105925Y133540D01*
Y135764D01*
D02*
G37*
G36*
X145500Y120504D02*
X139980D01*
Y114197D01*
X145500D01*
Y120504D01*
D02*
G37*
G36*
X152020D02*
X146500D01*
Y114197D01*
X152020D01*
Y120504D01*
D02*
G37*
G36*
X76500Y128236D02*
X75781Y128142D01*
X75110Y127864D01*
X74534Y127422D01*
X74093Y126847D01*
X73815Y126176D01*
X73720Y125457D01*
X73815Y124737D01*
X74093Y124067D01*
X74435Y123621D01*
X74527Y123483D01*
X74534Y123491D01*
X74563Y123469D01*
X74694Y123154D01*
Y123089D01*
X74693Y123081D01*
X74694D01*
Y120000D01*
X74831Y119309D01*
X75223Y118723D01*
X75809Y118331D01*
X76500Y118194D01*
X77694D01*
Y115096D01*
X77460Y114746D01*
X77292Y113902D01*
X77460Y113057D01*
X77939Y112340D01*
X78655Y111862D01*
X79500Y111694D01*
X80345Y111862D01*
X81061Y112340D01*
X81540Y113057D01*
X81708Y113902D01*
X81540Y114746D01*
X81306Y115096D01*
Y118194D01*
X83500D01*
X84191Y118331D01*
X84777Y118723D01*
X85169Y119309D01*
X85306Y120000D01*
Y122701D01*
X86256D01*
Y128213D01*
X80744D01*
Y122701D01*
X81694D01*
Y121806D01*
X78306D01*
Y123080D01*
X78307D01*
X78306Y123089D01*
Y123154D01*
X78437Y123469D01*
X78465Y123491D01*
X78473Y123483D01*
X78565Y123621D01*
X78907Y124067D01*
X79185Y124737D01*
X79280Y125457D01*
X79185Y126176D01*
X78907Y126847D01*
X78465Y127422D01*
X77890Y127864D01*
X77219Y128142D01*
X76500Y128236D01*
D02*
G37*
G36*
X199201Y112724D02*
X196551D01*
Y111000D01*
X201325D01*
X201255Y111351D01*
X200773Y112073D01*
X200052Y112555D01*
X199201Y112724D01*
D02*
G37*
G36*
X119500Y128236D02*
X118781Y128142D01*
X118110Y127864D01*
X117534Y127422D01*
X117093Y126847D01*
X116815Y126176D01*
X116720Y125457D01*
X116815Y124737D01*
X117093Y124067D01*
X117435Y123621D01*
X117522Y123491D01*
D01*
X117526Y123485D01*
X117526Y123485D01*
X117527Y123483D01*
X117534Y123491D01*
X117534Y123491D01*
D01*
X117563Y123469D01*
X117694Y123154D01*
Y123089D01*
X117693Y123081D01*
X117694D01*
Y120000D01*
X117694Y120000D01*
X117694D01*
X117831Y119309D01*
X118223Y118723D01*
X118809Y118331D01*
X119500Y118194D01*
X120694D01*
Y115096D01*
X120460Y114746D01*
X120292Y113902D01*
X120460Y113057D01*
X120939Y112340D01*
X121655Y111862D01*
X121739Y111845D01*
X121907Y111733D01*
X122598Y111595D01*
X123290Y111733D01*
X123876Y112124D01*
X123987Y112291D01*
X124061Y112340D01*
X124540Y113057D01*
X124708Y113902D01*
X124540Y114746D01*
X124306Y115096D01*
Y118194D01*
X126500D01*
X127191Y118331D01*
X127777Y118723D01*
X128169Y119309D01*
X128306Y120000D01*
Y122701D01*
X129256D01*
Y128213D01*
X123744D01*
Y122701D01*
X124694D01*
Y121806D01*
X121306D01*
Y123080D01*
X121308D01*
X121306Y123089D01*
Y123154D01*
X121437Y123469D01*
X121466Y123491D01*
X121466Y123491D01*
D01*
D01*
D01*
X121466Y123491D01*
X121473Y123483D01*
X121474Y123485D01*
X121475Y123485D01*
X121504Y123530D01*
X121504Y123530D01*
X121565Y123621D01*
X121907Y124067D01*
X122185Y124737D01*
X122280Y125457D01*
X122185Y126176D01*
X121907Y126847D01*
X121466Y127422D01*
X120890Y127864D01*
X120219Y128142D01*
X119500Y128236D01*
D02*
G37*
G36*
X33000D02*
X32281Y128142D01*
X31610Y127864D01*
X31034Y127422D01*
X30593Y126847D01*
X30315Y126176D01*
X30220Y125457D01*
X30315Y124737D01*
X30593Y124067D01*
X30935Y123621D01*
X31022Y123491D01*
D01*
X31026Y123485D01*
X31026Y123485D01*
X31027Y123483D01*
X31034Y123491D01*
X31034Y123491D01*
D01*
X31063Y123469D01*
X31194Y123154D01*
Y123089D01*
X31193Y123081D01*
X31194D01*
Y120000D01*
X31331Y119309D01*
X31723Y118723D01*
X32309Y118331D01*
X33000Y118194D01*
X34194D01*
Y115096D01*
X33960Y114746D01*
X33792Y113902D01*
X33960Y113057D01*
X34439Y112340D01*
X35155Y111862D01*
X36000Y111694D01*
X36845Y111862D01*
X37561Y112340D01*
X38040Y113057D01*
X38208Y113902D01*
X38040Y114746D01*
X37806Y115096D01*
Y118194D01*
X40000D01*
X40691Y118331D01*
X41277Y118723D01*
X41669Y119309D01*
X41806Y120000D01*
X41806Y120000D01*
X41806Y120000D01*
Y120000D01*
Y122701D01*
X42756D01*
Y128213D01*
X37244D01*
Y122701D01*
X38194D01*
Y121806D01*
X34806D01*
Y123081D01*
X34807D01*
X34806Y123089D01*
Y123154D01*
X34937Y123469D01*
X34966Y123491D01*
X34973Y123483D01*
X35065Y123621D01*
X35407Y124067D01*
X35685Y124737D01*
X35780Y125457D01*
X35685Y126176D01*
X35407Y126847D01*
X34966Y127422D01*
X34390Y127864D01*
X33719Y128142D01*
X33000Y128236D01*
D02*
G37*
G36*
X279500Y110372D02*
X278498Y110240D01*
X277564Y109853D01*
X276762Y109238D01*
X276147Y108436D01*
X275760Y107502D01*
X275628Y106500D01*
X275760Y105498D01*
X276147Y104564D01*
X276762Y103762D01*
X277012Y103571D01*
X277034Y103538D01*
X277127Y103476D01*
X277137Y103411D01*
X277137Y103411D01*
X277137Y103411D01*
X277442Y103178D01*
X277904Y102575D01*
X278195Y101874D01*
X278284Y101200D01*
X278273Y101123D01*
D01*
X278273Y101122D01*
X278288Y101121D01*
X278410Y99886D01*
X278770Y98698D01*
X279356Y97603D01*
X280143Y96643D01*
X280149Y96649D01*
X280182Y96626D01*
X280642Y95938D01*
X280804Y95126D01*
X280796Y95086D01*
Y95086D01*
X280784D01*
X280791Y95031D01*
X280672Y94433D01*
X280302Y93879D01*
X279970Y93658D01*
X279984Y93634D01*
X279262Y93080D01*
X278647Y92278D01*
X278260Y91345D01*
X278128Y90342D01*
X278157Y90126D01*
X278150Y90093D01*
X278164Y90021D01*
X278132Y89977D01*
X278132D01*
X278145Y89914D01*
X278093Y89655D01*
X277662Y89498D01*
D01*
D01*
D01*
X277662Y89498D01*
D01*
X277469Y89460D01*
X277059Y89541D01*
X276874Y89665D01*
X276846Y89624D01*
X276500Y89854D01*
X275732Y90007D01*
X271087D01*
X270319Y89854D01*
X269667Y89419D01*
X269232Y88768D01*
X269080Y88000D01*
X269232Y87232D01*
X269667Y86581D01*
X270319Y86146D01*
X271087Y85993D01*
X275732D01*
X276500Y86146D01*
X277151Y86581D01*
X277347Y86873D01*
X277392Y86862D01*
X277392D01*
X277398Y86878D01*
X278144Y86952D01*
X278745Y87134D01*
X278876Y87160D01*
X278913Y87185D01*
X279023Y87218D01*
X279030Y87208D01*
X279064Y87231D01*
X279239Y87284D01*
X279363Y87309D01*
X279622Y87257D01*
X279748Y87173D01*
X279748Y87173D01*
X279748Y87173D01*
X279813Y87183D01*
X280064Y86989D01*
X280998Y86603D01*
X282000Y86471D01*
X283002Y86603D01*
X283936Y86989D01*
X284738Y87605D01*
X285353Y88407D01*
X285740Y89340D01*
X285872Y90342D01*
X285740Y91345D01*
X285353Y92278D01*
X284738Y93080D01*
X284015Y93634D01*
X284030Y93658D01*
X283698Y93879D01*
X283328Y94433D01*
X283209Y95031D01*
X283216Y95086D01*
X283216D01*
X283221Y95086D01*
X283216Y95119D01*
D01*
X283063Y96285D01*
X282600Y97403D01*
X281863Y98363D01*
X281863Y98363D01*
X281738Y98488D01*
X281223Y99159D01*
X280831Y100106D01*
X280727Y100899D01*
X280727Y101122D01*
X280727D01*
X280716Y101200D01*
X280805Y101874D01*
X281096Y102575D01*
X281558Y103178D01*
X281862Y103411D01*
X281862Y103411D01*
X281862Y103411D01*
X281873Y103476D01*
X281966Y103538D01*
X281988Y103571D01*
X282238Y103762D01*
X282853Y104564D01*
X283240Y105498D01*
X283372Y106500D01*
X283240Y107502D01*
X282853Y108436D01*
X282238Y109238D01*
X281436Y109853D01*
X280502Y110240D01*
X279500Y110372D01*
D02*
G37*
G36*
X199201Y97507D02*
X192902D01*
X192133Y97354D01*
X191482Y96919D01*
X191047Y96268D01*
X190894Y95500D01*
X191047Y94732D01*
X191482Y94081D01*
X192133Y93646D01*
X192902Y93493D01*
X199201D01*
X199969Y93646D01*
X200620Y94081D01*
X201055Y94732D01*
X201208Y95500D01*
X201055Y96268D01*
X200620Y96919D01*
X199969Y97354D01*
X199201Y97507D01*
D02*
G37*
G36*
X218098D02*
X211799D01*
X211031Y97354D01*
X210380Y96919D01*
X209945Y96268D01*
X209792Y95500D01*
X209945Y94732D01*
X210380Y94081D01*
X211031Y93646D01*
X211799Y93493D01*
X218098D01*
X218866Y93646D01*
X219518Y94081D01*
X219953Y94732D01*
X220106Y95500D01*
X219953Y96268D01*
X219518Y96919D01*
X218866Y97354D01*
X218098Y97507D01*
D02*
G37*
G36*
X224000Y97825D02*
X223572Y97740D01*
X222786Y97214D01*
X222260Y96428D01*
X222175Y96000D01*
X224000D01*
Y97825D01*
D02*
G37*
G36*
X226825Y95000D02*
X225000D01*
Y93175D01*
X225428Y93260D01*
X226214Y93786D01*
X226740Y94572D01*
X226825Y95000D01*
D02*
G37*
G36*
X266043Y101780D02*
X265324Y101685D01*
X264653Y101407D01*
X264078Y100965D01*
X263636Y100390D01*
X263358Y99719D01*
X263264Y99000D01*
X263358Y98281D01*
X263636Y97610D01*
X264078Y97035D01*
X264653Y96593D01*
X265324Y96315D01*
X266043Y96220D01*
X266763Y96315D01*
X267433Y96593D01*
X268009Y97035D01*
X268009Y97035D01*
X268012Y97032D01*
X268549Y97444D01*
X269174Y97703D01*
X269788Y97783D01*
X269845Y97776D01*
Y97796D01*
X270501D01*
X272205Y96092D01*
Y95007D01*
X271087D01*
X270319Y94854D01*
X269667Y94419D01*
X269232Y93768D01*
X269080Y93000D01*
X269232Y92232D01*
X269667Y91581D01*
X270319Y91146D01*
X271087Y90993D01*
X275732D01*
X276500Y91146D01*
X277151Y91581D01*
X277587Y92232D01*
X277739Y93000D01*
X277587Y93768D01*
X277151Y94419D01*
X276500Y94854D01*
X275732Y95007D01*
X274614D01*
Y96591D01*
X274614Y96591D01*
X274522Y97051D01*
X274261Y97442D01*
X274261Y97442D01*
X271851Y99852D01*
X271461Y100113D01*
X271000Y100204D01*
X271000Y100204D01*
X269845D01*
Y100224D01*
X269788Y100216D01*
X269174Y100297D01*
X268549Y100556D01*
X268012Y100968D01*
X268009Y100965D01*
X267433Y101407D01*
X266763Y101685D01*
X266043Y101780D01*
D02*
G37*
G36*
X242500Y91823D02*
X241781Y91728D01*
X241110Y91451D01*
X240534Y91009D01*
X240532Y91012D01*
X239995Y90600D01*
X239369Y90341D01*
X238756Y90260D01*
X238700Y90267D01*
Y90267D01*
D01*
Y90267D01*
X238698Y90267D01*
D01*
D01*
X238698D01*
X238698D01*
D01*
D01*
D01*
Y90267D01*
X238678Y90247D01*
X237981D01*
Y90256D01*
X237914Y90247D01*
X237772D01*
Y90255D01*
X237383Y90332D01*
X237078Y90536D01*
X237061Y90561D01*
X236345Y91040D01*
X235500Y91208D01*
X234655Y91040D01*
X233939Y90561D01*
X233460Y89845D01*
X233292Y89000D01*
X233460Y88155D01*
X233939Y87439D01*
X233970Y87418D01*
X234203Y87071D01*
X234289Y86633D01*
X234288Y86624D01*
X234296D01*
Y84499D01*
X231501Y81704D01*
X228406D01*
Y81725D01*
X228246Y81704D01*
X228094D01*
X227252Y81872D01*
X226505Y82371D01*
X226466Y82422D01*
X225890Y82864D01*
X225219Y83142D01*
X224500Y83236D01*
X223781Y83142D01*
X223110Y82864D01*
X222534Y82422D01*
X222495Y82371D01*
X221748Y81872D01*
X220906Y81704D01*
X220754D01*
X220594Y81725D01*
Y81704D01*
X219999D01*
Y81708D01*
Y81718D01*
X219738Y81770D01*
X219520Y81916D01*
X219518Y81919D01*
X218866Y82354D01*
X218098Y82507D01*
X211799D01*
X211031Y82354D01*
X210380Y81919D01*
X209945Y81268D01*
X209792Y80500D01*
X209945Y79732D01*
X210380Y79081D01*
X211031Y78646D01*
X211799Y78493D01*
X218098D01*
X218866Y78646D01*
X219518Y79081D01*
X219520Y79084D01*
X219738Y79230D01*
X219999Y79282D01*
Y79292D01*
Y79296D01*
X220594D01*
Y79292D01*
X221303Y79199D01*
X221965Y78925D01*
X222533Y78489D01*
X222534Y78491D01*
X223110Y78049D01*
X223781Y77772D01*
X224500Y77677D01*
X225219Y77772D01*
X225890Y78049D01*
X226466Y78491D01*
X226467Y78489D01*
X227035Y78925D01*
X227697Y79199D01*
X228406Y79292D01*
Y79296D01*
X232000D01*
X232000Y79296D01*
X232461Y79387D01*
X232852Y79649D01*
X236351Y83148D01*
X236351Y83148D01*
X236613Y83539D01*
X236613Y83539D01*
X236613Y83539D01*
X236704Y84000D01*
X236704Y84000D01*
Y86624D01*
X236712D01*
X236711Y86633D01*
X236797Y87071D01*
X237030Y87418D01*
X237061Y87439D01*
X237086Y87477D01*
X237476Y87737D01*
X237981Y87837D01*
Y87839D01*
X238678D01*
X238698Y87819D01*
Y87819D01*
D01*
D01*
Y87819D01*
X238698D01*
D01*
D01*
D01*
D01*
X238700Y87819D01*
Y87819D01*
D01*
D01*
X238756Y87827D01*
X239369Y87746D01*
X239995Y87487D01*
X240528Y87078D01*
X240528D01*
X240532Y87075D01*
X240534Y87078D01*
X241110Y86636D01*
X241781Y86358D01*
X242500Y86264D01*
X243219Y86358D01*
X243890Y86636D01*
X244465Y87078D01*
X244562Y87203D01*
X245061Y87236D01*
X245148Y87148D01*
X245539Y86887D01*
X246000Y86796D01*
X246000Y86796D01*
X247926D01*
Y86792D01*
Y86782D01*
X248187Y86730D01*
X248405Y86584D01*
X248408Y86581D01*
X249059Y86146D01*
X249827Y85993D01*
X254472D01*
X255241Y86146D01*
X255892Y86581D01*
X256327Y87232D01*
X256480Y88000D01*
X256327Y88768D01*
X255892Y89419D01*
X255241Y89854D01*
X254472Y90007D01*
X249827D01*
X249059Y89854D01*
X248408Y89419D01*
X248405Y89416D01*
X248187Y89270D01*
X247926Y89218D01*
Y89204D01*
X246499D01*
X245808Y89895D01*
X245417Y90156D01*
X245043Y90230D01*
X245035Y90250D01*
X244972Y90276D01*
X244907Y90433D01*
X244465Y91009D01*
X243890Y91451D01*
X243219Y91728D01*
X242500Y91823D01*
D02*
G37*
G36*
X224000Y95000D02*
X222175D01*
X222260Y94572D01*
X222786Y93786D01*
X223572Y93260D01*
X224000Y93175D01*
Y95000D01*
D02*
G37*
G36*
X218098Y102507D02*
X211799D01*
X211031Y102354D01*
X210380Y101919D01*
X209945Y101268D01*
X209792Y100500D01*
X209945Y99732D01*
X210380Y99081D01*
X211031Y98646D01*
X211799Y98493D01*
X218098D01*
X218866Y98646D01*
X219518Y99081D01*
X219953Y99732D01*
X220106Y100500D01*
X219953Y101268D01*
X219518Y101919D01*
X218866Y102354D01*
X218098Y102507D01*
D02*
G37*
G36*
X258457Y101928D02*
X258182Y101892D01*
X257460Y101593D01*
X256839Y101117D01*
X256364Y100497D01*
X256065Y99775D01*
X256028Y99500D01*
X258457D01*
Y101928D01*
D02*
G37*
G36*
X259457D02*
Y99500D01*
X261885D01*
X261849Y99775D01*
X261550Y100497D01*
X261074Y101117D01*
X260454Y101593D01*
X259732Y101892D01*
X259457Y101928D01*
D02*
G37*
G36*
X199201Y102507D02*
X192902D01*
X192133Y102354D01*
X191482Y101919D01*
X191047Y101268D01*
X190894Y100500D01*
X191047Y99732D01*
X191482Y99081D01*
X192133Y98646D01*
X192902Y98493D01*
X199201D01*
X199969Y98646D01*
X200620Y99081D01*
X201055Y99732D01*
X201208Y100500D01*
X201055Y101268D01*
X200620Y101919D01*
X199969Y102354D01*
X199201Y102507D01*
D02*
G37*
G36*
X225000Y97825D02*
Y96000D01*
X226825D01*
X226740Y96428D01*
X226214Y97214D01*
X225428Y97740D01*
X225000Y97825D01*
D02*
G37*
G36*
X258457Y98500D02*
X256028D01*
X256065Y98225D01*
X256364Y97503D01*
X256839Y96883D01*
X257460Y96407D01*
X258182Y96108D01*
X258457Y96072D01*
Y98500D01*
D02*
G37*
G36*
X261885D02*
X259457D01*
Y96072D01*
X259732Y96108D01*
X260454Y96407D01*
X261074Y96883D01*
X261550Y97503D01*
X261849Y98225D01*
X261885Y98500D01*
D02*
G37*
G36*
X286020Y70157D02*
X282500D01*
Y66637D01*
X283058Y66711D01*
X284043Y67119D01*
X284889Y67768D01*
X285539Y68614D01*
X285947Y69600D01*
X286020Y70157D01*
D02*
G37*
G36*
X163453Y17800D02*
Y14279D01*
X166973D01*
X166900Y14837D01*
X166492Y15823D01*
X165842Y16669D01*
X164996Y17318D01*
X164011Y17726D01*
X163453Y17800D01*
D02*
G37*
G36*
X202453D02*
X201895Y17726D01*
X200910Y17318D01*
X200064Y16669D01*
X199414Y15823D01*
X199006Y14837D01*
X198933Y14279D01*
X202453D01*
Y17800D01*
D02*
G37*
G36*
X203453D02*
Y14279D01*
X206973D01*
X206900Y14837D01*
X206492Y15823D01*
X205842Y16669D01*
X204996Y17318D01*
X204011Y17726D01*
X203453Y17800D01*
D02*
G37*
G36*
X162453D02*
X161896Y17726D01*
X160910Y17318D01*
X160064Y16669D01*
X159414Y15823D01*
X159006Y14837D01*
X158933Y14279D01*
X162453D01*
Y17800D01*
D02*
G37*
G36*
X83453D02*
Y14279D01*
X86973D01*
X86900Y14837D01*
X86492Y15823D01*
X85842Y16669D01*
X84996Y17318D01*
X84011Y17726D01*
X83453Y17800D01*
D02*
G37*
G36*
X132453D02*
X131895Y17726D01*
X130910Y17318D01*
X130064Y16669D01*
X129414Y15823D01*
X129006Y14837D01*
X128933Y14279D01*
X132453D01*
Y17800D01*
D02*
G37*
G36*
X133453D02*
Y14279D01*
X136973D01*
X136900Y14837D01*
X136492Y15823D01*
X135842Y16669D01*
X134996Y17318D01*
X134011Y17726D01*
X133453Y17800D01*
D02*
G37*
G36*
X132953Y27651D02*
X131951Y27519D01*
X131017Y27132D01*
X130215Y26517D01*
X129600Y25715D01*
X129213Y24782D01*
X129081Y23779D01*
X129213Y22777D01*
X129600Y21844D01*
X130215Y21042D01*
X131017Y20426D01*
X131951Y20040D01*
X132953Y19908D01*
X133955Y20040D01*
X134889Y20426D01*
X135691Y21042D01*
X136306Y21844D01*
X136693Y22777D01*
X136825Y23779D01*
X136693Y24782D01*
X136306Y25715D01*
X135691Y26517D01*
X134889Y27132D01*
X133955Y27519D01*
X132953Y27651D01*
D02*
G37*
G36*
X126792Y27618D02*
X119114D01*
Y19941D01*
X126792D01*
Y27618D01*
D02*
G37*
G36*
X226791D02*
X219114D01*
Y19941D01*
X226791D01*
Y27618D01*
D02*
G37*
G36*
X112953Y27651D02*
X111951Y27519D01*
X111017Y27132D01*
X110215Y26517D01*
X109600Y25715D01*
X109213Y24782D01*
X109081Y23779D01*
X109213Y22777D01*
X109600Y21844D01*
X110215Y21042D01*
X111017Y20426D01*
X111951Y20040D01*
X112953Y19908D01*
X113955Y20040D01*
X114889Y20426D01*
X115691Y21042D01*
X116306Y21844D01*
X116693Y22777D01*
X116825Y23779D01*
X116693Y24782D01*
X116306Y25715D01*
X115691Y26517D01*
X114889Y27132D01*
X113955Y27519D01*
X112953Y27651D01*
D02*
G37*
G36*
X32453Y23280D02*
X28933D01*
X29006Y22722D01*
X29414Y21736D01*
X30064Y20890D01*
X30910Y20241D01*
X31896Y19833D01*
X32453Y19759D01*
Y23280D01*
D02*
G37*
G36*
X106973D02*
X103453D01*
Y19759D01*
X104011Y19833D01*
X104996Y20241D01*
X105842Y20890D01*
X106492Y21736D01*
X106900Y22722D01*
X106973Y23280D01*
D02*
G37*
G36*
X82953Y27651D02*
X81951Y27519D01*
X81017Y27132D01*
X80215Y26517D01*
X79600Y25715D01*
X79213Y24782D01*
X79081Y23779D01*
X79213Y22777D01*
X79600Y21844D01*
X80215Y21042D01*
X81017Y20426D01*
X81951Y20040D01*
X82953Y19908D01*
X83955Y20040D01*
X84889Y20426D01*
X85691Y21042D01*
X86306Y21844D01*
X86693Y22777D01*
X86825Y23779D01*
X86693Y24782D01*
X86306Y25715D01*
X85691Y26517D01*
X84889Y27132D01*
X83955Y27519D01*
X82953Y27651D01*
D02*
G37*
G36*
X82453Y17800D02*
X81896Y17726D01*
X80910Y17318D01*
X80064Y16669D01*
X79414Y15823D01*
X79006Y14837D01*
X78933Y14279D01*
X82453D01*
Y17800D01*
D02*
G37*
G36*
X136973Y13280D02*
X133453D01*
Y9759D01*
X134011Y9833D01*
X134996Y10241D01*
X135842Y10890D01*
X136492Y11737D01*
X136900Y12722D01*
X136973Y13280D01*
D02*
G37*
G36*
X162453D02*
X158933D01*
X159006Y12722D01*
X159414Y11737D01*
X160064Y10890D01*
X160910Y10241D01*
X161896Y9833D01*
X162453Y9759D01*
Y13280D01*
D02*
G37*
G36*
X166973D02*
X163453D01*
Y9759D01*
X164011Y9833D01*
X164996Y10241D01*
X165842Y10890D01*
X166492Y11737D01*
X166900Y12722D01*
X166973Y13280D01*
D02*
G37*
G36*
X132453D02*
X128933D01*
X129006Y12722D01*
X129414Y11737D01*
X130064Y10890D01*
X130910Y10241D01*
X131895Y9833D01*
X132453Y9759D01*
Y13280D01*
D02*
G37*
G36*
X13780Y29442D02*
X12111Y29311D01*
X10485Y28920D01*
X8939Y28280D01*
X7512Y27406D01*
X6240Y26319D01*
X5153Y25047D01*
X4279Y23620D01*
X3638Y22074D01*
X3248Y20448D01*
X3117Y18779D01*
X3248Y17111D01*
X3638Y15484D01*
X4279Y13939D01*
X5153Y12512D01*
X6240Y11240D01*
X7512Y10153D01*
X8939Y9279D01*
X10485Y8638D01*
X12111Y8248D01*
X13780Y8117D01*
X15448Y8248D01*
X17074Y8638D01*
X18620Y9279D01*
X20047Y10153D01*
X21319Y11240D01*
X22406Y12512D01*
X23280Y13939D01*
X23920Y15484D01*
X24311Y17111D01*
X24442Y18779D01*
X24311Y20448D01*
X23920Y22074D01*
X23280Y23620D01*
X22406Y25047D01*
X21319Y26319D01*
X20047Y27406D01*
X18620Y28280D01*
X17074Y28920D01*
X15448Y29311D01*
X13780Y29442D01*
D02*
G37*
G36*
X82453Y13280D02*
X78933D01*
X79006Y12722D01*
X79414Y11737D01*
X80064Y10890D01*
X80910Y10241D01*
X81896Y9833D01*
X82453Y9759D01*
Y13280D01*
D02*
G37*
G36*
X86973D02*
X83453D01*
Y9759D01*
X84011Y9833D01*
X84996Y10241D01*
X85842Y10890D01*
X86492Y11737D01*
X86900Y12722D01*
X86973Y13280D01*
D02*
G37*
G36*
X122953Y17651D02*
X121951Y17519D01*
X121017Y17132D01*
X120215Y16517D01*
X119600Y15715D01*
X119213Y14782D01*
X119081Y13780D01*
X119213Y12777D01*
X119600Y11844D01*
X120215Y11042D01*
X121017Y10426D01*
X121951Y10040D01*
X122953Y9908D01*
X123955Y10040D01*
X124889Y10426D01*
X125691Y11042D01*
X126306Y11844D01*
X126693Y12777D01*
X126825Y13780D01*
X126693Y14782D01*
X126306Y15715D01*
X125691Y16517D01*
X124889Y17132D01*
X123955Y17519D01*
X122953Y17651D01*
D02*
G37*
G36*
X212953D02*
X211951Y17519D01*
X211017Y17132D01*
X210215Y16517D01*
X209600Y15715D01*
X209213Y14782D01*
X209081Y13780D01*
X209213Y12777D01*
X209600Y11844D01*
X210215Y11042D01*
X211017Y10426D01*
X211951Y10040D01*
X212953Y9908D01*
X213955Y10040D01*
X214889Y10426D01*
X215690Y11042D01*
X216306Y11844D01*
X216692Y12777D01*
X216825Y13780D01*
X216692Y14782D01*
X216306Y15715D01*
X215690Y16517D01*
X214889Y17132D01*
X213955Y17519D01*
X212953Y17651D01*
D02*
G37*
G36*
X222953D02*
X221951Y17519D01*
X221017Y17132D01*
X220215Y16517D01*
X219600Y15715D01*
X219213Y14782D01*
X219081Y13780D01*
X219213Y12777D01*
X219600Y11844D01*
X220215Y11042D01*
X221017Y10426D01*
X221951Y10040D01*
X222953Y9908D01*
X223955Y10040D01*
X224889Y10426D01*
X225691Y11042D01*
X226306Y11844D01*
X226693Y12777D01*
X226824Y13780D01*
X226693Y14782D01*
X226306Y15715D01*
X225691Y16517D01*
X224889Y17132D01*
X223955Y17519D01*
X222953Y17651D01*
D02*
G37*
G36*
X112953D02*
X111951Y17519D01*
X111017Y17132D01*
X110215Y16517D01*
X109600Y15715D01*
X109213Y14782D01*
X109081Y13780D01*
X109213Y12777D01*
X109600Y11844D01*
X110215Y11042D01*
X111017Y10426D01*
X111951Y10040D01*
X112953Y9908D01*
X113955Y10040D01*
X114889Y10426D01*
X115691Y11042D01*
X116306Y11844D01*
X116693Y12777D01*
X116825Y13780D01*
X116693Y14782D01*
X116306Y15715D01*
X115691Y16517D01*
X114889Y17132D01*
X113955Y17519D01*
X112953Y17651D01*
D02*
G37*
G36*
X202453Y13280D02*
X198933D01*
X199006Y12722D01*
X199414Y11737D01*
X200064Y10890D01*
X200910Y10241D01*
X201895Y9833D01*
X202453Y9759D01*
Y13280D01*
D02*
G37*
G36*
X206973D02*
X203453D01*
Y9759D01*
X204011Y9833D01*
X204996Y10241D01*
X205842Y10890D01*
X206492Y11737D01*
X206900Y12722D01*
X206973Y13280D01*
D02*
G37*
G36*
X92953Y17651D02*
X91951Y17519D01*
X91017Y17132D01*
X90215Y16517D01*
X89600Y15715D01*
X89213Y14782D01*
X89081Y13780D01*
X89213Y12777D01*
X89600Y11844D01*
X90215Y11042D01*
X91017Y10426D01*
X91951Y10040D01*
X92953Y9908D01*
X93955Y10040D01*
X94889Y10426D01*
X95691Y11042D01*
X96306Y11844D01*
X96693Y12777D01*
X96825Y13780D01*
X96693Y14782D01*
X96306Y15715D01*
X95691Y16517D01*
X94889Y17132D01*
X93955Y17519D01*
X92953Y17651D01*
D02*
G37*
G36*
X32453Y27800D02*
X31896Y27726D01*
X30910Y27318D01*
X30064Y26669D01*
X29414Y25823D01*
X29006Y24837D01*
X28933Y24280D01*
X32453D01*
Y27800D01*
D02*
G37*
G36*
X45500Y63325D02*
X45072Y63240D01*
X44286Y62714D01*
X43760Y61928D01*
X43675Y61500D01*
X45500D01*
Y63325D01*
D02*
G37*
G36*
X46500D02*
Y61500D01*
X48325D01*
X48240Y61928D01*
X47714Y62714D01*
X46928Y63240D01*
X46500Y63325D01*
D02*
G37*
G36*
X238898Y63526D02*
X238547Y63456D01*
X237825Y62974D01*
X237343Y62253D01*
X237273Y61902D01*
X238898D01*
Y63526D01*
D02*
G37*
G36*
X48325Y60500D02*
X46500D01*
Y58675D01*
X46928Y58760D01*
X47714Y59286D01*
X48240Y60072D01*
X48325Y60500D01*
D02*
G37*
G36*
X245853Y56571D02*
X244228D01*
Y54947D01*
X244579Y55016D01*
X245301Y55498D01*
X245783Y56220D01*
X245853Y56571D01*
D02*
G37*
G36*
X201500Y76708D02*
X200655Y76540D01*
X199939Y76061D01*
X199460Y75345D01*
X199292Y74500D01*
X199460Y73655D01*
X199939Y72939D01*
X199970Y72918D01*
X200202Y72571D01*
X200290Y72133D01*
X200288Y72124D01*
X200296D01*
Y62773D01*
X200296Y62773D01*
X200387Y62312D01*
X200648Y61921D01*
X207008Y55562D01*
X206678Y55186D01*
X206390Y55407D01*
X205719Y55685D01*
X205000Y55780D01*
X204281Y55685D01*
X203610Y55407D01*
X203034Y54966D01*
X202593Y54390D01*
X202315Y53719D01*
X202220Y53000D01*
Y45500D01*
X202220Y45500D01*
X202220D01*
X202315Y44781D01*
X202593Y44110D01*
X203034Y43534D01*
X213035Y33535D01*
X213610Y33093D01*
X214281Y32815D01*
X215000Y32720D01*
X275000D01*
X275719Y32815D01*
X276390Y33093D01*
X276965Y33535D01*
X276965Y33535D01*
X276965Y33535D01*
X283965Y40534D01*
X283965Y40534D01*
X283965Y40534D01*
X284407Y41110D01*
X284604Y41584D01*
X284685Y41781D01*
X284780Y42500D01*
X284780Y42500D01*
X284780Y42500D01*
Y42500D01*
Y56976D01*
X285839D01*
Y64653D01*
X278161D01*
Y56976D01*
X279220D01*
Y43651D01*
X277489Y41921D01*
X277049Y42156D01*
X277208Y42957D01*
X277040Y43802D01*
X276561Y44518D01*
Y44939D01*
X277040Y45655D01*
X277208Y46500D01*
X277040Y47345D01*
X276561Y48061D01*
X275845Y48540D01*
X275000Y48708D01*
X274155Y48540D01*
X273439Y48061D01*
X273418Y48030D01*
X273071Y47798D01*
X272633Y47711D01*
X272624Y47712D01*
Y47709D01*
Y47704D01*
X271273D01*
X271273Y47704D01*
X270812Y47613D01*
X270421Y47352D01*
X264498Y41429D01*
X254006D01*
X253771Y41870D01*
X254240Y42572D01*
X254325Y43000D01*
X249675D01*
X249760Y42572D01*
X250229Y41870D01*
X249994Y41429D01*
X234506D01*
X234271Y41870D01*
X234740Y42572D01*
X234825Y43000D01*
X230175D01*
X230260Y42572D01*
X230729Y41870D01*
X230494Y41429D01*
X226774D01*
X206204Y61999D01*
Y69565D01*
X206212D01*
X206211Y69574D01*
X206297Y70012D01*
X206529Y70359D01*
X206561Y70380D01*
X207040Y71096D01*
X207208Y71941D01*
X207040Y72786D01*
X206561Y73502D01*
X205845Y73981D01*
X205000Y74149D01*
X204155Y73981D01*
X204063Y73919D01*
X203647Y74197D01*
X203708Y74500D01*
X203540Y75345D01*
X203061Y76061D01*
X202345Y76540D01*
X201500Y76708D01*
D02*
G37*
G36*
X45500Y60500D02*
X43675D01*
X43760Y60072D01*
X44286Y59286D01*
X45072Y58760D01*
X45500Y58675D01*
Y60500D01*
D02*
G37*
G36*
X48878Y74213D02*
X43366D01*
Y68701D01*
X44227D01*
X44545Y68314D01*
X44521Y68198D01*
X44382Y67989D01*
X44414Y67963D01*
X44082Y67467D01*
X43914Y66622D01*
X44082Y65777D01*
X44561Y65061D01*
X45277Y64582D01*
X46122Y64414D01*
X46967Y64582D01*
X47683Y65061D01*
X48162Y65777D01*
X48330Y66622D01*
X48162Y67467D01*
X47830Y67963D01*
X47862Y67989D01*
X47723Y68198D01*
X47699Y68314D01*
X48017Y68701D01*
X48878D01*
Y74213D01*
D02*
G37*
G36*
X99988D02*
X94476D01*
Y68701D01*
X95426D01*
Y67926D01*
X95193Y67577D01*
X95025Y66732D01*
X95193Y65887D01*
X95671Y65171D01*
X96387Y64693D01*
X97232Y64525D01*
X98077Y64693D01*
X98793Y65171D01*
X99272Y65887D01*
X99440Y66732D01*
X99272Y67577D01*
X99039Y67926D01*
Y68701D01*
X99988D01*
Y74213D01*
D02*
G37*
G36*
X281500Y70157D02*
X277980D01*
X278053Y69600D01*
X278461Y68614D01*
X279111Y67768D01*
X279957Y67119D01*
X280942Y66711D01*
X281500Y66637D01*
Y70157D01*
D02*
G37*
G36*
X30374Y74213D02*
X24862D01*
Y68701D01*
X25725D01*
X26042Y68314D01*
X26018Y68194D01*
X25878Y67985D01*
X25910Y67959D01*
X25578Y67463D01*
X25410Y66618D01*
X25578Y65773D01*
X26057Y65057D01*
X26773Y64578D01*
X27618Y64410D01*
X28463Y64578D01*
X29179Y65057D01*
X29658Y65773D01*
X29826Y66618D01*
X29658Y67463D01*
X29326Y67959D01*
X29358Y67985D01*
X29218Y68194D01*
X29194Y68314D01*
X29512Y68701D01*
X30374D01*
Y74213D01*
D02*
G37*
G36*
X244228Y63526D02*
Y61902D01*
X245853D01*
X245783Y62253D01*
X245301Y62974D01*
X244579Y63456D01*
X244228Y63526D01*
D02*
G37*
G36*
X243228D02*
X242877Y63456D01*
X242156Y62974D01*
X241813Y62461D01*
X241313D01*
X240970Y62974D01*
X240249Y63456D01*
X239898Y63526D01*
Y61402D01*
X239398D01*
Y60902D01*
X237273D01*
X237343Y60550D01*
X237825Y59829D01*
X238338Y59486D01*
Y58986D01*
X237825Y58643D01*
X237343Y57922D01*
X237273Y57571D01*
X239398D01*
Y57071D01*
X239898D01*
Y54947D01*
X240249Y55016D01*
X240970Y55498D01*
X241313Y56011D01*
X241813D01*
X242156Y55498D01*
X242877Y55016D01*
X243228Y54947D01*
Y57071D01*
X243728D01*
Y57571D01*
X245853D01*
X245783Y57922D01*
X245301Y58643D01*
X244788Y58986D01*
Y59486D01*
X245301Y59829D01*
X245783Y60550D01*
X245853Y60902D01*
X243728D01*
Y61402D01*
X243228D01*
Y63526D01*
D02*
G37*
G36*
X12807Y74213D02*
X7295D01*
Y68701D01*
X8176D01*
X8493Y68314D01*
X8458Y68137D01*
X8311Y67918D01*
X8343Y67892D01*
X8011Y67396D01*
X7843Y66551D01*
X8011Y65706D01*
X8490Y64990D01*
X9206Y64512D01*
X10051Y64343D01*
X10896Y64512D01*
X11612Y64990D01*
X12091Y65706D01*
X12259Y66551D01*
X12091Y67396D01*
X11759Y67892D01*
X11791Y67918D01*
X11645Y68137D01*
X11609Y68314D01*
X11927Y68701D01*
X12807D01*
Y74213D01*
D02*
G37*
G36*
X238898Y56571D02*
X237273D01*
X237343Y56220D01*
X237825Y55498D01*
X238547Y55016D01*
X238898Y54947D01*
Y56571D01*
D02*
G37*
G36*
X282000Y33520D02*
Y30000D01*
X285520D01*
X285447Y30558D01*
X285039Y31543D01*
X284389Y32389D01*
X283543Y33039D01*
X282558Y33447D01*
X282000Y33520D01*
D02*
G37*
G36*
X8500Y34500D02*
X6675D01*
X6760Y34072D01*
X7286Y33286D01*
X8072Y32760D01*
X8500Y32675D01*
Y34500D01*
D02*
G37*
G36*
X11325D02*
X9500D01*
Y32675D01*
X9928Y32760D01*
X10714Y33286D01*
X11240Y34072D01*
X11325Y34500D01*
D02*
G37*
G36*
X281000Y33520D02*
X280442Y33447D01*
X279457Y33039D01*
X278611Y32389D01*
X277961Y31543D01*
X277553Y30558D01*
X277480Y30000D01*
X281000D01*
Y33520D01*
D02*
G37*
G36*
X103453Y27800D02*
Y24280D01*
X106973D01*
X106900Y24837D01*
X106492Y25823D01*
X105842Y26669D01*
X104996Y27318D01*
X104011Y27726D01*
X103453Y27800D01*
D02*
G37*
G36*
X281000Y29000D02*
X277480D01*
X277553Y28442D01*
X277961Y27457D01*
X278611Y26611D01*
X279457Y25961D01*
X280442Y25553D01*
X281000Y25480D01*
Y29000D01*
D02*
G37*
G36*
X285520D02*
X282000D01*
Y25480D01*
X282558Y25553D01*
X283543Y25961D01*
X284389Y26611D01*
X285039Y27457D01*
X285447Y28442D01*
X285520Y29000D01*
D02*
G37*
G36*
X233000Y45825D02*
Y44000D01*
X234825D01*
X234740Y44428D01*
X234214Y45214D01*
X233428Y45740D01*
X233000Y45825D01*
D02*
G37*
G36*
X251500D02*
X251072Y45740D01*
X250286Y45214D01*
X249760Y44428D01*
X249675Y44000D01*
X251500D01*
Y45825D01*
D02*
G37*
G36*
X252500D02*
Y44000D01*
X254325D01*
X254240Y44428D01*
X253714Y45214D01*
X252928Y45740D01*
X252500Y45825D01*
D02*
G37*
G36*
X232000D02*
X231572Y45740D01*
X230786Y45214D01*
X230260Y44428D01*
X230175Y44000D01*
X232000D01*
Y45825D01*
D02*
G37*
G36*
X57500Y34708D02*
X56655Y34540D01*
X55939Y34061D01*
X55918Y34029D01*
X55571Y33797D01*
X55133Y33711D01*
X55132Y33711D01*
X55127Y33711D01*
X55127D01*
D01*
D01*
X55127Y33711D01*
X55124Y33712D01*
D01*
X55124Y33712D01*
Y33709D01*
X55124D01*
D01*
D01*
Y33709D01*
X55124Y33709D01*
D01*
D01*
D01*
D01*
X55124Y33704D01*
X40000D01*
X40000Y33704D01*
X39539Y33613D01*
X39149Y33351D01*
X39149Y33351D01*
X37148Y31352D01*
X36887Y30961D01*
X36796Y30500D01*
X36796Y30500D01*
Y26204D01*
X36322Y26043D01*
X35842Y26669D01*
X34996Y27318D01*
X34011Y27726D01*
X33453Y27800D01*
Y23779D01*
Y19759D01*
X34011Y19833D01*
X34996Y20241D01*
X35842Y20890D01*
X36322Y21516D01*
X36796Y21355D01*
Y19325D01*
X36638Y19168D01*
X36638Y19168D01*
X36628Y19177D01*
X36541Y19071D01*
X35568Y18324D01*
X34306Y17802D01*
X33059Y17637D01*
X32953Y17651D01*
X31951Y17519D01*
X31017Y17132D01*
X30215Y16517D01*
X29600Y15715D01*
X29213Y14782D01*
X29081Y13780D01*
X29213Y12777D01*
X29600Y11844D01*
X30215Y11042D01*
X31017Y10426D01*
X31951Y10040D01*
X32953Y9908D01*
X33955Y10040D01*
X34889Y10426D01*
X35691Y11042D01*
X36306Y11844D01*
X36693Y12777D01*
X36825Y13780D01*
X36811Y13885D01*
X36975Y15133D01*
X37497Y16394D01*
X38245Y17368D01*
X38351Y17455D01*
X38341Y17465D01*
X38341Y17465D01*
X38851Y17975D01*
X38851Y17975D01*
X39113Y18366D01*
X39204Y18826D01*
Y21582D01*
X39678Y21743D01*
X40215Y21042D01*
X41017Y20426D01*
X41951Y20040D01*
X42953Y19908D01*
X43955Y20040D01*
X44889Y20426D01*
X45691Y21042D01*
X46306Y21844D01*
X46693Y22777D01*
X46825Y23779D01*
X46693Y24782D01*
X46306Y25715D01*
X45691Y26517D01*
X44889Y27132D01*
X43955Y27519D01*
X42953Y27651D01*
X41951Y27519D01*
X41017Y27132D01*
X40215Y26517D01*
X39678Y25817D01*
X39204Y25977D01*
Y30001D01*
X40499Y31296D01*
X55124D01*
Y31291D01*
Y31288D01*
X55133Y31289D01*
X55571Y31203D01*
X55918Y30970D01*
X55939Y30939D01*
X56655Y30460D01*
X57500Y30292D01*
X58345Y30460D01*
X59061Y30939D01*
X59540Y31655D01*
X59708Y32500D01*
X59540Y33345D01*
X59061Y34061D01*
X58345Y34540D01*
X57500Y34708D01*
D02*
G37*
G36*
X8500Y37325D02*
X8072Y37240D01*
X7286Y36714D01*
X6760Y35928D01*
X6675Y35500D01*
X8500D01*
Y37325D01*
D02*
G37*
G36*
X9500D02*
Y35500D01*
X11325D01*
X11240Y35928D01*
X10714Y36714D01*
X9928Y37240D01*
X9500Y37325D01*
D02*
G37*
G36*
X100150Y120264D02*
X95161D01*
Y116024D01*
X100150D01*
Y120264D01*
D02*
G37*
G36*
X132693Y175067D02*
X128776D01*
X128862Y174407D01*
X129310Y173325D01*
X130023Y172397D01*
X130951Y171684D01*
X132033Y171237D01*
X132693Y171150D01*
Y175067D01*
D02*
G37*
G36*
X137610D02*
X133693D01*
Y171150D01*
X134353Y171237D01*
X135434Y171684D01*
X136363Y172397D01*
X137075Y173325D01*
X137523Y174407D01*
X137610Y175067D01*
D02*
G37*
G36*
X64311Y179799D02*
X55847D01*
Y171335D01*
X64311D01*
Y179799D01*
D02*
G37*
G36*
X124224Y175067D02*
X120307D01*
Y171150D01*
X120967Y171237D01*
X122049Y171684D01*
X122977Y172397D01*
X123690Y173325D01*
X124138Y174407D01*
X124224Y175067D01*
D02*
G37*
G36*
X89693D02*
X85776D01*
X85862Y174407D01*
X86310Y173325D01*
X87023Y172397D01*
X87951Y171684D01*
X89033Y171237D01*
X89693Y171150D01*
Y175067D01*
D02*
G37*
G36*
X94610D02*
X90693D01*
Y171150D01*
X91353Y171237D01*
X92435Y171684D01*
X93363Y172397D01*
X94076Y173325D01*
X94523Y174407D01*
X94610Y175067D01*
D02*
G37*
G36*
X119307D02*
X115390D01*
X115477Y174407D01*
X115925Y173325D01*
X116637Y172397D01*
X117566Y171684D01*
X118647Y171237D01*
X119307Y171150D01*
Y175067D01*
D02*
G37*
G36*
X46193Y179984D02*
X45533Y179897D01*
X44451Y179449D01*
X43523Y178737D01*
X42810Y177808D01*
X42362Y176727D01*
X42276Y176067D01*
X46193D01*
Y179984D01*
D02*
G37*
G36*
X47193D02*
Y176067D01*
X51110D01*
X51023Y176727D01*
X50576Y177808D01*
X49863Y178737D01*
X48935Y179449D01*
X47853Y179897D01*
X47193Y179984D01*
D02*
G37*
G36*
X76307D02*
X75647Y179897D01*
X74566Y179449D01*
X73637Y178737D01*
X72925Y177808D01*
X72477Y176727D01*
X72390Y176067D01*
X76307D01*
Y179984D01*
D02*
G37*
G36*
X33807D02*
Y176067D01*
X37725D01*
X37638Y176727D01*
X37190Y177808D01*
X36477Y178737D01*
X35549Y179449D01*
X34467Y179897D01*
X33807Y179984D01*
D02*
G37*
G36*
X107811Y179799D02*
X99347D01*
Y171335D01*
X107811D01*
Y179799D01*
D02*
G37*
G36*
X150811D02*
X142347D01*
Y171335D01*
X150811D01*
Y179799D01*
D02*
G37*
G36*
X32807Y179984D02*
X32147Y179897D01*
X31065Y179449D01*
X30137Y178737D01*
X29425Y177808D01*
X28977Y176727D01*
X28890Y176067D01*
X32807D01*
Y179984D01*
D02*
G37*
G36*
X81225Y175067D02*
X77307D01*
Y171150D01*
X77967Y171237D01*
X79049Y171684D01*
X79977Y172397D01*
X80690Y173325D01*
X81138Y174407D01*
X81225Y175067D01*
D02*
G37*
G36*
X228776Y169386D02*
X223984D01*
Y165697D01*
X228776D01*
Y169386D01*
D02*
G37*
G36*
X222984Y174075D02*
X218193D01*
Y170386D01*
X222984D01*
Y174075D01*
D02*
G37*
G36*
X228776D02*
X223984D01*
Y170386D01*
X228776D01*
Y174075D01*
D02*
G37*
G36*
X222984Y169386D02*
X218193D01*
Y165697D01*
X222984D01*
Y169386D01*
D02*
G37*
G36*
X139886Y165269D02*
X138781Y165123D01*
X137751Y164697D01*
X136867Y164018D01*
X136189Y163134D01*
X135763Y162105D01*
X135617Y161000D01*
X135763Y159895D01*
X136189Y158866D01*
X136867Y157982D01*
X137751Y157303D01*
X138781Y156877D01*
X139886Y156731D01*
X140991Y156877D01*
X142020Y157303D01*
X142904Y157982D01*
X143583Y158866D01*
X144009Y159895D01*
X144155Y161000D01*
X144009Y162105D01*
X143583Y163134D01*
X142904Y164018D01*
X142020Y164697D01*
X140991Y165123D01*
X139886Y165269D01*
D02*
G37*
G36*
X284000Y169500D02*
X279487D01*
X279594Y168685D01*
X280102Y167461D01*
X280909Y166409D01*
X281961Y165602D01*
X283186Y165094D01*
X284000Y164987D01*
Y169500D01*
D02*
G37*
G36*
X289513D02*
X285000D01*
Y164987D01*
X285814Y165094D01*
X287039Y165602D01*
X288091Y166409D01*
X288898Y167461D01*
X289406Y168685D01*
X289513Y169500D01*
D02*
G37*
G36*
X46193Y175067D02*
X42276D01*
X42362Y174407D01*
X42810Y173325D01*
X43523Y172397D01*
X44451Y171684D01*
X45533Y171237D01*
X46193Y171150D01*
Y175067D01*
D02*
G37*
G36*
X51110D02*
X47193D01*
Y171150D01*
X47853Y171237D01*
X48935Y171684D01*
X49863Y172397D01*
X50576Y173325D01*
X51023Y174407D01*
X51110Y175067D01*
D02*
G37*
G36*
X76307D02*
X72390D01*
X72477Y174407D01*
X72925Y173325D01*
X73637Y172397D01*
X74566Y171684D01*
X75647Y171237D01*
X76307Y171150D01*
Y175067D01*
D02*
G37*
G36*
X37725D02*
X33807D01*
Y171150D01*
X34467Y171237D01*
X35549Y171684D01*
X36477Y172397D01*
X37190Y173325D01*
X37638Y174407D01*
X37725Y175067D01*
D02*
G37*
G36*
X284000Y175013D02*
X283186Y174906D01*
X281961Y174398D01*
X280909Y173591D01*
X280102Y172539D01*
X279594Y171315D01*
X279487Y170500D01*
X284000D01*
Y175013D01*
D02*
G37*
G36*
X285000D02*
Y170500D01*
X289513D01*
X289406Y171315D01*
X288898Y172539D01*
X288091Y173591D01*
X287039Y174398D01*
X285814Y174906D01*
X285000Y175013D01*
D02*
G37*
G36*
X32807Y175067D02*
X28890D01*
X28977Y174407D01*
X29425Y173325D01*
X30137Y172397D01*
X31065Y171684D01*
X32147Y171237D01*
X32807Y171150D01*
Y175067D01*
D02*
G37*
G36*
X77307Y179984D02*
Y176067D01*
X81225D01*
X81138Y176727D01*
X80690Y177808D01*
X79977Y178737D01*
X79049Y179449D01*
X77967Y179897D01*
X77307Y179984D01*
D02*
G37*
G36*
X144315Y207264D02*
X135850D01*
Y198799D01*
X144315D01*
Y207264D01*
D02*
G37*
G36*
X13780Y222356D02*
X12111Y222224D01*
X10485Y221834D01*
X8939Y221194D01*
X7512Y220319D01*
X6240Y219233D01*
X5153Y217960D01*
X4279Y216534D01*
X3638Y214988D01*
X3248Y213361D01*
X3117Y211693D01*
X3248Y210025D01*
X3638Y208398D01*
X4279Y206852D01*
X5153Y205425D01*
X6240Y204153D01*
X7512Y203066D01*
X8939Y202192D01*
X10485Y201552D01*
X12111Y201161D01*
X13780Y201030D01*
X15448Y201161D01*
X17074Y201552D01*
X18620Y202192D01*
X20047Y203066D01*
X21319Y204153D01*
X22406Y205425D01*
X23280Y206852D01*
X23920Y208398D01*
X24311Y210025D01*
X24442Y211693D01*
X24311Y213361D01*
X23920Y214988D01*
X23280Y216534D01*
X22406Y217960D01*
X21319Y219233D01*
X20047Y220319D01*
X18620Y221194D01*
X17074Y221834D01*
X15448Y222224D01*
X13780Y222356D01*
D02*
G37*
G36*
X242126D02*
X240458Y222224D01*
X238831Y221834D01*
X237285Y221194D01*
X235858Y220319D01*
X234586Y219233D01*
X233500Y217960D01*
X232625Y216534D01*
X231985Y214988D01*
X231594Y213361D01*
X231463Y211693D01*
X231594Y210025D01*
X231985Y208398D01*
X232625Y206852D01*
X233500Y205425D01*
X234586Y204153D01*
X235858Y203066D01*
X237285Y202192D01*
X238831Y201552D01*
X240458Y201161D01*
X242126Y201030D01*
X243794Y201161D01*
X245421Y201552D01*
X246967Y202192D01*
X248393Y203066D01*
X249666Y204153D01*
X250752Y205425D01*
X251626Y206852D01*
X252267Y208398D01*
X252657Y210025D01*
X252789Y211693D01*
X252657Y213361D01*
X252267Y214988D01*
X251626Y216534D01*
X250752Y217960D01*
X249666Y219233D01*
X248393Y220319D01*
X246967Y221194D01*
X245421Y221834D01*
X243794Y222224D01*
X242126Y222356D01*
D02*
G37*
G36*
X101315Y207264D02*
X92850D01*
Y198799D01*
X101315D01*
Y207264D01*
D02*
G37*
G36*
X125803Y202532D02*
X121886D01*
X121973Y201871D01*
X122421Y200790D01*
X123133Y199861D01*
X124062Y199149D01*
X125143Y198701D01*
X125803Y198614D01*
Y202532D01*
D02*
G37*
G36*
X130721D02*
X126803D01*
Y198614D01*
X127463Y198701D01*
X128545Y199149D01*
X129473Y199861D01*
X130186Y200790D01*
X130634Y201871D01*
X130721Y202532D01*
D02*
G37*
G36*
X57815Y207232D02*
X49350D01*
Y198768D01*
X57815D01*
Y207232D01*
D02*
G37*
G36*
X83803Y207449D02*
Y203532D01*
X87721D01*
X87634Y204192D01*
X87186Y205273D01*
X86473Y206202D01*
X85545Y206914D01*
X84464Y207362D01*
X83803Y207449D01*
D02*
G37*
G36*
X125803D02*
X125143Y207362D01*
X124062Y206914D01*
X123133Y206202D01*
X122421Y205273D01*
X121973Y204192D01*
X121886Y203532D01*
X125803D01*
Y207449D01*
D02*
G37*
G36*
X126803D02*
Y203532D01*
X130721D01*
X130634Y204192D01*
X130186Y205273D01*
X129473Y206202D01*
X128545Y206914D01*
X127463Y207362D01*
X126803Y207449D01*
D02*
G37*
G36*
X82803D02*
X82143Y207362D01*
X81062Y206914D01*
X80133Y206202D01*
X79421Y205273D01*
X78973Y204192D01*
X78886Y203532D01*
X82803D01*
Y207449D01*
D02*
G37*
G36*
X283465Y222356D02*
X281797Y222224D01*
X280170Y221834D01*
X278624Y221194D01*
X277197Y220319D01*
X275925Y219233D01*
X274838Y217960D01*
X273964Y216534D01*
X273324Y214988D01*
X272933Y213361D01*
X272802Y211693D01*
X272933Y210025D01*
X273324Y208398D01*
X273964Y206852D01*
X274838Y205425D01*
X275925Y204153D01*
X277197Y203066D01*
X278624Y202192D01*
X280170Y201552D01*
X281797Y201161D01*
X283465Y201030D01*
X285133Y201161D01*
X286759Y201552D01*
X288305Y202192D01*
X289732Y203066D01*
X291004Y204153D01*
X292091Y205425D01*
X292965Y206852D01*
X293605Y208398D01*
X293996Y210025D01*
X294127Y211693D01*
X293996Y213361D01*
X293605Y214988D01*
X292965Y216534D01*
X292091Y217960D01*
X291004Y219233D01*
X289732Y220319D01*
X288305Y221194D01*
X286759Y221834D01*
X285133Y222224D01*
X283465Y222356D01*
D02*
G37*
G36*
X39303Y207417D02*
X38643Y207330D01*
X37562Y206883D01*
X36633Y206170D01*
X35921Y205242D01*
X35473Y204160D01*
X35386Y203500D01*
X39303D01*
Y207417D01*
D02*
G37*
G36*
X40303D02*
Y203500D01*
X44221D01*
X44134Y204160D01*
X43686Y205242D01*
X42973Y206170D01*
X42045Y206883D01*
X40964Y207330D01*
X40303Y207417D01*
D02*
G37*
G36*
X87721Y202532D02*
X83803D01*
Y198614D01*
X84464Y198701D01*
X85545Y199149D01*
X86473Y199861D01*
X87186Y200790D01*
X87634Y201871D01*
X87721Y202532D01*
D02*
G37*
G36*
X132693Y179984D02*
X132033Y179897D01*
X130951Y179449D01*
X130023Y178737D01*
X129310Y177808D01*
X128862Y176727D01*
X128776Y176067D01*
X132693D01*
Y179984D01*
D02*
G37*
G36*
X133693D02*
Y176067D01*
X137610D01*
X137523Y176727D01*
X137075Y177808D01*
X136363Y178737D01*
X135434Y179449D01*
X134353Y179897D01*
X133693Y179984D01*
D02*
G37*
G36*
X183445Y191365D02*
X182186Y191199D01*
X181013Y190713D01*
X180005Y189940D01*
X179232Y188932D01*
X178746Y187759D01*
X178580Y186500D01*
X178746Y185241D01*
X179232Y184068D01*
X180005Y183060D01*
X181013Y182287D01*
X182186Y181801D01*
X183445Y181635D01*
X184704Y181801D01*
X185877Y182287D01*
X186885Y183060D01*
X187658Y184068D01*
X188144Y185241D01*
X188309Y186500D01*
X188144Y187759D01*
X187658Y188932D01*
X186885Y189940D01*
X185877Y190713D01*
X184704Y191199D01*
X183445Y191365D01*
D02*
G37*
G36*
X120307Y179984D02*
Y176067D01*
X124224D01*
X124138Y176727D01*
X123690Y177808D01*
X122977Y178737D01*
X122049Y179449D01*
X120967Y179897D01*
X120307Y179984D01*
D02*
G37*
G36*
X89693D02*
X89033Y179897D01*
X87951Y179449D01*
X87023Y178737D01*
X86310Y177808D01*
X85862Y176727D01*
X85776Y176067D01*
X89693D01*
Y179984D01*
D02*
G37*
G36*
X90693D02*
Y176067D01*
X94610D01*
X94523Y176727D01*
X94076Y177808D01*
X93363Y178737D01*
X92435Y179449D01*
X91353Y179897D01*
X90693Y179984D01*
D02*
G37*
G36*
X119307D02*
X118647Y179897D01*
X117566Y179449D01*
X116637Y178737D01*
X115925Y177808D01*
X115477Y176727D01*
X115390Y176067D01*
X119307D01*
Y179984D01*
D02*
G37*
G36*
X39303Y202500D02*
X35386D01*
X35473Y201840D01*
X35921Y200758D01*
X36633Y199830D01*
X37562Y199117D01*
X38643Y198670D01*
X39303Y198583D01*
Y202500D01*
D02*
G37*
G36*
X44221D02*
X40303D01*
Y198583D01*
X40964Y198670D01*
X42045Y199117D01*
X42973Y199830D01*
X43686Y200758D01*
X44134Y201840D01*
X44221Y202500D01*
D02*
G37*
G36*
X82803Y202532D02*
X78886D01*
X78973Y201871D01*
X79421Y200790D01*
X80133Y199861D01*
X81062Y199149D01*
X82143Y198701D01*
X82803Y198614D01*
Y202532D01*
D02*
G37*
G36*
X289323Y194823D02*
X279677D01*
Y185177D01*
X289323D01*
Y194823D01*
D02*
G37*
G36*
X242500Y191365D02*
X241241Y191199D01*
X240068Y190713D01*
X239060Y189940D01*
X238287Y188932D01*
X237801Y187759D01*
X237636Y186500D01*
X237801Y185241D01*
X238287Y184068D01*
X239060Y183060D01*
X240068Y182287D01*
X241241Y181801D01*
X242500Y181635D01*
X243759Y181801D01*
X244932Y182287D01*
X245940Y183060D01*
X246713Y184068D01*
X247199Y185241D01*
X247364Y186500D01*
X247199Y187759D01*
X246713Y188932D01*
X245940Y189940D01*
X244932Y190713D01*
X243759Y191199D01*
X242500Y191365D01*
D02*
G37*
G36*
X262185D02*
X260926Y191199D01*
X259753Y190713D01*
X258745Y189940D01*
X257972Y188932D01*
X257486Y187759D01*
X257321Y186500D01*
X257486Y185241D01*
X257972Y184068D01*
X258745Y183060D01*
X259753Y182287D01*
X260926Y181801D01*
X262185Y181635D01*
X263444Y181801D01*
X264617Y182287D01*
X265625Y183060D01*
X266398Y184068D01*
X266884Y185241D01*
X267050Y186500D01*
X266884Y187759D01*
X266398Y188932D01*
X265625Y189940D01*
X264617Y190713D01*
X263444Y191199D01*
X262185Y191365D01*
D02*
G37*
G36*
X203130D02*
X201871Y191199D01*
X200698Y190713D01*
X199690Y189940D01*
X198917Y188932D01*
X198431Y187759D01*
X198266Y186500D01*
X198431Y185241D01*
X198917Y184068D01*
X199690Y183060D01*
X200698Y182287D01*
X201871Y181801D01*
X203130Y181635D01*
X204389Y181801D01*
X205562Y182287D01*
X206136Y182728D01*
X218406D01*
Y182524D01*
X228563D01*
Y190476D01*
X218406D01*
Y190272D01*
X206136D01*
X205562Y190713D01*
X204389Y191199D01*
X203130Y191365D01*
D02*
G37*
G36*
X96886Y165269D02*
X95781Y165123D01*
X94751Y164697D01*
X93867Y164018D01*
X93189Y163134D01*
X92763Y162105D01*
X92617Y161000D01*
X92763Y159895D01*
X93189Y158866D01*
X93867Y157982D01*
X94751Y157303D01*
X95781Y156877D01*
X96886Y156731D01*
X97991Y156877D01*
X99020Y157303D01*
X99904Y157982D01*
X100583Y158866D01*
X101009Y159895D01*
X101155Y161000D01*
X101009Y162105D01*
X100583Y163134D01*
X99904Y164018D01*
X99020Y164697D01*
X97991Y165123D01*
X96886Y165269D01*
D02*
G37*
G36*
X281000Y131209D02*
X277449D01*
Y127657D01*
X281000D01*
Y131209D01*
D02*
G37*
G36*
X285551D02*
X282000D01*
Y127657D01*
X285551D01*
Y131209D01*
D02*
G37*
G36*
X255500Y130752D02*
X252441D01*
Y127693D01*
X255500D01*
Y130752D01*
D02*
G37*
G36*
X136469Y128425D02*
X134000D01*
Y125957D01*
X136469D01*
Y128425D01*
D02*
G37*
G36*
X90000D02*
X87532D01*
Y125957D01*
X90000D01*
Y128425D01*
D02*
G37*
G36*
X93468D02*
X91000D01*
Y125957D01*
X93468D01*
Y128425D01*
D02*
G37*
G36*
X133000D02*
X130532D01*
Y125957D01*
X133000D01*
Y128425D01*
D02*
G37*
G36*
X259559Y130752D02*
X256500D01*
Y127693D01*
X259559D01*
Y130752D01*
D02*
G37*
G36*
X126500Y165269D02*
X125395Y165123D01*
X124366Y164697D01*
X123482Y164018D01*
X122803Y163134D01*
X122377Y162105D01*
X122231Y161000D01*
X122377Y159895D01*
X122803Y158866D01*
X123482Y157982D01*
X123566Y157916D01*
X124269Y157000D01*
X124752Y155835D01*
X124894Y154753D01*
Y154664D01*
X124887Y154584D01*
X124894D01*
Y139106D01*
X119500D01*
X118886Y138983D01*
X118365Y138635D01*
X118017Y138115D01*
X117894Y137500D01*
Y135395D01*
X117887D01*
X117892Y135358D01*
X117804Y134916D01*
X117536Y134514D01*
X117529Y134514D01*
X117529D01*
X117470Y134424D01*
X117093Y133933D01*
X116815Y133263D01*
X116720Y132543D01*
X116815Y131824D01*
X117093Y131154D01*
X117534Y130578D01*
X118110Y130136D01*
X118781Y129858D01*
X119500Y129764D01*
X120219Y129858D01*
X120890Y130136D01*
X121466Y130578D01*
X121907Y131154D01*
X122185Y131824D01*
X122280Y132543D01*
X122185Y133263D01*
X121907Y133933D01*
X121530Y134425D01*
X121470Y134514D01*
X121470D01*
X121464Y134514D01*
X121196Y134916D01*
X121108Y135358D01*
X121113Y135395D01*
X121113D01*
Y135541D01*
X121467Y135894D01*
X124887D01*
Y135395D01*
X124162Y135299D01*
X123744D01*
Y129787D01*
X129256D01*
Y135299D01*
X128840D01*
X128113Y135395D01*
Y135541D01*
X128467Y135894D01*
X131887D01*
Y135395D01*
X131162Y135299D01*
X130744D01*
Y129787D01*
X136256D01*
Y135299D01*
X135840D01*
X135113Y135395D01*
Y135395D01*
X135106Y135395D01*
Y137500D01*
X134983Y138115D01*
X134635Y138635D01*
X134115Y138983D01*
X133500Y139106D01*
X128106D01*
Y154584D01*
X128113D01*
X128106Y154664D01*
Y154753D01*
X128248Y155835D01*
X128731Y157000D01*
X129434Y157916D01*
X129518Y157982D01*
X130197Y158866D01*
X130623Y159895D01*
X130769Y161000D01*
X130623Y162105D01*
X130197Y163134D01*
X129518Y164018D01*
X128634Y164697D01*
X127605Y165123D01*
X126500Y165269D01*
D02*
G37*
G36*
X178957Y134000D02*
X176488D01*
Y131532D01*
X178957D01*
Y134000D01*
D02*
G37*
G36*
X182425D02*
X179957D01*
Y131532D01*
X182425D01*
Y134000D01*
D02*
G37*
G36*
X83500Y165269D02*
X82395Y165123D01*
X81366Y164697D01*
X80481Y164018D01*
X79803Y163134D01*
X79377Y162105D01*
X79231Y161000D01*
X79377Y159895D01*
X79803Y158866D01*
X80481Y157982D01*
X80566Y157916D01*
X81269Y157000D01*
X81752Y155835D01*
X81894Y154753D01*
Y154664D01*
X81887Y154584D01*
X81894D01*
Y139106D01*
X76500D01*
X75886Y138983D01*
X75365Y138635D01*
X75017Y138115D01*
X74894Y137500D01*
Y135395D01*
X74887D01*
X74892Y135358D01*
X74804Y134916D01*
X74536Y134514D01*
X74529Y134514D01*
X74529D01*
X74470Y134424D01*
X74093Y133933D01*
X73815Y133263D01*
X73720Y132543D01*
X73815Y131824D01*
X74093Y131154D01*
X74534Y130578D01*
X75110Y130136D01*
X75781Y129858D01*
X76500Y129764D01*
X77219Y129858D01*
X77890Y130136D01*
X78465Y130578D01*
X78907Y131154D01*
X79185Y131824D01*
X79280Y132543D01*
X79185Y133263D01*
X78907Y133933D01*
X78530Y134425D01*
X78470Y134514D01*
X78470D01*
X78464Y134514D01*
X78196Y134916D01*
X78108Y135358D01*
X78113Y135395D01*
X78113D01*
Y135541D01*
X78467Y135894D01*
X81887D01*
Y135395D01*
X81162Y135299D01*
X80744D01*
Y129787D01*
X86256D01*
Y135299D01*
X85840D01*
X85113Y135395D01*
Y135541D01*
X85467Y135894D01*
X88887D01*
Y135395D01*
X88162Y135299D01*
X87744D01*
Y129787D01*
X93256D01*
Y135299D01*
X92840D01*
X92113Y135395D01*
Y135395D01*
X92106Y135395D01*
Y137500D01*
X91983Y138115D01*
X91635Y138635D01*
X91114Y138983D01*
X90500Y139106D01*
X85106D01*
Y154584D01*
X85114D01*
X85106Y154664D01*
Y154753D01*
X85248Y155835D01*
X85731Y157000D01*
X86434Y157916D01*
X86519Y157982D01*
X87197Y158866D01*
X87623Y159895D01*
X87769Y161000D01*
X87623Y162105D01*
X87197Y163134D01*
X86519Y164018D01*
X85634Y164697D01*
X84605Y165123D01*
X83500Y165269D01*
D02*
G37*
G36*
X163760Y131276D02*
X162079D01*
Y128020D01*
X163760D01*
Y131276D01*
D02*
G37*
G36*
X166441D02*
X164760D01*
Y128020D01*
X166441D01*
Y131276D01*
D02*
G37*
G36*
X40000Y165269D02*
X38895Y165123D01*
X37866Y164697D01*
X36981Y164018D01*
X36303Y163134D01*
X35877Y162105D01*
X35731Y161000D01*
X35877Y159895D01*
X36303Y158866D01*
X36981Y157982D01*
X37066Y157916D01*
X37769Y157000D01*
X38252Y155835D01*
X38394Y154753D01*
Y154664D01*
X38386Y154584D01*
X38394D01*
Y139106D01*
X33000D01*
X32386Y138983D01*
X31865Y138635D01*
X31517Y138115D01*
X31394Y137500D01*
Y135395D01*
X31387D01*
X31392Y135358D01*
X31304Y134916D01*
X31036Y134514D01*
X31029Y134514D01*
X31029D01*
X30970Y134425D01*
X30593Y133933D01*
X30315Y133263D01*
X30220Y132543D01*
X30315Y131824D01*
X30593Y131154D01*
X31034Y130578D01*
X31610Y130136D01*
X32281Y129858D01*
X33000Y129764D01*
X33719Y129858D01*
X34390Y130136D01*
X34966Y130578D01*
X35407Y131154D01*
X35685Y131824D01*
X35780Y132543D01*
X35685Y133263D01*
X35407Y133933D01*
X35030Y134425D01*
X34971Y134514D01*
X34971D01*
X34964Y134514D01*
X34696Y134916D01*
X34608Y135358D01*
X34613Y135395D01*
X34613D01*
Y135541D01*
X34967Y135894D01*
X38387D01*
Y135395D01*
X37662Y135299D01*
X37244D01*
Y129787D01*
X42756D01*
Y135299D01*
X42338D01*
X41613Y135395D01*
Y135541D01*
X41967Y135894D01*
X45387D01*
Y135395D01*
X44662Y135299D01*
X44244D01*
Y129787D01*
X49756D01*
Y135299D01*
X49338D01*
X48613Y135395D01*
Y135395D01*
X48606Y135395D01*
Y137500D01*
X48483Y138115D01*
X48135Y138635D01*
X47614Y138983D01*
X47000Y139106D01*
X41606D01*
Y154584D01*
X41613D01*
X41606Y154664D01*
Y154753D01*
X41748Y155835D01*
X42231Y157000D01*
X42934Y157916D01*
X43018Y157982D01*
X43697Y158866D01*
X44123Y159895D01*
X44269Y161000D01*
X44123Y162105D01*
X43697Y163134D01*
X43018Y164018D01*
X42134Y164697D01*
X41105Y165123D01*
X40000Y165269D01*
D02*
G37*
G36*
X49968Y128425D02*
X47500D01*
Y125957D01*
X49968D01*
Y128425D01*
D02*
G37*
G36*
X167425Y124000D02*
X164957D01*
Y121531D01*
X167425D01*
Y124000D01*
D02*
G37*
G36*
X46500Y124957D02*
X44032D01*
Y122488D01*
X46500D01*
Y124957D01*
D02*
G37*
G36*
X49968D02*
X47500D01*
Y122488D01*
X49968D01*
Y124957D01*
D02*
G37*
G36*
X106138Y125504D02*
X101150D01*
Y121264D01*
X106138D01*
Y125504D01*
D02*
G37*
G36*
Y120264D02*
X101150D01*
Y116024D01*
X106138D01*
Y120264D01*
D02*
G37*
G36*
X58500Y122504D02*
X52980D01*
Y116197D01*
X58500D01*
Y122504D01*
D02*
G37*
G36*
X100150Y125504D02*
X95161D01*
Y121264D01*
X100150D01*
Y125504D01*
D02*
G37*
G36*
X90000Y124957D02*
X87532D01*
Y122488D01*
X90000D01*
Y124957D01*
D02*
G37*
G36*
X285551Y126657D02*
X282000D01*
Y123106D01*
X285551D01*
Y126657D01*
D02*
G37*
G36*
X167425Y127469D02*
X164957D01*
Y125000D01*
X167425D01*
Y127469D01*
D02*
G37*
G36*
X46500Y128425D02*
X44032D01*
Y125957D01*
X46500D01*
Y128425D01*
D02*
G37*
G36*
X281000Y126657D02*
X277449D01*
Y123106D01*
X281000D01*
Y126657D01*
D02*
G37*
G36*
X93468Y124957D02*
X91000D01*
Y122488D01*
X93468D01*
Y124957D01*
D02*
G37*
G36*
X133000D02*
X130532D01*
Y122488D01*
X133000D01*
Y124957D01*
D02*
G37*
G36*
X136469D02*
X134000D01*
Y122488D01*
X136469D01*
Y124957D01*
D02*
G37*
G36*
X202957Y134000D02*
X200488D01*
Y131532D01*
X202957D01*
Y134000D01*
D02*
G37*
G36*
X174339Y163839D02*
X166661D01*
Y156161D01*
X174339D01*
Y163839D01*
D02*
G37*
G36*
X222339Y163681D02*
X214661D01*
Y156004D01*
X222339D01*
Y163681D01*
D02*
G37*
G36*
X194500Y154029D02*
X193498Y153897D01*
X192564Y153510D01*
X191762Y152895D01*
X191724Y152846D01*
X190972Y152268D01*
X190037Y151881D01*
X189141Y151763D01*
X189067D01*
X189035Y151766D01*
Y151763D01*
X184968D01*
Y153587D01*
X181032D01*
Y146500D01*
X184968D01*
Y148552D01*
X189035D01*
Y148549D01*
X189067Y148552D01*
X189141D01*
X190037Y148434D01*
X190972Y148047D01*
X191724Y147469D01*
X191762Y147420D01*
X192564Y146804D01*
X193498Y146418D01*
X194500Y146286D01*
X195502Y146418D01*
X196436Y146804D01*
X197238Y147420D01*
X197853Y148222D01*
X198240Y149155D01*
X198372Y150157D01*
X198240Y151160D01*
X197853Y152093D01*
X197238Y152895D01*
X196436Y153510D01*
X195502Y153897D01*
X194500Y154029D01*
D02*
G37*
G36*
X181441Y141276D02*
X179760D01*
Y138020D01*
X181441D01*
Y141276D01*
D02*
G37*
G36*
X202760D02*
X201079D01*
Y138020D01*
X202760D01*
Y141276D01*
D02*
G37*
G36*
X198339Y163839D02*
X190661D01*
Y156161D01*
X198339D01*
Y163839D01*
D02*
G37*
G36*
X205441Y141276D02*
X203760D01*
Y138020D01*
X205441D01*
Y141276D01*
D02*
G37*
G36*
X202760Y145531D02*
X201079D01*
Y142276D01*
X202760D01*
Y145531D01*
D02*
G37*
G36*
X205441D02*
X203760D01*
Y142276D01*
X205441D01*
Y145531D01*
D02*
G37*
G36*
X281500Y150714D02*
X280498Y150582D01*
X279564Y150196D01*
X278762Y149580D01*
X278735Y149545D01*
X278081Y149043D01*
X277277Y148710D01*
X276486Y148606D01*
X275714D01*
X275655Y148611D01*
Y148606D01*
X260249D01*
X259585Y148693D01*
X258940Y148960D01*
X258391Y149381D01*
X258387Y149387D01*
X258388Y149388D01*
X258363Y149405D01*
X257688Y149923D01*
X256874Y150260D01*
X256000Y150375D01*
X255126Y150260D01*
X254312Y149923D01*
X253637Y149405D01*
X253612Y149388D01*
X253613Y149387D01*
X253609Y149381D01*
X253061Y148960D01*
X252415Y148693D01*
X251751Y148606D01*
X233500D01*
X233500Y148606D01*
X232987Y148504D01*
X232886Y148483D01*
X232365Y148135D01*
X232365Y148135D01*
X208866Y124637D01*
X207493D01*
X207302Y125099D01*
X211395Y129192D01*
X211395Y129192D01*
X211656Y129583D01*
X211656Y129583D01*
X211656Y129583D01*
X211748Y130043D01*
X211748Y130043D01*
Y130698D01*
X211767D01*
X211760Y130756D01*
X211841Y131369D01*
X211996Y131744D01*
X213299D01*
Y137256D01*
X212048D01*
X211944Y137775D01*
Y138232D01*
X212709D01*
Y145319D01*
X208772D01*
Y138232D01*
X209101D01*
X209378Y137817D01*
X209146Y137256D01*
X207787D01*
Y131744D01*
X209091D01*
X209246Y131369D01*
X209327Y130756D01*
X209319Y130698D01*
X209339D01*
Y130542D01*
X205001Y126204D01*
X193216D01*
X192755Y126113D01*
X192599Y126008D01*
X192365Y125852D01*
X192365Y125852D01*
X188209Y121696D01*
X187748Y121888D01*
Y130698D01*
X187767D01*
X187760Y130756D01*
X187841Y131369D01*
X187996Y131744D01*
X189299D01*
Y137256D01*
X188048D01*
X187944Y137775D01*
Y138232D01*
X188709D01*
Y145319D01*
X184772D01*
Y138232D01*
X185101D01*
X185378Y137817D01*
X185146Y137256D01*
X183787D01*
Y131744D01*
X185091D01*
X185246Y131369D01*
X185327Y130756D01*
X185319Y130698D01*
X185339D01*
Y121053D01*
X173958Y109672D01*
X173496Y109863D01*
Y114752D01*
X173404Y115213D01*
X173299Y115369D01*
X173143Y115603D01*
X173143Y115603D01*
X172748Y115999D01*
Y120698D01*
X172767D01*
X172760Y120756D01*
X172841Y121369D01*
X172996Y121744D01*
X174299D01*
Y127256D01*
X173048D01*
X172944Y127775D01*
Y128232D01*
X173709D01*
Y135319D01*
X169772D01*
Y128232D01*
X170101D01*
X170378Y127817D01*
X170146Y127256D01*
X168787D01*
Y121744D01*
X170091D01*
X170246Y121369D01*
X170327Y120756D01*
X170319Y120698D01*
X170339D01*
Y115500D01*
X170339Y115500D01*
X170431Y115039D01*
X170692Y114648D01*
X171087Y114253D01*
Y111030D01*
X170597Y110933D01*
X170407Y111390D01*
X169966Y111966D01*
X161780Y120151D01*
Y121531D01*
X163957D01*
Y124500D01*
Y127469D01*
X161488D01*
Y126562D01*
X161015Y126401D01*
X160966Y126465D01*
X160390Y126907D01*
X159719Y127185D01*
X159000Y127280D01*
X158281Y127185D01*
X157610Y126907D01*
X157054Y126481D01*
X156606Y126702D01*
Y137000D01*
X156483Y137615D01*
X156135Y138135D01*
X156135Y138135D01*
X154832Y139438D01*
X154311Y139787D01*
X154209Y139807D01*
X153697Y139909D01*
D01*
X153697Y139909D01*
X153697Y139909D01*
X153693Y139909D01*
X153629D01*
X152846Y140012D01*
X152054Y140340D01*
X151807Y140529D01*
Y144898D01*
X140193D01*
Y131709D01*
X151807D01*
Y136077D01*
X152054Y136266D01*
X152846Y136594D01*
X153018Y136617D01*
X153394Y136287D01*
Y115902D01*
X153394Y115902D01*
X153496Y115389D01*
X153517Y115287D01*
X153865Y114766D01*
X154796Y113835D01*
X154814Y113790D01*
X154960Y113057D01*
X155376Y112435D01*
X155394Y112390D01*
Y100512D01*
X155376Y100467D01*
X154960Y99845D01*
X154792Y99000D01*
X154960Y98155D01*
X155439Y97439D01*
X156155Y96960D01*
X156889Y96814D01*
X156933Y96796D01*
X159894Y93835D01*
Y82841D01*
X157068Y80014D01*
X156606Y80206D01*
Y91000D01*
X156483Y91615D01*
X156135Y92135D01*
X156135Y92135D01*
X141843Y106428D01*
X142034Y106890D01*
X145500D01*
Y113197D01*
X139980D01*
Y108935D01*
X139539Y108700D01*
X139114Y108983D01*
X139013Y109004D01*
X138500Y109106D01*
X138500Y109106D01*
X65020D01*
Y111495D01*
X65406Y111812D01*
X66000Y111694D01*
X66845Y111862D01*
X67561Y112340D01*
X68040Y113057D01*
X68208Y113902D01*
X68040Y114746D01*
X67806Y115096D01*
Y139000D01*
X67669Y139691D01*
X67277Y140277D01*
X65974Y141580D01*
X65388Y141972D01*
X64807Y142088D01*
Y146898D01*
X53193D01*
Y133709D01*
X64194D01*
Y122504D01*
X59500D01*
Y115697D01*
X59000D01*
Y115197D01*
X52980D01*
Y109106D01*
X6500D01*
X5886Y108983D01*
X5365Y108635D01*
X5017Y108115D01*
X4894Y107500D01*
X5017Y106886D01*
X5304Y106456D01*
Y106011D01*
X5284D01*
X5291Y105953D01*
X5211Y105340D01*
X5055Y104965D01*
X3752D01*
Y99453D01*
X5004D01*
X5107Y98934D01*
Y98268D01*
X4343D01*
Y91181D01*
X8280D01*
Y98268D01*
X7938D01*
X7608Y98644D01*
X7626Y98778D01*
X7905Y99453D01*
X9264D01*
Y104965D01*
X7960D01*
X7805Y105340D01*
X7782Y105518D01*
X8111Y105894D01*
X22471D01*
X22801Y105518D01*
X22777Y105340D01*
X22622Y104965D01*
X21319D01*
Y99453D01*
X22570D01*
X22674Y98934D01*
Y98268D01*
X21910D01*
Y91181D01*
X25846D01*
Y98268D01*
X25504D01*
X25175Y98644D01*
X25192Y98778D01*
X25472Y99453D01*
X26831D01*
Y104965D01*
X25527D01*
X25372Y105340D01*
X25348Y105518D01*
X25678Y105894D01*
X40975D01*
X41305Y105518D01*
X41282Y105340D01*
X41126Y104965D01*
X39823D01*
Y99453D01*
X41074D01*
X41178Y98934D01*
Y98268D01*
X40413D01*
Y91181D01*
X44350D01*
Y98268D01*
X44008D01*
X43679Y98644D01*
X43696Y98778D01*
X43976Y99453D01*
X45335D01*
Y104965D01*
X44031D01*
X43876Y105340D01*
X43852Y105518D01*
X44182Y105894D01*
X57834D01*
X58163Y105518D01*
X58140Y105340D01*
X57985Y104965D01*
X56681D01*
Y99453D01*
X57933D01*
X58036Y98934D01*
Y98268D01*
X57272D01*
Y91181D01*
X61209D01*
Y98268D01*
X60867D01*
X60537Y98644D01*
X60555Y98778D01*
X60834Y99453D01*
X62193D01*
Y104965D01*
X60890D01*
X60734Y105340D01*
X60711Y105518D01*
X61040Y105894D01*
X75156D01*
X75486Y105518D01*
X75463Y105340D01*
X75307Y104965D01*
X74004D01*
Y99453D01*
X75256D01*
X75359Y98934D01*
Y98268D01*
X74594D01*
Y91181D01*
X78531D01*
Y98268D01*
X78189D01*
X77860Y98644D01*
X77878Y98778D01*
X78157Y99453D01*
X79516D01*
Y104965D01*
X78212D01*
X78057Y105340D01*
X78034Y105518D01*
X78363Y105894D01*
X92086D01*
X92415Y105518D01*
X92392Y105340D01*
X92236Y104965D01*
X90933D01*
Y99453D01*
X92185D01*
X92288Y98934D01*
Y98268D01*
X91524D01*
Y91181D01*
X95461D01*
Y98268D01*
X95119D01*
X94789Y98644D01*
X94807Y98778D01*
X95086Y99453D01*
X96445D01*
Y104965D01*
X95142D01*
X94986Y105340D01*
X94963Y105518D01*
X95292Y105894D01*
X137835D01*
X153394Y90335D01*
Y75665D01*
X145835Y68106D01*
X120500D01*
X120500Y68106D01*
X119886Y67983D01*
X119713Y67868D01*
X119365Y67635D01*
X119365Y67635D01*
X111491Y59761D01*
X111143Y59240D01*
X111122Y59139D01*
X111020Y58626D01*
X111020Y58626D01*
Y56354D01*
X110572Y56133D01*
X110043Y56539D01*
X109058Y56947D01*
X108500Y57020D01*
Y53000D01*
X107500D01*
Y57020D01*
X107062Y56963D01*
X106841Y57411D01*
X120226Y70796D01*
X129000D01*
X129000Y70796D01*
X129461Y70887D01*
X129851Y71149D01*
X131815Y73112D01*
X131815Y73112D01*
X131825Y73102D01*
X131912Y73209D01*
X132885Y73956D01*
X134146Y74478D01*
X135482Y74654D01*
X135500Y74638D01*
Y74638D01*
X135616Y74661D01*
X139339D01*
Y82339D01*
X131661D01*
Y78616D01*
X131638Y78500D01*
X131638D01*
X131654Y78482D01*
X131478Y77147D01*
X130956Y75885D01*
X130209Y74912D01*
X130102Y74825D01*
X130112Y74815D01*
X130112Y74815D01*
X128501Y73204D01*
X119727D01*
X119266Y73113D01*
X118876Y72852D01*
X102148Y56124D01*
X101887Y55734D01*
X101825Y55418D01*
X101338Y55305D01*
X100889Y55889D01*
X100043Y56539D01*
X99058Y56947D01*
X98500Y57020D01*
Y53000D01*
X97500D01*
Y57020D01*
X96942Y56947D01*
X95957Y56539D01*
X95111Y55889D01*
X94678Y55325D01*
X94204Y55486D01*
Y57001D01*
X96424Y59221D01*
X100652D01*
X100652Y59221D01*
X101113Y59313D01*
X101504Y59574D01*
X107926Y65996D01*
X107926Y65996D01*
X108187Y66387D01*
X108279Y66848D01*
X108279Y66848D01*
Y69576D01*
X111815Y73112D01*
X111815Y73112D01*
X111825Y73102D01*
X111912Y73209D01*
X112885Y73956D01*
X114146Y74478D01*
X115394Y74642D01*
X115500Y74628D01*
X116502Y74760D01*
X117436Y75147D01*
X118238Y75762D01*
X118853Y76564D01*
X119240Y77498D01*
X119372Y78500D01*
X119240Y79502D01*
X118853Y80436D01*
X118238Y81238D01*
X117436Y81853D01*
X116502Y82240D01*
X115500Y82372D01*
X114498Y82240D01*
X113564Y81853D01*
X112762Y81238D01*
X112147Y80436D01*
X111760Y79502D01*
X111628Y78500D01*
X111642Y78394D01*
X111478Y77147D01*
X110956Y75885D01*
X110209Y74912D01*
X110102Y74825D01*
X110112Y74815D01*
X110112Y74815D01*
X107166Y71869D01*
X106718Y72055D01*
Y72084D01*
X106718D01*
X106704Y72221D01*
X106865Y73438D01*
X107387Y74699D01*
X108153Y75697D01*
X108238Y75762D01*
X108853Y76564D01*
X109240Y77498D01*
X109372Y78500D01*
X109240Y79502D01*
X108853Y80436D01*
X108238Y81238D01*
X107436Y81853D01*
X106502Y82240D01*
X105500Y82372D01*
X104498Y82240D01*
X103564Y81853D01*
X102762Y81238D01*
X102147Y80436D01*
X101760Y79502D01*
X101628Y78500D01*
X101760Y77498D01*
X102147Y76564D01*
X102762Y75762D01*
X102847Y75697D01*
X103613Y74699D01*
X104135Y73438D01*
X104296Y72221D01*
X104282Y72084D01*
X104296D01*
Y67999D01*
X99501Y63204D01*
X89500D01*
X89500Y63204D01*
X89039Y63113D01*
X88648Y62852D01*
X88648Y62852D01*
X82148Y56352D01*
X81887Y55961D01*
X81796Y55500D01*
X81796Y55500D01*
Y55137D01*
X81322Y54976D01*
X80738Y55738D01*
X79936Y56353D01*
X79002Y56740D01*
X78000Y56872D01*
X76998Y56740D01*
X76064Y56353D01*
X75262Y55738D01*
X74647Y54936D01*
X74260Y54002D01*
X74128Y53000D01*
X74260Y51998D01*
X74647Y51064D01*
X75262Y50262D01*
X76064Y49647D01*
X76998Y49260D01*
X78000Y49128D01*
X79002Y49260D01*
X79936Y49647D01*
X80738Y50262D01*
X81322Y51024D01*
X81796Y50863D01*
Y45137D01*
X81322Y44976D01*
X80738Y45738D01*
X79936Y46353D01*
X79002Y46740D01*
X78000Y46872D01*
X76998Y46740D01*
X76064Y46353D01*
X75262Y45738D01*
X74678Y44976D01*
X74204Y45137D01*
Y46000D01*
X74204Y46000D01*
X74113Y46461D01*
X73852Y46852D01*
X72351Y48351D01*
X71961Y48613D01*
X71500Y48704D01*
X71500Y48704D01*
X68601D01*
X68569Y49203D01*
X69002Y49260D01*
X69936Y49647D01*
X70738Y50262D01*
X71353Y51064D01*
X71740Y51998D01*
X71872Y53000D01*
X71858Y53106D01*
X72022Y54353D01*
X72544Y55615D01*
X73291Y56588D01*
X73398Y56675D01*
X73388Y56685D01*
X73388Y56685D01*
X75499Y58796D01*
X78000D01*
X78000Y58796D01*
X78461Y58887D01*
X78851Y59149D01*
X90351Y70648D01*
X90351Y70648D01*
X90613Y71039D01*
X90613Y71039D01*
X90613Y71039D01*
X90704Y71500D01*
X90704Y71500D01*
Y76001D01*
X92042Y77339D01*
X93410D01*
X93430Y77319D01*
Y77319D01*
D01*
D01*
Y77319D01*
X93430D01*
D01*
D01*
D01*
D01*
X93432Y77319D01*
Y77320D01*
D01*
D01*
X93488Y77327D01*
X94102Y77246D01*
X94476Y77091D01*
Y75787D01*
X99988D01*
Y81299D01*
X98685D01*
X98529Y81674D01*
X98449Y82288D01*
X98456Y82345D01*
X98436D01*
Y82913D01*
X99201D01*
Y90000D01*
X95264D01*
Y82913D01*
X96028D01*
Y82345D01*
X96008D01*
X96016Y82288D01*
X95935Y81674D01*
X95780Y81299D01*
X94476D01*
Y79996D01*
X94102Y79841D01*
X93488Y79760D01*
X93432Y79767D01*
Y79767D01*
D01*
Y79767D01*
X93430Y79767D01*
D01*
D01*
X93430D01*
X93430D01*
D01*
D01*
D01*
Y79767D01*
X93410Y79748D01*
X91543D01*
X91543Y79748D01*
X91083Y79656D01*
X90692Y79395D01*
X90692Y79395D01*
X88648Y77351D01*
X88387Y76961D01*
X88296Y76500D01*
X88296Y76500D01*
Y71999D01*
X82966Y66669D01*
X82488Y66814D01*
X82343Y67542D01*
X82011Y68038D01*
X82043Y68063D01*
X81912Y68260D01*
X82017Y68457D01*
X82218Y68701D01*
X83059D01*
Y74213D01*
X77547D01*
Y68701D01*
X78388D01*
X78589Y68457D01*
X78694Y68260D01*
X78563Y68063D01*
X78595Y68038D01*
X78263Y67542D01*
X78095Y66697D01*
X78263Y65852D01*
X78742Y65136D01*
X79458Y64657D01*
X80186Y64512D01*
X80331Y64034D01*
X77501Y61204D01*
X75000D01*
X74539Y61113D01*
X74383Y61008D01*
X74148Y60852D01*
X74148Y60852D01*
X71685Y58388D01*
X71685Y58388D01*
X71675Y58398D01*
X71588Y58291D01*
X70615Y57544D01*
X69353Y57022D01*
X68106Y56858D01*
X68000Y56872D01*
X66998Y56740D01*
X66064Y56353D01*
X65262Y55738D01*
X64647Y54936D01*
X64260Y54002D01*
X64128Y53000D01*
X64260Y51998D01*
X64647Y51064D01*
X65262Y50262D01*
X66064Y49647D01*
X66998Y49260D01*
X67431Y49203D01*
X67399Y48704D01*
X58601D01*
X58569Y49203D01*
X59002Y49260D01*
X59936Y49647D01*
X60738Y50262D01*
X61353Y51064D01*
X61740Y51998D01*
X61872Y53000D01*
X61740Y54002D01*
X61437Y54734D01*
X69147Y62444D01*
X69147Y62444D01*
X69408Y62834D01*
X69408Y62834D01*
X69408Y62834D01*
X69499Y63295D01*
X69499Y63295D01*
Y72796D01*
X74042Y77339D01*
X76481D01*
X76501Y77319D01*
Y77319D01*
D01*
D01*
Y77319D01*
X76501D01*
D01*
D01*
D01*
D01*
X76503Y77319D01*
Y77320D01*
D01*
D01*
X76559Y77327D01*
X77172Y77246D01*
X77547Y77091D01*
Y75787D01*
X83059D01*
Y81299D01*
X81756D01*
X81600Y81674D01*
X81520Y82288D01*
X81527Y82345D01*
X81507D01*
Y82913D01*
X82272D01*
Y90000D01*
X78335D01*
Y82913D01*
X79099D01*
Y82345D01*
X79079D01*
X79087Y82288D01*
X79006Y81674D01*
X78851Y81299D01*
X77547D01*
Y79996D01*
X77172Y79841D01*
X76559Y79760D01*
X76503Y79767D01*
Y79767D01*
D01*
Y79767D01*
X76501Y79767D01*
D01*
D01*
X76501D01*
X76501D01*
D01*
D01*
D01*
Y79767D01*
X76481Y79748D01*
X73543D01*
X73083Y79656D01*
X72926Y79551D01*
X72692Y79395D01*
X72692Y79395D01*
X68387Y75090D01*
X67925Y75281D01*
Y91181D01*
X68689D01*
Y98268D01*
X67925D01*
Y98934D01*
X68028Y99453D01*
X69279D01*
Y104965D01*
X63768D01*
Y99453D01*
X65126D01*
X65406Y98778D01*
X65424Y98644D01*
X65094Y98268D01*
X64752D01*
Y91181D01*
X65516D01*
Y81299D01*
X64433D01*
X64278Y81674D01*
X64197Y82288D01*
X64204Y82345D01*
X64185D01*
Y82913D01*
X64949D01*
Y90000D01*
X61012D01*
Y82913D01*
X61776D01*
Y82345D01*
X61756D01*
X61764Y82288D01*
X61683Y81674D01*
X61528Y81299D01*
X60224D01*
Y79996D01*
X59850Y79841D01*
X59236Y79760D01*
X59180Y79767D01*
Y79767D01*
D01*
Y79767D01*
X59178Y79767D01*
D01*
D01*
X59178D01*
X59178D01*
D01*
D01*
D01*
Y79767D01*
X59158Y79748D01*
X57043D01*
X56582Y79656D01*
X56192Y79395D01*
X55931Y79004D01*
X55839Y78543D01*
Y62662D01*
X55410Y62405D01*
X55159Y62539D01*
X55161Y62547D01*
X54993Y63392D01*
X54514Y64108D01*
X54483Y64129D01*
X54251Y64476D01*
X54164Y64914D01*
X54165Y64923D01*
X54157D01*
Y83047D01*
X54066Y83508D01*
X53961Y83664D01*
X53805Y83899D01*
X53805Y83899D01*
X51066Y86637D01*
Y91181D01*
X51831D01*
Y98268D01*
X51066D01*
Y98934D01*
X51170Y99453D01*
X52421D01*
Y104965D01*
X46909D01*
Y99453D01*
X48268D01*
X48548Y98778D01*
X48565Y98644D01*
X48236Y98268D01*
X47894D01*
Y91181D01*
X48658D01*
Y86138D01*
X48658Y86138D01*
X48750Y85677D01*
X49011Y85286D01*
X51749Y82548D01*
Y64923D01*
X51741D01*
X51743Y64914D01*
X51656Y64476D01*
X51424Y64129D01*
X51392Y64108D01*
X50913Y63392D01*
X50745Y62547D01*
X50913Y61702D01*
X51392Y60986D01*
X52108Y60507D01*
X52953Y60339D01*
X52961Y60341D01*
X53197Y59900D01*
X51685Y58388D01*
X51675Y58398D01*
X51588Y58291D01*
X50615Y57544D01*
X49354Y57022D01*
X48106Y56858D01*
X48000Y56872D01*
X46998Y56740D01*
X46064Y56353D01*
X45262Y55738D01*
X44647Y54936D01*
X44260Y54002D01*
X44128Y53000D01*
X44243Y52130D01*
X43794Y51909D01*
X40204Y55499D01*
Y74001D01*
X42904Y76701D01*
X43366Y76510D01*
Y75787D01*
X48878D01*
Y81299D01*
X47575D01*
X47419Y81674D01*
X47339Y82288D01*
X47346Y82345D01*
X47326D01*
Y82913D01*
X48091D01*
Y90000D01*
X44154D01*
Y82913D01*
X44918D01*
Y82345D01*
X44898D01*
X44905Y82288D01*
X44825Y81674D01*
X44669Y81299D01*
X43366D01*
Y79819D01*
X43043Y79755D01*
Y79754D01*
Y79748D01*
X43043D01*
X42582Y79656D01*
X42426Y79551D01*
X42192Y79395D01*
X42192Y79395D01*
X38148Y75352D01*
X37887Y74961D01*
X37796Y74500D01*
X37796Y74500D01*
Y55000D01*
X37796Y55000D01*
X37887Y54539D01*
X38148Y54149D01*
X45649Y46648D01*
X45720Y46601D01*
X45736Y46101D01*
X45262Y45738D01*
X45197Y45653D01*
X44199Y44887D01*
X42938Y44365D01*
X41721Y44204D01*
X41584Y44218D01*
Y44204D01*
X39999D01*
X34458Y49745D01*
X34531Y50240D01*
X34645Y50301D01*
X35155Y49960D01*
X36000Y49792D01*
X36845Y49960D01*
X37561Y50439D01*
X38040Y51155D01*
X38208Y52000D01*
X38040Y52845D01*
X37561Y53561D01*
X37530Y53582D01*
X37297Y53929D01*
X37211Y54367D01*
X37212Y54376D01*
X37204D01*
Y83000D01*
X37113Y83461D01*
X36852Y83851D01*
X32563Y88141D01*
Y91181D01*
X33327D01*
Y98268D01*
X32563D01*
Y98934D01*
X32666Y99453D01*
X33917D01*
Y104965D01*
X28405D01*
Y99453D01*
X29764D01*
X30044Y98778D01*
X30061Y98644D01*
X29732Y98268D01*
X29390D01*
Y91181D01*
X30154D01*
Y87642D01*
X30154Y87642D01*
X30246Y87181D01*
X30507Y86790D01*
X34796Y82501D01*
Y54376D01*
X34788D01*
X34789Y54367D01*
X34768Y54261D01*
X34340Y54004D01*
X34204Y54045D01*
Y76500D01*
X34204Y76500D01*
X34113Y76961D01*
X33852Y77351D01*
X33852Y77351D01*
X31808Y79395D01*
X31418Y79656D01*
X30957Y79748D01*
D01*
D01*
D01*
X30957Y79748D01*
D01*
X30957Y79758D01*
X30955Y79758D01*
X30955Y79758D01*
X30915Y79753D01*
X30374Y79861D01*
Y81299D01*
X29071D01*
X28915Y81674D01*
X28835Y82288D01*
X28842Y82345D01*
X28822D01*
Y82913D01*
X29587D01*
Y90000D01*
X25650D01*
Y82913D01*
X26414D01*
Y82345D01*
X26394D01*
X26402Y82288D01*
X26321Y81674D01*
X26166Y81299D01*
X24862D01*
Y75787D01*
X30374D01*
Y76770D01*
X30836Y76961D01*
X31796Y76001D01*
Y49500D01*
X31796Y49500D01*
X31887Y49039D01*
X32149Y48649D01*
X38649Y42149D01*
X38649Y42149D01*
X39039Y41887D01*
X39039Y41887D01*
X39039Y41887D01*
D01*
X39039Y41887D01*
X39039Y41887D01*
X39500Y41796D01*
X39500Y41796D01*
X41584D01*
Y41782D01*
X41721Y41796D01*
X42938Y41635D01*
X44199Y41113D01*
X45197Y40347D01*
X45262Y40262D01*
X46064Y39647D01*
X46998Y39260D01*
X47431Y39203D01*
X47399Y38704D01*
X23499D01*
X22384Y39819D01*
X22529Y40298D01*
X23345Y40460D01*
X24061Y40939D01*
X24540Y41655D01*
X24708Y42500D01*
X24540Y43345D01*
X24061Y44061D01*
X24029Y44082D01*
X23798Y44429D01*
X23711Y44867D01*
X23712Y44876D01*
X23704D01*
Y75000D01*
X23704Y75000D01*
X23613Y75461D01*
X23351Y75852D01*
X14996Y84207D01*
Y91181D01*
X15760D01*
Y98268D01*
X14996D01*
Y98934D01*
X15099Y99453D01*
X16350D01*
Y104965D01*
X10839D01*
Y99453D01*
X12197D01*
X12477Y98778D01*
X12494Y98644D01*
X12165Y98268D01*
X11823D01*
Y91181D01*
X12587D01*
Y83709D01*
X12587Y83709D01*
X12679Y83248D01*
X12940Y82857D01*
X21296Y74501D01*
Y44876D01*
X21288D01*
X21289Y44867D01*
X21203Y44429D01*
X20970Y44082D01*
X20939Y44061D01*
X20460Y43345D01*
X20298Y42529D01*
X19819Y42384D01*
X5704Y56499D01*
Y76501D01*
X6504Y77301D01*
X6920Y77246D01*
X7295Y77091D01*
Y75787D01*
X12807D01*
Y81299D01*
X11504D01*
X11348Y81674D01*
X11268Y82288D01*
X11275Y82345D01*
X11255D01*
Y82913D01*
X12020D01*
Y90000D01*
X8083D01*
Y82913D01*
X8847D01*
Y82345D01*
X8827D01*
X8835Y82288D01*
X8754Y81674D01*
X8599Y81299D01*
X7295D01*
Y79996D01*
X6920Y79841D01*
X6307Y79760D01*
X6251Y79767D01*
Y79767D01*
D01*
Y79767D01*
X6249Y79767D01*
D01*
D01*
X6249D01*
X6249D01*
D01*
D01*
D01*
Y79767D01*
X6229Y79748D01*
X6043D01*
X6043Y79748D01*
X5582Y79656D01*
X5192Y79395D01*
X3649Y77851D01*
X3387Y77461D01*
X3296Y77000D01*
X3296Y77000D01*
Y56000D01*
X3296Y56000D01*
X3387Y55539D01*
X3649Y55149D01*
X22148Y36648D01*
X22149Y36648D01*
X22148D01*
X22149Y36648D01*
X22149D01*
X22149Y36648D01*
Y36648D01*
Y36648D01*
D01*
D01*
X22149D01*
Y36648D01*
X22539Y36387D01*
X23000Y36296D01*
X62500D01*
X62500Y36296D01*
X62961Y36387D01*
X63352Y36648D01*
X64315Y37612D01*
X64325Y37602D01*
X64325Y37602D01*
X64412Y37709D01*
X65385Y38456D01*
X66646Y38978D01*
X67894Y39142D01*
X68000Y39128D01*
X69002Y39260D01*
X69936Y39647D01*
X70738Y40262D01*
X71322Y41024D01*
X71620Y40923D01*
X71733Y40436D01*
X62001Y30704D01*
X60000D01*
X60000Y30704D01*
X59539Y30613D01*
X59149Y30351D01*
X59149Y30351D01*
X57148Y28352D01*
X56887Y27961D01*
X56796Y27500D01*
X56796Y27500D01*
Y25918D01*
X56306Y25715D01*
X55691Y26517D01*
X54889Y27132D01*
X53955Y27519D01*
X52953Y27651D01*
X51951Y27519D01*
X51017Y27132D01*
X50215Y26517D01*
X49600Y25715D01*
X49213Y24782D01*
X49081Y23779D01*
X49213Y22777D01*
X49600Y21844D01*
X50215Y21042D01*
X51017Y20426D01*
X51951Y20040D01*
X52953Y19908D01*
X53955Y20040D01*
X54889Y20426D01*
X55691Y21042D01*
X56306Y21844D01*
X56796Y21641D01*
Y19325D01*
X56638Y19168D01*
X56638Y19168D01*
X56629Y19177D01*
X56541Y19071D01*
X55568Y18324D01*
X54307Y17802D01*
X53059Y17637D01*
X52953Y17651D01*
X51951Y17519D01*
X51017Y17132D01*
X50215Y16517D01*
X49600Y15715D01*
X49213Y14782D01*
X49081Y13780D01*
X49213Y12777D01*
X49600Y11844D01*
X50215Y11042D01*
X51017Y10426D01*
X51577Y10195D01*
X51480Y9704D01*
X48731D01*
X48341Y10094D01*
X48341Y10095D01*
X48351Y10104D01*
X48245Y10191D01*
X47497Y11165D01*
X46975Y12426D01*
X46811Y13674D01*
X46825Y13780D01*
X46693Y14782D01*
X46306Y15715D01*
X45691Y16517D01*
X44889Y17132D01*
X43955Y17519D01*
X42953Y17651D01*
X41951Y17519D01*
X41017Y17132D01*
X40215Y16517D01*
X39600Y15715D01*
X39213Y14782D01*
X39081Y13780D01*
X39213Y12777D01*
X39600Y11844D01*
X40215Y11042D01*
X41017Y10426D01*
X41951Y10040D01*
X42953Y9908D01*
X43059Y9922D01*
X44306Y9758D01*
X45568Y9235D01*
X46541Y8488D01*
X46628Y8382D01*
X46638Y8391D01*
X46638Y8391D01*
X47381Y7649D01*
X47381Y7649D01*
X47772Y7387D01*
X47772Y7387D01*
X47772Y7387D01*
D01*
X47772Y7387D01*
X47772Y7387D01*
X48233Y7296D01*
X65500D01*
X65500Y7296D01*
X65961Y7387D01*
X66351Y7649D01*
X68852Y10148D01*
X68852Y10148D01*
X69008Y10383D01*
X69113Y10539D01*
X69204Y11000D01*
Y11582D01*
X69678Y11743D01*
X70215Y11042D01*
X71017Y10426D01*
X71951Y10040D01*
X72953Y9908D01*
X73955Y10040D01*
X74889Y10426D01*
X75691Y11042D01*
X76306Y11844D01*
X76693Y12777D01*
X76825Y13780D01*
X76693Y14782D01*
X76306Y15715D01*
X75691Y16517D01*
X74889Y17132D01*
X73955Y17519D01*
X72953Y17651D01*
X71951Y17519D01*
X71017Y17132D01*
X70215Y16517D01*
X69678Y15816D01*
X69204Y15977D01*
Y19941D01*
X76792D01*
Y27618D01*
X70474D01*
X70283Y28080D01*
X72424Y30221D01*
X74425D01*
X74425Y30221D01*
X74886Y30313D01*
X75277Y30574D01*
X83851Y39149D01*
X84113Y39539D01*
X84204Y40000D01*
X84204Y40000D01*
Y40863D01*
X84678Y41024D01*
X85262Y40262D01*
X86064Y39647D01*
X86998Y39260D01*
X88000Y39128D01*
X89002Y39260D01*
X89936Y39647D01*
X90738Y40262D01*
X91322Y41024D01*
X91796Y40863D01*
Y36500D01*
X91796Y36500D01*
X91887Y36039D01*
X92149Y35649D01*
X96796Y31001D01*
Y25918D01*
X96306Y25715D01*
X95691Y26517D01*
X94889Y27132D01*
X93955Y27519D01*
X92953Y27651D01*
X91951Y27519D01*
X91017Y27132D01*
X90215Y26517D01*
X89600Y25715D01*
X89213Y24782D01*
X89081Y23779D01*
X89213Y22777D01*
X89600Y21844D01*
X90215Y21042D01*
X91017Y20426D01*
X91951Y20040D01*
X92953Y19908D01*
X93955Y20040D01*
X94889Y20426D01*
X95691Y21042D01*
X96306Y21844D01*
X96796Y21641D01*
Y18733D01*
X96796Y18733D01*
X96887Y18272D01*
X97149Y17881D01*
X97565Y17465D01*
D01*
X97555Y17455D01*
X97662Y17368D01*
X98409Y16394D01*
X98931Y15133D01*
X99095Y13885D01*
X99081Y13780D01*
X99213Y12777D01*
X99600Y11844D01*
X100215Y11042D01*
X101017Y10426D01*
X101951Y10040D01*
X102953Y9908D01*
X103955Y10040D01*
X104889Y10426D01*
X105691Y11042D01*
X106306Y11844D01*
X106693Y12777D01*
X106825Y13780D01*
X106693Y14782D01*
X106306Y15715D01*
X105691Y16517D01*
X104889Y17132D01*
X103955Y17519D01*
X102953Y17651D01*
X102847Y17637D01*
X101600Y17802D01*
X100338Y18324D01*
X99365Y19071D01*
X99365Y19071D01*
X99282Y19173D01*
D01*
D01*
X99280Y19174D01*
X99278Y19176D01*
X99278Y19177D01*
X99278Y19177D01*
D01*
D01*
D01*
D01*
D01*
X99278Y19177D01*
D01*
X99268Y19168D01*
X99268D01*
X99268Y19168D01*
X99204Y19231D01*
Y21233D01*
X99678Y21393D01*
X100064Y20890D01*
X100910Y20241D01*
X101895Y19833D01*
X102453Y19759D01*
Y23779D01*
Y27800D01*
X101895Y27726D01*
X100910Y27318D01*
X100064Y26669D01*
X99678Y26166D01*
X99204Y26327D01*
Y31500D01*
X99204Y31500D01*
X99113Y31961D01*
X98852Y32351D01*
X98852Y32351D01*
X94204Y36999D01*
Y40863D01*
X94678Y41024D01*
X95262Y40262D01*
X96064Y39647D01*
X96998Y39260D01*
X98000Y39128D01*
X99002Y39260D01*
X99936Y39647D01*
X100738Y40262D01*
X101322Y41024D01*
X101796Y40863D01*
Y34876D01*
X101788D01*
X101789Y34867D01*
X101702Y34429D01*
X101470Y34082D01*
X101439Y34061D01*
X100960Y33345D01*
X100792Y32500D01*
X100960Y31655D01*
X101439Y30939D01*
X102155Y30460D01*
X103000Y30292D01*
X103845Y30460D01*
X104561Y30939D01*
X105040Y31655D01*
X105208Y32500D01*
X105040Y33345D01*
X104561Y34061D01*
X104530Y34082D01*
X104297Y34429D01*
X104210Y34867D01*
X104212Y34876D01*
X104204D01*
Y40863D01*
X104678Y41024D01*
X105262Y40262D01*
X106064Y39647D01*
X106998Y39260D01*
X108000Y39128D01*
X109002Y39260D01*
X109936Y39647D01*
X110572Y40135D01*
X111020Y39914D01*
Y38374D01*
X111020Y38374D01*
X111122Y37861D01*
X111143Y37760D01*
X111491Y37239D01*
X114865Y33865D01*
X114865Y33865D01*
X115385Y33517D01*
X116000Y33394D01*
X131068D01*
X137953Y26509D01*
X137953Y26509D01*
X137951Y26506D01*
X137976Y26486D01*
X138028Y26434D01*
X138579Y25716D01*
X138966Y24782D01*
X139090Y23841D01*
X139081Y23779D01*
X139213Y22777D01*
X139600Y21844D01*
X140215Y21042D01*
X141017Y20426D01*
X141951Y20040D01*
X142953Y19908D01*
X143955Y20040D01*
X144889Y20426D01*
X145691Y21042D01*
X146306Y21844D01*
X146796Y21641D01*
Y19325D01*
X146638Y19168D01*
X146638Y19168D01*
X146628Y19177D01*
X146541Y19071D01*
X145568Y18324D01*
X144307Y17802D01*
X143059Y17637D01*
X142953Y17651D01*
X141951Y17519D01*
X141017Y17132D01*
X140215Y16517D01*
X139600Y15715D01*
X139213Y14782D01*
X139081Y13780D01*
X139213Y12777D01*
X139600Y11844D01*
X140215Y11042D01*
X141017Y10426D01*
X141951Y10040D01*
X142953Y9908D01*
X143955Y10040D01*
X144889Y10426D01*
X145691Y11042D01*
X146306Y11844D01*
X146693Y12777D01*
X146825Y13780D01*
X146811Y13885D01*
X146975Y15133D01*
X147497Y16394D01*
X148245Y17368D01*
X148351Y17455D01*
X148341Y17465D01*
X148341Y17465D01*
X148852Y17975D01*
X148852Y17975D01*
X149113Y18366D01*
X149204Y18826D01*
Y21582D01*
X149678Y21743D01*
X150215Y21042D01*
X151017Y20426D01*
X151951Y20040D01*
X152953Y19908D01*
X153955Y20040D01*
X154889Y20426D01*
X155691Y21042D01*
X156306Y21844D01*
X156796Y21641D01*
Y19325D01*
X156638Y19168D01*
X156638Y19168D01*
X156629Y19177D01*
X156541Y19071D01*
X155568Y18324D01*
X154306Y17802D01*
X153059Y17637D01*
X152953Y17651D01*
X151951Y17519D01*
X151017Y17132D01*
X150215Y16517D01*
X149600Y15715D01*
X149213Y14782D01*
X149081Y13780D01*
X149213Y12777D01*
X149600Y11844D01*
X150215Y11042D01*
X151017Y10426D01*
X151951Y10040D01*
X152953Y9908D01*
X153955Y10040D01*
X154889Y10426D01*
X155691Y11042D01*
X156306Y11844D01*
X156693Y12777D01*
X156825Y13780D01*
X156811Y13885D01*
X156975Y15133D01*
X157498Y16394D01*
X158245Y17368D01*
X158351Y17455D01*
X158341Y17465D01*
X158341Y17465D01*
X158852Y17975D01*
X158852Y17975D01*
X159113Y18366D01*
X159204Y18826D01*
Y21582D01*
X159678Y21743D01*
X160215Y21042D01*
X161017Y20426D01*
X161951Y20040D01*
X162953Y19908D01*
X163955Y20040D01*
X164889Y20426D01*
X165691Y21042D01*
X166306Y21844D01*
X166693Y22777D01*
X166825Y23779D01*
X166693Y24782D01*
X166306Y25715D01*
X165691Y26517D01*
X165606Y26582D01*
X164840Y27581D01*
X164318Y28842D01*
X164157Y30058D01*
X164171Y30195D01*
X164157D01*
Y40861D01*
X164647Y41064D01*
X165262Y40262D01*
X166064Y39647D01*
X166998Y39260D01*
X168000Y39128D01*
X169002Y39260D01*
X169936Y39647D01*
X170738Y40262D01*
X171275Y40963D01*
X171749Y40802D01*
Y30072D01*
X171736D01*
X171749Y29942D01*
X171592Y28751D01*
X171101Y27567D01*
X169114D01*
Y19992D01*
X176792D01*
D01*
X176792D01*
X176796Y19988D01*
Y19325D01*
X176638Y19168D01*
X176638Y19168D01*
X176628Y19177D01*
X176541Y19071D01*
X175568Y18324D01*
X174306Y17802D01*
X173059Y17637D01*
X172953Y17651D01*
X171951Y17519D01*
X171017Y17132D01*
X170215Y16517D01*
X169600Y15715D01*
X169213Y14782D01*
X169081Y13780D01*
X169213Y12777D01*
X169600Y11844D01*
X170215Y11042D01*
X171017Y10426D01*
X171951Y10040D01*
X172953Y9908D01*
X173955Y10040D01*
X174889Y10426D01*
X175691Y11042D01*
X176306Y11844D01*
X176693Y12777D01*
X176825Y13780D01*
X176811Y13885D01*
X176975Y15133D01*
X177497Y16394D01*
X178244Y17368D01*
X178351Y17455D01*
X178341Y17465D01*
X178341Y17465D01*
X178851Y17975D01*
X178851Y17975D01*
X179113Y18366D01*
X179204Y18826D01*
Y21233D01*
X179678Y21393D01*
X180064Y20890D01*
X180910Y20241D01*
X181895Y19833D01*
X182453Y19759D01*
Y23779D01*
Y27800D01*
X181895Y27726D01*
X180910Y27318D01*
X180064Y26669D01*
X179678Y26166D01*
X179204Y26327D01*
Y36584D01*
X179218D01*
X179204Y36721D01*
X179365Y37938D01*
X179887Y39199D01*
X180653Y40197D01*
X180738Y40262D01*
X181353Y41064D01*
X181740Y41998D01*
X181872Y43000D01*
X181740Y44002D01*
X181353Y44936D01*
X180738Y45738D01*
X179936Y46353D01*
X179002Y46740D01*
X178000Y46872D01*
X176998Y46740D01*
X176064Y46353D01*
X175262Y45738D01*
X174647Y44936D01*
X174157Y45139D01*
Y50861D01*
X174647Y51064D01*
X175262Y50262D01*
X176064Y49647D01*
X176998Y49260D01*
X178000Y49128D01*
X179002Y49260D01*
X179936Y49647D01*
X180738Y50262D01*
X181353Y51064D01*
X181740Y51998D01*
X181872Y53000D01*
X181740Y54002D01*
X181353Y54936D01*
X180738Y55738D01*
X180688Y55776D01*
X180111Y56529D01*
X179724Y57463D01*
X179606Y58359D01*
Y58433D01*
X179609Y58465D01*
X179606D01*
Y70100D01*
X180084Y70245D01*
X180148Y70148D01*
X191796Y58501D01*
Y56839D01*
X184161D01*
Y49161D01*
X191796D01*
Y45137D01*
X191322Y44976D01*
X190738Y45738D01*
X189936Y46353D01*
X189002Y46740D01*
X188000Y46872D01*
X186998Y46740D01*
X186064Y46353D01*
X185262Y45738D01*
X184647Y44936D01*
X184260Y44002D01*
X184128Y43000D01*
X184260Y41998D01*
X184647Y41064D01*
X185262Y40262D01*
X186064Y39647D01*
X186998Y39260D01*
X188000Y39128D01*
X189002Y39260D01*
X189936Y39647D01*
X190738Y40262D01*
X191322Y41024D01*
X191796Y40863D01*
Y31999D01*
X187148Y27351D01*
X186887Y26961D01*
X186796Y26500D01*
X186796Y26500D01*
Y26204D01*
X186322Y26043D01*
X185842Y26669D01*
X184996Y27318D01*
X184011Y27726D01*
X183453Y27800D01*
Y23779D01*
Y19759D01*
X184011Y19833D01*
X184996Y20241D01*
X185842Y20890D01*
X186322Y21516D01*
X186796Y21355D01*
Y19325D01*
X184687Y17216D01*
X183955Y17519D01*
X182953Y17651D01*
X181951Y17519D01*
X181017Y17132D01*
X180215Y16517D01*
X179600Y15715D01*
X179213Y14782D01*
X179081Y13780D01*
X179213Y12777D01*
X179600Y11844D01*
X180215Y11042D01*
X181017Y10426D01*
X181951Y10040D01*
X182953Y9908D01*
X183955Y10040D01*
X184889Y10426D01*
X185691Y11042D01*
X186306Y11844D01*
X186796Y11641D01*
Y9000D01*
X186796Y9000D01*
X186887Y8539D01*
X187148Y8149D01*
X188393Y6904D01*
X188393Y6904D01*
X188783Y6643D01*
X188783Y6643D01*
X188783Y6643D01*
D01*
X188783Y6643D01*
X188783Y6643D01*
X189244Y6552D01*
X189244Y6552D01*
X269598D01*
X269598Y6552D01*
X270059Y6643D01*
X270450Y6904D01*
X277815Y14269D01*
X277825Y14260D01*
X277912Y14366D01*
X278885Y15113D01*
X280147Y15635D01*
X281482Y15811D01*
X281500Y15796D01*
Y15796D01*
X281616Y15819D01*
X285339D01*
Y23496D01*
X277661D01*
Y19774D01*
X277638Y19658D01*
X277638D01*
X277654Y19640D01*
X277478Y18304D01*
X276956Y17043D01*
X276209Y16069D01*
X276102Y15982D01*
X276112Y15972D01*
X269099Y8960D01*
X247368D01*
X247232Y9441D01*
X248393Y10153D01*
X249666Y11240D01*
X250752Y12512D01*
X251626Y13939D01*
X252267Y15484D01*
X252657Y17111D01*
X252789Y18779D01*
X252657Y20448D01*
X252267Y22074D01*
X251626Y23620D01*
X250752Y25047D01*
X249666Y26319D01*
X248393Y27406D01*
X246967Y28280D01*
X245421Y28920D01*
X243794Y29311D01*
X242126Y29442D01*
X240458Y29311D01*
X238831Y28920D01*
X237285Y28280D01*
X235858Y27406D01*
X234586Y26319D01*
X233500Y25047D01*
X232625Y23620D01*
X231985Y22074D01*
X231594Y20448D01*
X231463Y18779D01*
X231594Y17111D01*
X231985Y15484D01*
X232625Y13939D01*
X233500Y12512D01*
X234586Y11240D01*
X235858Y10153D01*
X237020Y9441D01*
X236884Y8960D01*
X189743D01*
X189204Y9499D01*
Y11582D01*
X189678Y11743D01*
X190215Y11042D01*
X191017Y10426D01*
X191951Y10040D01*
X192953Y9908D01*
X193955Y10040D01*
X194889Y10426D01*
X195691Y11042D01*
X196306Y11844D01*
X196693Y12777D01*
X196825Y13780D01*
X196811Y13885D01*
X196975Y15133D01*
X197497Y16394D01*
X198245Y17368D01*
X198351Y17455D01*
X198341Y17465D01*
X198352Y17475D01*
X198352D01*
X198352Y17475D01*
X198613Y17866D01*
X198613Y17866D01*
X198613Y17866D01*
X198704Y18326D01*
X198704Y18327D01*
Y22819D01*
X199203Y22852D01*
X199213Y22777D01*
X199600Y21844D01*
X200215Y21042D01*
X201017Y20426D01*
X201951Y20040D01*
X202953Y19908D01*
X203955Y20040D01*
X204889Y20426D01*
X205691Y21042D01*
X206306Y21844D01*
X206693Y22777D01*
X206824Y23779D01*
X206693Y24782D01*
X206306Y25715D01*
X205691Y26517D01*
X204889Y27132D01*
X204471Y27305D01*
X204569Y27796D01*
X207234D01*
X207565Y27465D01*
X207555Y27455D01*
X207661Y27368D01*
X208408Y26394D01*
X208931Y25133D01*
X209095Y23885D01*
X209081Y23779D01*
X209213Y22777D01*
X209600Y21844D01*
X210215Y21042D01*
X211017Y20426D01*
X211951Y20040D01*
X212953Y19908D01*
X213955Y20040D01*
X214889Y20426D01*
X215690Y21042D01*
X216306Y21844D01*
X216692Y22777D01*
X216825Y23779D01*
X216692Y24782D01*
X216306Y25715D01*
X215690Y26517D01*
X214889Y27132D01*
X213955Y27519D01*
X212953Y27651D01*
X212847Y27637D01*
X211599Y27802D01*
X210338Y28324D01*
X209365Y29071D01*
X209277Y29177D01*
X209268Y29168D01*
X208584Y29851D01*
X208193Y30113D01*
X207732Y30204D01*
X207732Y30204D01*
X200458D01*
X198929Y31734D01*
Y61003D01*
X198837Y61463D01*
X198576Y61854D01*
X189704Y70726D01*
Y78119D01*
X189613Y78580D01*
X189351Y78971D01*
X188253Y80069D01*
X187835Y80694D01*
X187691Y81417D01*
X187708Y81500D01*
X187540Y82345D01*
X187061Y83061D01*
X186345Y83540D01*
X185946Y83619D01*
X185801Y84098D01*
X185852Y84149D01*
X186113Y84539D01*
X186204Y85000D01*
X186204Y85000D01*
X186204Y85000D01*
Y85000D01*
Y93455D01*
X186340Y93496D01*
X186768Y93239D01*
X186790Y93133D01*
X186788Y93124D01*
X186796D01*
Y87500D01*
X186796Y87500D01*
X186887Y87039D01*
X187148Y86648D01*
X189148Y84649D01*
X189148Y84649D01*
X189539Y84387D01*
X189539Y84387D01*
X189539Y84387D01*
D01*
X189539Y84387D01*
X189539Y84387D01*
X190000Y84296D01*
X190000Y84296D01*
X191001D01*
Y84292D01*
Y84282D01*
X191262Y84230D01*
X191480Y84084D01*
X191482Y84081D01*
X192133Y83646D01*
X192902Y83493D01*
X199201D01*
X199969Y83646D01*
X200620Y84081D01*
X201055Y84732D01*
X201208Y85500D01*
X201055Y86268D01*
X200620Y86919D01*
X199969Y87354D01*
X199201Y87507D01*
X192902D01*
X192133Y87354D01*
X191482Y86919D01*
X191480Y86916D01*
X191262Y86770D01*
X191001Y86718D01*
Y86704D01*
X190499D01*
X189204Y87999D01*
Y93124D01*
X189212D01*
X189210Y93133D01*
X189297Y93571D01*
X189530Y93918D01*
X189561Y93939D01*
X190040Y94655D01*
X190208Y95500D01*
X190040Y96345D01*
X189561Y97061D01*
X188845Y97540D01*
X188000Y97708D01*
X187155Y97540D01*
X186645Y97199D01*
X186204Y97435D01*
Y103124D01*
X186212D01*
X186211Y103133D01*
X186298Y103571D01*
X186530Y103918D01*
X186561Y103939D01*
X187040Y104655D01*
X187208Y105500D01*
X187040Y106345D01*
X186561Y107061D01*
X185845Y107540D01*
X185000Y107708D01*
X184155Y107540D01*
X183439Y107061D01*
X182960Y106345D01*
X182792Y105500D01*
X182960Y104655D01*
X183439Y103939D01*
X183470Y103918D01*
X183703Y103571D01*
X183790Y103133D01*
X183788Y103124D01*
X183796D01*
Y85768D01*
X183394Y85470D01*
X183202Y85529D01*
X183040Y86345D01*
X182561Y87061D01*
X181845Y87540D01*
X181000Y87708D01*
X180155Y87540D01*
X180047Y87467D01*
X179606Y87703D01*
Y98988D01*
X179624Y99033D01*
X180040Y99655D01*
X180208Y100500D01*
X180040Y101345D01*
X179624Y101967D01*
X179606Y102012D01*
Y106335D01*
X194697Y121426D01*
X209531D01*
X209531Y121426D01*
X210044Y121528D01*
X210146Y121548D01*
X210667Y121896D01*
X210667Y121896D01*
X210667Y121896D01*
X234165Y145394D01*
X251751D01*
X252415Y145307D01*
X253061Y145040D01*
X253609Y144619D01*
X253613Y144613D01*
X253612Y144612D01*
X253637Y144595D01*
X254312Y144077D01*
X255126Y143740D01*
X256000Y143625D01*
X256874Y143740D01*
X257688Y144077D01*
X258363Y144595D01*
X258388Y144612D01*
X258387Y144613D01*
X258391Y144619D01*
X258940Y145040D01*
X259585Y145307D01*
X260249Y145394D01*
X275796D01*
X276798Y145263D01*
X277863Y144821D01*
X278713Y144168D01*
X278762Y144105D01*
X279564Y143490D01*
X280498Y143103D01*
X281500Y142971D01*
X282502Y143103D01*
X283436Y143490D01*
X284238Y144105D01*
X284853Y144907D01*
X285240Y145841D01*
X285372Y146843D01*
X285240Y147845D01*
X284853Y148778D01*
X284238Y149580D01*
X283436Y150196D01*
X282502Y150582D01*
X281500Y150714D01*
D02*
G37*
G36*
X178760Y145531D02*
X177079D01*
Y142276D01*
X178760D01*
Y145531D01*
D02*
G37*
G36*
X218500Y153872D02*
X217498Y153740D01*
X216564Y153353D01*
X215762Y152738D01*
X215724Y152688D01*
X214971Y152111D01*
X214037Y151724D01*
X213141Y151606D01*
X213067D01*
X213035Y151609D01*
Y151606D01*
X208968D01*
Y153587D01*
X205031D01*
Y146500D01*
X208968D01*
Y148394D01*
X213035D01*
Y148391D01*
X213067Y148394D01*
X213141D01*
X214037Y148276D01*
X214971Y147889D01*
X215724Y147312D01*
X215762Y147262D01*
X216564Y146647D01*
X217498Y146260D01*
X218500Y146128D01*
X219502Y146260D01*
X220436Y146647D01*
X221238Y147262D01*
X221853Y148064D01*
X222240Y148998D01*
X222372Y150000D01*
X222240Y151002D01*
X221853Y151936D01*
X221238Y152738D01*
X220436Y153353D01*
X219502Y153740D01*
X218500Y153872D01*
D02*
G37*
G36*
X181441Y145531D02*
X179760D01*
Y142276D01*
X181441D01*
Y145531D01*
D02*
G37*
G36*
X178760Y141276D02*
X177079D01*
Y138020D01*
X178760D01*
Y141276D01*
D02*
G37*
G36*
X163760Y135531D02*
X162079D01*
Y132276D01*
X163760D01*
Y135531D01*
D02*
G37*
G36*
X166441D02*
X164760D01*
Y132276D01*
X166441D01*
Y135531D01*
D02*
G37*
G36*
X281500Y140872D02*
X280498Y140740D01*
X279564Y140353D01*
X278762Y139738D01*
X278147Y138936D01*
X277760Y138002D01*
X277628Y137000D01*
X277760Y135998D01*
X278147Y135064D01*
X278762Y134262D01*
X279564Y133647D01*
X280498Y133260D01*
X281500Y133128D01*
X282502Y133260D01*
X283436Y133647D01*
X284238Y134262D01*
X284853Y135064D01*
X285240Y135998D01*
X285372Y137000D01*
X285240Y138002D01*
X284853Y138936D01*
X284238Y139738D01*
X283436Y140353D01*
X282502Y140740D01*
X281500Y140872D01*
D02*
G37*
G36*
X206425Y134000D02*
X203957D01*
Y131532D01*
X206425D01*
Y134000D01*
D02*
G37*
G36*
X255500Y134811D02*
X252441D01*
Y131752D01*
X255500D01*
Y134811D01*
D02*
G37*
G36*
X259559D02*
X256500D01*
Y131752D01*
X259559D01*
Y134811D01*
D02*
G37*
G36*
X178957Y137469D02*
X176488D01*
Y135000D01*
X178957D01*
Y137469D01*
D02*
G37*
G36*
X206425D02*
X203957D01*
Y135000D01*
X206425D01*
Y137469D01*
D02*
G37*
G36*
X256000Y142501D02*
X255126Y142386D01*
X254312Y142049D01*
X253613Y141513D01*
X253077Y140814D01*
X252740Y140000D01*
X252625Y139126D01*
X252740Y138252D01*
X253077Y137438D01*
X253613Y136739D01*
X254312Y136203D01*
X255126Y135866D01*
X256000Y135751D01*
X256874Y135866D01*
X257688Y136203D01*
X258387Y136739D01*
X258923Y137438D01*
X259260Y138252D01*
X259375Y139126D01*
X259260Y140000D01*
X258923Y140814D01*
X258387Y141513D01*
X257688Y142049D01*
X256874Y142386D01*
X256000Y142501D01*
D02*
G37*
G36*
X170500Y154029D02*
X169498Y153897D01*
X168564Y153510D01*
X167762Y152895D01*
X167147Y152093D01*
X166760Y151160D01*
X166628Y150157D01*
X166760Y149155D01*
X167147Y148222D01*
X167762Y147420D01*
X168564Y146804D01*
X168834Y146693D01*
X168882Y146660D01*
X168871Y146636D01*
X168880Y146630D01*
X168929Y146132D01*
X167148Y144351D01*
X166887Y143961D01*
X166813Y143587D01*
X166032D01*
Y136500D01*
X169968D01*
Y143587D01*
X169968Y143587D01*
X169968D01*
X169916Y143713D01*
X171352Y145149D01*
X171352Y145149D01*
X171508Y145383D01*
X171613Y145539D01*
X171704Y146000D01*
Y146000D01*
X171718D01*
X171771Y146270D01*
X171924Y146499D01*
X172129Y146636D01*
X172118Y146660D01*
X172166Y146693D01*
X172436Y146804D01*
X173238Y147420D01*
X173853Y148222D01*
X174240Y149155D01*
X174372Y150157D01*
X174240Y151160D01*
X173853Y152093D01*
X173238Y152895D01*
X172436Y153510D01*
X171502Y153897D01*
X170500Y154029D01*
D02*
G37*
G36*
X53386Y165269D02*
X52281Y165123D01*
X51251Y164697D01*
X50367Y164018D01*
X49689Y163134D01*
X49262Y162105D01*
X49117Y161000D01*
X49262Y159895D01*
X49689Y158866D01*
X50367Y157982D01*
X51251Y157303D01*
X52281Y156877D01*
X53386Y156731D01*
X54491Y156877D01*
X55520Y157303D01*
X56404Y157982D01*
X57083Y158866D01*
X57509Y159895D01*
X57655Y161000D01*
X57509Y162105D01*
X57083Y163134D01*
X56404Y164018D01*
X55520Y164697D01*
X54491Y165123D01*
X53386Y165269D01*
D02*
G37*
G36*
X182425Y137469D02*
X179957D01*
Y135000D01*
X182425D01*
Y137469D01*
D02*
G37*
G36*
X202957D02*
X200488D01*
Y135000D01*
X202957D01*
Y137469D01*
D02*
G37*
%LPD*%
G36*
X125745Y64416D02*
X125648Y64351D01*
X125648Y64351D01*
X122149Y60852D01*
X121887Y60461D01*
X121796Y60000D01*
X121796Y60000D01*
Y55486D01*
X121322Y55325D01*
X120889Y55889D01*
X120043Y56539D01*
X119058Y56947D01*
X118500Y57020D01*
Y53000D01*
Y48980D01*
X119058Y49053D01*
X120043Y49461D01*
X120889Y50111D01*
X121322Y50675D01*
X121796Y50514D01*
Y48000D01*
X121796Y48000D01*
X121887Y47539D01*
X122149Y47148D01*
X122612Y46685D01*
D01*
X122602Y46675D01*
X122709Y46588D01*
X123456Y45615D01*
X123978Y44354D01*
X124142Y43106D01*
X124128Y43000D01*
X124260Y41998D01*
X124647Y41064D01*
X125262Y40262D01*
X126064Y39647D01*
X126998Y39260D01*
X128000Y39128D01*
X129002Y39260D01*
X129936Y39647D01*
X130738Y40262D01*
X131353Y41064D01*
X131740Y41998D01*
X131872Y43000D01*
X131740Y44002D01*
X131353Y44936D01*
X130738Y45738D01*
X129936Y46353D01*
X129002Y46740D01*
X128000Y46872D01*
X127894Y46858D01*
X126646Y47022D01*
X125385Y47544D01*
X124412Y48291D01*
X124412Y48292D01*
X124328Y48393D01*
D01*
D01*
X124327Y48395D01*
X124325Y48397D01*
X124325Y48397D01*
X124325Y48398D01*
D01*
D01*
D01*
D01*
D01*
X124325Y48398D01*
D01*
X124315Y48388D01*
X124315D01*
X124315Y48388D01*
X124204Y48499D01*
Y50514D01*
X124678Y50675D01*
X125111Y50111D01*
X125957Y49461D01*
X126942Y49053D01*
X127500Y48980D01*
Y53000D01*
Y57020D01*
X126942Y56947D01*
X125957Y56539D01*
X125111Y55889D01*
X124678Y55325D01*
X124204Y55486D01*
Y59501D01*
X126999Y62296D01*
X132439D01*
X132631Y61834D01*
X132149Y61352D01*
X131887Y60961D01*
X131796Y60500D01*
X131796Y60500D01*
Y55486D01*
X131322Y55325D01*
X130889Y55889D01*
X130043Y56539D01*
X129058Y56947D01*
X128500Y57020D01*
Y53000D01*
Y48980D01*
X129058Y49053D01*
X130043Y49461D01*
X130889Y50111D01*
X131322Y50675D01*
X131796Y50514D01*
Y48000D01*
X131796Y48000D01*
X131887Y47539D01*
X132149Y47148D01*
X132612Y46685D01*
D01*
X132602Y46675D01*
X132709Y46588D01*
X133456Y45615D01*
X133978Y44354D01*
X134142Y43106D01*
X134128Y43000D01*
X134260Y41998D01*
X134647Y41064D01*
X135262Y40262D01*
X136064Y39647D01*
X136998Y39260D01*
X138000Y39128D01*
X139002Y39260D01*
X139936Y39647D01*
X140738Y40262D01*
X141322Y41024D01*
X141796Y40863D01*
Y39000D01*
X141796Y39000D01*
X141887Y38539D01*
X142148Y38148D01*
X146796Y33501D01*
Y25918D01*
X146306Y25715D01*
X145691Y26517D01*
X144889Y27132D01*
X143955Y27519D01*
X142953Y27651D01*
X142891Y27643D01*
X141951Y27767D01*
X141016Y28154D01*
X140299Y28704D01*
X140247Y28756D01*
X140226Y28782D01*
X140224Y28779D01*
X140224Y28779D01*
X132868Y36135D01*
X132347Y36483D01*
X132245Y36504D01*
X131733Y36606D01*
X131733Y36606D01*
X116665D01*
X114232Y39039D01*
Y40828D01*
X114705Y40988D01*
X115262Y40262D01*
X116064Y39647D01*
X116998Y39260D01*
X118000Y39128D01*
X119002Y39260D01*
X119936Y39647D01*
X120738Y40262D01*
X121353Y41064D01*
X121740Y41998D01*
X121872Y43000D01*
X121740Y44002D01*
X121353Y44936D01*
X120738Y45738D01*
X119936Y46353D01*
X119002Y46740D01*
X118000Y46872D01*
X116998Y46740D01*
X116064Y46353D01*
X115262Y45738D01*
X114705Y45011D01*
X114232Y45172D01*
Y50479D01*
X114705Y50639D01*
X115111Y50111D01*
X115957Y49461D01*
X116942Y49053D01*
X117500Y48980D01*
Y53000D01*
Y57020D01*
X116942Y56947D01*
X115957Y56539D01*
X115111Y55889D01*
X114705Y55361D01*
X114232Y55522D01*
Y57961D01*
X121165Y64894D01*
X125600D01*
X125745Y64416D01*
D02*
G37*
G36*
X66796Y21641D02*
Y16204D01*
X66322Y16044D01*
X65842Y16669D01*
X64996Y17318D01*
X64011Y17726D01*
X63453Y17800D01*
Y13780D01*
X62953D01*
Y13280D01*
X58933D01*
X59006Y12722D01*
X59414Y11737D01*
X60064Y10890D01*
X60910Y10241D01*
X61022Y10195D01*
X60924Y9704D01*
X54427D01*
X54329Y10195D01*
X54889Y10426D01*
X55691Y11042D01*
X56306Y11844D01*
X56693Y12777D01*
X56825Y13780D01*
X56811Y13885D01*
X56975Y15133D01*
X57498Y16394D01*
X58245Y17368D01*
X58351Y17455D01*
X58341Y17465D01*
X58341Y17465D01*
X58851Y17975D01*
X58851Y17975D01*
X59113Y18366D01*
X59204Y18826D01*
Y21582D01*
X59678Y21743D01*
X60215Y21042D01*
X61017Y20426D01*
X61951Y20040D01*
X62953Y19908D01*
X63955Y20040D01*
X64889Y20426D01*
X65691Y21042D01*
X66306Y21844D01*
X66796Y21641D01*
D02*
G37*
G36*
X165315Y72281D02*
X165593Y71610D01*
X166034Y71034D01*
X166610Y70593D01*
X167281Y70315D01*
X168000Y70220D01*
X168719Y70315D01*
X169390Y70593D01*
X169966Y71034D01*
X170407Y71610D01*
X170597Y72067D01*
X171087Y71970D01*
Y68186D01*
X162605Y59704D01*
X155000D01*
X155000Y59704D01*
X154539Y59613D01*
X154148Y59351D01*
X154148Y59351D01*
X152148Y57351D01*
X151887Y56961D01*
X151796Y56500D01*
X151796Y56500D01*
Y55137D01*
X151322Y54976D01*
X150738Y55738D01*
X149936Y56353D01*
X149002Y56740D01*
X148000Y56872D01*
X146998Y56740D01*
X146064Y56353D01*
X145262Y55738D01*
X144647Y54936D01*
X144260Y54002D01*
X144128Y53000D01*
X144260Y51998D01*
X144647Y51064D01*
X145262Y50262D01*
X146064Y49647D01*
X146998Y49260D01*
X148000Y49128D01*
X149002Y49260D01*
X149936Y49647D01*
X150738Y50262D01*
X151322Y51024D01*
X151796Y50863D01*
Y45137D01*
X151322Y44976D01*
X150738Y45738D01*
X149936Y46353D01*
X149002Y46740D01*
X148000Y46872D01*
X146998Y46740D01*
X146064Y46353D01*
X145262Y45738D01*
X144678Y44976D01*
X144204Y45137D01*
Y48000D01*
X144204Y48000D01*
X144113Y48461D01*
X143851Y48851D01*
X143851Y48851D01*
X143388Y49315D01*
X143388Y49315D01*
X143398Y49325D01*
X143291Y49412D01*
X142544Y50385D01*
X142022Y51647D01*
X141858Y52894D01*
X141872Y53000D01*
X141740Y54002D01*
X141353Y54936D01*
X140738Y55738D01*
X139936Y56353D01*
X139002Y56740D01*
X138000Y56872D01*
X136998Y56740D01*
X136064Y56353D01*
X135262Y55738D01*
X134678Y54976D01*
X134204Y55137D01*
Y60001D01*
X134924Y60721D01*
X141182D01*
X141328Y60242D01*
X141286Y60214D01*
X140760Y59428D01*
X140675Y59000D01*
X145325D01*
X145240Y59428D01*
X144714Y60214D01*
X144672Y60242D01*
X144817Y60721D01*
X155152D01*
X155152Y60721D01*
X155613Y60813D01*
X156004Y61074D01*
X164411Y69480D01*
X164411Y69480D01*
X164567Y69715D01*
X164672Y69871D01*
X164763Y70332D01*
Y72649D01*
X165262Y72682D01*
X165315Y72281D01*
D02*
G37*
%LPC*%
G36*
X142500Y58000D02*
X140675D01*
X140760Y57572D01*
X141286Y56786D01*
X142072Y56260D01*
X142500Y56175D01*
Y58000D01*
D02*
G37*
G36*
X145325D02*
X143500D01*
Y56175D01*
X143928Y56260D01*
X144714Y56786D01*
X145240Y57572D01*
X145325Y58000D01*
D02*
G37*
G36*
X62453Y17800D02*
X61896Y17726D01*
X60910Y17318D01*
X60064Y16669D01*
X59414Y15823D01*
X59006Y14837D01*
X58933Y14279D01*
X62453D01*
Y17800D01*
D02*
G37*
%LPD*%
D10*
X276658Y70657D02*
X282000D01*
X168000Y73000D02*
Y110000D01*
X159000Y119000D02*
X168000Y110000D01*
X159000Y119000D02*
Y124500D01*
X205000Y45500D02*
X215000Y35500D01*
X205000Y45500D02*
Y53000D01*
X215000Y35500D02*
X275000D01*
X282000Y42500D01*
Y60815D01*
D11*
X271843Y70657D02*
X276658D01*
X271500Y71000D02*
X271843Y70657D01*
D12*
X289500Y101414D02*
G03*
X290500Y99000I3414J0D01*
G01*
X291000Y97793D02*
G03*
X290500Y99000I-1707J0D01*
G01*
X282000Y80500D02*
G03*
X275964Y83000I-6036J-6036D01*
G01*
X286325Y82291D02*
G03*
X282000Y80500I0J-6116D01*
G01*
X276345Y88000D02*
G03*
X282000Y90342I0J7998D01*
G01*
X279500Y101121D02*
G03*
X281000Y97500I5121J0D01*
G01*
X282000Y95086D02*
G03*
X281000Y97500I-3414J0D01*
G01*
X105500Y72084D02*
G03*
X103621Y76621I-6416J0D01*
G01*
X105500Y73985D02*
G03*
X104178Y77178I-4515J0D01*
G01*
X107379Y76621D02*
G03*
X105500Y72084I4537J-4537D01*
G01*
X106822Y77178D02*
G03*
X105500Y73985I3192J-3192D01*
G01*
X110963Y73963D02*
G03*
X112843Y78500I-4537J4537D01*
G01*
X112308Y75308D02*
G03*
X113630Y78500I-3192J3192D01*
G01*
X115500Y75842D02*
G03*
X110963Y73963I0J-6416D01*
G01*
X115500Y76630D02*
G03*
X112308Y75308I0J-4515D01*
G01*
X130963Y73963D02*
G03*
X132843Y78500I-4537J4537D01*
G01*
X132308Y75308D02*
G03*
X133630Y78500I-3192J3192D01*
G01*
X135500Y75842D02*
G03*
X130963Y73963I0J-6416D01*
G01*
X135500Y76630D02*
G03*
X132308Y75308I0J-4515D01*
G01*
X178000Y36584D02*
G03*
X176121Y41121I-6416J0D01*
G01*
X178000Y38485D02*
G03*
X176678Y41678I-4515J0D01*
G01*
X179879Y41121D02*
G03*
X178000Y36584I4537J-4537D01*
G01*
X179322Y41678D02*
G03*
X178000Y38485I3192J-3192D01*
G01*
X148000Y38000D02*
G03*
X146513Y40797I-3374J0D01*
G01*
X148000Y39482D02*
G03*
X146954Y41450I-2375J0D01*
G01*
X149487Y40797D02*
G03*
X148000Y38000I1888J-2797D01*
G01*
X149046Y41450D02*
G03*
X148000Y39482I1328J-1968D01*
G01*
X142537Y48463D02*
G03*
X138000Y50343I-4537J-4537D01*
G01*
X141192Y49808D02*
G03*
X138000Y51130I-3192J-3192D01*
G01*
X140657Y53000D02*
G03*
X142537Y48463I6416J0D01*
G01*
X139870Y53000D02*
G03*
X141192Y49808I4515J0D01*
G01*
X133463Y47537D02*
G03*
X138000Y45658I4537J4537D01*
G01*
X134808Y46192D02*
G03*
X138000Y44870I3192J3192D01*
G01*
X135343Y43000D02*
G03*
X133463Y47537I-6416J0D01*
G01*
X136130Y43000D02*
G03*
X134808Y46192I-4515J0D01*
G01*
X123463Y47537D02*
G03*
X128000Y45658I4537J4537D01*
G01*
X124808Y46192D02*
G03*
X128000Y44870I3192J3192D01*
G01*
X125343Y43000D02*
G03*
X123463Y47537I-6416J0D01*
G01*
X126130Y43000D02*
G03*
X124808Y46192I-4515J0D01*
G01*
X63463Y38463D02*
G03*
X65342Y43000I-4537J4537D01*
G01*
X64808Y39808D02*
G03*
X66130Y43000I-3192J3192D01*
G01*
X68000Y40343D02*
G03*
X63463Y38463I0J-6416D01*
G01*
X68000Y41130D02*
G03*
X64808Y39808I0J-4515D01*
G01*
X72537Y57537D02*
G03*
X70657Y53000I4537J-4537D01*
G01*
X71192Y56192D02*
G03*
X69870Y53000I3192J-3192D01*
G01*
X68000Y55658D02*
G03*
X72537Y57537I0J6416D01*
G01*
X68000Y54870D02*
G03*
X71192Y56192I0J4515D01*
G01*
X41584Y43000D02*
G03*
X46121Y44879I0J6416D01*
G01*
X43485Y43000D02*
G03*
X46678Y44322I0J4515D01*
G01*
X46121Y41121D02*
G03*
X41584Y43000I-4537J-4537D01*
G01*
X46678Y41678D02*
G03*
X43485Y43000I-3192J-3192D01*
G01*
X52537Y57537D02*
G03*
X50657Y53000I4537J-4537D01*
G01*
X51192Y56192D02*
G03*
X49870Y53000I3192J-3192D01*
G01*
X48000Y55658D02*
G03*
X52537Y57537I0J6416D01*
G01*
X48000Y54870D02*
G03*
X51192Y56192I0J4515D01*
G01*
X37490Y18316D02*
G03*
X35611Y13780I4537J-4537D01*
G01*
X36145Y16972D02*
G03*
X34823Y13780I3192J-3192D01*
G01*
X32953Y16437D02*
G03*
X37490Y18316I0J6416D01*
G01*
X32953Y15650D02*
G03*
X36145Y16972I0J4515D01*
G01*
X47490Y9243D02*
G03*
X42953Y11122I-4537J-4537D01*
G01*
X46145Y10587D02*
G03*
X42953Y11909I-3192J-3192D01*
G01*
X45611Y13780D02*
G03*
X47490Y9243I6416J0D01*
G01*
X44823Y13780D02*
G03*
X46145Y10587I4515J0D01*
G01*
X57490Y18316D02*
G03*
X55611Y13780I4537J-4537D01*
G01*
X56146Y16972D02*
G03*
X54823Y13780I3192J-3192D01*
G01*
X52953Y16437D02*
G03*
X57490Y18316I0J6416D01*
G01*
X52953Y15650D02*
G03*
X56146Y16972I0J4515D01*
G01*
X66425Y27251D02*
G03*
X65554Y24325I2268J-2268D01*
G01*
X65396Y26223D02*
G03*
X64783Y24163I1596J-1596D01*
G01*
X63499Y26380D02*
G03*
X66425Y27251I659J3139D01*
G01*
X63337Y25610D02*
G03*
X65396Y26223I463J2209D01*
G01*
X98417Y18316D02*
G03*
X102953Y16437I4537J4537D01*
G01*
X99761Y16972D02*
G03*
X102953Y15650I3192J3192D01*
G01*
X100296Y13780D02*
G03*
X98417Y18316I-6416J0D01*
G01*
X101083Y13780D02*
G03*
X99761Y16972I-4515J0D01*
G01*
X147490Y18316D02*
G03*
X145611Y13780I4537J-4537D01*
G01*
X146145Y16972D02*
G03*
X144823Y13780I3192J-3192D01*
G01*
X142953Y16437D02*
G03*
X147490Y18316I0J6416D01*
G01*
X142953Y15650D02*
G03*
X146145Y16972I0J4515D01*
G01*
X157490Y18316D02*
G03*
X155611Y13780I4537J-4537D01*
G01*
X156146Y16972D02*
G03*
X154823Y13780I3192J-3192D01*
G01*
X152953Y16437D02*
G03*
X157490Y18316I0J6416D01*
G01*
X152953Y15650D02*
G03*
X156146Y16972I0J4515D01*
G01*
X152953Y30195D02*
G03*
X154832Y25659I6416J0D01*
G01*
X152953Y28294D02*
G03*
X154275Y25102I4515J0D01*
G01*
X151074Y25659D02*
G03*
X152953Y30195I-4537J4537D01*
G01*
X151631Y25102D02*
G03*
X152953Y28294I-3192J3192D01*
G01*
X162953Y8000D02*
G03*
X161223Y11762I-4955J0D01*
G01*
X162953Y9713D02*
G03*
X161736Y12360I-3487J0D01*
G01*
X164683Y11762D02*
G03*
X162953Y8000I3226J-3762D01*
G01*
X164170Y12360D02*
G03*
X162953Y9713I2270J-2647D01*
G01*
Y30195D02*
G03*
X164832Y25659I6416J0D01*
G01*
X162953Y28294D02*
G03*
X164275Y25102I4515J0D01*
G01*
X161074Y25659D02*
G03*
X162953Y30195I-4537J4537D01*
G01*
X161631Y25102D02*
G03*
X162953Y28294I-3192J3192D01*
G01*
X177490Y18316D02*
G03*
X175611Y13780I4537J-4537D01*
G01*
X176146Y16972D02*
G03*
X174823Y13780I3192J-3192D01*
G01*
X172953Y16437D02*
G03*
X177490Y18316I0J6416D01*
G01*
X172953Y15650D02*
G03*
X176146Y16972I0J4515D01*
G01*
X172953Y30072D02*
G03*
X174796Y25622I6292J0D01*
G01*
X172953Y28171D02*
G03*
X174239Y25066I4391J0D01*
G01*
X171110Y25622D02*
G03*
X172953Y30072I-4449J4449D01*
G01*
X171667Y25066D02*
G03*
X172953Y28171I-3105J3105D01*
G01*
X197490Y18316D02*
G03*
X195611Y13780I4537J-4537D01*
G01*
X196145Y16972D02*
G03*
X194823Y13780I3192J-3192D01*
G01*
X192953Y16437D02*
G03*
X197490Y18316I0J6416D01*
G01*
X192953Y15650D02*
G03*
X196145Y16972I0J4515D01*
G01*
X189575Y20401D02*
G03*
X190366Y23174I-2097J2097D01*
G01*
X190576Y21402D02*
G03*
X191132Y23353I-1476J1476D01*
G01*
X192348Y21192D02*
G03*
X189575Y20401I-676J-2888D01*
G01*
X192527Y21959D02*
G03*
X190576Y21402I-476J-2032D01*
G01*
X208416Y28316D02*
G03*
X212953Y26437I4537J4537D01*
G01*
X209760Y26972D02*
G03*
X212953Y25650I3192J3192D01*
G01*
X210295Y23779D02*
G03*
X208416Y28316I-6416J0D01*
G01*
X211083Y23779D02*
G03*
X209760Y26972I-4515J0D01*
G01*
X276963Y15121D02*
G03*
X278842Y19658I-4537J4537D01*
G01*
X278308Y16465D02*
G03*
X279630Y19658I-3192J3192D01*
G01*
X281500Y17000D02*
G03*
X276963Y15121I0J-6416D01*
G01*
X281500Y17787D02*
G03*
X278308Y16465I0J-4515D01*
G01*
X282000Y95086D02*
G03*
X283388Y92609I2904J0D01*
G01*
X282000Y93680D02*
G03*
X282977Y91937I2043J0D01*
G01*
X280612Y92609D02*
G03*
X282000Y95086I-1516J2477D01*
G01*
X281024Y91937D02*
G03*
X282000Y93680I-1067J1743D01*
G01*
X278415Y88273D02*
G03*
X279354Y90093I-948J1642D01*
G01*
X280461Y88176D02*
G03*
X278415Y88273I-1098J-1545D01*
G01*
X278174Y82709D02*
G03*
X280590Y82752I1172J2030D01*
G01*
X279308Y82055D02*
G03*
X281008Y82085I825J1429D01*
G01*
X279344Y80595D02*
G03*
X278174Y82709I-2342J84D01*
G01*
X280131Y80567D02*
G03*
X279308Y82055I-1648J59D01*
G01*
X170500Y146000D02*
G03*
X169384Y147746I-1923J0D01*
G01*
X171616D02*
G03*
X170500Y146000I807J-1745D01*
G01*
X289500Y101414D02*
G03*
X287983Y104318I-3537J0D01*
G01*
X289500Y102921D02*
G03*
X288432Y104965I-2489J0D01*
G01*
X291018Y104318D02*
G03*
X289500Y101414I2020J-2904D01*
G01*
X290568Y104965D02*
G03*
X289500Y102921I1421J-2043D01*
G01*
X279500Y101122D02*
G03*
X277886Y104389I-4114J0D01*
G01*
X279500Y102715D02*
G03*
X278364Y105015I-2895J0D01*
G01*
X281115Y104389D02*
G03*
X279500Y101122I2499J-3268D01*
G01*
X280636Y105015D02*
G03*
X279500Y102715I1759J-2299D01*
G01*
X269845Y99000D02*
G03*
X267157Y97887I0J-3802D01*
G01*
Y100113D02*
G03*
X269845Y99000I2688J2688D01*
G01*
X245956Y81957D02*
G03*
X243688Y80923I0J-3006D01*
G01*
Y82990D02*
G03*
X245956Y81957I2268J1973D01*
G01*
X244957Y89043D02*
G03*
X243931Y88386I0J-1129D01*
G01*
Y89701D02*
G03*
X244957Y89043I1026J471D01*
G01*
X238698D02*
G03*
X241387Y90157I0J3802D01*
G01*
Y87930D02*
G03*
X238698Y89043I-2688J-2688D01*
G01*
X186740Y138300D02*
G03*
X186183Y139644I-1901J0D01*
G01*
X187297D02*
G03*
X186740Y138300I1344J-1344D01*
G01*
X49862Y97931D02*
G03*
X48552Y101095I-4474J0D01*
G01*
X49862Y99832D02*
G03*
X49109Y101652I-2573J0D01*
G01*
X50779Y101095D02*
G03*
X49862Y98882I2213J-2213D01*
G01*
X42579Y106011D02*
G03*
X43692Y103322I3802J0D01*
G01*
X41465D02*
G03*
X42579Y106011I-2688J2688D01*
G01*
X42382Y98882D02*
G03*
X41465Y101095I-3130J0D01*
G01*
X43692D02*
G03*
X42382Y97931I3164J-3164D01*
G01*
X43135Y101652D02*
G03*
X42382Y99832I1819J-1819D01*
G01*
X31358Y97931D02*
G03*
X30048Y101095I-4474J0D01*
G01*
X31358Y99832D02*
G03*
X30605Y101652I-2573J0D01*
G01*
X32275Y101095D02*
G03*
X31358Y98882I2213J-2213D01*
G01*
X24075Y106011D02*
G03*
X25188Y103322I3802J0D01*
G01*
X22961D02*
G03*
X24075Y106011I-2688J2688D01*
G01*
X23878Y98882D02*
G03*
X22961Y101095I-3130J0D01*
G01*
X25188D02*
G03*
X23878Y97931I3164J-3164D01*
G01*
X24632Y101652D02*
G03*
X23878Y99832I1819J-1819D01*
G01*
X13791Y97931D02*
G03*
X12481Y101095I-4474J0D01*
G01*
X13791Y99832D02*
G03*
X13038Y101652I-2573J0D01*
G01*
X14708Y101095D02*
G03*
X13791Y98882I2213J-2213D01*
G01*
X6508Y106011D02*
G03*
X7621Y103322I3802J0D01*
G01*
X5394D02*
G03*
X6508Y106011I-2688J2688D01*
G01*
X6311Y98882D02*
G03*
X5394Y101095I-3130J0D01*
G01*
X7621D02*
G03*
X6311Y97931I3164J-3164D01*
G01*
X7065Y101652D02*
G03*
X6311Y99832I1819J-1819D01*
G01*
X66720Y97931D02*
G03*
X65410Y101095I-4474J0D01*
G01*
X66720Y99832D02*
G03*
X65967Y101652I-2573J0D01*
G01*
X67637Y101095D02*
G03*
X66720Y98882I2213J-2213D01*
G01*
X59437Y106011D02*
G03*
X60551Y103322I3802J0D01*
G01*
X58324D02*
G03*
X59437Y106011I-2688J2688D01*
G01*
X59240Y98882D02*
G03*
X58324Y101095I-3130J0D01*
G01*
X60551D02*
G03*
X59240Y97931I3164J-3164D01*
G01*
X59994Y101652D02*
G03*
X59240Y99832I1819J-1819D01*
G01*
X84043Y97931D02*
G03*
X82733Y101095I-4474J0D01*
G01*
X84043Y99832D02*
G03*
X83290Y101652I-2573J0D01*
G01*
X84960Y101095D02*
G03*
X84043Y98882I2213J-2213D01*
G01*
X76760Y106011D02*
G03*
X77873Y103322I3802J0D01*
G01*
X75646D02*
G03*
X76760Y106011I-2688J2688D01*
G01*
X76563Y98882D02*
G03*
X75646Y101095I-3130J0D01*
G01*
X77873D02*
G03*
X76563Y97931I3164J-3164D01*
G01*
X77317Y101652D02*
G03*
X76563Y99832I1819J-1819D01*
G01*
X100972Y97931D02*
G03*
X99662Y101095I-4474J0D01*
G01*
X100972Y99832D02*
G03*
X100219Y101652I-2573J0D01*
G01*
X101889Y101095D02*
G03*
X100972Y98882I2213J-2213D01*
G01*
X104578Y102209D02*
G03*
X101889Y101095I0J-3802D01*
G01*
Y103322D02*
G03*
X104578Y102209I2688J2688D01*
G01*
X93689Y106011D02*
G03*
X94802Y103322I3802J0D01*
G01*
X92575D02*
G03*
X93689Y106011I-2688J2688D01*
G01*
X93492Y98882D02*
G03*
X92575Y101095I-3130J0D01*
G01*
X94802D02*
G03*
X93492Y97931I3164J-3164D01*
G01*
X94246Y101652D02*
G03*
X93492Y99832I1819J-1819D01*
G01*
X201102Y80500D02*
G03*
X199758Y79943I0J-1901D01*
G01*
Y81057D02*
G03*
X201102Y80500I1344J1344D01*
G01*
X191001Y85500D02*
G03*
X192345Y86057I0J1901D01*
G01*
Y84943D02*
G03*
X191001Y85500I-1344J-1344D01*
G01*
X219999Y80500D02*
G03*
X218655Y79943I0J-1901D01*
G01*
Y81057D02*
G03*
X219999Y80500I1344J1344D01*
G01*
X224500Y91345D02*
G03*
X225613Y88657I3802J0D01*
G01*
X223387D02*
G03*
X224500Y91345I-2688J2688D01*
G01*
X228406Y80500D02*
G03*
X225613Y79343I0J-3950D01*
G01*
X226505Y80500D02*
G03*
X225057Y79900I0J-2049D01*
G01*
X225613Y81570D02*
G03*
X228197Y80500I2584J2584D01*
G01*
X220803D02*
G03*
X223387Y81570I0J3654D01*
G01*
Y79343D02*
G03*
X220594Y80500I-2793J-2793D01*
G01*
X223943Y79900D02*
G03*
X222495Y80500I-1449J-1449D01*
G01*
X210543Y130698D02*
G03*
X209430Y133386I-3802J0D01*
G01*
X211657D02*
G03*
X210543Y130698I2688J-2688D01*
G01*
X210740Y137827D02*
G03*
X211657Y135614I3130J0D01*
G01*
X209430D02*
G03*
X210740Y138777I-3164J3164D01*
G01*
X209986Y135057D02*
G03*
X210740Y136876I-1819J1819D01*
G01*
Y138300D02*
G03*
X210183Y139644I-1901J0D01*
G01*
X211297D02*
G03*
X210740Y138300I1344J-1344D01*
G01*
X171543Y120698D02*
G03*
X170430Y123386I-3802J0D01*
G01*
X172657D02*
G03*
X171543Y120698I2688J-2688D01*
G01*
X171740Y127827D02*
G03*
X172657Y125614I3130J0D01*
G01*
X170430D02*
G03*
X171740Y128777I-3164J3164D01*
G01*
X170986Y125057D02*
G03*
X171740Y126876I-1819J1819D01*
G01*
X168000Y143500D02*
G03*
X168553Y142179I1855J0D01*
G01*
X167447D02*
G03*
X168000Y143500I-1302J1321D01*
G01*
X171740Y128300D02*
G03*
X171183Y129644I-1901J0D01*
G01*
X172297D02*
G03*
X171740Y128300I1344J-1344D01*
G01*
X186543Y130698D02*
G03*
X185430Y133386I-3802J0D01*
G01*
X187657D02*
G03*
X186543Y130698I2688J-2688D01*
G01*
X186740Y137827D02*
G03*
X187657Y135614I3130J0D01*
G01*
X185430D02*
G03*
X186740Y138777I-3164J3164D01*
G01*
X185986Y135057D02*
G03*
X186740Y136876I-1819J1819D01*
G01*
X80303Y82345D02*
G03*
X81417Y79657I3802J0D01*
G01*
X79190D02*
G03*
X80303Y82345I-2688J2688D01*
G01*
X76501Y78543D02*
G03*
X79190Y79657I0J3802D01*
G01*
Y77430D02*
G03*
X76501Y78543I-2688J-2688D01*
G01*
X80303Y67655D02*
G03*
X79190Y70343I-3802J0D01*
G01*
X81417D02*
G03*
X80303Y67655I2688J-2688D01*
G01*
X97232Y82345D02*
G03*
X98346Y79657I3802J0D01*
G01*
X96119D02*
G03*
X97232Y82345I-2688J2688D01*
G01*
X93430Y78543D02*
G03*
X96119Y79657I0J3802D01*
G01*
Y77430D02*
G03*
X93430Y78543I-2688J-2688D01*
G01*
X59178D02*
G03*
X61867Y79657I0J3802D01*
G01*
Y77430D02*
G03*
X59178Y78543I-2688J-2688D01*
G01*
X62980Y82345D02*
G03*
X64094Y79657I3802J0D01*
G01*
X61867D02*
G03*
X62980Y82345I-2688J2688D01*
G01*
Y67655D02*
G03*
X61867Y70343I-3802J0D01*
G01*
X64094D02*
G03*
X62980Y67655I2688J-2688D01*
G01*
X10051Y82345D02*
G03*
X11165Y79657I3802J0D01*
G01*
X8938D02*
G03*
X10051Y82345I-2688J2688D01*
G01*
X6249Y78543D02*
G03*
X8938Y79657I0J3802D01*
G01*
Y77430D02*
G03*
X6249Y78543I-2688J-2688D01*
G01*
X10051Y67655D02*
G03*
X8938Y70343I-3802J0D01*
G01*
X11165D02*
G03*
X10051Y67655I2688J-2688D01*
G01*
X43043Y78543D02*
G03*
X44845Y79465I0J2222D01*
G01*
Y77622D02*
G03*
X43043Y78543I-1802J-1300D01*
G01*
X46122Y82345D02*
G03*
X47236Y79657I3802J0D01*
G01*
X45009D02*
G03*
X46122Y82345I-2688J2688D01*
G01*
Y67655D02*
G03*
X45009Y70343I-3802J0D01*
G01*
X47236D02*
G03*
X46122Y67655I2688J-2688D01*
G01*
X27618Y82345D02*
G03*
X28732Y79657I3802J0D01*
G01*
X26505D02*
G03*
X27618Y82345I-2688J2688D01*
G01*
X30957Y78543D02*
G03*
X28833Y77542I0J-2751D01*
G01*
Y79545D02*
G03*
X30957Y78543I2123J1750D01*
G01*
X27618Y67655D02*
G03*
X26505Y70343I-3802J0D01*
G01*
X28732D02*
G03*
X27618Y67655I2688J-2688D01*
G01*
Y82981D02*
G03*
X27061Y84325I-1901J0D01*
G01*
X28175D02*
G03*
X27618Y82981I1344J-1344D01*
G01*
X31358Y98200D02*
G03*
X31915Y96856I1901J0D01*
G01*
X30801D02*
G03*
X31358Y98200I-1344J1344D01*
G01*
Y91249D02*
G03*
X30801Y92593I-1901J0D01*
G01*
X31915D02*
G03*
X31358Y91249I1344J-1344D01*
G01*
X23878Y98200D02*
G03*
X24435Y96856I1901J0D01*
G01*
X23321D02*
G03*
X23878Y98200I-1344J1344D01*
G01*
X46122Y82981D02*
G03*
X45565Y84325I-1901J0D01*
G01*
X46679D02*
G03*
X46122Y82981I1344J-1344D01*
G01*
X49862Y98200D02*
G03*
X50419Y96856I1901J0D01*
G01*
X49305D02*
G03*
X49862Y98200I-1344J1344D01*
G01*
Y91249D02*
G03*
X49305Y92593I-1901J0D01*
G01*
X50419D02*
G03*
X49862Y91249I1344J-1344D01*
G01*
X42382Y98200D02*
G03*
X42939Y96856I1901J0D01*
G01*
X41825D02*
G03*
X42382Y98200I-1344J1344D01*
G01*
X10051Y82981D02*
G03*
X9494Y84325I-1901J0D01*
G01*
X10608D02*
G03*
X10051Y82981I1344J-1344D01*
G01*
X13791Y98200D02*
G03*
X14348Y96856I1901J0D01*
G01*
X13235D02*
G03*
X13791Y98200I-1344J1344D01*
G01*
Y91249D02*
G03*
X13235Y92593I-1901J0D01*
G01*
X14348D02*
G03*
X13791Y91249I1344J-1344D01*
G01*
X6311Y98200D02*
G03*
X6868Y96856I1901J0D01*
G01*
X5754D02*
G03*
X6311Y98200I-1344J1344D01*
G01*
X62980Y82981D02*
G03*
X62423Y84325I-1901J0D01*
G01*
X63537D02*
G03*
X62980Y82981I1344J-1344D01*
G01*
X66720Y98200D02*
G03*
X67277Y96856I1901J0D01*
G01*
X66164D02*
G03*
X66720Y98200I-1344J1344D01*
G01*
Y91249D02*
G03*
X66164Y92593I-1901J0D01*
G01*
X67277D02*
G03*
X66720Y91249I1344J-1344D01*
G01*
X59240Y98200D02*
G03*
X59797Y96856I1901J0D01*
G01*
X58683D02*
G03*
X59240Y98200I-1344J1344D01*
G01*
X80303Y82981D02*
G03*
X79746Y84325I-1901J0D01*
G01*
X80860D02*
G03*
X80303Y82981I1344J-1344D01*
G01*
X84043Y91249D02*
G03*
X83486Y92593I-1901J0D01*
G01*
X84600D02*
G03*
X84043Y91249I1344J-1344D01*
G01*
Y98200D02*
G03*
X84600Y96856I1901J0D01*
G01*
X83486D02*
G03*
X84043Y98200I-1344J1344D01*
G01*
X76563D02*
G03*
X77120Y96856I1901J0D01*
G01*
X76006D02*
G03*
X76563Y98200I-1344J1344D01*
G01*
X97232Y82981D02*
G03*
X96675Y84325I-1901J0D01*
G01*
X97789D02*
G03*
X97232Y82981I1344J-1344D01*
G01*
X100972Y98200D02*
G03*
X101529Y96856I1901J0D01*
G01*
X100416D02*
G03*
X100972Y98200I-1344J1344D01*
G01*
X93492D02*
G03*
X94049Y96856I1901J0D01*
G01*
X92935D02*
G03*
X93492Y98200I-1344J1344D01*
G01*
X273410Y94901D02*
G03*
X273966Y93557I1901J0D01*
G01*
X272853D02*
G03*
X273410Y94901I-1344J1344D01*
G01*
X277355Y88188D02*
G03*
X276382Y87555I278J-1492D01*
G01*
X276178Y88649D02*
G03*
X277888Y88288I1292J1884D01*
G01*
X277713Y82654D02*
G03*
X276170Y82346I-399J-2016D01*
G01*
X276386Y83438D02*
G03*
X277499Y82696I1452J972D01*
G01*
X256373Y93000D02*
G03*
X255029Y92443I0J-1901D01*
G01*
Y93557D02*
G03*
X256373Y93000I1344J1344D01*
G01*
X247926Y88000D02*
G03*
X249270Y88557I0J1901D01*
G01*
Y87443D02*
G03*
X247926Y88000I-1344J-1344D01*
G01*
Y83000D02*
G03*
X249270Y83557I0J1901D01*
G01*
Y82443D02*
G03*
X247926Y83000I-1344J-1344D01*
G01*
X252150Y76099D02*
G03*
X251593Y77443I-1901J0D01*
G01*
X252706D02*
G03*
X252150Y76099I1344J-1344D01*
G01*
X286325Y82291D02*
G03*
X288107Y83408I0J1980D01*
G01*
Y81175D02*
G03*
X286325Y82291I-1782J-864D01*
G01*
X291000Y97793D02*
G03*
X292116Y96012I1979J0D01*
G01*
X289884D02*
G03*
X291000Y97793I-863J1781D01*
G01*
X72820Y35320D02*
G03*
X73516Y37000I-1680J1680D01*
G01*
X74500Y36016D02*
G03*
X72820Y35320I0J-2376D01*
G01*
X205000Y69565D02*
G03*
X204304Y71245I-2376J0D01*
G01*
X205696D02*
G03*
X205000Y69565I1680J-1680D01*
G01*
X272624Y42957D02*
G03*
X274304Y43653I0J2376D01*
G01*
Y42261D02*
G03*
X272624Y42957I-1680J-1680D01*
G01*
Y46500D02*
G03*
X274304Y47196I0J2376D01*
G01*
Y45804D02*
G03*
X272624Y46500I-1680J-1680D01*
G01*
X224500Y93124D02*
G03*
X223804Y94804I-2376J0D01*
G01*
X225196D02*
G03*
X224500Y93124I1680J-1680D01*
G01*
X188000D02*
G03*
X187304Y94804I-2376J0D01*
G01*
X188696D02*
G03*
X188000Y93124I1680J-1680D01*
G01*
X185000Y103124D02*
G03*
X184304Y104804I-2376J0D01*
G01*
X185696D02*
G03*
X185000Y103124I1680J-1680D01*
G01*
X181000Y83124D02*
G03*
X180304Y84804I-2376J0D01*
G01*
X181696D02*
G03*
X181000Y83124I1680J-1680D01*
G01*
X235500Y86624D02*
G03*
X234804Y88304I-2376J0D01*
G01*
X236196D02*
G03*
X235500Y86624I1680J-1680D01*
G01*
X237981Y89043D02*
G03*
X236196Y88304I0J-2524D01*
G01*
Y89696D02*
G03*
X237772Y89043I1576J1576D01*
G01*
X259500Y68376D02*
G03*
X260196Y66696I2376J0D01*
G01*
X258804D02*
G03*
X259500Y68376I-1680J1680D01*
G01*
X256295Y63581D02*
G03*
X256991Y61901I2376J0D01*
G01*
X255599D02*
G03*
X256295Y63581I-1680J1680D01*
G01*
X55124Y32500D02*
G03*
X56804Y33196I0J2376D01*
G01*
Y31804D02*
G03*
X55124Y32500I-1680J-1680D01*
G01*
X103000Y34876D02*
G03*
X103696Y33196I2376J0D01*
G01*
X102304D02*
G03*
X103000Y34876I-1680J1680D01*
G01*
X10051Y68927D02*
G03*
X10747Y67247I2376J0D01*
G01*
X9355D02*
G03*
X10051Y68927I-1680J1680D01*
G01*
X9891Y68254D02*
G03*
X10543Y67404I1353J363D01*
G01*
X9277Y67159D02*
G03*
X9670Y69078I-1722J1352D01*
G01*
X10432D02*
G03*
X10825Y67159I2115J-567D01*
G01*
X9559Y67404D02*
G03*
X10212Y68254I-701J1213D01*
G01*
X27618Y68994D02*
G03*
X28314Y67314I2376J0D01*
G01*
X26922D02*
G03*
X27618Y68994I-1680J1680D01*
G01*
X27430Y68357D02*
G03*
X28110Y67471I1410J378D01*
G01*
X26844Y67226D02*
G03*
X27229Y69107I-1688J1325D01*
G01*
X28007D02*
G03*
X28392Y67226I2073J-555D01*
G01*
X27126Y67471D02*
G03*
X27806Y68357I-730J1264D01*
G01*
X46122Y68998D02*
G03*
X46818Y67318I2376J0D01*
G01*
X45426D02*
G03*
X46122Y68998I-1680J1680D01*
G01*
X45932Y68363D02*
G03*
X46614Y67474I1414J379D01*
G01*
X45348Y67230D02*
G03*
X45733Y69108I-1686J1324D01*
G01*
X46512D02*
G03*
X46896Y67230I2070J-555D01*
G01*
X45630Y67474D02*
G03*
X46312Y68363I-732J1268D01*
G01*
X62980Y68896D02*
G03*
X63676Y67216I2376J0D01*
G01*
X62284D02*
G03*
X62980Y68896I-1680J1680D01*
G01*
X62833Y68206D02*
G03*
X63472Y67372I1326J355D01*
G01*
X62206Y67128D02*
G03*
X62603Y69064I-1738J1365D01*
G01*
X63358D02*
G03*
X63754Y67128I2134J-572D01*
G01*
X62488Y67372D02*
G03*
X63128Y68206I-687J1189D01*
G01*
X80303Y69073D02*
G03*
X80999Y67393I2376J0D01*
G01*
X79607D02*
G03*
X80303Y69073I-1680J1680D01*
G01*
X80701Y69141D02*
G03*
X81077Y67305I2024J-542D01*
G01*
X79811Y67549D02*
G03*
X80524Y68478I-765J1325D01*
G01*
X80083D02*
G03*
X80795Y67549I1478J396D01*
G01*
X79529Y67305D02*
G03*
X79905Y69141I-1648J1294D01*
G01*
X36000Y54376D02*
G03*
X36696Y52696I2376J0D01*
G01*
X35304D02*
G03*
X36000Y54376I-1680J1680D01*
G01*
X22500Y44876D02*
G03*
X23196Y43196I2376J0D01*
G01*
X21804D02*
G03*
X22500Y44876I-1680J1680D01*
G01*
X52953Y64923D02*
G03*
X53649Y63243I2376J0D01*
G01*
X52257D02*
G03*
X52953Y64923I-1680J1680D01*
G01*
X245629Y57071D02*
G03*
X244285Y56514I0J-1901D01*
G01*
Y57628D02*
G03*
X245629Y57071I1344J1344D01*
G01*
X202624Y80500D02*
G03*
X204304Y81196I0J2376D01*
G01*
Y79804D02*
G03*
X202624Y80500I-1680J-1680D01*
G01*
X201500Y72124D02*
G03*
X200804Y73804I-2376J0D01*
G01*
X202196D02*
G03*
X201500Y72124I1680J-1680D01*
G01*
X161000Y74624D02*
G03*
X160304Y76304I-2376J0D01*
G01*
X161696D02*
G03*
X161000Y74624I1680J-1680D01*
G01*
X163559Y77481D02*
G03*
X162804Y79304I-2578J0D01*
G01*
X164196D02*
G03*
X163559Y77766I1538J-1538D01*
G01*
X185500Y75124D02*
G03*
X184804Y76804I-2376J0D01*
G01*
X186196D02*
G03*
X185500Y75124I1680J-1680D01*
G01*
X186530Y80089D02*
G03*
X185500Y80516I-1030J-1030D01*
G01*
X186484Y81500D02*
G03*
X187450Y79169I3296J0D01*
G01*
X146124Y81000D02*
G03*
X147804Y81696I0J2376D01*
G01*
Y80304D02*
G03*
X146124Y81000I-1680J-1680D01*
G01*
X145895Y86755D02*
G03*
X147575Y86059I1680J1680D01*
G01*
X146591Y85075D02*
G03*
X145895Y86755I-2376J0D01*
G01*
X86320Y87180D02*
G03*
X88000Y86484I1680J1680D01*
G01*
X87016Y85500D02*
G03*
X86320Y87180I-2376J0D01*
G01*
X135876Y85500D02*
G03*
X134196Y84804I0J-2376D01*
G01*
Y86196D02*
G03*
X135876Y85500I1680J1680D01*
G01*
X214949Y80500D02*
X232000D01*
X42953Y13780D02*
X48233Y8500D01*
X263071Y57071D02*
X276658Y70657D01*
X243728Y57071D02*
X263071D01*
X143500Y81000D02*
X148500D01*
X139000Y85500D02*
X143500Y81000D01*
X133500Y85500D02*
X139000D01*
X84043Y89457D02*
X88000Y85500D01*
X84043Y89457D02*
Y94724D01*
X100776Y102209D02*
X130441D01*
X147575Y85075D01*
X119727Y72000D02*
X129000D01*
X135500Y78500D01*
X95925Y60425D02*
X100652D01*
X107075Y66848D01*
X105500Y67500D02*
Y78500D01*
X100000Y62000D02*
X105500Y67500D01*
X107075Y66848D02*
Y70075D01*
X89500Y62000D02*
X100000D01*
X107075Y70075D02*
X115500Y78500D01*
X188500Y70227D02*
Y78119D01*
X185500Y81119D02*
X188500Y78119D01*
X185500Y81119D02*
Y81500D01*
Y71000D02*
X196150Y60350D01*
X185500Y71000D02*
Y77500D01*
X188500Y70227D02*
X197724Y61003D01*
X185000Y85000D02*
Y105500D01*
X182575Y82575D02*
X185000Y85000D01*
X182575Y71652D02*
Y82575D01*
Y71652D02*
X194575Y59652D01*
X181000Y71000D02*
Y85500D01*
X163500Y80000D02*
X163559Y79941D01*
Y70332D02*
Y79941D01*
X154500Y63500D02*
X161000Y70000D01*
Y77000D01*
X155152Y61925D02*
X163559Y70332D01*
X83846Y102209D02*
X84043Y102012D01*
Y94724D02*
Y102012D01*
X196150Y30583D02*
X202953Y23779D01*
X100776Y102209D02*
X100972Y102012D01*
Y94724D02*
Y102012D01*
X199959Y29000D02*
X207732D01*
X212953Y23779D01*
X197724Y31235D02*
X199959Y29000D01*
X181000Y71000D02*
X193000Y59000D01*
X197724Y31235D02*
Y61003D01*
X196150Y30583D02*
Y60350D01*
X193000Y31500D02*
Y59000D01*
X188000Y26500D02*
X193000Y31500D01*
X201500Y62773D02*
Y74500D01*
X196051Y80500D02*
X205000D01*
X148000Y38000D02*
Y43000D01*
Y38000D02*
X152953Y33047D01*
Y23779D02*
Y33047D01*
X172953Y23779D02*
Y62953D01*
X175441Y65441D01*
X170500Y146000D02*
Y150043D01*
X168000Y143500D02*
X170500Y146000D01*
X168000Y140043D02*
Y143500D01*
X171543Y115500D02*
X172291Y114752D01*
X171543Y115500D02*
Y124500D01*
X62500Y29500D02*
X73000Y40000D01*
X60000Y29500D02*
X62500D01*
X58000Y27500D02*
X60000Y29500D01*
X58000Y18826D02*
Y27500D01*
X73000Y40000D02*
Y46000D01*
X71925Y31425D02*
X74425D01*
X68000Y27500D02*
X71925Y31425D01*
X68000Y11000D02*
Y27500D01*
X83000Y40000D02*
Y55500D01*
X74425Y31425D02*
X83000Y40000D01*
X98000Y18733D02*
X102953Y13780D01*
X48233Y8500D02*
X65500D01*
X68000Y11000D01*
X188000Y18826D02*
Y26500D01*
X182953Y13780D02*
X188000Y18826D01*
X269598Y7756D02*
X281500Y19658D01*
X189244Y7756D02*
X269598D01*
X188000Y9000D02*
X189244Y7756D01*
X188000Y9000D02*
Y16599D01*
X189575Y18174D01*
Y20401D01*
X192953Y23779D01*
Y13780D02*
X197500Y18326D01*
X289500Y101414D02*
Y106500D01*
X291000Y93709D02*
Y97793D01*
X281343Y147000D02*
X281500Y146843D01*
X210543Y130043D02*
Y134500D01*
X205500Y125000D02*
X210543Y130043D01*
X162953Y23779D02*
Y56122D01*
X138000Y53000D02*
X143000Y48000D01*
Y39000D02*
Y48000D01*
X178000Y18826D02*
Y43000D01*
X172953Y13780D02*
X178000Y18826D01*
X152953Y13780D02*
X158000Y18826D01*
Y32000D01*
X171543Y124500D02*
X171740Y124697D01*
Y131776D01*
X186543Y134500D02*
X186740Y134697D01*
Y141776D01*
X210543Y134500D02*
X210740Y134697D01*
Y141776D01*
X23000Y37500D02*
X62500D01*
X4500Y56000D02*
X23000Y37500D01*
X4500Y56000D02*
Y77000D01*
X46500Y47500D02*
X53500D01*
X39000Y55000D02*
X46500Y47500D01*
X39000Y55000D02*
Y74500D01*
X58000Y53000D02*
X68295Y63295D01*
Y73295D02*
X73543Y78543D01*
X68295Y63295D02*
Y73295D01*
X93492Y102012D02*
X93689Y102209D01*
X93492Y94724D02*
Y102012D01*
X76563D02*
X76760Y102209D01*
X76563Y94724D02*
Y102012D01*
X66524Y102209D02*
X66720Y102012D01*
Y94724D02*
Y102012D01*
X59240Y102012D02*
X59437Y102209D01*
X59240Y94724D02*
Y102012D01*
X49665Y102209D02*
X49862Y102012D01*
Y94724D02*
Y102012D01*
X42382Y102012D02*
X42579Y102209D01*
X42382Y94724D02*
Y102012D01*
X31161Y102209D02*
X31358Y102012D01*
Y94724D02*
Y102012D01*
X23878Y102012D02*
X24075Y102209D01*
X23878Y94724D02*
Y102012D01*
X13595Y102209D02*
X13791Y102012D01*
Y94724D02*
Y102012D01*
X6311Y102012D02*
X6508Y102209D01*
X6311Y94724D02*
Y102012D01*
X13791Y83709D02*
X22500Y75000D01*
Y42500D02*
Y75000D01*
X6043Y78543D02*
X10051D01*
X4500Y77000D02*
X6043Y78543D01*
X52953Y13780D02*
X58000Y18826D01*
X71500Y47500D02*
X73000Y46000D01*
X55727Y47500D02*
X71500D01*
X53015Y50212D02*
X55727Y47500D01*
X53015Y50212D02*
Y54000D01*
X56247Y57232D01*
X60005D01*
X66720Y63948D01*
Y94724D01*
X31358Y87642D02*
X36000Y83000D01*
Y52000D02*
Y83000D01*
X33000Y49500D02*
X39500Y43000D01*
X33000Y49500D02*
Y76500D01*
X30957Y78543D02*
X33000Y76500D01*
X39000Y74500D02*
X43043Y78543D01*
X49862Y86138D02*
X52953Y83047D01*
Y62547D02*
Y83047D01*
X57043Y62043D02*
Y78543D01*
X48000Y53000D02*
X57043Y62043D01*
X49862Y86138D02*
Y94724D01*
X13791Y83709D02*
Y94724D01*
X31358Y87642D02*
Y94724D01*
X89500Y71500D02*
Y76500D01*
X78000Y60000D02*
X89500Y71500D01*
X75000Y60000D02*
X78000D01*
X80303Y66697D02*
Y71457D01*
X68000Y53000D02*
X75000Y60000D01*
X62980Y66520D02*
Y71457D01*
X46122Y66622D02*
Y71457D01*
X27618Y66618D02*
Y71457D01*
X10051Y66551D02*
Y71457D01*
X97232Y78543D02*
Y86457D01*
X80303Y78543D02*
Y86457D01*
X62980Y78543D02*
Y86457D01*
X46122Y78543D02*
Y86457D01*
X27618Y78543D02*
Y86457D01*
X10051Y78543D02*
Y86457D01*
X91543Y78543D02*
X97232D01*
X89500Y76500D02*
X91543Y78543D01*
X73543D02*
X80303D01*
X57043D02*
X62980D01*
X62500Y37500D02*
X68000Y43000D01*
X53500Y47500D02*
X58000Y43000D01*
X39500D02*
X48000D01*
X43043Y78543D02*
X46122D01*
X27618D02*
X30957D01*
X273410Y93000D02*
Y96591D01*
X271000Y99000D02*
X273410Y96591D01*
X266043Y99000D02*
X271000D01*
X242500Y81957D02*
X245957D01*
X247000Y83000D01*
X252150D01*
X242500Y89043D02*
X244957D01*
X246000Y88000D01*
X252150D01*
X40000Y32500D02*
X57500D01*
X38000Y30500D02*
X40000Y32500D01*
X38000Y18826D02*
Y30500D01*
X32953Y13780D02*
X38000Y18826D01*
X142953Y13780D02*
X148000Y18826D01*
Y34000D01*
X143000Y39000D02*
X148000Y34000D01*
X82953Y8000D02*
X162953D01*
Y13780D01*
X256295Y61205D02*
Y69705D01*
X252150Y73850D02*
X256295Y69705D01*
X252150Y73850D02*
Y78000D01*
Y93000D02*
X257000D01*
X259500Y66000D02*
Y90500D01*
X257000Y93000D02*
X259500Y90500D01*
X235543Y89043D02*
X242500D01*
X235500Y89000D02*
X235543Y89043D01*
X224500Y87543D02*
Y95500D01*
X235500Y84000D02*
Y89000D01*
X232000Y80500D02*
X235500Y84000D01*
X188000Y87500D02*
Y95500D01*
Y87500D02*
X190000Y85500D01*
X196051D01*
X177957Y100543D02*
X178000Y100500D01*
X153000Y37000D02*
X158000Y32000D01*
X153000Y37000D02*
Y56500D01*
X162953Y56122D02*
X173866Y67035D01*
X172291Y67687D02*
Y114752D01*
X153000Y56500D02*
X155000Y58500D01*
X163104D01*
X172291Y67687D01*
X194575Y29425D02*
Y59652D01*
Y29425D02*
X197500Y26500D01*
Y18326D02*
Y26500D01*
X193216Y125000D02*
X205500D01*
X175441Y65441D02*
Y107225D01*
X193216Y125000D01*
X173866Y67035D02*
Y107877D01*
X186543Y120554D01*
Y134500D01*
X6508Y102209D02*
Y107492D01*
X6500Y107500D02*
X6508Y107492D01*
X24075Y102209D02*
Y107075D01*
X24500Y107500D01*
X42579Y102209D02*
Y107421D01*
X42500Y107500D02*
X42579Y107421D01*
X59437Y102209D02*
Y107437D01*
X59500Y107500D01*
X76760Y102209D02*
Y107240D01*
X76500Y107500D02*
X76760Y107240D01*
X93689Y102209D02*
Y107311D01*
X93500Y107500D02*
X93689Y107311D01*
X83000Y55500D02*
X89500Y62000D01*
X93000Y36500D02*
X98000Y31500D01*
X93000Y36500D02*
Y57500D01*
X95925Y60425D01*
X98000Y18733D02*
Y31500D01*
X103000Y55273D02*
X119727Y72000D01*
X103000Y32500D02*
Y55273D01*
X273410Y83000D02*
X275964D01*
X286325Y82291D02*
X291000D01*
X273410Y88000D02*
X276345D01*
X282000Y90342D02*
Y95086D01*
X279500Y101121D02*
Y106500D01*
X269957Y42957D02*
X275000D01*
X265650Y38650D02*
X269957Y42957D01*
X271273Y46500D02*
X275000D01*
X264997Y40224D02*
X271273Y46500D01*
X225623Y38650D02*
X265650D01*
X226276Y40224D02*
X264997D01*
X205000Y61500D02*
X226276Y40224D01*
X201500Y62773D02*
X225623Y38650D01*
X133000Y48000D02*
X138000Y43000D01*
X133000Y60500D02*
X134425Y61925D01*
X133000Y48000D02*
Y60500D01*
X134425Y61925D02*
X155152D01*
X123000Y48000D02*
X128000Y43000D01*
X123000Y60000D02*
X126500Y63500D01*
X123000Y48000D02*
Y60000D01*
X126500Y63500D02*
X154500D01*
X205000Y61500D02*
Y71941D01*
X62953Y23779D02*
X66425Y27252D01*
Y28925D01*
X74500Y37000D01*
D13*
X251723Y147000D02*
G03*
X254747Y148253I0J4277D01*
G01*
Y145747D02*
G03*
X251723Y147000I-3024J-3024D01*
G01*
X260277D02*
G03*
X257253Y145747I0J-4277D01*
G01*
Y148253D02*
G03*
X260277Y147000I3024J3024D01*
G01*
X276415D02*
G03*
X279899Y148443I0J4928D01*
G01*
Y145242D02*
G03*
X275655Y147000I-4245J-4245D01*
G01*
X178000Y58465D02*
G03*
X179601Y54601I5465J0D01*
G01*
X176399D02*
G03*
X178000Y58465I-3864J3864D01*
G01*
X139089Y27644D02*
G03*
X142953Y26043I3864J3864D01*
G01*
X140689Y23779D02*
G03*
X139089Y27644I-5465J0D01*
G01*
X40000Y154584D02*
G03*
X38121Y159121I-6416J0D01*
G01*
X41879D02*
G03*
X40000Y154584I4537J-4537D01*
G01*
X83500Y154584D02*
G03*
X81621Y159121I-6416J0D01*
G01*
X85379D02*
G03*
X83500Y154584I4537J-4537D01*
G01*
X126500D02*
G03*
X124621Y159121I-6416J0D01*
G01*
X128379D02*
G03*
X126500Y154584I4537J-4537D01*
G01*
X213035Y150000D02*
G03*
X216899Y151601I0J5465D01*
G01*
Y148399D02*
G03*
X213035Y150000I-3864J-3864D01*
G01*
X189035Y150157D02*
G03*
X192899Y151758I0J5465D01*
G01*
Y148557D02*
G03*
X189035Y150157I-3864J-3864D01*
G01*
X153697Y138303D02*
G03*
X149574Y136036I0J-4882D01*
G01*
Y140570D02*
G03*
X153697Y138303I4123J2615D01*
G01*
X126500Y135395D02*
G03*
X127335Y133379I2851J0D01*
G01*
X125665Y133379D02*
G03*
X126500Y135395I-2016J2016D01*
G01*
X133500Y122605D02*
G03*
X132665Y124621I-2851J0D01*
G01*
X134335Y124621D02*
G03*
X133500Y122605I2016J-2016D01*
G01*
Y135395D02*
G03*
X134335Y133379I2851J0D01*
G01*
X132665Y133379D02*
G03*
X133500Y135395I-2016J2016D01*
G01*
X83500Y135395D02*
G03*
X84335Y133379I2851J0D01*
G01*
X82665Y133379D02*
G03*
X83500Y135395I-2016J2016D01*
G01*
X90500Y122605D02*
G03*
X89665Y124621I-2851J0D01*
G01*
X91335Y124621D02*
G03*
X90500Y122605I2016J-2016D01*
G01*
Y135395D02*
G03*
X91335Y133379I2851J0D01*
G01*
X89665Y133379D02*
G03*
X90500Y135395I-2016J2016D01*
G01*
X40000Y135395D02*
G03*
X40835Y133379I2851J0D01*
G01*
X39165D02*
G03*
X40000Y135395I-2016J2016D01*
G01*
X47000Y135395D02*
G03*
X47835Y133379I2851J0D01*
G01*
X46165D02*
G03*
X47000Y135395I-2016J2016D01*
G01*
X92773Y120764D02*
G03*
X97814Y122852I0J7129D01*
G01*
Y118676D02*
G03*
X92773Y120764I-5041J-5041D01*
G01*
X119500Y135395D02*
G03*
X120335Y133379I2851J0D01*
G01*
X118665Y133379D02*
G03*
X119500Y135395I-2016J2016D01*
G01*
X76500Y135395D02*
G03*
X77335Y133379I2851J0D01*
G01*
X75665Y133379D02*
G03*
X76500Y135395I-2016J2016D01*
G01*
X33000Y135395D02*
G03*
X33835Y133379I2851J0D01*
G01*
X32165D02*
G03*
X33000Y135395I-2016J2016D01*
G01*
X184226Y150157D02*
G03*
X183278Y149765I0J-1340D01*
G01*
X203260Y137827D02*
G03*
X204292Y135335I3523J0D01*
G01*
X202622Y135335D02*
G03*
X203260Y136876I-1541J1541D01*
G01*
X164260Y127827D02*
G03*
X165292Y125335I3523J0D01*
G01*
X163621Y125335D02*
G03*
X164260Y126876I-1541J1541D01*
G01*
X179260Y137827D02*
G03*
X180292Y135335I3523J0D01*
G01*
X178621Y135335D02*
G03*
X179260Y136876I-1541J1541D01*
G01*
X157000Y100426D02*
G03*
X157418Y99418I1426J0D01*
G01*
X156582D02*
G03*
X157000Y100426I-1008J1008D01*
G01*
X158008Y97992D02*
G03*
X157000Y98409I-1008J-1008D01*
G01*
X157591Y99000D02*
G03*
X158008Y97992I1426J0D01*
G01*
X157500Y74426D02*
G03*
X157918Y73418I1426J0D01*
G01*
X157082D02*
G03*
X157500Y74426I-1008J1008D01*
G01*
X155992Y114910D02*
G03*
X157000Y114492I1008J1008D01*
G01*
X156409Y113902D02*
G03*
X155992Y114910I-1426J0D01*
G01*
X157000Y112476D02*
G03*
X156582Y113484I-1426J0D01*
G01*
X157418D02*
G03*
X157000Y112476I1008J-1008D01*
G01*
X178000Y99074D02*
G03*
X177582Y100082I-1426J0D01*
G01*
X178418D02*
G03*
X178000Y99074I1008J-1008D01*
G01*
Y101926D02*
G03*
X178418Y100918I1426J0D01*
G01*
X177582D02*
G03*
X178000Y101926I-1008J1008D01*
G01*
X155000Y75000D02*
Y91000D01*
X138500Y107500D02*
X155000Y91000D01*
X146500Y66500D02*
X155000Y75000D01*
X157000Y99000D02*
X161500Y94500D01*
Y82176D02*
Y94500D01*
X157500Y78176D02*
X161500Y82176D01*
X157500Y73000D02*
Y78176D01*
X119500Y132543D02*
Y137500D01*
X126500D01*
Y132543D02*
Y137500D01*
Y161000D01*
Y137500D02*
X133500D01*
Y132543D02*
Y137500D01*
Y120764D02*
Y125457D01*
X76500Y132543D02*
Y137500D01*
X83500D01*
Y132543D02*
Y137500D01*
Y161000D01*
Y137500D02*
X90500D01*
Y132543D02*
Y137500D01*
Y120764D02*
Y125457D01*
Y120764D02*
X100650D01*
X164260Y167260D02*
X173750Y176750D01*
X164260Y131776D02*
Y167260D01*
X47000Y132543D02*
Y137500D01*
X40000D02*
X47000D01*
X40000D02*
Y161000D01*
Y132543D02*
Y137500D01*
X33000D02*
X40000D01*
X33000Y132543D02*
Y137500D01*
X40000Y161000D02*
X40000D01*
X281343Y127315D02*
X281500Y127157D01*
X233500Y147000D02*
X256000D01*
X281343D01*
X203260Y134697D02*
X203457Y134500D01*
X203260Y134697D02*
Y141776D01*
X207000Y150043D02*
X207043Y150000D01*
X218500D01*
X183000Y150157D02*
X194500D01*
X183000Y150043D02*
Y150157D01*
X170500Y150043D02*
Y150157D01*
X179260Y134697D02*
X179457Y134500D01*
X179260Y134697D02*
Y141776D01*
X164260Y124697D02*
X164457Y124500D01*
X164260Y124697D02*
Y131776D01*
X178000Y53000D02*
Y100500D01*
X209531Y123031D02*
X233500Y147000D01*
X178000Y100500D02*
Y107000D01*
X194032Y123031D01*
X209531D01*
X157000Y99000D02*
Y113902D01*
X131733Y35000D02*
X142953Y23779D01*
X116000Y35000D02*
X131733D01*
X120500Y66500D02*
X146500D01*
X6500Y107500D02*
X24500D01*
X42500D01*
X59500D01*
X76500D01*
X93500D01*
X138500D01*
X112626Y38374D02*
X116000Y35000D01*
X112626Y38374D02*
Y58626D01*
X120500Y66500D01*
X203260Y141776D02*
Y169646D01*
X203500Y169886D01*
X179260Y141776D02*
Y168532D01*
X180614Y169886D01*
X155000Y115902D02*
X157000Y113902D01*
X155000Y115902D02*
Y137000D01*
X153697Y138303D02*
X155000Y137000D01*
X146000Y138303D02*
X153697D01*
D14*
X64697Y140303D02*
G03*
X62807Y138964I0J-2003D01*
G01*
Y141642D02*
G03*
X64697Y140303I1890J665D01*
G01*
X126500Y123081D02*
G03*
X125804Y124761I-2376J0D01*
G01*
X127196D02*
G03*
X126500Y123081I1680J-1680D01*
G01*
X83500Y123081D02*
G03*
X82804Y124761I-2376J0D01*
G01*
X84196D02*
G03*
X83500Y123081I1680J-1680D01*
G01*
X40000Y123081D02*
G03*
X39304Y124761I-2376J0D01*
G01*
X40696D02*
G03*
X40000Y123081I1680J-1680D01*
G01*
X108051Y131236D02*
G03*
X103346Y129288I0J-6653D01*
G01*
Y133185D02*
G03*
X108051Y131236I4705J4705D01*
G01*
X119500Y123080D02*
G03*
X118804Y124761I-2376J0D01*
G01*
X120196D02*
G03*
X119500Y123081I1680J-1680D01*
G01*
X76500Y123080D02*
G03*
X75804Y124761I-2376J0D01*
G01*
X77196D02*
G03*
X76500Y123081I1680J-1680D01*
G01*
X33000Y123081D02*
G03*
X32304Y124761I-2376J0D01*
G01*
X33696D02*
G03*
X33000Y123081I1680J-1680D01*
G01*
X97232Y69081D02*
G03*
X96536Y70761I-2376J0D01*
G01*
X97928D02*
G03*
X97232Y69081I1680J-1680D01*
G01*
Y66732D02*
Y71457D01*
X122500Y120000D02*
X126500D01*
X119500D02*
X122500D01*
Y113902D02*
Y120000D01*
X122500Y113500D02*
X122598Y113402D01*
X119500Y120000D02*
Y125457D01*
X126500Y120000D02*
Y125457D01*
X76500Y120000D02*
Y125457D01*
X83500Y120000D02*
Y125457D01*
X79500Y113902D02*
Y120000D01*
X76500D02*
X79500D01*
X83500D01*
X109500Y113902D02*
Y131236D01*
X100650D02*
X109500D01*
X36000Y120000D02*
X40000D01*
X33000D02*
X36000D01*
Y113902D02*
Y120000D01*
X40000D02*
Y125457D01*
X33000Y120000D02*
Y125457D01*
X59000Y140303D02*
X64697D01*
X66000Y139000D01*
Y113902D02*
Y139000D01*
D24*
X179457Y134500D02*
D03*
X186543D02*
D03*
X164457Y124500D02*
D03*
X171543D02*
D03*
X203457Y134500D02*
D03*
X210543D02*
D03*
X93689Y102209D02*
D03*
X100776D02*
D03*
X76760D02*
D03*
X83846D02*
D03*
X59437D02*
D03*
X66524D02*
D03*
X6508D02*
D03*
X13595D02*
D03*
X24075D02*
D03*
X31161D02*
D03*
X42579D02*
D03*
X49665D02*
D03*
D25*
X224500Y80457D02*
D03*
Y87543D02*
D03*
X242500Y89043D02*
D03*
Y81957D02*
D03*
X266043Y99000D02*
D03*
X258957D02*
D03*
X33000Y132543D02*
D03*
Y125457D02*
D03*
X76500Y132543D02*
D03*
Y125457D02*
D03*
X119500Y132543D02*
D03*
Y125457D02*
D03*
D28*
X214949Y110500D02*
D03*
Y105500D02*
D03*
Y100500D02*
D03*
Y95500D02*
D03*
Y90500D02*
D03*
Y85500D02*
D03*
Y80500D02*
D03*
X196051Y110500D02*
D03*
Y105500D02*
D03*
Y100500D02*
D03*
Y95500D02*
D03*
Y90500D02*
D03*
Y85500D02*
D03*
Y80500D02*
D03*
D29*
X284386Y169886D02*
X284500Y170000D01*
X223484Y169886D02*
X284386D01*
X169500Y181000D02*
Y200000D01*
X154500Y215000D02*
X169500Y200000D01*
X36850Y215000D02*
X154500D01*
X223484Y186500D02*
X223484Y186500D01*
X203130Y186500D02*
X223484D01*
X180614Y169886D02*
X203500D01*
X223484D01*
X169500Y181000D02*
X173750Y176750D01*
X180614Y169886D01*
D30*
X140083Y203031D02*
D03*
X97083D02*
D03*
X146579Y175567D02*
D03*
X103579D02*
D03*
X60079D02*
D03*
X53583Y203000D02*
D03*
D31*
X126303Y203031D02*
D03*
X83303D02*
D03*
X139886Y161000D02*
D03*
X133193Y175567D02*
D03*
X126500Y161000D02*
D03*
X119807Y175567D02*
D03*
X96886Y161000D02*
D03*
X90193Y175567D02*
D03*
X83500Y161000D02*
D03*
X76807Y175567D02*
D03*
X53386Y161000D02*
D03*
X46693Y175567D02*
D03*
X40000Y161000D02*
D03*
X33307Y175567D02*
D03*
X39803Y203000D02*
D03*
D32*
X279500Y106500D02*
D03*
X170500Y150157D02*
D03*
X194500D02*
D03*
X218500Y150000D02*
D03*
X282000Y70657D02*
D03*
Y80500D02*
D03*
Y90342D02*
D03*
X281500Y29500D02*
D03*
X222953Y13780D02*
D03*
X212953Y23779D02*
D03*
X202953D02*
D03*
X212953Y13780D02*
D03*
X202953D02*
D03*
X192953Y23779D02*
D03*
Y13780D02*
D03*
X182953Y23779D02*
D03*
Y13780D02*
D03*
X172953D02*
D03*
X162953Y23779D02*
D03*
Y13780D02*
D03*
X152953Y23779D02*
D03*
Y13780D02*
D03*
X142953D02*
D03*
Y23779D02*
D03*
X132953Y13780D02*
D03*
Y23779D02*
D03*
X122953Y13780D02*
D03*
X112953D02*
D03*
Y23779D02*
D03*
X102953Y13780D02*
D03*
Y23779D02*
D03*
X92953Y13780D02*
D03*
Y23779D02*
D03*
X82953Y13780D02*
D03*
Y23779D02*
D03*
X72953Y13780D02*
D03*
X62953Y23779D02*
D03*
Y13780D02*
D03*
X52953Y23779D02*
D03*
Y13780D02*
D03*
X42953Y23779D02*
D03*
Y13780D02*
D03*
X32953Y23779D02*
D03*
Y13780D02*
D03*
X48000Y53000D02*
D03*
Y43000D02*
D03*
X58000Y53000D02*
D03*
Y43000D02*
D03*
X68000Y53000D02*
D03*
Y43000D02*
D03*
X78000Y53000D02*
D03*
Y43000D02*
D03*
X88000D02*
D03*
Y53000D02*
D03*
X128000D02*
D03*
Y43000D02*
D03*
X138000D02*
D03*
Y53000D02*
D03*
X178000D02*
D03*
X168000D02*
D03*
X148000D02*
D03*
X158000D02*
D03*
Y43000D02*
D03*
X148000D02*
D03*
X168000D02*
D03*
X178000D02*
D03*
X188000D02*
D03*
X118000D02*
D03*
Y53000D02*
D03*
X108000Y43000D02*
D03*
Y53000D02*
D03*
X98000Y43000D02*
D03*
Y53000D02*
D03*
X281500Y137000D02*
D03*
Y146843D02*
D03*
X125500Y78500D02*
D03*
X115500D02*
D03*
X105500D02*
D03*
D33*
X289500Y106500D02*
D03*
X222953Y23779D02*
D03*
X122953D02*
D03*
X72953D02*
D03*
X188000Y53000D02*
D03*
X135500Y78500D02*
D03*
D34*
X170500Y160000D02*
D03*
X194500D02*
D03*
X218500Y159843D02*
D03*
X282000Y60815D02*
D03*
X281500Y19658D02*
D03*
Y127157D02*
D03*
D35*
X203130Y186500D02*
D03*
X183445D02*
D03*
X242500D02*
D03*
X262185D02*
D03*
X284500Y170000D02*
D03*
D36*
Y190000D02*
D03*
D37*
X242126Y211693D02*
D03*
Y18779D02*
D03*
X283465Y211693D02*
D03*
X13780D02*
D03*
Y18779D02*
D03*
D38*
X172953Y23779D02*
D03*
D39*
X256000Y147000D02*
D03*
Y139126D02*
D03*
D40*
Y131252D02*
D03*
D41*
X252000Y43500D02*
D03*
X143000Y58500D02*
D03*
X46000Y61000D02*
D03*
X9000Y35000D02*
D03*
X133500Y85500D02*
D03*
X88000D02*
D03*
X147575Y85075D02*
D03*
X148500Y81000D02*
D03*
X97232Y66732D02*
D03*
X185500Y81500D02*
D03*
Y77500D02*
D03*
X163500Y80000D02*
D03*
X161000Y77000D02*
D03*
X201500Y74500D02*
D03*
X205000Y80500D02*
D03*
X122500Y113902D02*
D03*
X79500D02*
D03*
X109500D02*
D03*
X159000Y124500D02*
D03*
X66000Y113902D02*
D03*
X36000D02*
D03*
X52953Y62547D02*
D03*
X22500Y42500D02*
D03*
X36000Y52000D02*
D03*
X80303Y66697D02*
D03*
X62980Y66520D02*
D03*
X46122Y66622D02*
D03*
X27618Y66618D02*
D03*
X10051Y66551D02*
D03*
X103000Y32500D02*
D03*
X57500D02*
D03*
X256295Y61205D02*
D03*
X259500Y66000D02*
D03*
X232500Y43500D02*
D03*
X235500Y89000D02*
D03*
X181000Y85500D02*
D03*
X185000Y105500D02*
D03*
X188000Y95500D02*
D03*
X224500D02*
D03*
X178000Y100500D02*
D03*
X168000Y73000D02*
D03*
X205000Y53000D02*
D03*
X157000Y113902D02*
D03*
X157500Y73000D02*
D03*
X157000Y99000D02*
D03*
X275000Y46500D02*
D03*
Y42957D02*
D03*
X205000Y71941D02*
D03*
X74500Y37000D02*
D03*
D42*
X239398Y57071D02*
D03*
Y61402D02*
D03*
X243728Y57071D02*
D03*
Y61402D02*
D03*
D43*
X291000Y93709D02*
D03*
Y82291D02*
D03*
D44*
X252150Y78000D02*
D03*
Y83000D02*
D03*
Y88000D02*
D03*
Y93000D02*
D03*
X273410Y78000D02*
D03*
Y83000D02*
D03*
Y88000D02*
D03*
Y93000D02*
D03*
D45*
X93492Y94724D02*
D03*
X100972D02*
D03*
X97232Y86457D02*
D03*
X76563Y94724D02*
D03*
X84043D02*
D03*
X80303Y86457D02*
D03*
X59240Y94724D02*
D03*
X66720D02*
D03*
X62980Y86457D02*
D03*
X6311Y94724D02*
D03*
X13791D02*
D03*
X10051Y86457D02*
D03*
X42382Y94724D02*
D03*
X49862D02*
D03*
X46122Y86457D02*
D03*
X23878Y94724D02*
D03*
X31358D02*
D03*
X27618Y86457D02*
D03*
X171740Y131776D02*
D03*
X164260D02*
D03*
X168000Y140043D02*
D03*
X210740Y141776D02*
D03*
X203260D02*
D03*
X207000Y150043D02*
D03*
X186740Y141776D02*
D03*
X179260D02*
D03*
X183000Y150043D02*
D03*
D46*
X27618Y71457D02*
D03*
Y78543D02*
D03*
X46122Y71457D02*
D03*
Y78543D02*
D03*
X10051Y71457D02*
D03*
Y78543D02*
D03*
X62980Y71457D02*
D03*
Y78543D02*
D03*
X97232Y71457D02*
D03*
Y78543D02*
D03*
X80303Y71457D02*
D03*
Y78543D02*
D03*
X47000Y132543D02*
D03*
Y125457D02*
D03*
X40000Y125457D02*
D03*
Y132543D02*
D03*
X90500Y132543D02*
D03*
Y125457D02*
D03*
X83500Y125457D02*
D03*
Y132543D02*
D03*
X133500Y132543D02*
D03*
Y125457D02*
D03*
X126500Y125457D02*
D03*
Y132543D02*
D03*
D47*
X223484Y186500D02*
D03*
Y169886D02*
D03*
D48*
X100650Y131236D02*
D03*
Y120764D02*
D03*
D49*
X59000Y140303D02*
D03*
Y115697D02*
D03*
X146000Y138303D02*
D03*
Y113697D02*
D03*
M02*
