%FSLAX25Y25*%
%MOIN*%
G70*
G01*
G75*
G04 Layer_Color=16711935*
%ADD10C,0.03937*%
%ADD11C,0.03150*%
%ADD12C,0.00787*%
%ADD13C,0.01575*%
%ADD14C,0.01969*%
%ADD15C,0.02362*%
%ADD16C,0.02756*%
%ADD17C,0.01181*%
%ADD18R,0.09843X0.09843*%
%ADD19R,0.02874X0.01181*%
%ADD20R,0.01181X0.02874*%
%ADD21R,0.05512X0.07874*%
%ADD22R,0.07874X0.05512*%
%ADD23C,0.05906*%
%ADD24R,0.03937X0.03937*%
%ADD25C,0.03937*%
%ADD26R,0.15748X0.06299*%
%ADD27R,0.09449X0.06693*%
%ADD28O,0.08661X0.02362*%
%ADD29C,0.05906*%
%ADD30R,0.06890X0.06890*%
%ADD31C,0.06890*%
%ADD32C,0.06102*%
%ADD33R,0.06102X0.06102*%
%ADD34R,0.06102X0.06102*%
%ADD35C,0.08071*%
%ADD36R,0.08071X0.08071*%
%ADD37C,0.19685*%
%ADD38R,0.06102X0.06000*%
%ADD39C,0.05118*%
%ADD40R,0.05118X0.05118*%
%ADD41C,0.02756*%
%ADD42C,0.02362*%
%ADD43R,0.07087X0.05906*%
%ADD44O,0.07008X0.02362*%
%ADD45R,0.02362X0.05512*%
%ADD46R,0.03937X0.03937*%
%ADD47R,0.08583X0.06378*%
%ADD48R,0.08976X0.07480*%
%ADD49R,0.10039X0.11614*%
%ADD50C,0.01000*%
%ADD51C,0.00984*%
%ADD52C,0.00591*%
%ADD53R,0.10630X0.10630*%
%ADD54R,0.03661X0.01969*%
%ADD55R,0.01969X0.03661*%
%ADD56R,0.06299X0.08661*%
%ADD57R,0.08661X0.06299*%
%ADD58C,0.06693*%
%ADD59R,0.04724X0.04724*%
%ADD60C,0.04724*%
%ADD61R,0.16535X0.07087*%
%ADD62R,0.10236X0.07480*%
%ADD63O,0.09449X0.03150*%
%ADD64R,0.07677X0.07677*%
%ADD65C,0.07677*%
%ADD66R,0.06890X0.06890*%
%ADD67C,0.08858*%
%ADD68R,0.08858X0.08858*%
%ADD69C,0.20472*%
%ADD70R,0.06890X0.06787*%
%ADD71R,0.05906X0.05906*%
%ADD72C,0.03543*%
%ADD73R,0.07874X0.06693*%
%ADD74O,0.07795X0.03150*%
%ADD75R,0.03150X0.06299*%
%ADD76R,0.04724X0.04724*%
%ADD77R,0.09370X0.07165*%
%ADD78R,0.09764X0.08268*%
%ADD79R,0.10827X0.12402*%
D23*
X256000Y147000D02*
D03*
Y139126D02*
D03*
D30*
X289500Y106500D02*
D03*
X222953Y23779D02*
D03*
X122953D02*
D03*
X72953D02*
D03*
X188000Y53000D02*
D03*
X135500Y78500D02*
D03*
D31*
X279500Y106500D02*
D03*
X170500Y150157D02*
D03*
X194500D02*
D03*
X218500Y150000D02*
D03*
X282000Y70657D02*
D03*
Y80500D02*
D03*
Y90342D02*
D03*
X281500Y29500D02*
D03*
X222953Y13780D02*
D03*
X212953Y23779D02*
D03*
X202953D02*
D03*
X212953Y13780D02*
D03*
X202953D02*
D03*
X192953Y23779D02*
D03*
Y13780D02*
D03*
X182953Y23779D02*
D03*
Y13780D02*
D03*
X172953D02*
D03*
X162953Y23779D02*
D03*
Y13780D02*
D03*
X152953Y23779D02*
D03*
Y13780D02*
D03*
X142953D02*
D03*
Y23779D02*
D03*
X132953Y13780D02*
D03*
Y23779D02*
D03*
X122953Y13780D02*
D03*
X112953D02*
D03*
Y23779D02*
D03*
X102953Y13780D02*
D03*
Y23779D02*
D03*
X92953Y13780D02*
D03*
Y23779D02*
D03*
X82953Y13780D02*
D03*
Y23779D02*
D03*
X72953Y13780D02*
D03*
X62953Y23779D02*
D03*
Y13780D02*
D03*
X52953Y23779D02*
D03*
Y13780D02*
D03*
X42953Y23779D02*
D03*
Y13780D02*
D03*
X32953Y23779D02*
D03*
Y13780D02*
D03*
X48000Y53000D02*
D03*
Y43000D02*
D03*
X58000Y53000D02*
D03*
Y43000D02*
D03*
X68000Y53000D02*
D03*
Y43000D02*
D03*
X78000Y53000D02*
D03*
Y43000D02*
D03*
X88000D02*
D03*
Y53000D02*
D03*
X128000D02*
D03*
Y43000D02*
D03*
X138000D02*
D03*
Y53000D02*
D03*
X178000D02*
D03*
X168000D02*
D03*
X148000D02*
D03*
X158000D02*
D03*
Y43000D02*
D03*
X148000D02*
D03*
X168000D02*
D03*
X178000D02*
D03*
X188000D02*
D03*
X118000D02*
D03*
Y53000D02*
D03*
X108000Y43000D02*
D03*
Y53000D02*
D03*
X98000Y43000D02*
D03*
Y53000D02*
D03*
X281500Y137000D02*
D03*
Y146843D02*
D03*
X125500Y78500D02*
D03*
X115500D02*
D03*
X105500D02*
D03*
D59*
X179457Y134500D02*
D03*
X186543D02*
D03*
X164457Y124500D02*
D03*
X171543D02*
D03*
X203457Y134500D02*
D03*
X210543D02*
D03*
X93689Y102209D02*
D03*
X100776D02*
D03*
X76760D02*
D03*
X83846D02*
D03*
X59437D02*
D03*
X66524D02*
D03*
X6508D02*
D03*
X13595D02*
D03*
X24075D02*
D03*
X31161D02*
D03*
X42579D02*
D03*
X49665D02*
D03*
D60*
X224500Y80457D02*
D03*
Y87543D02*
D03*
X242500Y89043D02*
D03*
Y81957D02*
D03*
X266043Y99000D02*
D03*
X258957D02*
D03*
X33000Y132543D02*
D03*
Y125457D02*
D03*
X76500Y132543D02*
D03*
Y125457D02*
D03*
X119500Y132543D02*
D03*
Y125457D02*
D03*
D63*
X214949Y110500D02*
D03*
Y105500D02*
D03*
Y100500D02*
D03*
Y95500D02*
D03*
Y90500D02*
D03*
Y85500D02*
D03*
Y80500D02*
D03*
X196051Y110500D02*
D03*
Y105500D02*
D03*
Y100500D02*
D03*
Y95500D02*
D03*
Y90500D02*
D03*
Y85500D02*
D03*
Y80500D02*
D03*
D64*
X140083Y203031D02*
D03*
X97083D02*
D03*
X146579Y175567D02*
D03*
X103579D02*
D03*
X60079D02*
D03*
X53583Y203000D02*
D03*
D65*
X126303Y203031D02*
D03*
X83303D02*
D03*
X139886Y161000D02*
D03*
X133193Y175567D02*
D03*
X126500Y161000D02*
D03*
X119807Y175567D02*
D03*
X96886Y161000D02*
D03*
X90193Y175567D02*
D03*
X83500Y161000D02*
D03*
X76807Y175567D02*
D03*
X53386Y161000D02*
D03*
X46693Y175567D02*
D03*
X40000Y161000D02*
D03*
X33307Y175567D02*
D03*
X39803Y203000D02*
D03*
D66*
X170500Y160000D02*
D03*
X194500D02*
D03*
X218500Y159843D02*
D03*
X282000Y60815D02*
D03*
X281500Y19658D02*
D03*
Y127157D02*
D03*
D67*
X203130Y186500D02*
D03*
X183445D02*
D03*
X242500D02*
D03*
X262185D02*
D03*
X284500Y170000D02*
D03*
D68*
Y190000D02*
D03*
D69*
X242126Y211693D02*
D03*
Y18779D02*
D03*
X283465Y211693D02*
D03*
X13780D02*
D03*
Y18779D02*
D03*
D70*
X172953Y23779D02*
D03*
D71*
X256000Y131252D02*
D03*
D72*
X74500Y37000D02*
D03*
D73*
X291000Y93709D02*
D03*
Y82291D02*
D03*
D74*
X252150Y78000D02*
D03*
Y83000D02*
D03*
Y88000D02*
D03*
Y93000D02*
D03*
X273410Y78000D02*
D03*
Y83000D02*
D03*
Y88000D02*
D03*
Y93000D02*
D03*
D75*
X93492Y94724D02*
D03*
X100972D02*
D03*
X97232Y86457D02*
D03*
X76563Y94724D02*
D03*
X84043D02*
D03*
X80303Y86457D02*
D03*
X59240Y94724D02*
D03*
X66720D02*
D03*
X62980Y86457D02*
D03*
X6311Y94724D02*
D03*
X13791D02*
D03*
X10051Y86457D02*
D03*
X42382Y94724D02*
D03*
X49862D02*
D03*
X46122Y86457D02*
D03*
X23878Y94724D02*
D03*
X31358D02*
D03*
X27618Y86457D02*
D03*
X171740Y131776D02*
D03*
X164260D02*
D03*
X168000Y140043D02*
D03*
X210740Y141776D02*
D03*
X203260D02*
D03*
X207000Y150043D02*
D03*
X186740Y141776D02*
D03*
X179260D02*
D03*
X183000Y150043D02*
D03*
D76*
X27618Y71457D02*
D03*
Y78543D02*
D03*
X46122Y71457D02*
D03*
Y78543D02*
D03*
X10051Y71457D02*
D03*
Y78543D02*
D03*
X62980Y71457D02*
D03*
Y78543D02*
D03*
X97232Y71457D02*
D03*
Y78543D02*
D03*
X80303Y71457D02*
D03*
Y78543D02*
D03*
X47000Y132543D02*
D03*
Y125457D02*
D03*
X40000Y125457D02*
D03*
Y132543D02*
D03*
X90500Y132543D02*
D03*
Y125457D02*
D03*
X83500Y125457D02*
D03*
Y132543D02*
D03*
X133500Y132543D02*
D03*
Y125457D02*
D03*
X126500Y125457D02*
D03*
Y132543D02*
D03*
D77*
X223484Y186500D02*
D03*
Y169886D02*
D03*
D78*
X100650Y131236D02*
D03*
Y120764D02*
D03*
D79*
X59000Y140303D02*
D03*
Y115697D02*
D03*
X146000Y138303D02*
D03*
Y113697D02*
D03*
M02*
