%FSLAX25Y25*%
%MOIN*%
G70*
G01*
G75*
G04 Layer_Color=32896*
%ADD10C,0.03937*%
%ADD11C,0.03150*%
%ADD12C,0.00787*%
%ADD13C,0.01575*%
%ADD14C,0.01969*%
%ADD15C,0.02362*%
%ADD16C,0.02756*%
%ADD17C,0.01181*%
%ADD18R,0.09843X0.09843*%
%ADD19R,0.02874X0.01181*%
%ADD20R,0.01181X0.02874*%
%ADD21R,0.05512X0.07874*%
%ADD22R,0.07874X0.05512*%
%ADD23C,0.05906*%
%ADD24R,0.03937X0.03937*%
%ADD25C,0.03937*%
%ADD26R,0.15748X0.06299*%
%ADD27R,0.09449X0.06693*%
%ADD28O,0.08661X0.02362*%
%ADD29C,0.05906*%
%ADD30R,0.06890X0.06890*%
%ADD31C,0.06890*%
%ADD32C,0.06102*%
%ADD33R,0.06102X0.06102*%
%ADD34R,0.06102X0.06102*%
%ADD35C,0.08071*%
%ADD36R,0.08071X0.08071*%
%ADD37C,0.19685*%
%ADD38R,0.06102X0.06000*%
%ADD39C,0.05118*%
%ADD40R,0.05118X0.05118*%
%ADD41C,0.02756*%
%ADD42C,0.02362*%
%ADD43R,0.07087X0.05906*%
%ADD44O,0.07008X0.02362*%
%ADD45R,0.02362X0.05512*%
%ADD46R,0.03937X0.03937*%
%ADD47R,0.08583X0.06378*%
%ADD48R,0.08976X0.07480*%
%ADD49R,0.10039X0.11614*%
%ADD50C,0.01000*%
%ADD51C,0.00984*%
%ADD52C,0.00591*%
%ADD53R,0.10630X0.10630*%
%ADD54R,0.03661X0.01969*%
%ADD55R,0.01969X0.03661*%
%ADD56R,0.06299X0.08661*%
%ADD57R,0.08661X0.06299*%
%ADD58C,0.06693*%
%ADD59R,0.04724X0.04724*%
%ADD60C,0.04724*%
%ADD61R,0.16535X0.07087*%
%ADD62R,0.10236X0.07480*%
%ADD63O,0.09449X0.03150*%
%ADD64R,0.07677X0.07677*%
%ADD65C,0.07677*%
%ADD66R,0.06890X0.06890*%
%ADD67C,0.08858*%
%ADD68R,0.08858X0.08858*%
%ADD69C,0.20472*%
%ADD70R,0.06890X0.06787*%
%ADD71R,0.05906X0.05906*%
%ADD72C,0.03543*%
%ADD73R,0.07874X0.06693*%
%ADD74O,0.07795X0.03150*%
%ADD75R,0.03150X0.06299*%
%ADD76R,0.04724X0.04724*%
%ADD77R,0.09370X0.07165*%
%ADD78R,0.09764X0.08268*%
%ADD79R,0.10827X0.12402*%
D12*
X287800Y86300D02*
Y89700D01*
X294200Y86300D02*
Y89700D01*
X259236Y75657D02*
Y95342D01*
X266323Y75657D02*
Y95342D01*
X259236Y75657D02*
X266323D01*
X259236Y95342D02*
X266323D01*
X91327Y87244D02*
Y88819D01*
Y87244D02*
X94476D01*
X103138D02*
Y88819D01*
X99988Y87244D02*
X103138D01*
X74398D02*
Y88819D01*
Y87244D02*
X77547D01*
X86209D02*
Y88819D01*
X83059Y87244D02*
X86209D01*
X57075D02*
Y88819D01*
Y87244D02*
X60224D01*
X68886D02*
Y88819D01*
X65736Y87244D02*
X68886D01*
X4146D02*
Y88819D01*
Y87244D02*
X7295D01*
X15957D02*
Y88819D01*
X12807Y87244D02*
X15957D01*
X40216D02*
Y88819D01*
Y87244D02*
X43366D01*
X52028D02*
Y88819D01*
X48878Y87244D02*
X52028D01*
X21713D02*
Y88819D01*
Y87244D02*
X24862D01*
X33524D02*
Y88819D01*
X30374Y87244D02*
X33524D01*
X29218Y74300D02*
Y75700D01*
X26018Y74300D02*
Y75700D01*
X47722Y74300D02*
Y75700D01*
X44522Y74300D02*
Y75700D01*
X11651Y74300D02*
Y75700D01*
X8451Y74300D02*
Y75700D01*
X64580Y74300D02*
Y75700D01*
X61380Y74300D02*
Y75700D01*
X98832Y74300D02*
Y75700D01*
X95632Y74300D02*
Y75700D01*
X81903Y74300D02*
Y75700D01*
X78703Y74300D02*
Y75700D01*
X182300Y132900D02*
X183700D01*
X182300Y136100D02*
X183700D01*
X173906Y137681D02*
Y139256D01*
X170756D02*
X173906D01*
X162094Y137681D02*
Y139256D01*
X165244D01*
X167300Y122900D02*
X168700D01*
X167300Y126100D02*
X168700D01*
X212906Y147681D02*
Y149256D01*
X209756D02*
X212906D01*
X201095Y147681D02*
Y149256D01*
X204244D01*
X206300Y132900D02*
X207700D01*
X206300Y136100D02*
X207700D01*
X215610Y187248D02*
X217618D01*
X215610Y169138D02*
X217618D01*
X229350Y187248D02*
X231358D01*
X229350Y169138D02*
X231358D01*
X215610D02*
Y187248D01*
X231358Y169138D02*
Y187248D01*
X227953Y8779D02*
Y28780D01*
X27952D02*
X227953D01*
X27952Y8779D02*
X227953D01*
X27952D02*
Y28780D01*
X226075Y83213D02*
Y84787D01*
X222925Y83213D02*
Y84787D01*
X201957Y112626D02*
X209043D01*
X201957Y78374D02*
X209043D01*
Y112626D01*
X201957Y78374D02*
Y112626D01*
X96532Y100609D02*
X97932D01*
X96532Y103809D02*
X97932D01*
X79603Y100609D02*
X81003D01*
X79603Y103809D02*
X81003D01*
X62280Y100609D02*
X63680D01*
X62280Y103809D02*
X63680D01*
X9351Y100609D02*
X10751D01*
X9351Y103809D02*
X10751D01*
X26918Y100609D02*
X28318D01*
X26918Y103809D02*
X28318D01*
X45422Y100609D02*
X46822D01*
X45422Y103809D02*
X46822D01*
X188906Y147681D02*
Y149256D01*
X185756D02*
X188906D01*
X177094Y147681D02*
Y149256D01*
X180244D01*
X240925Y84713D02*
Y86287D01*
X244075Y84713D02*
Y86287D01*
X261713Y100575D02*
X263287D01*
X261713Y97425D02*
X263287D01*
X31425Y128213D02*
Y129787D01*
X34575Y128213D02*
Y129787D01*
X74925Y128213D02*
Y129787D01*
X78075Y128213D02*
Y129787D01*
X117925Y128213D02*
Y129787D01*
X121075Y128213D02*
Y129787D01*
X95138Y124425D02*
Y127575D01*
X106161Y124425D02*
Y127575D01*
X96555Y136158D02*
X104744D01*
X45400Y128300D02*
Y129700D01*
X48600Y128300D02*
Y129700D01*
X41600Y128300D02*
Y129700D01*
X38400Y128300D02*
Y129700D01*
X88900Y128300D02*
Y129700D01*
X92100Y128300D02*
Y129700D01*
X85100Y128300D02*
Y129700D01*
X81900Y128300D02*
Y129700D01*
X131900Y128300D02*
Y129700D01*
X135100Y128300D02*
Y129700D01*
X128100Y128300D02*
Y129700D01*
X124900Y128300D02*
Y129700D01*
X53900Y147400D02*
X64200D01*
X50000Y121700D02*
Y134400D01*
X68100Y121500D02*
Y134500D01*
X140900Y145400D02*
X151200D01*
X137000Y119700D02*
Y132400D01*
X155100Y119500D02*
Y132500D01*
D15*
X264354Y79594D02*
G03*
X264354Y79594I-1181J0D01*
G01*
D51*
X253823Y74654D02*
G03*
X253823Y74654I-492J0D01*
G01*
X90638Y93543D02*
G03*
X90638Y93543I-492J0D01*
G01*
X73709D02*
G03*
X73709Y93543I-492J0D01*
G01*
X56386D02*
G03*
X56386Y93543I-492J0D01*
G01*
X3457D02*
G03*
X3457Y93543I-492J0D01*
G01*
X39528D02*
G03*
X39528Y93543I-492J0D01*
G01*
X21024D02*
G03*
X21024Y93543I-492J0D01*
G01*
X175579Y132957D02*
G03*
X175579Y132957I-492J0D01*
G01*
X214579Y142957D02*
G03*
X214579Y142957I-492J0D01*
G01*
X230433Y166579D02*
G03*
X230433Y166579I-492J0D01*
G01*
X196543Y77153D02*
G03*
X196543Y77153I-492J0D01*
G01*
X190579Y142957D02*
G03*
X190579Y142957I-492J0D01*
G01*
D52*
X294500Y73000D02*
Y76936D01*
X292532D01*
X291876Y76280D01*
Y74968D01*
X292532Y74312D01*
X294500D01*
X293188D02*
X291876Y73000D01*
X287940D02*
X290564D01*
X287940Y75624D01*
Y76280D01*
X288596Y76936D01*
X289908D01*
X290564Y76280D01*
X188500Y84936D02*
Y81656D01*
X187844Y81000D01*
X186532D01*
X185876Y81656D01*
Y84936D01*
X182596Y81000D02*
Y84936D01*
X184564Y82968D01*
X181940D01*
X277151Y103080D02*
Y99801D01*
X276495Y99145D01*
X275183D01*
X274527Y99801D01*
Y103080D01*
X270591Y99145D02*
X273215D01*
X270591Y101769D01*
Y102425D01*
X271248Y103080D01*
X272559D01*
X273215Y102425D01*
X124500Y111000D02*
X128436D01*
Y112968D01*
X127780Y113624D01*
X126468D01*
X125812Y112968D01*
Y111000D01*
Y112312D02*
X124500Y113624D01*
Y117560D02*
Y114936D01*
X127124Y117560D01*
X127780D01*
X128436Y116904D01*
Y115592D01*
X127780Y114936D01*
X128436Y121495D02*
Y118871D01*
X126468D01*
X127124Y120183D01*
Y120839D01*
X126468Y121495D01*
X125156D01*
X124500Y120839D01*
Y119527D01*
X125156Y118871D01*
X131500Y111000D02*
X135436D01*
Y112968D01*
X134780Y113624D01*
X133468D01*
X132812Y112968D01*
Y111000D01*
Y112312D02*
X131500Y113624D01*
Y117560D02*
Y114936D01*
X134124Y117560D01*
X134780D01*
X135436Y116904D01*
Y115592D01*
X134780Y114936D01*
X131500Y120839D02*
X135436D01*
X133468Y118871D01*
Y121495D01*
X81500Y111000D02*
X85436D01*
Y112968D01*
X84780Y113624D01*
X83468D01*
X82812Y112968D01*
Y111000D01*
Y112312D02*
X81500Y113624D01*
Y117560D02*
Y114936D01*
X84124Y117560D01*
X84780D01*
X85436Y116904D01*
Y115592D01*
X84780Y114936D01*
Y118871D02*
X85436Y119527D01*
Y120839D01*
X84780Y121495D01*
X84124D01*
X83468Y120839D01*
Y120183D01*
Y120839D01*
X82812Y121495D01*
X82156D01*
X81500Y120839D01*
Y119527D01*
X82156Y118871D01*
X89000Y111000D02*
X92936D01*
Y112968D01*
X92280Y113624D01*
X90968D01*
X90312Y112968D01*
Y111000D01*
Y112312D02*
X89000Y113624D01*
Y117560D02*
Y114936D01*
X91624Y117560D01*
X92280D01*
X92936Y116904D01*
Y115592D01*
X92280Y114936D01*
X89000Y121495D02*
Y118871D01*
X91624Y121495D01*
X92280D01*
X92936Y120839D01*
Y119527D01*
X92280Y118871D01*
X38000Y111000D02*
X41936D01*
Y112968D01*
X41280Y113624D01*
X39968D01*
X39312Y112968D01*
Y111000D01*
Y112312D02*
X38000Y113624D01*
Y117560D02*
Y114936D01*
X40624Y117560D01*
X41280D01*
X41936Y116904D01*
Y115592D01*
X41280Y114936D01*
X38000Y118871D02*
Y120183D01*
Y119527D01*
X41936D01*
X41280Y118871D01*
X45000Y111000D02*
X48936D01*
Y112968D01*
X48280Y113624D01*
X46968D01*
X46312Y112968D01*
Y111000D01*
Y112312D02*
X45000Y113624D01*
Y117560D02*
Y114936D01*
X47624Y117560D01*
X48280D01*
X48936Y116904D01*
Y115592D01*
X48280Y114936D01*
Y118871D02*
X48936Y119527D01*
Y120839D01*
X48280Y121495D01*
X45656D01*
X45000Y120839D01*
Y119527D01*
X45656Y118871D01*
X48280D01*
X44500Y58000D02*
X48436D01*
Y59968D01*
X47780Y60624D01*
X46468D01*
X45812Y59968D01*
Y58000D01*
Y59312D02*
X44500Y60624D01*
Y61936D02*
Y63248D01*
Y62592D01*
X48436D01*
X47780Y61936D01*
Y65215D02*
X48436Y65872D01*
Y67183D01*
X47780Y67839D01*
X47124D01*
X46468Y67183D01*
Y66527D01*
Y67183D01*
X45812Y67839D01*
X45156D01*
X44500Y67183D01*
Y65872D01*
X45156Y65215D01*
X49500Y105500D02*
Y109436D01*
X47532D01*
X46876Y108780D01*
Y107468D01*
X47532Y106812D01*
X49500D01*
X48188D02*
X46876Y105500D01*
X45564Y108780D02*
X44908Y109436D01*
X43596D01*
X42940Y108780D01*
Y108124D01*
X43596Y107468D01*
X42940Y106812D01*
Y106156D01*
X43596Y105500D01*
X44908D01*
X45564Y106156D01*
Y106812D01*
X44908Y107468D01*
X45564Y108124D01*
Y108780D01*
X44908Y107468D02*
X43596D01*
X26000Y58000D02*
X29936D01*
Y59968D01*
X29280Y60624D01*
X27968D01*
X27312Y59968D01*
Y58000D01*
Y59312D02*
X26000Y60624D01*
Y61936D02*
Y63248D01*
Y62592D01*
X29936D01*
X29280Y61936D01*
X26656Y65215D02*
X26000Y65872D01*
Y67183D01*
X26656Y67839D01*
X29280D01*
X29936Y67183D01*
Y65872D01*
X29280Y65215D01*
X28624D01*
X27968Y65872D01*
Y67839D01*
X32500Y106000D02*
Y109936D01*
X30532D01*
X29876Y109280D01*
Y107968D01*
X30532Y107312D01*
X32500D01*
X31188D02*
X29876Y106000D01*
X28564D02*
X27252D01*
X27908D01*
Y109936D01*
X28564Y109280D01*
X25284Y109936D02*
X22661D01*
Y109280D01*
X25284Y106656D01*
Y106000D01*
X8000Y57500D02*
X11936D01*
Y59468D01*
X11280Y60124D01*
X9968D01*
X9312Y59468D01*
Y57500D01*
Y58812D02*
X8000Y60124D01*
Y61436D02*
Y62748D01*
Y62092D01*
X11936D01*
X11280Y61436D01*
X8000Y67339D02*
Y64715D01*
X10624Y67339D01*
X11280D01*
X11936Y66683D01*
Y65372D01*
X11280Y64715D01*
X13000Y106000D02*
Y109936D01*
X11032D01*
X10376Y109280D01*
Y107968D01*
X11032Y107312D01*
X13000D01*
X11688D02*
X10376Y106000D01*
X9064Y109936D02*
X6440D01*
Y109280D01*
X9064Y106656D01*
Y106000D01*
X61000Y59000D02*
X64936D01*
Y60968D01*
X64280Y61624D01*
X62968D01*
X62312Y60968D01*
Y59000D01*
Y60312D02*
X61000Y61624D01*
Y62936D02*
Y64248D01*
Y63592D01*
X64936D01*
X64280Y62936D01*
X61000Y66215D02*
Y67527D01*
Y66872D01*
X64936D01*
X64280Y66215D01*
X73000Y105500D02*
Y109436D01*
X71032D01*
X70376Y108780D01*
Y107468D01*
X71032Y106812D01*
X73000D01*
X71688D02*
X70376Y105500D01*
X66440Y109436D02*
X67752Y108780D01*
X69064Y107468D01*
Y106156D01*
X68408Y105500D01*
X67096D01*
X66440Y106156D01*
Y106812D01*
X67096Y107468D01*
X69064D01*
X212000Y126000D02*
Y129936D01*
X210032D01*
X209376Y129280D01*
Y127968D01*
X210032Y127312D01*
X212000D01*
X210688D02*
X209376Y126000D01*
X208064D02*
X206752D01*
X207408D01*
Y129936D01*
X208064Y129280D01*
X202161Y129936D02*
X203473Y129280D01*
X204784Y127968D01*
Y126656D01*
X204129Y126000D01*
X202817D01*
X202161Y126656D01*
Y127312D01*
X202817Y127968D01*
X204784D01*
X78500Y58000D02*
X82436D01*
Y59968D01*
X81780Y60624D01*
X80468D01*
X79812Y59968D01*
Y58000D01*
Y59312D02*
X78500Y60624D01*
Y61936D02*
Y63248D01*
Y62592D01*
X82436D01*
X81780Y61936D01*
Y65215D02*
X82436Y65872D01*
Y67183D01*
X81780Y67839D01*
X79156D01*
X78500Y67183D01*
Y65872D01*
X79156Y65215D01*
X81780D01*
X83500Y106000D02*
Y109936D01*
X81532D01*
X80876Y109280D01*
Y107968D01*
X81532Y107312D01*
X83500D01*
X82188D02*
X80876Y106000D01*
X76940Y109936D02*
X79564D01*
Y107968D01*
X78252Y108624D01*
X77596D01*
X76940Y107968D01*
Y106656D01*
X77596Y106000D01*
X78908D01*
X79564Y106656D01*
X173000Y116000D02*
Y119936D01*
X171032D01*
X170376Y119280D01*
Y117968D01*
X171032Y117312D01*
X173000D01*
X171688D02*
X170376Y116000D01*
X169064D02*
X167752D01*
X168408D01*
Y119936D01*
X169064Y119280D01*
X163161Y119936D02*
X165785D01*
Y117968D01*
X164473Y118624D01*
X163817D01*
X163161Y117968D01*
Y116656D01*
X163817Y116000D01*
X165129D01*
X165785Y116656D01*
X95500Y61500D02*
X99436D01*
Y63468D01*
X98780Y64124D01*
X97468D01*
X96812Y63468D01*
Y61500D01*
Y62812D02*
X95500Y64124D01*
X96156Y65436D02*
X95500Y66092D01*
Y67404D01*
X96156Y68060D01*
X98780D01*
X99436Y67404D01*
Y66092D01*
X98780Y65436D01*
X98124D01*
X97468Y66092D01*
Y68060D01*
X100500Y105500D02*
Y109436D01*
X98532D01*
X97876Y108780D01*
Y107468D01*
X98532Y106812D01*
X100500D01*
X99188D02*
X97876Y105500D01*
X94596D02*
Y109436D01*
X96564Y107468D01*
X93940D01*
X188000Y126500D02*
Y130436D01*
X186032D01*
X185376Y129780D01*
Y128468D01*
X186032Y127812D01*
X188000D01*
X186688D02*
X185376Y126500D01*
X184064D02*
X182752D01*
X183408D01*
Y130436D01*
X184064Y129780D01*
X178817Y126500D02*
Y130436D01*
X180784Y128468D01*
X178161D01*
X38876Y81656D02*
Y84280D01*
X39532Y84936D01*
X40844D01*
X41500Y84280D01*
Y81656D01*
X40844Y81000D01*
X39532D01*
X40188Y82312D02*
X38876Y81000D01*
X39532D02*
X38876Y81656D01*
X34940Y84936D02*
X37564D01*
Y82968D01*
X36252Y83624D01*
X35596D01*
X34940Y82968D01*
Y81656D01*
X35596Y81000D01*
X36908D01*
X37564Y81656D01*
X20376D02*
Y84280D01*
X21032Y84936D01*
X22344D01*
X23000Y84280D01*
Y81656D01*
X22344Y81000D01*
X21032D01*
X21688Y82312D02*
X20376Y81000D01*
X21032D02*
X20376Y81656D01*
X19064D02*
X18408Y81000D01*
X17096D01*
X16440Y81656D01*
Y84280D01*
X17096Y84936D01*
X18408D01*
X19064Y84280D01*
Y83624D01*
X18408Y82968D01*
X16440D01*
X2967Y74624D02*
X5591D01*
X6247Y73968D01*
Y72656D01*
X5591Y72000D01*
X2967D01*
X2311Y72656D01*
Y73968D01*
X3623Y73312D02*
X2311Y74624D01*
Y73968D02*
X2967Y74624D01*
X2311Y77904D02*
X6247D01*
X4279Y75936D01*
Y78560D01*
X55876Y81656D02*
Y84280D01*
X56532Y84936D01*
X57844D01*
X58500Y84280D01*
Y81656D01*
X57844Y81000D01*
X56532D01*
X57188Y82312D02*
X55876Y81000D01*
X56532D02*
X55876Y81656D01*
X54564Y84280D02*
X53908Y84936D01*
X52596D01*
X51940Y84280D01*
Y83624D01*
X52596Y82968D01*
X53252D01*
X52596D01*
X51940Y82312D01*
Y81656D01*
X52596Y81000D01*
X53908D01*
X54564Y81656D01*
X220376Y140656D02*
Y143280D01*
X221032Y143936D01*
X222344D01*
X223000Y143280D01*
Y140656D01*
X222344Y140000D01*
X221032D01*
X221688Y141312D02*
X220376Y140000D01*
X221032D02*
X220376Y140656D01*
X219064Y143280D02*
X218408Y143936D01*
X217096D01*
X216440Y143280D01*
Y142624D01*
X217096Y141968D01*
X216440Y141312D01*
Y140656D01*
X217096Y140000D01*
X218408D01*
X219064Y140656D01*
Y141312D01*
X218408Y141968D01*
X219064Y142624D01*
Y143280D01*
X218408Y141968D02*
X217096D01*
X72876Y81656D02*
Y84280D01*
X73532Y84936D01*
X74844D01*
X75500Y84280D01*
Y81656D01*
X74844Y81000D01*
X73532D01*
X74188Y82312D02*
X72876Y81000D01*
X73532D02*
X72876Y81656D01*
X68940Y81000D02*
X71564D01*
X68940Y83624D01*
Y84280D01*
X69596Y84936D01*
X70908D01*
X71564Y84280D01*
X161636Y143656D02*
Y146280D01*
X162292Y146936D01*
X163604D01*
X164260Y146280D01*
Y143656D01*
X163604Y143000D01*
X162292D01*
X162948Y144312D02*
X161636Y143000D01*
X162292D02*
X161636Y143656D01*
X160324Y146936D02*
X157700D01*
Y146280D01*
X160324Y143656D01*
Y143000D01*
X89876Y81656D02*
Y84280D01*
X90532Y84936D01*
X91844D01*
X92500Y84280D01*
Y81656D01*
X91844Y81000D01*
X90532D01*
X91188Y82312D02*
X89876Y81000D01*
X90532D02*
X89876Y81656D01*
X88564Y81000D02*
X87252D01*
X87908D01*
Y84936D01*
X88564Y84280D01*
X187827Y157601D02*
Y160225D01*
X188483Y160880D01*
X189795D01*
X190451Y160225D01*
Y157601D01*
X189795Y156945D01*
X188483D01*
X189139Y158257D02*
X187827Y156945D01*
X188483D02*
X187827Y157601D01*
X183891Y160880D02*
X185203Y160225D01*
X186515Y158913D01*
Y157601D01*
X185859Y156945D01*
X184547D01*
X183891Y157601D01*
Y158257D01*
X184547Y158913D01*
X186515D01*
X225127Y35680D02*
X226439D01*
X225783D01*
Y32401D01*
X226439Y31745D01*
X227095D01*
X227751Y32401D01*
X221192Y35680D02*
X223815D01*
Y33713D01*
X222503Y34369D01*
X221848D01*
X221192Y33713D01*
Y32401D01*
X221848Y31745D01*
X223159D01*
X223815Y32401D01*
X232833Y198974D02*
Y195038D01*
X230865D01*
X230209Y195694D01*
Y198318D01*
X230865Y198974D01*
X232833D01*
X228897Y195038D02*
X227586D01*
X228241D01*
Y198974D01*
X228897Y198318D01*
X148376Y104780D02*
X149032Y105436D01*
X150344D01*
X151000Y104780D01*
Y102156D01*
X150344Y101500D01*
X149032D01*
X148376Y102156D01*
X147064Y101500D02*
X145752D01*
X146408D01*
Y105436D01*
X147064Y104780D01*
X141161Y105436D02*
X142473Y104780D01*
X143784Y103468D01*
Y102156D01*
X143129Y101500D01*
X141817D01*
X141161Y102156D01*
Y102812D01*
X141817Y103468D01*
X143784D01*
X103524Y114280D02*
X104180Y114936D01*
X105492D01*
X106148Y114280D01*
Y111656D01*
X105492Y111000D01*
X104180D01*
X103524Y111656D01*
X102212Y111000D02*
X100900D01*
X101556D01*
Y114936D01*
X102212Y114280D01*
X98933D02*
X98277Y114936D01*
X96965D01*
X96309Y114280D01*
Y113624D01*
X96965Y112968D01*
X97621D01*
X96965D01*
X96309Y112312D01*
Y111656D01*
X96965Y111000D01*
X98277D01*
X98933Y111656D01*
X61376Y153280D02*
X62032Y153936D01*
X63344D01*
X64000Y153280D01*
Y150656D01*
X63344Y150000D01*
X62032D01*
X61376Y150656D01*
X60064Y150000D02*
X58752D01*
X59408D01*
Y153936D01*
X60064Y153280D01*
X56784D02*
X56129Y153936D01*
X54817D01*
X54161Y153280D01*
Y150656D01*
X54817Y150000D01*
X56129D01*
X56784Y150656D01*
Y153280D01*
X120780Y113624D02*
X121436Y112968D01*
Y111656D01*
X120780Y111000D01*
X118156D01*
X117500Y111656D01*
Y112968D01*
X118156Y113624D01*
X117500Y114936D02*
Y116248D01*
Y115592D01*
X121436D01*
X120780Y114936D01*
X121436Y120839D02*
Y118216D01*
X119468D01*
X120124Y119527D01*
Y120183D01*
X119468Y120839D01*
X118156D01*
X117500Y120183D01*
Y118871D01*
X118156Y118216D01*
X77780Y113624D02*
X78436Y112968D01*
Y111656D01*
X77780Y111000D01*
X75156D01*
X74500Y111656D01*
Y112968D01*
X75156Y113624D01*
X74500Y114936D02*
Y116248D01*
Y115592D01*
X78436D01*
X77780Y114936D01*
X74500Y120839D02*
Y118216D01*
X77124Y120839D01*
X77780D01*
X78436Y120183D01*
Y118871D01*
X77780Y118216D01*
X34280Y113624D02*
X34936Y112968D01*
Y111656D01*
X34280Y111000D01*
X31656D01*
X31000Y111656D01*
Y112968D01*
X31656Y113624D01*
Y114936D02*
X31000Y115592D01*
Y116904D01*
X31656Y117560D01*
X34280D01*
X34936Y116904D01*
Y115592D01*
X34280Y114936D01*
X33624D01*
X32968Y115592D01*
Y117560D01*
X224427Y96025D02*
X225083Y96680D01*
X226395D01*
X227051Y96025D01*
Y93401D01*
X226395Y92745D01*
X225083D01*
X224427Y93401D01*
X220492Y96680D02*
X221803Y96025D01*
X223115Y94713D01*
Y93401D01*
X222459Y92745D01*
X221147D01*
X220492Y93401D01*
Y94057D01*
X221147Y94713D01*
X223115D01*
X262876Y106780D02*
X263532Y107436D01*
X264844D01*
X265500Y106780D01*
Y104156D01*
X264844Y103500D01*
X263532D01*
X262876Y104156D01*
X258940Y107436D02*
X261564D01*
Y105468D01*
X260252Y106124D01*
X259596D01*
X258940Y105468D01*
Y104156D01*
X259596Y103500D01*
X260908D01*
X261564Y104156D01*
X242427Y97525D02*
X243083Y98181D01*
X244395D01*
X245051Y97525D01*
Y94901D01*
X244395Y94245D01*
X243083D01*
X242427Y94901D01*
X239147Y94245D02*
Y98181D01*
X241115Y96213D01*
X238492D01*
M02*
