%FSTAX23Y23*%
%MOIN*%
%SFA1B1*%

%IPPOS*%
%ADD28C,0.009840*%
%ADD29C,0.007870*%
%ADD30C,0.005910*%
%LNpanel-1*%
%LPD*%
G54D28*
X00945Y01275D02*
D01*
X00945Y01275*
X00945Y01276*
X00945Y01276*
X00945Y01276*
X00945Y01277*
X00945Y01277*
X00945Y01277*
X00945Y01278*
X00944Y01278*
X00944Y01278*
X00944Y01279*
X00944Y01279*
X00943Y01279*
X00943Y01279*
X00943Y01279*
X00943Y0128*
X00942Y0128*
X00942Y0128*
X00942Y0128*
X00941Y0128*
X00941Y0128*
X00941Y0128*
X0094*
X0094Y0128*
X0094Y0128*
X00939Y0128*
X00939Y0128*
X00939Y0128*
X00938Y0128*
X00938Y01279*
X00938Y01279*
X00937Y01279*
X00937Y01279*
X00937Y01279*
X00937Y01278*
X00936Y01278*
X00936Y01278*
X00936Y01277*
X00936Y01277*
X00936Y01277*
X00936Y01276*
X00936Y01276*
X00936Y01276*
X00936Y01275*
X00936Y01275*
X00936Y01275*
X00936Y01274*
X00936Y01274*
X00936Y01274*
X00936Y01273*
X00936Y01273*
X00936Y01273*
X00936Y01272*
X00936Y01272*
X00937Y01272*
X00937Y01272*
X00937Y01271*
X00937Y01271*
X00938Y01271*
X00938Y01271*
X00938Y01271*
X00939Y01271*
X00939Y0127*
X00939Y0127*
X0094Y0127*
X0094Y0127*
X0094Y0127*
X00941*
X00941Y0127*
X00941Y0127*
X00942Y0127*
X00942Y0127*
X00942Y01271*
X00943Y01271*
X00943Y01271*
X00943Y01271*
X00943Y01271*
X00944Y01271*
X00944Y01272*
X00944Y01272*
X00944Y01272*
X00945Y01272*
X00945Y01273*
X00945Y01273*
X00945Y01273*
X00945Y01274*
X00945Y01274*
X00945Y01274*
X00945Y01275*
X00945Y01275*
X01201D02*
D01*
X01201Y01275*
X01201Y01276*
X01201Y01276*
X01201Y01276*
X01201Y01277*
X01201Y01277*
X01201Y01277*
X01201Y01278*
X012Y01278*
X012Y01278*
X012Y01279*
X012Y01279*
X01199Y01279*
X01199Y01279*
X01199Y01279*
X01199Y0128*
X01198Y0128*
X01198Y0128*
X01198Y0128*
X01197Y0128*
X01197Y0128*
X01197Y0128*
X01196*
X01196Y0128*
X01195Y0128*
X01195Y0128*
X01195Y0128*
X01195Y0128*
X01194Y0128*
X01194Y01279*
X01194Y01279*
X01193Y01279*
X01193Y01279*
X01193Y01279*
X01193Y01278*
X01192Y01278*
X01192Y01278*
X01192Y01277*
X01192Y01277*
X01192Y01277*
X01192Y01276*
X01192Y01276*
X01191Y01276*
X01191Y01275*
X01191Y01275*
X01191Y01275*
X01191Y01274*
X01192Y01274*
X01192Y01274*
X01192Y01273*
X01192Y01273*
X01192Y01273*
X01192Y01272*
X01192Y01272*
X01193Y01272*
X01193Y01272*
X01193Y01271*
X01193Y01271*
X01194Y01271*
X01194Y01271*
X01194Y01271*
X01195Y01271*
X01195Y0127*
X01195Y0127*
X01195Y0127*
X01196Y0127*
X01196Y0127*
X01197*
X01197Y0127*
X01197Y0127*
X01198Y0127*
X01198Y0127*
X01198Y01271*
X01199Y01271*
X01199Y01271*
X01199Y01271*
X01199Y01271*
X012Y01271*
X012Y01272*
X012Y01272*
X012Y01272*
X01201Y01272*
X01201Y01273*
X01201Y01273*
X01201Y01273*
X01201Y01274*
X01201Y01274*
X01201Y01274*
X01201Y01275*
X01201Y01275*
X00689D02*
D01*
X00689Y01275*
X00689Y01276*
X00689Y01276*
X00689Y01276*
X00689Y01277*
X00689Y01277*
X00689Y01277*
X00689Y01278*
X00689Y01278*
X00688Y01278*
X00688Y01279*
X00688Y01279*
X00688Y01279*
X00687Y01279*
X00687Y01279*
X00687Y0128*
X00686Y0128*
X00686Y0128*
X00686Y0128*
X00685Y0128*
X00685Y0128*
X00685Y0128*
X00684*
X00684Y0128*
X00684Y0128*
X00683Y0128*
X00683Y0128*
X00683Y0128*
X00682Y0128*
X00682Y01279*
X00682Y01279*
X00682Y01279*
X00681Y01279*
X00681Y01279*
X00681Y01278*
X00681Y01278*
X0068Y01278*
X0068Y01277*
X0068Y01277*
X0068Y01277*
X0068Y01276*
X0068Y01276*
X0068Y01276*
X0068Y01275*
X0068Y01275*
X0068Y01275*
X0068Y01274*
X0068Y01274*
X0068Y01274*
X0068Y01273*
X0068Y01273*
X0068Y01273*
X0068Y01272*
X00681Y01272*
X00681Y01272*
X00681Y01272*
X00681Y01271*
X00682Y01271*
X00682Y01271*
X00682Y01271*
X00682Y01271*
X00683Y01271*
X00683Y0127*
X00683Y0127*
X00684Y0127*
X00684Y0127*
X00684Y0127*
X00685*
X00685Y0127*
X00685Y0127*
X00686Y0127*
X00686Y0127*
X00686Y01271*
X00687Y01271*
X00687Y01271*
X00687Y01271*
X00688Y01271*
X00688Y01271*
X00688Y01272*
X00688Y01272*
X00689Y01272*
X00689Y01272*
X00689Y01273*
X00689Y01273*
X00689Y01273*
X00689Y01274*
X00689Y01274*
X00689Y01274*
X00689Y01275*
X00689Y01275*
G54D29*
X00877Y01405D02*
X00893D01*
X00877Y01374D02*
Y01405D01*
Y01287D02*
X00893D01*
X00877D02*
Y01318D01*
X01133Y01405D02*
X01149D01*
X01133Y01374D02*
Y01405D01*
Y01287D02*
X01149D01*
X01133D02*
Y01318D01*
X00622Y01287D02*
X00637D01*
X00622D02*
Y01318D01*
Y01405D02*
X00637D01*
X00622Y01374D02*
Y01405D01*
X00294Y01406D02*
X00328D01*
X00294Y01342D02*
X00328D01*
X00294Y01307D02*
X00328D01*
X00294Y01243D02*
X00328D01*
X00294Y01209D02*
X00328D01*
X00294Y01145D02*
X00328D01*
X01047Y00295D02*
X01342D01*
Y00523*
X01047D02*
X01342D01*
X01047Y00295D02*
Y00523D01*
X00102Y00299D02*
Y00527D01*
X00594*
Y00299D02*
Y00527D01*
X00102Y00299D02*
X00594D01*
X01358D02*
X01948D01*
Y00527*
X01358D02*
X01948D01*
X01358Y00299D02*
Y00527D01*
Y00551D02*
X01948D01*
Y00779*
X01358D02*
X01948D01*
X01358Y00551D02*
Y00779D01*
X01047Y00547D02*
X01342D01*
Y00775*
X01047D02*
X01342D01*
X01047Y00547D02*
Y00775D01*
X00102Y00551D02*
Y00779D01*
X00594*
Y00551D02*
Y00779D01*
X00102Y00551D02*
X00594D01*
X01291Y01339D02*
Y01353D01*
X01259Y01339D02*
Y01353D01*
X01035Y01339D02*
Y01353D01*
X01003Y01339D02*
Y01353D01*
X00779Y01339D02*
Y01353D01*
X00747Y01339D02*
Y01353D01*
X00645Y00559D02*
X00958D01*
Y00746*
X00645D02*
X00958D01*
X00645Y00559D02*
Y00746D01*
Y00307D02*
X00958D01*
Y00494*
X00645D02*
X00958D01*
X00645Y00307D02*
Y00494D01*
G54D30*
X00074Y01212D02*
Y01173D01*
X00094*
X00101Y01179*
Y01206*
X00094Y01212*
X00074*
X00114Y01173D02*
X00127D01*
X0012*
Y01212*
X00114Y01206*
X00724Y01224D02*
Y01263D01*
X00744*
X0075Y01257*
Y01244*
X00744Y01237*
X00724*
X00737D02*
X0075Y01224D01*
X00783D02*
Y01263D01*
X00763Y01244*
X0079*
X00429Y01362D02*
Y01401D01*
X00448*
X00455Y01395*
Y01381*
X00448Y01375*
X00429*
X00442D02*
X00455Y01362D01*
X00468D02*
X00481D01*
X00475*
Y01401*
X00468Y01395*
X0064Y0123D02*
Y01257D01*
X00633Y01263*
X0062*
X00614Y01257*
Y0123*
X0062Y01224*
X00633*
X00627Y01237D02*
X0064Y01224D01*
X00633D02*
X0064Y0123D01*
X00653Y01224D02*
X00666D01*
X0066*
Y01263*
X00653Y01257*
X01872Y00267D02*
X01859D01*
X01866*
Y00234*
X01859Y00228*
X01853*
X01846Y00234*
X01885D02*
X01892Y00228D01*
X01905*
X01912Y00234*
Y00261*
X01905Y00267*
X01892*
X01885Y00261*
Y00254*
X01892Y00248*
X01912*
X01164Y00366D02*
X0115D01*
X01157*
Y00333*
X0115Y00326*
X01144*
X01137Y00333*
X01177Y00359D02*
X01183Y00366D01*
X01196*
X01203Y00359*
Y00353*
X01196Y00346*
X01203Y00339*
Y00333*
X01196Y00326*
X01183*
X01177Y00333*
Y00339*
X01183Y00346*
X01177Y00353*
Y00359*
X01183Y00346D02*
X01196D01*
X00719Y00366D02*
X00706D01*
X00712*
Y00333*
X00706Y00326*
X00699*
X00692Y00333*
X00732Y00366D02*
X00758D01*
Y00359*
X00732Y00333*
Y00326*
X00128Y00255D02*
X00115D01*
X00122*
Y00223*
X00115Y00216*
X00108*
X00102Y00223*
X00167Y00255D02*
X00154Y00249D01*
X00141Y00236*
Y00223*
X00148Y00216*
X00161*
X00167Y00223*
Y00229*
X00161Y00236*
X00141*
X01386Y00849D02*
X01373D01*
X01379*
Y00816*
X01373Y00809*
X01366*
X0136Y00816*
X01425Y00849D02*
X01399D01*
Y00829*
X01412Y00835*
X01419*
X01425Y00829*
Y00816*
X01419Y00809*
X01406*
X01399Y00816*
X01075Y00845D02*
X01062D01*
X01068*
Y00812*
X01062Y00805*
X01055*
X01049Y00812*
X01108Y00805D02*
Y00845D01*
X01088Y00825*
X01114*
X00657Y00848D02*
X00644D01*
X0065*
Y00815*
X00644Y00808*
X00637*
X00631Y00815*
X0067Y00841D02*
X00677Y00848D01*
X0069*
X00696Y00841*
Y00834*
X0069Y00828*
X00683*
X0069*
X00696Y00821*
Y00815*
X0069Y00808*
X00677*
X0067Y00815*
X0013Y00849D02*
X00117D01*
X00123*
Y00816*
X00117Y00809*
X0011*
X00104Y00816*
X00169Y00809D02*
X00143D01*
X00169Y00835*
Y00842*
X00163Y00849*
X0015*
X00143Y00842*
X00892Y01227D02*
Y01253D01*
X00885Y01259*
X00872*
X00866Y01253*
Y01227*
X00872Y0122*
X00885*
X00879Y01233D02*
X00892Y0122D01*
X00885D02*
X00892Y01227D01*
X00931Y0122D02*
X00905D01*
X00931Y01246*
Y01253*
X00925Y01259*
X00912*
X00905Y01253*
X01156Y01219D02*
Y01245D01*
X01149Y01251*
X01136*
X01129Y01245*
Y01219*
X01136Y01212*
X01149*
X01143Y01225D02*
X01156Y01212D01*
X01149D02*
X01156Y01219D01*
X01169Y01245D02*
X01175Y01251D01*
X01188*
X01195Y01245*
Y01238*
X01188Y01232*
X01182*
X01188*
X01195Y01225*
Y01219*
X01188Y01212*
X01175*
X01169Y01219*
X00421Y01255D02*
Y01295D01*
X0044*
X00447Y01288*
Y01275*
X0044Y01269*
X00421*
X00434D02*
X00447Y01255D01*
X00486D02*
X0046D01*
X00486Y01282*
Y01288*
X0048Y01295*
X00467*
X0046Y01288*
X00417Y01157D02*
Y01196D01*
X00437*
X00443Y0119*
Y01177*
X00437Y0117*
X00417*
X0043D02*
X00443Y01157D01*
X00456Y0119D02*
X00463Y01196D01*
X00476*
X00482Y0119*
Y01183*
X00476Y01177*
X00469*
X00476*
X00482Y0117*
Y01164*
X00476Y01157*
X00463*
X00456Y01164*
X0098Y0122D02*
Y01259D01*
X00999*
X01006Y01253*
Y0124*
X00999Y01233*
X0098*
X00993D02*
X01006Y0122D01*
X01045Y01259D02*
X01019D01*
Y0124*
X01032Y01246*
X01039*
X01045Y0124*
Y01227*
X01039Y0122*
X01026*
X01019Y01227*
X01244Y01224D02*
Y01263D01*
X01263*
X0127Y01257*
Y01244*
X01263Y01237*
X01244*
X01257D02*
X0127Y01224D01*
X01309Y01263D02*
X01296Y01257D01*
X01283Y01244*
Y0123*
X0129Y01224*
X01303*
X01309Y0123*
Y01237*
X01303Y01244*
X01283*
M02*