%FSTAX23Y23*%
%MOIN*%
%SFA1B1*%

%IPPOS*%
%ADD31R,0.062990X0.031500*%
%ADD32R,0.066930X0.078740*%
%ADD33R,0.047240X0.047240*%
%ADD34C,0.068900*%
%ADD35R,0.068900X0.068900*%
%ADD36C,0.125980*%
%ADD37C,0.053150*%
%ADD38R,0.053150X0.053150*%
%ADD39C,0.059060*%
%ADD40R,0.059060X0.059060*%
%LNpanel-1*%
%LPD*%
G54D31*
X00952Y01309D03*
Y01383D03*
X0087Y01346D03*
X01208Y01309D03*
Y01383D03*
X01125Y01346D03*
X00696Y01309D03*
Y01383D03*
X00614Y01346D03*
G54D32*
X00253Y01374D03*
X00368D03*
Y01275D03*
X00253D03*
X00368Y01177D03*
X00253D03*
G54D33*
X01275Y01311D03*
Y01381D03*
X01019Y01311D03*
Y01381D03*
X00763D03*
Y01311D03*
G54D34*
X01793Y01082D03*
Y00982D03*
X01693Y01082D03*
Y00982D03*
X01593Y01082D03*
Y00982D03*
X01493Y01082D03*
Y00982D03*
X01393D03*
Y01082D03*
X00993D03*
Y00982D03*
X00893D03*
Y01082D03*
X00493D03*
X00593D03*
X00793D03*
X00693D03*
Y00982D03*
X00793D03*
X00593D03*
X00493D03*
X00393D03*
X01093D03*
Y01082D03*
X01193Y00982D03*
Y01082D03*
X01293Y00982D03*
Y01082D03*
X01244Y00437D03*
X00299D03*
X00397D03*
X00496D03*
X0185D03*
X01751D03*
X01653D03*
X01555D03*
X0185Y00688D03*
X01751D03*
X01653D03*
X01555D03*
X01244D03*
X00299D03*
X00397D03*
X00496D03*
G54D35*
X00393Y01082D03*
X01145Y00437D03*
X002D03*
X01456D03*
Y00688D03*
X01145D03*
X002D03*
G54D36*
X01894Y01325D03*
X00118D03*
Y00118D03*
X01894D03*
G54D37*
X00131Y01116D03*
Y01061D03*
Y01006D03*
G54D38*
X00131Y00951D03*
G54D39*
X00881Y00688D03*
X00803D03*
X00881Y00437D03*
X00803D03*
G54D40*
X00724Y00688D03*
Y00437D03*
M02*