%FSTAX23Y23*%
%MOIN*%
%SFA1B1*%

%IPPOS*%
%ADD10C,0.011810*%
%ADD11C,0.023620*%
%ADD12C,0.015750*%
%ADD13C,0.031500*%
%ADD14R,0.055120X0.023620*%
%ADD15R,0.059060X0.070870*%
%ADD16R,0.039370X0.039370*%
%ADD17C,0.039370*%
%ADD18C,0.061020*%
%ADD19R,0.061020X0.061020*%
%ADD20C,0.118110*%
%ADD21C,0.045280*%
%ADD22R,0.045280X0.045280*%
%ADD23C,0.051180*%
%ADD24R,0.051180X0.051180*%
%ADD25C,0.027560*%
%LNpanel-1*%
%LPD*%
G36*
X00216Y01417D02*
D01*
Y01388*
X00216*
X00212Y01388*
X00212Y01388*
Y01388*
Y01388*
X00207Y01387*
X00202Y01383*
X00182Y01364*
X0018Y0136*
X00177Y0136*
X00175Y0136*
X00174Y01362*
X00165Y01372*
X00155Y01381*
X00143Y01387*
X00131Y01391*
X00118Y01392*
X00104Y01391*
X00092Y01387*
X0008Y01381*
X0007Y01372*
X00062Y01362*
X00055Y0135*
X00052Y01338*
X0005Y01325*
X00052Y01312*
X00055Y01299*
X00062Y01287*
X0007Y01277*
X0008Y01269*
X00092Y01263*
X00104Y01259*
X00118Y01257*
X00131Y01259*
X00143Y01263*
X00155Y01269*
X00163Y01276*
X00168Y01273*
X00167Y01268*
Y01171*
X0015Y01155*
X0015Y01155*
X00149Y01154*
X00145Y0115*
X00138Y01148*
X00131Y01147*
X00131Y01147*
X00123Y01146*
X00116Y01143*
X0011Y01138*
X00105Y01131*
X00102Y01124*
X00101Y01116*
X00102Y01108*
X00105Y01101*
X0011Y01094*
X00114Y01091*
Y01086*
X00111Y01084*
X0011Y01083*
X0011Y01083*
X00109Y01082*
X00106Y01081*
X00105*
X00105Y01081*
Y01081*
X00096*
X00089Y01079*
X00082Y01075*
X00036Y01029*
X00032Y01023*
X00031Y01015*
Y0044*
X00032Y00433*
X00036Y00426*
X00151Y00312*
X00157Y00308*
X00165Y00306*
X00212*
Y00023*
X00023*
Y01417*
X00216*
G37*
G36*
X00238Y01125D02*
X00239Y01115D01*
Y01114*
X00239Y01114*
X00239*
Y01023*
X00181Y00965*
X00172*
Y00965*
X00171Y00965*
X00165Y00966*
X00162Y00967*
Y00981*
X00159*
X00157Y00982*
X00157Y00987*
X00162Y0099*
X0017Y00992*
X00171Y00992*
Y00992*
X00177Y00993*
X00181Y00996*
X0021Y01025*
X00213Y0103*
X00214Y01035*
Y01133*
X00216*
X00235*
X00238Y01125*
G37*
G36*
X01988Y00023D02*
X01799D01*
Y00244*
Y00307*
X01269*
X01267Y00311*
X01268Y00312*
X0127Y00319*
X01271Y00326*
X0127Y00333*
X01268Y0034*
Y00402*
X01268Y00405*
X01271Y00409*
X01272Y00411*
X01277Y00417*
X01281Y00426*
X01282Y00437*
X01281Y00447*
X01277Y00456*
X01271Y00464*
X0127Y00464*
X01265Y00472*
X01261Y00481*
X0126Y0049*
Y00491*
X0126Y00491*
X0126*
Y00634*
X0126*
X0126Y00634*
Y00635*
X01261Y00644*
X01265Y00653*
X0127Y00661*
X01271Y00661*
X01277Y00669*
X01281Y00678*
X01282Y00688*
X01281Y00699*
X01277Y00708*
X01271Y00716*
X01263Y00722*
X01254Y00726*
X01244Y00727*
X01234Y00726*
X01224Y00722*
X01216Y00716*
X0121Y00708*
X01206Y00699*
X01205Y00688*
X01206Y00678*
X0121Y00669*
X01216Y00661*
X01217Y00661*
X01222Y00653*
X01226Y00644*
X01228Y00635*
Y00634*
X01228Y00634*
X01228*
Y00491*
X01228*
X01228Y00491*
Y0049*
X01226Y00481*
X01222Y00472*
X01217Y00464*
X01216Y00464*
X0121Y00456*
X01206Y00447*
X01205Y00437*
X01206Y00426*
X0121Y00417*
X01215Y00411*
X01216Y00409*
X01219Y00405*
X0122Y00402*
Y00354*
X00425*
Y0041*
X00431Y00417*
X00435Y00426*
X00436Y00437*
X00435Y00447*
X00431Y00456*
X00425Y00464*
X00417Y0047*
X00407Y00474*
X00397Y00475*
X00387Y00474*
X00378Y0047*
X0037Y00464*
X00364Y00456*
X0036Y00447*
X00358Y00437*
X0036Y00426*
X00364Y00417*
X00369Y0041*
Y00346*
X00173*
X00071Y00449*
Y01007*
X00105Y01041*
X00105*
Y01041*
X00105Y01041*
X00106*
X00109Y0104*
X0011Y01039*
X0011Y01039*
X00111Y01038*
X00114Y01036*
Y01031*
X0011Y01028*
X00105Y01021*
X00102Y01014*
X00101Y01006*
X00102Y00998*
X00105Y0099*
X00108Y00986*
X00106Y00981*
X00101*
Y0092*
X00162*
Y00934*
X00165Y00936*
X00171Y00937*
X00172Y00936*
Y00937*
X00187*
X00192Y00938*
X00197Y00941*
X00263Y01007*
X00266Y01012*
X00267Y01017*
Y01114*
X00268*
X00267Y01114*
Y01115*
X00269Y01125*
X00272Y01133*
X00291*
Y0122*
X00216*
X00214Y01222*
Y01232*
X00216*
X00291*
Y01318*
X00216*
Y01289*
X00211Y01288*
X00206Y0129*
Y01348*
X00211Y01353*
X00216Y01351*
Y0133*
X00291*
Y01417*
X0033*
Y01413*
Y0133*
X00405*
Y01355*
X00413Y01358*
X00424Y01359*
X00424*
X00425Y01359*
Y01359*
X00458*
X00482Y01336*
X00486Y01333*
X00492Y01332*
X00578*
Y01326*
X00649*
Y01366*
X00578*
Y0136*
X00497*
X00474Y01383*
X00469Y01387*
X00464Y01388*
X00425*
Y01388*
X00424Y01388*
X00424*
X00413Y01389*
X00405Y01392*
Y01413*
Y01417*
X01988*
Y00023*
G37*
G36*
X00186Y01144D02*
Y01041D01*
X00166Y01021*
X00162Y01022*
X00154Y01027*
X00153Y01027*
X00153Y01027*
X00153Y01027*
X00153Y01027*
X00153Y01028*
X00149Y01031*
Y01036*
X00153Y01039*
X00158Y01046*
X00161Y01053*
X00162Y01061*
X00161Y01069*
X00158Y01076*
X00153Y01083*
X00149Y01086*
Y01091*
X00153Y01094*
X00158Y01101*
X00161Y01108*
X00162Y01116*
X00162Y01116*
X00162*
X00163Y01123*
X00166Y01129*
X00169Y01134*
X0017Y01135*
Y01135*
X00182Y01146*
X00186Y01144*
G37*
%LNpanel-2*%
%LPC*%
G36*
X00719Y00683D02*
X00688D01*
Y00653*
X00719*
Y00683*
G37*
G36*
X00491Y00729D02*
X00485Y00728D01*
X00475Y00724*
X00467Y00717*
X0046Y00709*
X00456Y00699*
X00455Y00693*
X00491*
Y00729*
G37*
G36*
X00803Y00722D02*
X00794Y00721D01*
X00786Y00718*
X00779Y00712*
X00773Y00705*
X0077Y00697*
X00769Y00688*
X0077Y0068*
X00773Y00672*
X00779Y00665*
X00786Y00659*
X00794Y00656*
X00803Y00655*
X00811Y00656*
X0082Y00659*
X00827Y00665*
X00832Y00672*
X00835Y0068*
X00836Y00688*
X00835Y00697*
X00832Y00705*
X00827Y00712*
X0082Y00718*
X00811Y00721*
X00803Y00722*
G37*
G36*
X0076Y00683D02*
X00729D01*
Y00653*
X0076*
Y00683*
G37*
G36*
X00536D02*
X00501D01*
Y00648*
X00506Y00649*
X00516Y00653*
X00524Y0066*
X00531Y00668*
X00535Y00678*
X00536Y00683*
G37*
G36*
X00491D02*
X00455D01*
X00456Y00678*
X0046Y00668*
X00467Y0066*
X00475Y00653*
X00485Y00649*
X00491Y00648*
Y00683*
G37*
G36*
X01184Y00727D02*
X01107D01*
Y0065*
X01184*
Y00727*
G37*
G36*
X00299Y00727D02*
X00289Y00726D01*
X00279Y00722*
X00271Y00716*
X00265Y00708*
X00261Y00699*
X0026Y00688*
X00261Y00678*
X00265Y00669*
X00271Y00661*
X00279Y00655*
X00289Y00651*
X00299Y0065*
X00309Y00651*
X00318Y00655*
X00326Y00661*
X00332Y00669*
X00336Y00678*
X00337Y00688*
X00336Y00699*
X00332Y00708*
X00326Y00716*
X00318Y00722*
X00309Y00726*
X00299Y00727*
G37*
G36*
X00893Y01021D02*
X00883Y0102D01*
X00874Y01016*
X00866Y0101*
X0086Y01002*
X00856Y00992*
X00854Y00982*
X00856Y00972*
X0086Y00963*
X00866Y00955*
X00874Y00949*
X00883Y00945*
X00893Y00943*
X00903Y00945*
X00913Y00949*
X00921Y00955*
X00927Y00963*
X00931Y00972*
X00932Y00982*
X00931Y00992*
X00927Y01002*
X00921Y0101*
X00913Y01016*
X00903Y0102*
X00893Y01021*
G37*
G36*
X00693D02*
X00683Y0102D01*
X00674Y01016*
X00666Y0101*
X0066Y01002*
X00656Y00992*
X00654Y00982*
X00656Y00972*
X0066Y00963*
X00666Y00955*
X00674Y00949*
X00683Y00945*
X00693Y00943*
X00703Y00945*
X00713Y00949*
X00721Y00955*
X00727Y00963*
X00731Y00972*
X00732Y00982*
X00731Y00992*
X00727Y01002*
X00721Y0101*
X00713Y01016*
X00703Y0102*
X00693Y01021*
G37*
G36*
X00993D02*
X00983Y0102D01*
X00974Y01016*
X00966Y0101*
X0096Y01002*
X00956Y00992*
X00954Y00982*
X00956Y00972*
X0096Y00963*
X00966Y00955*
X00974Y00949*
X00983Y00945*
X00993Y00943*
X01003Y00945*
X01013Y00949*
X01021Y00955*
X01027Y00963*
X01031Y00972*
X01032Y00982*
X01031Y00992*
X01027Y01002*
X01021Y0101*
X01013Y01016*
X01003Y0102*
X00993Y01021*
G37*
G36*
X01193D02*
X01183Y0102D01*
X01174Y01016*
X01166Y0101*
X0116Y01002*
X01156Y00992*
X01154Y00982*
X01156Y00972*
X0116Y00963*
X01166Y00955*
X01174Y00949*
X01183Y00945*
X01193Y00943*
X01203Y00945*
X01213Y00949*
X01221Y00955*
X01227Y00963*
X01231Y00972*
X01232Y00982*
X01231Y00992*
X01227Y01002*
X01221Y0101*
X01213Y01016*
X01203Y0102*
X01193Y01021*
G37*
G36*
X01093D02*
X01083Y0102D01*
X01074Y01016*
X01066Y0101*
X0106Y01002*
X01056Y00992*
X01054Y00982*
X01056Y00972*
X0106Y00963*
X01066Y00955*
X01074Y00949*
X01083Y00945*
X01093Y00943*
X01103Y00945*
X01113Y00949*
X01121Y00955*
X01127Y00963*
X01131Y00972*
X01132Y00982*
X01131Y00992*
X01127Y01002*
X01121Y0101*
X01113Y01016*
X01103Y0102*
X01093Y01021*
G37*
G36*
X00719Y00724D02*
X00688D01*
Y00693*
X00719*
Y00724*
G37*
G36*
X00501Y00729D02*
Y00693D01*
X00536*
X00535Y00699*
X00531Y00709*
X00524Y00717*
X00516Y00724*
X00506Y00728*
X00501Y00729*
G37*
G36*
X0076Y00724D02*
X00729D01*
Y00693*
X0076*
Y00724*
G37*
G36*
X01497Y00729D02*
X01461D01*
Y00693*
X01497*
Y00729*
G37*
G36*
X01451D02*
X01416D01*
Y00693*
X01451*
Y00729*
G37*
G36*
X01497Y00683D02*
X01461D01*
Y00648*
X01497*
Y00683*
G37*
G36*
X00299Y00475D02*
X00289Y00474D01*
X00279Y0047*
X00271Y00464*
X00265Y00456*
X00261Y00447*
X0026Y00437*
X00261Y00426*
X00265Y00417*
X00271Y00409*
X00279Y00403*
X00289Y00399*
X00299Y00398*
X00309Y00399*
X00318Y00403*
X00326Y00409*
X00332Y00417*
X00336Y00426*
X00337Y00437*
X00336Y00447*
X00332Y00456*
X00326Y00464*
X00318Y0047*
X00309Y00474*
X00299Y00475*
G37*
G36*
X00536Y00432D02*
X00501D01*
Y00396*
X00506Y00397*
X00516Y00401*
X00524Y00408*
X00531Y00416*
X00535Y00426*
X00536Y00432*
G37*
G36*
X01184Y00475D02*
X01107D01*
Y00398*
X01184*
Y00475*
G37*
G36*
X00239D02*
X00162D01*
Y00398*
X00239*
Y00475*
G37*
G36*
X00491Y00432D02*
X00455D01*
X00456Y00426*
X0046Y00416*
X00467Y00408*
X00475Y00401*
X00485Y00397*
X00491Y00396*
Y00432*
G37*
G36*
X01894Y00185D02*
X0188Y00184D01*
X01868Y0018*
X01856Y00174*
X01846Y00165*
X01838Y00155*
X01831Y00143*
X01828Y00131*
X01826Y00118*
X01828Y00104*
X01831Y00092*
X01838Y0008*
X01846Y0007*
X01856Y00062*
X01868Y00055*
X0188Y00052*
X01894Y0005*
X01907Y00052*
X01919Y00055*
X01931Y00062*
X01941Y0007*
X0195Y0008*
X01956Y00092*
X0196Y00104*
X01961Y00118*
X0196Y00131*
X01956Y00143*
X0195Y00155*
X01941Y00165*
X01931Y00174*
X01919Y0018*
X01907Y00184*
X01894Y00185*
G37*
G36*
X00118D02*
X00104Y00184D01*
X00092Y0018*
X0008Y00174*
X0007Y00165*
X00062Y00155*
X00055Y00143*
X00052Y00131*
X0005Y00118*
X00052Y00104*
X00055Y00092*
X00062Y0008*
X0007Y0007*
X0008Y00062*
X00092Y00055*
X00104Y00052*
X00118Y0005*
X00131Y00052*
X00143Y00055*
X00155Y00062*
X00165Y0007*
X00174Y0008*
X0018Y00092*
X00184Y00104*
X00185Y00118*
X00184Y00131*
X0018Y00143*
X00174Y00155*
X00165Y00165*
X00155Y00174*
X00143Y0018*
X00131Y00184*
X00118Y00185*
G37*
G36*
X01497Y00432D02*
X01461D01*
Y00396*
X01497*
Y00432*
G37*
G36*
X01451D02*
X01416D01*
Y00396*
X01451*
Y00432*
G37*
G36*
X00719D02*
X00688D01*
Y00401*
X00719*
Y00432*
G37*
G36*
X01451Y00477D02*
X01416D01*
Y00442*
X01451*
Y00477*
G37*
G36*
X0076Y00472D02*
X00729D01*
Y00442*
X0076*
Y00472*
G37*
G36*
X01451Y00683D02*
X01416D01*
Y00648*
X01451*
Y00683*
G37*
G36*
X01497Y00477D02*
X01461D01*
Y00442*
X01497*
Y00477*
G37*
G36*
X00719Y00472D02*
X00688D01*
Y00442*
X00719*
Y00472*
G37*
G36*
X00803Y0047D02*
X00794Y00469D01*
X00786Y00466*
X00779Y0046*
X00773Y00453*
X0077Y00445*
X00769Y00437*
X0077Y00428*
X00773Y0042*
X00779Y00413*
X00786Y00407*
X00794Y00404*
X00803Y00403*
X00811Y00404*
X0082Y00407*
X00827Y00413*
X00832Y0042*
X00835Y00428*
X00836Y00437*
X00835Y00445*
X00832Y00453*
X00827Y0046*
X0082Y00466*
X00811Y00469*
X00803Y0047*
G37*
G36*
X0076Y00432D02*
X00729D01*
Y00401*
X0076*
Y00432*
G37*
G36*
X00501Y00477D02*
Y00442D01*
X00536*
X00535Y00447*
X00531Y00457*
X00524Y00465*
X00516Y00472*
X00506Y00476*
X00501Y00477*
G37*
G36*
X00491D02*
X00485Y00476D01*
X00475Y00472*
X00467Y00465*
X0046Y00457*
X00456Y00447*
X00455Y00442*
X00491*
Y00477*
G37*
G36*
X00758Y01411D02*
X00734D01*
Y01405*
X00701*
Y01383*
Y01362*
X00734*
Y01352*
X00758*
Y01381*
Y01411*
G37*
G36*
X00905Y01366D02*
X00834D01*
Y01326*
X00856*
Y01312*
X00832Y01289*
X00826*
X00825Y01294*
X00826Y01295*
X00831Y01302*
X00833Y01311*
X00831Y01319*
X00826Y01326*
X00819Y01331*
X00811Y01333*
X00802Y01331*
X00798Y01328*
X00793Y0133*
X00791Y01335*
Y01338*
X00736*
Y01328*
X00732*
X00661*
Y01289*
X00425*
Y01289*
X00424Y01289*
X00424*
X00413Y0129*
X00405Y01294*
Y01318*
X0033*
Y01232*
X00405*
Y01256*
X00413Y0126*
X00424Y01261*
X00424*
X00425Y01261*
Y01261*
X00502*
X00504Y01256*
X00439Y01191*
X00425*
Y01191*
X00424Y01191*
X00424*
X00413Y01192*
X00405Y01196*
Y0122*
X0033*
Y01133*
X00405*
Y01158*
X00413Y01161*
X00424Y01163*
X00424*
X00425Y01163*
Y01163*
X00439*
X00441Y01158*
X00403Y01121*
X00355*
Y01044*
X00426*
X00431Y01039*
X00427Y01035*
X00426Y01029*
Y0101*
X00422Y01008*
X00421Y0101*
X00413Y01016*
X00403Y0102*
X00393Y01021*
X00383Y0102*
X00374Y01016*
X00366Y0101*
X0036Y01002*
X00356Y00992*
X00354Y00982*
X00356Y00972*
X0036Y00963*
X00366Y00955*
X00374Y00949*
X00383Y00945*
X00393Y00943*
X00403Y00945*
X00413Y00949*
X00421Y00955*
X00422Y00956*
X00426Y00955*
Y00946*
X00332Y00852*
X00248*
X00242Y00851*
X00238Y00848*
X00135Y00746*
X00132Y00741*
X00131Y00736*
Y00629*
X00132Y00624*
X00135Y00619*
X00206Y00549*
X00211Y00546*
X00216Y00545*
X00836*
X00867Y00513*
Y00484*
X00867*
X00867Y00484*
Y00484*
X00866Y00475*
X00863Y00467*
X00858Y00461*
X00858Y0046*
X00852Y00453*
X00849Y00445*
X00848Y00437*
X00849Y00428*
X00852Y0042*
X00858Y00413*
X00865Y00407*
X00873Y00404*
X00881Y00403*
X0089Y00404*
X00898Y00407*
X00905Y00413*
X00911Y0042*
X00914Y00428*
X00915Y00437*
X00914Y00445*
X00911Y00453*
X00905Y0046*
X00905Y00461*
X009Y00467*
X00897Y00475*
X00895Y00484*
Y00484*
X00895Y00484*
X00895*
Y00519*
X00894Y00525*
X00891Y00529*
X00862Y00559*
X00891Y00588*
X00894Y00593*
X00895Y00598*
Y00641*
X00895*
X00895Y00641*
Y00641*
X00897Y0065*
X009Y00658*
X00905Y00664*
X00905Y00665*
X00911Y00672*
X00914Y0068*
X00915Y00688*
X00914Y00697*
X00911Y00705*
X00905Y00712*
X00898Y00718*
X0089Y00721*
X00881Y00722*
X00873Y00721*
X00865Y00718*
X00858Y00712*
X00852Y00705*
X00849Y00697*
X00848Y00688*
X00849Y0068*
X00852Y00672*
X00858Y00665*
X00858Y00664*
X00863Y00658*
X00866Y0065*
X00867Y00641*
Y00641*
X00867Y00641*
X00867*
Y00604*
X00836Y00573*
X00222*
X00159Y00635*
Y0065*
X00162*
X00163*
X00163*
X00239*
Y00727*
X00163*
X00163*
X00163*
X00161Y00731*
X00253Y00824*
X00338*
X00343Y00825*
X00348Y00828*
X0045Y00931*
X00453Y00935*
X00454Y0094*
Y00963*
X00459Y00963*
X0046Y00963*
X00466Y00955*
X00474Y00949*
X00483Y00945*
X00493Y00943*
X00503Y00945*
X00513Y00949*
X00521Y00955*
X00527Y00963*
X00531Y00972*
X00532Y00982*
X00531Y00992*
X00527Y01002*
X00521Y0101*
X00513Y01016*
X00503Y0102*
X00493Y01021*
X00483Y0102*
X00474Y01016*
X00466Y0101*
X0046Y01002*
X00459Y01001*
X00454Y01002*
Y01024*
X00461Y0103*
X00461Y0103*
X00462Y01031*
X00462Y01031*
X0047Y01038*
X00481Y01042*
X00492Y01044*
X00493Y01043*
X00503Y01045*
X00513Y01049*
X00521Y01055*
X00527Y01063*
X00531Y01072*
X00532Y01082*
X00531Y01092*
X00527Y01102*
X00521Y0111*
X00513Y01116*
X00503Y0112*
X00493Y01121*
X00483Y0112*
X00474Y01116*
X00466Y0111*
X0046Y01102*
X00456Y01092*
X00454Y01082*
X00455Y01081*
X00453Y0107*
X00449Y01059*
X00442Y01051*
X00442Y01051*
X00441Y0105*
Y0105*
X00436Y01045*
X00432Y01047*
Y01092*
X00472Y01133*
X00514*
X00556Y01091*
X00554Y01082*
X00556Y01072*
X0056Y01063*
X00565Y01055*
Y01009*
X0056Y01002*
X00556Y00992*
X00554Y00982*
X00556Y00972*
X0056Y00963*
X00565Y00955*
Y00931*
X00539Y00905*
X00456*
X00449Y00904*
X00442Y00902*
X00437Y00897*
X00377Y00838*
X00373Y00832*
X0037Y00826*
X00369Y00818*
Y00715*
X00364Y00708*
X0036Y00699*
X00358Y00688*
X0036Y00678*
X00364Y00669*
X0037Y00661*
X00378Y00655*
X00387Y00651*
X00397Y0065*
X00407Y00651*
X00417Y00655*
X00425Y00661*
X00431Y00669*
X00435Y00678*
X00436Y00688*
X00435Y00699*
X00431Y00708*
X00425Y00715*
Y00807*
X00468Y0085*
X00551*
X00558Y00851*
X00565Y00853*
X0057Y00858*
X00613Y009*
X00617Y00906*
X0062Y00913*
X00621Y0092*
Y00955*
X00627Y00963*
X00631Y00972*
X00632Y00982*
X00631Y00992*
X00627Y01002*
X00621Y01009*
Y01054*
X00666*
X00674Y01049*
X00683Y01045*
X00693Y01043*
X00703Y01045*
X00713Y01049*
X00721Y01055*
X00727Y01063*
X00729Y01067*
X00733Y01066*
Y01028*
X00735Y01022*
X00738Y01018*
X00741Y01014*
X00741Y01014*
X00742Y01014*
X00742Y01013*
X00749Y01005*
X00753Y00994*
X00755Y00983*
X00754Y00982*
X00756Y00972*
X0076Y00963*
X00766Y00955*
X00774Y00949*
X00783Y00945*
X00793Y00943*
X00803Y00945*
X00813Y00949*
X00821Y00955*
X00827Y00963*
X00831Y00972*
X00832Y00982*
X00831Y00992*
X00827Y01002*
X00821Y0101*
X00813Y01016*
X00803Y0102*
X00793Y01021*
X00792Y01021*
X00781Y01022*
X0077Y01027*
X00762Y01033*
X00762Y01034*
X00762Y01034*
Y01052*
X00766Y01055*
X00774Y01049*
X00783Y01045*
X00793Y01043*
X00803Y01045*
X00813Y01049*
X00821Y01055*
X00827Y01063*
X00831Y01072*
X00832Y01082*
X00831Y01092*
X00827Y01102*
X00821Y0111*
X00813Y01116*
X00803Y0112*
X00793Y01121*
X00783Y0112*
X00774Y01116*
X00766Y0111*
X00762Y01112*
Y01128*
X00785Y01151*
X01173*
X01178Y01152*
X01183Y01155*
X01285Y01257*
X01288Y01262*
X01289Y01267*
Y01277*
X01289*
X01289Y01278*
X0129Y01283*
X01303*
Y01338*
X01248*
Y01328*
X01244*
X01173*
Y01289*
X01244*
X01244*
X01248Y01285*
Y01283*
X0126*
X01261Y01278*
X01261Y01277*
X01261*
Y01273*
X01167Y01179*
X00779*
X00774Y01178*
X00769Y01175*
X00738Y01143*
X00735Y01139*
X00733Y01133*
Y01098*
X00729Y01097*
X00727Y01102*
X00721Y0111*
X00713Y01116*
X00703Y0112*
X00693Y01121*
X00683Y0112*
X00674Y01116*
X00666Y0111*
X0062*
X00613Y01116*
X00603Y0112*
X00593Y01121*
X00584Y0112*
X00537Y01167*
X0053Y01172*
X00522Y01173*
X00467*
X00465Y01178*
X00529Y01241*
X01082*
X01088Y01242*
X01092Y01245*
X01135Y01289*
X01138Y01293*
X0114Y01299*
Y01326*
X01161*
Y01366*
X0109*
Y01329*
X0109Y01329*
X01089Y01328*
X01086Y01326*
X01086Y01326*
X01079Y01331*
X0107Y01333*
X01062Y01331*
X01055Y01326*
X01054Y01326*
X01052Y01325*
X01052Y01325*
X01047Y01326*
Y01338*
X00992*
Y01328*
X00988*
X00917*
Y01289*
X00988*
X00988*
X00992Y01285*
Y01283*
X01047*
Y01295*
X01052Y01296*
X01052Y01296*
X01054Y01295*
X01055Y01295*
X01062Y0129*
X0107Y01288*
X01079Y0129*
X01086Y01295*
X01091Y01302*
X01092Y01311*
X01091Y01319*
X01089Y01322*
X01089Y01323*
X01091Y01326*
X01091Y01326*
X01111*
Y01305*
X01076Y01269*
X00859*
X00857Y01274*
X0088Y01297*
X00883Y01301*
X00884Y01307*
Y01326*
X00905*
Y01366*
G37*
G36*
X00793Y01376D02*
X00768D01*
Y01352*
X00793*
Y01376*
G37*
G36*
X01305D02*
X0128D01*
Y01352*
X01305*
Y01376*
G37*
G36*
X0127Y01411D02*
X01245D01*
Y01405*
X01213*
Y01383*
Y01362*
X01245*
Y01352*
X0127*
Y01381*
Y01411*
G37*
G36*
X01894Y01392D02*
X0188Y01391D01*
X01868Y01387*
X01856Y01381*
X01846Y01372*
X01838Y01362*
X01831Y0135*
X01828Y01338*
X01826Y01325*
X01828Y01312*
X01831Y01299*
X01838Y01287*
X01846Y01277*
X01856Y01269*
X01868Y01263*
X0188Y01259*
X01894Y01257*
X01907Y01259*
X01919Y01263*
X01931Y01269*
X01941Y01277*
X0195Y01287*
X01956Y01299*
X0196Y01312*
X01961Y01325*
X0196Y01338*
X01956Y0135*
X0195Y01362*
X01941Y01372*
X01931Y01381*
X01919Y01387*
X01907Y01391*
X01894Y01392*
G37*
G36*
X01188Y01122D02*
X01183Y01122D01*
X01173Y01118*
X01164Y01111*
X01158Y01103*
X01154Y01093*
X01153Y01087*
X01188*
Y01122*
G37*
G36*
X01098D02*
Y01087D01*
X01133*
X01133Y01093*
X01129Y01103*
X01122Y01111*
X01114Y01118*
X01104Y01122*
X01098Y01122*
G37*
G36*
X01198D02*
Y01087D01*
X01233*
X01233Y01093*
X01229Y01103*
X01222Y01111*
X01214Y01118*
X01204Y01122*
X01198Y01122*
G37*
G36*
X01298D02*
Y01087D01*
X01333*
X01333Y01093*
X01329Y01103*
X01322Y01111*
X01314Y01118*
X01304Y01122*
X01298Y01122*
G37*
G36*
X01288D02*
X01283Y01122D01*
X01273Y01118*
X01264Y01111*
X01258Y01103*
X01254Y01093*
X01253Y01087*
X01288*
Y01122*
G37*
G36*
X01049Y01411D02*
X01024D01*
Y01386*
X01049*
Y01411*
G37*
G36*
X01305D02*
X0128D01*
Y01386*
X01305*
Y01411*
G37*
G36*
X00691Y01405D02*
X00659D01*
Y01388*
X00691*
Y01405*
G37*
G36*
X00947D02*
X00915D01*
Y01388*
X00947*
Y01405*
G37*
G36*
X01203D02*
X01171D01*
Y01388*
X01203*
Y01405*
G37*
G36*
X00793Y01411D02*
X00768D01*
Y01386*
X00793*
Y01411*
G37*
G36*
X01049Y01376D02*
X01024D01*
Y01352*
X01049*
Y01376*
G37*
G36*
X01014Y01411D02*
X0099D01*
Y01405*
X00957*
Y01383*
Y01362*
X0099*
Y01352*
X01014*
Y01381*
Y01411*
G37*
G36*
X00691Y01378D02*
X00659D01*
Y01362*
X00691*
Y01378*
G37*
G36*
X00947D02*
X00915D01*
Y01362*
X00947*
Y01378*
G37*
G36*
X01203D02*
X01171D01*
Y01362*
X01203*
Y01378*
G37*
G36*
X01088Y01077D02*
X01053D01*
X01054Y01072*
X01058Y01062*
X01064Y01053*
X01073Y01047*
X01083Y01043*
X01088Y01042*
Y01077*
G37*
G36*
X01033D02*
X00998D01*
Y01042*
X01004Y01043*
X01014Y01047*
X01022Y01053*
X01029Y01062*
X01033Y01072*
X01033Y01077*
G37*
G36*
X01188D02*
X01153D01*
X01154Y01072*
X01158Y01062*
X01164Y01053*
X01173Y01047*
X01183Y01043*
X01188Y01042*
Y01077*
G37*
G36*
X01133D02*
X01098D01*
Y01042*
X01104Y01043*
X01114Y01047*
X01122Y01053*
X01129Y01062*
X01133Y01072*
X01133Y01077*
G37*
G36*
X01393Y01021D02*
X01383Y0102D01*
X01374Y01016*
X01366Y0101*
X0136Y01002*
X01356Y00992*
X01354Y00982*
X01356Y00972*
X0136Y00963*
X01366Y00955*
X01374Y00949*
X01383Y00945*
X01393Y00943*
X01403Y00945*
X01413Y00949*
X01421Y00955*
X01427Y00963*
X01431Y00972*
X01432Y00982*
X01431Y00992*
X01427Y01002*
X01421Y0101*
X01413Y01016*
X01403Y0102*
X01393Y01021*
G37*
G36*
X01293D02*
X01283Y0102D01*
X01274Y01016*
X01266Y0101*
X0126Y01002*
X01256Y00992*
X01254Y00982*
X01256Y00972*
X0126Y00963*
X01266Y00955*
X01274Y00949*
X01283Y00945*
X01293Y00943*
X01303Y00945*
X01313Y00949*
X01321Y00955*
X01327Y00963*
X01331Y00972*
X01332Y00982*
X01331Y00992*
X01327Y01002*
X01321Y0101*
X01313Y01016*
X01303Y0102*
X01293Y01021*
G37*
G36*
X00988Y01077D02*
X00953D01*
X00954Y01072*
X00958Y01062*
X00964Y01053*
X00973Y01047*
X00983Y01043*
X00988Y01042*
Y01077*
G37*
G36*
X01793Y01121D02*
X01783Y0112D01*
X01774Y01116*
X01766Y0111*
X0176Y01102*
X01756Y01092*
X01754Y01082*
X01756Y01072*
X0176Y01063*
X01766Y01055*
X01774Y01049*
X01783Y01045*
X01793Y01043*
X01794Y01044*
X01805Y01042*
X01816Y01038*
X01824Y01031*
X01825Y01031*
X01825Y0103*
X01825Y0103*
X01836Y0102*
Y00991*
X01831Y0099*
X01831Y00992*
X01827Y01002*
X01821Y0101*
X01813Y01016*
X01803Y0102*
X01793Y01021*
X01783Y0102*
X01774Y01016*
X01766Y0101*
X01762Y01005*
X01758Y01007*
Y01032*
X01757Y01037*
X01754Y01042*
X01745Y0105*
X01745Y0105*
X01745Y01051*
X01744Y01051*
X01738Y01059*
X01733Y0107*
X01732Y01081*
X01732Y01082*
X01731Y01092*
X01727Y01102*
X01721Y0111*
X01713Y01116*
X01703Y0112*
X01693Y01121*
X01683Y0112*
X01674Y01116*
X01666Y0111*
X0166Y01102*
X01656Y01092*
X01654Y01082*
X01656Y01072*
X0166Y01063*
X01666Y01055*
X01674Y01049*
X01683Y01045*
X01693Y01043*
X01694Y01044*
X01705Y01042*
X01716Y01038*
X01724Y01031*
X01725Y01031*
X01725Y0103*
X01725Y0103*
X0173Y01026*
Y01006*
X01725Y01004*
X01721Y0101*
X01713Y01016*
X01703Y0102*
X01693Y01021*
X01683Y0102*
X01674Y01016*
X01666Y0101*
X0166Y01002*
X01655Y01004*
Y01034*
X01654Y0104*
X01651Y01044*
X01645Y0105*
X01645Y0105*
X01645Y01051*
X01644Y01051*
X01638Y01059*
X01633Y0107*
X01632Y01081*
X01632Y01082*
X01631Y01092*
X01627Y01102*
X01621Y0111*
X01613Y01116*
X01603Y0112*
X01593Y01121*
X01583Y0112*
X01574Y01116*
X01566Y0111*
X0156Y01102*
X01556Y01092*
X01554Y01082*
X01556Y01072*
X0156Y01063*
X01566Y01055*
X01574Y01049*
X01583Y01045*
X01593Y01043*
X01594Y01044*
X01605Y01042*
X01616Y01038*
X01624Y01031*
X01625Y01031*
X01625Y0103*
X01625Y0103*
X01627Y01028*
Y01009*
X01622Y01007*
X01621Y0101*
X01613Y01016*
X01603Y0102*
X01593Y01021*
X01583Y0102*
X01574Y01016*
X01566Y0101*
X01564Y01007*
X01559Y01008*
Y01033*
X01558Y01038*
X01558Y01039*
X01554Y01044*
X01543Y01055*
X01543Y01055*
X01543Y01055*
X01542Y01056*
X01537Y01063*
X01533Y01072*
X01532Y01082*
X01532Y01082*
X01531Y01092*
X01527Y01102*
X01521Y0111*
X01513Y01116*
X01503Y0112*
X01493Y01121*
X01483Y0112*
X01474Y01116*
X01466Y0111*
X0146Y01102*
X01456Y01092*
X01454Y01082*
X01456Y01072*
X0146Y01063*
X01466Y01055*
X01474Y01049*
X01483Y01045*
X01493Y01043*
X01494Y01044*
X01503Y01042*
X01513Y01038*
X0152Y01033*
X0152Y01032*
X0152Y01032*
X0152Y01032*
X01527Y01026*
Y01009*
X01522Y01008*
X01521Y0101*
X01513Y01016*
X01503Y0102*
X01493Y01021*
X01483Y0102*
X01474Y01016*
X01466Y0101*
X0146Y01002*
X01456Y00992*
X01454Y00982*
X01456Y00972*
X0146Y00963*
X01466Y00955*
X01474Y00949*
X01483Y00945*
X01493Y00943*
X01503Y00945*
X01513Y00949*
X01521Y00955*
X01522Y00957*
X01527Y00955*
Y00803*
X01528Y00798*
X01528Y00797*
X01531Y00791*
X01539Y00784*
Y00743*
X01539*
X01539Y00743*
Y00742*
X01537Y00733*
X01534Y00724*
X01528Y00716*
X01527Y00716*
X01521Y00708*
X01517Y00699*
X01516Y00688*
X01517Y00678*
X01521Y00669*
X01527Y00661*
X01528Y00661*
X01534Y00653*
X01537Y00644*
X01539Y00635*
Y00634*
X01539Y00634*
X01539*
Y00491*
X01539*
X01539Y00491*
Y0049*
X01537Y00481*
X01534Y00472*
X01528Y00464*
X01527Y00464*
X01521Y00456*
X01517Y00447*
X01516Y00437*
X01517Y00426*
X01521Y00417*
X01527Y00409*
X01535Y00403*
X01545Y00399*
X01555Y00398*
X01565Y00399*
X01574Y00403*
X01582Y00409*
X01588Y00417*
X01592Y00426*
X01593Y00437*
X01592Y00447*
X01588Y00456*
X01582Y00464*
X01582Y00464*
X01576Y00472*
X01572Y00481*
X01571Y0049*
Y00491*
X01571Y00491*
X01571*
Y00634*
X01571*
X01571Y00634*
Y00635*
X01572Y00644*
X01576Y00653*
X01582Y00661*
X01582Y00661*
X01583Y00663*
X01588Y00661*
Y00488*
X01589Y00482*
X01592Y00478*
X01601Y00469*
X01601Y00469*
X01602Y00468*
X01602Y00468*
X01608Y00459*
X01613Y00448*
X01614Y00437*
X01614Y00437*
X01616Y00426*
X0162Y00417*
X01626Y00409*
X01634Y00403*
X01643Y00399*
X01653Y00398*
X01663Y00399*
X01672Y00403*
X0168Y00409*
X01687Y00417*
X0169Y00426*
X01692Y00437*
X0169Y00447*
X01687Y00456*
X0168Y00464*
X01672Y0047*
X01663Y00474*
X01653Y00475*
X01652Y00475*
X01641Y00477*
X0163Y00481*
X01622Y00488*
X01622Y00488*
X01621Y00489*
X01621Y00488*
X01616Y00494*
Y00666*
X01621Y00668*
X01626Y00661*
X01634Y00655*
X01643Y00651*
X01653Y0065*
X01663Y00651*
X01672Y00655*
X0168Y00661*
X01685Y00668*
X0169Y00666*
Y00484*
X01691Y00478*
X01694Y00474*
X017Y00469*
X01699Y00469*
X017Y00468*
X017Y00468*
X01707Y00459*
X01711Y00448*
X01713Y00437*
X01713Y00437*
X01714Y00426*
X01718Y00417*
X01724Y00409*
X01732Y00403*
X01741Y00399*
X01751Y00398*
X01761Y00399*
X01771Y00403*
X01779Y00409*
X01785Y00417*
X01789Y00426*
X0179Y00437*
X01789Y00447*
X01785Y00456*
X01779Y00464*
X01771Y0047*
X01761Y00474*
X01751Y00475*
X01751Y00475*
X0174Y00477*
X01729Y00481*
X0172Y00488*
X0172Y00488*
X01719Y00489*
X01719Y00488*
X01718Y0049*
Y00661*
X01723Y00663*
X01724Y00661*
X01732Y00655*
X01741Y00651*
X01751Y0065*
X01761Y00651*
X01771Y00655*
X01779Y00661*
X01784Y00668*
X01789Y00666*
Y00484*
X0179Y00478*
X01793Y00474*
X01798Y00469*
X01798Y00469*
X01799Y00468*
X01799Y00468*
X01805Y00459*
X0181Y00448*
X01811Y00437*
X01811Y00437*
X01813Y00426*
X01816Y00417*
X01823Y00409*
X01831Y00403*
X0184Y00399*
X0185Y00398*
X0186Y00399*
X01869Y00403*
X01877Y00409*
X01883Y00417*
X01887Y00426*
X01889Y00437*
X01887Y00447*
X01883Y00456*
X01877Y00464*
X01869Y0047*
X0186Y00474*
X0185Y00475*
X01849Y00475*
X01838Y00477*
X01827Y00481*
X01819Y00488*
X01818Y00488*
X01818Y00489*
X01818Y00488*
X01817Y0049*
Y00661*
X01821Y00663*
X01823Y00661*
X01831Y00655*
X0184Y00651*
X0185Y0065*
X0186Y00651*
X01869Y00655*
X01877Y00661*
X01883Y00669*
X01887Y00678*
X01889Y00688*
X01887Y00699*
X01883Y00708*
X01877Y00716*
X01877Y00716*
X0187Y00725*
X01865Y00736*
X01864Y00747*
Y00747*
X01864Y00748*
X01864*
Y01025*
X01863Y01031*
X0186Y01035*
X01845Y0105*
X01845Y0105*
X01845Y01051*
X01844Y01051*
X01838Y01059*
X01833Y0107*
X01832Y01081*
X01832Y01082*
X01831Y01092*
X01827Y01102*
X01821Y0111*
X01813Y01116*
X01803Y0112*
X01793Y01121*
G37*
G36*
X00988Y01122D02*
X00983Y01122D01*
X00973Y01118*
X00964Y01111*
X00958Y01103*
X00954Y01093*
X00953Y01087*
X00988*
Y01122*
G37*
G36*
X00998D02*
Y01087D01*
X01033*
X01033Y01093*
X01029Y01103*
X01022Y01111*
X01014Y01118*
X01004Y01122*
X00998Y01122*
G37*
G36*
X00893Y01121D02*
X00883Y0112D01*
X00874Y01116*
X00866Y0111*
X0086Y01102*
X00856Y01092*
X00854Y01082*
X00856Y01072*
X0086Y01063*
X00866Y01055*
X00874Y01049*
X00883Y01045*
X00893Y01043*
X00903Y01045*
X00913Y01049*
X00921Y01055*
X00927Y01063*
X00931Y01072*
X00932Y01082*
X00931Y01092*
X00927Y01102*
X00921Y0111*
X00913Y01116*
X00903Y0112*
X00893Y01121*
G37*
G36*
X01393D02*
X01383Y0112D01*
X01374Y01116*
X01366Y0111*
X0136Y01102*
X01356Y01092*
X01354Y01082*
X01356Y01072*
X0136Y01063*
X01366Y01055*
X01374Y01049*
X01383Y01045*
X01393Y01043*
X01403Y01045*
X01413Y01049*
X01421Y01055*
X01427Y01063*
X01431Y01072*
X01432Y01082*
X01431Y01092*
X01427Y01102*
X01421Y0111*
X01413Y01116*
X01403Y0112*
X01393Y01121*
G37*
G36*
X01288Y01077D02*
X01253D01*
X01254Y01072*
X01258Y01062*
X01264Y01053*
X01273Y01047*
X01283Y01043*
X01288Y01042*
Y01077*
G37*
G36*
X01233D02*
X01198D01*
Y01042*
X01204Y01043*
X01214Y01047*
X01222Y01053*
X01229Y01062*
X01233Y01072*
X01233Y01077*
G37*
G36*
X01088Y01122D02*
X01083Y01122D01*
X01073Y01118*
X01064Y01111*
X01058Y01103*
X01054Y01093*
X01053Y01087*
X01088*
Y01122*
G37*
G36*
X01333Y01077D02*
X01298D01*
Y01042*
X01304Y01043*
X01314Y01047*
X01322Y01053*
X01329Y01062*
X01333Y01072*
X01333Y01077*
G37*
%LNpanel-3*%
%LPD*%
G36*
X01766Y00955D02*
X01766Y00954D01*
X01773Y00946*
X01778Y00935*
X01779Y00924*
Y00924*
X01779Y00923*
X01779*
Y00733*
X0178Y00728*
X01783Y00723*
X01789Y00718*
Y00711*
X01784Y00709*
X01779Y00716*
X01771Y00722*
X01767Y00724*
X01766Y00724*
X01766Y00724*
X01766Y00724*
X01766Y00725*
X01765Y00725*
X01765Y00725*
X01765Y00725*
X01765Y00725*
X01764Y00729*
X01761Y00734*
X01758Y00738*
Y00958*
X01762Y00959*
X01766Y00955*
G37*
G36*
X01627Y00956D02*
Y00744D01*
X01628Y00738*
X01631Y00734*
X01638Y00727*
X01636Y00723*
X01633Y00722*
X01633Y00722*
X01626Y00716*
X01621Y00709*
X01616Y00711*
Y00731*
X01615Y00737*
X01612Y00741*
X01607Y00746*
Y00923*
X01607*
X01607Y00924*
Y00924*
X01609Y00935*
X01613Y00946*
X0162Y00954*
X01621Y00955*
X01622Y00957*
X01627Y00956*
G37*
G36*
X01666Y00955D02*
X01666Y00954D01*
X01673Y00946*
X01678Y00935*
X01679Y00924*
Y00924*
X01679Y00923*
X01679*
Y00739*
X0168Y00733*
X01683Y00729*
X0169Y00722*
Y00711*
X01685Y00709*
X0168Y00716*
X01673Y00722*
X01673Y00722*
X01671Y00723*
X01668Y00727*
X01667Y00732*
X01667Y00732*
X01667*
X01666Y00737*
X01663Y00742*
X01655Y00749*
Y00961*
X0166Y00962*
X01666Y00955*
G37*
G36*
X01566D02*
X01566Y00954D01*
X01573Y00946*
X01578Y00935*
X01579Y00924*
Y00924*
X01579Y00923*
X01579*
Y0074*
X0158Y00735*
X01583Y0073*
X01588Y00726*
Y00716*
X01583Y00714*
X01582Y00716*
X01582Y00716*
X01576Y00724*
X01572Y00733*
X01571Y00742*
Y00743*
X01571Y00743*
X01571*
Y00791*
X0157Y00796*
X01569Y00797*
X01566Y00802*
X01559Y00809*
Y00956*
X01564Y00958*
X01566Y00955*
G37*
G36*
X01836Y00974D02*
Y00748D01*
X01836*
X01836Y00747*
Y00747*
X01834Y00736*
X0183Y00725*
X01823Y00716*
X01823Y00716*
X01821Y00714*
X01817Y00716*
Y00724*
X01816Y00729*
X01813Y00734*
X01807Y00739*
Y00923*
X01807*
X01807Y00924*
Y00924*
X01809Y00935*
X01813Y00946*
X0182Y00954*
X01821Y00955*
X01827Y00963*
X01831Y00972*
X01831Y00974*
X01836Y00974*
G37*
G36*
X0173Y00959D02*
Y00732D01*
X01731Y00726*
X01733Y00723*
X01732Y00722*
X01724Y00716*
X01723Y00714*
X01718Y00716*
Y00728*
X01717Y00733*
X01714Y00738*
X01707Y00745*
Y00923*
X01707*
X01707Y00924*
Y00924*
X01709Y00935*
X01713Y00946*
X0172Y00954*
X01721Y00955*
X01725Y0096*
X0173Y00959*
G37*
G54D10*
X0127Y01309D02*
D01*
X01271Y01309*
X01271Y01309*
X01272Y01309*
X01272Y01309*
X01273Y01309*
X01273Y01309*
X01273Y01309*
X01274Y0131*
X01274Y0131*
X01275Y0131*
X01275Y0131*
X01275Y01311*
X00805Y01305D02*
D01*
X00804Y01306*
X00803Y01307*
X00802Y01307*
X00801Y01308*
X008Y01309*
X00798Y01309*
X00797Y0131*
X00796Y0131*
X00794Y0131*
X00793Y0131*
X00792Y01311*
X00792Y01311*
D01*
X00793Y01311*
X00794Y01311*
X00795Y01311*
X00797Y01311*
X00798Y01312*
X00799Y01312*
X008Y01313*
X00802Y01313*
X00803Y01314*
X00804Y01315*
X00805Y01316*
X00805Y01316*
X01065Y01305D02*
D01*
X01064Y01306*
X01063Y01307*
X01062Y01307*
X01061Y01308*
X01059Y01309*
X01058Y01309*
X01057Y0131*
X01056Y0131*
X01054Y0131*
X01053Y0131*
X01052Y01311*
X01051Y01311*
D01*
X01053Y01311*
X01054Y01311*
X01055Y01311*
X01057Y01311*
X01058Y01312*
X01059Y01312*
X0106Y01313*
X01061Y01313*
X01063Y01314*
X01064Y01315*
X01065Y01316*
X01065Y01316*
X00754Y01301D02*
D01*
X00752Y01302*
X00751Y01303*
X00749Y01304*
X00748Y01305*
X00746Y01306*
X00744Y01307*
X00743Y01307*
X00741Y01308*
X00739Y01308*
X00737Y01308*
X00735Y01309*
X00735*
X00725D02*
D01*
X00728Y01309*
X00731Y01309*
X00734Y01309*
X00736Y0131*
X00739Y01311*
X00742Y01312*
X00744Y01313*
X00746Y01315*
X00749Y01316*
X00751Y01318*
X00753Y0132*
X00754Y0132*
X00773D02*
D01*
X00775Y01319*
X00777Y01317*
X00778Y01316*
X0078Y01315*
X00782Y01314*
X00785Y01313*
X00787Y01312*
X00789Y01311*
X00791Y01311*
X00794Y01311*
X00796Y01311*
X00797Y01311*
D01*
X00794Y0131*
X00792Y0131*
X0079Y0131*
X00787Y01309*
X00785Y01309*
X00783Y01308*
X00781Y01307*
X00779Y01305*
X00777Y01304*
X00775Y01303*
X00773Y01301*
X00773Y01301*
X01009D02*
D01*
X01008Y01302*
X01006Y01304*
X01004Y01305*
X01002Y01306*
X01Y01307*
X00998Y01308*
X00996Y01309*
X00993Y0131*
X00991Y0131*
X00989Y0131*
X00987Y01311*
X00986Y01311*
D01*
X00988Y01311*
X00991Y01311*
X00993Y01311*
X00995Y01312*
X00997Y01313*
X00999Y01313*
X01002Y01314*
X01004Y01316*
X01005Y01317*
X01007Y01318*
X01009Y0132*
X01009Y0132*
X01029D02*
D01*
X01031Y01319*
X01032Y01317*
X01034Y01316*
X01036Y01315*
X01038Y01314*
X01041Y01313*
X01043Y01312*
X01045Y01311*
X01047Y01311*
X0105Y01311*
X01052Y01311*
X01052Y01311*
D01*
X0105Y0131*
X01048Y0131*
X01046Y0131*
X01043Y01309*
X01041Y01309*
X01039Y01308*
X01037Y01307*
X01035Y01305*
X01033Y01304*
X01031Y01303*
X01029Y01301*
X01029Y01301*
X01265D02*
D01*
X01264Y01302*
X01263Y01303*
X01261Y01304*
X01259Y01305*
X01258Y01306*
X01256Y01307*
X01254Y01307*
X01253Y01308*
X01251Y01308*
X01249Y01308*
X01247Y01309*
X01247*
X01237D02*
D01*
X0124Y01309*
X01243Y01309*
X01245Y01309*
X01248Y0131*
X01251Y01311*
X01253Y01312*
X01256Y01313*
X01258Y01315*
X01261Y01316*
X01263Y01318*
X01265Y0132*
X01265Y0132*
X01285Y01301D02*
D01*
X01283Y01299*
X01282Y01297*
X0128Y01295*
X01279Y01293*
X01278Y01291*
X01277Y01289*
X01277Y01287*
X01276Y01285*
X01275Y01282*
X01275Y0128*
X01275Y01278*
X01275Y01277*
D01*
X01275Y0128*
X01275Y01282*
X01274Y01284*
X01274Y01286*
X01273Y01289*
X01272Y01291*
X01271Y01293*
X0127Y01295*
X01269Y01297*
X01267Y01299*
X01266Y013*
X01265Y01301*
X0027Y01154D02*
D01*
X00267Y01151*
X00265Y01148*
X00263Y01145*
X00261Y01141*
X00259Y01138*
X00257Y01134*
X00256Y0113*
X00255Y01127*
X00254Y01123*
X00254Y01119*
X00253Y01115*
X00253Y01114*
D01*
X00253Y01118*
X00253Y01122*
X00252Y01126*
X00251Y01129*
X0025Y01133*
X00249Y01137*
X00247Y01141*
X00245Y01144*
X00243Y01147*
X0024Y0115*
X00237Y01153*
X00237Y01154*
X00384Y01193D02*
D01*
X00387Y01191*
X0039Y01188*
X00394Y01186*
X00397Y01184*
X00401Y01182*
X00404Y0118*
X00408Y01179*
X00412Y01178*
X00416Y01177*
X0042Y01177*
X00424Y01177*
X00425Y01177*
D01*
X00421Y01177*
X00417Y01176*
X00413Y01175*
X00409Y01174*
X00405Y01173*
X00401Y01172*
X00398Y0117*
X00394Y01168*
X00391Y01166*
X00388Y01163*
X00385Y01161*
X00384Y0116*
X00232Y01265D02*
D01*
X00232Y01266*
X00231Y01267*
X0023Y01268*
X00229Y01269*
X00229Y0127*
X00228Y01271*
X00227Y01272*
X00226Y01272*
X00225Y01273*
X00223Y01273*
X00222Y01274*
X00221Y01274*
X0022Y01275*
X00219Y01275*
X00217Y01275*
X00216Y01275*
X00216Y01275*
D01*
X00217Y01275*
X00219Y01275*
X0022Y01275*
X00221Y01276*
X00222Y01276*
X00223Y01277*
X00224Y01277*
X00225Y01278*
X00227Y01278*
X00227Y01279*
X00228Y0128*
X00229Y01281*
X0023Y01282*
X00231Y01283*
X00231Y01284*
X00232Y01285*
X00232Y01285*
X00384Y01292D02*
D01*
X00387Y01289*
X0039Y01287*
X00394Y01284*
X00397Y01282*
X00401Y0128*
X00404Y01279*
X00408Y01278*
X00412Y01277*
X00416Y01276*
X0042Y01275*
X00424Y01275*
X00425Y01275*
D01*
X00421Y01275*
X00417Y01275*
X00413Y01274*
X00409Y01273*
X00405Y01272*
X00401Y0127*
X00398Y01268*
X00394Y01266*
X00391Y01264*
X00388Y01262*
X00385Y01259*
X00384Y01258*
Y0139D02*
D01*
X00387Y01388*
X0039Y01385*
X00394Y01383*
X00397Y01381*
X00401Y01379*
X00404Y01377*
X00408Y01376*
X00412Y01375*
X00416Y01374*
X0042Y01374*
X00424Y01374*
X00425Y01374*
D01*
X00421Y01373*
X00417Y01373*
X00413Y01372*
X00409Y01371*
X00405Y0137*
X00401Y01369*
X00398Y01367*
X00394Y01365*
X00391Y01363*
X00388Y0136*
X00385Y01358*
X00384Y01357*
X00233Y01362D02*
D01*
X00232Y01363*
X00231Y01364*
X0023Y01366*
X00229Y01367*
X00228Y01368*
X00226Y01369*
X00225Y0137*
X00223Y01371*
X00222Y01371*
X0022Y01372*
X00219Y01373*
X00217Y01373*
X00215Y01373*
X00214Y01373*
X00212Y01374*
D01*
X00214Y01374*
X00215Y01374*
X00217Y01374*
X00219Y01374*
X0022Y01375*
X00222Y01376*
X00224Y01376*
X00225Y01377*
X00226Y01378*
X00228Y01379*
X00229Y0138*
X0023Y01382*
X00231Y01383*
X00232Y01384*
X00233Y01386*
X00594Y01342D02*
D01*
X00593Y01342*
X00592Y01343*
X00591Y01344*
X00591Y01344*
X0059Y01345*
X00589Y01345*
X00588Y01345*
X00587Y01346*
X00586Y01346*
X00585Y01346*
X00584Y01346*
X00584Y01346*
D01*
X00585Y01346*
X00586Y01346*
X00587Y01346*
X00588Y01347*
X00589Y01347*
X00589Y01347*
X0059Y01348*
X00591Y01348*
X00592Y01349*
X00593Y01349*
X00594Y0135*
X00594Y0135*
X00716Y01313D02*
D01*
X00717Y01312*
X00718Y01311*
X00719Y01311*
X00719Y0131*
X0072Y0131*
X00721Y0131*
X00722Y01309*
X00723Y01309*
X00724Y01309*
X00725Y01309*
X00726Y01309*
X00726Y01309*
D01*
X00725Y01309*
X00724Y01308*
X00723Y01308*
X00722Y01308*
X00721Y01308*
X00721Y01307*
X0072Y01307*
X00719Y01306*
X00718Y01306*
X00717Y01305*
X00716Y01305*
X00716Y01304*
X0113Y01342D02*
D01*
X01129Y01341*
X01128Y0134*
X01128Y01339*
X01127Y01339*
X01127Y01338*
X01126Y01337*
X01126Y01336*
X01126Y01335*
X01126Y01334*
X01126Y01333*
X01125Y01332*
X01125Y01332*
D01*
X01125Y01333*
X01125Y01334*
X01125Y01335*
X01125Y01336*
X01125Y01337*
X01124Y01338*
X01124Y01338*
X01123Y01339*
X01123Y0134*
X01122Y01341*
X01121Y01342*
X01121Y01342*
X01228Y01313D02*
D01*
X01229Y01312*
X0123Y01311*
X0123Y01311*
X01231Y0131*
X01232Y0131*
X01233Y0131*
X01234Y01309*
X01235Y01309*
X01236Y01309*
X01237Y01309*
X01238Y01309*
X01238Y01309*
D01*
X01237Y01309*
X01236Y01308*
X01235Y01308*
X01234Y01308*
X01233Y01308*
X01232Y01307*
X01231Y01307*
X01231Y01306*
X0123Y01306*
X01229Y01305*
X01228Y01305*
X01228Y01304*
X00874Y01342D02*
D01*
X00873Y01341*
X00872Y0134*
X00872Y01339*
X00871Y01339*
X00871Y01338*
X00871Y01337*
X0087Y01336*
X0087Y01335*
X0087Y01334*
X0087Y01333*
X0087Y01332*
X0087Y01332*
D01*
X0087Y01333*
X00869Y01334*
X00869Y01335*
X00869Y01336*
X00869Y01337*
X00868Y01338*
X00868Y01338*
X00867Y01339*
X00867Y0134*
X00866Y01341*
X00866Y01342*
X00865Y01342*
X00987Y01311D02*
D01*
X00986Y0131*
X00984Y0131*
X00983Y0131*
X00981Y0131*
X0098Y01309*
X00978Y01309*
X00977Y01308*
X00976Y01307*
X00975Y01307*
X00974Y01306*
X00972Y01305*
X00972Y01304*
X00867Y0045D02*
D01*
X0087Y00453*
X00872Y00455*
X00874Y00458*
X00875Y00461*
X00877Y00464*
X00878Y00467*
X00879Y0047*
X0088Y00473*
X00881Y00477*
X00881Y0048*
X00881Y00483*
X00881Y00484*
D01*
X00882Y00481*
X00882Y00477*
X00882Y00474*
X00883Y00471*
X00884Y00468*
X00885Y00465*
X00887Y00462*
X00889Y00459*
X0089Y00456*
X00893Y00453*
X00895Y00451*
X00895Y0045*
Y00675D02*
D01*
X00893Y00672*
X00891Y0067*
X00889Y00667*
X00887Y00664*
X00886Y00661*
X00885Y00658*
X00883Y00655*
X00883Y00652*
X00882Y00648*
X00882Y00645*
X00881Y00642*
X00881Y00641*
D01*
X00881Y00644*
X00881Y00648*
X0088Y00651*
X0088Y00654*
X00879Y00657*
X00877Y0066*
X00876Y00663*
X00874Y00666*
X00872Y00669*
X0087Y00671*
X00868Y00674*
X00867Y00675*
X00143Y01018D02*
D01*
X00145Y01016*
X00147Y01014*
X0015Y01012*
X00152Y01011*
X00154Y0101*
X00157Y01009*
X00159Y01008*
X00162Y01007*
X00165Y01006*
X00167Y01006*
X0017Y01006*
X00171Y01006*
D01*
X00168Y01006*
X00166Y01005*
X00163Y01005*
X0016Y01004*
X00158Y01003*
X00155Y01002*
X00153Y01001*
X00151Y01*
X00148Y00998*
X00146Y00997*
X00144Y00995*
X00143Y00994*
X00143Y00963D02*
D01*
X00145Y00961*
X00147Y00959*
X0015Y00957*
X00152Y00956*
X00155Y00954*
X00157Y00953*
X0016Y00952*
X00163Y00952*
X00165Y00951*
X00168Y00951*
X00171Y00951*
X00172Y00951*
D01*
X00169Y00951*
X00166Y0095*
X00163Y0095*
X00161Y00949*
X00158Y00948*
X00155Y00947*
X00153Y00946*
X0015Y00945*
X00148Y00943*
X00146Y00941*
X00144Y00939*
X00143Y00939*
X00131Y01133D02*
D01*
X00134Y01133*
X00137Y01133*
X0014Y01134*
X00143Y01134*
X00145Y01135*
X00148Y01136*
X0015Y01137*
X00153Y01139*
X00155Y0114*
X00157Y01142*
X00159Y01144*
X0016Y01145*
D01*
X00158Y01143*
X00156Y0114*
X00155Y01138*
X00153Y01136*
X00152Y01133*
X00151Y01131*
X0015Y01128*
X00149Y01125*
X00149Y01122*
X00148Y0112*
X00148Y01117*
X00148Y01116*
X0164Y0071D02*
D01*
X01642Y00711*
X01643Y00712*
X01645Y00713*
X01646Y00714*
X01647Y00715*
X01648Y00717*
X01649Y00718*
X0165Y0072*
X01651Y00722*
X01652Y00723*
X01652Y00725*
X01653Y00727*
X01653Y00729*
X01653Y0073*
X01653Y00732*
D01*
X01653Y0073*
X01653Y00728*
X01654Y00726*
X01654Y00725*
X01655Y00723*
X01655Y00721*
X01656Y0072*
X01657Y00718*
X01658Y00717*
X01659Y00715*
X0166Y00714*
X01662Y00713*
X01663Y00711*
X01664Y0071*
X01666Y0071*
X01743Y00712D02*
D01*
X01744Y00712*
X01745Y00712*
X01745Y00713*
X01746Y00713*
X01747Y00714*
X01748Y00714*
X01748Y00715*
X01749Y00716*
X01749Y00717*
X0175Y00717*
X0175Y00718*
X01751Y00719*
X01751Y0072*
X01751Y00721*
X01751Y00722*
X01751Y00723*
X01751Y00724*
X01751Y00724*
D01*
X01752Y00723*
X01752Y00722*
X01752Y00721*
X01752Y0072*
X01752Y00719*
X01753Y00719*
X01753Y00718*
X01753Y00717*
X01754Y00716*
X01755Y00715*
X01755Y00715*
X01756Y00714*
X01757Y00714*
X01757Y00713*
X01758Y00712*
X01759Y00712*
X0176Y00712*
X0176Y00712*
X01841Y00698D02*
D01*
X01842Y00699*
X01844Y00701*
X01845Y00703*
X01846Y00704*
X01847Y00706*
X01848Y00708*
X01849Y0071*
X01849Y00712*
X0185Y00715*
X0185Y00717*
X0185Y00719*
X0185Y00719*
X01832Y00706D02*
D01*
X01835Y00709*
X01838Y00712*
X0184Y00716*
X01842Y00719*
X01844Y00723*
X01846Y00727*
X01847Y00731*
X01848Y00735*
X01849Y00739*
X0185Y00743*
X0185Y00747*
X0185Y00748*
Y00719D02*
D01*
X0185Y00717*
X0185Y00715*
X01851Y00713*
X01851Y00711*
X01852Y00709*
X01853Y00707*
X01854Y00705*
X01855Y00703*
X01856Y00701*
X01857Y007*
X01859Y00698*
X01859Y00698*
X0185Y00748D02*
D01*
X0185Y00744*
X0185Y0074*
X01851Y00736*
X01852Y00732*
X01853Y00728*
X01855Y00724*
X01857Y0072*
X01859Y00716*
X01861Y00713*
X01864Y0071*
X01867Y00707*
X01867Y00706*
X0164Y00437D02*
D01*
X0164Y00439*
X0164Y00441*
X0164Y00443*
X01639Y00445*
X01638Y00447*
X01638Y00449*
X01637Y00451*
X01636Y00453*
X01634Y00455*
X01633Y00456*
X01632Y00458*
X01631Y00458*
X01628Y00437D02*
D01*
X01628Y00441*
X01628Y00445*
X01627Y00449*
X01626Y00453*
X01625Y00457*
X01623Y00461*
X01621Y00464*
X01619Y00468*
X01617Y00471*
X01615Y00475*
X01612Y00478*
X01611Y00479*
X01631Y00458D02*
D01*
X01633Y00457*
X01634Y00456*
X01636Y00454*
X01638Y00453*
X0164Y00452*
X01642Y00451*
X01644Y00451*
X01646Y0045*
X01648Y0045*
X0165Y00449*
X01653Y00449*
X01653Y00449*
X01611Y00479D02*
D01*
X01614Y00476*
X01617Y00473*
X01621Y00471*
X01624Y00469*
X01628Y00467*
X01632Y00465*
X01636Y00464*
X0164Y00463*
X01644Y00462*
X01648Y00461*
X01652Y00461*
X01653Y00461*
X01739Y00437D02*
D01*
X01739Y00439*
X01738Y00441*
X01738Y00443*
X01737Y00445*
X01737Y00447*
X01736Y00449*
X01735Y00451*
X01734Y00453*
X01733Y00455*
X01731Y00456*
X0173Y00458*
X0173Y00458*
X01727Y00437D02*
D01*
X01727Y00441*
X01726Y00445*
X01726Y00449*
X01725Y00453*
X01723Y00457*
X01722Y00461*
X0172Y00464*
X01718Y00468*
X01716Y00471*
X01713Y00475*
X0171Y00478*
X01709Y00479*
X0173Y00458D02*
D01*
X01731Y00457*
X01733Y00456*
X01735Y00454*
X01736Y00453*
X01738Y00452*
X0174Y00451*
X01742Y00451*
X01745Y0045*
X01747Y0045*
X01749Y00449*
X01751Y00449*
X01751Y00449*
X01709Y00479D02*
D01*
X01712Y00476*
X01716Y00473*
X01719Y00471*
X01723Y00469*
X01726Y00467*
X0173Y00465*
X01734Y00464*
X01738Y00463*
X01742Y00462*
X01746Y00461*
X0175Y00461*
X01751Y00461*
X01837Y00437D02*
D01*
X01837Y00439*
X01837Y00441*
X01836Y00443*
X01836Y00445*
X01835Y00447*
X01834Y00449*
X01833Y00451*
X01832Y00453*
X01831Y00455*
X0183Y00456*
X01828Y00458*
X01828Y00458*
X01825Y00437D02*
D01*
X01825Y00441*
X01825Y00445*
X01824Y00449*
X01823Y00453*
X01822Y00457*
X0182Y00461*
X01818Y00464*
X01816Y00468*
X01814Y00471*
X01811Y00475*
X01809Y00478*
X01808Y00479*
X01828Y00458D02*
D01*
X0183Y00457*
X01831Y00456*
X01833Y00454*
X01835Y00453*
X01837Y00452*
X01839Y00451*
X01841Y00451*
X01843Y0045*
X01845Y0045*
X01847Y00449*
X01849Y00449*
X0185Y00449*
X01808Y00479D02*
D01*
X01811Y00476*
X01814Y00473*
X01818Y00471*
X01821Y00469*
X01825Y00467*
X01829Y00465*
X01833Y00464*
X01837Y00463*
X01841Y00462*
X01845Y00461*
X01849Y00461*
X0185Y00461*
X0078Y00982D02*
D01*
X0078Y00984*
X0078Y00986*
X0078Y00989*
X00779Y00991*
X00779Y00993*
X00778Y00995*
X00777Y00997*
X00776Y00999*
X00775Y01*
X00773Y01002*
X00772Y01004*
X00771Y01004*
X00769Y00982D02*
D01*
X00768Y00986*
X00768Y0099*
X00767Y00995*
X00766Y00999*
X00765Y01002*
X00763Y01006*
X00762Y0101*
X0076Y01014*
X00757Y01017*
X00755Y0102*
X00752Y01023*
X00751Y01024*
X00771Y01004D02*
D01*
X00773Y01003*
X00775Y01001*
X00776Y01*
X00778Y00999*
X0078Y00998*
X00782Y00997*
X00784Y00996*
X00786Y00996*
X00788Y00995*
X00791Y00995*
X00793Y00995*
X00793Y00995*
X00751Y01024D02*
D01*
X00754Y01021*
X00757Y01019*
X00761Y01016*
X00764Y01014*
X00768Y01012*
X00772Y01011*
X00776Y01009*
X0078Y01008*
X00784Y01008*
X00788Y01007*
X00792Y01007*
X00793Y01007*
X00493Y01069D02*
D01*
X00491Y01069*
X00489Y01069*
X00487Y01069*
X00485Y01068*
X00483Y01068*
X00481Y01067*
X00479Y01066*
X00477Y01065*
X00475Y01063*
X00473Y01062*
X00472Y01061*
X00471Y0106*
X00493Y01058D02*
D01*
X00489Y01057*
X00485Y01057*
X00481Y01056*
X00477Y01055*
X00473Y01054*
X00469Y01052*
X00465Y01051*
X00462Y01049*
X00458Y01046*
X00455Y01044*
X00452Y01041*
X00451Y0104*
X00471Y0106D02*
D01*
X00473Y01062*
X00474Y01064*
X00475Y01065*
X00477Y01067*
X00478Y01069*
X00478Y01071*
X00479Y01073*
X0048Y01075*
X0048Y01077*
X0048Y01079*
X0048Y01082*
X0048Y01082*
X00451Y0104D02*
D01*
X00454Y01043*
X00457Y01046*
X00459Y0105*
X00461Y01053*
X00463Y01057*
X00465Y01061*
X00466Y01065*
X00467Y01069*
X00468Y01073*
X00468Y01077*
X00469Y01081*
X00469Y01082*
X01602Y00973D02*
D01*
X01601Y00972*
X01599Y0097*
X01598Y00968*
X01597Y00966*
X01596Y00964*
X01595Y00962*
X01595Y0096*
X01594Y00958*
X01594Y00956*
X01593Y00954*
X01593Y00952*
X01593Y00951*
X01611Y00965D02*
D01*
X01608Y00962*
X01605Y00959*
X01603Y00955*
X01601Y00952*
X01599Y00948*
X01597Y00944*
X01596Y0094*
X01595Y00936*
X01594Y00932*
X01593Y00928*
X01593Y00924*
X01593Y00923*
Y00951D02*
D01*
X01593Y00953*
X01593Y00956*
X01593Y00958*
X01592Y0096*
X01591Y00962*
X01591Y00964*
X0159Y00966*
X01589Y00968*
X01587Y00969*
X01586Y00971*
X01585Y00973*
X01584Y00973*
X01593Y00923D02*
D01*
X01593Y00927*
X01593Y00931*
X01592Y00935*
X01591Y00939*
X0159Y00943*
X01588Y00947*
X01586Y00951*
X01584Y00954*
X01582Y00958*
X01579Y00961*
X01577Y00964*
X01576Y00965*
X01606Y01082D02*
D01*
X01606Y0108*
X01606Y01078*
X01607Y01076*
X01607Y01074*
X01608Y01072*
X01609Y0107*
X0161Y01068*
X01611Y01066*
X01612Y01064*
X01613Y01062*
X01615Y01061*
X01615Y0106*
X01618Y01082D02*
D01*
X01618Y01078*
X01618Y01074*
X01619Y0107*
X0162Y01066*
X01621Y01062*
X01623Y01058*
X01625Y01054*
X01627Y01051*
X01629Y01047*
X01632Y01044*
X01634Y01041*
X01635Y0104*
X01615Y0106D02*
D01*
X01613Y01062*
X01612Y01063*
X0161Y01064*
X01608Y01066*
X01606Y01066*
X01604Y01067*
X01602Y01068*
X016Y01069*
X01598Y01069*
X01596Y01069*
X01594Y01069*
X01593Y01069*
X01635Y0104D02*
D01*
X01632Y01043*
X01629Y01046*
X01626Y01048*
X01622Y0105*
X01618Y01052*
X01614Y01054*
X01611Y01055*
X01607Y01056*
X01602Y01057*
X01598Y01057*
X01594Y01058*
X01593Y01058*
X01702Y00973D02*
D01*
X01701Y00972*
X01699Y0097*
X01698Y00968*
X01697Y00966*
X01696Y00964*
X01695Y00962*
X01695Y0096*
X01694Y00958*
X01694Y00956*
X01693Y00954*
X01693Y00952*
X01693Y00951*
X01711Y00965D02*
D01*
X01708Y00962*
X01705Y00959*
X01703Y00955*
X01701Y00952*
X01699Y00948*
X01697Y00944*
X01696Y0094*
X01695Y00936*
X01694Y00932*
X01693Y00928*
X01693Y00924*
X01693Y00923*
Y00951D02*
D01*
X01693Y00953*
X01693Y00956*
X01693Y00958*
X01692Y0096*
X01691Y00962*
X01691Y00964*
X0169Y00966*
X01689Y00968*
X01687Y00969*
X01686Y00971*
X01685Y00973*
X01684Y00973*
X01693Y00923D02*
D01*
X01693Y00927*
X01693Y00931*
X01692Y00935*
X01691Y00939*
X0169Y00943*
X01688Y00947*
X01686Y00951*
X01684Y00954*
X01682Y00958*
X01679Y00961*
X01677Y00964*
X01676Y00965*
X01706Y01082D02*
D01*
X01706Y0108*
X01706Y01078*
X01707Y01076*
X01707Y01074*
X01708Y01072*
X01709Y0107*
X0171Y01068*
X01711Y01066*
X01712Y01064*
X01713Y01062*
X01715Y01061*
X01715Y0106*
X01718Y01082D02*
D01*
X01718Y01078*
X01718Y01074*
X01719Y0107*
X0172Y01066*
X01721Y01062*
X01723Y01058*
X01725Y01054*
X01727Y01051*
X01729Y01047*
X01732Y01044*
X01734Y01041*
X01735Y0104*
X01715Y0106D02*
D01*
X01713Y01062*
X01712Y01063*
X0171Y01064*
X01708Y01066*
X01706Y01066*
X01704Y01067*
X01702Y01068*
X017Y01069*
X01698Y01069*
X01696Y01069*
X01694Y01069*
X01693Y01069*
X01735Y0104D02*
D01*
X01732Y01043*
X01729Y01046*
X01726Y01048*
X01722Y0105*
X01718Y01052*
X01714Y01054*
X01711Y01055*
X01707Y01056*
X01702Y01057*
X01698Y01057*
X01694Y01058*
X01693Y01058*
X01802Y00973D02*
D01*
X01801Y00972*
X01799Y0097*
X01798Y00968*
X01797Y00966*
X01796Y00964*
X01795Y00962*
X01795Y0096*
X01794Y00958*
X01794Y00956*
X01793Y00954*
X01793Y00952*
X01793Y00951*
X01811Y00965D02*
D01*
X01808Y00962*
X01805Y00959*
X01803Y00955*
X01801Y00952*
X01799Y00948*
X01797Y00944*
X01796Y0094*
X01795Y00936*
X01794Y00932*
X01793Y00928*
X01793Y00924*
X01793Y00923*
Y00951D02*
D01*
X01793Y00953*
X01793Y00956*
X01793Y00958*
X01792Y0096*
X01791Y00962*
X01791Y00964*
X0179Y00966*
X01789Y00968*
X01787Y00969*
X01786Y00971*
X01785Y00973*
X01784Y00973*
X01793Y00923D02*
D01*
X01793Y00927*
X01793Y00931*
X01792Y00935*
X01791Y00939*
X0179Y00943*
X01788Y00947*
X01786Y00951*
X01784Y00954*
X01782Y00958*
X01779Y00961*
X01777Y00964*
X01776Y00965*
X01806Y01082D02*
D01*
X01806Y0108*
X01806Y01078*
X01807Y01076*
X01807Y01074*
X01808Y01072*
X01809Y0107*
X0181Y01068*
X01811Y01066*
X01812Y01064*
X01813Y01062*
X01815Y01061*
X01815Y0106*
X01818Y01082D02*
D01*
X01818Y01078*
X01818Y01074*
X01819Y0107*
X0182Y01066*
X01821Y01062*
X01823Y01058*
X01825Y01054*
X01827Y01051*
X01829Y01047*
X01832Y01044*
X01834Y01041*
X01835Y0104*
X01815Y0106D02*
D01*
X01813Y01062*
X01812Y01063*
X0181Y01064*
X01808Y01066*
X01806Y01066*
X01804Y01067*
X01802Y01068*
X018Y01069*
X01798Y01069*
X01796Y01069*
X01794Y01069*
X01793Y01069*
X01835Y0104D02*
D01*
X01832Y01043*
X01829Y01046*
X01826Y01048*
X01822Y0105*
X01818Y01052*
X01814Y01054*
X01811Y01055*
X01807Y01056*
X01802Y01057*
X01798Y01057*
X01794Y01058*
X01793Y01058*
X01208Y01309D02*
X0127D01*
X01275Y01267D02*
Y01311D01*
X00145Y00629D02*
Y00736D01*
X00248Y00838*
X00338*
X0044Y0094*
Y01029*
X00493Y01082*
X01019Y01311D02*
X0107D01*
X00952Y01309D02*
X00954Y01311D01*
X01019*
X00763D02*
X00811D01*
X00748Y01028D02*
Y01133D01*
X00779Y01165*
X01173*
X01275Y01267*
X00131Y01116D02*
X00181Y01165D01*
Y01268*
X00192Y01279*
Y01354*
X00212Y01374*
X00253*
X00216Y01275D02*
X00253D01*
X002Y01259D02*
X00216Y01275D01*
X002Y01035D02*
Y01259D01*
X00171Y01006D02*
X002Y01035D01*
X00131Y01006D02*
X00171D01*
X00253Y01017D02*
Y01177D01*
X00187Y00951D02*
X00253Y01017D01*
X00131Y00951D02*
X00187D01*
X01125Y01299D02*
Y01346D01*
X01082Y01255D02*
X01125Y01299D01*
X00523Y01255D02*
X01082D01*
X00444Y01177D02*
X00523Y01255D01*
X00368Y01177D02*
X00444D01*
X0087Y01307D02*
Y01346D01*
X00838Y01275D02*
X0087Y01307D01*
X00368Y01275D02*
X00838D01*
X00492Y01346D02*
X00614D01*
X00464Y01374D02*
X00492Y01346D01*
X00368Y01374D02*
X00464D01*
X01593Y0074D02*
X01602Y00731D01*
Y00488D02*
Y00731D01*
X01593Y0074D02*
Y00982D01*
X01641Y00744D02*
X01653Y00732D01*
X01641Y00744D02*
Y01034D01*
X01593Y01082D02*
X01641Y01034D01*
X01693Y00739D02*
X01704Y00728D01*
X01693Y00739D02*
Y00982D01*
X01744Y00732D02*
X01751Y00724D01*
X01744Y00732D02*
Y01032D01*
X01693Y01082D02*
X01744Y01032D01*
X01793Y00733D02*
X01803Y00724D01*
X01793Y00733D02*
Y00982D01*
X0185Y00688D02*
Y01025D01*
X01793Y01082D02*
X0185Y01025D01*
X00145Y00629D02*
X00216Y00559D01*
X01653Y00688D02*
Y00732D01*
X01704Y00484D02*
Y00728D01*
X01803Y00484D02*
Y00724D01*
Y00484D02*
X0185Y00437D01*
X01751Y00688D02*
Y00724D01*
X01704Y00484D02*
X01751Y00437D01*
X01602Y00488D02*
X01653Y00437D01*
X00748Y01028D02*
X00793Y00982D01*
X00696Y01309D02*
X00761D01*
X00881Y00598D02*
Y00688D01*
X00842Y00559D02*
X00881Y00598D01*
X00216Y00559D02*
X00842D01*
X00881Y00519*
Y00437D02*
Y00519D01*
G54D11*
X00124Y01053D02*
D01*
X00122Y01055*
X00121Y01056*
X00119Y01057*
X00118Y01058*
X00116Y01058*
X00115Y01059*
X00113Y0106*
X00111Y0106*
X00109Y01061*
X00108Y01061*
X00106Y01061*
X00105Y01061*
D01*
X00107Y01061*
X00109Y01061*
X00111Y01061*
X00112Y01062*
X00114Y01062*
X00116Y01063*
X00118Y01064*
X00119Y01065*
X00121Y01066*
X00122Y01067*
X00123Y01068*
X00124Y01069*
X00165Y00326D02*
X00397D01*
X00051Y0044D02*
X00165Y00326D01*
X00051Y0044D02*
Y01015D01*
X00096Y01061*
X00131*
X00393Y01082D02*
X00464Y01153D01*
X00522*
X00593Y01082*
G54D12*
X0126Y00672D02*
D01*
X01257Y0067*
X01255Y00667*
X01252Y00664*
X0125Y0066*
X01249Y00657*
X01247Y00653*
X01246Y0065*
X01245Y00646*
X01244Y00642*
X01244Y00639*
X01244Y00635*
X01244Y00634*
D01*
X01243Y00638*
X01243Y00641*
X01242Y00645*
X01241Y00649*
X0124Y00653*
X01239Y00656*
X01237Y00659*
X01235Y00663*
X01233Y00666*
X01231Y00669*
X01228Y00672*
X01228Y00672*
X01571D02*
D01*
X01568Y0067*
X01566Y00667*
X01563Y00664*
X01561Y0066*
X0156Y00657*
X01558Y00653*
X01557Y0065*
X01556Y00646*
X01555Y00642*
X01555Y00639*
X01555Y00635*
X01555Y00634*
D01*
X01554Y00638*
X01554Y00641*
X01553Y00645*
X01553Y00649*
X01551Y00653*
X0155Y00656*
X01548Y00659*
X01546Y00663*
X01544Y00666*
X01542Y00669*
X01539Y00672*
X01539Y00672*
Y00704D02*
D01*
X01541Y00707*
X01544Y0071*
X01546Y00713*
X01548Y00717*
X01549Y0072*
X01551Y00724*
X01552Y00727*
X01553Y00731*
X01554Y00735*
X01554Y00738*
X01555Y00742*
X01555Y00743*
D01*
X01555Y00739*
X01555Y00736*
X01556Y00732*
X01557Y00728*
X01558Y00724*
X01559Y00721*
X01561Y00717*
X01563Y00714*
X01565Y00711*
X01567Y00708*
X0157Y00705*
X01571Y00704*
X01539Y00453D02*
D01*
X01541Y00455*
X01544Y00458*
X01546Y00461*
X01548Y00465*
X01549Y00468*
X01551Y00472*
X01552Y00475*
X01553Y00479*
X01554Y00483*
X01554Y00486*
X01555Y0049*
X01555Y00491*
D01*
X01555Y00487*
X01555Y00484*
X01556Y0048*
X01557Y00476*
X01558Y00472*
X01559Y00469*
X01561Y00466*
X01563Y00462*
X01565Y00459*
X01567Y00456*
X0157Y00453*
X01571Y00453*
X01228D02*
D01*
X0123Y00455*
X01233Y00458*
X01235Y00461*
X01237Y00465*
X01238Y00468*
X0124Y00472*
X01241Y00475*
X01242Y00479*
X01243Y00483*
X01243Y00486*
X01244Y0049*
X01244Y00491*
D01*
X01244Y00487*
X01244Y00484*
X01245Y0048*
X01246Y00476*
X01247Y00472*
X01248Y00469*
X0125Y00466*
X01252Y00462*
X01254Y00459*
X01256Y00456*
X01259Y00453*
X0126Y00453*
X01516Y01082D02*
D01*
X01516Y01078*
X01516Y01075*
X01517Y01071*
X01518Y01067*
X01519Y01063*
X01521Y0106*
X01522Y01057*
X01524Y01053*
X01526Y0105*
X01529Y01047*
X01531Y01044*
X01532Y01044*
D01*
X01529Y01046*
X01526Y01049*
X01523Y01051*
X0152Y01053*
X01516Y01054*
X01513Y01056*
X01509Y01057*
X01506Y01058*
X01502Y01059*
X01498Y01059*
X01494Y0106*
X01493Y0106*
X01555Y00688D02*
Y00791D01*
X01543Y00803D02*
X01555Y00791D01*
X01543Y00803D02*
Y01033D01*
X01493Y01082D02*
X01543Y01033D01*
X01555Y00437D02*
Y00688D01*
X01244Y00437D02*
Y00688D01*
G54D13*
X01254Y00426D02*
D01*
X01252Y00424*
X01251Y00422*
X01249Y0042*
X01248Y00418*
X01247Y00416*
X01246Y00414*
X01245Y00411*
X01245Y00409*
X01244Y00406*
X01244Y00404*
X01244Y00401*
X01244Y00401*
D01*
X01244Y00403*
X01243Y00406*
X01243Y00408*
X01242Y00411*
X01241Y00413*
X01241Y00415*
X01239Y00418*
X01238Y0042*
X01237Y00422*
X01235Y00424*
X01234Y00426*
X01233Y00426*
X01244Y00326D02*
Y00437D01*
G54D14*
X00952Y01309D03*
Y01383D03*
X0087Y01346D03*
X01208Y01309D03*
Y01383D03*
X01125Y01346D03*
X00696Y01309D03*
Y01383D03*
X00614Y01346D03*
G54D15*
X00253Y01374D03*
X00368D03*
Y01275D03*
X00253D03*
X00368Y01177D03*
X00253D03*
G54D16*
X01275Y01311D03*
Y01381D03*
X01019Y01311D03*
Y01381D03*
X00763D03*
Y01311D03*
G54D17*
X00593Y01082D02*
X00693D01*
X00593Y00982D02*
Y01082D01*
X00397Y00818D02*
X00456Y00877D01*
X00593Y0092D02*
Y00982D01*
X00551Y00877D02*
X00593Y0092D01*
X00456Y00877D02*
X00551D01*
X00397Y00326D02*
X01244D01*
X00397D02*
Y00437D01*
Y00688D02*
Y00818D01*
G54D18*
X01793Y01082D03*
Y00982D03*
X01693Y01082D03*
Y00982D03*
X01593Y01082D03*
Y00982D03*
X01493Y01082D03*
Y00982D03*
X01393D03*
Y01082D03*
X00993D03*
Y00982D03*
X00893D03*
Y01082D03*
X00493D03*
X00593D03*
X00793D03*
X00693D03*
Y00982D03*
X00793D03*
X00593D03*
X00493D03*
X00393D03*
X01093D03*
Y01082D03*
X01193Y00982D03*
Y01082D03*
X01293Y00982D03*
Y01082D03*
X01244Y00437D03*
X00299D03*
X00397D03*
X00496D03*
X0185D03*
X01751D03*
X01653D03*
X01555D03*
X0185Y00688D03*
X01751D03*
X01653D03*
X01555D03*
X01244D03*
X00299D03*
X00397D03*
X00496D03*
G54D19*
X00393Y01082D03*
X01145Y00437D03*
X002D03*
X01456D03*
Y00688D03*
X01145D03*
X002D03*
G54D20*
X01894Y01325D03*
X00118D03*
Y00118D03*
X01894D03*
G54D21*
X00131Y01116D03*
Y01061D03*
Y01006D03*
G54D22*
X00131Y00951D03*
G54D23*
X00881Y00688D03*
X00803D03*
X00881Y00437D03*
X00803D03*
G54D24*
X00724Y00688D03*
Y00437D03*
G54D25*
X0107Y01311D03*
X00811D03*
M02*