%FSTAX23Y23*%
%MOIN*%
%SFA1B1*%

%IPPOS*%
%ADD10C,0.011810*%
%ADD13C,0.031500*%
%ADD17C,0.039370*%
%ADD18C,0.061020*%
%ADD19R,0.061020X0.061020*%
%ADD20C,0.118110*%
%ADD21C,0.045280*%
%ADD22R,0.045280X0.045280*%
%ADD23C,0.051180*%
%ADD24R,0.051180X0.051180*%
%ADD25C,0.027560*%
%ADD26R,0.023620X0.055120*%
%ADD27R,0.039370X0.039370*%
%LNpanel-1*%
%LPD*%
G36*
X01988Y00023D02*
X01799D01*
Y00244*
Y00307*
X00792*
X0079Y00311*
X0082Y00341*
X00825Y00349*
X00827Y00358*
Y00413*
X00832Y0042*
X00835Y00428*
X00836Y00437*
X00835Y00445*
X00832Y00453*
X00827Y0046*
Y00665*
X00832Y00672*
X00835Y0068*
X00836Y00688*
X00835Y00697*
X00832Y00705*
X00827Y00712*
X0082Y00718*
X00811Y00721*
X00803Y00722*
X00794Y00721*
X00786Y00718*
X00779Y00712*
X00773Y00705*
X0077Y00697*
X00769Y00688*
X0077Y0068*
X00773Y00672*
X00779Y00665*
Y0046*
X00773Y00453*
X0077Y00445*
X00769Y00437*
X0077Y00428*
X00773Y0042*
X00779Y00413*
Y00368*
X00757Y00346*
X00175*
X00134Y00387*
Y00801*
X00291Y00958*
X00359*
X00362Y00957*
X00366Y00955*
X00367Y00954*
X00374Y00949*
X00383Y00945*
X00393Y00943*
X00403Y00945*
X00413Y00949*
X00421Y00955*
X00427Y00963*
X00431Y00972*
X00432Y00982*
X00431Y00992*
X00427Y01002*
X00421Y0101*
X00413Y01016*
X00403Y0102*
X00393Y01021*
X00383Y0102*
X00374Y01016*
X00367Y01011*
X00366Y0101*
X00362Y01007*
X00359Y01006*
X00281*
X00272Y01004*
X00264Y00999*
X00093Y00828*
X00087Y0082*
X00086Y00811*
Y00377*
X00087Y00368*
X00093Y0036*
X00148Y00305*
X00156Y003*
X00165Y00298*
X00212*
Y00023*
X00023*
Y01417*
X01988*
Y00023*
G37*
%LNpanel-2*%
%LPC*%
G36*
X00536Y00683D02*
X00501D01*
Y00648*
X00506Y00649*
X00516Y00653*
X00524Y0066*
X00531Y00668*
X00535Y00678*
X00536Y00683*
G37*
G36*
X00491D02*
X00455D01*
X00456Y00678*
X0046Y00668*
X00467Y0066*
X00475Y00653*
X00485Y00649*
X00491Y00648*
Y00683*
G37*
G36*
X01244Y00727D02*
X01234Y00726D01*
X01224Y00722*
X01216Y00716*
X0121Y00708*
X01206Y00699*
X01205Y00688*
X01206Y00678*
X0121Y00669*
X01216Y00661*
X01224Y00655*
X01234Y00651*
X01244Y0065*
X01254Y00651*
X01263Y00655*
X01271Y00661*
X01277Y00669*
X01281Y00678*
X01282Y00688*
X01281Y00699*
X01277Y00708*
X01271Y00716*
X01263Y00722*
X01254Y00726*
X01244Y00727*
G37*
G36*
X01653D02*
X01643Y00726D01*
X01634Y00722*
X01626Y00716*
X0162Y00708*
X01616Y00699*
X01614Y00688*
X01616Y00678*
X0162Y00669*
X01626Y00661*
X01634Y00655*
X01643Y00651*
X01653Y0065*
X01663Y00651*
X01672Y00655*
X0168Y00661*
X01687Y00669*
X0169Y00678*
X01692Y00688*
X0169Y00699*
X01687Y00708*
X0168Y00716*
X01672Y00722*
X01663Y00726*
X01653Y00727*
G37*
G36*
X01555D02*
X01545Y00726D01*
X01535Y00722*
X01527Y00716*
X01521Y00708*
X01517Y00699*
X01516Y00688*
X01517Y00678*
X01521Y00669*
X01527Y00661*
X01535Y00655*
X01545Y00651*
X01555Y0065*
X01565Y00651*
X01574Y00655*
X01582Y00661*
X01588Y00669*
X01592Y00678*
X01593Y00688*
X01592Y00699*
X01588Y00708*
X01582Y00716*
X01574Y00722*
X01565Y00726*
X01555Y00727*
G37*
G36*
X01193Y01021D02*
X01183Y0102D01*
X01174Y01016*
X01166Y0101*
X0116Y01002*
X01156Y00992*
X01154Y00982*
X01156Y00972*
X0116Y00963*
X01166Y00955*
X01166Y00954*
X01173Y00946*
X01178Y00935*
X01179Y00924*
Y00924*
X01179Y00923*
X01179*
Y00892*
X0118Y00887*
X01183Y00882*
X01296Y00769*
Y00623*
X01254Y0058*
X01015*
X0101Y00579*
X01005Y00576*
X00988Y00559*
X00985Y00554*
X00983Y00549*
Y00547*
X00972*
Y00492*
X00983*
X00983Y00491*
Y00484*
X00978*
Y00413*
X01017*
Y00484*
X01016*
X01014Y00486*
X01013Y00487*
X01015Y00492*
X01027*
Y00547*
X01022*
X01021Y00548*
X01024Y00552*
X01037*
X01041Y00549*
Y00549*
Y00524*
X011*
Y00549*
Y00549*
X01104Y00552*
X01259*
X01265Y00553*
X01269Y00556*
X0132Y00608*
X01324Y00612*
X01325Y00618*
Y00775*
X01324Y0078*
X0132Y00785*
X01207Y00898*
Y00923*
X01207*
X01207Y00924*
Y00924*
X01209Y00935*
X01213Y00946*
X0122Y00954*
X01221Y00955*
X01227Y00963*
X01231Y00972*
X01232Y00982*
X01231Y00992*
X01227Y01002*
X01221Y0101*
X01213Y01016*
X01203Y0102*
X01193Y01021*
G37*
G36*
X011Y00514D02*
X01041D01*
Y0049*
X01051*
Y00486*
Y00453*
X01094*
Y00486*
Y00486*
X01098Y0049*
X011*
Y00514*
G37*
G36*
X01451Y00683D02*
X01416D01*
Y00648*
X01451*
Y00683*
G37*
G36*
X01497Y00477D02*
X01461D01*
Y00442*
X01497*
Y00477*
G37*
G36*
Y00683D02*
X01461D01*
Y00648*
X01497*
Y00683*
G37*
G36*
X01751Y00727D02*
X01741Y00726D01*
X01732Y00722*
X01724Y00716*
X01718Y00708*
X01714Y00699*
X01713Y00688*
X01714Y00678*
X01718Y00669*
X01724Y00661*
X01732Y00655*
X01741Y00651*
X01751Y0065*
X01761Y00651*
X01771Y00655*
X01779Y00661*
X01785Y00669*
X01789Y00678*
X0179Y00688*
X01789Y00699*
X01785Y00708*
X01779Y00716*
X01771Y00722*
X01761Y00726*
X01751Y00727*
G37*
G36*
X00501Y00729D02*
Y00693D01*
X00536*
X00535Y00699*
X00531Y00709*
X00524Y00717*
X00516Y00724*
X00506Y00728*
X00501Y00729*
G37*
G36*
X00491D02*
X00485Y00728D01*
X00475Y00724*
X00467Y00717*
X0046Y00709*
X00456Y00699*
X00455Y00693*
X00491*
Y00729*
G37*
G36*
X00719Y00724D02*
X00688D01*
Y00693*
X00719*
Y00724*
G37*
G36*
X01451Y00729D02*
X01416D01*
Y00693*
X01451*
Y00729*
G37*
G36*
X0076Y00724D02*
X00729D01*
Y00693*
X0076*
Y00724*
G37*
G36*
X00719Y00683D02*
X00688D01*
Y00653*
X00719*
Y00683*
G37*
G36*
X0185Y00727D02*
X0184Y00726D01*
X01831Y00722*
X01823Y00716*
X01816Y00708*
X01813Y00699*
X01811Y00688*
X01813Y00678*
X01816Y00669*
X01823Y00661*
X01831Y00655*
X0184Y00651*
X0185Y0065*
X0186Y00651*
X01869Y00655*
X01877Y00661*
X01883Y00669*
X01887Y00678*
X01889Y00688*
X01887Y00699*
X01883Y00708*
X01877Y00716*
X01869Y00722*
X0186Y00726*
X0185Y00727*
G37*
G36*
X0076Y00683D02*
X00729D01*
Y00653*
X0076*
Y00683*
G37*
G36*
X0109Y00731D02*
X01073D01*
Y00698*
X01081*
X01083Y00694*
X01057Y00667*
X01051*
Y00688*
X01011*
Y00618*
X01051*
Y00639*
X01062*
X01068Y0064*
X01072Y00643*
X01102Y00673*
X01107Y00671*
Y0065*
X01184*
Y00727*
X01107*
Y00705*
X01105Y00704*
X01099Y00703*
X01098Y00703*
Y00703*
X01094Y00702*
X0109Y00705*
Y00731*
G37*
G36*
X00881Y00722D02*
X00873Y00721D01*
X00865Y00718*
X00858Y00712*
X00852Y00705*
X00849Y00697*
X00848Y00688*
X00849Y0068*
X00852Y00672*
X00858Y00665*
X00865Y00659*
X00873Y00656*
X00881Y00655*
X0089Y00656*
X00898Y00659*
X00905Y00665*
X00911Y00672*
X00914Y0068*
X00915Y00688*
X00914Y00697*
X00911Y00705*
X00905Y00712*
X00898Y00718*
X0089Y00721*
X00881Y00722*
G37*
G36*
X01244Y00475D02*
X01234Y00474D01*
X01224Y0047*
X01216Y00464*
X0121Y00456*
X01206Y00447*
X01205Y00437*
X01206Y00426*
X0121Y00417*
X01216Y00409*
X01224Y00403*
X01234Y00399*
X01244Y00398*
X01254Y00399*
X01263Y00403*
X01271Y00409*
X01277Y00417*
X01281Y00426*
X01282Y00437*
X01281Y00447*
X01277Y00456*
X01271Y00464*
X01263Y0047*
X01254Y00474*
X01244Y00475*
G37*
G36*
X00397Y00727D02*
X00387Y00726D01*
X00378Y00722*
X0037Y00716*
X00364Y00708*
X0036Y00699*
X00358Y00688*
X0036Y00678*
X00364Y00669*
X00369Y00662*
Y00463*
X00364Y00456*
X0036Y00447*
X00358Y00437*
X0036Y00426*
X00364Y00417*
X0037Y00409*
X00378Y00403*
X00387Y00399*
X00397Y00398*
X00407Y00399*
X00417Y00403*
X00425Y00409*
X00431Y00417*
X00435Y00426*
X00436Y00437*
X00435Y00447*
X00431Y00456*
X00425Y00463*
Y00662*
X00431Y00669*
X00435Y00678*
X00436Y00688*
X00435Y00699*
X00431Y00708*
X00425Y00716*
X00417Y00722*
X00407Y00726*
X00397Y00727*
G37*
G36*
X01555Y00475D02*
X01545Y00474D01*
X01535Y0047*
X01527Y00464*
X01521Y00456*
X01517Y00447*
X01516Y00437*
X01517Y00426*
X01521Y00417*
X01527Y00409*
X01535Y00403*
X01545Y00399*
X01555Y00398*
X01565Y00399*
X01574Y00403*
X01582Y00409*
X01588Y00417*
X01592Y00426*
X01593Y00437*
X01592Y00447*
X01588Y00456*
X01582Y00464*
X01574Y0047*
X01565Y00474*
X01555Y00475*
G37*
G36*
X01751D02*
X01741Y00474D01*
X01732Y0047*
X01724Y00464*
X01718Y00456*
X01714Y00447*
X01713Y00437*
X01714Y00426*
X01718Y00417*
X01724Y00409*
X01732Y00403*
X01741Y00399*
X01751Y00398*
X01761Y00399*
X01771Y00403*
X01779Y00409*
X01785Y00417*
X01789Y00426*
X0179Y00437*
X01789Y00447*
X01785Y00456*
X01779Y00464*
X01771Y0047*
X01761Y00474*
X01751Y00475*
G37*
G36*
X01653D02*
X01643Y00474D01*
X01634Y0047*
X01626Y00464*
X0162Y00456*
X01616Y00447*
X01614Y00437*
X01616Y00426*
X0162Y00417*
X01626Y00409*
X01634Y00403*
X01643Y00399*
X01653Y00398*
X01663Y00399*
X01672Y00403*
X0168Y00409*
X01687Y00417*
X0169Y00426*
X01692Y00437*
X0169Y00447*
X01687Y00456*
X0168Y00464*
X01672Y0047*
X01663Y00474*
X01653Y00475*
G37*
G36*
X00536Y00432D02*
X00501D01*
Y00396*
X00506Y00397*
X00516Y00401*
X00524Y00408*
X00531Y00416*
X00535Y00426*
X00536Y00432*
G37*
G36*
X01894Y00185D02*
X0188Y00184D01*
X01868Y0018*
X01856Y00174*
X01846Y00165*
X01838Y00155*
X01831Y00143*
X01828Y00131*
X01826Y00118*
X01828Y00104*
X01831Y00092*
X01838Y0008*
X01846Y0007*
X01856Y00062*
X01868Y00055*
X0188Y00052*
X01894Y0005*
X01907Y00052*
X01919Y00055*
X01931Y00062*
X01941Y0007*
X0195Y0008*
X01956Y00092*
X0196Y00104*
X01961Y00118*
X0196Y00131*
X01956Y00143*
X0195Y00155*
X01941Y00165*
X01931Y00174*
X01919Y0018*
X01907Y00184*
X01894Y00185*
G37*
G36*
X00118D02*
X00104Y00184D01*
X00092Y0018*
X0008Y00174*
X0007Y00165*
X00062Y00155*
X00055Y00143*
X00052Y00131*
X0005Y00118*
X00052Y00104*
X00055Y00092*
X00062Y0008*
X0007Y0007*
X0008Y00062*
X00092Y00055*
X00104Y00052*
X00118Y0005*
X00131Y00052*
X00143Y00055*
X00155Y00062*
X00165Y0007*
X00174Y0008*
X0018Y00092*
X00184Y00104*
X00185Y00118*
X00184Y00131*
X0018Y00143*
X00174Y00155*
X00165Y00165*
X00155Y00174*
X00143Y0018*
X00131Y00184*
X00118Y00185*
G37*
G36*
X01451Y00432D02*
X01416D01*
Y00396*
X01451*
Y00432*
G37*
G36*
X00491D02*
X00455D01*
X00456Y00426*
X0046Y00416*
X00467Y00408*
X00475Y00401*
X00485Y00397*
X00491Y00396*
Y00432*
G37*
G36*
X01497D02*
X01461D01*
Y00396*
X01497*
Y00432*
G37*
G36*
X00501Y00477D02*
Y00442D01*
X00536*
X00535Y00447*
X00531Y00457*
X00524Y00465*
X00516Y00472*
X00506Y00476*
X00501Y00477*
G37*
G36*
X00491D02*
X00485Y00476D01*
X00475Y00472*
X00467Y00465*
X0046Y00457*
X00456Y00447*
X00455Y00442*
X00491*
Y00477*
G37*
G36*
X00719Y00472D02*
X00688D01*
Y00442*
X00719*
Y00472*
G37*
G36*
X01451Y00477D02*
X01416D01*
Y00442*
X01451*
Y00477*
G37*
G36*
X0076Y00472D02*
X00729D01*
Y00442*
X0076*
Y00472*
G37*
G36*
X01184Y00475D02*
X01107D01*
Y00438*
X01107Y00437*
X01107Y00436*
X01105Y00425*
X01101Y00414*
X01099Y00412*
X01097Y00412*
X01094Y00413*
Y00443*
X01077*
Y00411*
X01093*
X01094Y00408*
X01095Y00406*
X01094Y00405*
X01094Y00405*
X01093Y00405*
X01093Y00404*
X01068Y0038*
X01055*
Y00401*
X01015*
Y0033*
X01055*
Y00352*
X01074*
X0108Y00353*
X01084Y00356*
X01113Y00385*
X01113Y00385*
X01114Y00385*
X01114Y00385*
X01122Y00392*
X01133Y00396*
X01145Y00398*
X01145Y00398*
X01147Y00398*
X01184*
Y00475*
G37*
G36*
X00719Y00432D02*
X00688D01*
Y00401*
X00719*
Y00432*
G37*
G36*
X0185Y00475D02*
X0184Y00474D01*
X01831Y0047*
X01823Y00464*
X01816Y00456*
X01813Y00447*
X01811Y00437*
X01813Y00426*
X01816Y00417*
X01823Y00409*
X01831Y00403*
X0184Y00399*
X0185Y00398*
X0186Y00399*
X01869Y00403*
X01877Y00409*
X01883Y00417*
X01887Y00426*
X01889Y00437*
X01887Y00447*
X01883Y00456*
X01877Y00464*
X01869Y0047*
X0186Y00474*
X0185Y00475*
G37*
G36*
X0076Y00432D02*
X00729D01*
Y00401*
X0076*
Y00432*
G37*
G36*
X01067Y00443D02*
X01051D01*
Y00411*
X01067*
Y00443*
G37*
G36*
X00881Y0047D02*
X00873Y00469D01*
X00865Y00466*
X00858Y0046*
X00852Y00453*
X00849Y00445*
X00848Y00437*
X00849Y00428*
X00852Y0042*
X00858Y00413*
X00865Y00407*
X00873Y00404*
X00881Y00403*
X0089Y00404*
X00898Y00407*
X00905Y00413*
X00911Y0042*
X00914Y00428*
X00915Y00437*
X00914Y00445*
X00911Y00453*
X00905Y0046*
X00898Y00466*
X0089Y00469*
X00881Y0047*
G37*
G36*
X01497Y00729D02*
X01461D01*
Y00693*
X01497*
Y00729*
G37*
G36*
X01793Y01121D02*
X01783Y0112D01*
X01774Y01116*
X01766Y0111*
X0176Y01102*
X01756Y01092*
X01754Y01082*
X01756Y01072*
X0176Y01063*
X01766Y01055*
X01774Y01049*
X01783Y01045*
X01793Y01043*
X01803Y01045*
X01813Y01049*
X01821Y01055*
X01827Y01063*
X01831Y01072*
X01832Y01082*
X01831Y01092*
X01827Y01102*
X01821Y0111*
X01813Y01116*
X01803Y0112*
X01793Y01121*
G37*
G36*
X01693D02*
X01683Y0112D01*
X01674Y01116*
X01666Y0111*
X0166Y01102*
X01656Y01092*
X01654Y01082*
X01656Y01072*
X0166Y01063*
X01666Y01055*
X01674Y01049*
X01683Y01045*
X01693Y01043*
X01703Y01045*
X01713Y01049*
X01721Y01055*
X01727Y01063*
X01731Y01072*
X01732Y01082*
X01731Y01092*
X01727Y01102*
X01721Y0111*
X01713Y01116*
X01703Y0112*
X01693Y01121*
G37*
G36*
X00432Y01121D02*
X00355D01*
Y01044*
X00432*
Y01121*
G37*
G36*
X00998Y01122D02*
Y01087D01*
X01033*
X01033Y01093*
X01029Y01103*
X01022Y01111*
X01014Y01118*
X01004Y01122*
X00998Y01122*
G37*
G36*
X00988D02*
X00983Y01122D01*
X00973Y01118*
X00964Y01111*
X00958Y01103*
X00954Y01093*
X00953Y01087*
X00988*
Y01122*
G37*
G36*
X01333Y01077D02*
X01298D01*
Y01042*
X01304Y01043*
X01314Y01047*
X01322Y01053*
X01329Y01062*
X01333Y01072*
X01333Y01077*
G37*
G36*
X01288D02*
X01253D01*
X01254Y01072*
X01258Y01062*
X01264Y01053*
X01273Y01047*
X01283Y01043*
X01288Y01042*
Y01077*
G37*
G36*
X01393Y01121D02*
X01383Y0112D01*
X01374Y01116*
X01366Y0111*
X0136Y01102*
X01356Y01092*
X01354Y01082*
X01356Y01072*
X0136Y01063*
X01366Y01055*
X01374Y01049*
X01383Y01045*
X01393Y01043*
X01403Y01045*
X01413Y01049*
X01421Y01055*
X01427Y01063*
X01431Y01072*
X01432Y01082*
X01431Y01092*
X01427Y01102*
X01421Y0111*
X01413Y01116*
X01403Y0112*
X01393Y01121*
G37*
G36*
X01593D02*
X01583Y0112D01*
X01574Y01116*
X01566Y0111*
X0156Y01102*
X01556Y01092*
X01554Y01082*
X01556Y01072*
X0156Y01063*
X01566Y01055*
X01574Y01049*
X01583Y01045*
X01593Y01043*
X01603Y01045*
X01613Y01049*
X01621Y01055*
X01627Y01063*
X01631Y01072*
X01632Y01082*
X01631Y01092*
X01627Y01102*
X01621Y0111*
X01613Y01116*
X01603Y0112*
X01593Y01121*
G37*
G36*
X01493D02*
X01483Y0112D01*
X01474Y01116*
X01466Y0111*
X0146Y01102*
X01456Y01092*
X01454Y01082*
X01456Y01072*
X0146Y01063*
X01466Y01055*
X01474Y01049*
X01483Y01045*
X01493Y01043*
X01503Y01045*
X01513Y01049*
X01521Y01055*
X01527Y01063*
X01531Y01072*
X01532Y01082*
X01531Y01092*
X01527Y01102*
X01521Y0111*
X01513Y01116*
X01503Y0112*
X01493Y01121*
G37*
G36*
X01088Y01122D02*
X01083Y01122D01*
X01073Y01118*
X01064Y01111*
X01058Y01103*
X01054Y01093*
X01053Y01087*
X01088*
Y01122*
G37*
G36*
X00118Y01392D02*
X00104Y01391D01*
X00092Y01387*
X0008Y01381*
X0007Y01372*
X00062Y01362*
X00055Y0135*
X00052Y01338*
X0005Y01325*
X00052Y01312*
X00055Y01299*
X00062Y01287*
X0007Y01277*
X0008Y01269*
X00092Y01263*
X00104Y01259*
X00118Y01257*
X00131Y01259*
X00143Y01263*
X00155Y01269*
X00165Y01277*
X00174Y01287*
X0018Y01299*
X00184Y01312*
X00185Y01325*
X00184Y01338*
X0018Y0135*
X00174Y01362*
X00165Y01372*
X00155Y01381*
X00143Y01387*
X00131Y01391*
X00118Y01392*
G37*
G36*
X00793Y01121D02*
X00783Y0112D01*
X00774Y01116*
X00766Y0111*
X0072*
X00713Y01116*
X00703Y0112*
X00693Y01121*
X00683Y0112*
X00674Y01116*
X00666Y0111*
X0066Y01102*
X00656Y01092*
X00654Y01082*
X00656Y01072*
X0066Y01063*
X00666Y01055*
X00674Y01049*
X00683Y01045*
X00693Y01043*
X00703Y01045*
X00713Y01049*
X0072Y01054*
X00766*
X00774Y01049*
X00783Y01045*
X00793Y01043*
X00803Y01045*
X00813Y01049*
X00821Y01055*
X00827Y01063*
X00831Y01072*
X00832Y01082*
X00831Y01092*
X00827Y01102*
X00821Y0111*
X00813Y01116*
X00803Y0112*
X00793Y01121*
G37*
G36*
X01894Y01392D02*
X0188Y01391D01*
X01868Y01387*
X01856Y01381*
X01846Y01372*
X01838Y01362*
X01831Y0135*
X01828Y01338*
X01826Y01325*
X01828Y01312*
X01831Y01299*
X01838Y01287*
X01846Y01277*
X01856Y01269*
X01868Y01263*
X0188Y01259*
X01894Y01257*
X01907Y01259*
X01919Y01263*
X01931Y01269*
X01941Y01277*
X0195Y01287*
X01956Y01299*
X0196Y01312*
X01961Y01325*
X0196Y01338*
X01956Y0135*
X0195Y01362*
X01941Y01372*
X01931Y01381*
X01919Y01387*
X01907Y01391*
X01894Y01392*
G37*
G36*
X0107Y01333D02*
X01062Y01331D01*
X01055Y01326*
X0105Y01319*
X01048Y01311*
X01048Y0131*
X01047Y01307*
X01047Y01307*
X01047Y01307*
X01047Y01307*
X00883Y01143*
X0088Y01139*
X00879Y01133*
X00879*
X00879Y01133*
X00878Y01126*
X00876Y0112*
X00871Y01114*
X00869Y01113*
X00869Y01112*
X00868Y01111*
X00868Y01111*
X00866Y0111*
X0086Y01102*
X00856Y01092*
X00854Y01082*
X00856Y01072*
X0086Y01063*
X00866Y01055*
X00874Y01049*
X00883Y01045*
X00893Y01043*
X00903Y01045*
X00913Y01049*
X00921Y01055*
X00927Y01063*
X00931Y01072*
X00932Y01082*
X00931Y01092*
X00927Y01102*
X00921Y0111*
X00919Y01111*
X00919Y01111*
X00918Y01112*
X00917Y01113*
X00915Y01114*
X00911Y0112*
X00908Y01126*
X00908Y01128*
X01067Y01287*
X01067Y01287*
X01067Y01287*
X01067Y01287*
X0107Y01289*
X0107Y01288*
X01079Y0129*
X01086Y01295*
X01091Y01302*
X01092Y01311*
X01091Y01319*
X01086Y01326*
X01079Y01331*
X0107Y01333*
G37*
G36*
X00811D02*
X00802Y01331D01*
X00795Y01326*
X0079Y01319*
X00788Y01311*
X00789Y0131*
X00787Y01307*
X00787Y01307*
X00787Y01307*
X00787Y01307*
X00667Y01187*
X00586*
X00581Y01186*
X00576Y01183*
X00533Y01139*
X0053Y01135*
X00529Y01129*
Y01107*
X00524Y01105*
X00521Y0111*
X00513Y01116*
X00503Y0112*
X00493Y01121*
X00483Y0112*
X00474Y01116*
X00466Y0111*
X0046Y01102*
X00456Y01092*
X00454Y01082*
X00456Y01072*
X0046Y01063*
X00466Y01055*
X00474Y01049*
X00483Y01045*
X00493Y01043*
X00503Y01045*
X00513Y01049*
X00521Y01055*
X00524Y01059*
X00529Y01058*
Y01038*
X00525Y01034*
X00525Y01034*
X00525Y01034*
X00524Y01033*
X00516Y01027*
X00505Y01022*
X00494Y01021*
X00493Y01021*
X00483Y0102*
X00474Y01016*
X00466Y0101*
X0046Y01002*
X00456Y00992*
X00454Y00982*
X00456Y00972*
X0046Y00963*
X00466Y00955*
X00474Y00949*
X00483Y00945*
X00493Y00943*
X00503Y00945*
X00513Y00949*
X00521Y00955*
X00527Y00963*
X00531Y00972*
X00532Y00982*
X00532Y00983*
X00533Y00994*
X00538Y01005*
X00544Y01013*
X00545Y01014*
X00545Y01014*
X00545Y01014*
X00553Y01022*
X00556Y01026*
X00557Y01032*
Y01059*
X00562Y0106*
X00566Y01055*
X00574Y01049*
X00583Y01045*
X00593Y01043*
X00603Y01045*
X00613Y01049*
X00621Y01055*
X00627Y01063*
X00631Y01072*
X00632Y01082*
X00631Y01092*
X00627Y01102*
X00621Y0111*
X00613Y01116*
X00603Y0112*
X00593Y01121*
X00583Y0112*
X00574Y01116*
X00566Y0111*
X00562Y01104*
X00557Y01106*
Y01124*
X00592Y01159*
X00673*
X00678Y0116*
X00683Y01163*
X00807Y01287*
Y01287*
X00807Y01287*
X00807Y01287*
X0081Y01289*
X00811Y01288*
X00819Y0129*
X00826Y01295*
X00831Y01302*
X00833Y01311*
X00831Y01319*
X00826Y01326*
X00819Y01331*
X00811Y01333*
G37*
G36*
X01188Y01122D02*
X01183Y01122D01*
X01173Y01118*
X01164Y01111*
X01158Y01103*
X01154Y01093*
X01153Y01087*
X01188*
Y01122*
G37*
G36*
X01098D02*
Y01087D01*
X01133*
X01133Y01093*
X01129Y01103*
X01122Y01111*
X01114Y01118*
X01104Y01122*
X01098Y01122*
G37*
G36*
X01198D02*
Y01087D01*
X01233*
X01233Y01093*
X01229Y01103*
X01222Y01111*
X01214Y01118*
X01204Y01122*
X01198Y01122*
G37*
G36*
X01298D02*
Y01087D01*
X01333*
X01333Y01093*
X01329Y01103*
X01322Y01111*
X01314Y01118*
X01304Y01122*
X01298Y01122*
G37*
G36*
X01288D02*
X01283Y01122D01*
X01273Y01118*
X01264Y01111*
X01258Y01103*
X01254Y01093*
X01253Y01087*
X01288*
Y01122*
G37*
G36*
X01233Y01077D02*
X01198D01*
Y01042*
X01204Y01043*
X01214Y01047*
X01222Y01053*
X01229Y01062*
X01233Y01072*
X01233Y01077*
G37*
G36*
X00693Y01021D02*
X00683Y0102D01*
X00674Y01016*
X00666Y0101*
X0066Y01002*
X00656Y00992*
X00654Y00982*
X00656Y00972*
X0066Y00963*
X00666Y00955*
X00674Y00949*
X00683Y00945*
X00693Y00943*
X00703Y00945*
X00713Y00949*
X00721Y00955*
X00727Y00963*
X00731Y00972*
X00732Y00982*
X00731Y00992*
X00727Y01002*
X00721Y0101*
X00713Y01016*
X00703Y0102*
X00693Y01021*
G37*
G36*
X00593D02*
X00583Y0102D01*
X00574Y01016*
X00566Y0101*
X0056Y01002*
X00556Y00992*
X00554Y00982*
X00556Y00972*
X0056Y00963*
X00566Y00955*
X00574Y00949*
X00583Y00945*
X00593Y00943*
X00603Y00945*
X00613Y00949*
X00621Y00955*
X00627Y00963*
X00631Y00972*
X00632Y00982*
X00631Y00992*
X00627Y01002*
X00621Y0101*
X00613Y01016*
X00603Y0102*
X00593Y01021*
G37*
G36*
X00793D02*
X00783Y0102D01*
X00774Y01016*
X00766Y0101*
X0076Y01002*
X00756Y00992*
X00754Y00982*
X00756Y00972*
X0076Y00963*
X00766Y00955*
X00774Y00949*
X00783Y00945*
X00793Y00943*
X00803Y00945*
X00813Y00949*
X00821Y00955*
X00827Y00963*
X00831Y00972*
X00832Y00982*
X00831Y00992*
X00827Y01002*
X00821Y0101*
X00813Y01016*
X00803Y0102*
X00793Y01021*
G37*
G36*
X01093D02*
X01083Y0102D01*
X01074Y01016*
X01066Y0101*
X0106Y01002*
X01056Y00992*
X01054Y00982*
X01055Y00981*
X01053Y0097*
X01049Y00959*
X01042Y00951*
X01042Y00951*
X01041Y0095*
X01041Y0095*
X00984Y00893*
X00981Y00888*
X0098Y00883*
Y00845*
X00979*
X0098Y00843*
Y00835*
X00979Y00834*
X00968*
Y00779*
X00979*
X0098Y00778*
Y00771*
X00974*
Y007*
X01013*
Y00771*
X01012*
X0101Y00773*
X01009Y00775*
X01011Y00779*
X01023*
Y00834*
X0101*
X01009Y00838*
X01008Y00845*
X01008*
Y00877*
X01061Y0093*
X01061Y0093*
X01062Y00931*
X01062Y00931*
X0107Y00938*
X01081Y00942*
X01092Y00944*
X01093Y00943*
X01103Y00945*
X01113Y00949*
X01121Y00955*
X01127Y00963*
X01131Y00972*
X01132Y00982*
X01131Y00992*
X01127Y01002*
X01121Y0101*
X01113Y01016*
X01103Y0102*
X01093Y01021*
G37*
G36*
X00993D02*
X00983Y0102D01*
X00974Y01016*
X00966Y0101*
X0096Y01002*
X00956Y00992*
X00954Y00982*
X00955Y00981*
X00953Y0097*
X00949Y00959*
X00942Y00951*
X00942Y00951*
X00941Y0095*
X00941Y0095*
X00857Y00865*
X00856Y00865*
X00844Y00855*
X00829Y00847*
X00813Y00842*
X00796Y0084*
X00796Y0084*
X00765*
X00764Y00845*
X00771Y00848*
X00787Y00858*
X008Y00869*
X008Y00869*
X00861Y0093*
X00861Y0093*
X00862Y00931*
X00862Y00931*
X0087Y00938*
X00881Y00942*
X00892Y00944*
X00893Y00943*
X00903Y00945*
X00913Y00949*
X00921Y00955*
X00927Y00963*
X00931Y00972*
X00932Y00982*
X00931Y00992*
X00927Y01002*
X00921Y0101*
X00913Y01016*
X00903Y0102*
X00893Y01021*
X00883Y0102*
X00874Y01016*
X00866Y0101*
X0086Y01002*
X00856Y00992*
X00854Y00982*
X00855Y00981*
X00853Y0097*
X00849Y00959*
X00842Y00951*
X00842Y00951*
X00841Y0095*
X00841Y0095*
X0078Y00889*
X0078Y00889*
X00767Y00878*
X00752Y0087*
X00736Y00865*
X0072Y00864*
X0072Y00864*
X00403*
Y00864*
X00385Y00863*
X00368Y00858*
X00351Y00852*
X00336Y00842*
X00322Y00831*
X00322Y00831*
X00232Y0074*
X00232Y0074*
X00232Y0074*
X00232Y0074*
X00223Y00733*
X00212Y00729*
X002Y00727*
X002Y00727*
X00199Y00727*
X00162*
Y0065*
X00181*
X00185Y00641*
X00186Y0063*
Y0063*
X00186Y00629*
X00186*
Y00496*
X00186*
X00186Y00495*
Y00495*
X00185Y00484*
X00181Y00475*
X00162*
Y00398*
X00239*
Y00475*
X0022*
X00216Y00484*
X00214Y00495*
Y00495*
X00214Y00496*
X00214*
Y00629*
X00214*
X00214Y0063*
Y0063*
X00216Y00641*
X0022Y0065*
X00239*
Y00687*
X00239Y00688*
X00239Y00689*
X0024Y007*
X00245Y00711*
X00251Y0072*
X00252Y0072*
X00252Y0072*
X00252Y00721*
X00342Y00811*
X00343Y00811*
X00355Y00822*
X0037Y00829*
X00386Y00834*
X00403Y00836*
X00403Y00836*
X00432*
X00433Y00831*
X00426Y00828*
X00411Y00819*
X00397Y00807*
X00397Y00807*
X00331Y0074*
X00331Y0074*
X0033Y0074*
X0033Y0074*
X00321Y00733*
X0031Y00729*
X003Y00727*
X00299Y00727*
X00289Y00726*
X00279Y00722*
X00271Y00716*
X00265Y00708*
X00261Y00699*
X0026Y00688*
X00261Y00678*
X00265Y00669*
X00271Y00661*
X00272Y00661*
X00279Y00652*
X00283Y00641*
X00285Y0063*
Y0063*
X00285Y00629*
X00285*
Y00496*
X00285*
X00285Y00495*
Y00495*
X00283Y00484*
X00279Y00473*
X00272Y00464*
X00271Y00464*
X00265Y00456*
X00261Y00447*
X0026Y00437*
X00261Y00426*
X00265Y00417*
X00271Y00409*
X00279Y00403*
X00289Y00399*
X00299Y00398*
X00309Y00399*
X00318Y00403*
X00326Y00409*
X00332Y00417*
X00336Y00426*
X00337Y00437*
X00336Y00447*
X00332Y00456*
X00326Y00464*
X00325Y00464*
X00319Y00473*
X00314Y00484*
X00313Y00495*
Y00495*
X00313Y00496*
X00313*
Y00629*
X00313*
X00313Y0063*
Y0063*
X00314Y00641*
X00319Y00652*
X00325Y00661*
X00326Y00661*
X00332Y00669*
X00336Y00678*
X00337Y00688*
X00337Y00689*
X00339Y007*
X00343Y00711*
X0035Y0072*
X0035Y0072*
X00351Y0072*
X00351Y00721*
X00417Y00787*
X00418Y00788*
X0043Y00798*
X00445Y00806*
X00461Y00811*
X00477Y00812*
X00478Y00812*
X00796*
Y00812*
X00814Y00814*
X00831Y00818*
X00848Y00825*
X00863Y00834*
X00877Y00846*
X00877Y00846*
X00961Y0093*
X00961Y0093*
X00962Y00931*
X00962Y00931*
X0097Y00938*
X00981Y00942*
X00992Y00944*
X00993Y00943*
X01003Y00945*
X01013Y00949*
X01021Y00955*
X01027Y00963*
X01031Y00972*
X01032Y00982*
X01031Y00992*
X01027Y01002*
X01021Y0101*
X01013Y01016*
X01003Y0102*
X00993Y01021*
G37*
G36*
X01096Y00802D02*
X01037D01*
Y00777*
X01047*
Y00773*
Y00741*
X0109*
Y00773*
Y00773*
X01094Y00777*
X01096*
Y00802*
G37*
G36*
X01063Y00731D02*
X01047D01*
Y00698*
X01063*
Y00731*
G37*
G36*
X01061Y00836D02*
X01037D01*
Y00812*
X01061*
Y00836*
G37*
G36*
X00131Y01147D02*
X00123Y01146D01*
X00116Y01143*
X0011Y01138*
X00105Y01131*
X00102Y01124*
X00101Y01116*
X00102Y01108*
X00105Y01101*
X0011Y01094*
X00114Y01091*
Y01086*
X0011Y01083*
X00105Y01076*
X00102Y01069*
X00101Y01061*
X00102Y01053*
X00105Y01046*
X0011Y01039*
X00114Y01036*
Y01031*
X0011Y01028*
X00105Y01021*
X00102Y01014*
X00101Y01006*
X00102Y00998*
X00105Y0099*
X00108Y00986*
X00106Y00981*
X00101*
Y0092*
X00162*
Y00981*
X00157*
X00154Y00986*
X00158Y0099*
X00161Y00998*
X00162Y01006*
X00161Y01014*
X00158Y01021*
X00153Y01028*
X00149Y01031*
Y01036*
X00153Y01039*
X00158Y01046*
X00161Y01053*
X00162Y01061*
X00161Y01069*
X00158Y01076*
X00153Y01083*
X00149Y01086*
Y01091*
X00153Y01094*
X00158Y01101*
X00161Y01108*
X00162Y01116*
X00161Y01124*
X00158Y01131*
X00153Y01138*
X00147Y01143*
X00139Y01146*
X00131Y01147*
G37*
G36*
X01096Y00836D02*
X01071D01*
Y00812*
X01096*
Y00836*
G37*
G36*
X01293Y01021D02*
X01283Y0102D01*
X01274Y01016*
X01266Y0101*
X0126Y01002*
X01256Y00992*
X01254Y00982*
X01256Y00972*
X0126Y00963*
X01266Y00955*
X01274Y00949*
X01283Y00945*
X01293Y00943*
X01303Y00945*
X01313Y00949*
X01321Y00955*
X01327Y00963*
X01331Y00972*
X01332Y00982*
X01331Y00992*
X01327Y01002*
X01321Y0101*
X01313Y01016*
X01303Y0102*
X01293Y01021*
G37*
G36*
X01033Y01077D02*
X00998D01*
Y01042*
X01004Y01043*
X01014Y01047*
X01022Y01053*
X01029Y01062*
X01033Y01072*
X01033Y01077*
G37*
G36*
X00988D02*
X00953D01*
X00954Y01072*
X00958Y01062*
X00964Y01053*
X00973Y01047*
X00983Y01043*
X00988Y01042*
Y01077*
G37*
G36*
X01088D02*
X01053D01*
X01054Y01072*
X01058Y01062*
X01064Y01053*
X01073Y01047*
X01083Y01043*
X01088Y01042*
Y01077*
G37*
G36*
X01188D02*
X01153D01*
X01154Y01072*
X01158Y01062*
X01164Y01053*
X01173Y01047*
X01183Y01043*
X01188Y01042*
Y01077*
G37*
G36*
X01133D02*
X01098D01*
Y01042*
X01104Y01043*
X01114Y01047*
X01122Y01053*
X01129Y01062*
X01133Y01072*
X01133Y01077*
G37*
G36*
X01493Y01021D02*
X01483Y0102D01*
X01474Y01016*
X01466Y0101*
X0146Y01002*
X01456Y00992*
X01454Y00982*
X01456Y00972*
X0146Y00963*
X01466Y00955*
X01474Y00949*
X01483Y00945*
X01493Y00943*
X01503Y00945*
X01513Y00949*
X01521Y00955*
X01527Y00963*
X01531Y00972*
X01532Y00982*
X01531Y00992*
X01527Y01002*
X01521Y0101*
X01513Y01016*
X01503Y0102*
X01493Y01021*
G37*
G36*
X01393D02*
X01383Y0102D01*
X01374Y01016*
X01366Y0101*
X0136Y01002*
X01356Y00992*
X01354Y00982*
X01356Y00972*
X0136Y00963*
X01366Y00955*
X01374Y00949*
X01383Y00945*
X01393Y00943*
X01403Y00945*
X01413Y00949*
X01421Y00955*
X01427Y00963*
X01431Y00972*
X01432Y00982*
X01431Y00992*
X01427Y01002*
X01421Y0101*
X01413Y01016*
X01403Y0102*
X01393Y01021*
G37*
G36*
X01593D02*
X01583Y0102D01*
X01574Y01016*
X01566Y0101*
X0156Y01002*
X01556Y00992*
X01554Y00982*
X01556Y00972*
X0156Y00963*
X01566Y00955*
X01574Y00949*
X01583Y00945*
X01593Y00943*
X01603Y00945*
X01613Y00949*
X01621Y00955*
X01627Y00963*
X01631Y00972*
X01632Y00982*
X01631Y00992*
X01627Y01002*
X01621Y0101*
X01613Y01016*
X01603Y0102*
X01593Y01021*
G37*
G36*
X01793D02*
X01783Y0102D01*
X01774Y01016*
X01766Y0101*
X0176Y01002*
X01756Y00992*
X01754Y00982*
X01756Y00972*
X0176Y00963*
X01766Y00955*
X01774Y00949*
X01783Y00945*
X01793Y00943*
X01803Y00945*
X01813Y00949*
X01821Y00955*
X01827Y00963*
X01831Y00972*
X01832Y00982*
X01831Y00992*
X01827Y01002*
X01821Y0101*
X01813Y01016*
X01803Y0102*
X01793Y01021*
G37*
G36*
X01693D02*
X01683Y0102D01*
X01674Y01016*
X01666Y0101*
X0166Y01002*
X01656Y00992*
X01654Y00982*
X01656Y00972*
X0166Y00963*
X01666Y00955*
X01674Y00949*
X01683Y00945*
X01693Y00943*
X01703Y00945*
X01713Y00949*
X01721Y00955*
X01727Y00963*
X01731Y00972*
X01732Y00982*
X01731Y00992*
X01727Y01002*
X01721Y0101*
X01713Y01016*
X01703Y0102*
X01693Y01021*
G37*
%LNpanel-3*%
%LPD*%
G54D10*
X00796Y00826D02*
D01*
X00803Y00827*
X0081Y00827*
X00817Y00828*
X00823Y0083*
X0083Y00832*
X00837Y00835*
X00843Y00838*
X00849Y00841*
X00855Y00845*
X0086Y0085*
X00865Y00854*
X00867Y00856*
X00478Y00826D02*
D01*
X00471Y00826*
X00464Y00825*
X00457Y00824*
X0045Y00822*
X00444Y0082*
X00437Y00818*
X00431Y00815*
X00425Y00811*
X00419Y00807*
X00414Y00803*
X00408Y00798*
X00407Y00797*
X0072Y0085D02*
D01*
X00726Y0085*
X00733Y00851*
X0074Y00852*
X00747Y00854*
X00754Y00856*
X0076Y00859*
X00766Y00862*
X00772Y00865*
X00778Y00869*
X00784Y00873*
X00789Y00878*
X0079Y00879*
X00403Y0085D02*
D01*
X00396Y0085*
X00389Y00849*
X00382Y00848*
X00376Y00846*
X00369Y00844*
X00362Y00841*
X00356Y00838*
X0035Y00835*
X00344Y00831*
X00339Y00826*
X00334Y00822*
X00332Y00821*
X00811Y01303D02*
D01*
X00809Y01303*
X00808Y01302*
X00807Y01302*
X00805Y01302*
X00804Y01302*
X00803Y01301*
X00802Y013*
X008Y013*
X00799Y01299*
X00798Y01298*
X00797Y01297*
X00797Y01297*
D01*
X00798Y01298*
X00799Y01299*
X008Y013*
X008Y01301*
X00801Y01302*
X00801Y01304*
X00802Y01305*
X00802Y01306*
X00802Y01308*
X00803Y01309*
X00803Y0131*
X00803Y01311*
X0107Y01303D02*
D01*
X01069Y01303*
X01068Y01302*
X01066Y01302*
X01065Y01302*
X01064Y01302*
X01063Y01301*
X01061Y013*
X0106Y013*
X01059Y01299*
X01058Y01298*
X01057Y01297*
X01057Y01297*
D01*
X01058Y01298*
X01059Y01299*
X01059Y013*
X0106Y01301*
X01061Y01302*
X01061Y01304*
X01062Y01305*
X01062Y01306*
X01062Y01308*
X01062Y01309*
X01062Y0131*
X01062Y01311*
X01009Y00509D02*
D01*
X01007Y00507*
X01006Y00505*
X01004Y00503*
X01003Y00501*
X01001Y00498*
X01Y00495*
X00999Y00493*
X00999Y0049*
X00998Y00487*
X00998Y00485*
X00998Y00482*
X00998Y00481*
Y00491D02*
D01*
X00997Y00493*
X00997Y00494*
X00997Y00496*
X00997Y00498*
X00996Y005*
X00995Y00501*
X00994Y00503*
X00993Y00505*
X00992Y00506*
X00991Y00508*
X0099Y00509*
X0099Y00509*
X01005Y00797D02*
D01*
X01003Y00795*
X01002Y00793*
X01Y0079*
X00999Y00788*
X00997Y00785*
X00996Y00783*
X00995Y0078*
X00995Y00778*
X00994Y00775*
X00994Y00772*
X00994Y00769*
X00994Y00769*
Y00778D02*
D01*
X00994Y0078*
X00993Y00782*
X00993Y00784*
X00993Y00785*
X00992Y00787*
X00991Y00789*
X0099Y00791*
X0099Y00792*
X00989Y00794*
X00987Y00795*
X00986Y00797*
X00986Y00797*
Y00816D02*
D01*
X00987Y00818*
X00988Y00819*
X00989Y00821*
X0099Y00822*
X00991Y00824*
X00992Y00826*
X00992Y00827*
X00993Y00829*
X00993Y00831*
X00993Y00833*
X00994Y00835*
X00994Y00835*
Y00845D02*
D01*
X00994Y00842*
X00994Y00839*
X00994Y00836*
X00995Y00834*
X00996Y00831*
X00997Y00828*
X00998Y00826*
X01Y00823*
X01001Y00821*
X01003Y00819*
X01005Y00817*
X01005Y00816*
X01035Y00657D02*
D01*
X01036Y00657*
X01037Y00656*
X01037Y00655*
X01038Y00655*
X01039Y00654*
X0104Y00654*
X01041Y00654*
X01042Y00653*
X01043Y00653*
X01044Y00653*
X01045Y00653*
X01045Y00653*
D01*
X01044Y00653*
X01043Y00653*
X01042Y00653*
X01041Y00652*
X0104Y00652*
X01039Y00652*
X01039Y00651*
X01038Y00651*
X01037Y0065*
X01036Y0065*
X01035Y00649*
X01035Y00649*
X00989Y00756D02*
D01*
X0099Y00756*
X00991Y00757*
X00991Y00758*
X00992Y00759*
X00992Y0076*
X00993Y00761*
X00993Y00762*
X00993Y00763*
X00993Y00763*
X00994Y00764*
X00994Y00765*
X00994Y00766*
D01*
X00994Y00765*
X00994Y00764*
X00994Y00763*
X00994Y00762*
X00994Y00761*
X00995Y0076*
X00995Y00759*
X00996Y00758*
X00996Y00757*
X00997Y00757*
X00998Y00756*
X00998Y00756*
X01039Y0037D02*
D01*
X0104Y00369*
X01041Y00369*
X01041Y00368*
X01042Y00367*
X01043Y00367*
X01044Y00367*
X01045Y00366*
X01046Y00366*
X01047Y00366*
X01048Y00366*
X01049Y00366*
X01049Y00366*
D01*
X01048Y00366*
X01047Y00366*
X01046Y00365*
X01045Y00365*
X01044Y00365*
X01043Y00364*
X01042Y00364*
X01042Y00363*
X01041Y00363*
X0104Y00362*
X01039Y00362*
X01039Y00361*
X00993Y00468D02*
D01*
X00994Y00469*
X00995Y0047*
X00995Y00471*
X00996Y00471*
X00996Y00472*
X00997Y00473*
X00997Y00474*
X00997Y00475*
X00997Y00476*
X00997Y00477*
X00998Y00478*
X00998Y00478*
D01*
X00998Y00477*
X00998Y00476*
X00998Y00475*
X00998Y00474*
X00998Y00473*
X00999Y00473*
X00999Y00472*
X01Y00471*
X01Y0047*
X01001Y00469*
X01002Y00468*
X01002Y00468*
X00299Y00701D02*
D01*
X00301Y00701*
X00303Y00702*
X00305Y00702*
X00307Y00702*
X00309Y00703*
X00311Y00704*
X00313Y00705*
X00315Y00706*
X00317Y00707*
X00319Y00708*
X0032Y0071*
X00321Y0071*
X00299Y00713D02*
D01*
X00303Y00713*
X00307Y00714*
X00311Y00714*
X00315Y00715*
X00319Y00717*
X00323Y00718*
X00327Y0072*
X0033Y00722*
X00334Y00724*
X00337Y00727*
X0034Y0073*
X00341Y0073*
X00321Y0071D02*
D01*
X00319Y00709*
X00318Y00707*
X00316Y00705*
X00315Y00703*
X00314Y00702*
X00314Y007*
X00313Y00698*
X00312Y00695*
X00312Y00693*
X00312Y00691*
X00312Y00689*
X00312Y00688*
X00341Y0073D02*
D01*
X00338Y00727*
X00335Y00724*
X00333Y00721*
X00331Y00717*
X00329Y00714*
X00327Y0071*
X00326Y00706*
X00325Y00702*
X00324Y00698*
X00324Y00694*
X00323Y0069*
X00323Y00688*
X00308Y00679D02*
D01*
X00306Y00678*
X00305Y00676*
X00304Y00674*
X00303Y00673*
X00302Y00671*
X00301Y00669*
X003Y00667*
X003Y00665*
X00299Y00662*
X00299Y0066*
X00299Y00658*
X00299Y00658*
X00316Y00671D02*
D01*
X00313Y00668*
X00311Y00665*
X00308Y00661*
X00306Y00658*
X00304Y00654*
X00303Y0065*
X00301Y00646*
X003Y00642*
X00299Y00638*
X00299Y00634*
X00299Y0063*
X00299Y00629*
Y00658D02*
D01*
X00299Y0066*
X00298Y00662*
X00298Y00664*
X00298Y00666*
X00297Y00668*
X00296Y0067*
X00295Y00672*
X00294Y00674*
X00293Y00676*
X00291Y00677*
X0029Y00679*
X0029Y00679*
X00299Y00629D02*
D01*
X00299Y00633*
X00298Y00637*
X00297Y00641*
X00296Y00645*
X00295Y00649*
X00294Y00653*
X00292Y00657*
X0029Y00661*
X00287Y00664*
X00285Y00667*
X00282Y0067*
X00281Y00671*
X002Y00701D02*
D01*
X00202Y00701*
X00205Y00702*
X00207Y00702*
X00209Y00702*
X00211Y00703*
X00213Y00704*
X00215Y00705*
X00217Y00706*
X00218Y00707*
X0022Y00708*
X00222Y0071*
X00222Y0071*
X002Y00713D02*
D01*
X00204Y00713*
X00209Y00714*
X00213Y00714*
X00217Y00715*
X00221Y00717*
X00224Y00718*
X00228Y0072*
X00232Y00722*
X00235Y00724*
X00238Y00727*
X00242Y0073*
X00242Y0073*
X00222Y0071D02*
D01*
X00221Y00709*
X00219Y00707*
X00218Y00705*
X00217Y00703*
X00216Y00702*
X00215Y007*
X00214Y00698*
X00214Y00695*
X00213Y00693*
X00213Y00691*
X00213Y00689*
X00213Y00688*
X00242Y0073D02*
D01*
X00239Y00727*
X00237Y00724*
X00234Y00721*
X00232Y00717*
X0023Y00714*
X00229Y0071*
X00227Y00706*
X00226Y00702*
X00226Y00698*
X00225Y00694*
X00225Y0069*
X00225Y00688*
X00209Y00679D02*
D01*
X00208Y00678*
X00207Y00676*
X00205Y00674*
X00204Y00673*
X00203Y00671*
X00202Y00669*
X00202Y00667*
X00201Y00665*
X00201Y00662*
X002Y0066*
X002Y00658*
X002Y00658*
X00218Y00671D02*
D01*
X00215Y00668*
X00212Y00665*
X0021Y00661*
X00208Y00658*
X00206Y00654*
X00204Y0065*
X00203Y00646*
X00202Y00642*
X00201Y00638*
X00201Y00634*
X002Y0063*
X002Y00629*
Y00658D02*
D01*
X002Y0066*
X002Y00662*
X002Y00664*
X00199Y00666*
X00198Y00668*
X00198Y0067*
X00197Y00672*
X00196Y00674*
X00194Y00676*
X00193Y00677*
X00192Y00679*
X00191Y00679*
X002Y00629D02*
D01*
X002Y00633*
X002Y00637*
X00199Y00641*
X00198Y00645*
X00197Y00649*
X00195Y00653*
X00193Y00657*
X00191Y00661*
X00189Y00664*
X00186Y00667*
X00184Y0067*
X00183Y00671*
X01125Y00674D02*
D01*
X01124Y00676*
X01122Y00678*
X0112Y0068*
X01119Y00681*
X01117Y00682*
X01115Y00684*
X01113Y00685*
X01111Y00686*
X01109Y00687*
X01107Y00687*
X01104Y00688*
X01102Y00688*
X011Y00688*
X01098Y00688*
D01*
X011Y00689*
X01103Y00689*
X01105Y00689*
X01107Y0069*
X01109Y0069*
X01111Y00691*
X01113Y00692*
X01115Y00694*
X01117Y00695*
X01119Y00696*
X01121Y00698*
X01122Y00699*
X01124Y00701*
X01125Y00703*
X0029Y00446D02*
D01*
X00291Y00447*
X00292Y00449*
X00294Y00451*
X00295Y00452*
X00296Y00454*
X00297Y00456*
X00297Y00458*
X00298Y0046*
X00298Y00463*
X00299Y00465*
X00299Y00467*
X00299Y00467*
X00281Y00454D02*
D01*
X00284Y00457*
X00287Y0046*
X00289Y00464*
X00291Y00467*
X00293Y00471*
X00295Y00475*
X00296Y00479*
X00297Y00483*
X00298Y00487*
X00298Y00491*
X00299Y00495*
X00299Y00496*
Y00467D02*
D01*
X00299Y00465*
X00299Y00463*
X00299Y00461*
X003Y00459*
X00301Y00457*
X00301Y00455*
X00302Y00453*
X00303Y00451*
X00305Y00449*
X00306Y00448*
X00307Y00446*
X00308Y00446*
X00299Y00496D02*
D01*
X00299Y00492*
X00299Y00488*
X003Y00484*
X00301Y0048*
X00302Y00476*
X00304Y00472*
X00306Y00468*
X00308Y00464*
X0031Y00461*
X00313Y00458*
X00315Y00455*
X00316Y00454*
X00191Y00446D02*
D01*
X00193Y00447*
X00194Y00449*
X00195Y00451*
X00196Y00452*
X00197Y00454*
X00198Y00456*
X00199Y00458*
X00199Y0046*
X002Y00463*
X002Y00465*
X002Y00467*
X002Y00467*
X00183Y00454D02*
D01*
X00186Y00457*
X00188Y0046*
X00191Y00464*
X00193Y00467*
X00195Y00471*
X00196Y00475*
X00198Y00479*
X00199Y00483*
X002Y00487*
X002Y00491*
X002Y00495*
X002Y00496*
Y00467D02*
D01*
X002Y00465*
X00201Y00463*
X00201Y00461*
X00201Y00459*
X00202Y00457*
X00203Y00455*
X00204Y00453*
X00205Y00451*
X00206Y00449*
X00208Y00448*
X00209Y00446*
X00209Y00446*
X002Y00496D02*
D01*
X002Y00492*
X00201Y00488*
X00202Y00484*
X00203Y0048*
X00204Y00476*
X00205Y00472*
X00207Y00468*
X00209Y00464*
X00212Y00461*
X00214Y00458*
X00217Y00455*
X00218Y00454*
X01145Y00424D02*
D01*
X01143Y00424*
X01141Y00423*
X01139Y00423*
X01137Y00423*
X01135Y00422*
X01133Y00421*
X01131Y0042*
X01129Y00419*
X01127Y00418*
X01125Y00416*
X01124Y00415*
X01123Y00415*
X01145Y00412D02*
D01*
X01141Y00412*
X01137Y00411*
X01133Y00411*
X01129Y0041*
X01125Y00408*
X01121Y00407*
X01117Y00405*
X01114Y00403*
X0111Y00401*
X01107Y00398*
X01104Y00395*
X01103Y00395*
X01123Y00415D02*
D01*
X01125Y00416*
X01126Y00418*
X01127Y0042*
X01129Y00422*
X01129Y00423*
X0113Y00425*
X01131Y00427*
X01132Y0043*
X01132Y00432*
X01132Y00434*
X01132Y00436*
X01132Y00437*
X01103Y00395D02*
D01*
X01106Y00398*
X01109Y00401*
X01111Y00404*
X01113Y00408*
X01115Y00411*
X01117Y00415*
X01118Y00419*
X01119Y00423*
X0112Y00427*
X0112Y00431*
X01121Y00435*
X01121Y00437*
X01202Y00973D02*
D01*
X01201Y00972*
X01199Y0097*
X01198Y00968*
X01197Y00966*
X01196Y00964*
X01195Y00962*
X01195Y0096*
X01194Y00958*
X01194Y00956*
X01193Y00954*
X01193Y00952*
X01193Y00951*
X01211Y00965D02*
D01*
X01208Y00962*
X01205Y00959*
X01203Y00955*
X01201Y00952*
X01199Y00948*
X01197Y00944*
X01196Y0094*
X01195Y00936*
X01194Y00932*
X01193Y00928*
X01193Y00924*
X01193Y00923*
Y00951D02*
D01*
X01193Y00953*
X01193Y00956*
X01193Y00958*
X01192Y0096*
X01191Y00962*
X01191Y00964*
X0119Y00966*
X01189Y00968*
X01187Y00969*
X01186Y00971*
X01185Y00973*
X01184Y00973*
X01193Y00923D02*
D01*
X01193Y00927*
X01193Y00931*
X01192Y00935*
X01191Y00939*
X0119Y00943*
X01188Y00947*
X01186Y00951*
X01184Y00954*
X01182Y00958*
X01179Y00961*
X01177Y00964*
X01176Y00965*
X01093Y00969D02*
D01*
X01091Y00969*
X01089Y00969*
X01087Y00969*
X01085Y00968*
X01083Y00968*
X01081Y00967*
X01079Y00966*
X01077Y00965*
X01075Y00963*
X01073Y00962*
X01072Y00961*
X01071Y0096*
X01093Y00958D02*
D01*
X01089Y00957*
X01085Y00957*
X01081Y00956*
X01077Y00955*
X01073Y00954*
X01069Y00952*
X01065Y00951*
X01062Y00949*
X01058Y00946*
X01055Y00944*
X01052Y00941*
X01051Y0094*
X01071Y0096D02*
D01*
X01073Y00962*
X01074Y00964*
X01075Y00965*
X01077Y00967*
X01078Y00969*
X01078Y00971*
X01079Y00973*
X0108Y00975*
X0108Y00977*
X0108Y00979*
X0108Y00982*
X0108Y00982*
X01051Y0094D02*
D01*
X01054Y00943*
X01057Y00946*
X01059Y0095*
X01061Y00953*
X01063Y00957*
X01065Y00961*
X01066Y00965*
X01067Y00969*
X01068Y00973*
X01068Y00977*
X01069Y00981*
X01069Y00982*
X00493Y00995D02*
D01*
X00495Y00995*
X00497Y00995*
X005Y00996*
X00502Y00996*
X00504Y00997*
X00506Y00998*
X00508Y00999*
X0051Y01*
X00511Y01001*
X00513Y01002*
X00515Y01004*
X00515Y01004*
X00493Y01007D02*
D01*
X00497Y01007*
X00501Y01007*
X00506Y01008*
X0051Y01009*
X00514Y0101*
X00517Y01012*
X00521Y01014*
X00525Y01016*
X00528Y01018*
X00531Y01021*
X00534Y01023*
X00535Y01024*
X00515Y01004D02*
D01*
X00514Y01002*
X00512Y01001*
X00511Y00999*
X0051Y00997*
X00509Y00995*
X00508Y00993*
X00507Y00991*
X00507Y00989*
X00506Y00987*
X00506Y00985*
X00506Y00983*
X00506Y00982*
X00535Y01024D02*
D01*
X00532Y01021*
X0053Y01018*
X00527Y01015*
X00525Y01011*
X00523Y01007*
X00522Y01003*
X0052Y01*
X00519Y00996*
X00519Y00991*
X00518Y00987*
X00518Y00983*
X00518Y00982*
X00878Y01101D02*
D01*
X0088Y01103*
X00882Y01105*
X00884Y01107*
X00886Y0111*
X00887Y01112*
X00889Y01115*
X0089Y01117*
X00891Y0112*
X00892Y01123*
X00892Y01125*
X00893Y01128*
X00893Y01131*
X00893Y01133*
D01*
X00893Y01131*
X00894Y01128*
X00894Y01125*
X00895Y01122*
X00896Y01119*
X00897Y01117*
X00898Y01114*
X00899Y01112*
X00901Y01109*
X00903Y01107*
X00905Y01105*
X00907Y01103*
X00909Y01101*
X00893Y00969D02*
D01*
X00891Y00969*
X00889Y00969*
X00887Y00969*
X00885Y00968*
X00883Y00968*
X00881Y00967*
X00879Y00966*
X00877Y00965*
X00875Y00963*
X00873Y00962*
X00872Y00961*
X00871Y0096*
X00893Y00958D02*
D01*
X00889Y00957*
X00885Y00957*
X00881Y00956*
X00877Y00955*
X00873Y00954*
X00869Y00952*
X00865Y00951*
X00862Y00949*
X00858Y00946*
X00855Y00944*
X00852Y00941*
X00851Y0094*
X00871Y0096D02*
D01*
X00873Y00962*
X00874Y00964*
X00875Y00965*
X00877Y00967*
X00878Y00969*
X00878Y00971*
X00879Y00973*
X0088Y00975*
X0088Y00977*
X0088Y00979*
X0088Y00982*
X0088Y00982*
X00851Y0094D02*
D01*
X00854Y00943*
X00857Y00946*
X00859Y0095*
X00861Y00953*
X00863Y00957*
X00865Y00961*
X00866Y00965*
X00867Y00969*
X00868Y00973*
X00868Y00977*
X00869Y00981*
X00869Y00982*
X00993Y00969D02*
D01*
X00991Y00969*
X00989Y00969*
X00987Y00969*
X00985Y00968*
X00983Y00968*
X00981Y00967*
X00979Y00966*
X00977Y00965*
X00975Y00963*
X00973Y00962*
X00972Y00961*
X00971Y0096*
X00993Y00958D02*
D01*
X00989Y00957*
X00985Y00957*
X00981Y00956*
X00977Y00955*
X00973Y00954*
X00969Y00952*
X00965Y00951*
X00962Y00949*
X00958Y00946*
X00955Y00944*
X00952Y00941*
X00951Y0094*
X00971Y0096D02*
D01*
X00973Y00962*
X00974Y00964*
X00975Y00965*
X00977Y00967*
X00978Y00969*
X00978Y00971*
X00979Y00973*
X0098Y00975*
X0098Y00977*
X0098Y00979*
X0098Y00982*
X0098Y00982*
X00951Y0094D02*
D01*
X00954Y00943*
X00957Y00946*
X00959Y0095*
X00961Y00953*
X00963Y00957*
X00965Y00961*
X00966Y00965*
X00967Y00969*
X00968Y00973*
X00968Y00977*
X00969Y00981*
X00969Y00982*
X00867Y00856D02*
X00993Y00982D01*
X00478Y00826D02*
X00796D01*
X00299Y00688D02*
X00407Y00797D01*
X00998Y00505D02*
Y00549D01*
X00994Y00736D02*
Y00883D01*
X0079Y00879D02*
X00893Y00982D01*
X00403Y0085D02*
X0072D01*
X002Y00688D02*
X00332Y00821D01*
X00998Y00448D02*
Y00505D01*
Y00549D02*
X01015Y00566D01*
X00893Y01082D02*
Y01133D01*
X0107Y01311*
X00493Y00982D02*
X00543Y01032D01*
Y01129*
X00586Y01173*
X00673*
X00811Y01311*
X01098Y00688D02*
X01145D01*
X01062Y00653D02*
X01098Y00688D01*
X01031Y00653D02*
X01062D01*
X01074Y00366D02*
X01145Y00437D01*
X01035Y00366D02*
X01074D01*
X00998Y00505D02*
X01Y00507D01*
X002Y00437D02*
Y00688D01*
X00299Y00437D02*
Y00688D01*
X01015Y00566D02*
X01259D01*
X01311Y00618*
Y00775*
X01193Y00892D02*
X01311Y00775D01*
X01193Y00892D02*
Y00982D01*
X00994Y00883D02*
X01093Y00982D01*
G54D13*
X00383Y00972D02*
D01*
X00381Y00973*
X00379Y00975*
X00377Y00976*
X00375Y00978*
X00373Y00979*
X0037Y0098*
X00368Y00981*
X00366Y00981*
X00363Y00982*
X00361Y00982*
X00358Y00982*
X00358Y00982*
D01*
X0036Y00982*
X00363Y00983*
X00365Y00983*
X00367Y00984*
X0037Y00984*
X00372Y00985*
X00374Y00986*
X00376Y00988*
X00379Y00989*
X0038Y00991*
X00382Y00992*
X00383Y00993*
X0011Y00377D02*
Y00811D01*
X00281Y00982D02*
X00393D01*
X0011Y00811D02*
X00281Y00982D01*
X0011Y00377D02*
X00165Y00322D01*
X00767D02*
X00803Y00358D01*
Y00437*
X00165Y00322D02*
X00767D01*
X00803Y00437D02*
Y00688D01*
G54D17*
X00693Y01082D02*
X00793D01*
X00397Y00437D02*
Y00688D01*
G54D18*
X01793Y01082D03*
Y00982D03*
X01693Y01082D03*
Y00982D03*
X01593Y01082D03*
Y00982D03*
X01493Y01082D03*
Y00982D03*
X01393D03*
Y01082D03*
X00993D03*
Y00982D03*
X00893D03*
Y01082D03*
X00493D03*
X00593D03*
X00793D03*
X00693D03*
Y00982D03*
X00793D03*
X00593D03*
X00493D03*
X00393D03*
X01093D03*
Y01082D03*
X01193Y00982D03*
Y01082D03*
X01293Y00982D03*
Y01082D03*
X01244Y00437D03*
X00299D03*
X00397D03*
X00496D03*
X0185D03*
X01751D03*
X01653D03*
X01555D03*
X0185Y00688D03*
X01751D03*
X01653D03*
X01555D03*
X01244D03*
X00299D03*
X00397D03*
X00496D03*
G54D19*
X00393Y01082D03*
X01145Y00437D03*
X002D03*
X01456D03*
Y00688D03*
X01145D03*
X002D03*
G54D20*
X01894Y01325D03*
X00118D03*
Y00118D03*
X01894D03*
G54D21*
X00131Y01116D03*
Y01061D03*
Y01006D03*
G54D22*
X00131Y00951D03*
G54D23*
X00881Y00688D03*
X00803D03*
X00881Y00437D03*
X00803D03*
G54D24*
X00724Y00688D03*
Y00437D03*
G54D25*
X0107Y01311D03*
X00811D03*
G54D26*
X00998Y00448D03*
X01072D03*
X01035Y00366D03*
X00994Y00736D03*
X01068D03*
X01031Y00653D03*
G54D27*
X01066Y00807D03*
X00996D03*
X0107Y00519D03*
X01D03*
M02*