%FSTAX23Y23*%
%MOIN*%
%SFA1B1*%

%IPPOS*%
%ADD9500C,0.011810*%
%ADD9501C,0.023620*%
%ADD9502C,0.029530*%
%ADD9503C,0.039370*%
%ADD9504C,0.118110*%
%LNpanel-1*%
%LPD*%
G54D9500*
X00811Y01311D03*
X0107D03*
G54D9501*
X00131Y00951D03*
Y01006D03*
Y01061D03*
Y01116D03*
G54D9502*
X00881Y00437D03*
Y00688D03*
X00803D03*
X00724D03*
Y00437D03*
X00803D03*
G54D9503*
X01145Y00437D03*
X01244D03*
X01456D03*
X01555D03*
X01653D03*
X01751D03*
X0185D03*
Y00688D03*
X01751D03*
X01653D03*
X01555D03*
X01456D03*
X01244D03*
X01145D03*
X00496D03*
X00397D03*
X00299D03*
X002D03*
Y00437D03*
X00299D03*
X00397D03*
X00496D03*
X00493Y00982D03*
X00393D03*
Y01082D03*
X00493D03*
X00593D03*
Y00982D03*
X00693D03*
X00793D03*
Y01082D03*
X00693D03*
X00893D03*
Y00982D03*
X00993D03*
X01093D03*
X01193D03*
X01293D03*
Y01082D03*
X01193D03*
X01093D03*
X00993D03*
X01393D03*
Y00982D03*
X01493D03*
Y01082D03*
X01593D03*
Y00982D03*
X01693D03*
Y01082D03*
X01793D03*
Y00982D03*
G54D9504*
X01894Y00118D03*
X00118D03*
Y01325D03*
X01894D03*
M02*