%FSTAX23Y23*%
%MOIN*%
%SFA1B1*%

%IPPOS*%
%ADD12C,0.007870*%
%ADD15C,0.023620*%
%ADD51C,0.009840*%
%ADD52C,0.005910*%
%LNrpiadapterpcb-1*%
%LPD*%
G54D12*
X02878Y00863D02*
Y00897D01*
X02942Y00863D02*
Y00897D01*
X02592Y00756D02*
Y00953D01*
X02663Y00756D02*
Y00953D01*
X02592Y00756D02*
X02663D01*
X02592Y00953D02*
X02663D01*
X00913Y00872D02*
Y00888D01*
Y00872D02*
X00944D01*
X01031D02*
Y00888D01*
X00999Y00872D02*
X01031D01*
X00743D02*
Y00888D01*
Y00872D02*
X00775D01*
X00862D02*
Y00888D01*
X0083Y00872D02*
X00862D01*
X0057D02*
Y00888D01*
Y00872D02*
X00602D01*
X00688D02*
Y00888D01*
X00657Y00872D02*
X00688D01*
X00041D02*
Y00888D01*
Y00872D02*
X00072D01*
X00159D02*
Y00888D01*
X00128Y00872D02*
X00159D01*
X00402D02*
Y00888D01*
Y00872D02*
X00433D01*
X0052D02*
Y00888D01*
X00488Y00872D02*
X0052D01*
X00217D02*
Y00888D01*
Y00872D02*
X00248D01*
X00335D02*
Y00888D01*
X00303Y00872D02*
X00335D01*
X00292Y00743D02*
Y00757D01*
X0026Y00743D02*
Y00757D01*
X00477Y00743D02*
Y00757D01*
X00445Y00743D02*
Y00757D01*
X00116Y00743D02*
Y00757D01*
X00084Y00743D02*
Y00757D01*
X00645Y00743D02*
Y00757D01*
X00613Y00743D02*
Y00757D01*
X00988Y00743D02*
Y00757D01*
X00956Y00743D02*
Y00757D01*
X00819Y00743D02*
Y00757D01*
X00787Y00743D02*
Y00757D01*
X01823Y01329D02*
X01837D01*
X01823Y01361D02*
X01837D01*
X01739Y01376D02*
Y01392D01*
X01707D02*
X01739D01*
X0162Y01376D02*
Y01392D01*
X01652*
X01673Y01229D02*
X01687D01*
X01673Y01261D02*
X01687D01*
X02129Y01476D02*
Y01492D01*
X02097D02*
X02129D01*
X0201Y01476D02*
Y01492D01*
X02042*
X02063Y01329D02*
X02077D01*
X02063Y01361D02*
X02077D01*
X02156Y01872D02*
X02176D01*
X02156Y01691D02*
X02176D01*
X02293Y01872D02*
X02313D01*
X02293Y01691D02*
X02313D01*
X02156D02*
Y01872D01*
X02313Y01691D02*
Y01872D01*
X02279Y00087D02*
Y00287D01*
X00279D02*
X02279D01*
X00279Y00087D02*
X02279D01*
X00279D02*
Y00287D01*
X0226Y00832D02*
Y00847D01*
X02229Y00832D02*
Y00847D01*
X02019Y01126D02*
X0209D01*
X02019Y00783D02*
X0209D01*
Y01126*
X02019Y00783D02*
Y01126D01*
X00965Y01006D02*
X00979D01*
X00965Y01038D02*
X00979D01*
X00796Y01006D02*
X0081D01*
X00796Y01038D02*
X0081D01*
X00622Y01006D02*
X00636D01*
X00622Y01038D02*
X00636D01*
X00093Y01006D02*
X00107D01*
X00093Y01038D02*
X00107D01*
X00269Y01006D02*
X00283D01*
X00269Y01038D02*
X00283D01*
X00454Y01006D02*
X00468D01*
X00454Y01038D02*
X00468D01*
X01889Y01476D02*
Y01492D01*
X01857D02*
X01889D01*
X0177Y01476D02*
Y01492D01*
X01802*
X02409Y00847D02*
Y00862D01*
X0244Y00847D02*
Y00862D01*
X02617Y01005D02*
X02632D01*
X02617Y00974D02*
X02632D01*
X00314Y01282D02*
Y01297D01*
X00345Y01282D02*
Y01297D01*
X00749Y01282D02*
Y01297D01*
X0078Y01282D02*
Y01297D01*
X01179Y01282D02*
Y01297D01*
X0121Y01282D02*
Y01297D01*
X00951Y01244D02*
Y01275D01*
X01061Y01244D02*
Y01275D01*
X00965Y01361D02*
X01047D01*
X00454Y01283D02*
Y01297D01*
X00486Y01283D02*
Y01297D01*
X00416Y01283D02*
Y01297D01*
X00384Y01283D02*
Y01297D01*
X00889Y01283D02*
Y01297D01*
X00921Y01283D02*
Y01297D01*
X00851Y01283D02*
Y01297D01*
X00819Y01283D02*
Y01297D01*
X01319Y01283D02*
Y01297D01*
X01351Y01283D02*
Y01297D01*
X01281Y01283D02*
Y01297D01*
X01249Y01283D02*
Y01297D01*
X00539Y01474D02*
X00642D01*
X005Y01217D02*
Y01344D01*
X00681Y01215D02*
Y01345D01*
X01409Y01454D02*
X01512D01*
X0137Y01197D02*
Y01324D01*
X01551Y01195D02*
Y01325D01*
G54D15*
X02643Y00795D02*
D01*
X02643Y00796*
X02643Y00797*
X02643Y00798*
X02643Y00799*
X02642Y00799*
X02642Y008*
X02642Y00801*
X02641Y00802*
X02641Y00802*
X0264Y00803*
X0264Y00804*
X02639Y00804*
X02639Y00805*
X02638Y00805*
X02637Y00806*
X02636Y00806*
X02636Y00806*
X02635Y00807*
X02634Y00807*
X02633Y00807*
X02632Y00807*
X02632Y00807*
X02631*
X0263Y00807*
X02629Y00807*
X02628Y00807*
X02628Y00807*
X02627Y00806*
X02626Y00806*
X02625Y00806*
X02625Y00805*
X02624Y00805*
X02623Y00804*
X02623Y00804*
X02622Y00803*
X02622Y00802*
X02621Y00802*
X02621Y00801*
X0262Y008*
X0262Y00799*
X0262Y00799*
X0262Y00798*
X0262Y00797*
X02619Y00796*
X02619Y00795*
X02619Y00795*
X0262Y00794*
X0262Y00793*
X0262Y00792*
X0262Y00791*
X0262Y00791*
X02621Y0079*
X02621Y00789*
X02622Y00788*
X02622Y00788*
X02623Y00787*
X02623Y00787*
X02624Y00786*
X02625Y00786*
X02625Y00785*
X02626Y00785*
X02627Y00784*
X02628Y00784*
X02628Y00784*
X02629Y00784*
X0263Y00784*
X02631Y00784*
X02632*
X02632Y00784*
X02633Y00784*
X02634Y00784*
X02635Y00784*
X02636Y00784*
X02636Y00785*
X02637Y00785*
X02638Y00786*
X02639Y00786*
X02639Y00787*
X0264Y00787*
X0264Y00788*
X02641Y00788*
X02641Y00789*
X02642Y0079*
X02642Y00791*
X02642Y00791*
X02643Y00792*
X02643Y00793*
X02643Y00794*
X02643Y00795*
X02643Y00795*
G54D51*
X02538Y00746D02*
D01*
X02538Y00746*
X02538Y00747*
X02538Y00747*
X02538Y00747*
X02537Y00748*
X02537Y00748*
X02537Y00748*
X02537Y00749*
X02537Y00749*
X02537Y00749*
X02536Y00749*
X02536Y0075*
X02536Y0075*
X02536Y0075*
X02535Y0075*
X02535Y0075*
X02535Y00751*
X02534Y00751*
X02534Y00751*
X02534Y00751*
X02533Y00751*
X02533Y00751*
X02533*
X02532Y00751*
X02532Y00751*
X02532Y00751*
X02531Y00751*
X02531Y00751*
X02531Y0075*
X0253Y0075*
X0253Y0075*
X0253Y0075*
X0253Y0075*
X02529Y00749*
X02529Y00749*
X02529Y00749*
X02529Y00749*
X02528Y00748*
X02528Y00748*
X02528Y00748*
X02528Y00747*
X02528Y00747*
X02528Y00747*
X02528Y00746*
X02528Y00746*
X02528Y00746*
X02528Y00745*
X02528Y00745*
X02528Y00745*
X02528Y00744*
X02528Y00744*
X02528Y00744*
X02529Y00743*
X02529Y00743*
X02529Y00743*
X02529Y00743*
X0253Y00742*
X0253Y00742*
X0253Y00742*
X0253Y00742*
X02531Y00742*
X02531Y00741*
X02531Y00741*
X02532Y00741*
X02532Y00741*
X02532Y00741*
X02533Y00741*
X02533*
X02533Y00741*
X02534Y00741*
X02534Y00741*
X02534Y00741*
X02535Y00741*
X02535Y00742*
X02535Y00742*
X02536Y00742*
X02536Y00742*
X02536Y00742*
X02536Y00743*
X02537Y00743*
X02537Y00743*
X02537Y00743*
X02537Y00744*
X02537Y00744*
X02537Y00744*
X02538Y00745*
X02538Y00745*
X02538Y00745*
X02538Y00746*
X02538Y00746*
X00906Y00935D02*
D01*
X00906Y00935*
X00906Y00936*
X00906Y00936*
X00906Y00936*
X00906Y00937*
X00905Y00937*
X00905Y00937*
X00905Y00938*
X00905Y00938*
X00905Y00938*
X00904Y00938*
X00904Y00939*
X00904Y00939*
X00904Y00939*
X00903Y00939*
X00903Y00939*
X00903Y00939*
X00902Y0094*
X00902Y0094*
X00902Y0094*
X00901Y0094*
X00901Y0094*
X00901*
X009Y0094*
X009Y0094*
X009Y0094*
X00899Y0094*
X00899Y00939*
X00899Y00939*
X00899Y00939*
X00898Y00939*
X00898Y00939*
X00898Y00939*
X00897Y00938*
X00897Y00938*
X00897Y00938*
X00897Y00938*
X00897Y00937*
X00896Y00937*
X00896Y00937*
X00896Y00936*
X00896Y00936*
X00896Y00936*
X00896Y00935*
X00896Y00935*
X00896Y00935*
X00896Y00934*
X00896Y00934*
X00896Y00934*
X00896Y00933*
X00896Y00933*
X00897Y00933*
X00897Y00932*
X00897Y00932*
X00897Y00932*
X00897Y00932*
X00898Y00931*
X00898Y00931*
X00898Y00931*
X00899Y00931*
X00899Y00931*
X00899Y0093*
X00899Y0093*
X009Y0093*
X009Y0093*
X009Y0093*
X00901Y0093*
X00901*
X00901Y0093*
X00902Y0093*
X00902Y0093*
X00902Y0093*
X00903Y0093*
X00903Y00931*
X00903Y00931*
X00904Y00931*
X00904Y00931*
X00904Y00931*
X00904Y00932*
X00905Y00932*
X00905Y00932*
X00905Y00932*
X00905Y00933*
X00905Y00933*
X00906Y00933*
X00906Y00934*
X00906Y00934*
X00906Y00934*
X00906Y00935*
X00906Y00935*
X00737D02*
D01*
X00737Y00935*
X00737Y00936*
X00736Y00936*
X00736Y00936*
X00736Y00937*
X00736Y00937*
X00736Y00937*
X00736Y00938*
X00736Y00938*
X00735Y00938*
X00735Y00938*
X00735Y00939*
X00735Y00939*
X00734Y00939*
X00734Y00939*
X00734Y00939*
X00734Y00939*
X00733Y0094*
X00733Y0094*
X00733Y0094*
X00732Y0094*
X00732Y0094*
X00731*
X00731Y0094*
X00731Y0094*
X0073Y0094*
X0073Y0094*
X0073Y00939*
X0073Y00939*
X00729Y00939*
X00729Y00939*
X00729Y00939*
X00728Y00939*
X00728Y00938*
X00728Y00938*
X00728Y00938*
X00727Y00938*
X00727Y00937*
X00727Y00937*
X00727Y00937*
X00727Y00936*
X00727Y00936*
X00727Y00936*
X00727Y00935*
X00727Y00935*
X00727Y00935*
X00727Y00934*
X00727Y00934*
X00727Y00934*
X00727Y00933*
X00727Y00933*
X00727Y00933*
X00727Y00932*
X00728Y00932*
X00728Y00932*
X00728Y00932*
X00728Y00931*
X00729Y00931*
X00729Y00931*
X00729Y00931*
X0073Y00931*
X0073Y0093*
X0073Y0093*
X0073Y0093*
X00731Y0093*
X00731Y0093*
X00731Y0093*
X00732*
X00732Y0093*
X00733Y0093*
X00733Y0093*
X00733Y0093*
X00734Y0093*
X00734Y00931*
X00734Y00931*
X00734Y00931*
X00735Y00931*
X00735Y00931*
X00735Y00932*
X00735Y00932*
X00736Y00932*
X00736Y00932*
X00736Y00933*
X00736Y00933*
X00736Y00933*
X00736Y00934*
X00736Y00934*
X00737Y00934*
X00737Y00935*
X00737Y00935*
X00563D02*
D01*
X00563Y00935*
X00563Y00936*
X00563Y00936*
X00563Y00936*
X00563Y00937*
X00563Y00937*
X00563Y00937*
X00563Y00938*
X00562Y00938*
X00562Y00938*
X00562Y00938*
X00562Y00939*
X00561Y00939*
X00561Y00939*
X00561Y00939*
X00561Y00939*
X0056Y00939*
X0056Y0094*
X0056Y0094*
X00559Y0094*
X00559Y0094*
X00559Y0094*
X00558*
X00558Y0094*
X00558Y0094*
X00557Y0094*
X00557Y0094*
X00557Y00939*
X00556Y00939*
X00556Y00939*
X00556Y00939*
X00555Y00939*
X00555Y00939*
X00555Y00938*
X00555Y00938*
X00554Y00938*
X00554Y00938*
X00554Y00937*
X00554Y00937*
X00554Y00937*
X00554Y00936*
X00554Y00936*
X00554Y00936*
X00554Y00935*
X00554Y00935*
X00554Y00935*
X00554Y00934*
X00554Y00934*
X00554Y00934*
X00554Y00933*
X00554Y00933*
X00554Y00933*
X00554Y00932*
X00554Y00932*
X00555Y00932*
X00555Y00932*
X00555Y00931*
X00555Y00931*
X00556Y00931*
X00556Y00931*
X00556Y00931*
X00557Y0093*
X00557Y0093*
X00557Y0093*
X00558Y0093*
X00558Y0093*
X00558Y0093*
X00559*
X00559Y0093*
X00559Y0093*
X0056Y0093*
X0056Y0093*
X0056Y0093*
X00561Y00931*
X00561Y00931*
X00561Y00931*
X00561Y00931*
X00562Y00931*
X00562Y00932*
X00562Y00932*
X00562Y00932*
X00563Y00932*
X00563Y00933*
X00563Y00933*
X00563Y00933*
X00563Y00934*
X00563Y00934*
X00563Y00934*
X00563Y00935*
X00563Y00935*
X00034D02*
D01*
X00034Y00935*
X00034Y00936*
X00034Y00936*
X00034Y00936*
X00034Y00937*
X00034Y00937*
X00033Y00937*
X00033Y00938*
X00033Y00938*
X00033Y00938*
X00033Y00938*
X00032Y00939*
X00032Y00939*
X00032Y00939*
X00032Y00939*
X00031Y00939*
X00031Y00939*
X00031Y0094*
X0003Y0094*
X0003Y0094*
X0003Y0094*
X00029Y0094*
X00029*
X00029Y0094*
X00028Y0094*
X00028Y0094*
X00028Y0094*
X00027Y00939*
X00027Y00939*
X00027Y00939*
X00026Y00939*
X00026Y00939*
X00026Y00939*
X00026Y00938*
X00025Y00938*
X00025Y00938*
X00025Y00938*
X00025Y00937*
X00025Y00937*
X00025Y00937*
X00024Y00936*
X00024Y00936*
X00024Y00936*
X00024Y00935*
X00024Y00935*
X00024Y00935*
X00024Y00934*
X00024Y00934*
X00024Y00934*
X00025Y00933*
X00025Y00933*
X00025Y00933*
X00025Y00932*
X00025Y00932*
X00025Y00932*
X00026Y00932*
X00026Y00931*
X00026Y00931*
X00026Y00931*
X00027Y00931*
X00027Y00931*
X00027Y0093*
X00028Y0093*
X00028Y0093*
X00028Y0093*
X00029Y0093*
X00029Y0093*
X00029*
X0003Y0093*
X0003Y0093*
X0003Y0093*
X00031Y0093*
X00031Y0093*
X00031Y00931*
X00032Y00931*
X00032Y00931*
X00032Y00931*
X00032Y00931*
X00033Y00932*
X00033Y00932*
X00033Y00932*
X00033Y00932*
X00033Y00933*
X00034Y00933*
X00034Y00933*
X00034Y00934*
X00034Y00934*
X00034Y00934*
X00034Y00935*
X00034Y00935*
X00395D02*
D01*
X00395Y00935*
X00395Y00936*
X00395Y00936*
X00395Y00936*
X00394Y00937*
X00394Y00937*
X00394Y00937*
X00394Y00938*
X00394Y00938*
X00394Y00938*
X00393Y00938*
X00393Y00939*
X00393Y00939*
X00393Y00939*
X00392Y00939*
X00392Y00939*
X00392Y00939*
X00391Y0094*
X00391Y0094*
X00391Y0094*
X0039Y0094*
X0039Y0094*
X0039*
X00389Y0094*
X00389Y0094*
X00389Y0094*
X00388Y0094*
X00388Y00939*
X00388Y00939*
X00387Y00939*
X00387Y00939*
X00387Y00939*
X00387Y00939*
X00386Y00938*
X00386Y00938*
X00386Y00938*
X00386Y00938*
X00386Y00937*
X00385Y00937*
X00385Y00937*
X00385Y00936*
X00385Y00936*
X00385Y00936*
X00385Y00935*
X00385Y00935*
X00385Y00935*
X00385Y00934*
X00385Y00934*
X00385Y00934*
X00385Y00933*
X00385Y00933*
X00386Y00933*
X00386Y00932*
X00386Y00932*
X00386Y00932*
X00386Y00932*
X00387Y00931*
X00387Y00931*
X00387Y00931*
X00387Y00931*
X00388Y00931*
X00388Y0093*
X00388Y0093*
X00389Y0093*
X00389Y0093*
X00389Y0093*
X0039Y0093*
X0039*
X0039Y0093*
X00391Y0093*
X00391Y0093*
X00391Y0093*
X00392Y0093*
X00392Y00931*
X00392Y00931*
X00393Y00931*
X00393Y00931*
X00393Y00931*
X00393Y00932*
X00394Y00932*
X00394Y00932*
X00394Y00932*
X00394Y00933*
X00394Y00933*
X00394Y00933*
X00395Y00934*
X00395Y00934*
X00395Y00934*
X00395Y00935*
X00395Y00935*
X0021D02*
D01*
X0021Y00935*
X0021Y00936*
X0021Y00936*
X0021Y00936*
X00209Y00937*
X00209Y00937*
X00209Y00937*
X00209Y00938*
X00209Y00938*
X00209Y00938*
X00208Y00938*
X00208Y00939*
X00208Y00939*
X00208Y00939*
X00207Y00939*
X00207Y00939*
X00207Y00939*
X00206Y0094*
X00206Y0094*
X00206Y0094*
X00205Y0094*
X00205Y0094*
X00205*
X00204Y0094*
X00204Y0094*
X00204Y0094*
X00203Y0094*
X00203Y00939*
X00203Y00939*
X00202Y00939*
X00202Y00939*
X00202Y00939*
X00202Y00939*
X00201Y00938*
X00201Y00938*
X00201Y00938*
X00201Y00938*
X002Y00937*
X002Y00937*
X002Y00937*
X002Y00936*
X002Y00936*
X002Y00936*
X002Y00935*
X002Y00935*
X002Y00935*
X002Y00934*
X002Y00934*
X002Y00934*
X002Y00933*
X002Y00933*
X002Y00933*
X00201Y00932*
X00201Y00932*
X00201Y00932*
X00201Y00932*
X00202Y00931*
X00202Y00931*
X00202Y00931*
X00202Y00931*
X00203Y00931*
X00203Y0093*
X00203Y0093*
X00204Y0093*
X00204Y0093*
X00204Y0093*
X00205Y0093*
X00205*
X00205Y0093*
X00206Y0093*
X00206Y0093*
X00206Y0093*
X00207Y0093*
X00207Y00931*
X00207Y00931*
X00208Y00931*
X00208Y00931*
X00208Y00931*
X00208Y00932*
X00209Y00932*
X00209Y00932*
X00209Y00932*
X00209Y00933*
X00209Y00933*
X00209Y00933*
X0021Y00934*
X0021Y00934*
X0021Y00934*
X0021Y00935*
X0021Y00935*
X01755Y01329D02*
D01*
X01755Y01329*
X01755Y0133*
X01755Y0133*
X01755Y0133*
X01755Y01331*
X01755Y01331*
X01755Y01331*
X01755Y01332*
X01754Y01332*
X01754Y01332*
X01754Y01332*
X01754Y01333*
X01753Y01333*
X01753Y01333*
X01753Y01333*
X01753Y01333*
X01752Y01334*
X01752Y01334*
X01752Y01334*
X01751Y01334*
X01751Y01334*
X01751Y01334*
X0175*
X0175Y01334*
X0175Y01334*
X01749Y01334*
X01749Y01334*
X01749Y01334*
X01748Y01333*
X01748Y01333*
X01748Y01333*
X01747Y01333*
X01747Y01333*
X01747Y01332*
X01747Y01332*
X01746Y01332*
X01746Y01332*
X01746Y01331*
X01746Y01331*
X01746Y01331*
X01746Y0133*
X01746Y0133*
X01745Y0133*
X01745Y01329*
X01745Y01329*
X01745Y01329*
X01745Y01328*
X01746Y01328*
X01746Y01328*
X01746Y01327*
X01746Y01327*
X01746Y01327*
X01746Y01326*
X01746Y01326*
X01747Y01326*
X01747Y01326*
X01747Y01325*
X01747Y01325*
X01748Y01325*
X01748Y01325*
X01748Y01325*
X01749Y01325*
X01749Y01324*
X01749Y01324*
X0175Y01324*
X0175Y01324*
X0175Y01324*
X01751*
X01751Y01324*
X01751Y01324*
X01752Y01324*
X01752Y01324*
X01752Y01325*
X01753Y01325*
X01753Y01325*
X01753Y01325*
X01753Y01325*
X01754Y01325*
X01754Y01326*
X01754Y01326*
X01754Y01326*
X01755Y01326*
X01755Y01327*
X01755Y01327*
X01755Y01327*
X01755Y01328*
X01755Y01328*
X01755Y01328*
X01755Y01329*
X01755Y01329*
X02145Y01429D02*
D01*
X02145Y01429*
X02145Y0143*
X02145Y0143*
X02145Y0143*
X02145Y01431*
X02145Y01431*
X02145Y01431*
X02145Y01432*
X02144Y01432*
X02144Y01432*
X02144Y01432*
X02144Y01433*
X02143Y01433*
X02143Y01433*
X02143Y01433*
X02143Y01433*
X02142Y01434*
X02142Y01434*
X02142Y01434*
X02141Y01434*
X02141Y01434*
X02141Y01434*
X0214*
X0214Y01434*
X0214Y01434*
X02139Y01434*
X02139Y01434*
X02139Y01434*
X02138Y01433*
X02138Y01433*
X02138Y01433*
X02137Y01433*
X02137Y01433*
X02137Y01432*
X02137Y01432*
X02136Y01432*
X02136Y01432*
X02136Y01431*
X02136Y01431*
X02136Y01431*
X02136Y0143*
X02136Y0143*
X02135Y0143*
X02135Y01429*
X02135Y01429*
X02135Y01429*
X02135Y01428*
X02136Y01428*
X02136Y01428*
X02136Y01427*
X02136Y01427*
X02136Y01427*
X02136Y01426*
X02136Y01426*
X02137Y01426*
X02137Y01426*
X02137Y01425*
X02137Y01425*
X02138Y01425*
X02138Y01425*
X02138Y01425*
X02139Y01425*
X02139Y01424*
X02139Y01424*
X0214Y01424*
X0214Y01424*
X0214Y01424*
X02141*
X02141Y01424*
X02141Y01424*
X02142Y01424*
X02142Y01424*
X02142Y01425*
X02143Y01425*
X02143Y01425*
X02143Y01425*
X02143Y01425*
X02144Y01425*
X02144Y01426*
X02144Y01426*
X02144Y01426*
X02145Y01426*
X02145Y01427*
X02145Y01427*
X02145Y01427*
X02145Y01428*
X02145Y01428*
X02145Y01428*
X02145Y01429*
X02145Y01429*
X02304Y01665D02*
D01*
X02304Y01666*
X02304Y01666*
X02304Y01666*
X02304Y01667*
X02304Y01667*
X02303Y01667*
X02303Y01668*
X02303Y01668*
X02303Y01668*
X02303Y01668*
X02302Y01669*
X02302Y01669*
X02302Y01669*
X02302Y01669*
X02301Y0167*
X02301Y0167*
X02301Y0167*
X023Y0167*
X023Y0167*
X023Y0167*
X02299Y0167*
X02299Y0167*
X02299*
X02298Y0167*
X02298Y0167*
X02298Y0167*
X02297Y0167*
X02297Y0167*
X02297Y0167*
X02296Y0167*
X02296Y01669*
X02296Y01669*
X02296Y01669*
X02295Y01669*
X02295Y01668*
X02295Y01668*
X02295Y01668*
X02295Y01668*
X02294Y01667*
X02294Y01667*
X02294Y01667*
X02294Y01666*
X02294Y01666*
X02294Y01666*
X02294Y01665*
X02294Y01665*
X02294Y01665*
X02294Y01664*
X02294Y01664*
X02294Y01664*
X02294Y01663*
X02295Y01663*
X02295Y01663*
X02295Y01662*
X02295Y01662*
X02295Y01662*
X02296Y01662*
X02296Y01661*
X02296Y01661*
X02296Y01661*
X02297Y01661*
X02297Y01661*
X02297Y01661*
X02298Y01661*
X02298Y0166*
X02298Y0166*
X02299Y0166*
X02299*
X02299Y0166*
X023Y0166*
X023Y01661*
X023Y01661*
X02301Y01661*
X02301Y01661*
X02301Y01661*
X02302Y01661*
X02302Y01661*
X02302Y01662*
X02302Y01662*
X02303Y01662*
X02303Y01662*
X02303Y01663*
X02303Y01663*
X02303Y01663*
X02304Y01664*
X02304Y01664*
X02304Y01664*
X02304Y01665*
X02304Y01665*
X02304Y01665*
X01965Y00771D02*
D01*
X01965Y00771*
X01965Y00772*
X01965Y00772*
X01965Y00772*
X01965Y00773*
X01965Y00773*
X01964Y00773*
X01964Y00774*
X01964Y00774*
X01964Y00774*
X01964Y00774*
X01963Y00775*
X01963Y00775*
X01963Y00775*
X01962Y00775*
X01962Y00775*
X01962Y00776*
X01962Y00776*
X01961Y00776*
X01961Y00776*
X01961Y00776*
X0196Y00776*
X0196*
X01959Y00776*
X01959Y00776*
X01959Y00776*
X01958Y00776*
X01958Y00776*
X01958Y00775*
X01958Y00775*
X01957Y00775*
X01957Y00775*
X01957Y00775*
X01956Y00774*
X01956Y00774*
X01956Y00774*
X01956Y00774*
X01956Y00773*
X01956Y00773*
X01955Y00773*
X01955Y00772*
X01955Y00772*
X01955Y00772*
X01955Y00771*
X01955Y00771*
X01955Y00771*
X01955Y0077*
X01955Y0077*
X01955Y0077*
X01955Y00769*
X01956Y00769*
X01956Y00769*
X01956Y00768*
X01956Y00768*
X01956Y00768*
X01956Y00768*
X01957Y00767*
X01957Y00767*
X01957Y00767*
X01958Y00767*
X01958Y00767*
X01958Y00766*
X01958Y00766*
X01959Y00766*
X01959Y00766*
X01959Y00766*
X0196Y00766*
X0196*
X01961Y00766*
X01961Y00766*
X01961Y00766*
X01962Y00766*
X01962Y00766*
X01962Y00767*
X01962Y00767*
X01963Y00767*
X01963Y00767*
X01963Y00767*
X01964Y00768*
X01964Y00768*
X01964Y00768*
X01964Y00768*
X01964Y00769*
X01965Y00769*
X01965Y00769*
X01965Y0077*
X01965Y0077*
X01965Y0077*
X01965Y00771*
X01965Y00771*
X01905Y01429D02*
D01*
X01905Y01429*
X01905Y0143*
X01905Y0143*
X01905Y0143*
X01905Y01431*
X01905Y01431*
X01905Y01431*
X01905Y01432*
X01904Y01432*
X01904Y01432*
X01904Y01432*
X01904Y01433*
X01903Y01433*
X01903Y01433*
X01903Y01433*
X01903Y01433*
X01902Y01434*
X01902Y01434*
X01902Y01434*
X01901Y01434*
X01901Y01434*
X01901Y01434*
X019*
X019Y01434*
X019Y01434*
X01899Y01434*
X01899Y01434*
X01899Y01434*
X01898Y01433*
X01898Y01433*
X01898Y01433*
X01897Y01433*
X01897Y01433*
X01897Y01432*
X01897Y01432*
X01896Y01432*
X01896Y01432*
X01896Y01431*
X01896Y01431*
X01896Y01431*
X01896Y0143*
X01896Y0143*
X01895Y0143*
X01895Y01429*
X01895Y01429*
X01895Y01429*
X01895Y01428*
X01896Y01428*
X01896Y01428*
X01896Y01427*
X01896Y01427*
X01896Y01427*
X01896Y01426*
X01896Y01426*
X01897Y01426*
X01897Y01426*
X01897Y01425*
X01897Y01425*
X01898Y01425*
X01898Y01425*
X01898Y01425*
X01899Y01425*
X01899Y01424*
X01899Y01424*
X019Y01424*
X019Y01424*
X019Y01424*
X01901*
X01901Y01424*
X01901Y01424*
X01902Y01424*
X01902Y01424*
X01902Y01425*
X01903Y01425*
X01903Y01425*
X01903Y01425*
X01903Y01425*
X01904Y01425*
X01904Y01426*
X01904Y01426*
X01904Y01426*
X01905Y01426*
X01905Y01427*
X01905Y01427*
X01905Y01427*
X01905Y01428*
X01905Y01428*
X01905Y01428*
X01905Y01429*
X01905Y01429*
G54D52*
X02945Y0073D02*
Y00769D01*
X02925*
X02918Y00762*
Y00749*
X02925Y00743*
X02945*
X02931D02*
X02918Y0073D01*
X02879D02*
X02905D01*
X02879Y00756*
Y00762*
X02885Y00769*
X02899*
X02905Y00762*
X01885Y00849D02*
Y00816D01*
X01878Y0081*
X01865*
X01858Y00816*
Y00849*
X01825Y0081D02*
Y00849D01*
X01845Y00829*
X01819*
X02771Y0103D02*
Y00998D01*
X02764Y00991*
X02751*
X02745Y00998*
Y0103*
X02705Y00991D02*
X02732D01*
X02705Y01017*
Y01024*
X02712Y0103*
X02725*
X02732Y01024*
X01245Y0111D02*
X01284D01*
Y01129*
X01277Y01136*
X01264*
X01258Y01129*
Y0111*
Y01123D02*
X01245Y01136D01*
Y01175D02*
Y01149D01*
X01271Y01175*
X01277*
X01284Y01169*
Y01155*
X01277Y01149*
X01284Y01214D02*
Y01188D01*
X01264*
X01271Y01201*
Y01208*
X01264Y01214*
X01251*
X01245Y01208*
Y01195*
X01251Y01188*
X01315Y0111D02*
X01354D01*
Y01129*
X01347Y01136*
X01334*
X01328Y01129*
Y0111*
Y01123D02*
X01315Y01136D01*
Y01175D02*
Y01149D01*
X01341Y01175*
X01347*
X01354Y01169*
Y01155*
X01347Y01149*
X01315Y01208D02*
X01354D01*
X01334Y01188*
Y01214*
X00815Y0111D02*
X00854D01*
Y01129*
X00847Y01136*
X00834*
X00828Y01129*
Y0111*
Y01123D02*
X00815Y01136D01*
Y01175D02*
Y01149D01*
X00841Y01175*
X00847*
X00854Y01169*
Y01155*
X00847Y01149*
Y01188D02*
X00854Y01195D01*
Y01208*
X00847Y01214*
X00841*
X00834Y01208*
Y01201*
Y01208*
X00828Y01214*
X00821*
X00815Y01208*
Y01195*
X00821Y01188*
X0089Y0111D02*
X00929D01*
Y01129*
X00922Y01136*
X00909*
X00903Y01129*
Y0111*
Y01123D02*
X0089Y01136D01*
Y01175D02*
Y01149D01*
X00916Y01175*
X00922*
X00929Y01169*
Y01155*
X00922Y01149*
X0089Y01214D02*
Y01188D01*
X00916Y01214*
X00922*
X00929Y01208*
Y01195*
X00922Y01188*
X0038Y0111D02*
X00419D01*
Y01129*
X00412Y01136*
X00399*
X00393Y01129*
Y0111*
Y01123D02*
X0038Y01136D01*
Y01175D02*
Y01149D01*
X00406Y01175*
X00412*
X00419Y01169*
Y01155*
X00412Y01149*
X0038Y01188D02*
Y01201D01*
Y01195*
X00419*
X00412Y01188*
X0045Y0111D02*
X00489D01*
Y01129*
X00482Y01136*
X00469*
X00463Y01129*
Y0111*
Y01123D02*
X0045Y01136D01*
Y01175D02*
Y01149D01*
X00476Y01175*
X00482*
X00489Y01169*
Y01155*
X00482Y01149*
Y01188D02*
X00489Y01195D01*
Y01208*
X00482Y01214*
X00456*
X0045Y01208*
Y01195*
X00456Y01188*
X00482*
X00445Y0058D02*
X00484D01*
Y00599*
X00477Y00606*
X00464*
X00458Y00599*
Y0058*
Y00593D02*
X00445Y00606D01*
Y00619D02*
Y00632D01*
Y00625*
X00484*
X00477Y00619*
Y00652D02*
X00484Y00658D01*
Y00671*
X00477Y00678*
X00471*
X00464Y00671*
Y00665*
Y00671*
X00458Y00678*
X00451*
X00445Y00671*
Y00658*
X00451Y00652*
X00495Y01055D02*
Y01094D01*
X00475*
X00468Y01087*
Y01074*
X00475Y01068*
X00495*
X00481D02*
X00468Y01055D01*
X00455Y01087D02*
X00449Y01094D01*
X00435*
X00429Y01087*
Y01081*
X00435Y01074*
X00429Y01068*
Y01061*
X00435Y01055*
X00449*
X00455Y01061*
Y01068*
X00449Y01074*
X00455Y01081*
Y01087*
X00449Y01074D02*
X00435D01*
X0026Y0058D02*
X00299D01*
Y00599*
X00292Y00606*
X00279*
X00273Y00599*
Y0058*
Y00593D02*
X0026Y00606D01*
Y00619D02*
Y00632D01*
Y00625*
X00299*
X00292Y00619*
X00266Y00652D02*
X0026Y00658D01*
Y00671*
X00266Y00678*
X00292*
X00299Y00671*
Y00658*
X00292Y00652*
X00286*
X00279Y00658*
Y00678*
X00325Y0106D02*
Y01099D01*
X00305*
X00298Y01092*
Y01079*
X00305Y01073*
X00325*
X00311D02*
X00298Y0106D01*
X00285D02*
X00272D01*
X00279*
Y01099*
X00285Y01092*
X00252Y01099D02*
X00226D01*
Y01092*
X00252Y01066*
Y0106*
X0008Y00575D02*
X00119D01*
Y00594*
X00112Y00601*
X00099*
X00093Y00594*
Y00575*
Y00588D02*
X0008Y00601D01*
Y00614D02*
Y00627D01*
Y0062*
X00119*
X00112Y00614*
X0008Y00673D02*
Y00647D01*
X00106Y00673*
X00112*
X00119Y00666*
Y00653*
X00112Y00647*
X0013Y0106D02*
Y01099D01*
X0011*
X00103Y01092*
Y01079*
X0011Y01073*
X0013*
X00116D02*
X00103Y0106D01*
X0009Y01099D02*
X00064D01*
Y01092*
X0009Y01066*
Y0106*
X0061Y0059D02*
X00649D01*
Y00609*
X00642Y00616*
X00629*
X00623Y00609*
Y0059*
Y00603D02*
X0061Y00616D01*
Y00629D02*
Y00642D01*
Y00635*
X00649*
X00642Y00629*
X0061Y00662D02*
Y00675D01*
Y00668*
X00649*
X00642Y00662*
X0073Y01055D02*
Y01094D01*
X0071*
X00703Y01087*
Y01074*
X0071Y01068*
X0073*
X00716D02*
X00703Y01055D01*
X00664Y01094D02*
X00677Y01087D01*
X0069Y01074*
Y01061*
X00684Y01055*
X0067*
X00664Y01061*
Y01068*
X0067Y01074*
X0069*
X0212Y0126D02*
Y01299D01*
X021*
X02093Y01292*
Y01279*
X021Y01273*
X0212*
X02106D02*
X02093Y0126D01*
X0208D02*
X02067D01*
X02074*
Y01299*
X0208Y01292*
X02021Y01299D02*
X02034Y01292D01*
X02047Y01279*
Y01266*
X02041Y0126*
X02028*
X02021Y01266*
Y01273*
X02028Y01279*
X02047*
X00785Y0058D02*
X00824D01*
Y00599*
X00817Y00606*
X00804*
X00798Y00599*
Y0058*
Y00593D02*
X00785Y00606D01*
Y00619D02*
Y00632D01*
Y00625*
X00824*
X00817Y00619*
Y00652D02*
X00824Y00658D01*
Y00671*
X00817Y00678*
X00791*
X00785Y00671*
Y00658*
X00791Y00652*
X00817*
X00835Y0106D02*
Y01099D01*
X00815*
X00808Y01092*
Y01079*
X00815Y01073*
X00835*
X00821D02*
X00808Y0106D01*
X00769Y01099D02*
X00795D01*
Y01079*
X00782Y01086*
X00775*
X00769Y01079*
Y01066*
X00775Y0106*
X00789*
X00795Y01066*
X0173Y0116D02*
Y01199D01*
X0171*
X01703Y01192*
Y01179*
X0171Y01173*
X0173*
X01716D02*
X01703Y0116D01*
X0169D02*
X01677D01*
X01684*
Y01199*
X0169Y01192*
X01631Y01199D02*
X01657D01*
Y01179*
X01644Y01186*
X01638*
X01631Y01179*
Y01166*
X01638Y0116*
X01651*
X01657Y01166*
X00955Y00615D02*
X00994D01*
Y00634*
X00987Y00641*
X00974*
X00968Y00634*
Y00615*
Y00628D02*
X00955Y00641D01*
X00961Y00654D02*
X00955Y0066D01*
Y00674*
X00961Y0068*
X00987*
X00994Y00674*
Y0066*
X00987Y00654*
X00981*
X00974Y0066*
Y0068*
X01005Y01055D02*
Y01094D01*
X00985*
X00978Y01087*
Y01074*
X00985Y01068*
X01005*
X00991D02*
X00978Y01055D01*
X00945D02*
Y01094D01*
X00965Y01074*
X00939*
X0188Y01265D02*
Y01304D01*
X0186*
X01853Y01297*
Y01284*
X0186Y01278*
X0188*
X01866D02*
X01853Y01265D01*
X0184D02*
X01827D01*
X01834*
Y01304*
X0184Y01297*
X01788Y01265D02*
Y01304D01*
X01807Y01284*
X01781*
X00388Y00816D02*
Y00842D01*
X00395Y00849*
X00408*
X00415Y00842*
Y00816*
X00408Y0081*
X00395*
X00401Y00823D02*
X00388Y0081D01*
X00395D02*
X00388Y00816D01*
X00349Y00849D02*
X00375D01*
Y00829*
X00362Y00836*
X00355*
X00349Y00829*
Y00816*
X00355Y0081*
X00369*
X00375Y00816*
X00203D02*
Y00842D01*
X0021Y00849*
X00223*
X0023Y00842*
Y00816*
X00223Y0081*
X0021*
X00216Y00823D02*
X00203Y0081D01*
X0021D02*
X00203Y00816D01*
X0019D02*
X00184Y0081D01*
X0017*
X00164Y00816*
Y00842*
X0017Y00849*
X00184*
X0019Y00842*
Y00836*
X00184Y00829*
X00164*
X00029Y00746D02*
X00055D01*
X00062Y00739*
Y00726*
X00055Y0072*
X00029*
X00023Y00726*
Y00739*
X00036Y00733D02*
X00023Y00746D01*
Y00739D02*
X00029Y00746D01*
X00023Y00779D02*
X00062D01*
X00042Y00759*
Y00785*
X00558Y00816D02*
Y00842D01*
X00565Y00849*
X00578*
X00585Y00842*
Y00816*
X00578Y0081*
X00565*
X00571Y00823D02*
X00558Y0081D01*
X00565D02*
X00558Y00816D01*
X00545Y00842D02*
X00539Y00849D01*
X00525*
X00519Y00842*
Y00836*
X00525Y00829*
X00532*
X00525*
X00519Y00823*
Y00816*
X00525Y0081*
X00539*
X00545Y00816*
X02203Y01406D02*
Y01432D01*
X0221Y01439*
X02223*
X0223Y01432*
Y01406*
X02223Y014*
X0221*
X02216Y01413D02*
X02203Y014D01*
X0221D02*
X02203Y01406D01*
X0219Y01432D02*
X02184Y01439D01*
X0217*
X02164Y01432*
Y01426*
X0217Y01419*
X02164Y01413*
Y01406*
X0217Y014*
X02184*
X0219Y01406*
Y01413*
X02184Y01419*
X0219Y01426*
Y01432*
X02184Y01419D02*
X0217D01*
X00728Y00816D02*
Y00842D01*
X00735Y00849*
X00748*
X00755Y00842*
Y00816*
X00748Y0081*
X00735*
X00741Y00823D02*
X00728Y0081D01*
X00735D02*
X00728Y00816D01*
X00689Y0081D02*
X00715D01*
X00689Y00836*
Y00842*
X00695Y00849*
X00709*
X00715Y00842*
X01616Y01436D02*
Y01462D01*
X01622Y01469*
X01636*
X01642Y01462*
Y01436*
X01636Y0143*
X01622*
X01629Y01443D02*
X01616Y0143D01*
X01622D02*
X01616Y01436D01*
X01603Y01469D02*
X01577D01*
Y01462*
X01603Y01436*
Y0143*
X00898Y00816D02*
Y00842D01*
X00905Y00849*
X00918*
X00925Y00842*
Y00816*
X00918Y0081*
X00905*
X00911Y00823D02*
X00898Y0081D01*
X00905D02*
X00898Y00816D01*
X00885Y0081D02*
X00872D01*
X00879*
Y00849*
X00885Y00842*
X01878Y01576D02*
Y01602D01*
X01884Y01608*
X01897*
X01904Y01602*
Y01576*
X01897Y01569*
X01884*
X01891Y01582D02*
X01878Y01569D01*
X01884D02*
X01878Y01576D01*
X01838Y01608D02*
X01852Y01602D01*
X01865Y01589*
Y01576*
X01858Y01569*
X01845*
X01838Y01576*
Y01582*
X01845Y01589*
X01865*
X02251Y00356D02*
X02264D01*
X02257*
Y00324*
X02264Y00317*
X0227*
X02277Y00324*
X02211Y00356D02*
X02238D01*
Y00337*
X02225Y00343*
X02218*
X02211Y00337*
Y00324*
X02218Y00317*
X02231*
X02238Y00324*
X02328Y01989D02*
Y0195D01*
X02308*
X02302Y01956*
Y01983*
X02308Y01989*
X02328*
X02288Y0195D02*
X02275D01*
X02282*
Y01989*
X02288Y01983*
X01483Y01047D02*
X0149Y01054D01*
X01503*
X0151Y01047*
Y01021*
X01503Y01015*
X0149*
X01483Y01021*
X0147Y01015D02*
X01457D01*
X01464*
Y01054*
X0147Y01047*
X01411Y01054D02*
X01424Y01047D01*
X01437Y01034*
Y01021*
X01431Y01015*
X01418*
X01411Y01021*
Y01028*
X01418Y01034*
X01437*
X01035Y01142D02*
X01041Y01149D01*
X01054*
X01061Y01142*
Y01116*
X01054Y0111*
X01041*
X01035Y01116*
X01022Y0111D02*
X01009D01*
X01015*
Y01149*
X01022Y01142*
X00989D02*
X00982Y01149D01*
X00969*
X00963Y01142*
Y01136*
X00969Y01129*
X00976*
X00969*
X00963Y01123*
Y01116*
X00969Y0111*
X00982*
X00989Y01116*
X00613Y01532D02*
X0062Y01539D01*
X00633*
X0064Y01532*
Y01506*
X00633Y015*
X0062*
X00613Y01506*
X006Y015D02*
X00587D01*
X00594*
Y01539*
X006Y01532*
X00567D02*
X00561Y01539D01*
X00548*
X00541Y01532*
Y01506*
X00548Y015*
X00561*
X00567Y01506*
Y01532*
X01207Y01136D02*
X01214Y01129D01*
Y01116*
X01207Y0111*
X01181*
X01175Y01116*
Y01129*
X01181Y01136*
X01175Y01149D02*
Y01162D01*
Y01155*
X01214*
X01207Y01149*
X01214Y01208D02*
Y01182D01*
X01194*
X01201Y01195*
Y01201*
X01194Y01208*
X01181*
X01175Y01201*
Y01188*
X01181Y01182*
X00777Y01136D02*
X00784Y01129D01*
Y01116*
X00777Y0111*
X00751*
X00745Y01116*
Y01129*
X00751Y01136*
X00745Y01149D02*
Y01162D01*
Y01155*
X00784*
X00777Y01149*
X00745Y01208D02*
Y01182D01*
X00771Y01208*
X00777*
X00784Y01201*
Y01188*
X00777Y01182*
X00342Y01136D02*
X00349Y01129D01*
Y01116*
X00342Y0111*
X00316*
X0031Y01116*
Y01129*
X00316Y01136*
Y01149D02*
X0031Y01155D01*
Y01169*
X00316Y01175*
X00342*
X00349Y01169*
Y01155*
X00342Y01149*
X00336*
X00329Y01155*
Y01175*
X02244Y0096D02*
X0225Y00966D01*
X02263*
X0227Y0096*
Y00934*
X02263Y00927*
X0225*
X02244Y00934*
X02204Y00966D02*
X02218Y0096D01*
X02231Y00947*
Y00934*
X02224Y00927*
X02211*
X02204Y00934*
Y0094*
X02211Y00947*
X02231*
X02628Y01067D02*
X02635Y01074D01*
X02648*
X02655Y01067*
Y01041*
X02648Y01035*
X02635*
X02628Y01041*
X02589Y01074D02*
X02615D01*
Y01054*
X02602Y01061*
X02595*
X02589Y01054*
Y01041*
X02595Y01035*
X02609*
X02615Y01041*
X02424Y00975D02*
X0243Y00981D01*
X02443*
X0245Y00975*
Y00949*
X02443Y00942*
X0243*
X02424Y00949*
X02391Y00942D02*
Y00981D01*
X02411Y00962*
X02384*
M02*