%FSTAX23Y23*%
%MOIN*%
%SFA1B1*%

%IPPOS*%
%ADD10C,0.007870*%
%ADD50C,0.010000*%
%ADD51C,0.009840*%
%ADD52C,0.005910*%
%LNrpiadapterpcb-1*%
%LPD*%
G36*
X0032Y01029D02*
X00321Y01028D01*
X00321Y01028*
X00326Y01*
X00326Y00999*
X00327Y00999*
X0035Y00989*
X00351Y00989*
X00352Y00989*
X00352Y00989*
X00375Y01005*
X00376Y01005*
X00377Y01005*
X00377Y01005*
X00397Y00985*
X00398Y00984*
X00397Y00983*
X00397Y00983*
X00381Y00959*
X00381Y00959*
X00381Y00958*
X00391Y00935*
X00391Y00934*
X00392Y00934*
X00392Y00934*
X0042Y00928*
X00421Y00928*
X00421Y00927*
X00421*
X00421Y00898*
X00421Y00897*
X0042Y00897*
Y00897*
X00392Y00892*
X00391Y00891*
X00391Y00891*
X00381Y00867*
X00381Y00867*
X00381Y00866*
X00381Y00866*
X00397Y00842*
X00398Y00842*
X00397Y0084*
X00397Y00841*
X00377Y0082*
X00376Y0082*
X00375Y0082*
X00375Y0082*
X00352Y00836*
X00351Y00837*
X0035Y00836*
X0034Y00832*
X00339Y00832*
X00338Y00832*
X00338Y00833*
X00318Y00881*
X00318Y00882*
X00318Y00883*
X00319Y00883*
X00319Y00883*
X00322Y00884*
X00328Y00889*
X00334Y00896*
X00337Y00904*
X00338Y00913*
X00337Y00921*
X00334Y00929*
X00328Y00936*
X00322Y00941*
X00314Y00945*
X00305Y00946*
X00296Y00945*
X00288Y00941*
X00282Y00936*
X00276Y00929*
X00273Y00921*
X00272Y00913*
X00273Y00904*
X00276Y00896*
X00282Y00889*
X00288Y00884*
X00291Y00883*
X00291Y00883*
X00292Y00883*
X00292Y00882*
X00292Y00881*
X00272Y00833*
X00272Y00832*
X00271Y00832*
X0027Y00832*
X0026Y00836*
X00259Y00837*
X00258Y00836*
X00258Y00836*
X00235Y0082*
X00234Y0082*
X00233Y0082*
X00233Y0082*
X00213Y0084*
X00212Y00842*
X00213Y00842*
X00213Y00842*
X00228Y00866*
X00229Y00867*
X00229Y00867*
X00219Y00891*
X00219Y00891*
X00218Y00892*
Y00892*
X0019Y00897*
X00189Y00897*
X00189Y00898*
X00189*
X00189Y00927*
X00189Y00928*
X0019Y00928*
X0019Y00928*
X00218Y00934*
X00219Y00934*
X00219Y00935*
X00229Y00958*
X00229Y00959*
X00228Y00959*
X00228Y00959*
X00213Y00983*
X00212Y00984*
X00213Y00985*
X00213Y00985*
X00233Y01005*
X00234Y01005*
X00235Y01005*
X00235Y01005*
X00258Y00989*
X00259Y00989*
X0026Y00989*
X00283Y00999*
X00284Y00999*
X00284Y01*
X00284Y01*
X00289Y01028*
X0029Y01029*
X00291Y01029*
Y01029*
X00319Y01029*
X0032Y01029*
G37*
G54D10*
X02502Y01233D02*
X02689D01*
X02502D02*
Y01546D01*
X02689*
Y01233D02*
Y01546D01*
X02643Y00179D02*
X02657D01*
X02643Y00211D02*
X02657D01*
X01405Y00735D02*
Y00835D01*
X01005Y00735D02*
X01405D01*
X01005D02*
Y00835D01*
X01405*
X01673Y00924D02*
X01687D01*
X01673Y00956D02*
X01687D01*
X02019Y00783D02*
Y01126D01*
X0209Y00783D02*
Y01126D01*
X02019D02*
X0209D01*
X02019Y00783D02*
X0209D01*
X02229Y01062D02*
Y01077D01*
X0226Y01062D02*
Y01077D01*
X02249Y00592D02*
Y00647D01*
X0213Y00592D02*
Y00647D01*
X02607Y0048D02*
X02622D01*
X02607Y00449D02*
X02622D01*
X02217Y00419D02*
X02232D01*
X02217Y0045D02*
X02232D01*
X01272Y01255D02*
Y01272D01*
X01527Y01257D02*
Y01274D01*
X00832Y01255D02*
Y01272D01*
X01087Y01257D02*
Y01274D01*
X00392Y01255D02*
Y01272D01*
X00647Y01257D02*
Y01274D01*
X02725Y01176D02*
Y01571D01*
X02955*
Y01176D02*
Y01571D01*
X02725Y01176D02*
X02955D01*
X02315Y00747D02*
Y00762D01*
X02284Y00747D02*
Y00762D01*
X02608Y00551D02*
X02622D01*
X02608Y00519D02*
X02622D01*
X01231Y00601D02*
Y00648D01*
X01031Y00601D02*
X01231D01*
X01031D02*
Y00648D01*
X00281Y00293D02*
Y00652D01*
X0208Y00293D02*
Y00652D01*
X00281Y00293D02*
X0208D01*
X00281Y00652D02*
X0208D01*
X01975Y02032D02*
Y02046D01*
X01794Y02032D02*
Y02046D01*
X01975Y02133D02*
Y02147D01*
X01794Y02133D02*
Y02147D01*
Y02032D02*
X01975D01*
X01794Y02147D02*
X01975D01*
X02728Y00098D02*
X02956D01*
X02728D02*
Y00393D01*
X02956*
Y00098D02*
Y00393D01*
X02957Y00509D02*
Y01001D01*
X02729D02*
X02957D01*
X02729Y00509D02*
Y01001D01*
Y00509D02*
X02957D01*
X00348Y01395D02*
X00362D01*
X00348Y01214D02*
X00362D01*
X00247Y01395D02*
X00261D01*
X00247Y01214D02*
X00261D01*
X00362D02*
Y01395D01*
X00247Y01214D02*
Y01395D01*
X00788D02*
X00802D01*
X00788Y01214D02*
X00802D01*
X00687Y01395D02*
X00701D01*
X00687Y01214D02*
X00701D01*
X00802D02*
Y01395D01*
X00687Y01214D02*
Y01395D01*
X01228D02*
X01242D01*
X01228Y01214D02*
X01242D01*
X01127Y01395D02*
X01141D01*
X01127Y01214D02*
X01141D01*
X01242D02*
Y01395D01*
X01127Y01214D02*
Y01395D01*
X00266Y0181D02*
X00671D01*
X00266Y01444D02*
Y0181D01*
Y01444D02*
X00671D01*
Y0181*
X00701D02*
X01106D01*
X00701Y01444D02*
Y0181D01*
Y01444D02*
X01106D01*
Y0181*
X01131D02*
X01536D01*
X01131Y01444D02*
Y0181D01*
Y01444D02*
X01536D01*
Y0181*
X02675Y016D02*
X0297D01*
X02675Y02D02*
X0297D01*
X02675Y016D02*
Y02D01*
X0297Y016D02*
Y02D01*
X02043Y01696D02*
X02271D01*
Y01401D02*
Y01696D01*
X02043Y01401D02*
X02271D01*
X02043D02*
Y01696D01*
X01803Y01698D02*
X02031D01*
Y01403D02*
Y01698D01*
X01803Y01403D02*
X02031D01*
X01803D02*
Y01698D01*
X01563D02*
X01791D01*
Y01403D02*
Y01698D01*
X01563Y01403D02*
X01791D01*
X01563D02*
Y01698D01*
X02745Y01115D02*
X02945D01*
X02745Y01015D02*
Y01115D01*
Y01015D02*
X02945D01*
Y01115*
G54D50*
X00626Y0203D02*
D01*
X00626Y02041*
X00625Y02052*
X00623Y02063*
X0062Y02074*
X00617Y02084*
X00613Y02095*
X00608Y02105*
X00602Y02114*
X00596Y02124*
X00589Y02132*
X00582Y02141*
X00573Y02148*
X00565Y02156*
X00556Y02162*
X00546Y02168*
X00537Y02173*
X00526Y02178*
X00516Y02182*
X00505Y02185*
X00494Y02187*
X00483Y02189*
X00472Y02189*
X00461*
X0045Y02189*
X00439Y02187*
X00428Y02185*
X00417Y02182*
X00406Y02178*
X00396Y02173*
X00386Y02168*
X00377Y02162*
X00368Y02156*
X00359Y02148*
X00351Y02141*
X00344Y02132*
X00337Y02124*
X00331Y02114*
X00325Y02105*
X0032Y02095*
X00316Y02084*
X00313Y02074*
X0031Y02063*
X00308Y02052*
X00307Y02041*
X00306Y0203*
X00307Y02018*
X00308Y02007*
X0031Y01996*
X00313Y01985*
X00316Y01975*
X0032Y01964*
X00325Y01954*
X00331Y01945*
X00337Y01935*
X00344Y01927*
X00351Y01918*
X00359Y01911*
X00368Y01903*
X00377Y01897*
X00386Y01891*
X00396Y01886*
X00406Y01881*
X00417Y01877*
X00428Y01874*
X00439Y01872*
X0045Y0187*
X00461Y0187*
X00472*
X00483Y0187*
X00494Y01872*
X00505Y01874*
X00516Y01877*
X00526Y01881*
X00537Y01886*
X00546Y01891*
X00556Y01897*
X00565Y01903*
X00573Y01911*
X00582Y01918*
X00589Y01927*
X00596Y01935*
X00602Y01945*
X00608Y01954*
X00613Y01964*
X00617Y01975*
X0062Y01985*
X00623Y01996*
X00625Y02007*
X00626Y02018*
X00626Y0203*
X00606Y01834D02*
D01*
X00606Y01834*
X00606Y01835*
X00606Y01835*
X00606Y01835*
X00606Y01836*
X00606Y01836*
X00606Y01836*
X00606Y01837*
X00605Y01837*
X00605Y01837*
X00605Y01837*
X00605Y01838*
X00604Y01838*
X00604Y01838*
X00604Y01838*
X00604Y01838*
X00603Y01839*
X00603Y01839*
X00603Y01839*
X00602Y01839*
X00602Y01839*
X00602Y01839*
X00601*
X00601Y01839*
X006Y01839*
X006Y01839*
X006Y01839*
X00599Y01839*
X00599Y01838*
X00599Y01838*
X00599Y01838*
X00598Y01838*
X00598Y01838*
X00598Y01837*
X00598Y01837*
X00597Y01837*
X00597Y01837*
X00597Y01836*
X00597Y01836*
X00597Y01836*
X00597Y01835*
X00596Y01835*
X00596Y01835*
X00596Y01834*
X00596Y01834*
X00596Y01834*
X00596Y01833*
X00596Y01833*
X00597Y01833*
X00597Y01832*
X00597Y01832*
X00597Y01832*
X00597Y01831*
X00597Y01831*
X00598Y01831*
X00598Y0183*
X00598Y0183*
X00598Y0183*
X00599Y0183*
X00599Y0183*
X00599Y01829*
X00599Y01829*
X006Y01829*
X006Y01829*
X006Y01829*
X00601Y01829*
X00601Y01829*
X00602*
X00602Y01829*
X00602Y01829*
X00603Y01829*
X00603Y01829*
X00603Y01829*
X00604Y01829*
X00604Y0183*
X00604Y0183*
X00604Y0183*
X00605Y0183*
X00605Y0183*
X00605Y01831*
X00605Y01831*
X00606Y01831*
X00606Y01832*
X00606Y01832*
X00606Y01832*
X00606Y01833*
X00606Y01833*
X00606Y01833*
X00606Y01834*
X00606Y01834*
X01041D02*
D01*
X01041Y01834*
X01041Y01835*
X01041Y01835*
X01041Y01835*
X01041Y01836*
X01041Y01836*
X01041Y01836*
X01041Y01837*
X0104Y01837*
X0104Y01837*
X0104Y01837*
X0104Y01838*
X01039Y01838*
X01039Y01838*
X01039Y01838*
X01039Y01838*
X01038Y01839*
X01038Y01839*
X01038Y01839*
X01037Y01839*
X01037Y01839*
X01037Y01839*
X01036*
X01036Y01839*
X01035Y01839*
X01035Y01839*
X01035Y01839*
X01034Y01839*
X01034Y01838*
X01034Y01838*
X01034Y01838*
X01033Y01838*
X01033Y01838*
X01033Y01837*
X01033Y01837*
X01032Y01837*
X01032Y01837*
X01032Y01836*
X01032Y01836*
X01032Y01836*
X01032Y01835*
X01031Y01835*
X01031Y01835*
X01031Y01834*
X01031Y01834*
X01031Y01834*
X01031Y01833*
X01031Y01833*
X01032Y01833*
X01032Y01832*
X01032Y01832*
X01032Y01832*
X01032Y01831*
X01032Y01831*
X01033Y01831*
X01033Y0183*
X01033Y0183*
X01033Y0183*
X01034Y0183*
X01034Y0183*
X01034Y01829*
X01034Y01829*
X01035Y01829*
X01035Y01829*
X01035Y01829*
X01036Y01829*
X01036Y01829*
X01037*
X01037Y01829*
X01037Y01829*
X01038Y01829*
X01038Y01829*
X01038Y01829*
X01039Y01829*
X01039Y0183*
X01039Y0183*
X01039Y0183*
X0104Y0183*
X0104Y0183*
X0104Y01831*
X0104Y01831*
X01041Y01831*
X01041Y01832*
X01041Y01832*
X01041Y01832*
X01041Y01833*
X01041Y01833*
X01041Y01833*
X01041Y01834*
X01041Y01834*
X01471D02*
D01*
X01471Y01834*
X01471Y01835*
X01471Y01835*
X01471Y01835*
X01471Y01836*
X01471Y01836*
X01471Y01836*
X01471Y01837*
X0147Y01837*
X0147Y01837*
X0147Y01837*
X0147Y01838*
X01469Y01838*
X01469Y01838*
X01469Y01838*
X01469Y01838*
X01468Y01839*
X01468Y01839*
X01468Y01839*
X01467Y01839*
X01467Y01839*
X01467Y01839*
X01466*
X01466Y01839*
X01465Y01839*
X01465Y01839*
X01465Y01839*
X01464Y01839*
X01464Y01838*
X01464Y01838*
X01464Y01838*
X01463Y01838*
X01463Y01838*
X01463Y01837*
X01463Y01837*
X01462Y01837*
X01462Y01837*
X01462Y01836*
X01462Y01836*
X01462Y01836*
X01462Y01835*
X01461Y01835*
X01461Y01835*
X01461Y01834*
X01461Y01834*
X01461Y01834*
X01461Y01833*
X01461Y01833*
X01462Y01833*
X01462Y01832*
X01462Y01832*
X01462Y01832*
X01462Y01831*
X01462Y01831*
X01463Y01831*
X01463Y0183*
X01463Y0183*
X01463Y0183*
X01464Y0183*
X01464Y0183*
X01464Y01829*
X01464Y01829*
X01465Y01829*
X01465Y01829*
X01465Y01829*
X01466Y01829*
X01466Y01829*
X01467*
X01467Y01829*
X01467Y01829*
X01468Y01829*
X01468Y01829*
X01468Y01829*
X01469Y01829*
X01469Y0183*
X01469Y0183*
X01469Y0183*
X0147Y0183*
X0147Y0183*
X0147Y01831*
X0147Y01831*
X01471Y01831*
X01471Y01832*
X01471Y01832*
X01471Y01832*
X01471Y01833*
X01471Y01833*
X01471Y01833*
X01471Y01834*
X01471Y01834*
X01061Y0203D02*
D01*
X01061Y02041*
X0106Y02052*
X01058Y02063*
X01055Y02074*
X01052Y02085*
X01048Y02095*
X01043Y02105*
X01037Y02115*
X01031Y02124*
X01024Y02133*
X01017Y02141*
X01008Y02149*
X01Y02156*
X00991Y02162*
X00981Y02168*
X00972Y02174*
X00961Y02178*
X00951Y02182*
X0094Y02185*
X00929Y02187*
X00918Y02189*
X00907Y0219*
X00896*
X00885Y02189*
X00874Y02187*
X00863Y02185*
X00852Y02182*
X00841Y02178*
X00831Y02174*
X00821Y02168*
X00812Y02162*
X00803Y02156*
X00794Y02149*
X00786Y02141*
X00779Y02133*
X00772Y02124*
X00766Y02115*
X0076Y02105*
X00755Y02095*
X00751Y02085*
X00748Y02074*
X00745Y02063*
X00743Y02052*
X00742Y02041*
X00741Y0203*
X00742Y02019*
X00743Y02008*
X00745Y01997*
X00748Y01986*
X00751Y01975*
X00755Y01965*
X0076Y01955*
X00766Y01945*
X00772Y01936*
X00779Y01927*
X00786Y01919*
X00794Y01911*
X00803Y01904*
X00812Y01897*
X00821Y01891*
X00831Y01886*
X00841Y01881*
X00852Y01878*
X00863Y01875*
X00874Y01872*
X00885Y01871*
X00896Y0187*
X00907*
X00918Y01871*
X00929Y01872*
X0094Y01875*
X00951Y01878*
X00961Y01881*
X00972Y01886*
X00981Y01891*
X00991Y01897*
X01Y01904*
X01008Y01911*
X01017Y01919*
X01024Y01927*
X01031Y01936*
X01037Y01945*
X01043Y01955*
X01048Y01965*
X01052Y01975*
X01055Y01986*
X01058Y01997*
X0106Y02008*
X01061Y02019*
X01061Y0203*
X01491D02*
D01*
X01491Y02041*
X0149Y02052*
X01488Y02063*
X01485Y02074*
X01482Y02085*
X01478Y02095*
X01473Y02105*
X01467Y02115*
X01461Y02124*
X01454Y02133*
X01447Y02141*
X01438Y02149*
X0143Y02156*
X01421Y02162*
X01411Y02168*
X01402Y02174*
X01391Y02178*
X01381Y02182*
X0137Y02185*
X01359Y02187*
X01348Y02189*
X01337Y0219*
X01326*
X01315Y02189*
X01304Y02187*
X01293Y02185*
X01282Y02182*
X01271Y02178*
X01261Y02174*
X01251Y02168*
X01242Y02162*
X01233Y02156*
X01224Y02149*
X01216Y02141*
X01209Y02133*
X01202Y02124*
X01196Y02115*
X0119Y02105*
X01185Y02095*
X01181Y02085*
X01178Y02074*
X01175Y02063*
X01173Y02052*
X01172Y02041*
X01171Y0203*
X01172Y02019*
X01173Y02008*
X01175Y01997*
X01178Y01986*
X01181Y01975*
X01185Y01965*
X0119Y01955*
X01196Y01945*
X01202Y01936*
X01209Y01927*
X01216Y01919*
X01224Y01911*
X01233Y01904*
X01242Y01897*
X01251Y01891*
X01261Y01886*
X01271Y01881*
X01282Y01878*
X01293Y01875*
X01304Y01872*
X01315Y01871*
X01326Y0187*
X01337*
X01348Y01871*
X01359Y01872*
X0137Y01875*
X01381Y01878*
X01391Y01881*
X01402Y01886*
X01411Y01891*
X01421Y01897*
X0143Y01904*
X01438Y01911*
X01447Y01919*
X01454Y01927*
X01461Y01936*
X01467Y01945*
X01473Y01955*
X01478Y01965*
X01482Y01975*
X01485Y01986*
X01488Y01997*
X0149Y02008*
X01491Y02019*
X01491Y0203*
X00706Y0202D02*
X00666D01*
X00686Y02D02*
Y0204D01*
X01141Y0202D02*
X01101D01*
X01121Y02D02*
Y0204D01*
X01571Y0202D02*
X01531D01*
X01551Y02D02*
Y0204D01*
G54D51*
X01965Y01138D02*
D01*
X01965Y01138*
X01965Y01139*
X01965Y01139*
X01965Y01139*
X01965Y0114*
X01965Y0114*
X01964Y0114*
X01964Y01141*
X01964Y01141*
X01964Y01141*
X01964Y01141*
X01963Y01142*
X01963Y01142*
X01963Y01142*
X01962Y01142*
X01962Y01142*
X01962Y01143*
X01962Y01143*
X01961Y01143*
X01961Y01143*
X01961Y01143*
X0196Y01143*
X0196*
X01959Y01143*
X01959Y01143*
X01959Y01143*
X01958Y01143*
X01958Y01143*
X01958Y01142*
X01958Y01142*
X01957Y01142*
X01957Y01142*
X01957Y01142*
X01956Y01141*
X01956Y01141*
X01956Y01141*
X01956Y01141*
X01956Y0114*
X01956Y0114*
X01955Y0114*
X01955Y01139*
X01955Y01139*
X01955Y01139*
X01955Y01138*
X01955Y01138*
X01955Y01138*
X01955Y01137*
X01955Y01137*
X01955Y01137*
X01955Y01136*
X01956Y01136*
X01956Y01136*
X01956Y01135*
X01956Y01135*
X01956Y01135*
X01956Y01135*
X01957Y01134*
X01957Y01134*
X01957Y01134*
X01958Y01134*
X01958Y01134*
X01958Y01133*
X01958Y01133*
X01959Y01133*
X01959Y01133*
X01959Y01133*
X0196Y01133*
X0196*
X01961Y01133*
X01961Y01133*
X01961Y01133*
X01962Y01133*
X01962Y01133*
X01962Y01134*
X01962Y01134*
X01963Y01134*
X01963Y01134*
X01963Y01134*
X01964Y01135*
X01964Y01135*
X01964Y01135*
X01964Y01135*
X01964Y01136*
X01965Y01136*
X01965Y01136*
X01965Y01137*
X01965Y01137*
X01965Y01137*
X01965Y01138*
X01965Y01138*
X01773Y02139D02*
D01*
X01773Y02139*
X01773Y02139*
X01773Y0214*
X01773Y0214*
X01773Y0214*
X01773Y02141*
X01773Y02141*
X01773Y02141*
X01772Y02142*
X01772Y02142*
X01772Y02142*
X01772Y02142*
X01771Y02143*
X01771Y02143*
X01771Y02143*
X01771Y02143*
X0177Y02143*
X0177Y02143*
X0177Y02143*
X01769Y02144*
X01769Y02144*
X01769Y02144*
X01768*
X01768Y02144*
X01768Y02144*
X01767Y02143*
X01767Y02143*
X01767Y02143*
X01766Y02143*
X01766Y02143*
X01766Y02143*
X01765Y02143*
X01765Y02142*
X01765Y02142*
X01765Y02142*
X01764Y02142*
X01764Y02141*
X01764Y02141*
X01764Y02141*
X01764Y0214*
X01764Y0214*
X01764Y0214*
X01763Y02139*
X01763Y02139*
X01763Y02139*
X01763Y02138*
X01763Y02138*
X01764Y02138*
X01764Y02137*
X01764Y02137*
X01764Y02137*
X01764Y02136*
X01764Y02136*
X01764Y02136*
X01765Y02136*
X01765Y02135*
X01765Y02135*
X01765Y02135*
X01766Y02135*
X01766Y02134*
X01766Y02134*
X01767Y02134*
X01767Y02134*
X01767Y02134*
X01768Y02134*
X01768Y02134*
X01768Y02134*
X01769*
X01769Y02134*
X01769Y02134*
X0177Y02134*
X0177Y02134*
X0177Y02134*
X01771Y02134*
X01771Y02134*
X01771Y02135*
X01771Y02135*
X01772Y02135*
X01772Y02135*
X01772Y02136*
X01772Y02136*
X01773Y02136*
X01773Y02136*
X01773Y02137*
X01773Y02137*
X01773Y02137*
X01773Y02138*
X01773Y02138*
X01773Y02138*
X01773Y02139*
X0026Y01188D02*
D01*
X0026Y01189*
X0026Y01189*
X0026Y01189*
X0026Y0119*
X0026Y0119*
X0026Y0119*
X0026Y01191*
X00259Y01191*
X00259Y01191*
X00259Y01192*
X00259Y01192*
X00259Y01192*
X00258Y01192*
X00258Y01192*
X00258Y01193*
X00257Y01193*
X00257Y01193*
X00257Y01193*
X00256Y01193*
X00256Y01193*
X00256Y01193*
X00255Y01193*
X00255*
X00255Y01193*
X00254Y01193*
X00254Y01193*
X00254Y01193*
X00253Y01193*
X00253Y01193*
X00253Y01193*
X00253Y01192*
X00252Y01192*
X00252Y01192*
X00252Y01192*
X00252Y01192*
X00251Y01191*
X00251Y01191*
X00251Y01191*
X00251Y0119*
X00251Y0119*
X00251Y0119*
X0025Y01189*
X0025Y01189*
X0025Y01189*
X0025Y01188*
X0025Y01188*
X0025Y01188*
X0025Y01187*
X00251Y01187*
X00251Y01187*
X00251Y01186*
X00251Y01186*
X00251Y01186*
X00251Y01185*
X00252Y01185*
X00252Y01185*
X00252Y01185*
X00252Y01184*
X00253Y01184*
X00253Y01184*
X00253Y01184*
X00253Y01184*
X00254Y01184*
X00254Y01184*
X00254Y01184*
X00255Y01183*
X00255Y01183*
X00255*
X00256Y01183*
X00256Y01184*
X00256Y01184*
X00257Y01184*
X00257Y01184*
X00257Y01184*
X00258Y01184*
X00258Y01184*
X00258Y01184*
X00259Y01185*
X00259Y01185*
X00259Y01185*
X00259Y01185*
X00259Y01186*
X0026Y01186*
X0026Y01186*
X0026Y01187*
X0026Y01187*
X0026Y01187*
X0026Y01188*
X0026Y01188*
X0026Y01188*
X007D02*
D01*
X007Y01189*
X007Y01189*
X007Y01189*
X007Y0119*
X007Y0119*
X007Y0119*
X007Y01191*
X00699Y01191*
X00699Y01191*
X00699Y01192*
X00699Y01192*
X00699Y01192*
X00698Y01192*
X00698Y01192*
X00698Y01193*
X00697Y01193*
X00697Y01193*
X00697Y01193*
X00696Y01193*
X00696Y01193*
X00696Y01193*
X00695Y01193*
X00695*
X00695Y01193*
X00694Y01193*
X00694Y01193*
X00694Y01193*
X00693Y01193*
X00693Y01193*
X00693Y01193*
X00693Y01192*
X00692Y01192*
X00692Y01192*
X00692Y01192*
X00692Y01192*
X00691Y01191*
X00691Y01191*
X00691Y01191*
X00691Y0119*
X00691Y0119*
X00691Y0119*
X0069Y01189*
X0069Y01189*
X0069Y01189*
X0069Y01188*
X0069Y01188*
X0069Y01188*
X0069Y01187*
X00691Y01187*
X00691Y01187*
X00691Y01186*
X00691Y01186*
X00691Y01186*
X00691Y01185*
X00692Y01185*
X00692Y01185*
X00692Y01185*
X00692Y01184*
X00693Y01184*
X00693Y01184*
X00693Y01184*
X00693Y01184*
X00694Y01184*
X00694Y01184*
X00694Y01184*
X00695Y01183*
X00695Y01183*
X00695*
X00696Y01183*
X00696Y01184*
X00696Y01184*
X00697Y01184*
X00697Y01184*
X00697Y01184*
X00698Y01184*
X00698Y01184*
X00698Y01184*
X00699Y01185*
X00699Y01185*
X00699Y01185*
X00699Y01185*
X00699Y01186*
X007Y01186*
X007Y01186*
X007Y01187*
X007Y01187*
X007Y01187*
X007Y01188*
X007Y01188*
X007Y01188*
X0114D02*
D01*
X0114Y01189*
X0114Y01189*
X0114Y01189*
X0114Y0119*
X0114Y0119*
X0114Y0119*
X0114Y01191*
X01139Y01191*
X01139Y01191*
X01139Y01192*
X01139Y01192*
X01139Y01192*
X01138Y01192*
X01138Y01192*
X01138Y01193*
X01137Y01193*
X01137Y01193*
X01137Y01193*
X01136Y01193*
X01136Y01193*
X01136Y01193*
X01135Y01193*
X01135*
X01135Y01193*
X01134Y01193*
X01134Y01193*
X01134Y01193*
X01133Y01193*
X01133Y01193*
X01133Y01193*
X01133Y01192*
X01132Y01192*
X01132Y01192*
X01132Y01192*
X01132Y01192*
X01131Y01191*
X01131Y01191*
X01131Y01191*
X01131Y0119*
X01131Y0119*
X01131Y0119*
X0113Y01189*
X0113Y01189*
X0113Y01189*
X0113Y01188*
X0113Y01188*
X0113Y01188*
X0113Y01187*
X01131Y01187*
X01131Y01187*
X01131Y01186*
X01131Y01186*
X01131Y01186*
X01131Y01185*
X01132Y01185*
X01132Y01185*
X01132Y01185*
X01132Y01184*
X01133Y01184*
X01133Y01184*
X01133Y01184*
X01133Y01184*
X01134Y01184*
X01134Y01184*
X01134Y01184*
X01135Y01183*
X01135Y01183*
X01135*
X01136Y01183*
X01136Y01184*
X01136Y01184*
X01137Y01184*
X01137Y01184*
X01137Y01184*
X01138Y01184*
X01138Y01184*
X01138Y01184*
X01139Y01185*
X01139Y01185*
X01139Y01185*
X01139Y01185*
X01139Y01186*
X0114Y01186*
X0114Y01186*
X0114Y01187*
X0114Y01187*
X0114Y01187*
X0114Y01188*
X0114Y01188*
X0114Y01188*
X02499Y00702D02*
D01*
X02499Y00702*
X02499Y00703*
X02499Y00703*
X02499Y00703*
X02498Y00704*
X02498Y00704*
X02498Y00704*
X02498Y00705*
X02498Y00705*
X02498Y00705*
X02497Y00706*
X02497Y00706*
X02497Y00706*
X02497Y00706*
X02496Y00706*
X02496Y00707*
X02496Y00707*
X02495Y00707*
X02495Y00707*
X02495Y00707*
X02494Y00707*
X02494Y00707*
X02494*
X02493Y00707*
X02493Y00707*
X02493Y00707*
X02492Y00707*
X02492Y00707*
X02492Y00707*
X02491Y00706*
X02491Y00706*
X02491Y00706*
X02491Y00706*
X0249Y00706*
X0249Y00705*
X0249Y00705*
X0249Y00705*
X0249Y00704*
X02489Y00704*
X02489Y00704*
X02489Y00703*
X02489Y00703*
X02489Y00703*
X02489Y00702*
X02489Y00702*
X02489Y00702*
X02489Y00701*
X02489Y00701*
X02489Y00701*
X02489Y007*
X02489Y007*
X0249Y007*
X0249Y00699*
X0249Y00699*
X0249Y00699*
X0249Y00699*
X02491Y00698*
X02491Y00698*
X02491Y00698*
X02491Y00698*
X02492Y00698*
X02492Y00698*
X02492Y00697*
X02493Y00697*
X02493Y00697*
X02493Y00697*
X02494Y00697*
X02494*
X02494Y00697*
X02495Y00697*
X02495Y00697*
X02495Y00697*
X02496Y00698*
X02496Y00698*
X02496Y00698*
X02497Y00698*
X02497Y00698*
X02497Y00698*
X02497Y00699*
X02498Y00699*
X02498Y00699*
X02498Y00699*
X02498Y007*
X02498Y007*
X02498Y007*
X02499Y00701*
X02499Y00701*
X02499Y00701*
X02499Y00702*
X02499Y00702*
G54D52*
X02475Y00677D02*
X025D01*
Y00652D02*
Y00677D01*
Y00507D02*
Y00532D01*
X02475Y00507D02*
X025D01*
X0233D02*
X02355D01*
X0233D02*
Y00532D01*
Y00677D02*
X02355D01*
X0233Y00652D02*
Y00677D01*
X00472Y0083D02*
X00485D01*
X00479*
Y00869*
X00472Y00862*
X00531Y00869D02*
X00518Y00862D01*
X00505Y00849*
Y00836*
X00511Y0083*
X00524*
X00531Y00836*
Y00843*
X00524Y00849*
X00505*
X00544Y0083D02*
Y00836D01*
X00551*
Y0083*
X00544*
X00577Y00862D02*
X00583Y00869D01*
X00597*
X00603Y00862*
Y00836*
X00597Y0083*
X00583*
X00577Y00836*
Y00862*
X00642Y0083D02*
X00616D01*
X00642Y00856*
Y00862*
X00636Y00869*
X00623*
X00616Y00862*
X00656Y0083D02*
Y00836D01*
X00662*
Y0083*
X00656*
X00715D02*
X00688D01*
X00715Y00856*
Y00862*
X00708Y00869*
X00695*
X00688Y00862*
X00728D02*
X00734Y00869D01*
X00747*
X00754Y00862*
Y00836*
X00747Y0083*
X00734*
X00728Y00836*
Y00862*
X00472Y00895D02*
Y00934D01*
X00492*
X00498Y00927*
Y00914*
X00492Y00908*
X00472*
X00485D02*
X00498Y00895D01*
X00511D02*
Y00934D01*
X00531*
X00538Y00927*
Y00914*
X00531Y00908*
X00511*
X00551Y00934D02*
X00564D01*
X00557*
Y00895*
X00551*
X00564*
X00623Y00934D02*
Y00895D01*
Y00914*
X00649*
Y00934*
Y00895*
X00669Y00921D02*
X00682D01*
X00688Y00914*
Y00895*
X00669*
X00662Y00901*
X00669Y00908*
X00688*
X00708Y00927D02*
Y00921D01*
X00702*
X00715*
X00708*
Y00901*
X00715Y00895*
X00492Y01004D02*
X00479D01*
X00472Y00997*
Y00971*
X00479Y00965*
X00492*
X00498Y00971*
Y00997*
X00492Y01004*
X00511Y00951D02*
Y00991D01*
X00531*
X00538Y00984*
Y00971*
X00531Y00965*
X00511*
X0057D02*
X00557D01*
X00551Y00971*
Y00984*
X00557Y00991*
X0057*
X00577Y00984*
Y00978*
X00551*
X0059Y00965D02*
Y00991D01*
X0061*
X00616Y00984*
Y00965*
X00669D02*
Y01004D01*
X00695Y00965*
Y01004*
X00708Y00991D02*
Y00971D01*
X00715Y00965*
X00734*
Y00958*
X00728Y00951*
X00721*
X00734Y00965D02*
Y00991D01*
X00747D02*
Y00965D01*
Y00978*
X00754Y00984*
X00761Y00991*
X00767*
X00787Y00965D02*
X008D01*
X00793*
Y00991*
X00787*
X00826Y00965D02*
X00839D01*
X00846Y00971*
Y00984*
X00839Y00991*
X00826*
X0082Y00984*
Y00971*
X00826Y00965*
X00918Y01004D02*
X00905D01*
X00898Y00997*
Y00971*
X00905Y00965*
X00918*
X00925Y00971*
Y00997*
X00918Y01004*
X00938Y00965D02*
Y00991D01*
X00957*
X00964Y00984*
Y00965*
X00997D02*
X00984D01*
X00977Y00971*
Y00984*
X00984Y00991*
X00997*
X01003Y00984*
Y00978*
X00977*
X01645Y02065D02*
X01658D01*
X01651*
Y02104*
X01645Y02097*
X01704Y02065D02*
X01677D01*
X01704Y02091*
Y02097*
X01697Y02104*
X01684*
X01677Y02097*
X01717Y02104D02*
Y02078D01*
X0173Y02065*
X01743Y02078*
Y02104*
X02535Y0012D02*
X02575D01*
Y00139*
X02568Y00146*
X02561*
X02555Y00139*
Y0012*
Y00139*
X02548Y00146*
X02542*
X02535Y00139*
Y0012*
Y00159D02*
X02568D01*
X02575Y00165*
Y00179*
X02568Y00185*
X02535*
Y00198D02*
Y00224D01*
Y00211*
X02575*
X02535Y00238D02*
Y00264D01*
Y00251*
X02575*
X02535Y00297D02*
Y00283D01*
X02542Y00277*
X02568*
X02575Y00283*
Y00297*
X02568Y00303*
X02542*
X02535Y00297*
X02575Y00316D02*
X02535D01*
X02575Y00343*
X02535*
X02571Y01712D02*
X02564Y01719D01*
X02551*
X02545Y01712*
Y01686*
X02551Y0168*
X02564*
X02571Y01686*
Y01699*
X02558*
X02584Y0168D02*
Y01719D01*
X0261Y0168*
Y01719*
X02623D02*
Y0168D01*
X02643*
X02649Y01686*
Y01712*
X02643Y01719*
X02623*
X0258Y02054D02*
X02606D01*
X02593Y02067D02*
Y02041D01*
X02619Y02035D02*
X02632D01*
X02625*
Y02074*
X02619Y02067*
X02678Y02035D02*
X02652D01*
X02678Y02061*
Y02067*
X02671Y02074*
X02658*
X02652Y02067*
X02691Y02074D02*
Y02048D01*
X02704Y02035*
X02717Y02048*
Y02074*
X0238Y00982D02*
X02386Y00989D01*
X02399*
X02406Y00982*
Y00976*
X02399Y00969*
X02393*
X02399*
X02406Y00963*
Y00956*
X02399Y0095*
X02386*
X0238Y00956*
X02419Y00989D02*
Y00963D01*
X02432Y0095*
X02445Y00963*
Y00989*
X02458Y00982D02*
X02465Y00989D01*
X02478*
X02484Y00982*
Y00976*
X02478Y00969*
X02471*
X02478*
X02484Y00963*
Y00956*
X02478Y0095*
X02465*
X02458Y00956*
X0246Y01115D02*
X02473D01*
X02466*
Y01154*
X0246Y01147*
X02519Y01115D02*
X02492D01*
X02519Y01141*
Y01147*
X02512Y01154*
X02499*
X02492Y01147*
X02532D02*
X02538Y01154D01*
X02551*
X02558Y01147*
Y01121*
X02551Y01115*
X02538*
X02532Y01121*
Y01147*
X0263Y01154D02*
X02617D01*
X0261Y01147*
Y01121*
X02617Y01115*
X0263*
X02637Y01121*
Y01147*
X0263Y01154*
X0265D02*
Y01115D01*
Y01134*
X02656Y01141*
X02669*
X02676Y01134*
Y01115*
X02689D02*
Y01141D01*
X02696*
X02702Y01134*
Y01115*
Y01134*
X02709Y01141*
X02715Y01134*
Y01115*
X02655Y0089D02*
X02695D01*
Y00916*
X0266Y00795D02*
X027D01*
X0268*
Y00821*
X0266*
X027*
X0268Y00695D02*
Y00721D01*
X02685Y0059D02*
Y00616D01*
X02672Y00603D02*
X02698D01*
X02572Y00721D02*
X02565Y00714D01*
Y00701*
X02572Y00695*
X02598*
X02605Y00701*
Y00714*
X02598Y00721*
X02605Y00734D02*
X02578D01*
X02565Y00747*
X02578Y0076*
X02605*
X02585*
Y00734*
X02605Y00773D02*
X02565D01*
X02605Y00799*
X02565*
Y00852D02*
X02605D01*
Y00872*
X02598Y00878*
X02591*
X02585*
X02578Y00872*
Y00852*
Y00891D02*
X02598D01*
X02605Y00898*
Y00918*
X02578*
X02605Y00931D02*
Y0095D01*
X02598Y00957*
X02591Y0095*
Y00937*
X02585Y00931*
X02578Y00937*
Y00957*
X02121Y01299D02*
X02095D01*
Y01279*
X02108*
X02095*
Y0126*
X02134D02*
Y01286D01*
X02147Y01299*
X0216Y01286*
Y0126*
Y01279*
X02134*
X02173Y0126D02*
Y01299D01*
X02199Y0126*
Y01299*
X02213Y01292D02*
X02219Y01299D01*
X02232*
X02239Y01292*
Y01286*
X02232Y01279*
X02226*
X02232*
X02239Y01273*
Y01266*
X02232Y0126*
X02219*
X02213Y01266*
X01636Y01304D02*
X0161D01*
Y01284*
X01623*
X0161*
Y01265*
X01649D02*
Y01291D01*
X01662Y01304*
X01675Y01291*
Y01265*
Y01284*
X01649*
X01688Y01265D02*
Y01304D01*
X01714Y01265*
Y01304*
X01754Y01265D02*
X01728D01*
X01754Y01291*
Y01297*
X01747Y01304*
X01734*
X01728Y01297*
X01896Y01304D02*
X0187D01*
Y01284*
X01883*
X0187*
Y01265*
X01909D02*
Y01291D01*
X01922Y01304*
X01935Y01291*
Y01265*
Y01284*
X01909*
X01948Y01265D02*
Y01304D01*
X01974Y01265*
Y01304*
X01988Y01265D02*
X02001D01*
X01994*
Y01304*
X01988Y01297*
X01461Y00792D02*
X01454Y00799D01*
X01441*
X01435Y00792*
Y00786*
X01441Y00779*
X01454*
X01461Y00773*
Y00766*
X01454Y0076*
X01441*
X01435Y00766*
X01474Y00799D02*
Y0076D01*
X01487Y00773*
X015Y0076*
Y00799*
X01513D02*
Y0076D01*
X01533*
X01539Y00766*
Y00792*
X01533Y00799*
X01513*
X01468Y01038D02*
X01442D01*
Y01018*
X01455Y01025*
X01461*
X01468Y01018*
Y01005*
X01461Y00999*
X01448*
X01442Y01005*
X01481Y01038D02*
Y01012D01*
X01494Y00999*
X01507Y01012*
Y01038*
X0126Y01039D02*
X01286D01*
Y01032*
X0126Y01006*
Y01*
X01299Y01039D02*
Y01013D01*
X01312Y01*
X01325Y01013*
Y01039*
X01364Y01D02*
X01338D01*
X01364Y01026*
Y01032*
X01358Y01039*
X01345*
X01338Y01032*
X02606Y00412D02*
X026Y00419D01*
X02586*
X0258Y00412*
Y00386*
X02586Y0038*
X026*
X02606Y00386*
X02619Y00412D02*
X02626Y00419D01*
X02639*
X02646Y00412*
Y00406*
X02639Y00399*
X02632*
X02639*
X02646Y00393*
Y00386*
X02639Y0038*
X02626*
X02619Y00386*
X023Y00875D02*
X02294Y00881D01*
X02281*
X02274Y00875*
Y00849*
X02281Y00842*
X02294*
X023Y00849*
X02313Y00842D02*
X02326D01*
X0232*
Y00881*
X02313Y00875*
X02226Y00382D02*
X02219Y00389D01*
X02206*
X022Y00382*
Y00356*
X02206Y0035*
X02219*
X02226Y00356*
X02265Y0035D02*
X02239D01*
X02265Y00376*
Y00382*
X02259Y00389*
X02245*
X02239Y00382*
X02245Y0119D02*
X02239Y01197D01*
X02226*
X02219Y0119*
Y01164*
X02226Y01157*
X02239*
X02245Y01164*
X02258Y01197D02*
X02285D01*
Y0119*
X02258Y01164*
Y01157*
X00266Y01867D02*
X00259Y01874D01*
X00246*
X0024Y01867*
Y01841*
X00246Y01835*
X00259*
X00266Y01841*
X00279Y01867D02*
X00285Y01874D01*
X00299*
X00305Y01867*
Y01861*
X00299Y01854*
X00305Y01848*
Y01841*
X00299Y01835*
X00285*
X00279Y01841*
Y01848*
X00285Y01854*
X00279Y01861*
Y01867*
X00285Y01854D02*
X00299D01*
X00686Y01867D02*
X00679Y01874D01*
X00666*
X0066Y01867*
Y01841*
X00666Y01835*
X00679*
X00686Y01841*
X00699Y01835D02*
X00712D01*
X00705*
Y01874*
X00699Y01867*
X00732Y01835D02*
X00745D01*
X00738*
Y01874*
X00732Y01867*
X01101D02*
X01094Y01874D01*
X01081*
X01075Y01867*
Y01841*
X01081Y01835*
X01094*
X01101Y01841*
X01114Y01835D02*
X01127D01*
X0112*
Y01874*
X01114Y01867*
X01166Y01835D02*
Y01874D01*
X01147Y01854*
X01173*
X01764Y02217D02*
Y02178D01*
X01784*
X0179Y02185*
Y02211*
X01784Y02217*
X01764*
X0183Y02178D02*
X01803D01*
X0183Y02204*
Y02211*
X01823Y02217*
X0181*
X01803Y02211*
X0015Y01259D02*
Y0122D01*
X00169*
X00176Y01226*
Y01252*
X00169Y01259*
X0015*
X00189Y01252D02*
X00195Y01259D01*
X00209*
X00215Y01252*
Y01246*
X00209Y01239*
X00202*
X00209*
X00215Y01233*
Y01226*
X00209Y0122*
X00195*
X00189Y01226*
X007Y01099D02*
Y0106D01*
X00719*
X00726Y01066*
Y01092*
X00719Y01099*
X007*
X00759Y0106D02*
Y01099D01*
X00739Y01079*
X00765*
X01145Y01099D02*
Y0106D01*
X01164*
X01171Y01066*
Y01092*
X01164Y01099*
X01145*
X0121D02*
X01184D01*
Y01079*
X01197Y01086*
X01204*
X0121Y01079*
Y01066*
X01204Y0106*
X0119*
X01184Y01066*
X02236Y01884D02*
X0221D01*
Y01864*
X02223*
X0221*
Y01845*
X02249D02*
X02262D01*
X02255*
Y01884*
X02249Y01877*
X01111Y01032D02*
X01104Y01039D01*
X01091*
X01085Y01032*
Y01006*
X01091Y01*
X01104*
X01111Y01006*
Y01019*
X01098*
X01124Y01D02*
Y01039D01*
X0115Y01*
Y01039*
X01163D02*
Y01D01*
X01183*
X01189Y01006*
Y01032*
X01183Y01039*
X01163*
X02686Y01094D02*
X02673D01*
X02679*
Y01061*
X02673Y01055*
X02666*
X0266Y01061*
X02699Y01055D02*
X02712D01*
X02705*
Y01094*
X02699Y01087*
X02831Y00479D02*
X02818D01*
X02824*
Y00446*
X02818Y0044*
X02811*
X02805Y00446*
X0287Y0044D02*
X02844D01*
X0287Y00466*
Y00472*
X02864Y00479*
X0285*
X02844Y00472*
X02431Y01539D02*
X02418D01*
X02424*
Y01506*
X02418Y015*
X02411*
X02405Y01506*
X02444Y01532D02*
X0245Y01539D01*
X02464*
X0247Y01532*
Y01526*
X02464Y01519*
X02457*
X02464*
X0247Y01513*
Y01506*
X02464Y015*
X0245*
X02444Y01506*
X02616Y01614D02*
X02603D01*
X02609*
Y01581*
X02603Y01575*
X02596*
X0259Y01581*
X02649Y01575D02*
Y01614D01*
X02629Y01594*
X02655*
X01916Y01369D02*
X01903D01*
X01909*
Y01336*
X01903Y0133*
X01896*
X0189Y01336*
X01929D02*
X01935Y0133D01*
X01949*
X01955Y01336*
Y01362*
X01949Y01369*
X01935*
X01929Y01362*
Y01356*
X01935Y01349*
X01955*
X02141Y01369D02*
X02128D01*
X02134*
Y01336*
X02128Y0133*
X02121*
X02115Y01336*
X02154Y0133D02*
X02167D01*
X0216*
Y01369*
X02154Y01362*
X02187Y0133D02*
X022D01*
X02193*
Y01369*
X02187Y01362*
X00309Y0072D02*
X00296D01*
X00303*
Y00688*
X00296Y00681*
X0029*
X00283Y00688*
X00349Y0072D02*
X00335Y00714D01*
X00322Y00701*
Y00688*
X00329Y00681*
X00342*
X00349Y00688*
Y00694*
X00342Y00701*
X00322*
X02661Y00334D02*
X02648D01*
X02654*
Y00301*
X02648Y00295*
X02641*
X02635Y00301*
X02674Y00327D02*
X0268Y00334D01*
X02694*
X027Y00327*
Y00321*
X02694Y00314*
X027Y00308*
Y00301*
X02694Y00295*
X0268*
X02674Y00301*
Y00308*
X0268Y00314*
X02674Y00321*
Y00327*
X0268Y00314D02*
X02694D01*
X02705Y01781D02*
Y01768D01*
Y01774*
X02738*
X02745Y01768*
Y01761*
X02738Y01755*
X02745Y01794D02*
Y01807D01*
Y018*
X02705*
X02712Y01794*
X02745Y01853D02*
Y01827D01*
X02718Y01853*
X02712*
X02705Y01846*
Y01833*
X02712Y01827*
X00305Y01164D02*
Y01125D01*
X00331*
X00344D02*
X00357D01*
X0035*
Y01164*
X00344Y01157*
X007Y01164D02*
Y01125D01*
X00726*
X00765D02*
X00739D01*
X00765Y01151*
Y01157*
X00759Y01164*
X00745*
X00739Y01157*
X01145Y01164D02*
Y01125D01*
X01171*
X01184Y01157D02*
X0119Y01164D01*
X01204*
X0121Y01157*
Y01151*
X01204Y01144*
X01197*
X01204*
X0121Y01138*
Y01131*
X01204Y01125*
X0119*
X01184Y01131*
X02558Y00592D02*
Y00631D01*
X02577*
X02584Y00624*
Y00611*
X02577Y00605*
X02558*
X02571D02*
X02584Y00592D01*
X02597D02*
X0261D01*
X02603*
Y00631*
X02597Y00624*
X01622Y00997D02*
Y01036D01*
X01642*
X01648Y0103*
Y01017*
X01642Y0101*
X01622*
X01635D02*
X01648Y00997D01*
X01661Y0103D02*
X01668Y01036D01*
X01681*
X01688Y0103*
Y01023*
X01681Y01017*
X01674*
X01681*
X01688Y0101*
Y01004*
X01681Y00997*
X01668*
X01661Y01004*
X02605Y00115D02*
Y00154D01*
X02624*
X02631Y00147*
Y00134*
X02624Y00128*
X02605*
X02618D02*
X02631Y00115D01*
X02644D02*
X02657D01*
X0265*
Y00154*
X02644Y00147*
X02677D02*
X02683Y00154D01*
X02696*
X02703Y00147*
Y00141*
X02696Y00134*
X02703Y00128*
Y00121*
X02696Y00115*
X02683*
X02677Y00121*
Y00128*
X02683Y00134*
X02677Y00141*
Y00147*
X02683Y00134D02*
X02696D01*
X02319Y00777D02*
Y00745D01*
X02326Y00738*
X02339*
X02345Y00745*
Y00777*
X02358Y00738D02*
X02371D01*
X02365*
Y00777*
X02358Y00771*
X01912Y01213D02*
Y01181D01*
X01919Y01174*
X01932*
X01938Y01181*
Y01213*
X01951Y01207D02*
X01958Y01213D01*
X01971*
X01978Y01207*
Y012*
X01971Y01194*
X01964*
X01971*
X01978Y01187*
Y01181*
X01971Y01174*
X01958*
X01951Y01181*
X00638Y0147D02*
Y01503D01*
X00632Y0151*
X00619*
X00612Y01503*
Y0147*
X00573D02*
X00599D01*
Y0149*
X00586Y01483*
X00579*
X00573Y0149*
Y01503*
X00579Y0151*
X00592*
X00599Y01503*
X01085Y0147D02*
Y01503D01*
X01078Y0151*
X01065*
X01058Y01503*
Y0147*
X01019D02*
X01032Y01477D01*
X01045Y0149*
Y01503*
X01039Y0151*
X01025*
X01019Y01503*
Y01496*
X01025Y0149*
X01045*
X0151Y01465D02*
Y01498D01*
X01503Y01505*
X0149*
X01483Y01498*
Y01465*
X0147D02*
X01444D01*
Y01472*
X0147Y01498*
Y01505*
X0204Y00719D02*
Y00712D01*
X02053Y00699*
X02066Y00712*
Y00719*
X02053Y00699D02*
Y0068D01*
X02079D02*
X02092D01*
X02085*
Y00719*
X02079Y00712*
X01011Y00894D02*
X00998D01*
X01004*
Y00861*
X00998Y00855*
X00991*
X00985Y00861*
X01024Y00894D02*
X0105D01*
Y00887*
X01024Y00861*
Y00855*
X01647Y01371D02*
X01633D01*
X0164*
Y01338*
X01633Y01331*
X01627*
X0162Y01338*
X0166Y01331D02*
X01673D01*
X01666*
Y01371*
X0166Y01364*
X01692D02*
X01699Y01371D01*
X01712*
X01719Y01364*
Y01338*
X01712Y01331*
X01699*
X01692Y01338*
Y01364*
M02*