%FSTAX23Y23*%
%MOIN*%
%SFA1B1*%

%IPPOS*%
%ADD23C,0.059060*%
%ADD30R,0.068900X0.068900*%
%ADD31C,0.068900*%
%ADD53R,0.106300X0.106300*%
%ADD54R,0.036610X0.019690*%
%ADD55R,0.019690X0.036610*%
%ADD56R,0.062990X0.086610*%
%ADD57R,0.086610X0.062990*%
%ADD58C,0.066930*%
%ADD59R,0.047240X0.047240*%
%ADD60C,0.047240*%
%ADD61R,0.165350X0.070870*%
%ADD62R,0.102360X0.074800*%
%ADD63O,0.094490X0.031500*%
%ADD64R,0.076770X0.076770*%
%ADD65C,0.076770*%
%ADD66R,0.068900X0.068900*%
%ADD67C,0.088580*%
%ADD68R,0.088580X0.088580*%
%ADD69C,0.204720*%
%ADD70R,0.068900X0.067870*%
%ADD71R,0.059060X0.059060*%
%ADD72C,0.035430*%
%LNrpiadapterpcb-1*%
%LPD*%
G54D23*
X0256Y0147D03*
Y01391D03*
G54D30*
X02895Y01065D03*
X02229Y00237D03*
X01229D03*
X00729D03*
X0188Y0053D03*
X01355Y00785D03*
G54D31*
X02795Y01065D03*
X01705Y01501D03*
X01945D03*
X02185Y015D03*
X0282Y00706D03*
Y00805D03*
Y00903D03*
X02815Y00295D03*
X02229Y00137D03*
X02129Y00237D03*
X02029D03*
X02129Y00137D03*
X02029D03*
X01929Y00237D03*
Y00137D03*
X01829Y00237D03*
Y00137D03*
X01729D03*
X01629Y00237D03*
Y00137D03*
X01529Y00237D03*
Y00137D03*
X01429D03*
Y00237D03*
X01329Y00137D03*
Y00237D03*
X01229Y00137D03*
X01129D03*
Y00237D03*
X01029Y00137D03*
Y00237D03*
X00929Y00137D03*
Y00237D03*
X00829Y00137D03*
Y00237D03*
X00729Y00137D03*
X00629Y00237D03*
Y00137D03*
X00529Y00237D03*
Y00137D03*
X00429Y00237D03*
Y00137D03*
X00329Y00237D03*
Y00137D03*
X0048Y0053D03*
Y0043D03*
X0058Y0053D03*
Y0043D03*
X0068Y0053D03*
Y0043D03*
X0078Y0053D03*
Y0043D03*
X0088D03*
Y0053D03*
X0128D03*
Y0043D03*
X0138D03*
Y0053D03*
X0178D03*
X0168D03*
X0148D03*
X0158D03*
Y0043D03*
X0148D03*
X0168D03*
X0178D03*
X0188D03*
X0118D03*
Y0053D03*
X0108Y0043D03*
Y0053D03*
X0098Y0043D03*
Y0053D03*
X02815Y0137D03*
Y01468D03*
X01255Y00785D03*
X01155D03*
X01055D03*
G54D53*
X02415Y00592D03*
G54D54*
X02492Y00631D03*
Y00612D03*
Y00592D03*
Y00572D03*
Y00552D03*
X02338D03*
Y00572D03*
Y00592D03*
Y00612D03*
Y00631D03*
G54D55*
X02455Y00515D03*
X02435D03*
X02415D03*
X02395D03*
X02376D03*
Y00669D03*
X02395D03*
X02415D03*
X02435D03*
X02455D03*
G54D56*
X01185Y01227D03*
Y01382D03*
X00745Y01227D03*
Y01382D03*
X00305Y01227D03*
Y01382D03*
G54D57*
X01807Y0209D03*
X01962D03*
G54D58*
X0147Y0094D03*
X0131D03*
X0114D03*
X02435Y0104D03*
X01685Y0201D03*
G54D59*
X0265Y00535D03*
X02579D03*
X01644Y0094D03*
X01715D03*
X02614Y00195D03*
X02685D03*
G54D60*
X023Y00719D03*
Y0079D03*
X02189Y00435D03*
X0226D03*
X0265Y00465D03*
X02579D03*
X02245Y01105D03*
Y01034D03*
G54D61*
X0052Y0139D03*
Y01139D03*
X0096Y0139D03*
Y01139D03*
X014Y0139D03*
Y01139D03*
G54D62*
X0219Y00692D03*
Y00547D03*
G54D63*
X02149Y00805D03*
Y00855D03*
Y00905D03*
Y00955D03*
Y01005D03*
Y01055D03*
Y01105D03*
X0196Y00805D03*
Y00855D03*
Y00905D03*
Y00955D03*
Y01005D03*
Y01055D03*
Y01105D03*
G54D64*
X014Y0203D03*
X0097D03*
X01465Y01755D03*
X01035D03*
X006D03*
X00535Y0203D03*
G54D65*
X01263Y0203D03*
X00833D03*
X01398Y0161D03*
X01331Y01755D03*
X01265Y0161D03*
X01198Y01755D03*
X00968Y0161D03*
X00901Y01755D03*
X00835Y0161D03*
X00768Y01755D03*
X00533Y0161D03*
X00466Y01755D03*
X004Y0161D03*
X00333Y01755D03*
X00398Y0203D03*
G54D66*
X01705Y016D03*
X01945D03*
X02185Y01598D03*
X0282Y00608D03*
X02815Y00196D03*
Y01271D03*
G54D67*
X02031Y01865D03*
X01834D03*
X02425D03*
X02621D03*
X02845Y017D03*
G54D68*
X02845Y019D03*
G54D69*
X02421Y02116D03*
Y00187D03*
X02834Y02116D03*
X00137D03*
Y00187D03*
G54D70*
X01729Y00237D03*
G54D71*
X0256Y01312D03*
G54D72*
X00745Y0037D03*
M02*