%FSTAX23Y23*%
%MOIN*%
%SFA1B1*%

%IPPOS*%
%ADD10C,0.039370*%
%ADD11C,0.031500*%
%ADD12C,0.007870*%
%ADD13C,0.015750*%
%ADD14C,0.019690*%
%ADD24R,0.039370X0.039370*%
%ADD25C,0.039370*%
%ADD28O,0.086610X0.023620*%
%ADD29C,0.059060*%
%ADD30R,0.068900X0.068900*%
%ADD31C,0.068900*%
%ADD32C,0.061020*%
%ADD33R,0.061020X0.061020*%
%ADD34R,0.061020X0.061020*%
%ADD35C,0.080710*%
%ADD36R,0.080710X0.080710*%
%ADD37C,0.196850*%
%ADD38R,0.061020X0.060000*%
%ADD39C,0.051180*%
%ADD40R,0.051180X0.051180*%
%ADD41C,0.027560*%
%ADD42C,0.023620*%
%ADD43R,0.070870X0.059060*%
%ADD44O,0.070080X0.023620*%
%ADD45R,0.023620X0.055120*%
%ADD46R,0.039370X0.039370*%
%ADD47R,0.085830X0.063780*%
%ADD48R,0.089760X0.074800*%
%ADD49R,0.100390X0.116140*%
%LNrpiadapterpcb-1*%
%LPD*%
G36*
X02955Y00974D02*
D01*
X02953*
X02951*
X02923*
X02922Y00975*
X02922Y00977*
X02922*
X02921Y00985*
X02918Y00992*
X02913Y00998*
X02913Y00998*
X02913Y00998*
X02908Y01005*
X02906Y01013*
X02907Y01014*
X02907*
X02907Y01015*
X02908Y01023*
X0291Y01026*
X02933*
Y01103*
X02856*
Y01026*
X02879*
X02881Y01023*
X02882Y01015*
X02882Y01014*
X02882Y01014*
X02882*
X02884Y01002*
X02889Y0099*
X02896Y00981*
X02897Y00978*
X02894Y00974*
X02866*
Y00899*
X02951*
X02953*
X02955Y00897*
Y0086*
X02953*
X02951*
X02866*
Y00836*
X02866Y00835*
X02863Y00835*
X02848Y00833*
X02846Y00832*
X02839Y00838*
X0283Y00842*
X0282Y00843*
X02809Y00842*
X028Y00838*
X02799Y00837*
X02799Y00837*
X02797Y00836*
X02793Y00836*
X02792Y00836*
X02788Y00837*
X02787Y00837*
X02787Y00837*
X02786Y00837*
X02786Y00838*
X02785Y00838*
X02778Y0084*
X02774Y0084*
X02774Y00841*
X02773Y00841*
X02772Y00842*
X02771Y00844*
X02765Y00848*
X02757Y0085*
X0271*
X02703Y00848*
X02696Y00844*
X02692Y00837*
X0269Y0083*
X02692Y00822*
X02696Y00815*
X02703Y00811*
X0271Y00809*
X02757*
X02765Y00811*
X02767Y00812*
X02768Y00813*
X02768Y00813*
X02769Y00814*
X02773Y00814*
X02774Y00814*
X0278Y00811*
X0278Y00811*
X02781Y00806*
X02781Y00806*
X02781Y00806*
X02781Y00806*
X02781Y00805*
Y00805*
X02781Y00805*
X02782Y00794*
X02786Y00785*
X02792Y00777*
X028Y00771*
X02809Y00767*
X0282Y00766*
X0283Y00767*
X02839Y00771*
X02847Y00777*
X02853Y00785*
X02857Y00794*
X02858Y00805*
X02858Y0081*
X02862Y0081*
X02863Y0081*
Y0081*
Y0081*
X02866Y0081*
X02866Y00809*
Y00785*
X02951*
X02953*
X02955Y00783*
Y0002*
X0002*
Y02235*
X02955*
Y00974*
G37*
%LNrpiadapterpcb-2*%
%LPC*%
G36*
X00866Y01049D02*
X0081D01*
Y00994*
X00824*
X00827Y00987*
X00827Y00986*
X00824Y00982*
X0082*
Y00911*
X00828*
Y00894*
X00829Y00889*
X00831Y00886*
X00854Y00863*
X00854Y00863*
X00854Y00863*
X00854Y00863*
X00857Y00859*
X00858Y00855*
X00857Y00855*
X00859Y00846*
X00864Y00839*
X00871Y00834*
X0088Y00832*
X00888Y00834*
X00895Y00839*
X009Y00846*
X00902Y00855*
X009Y00863*
X00895Y0087*
X00888Y00875*
X0088Y00877*
X00879Y00877*
X00875Y00877*
X00871Y0088*
X00871Y0088*
X00871Y0088*
X00852Y00899*
Y00911*
X0086*
Y00982*
X00852*
Y00989*
X00853Y00994*
X00866*
Y01049*
G37*
G36*
X0218Y00875D02*
X02117D01*
X0211Y00873*
X02103Y00869*
X02099Y00862*
X02097Y00855*
X02099Y00847*
X02103Y0084*
X0211Y00836*
X02117Y00834*
X0218*
X02188Y00836*
X02195Y0084*
X02199Y00847*
X02201Y00855*
X02199Y00862*
X02195Y00869*
X02188Y00873*
X0218Y00875*
G37*
G36*
X0243Y00848D02*
Y00824D01*
X02454*
X02453Y00827*
X0245Y00834*
X02446Y0084*
X02439Y00845*
X02432Y00848*
X0243Y00848*
G37*
G36*
X0205Y00827D02*
X02041Y00825D01*
X02034Y0082*
X02034Y0082*
X0203Y00817*
X02026Y00817*
X02026Y00817*
Y00817*
Y00817*
X02011*
Y00817*
X02008Y00817*
X02006Y00819*
X02006Y00819*
X01999Y00823*
X01992Y00825*
X01929*
X01921Y00823*
X01914Y00819*
X0191Y00812*
X01908Y00805*
X0191Y00797*
X01914Y0079*
X01921Y00786*
X01929Y00784*
X01992*
X01999Y00786*
X02006Y0079*
X02006Y0079*
X02008Y00792*
X02011Y00792*
Y00792*
Y00792*
X02026*
Y00792*
Y00792*
X02026Y00792*
X0203Y00792*
X02034Y00789*
X02034Y00789*
X02041Y00784*
X0205Y00782*
X02058Y00784*
X02065Y00789*
X0207Y00796*
X02072Y00805*
X0207Y00813*
X02065Y0082*
X02058Y00825*
X0205Y00827*
G37*
G36*
X01035Y01049D02*
X0098D01*
Y00994*
X00993*
X00996Y00987*
X00996Y00986*
X00993Y00982*
X0099*
Y00911*
X01029*
Y00982*
X01021*
Y00989*
X01022Y00994*
X01035*
Y01007*
X01039Y01009*
X01045Y01009*
X01045Y01009*
Y0101*
X01299*
X0145Y00859*
Y00859*
X0145Y00858*
X0145Y00858*
X01452Y00855*
X01453Y00851*
X01453Y0085*
X01455Y00842*
X0146Y00835*
X01467Y0083*
X01468Y0083*
X01469Y00825*
X01465Y00822*
X01461Y00822*
X01461Y00822*
Y00822*
Y00822*
X01439*
X01398Y00863*
X01394Y00866*
X0139Y00867*
X01358*
Y00867*
Y00867*
X01358Y00867*
X01354Y00867*
X0135Y0087*
X0135Y0087*
X01343Y00875*
X01335Y00877*
X01326Y00875*
X01319Y0087*
X01314Y00863*
X01312Y00855*
X01314Y00846*
X01319Y00839*
X01326Y00834*
X01335Y00832*
X01343Y00834*
X0135Y00839*
X0135Y00839*
X01354Y00842*
X01358Y00842*
X01358Y00842*
Y00842*
X01385*
X01426Y00801*
X0143Y00798*
X01435Y00797*
X01461*
Y00797*
Y00797*
X01461Y00797*
X01465Y00797*
X01469Y00794*
X01469Y00794*
X01476Y00789*
X01485Y00787*
X01493Y00789*
X015Y00794*
X01505Y00801*
X01507Y0081*
X01505Y00818*
X015Y00825*
X01493Y0083*
X01492Y0083*
X01491Y00835*
X01496Y00842*
X01497Y0085*
X01496Y00859*
X01491Y00866*
X01484Y00871*
X01475Y00872*
X01475Y00872*
X01471Y00873*
X01467Y00876*
X01467Y00876*
X01467Y00876*
X01312Y0103*
X01309Y01033*
X01304Y01034*
X01045*
X01045Y01034*
X01045*
X01045Y01034*
X01039Y01035*
X01035Y01036*
Y01049*
G37*
G36*
X0242Y00848D02*
X02417Y00848D01*
X0241Y00845*
X02403Y0084*
X02399Y00834*
X02396Y00827*
X02395Y00824*
X0242*
Y00848*
G37*
G36*
X02516Y00852D02*
X02498D01*
X02489Y0085*
X02482Y00845*
X02477Y00838*
X02477Y00835*
X02516*
Y00852*
G37*
G36*
X0225Y00904D02*
Y0088D01*
X02274*
X02273Y00883*
X0227Y0089*
X02266Y00896*
X02259Y00901*
X02252Y00904*
X0225Y00904*
G37*
G36*
X01992Y00925D02*
X01929D01*
X01921Y00923*
X01914Y00919*
X0191Y00912*
X01908Y00905*
X0191Y00897*
X01914Y0089*
X01921Y00886*
X01929Y00884*
X01992*
X01999Y00886*
X02006Y0089*
X0201Y00897*
X02012Y00905*
X0201Y00912*
X02006Y00919*
X01999Y00923*
X01992Y00925*
G37*
G36*
X0218D02*
X02117D01*
X0211Y00923*
X02103Y00919*
X02099Y00912*
X02097Y00905*
X02099Y00897*
X02103Y0089*
X0211Y00886*
X02117Y00884*
X0218*
X02188Y00886*
X02195Y0089*
X02199Y00897*
X02201Y00905*
X02199Y00912*
X02195Y00919*
X02188Y00923*
X0218Y00925*
G37*
G36*
X0224Y00904D02*
X02237Y00904D01*
X0223Y00901*
X02223Y00896*
X02219Y0089*
X02216Y00883*
X02215Y0088*
X0224*
Y00904*
G37*
G36*
X02544Y00852D02*
X02526D01*
Y00835*
X02565*
X02565Y00838*
X0256Y00845*
X02553Y0085*
X02544Y00852*
G37*
G36*
X0224Y0087D02*
X02215D01*
X02216Y00867*
X02219Y0086*
X02223Y00854*
X0223Y00849*
X02237Y00846*
X0224Y00846*
Y0087*
G37*
G36*
X02274D02*
X0225D01*
Y00846*
X02252Y00846*
X02259Y00849*
X02266Y00854*
X0227Y0086*
X02273Y00867*
X02274Y0087*
G37*
G36*
X01295Y0078D02*
X0126D01*
Y00744*
X01265Y00745*
X01275Y00749*
X01283Y00756*
X0129Y00764*
X01294Y00774*
X01295Y0078*
G37*
G36*
X02729Y00775D02*
X02689D01*
X0269Y00771*
X02695Y00764*
X02702Y00759*
X0271Y00757*
X02729*
Y00775*
G37*
G36*
X02778D02*
X02739D01*
Y00757*
X02757*
X02765Y00759*
X02773Y00764*
X02777Y00771*
X02778Y00775*
G37*
G36*
X0125Y0078D02*
X01214D01*
X01215Y00774*
X01219Y00764*
X01226Y00756*
X01234Y00749*
X01244Y00745*
X0125Y00744*
Y0078*
G37*
G36*
X02544Y0095D02*
X02498D01*
X0249Y00948*
X02484Y00944*
X02479Y00937*
X02478Y0093*
X02479Y00922*
X02484Y00915*
X0249Y00911*
X02498Y00909*
X02544*
X02552Y00911*
X02558Y00915*
X02558Y00915*
X02561Y00917*
X02563Y00917*
Y00917*
Y00917*
X02565*
X02582Y009*
Y00683*
X02582*
X02582Y00683*
X02582Y00679*
X02579Y00675*
X02577Y00676*
X02575Y00677*
Y00697*
X02574Y00701*
X02571Y00705*
X02533Y00743*
Y00759*
X02544*
X02552Y00761*
X02558Y00765*
X02563Y00772*
X02564Y0078*
X02563Y00787*
X02558Y00794*
X02552Y00798*
X02544Y008*
X02498*
X0249Y00798*
X02484Y00794*
X02479Y00787*
X02478Y0078*
X02479Y00772*
X02484Y00765*
X0249Y00761*
X02498Y00759*
X02509*
Y00738*
X0251Y00733*
X02512Y00729*
X0255Y00692*
Y00635*
X0255*
X0255Y00635*
X02549Y00631*
X02547Y00627*
X02547Y00627*
X02542Y0062*
X0254Y00612*
X02542Y00603*
X02547Y00596*
X02554Y00591*
X02562Y00589*
X02571Y00591*
X02578Y00596*
X02583Y00603*
X02585Y00612*
X02583Y0062*
X02578Y00627*
X02578Y00627*
X02575Y00631*
X02575Y00635*
X02575Y00635*
X02575*
Y00642*
X02579Y00644*
X02586Y00639*
X02595Y00637*
X02603Y00639*
X0261Y00644*
X02615Y00651*
X02617Y0066*
X02615Y00668*
X0261Y00675*
X0261Y00675*
X02607Y00679*
X02607Y00683*
X02607Y00683*
X02607*
Y00905*
X02606Y00909*
X02605Y00911*
X02603Y00913*
X02578Y00938*
X02574Y00941*
X0257Y00942*
X02563*
Y00942*
X02561Y00942*
X02558Y00944*
X02558Y00944*
X02552Y00948*
X02544Y0095*
G37*
G36*
X02815Y00746D02*
X02809Y00746D01*
X02799Y00741*
X02791Y00735*
X02784Y00727*
X0278Y00717*
X02779Y00711*
X02815*
Y00746*
G37*
G36*
X02825D02*
Y00711D01*
X0286*
X02859Y00717*
X02855Y00727*
X02848Y00735*
X0284Y00741*
X0283Y00746*
X02825Y00746*
G37*
G36*
X02729Y00802D02*
X0271D01*
X02702Y008*
X02695Y00795*
X0269Y00788*
X02689Y00785*
X02729*
Y00802*
G37*
G36*
X02454Y00814D02*
X0243D01*
Y0079*
X02432Y0079*
X02439Y00793*
X02446Y00798*
X0245Y00804*
X02453Y00811*
X02454Y00814*
G37*
G36*
X02516Y00825D02*
X02477D01*
X02477Y00821*
X02482Y00814*
X02489Y00809*
X02498Y00807*
X02516*
Y00825*
G37*
G36*
X02565D02*
X02526D01*
Y00807*
X02544*
X02553Y00809*
X0256Y00814*
X02565Y00821*
X02565Y00825*
G37*
G36*
X0242Y00814D02*
X02395D01*
X02396Y00811*
X02399Y00804*
X02403Y00798*
X0241Y00793*
X02417Y0079*
X0242Y0079*
Y00814*
G37*
G36*
X02757Y00802D02*
X02739D01*
Y00785*
X02778*
X02777Y00788*
X02773Y00795*
X02765Y008*
X02757Y00802*
G37*
G36*
X0125Y00825D02*
X01244Y00824D01*
X01234Y0082*
X01226Y00813*
X01219Y00805*
X01215Y00795*
X01214Y0079*
X0125*
Y00825*
G37*
G36*
X0126D02*
Y0079D01*
X01295*
X01294Y00795*
X0129Y00805*
X01283Y00813*
X01275Y0082*
X01265Y00824*
X0126Y00825*
G37*
G36*
X02013Y011D02*
X01965D01*
Y01082*
X01992*
X02Y01084*
X02007Y01089*
X02012Y01096*
X02013Y011*
G37*
G36*
X0218Y01125D02*
X02117D01*
X0211Y01123*
X02103Y01119*
X02099Y01112*
X02097Y01105*
X02099Y01097*
X02103Y0109*
X0211Y01086*
X02117Y01084*
X0218*
X02188Y01086*
X02195Y0109*
X02199Y01097*
X02201Y01105*
X02199Y01112*
X02195Y01119*
X02188Y01123*
X0218Y01125*
G37*
G36*
X01955Y01127D02*
X01929D01*
X0192Y01125*
X01913Y0112*
X01908Y01113*
X01907Y0111*
X01955*
Y01127*
G37*
G36*
Y011D02*
X01907D01*
X01908Y01096*
X01913Y01089*
X0192Y01084*
X01929Y01082*
X01955*
Y011*
G37*
G36*
X01992Y01075D02*
X01929D01*
X01921Y01073*
X01914Y01069*
X0191Y01062*
X01908Y01055*
X0191Y01047*
X01914Y0104*
X01921Y01036*
X01929Y01034*
X01992*
X01999Y01036*
X02006Y0104*
X0201Y01047*
X02012Y01055*
X0201Y01062*
X02006Y01069*
X01999Y01073*
X01992Y01075*
G37*
G36*
X0218D02*
X02117D01*
X0211Y01073*
X02103Y01069*
X02099Y01062*
X02097Y01055*
X02099Y01047*
X02103Y0104*
X0211Y01036*
X02117Y01034*
X0218*
X02188Y01036*
X02195Y0104*
X02199Y01047*
X02201Y01055*
X02199Y01062*
X02195Y01069*
X02188Y01073*
X0218Y01075*
G37*
G36*
X0152Y01131D02*
X01465D01*
Y01068*
X0152*
Y01131*
G37*
G36*
X01059Y01357D02*
X00953D01*
Y01267*
X01059*
Y01289*
X01067Y01292*
X01073Y01293*
X01076Y0129*
Y0115*
X01074Y01147*
X01072Y01139*
X01074Y0113*
X01079Y01123*
X01086Y01118*
X01095Y01116*
X01103Y01118*
X0111Y01123*
X01115Y0113*
X01117Y01139*
X01115Y01147*
X01113Y0115*
Y01312*
X01111Y01319*
X01107Y01325*
X01101Y01329*
X01095Y0133*
X0108*
Y0133*
X01079Y0133*
X01078*
X01067Y01331*
X01059Y01335*
Y01357*
G37*
G36*
X01455Y01205D02*
X01399D01*
Y01141*
X01455*
Y01205*
G37*
G36*
X0152D02*
X01465D01*
Y01141*
X0152*
Y01205*
G37*
G36*
X00765Y01282D02*
X00757Y01281D01*
X00751Y01278*
X00745Y01274*
X0074Y01268*
X00738Y01261*
X00737Y01254*
X00738Y01247*
X0074Y0124*
X00744Y01236*
X00745Y01234*
X00745Y01234*
X00745Y01234*
X00746Y01231*
Y0123*
X00746Y0123*
X00746*
Y012*
X00748Y01193*
X00752Y01187*
X00758Y01183*
X00765Y01181*
X00776*
Y0115*
X00774Y01147*
X00772Y01139*
X00774Y0113*
X00779Y01123*
X00786Y01118*
X00795Y01116*
X00803Y01118*
X0081Y01123*
X00815Y0113*
X00817Y01139*
X00815Y01147*
X00813Y0115*
Y01181*
X00835*
X00841Y01183*
X00847Y01187*
X00851Y01193*
X00853Y012*
Y01227*
X00862*
Y01282*
X00807*
Y01227*
X00816*
Y01218*
X00783*
Y0123*
X00783*
X00783Y0123*
Y01231*
X00784Y01234*
X00784Y01234*
X00784Y01234*
X00785Y01236*
X00789Y0124*
X00791Y01247*
X00792Y01254*
X00791Y01261*
X00789Y01268*
X00784Y01274*
X00778Y01278*
X00772Y01281*
X00765Y01282*
G37*
G36*
X01992Y01127D02*
X01965D01*
Y0111*
X02013*
X02012Y01113*
X02007Y0112*
X02Y01125*
X01992Y01127*
G37*
G36*
X01195Y01282D02*
X01187Y01281D01*
X01181Y01278*
X01175Y01274*
X0117Y01268*
X01168Y01261*
X01167Y01254*
X01168Y01247*
X0117Y0124*
X01174Y01236*
X01175Y01234*
X01175Y01234*
X01175Y01234*
X01175Y01234*
X01175Y01234*
X01176Y01231*
Y0123*
X01176Y0123*
X01176*
Y012*
X01178Y01193*
X01182Y01187*
X01188Y01183*
X01195Y01181*
X01206*
Y0115*
X01204Y01147*
X01202Y01139*
X01204Y0113*
X01209Y01123*
X01216Y01118*
X01217Y01118*
X01219Y01117*
X01225Y01115*
X01232Y01117*
X01238Y01121*
X01239Y01122*
X0124Y01123*
X01245Y0113*
X01247Y01139*
X01245Y01147*
X01243Y0115*
Y01181*
X01265*
X01271Y01183*
X01277Y01187*
X01281Y01193*
X01283Y012*
Y01227*
X01292*
Y01282*
X01237*
Y01227*
X01246*
Y01218*
X01213*
Y0123*
X01213*
X01213Y0123*
Y01231*
X01214Y01234*
X01214Y01234*
X01214Y01234*
X01214Y01234*
X01214*
X01215Y01235*
X01215Y01236*
X01219Y0124*
X01221Y01247*
X01222Y01254*
X01221Y01261*
X01219Y01268*
X01214Y01274*
X01208Y01278*
X01202Y01281*
X01195Y01282*
G37*
G36*
X0033D02*
X00322Y01281D01*
X00316Y01278*
X0031Y01274*
X00305Y01268*
X00303Y01261*
X00302Y01254*
X00303Y01247*
X00305Y0124*
X00309Y01236*
X0031Y01234*
X0031Y01234*
X0031Y01234*
X0031Y01234*
X0031Y01234*
X00311Y01231*
Y0123*
X00311Y0123*
X00311*
Y012*
X00313Y01193*
X00317Y01187*
X00323Y01183*
X0033Y01181*
X00341*
Y0115*
X00339Y01147*
X00337Y01139*
X00339Y0113*
X00344Y01123*
X00351Y01118*
X0036Y01116*
X00368Y01118*
X00375Y01123*
X0038Y0113*
X00382Y01139*
X0038Y01147*
X00378Y0115*
Y01181*
X004*
X00406Y01183*
X00412Y01187*
X00416Y01193*
X00418Y012*
Y01227*
X00427*
Y01282*
X00372*
Y01227*
X00381*
Y01218*
X00348*
Y0123*
X00348*
X00348Y0123*
Y01231*
X00349Y01234*
X00349Y01234*
X00349Y01234*
X0035Y01236*
X00354Y0124*
X00356Y01247*
X00357Y01254*
X00356Y01261*
X00354Y01268*
X00349Y01274*
X00343Y01278*
X00337Y01281*
X0033Y01282*
G37*
G36*
X02795Y01103D02*
X02784Y01102D01*
X02775Y01098*
X02767Y01092*
X02761Y01084*
X02757Y01075*
X02756Y01065*
X02757Y01054*
X02761Y01045*
X02767Y01037*
X0277Y01035*
X0277Y01035*
X02771Y01034*
X02771Y01034*
X02774Y01031*
X02779Y01025*
X02781Y01018*
X02782Y01012*
X02782Y01011*
Y01011*
X02782Y01011*
X02784Y00998*
X02787Y00986*
X02793Y00976*
X02801Y00966*
X02801Y00966*
X02801Y00966*
X02806Y00959*
X02808Y00951*
X02807Y0095*
X02807*
X02807Y0095*
X02806Y00944*
X02803Y00938*
X02799Y00936*
X02799Y00936*
X02792Y0093*
X02786Y00922*
X02782Y00913*
X02781Y00903*
X02781Y00901*
X02781Y009*
X02781Y009*
X02781Y00899*
X02781Y00899*
X0278Y00896*
X02776Y00894*
X02774Y00894*
X0277Y00895*
X02768Y00896*
X02768Y00896*
X02765Y00898*
X02757Y009*
X0271*
X02703Y00898*
X02696Y00894*
X02692Y00887*
X0269Y0088*
X02692Y00872*
X02696Y00865*
X02703Y00861*
X0271Y00859*
X02757*
X02765Y00861*
X02771Y00865*
X02773Y00868*
X02773Y00868*
X02773Y00868*
X02781Y00869*
X02787Y00871*
X02788Y00871*
X02789Y00871*
X0279Y00872*
X0279Y00872*
X0279Y00872*
X02792Y00872*
X02793Y00873*
X02796Y00872*
X02797Y00871*
X02798Y00871*
X028Y00869*
X02809Y00866*
X0282Y00864*
X0283Y00866*
X02839Y00869*
X02847Y00876*
X02853Y00884*
X02857Y00893*
X02858Y00903*
X02857Y00913*
X02853Y00922*
X02847Y0093*
X0284Y00936*
X0284Y00936*
X02836Y00938*
X02833Y00944*
X02832Y0095*
X02832Y0095*
X02832*
X02832Y00951*
X0283Y00962*
X02826Y00974*
X02818Y00983*
X02817Y00984*
X02812Y00991*
X02808Y01001*
X02807Y01008*
Y01011*
X02807Y01012*
X02808Y01018*
X0281Y01025*
X02815Y01031*
X02818Y01034*
X02818Y01034*
X02819Y01035*
X02819Y01035*
X02822Y01037*
X02828Y01045*
X02832Y01054*
X02833Y01065*
X02832Y01075*
X02828Y01084*
X02822Y01092*
X02814Y01098*
X02805Y01102*
X02795Y01103*
G37*
G36*
X01992Y00975D02*
X01929D01*
X01921Y00973*
X01914Y00969*
X0191Y00962*
X01908Y00955*
X0191Y00947*
X01914Y0094*
X01921Y00936*
X01929Y00934*
X01992*
X01999Y00936*
X02006Y0094*
X0201Y00947*
X02012Y00955*
X0201Y00962*
X02006Y00969*
X01999Y00973*
X01992Y00975*
G37*
G36*
X0218D02*
X02117D01*
X0211Y00973*
X02103Y00969*
X02099Y00962*
X02097Y00955*
X02099Y00947*
X02103Y0094*
X0211Y00936*
X02117Y00934*
X0218*
X02188Y00936*
X02195Y0094*
X02199Y00947*
X02201Y00955*
X02199Y00962*
X02195Y00969*
X02188Y00973*
X0218Y00975*
G37*
G36*
X0224Y00978D02*
X02235Y00977D01*
X02227Y00972*
X02222Y00964*
X02221Y0096*
X0224*
Y00978*
G37*
G36*
X02268Y0095D02*
X0225D01*
Y00931*
X02254Y00932*
X02262Y00937*
X02267Y00945*
X02268Y0095*
G37*
G36*
X0266Y01017D02*
X02653Y01016D01*
X02646Y01014*
X0264Y01009*
X02636Y01003*
X02633Y00997*
X02632Y0099*
X02633Y00982*
X02636Y00976*
X0264Y0097*
X02646Y00965*
X02653Y00963*
X0266Y00962*
X02667Y00963*
X02674Y00965*
X0268Y0097*
X0268Y0097*
X02685Y00974*
X02691Y00977*
X02697Y00977*
X02698Y00977*
Y00977*
X02705*
X02722Y0096*
Y0095*
X0271*
X02703Y00948*
X02696Y00944*
X02692Y00937*
X0269Y0093*
X02692Y00922*
X02696Y00915*
X02703Y00911*
X0271Y00909*
X02757*
X02765Y00911*
X02771Y00915*
X02775Y00922*
X02777Y0093*
X02775Y00937*
X02771Y00944*
X02765Y00948*
X02757Y0095*
X02746*
Y00965*
X02745Y0097*
X02742Y00974*
X02718Y00998*
X02714Y01001*
X0271Y01002*
X02698*
Y01002*
X02697Y01002*
X02691Y01002*
X02685Y01005*
X0268Y01009*
X0268Y01009*
X02674Y01014*
X02667Y01016*
X0266Y01017*
G37*
G36*
X02425Y00918D02*
X02417Y00917D01*
X02411Y00914*
X02405Y0091*
X02405Y0091*
X02399Y00906*
X02393Y00903*
X02387Y00902*
X02387Y00902*
X02386*
X02386Y00902*
X02379*
Y00902*
X02379Y00902*
X02377*
Y00902*
X02373Y00903*
X0237Y00905*
X0237Y00905*
X02363Y0091*
X02355Y00912*
X02346Y0091*
X02339Y00905*
X02334Y00898*
X02332Y0089*
X02334Y00881*
X02339Y00874*
X02339Y00874*
X02342Y0087*
X02342Y00866*
X02342Y00866*
X02342*
Y00844*
X02315Y00817*
X02284*
Y00817*
X02282Y00817*
X0228*
X02272Y00818*
X02265Y00823*
X02264Y00824*
X02258Y00828*
X02252Y00831*
X02245Y00832*
X02237Y00831*
X02231Y00828*
X02225Y00824*
X02224Y00823*
X02217Y00818*
X02209Y00817*
X02207*
X02205Y00817*
Y00817*
X02199*
Y00817*
Y00817*
X02197Y00817*
X02195Y00819*
X02195Y00819*
X02188Y00823*
X0218Y00825*
X02117*
X0211Y00823*
X02103Y00819*
X02099Y00812*
X02097Y00805*
X02099Y00797*
X02103Y0079*
X0211Y00786*
X02117Y00784*
X0218*
X02188Y00786*
X02195Y0079*
X02195Y0079*
X02197Y00792*
X02199Y00792*
Y00792*
Y00792*
X02205*
Y00792*
X02213Y00791*
X02219Y00789*
X02225Y00784*
X02225Y00784*
X02231Y0078*
X02237Y00777*
X02245Y00776*
X02252Y00777*
X02258Y0078*
X02264Y00784*
X02264Y00784*
X0227Y00789*
X02276Y00791*
X02284Y00792*
Y00792*
X0232*
X02324Y00793*
X02328Y00796*
X02363Y00831*
X02366Y00835*
X02367Y0084*
Y00866*
X02367*
X02367Y00866*
X02367Y0087*
X0237Y00874*
X0237Y00874*
X0237Y00874*
X02374Y00877*
X02379Y00878*
Y00878*
X02386*
X02386Y00878*
X02387*
X02387Y00878*
X02393Y00877*
X02399Y00874*
X02405Y0087*
X02405Y0087*
X02405Y0087*
X02411Y00866*
X02417Y00863*
X02425Y00862*
X02432Y00863*
X02438Y00866*
X02444Y0087*
X02445Y00872*
X0245Y00872*
X02451Y00871*
X02455Y00868*
X0246Y00867*
X02479*
Y00867*
Y00867*
X02481Y00867*
X02484Y00865*
X02484Y00865*
X0249Y00861*
X02498Y00859*
X02544*
X02552Y00861*
X02558Y00865*
X02563Y00872*
X02564Y0088*
X02563Y00887*
X02558Y00894*
X02552Y00898*
X02544Y009*
X02498*
X0249Y00898*
X02484Y00894*
X02484Y00894*
X02481Y00892*
X02479Y00892*
Y00892*
X02464*
X02458Y00898*
X02454Y00901*
X0245Y00902*
X0245Y00902*
X02449Y00902*
X02449Y00904*
X02444Y0091*
X02438Y00914*
X02432Y00917*
X02425Y00918*
G37*
G36*
X0224Y0095D02*
X02221D01*
X02222Y00945*
X02227Y00937*
X02235Y00932*
X0224Y00931*
Y0095*
G37*
G36*
X0218Y01025D02*
X02117D01*
X0211Y01023*
X02103Y01019*
X02099Y01012*
X02097Y01005*
X02099Y00997*
X02103Y0099*
X0211Y00986*
X02117Y00984*
X0218*
X02188Y00986*
X02195Y0099*
X02199Y00997*
X02201Y01005*
X02199Y01012*
X02195Y01019*
X02188Y01023*
X0218Y01025*
G37*
G36*
X02584Y01019D02*
X02581Y01018D01*
X02574Y01015*
X02568Y01011*
X02563Y01004*
X0256Y00997*
X0256Y00995*
X02584*
Y01019*
G37*
G36*
X02594D02*
Y00995D01*
X02618*
X02618Y00997*
X02615Y01004*
X0261Y01011*
X02604Y01015*
X02597Y01018*
X02594Y01019*
G37*
G36*
X01992Y01025D02*
X01929D01*
X01921Y01023*
X01914Y01019*
X0191Y01012*
X01908Y01005*
X0191Y00997*
X01914Y0099*
X01921Y00986*
X01929Y00984*
X01992*
X01999Y00986*
X02006Y0099*
X0201Y00997*
X02012Y01005*
X0201Y01012*
X02006Y01019*
X01999Y01023*
X01992Y01025*
G37*
G36*
X0225Y00978D02*
Y0096D01*
X02268*
X02267Y00964*
X02262Y00972*
X02254Y00977*
X0225Y00978*
G37*
G36*
X02584Y00985D02*
X0256D01*
X0256Y00982*
X02563Y00975*
X02568Y00968*
X02574Y00964*
X02581Y00961*
X02584Y0096*
Y00985*
G37*
G36*
X02618D02*
X02594D01*
Y0096*
X02597Y00961*
X02604Y00964*
X0261Y00968*
X02615Y00975*
X02618Y00982*
X02618Y00985*
G37*
G36*
X0286Y00701D02*
X02825D01*
Y00666*
X0283Y00667*
X0284Y00671*
X02848Y00677*
X02855Y00686*
X02859Y00696*
X0286Y00701*
G37*
G36*
X01634Y00178D02*
Y00142D01*
X01669*
X01669Y00148*
X01664Y00158*
X01658Y00166*
X01649Y00173*
X0164Y00177*
X01634Y00178*
G37*
G36*
X02024D02*
X02018Y00177D01*
X02009Y00173*
X02Y00166*
X01994Y00158*
X0199Y00148*
X01989Y00142*
X02024*
Y00178*
G37*
G36*
X02034D02*
Y00142D01*
X02069*
X02069Y00148*
X02064Y00158*
X02058Y00166*
X02049Y00173*
X0204Y00177*
X02034Y00178*
G37*
G36*
X01624D02*
X01618Y00177D01*
X01609Y00173*
X016Y00166*
X01594Y00158*
X0159Y00148*
X01589Y00142*
X01624*
Y00178*
G37*
G36*
X00834D02*
Y00142D01*
X00869*
X00869Y00148*
X00864Y00158*
X00858Y00166*
X00849Y00173*
X0084Y00177*
X00834Y00178*
G37*
G36*
X01324D02*
X01318Y00177D01*
X01309Y00173*
X013Y00166*
X01294Y00158*
X0129Y00148*
X01289Y00142*
X01324*
Y00178*
G37*
G36*
X01334D02*
Y00142D01*
X01369*
X01369Y00148*
X01364Y00158*
X01358Y00166*
X01349Y00173*
X0134Y00177*
X01334Y00178*
G37*
G36*
X01329Y00276D02*
X01319Y00275D01*
X0131Y00271*
X01302Y00265*
X01296Y00257*
X01292Y00247*
X0129Y00237*
X01292Y00227*
X01296Y00218*
X01302Y0021*
X0131Y00204*
X01319Y002*
X01329Y00199*
X01339Y002*
X01348Y00204*
X01356Y0021*
X01363Y00218*
X01366Y00227*
X01368Y00237*
X01366Y00247*
X01363Y00257*
X01356Y00265*
X01348Y00271*
X01339Y00275*
X01329Y00276*
G37*
G36*
X01267Y00276D02*
X01191D01*
Y00199*
X01267*
Y00276*
G37*
G36*
X02267D02*
X02191D01*
Y00199*
X02267*
Y00276*
G37*
G36*
X01129Y00276D02*
X01119Y00275D01*
X0111Y00271*
X01102Y00265*
X01096Y00257*
X01092Y00247*
X0109Y00237*
X01092Y00227*
X01096Y00218*
X01102Y0021*
X0111Y00204*
X01119Y002*
X01129Y00199*
X01139Y002*
X01148Y00204*
X01156Y0021*
X01163Y00218*
X01166Y00227*
X01168Y00237*
X01166Y00247*
X01163Y00257*
X01156Y00265*
X01148Y00271*
X01139Y00275*
X01129Y00276*
G37*
G36*
X00324Y00232D02*
X00289D01*
X0029Y00227*
X00294Y00217*
X003Y00208*
X00309Y00202*
X00318Y00198*
X00324Y00197*
Y00232*
G37*
G36*
X01069D02*
X01034D01*
Y00197*
X0104Y00198*
X01049Y00202*
X01058Y00208*
X01064Y00217*
X01069Y00227*
X01069Y00232*
G37*
G36*
X00829Y00276D02*
X00819Y00275D01*
X0081Y00271*
X00802Y00265*
X00796Y00257*
X00792Y00247*
X0079Y00237*
X00792Y00227*
X00796Y00218*
X00802Y0021*
X0081Y00204*
X00819Y002*
X00829Y00199*
X00839Y002*
X00848Y00204*
X00856Y0021*
X00863Y00218*
X00866Y00227*
X00868Y00237*
X00866Y00247*
X00863Y00257*
X00856Y00265*
X00848Y00271*
X00839Y00275*
X00829Y00276*
G37*
G36*
X00824Y00178D02*
X00818Y00177D01*
X00809Y00173*
X008Y00166*
X00794Y00158*
X0079Y00148*
X00789Y00142*
X00824*
Y00178*
G37*
G36*
X01369Y00132D02*
X01334D01*
Y00097*
X0134Y00098*
X01349Y00102*
X01358Y00108*
X01364Y00117*
X01369Y00127*
X01369Y00132*
G37*
G36*
X01624D02*
X01589D01*
X0159Y00127*
X01594Y00117*
X016Y00108*
X01609Y00102*
X01618Y00098*
X01624Y00097*
Y00132*
G37*
G36*
X01669D02*
X01634D01*
Y00097*
X0164Y00098*
X01649Y00102*
X01658Y00108*
X01664Y00117*
X01669Y00127*
X01669Y00132*
G37*
G36*
X01324D02*
X01289D01*
X0129Y00127*
X01294Y00117*
X013Y00108*
X01309Y00102*
X01318Y00098*
X01324Y00097*
Y00132*
G37*
G36*
X00137Y00294D02*
X00121Y00293D01*
X00104Y00289*
X00089Y00282*
X00075Y00274*
X00062Y00263*
X00051Y0025*
X00042Y00236*
X00036Y0022*
X00032Y00204*
X00031Y00187*
X00032Y00171*
X00036Y00154*
X00042Y00139*
X00051Y00125*
X00062Y00112*
X00075Y00101*
X00089Y00092*
X00104Y00086*
X00121Y00082*
X00137Y00081*
X00154Y00082*
X0017Y00086*
X00186Y00092*
X002Y00101*
X00213Y00112*
X00224Y00125*
X00232Y00139*
X00239Y00154*
X00243Y00171*
X00244Y00187*
X00243Y00204*
X00239Y0022*
X00232Y00236*
X00224Y0025*
X00213Y00263*
X002Y00274*
X00186Y00282*
X0017Y00289*
X00154Y00293*
X00137Y00294*
G37*
G36*
X00824Y00132D02*
X00789D01*
X0079Y00127*
X00794Y00117*
X008Y00108*
X00809Y00102*
X00818Y00098*
X00824Y00097*
Y00132*
G37*
G36*
X00869D02*
X00834D01*
Y00097*
X0084Y00098*
X00849Y00102*
X00858Y00108*
X00864Y00117*
X00869Y00127*
X00869Y00132*
G37*
G36*
X01229Y00176D02*
X01219Y00175D01*
X0121Y00171*
X01202Y00165*
X01196Y00157*
X01192Y00147*
X0119Y00137*
X01192Y00127*
X01196Y00118*
X01202Y0011*
X0121Y00104*
X01219Y001*
X01229Y00099*
X01239Y001*
X01248Y00104*
X01256Y0011*
X01263Y00118*
X01266Y00127*
X01268Y00137*
X01266Y00147*
X01263Y00157*
X01256Y00165*
X01248Y00171*
X01239Y00175*
X01229Y00176*
G37*
G36*
X02129D02*
X02119Y00175D01*
X0211Y00171*
X02102Y00165*
X02096Y00157*
X02092Y00147*
X0209Y00137*
X02092Y00127*
X02096Y00118*
X02102Y0011*
X0211Y00104*
X02119Y001*
X02129Y00099*
X02139Y001*
X02148Y00104*
X02156Y0011*
X02163Y00118*
X02166Y00127*
X02168Y00137*
X02166Y00147*
X02163Y00157*
X02156Y00165*
X02148Y00171*
X02139Y00175*
X02129Y00176*
G37*
G36*
X02229D02*
X02219Y00175D01*
X0221Y00171*
X02202Y00165*
X02196Y00157*
X02192Y00147*
X0219Y00137*
X02192Y00127*
X02196Y00118*
X02202Y0011*
X0221Y00104*
X02219Y001*
X02229Y00099*
X02239Y001*
X02248Y00104*
X02256Y0011*
X02263Y00118*
X02266Y00127*
X02268Y00137*
X02266Y00147*
X02263Y00157*
X02256Y00165*
X02248Y00171*
X02239Y00175*
X02229Y00176*
G37*
G36*
X01129D02*
X01119Y00175D01*
X0111Y00171*
X01102Y00165*
X01096Y00157*
X01092Y00147*
X0109Y00137*
X01092Y00127*
X01096Y00118*
X01102Y0011*
X0111Y00104*
X01119Y001*
X01129Y00099*
X01139Y001*
X01148Y00104*
X01156Y0011*
X01163Y00118*
X01166Y00127*
X01168Y00137*
X01166Y00147*
X01163Y00157*
X01156Y00165*
X01148Y00171*
X01139Y00175*
X01129Y00176*
G37*
G36*
X02024Y00132D02*
X01989D01*
X0199Y00127*
X01994Y00117*
X02Y00108*
X02009Y00102*
X02018Y00098*
X02024Y00097*
Y00132*
G37*
G36*
X02069D02*
X02034D01*
Y00097*
X0204Y00098*
X02049Y00102*
X02058Y00108*
X02064Y00117*
X02069Y00127*
X02069Y00132*
G37*
G36*
X00929Y00176D02*
X00919Y00175D01*
X0091Y00171*
X00902Y00165*
X00896Y00157*
X00892Y00147*
X0089Y00137*
X00892Y00127*
X00896Y00118*
X00902Y0011*
X0091Y00104*
X00919Y001*
X00929Y00099*
X00939Y001*
X00948Y00104*
X00956Y0011*
X00963Y00118*
X00966Y00127*
X00968Y00137*
X00966Y00147*
X00963Y00157*
X00956Y00165*
X00948Y00171*
X00939Y00175*
X00929Y00176*
G37*
G36*
X00324Y00278D02*
X00318Y00277D01*
X00309Y00273*
X003Y00266*
X00294Y00258*
X0029Y00248*
X00289Y00242*
X00324*
Y00278*
G37*
G36*
X00455Y00633D02*
X0045Y00632D01*
X00442Y00627*
X00437Y00619*
X00436Y00615*
X00455*
Y00633*
G37*
G36*
X00465D02*
Y00615D01*
X00483*
X00482Y00619*
X00477Y00627*
X00469Y00632*
X00465Y00633*
G37*
G36*
X02388Y00635D02*
X02385Y00634D01*
X02378Y00629*
X02373Y00622*
X02372Y00619*
X02388*
Y00635*
G37*
G36*
X00483Y00605D02*
X00465D01*
Y00586*
X00469Y00587*
X00477Y00592*
X00482Y006*
X00483Y00605*
G37*
G36*
X02458Y00565D02*
X02442D01*
Y00549*
X02445Y0055*
X02453Y00554*
X02457Y00562*
X02458Y00565*
G37*
G36*
X02015Y00767D02*
X02006Y00765D01*
X01999Y0076*
X01994Y00753*
X01992Y00745*
X01994Y00736*
X01999Y00729*
X01999Y00729*
X02002Y00725*
X02002Y00721*
X02002Y00721*
X02002*
Y00627*
X02003Y00623*
X02006Y00619*
X0207Y00555*
X02066Y00551*
X02063Y00554*
X02057Y00556*
X0205Y00557*
X02042Y00556*
X02036Y00554*
X0203Y00549*
X02025Y00543*
X02023Y00537*
X02022Y0053*
Y00455*
X02023Y00447*
X02025Y00441*
X0203Y00435*
X0213Y00335*
X02136Y0033*
X02142Y00328*
X0215Y00327*
X0275*
X02757Y00328*
X02763Y0033*
X02769Y00335*
X02839Y00405*
X02844Y00411*
X02846Y00415*
X02846Y00417*
X02847Y00425*
Y00569*
X02858*
Y00646*
X02781*
Y00569*
X02792*
Y00436*
X02774Y00419*
X0277Y00421*
X02772Y00429*
X0277Y00438*
X02765Y00445*
Y00449*
X0277Y00456*
X02772Y00465*
X0277Y00473*
X02765Y0048*
X02758Y00485*
X0275Y00487*
X02741Y00485*
X02734Y0048*
X02734Y0048*
X0273Y00477*
X02726Y00477*
X02726Y00477*
Y00477*
Y00477*
X02712*
X02708Y00476*
X02704Y00473*
X02644Y00414*
X0254*
X02537Y00418*
X02542Y00425*
X02543Y0043*
X02496*
X02497Y00425*
X02502Y00418*
X02499Y00414*
X02345*
X02342Y00418*
X02347Y00425*
X02348Y0043*
X02301*
X02302Y00425*
X02307Y00418*
X02304Y00414*
X02267*
X02062Y00619*
Y00695*
X02062*
X02062Y00695*
X02062Y007*
X02065Y00703*
X02065Y00703*
X0207Y0071*
X02072Y00719*
X0207Y00727*
X02065Y00735*
X02058Y00739*
X0205Y00741*
X02041Y00739*
X0204Y00739*
X02036Y00741*
X02037Y00745*
X02035Y00753*
X0203Y0076*
X02023Y00765*
X02015Y00767*
G37*
G36*
X00455Y00605D02*
X00436D01*
X00437Y006*
X00442Y00592*
X0045Y00587*
X00455Y00586*
Y00605*
G37*
G36*
X00488Y00742D02*
X00433D01*
Y00687*
X00442*
X00445Y00683*
X00445Y00681*
X00443Y00679*
X00444Y00679*
X0044Y00674*
X00439Y00666*
X0044Y00657*
X00445Y0065*
X00452Y00645*
X00461Y00644*
X00469Y00645*
X00476Y0065*
X00481Y00657*
X00483Y00666*
X00481Y00674*
X00478Y00679*
X00478Y00679*
X00477Y00681*
X00476Y00683*
X0048Y00687*
X00488*
Y00742*
G37*
G36*
X00999D02*
X00944D01*
Y00687*
X00954*
Y00679*
X00951Y00675*
X0095Y00667*
X00951Y00658*
X00956Y00651*
X00963Y00646*
X00972Y00645*
X0098Y00646*
X00987Y00651*
X00992Y00658*
X00994Y00667*
X00992Y00675*
X0099Y00679*
Y00687*
X00999*
Y00742*
G37*
G36*
X02815Y00701D02*
X02779D01*
X0278Y00696*
X02784Y00686*
X02791Y00677*
X02799Y00671*
X02809Y00667*
X02815Y00666*
Y00701*
G37*
G36*
X00303Y00742D02*
X00248D01*
Y00687*
X00257*
X0026Y00683*
X0026Y00681*
X00258Y00679*
X00259Y00679*
X00255Y00674*
X00254Y00666*
X00255Y00657*
X0026Y0065*
X00267Y00645*
X00276Y00644*
X00284Y00645*
X00291Y0065*
X00296Y00657*
X00298Y00666*
X00296Y00674*
X00293Y00679*
X00293Y00679*
X00292Y00681*
X00291Y00683*
X00295Y00687*
X00303*
Y00742*
G37*
G36*
X02442Y00635D02*
Y00619D01*
X02458*
X02457Y00622*
X02453Y00629*
X02445Y00634*
X02442Y00635*
G37*
G36*
X02432D02*
X02428Y00634D01*
X02421Y00629*
X02418Y00624*
X02413*
X02409Y00629*
X02402Y00634*
X02398Y00635*
Y00614*
X02393*
Y00609*
X02372*
X02373Y00605*
X02378Y00598*
X02383Y00594*
Y00589*
X02378Y00586*
X02373Y00579*
X02372Y00575*
X02393*
Y0057*
X02398*
Y00549*
X02402Y0055*
X02409Y00554*
X02413Y0056*
X02418*
X02421Y00554*
X02428Y0055*
X02432Y00549*
Y0057*
X02437*
Y00575*
X02458*
X02457Y00579*
X02453Y00586*
X02447Y00589*
Y00594*
X02453Y00598*
X02457Y00605*
X02458Y00609*
X02437*
Y00614*
X02432*
Y00635*
G37*
G36*
X00128Y00742D02*
X00072D01*
Y00687*
X00081*
X00084Y00683*
X00084Y00681*
X00083Y00679*
X00083Y00678*
X0008Y00673*
X00078Y00665*
X0008Y00657*
X00084Y00649*
X00092Y00645*
X001Y00643*
X00108Y00645*
X00116Y00649*
X0012Y00657*
X00122Y00665*
X0012Y00673*
X00117Y00678*
X00117Y00679*
X00116Y00681*
X00116Y00683*
X00119Y00687*
X00128*
Y00742*
G37*
G36*
X02388Y00565D02*
X02372D01*
X02373Y00562*
X02378Y00554*
X02385Y0055*
X02388Y00549*
Y00565*
G37*
G36*
X0282Y00335D02*
Y003D01*
X02855*
X02854Y00305*
X0285Y00315*
X02843Y00323*
X02835Y0033*
X02825Y00334*
X0282Y00335*
G37*
G36*
X00085Y00345D02*
X00066D01*
X00067Y0034*
X00072Y00332*
X0008Y00327*
X00085Y00326*
Y00345*
G37*
G36*
X00113D02*
X00095D01*
Y00326*
X00099Y00327*
X00107Y00332*
X00112Y0034*
X00113Y00345*
G37*
G36*
X0281Y00335D02*
X02804Y00334D01*
X02794Y0033*
X02786Y00323*
X02779Y00315*
X02775Y00305*
X02774Y003*
X0281*
Y00335*
G37*
G36*
X01034Y00278D02*
Y00242D01*
X01069*
X01069Y00248*
X01064Y00258*
X01058Y00266*
X01049Y00273*
X0104Y00277*
X01034Y00278*
G37*
G36*
X0281Y0029D02*
X02774D01*
X02775Y00284*
X02779Y00274*
X02786Y00266*
X02794Y00259*
X02804Y00255*
X0281Y00254*
Y0029*
G37*
G36*
X02855D02*
X0282D01*
Y00254*
X02825Y00255*
X02835Y00259*
X02843Y00266*
X0285Y00274*
X02854Y00284*
X02855Y0029*
G37*
G36*
X0233Y00458D02*
Y0044D01*
X02348*
X02347Y00444*
X02342Y00452*
X02334Y00457*
X0233Y00458*
G37*
G36*
X02515D02*
X0251Y00457D01*
X02502Y00452*
X02497Y00444*
X02496Y0044*
X02515*
Y00458*
G37*
G36*
X02525D02*
Y0044D01*
X02543*
X02542Y00444*
X02537Y00452*
X02529Y00457*
X02525Y00458*
G37*
G36*
X0232D02*
X02315Y00457D01*
X02307Y00452*
X02302Y00444*
X02301Y0044*
X0232*
Y00458*
G37*
G36*
X00575Y00347D02*
X00566Y00345D01*
X00559Y0034*
X00559Y0034*
X00555Y00337*
X00551Y00337*
X00551*
X00551*
X00551Y00337*
Y00337*
Y00337*
X004*
X00395Y00336*
X00391Y00333*
X00371Y00313*
X00368Y00309*
X00367Y00305*
Y00262*
X00363Y0026*
X00358Y00266*
X00349Y00273*
X0034Y00277*
X00334Y00278*
Y00237*
Y00197*
X0034Y00198*
X00349Y00202*
X00358Y00208*
X00363Y00215*
X00367Y00213*
Y00193*
X00366Y00191*
X00366Y00191*
X00365Y0019*
X00355Y00183*
X00343Y00178*
X0033Y00176*
X00329Y00176*
X00319Y00175*
X0031Y00171*
X00302Y00165*
X00296Y00157*
X00292Y00147*
X0029Y00137*
X00292Y00127*
X00296Y00118*
X00302Y0011*
X0031Y00104*
X00319Y001*
X00329Y00099*
X00339Y001*
X00348Y00104*
X00356Y0011*
X00363Y00118*
X00366Y00127*
X00368Y00137*
X00368Y00138*
X00369Y00151*
X00374Y00163*
X00382Y00173*
X00383Y00174*
X00383Y00174*
X00388Y00179*
X00391Y00183*
X00392Y00188*
Y00215*
X00396Y00217*
X00402Y0021*
X0041Y00204*
X00419Y002*
X00429Y00199*
X00439Y002*
X00448Y00204*
X00456Y0021*
X00463Y00218*
X00466Y00227*
X00468Y00237*
X00466Y00247*
X00463Y00257*
X00456Y00265*
X00448Y00271*
X00439Y00275*
X00429Y00276*
X00419Y00275*
X0041Y00271*
X00402Y00265*
X00396Y00258*
X00392Y00259*
Y003*
X00404Y00312*
X00551*
Y00312*
Y00312*
X00551Y00312*
X00555Y00312*
X00559Y00309*
X00559Y00309*
X00566Y00304*
X00575Y00302*
X00583Y00304*
X0059Y00309*
X00595Y00316*
X00597Y00325*
X00595Y00333*
X0059Y0034*
X00583Y00345*
X00575Y00347*
G37*
G36*
X00085Y00373D02*
X0008Y00372D01*
X00072Y00367*
X00067Y00359*
X00066Y00355*
X00085*
Y00373*
G37*
G36*
X00095D02*
Y00355D01*
X00113*
X00112Y00359*
X00107Y00367*
X00099Y00372*
X00095Y00373*
G37*
G36*
X01001Y01202D02*
X00951D01*
Y0116*
X01001*
Y01202*
G37*
G36*
X01326Y0175D02*
X01287D01*
X01288Y01744*
X01293Y01733*
X013Y01723*
X01309Y01716*
X0132Y01712*
X01326Y01711*
Y0175*
G37*
G36*
X01376D02*
X01336D01*
Y01711*
X01343Y01712*
X01354Y01716*
X01363Y01723*
X0137Y01733*
X01375Y01744*
X01376Y0175*
G37*
G36*
X00643Y01797D02*
X00558D01*
Y01713*
X00643*
Y01797*
G37*
G36*
X01242Y0175D02*
X01203D01*
Y01711*
X01209Y01712*
X0122Y01716*
X01229Y01723*
X01236Y01733*
X01241Y01744*
X01242Y0175*
G37*
G36*
X00896D02*
X00857D01*
X00858Y01744*
X00863Y01733*
X0087Y01723*
X00879Y01716*
X0089Y01712*
X00896Y01711*
Y0175*
G37*
G36*
X00946D02*
X00906D01*
Y01711*
X00913Y01712*
X00924Y01716*
X00933Y01723*
X0094Y01733*
X00945Y01744*
X00946Y0175*
G37*
G36*
X01193D02*
X01153D01*
X01154Y01744*
X01159Y01733*
X01166Y01723*
X01175Y01716*
X01186Y01712*
X01193Y01711*
Y0175*
G37*
G36*
X00461Y01799D02*
X00455Y01798D01*
X00444Y01794*
X00435Y01787*
X00428Y01778*
X00423Y01767*
X00422Y0176*
X00461*
Y01799*
G37*
G36*
X00471D02*
Y0176D01*
X00511*
X0051Y01767*
X00505Y01778*
X00498Y01787*
X00489Y01794*
X00478Y01798*
X00471Y01799*
G37*
G36*
X00763D02*
X00756Y01798D01*
X00745Y01794*
X00736Y01787*
X00729Y01778*
X00724Y01767*
X00723Y0176*
X00763*
Y01799*
G37*
G36*
X00338D02*
Y0176D01*
X00377*
X00376Y01767*
X00371Y01778*
X00364Y01787*
X00355Y01794*
X00344Y01798*
X00338Y01799*
G37*
G36*
X01078Y01797D02*
X00993D01*
Y01713*
X01078*
Y01797*
G37*
G36*
X01508D02*
X01423D01*
Y01713*
X01508*
Y01797*
G37*
G36*
X00328Y01799D02*
X00321Y01798D01*
X0031Y01794*
X00301Y01787*
X00294Y01778*
X00289Y01767*
X00288Y0176*
X00328*
Y01799*
G37*
G36*
X00812Y0175D02*
X00773D01*
Y01711*
X00779Y01712*
X0079Y01716*
X00799Y01723*
X00806Y01733*
X00811Y01744*
X00812Y0175*
G37*
G36*
X02287Y01693D02*
X02239D01*
Y01656*
X02287*
Y01693*
G37*
G36*
X02229Y0174D02*
X02181D01*
Y01703*
X02229*
Y0174*
G37*
G36*
X02287D02*
X02239D01*
Y01703*
X02287*
Y0174*
G37*
G36*
X02229Y01693D02*
X02181D01*
Y01656*
X02229*
Y01693*
G37*
G36*
X01398Y01652D02*
X01387Y01651D01*
X01377Y01646*
X01368Y0164*
X01361Y01631*
X01357Y01621*
X01356Y0161*
X01357Y01598*
X01361Y01588*
X01368Y01579*
X01377Y01573*
X01387Y01568*
X01398Y01567*
X01409Y01568*
X0142Y01573*
X01429Y01579*
X01435Y01588*
X0144Y01598*
X01441Y0161*
X0144Y01621*
X01435Y01631*
X01429Y0164*
X0142Y01646*
X01409Y01651*
X01398Y01652*
G37*
G36*
X0284Y01695D02*
X02794D01*
X02795Y01686*
X02801Y01674*
X02809Y01664*
X02819Y01656*
X02831Y0165*
X0284Y01649*
Y01695*
G37*
G36*
X02895D02*
X0285D01*
Y01649*
X02858Y0165*
X0287Y01656*
X0288Y01664*
X02888Y01674*
X02894Y01686*
X02895Y01695*
G37*
G36*
X00461Y0175D02*
X00422D01*
X00423Y01744*
X00428Y01733*
X00435Y01723*
X00444Y01716*
X00455Y01712*
X00461Y01711*
Y0175*
G37*
G36*
X00511D02*
X00471D01*
Y01711*
X00478Y01712*
X00489Y01716*
X00498Y01723*
X00505Y01733*
X0051Y01744*
X00511Y0175*
G37*
G36*
X00763D02*
X00723D01*
X00724Y01744*
X00729Y01733*
X00736Y01723*
X00745Y01716*
X00756Y01712*
X00763Y01711*
Y0175*
G37*
G36*
X00377D02*
X00338D01*
Y01711*
X00344Y01712*
X00355Y01716*
X00364Y01723*
X00371Y01733*
X00376Y01744*
X00377Y0175*
G37*
G36*
X0284Y0175D02*
X02831Y01749D01*
X02819Y01743*
X02809Y01735*
X02801Y01725*
X02795Y01713*
X02794Y01705*
X0284*
Y0175*
G37*
G36*
X0285D02*
Y01705D01*
X02895*
X02894Y01713*
X02888Y01725*
X0288Y01735*
X0287Y01743*
X02858Y01749*
X0285Y0175*
G37*
G36*
X00328Y0175D02*
X00288D01*
X00289Y01744*
X00294Y01733*
X00301Y01723*
X0031Y01716*
X00321Y01712*
X00328Y01711*
Y0175*
G37*
G36*
X00773Y01799D02*
Y0176D01*
X00812*
X00811Y01767*
X00806Y01778*
X00799Y01787*
X0079Y01794*
X00779Y01798*
X00773Y01799*
G37*
G36*
X01443Y02072D02*
X01358D01*
Y01987*
X01443*
Y02072*
G37*
G36*
X00137Y02223D02*
X00121Y02222D01*
X00104Y02218*
X00089Y02211*
X00075Y02203*
X00062Y02192*
X00051Y02179*
X00042Y02165*
X00036Y02149*
X00032Y02133*
X00031Y02116*
X00032Y021*
X00036Y02083*
X00042Y02068*
X00051Y02054*
X00062Y02041*
X00075Y0203*
X00089Y02021*
X00104Y02015*
X00121Y02011*
X00137Y0201*
X00154Y02011*
X0017Y02015*
X00186Y02021*
X002Y0203*
X00213Y02041*
X00224Y02054*
X00232Y02068*
X00239Y02083*
X00243Y021*
X00244Y02116*
X00243Y02133*
X00239Y02149*
X00232Y02165*
X00224Y02179*
X00213Y02192*
X002Y02203*
X00186Y02211*
X0017Y02218*
X00154Y02222*
X00137Y02223*
G37*
G36*
X02421D02*
X02404Y02222D01*
X02388Y02218*
X02372Y02211*
X02358Y02203*
X02345Y02192*
X02335Y02179*
X02326Y02165*
X02319Y02149*
X02315Y02133*
X02314Y02116*
X02315Y021*
X02319Y02083*
X02326Y02068*
X02335Y02054*
X02345Y02041*
X02358Y0203*
X02372Y02021*
X02388Y02015*
X02404Y02011*
X02421Y0201*
X02437Y02011*
X02454Y02015*
X02469Y02021*
X02483Y0203*
X02496Y02041*
X02507Y02054*
X02516Y02068*
X02522Y02083*
X02526Y021*
X02527Y02116*
X02526Y02133*
X02522Y02149*
X02516Y02165*
X02507Y02179*
X02496Y02192*
X02483Y02203*
X02469Y02211*
X02454Y02218*
X02437Y02222*
X02421Y02223*
G37*
G36*
X01013Y02072D02*
X00928D01*
Y01987*
X01013*
Y02072*
G37*
G36*
X01258Y02025D02*
X01218D01*
X01219Y02018*
X01224Y02007*
X01231Y01998*
X0124Y01991*
X01251Y01987*
X01258Y01986*
Y02025*
G37*
G36*
X01307D02*
X01268D01*
Y01986*
X01274Y01987*
X01285Y01991*
X01294Y01998*
X01301Y02007*
X01306Y02018*
X01307Y02025*
G37*
G36*
X00578Y02072D02*
X00493D01*
Y01987*
X00578*
Y02072*
G37*
G36*
X00838Y02074D02*
Y02035D01*
X00877*
X00876Y02041*
X00871Y02052*
X00864Y02062*
X00855Y02069*
X00844Y02073*
X00838Y02074*
G37*
G36*
X01258D02*
X01251Y02073D01*
X0124Y02069*
X01231Y02062*
X01224Y02052*
X01219Y02041*
X01218Y02035*
X01258*
Y02074*
G37*
G36*
X01268D02*
Y02035D01*
X01307*
X01306Y02041*
X01301Y02052*
X01294Y02062*
X01285Y02069*
X01274Y02073*
X01268Y02074*
G37*
G36*
X00828D02*
X00821Y02073D01*
X0081Y02069*
X00801Y02062*
X00794Y02052*
X00789Y02041*
X00788Y02035*
X00828*
Y02074*
G37*
G36*
X02834Y02223D02*
X02817Y02222D01*
X02801Y02218*
X02786Y02211*
X02771Y02203*
X02759Y02192*
X02748Y02179*
X02739Y02165*
X02733Y02149*
X02729Y02133*
X02728Y02116*
X02729Y021*
X02733Y02083*
X02739Y02068*
X02748Y02054*
X02759Y02041*
X02771Y0203*
X02786Y02021*
X02801Y02015*
X02817Y02011*
X02834Y0201*
X02851Y02011*
X02867Y02015*
X02883Y02021*
X02897Y0203*
X0291Y02041*
X0292Y02054*
X02929Y02068*
X02936Y02083*
X02939Y021*
X02941Y02116*
X02939Y02133*
X02936Y02149*
X02929Y02165*
X0292Y02179*
X0291Y02192*
X02897Y02203*
X02883Y02211*
X02867Y02218*
X02851Y02222*
X02834Y02223*
G37*
G36*
X00393Y02074D02*
X00386Y02073D01*
X00375Y02068*
X00366Y02061*
X00359Y02052*
X00354Y02041*
X00353Y02035*
X00393*
Y02074*
G37*
G36*
X00403D02*
Y02035D01*
X00442*
X00441Y02041*
X00436Y02052*
X00429Y02061*
X0042Y02068*
X00409Y02073*
X00403Y02074*
G37*
G36*
X00877Y02025D02*
X00838D01*
Y01986*
X00844Y01987*
X00855Y01991*
X00864Y01998*
X00871Y02007*
X00876Y02018*
X00877Y02025*
G37*
G36*
X01326Y01799D02*
X0132Y01798D01*
X01309Y01794*
X013Y01787*
X01293Y01778*
X01288Y01767*
X01287Y0176*
X01326*
Y01799*
G37*
G36*
X01336D02*
Y0176D01*
X01376*
X01375Y01767*
X0137Y01778*
X01363Y01787*
X01354Y01794*
X01343Y01798*
X01336Y01799*
G37*
G36*
X01834Y01913D02*
X01821Y01911D01*
X0181Y01907*
X018Y01899*
X01792Y01889*
X01787Y01877*
X01785Y01865*
X01787Y01852*
X01792Y0184*
X018Y0183*
X0181Y01822*
X01821Y01818*
X01834Y01816*
X01847Y01818*
X01858Y01822*
X01868Y0183*
X01876Y0184*
X01881Y01852*
X01883Y01865*
X01881Y01877*
X01876Y01889*
X01868Y01899*
X01858Y01907*
X01847Y01911*
X01834Y01913*
G37*
G36*
X01203Y01799D02*
Y0176D01*
X01242*
X01241Y01767*
X01236Y01778*
X01229Y01787*
X0122Y01794*
X01209Y01798*
X01203Y01799*
G37*
G36*
X00896D02*
X0089Y01798D01*
X00879Y01794*
X0087Y01787*
X00863Y01778*
X00858Y01767*
X00857Y0176*
X00896*
Y01799*
G37*
G36*
X00906D02*
Y0176D01*
X00946*
X00945Y01767*
X0094Y01778*
X00933Y01787*
X00924Y01794*
X00913Y01798*
X00906Y01799*
G37*
G36*
X01193D02*
X01186Y01798D01*
X01175Y01794*
X01166Y01787*
X01159Y01778*
X01154Y01767*
X01153Y0176*
X01193*
Y01799*
G37*
G36*
X00393Y02025D02*
X00353D01*
X00354Y02018*
X00359Y02007*
X00366Y01998*
X00375Y01991*
X00386Y01986*
X00393Y01985*
Y02025*
G37*
G36*
X00442D02*
X00403D01*
Y01985*
X00409Y01986*
X0042Y01991*
X00429Y01998*
X00436Y02007*
X00441Y02018*
X00442Y02025*
G37*
G36*
X00828Y02025D02*
X00788D01*
X00789Y02018*
X00794Y02007*
X00801Y01998*
X0081Y01991*
X00821Y01987*
X00828Y01986*
Y02025*
G37*
G36*
X02893Y01948D02*
X02796D01*
Y01851*
X02893*
Y01948*
G37*
G36*
X02425Y01913D02*
X02412Y01911D01*
X024Y01907*
X0239Y01899*
X02382Y01889*
X02378Y01877*
X02376Y01865*
X02378Y01852*
X02382Y0184*
X0239Y0183*
X024Y01822*
X02412Y01818*
X02425Y01816*
X02437Y01818*
X02449Y01822*
X02459Y0183*
X02467Y0184*
X02471Y01852*
X02473Y01865*
X02471Y01877*
X02467Y01889*
X02459Y01899*
X02449Y01907*
X02437Y01911*
X02425Y01913*
G37*
G36*
X02621D02*
X02609Y01911D01*
X02597Y01907*
X02587Y01899*
X02579Y01889*
X02574Y01877*
X02573Y01865*
X02574Y01852*
X02579Y0184*
X02587Y0183*
X02597Y01822*
X02609Y01818*
X02621Y01816*
X02634Y01818*
X02646Y01822*
X02656Y0183*
X02663Y0184*
X02668Y01852*
X0267Y01865*
X02668Y01877*
X02663Y01889*
X02656Y01899*
X02646Y01907*
X02634Y01911*
X02621Y01913*
G37*
G36*
X02031D02*
X02018Y01911D01*
X02006Y01907*
X01996Y01899*
X01989Y01889*
X01984Y01877*
X01982Y01865*
X01984Y01852*
X01989Y0184*
X01996Y0183*
X02006Y01822*
X02018Y01818*
X02031Y01816*
X02043Y01818*
X02055Y01822*
X02061Y01827*
X02184*
Y01825*
X02285*
Y01904*
X02184*
Y01902*
X02061*
X02055Y01907*
X02043Y01911*
X02031Y01913*
G37*
G36*
X00968Y01652D02*
X00957Y01651D01*
X00947Y01646*
X00938Y0164*
X00931Y01631*
X00927Y01621*
X00926Y0161*
X00927Y01598*
X00931Y01588*
X00938Y01579*
X00947Y01573*
X00957Y01568*
X00968Y01567*
X00979Y01568*
X0099Y01573*
X00999Y01579*
X01005Y01588*
X0101Y01598*
X01011Y0161*
X0101Y01621*
X01005Y01631*
X00999Y0164*
X0099Y01646*
X00979Y01651*
X00968Y01652*
G37*
G36*
X0281Y01312D02*
X02774D01*
Y01276*
X0281*
Y01312*
G37*
G36*
X02855D02*
X0282D01*
Y01276*
X02855*
Y01312*
G37*
G36*
X02555Y01307D02*
X02524D01*
Y01276*
X02555*
Y01307*
G37*
G36*
X01364Y01284D02*
X0134D01*
Y01259*
X01364*
Y01284*
G37*
G36*
X009D02*
X00875D01*
Y01259*
X009*
Y01284*
G37*
G36*
X00934D02*
X0091D01*
Y01259*
X00934*
Y01284*
G37*
G36*
X0133D02*
X01305D01*
Y01259*
X0133*
Y01284*
G37*
G36*
X02595Y01307D02*
X02565D01*
Y01276*
X02595*
Y01307*
G37*
G36*
X01265Y01652D02*
X01253Y01651D01*
X01243Y01646*
X01234Y0164*
X01228Y01631*
X01223Y01621*
X01222Y0161*
X01223Y01598*
X01228Y01588*
X01234Y01579*
X01235Y01579*
X01242Y0157*
X01247Y01558*
X01248Y01547*
Y01546*
X01248Y01545*
X01248*
Y01391*
X01195*
X01188Y01389*
X01183Y01386*
X0118Y01381*
X01178Y01375*
Y01353*
X01178*
X01178Y01353*
X01178Y01349*
X01175Y01345*
X01175*
X01174Y01344*
X0117Y01339*
X01168Y01332*
X01167Y01325*
X01168Y01318*
X0117Y01311*
X01175Y01305*
X01181Y01301*
X01187Y01298*
X01195Y01297*
X01202Y01298*
X01208Y01301*
X01214Y01305*
X01219Y01311*
X01221Y01318*
X01222Y01325*
X01221Y01332*
X01219Y01339*
X01215Y01344*
X01214Y01345*
X01214*
X01211Y01349*
X01211Y01353*
X01211Y01353*
Y01355*
X01214Y01358*
X01248*
Y01353*
X01241Y01352*
X01237*
Y01297*
X01292*
Y01352*
X01288*
X01281Y01353*
Y01355*
X01284Y01358*
X01318*
Y01353*
X01311Y01352*
X01307*
Y01297*
X01362*
Y01352*
X01358*
X01351Y01353*
X01351*
Y01375*
X01349Y01381*
X01346Y01386*
X01341Y01389*
X01335Y01391*
X01281*
Y01545*
X01281*
X01281Y01546*
Y01547*
X01282Y01558*
X01287Y0157*
X01294Y01579*
X01295Y01579*
X01301Y01588*
X01306Y01598*
X01307Y0161*
X01306Y01621*
X01301Y01631*
X01295Y0164*
X01286Y01646*
X01276Y01651*
X01265Y01652*
G37*
G36*
X01789Y0134D02*
X01764D01*
Y01315*
X01789*
Y0134*
G37*
G36*
X01824D02*
X01799D01*
Y01315*
X01824*
Y0134*
G37*
G36*
X00835Y01652D02*
X00823Y01651D01*
X00813Y01646*
X00804Y0164*
X00798Y01631*
X00793Y01621*
X00792Y0161*
X00793Y01598*
X00798Y01588*
X00804Y01579*
X00805Y01579*
X00812Y0157*
X00817Y01558*
X00818Y01547*
Y01546*
X00818Y01545*
X00818*
Y01391*
X00765*
X00758Y01389*
X00753Y01386*
X0075Y01381*
X00748Y01375*
Y01353*
X00748*
X00748Y01353*
X00748Y01349*
X00745Y01345*
X00745*
X00744Y01344*
X0074Y01339*
X00738Y01332*
X00737Y01325*
X00738Y01318*
X0074Y01311*
X00745Y01305*
X00751Y01301*
X00757Y01298*
X00765Y01297*
X00772Y01298*
X00778Y01301*
X00784Y01305*
X00789Y01311*
X00791Y01318*
X00792Y01325*
X00791Y01332*
X00789Y01339*
X00785Y01344*
X00784Y01345*
X00784*
X00781Y01349*
X00781Y01353*
X00781Y01353*
Y01355*
X00784Y01358*
X00818*
Y01353*
X00811Y01352*
X00807*
Y01297*
X00862*
Y01352*
X00858*
X00851Y01353*
Y01355*
X00854Y01358*
X00888*
Y01353*
X00881Y01352*
X00877*
Y01297*
X00932*
Y01352*
X00928*
X00921Y01353*
X00921*
Y01375*
X00919Y01381*
X00916Y01386*
X00911Y01389*
X00905Y01391*
X00851*
Y01545*
X00851*
X00851Y01546*
Y01547*
X00852Y01558*
X00857Y0157*
X00864Y01579*
X00865Y01579*
X00871Y01588*
X00876Y01598*
X00877Y0161*
X00876Y01621*
X00871Y01631*
X00865Y0164*
X00856Y01646*
X00846Y01651*
X00835Y01652*
G37*
G36*
X01637Y01312D02*
X0162D01*
Y0128*
X01637*
Y01312*
G37*
G36*
X01664D02*
X01647D01*
Y0128*
X01664*
Y01312*
G37*
G36*
X004Y01652D02*
X00388Y01651D01*
X00378Y01646*
X00369Y0164*
X00363Y01631*
X00358Y01621*
X00357Y0161*
X00358Y01598*
X00363Y01588*
X00369Y01579*
X0037Y01579*
X00377Y0157*
X00382Y01558*
X00383Y01547*
Y01546*
X00383Y01545*
X00383*
Y01391*
X0033*
X00323Y01389*
X00318Y01386*
X00315Y01381*
X00313Y01375*
Y01353*
X00313*
X00313Y01353*
X00313Y01349*
X0031Y01345*
X0031*
X00309Y01344*
X00305Y01339*
X00303Y01332*
X00302Y01325*
X00303Y01318*
X00305Y01311*
X0031Y01305*
X00316Y01301*
X00322Y01298*
X0033Y01297*
X00337Y01298*
X00343Y01301*
X00349Y01305*
X00354Y01311*
X00356Y01318*
X00357Y01325*
X00356Y01332*
X00354Y01339*
X0035Y01344*
X00349Y01345*
X00349*
X00346Y01349*
X00346Y01353*
X00346Y01353*
Y01355*
X00349Y01358*
X00383*
Y01353*
X00376Y01352*
X00372*
Y01297*
X00427*
Y01352*
X00423*
X00416Y01353*
Y01355*
X00419Y01358*
X00453*
Y01353*
X00446Y01352*
X00442*
Y01297*
X00497*
Y01352*
X00493*
X00486Y01353*
X00486*
Y01375*
X00484Y01381*
X00481Y01386*
X00476Y01389*
X0047Y01391*
X00416*
Y01545*
X00416*
X00416Y01546*
Y01547*
X00417Y01558*
X00422Y0157*
X00429Y01579*
X0043Y01579*
X00436Y01588*
X00441Y01598*
X00442Y0161*
X00441Y01621*
X00436Y01631*
X0043Y0164*
X00421Y01646*
X00411Y01651*
X004Y01652*
G37*
G36*
X00499Y01284D02*
X00475D01*
Y01259*
X00499*
Y01284*
G37*
G36*
X01674Y0124D02*
X01649D01*
Y01215*
X01674*
Y0124*
G37*
G36*
X00465Y01249D02*
X0044D01*
Y01224*
X00465*
Y01249*
G37*
G36*
X00499D02*
X00475D01*
Y01224*
X00499*
Y01249*
G37*
G36*
X01061Y01255D02*
X01011D01*
Y01212*
X01061*
Y01255*
G37*
G36*
Y01202D02*
X01011D01*
Y0116*
X01061*
Y01202*
G37*
G36*
X00585Y01225D02*
X00529D01*
Y01161*
X00585*
Y01225*
G37*
G36*
X01001Y01255D02*
X00951D01*
Y01212*
X01001*
Y01255*
G37*
G36*
X009Y01249D02*
X00875D01*
Y01224*
X009*
Y01249*
G37*
G36*
X02855Y01266D02*
X0282D01*
Y01231*
X02855*
Y01266*
G37*
G36*
X01674Y01274D02*
X01649D01*
Y0125*
X01674*
Y01274*
G37*
G36*
X00465Y01284D02*
X0044D01*
Y01259*
X00465*
Y01284*
G37*
G36*
X0281Y01266D02*
X02774D01*
Y01231*
X0281*
Y01266*
G37*
G36*
X00934Y01249D02*
X0091D01*
Y01224*
X00934*
Y01249*
G37*
G36*
X0133D02*
X01305D01*
Y01224*
X0133*
Y01249*
G37*
G36*
X01364D02*
X0134D01*
Y01224*
X01364*
Y01249*
G37*
G36*
X02029Y0134D02*
X02004D01*
Y01315*
X02029*
Y0134*
G37*
G36*
X01743Y01638D02*
X01666D01*
Y01561*
X01743*
Y01638*
G37*
G36*
X02223Y01636D02*
X02146D01*
Y0156*
X02223*
Y01636*
G37*
G36*
X01945Y0154D02*
X01934Y01538D01*
X01925Y01535*
X01917Y01528*
X01917Y01528*
X01909Y01522*
X019Y01518*
X01891Y01517*
X0189*
X0189Y01517*
Y01517*
X01849*
Y01535*
X0181*
Y01465*
X01849*
Y01485*
X0189*
Y01485*
X0189Y01485*
X01891*
X019Y01484*
X01909Y0148*
X01917Y01474*
X01917Y01474*
X01925Y01468*
X01934Y01464*
X01945Y01462*
X01955Y01464*
X01964Y01468*
X01972Y01474*
X01978Y01482*
X01982Y01491*
X01983Y01501*
X01982Y01511*
X01978Y0152*
X01972Y01528*
X01964Y01535*
X01955Y01538*
X01945Y0154*
G37*
G36*
X01814Y01412D02*
X01797D01*
Y0138*
X01814*
Y01412*
G37*
G36*
X02027D02*
X0201D01*
Y0138*
X02027*
Y01412*
G37*
G36*
X01983Y01638D02*
X01906D01*
Y01561*
X01983*
Y01638*
G37*
G36*
X02054Y01412D02*
X02037D01*
Y0138*
X02054*
Y01412*
G37*
G36*
X02027Y01455D02*
X0201D01*
Y01422*
X02027*
Y01455*
G37*
G36*
X02054D02*
X02037D01*
Y01422*
X02054*
Y01455*
G37*
G36*
X02815Y01507D02*
X02804Y01505D01*
X02795Y01501*
X02787Y01495*
X02787Y01495*
X0278Y0149*
X02772Y01487*
X02764Y01486*
X02757*
X02756Y01486*
Y01486*
X02602*
X02595Y01486*
X02589Y01489*
X02583Y01493*
X02583Y01493*
X02583Y01493*
X02583Y01494*
X02576Y01499*
X02568Y01502*
X0256Y01503*
X02551Y01502*
X02543Y01499*
X02536Y01494*
X02536Y01493*
X02536Y01493*
X02536Y01493*
X0253Y01489*
X02524Y01486*
X02517Y01486*
X02335*
X02329Y01485*
X02328Y01484*
X02323Y01481*
X02088Y01246*
X02074*
X02073Y0125*
X02113Y01291*
X02116Y01295*
X02117Y013*
Y01306*
X02117*
X02117Y01307*
X02118Y01313*
X02119Y01317*
X02132*
Y01372*
X0212*
X02119Y01377*
Y01382*
X02127*
Y01453*
X02087*
Y01382*
X02091*
X02093Y01378*
X02091Y01372*
X02077*
Y01317*
X0209*
X02092Y01313*
X02093Y01307*
X02093Y01306*
X02093*
Y01305*
X0205Y01262*
X01932*
X01927Y01261*
X01925Y0126*
X01923Y01258*
X01882Y01216*
X01877Y01218*
Y01306*
X01877*
X01877Y01307*
X01878Y01313*
X01879Y01317*
X01892*
Y01372*
X0188*
X01879Y01377*
Y01382*
X01887*
Y01453*
X01847*
Y01382*
X01851*
X01853Y01378*
X01851Y01372*
X01837*
Y01317*
X0185*
X01852Y01313*
X01853Y01307*
X01853Y01306*
X01853*
Y0121*
X01739Y01096*
X01734Y01098*
Y01147*
X01734Y01152*
X01732Y01153*
X01731Y01156*
X01727Y01159*
Y01206*
X01727*
X01727Y01207*
X01728Y01213*
X01729Y01217*
X01742*
Y01272*
X0173*
X01729Y01277*
Y01282*
X01737*
Y01353*
X01697*
Y01282*
X01701*
X01703Y01278*
X01701Y01272*
X01687*
Y01217*
X017*
X01702Y01213*
X01703Y01207*
X01703Y01206*
X01703*
Y01155*
X01704Y0115*
X01706Y01146*
X0171Y01142*
Y0111*
X01705Y01109*
X01704Y01113*
X01699Y01119*
X01617Y01201*
Y01215*
X01639*
Y01245*
Y01274*
X01614*
Y01265*
X0161Y01264*
X01609Y01264*
X01603Y01269*
X01597Y01271*
X0159Y01272*
X01582Y01271*
X01576Y01269*
X0157Y01264*
X01566Y01267*
Y0137*
X01564Y01376*
X01561Y01381*
X01548Y01394*
X01543Y01397*
X01542Y01398*
X01536Y01399*
X01536*
X01536*
X01528Y014*
X0152Y01403*
X01518Y01405*
Y01448*
X01401*
Y01317*
X01518*
Y0136*
X0152Y01362*
X01528Y01365*
X0153Y01366*
X01533Y01362*
Y01159*
X01534Y01153*
X01535Y01152*
X01538Y01147*
X01547Y01138*
X01548Y01137*
X01549Y0113*
X01553Y01124*
X01553Y01123*
Y01005*
X01553Y01004*
X01549Y00998*
X01547Y0099*
X01549Y00981*
X01554Y00974*
X01561Y00969*
X01568Y00968*
X01569Y00967*
X01598Y00938*
Y00828*
X0157Y008*
X01566Y00802*
Y0091*
X01564Y00916*
X01561Y00921*
X01418Y01064*
X0142Y01068*
X01455*
Y01131*
X01399*
Y01089*
X01395Y01087*
X01391Y01089*
X0139Y0109*
X01385Y01091*
X0065*
Y01114*
X00654Y01118*
X0066Y01116*
X00668Y01118*
X00675Y01123*
X0068Y0113*
X00682Y01139*
X0068Y01147*
X00678Y0115*
Y0139*
X00676Y01396*
X00672Y01402*
X00659Y01415*
X00653Y01419*
X00648Y0142*
Y01468*
X00531*
Y01337*
X00641*
Y01225*
X00595*
Y01156*
X0059*
Y01151*
X00529*
Y01091*
X00065*
X00058Y01089*
X00053Y01086*
X0005Y01081*
X00048Y01075*
X0005Y01068*
X00053Y01064*
Y0106*
X00052*
X00052Y01059*
X00052Y01053*
X0005Y01049*
X00037*
Y00994*
X0005*
X00051Y00989*
Y00982*
X00043*
Y00911*
X00082*
Y00982*
X00079*
X00076Y00986*
X00076Y00987*
X00079Y00994*
X00092*
Y01049*
X00079*
X00078Y01053*
X00077Y01055*
X00081Y01058*
X00224*
X00228Y01055*
X00227Y01053*
X00226Y01049*
X00213*
Y00994*
X00225*
X00226Y00989*
Y00982*
X00219*
Y00911*
X00258*
Y00982*
X00255*
X00251Y00986*
X00251Y00987*
X00254Y00994*
X00268*
Y01049*
X00255*
X00253Y01053*
X00253Y01055*
X00256Y01058*
X00409*
X00413Y01055*
X00412Y01053*
X00411Y01049*
X00398*
Y00994*
X0041*
X00411Y00989*
Y00982*
X00404*
Y00911*
X00443*
Y00982*
X0044*
X00436Y00986*
X00436Y00987*
X00439Y00994*
X00453*
Y01049*
X0044*
X00438Y01053*
X00438Y01055*
X00441Y01058*
X00578*
X00581Y01055*
X00581Y01053*
X00579Y01049*
X00566*
Y00994*
X00579*
X0058Y00989*
Y00982*
X00572*
Y00911*
X00612*
Y00982*
X00608*
X00605Y00986*
X00605Y00987*
X00608Y00994*
X00621*
Y01049*
X00608*
X00607Y01053*
X00607Y01055*
X0061Y01058*
X00751*
X00754Y01055*
X00754Y01053*
X00753Y01049*
X0074*
Y00994*
X00752*
X00753Y00989*
Y00982*
X00745*
Y00911*
X00785*
Y00982*
X00781*
X00778Y00986*
X00778Y00987*
X00781Y00994*
X00795*
Y01049*
X00782*
X0078Y01053*
X0078Y01055*
X00783Y01058*
X0092*
X00924Y01055*
X00923Y01053*
X00922Y01049*
X00909*
Y00994*
X00921*
X00922Y00989*
Y00982*
X00915*
Y00911*
X00954*
Y00982*
X00951*
X00947Y00986*
X00948Y00987*
X0095Y00994*
X00964*
Y01049*
X00951*
X00949Y01053*
X00949Y01055*
X00952Y01058*
X01378*
X01533Y00903*
Y00756*
X01458Y00681*
X01205*
X01198Y00679*
X01197Y00678*
X01193Y00676*
X01114Y00597*
X01111Y00592*
X01111Y00591*
X0111Y00586*
Y00563*
X01105Y00561*
X011Y00565*
X0109Y00569*
X01085Y0057*
Y0053*
X01075*
Y0057*
X0107Y00569*
X01068Y00574*
X01202Y00707*
X0129*
X01294Y00708*
X01298Y00711*
X01318Y00731*
X01318Y00731*
X01319Y00732*
X01328Y00739*
X01341Y00744*
X01354Y00746*
X01355Y00746*
X01356Y00746*
X01393*
Y00823*
X01316*
Y00786*
X01316Y00785*
X01316Y00784*
X01314Y00771*
X01309Y00758*
X01302Y00749*
X01301Y00748*
X01301Y00748*
X01285Y00732*
X01197*
X01192Y00731*
X01188Y00728*
X01021Y00561*
X01018Y00557*
X01018Y00554*
X01013Y00553*
X01008Y00558*
X01Y00565*
X0099Y00569*
X00985Y0057*
Y0053*
X00975*
Y0057*
X00969Y00569*
X00959Y00565*
X00951Y00558*
X00946Y00553*
X00942Y00554*
Y0057*
X00964Y00592*
X01006*
X01011Y00593*
X01015Y00595*
X01079Y00659*
X01081Y00663*
X01082Y00668*
Y00695*
X01118Y00731*
X01118Y00731*
X01119Y00732*
X01128Y00739*
X01141Y00744*
X01153Y00746*
X01155Y00746*
X01165Y00747*
X01174Y00751*
X01182Y00757*
X01188Y00765*
X01192Y00774*
X01193Y00785*
X01192Y00795*
X01188Y00804*
X01182Y00812*
X01174Y00818*
X01165Y00822*
X01155Y00823*
X01144Y00822*
X01135Y00818*
X01127Y00812*
X01121Y00804*
X01117Y00795*
X01116Y00785*
X01116Y00783*
X01114Y00771*
X01109Y00758*
X01102Y00749*
X01101Y00748*
X01101Y00748*
X01071Y00718*
X01067Y0072*
Y0072*
X01067Y00722*
X01068Y00734*
X01073Y00746*
X01081Y00756*
X01082Y00757*
X01088Y00765*
X01092Y00774*
X01093Y00785*
X01092Y00795*
X01088Y00804*
X01082Y00812*
X01074Y00818*
X01065Y00822*
X01055Y00823*
X01044Y00822*
X01035Y00818*
X01027Y00812*
X01021Y00804*
X01017Y00795*
X01016Y00785*
X01017Y00774*
X01021Y00765*
X01027Y00757*
X01028Y00756*
X01036Y00746*
X01041Y00734*
X01042Y00722*
X01042Y0072*
X01042*
Y00679*
X00995Y00632*
X00895*
X0089Y00631*
X00886Y00628*
X00821Y00563*
X00818Y00559*
X00817Y00555*
Y00551*
X00813Y00549*
X00807Y00557*
X00799Y00563*
X0079Y00567*
X0078Y00568*
X00769Y00567*
X0076Y00563*
X00752Y00557*
X00746Y00549*
X00742Y0054*
X00741Y0053*
X00742Y00519*
X00746Y0051*
X00752Y00502*
X0076Y00496*
X00769Y00492*
X0078Y00491*
X0079Y00492*
X00799Y00496*
X00807Y00502*
X00813Y0051*
X00817Y00508*
Y00451*
X00813Y00449*
X00807Y00457*
X00799Y00463*
X0079Y00467*
X0078Y00468*
X00769Y00467*
X0076Y00463*
X00752Y00457*
X00746Y00449*
X00742Y00451*
Y0046*
X00741Y00464*
X00738Y00468*
X00723Y00483*
X00719Y00486*
X00715Y00487*
X00686*
X00685Y00492*
X0069Y00492*
X00699Y00496*
X00707Y00502*
X00713Y0051*
X00717Y00519*
X00718Y0053*
X00718Y00531*
X0072Y00543*
X00725Y00556*
X00732Y00565*
X00733Y00566*
X00733Y00566*
X00754Y00587*
X0078*
X00784Y00588*
X00788Y00591*
X00903Y00706*
X00906Y0071*
X00907Y00715*
Y0076*
X0092Y00773*
X00934*
X00934Y00773*
X00934*
Y00773*
X00934Y00773*
X00941Y00772*
X00944Y0077*
Y00757*
X00999*
Y00812*
X00986*
X00985Y00816*
X00984Y00822*
X00984Y00823*
X00984*
Y00829*
X00992*
Y009*
X00952*
Y00829*
X0096*
Y00823*
X0096*
X0096Y00822*
X00959Y00816*
X00957Y00812*
X00944*
Y00799*
X00941Y00798*
X00934Y00797*
X00934Y00797*
X00934*
X00934Y00797*
X00915*
X0091Y00796*
X00906Y00793*
X00886Y00773*
X00883Y00769*
X00882Y00765*
Y00719*
X00829Y00666*
X00824Y00668*
X00823Y00675*
X0082Y0068*
X0082Y0068*
X00819Y00682*
X0082Y00684*
X00822Y00687*
X0083*
Y00742*
X00775*
Y00687*
X00783*
X00785Y00684*
X00786Y00682*
X00785Y0068*
X00785Y0068*
X00782Y00675*
X0078Y00666*
X00782Y00658*
X00787Y00651*
X00794Y00646*
X00801Y00645*
X00803Y0064*
X00775Y00612*
X0075*
X00745Y00611*
X00743Y0061*
X00741Y00608*
X00716Y00583*
X00716Y00583*
X00715Y00582*
X00706Y00575*
X00693Y0057*
X00681Y00568*
X0068Y00568*
X00669Y00567*
X0066Y00563*
X00652Y00557*
X00646Y00549*
X00642Y0054*
X00641Y0053*
X00642Y00519*
X00646Y0051*
X00652Y00502*
X0066Y00496*
X00669Y00492*
X00674Y00492*
X00673Y00487*
X00586*
X00585Y00492*
X0059Y00492*
X00599Y00496*
X00607Y00502*
X00613Y0051*
X00617Y00519*
X00618Y0053*
X00617Y0054*
X00614Y00547*
X00691Y00624*
X00694Y00628*
X00694Y00632*
Y00727*
X0074Y00773*
X00764*
X00765Y00773*
X00765*
Y00773*
X00765Y00773*
X00771Y00772*
X00775Y0077*
Y00757*
X0083*
Y00812*
X00817*
X00816Y00816*
X00815Y00822*
X00815Y00823*
X00815*
Y00829*
X00822*
Y009*
X00783*
Y00829*
X0079*
Y00823*
X0079*
X0079Y00822*
X0079Y00816*
X00788Y00812*
X00775*
Y00799*
X00771Y00798*
X00765Y00797*
X00765Y00797*
X00765*
X00764Y00797*
X00735*
X0073Y00796*
X00729Y00795*
X00726Y00793*
X00683Y0075*
X00679Y00752*
Y00911*
X00686*
Y00982*
X00679*
Y00989*
X0068Y00994*
X00692*
Y01049*
X00637*
Y00994*
X00651*
X00654Y00987*
X00654Y00986*
X0065Y00982*
X00647*
Y00911*
X00655*
Y00812*
X00644*
X00642Y00816*
X00641Y00822*
X00642Y00823*
X00641*
Y00829*
X00649*
Y009*
X0061*
Y00829*
X00617*
Y00823*
X00617*
X00617Y00822*
X00616Y00816*
X00615Y00812*
X00602*
Y00799*
X00598Y00798*
X00592Y00797*
X00591Y00797*
X00591*
X00591Y00797*
X0057*
X00565Y00796*
X00561Y00793*
X00559Y0079*
X00558Y00785*
Y00626*
X00554Y00624*
X00551Y00625*
X00551Y00625*
X00549Y00633*
X00545Y00641*
X00544Y00641*
X00542Y00644*
X00541Y00649*
X00541Y00649*
X00541*
Y0083*
X0054Y00835*
X00539Y00836*
X00538Y00838*
X0051Y00866*
Y00911*
X00518*
Y00982*
X0051*
Y00989*
X00511Y00994*
X00524*
Y01049*
X00469*
Y00994*
X00482*
X00485Y00987*
X00485Y00986*
X00482Y00982*
X00478*
Y00911*
X00486*
Y00861*
X00487Y00856*
X0049Y00852*
X00517Y00825*
Y00649*
X00517*
X00517Y00649*
X00516Y00644*
X00514Y00641*
X00513Y00641*
X00509Y00633*
X00507Y00625*
X00509Y00617*
X00513Y00609*
X00521Y00605*
X00529Y00603*
X00529Y00603*
X00531Y00599*
X00516Y00583*
X00516Y00583*
X00515Y00582*
X00506Y00575*
X00493Y0057*
X00481Y00568*
X0048Y00568*
X00469Y00567*
X0046Y00563*
X00452Y00557*
X00446Y00549*
X00442Y0054*
X00441Y0053*
X00442Y00521*
X00437Y00519*
X00402Y00554*
Y0074*
X00429Y00767*
X00433Y00765*
Y00757*
X00488*
Y00812*
X00475*
X00474Y00816*
X00473Y00822*
X00473Y00823*
X00473*
Y00829*
X0048*
Y009*
X00441*
Y00829*
X00449*
Y00823*
X00448*
X00449Y00822*
X00448Y00816*
X00446Y00812*
X00433*
Y00798*
X0043Y00797*
Y00797*
Y00797*
X00425Y00796*
X00424Y00795*
X00421Y00793*
X00381Y00753*
X00378Y00749*
X00377Y00745*
Y0055*
X00378Y00545*
X00381Y00541*
X00456Y00466*
X00457Y00466*
X00457Y00461*
X00452Y00457*
X00451Y00456*
X00441Y00448*
X00429Y00443*
X00417Y00442*
X00415Y00442*
Y00442*
X00399*
X00344Y00497*
X00345Y00502*
X00346Y00503*
X00351Y00499*
X0036Y00497*
X00368Y00499*
X00375Y00504*
X0038Y00511*
X00382Y0052*
X0038Y00528*
X00375Y00535*
X00375Y00535*
X00372Y00539*
X00372Y00543*
X00372Y00543*
X00372*
Y0083*
X00371Y00834*
X00368Y00838*
X00325Y00881*
Y00911*
X00333*
Y00982*
X00325*
Y00989*
X00326Y00994*
X00339*
Y01049*
X00284*
Y00994*
X00297*
X003Y00987*
X003Y00986*
X00297Y00982*
X00293*
Y00911*
X00301*
Y00876*
X00302Y00871*
X00305Y00867*
X00347Y00825*
Y00543*
X00347*
X00347Y00543*
X00347Y00542*
X00343Y0054*
X00342Y0054*
Y00765*
X00341Y00769*
X00338Y00773*
X00318Y00793*
X00314Y00796*
X00309Y00797*
Y00797*
X00309*
X00309Y00797*
X00303Y00798*
Y00812*
X0029*
X00289Y00816*
X00288Y00822*
X00288Y00823*
X00288*
Y00829*
X00295*
Y009*
X00256*
Y00829*
X00264*
Y00823*
X00263*
X00264Y00822*
X00263Y00816*
X00261Y00812*
X00248*
Y00757*
X00303*
Y00767*
X00308Y00769*
X00317Y0076*
Y00495*
X00318Y0049*
X00321Y00486*
X00386Y00421*
X0039Y00418*
X00395Y00417*
X00415*
Y00417*
X00417Y00417*
X00429Y00416*
X00441Y00411*
X00451Y00403*
X00452Y00402*
X0046Y00396*
X00469Y00392*
X00474Y00392*
X00473Y00387*
X00234*
X00223Y00398*
X00225Y00402*
X00233Y00404*
X0024Y00409*
X00245Y00416*
X00247Y00425*
X00245Y00433*
X0024Y0044*
X0024Y0044*
X00237Y00444*
X00237Y00448*
X00237Y00448*
X00237*
Y0075*
X00236Y00754*
X00233Y00758*
X00149Y00842*
Y00911*
X00157*
Y00982*
X00149*
Y00989*
X0015Y00994*
X00163*
Y01049*
X00108*
Y00994*
X00121*
X00124Y00987*
X00124Y00986*
X00121Y00982*
X00118*
Y00911*
X00125*
Y00837*
X00126Y00832*
X00129Y00828*
X00212Y00745*
Y00448*
X00212*
X00212Y00448*
X00212Y00444*
X00209Y0044*
X00209Y0044*
X00204Y00433*
X00202Y00425*
X00198Y00423*
X00057Y00564*
Y00765*
X00065Y00773*
X00069Y00772*
X00072Y0077*
Y00757*
X00128*
Y00812*
X00115*
X00113Y00816*
X00112Y00822*
X00112Y00823*
X00112*
Y00829*
X0012*
Y009*
X0008*
Y00829*
X00088*
Y00823*
X00088*
X00088Y00822*
X00087Y00816*
X00085Y00812*
X00072*
Y00799*
X00069Y00798*
X00063Y00797*
X00062Y00797*
X00062*
X00062Y00797*
X0006*
X00055Y00796*
X00051Y00793*
X00036Y00778*
X00033Y00774*
X00032Y0077*
Y0056*
X00033Y00555*
X00036Y00551*
X00221Y00366*
X00221*
X00221*
X00221*
X00225Y00363*
X0023Y00362*
X00625*
X00629Y00363*
X00633Y00366*
X00643Y00376*
X00643Y00376*
X00644Y00377*
X00653Y00384*
X00666Y00389*
X00678Y00391*
X0068Y00391*
X0069Y00392*
X00699Y00396*
X00707Y00402*
X00713Y0041*
X00716Y00409*
X00717Y00404*
X0062Y00307*
X006*
X00595Y00306*
X00591Y00303*
X00571Y00283*
X00568Y00279*
X00567Y00275*
Y00259*
X00563Y00257*
X00556Y00265*
X00548Y00271*
X00539Y00275*
X00529Y00276*
X00519Y00275*
X0051Y00271*
X00502Y00265*
X00496Y00257*
X00492Y00247*
X0049Y00237*
X00492Y00227*
X00496Y00218*
X00502Y0021*
X0051Y00204*
X00519Y002*
X00529Y00199*
X00539Y002*
X00548Y00204*
X00556Y0021*
X00563Y00218*
X00567Y00216*
Y00193*
X00566Y00191*
X00566Y00191*
X00565Y0019*
X00555Y00183*
X00543Y00178*
X0053Y00176*
X00529Y00176*
X00519Y00175*
X0051Y00171*
X00502Y00165*
X00496Y00157*
X00492Y00147*
X0049Y00137*
X00492Y00127*
X00496Y00118*
X00502Y0011*
X0051Y00104*
X00515Y00101*
X00514Y00097*
X00487*
X00483Y001*
Y001*
X00483Y00101*
X00482Y00101*
X00474Y00111*
X00469Y00124*
X00468Y00136*
X00468Y00137*
X00466Y00147*
X00463Y00157*
X00456Y00165*
X00448Y00171*
X00439Y00175*
X00429Y00176*
X00419Y00175*
X0041Y00171*
X00402Y00165*
X00396Y00157*
X00392Y00147*
X0039Y00137*
X00392Y00127*
X00396Y00118*
X00402Y0011*
X0041Y00104*
X00419Y001*
X00429Y00099*
X0043Y00099*
X00443Y00097*
X00455Y00092*
X00465Y00084*
X00466Y00083*
X00466Y00083*
X00473Y00076*
X00477Y00073*
X00482Y00072*
X00655*
X00659Y00073*
X00663Y00076*
X00688Y00101*
X0069Y00103*
X00691Y00105*
X00692Y0011*
Y00115*
X00696Y00117*
X00702Y0011*
X0071Y00104*
X00719Y001*
X00729Y00099*
X00739Y001*
X00748Y00104*
X00756Y0011*
X00763Y00118*
X00766Y00127*
X00768Y00137*
X00766Y00147*
X00763Y00157*
X00756Y00165*
X00748Y00171*
X00739Y00175*
X00729Y00176*
X00719Y00175*
X0071Y00171*
X00702Y00165*
X00696Y00158*
X00692Y00159*
Y00199*
X00767*
Y00276*
X00704*
X00702Y0028*
X00724Y00302*
X00744*
X00748Y00303*
X00752Y00305*
X00838Y00391*
X00841Y00395*
X00842Y004*
Y00408*
X00846Y0041*
X00852Y00402*
X0086Y00396*
X00869Y00392*
X0088Y00391*
X0089Y00392*
X00899Y00396*
X00907Y00402*
X00913Y0041*
X00917Y00408*
Y00365*
X00918Y0036*
X00921Y00356*
X00967Y0031*
Y00259*
X00963Y00257*
X00956Y00265*
X00948Y00271*
X00939Y00275*
X00929Y00276*
X00919Y00275*
X0091Y00271*
X00902Y00265*
X00896Y00257*
X00892Y00247*
X0089Y00237*
X00892Y00227*
X00896Y00218*
X00902Y0021*
X0091Y00204*
X00919Y002*
X00929Y00199*
X00939Y002*
X00948Y00204*
X00956Y0021*
X00963Y00218*
X00967Y00216*
Y00187*
X00968Y00182*
X00971Y00178*
X00975Y00174*
X00975Y00174*
X00976Y00173*
X00984Y00163*
X00989Y00151*
X0099Y00138*
X0099Y00137*
X00992Y00127*
X00996Y00118*
X01002Y0011*
X0101Y00104*
X01019Y001*
X01029Y00099*
X01039Y001*
X01048Y00104*
X01056Y0011*
X01063Y00118*
X01066Y00127*
X01068Y00137*
X01066Y00147*
X01063Y00157*
X01056Y00165*
X01048Y00171*
X01039Y00175*
X01029Y00176*
X01028Y00176*
X01016Y00178*
X01003Y00183*
X00993Y0019*
X00992Y00191*
X00992Y00191*
X00992Y00191*
Y00191*
X00992Y00191*
X00992Y00192*
Y00212*
X00996Y00213*
X01Y00208*
X01009Y00202*
X01018Y00198*
X01024Y00197*
Y00237*
Y00278*
X01018Y00277*
X01009Y00273*
X01Y00266*
X00996Y00261*
X00992Y00263*
Y00315*
X00991Y00319*
X00988Y00323*
X00942Y00369*
Y00408*
X00946Y0041*
X00952Y00402*
X0096Y00396*
X00969Y00392*
X0098Y00391*
X0099Y00392*
X00999Y00396*
X01007Y00402*
X01013Y0041*
X01017Y00408*
Y00348*
X01017*
X01017Y00348*
X01017Y00344*
X01014Y0034*
X01014Y0034*
X01009Y00333*
X01007Y00325*
X01009Y00316*
X01014Y00309*
X01021Y00304*
X0103Y00302*
X01038Y00304*
X01045Y00309*
X0105Y00316*
X01052Y00325*
X0105Y00333*
X01045Y0034*
X01045Y0034*
X01042Y00344*
X01042Y00348*
X01042Y00348*
X01042*
Y00408*
X01046Y0041*
X01052Y00402*
X0106Y00396*
X01069Y00392*
X0108Y00391*
X0109Y00392*
X01099Y00396*
X01105Y00401*
X0111Y00399*
Y00383*
X01111Y00378*
X01111Y00377*
X01114Y00372*
X01148Y00338*
X01153Y00335*
X0116Y00333*
X0131*
X01379Y00265*
X01379Y00265*
X01379Y00264*
X0138Y00264*
X01385Y00257*
X01389Y00247*
X0139Y00238*
X0139Y00237*
X01392Y00227*
X01396Y00218*
X01402Y0021*
X0141Y00204*
X01419Y002*
X01429Y00199*
X01439Y002*
X01448Y00204*
X01456Y0021*
X01463Y00218*
X01467Y00216*
Y00193*
X01466Y00191*
X01466Y00191*
X01465Y0019*
X01455Y00183*
X01443Y00178*
X0143Y00176*
X01429Y00176*
X01419Y00175*
X0141Y00171*
X01402Y00165*
X01396Y00157*
X01392Y00147*
X0139Y00137*
X01392Y00127*
X01396Y00118*
X01402Y0011*
X0141Y00104*
X01419Y001*
X01429Y00099*
X01439Y001*
X01448Y00104*
X01456Y0011*
X01463Y00118*
X01466Y00127*
X01468Y00137*
X01468Y00138*
X01469Y00151*
X01474Y00163*
X01482Y00173*
X01483Y00174*
X01483Y00174*
X01488Y00179*
X01491Y00183*
X01492Y00188*
Y00215*
X01496Y00217*
X01502Y0021*
X0151Y00204*
X01519Y002*
X01529Y00199*
X01539Y002*
X01548Y00204*
X01556Y0021*
X01563Y00218*
X01567Y00216*
Y00193*
X01566Y00191*
X01566Y00191*
X01565Y0019*
X01555Y00183*
X01543Y00178*
X0153Y00176*
X01529Y00176*
X01519Y00175*
X0151Y00171*
X01502Y00165*
X01496Y00157*
X01492Y00147*
X0149Y00137*
X01492Y00127*
X01496Y00118*
X01502Y0011*
X0151Y00104*
X01519Y001*
X01529Y00099*
X01539Y001*
X01548Y00104*
X01556Y0011*
X01563Y00118*
X01566Y00127*
X01568Y00137*
X01568Y00138*
X01569Y00151*
X01574Y00163*
X01582Y00173*
X01583Y00174*
X01583Y00174*
X01588Y00179*
X01591Y00183*
X01592Y00188*
Y00215*
X01596Y00217*
X01602Y0021*
X0161Y00204*
X01619Y002*
X01629Y00199*
X01639Y002*
X01648Y00204*
X01656Y0021*
X01663Y00218*
X01666Y00227*
X01668Y00237*
X01666Y00247*
X01663Y00257*
X01656Y00265*
X01656Y00265*
X01648Y00275*
X01643Y00288*
X01641Y003*
X01641Y00301*
X01641*
Y00408*
X01646Y0041*
X01652Y00402*
X0166Y00396*
X01669Y00392*
X0168Y00391*
X0169Y00392*
X01699Y00396*
X01707Y00402*
X01712Y00409*
X01717Y00408*
Y003*
X01717*
X01717Y00299*
X01715Y00287*
X01711Y00275*
X01691*
Y00199*
X01767*
X01767Y00199*
Y00193*
X01766Y00191*
X01766Y00191*
X01765Y0019*
X01755Y00183*
X01743Y00178*
X0173Y00176*
X01729Y00176*
X01719Y00175*
X0171Y00171*
X01702Y00165*
X01696Y00157*
X01692Y00147*
X0169Y00137*
X01692Y00127*
X01696Y00118*
X01702Y0011*
X0171Y00104*
X01719Y001*
X01729Y00099*
X01739Y001*
X01748Y00104*
X01756Y0011*
X01763Y00118*
X01766Y00127*
X01768Y00137*
X01768Y00138*
X01769Y00151*
X01774Y00163*
X01782Y00173*
X01783Y00174*
X01783Y00174*
X01788Y00179*
X01791Y00183*
X01792Y00188*
Y00212*
X01796Y00213*
X018Y00208*
X01809Y00202*
X01818Y00198*
X01824Y00197*
Y00237*
Y00278*
X01818Y00277*
X01809Y00273*
X018Y00266*
X01796Y00261*
X01792Y00263*
Y00365*
X01792*
X01792Y00367*
X01793Y00379*
X01798Y00391*
X01806Y00401*
X01807Y00402*
X01813Y0041*
X01817Y00419*
X01818Y0043*
X01817Y0044*
X01813Y00449*
X01807Y00457*
X01799Y00463*
X0179Y00467*
X0178Y00468*
X01769Y00467*
X0176Y00463*
X01752Y00457*
X01746Y00449*
X01741Y00451*
Y00508*
X01746Y0051*
X01752Y00502*
X0176Y00496*
X01769Y00492*
X0178Y00491*
X0179Y00492*
X01799Y00496*
X01807Y00502*
X01813Y0051*
X01817Y00519*
X01818Y0053*
X01817Y0054*
X01813Y00549*
X01807Y00557*
X01806Y00557*
X01801Y00565*
X01797Y00574*
X01796Y00583*
Y00584*
X01796Y00584*
X01796*
Y00701*
X018Y00702*
X01801Y00701*
X01917Y00585*
Y00568*
X01841*
Y00491*
X01917*
Y00451*
X01913Y00449*
X01907Y00457*
X01899Y00463*
X0189Y00467*
X0188Y00468*
X01869Y00467*
X0186Y00463*
X01852Y00457*
X01846Y00449*
X01842Y0044*
X01841Y0043*
X01842Y00419*
X01846Y0041*
X01852Y00402*
X0186Y00396*
X01869Y00392*
X0188Y00391*
X0189Y00392*
X01899Y00396*
X01907Y00402*
X01913Y0041*
X01917Y00408*
Y00319*
X01871Y00273*
X01868Y00269*
X01867Y00265*
Y00262*
X01863Y0026*
X01858Y00266*
X01849Y00273*
X0184Y00277*
X01834Y00278*
Y00237*
Y00197*
X0184Y00198*
X01849Y00202*
X01858Y00208*
X01863Y00215*
X01867Y00213*
Y00193*
X01846Y00172*
X01839Y00175*
X01829Y00176*
X01819Y00175*
X0181Y00171*
X01802Y00165*
X01796Y00157*
X01792Y00147*
X0179Y00137*
X01792Y00127*
X01796Y00118*
X01802Y0011*
X0181Y00104*
X01819Y001*
X01829Y00099*
X01839Y001*
X01848Y00104*
X01856Y0011*
X01863Y00118*
X01867Y00116*
Y0009*
X01868Y00085*
X01871Y00081*
X01883Y00069*
X01887Y00066*
X01892Y00065*
X02695*
X027Y00066*
X02704Y00069*
X02778Y00142*
X02778Y00142*
X02779Y00143*
X02788Y00151*
X02801Y00156*
X02814Y00158*
X02815Y00157*
X02816Y00158*
X02853*
Y00234*
X02776*
Y00197*
X02776Y00196*
X02776Y00196*
X02774Y00183*
X02769Y0017*
X02762Y0016*
X02761Y00159*
X02761Y00159*
X0269Y00089*
X02473*
X02472Y00094*
X02483Y00101*
X02496Y00112*
X02507Y00125*
X02516Y00139*
X02522Y00154*
X02526Y00171*
X02527Y00187*
X02526Y00204*
X02522Y0022*
X02516Y00236*
X02507Y0025*
X02496Y00263*
X02483Y00274*
X02469Y00282*
X02454Y00289*
X02437Y00293*
X02421Y00294*
X02404Y00293*
X02388Y00289*
X02372Y00282*
X02358Y00274*
X02345Y00263*
X02335Y0025*
X02326Y00236*
X02319Y0022*
X02315Y00204*
X02314Y00187*
X02315Y00171*
X02319Y00154*
X02326Y00139*
X02335Y00125*
X02345Y00112*
X02358Y00101*
X0237Y00094*
X02368Y00089*
X01897*
X01892Y00094*
Y00115*
X01896Y00117*
X01902Y0011*
X0191Y00104*
X01919Y001*
X01929Y00099*
X01939Y001*
X01948Y00104*
X01956Y0011*
X01963Y00118*
X01966Y00127*
X01968Y00137*
X01968Y00138*
X01969Y00151*
X01974Y00163*
X01982Y00173*
X01983Y00174*
X01983Y00174*
X01983Y00174*
X01986Y00178*
X01987Y00183*
Y00183*
Y00228*
X01992Y00228*
X01992Y00227*
X01996Y00218*
X02002Y0021*
X0201Y00204*
X02019Y002*
X02029Y00199*
X02039Y002*
X02048Y00204*
X02056Y0021*
X02063Y00218*
X02066Y00227*
X02068Y00237*
X02066Y00247*
X02063Y00257*
X02056Y00265*
X02048Y00271*
X02044Y00273*
X02045Y00277*
X02072*
X02075Y00274*
X02075Y00274*
X02076Y00273*
X02084Y00263*
X02089Y00251*
X0209Y00238*
X0209Y00237*
X02092Y00227*
X02096Y00218*
X02102Y0021*
X0211Y00204*
X02119Y002*
X02129Y00199*
X02139Y002*
X02148Y00204*
X02156Y0021*
X02163Y00218*
X02166Y00227*
X02168Y00237*
X02166Y00247*
X02163Y00257*
X02156Y00265*
X02148Y00271*
X02139Y00275*
X02129Y00276*
X02128Y00276*
X02115Y00278*
X02103Y00283*
X02093Y0029*
X02092Y00291*
X02092Y00291*
X02085Y00298*
X02081Y00301*
X02077Y00302*
X02004*
X01989Y00317*
Y0061*
X01988Y00614*
X01985Y00618*
X01897Y00707*
Y00781*
X01896Y00785*
X01893Y00789*
X01882Y008*
X01878Y00806*
X01876Y00814*
X01877Y00815*
X01875Y00823*
X0187Y0083*
X01863Y00835*
X01859Y00836*
X01858Y0084*
X01858Y00841*
X01861Y00845*
X01862Y0085*
Y00934*
X01863Y00934*
X01867Y00932*
X01867Y00931*
X01867Y00931*
X01867*
Y00875*
X01868Y0087*
X01871Y00866*
X01891Y00846*
X01895Y00843*
X019Y00842*
X0191*
Y00842*
Y00842*
X01912Y00842*
X01914Y0084*
X01914Y0084*
X01921Y00836*
X01929Y00834*
X01992*
X01999Y00836*
X02006Y0084*
X0201Y00847*
X02012Y00855*
X0201Y00862*
X02006Y00869*
X01999Y00873*
X01992Y00875*
X01929*
X01921Y00873*
X01914Y00869*
X01914Y00869*
X01912Y00867*
X0191Y00867*
Y00867*
X01904*
X01892Y00879*
Y00931*
X01892*
X01892Y00931*
X01892Y00935*
X01895Y00939*
X01895Y00939*
X019Y00946*
X01902Y00955*
X019Y00963*
X01895Y0097*
X01888Y00975*
X0188Y00977*
X01871Y00975*
X01866Y00971*
X01862Y00974*
Y01031*
X01862*
X01862Y01031*
X01862Y01035*
X01865Y01039*
X01865Y01039*
X0187Y01046*
X01872Y01055*
X0187Y01063*
X01865Y0107*
X01858Y01075*
X0185Y01077*
X01841Y01075*
X01834Y0107*
X01829Y01063*
X01827Y01055*
X01829Y01046*
X01834Y01039*
X01834Y01039*
X01837Y01035*
X01837Y01031*
X01837Y01031*
X01837*
Y00857*
X01833Y00854*
X01832Y00855*
X0183Y00863*
X01825Y0087*
X01818Y00875*
X0181Y00877*
X01801Y00875*
X018Y00874*
X01796Y00877*
Y00989*
X01796Y0099*
X018Y00996*
X01802Y01005*
X018Y01013*
X01796Y01019*
X01796Y0102*
Y01063*
X01946Y01214*
X02095*
X021Y01215*
X02101Y01215*
X02106Y01218*
X02341Y01453*
X02517*
X02524Y01453*
X0253Y0145*
X02536Y01446*
X02536Y01446*
X02536Y01446*
X02536Y01445*
X02543Y0144*
X02551Y01437*
X0256Y01436*
X02568Y01437*
X02576Y0144*
X02583Y01445*
X02583Y01446*
X02583Y01446*
X02583Y01446*
X02589Y0145*
X02595Y01453*
X02602Y01453*
X02757*
X02767Y01452*
X02778Y01448*
X02787Y01441*
X02787Y01441*
X02795Y01434*
X02804Y01431*
X02815Y01429*
X02825Y01431*
X02834Y01434*
X02842Y01441*
X02848Y01449*
X02852Y01458*
X02853Y01468*
X02852Y01478*
X02848Y01487*
X02842Y01495*
X02834Y01501*
X02825Y01505*
X02815Y01507*
G37*
G36*
X01787Y01455D02*
X0177D01*
Y01422*
X01787*
Y01455*
G37*
G36*
X02185Y01538D02*
X02174Y01537D01*
X02165Y01533*
X02157Y01527*
X02157Y01526*
X02149Y01521*
X0214Y01517*
X02131Y01516*
X0213*
X0213Y01516*
Y01516*
X02089*
Y01535*
X0205*
Y01465*
X02089*
Y01483*
X0213*
Y01483*
X0213Y01483*
X02131*
X0214Y01482*
X02149Y01478*
X02157Y01473*
X02157Y01472*
X02165Y01466*
X02174Y01462*
X02185Y01461*
X02195Y01462*
X02204Y01466*
X02212Y01472*
X02218Y0148*
X02222Y01489*
X02223Y015*
X02222Y0151*
X02218Y01519*
X02212Y01527*
X02204Y01533*
X02195Y01537*
X02185Y01538*
G37*
G36*
X01814Y01455D02*
X01797D01*
Y01422*
X01814*
Y01455*
G37*
G36*
X01787Y01412D02*
X0177D01*
Y0138*
X01787*
Y01412*
G37*
G36*
X01637Y01355D02*
X0162D01*
Y01322*
X01637*
Y01355*
G37*
G36*
X01664D02*
X01647D01*
Y01322*
X01664*
Y01355*
G37*
G36*
X02815Y01408D02*
X02804Y01407D01*
X02795Y01403*
X02787Y01397*
X02781Y01389*
X02777Y0138*
X02776Y0137*
X02777Y01359*
X02781Y0135*
X02787Y01342*
X02795Y01336*
X02804Y01332*
X02815Y01331*
X02825Y01332*
X02834Y01336*
X02842Y01342*
X02848Y0135*
X02852Y01359*
X02853Y0137*
X02852Y0138*
X02848Y01389*
X02842Y01397*
X02834Y01403*
X02825Y01407*
X02815Y01408*
G37*
G36*
X02064Y0134D02*
X02039D01*
Y01315*
X02064*
Y0134*
G37*
G36*
X02555Y01348D02*
X02524D01*
Y01317*
X02555*
Y01348*
G37*
G36*
X02595D02*
X02565D01*
Y01317*
X02595*
Y01348*
G37*
G36*
X01789Y01374D02*
X01764D01*
Y0135*
X01789*
Y01374*
G37*
G36*
X02064D02*
X02039D01*
Y0135*
X02064*
Y01374*
G37*
G36*
X0256Y01425D02*
X02551Y01423D01*
X02543Y0142*
X02536Y01415*
X0253Y01408*
X02527Y014*
X02526Y01391*
X02527Y01382*
X0253Y01374*
X02536Y01367*
X02543Y01362*
X02551Y01358*
X0256Y01357*
X02568Y01358*
X02576Y01362*
X02583Y01367*
X02589Y01374*
X02592Y01382*
X02593Y01391*
X02592Y014*
X02589Y01408*
X02583Y01415*
X02576Y0142*
X02568Y01423*
X0256Y01425*
G37*
G36*
X01705Y0154D02*
X01694Y01538D01*
X01685Y01535*
X01677Y01528*
X01671Y0152*
X01667Y01511*
X01666Y01501*
X01667Y01491*
X01671Y01482*
X01677Y01474*
X01685Y01468*
X01688Y01466*
X01688Y01466*
X01688Y01466*
X01688Y01466*
X01689Y01461*
X01671Y01443*
X01668Y01439*
X01668Y01435*
X0166*
Y01365*
X01699*
Y01435*
X01699Y01437*
X01713Y01451*
X01715Y01453*
X01716Y01455*
X01717Y0146*
X01717*
X01717Y01462*
X01719Y01464*
X01721Y01466*
X01721Y01466*
X01721Y01466*
X01724Y01468*
X01732Y01474*
X01738Y01482*
X01742Y01491*
X01743Y01501*
X01742Y01511*
X01738Y0152*
X01732Y01528*
X01724Y01535*
X01715Y01538*
X01705Y0154*
G37*
G36*
X00533Y01652D02*
X00522Y01651D01*
X00512Y01646*
X00503Y0164*
X00496Y01631*
X00492Y01621*
X00491Y0161*
X00492Y01598*
X00496Y01588*
X00503Y01579*
X00512Y01573*
X00522Y01568*
X00533Y01567*
X00544Y01568*
X00555Y01573*
X00564Y01579*
X0057Y01588*
X00575Y01598*
X00576Y0161*
X00575Y01621*
X0057Y01631*
X00564Y0164*
X00555Y01646*
X00544Y01651*
X00533Y01652*
G37*
G36*
X01824Y01374D02*
X01799D01*
Y0135*
X01824*
Y01374*
G37*
G36*
X02029D02*
X02004D01*
Y0135*
X02029*
Y01374*
G37*
%LNrpiadapterpcb-3*%
%LPD*%
G36*
X01257Y00644D02*
X01256Y00643D01*
X01221Y00608*
X01218Y00604*
X01217Y006*
Y00554*
X01213Y00553*
X01208Y00558*
X012Y00565*
X0119Y00569*
X01185Y0057*
Y0053*
Y00489*
X0119Y0049*
X012Y00494*
X01208Y00501*
X01213Y00506*
X01217Y00505*
Y0048*
X01218Y00475*
X01221Y00471*
X01226Y00466*
X01226Y00466*
X01227Y00465*
X01234Y00456*
X01239Y00443*
X01241Y00431*
X01241Y0043*
X01242Y00419*
X01246Y0041*
X01252Y00402*
X0126Y00396*
X01269Y00392*
X0128Y00391*
X0129Y00392*
X01299Y00396*
X01307Y00402*
X01313Y0041*
X01317Y00419*
X01318Y0043*
X01317Y0044*
X01313Y00449*
X01307Y00457*
X01299Y00463*
X0129Y00467*
X0128Y00468*
X01278Y00468*
X01266Y0047*
X01253Y00475*
X01244Y00482*
Y00482*
X01243Y00483*
X01243Y00483*
X01243Y00483*
Y00483*
X01243Y00483*
X01242Y00484*
Y00505*
X01246Y00506*
X01251Y00501*
X01259Y00494*
X01269Y0049*
X01275Y00489*
Y0053*
Y0057*
X01269Y00569*
X01259Y00565*
X01251Y00558*
X01246Y00553*
X01242Y00554*
Y00595*
X01269Y00622*
X01324*
X01326Y00618*
X01321Y00613*
X01318Y00609*
X01317Y00605*
Y00554*
X01313Y00553*
X01308Y00558*
X013Y00565*
X0129Y00569*
X01285Y0057*
Y0053*
Y00489*
X0129Y0049*
X013Y00494*
X01308Y00501*
X01313Y00506*
X01317Y00505*
Y0048*
X01318Y00475*
X01321Y00471*
X01326Y00466*
X01326Y00466*
X01327Y00465*
X01334Y00456*
X01339Y00443*
X01341Y00431*
X01341Y0043*
X01342Y00419*
X01346Y0041*
X01352Y00402*
X0136Y00396*
X01369Y00392*
X0138Y00391*
X0139Y00392*
X01399Y00396*
X01407Y00402*
X01413Y0041*
X01417Y00408*
Y0039*
X01418Y00385*
X01421Y00381*
X01467Y00335*
Y00259*
X01463Y00257*
X01456Y00265*
X01448Y00271*
X01439Y00275*
X01429Y00276*
X01428Y00276*
X01419Y00277*
X0141Y00281*
X01402Y00287*
X01402Y00287*
X01402Y00287*
X01402Y00287*
X01328Y00361*
X01323Y00364*
X01322Y00365*
X01317Y00366*
X01166*
X01142Y0039*
Y00408*
X01147Y00409*
X01152Y00402*
X0116Y00396*
X01169Y00392*
X0118Y00391*
X0119Y00392*
X01199Y00396*
X01207Y00402*
X01213Y0041*
X01217Y00419*
X01218Y0043*
X01217Y0044*
X01213Y00449*
X01207Y00457*
X01199Y00463*
X0119Y00467*
X0118Y00468*
X01169Y00467*
X0116Y00463*
X01152Y00457*
X01147Y0045*
X01142Y00451*
Y00504*
X01147Y00506*
X01151Y00501*
X01159Y00494*
X01169Y0049*
X01175Y00489*
Y0053*
Y0057*
X01169Y00569*
X01159Y00565*
X01151Y00558*
X01147Y00553*
X01142Y00555*
Y00579*
X01211Y00648*
X01256*
X01257Y00644*
G37*
G36*
X00667Y00216D02*
Y00162D01*
X00663Y0016*
X00658Y00166*
X00649Y00173*
X0064Y00177*
X00634Y00178*
Y00137*
X00629*
Y00132*
X00589*
X0059Y00127*
X00594Y00117*
X006Y00108*
X00609Y00102*
X0061Y00101*
X00609Y00097*
X00544*
X00543Y00101*
X00548Y00104*
X00556Y0011*
X00563Y00118*
X00566Y00127*
X00568Y00137*
X00568Y00138*
X00569Y00151*
X00574Y00163*
X00582Y00173*
X00583Y00174*
X00583Y00174*
X00588Y00179*
X00591Y00183*
X00592Y00188*
Y00215*
X00596Y00217*
X00602Y0021*
X0061Y00204*
X00619Y002*
X00629Y00199*
X00639Y002*
X00648Y00204*
X00656Y0021*
X00663Y00218*
X00667Y00216*
G37*
G36*
X01653Y00722D02*
X01655Y00716D01*
X0166Y0071*
X01666Y00705*
X01672Y00703*
X0168Y00702*
X01687Y00703*
X01693Y00705*
X01699Y0071*
X01704Y00716*
X01705Y0072*
X0171Y00719*
Y00681*
X01626Y00597*
X0155*
X01545Y00596*
X01541Y00593*
X01521Y00573*
X01518Y00569*
X01517Y00565*
Y00551*
X01513Y00549*
X01507Y00557*
X01499Y00563*
X0149Y00567*
X0148Y00568*
X01469Y00567*
X0146Y00563*
X01452Y00557*
X01446Y00549*
X01442Y0054*
X01441Y0053*
X01442Y00519*
X01446Y0051*
X01452Y00502*
X0146Y00496*
X01469Y00492*
X0148Y00491*
X0149Y00492*
X01499Y00496*
X01507Y00502*
X01513Y0051*
X01517Y00508*
Y00451*
X01513Y00449*
X01507Y00457*
X01499Y00463*
X0149Y00467*
X0148Y00468*
X01469Y00467*
X0146Y00463*
X01452Y00457*
X01446Y00449*
X01442Y00451*
Y0048*
X01441Y00484*
X01438Y00488*
X01433Y00493*
X01433Y00493*
X01432Y00494*
X01425Y00503*
X0142Y00516*
X01418Y00528*
X01418Y0053*
X01417Y0054*
X01413Y00549*
X01407Y00557*
X01399Y00563*
X0139Y00567*
X0138Y00568*
X01369Y00567*
X0136Y00563*
X01352Y00557*
X01346Y00549*
X01342Y00551*
Y006*
X01349Y00607*
X01411*
X01413Y00602*
X01412Y00602*
X01407Y00594*
X01406Y0059*
X01453*
X01452Y00594*
X01447Y00602*
X01446Y00602*
X01448Y00607*
X01551*
X01556Y00608*
X0156Y0061*
X01644Y00694*
X01645Y00697*
X01646Y00698*
X01647Y00703*
Y00726*
X01652Y00726*
X01653Y00722*
G37*
%LNrpiadapterpcb-4*%
%LPC*%
G36*
X01425Y0058D02*
X01406D01*
X01407Y00575*
X01412Y00567*
X0142Y00562*
X01425Y00561*
Y0058*
G37*
G36*
X01453D02*
X01435D01*
Y00561*
X01439Y00562*
X01447Y00567*
X01452Y00575*
X01453Y0058*
G37*
G36*
X00624Y00178D02*
X00618Y00177D01*
X00609Y00173*
X006Y00166*
X00594Y00158*
X0059Y00148*
X00589Y00142*
X00624*
Y00178*
G37*
%LNrpiadapterpcb-5*%
%LPD*%
G54D10*
X02766Y00706D02*
X0282D01*
X0168Y0073D02*
Y011D01*
X0159Y0119D02*
X0168Y011D01*
X0159Y0119D02*
Y01245D01*
X0205Y00455D02*
X0215Y00355D01*
X0205Y00455D02*
Y0053D01*
X0215Y00355D02*
X0275D01*
X0282Y00425*
Y00608*
G54D11*
X02718Y00706D02*
X02766D01*
X02715Y0071D02*
X02718Y00706D01*
G54D12*
X02895Y01014D02*
D01*
X02895Y01011*
X02895Y01009*
X02895Y01007*
X02896Y01004*
X02897Y01002*
X02897Y01*
X02898Y00998*
X029Y00996*
X02901Y00994*
X02902Y00992*
X02904Y0099*
X02905Y0099*
X0291Y00977D02*
D01*
X02909Y00979*
X02909Y0098*
X02909Y00981*
X02909Y00982*
X02908Y00983*
X02908Y00984*
X02908Y00985*
X02907Y00986*
X02906Y00987*
X02906Y00988*
X02905Y00989*
X02905Y0099*
X0282Y00805D02*
D01*
X02815Y00809*
X02811Y00812*
X02806Y00816*
X02801Y00819*
X02795Y00822*
X0279Y00824*
X02784Y00826*
X02778Y00827*
X02772Y00828*
X02767Y00829*
X02761Y00829*
X02759Y0083*
X02863Y00822D02*
D01*
X02858Y00822*
X02854Y00822*
X0285Y00821*
X02846Y0082*
X02842Y00819*
X02838Y00817*
X02834Y00815*
X0283Y00813*
X02827Y00811*
X02823Y00808*
X0282Y00805*
X0282Y00805*
X02763Y0088D02*
D01*
X02769Y0088*
X02774Y0088*
X0278Y00881*
X02785Y00883*
X0279Y00884*
X02795Y00886*
X028Y00889*
X02805Y00892*
X0281Y00895*
X02814Y00898*
X02819Y00902*
X0282Y00903*
X02795Y01011D02*
D01*
X02795Y01007*
X02795Y01004*
X02796Y01*
X02796Y00997*
X02798Y00993*
X02799Y0099*
X028Y00987*
X02802Y00984*
X02804Y00981*
X02806Y00978*
X02809Y00975*
X0281Y00975*
X0282Y0095D02*
D01*
X02819Y00953*
X02819Y00955*
X02819Y00957*
X02818Y0096*
X02817Y00962*
X02817Y00964*
X02816Y00966*
X02814Y00968*
X02813Y0097*
X02812Y00972*
X0281Y00974*
X0281Y00975*
X01055Y0072D02*
D01*
X01054Y00725*
X01054Y00729*
X01053Y00734*
X01052Y00738*
X01051Y00742*
X01049Y00746*
X01047Y0075*
X01045Y00754*
X01042Y00758*
X01039Y00762*
X01036Y00765*
X01036Y00766*
X01055Y00739D02*
D01*
X01054Y00742*
X01054Y00746*
X01054Y00749*
X01053Y00752*
X01052Y00755*
X01051Y00758*
X01049Y00761*
X01048Y00763*
X01046Y00766*
X01044Y00768*
X01042Y00771*
X01041Y00771*
X01073Y00766D02*
D01*
X0107Y00762*
X01067Y00759*
X01065Y00755*
X01063Y00751*
X01061Y00747*
X01059Y00743*
X01057Y00739*
X01056Y00735*
X01055Y0073*
X01055Y00726*
X01055Y00721*
X01055Y0072*
X01068Y00771D02*
D01*
X01066Y00769*
X01064Y00767*
X01062Y00764*
X0106Y00761*
X01059Y00758*
X01057Y00756*
X01056Y00753*
X01056Y0075*
X01055Y00746*
X01055Y00743*
X01055Y0074*
X01055Y00739*
X01109Y00739D02*
D01*
X01112Y00742*
X01115Y00746*
X01118Y0075*
X0112Y00753*
X01122Y00757*
X01124Y00762*
X01125Y00766*
X01126Y0077*
X01127Y00774*
X01128Y00779*
X01128Y00783*
X01128Y00785*
X01123Y00753D02*
D01*
X01125Y00755*
X01127Y00757*
X01129Y0076*
X0113Y00763*
X01132Y00765*
X01133Y00768*
X01134Y00771*
X01135Y00774*
X01135Y00777*
X01136Y00781*
X01136Y00784*
X01136Y00785*
X01155Y00758D02*
D01*
X0115Y00758*
X01146Y00757*
X01141Y00757*
X01137Y00755*
X01133Y00754*
X01128Y00752*
X01124Y0075*
X01121Y00748*
X01117Y00746*
X01113Y00743*
X0111Y0074*
X01109Y00739*
X01155Y00766D02*
D01*
X01151Y00766*
X01148Y00765*
X01145Y00765*
X01142Y00764*
X01139Y00763*
X01136Y00762*
X01133Y00761*
X01131Y00759*
X01128Y00757*
X01125Y00755*
X01123Y00753*
X01123Y00753*
X01309Y00739D02*
D01*
X01312Y00742*
X01315Y00746*
X01318Y0075*
X0132Y00753*
X01322Y00757*
X01324Y00762*
X01325Y00766*
X01326Y0077*
X01327Y00774*
X01328Y00779*
X01328Y00783*
X01328Y00785*
X01323Y00753D02*
D01*
X01325Y00755*
X01327Y00757*
X01329Y0076*
X0133Y00763*
X01332Y00765*
X01333Y00768*
X01334Y00771*
X01335Y00774*
X01335Y00777*
X01336Y00781*
X01336Y00784*
X01336Y00785*
X01355Y00758D02*
D01*
X0135Y00758*
X01346Y00757*
X01341Y00757*
X01337Y00755*
X01333Y00754*
X01328Y00752*
X01324Y0075*
X01321Y00748*
X01317Y00746*
X01313Y00743*
X0131Y0074*
X01309Y00739*
X01355Y00766D02*
D01*
X01351Y00766*
X01348Y00765*
X01345Y00765*
X01342Y00764*
X01339Y00763*
X01336Y00762*
X01333Y00761*
X01331Y00759*
X01328Y00757*
X01325Y00755*
X01323Y00753*
X01323Y00753*
X0178Y00365D02*
D01*
X01779Y0037*
X01779Y00374*
X01778Y00379*
X01777Y00383*
X01776Y00387*
X01774Y00391*
X01772Y00395*
X0177Y00399*
X01767Y00403*
X01764Y00407*
X01761Y0041*
X01761Y00411*
X0178Y00384D02*
D01*
X01779Y00387*
X01779Y00391*
X01779Y00394*
X01778Y00397*
X01777Y004*
X01776Y00403*
X01774Y00406*
X01773Y00408*
X01771Y00411*
X01769Y00413*
X01767Y00416*
X01766Y00416*
X01798Y00411D02*
D01*
X01795Y00407*
X01792Y00404*
X0179Y004*
X01788Y00396*
X01786Y00392*
X01784Y00388*
X01782Y00384*
X01781Y0038*
X0178Y00375*
X0178Y00371*
X0178Y00366*
X0178Y00365*
X01793Y00416D02*
D01*
X01791Y00414*
X01789Y00412*
X01787Y00409*
X01785Y00406*
X01784Y00403*
X01782Y00401*
X01781Y00398*
X01781Y00395*
X0178Y00391*
X0178Y00388*
X0178Y00385*
X0178Y00384*
X0148Y0038D02*
D01*
X01479Y00382*
X01479Y00384*
X01479Y00387*
X01478Y00389*
X01477Y00391*
X01477Y00393*
X01476Y00395*
X01474Y00397*
X01473Y00399*
X01472Y00401*
X0147Y00403*
X01468Y00405*
X01467Y00406*
X01465Y00407*
X0148Y00394D02*
D01*
X01479Y00396*
X01479Y00398*
X01479Y00399*
X01479Y00401*
X01478Y00402*
X01477Y00404*
X01477Y00405*
X01476Y00407*
X01475Y00408*
X01474Y0041*
X01473Y00411*
X01472Y00412*
X0147Y00413*
X01469Y00414*
X01494Y00407D02*
D01*
X01492Y00406*
X01491Y00405*
X01489Y00403*
X01487Y00401*
X01486Y00399*
X01485Y00397*
X01483Y00395*
X01482Y00393*
X01482Y00391*
X01481Y00389*
X0148Y00387*
X0148Y00384*
X0148Y00382*
X0148Y0038*
X0149Y00414D02*
D01*
X01489Y00413*
X01487Y00412*
X01486Y00411*
X01485Y0041*
X01484Y00408*
X01483Y00407*
X01482Y00405*
X01482Y00404*
X01481Y00402*
X0148Y00401*
X0148Y00399*
X0148Y00398*
X0148Y00396*
X0148Y00394*
X01425Y00484D02*
D01*
X01422Y00487*
X01418Y0049*
X01414Y00493*
X01411Y00495*
X01407Y00497*
X01402Y00499*
X01398Y005*
X01394Y00501*
X0139Y00502*
X01385Y00503*
X01381Y00503*
X0138Y00503*
X01411Y00498D02*
D01*
X01409Y005*
X01407Y00502*
X01404Y00504*
X01401Y00505*
X01399Y00507*
X01396Y00508*
X01393Y00509*
X0139Y0051*
X01387Y0051*
X01383Y00511*
X0138Y00511*
X0138Y00511*
X01406Y0053D02*
D01*
X01406Y00525*
X01407Y00521*
X01407Y00516*
X01409Y00512*
X0141Y00508*
X01412Y00503*
X01414Y00499*
X01416Y00496*
X01418Y00492*
X01421Y00488*
X01424Y00485*
X01425Y00484*
X01398Y0053D02*
D01*
X01398Y00526*
X01399Y00523*
X01399Y0052*
X014Y00517*
X01401Y00514*
X01402Y00511*
X01403Y00508*
X01405Y00506*
X01407Y00503*
X01409Y005*
X01411Y00498*
X01411Y00498*
X01334Y00475D02*
D01*
X01337Y00472*
X01341Y00469*
X01345Y00466*
X01348Y00464*
X01352Y00462*
X01357Y0046*
X01361Y00459*
X01365Y00458*
X01369Y00457*
X01374Y00456*
X01378Y00456*
X0138Y00456*
X01348Y00461D02*
D01*
X0135Y00459*
X01352Y00457*
X01355Y00455*
X01358Y00454*
X0136Y00452*
X01363Y00451*
X01366Y0045*
X01369Y00449*
X01372Y00449*
X01376Y00448*
X01379Y00448*
X0138Y00448*
X01353Y0043D02*
D01*
X01353Y00434*
X01352Y00438*
X01352Y00443*
X0135Y00447*
X01349Y00451*
X01347Y00456*
X01345Y0046*
X01343Y00463*
X01341Y00467*
X01338Y00471*
X01335Y00474*
X01334Y00475*
X01361Y0043D02*
D01*
X01361Y00433*
X0136Y00436*
X0136Y00439*
X01359Y00442*
X01358Y00445*
X01357Y00448*
X01356Y00451*
X01354Y00453*
X01352Y00456*
X0135Y00459*
X01348Y00461*
X01348Y00461*
X01234Y00475D02*
D01*
X01237Y00472*
X01241Y00469*
X01245Y00466*
X01248Y00464*
X01252Y00462*
X01257Y0046*
X01261Y00459*
X01265Y00458*
X01269Y00457*
X01274Y00456*
X01278Y00456*
X0128Y00456*
X01248Y00461D02*
D01*
X0125Y00459*
X01252Y00457*
X01255Y00455*
X01258Y00454*
X0126Y00452*
X01263Y00451*
X01266Y0045*
X01269Y00449*
X01272Y00449*
X01276Y00448*
X01279Y00448*
X0128Y00448*
X01253Y0043D02*
D01*
X01253Y00434*
X01252Y00438*
X01252Y00443*
X0125Y00447*
X01249Y00451*
X01247Y00456*
X01245Y0046*
X01243Y00463*
X01241Y00467*
X01238Y00471*
X01235Y00474*
X01234Y00475*
X01261Y0043D02*
D01*
X01261Y00433*
X0126Y00436*
X0126Y00439*
X01259Y00442*
X01258Y00445*
X01257Y00448*
X01256Y00451*
X01254Y00453*
X01252Y00456*
X0125Y00459*
X01248Y00461*
X01248Y00461*
X00634Y00384D02*
D01*
X00637Y00387*
X0064Y00391*
X00643Y00395*
X00645Y00398*
X00647Y00402*
X00649Y00407*
X0065Y00411*
X00651Y00415*
X00652Y00419*
X00653Y00424*
X00653Y00428*
X00653Y0043*
X00648Y00398D02*
D01*
X0065Y004*
X00652Y00402*
X00654Y00405*
X00655Y00408*
X00657Y0041*
X00658Y00413*
X00659Y00416*
X0066Y00419*
X0066Y00422*
X00661Y00426*
X00661Y00429*
X00661Y0043*
X0068Y00403D02*
D01*
X00675Y00403*
X00671Y00402*
X00666Y00402*
X00662Y004*
X00658Y00399*
X00653Y00397*
X00649Y00395*
X00646Y00393*
X00642Y00391*
X00638Y00388*
X00635Y00385*
X00634Y00384*
X0068Y00411D02*
D01*
X00676Y00411*
X00673Y0041*
X0067Y0041*
X00667Y00409*
X00664Y00408*
X00661Y00407*
X00658Y00406*
X00656Y00404*
X00653Y00402*
X0065Y004*
X00648Y00398*
X00648Y00398*
X00725Y00575D02*
D01*
X00722Y00572*
X00719Y00568*
X00716Y00564*
X00714Y00561*
X00712Y00557*
X0071Y00552*
X00709Y00548*
X00708Y00544*
X00707Y0054*
X00706Y00535*
X00706Y00531*
X00706Y0053*
X00711Y00561D02*
D01*
X00709Y00559*
X00707Y00557*
X00705Y00554*
X00704Y00551*
X00702Y00549*
X00701Y00546*
X007Y00543*
X00699Y0054*
X00699Y00537*
X00698Y00533*
X00698Y0053*
X00698Y0053*
X0068Y00556D02*
D01*
X00684Y00556*
X00688Y00557*
X00693Y00557*
X00697Y00559*
X00701Y0056*
X00706Y00562*
X0071Y00564*
X00713Y00566*
X00717Y00568*
X00721Y00571*
X00724Y00574*
X00725Y00575*
X0068Y00548D02*
D01*
X00683Y00548*
X00686Y00549*
X00689Y00549*
X00692Y0055*
X00695Y00551*
X00698Y00552*
X00701Y00553*
X00703Y00555*
X00706Y00557*
X00709Y00559*
X00711Y00561*
X00711Y00561*
X00415Y0043D02*
D01*
X0042Y0043*
X00424Y0043*
X00429Y00431*
X00433Y00432*
X00437Y00433*
X00441Y00435*
X00445Y00437*
X00449Y00439*
X00453Y00442*
X00457Y00445*
X0046Y00448*
X00461Y00448*
X00434Y0043D02*
D01*
X00437Y0043*
X00441Y0043*
X00444Y0043*
X00447Y00431*
X0045Y00432*
X00453Y00433*
X00456Y00435*
X00458Y00436*
X00461Y00438*
X00463Y0044*
X00466Y00442*
X00466Y00443*
X00461Y00411D02*
D01*
X00457Y00414*
X00454Y00417*
X0045Y00419*
X00446Y00421*
X00442Y00423*
X00438Y00425*
X00434Y00427*
X0043Y00428*
X00425Y00429*
X00421Y00429*
X00416Y00429*
X00415Y0043*
X00466Y00416D02*
D01*
X00464Y00418*
X00462Y0042*
X00459Y00422*
X00456Y00424*
X00453Y00425*
X00451Y00427*
X00448Y00428*
X00445Y00428*
X00441Y00429*
X00438Y00429*
X00435Y00429*
X00434Y0043*
X00525Y00575D02*
D01*
X00522Y00572*
X00519Y00568*
X00516Y00564*
X00514Y00561*
X00512Y00557*
X0051Y00552*
X00509Y00548*
X00508Y00544*
X00507Y0054*
X00506Y00535*
X00506Y00531*
X00506Y0053*
X00511Y00561D02*
D01*
X00509Y00559*
X00507Y00557*
X00505Y00554*
X00504Y00551*
X00502Y00549*
X00501Y00546*
X005Y00543*
X00499Y0054*
X00499Y00537*
X00498Y00533*
X00498Y0053*
X00498Y0053*
X0048Y00556D02*
D01*
X00484Y00556*
X00488Y00557*
X00493Y00557*
X00497Y00559*
X00501Y0056*
X00506Y00562*
X0051Y00564*
X00513Y00566*
X00517Y00568*
X00521Y00571*
X00524Y00574*
X00525Y00575*
X0048Y00548D02*
D01*
X00483Y00548*
X00486Y00549*
X00489Y00549*
X00492Y0055*
X00495Y00551*
X00498Y00552*
X00501Y00553*
X00503Y00555*
X00506Y00557*
X00509Y00559*
X00511Y00561*
X00511Y00561*
X00374Y00183D02*
D01*
X00371Y00179*
X00369Y00176*
X00366Y00172*
X00364Y00168*
X00362Y00164*
X0036Y0016*
X00358Y00156*
X00357Y00152*
X00356Y00147*
X00356Y00143*
X00356Y00138*
X00356Y00137*
X00361Y00169D02*
D01*
X00359Y00167*
X00357Y00164*
X00355Y00162*
X00353Y00159*
X00352Y00156*
X00351Y00153*
X0035Y0015*
X00349Y00147*
X00348Y00144*
X00348Y00141*
X00348Y00138*
X00348Y00137*
X00329Y00164D02*
D01*
X00334Y00164*
X00338Y00164*
X00342Y00165*
X00347Y00166*
X00351Y00168*
X00355Y00169*
X00359Y00171*
X00363Y00174*
X00367Y00176*
X0037Y00179*
X00374Y00182*
X00374Y00183*
X00329Y00156D02*
D01*
X00332Y00156*
X00335Y00156*
X00338Y00157*
X00341Y00158*
X00344Y00159*
X00347Y0016*
X0035Y00161*
X00353Y00163*
X00356Y00165*
X00358Y00167*
X0036Y00169*
X00361Y00169*
X00474Y00092D02*
D01*
X00471Y00095*
X00468Y00098*
X00464Y001*
X0046Y00103*
X00456Y00105*
X00452Y00106*
X00448Y00108*
X00443Y00109*
X00439Y0011*
X00435Y0011*
X0043Y00111*
X00429Y00111*
X00461Y00105D02*
D01*
X00459Y00108*
X00456Y0011*
X00454Y00111*
X00451Y00113*
X00448Y00114*
X00445Y00116*
X00442Y00117*
X00439Y00117*
X00436Y00118*
X00433Y00118*
X0043Y00119*
X00429Y00119*
X00456Y00137D02*
D01*
X00456Y00133*
X00456Y00128*
X00457Y00124*
X00458Y0012*
X00459Y00115*
X00461Y00111*
X00463Y00107*
X00465Y00103*
X00468Y001*
X00471Y00096*
X00474Y00093*
X00474Y00092*
X00448Y00137D02*
D01*
X00448Y00134*
X00448Y00131*
X00449Y00128*
X00449Y00125*
X0045Y00122*
X00452Y00119*
X00453Y00116*
X00455Y00113*
X00456Y00111*
X00458Y00108*
X0046Y00106*
X00461Y00105*
X00574Y00183D02*
D01*
X00571Y00179*
X00569Y00176*
X00566Y00172*
X00564Y00168*
X00562Y00164*
X0056Y0016*
X00558Y00156*
X00557Y00152*
X00556Y00147*
X00556Y00143*
X00556Y00138*
X00556Y00137*
X00561Y00169D02*
D01*
X00559Y00167*
X00557Y00164*
X00555Y00162*
X00553Y00159*
X00552Y00156*
X00551Y00153*
X0055Y0015*
X00549Y00147*
X00548Y00144*
X00548Y00141*
X00548Y00138*
X00548Y00137*
X00529Y00164D02*
D01*
X00534Y00164*
X00538Y00164*
X00542Y00165*
X00547Y00166*
X00551Y00168*
X00555Y00169*
X00559Y00171*
X00563Y00174*
X00567Y00176*
X0057Y00179*
X00574Y00182*
X00574Y00183*
X00529Y00156D02*
D01*
X00532Y00156*
X00535Y00156*
X00538Y00157*
X00541Y00158*
X00544Y00159*
X00547Y0016*
X0055Y00161*
X00553Y00163*
X00556Y00165*
X00558Y00167*
X0056Y00169*
X00561Y00169*
X00664Y00272D02*
D01*
X00662Y0027*
X00661Y00269*
X0066Y00267*
X00658Y00265*
X00657Y00263*
X00656Y00261*
X00656Y00259*
X00655Y00257*
X00655Y00254*
X00654Y00252*
X00654Y0025*
X00654Y00248*
X00655Y00245*
X00655Y00243*
X00655Y00243*
X00653Y00262D02*
D01*
X00652Y00261*
X00651Y00259*
X0065Y00258*
X0065Y00257*
X00649Y00255*
X00648Y00254*
X00648Y00252*
X00647Y00251*
X00647Y00249*
X00647Y00248*
X00647Y00246*
X00647Y00245*
X00647Y00243*
X00647Y00241*
X00647Y00241*
X00634Y00263D02*
D01*
X00637Y00263*
X00639Y00263*
X00641Y00263*
X00643Y00263*
X00646Y00263*
X00648Y00263*
X0065Y00264*
X00652Y00265*
X00654Y00265*
X00656Y00266*
X00658Y00268*
X0066Y00269*
X00662Y0027*
X00663Y00272*
X00664Y00272*
X00633Y00256D02*
D01*
X00634Y00255*
X00636Y00255*
X00638Y00255*
X00639Y00255*
X00641Y00255*
X00642Y00256*
X00644Y00256*
X00645Y00257*
X00647Y00257*
X00648Y00258*
X0065Y00259*
X00651Y00259*
X00652Y0026*
X00653Y00261*
X00653Y00262*
X00984Y00183D02*
D01*
X00987Y0018*
X0099Y00177*
X00994Y00174*
X00998Y00172*
X01002Y0017*
X01006Y00168*
X0101Y00167*
X01015Y00166*
X01019Y00165*
X01023Y00164*
X01028Y00164*
X01029Y00164*
X00997Y00169D02*
D01*
X00999Y00167*
X01002Y00165*
X01004Y00163*
X01007Y00162*
X0101Y0016*
X01013Y00159*
X01016Y00158*
X01019Y00157*
X01022Y00157*
X01025Y00156*
X01028Y00156*
X01029Y00156*
X01002Y00137D02*
D01*
X01002Y00142*
X01002Y00146*
X01001Y00151*
X01Y00155*
X00999Y00159*
X00997Y00163*
X00995Y00167*
X00993Y00171*
X0099Y00175*
X00987Y00179*
X00984Y00182*
X00984Y00183*
X0101Y00137D02*
D01*
X0101Y0014*
X0101Y00144*
X01009Y00147*
X01009Y0015*
X01008Y00153*
X01006Y00156*
X01005Y00158*
X01003Y00161*
X01002Y00164*
X01Y00166*
X00998Y00169*
X00997Y00169*
X01474Y00183D02*
D01*
X01471Y00179*
X01469Y00176*
X01466Y00172*
X01464Y00168*
X01462Y00164*
X0146Y0016*
X01458Y00156*
X01457Y00152*
X01456Y00147*
X01456Y00143*
X01456Y00138*
X01456Y00137*
X01461Y00169D02*
D01*
X01459Y00167*
X01457Y00164*
X01455Y00162*
X01453Y00159*
X01452Y00156*
X01451Y00153*
X0145Y0015*
X01449Y00147*
X01448Y00144*
X01448Y00141*
X01448Y00138*
X01448Y00137*
X01429Y00164D02*
D01*
X01434Y00164*
X01438Y00164*
X01442Y00165*
X01447Y00166*
X01451Y00168*
X01455Y00169*
X01459Y00171*
X01463Y00174*
X01467Y00176*
X0147Y00179*
X01474Y00182*
X01474Y00183*
X01429Y00156D02*
D01*
X01432Y00156*
X01435Y00156*
X01438Y00157*
X01441Y00158*
X01444Y00159*
X01447Y0016*
X0145Y00161*
X01453Y00163*
X01456Y00165*
X01458Y00167*
X0146Y00169*
X01461Y00169*
X01574Y00183D02*
D01*
X01571Y00179*
X01569Y00176*
X01566Y00172*
X01564Y00168*
X01562Y00164*
X0156Y0016*
X01558Y00156*
X01557Y00152*
X01556Y00147*
X01556Y00143*
X01556Y00138*
X01556Y00137*
X01561Y00169D02*
D01*
X01559Y00167*
X01557Y00164*
X01555Y00162*
X01553Y00159*
X01552Y00156*
X01551Y00153*
X0155Y0015*
X01549Y00147*
X01548Y00144*
X01548Y00141*
X01548Y00138*
X01548Y00137*
X01529Y00164D02*
D01*
X01534Y00164*
X01538Y00164*
X01542Y00165*
X01547Y00166*
X01551Y00168*
X01555Y00169*
X01559Y00171*
X01563Y00174*
X01567Y00176*
X0157Y00179*
X01574Y00182*
X01574Y00183*
X01529Y00156D02*
D01*
X01532Y00156*
X01535Y00156*
X01538Y00157*
X01541Y00158*
X01544Y00159*
X01547Y0016*
X0155Y00161*
X01553Y00163*
X01556Y00165*
X01558Y00167*
X0156Y00169*
X01561Y00169*
X01529Y00301D02*
D01*
X01529Y00297*
X0153Y00293*
X0153Y00288*
X01532Y00284*
X01533Y0028*
X01535Y00275*
X01537Y00271*
X01539Y00267*
X01541Y00264*
X01544Y0026*
X01547Y00257*
X01548Y00256*
X01529Y00282D02*
D01*
X01529Y00279*
X01529Y00276*
X0153Y00273*
X01531Y0027*
X01532Y00267*
X01533Y00264*
X01534Y00261*
X01536Y00259*
X01538Y00256*
X0154Y00253*
X01542Y00251*
X01542Y00251*
X0151Y00256D02*
D01*
X01513Y00259*
X01516Y00263*
X01519Y00267*
X01521Y0027*
X01523Y00274*
X01525Y00278*
X01526Y00283*
X01527Y00287*
X01528Y00291*
X01529Y00296*
X01529Y003*
X01529Y00301*
X01516Y00251D02*
D01*
X01518Y00253*
X0152Y00255*
X01522Y00258*
X01523Y00261*
X01525Y00263*
X01526Y00266*
X01527Y00269*
X01528Y00272*
X01528Y00275*
X01529Y00279*
X01529Y00282*
X01529Y00282*
X01629Y0008D02*
D01*
X01629Y00083*
X01629Y00086*
X01628Y0009*
X01627Y00093*
X01626Y00096*
X01625Y001*
X01623Y00103*
X01622Y00106*
X0162Y00109*
X01617Y00111*
X01615Y00114*
X01613Y00116*
X01612Y00117*
X01629Y00097D02*
D01*
X01629Y00099*
X01629Y00101*
X01628Y00104*
X01628Y00106*
X01627Y00109*
X01626Y00111*
X01625Y00113*
X01624Y00115*
X01622Y00117*
X01621Y00119*
X01619Y00121*
X01617Y00123*
X01617Y00123*
X01646Y00117D02*
D01*
X01644Y00115*
X01641Y00112*
X01639Y0011*
X01637Y00107*
X01635Y00104*
X01634Y00101*
X01632Y00098*
X01631Y00094*
X0163Y00091*
X0163Y00088*
X01629Y00084*
X01629Y00081*
X01629Y0008*
X01641Y00123D02*
D01*
X01639Y00121*
X01638Y0012*
X01636Y00118*
X01635Y00116*
X01634Y00114*
X01632Y00112*
X01631Y00109*
X01631Y00107*
X0163Y00105*
X01629Y00102*
X01629Y001*
X01629Y00097*
X01629Y00097*
Y00301D02*
D01*
X01629Y00297*
X0163Y00293*
X0163Y00288*
X01632Y00284*
X01633Y0028*
X01635Y00275*
X01637Y00271*
X01639Y00267*
X01641Y00264*
X01644Y0026*
X01647Y00257*
X01648Y00256*
X01629Y00282D02*
D01*
X01629Y00279*
X01629Y00276*
X0163Y00273*
X01631Y0027*
X01632Y00267*
X01633Y00264*
X01634Y00261*
X01636Y00259*
X01638Y00256*
X0164Y00253*
X01642Y00251*
X01642Y00251*
X0161Y00256D02*
D01*
X01613Y00259*
X01616Y00263*
X01619Y00267*
X01621Y0027*
X01623Y00274*
X01625Y00278*
X01626Y00283*
X01627Y00287*
X01628Y00291*
X01629Y00296*
X01629Y003*
X01629Y00301*
X01616Y00251D02*
D01*
X01618Y00253*
X0162Y00255*
X01622Y00258*
X01623Y00261*
X01625Y00263*
X01626Y00266*
X01627Y00269*
X01628Y00272*
X01628Y00275*
X01629Y00279*
X01629Y00282*
X01629Y00282*
X01774Y00183D02*
D01*
X01771Y00179*
X01769Y00176*
X01766Y00172*
X01764Y00168*
X01762Y00164*
X0176Y0016*
X01758Y00156*
X01757Y00152*
X01756Y00147*
X01756Y00143*
X01756Y00138*
X01756Y00137*
X01761Y00169D02*
D01*
X01759Y00167*
X01757Y00164*
X01755Y00162*
X01753Y00159*
X01752Y00156*
X01751Y00153*
X0175Y0015*
X01749Y00147*
X01748Y00144*
X01748Y00141*
X01748Y00138*
X01748Y00137*
X01729Y00164D02*
D01*
X01734Y00164*
X01738Y00164*
X01742Y00165*
X01747Y00166*
X01751Y00168*
X01755Y00169*
X01759Y00171*
X01763Y00174*
X01767Y00176*
X0177Y00179*
X01774Y00182*
X01774Y00183*
X01729Y00156D02*
D01*
X01732Y00156*
X01735Y00156*
X01738Y00157*
X01741Y00158*
X01744Y00159*
X01747Y0016*
X0175Y00161*
X01753Y00163*
X01756Y00165*
X01758Y00167*
X0176Y00169*
X01761Y00169*
X01729Y003D02*
D01*
X01729Y00296*
X0173Y00291*
X0173Y00287*
X01731Y00283*
X01733Y00279*
X01734Y00275*
X01736Y00271*
X01739Y00267*
X01741Y00263*
X01744Y0026*
X01747Y00257*
X01747Y00256*
X01729Y00281D02*
D01*
X01729Y00278*
X01729Y00275*
X0173Y00272*
X01731Y00269*
X01732Y00266*
X01733Y00263*
X01734Y00261*
X01736Y00258*
X01737Y00255*
X01739Y00253*
X01741Y00251*
X01742Y0025*
X01711Y00256D02*
D01*
X01714Y00259*
X01716Y00262*
X01719Y00266*
X01721Y0027*
X01723Y00274*
X01725Y00278*
X01726Y00282*
X01727Y00286*
X01728Y0029*
X01729Y00295*
X01729Y00299*
X01729Y003*
X01716Y0025D02*
D01*
X01718Y00252*
X0172Y00255*
X01722Y00257*
X01724Y0026*
X01725Y00263*
X01726Y00265*
X01727Y00268*
X01728Y00271*
X01728Y00274*
X01729Y00277*
X01729Y0028*
X01729Y00281*
X01974Y00183D02*
D01*
X01971Y00179*
X01969Y00176*
X01966Y00172*
X01964Y00168*
X01962Y00164*
X0196Y0016*
X01958Y00156*
X01957Y00152*
X01956Y00147*
X01956Y00143*
X01956Y00138*
X01956Y00137*
X01961Y00169D02*
D01*
X01959Y00167*
X01957Y00164*
X01955Y00162*
X01953Y00159*
X01952Y00156*
X01951Y00153*
X0195Y0015*
X01949Y00147*
X01948Y00144*
X01948Y00141*
X01948Y00138*
X01948Y00137*
X01929Y00164D02*
D01*
X01934Y00164*
X01938Y00164*
X01942Y00165*
X01947Y00166*
X01951Y00168*
X01955Y00169*
X01959Y00171*
X01963Y00174*
X01967Y00176*
X0197Y00179*
X01974Y00182*
X01974Y00183*
X01929Y00156D02*
D01*
X01932Y00156*
X01935Y00156*
X01938Y00157*
X01941Y00158*
X01944Y00159*
X01947Y0016*
X0195Y00161*
X01953Y00163*
X01956Y00165*
X01958Y00167*
X0196Y00169*
X01961Y00169*
X01895Y00204D02*
D01*
X01897Y00205*
X01898Y00207*
X01899Y00208*
X019Y0021*
X01901Y00212*
X01902Y00214*
X01903Y00216*
X01903Y00218*
X01904Y0022*
X01904Y00222*
X01904Y00224*
X01904Y00226*
X01904Y00228*
X01903Y0023*
X01903Y00231*
X01905Y00214D02*
D01*
X01906Y00215*
X01907Y00216*
X01908Y00217*
X01909Y00218*
X01909Y00219*
X0191Y00221*
X0191Y00222*
X01911Y00224*
X01911Y00225*
X01911Y00226*
X01911Y00228*
X01911Y00229*
X01911Y00231*
X01911Y00232*
X01911Y00233*
X01923Y00211D02*
D01*
X01921Y00212*
X01919Y00212*
X01917Y00212*
X01915Y00212*
X01913Y00212*
X01911Y00212*
X01909Y00211*
X01907Y00211*
X01905Y0021*
X01903Y00209*
X01901Y00208*
X01899Y00207*
X01898Y00206*
X01896Y00204*
X01895Y00204*
X01925Y00219D02*
D01*
X01923Y00219*
X01922Y0022*
X0192Y0022*
X01919Y0022*
X01918Y00219*
X01916Y00219*
X01915Y00219*
X01913Y00219*
X01912Y00218*
X01911Y00217*
X01909Y00217*
X01908Y00216*
X01907Y00215*
X01906Y00214*
X01905Y00214*
X02084Y00283D02*
D01*
X02087Y0028*
X0209Y00277*
X02094Y00274*
X02098Y00272*
X02102Y0027*
X02106Y00268*
X0211Y00267*
X02115Y00266*
X02119Y00265*
X02123Y00264*
X02128Y00264*
X02129Y00264*
X02097Y00269D02*
D01*
X02099Y00267*
X02102Y00265*
X02104Y00263*
X02107Y00262*
X0211Y0026*
X02113Y00259*
X02116Y00258*
X02119Y00257*
X02122Y00257*
X02125Y00256*
X02128Y00256*
X02129Y00256*
X02102Y00237D02*
D01*
X02102Y00242*
X02102Y00246*
X02101Y00251*
X021Y00255*
X02099Y00259*
X02097Y00263*
X02095Y00267*
X02093Y00271*
X0209Y00275*
X02087Y00279*
X02084Y00282*
X02084Y00283*
X0211Y00237D02*
D01*
X0211Y0024*
X0211Y00244*
X02109Y00247*
X02109Y0025*
X02108Y00253*
X02106Y00256*
X02105Y00258*
X02103Y00261*
X02102Y00264*
X021Y00266*
X02098Y00269*
X02097Y00269*
X02769Y00151D02*
D01*
X02772Y00154*
X02775Y00157*
X02778Y00161*
X0278Y00165*
X02782Y00169*
X02784Y00173*
X02785Y00177*
X02786Y00182*
X02787Y00186*
X02788Y0019*
X02788Y00195*
X02788Y00196*
X02783Y00164D02*
D01*
X02785Y00166*
X02787Y00169*
X02789Y00171*
X0279Y00174*
X02792Y00177*
X02793Y0018*
X02794Y00183*
X02795Y00186*
X02795Y00189*
X02796Y00192*
X02796Y00195*
X02796Y00196*
X02815Y0017D02*
D01*
X0281Y00169*
X02806Y00169*
X02801Y00168*
X02797Y00167*
X02793Y00166*
X02788Y00164*
X02784Y00162*
X02781Y0016*
X02777Y00157*
X02773Y00154*
X0277Y00151*
X02769Y00151*
X02815Y00177D02*
D01*
X02811Y00177*
X02808Y00177*
X02805Y00176*
X02802Y00176*
X02799Y00175*
X02796Y00173*
X02793Y00172*
X02791Y00171*
X02788Y00169*
X02785Y00167*
X02783Y00165*
X02783Y00164*
X0282Y0095D02*
D01*
X0282Y00948*
X0282Y00946*
X0282Y00944*
X02821Y00942*
X02821Y0094*
X02822Y00939*
X02823Y00937*
X02824Y00935*
X02825Y00933*
X02826Y00932*
X02828Y0093*
X02829Y00929*
X02831Y00927*
X02832Y00926*
X02833Y00926*
X0282Y00936D02*
D01*
X0282Y00935*
X0282Y00933*
X0282Y00932*
X0282Y00931*
X02821Y00929*
X02821Y00928*
X02822Y00927*
X02823Y00925*
X02823Y00924*
X02824Y00923*
X02825Y00922*
X02826Y00921*
X02827Y0092*
X02829Y00919*
X02829Y00919*
X02806Y00926D02*
D01*
X02807Y00927*
X02809Y00928*
X0281Y00929*
X02812Y00931*
X02813Y00932*
X02814Y00934*
X02815Y00936*
X02816Y00937*
X02817Y00939*
X02818Y00941*
X02819Y00943*
X02819Y00945*
X02819Y00947*
X02819Y00949*
X0282Y0095*
X0281Y00919D02*
D01*
X02811Y0092*
X02812Y00921*
X02813Y00921*
X02814Y00922*
X02815Y00924*
X02816Y00925*
X02817Y00926*
X02817Y00927*
X02818Y00928*
X02818Y0093*
X02819Y00931*
X02819Y00933*
X02819Y00934*
X02819Y00935*
X0282Y00936*
X02784Y00882D02*
D01*
X02785Y00883*
X02786Y00884*
X02787Y00885*
X02788Y00885*
X02789Y00886*
X0279Y00888*
X0279Y00889*
X02791Y0089*
X02791Y00891*
X02792Y00892*
X02792Y00893*
X02793Y00895*
X02793Y00896*
X02793Y00897*
X02793Y00899*
X02793Y009*
X02793Y009*
X02804Y00881D02*
D01*
X02803Y00882*
X02802Y00883*
X02801Y00883*
X02799Y00884*
X02798Y00884*
X02797Y00884*
X02796Y00885*
X02794Y00885*
X02793Y00885*
X02792Y00885*
X0279Y00885*
X02789Y00884*
X02788Y00884*
X02786Y00884*
X02785Y00883*
X02784Y00882*
X02784Y00882*
X02781Y00827D02*
D01*
X02783Y00826*
X02784Y00825*
X02786Y00825*
X02787Y00824*
X02789Y00824*
X02791Y00824*
X02792Y00823*
X02794*
X02795Y00824*
X02797Y00824*
X02799Y00824*
X028Y00825*
X02802Y00825*
X02803Y00826*
X02805Y00827*
X02805Y00827*
X02793Y0082D02*
D01*
X02794Y0082*
X02795Y00819*
X02796Y00819*
X02797Y00818*
X02798Y00818*
X02799Y00818*
X028Y00818*
X02801*
X02803Y00818*
X02804Y00818*
X02805Y00818*
X02806Y00819*
X02807Y00819*
X02808Y0082*
X02809Y0082*
X0281Y0082*
X02793Y00805D02*
D01*
X02793Y00807*
X02793Y00809*
X02793Y0081*
X02792Y00812*
X02792Y00814*
X02791Y00815*
X02791Y00817*
X0279Y00818*
X02789Y00819*
X02788Y00821*
X02787Y00822*
X02786Y00823*
X02785Y00824*
X02783Y00825*
X02782Y00826*
X02781Y00827*
X02801Y00805D02*
D01*
X02801Y00806*
X02801Y00807*
X02801Y00809*
X028Y0081*
X028Y00811*
X028Y00812*
X02799Y00813*
X02799Y00814*
X02798Y00815*
X02797Y00816*
X02797Y00817*
X02796Y00818*
X02795Y00818*
X02794Y00819*
X02793Y0082*
X02793Y0082*
X01705Y0146D02*
D01*
X01704Y01461*
X01704Y01462*
X01704Y01463*
X01704Y01465*
X01703Y01466*
X01703Y01467*
X01702Y01469*
X01702Y0147*
X01701Y01471*
X017Y01472*
X01699Y01473*
X01698Y01474*
X01697Y01475*
X01696Y01475*
X01695Y01476*
X01694Y01477*
X01693Y01477*
X01716D02*
D01*
X01714Y01476*
X01713Y01476*
X01712Y01475*
X01711Y01474*
X0171Y01473*
X01709Y01472*
X01708Y01471*
X01708Y0147*
X01707Y01469*
X01706Y01468*
X01706Y01466*
X01705Y01465*
X01705Y01464*
X01705Y01463*
X01705Y01461*
X01705Y0146*
X01705Y0146*
X02895Y01014D02*
D01*
X02894Y01016*
X02894Y01019*
X02894Y01021*
X02893Y01023*
X02892Y01026*
X02891Y01028*
X0289Y0103*
X02889Y01032*
X02888Y01034*
X02886Y01036*
X02885Y01038*
X02883Y0104*
X02881Y01042*
X02879Y01043*
X02895Y01029D02*
D01*
X02894Y0103*
X02894Y01032*
X02894Y01034*
X02894Y01036*
X02893Y01037*
X02892Y01039*
X02892Y0104*
X02891Y01042*
X0289Y01043*
X02889Y01045*
X02888Y01046*
X02886Y01047*
X02885Y01048*
X02884Y01049*
X0291Y01043D02*
D01*
X02908Y01041*
X02906Y0104*
X02904Y01038*
X02902Y01036*
X02901Y01034*
X029Y01032*
X02898Y0103*
X02897Y01028*
X02896Y01025*
X02896Y01023*
X02895Y0102*
X02895Y01018*
X02895Y01016*
X02895Y01014*
X02905Y01049D02*
D01*
X02904Y01048*
X02902Y01047*
X02901Y01046*
X029Y01044*
X02899Y01043*
X02898Y01042*
X02897Y0104*
X02897Y01039*
X02896Y01037*
X02895Y01035*
X02895Y01034*
X02895Y01032*
X02895Y0103*
X02895Y01029*
X02795Y01011D02*
D01*
X02794Y01014*
X02794Y01016*
X02794Y01019*
X02793Y01022*
X02792Y01025*
X02791Y01027*
X0279Y0103*
X02788Y01033*
X02787Y01035*
X02785Y01037*
X02783Y01039*
X02781Y01041*
X02779Y01043*
X02778Y01043*
X02795Y01027D02*
D01*
X02794Y01029*
X02794Y01031*
X02794Y01033*
X02793Y01035*
X02793Y01037*
X02792Y01038*
X02791Y0104*
X0279Y01042*
X02789Y01044*
X02788Y01045*
X02786Y01047*
X02785Y01048*
X02783Y01049*
X02783Y0105*
X02811Y01043D02*
D01*
X02808Y01042*
X02806Y0104*
X02804Y01037*
X02803Y01035*
X02801Y01033*
X028Y0103*
X02798Y01028*
X02797Y01025*
X02796Y01022*
X02795Y0102*
X02795Y01017*
X02795Y01014*
X02795Y01011*
X02795Y01011*
X02806Y0105D02*
D01*
X02804Y01048*
X02803Y01047*
X02801Y01045*
X028Y01044*
X02799Y01042*
X02798Y01041*
X02797Y01039*
X02796Y01037*
X02796Y01035*
X02795Y01033*
X02795Y01031*
X02795Y01029*
X02795Y01027*
X02795Y01027*
X02698Y0099D02*
D01*
X02695Y00989*
X02693Y00989*
X0269Y00989*
X02687Y00988*
X02685Y00987*
X02682Y00986*
X0268Y00985*
X02678Y00984*
X02676Y00982*
X02674Y00981*
X02672Y00979*
X02671Y00978*
Y01001D02*
D01*
X02673Y00999*
X02675Y00997*
X02677Y00996*
X0268Y00994*
X02682Y00993*
X02684Y00992*
X02687Y00991*
X02689Y0099*
X02692Y0099*
X02695Y0099*
X02697Y0099*
X02698Y0099*
X02459Y00819D02*
D01*
X02457Y00819*
X02455Y00819*
X02453Y00818*
X02451Y00818*
X02449Y00817*
X02447Y00816*
X02445Y00816*
X02443Y00815*
X02441Y00813*
X0244Y00812*
X02438Y00811*
X02437Y00809*
X02436Y00809*
Y00829D02*
D01*
X02438Y00828*
X02439Y00826*
X02441Y00825*
X02443Y00824*
X02444Y00823*
X02446Y00822*
X02448Y00821*
X0245Y0082*
X02452Y0082*
X02454Y00819*
X02456Y00819*
X02459Y00819*
X02459Y00819*
X02449Y0089D02*
D01*
X02448Y0089*
X02447Y0089*
X02447Y0089*
X02446Y00889*
X02445Y00889*
X02444Y00889*
X02444Y00889*
X02443Y00888*
X02442Y00888*
X02442Y00887*
X02441Y00887*
X02441Y00886*
X0244Y00886*
X0244Y00885*
X02439Y00884*
X02439Y00884*
X02439Y00883*
Y00897D02*
D01*
X02439Y00896*
X0244Y00895*
X0244Y00894*
X02441Y00894*
X02441Y00893*
X02442Y00893*
X02442Y00892*
X02443Y00892*
X02444Y00891*
X02444Y00891*
X02445Y00891*
X02446Y0089*
X02446Y0089*
X02447Y0089*
X02448Y0089*
X02449Y0089*
X02449Y0089*
X02386D02*
D01*
X02389Y0089*
X02392Y0089*
X02394Y00891*
X02397Y00891*
X02399Y00892*
X02402Y00893*
X02404Y00894*
X02407Y00896*
X02409Y00897*
X02411Y00899*
X02413Y00901*
X02413Y00901*
Y00879D02*
D01*
X02411Y00881*
X02409Y00882*
X02407Y00884*
X02405Y00885*
X02403Y00886*
X024Y00887*
X02398Y00888*
X02395Y00889*
X02392Y00889*
X0239Y0089*
X02387Y0089*
X02386Y0089*
X01867Y01383D02*
D01*
X01867Y01384*
X01867Y01385*
X01866Y01386*
X01866Y01388*
X01866Y01389*
X01865Y0139*
X01865Y01391*
X01864Y01393*
X01863Y01394*
X01862Y01395*
X01862Y01396*
X01861Y01396*
X01872D02*
D01*
X01872Y01395*
X01871Y01394*
X0187Y01393*
X01869Y01392*
X01869Y01391*
X01868Y01389*
X01868Y01388*
X01867Y01387*
X01867Y01385*
X01867Y01384*
X01867Y01383*
X01867Y01383*
X00498Y00979D02*
D01*
X00498Y00982*
X00498Y00985*
X00497Y00988*
X00496Y00991*
X00495Y00994*
X00494Y00997*
X00493Y01*
X00491Y01003*
X0049Y01005*
X00488Y01008*
X00486Y0101*
X00485Y0101*
X00498Y00998D02*
D01*
X00498Y01*
X00498Y01001*
X00498Y01003*
X00497Y01005*
X00497Y01007*
X00496Y01008*
X00495Y0101*
X00494Y01011*
X00493Y01013*
X00492Y01014*
X00491Y01016*
X00491Y01016*
X00507Y0101D02*
D01*
X00506Y01009*
X00504Y01007*
X00503Y01005*
X00502Y01003*
X00501Y01002*
X005Y01*
X00499Y00997*
X00499Y00995*
X00499Y00993*
X00498Y00991*
X00498Y00989*
X00498Y00988*
X00425Y0106D02*
D01*
X00425Y01057*
X00426Y01054*
X00426Y01052*
X00427Y01049*
X00428Y01047*
X00429Y01044*
X0043Y01042*
X00431Y01039*
X00433Y01037*
X00434Y01035*
X00436Y01033*
X00436Y01033*
X00414D02*
D01*
X00416Y01035*
X00418Y01037*
X00419Y01039*
X00421Y01041*
X00422Y01044*
X00423Y01046*
X00424Y01048*
X00424Y01051*
X00425Y01054*
X00425Y01056*
X00425Y01059*
X00425Y0106*
X00423Y00988D02*
D01*
X00423Y00991*
X00423Y00993*
X00423Y00995*
X00422Y00997*
X00421Y00999*
X00421Y01001*
X0042Y01003*
X00419Y01005*
X00417Y01007*
X00416Y01008*
X00415Y0101*
X00414Y0101*
X00436D02*
D01*
X00434Y01008*
X00432Y01006*
X00431Y01003*
X00429Y01001*
X00428Y00998*
X00426Y00995*
X00425Y00992*
X00424Y00989*
X00424Y00986*
X00423Y00983*
X00423Y0098*
X00423Y00979*
X00431Y01016D02*
D01*
X0043Y01015*
X00428Y01013*
X00427Y01012*
X00427Y0101*
X00426Y01009*
X00425Y01007*
X00424Y01005*
X00424Y01004*
X00424Y01002*
X00423Y01*
X00423Y00998*
X00423Y00998*
X00313Y00979D02*
D01*
X00313Y00982*
X00313Y00985*
X00312Y00988*
X00311Y00991*
X0031Y00994*
X00309Y00997*
X00308Y01*
X00306Y01003*
X00305Y01005*
X00303Y01008*
X00301Y0101*
X003Y0101*
X00313Y00998D02*
D01*
X00313Y01*
X00313Y01001*
X00313Y01003*
X00312Y01005*
X00312Y01007*
X00311Y01008*
X0031Y0101*
X00309Y01011*
X00308Y01013*
X00307Y01014*
X00306Y01016*
X00306Y01016*
X00322Y0101D02*
D01*
X00321Y01009*
X00319Y01007*
X00318Y01005*
X00317Y01003*
X00316Y01002*
X00315Y01*
X00314Y00997*
X00314Y00995*
X00313Y00993*
X00313Y00991*
X00313Y00989*
X00313Y00988*
X0024Y0106D02*
D01*
X0024Y01057*
X00241Y01054*
X00241Y01052*
X00242Y01049*
X00243Y01047*
X00244Y01044*
X00245Y01042*
X00246Y01039*
X00248Y01037*
X00249Y01035*
X00251Y01033*
X00251Y01033*
X00229D02*
D01*
X00231Y01035*
X00233Y01037*
X00234Y01039*
X00235Y01041*
X00237Y01044*
X00238Y01046*
X00239Y01048*
X00239Y01051*
X0024Y01054*
X0024Y01056*
X0024Y01059*
X0024Y0106*
X00238Y00988D02*
D01*
X00238Y00991*
X00238Y00993*
X00238Y00995*
X00237Y00997*
X00236Y00999*
X00236Y01001*
X00235Y01003*
X00234Y01005*
X00232Y01007*
X00231Y01008*
X00229Y0101*
X00229Y0101*
X00251D02*
D01*
X00249Y01008*
X00247Y01006*
X00245Y01003*
X00244Y01001*
X00242Y00998*
X00241Y00995*
X0024Y00992*
X00239Y00989*
X00239Y00986*
X00238Y00983*
X00238Y0098*
X00238Y00979*
X00246Y01016D02*
D01*
X00245Y01015*
X00243Y01013*
X00242Y01012*
X00242Y0101*
X00241Y01009*
X0024Y01007*
X00239Y01005*
X00239Y01004*
X00239Y01002*
X00238Y01*
X00238Y00998*
X00238Y00998*
X00137Y00979D02*
D01*
X00137Y00982*
X00137Y00985*
X00136Y00988*
X00136Y00991*
X00135Y00994*
X00134Y00997*
X00132Y01*
X00131Y01003*
X00129Y01005*
X00127Y01008*
X00125Y0101*
X00124Y0101*
X00137Y00998D02*
D01*
X00137Y01*
X00137Y01001*
X00137Y01003*
X00136Y01005*
X00136Y01007*
X00135Y01008*
X00134Y0101*
X00134Y01011*
X00132Y01013*
X00131Y01014*
X0013Y01016*
X0013Y01016*
X00147Y0101D02*
D01*
X00145Y01009*
X00144Y01007*
X00142Y01005*
X00141Y01003*
X0014Y01002*
X00139Y01*
X00139Y00997*
X00138Y00995*
X00138Y00993*
X00138Y00991*
X00137Y00989*
X00137Y00988*
X00065Y0106D02*
D01*
X00065Y01057*
X00065Y01054*
X00065Y01052*
X00066Y01049*
X00067Y01047*
X00068Y01044*
X00069Y01042*
X0007Y01039*
X00072Y01037*
X00073Y01035*
X00075Y01033*
X00076Y01033*
X00053D02*
D01*
X00055Y01035*
X00057Y01037*
X00058Y01039*
X0006Y01041*
X00061Y01044*
X00062Y01046*
X00063Y01048*
X00064Y01051*
X00064Y01054*
X00064Y01056*
X00065Y01059*
X00065Y0106*
X00063Y00988D02*
D01*
X00063Y00991*
X00062Y00993*
X00062Y00995*
X00061Y00997*
X00061Y00999*
X0006Y01001*
X00059Y01003*
X00058Y01005*
X00057Y01007*
X00055Y01008*
X00054Y0101*
X00053Y0101*
X00076D02*
D01*
X00074Y01008*
X00072Y01006*
X0007Y01003*
X00068Y01001*
X00067Y00998*
X00066Y00995*
X00065Y00992*
X00064Y00989*
X00063Y00986*
X00063Y00983*
X00063Y0098*
X00063Y00979*
X0007Y01016D02*
D01*
X00069Y01015*
X00068Y01013*
X00067Y01012*
X00066Y0101*
X00065Y01009*
X00064Y01007*
X00064Y01005*
X00063Y01004*
X00063Y01002*
X00063Y01*
X00063Y00998*
X00063Y00998*
X00667Y00979D02*
D01*
X00667Y00982*
X00666Y00985*
X00666Y00988*
X00665Y00991*
X00664Y00994*
X00663Y00997*
X00661Y01*
X0066Y01003*
X00658Y01005*
X00656Y01008*
X00654Y0101*
X00654Y0101*
X00667Y00998D02*
D01*
X00667Y01*
X00666Y01001*
X00666Y01003*
X00666Y01005*
X00665Y01007*
X00664Y01008*
X00664Y0101*
X00663Y01011*
X00662Y01013*
X00661Y01014*
X00659Y01016*
X00659Y01016*
X00676Y0101D02*
D01*
X00674Y01009*
X00673Y01007*
X00672Y01005*
X00671Y01003*
X0067Y01002*
X00669Y01*
X00668Y00997*
X00668Y00995*
X00667Y00993*
X00667Y00991*
X00667Y00989*
X00667Y00988*
X00594Y0106D02*
D01*
X00594Y01057*
X00594Y01054*
X00595Y01052*
X00595Y01049*
X00596Y01047*
X00597Y01044*
X00598Y01042*
X006Y01039*
X00601Y01037*
X00603Y01035*
X00605Y01033*
X00605Y01033*
X00583D02*
D01*
X00585Y01035*
X00586Y01037*
X00588Y01039*
X00589Y01041*
X0059Y01044*
X00591Y01046*
X00592Y01048*
X00593Y01051*
X00593Y01054*
X00594Y01056*
X00594Y01059*
X00594Y0106*
X00592Y00988D02*
D01*
X00592Y00991*
X00592Y00993*
X00591Y00995*
X00591Y00997*
X0059Y00999*
X00589Y01001*
X00588Y01003*
X00587Y01005*
X00586Y01007*
X00585Y01008*
X00583Y0101*
X00583Y0101*
X00605D02*
D01*
X00603Y01008*
X00601Y01006*
X00599Y01003*
X00598Y01001*
X00596Y00998*
X00595Y00995*
X00594Y00992*
X00593Y00989*
X00592Y00986*
X00592Y00983*
X00592Y0098*
X00592Y00979*
X00599Y01016D02*
D01*
X00598Y01015*
X00597Y01013*
X00596Y01012*
X00595Y0101*
X00594Y01009*
X00594Y01007*
X00593Y01005*
X00593Y01004*
X00592Y01002*
X00592Y01*
X00592Y00998*
X00592Y00998*
X0084Y00979D02*
D01*
X0084Y00982*
X00839Y00985*
X00839Y00988*
X00838Y00991*
X00837Y00994*
X00836Y00997*
X00835Y01*
X00833Y01003*
X00831Y01005*
X00829Y01008*
X00827Y0101*
X00827Y0101*
X0084Y00998D02*
D01*
X0084Y01*
X0084Y01001*
X00839Y01003*
X00839Y01005*
X00838Y01007*
X00838Y01008*
X00837Y0101*
X00836Y01011*
X00835Y01013*
X00834Y01014*
X00833Y01016*
X00832Y01016*
X00849Y0101D02*
D01*
X00848Y01009*
X00846Y01007*
X00845Y01005*
X00844Y01003*
X00843Y01002*
X00842Y01*
X00841Y00997*
X00841Y00995*
X0084Y00993*
X0084Y00991*
X0084Y00989*
X0084Y00988*
X00767Y0106D02*
D01*
X00767Y01057*
X00767Y01054*
X00768Y01052*
X00769Y01049*
X00769Y01047*
X0077Y01044*
X00772Y01042*
X00773Y01039*
X00774Y01037*
X00776Y01035*
X00778Y01033*
X00778Y01033*
X00756D02*
D01*
X00758Y01035*
X00759Y01037*
X00761Y01039*
X00762Y01041*
X00764Y01044*
X00765Y01046*
X00765Y01048*
X00766Y01051*
X00767Y01054*
X00767Y01056*
X00767Y01059*
X00767Y0106*
X00765Y00988D02*
D01*
X00765Y00991*
X00765Y00993*
X00764Y00995*
X00764Y00997*
X00763Y00999*
X00762Y01001*
X00761Y01003*
X0076Y01005*
X00759Y01007*
X00758Y01008*
X00756Y0101*
X00756Y0101*
X00778D02*
D01*
X00776Y01008*
X00774Y01006*
X00772Y01003*
X00771Y01001*
X00769Y00998*
X00768Y00995*
X00767Y00992*
X00766Y00989*
X00766Y00986*
X00765Y00983*
X00765Y0098*
X00765Y00979*
X00773Y01016D02*
D01*
X00771Y01015*
X0077Y01013*
X00769Y01012*
X00768Y0101*
X00768Y01009*
X00767Y01007*
X00766Y01005*
X00766Y01004*
X00765Y01002*
X00765Y01*
X00765Y00998*
X00765Y00998*
X01009Y00979D02*
D01*
X01009Y00982*
X01009Y00985*
X01008Y00988*
X01007Y00991*
X01007Y00994*
X01005Y00997*
X01004Y01*
X01002Y01003*
X01001Y01005*
X00999Y01008*
X00997Y0101*
X00996Y0101*
X01009Y00998D02*
D01*
X01009Y01*
X01009Y01001*
X01009Y01003*
X01008Y01005*
X01008Y01007*
X01007Y01008*
X01006Y0101*
X01005Y01011*
X01004Y01013*
X01003Y01014*
X01002Y01016*
X01002Y01016*
X01018Y0101D02*
D01*
X01017Y01009*
X01016Y01007*
X01014Y01005*
X01013Y01003*
X01012Y01002*
X01011Y01*
X01011Y00997*
X0101Y00995*
X0101Y00993*
X01009Y00991*
X01009Y00989*
X01009Y00988*
X01045Y01022D02*
D01*
X01043Y01021*
X0104Y01021*
X01037Y01021*
X01035Y0102*
X01032Y01019*
X0103Y01018*
X01027Y01017*
X01025Y01016*
X01023Y01014*
X01021Y01013*
X01019Y01011*
X01018Y0101*
Y01033D02*
D01*
X0102Y01031*
X01022Y01029*
X01025Y01028*
X01027Y01026*
X01029Y01025*
X01032Y01024*
X01034Y01023*
X01037Y01023*
X01039Y01022*
X01042Y01022*
X01045Y01022*
X01045Y01022*
X00936Y0106D02*
D01*
X00936Y01057*
X00937Y01054*
X00937Y01052*
X00938Y01049*
X00939Y01047*
X0094Y01044*
X00941Y01042*
X00942Y01039*
X00944Y01037*
X00945Y01035*
X00947Y01033*
X00948Y01033*
X00925D02*
D01*
X00927Y01035*
X00929Y01037*
X0093Y01039*
X00932Y01041*
X00933Y01044*
X00934Y01046*
X00935Y01048*
X00935Y01051*
X00936Y01054*
X00936Y01056*
X00936Y01059*
X00936Y0106*
X00934Y00988D02*
D01*
X00934Y00991*
X00934Y00993*
X00934Y00995*
X00933Y00997*
X00933Y00999*
X00932Y01001*
X00931Y01003*
X0093Y01005*
X00928Y01007*
X00927Y01008*
X00926Y0101*
X00925Y0101*
X00948D02*
D01*
X00945Y01008*
X00943Y01006*
X00942Y01003*
X0094Y01001*
X00939Y00998*
X00937Y00995*
X00936Y00992*
X00936Y00989*
X00935Y00986*
X00935Y00983*
X00934Y0098*
X00934Y00979*
X00942Y01016D02*
D01*
X00941Y01015*
X0094Y01013*
X00939Y01012*
X00938Y0101*
X00937Y01009*
X00936Y01007*
X00936Y01005*
X00935Y01004*
X00935Y01002*
X00935Y01*
X00934Y00998*
X00934Y00998*
X02011Y00805D02*
D01*
X02009Y00804*
X02008Y00804*
X02007Y00804*
X02005Y00804*
X02004Y00803*
X02003Y00803*
X02002Y00802*
X02Y00802*
X01999Y00801*
X01998Y008*
X01997Y00799*
X01997Y00799*
Y0081D02*
D01*
X01998Y00809*
X01999Y00808*
X02Y00808*
X02001Y00807*
X02002Y00806*
X02004Y00806*
X02005Y00805*
X02006Y00805*
X02008Y00805*
X02009Y00805*
X0201Y00805*
X02011Y00805*
X0191Y00855D02*
D01*
X01911Y00855*
X01912Y00855*
X01913Y00855*
X01915Y00855*
X01916Y00856*
X01917Y00856*
X01918Y00857*
X0192Y00857*
X01921Y00858*
X01922Y00859*
X01923Y0086*
X01923Y0086*
Y00849D02*
D01*
X01922Y0085*
X01921Y00851*
X0192Y00851*
X01919Y00852*
X01918Y00853*
X01916Y00853*
X01915Y00854*
X01914Y00854*
X01912Y00854*
X01911Y00854*
X0191Y00854*
X0191Y00855*
X02199Y00805D02*
D01*
X02198Y00804*
X02197Y00804*
X02196Y00804*
X02194Y00804*
X02193Y00803*
X02192Y00803*
X02191Y00802*
X02189Y00802*
X02188Y00801*
X02187Y008*
X02186Y00799*
X02186Y00799*
Y0081D02*
D01*
X02187Y00809*
X02188Y00808*
X02189Y00808*
X0219Y00807*
X02191Y00806*
X02193Y00806*
X02194Y00805*
X02195Y00805*
X02197Y00805*
X02198Y00805*
X02199Y00805*
X02199Y00805*
X02245Y00913D02*
D01*
X02245Y0091*
X02245Y00908*
X02245Y00905*
X02246Y00902*
X02247Y009*
X02248Y00897*
X02249Y00895*
X0225Y00893*
X02252Y00891*
X02253Y00889*
X02255Y00887*
X02256Y00886*
X02233D02*
D01*
X02235Y00888*
X02237Y0089*
X02238Y00892*
X0224Y00895*
X02241Y00897*
X02242Y00899*
X02243Y00902*
X02244Y00904*
X02244Y00907*
X02244Y0091*
X02244Y00912*
X02245Y00913*
X02284Y00805D02*
D01*
X02281Y00804*
X02278Y00804*
X02275Y00804*
X02273Y00803*
X0227Y00802*
X02267Y00801*
X02265Y008*
X02263Y00798*
X0226Y00797*
X02258Y00795*
X02256Y00793*
X02256Y00793*
X02265Y00805D02*
D01*
X02263Y00804*
X02262Y00804*
X0226Y00804*
X02259Y00804*
X02258Y00803*
X02256Y00803*
X02255Y00802*
X02254Y00801*
X02253Y00801*
X02251Y008*
X0225Y00799*
X0225Y00799*
X02256Y00815D02*
D01*
X02257Y00813*
X02259Y00812*
X02262Y0081*
X02264Y00809*
X02266Y00808*
X02268Y00807*
X02271Y00806*
X02273Y00805*
X02276Y00805*
X02278Y00805*
X02281Y00805*
X02281Y00805*
X02208D02*
D01*
X0221Y00805*
X02213Y00805*
X02215Y00805*
X02218Y00806*
X0222Y00807*
X02222Y00808*
X02225Y00809*
X02227Y0081*
X02229Y00811*
X02231Y00813*
X02233Y00815*
X02233Y00815*
Y00793D02*
D01*
X02231Y00795*
X02229Y00797*
X02227Y00798*
X02225Y008*
X02222Y00801*
X0222Y00802*
X02217Y00803*
X02214Y00803*
X02212Y00804*
X02209Y00804*
X02206Y00804*
X02205Y00805*
X02239Y00799D02*
D01*
X02238Y00799*
X02237Y008*
X02236Y00801*
X02234Y00802*
X02233Y00803*
X02232Y00803*
X0223Y00804*
X02229Y00804*
X02228Y00804*
X02226Y00804*
X02225Y00804*
X02224Y00805*
X02105Y01306D02*
D01*
X02105Y01309*
X02105Y01312*
X02104Y01314*
X02103Y01317*
X02103Y01319*
X02102Y01322*
X021Y01324*
X02099Y01327*
X02098Y01329*
X02096Y01331*
X02094Y01333*
X02094Y01333*
X02116D02*
D01*
X02114Y01331*
X02113Y01329*
X02111Y01327*
X0211Y01325*
X02108Y01323*
X02107Y0132*
X02107Y01318*
X02106Y01315*
X02105Y01312*
X02105Y0131*
X02105Y01307*
X02105Y01306*
X02107Y01378D02*
D01*
X02107Y01376*
X02107Y01373*
X02108Y01371*
X02108Y01369*
X02109Y01367*
X0211Y01365*
X02111Y01363*
X02112Y01361*
X02113Y01359*
X02114Y01358*
X02116Y01356*
X02116Y01356*
X02094D02*
D01*
X02096Y01358*
X02098Y0136*
X021Y01363*
X02101Y01366*
X02103Y01368*
X02104Y01371*
X02105Y01374*
X02106Y01377*
X02106Y0138*
X02107Y01383*
X02107Y01386*
X02107Y01387*
X02099Y0135D02*
D01*
X02101Y01351*
X02102Y01353*
X02103Y01354*
X02104Y01356*
X02104Y01357*
X02105Y01359*
X02106Y01361*
X02106Y01362*
X02107Y01364*
X02107Y01366*
X02107Y01368*
X02107Y01368*
Y01383D02*
D01*
X02107Y01384*
X02107Y01385*
X02106Y01386*
X02106Y01388*
X02106Y01389*
X02105Y0139*
X02105Y01391*
X02104Y01393*
X02103Y01394*
X02102Y01395*
X02102Y01396*
X02101Y01396*
X02112D02*
D01*
X02112Y01395*
X02111Y01394*
X0211Y01393*
X02109Y01392*
X02109Y01391*
X02108Y01389*
X02108Y01388*
X02107Y01387*
X02107Y01385*
X02107Y01384*
X02107Y01383*
X02107Y01383*
X01715Y01206D02*
D01*
X01715Y01209*
X01715Y01212*
X01714Y01214*
X01713Y01217*
X01713Y01219*
X01712Y01222*
X0171Y01224*
X01709Y01227*
X01708Y01229*
X01706Y01231*
X01704Y01233*
X01704Y01233*
X01726D02*
D01*
X01724Y01231*
X01723Y01229*
X01721Y01227*
X0172Y01225*
X01718Y01223*
X01717Y0122*
X01717Y01218*
X01716Y01215*
X01715Y01212*
X01715Y0121*
X01715Y01207*
X01715Y01206*
X01717Y01278D02*
D01*
X01717Y01276*
X01717Y01273*
X01718Y01271*
X01718Y01269*
X01719Y01267*
X0172Y01265*
X01721Y01263*
X01722Y01261*
X01723Y01259*
X01724Y01258*
X01726Y01256*
X01726Y01256*
X01704D02*
D01*
X01706Y01258*
X01708Y0126*
X0171Y01263*
X01711Y01266*
X01713Y01268*
X01714Y01271*
X01715Y01274*
X01716Y01277*
X01716Y0128*
X01717Y01283*
X01717Y01286*
X01717Y01287*
X01709Y0125D02*
D01*
X01711Y01251*
X01712Y01253*
X01713Y01254*
X01714Y01256*
X01714Y01257*
X01715Y01259*
X01716Y01261*
X01716Y01262*
X01717Y01264*
X01717Y01266*
X01717Y01268*
X01717Y01268*
X0168Y01435D02*
D01*
X0168Y01433*
X0168Y01432*
X0168Y01431*
X0168Y01429*
X01681Y01428*
X01681Y01427*
X01682Y01426*
X01682Y01425*
X01683Y01424*
X01684Y01423*
X01685Y01422*
X01685Y01421*
X01674D02*
D01*
X01675Y01422*
X01676Y01423*
X01676Y01424*
X01677Y01425*
X01678Y01427*
X01678Y01428*
X01679Y01429*
X01679Y0143*
X01679Y01431*
X01679Y01433*
X01679Y01434*
X0168Y01435*
X01717Y01283D02*
D01*
X01717Y01284*
X01717Y01285*
X01716Y01286*
X01716Y01288*
X01716Y01289*
X01715Y0129*
X01715Y01291*
X01714Y01293*
X01713Y01294*
X01712Y01295*
X01712Y01296*
X01711Y01296*
X01722D02*
D01*
X01722Y01295*
X01721Y01294*
X0172Y01293*
X01719Y01292*
X01719Y01291*
X01718Y01289*
X01718Y01288*
X01717Y01287*
X01717Y01285*
X01717Y01284*
X01717Y01283*
X01717Y01283*
X01865Y01306D02*
D01*
X01865Y01309*
X01865Y01312*
X01864Y01314*
X01863Y01317*
X01863Y01319*
X01862Y01322*
X0186Y01324*
X01859Y01327*
X01858Y01329*
X01856Y01331*
X01854Y01333*
X01854Y01333*
X01876D02*
D01*
X01874Y01331*
X01873Y01329*
X01871Y01327*
X0187Y01325*
X01868Y01323*
X01867Y0132*
X01867Y01318*
X01866Y01315*
X01865Y01312*
X01865Y0131*
X01865Y01307*
X01865Y01306*
X01867Y01378D02*
D01*
X01867Y01376*
X01867Y01373*
X01868Y01371*
X01868Y01369*
X01869Y01367*
X0187Y01365*
X01871Y01363*
X01872Y01361*
X01873Y01359*
X01874Y01358*
X01876Y01356*
X01876Y01356*
X01854D02*
D01*
X01856Y01358*
X01858Y0136*
X0186Y01363*
X01861Y01366*
X01863Y01368*
X01864Y01371*
X01865Y01374*
X01866Y01377*
X01866Y0138*
X01867Y01383*
X01867Y01386*
X01867Y01387*
X01859Y0135D02*
D01*
X01861Y01351*
X01862Y01353*
X01863Y01354*
X01864Y01356*
X01864Y01357*
X01865Y01359*
X01866Y01361*
X01866Y01362*
X01867Y01364*
X01867Y01366*
X01867Y01368*
X01867Y01368*
X00803Y00823D02*
D01*
X00803Y0082*
X00803Y00818*
X00803Y00815*
X00804Y00812*
X00805Y0081*
X00806Y00807*
X00807Y00805*
X00808Y00803*
X0081Y00801*
X00811Y00799*
X00813Y00797*
X00814Y00796*
X00791D02*
D01*
X00793Y00798*
X00795Y008*
X00796Y00802*
X00798Y00805*
X00799Y00807*
X008Y00809*
X00801Y00812*
X00802Y00814*
X00802Y00817*
X00802Y0082*
X00803Y00822*
X00803Y00823*
X00765Y00785D02*
D01*
X00767Y00785*
X0077Y00785*
X00772Y00786*
X00775Y00786*
X00778Y00787*
X0078Y00788*
X00782Y00789*
X00785Y00791*
X00787Y00792*
X00789Y00794*
X00791Y00796*
X00791Y00796*
Y00774D02*
D01*
X00789Y00776*
X00787Y00777*
X00785Y00779*
X00783Y0078*
X00781Y00781*
X00778Y00782*
X00776Y00783*
X00773Y00784*
X0077Y00784*
X00768Y00785*
X00765Y00785*
X00765Y00785*
X00803Y00676D02*
D01*
X00802Y00679*
X00802Y00681*
X00802Y00684*
X00801Y00687*
X008Y00689*
X00799Y00692*
X00798Y00694*
X00797Y00696*
X00795Y00698*
X00794Y007*
X00792Y00702*
X00791Y00703*
X00814D02*
D01*
X00812Y00701*
X0081Y00699*
X00809Y00697*
X00807Y00694*
X00806Y00692*
X00805Y0069*
X00804Y00687*
X00804Y00685*
X00803Y00682*
X00803Y00679*
X00803Y00677*
X00803Y00676*
X00972Y00823D02*
D01*
X00972Y0082*
X00972Y00818*
X00973Y00815*
X00973Y00812*
X00974Y0081*
X00975Y00807*
X00976Y00805*
X00978Y00803*
X00979Y00801*
X00981Y00799*
X00982Y00797*
X00983Y00796*
X00961D02*
D01*
X00962Y00798*
X00964Y008*
X00966Y00802*
X00967Y00805*
X00968Y00807*
X00969Y00809*
X0097Y00812*
X00971Y00814*
X00971Y00817*
X00972Y0082*
X00972Y00822*
X00972Y00823*
X00934Y00785D02*
D01*
X00936Y00785*
X00939Y00785*
X00942Y00786*
X00944Y00786*
X00947Y00787*
X00949Y00788*
X00952Y00789*
X00954Y00791*
X00956Y00792*
X00958Y00794*
X0096Y00796*
X00961Y00796*
Y00774D02*
D01*
X00959Y00776*
X00957Y00777*
X00955Y00779*
X00952Y0078*
X0095Y00781*
X00947Y00782*
X00945Y00783*
X00942Y00784*
X0094Y00784*
X00937Y00785*
X00934Y00785*
X00934Y00785*
X00591D02*
D01*
X00594Y00785*
X00597Y00785*
X00599Y00786*
X00602Y00786*
X00604Y00787*
X00607Y00788*
X00609Y00789*
X00611Y00791*
X00614Y00792*
X00616Y00794*
X00618Y00796*
X00618Y00796*
Y00774D02*
D01*
X00616Y00776*
X00614Y00777*
X00612Y00779*
X0061Y0078*
X00607Y00781*
X00605Y00782*
X00602Y00783*
X006Y00784*
X00597Y00784*
X00595Y00785*
X00592Y00785*
X00591Y00785*
X00629Y00823D02*
D01*
X00629Y0082*
X0063Y00818*
X0063Y00815*
X00631Y00812*
X00632Y0081*
X00633Y00807*
X00634Y00805*
X00635Y00803*
X00637Y00801*
X00638Y00799*
X0064Y00797*
X0064Y00796*
X00618D02*
D01*
X0062Y00798*
X00622Y008*
X00623Y00802*
X00625Y00805*
X00626Y00807*
X00627Y00809*
X00628Y00812*
X00628Y00814*
X00629Y00817*
X00629Y0082*
X00629Y00822*
X00629Y00823*
Y00676D02*
D01*
X00629Y00679*
X00629Y00681*
X00628Y00684*
X00628Y00687*
X00627Y00689*
X00626Y00692*
X00625Y00694*
X00624Y00696*
X00622Y00698*
X0062Y007*
X00619Y00702*
X00618Y00703*
X0064D02*
D01*
X00639Y00701*
X00637Y00699*
X00635Y00697*
X00634Y00694*
X00633Y00692*
X00632Y0069*
X00631Y00687*
X0063Y00685*
X0063Y00682*
X00629Y00679*
X00629Y00677*
X00629Y00676*
X001Y00823D02*
D01*
X001Y0082*
X001Y00818*
X00101Y00815*
X00101Y00812*
X00102Y0081*
X00103Y00807*
X00104Y00805*
X00106Y00803*
X00107Y00801*
X00109Y00799*
X00111Y00797*
X00111Y00796*
X00089D02*
D01*
X00091Y00798*
X00092Y008*
X00094Y00802*
X00095Y00805*
X00096Y00807*
X00097Y00809*
X00098Y00812*
X00099Y00814*
X001Y00817*
X001Y0082*
X001Y00822*
X001Y00823*
X00062Y00785D02*
D01*
X00065Y00785*
X00067Y00785*
X0007Y00786*
X00072Y00786*
X00075Y00787*
X00077Y00788*
X0008Y00789*
X00082Y00791*
X00084Y00792*
X00086Y00794*
X00088Y00796*
X00089Y00796*
Y00774D02*
D01*
X00087Y00776*
X00085Y00777*
X00083Y00779*
X0008Y0078*
X00078Y00781*
X00076Y00782*
X00073Y00783*
X00071Y00784*
X00068Y00784*
X00065Y00785*
X00063Y00785*
X00062Y00785*
X001Y00676D02*
D01*
X001Y00679*
X001Y00681*
X00099Y00684*
X00099Y00687*
X00098Y00689*
X00097Y00692*
X00096Y00694*
X00094Y00696*
X00093Y00698*
X00091Y007*
X00089Y00702*
X00089Y00703*
X00111D02*
D01*
X00109Y00701*
X00108Y00699*
X00106Y00697*
X00105Y00694*
X00104Y00692*
X00103Y0069*
X00102Y00687*
X00101Y00685*
X001Y00682*
X001Y00679*
X001Y00677*
X001Y00676*
X0043Y00785D02*
D01*
X00431Y00785*
X00433Y00785*
X00435Y00785*
X00436Y00786*
X00438Y00786*
X00439Y00787*
X0044Y00788*
X00442Y00788*
X00443Y00789*
X00444Y0079*
X00445Y00791*
X00446Y00792*
X00447Y00793*
X00448Y00794*
Y00776D02*
D01*
X00447Y00777*
X00446Y00778*
X00445Y00779*
X00444Y0078*
X00442Y00781*
X00441Y00782*
X0044Y00783*
X00438Y00783*
X00437Y00784*
X00435Y00784*
X00434Y00785*
X00432Y00785*
X00431Y00785*
X0043Y00785*
X00461Y00823D02*
D01*
X00461Y0082*
X00461Y00818*
X00462Y00815*
X00462Y00812*
X00463Y0081*
X00464Y00807*
X00465Y00805*
X00466Y00803*
X00468Y00801*
X0047Y00799*
X00471Y00797*
X00472Y00796*
X0045D02*
D01*
X00451Y00798*
X00453Y008*
X00455Y00802*
X00456Y00805*
X00457Y00807*
X00458Y00809*
X00459Y00812*
X0046Y00814*
X0046Y00817*
X00461Y0082*
X00461Y00822*
X00461Y00823*
Y00676D02*
D01*
X00461Y00679*
X0046Y00681*
X0046Y00684*
X00459Y00687*
X00458Y00689*
X00457Y00692*
X00456Y00694*
X00455Y00696*
X00453Y00698*
X00452Y007*
X0045Y00702*
X0045Y00703*
X00472D02*
D01*
X0047Y00701*
X00468Y00699*
X00467Y00697*
X00465Y00694*
X00464Y00692*
X00463Y0069*
X00462Y00687*
X00462Y00685*
X00461Y00682*
X00461Y00679*
X00461Y00677*
X00461Y00676*
X00276Y00823D02*
D01*
X00276Y0082*
X00276Y00818*
X00277Y00815*
X00277Y00812*
X00278Y0081*
X00279Y00807*
X0028Y00805*
X00281Y00803*
X00283Y00801*
X00285Y00799*
X00286Y00797*
X00287Y00796*
X00265D02*
D01*
X00266Y00798*
X00268Y008*
X0027Y00802*
X00271Y00805*
X00272Y00807*
X00273Y00809*
X00274Y00812*
X00275Y00814*
X00275Y00817*
X00276Y0082*
X00276Y00822*
X00276Y00823*
X00309Y00785D02*
D01*
X00307Y00785*
X00305Y00785*
X00303Y00784*
X00301Y00784*
X003Y00783*
X00298Y00783*
X00296Y00782*
X00294Y00781*
X00293Y0078*
X00291Y00778*
X0029Y00777*
X00289Y00776*
X00288Y00775*
Y00795D02*
D01*
X00289Y00794*
X0029Y00792*
X00292Y00791*
X00293Y0079*
X00295Y00789*
X00297Y00788*
X00299Y00787*
X003Y00786*
X00302Y00786*
X00304Y00785*
X00306Y00785*
X00308Y00785*
X00309Y00785*
X00276Y00676D02*
D01*
X00276Y00679*
X00275Y00681*
X00275Y00684*
X00274Y00687*
X00273Y00689*
X00272Y00692*
X00271Y00694*
X0027Y00696*
X00268Y00698*
X00267Y007*
X00265Y00702*
X00265Y00703*
X00287D02*
D01*
X00285Y00701*
X00283Y00699*
X00282Y00697*
X0028Y00694*
X00279Y00692*
X00278Y0069*
X00277Y00687*
X00277Y00685*
X00276Y00682*
X00276Y00679*
X00276Y00677*
X00276Y00676*
Y00829D02*
D01*
X00276Y00831*
X00275Y00832*
X00275Y00833*
X00275Y00835*
X00275Y00836*
X00274Y00837*
X00273Y00838*
X00273Y00839*
X00272Y0084*
X00271Y00842*
X0027Y00843*
X0027Y00843*
X00281D02*
D01*
X0028Y00842*
X0028Y00841*
X00279Y0084*
X00278Y00839*
X00277Y00837*
X00277Y00836*
X00277Y00835*
X00276Y00834*
X00276Y00832*
X00276Y00831*
X00276Y0083*
X00276Y00829*
X00313Y00982D02*
D01*
X00313Y0098*
X00313Y00979*
X00313Y00978*
X00314Y00976*
X00314Y00975*
X00315Y00974*
X00315Y00973*
X00316Y00971*
X00317Y0097*
X00318Y00969*
X00318Y00968*
X00319Y00968*
X00308D02*
D01*
X00308Y00969*
X00309Y0097*
X0031Y00971*
X00311Y00972*
X00311Y00973*
X00312Y00975*
X00312Y00976*
X00313Y00977*
X00313Y00979*
X00313Y0098*
X00313Y00981*
X00313Y00982*
Y00912D02*
D01*
X00313Y00913*
X00313Y00915*
X00313Y00916*
X00312Y00917*
X00312Y00918*
X00311Y0092*
X00311Y00921*
X0031Y00922*
X00309Y00923*
X00309Y00924*
X00308Y00925*
X00308Y00925*
X00319D02*
D01*
X00318Y00924*
X00317Y00923*
X00316Y00922*
X00315Y00921*
X00315Y0092*
X00314Y00919*
X00314Y00918*
X00314Y00916*
X00313Y00915*
X00313Y00914*
X00313Y00912*
X00313Y00912*
X00238Y00982D02*
D01*
X00238Y0098*
X00238Y00979*
X00239Y00978*
X00239Y00976*
X00239Y00975*
X0024Y00974*
X00241Y00973*
X00241Y00971*
X00242Y0097*
X00243Y00969*
X00244Y00968*
X00244Y00968*
X00233D02*
D01*
X00234Y00969*
X00234Y0097*
X00235Y00971*
X00236Y00972*
X00236Y00973*
X00237Y00975*
X00237Y00976*
X00238Y00977*
X00238Y00979*
X00238Y0098*
X00238Y00981*
X00238Y00982*
X00461Y00829D02*
D01*
X00461Y00831*
X00461Y00832*
X0046Y00833*
X0046Y00835*
X0046Y00836*
X00459Y00837*
X00458Y00838*
X00458Y00839*
X00457Y0084*
X00456Y00842*
X00455Y00843*
X00455Y00843*
X00466D02*
D01*
X00465Y00842*
X00465Y00841*
X00464Y0084*
X00463Y00839*
X00463Y00837*
X00462Y00836*
X00462Y00835*
X00461Y00834*
X00461Y00832*
X00461Y00831*
X00461Y0083*
X00461Y00829*
X00498Y00982D02*
D01*
X00498Y0098*
X00498Y00979*
X00499Y00978*
X00499Y00976*
X00499Y00975*
X005Y00974*
X005Y00973*
X00501Y00971*
X00502Y0097*
X00503Y00969*
X00503Y00968*
X00504Y00968*
X00493D02*
D01*
X00493Y00969*
X00494Y0097*
X00495Y00971*
X00496Y00972*
X00496Y00973*
X00497Y00975*
X00497Y00976*
X00498Y00977*
X00498Y00979*
X00498Y0098*
X00498Y00981*
X00498Y00982*
Y00912D02*
D01*
X00498Y00913*
X00498Y00915*
X00498Y00916*
X00497Y00917*
X00497Y00918*
X00496Y0092*
X00496Y00921*
X00495Y00922*
X00494Y00923*
X00494Y00924*
X00493Y00925*
X00493Y00925*
X00504D02*
D01*
X00503Y00924*
X00502Y00923*
X00501Y00922*
X00501Y00921*
X005Y0092*
X00499Y00919*
X00499Y00918*
X00499Y00916*
X00498Y00915*
X00498Y00914*
X00498Y00912*
X00498Y00912*
X00423Y00982D02*
D01*
X00423Y0098*
X00424Y00979*
X00424Y00978*
X00424Y00976*
X00424Y00975*
X00425Y00974*
X00426Y00973*
X00426Y00971*
X00427Y0097*
X00428Y00969*
X00429Y00968*
X00429Y00968*
X00418D02*
D01*
X00419Y00969*
X00419Y0097*
X0042Y00971*
X00421Y00972*
X00422Y00973*
X00422Y00975*
X00422Y00976*
X00423Y00977*
X00423Y00979*
X00423Y0098*
X00423Y00981*
X00423Y00982*
X001Y00829D02*
D01*
X001Y00831*
X001Y00832*
X001Y00833*
X00099Y00835*
X00099Y00836*
X00098Y00837*
X00098Y00838*
X00097Y00839*
X00096Y0084*
X00096Y00842*
X00095Y00843*
X00094Y00843*
X00106D02*
D01*
X00105Y00842*
X00104Y00841*
X00103Y0084*
X00102Y00839*
X00102Y00837*
X00101Y00836*
X00101Y00835*
X00101Y00834*
X001Y00832*
X001Y00831*
X001Y0083*
X001Y00829*
X00137Y00982D02*
D01*
X00137Y0098*
X00138Y00979*
X00138Y00978*
X00138Y00976*
X00139Y00975*
X00139Y00974*
X0014Y00973*
X0014Y00971*
X00141Y0097*
X00142Y00969*
X00143Y00968*
X00143Y00968*
X00132D02*
D01*
X00133Y00969*
X00134Y0097*
X00134Y00971*
X00135Y00972*
X00136Y00973*
X00136Y00975*
X00137Y00976*
X00137Y00977*
X00137Y00979*
X00137Y0098*
X00137Y00981*
X00137Y00982*
Y00912D02*
D01*
X00137Y00913*
X00137Y00915*
X00137Y00916*
X00137Y00917*
X00136Y00918*
X00136Y0092*
X00135Y00921*
X00135Y00922*
X00134Y00923*
X00133Y00924*
X00132Y00925*
X00132Y00925*
X00143D02*
D01*
X00142Y00924*
X00141Y00923*
X0014Y00922*
X0014Y00921*
X00139Y0092*
X00139Y00919*
X00138Y00918*
X00138Y00916*
X00138Y00915*
X00137Y00914*
X00137Y00912*
X00137Y00912*
X00063Y00982D02*
D01*
X00063Y0098*
X00063Y00979*
X00063Y00978*
X00063Y00976*
X00064Y00975*
X00064Y00974*
X00065Y00973*
X00065Y00971*
X00066Y0097*
X00067Y00969*
X00068Y00968*
X00068Y00968*
X00057D02*
D01*
X00058Y00969*
X00059Y0097*
X0006Y00971*
X0006Y00972*
X00061Y00973*
X00061Y00975*
X00062Y00976*
X00062Y00977*
X00062Y00979*
X00063Y0098*
X00063Y00981*
X00063Y00982*
X00629Y00829D02*
D01*
X00629Y00831*
X00629Y00832*
X00629Y00833*
X00629Y00835*
X00628Y00836*
X00628Y00837*
X00627Y00838*
X00626Y00839*
X00626Y0084*
X00625Y00842*
X00624Y00843*
X00624Y00843*
X00635D02*
D01*
X00634Y00842*
X00633Y00841*
X00632Y0084*
X00632Y00839*
X00631Y00837*
X00631Y00836*
X0063Y00835*
X0063Y00834*
X0063Y00832*
X00629Y00831*
X00629Y0083*
X00629Y00829*
X00667Y00982D02*
D01*
X00667Y0098*
X00667Y00979*
X00667Y00978*
X00667Y00976*
X00668Y00975*
X00668Y00974*
X00669Y00973*
X0067Y00971*
X0067Y0097*
X00671Y00969*
X00672Y00968*
X00672Y00968*
X00661D02*
D01*
X00662Y00969*
X00663Y0097*
X00664Y00971*
X00664Y00972*
X00665Y00973*
X00665Y00975*
X00666Y00976*
X00666Y00977*
X00666Y00979*
X00667Y0098*
X00667Y00981*
X00667Y00982*
Y00912D02*
D01*
X00667Y00913*
X00667Y00915*
X00666Y00916*
X00666Y00917*
X00666Y00918*
X00665Y0092*
X00664Y00921*
X00664Y00922*
X00663Y00923*
X00662Y00924*
X00661Y00925*
X00661Y00925*
X00672D02*
D01*
X00671Y00924*
X00671Y00923*
X0067Y00922*
X00669Y00921*
X00668Y0092*
X00668Y00919*
X00668Y00918*
X00667Y00916*
X00667Y00915*
X00667Y00914*
X00667Y00912*
X00667Y00912*
X00592Y00982D02*
D01*
X00592Y0098*
X00592Y00979*
X00592Y00978*
X00593Y00976*
X00593Y00975*
X00594Y00974*
X00594Y00973*
X00595Y00971*
X00596Y0097*
X00596Y00969*
X00597Y00968*
X00597Y00968*
X00586D02*
D01*
X00587Y00969*
X00588Y0097*
X00589Y00971*
X0059Y00972*
X0059Y00973*
X00591Y00975*
X00591Y00976*
X00591Y00977*
X00592Y00979*
X00592Y0098*
X00592Y00981*
X00592Y00982*
X00803Y00829D02*
D01*
X00802Y00831*
X00802Y00832*
X00802Y00833*
X00802Y00835*
X00801Y00836*
X00801Y00837*
X008Y00838*
X008Y00839*
X00799Y0084*
X00798Y00842*
X00797Y00843*
X00797Y00843*
X00808D02*
D01*
X00807Y00842*
X00806Y00841*
X00806Y0084*
X00805Y00839*
X00804Y00837*
X00804Y00836*
X00803Y00835*
X00803Y00834*
X00803Y00832*
X00803Y00831*
X00803Y0083*
X00803Y00829*
X0084Y00912D02*
D01*
X0084Y00913*
X0084Y00915*
X0084Y00916*
X00839Y00917*
X00839Y00918*
X00838Y0092*
X00838Y00921*
X00837Y00922*
X00836Y00923*
X00835Y00924*
X00835Y00925*
X00834Y00925*
X00846D02*
D01*
X00845Y00924*
X00844Y00923*
X00843Y00922*
X00842Y00921*
X00842Y0092*
X00841Y00919*
X00841Y00918*
X0084Y00916*
X0084Y00915*
X0084Y00914*
X0084Y00912*
X0084Y00912*
Y00982D02*
D01*
X0084Y0098*
X0084Y00979*
X0084Y00978*
X00841Y00976*
X00841Y00975*
X00842Y00974*
X00842Y00973*
X00843Y00971*
X00844Y0097*
X00844Y00969*
X00845Y00968*
X00846Y00968*
X00834D02*
D01*
X00835Y00969*
X00836Y0097*
X00837Y00971*
X00838Y00972*
X00838Y00973*
X00839Y00975*
X00839Y00976*
X00839Y00977*
X0084Y00979*
X0084Y0098*
X0084Y00981*
X0084Y00982*
X00765D02*
D01*
X00765Y0098*
X00765Y00979*
X00766Y00978*
X00766Y00976*
X00766Y00975*
X00767Y00974*
X00767Y00973*
X00768Y00971*
X00769Y0097*
X0077Y00969*
X0077Y00968*
X00771Y00968*
X0076D02*
D01*
X0076Y00969*
X00761Y0097*
X00762Y00971*
X00763Y00972*
X00763Y00973*
X00764Y00975*
X00764Y00976*
X00765Y00977*
X00765Y00979*
X00765Y0098*
X00765Y00981*
X00765Y00982*
X00972Y00829D02*
D01*
X00972Y00831*
X00972Y00832*
X00971Y00833*
X00971Y00835*
X00971Y00836*
X0097Y00837*
X0097Y00838*
X00969Y00839*
X00968Y0084*
X00967Y00842*
X00966Y00843*
X00966Y00843*
X00977D02*
D01*
X00976Y00842*
X00976Y00841*
X00975Y0084*
X00974Y00839*
X00974Y00837*
X00973Y00836*
X00973Y00835*
X00972Y00834*
X00972Y00832*
X00972Y00831*
X00972Y0083*
X00972Y00829*
X01009Y00982D02*
D01*
X01009Y0098*
X01009Y00979*
X0101Y00978*
X0101Y00976*
X0101Y00975*
X01011Y00974*
X01011Y00973*
X01012Y00971*
X01013Y0097*
X01014Y00969*
X01015Y00968*
X01015Y00968*
X01004D02*
D01*
X01005Y00969*
X01005Y0097*
X01006Y00971*
X01007Y00972*
X01007Y00973*
X01008Y00975*
X01008Y00976*
X01009Y00977*
X01009Y00979*
X01009Y0098*
X01009Y00981*
X01009Y00982*
X00934D02*
D01*
X00934Y0098*
X00935Y00979*
X00935Y00978*
X00935Y00976*
X00936Y00975*
X00936Y00974*
X00937Y00973*
X00937Y00971*
X00938Y0097*
X00939Y00969*
X0094Y00968*
X0094Y00968*
X00929D02*
D01*
X0093Y00969*
X00931Y0097*
X00931Y00971*
X00932Y00972*
X00933Y00973*
X00933Y00975*
X00934Y00976*
X00934Y00977*
X00934Y00979*
X00934Y0098*
X00934Y00981*
X00934Y00982*
X02734Y00949D02*
D01*
X02734Y00947*
X02734Y00946*
X02734Y00945*
X02734Y00943*
X02735Y00942*
X02735Y00941*
X02736Y0094*
X02736Y00938*
X02737Y00937*
X02738Y00936*
X02739Y00935*
X02739Y00935*
X02728D02*
D01*
X02729Y00936*
X0273Y00937*
X02731Y00938*
X02731Y00939*
X02732Y0094*
X02732Y00942*
X02733Y00943*
X02733Y00944*
X02733Y00946*
X02734Y00947*
X02734Y00948*
X02734Y00949*
X02773Y00881D02*
D01*
X02772Y00881*
X02771Y00881*
X0277Y0088*
X02769Y0088*
X02768Y0088*
X02767Y00879*
X02766Y00878*
X02766Y00878*
X02765Y00877*
X02764Y00876*
X02763Y00875*
X02763Y00875*
X02761Y00886D02*
D01*
X02763Y00885*
X02764Y00884*
X02765Y00884*
X02767Y00883*
X02769Y00883*
X0277Y00882*
X02772Y00882*
X02773Y00882*
X02775Y00882*
X02776Y00882*
X02778Y00882*
X02778Y00882*
X02777Y00826D02*
D01*
X02775Y00826*
X02774Y00826*
X02772Y00826*
X02771Y00826*
X02769Y00826*
X02768Y00826*
X02767Y00826*
X02765Y00825*
X02764Y00825*
X02763Y00824*
X02762Y00823*
X02761Y00823*
X02763Y00834D02*
D01*
X02764Y00833*
X02765Y00832*
X02766Y00831*
X02767Y0083*
X02768Y0083*
X02769Y00829*
X0277Y00828*
X02771Y00828*
X02772Y00827*
X02773Y00827*
X02774Y00827*
X02774Y00826*
X02563Y0093D02*
D01*
X02562Y00929*
X02561Y00929*
X02559Y00929*
X02558Y00929*
X02557Y00928*
X02555Y00928*
X02554Y00927*
X02553Y00927*
X02552Y00926*
X02551Y00925*
X0255Y00924*
X0255Y00924*
Y00935D02*
D01*
X02551Y00934*
X02552Y00933*
X02553Y00933*
X02554Y00932*
X02555Y00931*
X02556Y00931*
X02558Y0093*
X02559Y0093*
X0256Y0093*
X02562Y0093*
X02563Y0093*
X02563Y0093*
X02479Y0088D02*
D01*
X0248Y0088*
X02481Y0088*
X02483Y0088*
X02484Y0088*
X02485Y00881*
X02486Y00881*
X02488Y00882*
X02489Y00882*
X0249Y00883*
X02491Y00884*
X02492Y00885*
X02492Y00885*
Y00874D02*
D01*
X02491Y00875*
X0249Y00876*
X02489Y00876*
X02488Y00877*
X02487Y00878*
X02486Y00878*
X02484Y00879*
X02483Y00879*
X02482Y00879*
X0248Y00879*
X02479Y00879*
X02479Y0088*
Y0083D02*
D01*
X0248Y0083*
X02481Y0083*
X02483Y0083*
X02484Y0083*
X02485Y00831*
X02486Y00831*
X02488Y00832*
X02489Y00832*
X0249Y00833*
X02491Y00834*
X02492Y00835*
X02492Y00835*
Y00824D02*
D01*
X02491Y00825*
X0249Y00826*
X02489Y00826*
X02488Y00827*
X02487Y00828*
X02486Y00828*
X02484Y00829*
X02483Y00829*
X02482Y00829*
X0248Y00829*
X02479Y00829*
X02479Y0083*
X02521Y0076D02*
D01*
X02521Y00762*
X02521Y00763*
X02521Y00764*
X0252Y00766*
X0252Y00767*
X02519Y00768*
X02519Y00769*
X02518Y00771*
X02517Y00772*
X02517Y00773*
X02516Y00774*
X02515Y00774*
X02527D02*
D01*
X02526Y00773*
X02525Y00772*
X02524Y00771*
X02523Y0077*
X02523Y00769*
X02522Y00767*
X02522Y00766*
X02521Y00765*
X02521Y00763*
X02521Y00762*
X02521Y00761*
X02521Y0076*
X02863Y00822D02*
D01*
X02864Y00822*
X02866Y00823*
X02867Y00823*
X02868Y00823*
X0287Y00824*
X02871Y00824*
X02872Y00825*
X02873Y00825*
X02874Y00826*
X02875Y00827*
X02877Y00828*
X02877Y00829*
X02878Y0083*
X02879Y00831*
X0288Y00832*
X02881Y00834*
X02881Y00834*
Y00811D02*
D01*
X0288Y00812*
X02879Y00814*
X02878Y00815*
X02877Y00816*
X02877Y00817*
X02876Y00818*
X02874Y00819*
X02873Y00819*
X02872Y0082*
X02871Y00821*
X0287Y00821*
X02868Y00822*
X02867Y00822*
X02866Y00822*
X02864Y00822*
X02863Y00822*
X02863Y00822*
X0291Y00977D02*
D01*
X0291Y00976*
X0291Y00975*
X0291Y00973*
X0291Y00972*
X02911Y00971*
X02911Y00969*
X02912Y00968*
X02913Y00967*
X02913Y00966*
X02914Y00965*
X02915Y00964*
X02916Y00963*
X02917Y00962*
X02918Y00961*
X02919Y0096*
X02921Y0096*
X02921Y0096*
X02898D02*
D01*
X029Y0096*
X02901Y00961*
X02902Y00962*
X02903Y00963*
X02904Y00964*
X02905Y00965*
X02906Y00966*
X02906Y00967*
X02907Y00968*
X02908Y00969*
X02908Y00971*
X02909Y00972*
X02909Y00973*
X02909Y00975*
X02909Y00976*
X0291Y00977*
Y00977*
X00728Y00353D02*
D01*
X00729Y00354*
X0073Y00355*
X00731Y00357*
X00732Y00358*
X00732Y00359*
X00733Y00361*
X00734Y00363*
X00734Y00364*
X00734Y00366*
X00735Y00367*
X00735Y00369*
X00735Y0037*
X00745Y0036D02*
D01*
X00743Y0036*
X00741Y00359*
X0074Y00359*
X00738Y00359*
X00736Y00358*
X00735Y00358*
X00733Y00357*
X00732Y00356*
X00731Y00355*
X00729Y00354*
X00728Y00353*
X00728Y00353*
X0205Y00695D02*
D01*
X02049Y00697*
X02049Y00698*
X02049Y007*
X02049Y00702*
X02048Y00703*
X02047Y00705*
X02047Y00706*
X02046Y00708*
X02045Y00709*
X02044Y0071*
X02043Y00712*
X02043Y00712*
X02056D02*
D01*
X02055Y00711*
X02054Y00709*
X02053Y00708*
X02052Y00707*
X02052Y00705*
X02051Y00704*
X02051Y00702*
X0205Y007*
X0205Y00699*
X0205Y00697*
X0205Y00696*
X0205Y00695*
X02726Y00429D02*
D01*
X02727Y00429*
X02729Y00429*
X02731Y0043*
X02732Y0043*
X02734Y00431*
X02735Y00431*
X02737Y00432*
X02738Y00433*
X0274Y00434*
X02741Y00435*
X02742Y00436*
X02743Y00436*
Y00422D02*
D01*
X02741Y00423*
X0274Y00424*
X02739Y00425*
X02737Y00426*
X02736Y00427*
X02734Y00427*
X02733Y00428*
X02731Y00428*
X02729Y00429*
X02728Y00429*
X02726Y00429*
X02726Y00429*
Y00465D02*
D01*
X02727Y00465*
X02729Y00465*
X02731Y00465*
X02732Y00465*
X02734Y00466*
X02735Y00467*
X02737Y00467*
X02738Y00468*
X0274Y00469*
X02741Y0047*
X02742Y00471*
X02743Y00471*
Y00458D02*
D01*
X02741Y00459*
X0274Y0046*
X02739Y00461*
X02737Y00462*
X02736Y00462*
X02734Y00463*
X02733Y00463*
X02731Y00464*
X02729Y00464*
X02728Y00464*
X02726Y00464*
X02726Y00465*
X02245Y00931D02*
D01*
X02244Y00932*
X02244Y00934*
X02244Y00936*
X02244Y00937*
X02243Y00939*
X02242Y0094*
X02242Y00942*
X02241Y00943*
X0224Y00945*
X02239Y00946*
X02238Y00947*
X02238Y00948*
X02251D02*
D01*
X0225Y00946*
X02249Y00945*
X02248Y00944*
X02247Y00942*
X02247Y00941*
X02246Y00939*
X02246Y00938*
X02245Y00936*
X02245Y00934*
X02245Y00933*
X02245Y00931*
X02245Y00931*
X0188D02*
D01*
X01879Y00932*
X01879Y00934*
X01879Y00936*
X01879Y00937*
X01878Y00939*
X01877Y0094*
X01877Y00942*
X01876Y00943*
X01875Y00945*
X01874Y00946*
X01873Y00947*
X01873Y00948*
X01886D02*
D01*
X01885Y00946*
X01884Y00945*
X01883Y00944*
X01882Y00942*
X01882Y00941*
X01881Y00939*
X01881Y00938*
X0188Y00936*
X0188Y00934*
X0188Y00933*
X0188Y00931*
X0188Y00931*
X0185Y01031D02*
D01*
X01849Y01032*
X01849Y01034*
X01849Y01036*
X01849Y01037*
X01848Y01039*
X01847Y0104*
X01847Y01042*
X01846Y01043*
X01845Y01045*
X01844Y01046*
X01843Y01047*
X01843Y01048*
X01856D02*
D01*
X01855Y01046*
X01854Y01045*
X01853Y01044*
X01852Y01042*
X01852Y01041*
X01851Y01039*
X01851Y01038*
X0185Y01036*
X0185Y01034*
X0185Y01033*
X0185Y01031*
X0185Y01031*
X0181Y00831D02*
D01*
X01809Y00832*
X01809Y00834*
X01809Y00836*
X01809Y00837*
X01808Y00839*
X01807Y0084*
X01807Y00842*
X01806Y00843*
X01805Y00845*
X01804Y00846*
X01803Y00847*
X01803Y00848*
X01816D02*
D01*
X01815Y00846*
X01814Y00845*
X01813Y00844*
X01812Y00842*
X01812Y00841*
X01811Y00839*
X01811Y00838*
X0181Y00836*
X0181Y00834*
X0181Y00833*
X0181Y00831*
X0181Y00831*
X02355Y00866D02*
D01*
X02354Y00867*
X02354Y00869*
X02354Y00871*
X02354Y00872*
X02353Y00874*
X02352Y00875*
X02352Y00877*
X02351Y00878*
X0235Y0088*
X02349Y00881*
X02348Y00882*
X02348Y00883*
X02361D02*
D01*
X0236Y00881*
X02359Y0088*
X02358Y00879*
X02357Y00877*
X02357Y00876*
X02356Y00874*
X02356Y00873*
X02355Y00871*
X02355Y00869*
X02355Y00868*
X02355Y00866*
X02355Y00866*
X02379Y0089D02*
D01*
X02378Y0089*
X02376Y0089*
X02374Y00889*
X02372Y00889*
X02371Y00888*
X02369Y00888*
X02367Y00887*
X02366Y00886*
X02364Y00885*
X02363Y00884*
X02362Y00883*
X02361Y00883*
Y00896D02*
D01*
X02363Y00895*
X02364Y00894*
X02365Y00894*
X02366Y00893*
X02368Y00892*
X02369Y00891*
X02371Y00891*
X02372Y00891*
X02374Y0089*
X02375Y0089*
X02377Y0089*
X02377Y0089*
X02595Y00683D02*
D01*
X02595Y00682*
X02595Y0068*
X02595Y00678*
X02595Y00677*
X02596Y00675*
X02597Y00674*
X02597Y00672*
X02598Y00671*
X02599Y00669*
X026Y00668*
X02601Y00667*
X02601Y00666*
X02588D02*
D01*
X02589Y00668*
X0259Y00669*
X02591Y0067*
X02592Y00672*
X02592Y00673*
X02593Y00675*
X02593Y00676*
X02594Y00678*
X02594Y0068*
X02594Y00681*
X02594Y00683*
X02595Y00683*
X02562Y00635D02*
D01*
X02563Y00634*
X02563Y00632*
X02563Y0063*
X02563Y00629*
X02564Y00627*
X02565Y00626*
X02565Y00624*
X02566Y00623*
X02567Y00621*
X02568Y0062*
X02569Y00619*
X02569Y00619*
X02555D02*
D01*
X02557Y0062*
X02558Y00621*
X02559Y00622*
X02559Y00624*
X0256Y00625*
X02561Y00627*
X02561Y00628*
X02562Y0063*
X02562Y00632*
X02562Y00633*
X02562Y00635*
X02562Y00635*
X00551Y00325D02*
D01*
X00552Y00325*
X00554Y00325*
X00556Y00325*
X00557Y00325*
X00559Y00326*
X0056Y00327*
X00562Y00327*
X00563Y00328*
X00565Y00329*
X00566Y0033*
X00567Y00331*
X00568Y00331*
Y00318D02*
D01*
X00566Y00319*
X00565Y0032*
X00564Y00321*
X00562Y00322*
X00561Y00322*
X00559Y00323*
X00558Y00323*
X00556Y00324*
X00554Y00324*
X00553Y00324*
X00551Y00324*
X00551Y00325*
X0103Y00348D02*
D01*
X0103Y00347*
X0103Y00345*
X0103Y00343*
X0103Y00342*
X01031Y0034*
X01032Y00339*
X01032Y00337*
X01033Y00336*
X01034Y00334*
X01035Y00333*
X01036Y00332*
X01036Y00331*
X01023D02*
D01*
X01024Y00333*
X01025Y00334*
X01026Y00335*
X01027Y00337*
X01027Y00338*
X01028Y0034*
X01028Y00341*
X01029Y00343*
X01029Y00345*
X01029Y00346*
X01029Y00348*
X0103Y00348*
X001Y00689D02*
D01*
X001Y00687*
X001Y00685*
X00101Y00684*
X00101Y00682*
X00101Y00681*
X00102Y00679*
X00103Y00678*
X00104Y00676*
X00105Y00675*
X00106Y00673*
X00107Y00672*
X00107Y00672*
X00093D02*
D01*
X00094Y00673*
X00095Y00674*
X00096Y00676*
X00097Y00677*
X00098Y00679*
X00098Y0068*
X00099Y00682*
X00099Y00683*
X001Y00685*
X001Y00687*
X001Y00688*
X001Y00689*
X00098Y00682D02*
D01*
X00099Y00681*
X00099Y0068*
X00099Y00679*
X001Y00678*
X001Y00678*
X00101Y00677*
X00102Y00676*
X00102Y00675*
X00103Y00675*
X00104Y00674*
X00105Y00674*
X00105Y00674*
X00092Y00671D02*
D01*
X00093Y00672*
X00094Y00674*
X00095Y00675*
X00095Y00676*
X00096Y00678*
X00096Y00679*
X00097Y00681*
X00097Y00682*
X00097Y00684*
X00097Y00685*
X00097Y00687*
X00097Y00688*
X00096Y0069*
X00096Y0069*
X00104D02*
D01*
X00103Y00689*
X00103Y00687*
X00103Y00686*
X00103Y00684*
X00103Y00683*
X00103Y00681*
X00104Y0068*
X00104Y00678*
X00105Y00677*
X00105Y00675*
X00106Y00674*
X00107Y00673*
X00107Y00671*
X00108Y00671*
X00095Y00674D02*
D01*
X00096Y00674*
X00097Y00675*
X00097Y00675*
X00098Y00676*
X00099Y00677*
X00099Y00677*
X001Y00678*
X001Y00679*
X00101Y0068*
X00101Y00681*
X00102Y00682*
X00102Y00682*
X00276Y00689D02*
D01*
X00276Y00688*
X00276Y00686*
X00276Y00685*
X00277Y00683*
X00277Y00681*
X00278Y0068*
X00278Y00678*
X00279Y00677*
X0028Y00675*
X00281Y00674*
X00282Y00673*
X00283Y00673*
X00269D02*
D01*
X0027Y00674*
X00271Y00675*
X00272Y00677*
X00273Y00678*
X00273Y00679*
X00274Y00681*
X00275Y00682*
X00275Y00684*
X00275Y00686*
X00276Y00687*
X00276Y00689*
X00276Y00689*
X00274Y00683D02*
D01*
X00274Y00682*
X00274Y00681*
X00275Y0068*
X00275Y00679*
X00276Y00678*
X00277Y00678*
X00277Y00677*
X00278Y00676*
X00279Y00676*
X0028Y00675*
X0028Y00674*
X00281Y00674*
X00268Y00672D02*
D01*
X00269Y00673*
X0027Y00674*
X0027Y00676*
X00271Y00677*
X00271Y00678*
X00272Y0068*
X00272Y00681*
X00272Y00683*
X00273Y00684*
X00273Y00686*
X00272Y00687*
X00272Y00689*
X00272Y0069*
X00272Y00691*
X0028D02*
D01*
X00279Y00689*
X00279Y00688*
X00279Y00686*
X00279Y00685*
X00279Y00683*
X00279Y00682*
X00279Y0068*
X0028Y00679*
X0028Y00677*
X00281Y00676*
X00282Y00675*
X00282Y00673*
X00283Y00672*
X00283Y00672*
X00271Y00674D02*
D01*
X00272Y00675*
X00272Y00675*
X00273Y00676*
X00274Y00677*
X00275Y00677*
X00275Y00678*
X00276Y00679*
X00276Y0068*
X00277Y00681*
X00277Y00682*
X00277Y00683*
X00278Y00683*
X00461Y00689D02*
D01*
X00461Y00688*
X00461Y00686*
X00461Y00685*
X00462Y00683*
X00462Y00681*
X00463Y0068*
X00464Y00678*
X00464Y00677*
X00465Y00676*
X00466Y00674*
X00467Y00673*
X00468Y00673*
X00454D02*
D01*
X00455Y00674*
X00456Y00675*
X00457Y00677*
X00458Y00678*
X00458Y00679*
X00459Y00681*
X0046Y00683*
X0046Y00684*
X0046Y00686*
X00461Y00687*
X00461Y00689*
X00461Y00689*
X00459Y00683D02*
D01*
X00459Y00682*
X00459Y00681*
X0046Y0068*
X0046Y00679*
X00461Y00679*
X00462Y00678*
X00462Y00677*
X00463Y00676*
X00464Y00676*
X00465Y00675*
X00465Y00674*
X00466Y00674*
X00453Y00672D02*
D01*
X00454Y00673*
X00455Y00674*
X00455Y00676*
X00456Y00677*
X00456Y00678*
X00457Y0068*
X00457Y00681*
X00457Y00683*
X00458Y00684*
X00458Y00686*
X00457Y00687*
X00457Y00689*
X00457Y0069*
X00457Y00691*
X00465D02*
D01*
X00464Y00689*
X00464Y00688*
X00464Y00686*
X00464Y00685*
X00464Y00683*
X00464Y00682*
X00464Y0068*
X00465Y00679*
X00465Y00677*
X00466Y00676*
X00467Y00675*
X00467Y00673*
X00468Y00672*
X00468Y00672*
X00456Y00674D02*
D01*
X00457Y00675*
X00457Y00675*
X00458Y00676*
X00459Y00677*
X0046Y00678*
X0046Y00678*
X00461Y00679*
X00461Y0068*
X00462Y00681*
X00462Y00682*
X00463Y00683*
X00463Y00683*
X00629Y00688D02*
D01*
X00629Y00687*
X0063Y00685*
X0063Y00684*
X0063Y00682*
X00631Y0068*
X00631Y00679*
X00632Y00677*
X00633Y00676*
X00634Y00674*
X00635Y00673*
X00636Y00672*
X00636Y00672*
X00622D02*
D01*
X00623Y00673*
X00625Y00674*
X00625Y00676*
X00626Y00677*
X00627Y00678*
X00628Y0068*
X00628Y00682*
X00629Y00683*
X00629Y00685*
X00629Y00686*
X00629Y00688*
X00629Y00688*
X00628Y00682D02*
D01*
X00628Y00681*
X00628Y0068*
X00629Y00679*
X00629Y00678*
X0063Y00677*
X0063Y00676*
X00631Y00676*
X00632Y00675*
X00632Y00674*
X00633Y00674*
X00634Y00673*
X00634Y00673*
X00622Y00671D02*
D01*
X00622Y00672*
X00623Y00673*
X00624Y00675*
X00625Y00676*
X00625Y00678*
X00626Y00679*
X00626Y00681*
X00626Y00682*
X00626Y00684*
X00626Y00685*
X00626Y00687*
X00626Y00688*
X00626Y0069*
X00626Y0069*
X00633D02*
D01*
X00633Y00689*
X00632Y00687*
X00632Y00686*
X00632Y00684*
X00632Y00682*
X00633Y00681*
X00633Y00679*
X00633Y00678*
X00634Y00677*
X00634Y00675*
X00635Y00674*
X00636Y00672*
X00637Y00671*
X00637Y00671*
X00624Y00673D02*
D01*
X00625Y00674*
X00626Y00674*
X00627Y00675*
X00627Y00676*
X00628Y00676*
X00629Y00677*
X00629Y00678*
X0063Y00679*
X0063Y0068*
X0063Y0068*
X00631Y00681*
X00631Y00682*
X00803Y0069D02*
D01*
X00803Y00689*
X00803Y00687*
X00803Y00685*
X00803Y00684*
X00804Y00682*
X00805Y00681*
X00805Y00679*
X00806Y00678*
X00807Y00676*
X00808Y00675*
X00809Y00674*
X00809Y00673*
X00796D02*
D01*
X00797Y00675*
X00798Y00676*
X00799Y00677*
X008Y00679*
X008Y0068*
X00801Y00682*
X00801Y00683*
X00802Y00685*
X00802Y00687*
X00802Y00688*
X00803Y0069*
X00803Y0069*
X00807Y00691D02*
D01*
X00806Y00689*
X00806Y00688*
X00806Y00687*
X00806Y00685*
X00806Y00684*
X00806Y00682*
X00806Y00681*
X00807Y00679*
X00807Y00678*
X00808Y00677*
X00808Y00675*
X00809Y00674*
X0081Y00673*
X0081Y00673*
X00798Y00675D02*
D01*
X00799Y00676*
X00799Y00676*
X008Y00677*
X00801Y00678*
X00802Y00678*
X00802Y00679*
X00803Y0068*
X00803Y00681*
X00804Y00682*
X00804Y00683*
X00805Y00684*
X00805Y00684*
X008D02*
D01*
X00801Y00683*
X00801Y00682*
X00801Y00681*
X00802Y0068*
X00803Y00679*
X00803Y00679*
X00804Y00678*
X00805Y00677*
X00805Y00676*
X00806Y00676*
X00807Y00675*
X00807Y00675*
X00795Y00673D02*
D01*
X00796Y00674*
X00796Y00675*
X00797Y00676*
X00798Y00678*
X00798Y00679*
X00799Y0068*
X00799Y00682*
X00799Y00683*
X00799Y00685*
X00799Y00686*
X00799Y00688*
X00799Y00689*
X00799Y00691*
X00799Y00691*
X0036Y00543D02*
D01*
X0036Y00542*
X0036Y0054*
X0036Y00538*
X0036Y00537*
X00361Y00535*
X00362Y00534*
X00362Y00532*
X00363Y00531*
X00364Y00529*
X00365Y00528*
X00366Y00527*
X00366Y00526*
X00353D02*
D01*
X00354Y00528*
X00355Y00529*
X00356Y0053*
X00357Y00532*
X00357Y00533*
X00358Y00535*
X00358Y00536*
X00359Y00538*
X00359Y0054*
X00359Y00541*
X00359Y00543*
X0036Y00543*
X00225Y00448D02*
D01*
X00225Y00447*
X00225Y00445*
X00225Y00443*
X00225Y00442*
X00226Y0044*
X00227Y00439*
X00227Y00437*
X00228Y00436*
X00229Y00434*
X0023Y00433*
X00231Y00432*
X00231Y00431*
X00218D02*
D01*
X00219Y00433*
X0022Y00434*
X00221Y00435*
X00222Y00437*
X00222Y00438*
X00223Y0044*
X00223Y00441*
X00224Y00443*
X00224Y00445*
X00224Y00446*
X00224Y00448*
X00225Y00448*
X00529Y00649D02*
D01*
X00529Y00647*
X00529Y00645*
X0053Y00644*
X0053Y00642*
X0053Y00641*
X00531Y00639*
X00532Y00638*
X00533Y00636*
X00534Y00635*
X00535Y00633*
X00536Y00632*
X00536Y00632*
X00522D02*
D01*
X00523Y00633*
X00524Y00634*
X00525Y00636*
X00526Y00637*
X00527Y00639*
X00527Y0064*
X00528Y00642*
X00528Y00643*
X00529Y00645*
X00529Y00647*
X00529Y00648*
X00529Y00649*
X02456Y0057D02*
D01*
X02454Y0057*
X02453Y0057*
X02452Y0057*
X02451Y00569*
X02449Y00569*
X02448Y00569*
X02447Y00568*
X02446Y00567*
X02445Y00567*
X02444Y00566*
X02443Y00565*
X02442Y00565*
Y00576D02*
D01*
X02443Y00575*
X02444Y00574*
X02445Y00573*
X02447Y00573*
X02448Y00572*
X02449Y00571*
X0245Y00571*
X02452Y00571*
X02453Y0057*
X02454Y0057*
X02455Y0057*
X02456Y0057*
X02026Y00805D02*
D01*
X02027Y00805*
X02029Y00805*
X02031Y00805*
X02032Y00805*
X02034Y00806*
X02035Y00807*
X02037Y00807*
X02038Y00808*
X0204Y00809*
X02041Y0081*
X02042Y00811*
X02043Y00811*
Y00798D02*
D01*
X02041Y00799*
X0204Y008*
X02039Y00801*
X02037Y00802*
X02036Y00802*
X02034Y00803*
X02033Y00803*
X02031Y00804*
X02029Y00804*
X02028Y00804*
X02026Y00804*
X02026Y00805*
X02015Y00721D02*
D01*
X02014Y00722*
X02014Y00724*
X02014Y00726*
X02014Y00727*
X02013Y00729*
X02012Y0073*
X02012Y00732*
X02011Y00733*
X0201Y00735*
X02009Y00736*
X02008Y00737*
X02008Y00738*
X02021D02*
D01*
X0202Y00736*
X02019Y00735*
X02018Y00734*
X02017Y00732*
X02017Y00731*
X02016Y00729*
X02016Y00728*
X02015Y00726*
X02015Y00724*
X02015Y00723*
X02015Y00721*
X02015Y00721*
X0161Y00746D02*
D01*
X01609Y00747*
X01609Y00749*
X01609Y00751*
X01609Y00752*
X01608Y00754*
X01607Y00755*
X01607Y00757*
X01606Y00758*
X01605Y0076*
X01604Y00761*
X01603Y00762*
X01603Y00763*
X01616D02*
D01*
X01615Y00761*
X01614Y0076*
X01613Y00759*
X01612Y00757*
X01612Y00756*
X01611Y00754*
X01611Y00753*
X0161Y00751*
X0161Y00749*
X0161Y00748*
X0161Y00746*
X0161Y00746*
X01635Y00774D02*
D01*
X01635Y00776*
X01635Y00778*
X01635Y0078*
X01634Y00781*
X01634Y00783*
X01633Y00785*
X01632Y00786*
X01631Y00788*
X0163Y00789*
X01629Y00791*
X01628Y00792*
X01628Y00793*
X01641D02*
D01*
X0164Y00791*
X01639Y0079*
X01639Y00789*
X01638Y00788*
X01637Y00786*
X01637Y00785*
X01636Y00784*
X01636Y00782*
X01635Y00781*
X01635Y00779*
X01635Y00778*
X01635Y00777*
X01855Y00751D02*
D01*
X01854Y00752*
X01854Y00754*
X01854Y00756*
X01854Y00757*
X01853Y00759*
X01852Y0076*
X01852Y00762*
X01851Y00763*
X0185Y00765*
X01849Y00766*
X01848Y00767*
X01848Y00768*
X01861D02*
D01*
X0186Y00766*
X01859Y00765*
X01858Y00764*
X01857Y00762*
X01857Y00761*
X01856Y00759*
X01856Y00758*
X01855Y00756*
X01855Y00754*
X01855Y00753*
X01855Y00751*
X01855Y00751*
X01865Y008D02*
D01*
X01864Y00801*
X01863Y00802*
X01862Y00802*
X01862Y00803*
X01861Y00803*
X0186Y00804*
X01859Y00804*
X01858Y00804*
X01857Y00804*
X01856Y00805*
X01855Y00805*
X01855Y00805*
X01864Y00815D02*
D01*
X01864Y00812*
X01865Y0081*
X01865Y00808*
X01866Y00805*
X01866Y00803*
X01867Y00801*
X01868Y00799*
X01869Y00797*
X01871Y00795*
X01872Y00793*
X01874Y00792*
X01874Y00791*
X01461Y0081D02*
D01*
X01462Y0081*
X01464Y0081*
X01466Y0081*
X01467Y0081*
X01469Y00811*
X0147Y00812*
X01472Y00812*
X01473Y00813*
X01475Y00814*
X01476Y00815*
X01477Y00816*
X01478Y00816*
Y00803D02*
D01*
X01476Y00804*
X01475Y00805*
X01474Y00806*
X01472Y00807*
X01471Y00807*
X01469Y00808*
X01468Y00808*
X01466Y00809*
X01464Y00809*
X01463Y00809*
X01461Y00809*
X01461Y0081*
X01458Y00867D02*
D01*
X0146Y00866*
X01461Y00865*
X01462Y00864*
X01464Y00863*
X01465Y00862*
X01467Y00862*
X01468Y00861*
X0147Y00861*
X01472Y0086*
X01473Y0086*
X01475Y0086*
X01475Y0086*
X01465Y0085D02*
D01*
X01465Y00852*
X01465Y00854*
X01465Y00855*
X01464Y00857*
X01464Y00858*
X01463Y0086*
X01463Y00861*
X01462Y00863*
X01461Y00864*
X0146Y00866*
X01459Y00867*
X01458Y00867*
X00863Y00871D02*
D01*
X00864Y0087*
X00865Y00869*
X00867Y00868*
X00868Y00867*
X00869Y00867*
X00871Y00866*
X00873Y00865*
X00874Y00865*
X00876Y00865*
X00877Y00864*
X00879Y00864*
X0088Y00864*
X0087Y00855D02*
D01*
X0087Y00856*
X00869Y00858*
X00869Y00859*
X00869Y00861*
X00868Y00863*
X00868Y00864*
X00867Y00866*
X00866Y00867*
X00865Y00868*
X00864Y0087*
X00863Y00871*
X00863Y00871*
X01358Y00855D02*
D01*
X01357Y00854*
X01355Y00854*
X01353Y00854*
X01352Y00854*
X0135Y00853*
X01349Y00852*
X01347Y00852*
X01346Y00851*
X01344Y0085*
X01343Y00849*
X01342Y00848*
X01341Y00848*
Y00861D02*
D01*
X01343Y0086*
X01344Y00859*
X01345Y00858*
X01347Y00857*
X01348Y00857*
X0135Y00856*
X01351Y00856*
X01353Y00855*
X01355Y00855*
X01356Y00855*
X01358Y00855*
X01358Y00855*
X02149Y00805D02*
X0232D01*
X00429Y00137D02*
X00482Y00085D01*
X0263Y0057D02*
X02766Y00706D01*
X02437Y0057D02*
X0263D01*
X01435Y0081D02*
X01485D01*
X0139Y00855D02*
X01435Y0081D01*
X01335Y00855D02*
X0139D01*
X0084Y00894D02*
X0088Y00855D01*
X0084Y00894D02*
Y00947D01*
X01007Y01022D02*
X01304D01*
X01475Y0085*
X01197Y0072D02*
X0129D01*
X01355Y00785*
X00959Y00604D02*
X01006D01*
X0107Y00668*
X01055Y00675D02*
Y00785D01*
X01Y0062D02*
X01055Y00675D01*
X0107Y00668D02*
Y007D01*
X00895Y0062D02*
X01D01*
X0107Y007D02*
X01155Y00785D01*
X01885Y00702D02*
Y00781D01*
X01855Y00811D02*
X01885Y00781D01*
X01855Y00811D02*
Y00815D01*
Y0071D02*
X01961Y00603D01*
X01855Y0071D02*
Y00775D01*
X01885Y00702D02*
X01977Y0061D01*
X0185Y0085D02*
Y01055D01*
X01825Y00825D02*
X0185Y0085D01*
X01825Y00716D02*
Y00825D01*
Y00716D02*
X01945Y00596D01*
X0181Y0071D02*
Y00855D01*
X01635Y008D02*
X01635Y00799D01*
Y00703D02*
Y00799D01*
X01545Y00635D02*
X0161Y007D01*
Y0077*
X01551Y00619D02*
X01635Y00703D01*
X00838Y01022D02*
X0084Y0102D01*
Y00947D02*
Y0102D01*
X01961Y00305D02*
X02029Y00237D01*
X01007Y01022D02*
X01009Y0102D01*
Y00947D02*
Y0102D01*
X01999Y0029D02*
X02077D01*
X02129Y00237*
X01977Y00312D02*
X01999Y0029D01*
X0181Y0071D02*
X0193Y0059D01*
X01977Y00312D02*
Y0061D01*
X01961Y00305D02*
Y00603D01*
X0193Y00315D02*
Y0059D01*
X0188Y00265D02*
X0193Y00315D01*
X02015Y00627D02*
Y00745D01*
X0196Y00805D02*
X0205D01*
X0148Y0038D02*
Y0043D01*
Y0038D02*
X01529Y0033D01*
Y00237D02*
Y0033D01*
X01729Y00237D02*
Y00629D01*
X01754Y00654*
X01705Y0146D02*
Y015D01*
X0168Y01435D02*
X01705Y0146D01*
X0168Y014D02*
Y01435D01*
X01715Y01155D02*
X01722Y01147D01*
X01715Y01155D02*
Y01245D01*
X00625Y00295D02*
X0073Y004D01*
X006Y00295D02*
X00625D01*
X0058Y00275D02*
X006Y00295D01*
X0058Y00188D02*
Y00275D01*
X0073Y004D02*
Y0046D01*
X00719Y00314D02*
X00744D01*
X0068Y00275D02*
X00719Y00314D01*
X0068Y0011D02*
Y00275D01*
X0083Y004D02*
Y00555D01*
X00744Y00314D02*
X0083Y004D01*
X0098Y00187D02*
X01029Y00137D01*
X00482Y00085D02*
X00655D01*
X0068Y0011*
X0188Y00188D02*
Y00265D01*
X01829Y00137D02*
X0188Y00188D01*
X02695Y00077D02*
X02815Y00196D01*
X01892Y00077D02*
X02695D01*
X0188Y0009D02*
X01892Y00077D01*
X0188Y0009D02*
Y00165D01*
X01895Y00181*
Y00204*
X01929Y00237*
Y00137D02*
X01975Y00183D01*
X02895Y01014D02*
Y01065D01*
X0291Y00937D02*
Y00977D01*
X02813Y0147D02*
X02815Y01468D01*
X02105Y013D02*
Y01345D01*
X02055Y0125D02*
X02105Y013D01*
X01629Y00237D02*
Y00561D01*
X0138Y0053D02*
X0143Y0048D01*
Y0039D02*
Y0048D01*
X0178Y00188D02*
Y0043D01*
X01729Y00137D02*
X0178Y00188D01*
X01529Y00137D02*
X0158Y00188D01*
Y0032*
X01715Y01245D02*
X01717Y01246D01*
Y01317*
X01865Y01345D02*
X01867Y01346D01*
Y01417*
X02105Y01345D02*
X02107Y01346D01*
Y01417*
X0023Y00375D02*
X00625D01*
X00045Y0056D02*
X0023Y00375D01*
X00045Y0056D02*
Y0077D01*
X00465Y00475D02*
X00535D01*
X0039Y0055D02*
X00465Y00475D01*
X0039Y0055D02*
Y00745D01*
X0058Y0053D02*
X00682Y00632D01*
Y00732D02*
X00735Y00785D01*
X00682Y00632D02*
Y00732D01*
X00934Y0102D02*
X00936Y01022D01*
X00934Y00947D02*
Y0102D01*
X00765D02*
X00767Y01022D01*
X00765Y00947D02*
Y0102D01*
X00665Y01022D02*
X00667Y0102D01*
Y00947D02*
Y0102D01*
X00592D02*
X00594Y01022D01*
X00592Y00947D02*
Y0102D01*
X00496Y01022D02*
X00498Y0102D01*
Y00947D02*
Y0102D01*
X00423D02*
X00425Y01022D01*
X00423Y00947D02*
Y0102D01*
X00311Y01022D02*
X00313Y0102D01*
Y00947D02*
Y0102D01*
X00238D02*
X0024Y01022D01*
X00238Y00947D02*
Y0102D01*
X00135Y01022D02*
X00137Y0102D01*
Y00947D02*
Y0102D01*
X00063D02*
X00065Y01022D01*
X00063Y00947D02*
Y0102D01*
X00137Y00837D02*
X00225Y0075D01*
Y00425D02*
Y0075D01*
X0006Y00785D02*
X001D01*
X00045Y0077D02*
X0006Y00785D01*
X00529Y00137D02*
X0058Y00188D01*
X00715Y00475D02*
X0073Y0046D01*
X00557Y00475D02*
X00715D01*
X0053Y00502D02*
X00557Y00475D01*
X0053Y00502D02*
Y0054D01*
X00562Y00572*
X006*
X00667Y00639*
Y00947*
X00313Y00876D02*
X0036Y0083D01*
Y0052D02*
Y0083D01*
X0033Y00495D02*
X00395Y0043D01*
X0033Y00495D02*
Y00765D01*
X00309Y00785D02*
X0033Y00765D01*
X0039Y00745D02*
X0043Y00785D01*
X00498Y00861D02*
X00529Y0083D01*
Y00625D02*
Y0083D01*
X0057Y0062D02*
Y00785D01*
X0048Y0053D02*
X0057Y0062D01*
X00498Y00861D02*
Y00947D01*
X00137Y00837D02*
Y00947D01*
X00313Y00876D02*
Y00947D01*
X00895Y00715D02*
Y00765D01*
X0078Y006D02*
X00895Y00715D01*
X0075Y006D02*
X0078D01*
X00803Y00666D02*
Y00714D01*
X0068Y0053D02*
X0075Y006D01*
X00629Y00665D02*
Y00714D01*
X00461Y00666D02*
Y00714D01*
X00276Y00666D02*
Y00714D01*
X001Y00665D02*
Y00714D01*
X00972Y00785D02*
Y00864D01*
X00803Y00785D02*
Y00864D01*
X00629Y00785D02*
Y00864D01*
X00461Y00785D02*
Y00864D01*
X00276Y00785D02*
Y00864D01*
X001Y00785D02*
Y00864D01*
X00915Y00785D02*
X00972D01*
X00895Y00765D02*
X00915Y00785D01*
X00735D02*
X00803D01*
X0057D02*
X00629D01*
X00625Y00375D02*
X0068Y0043D01*
X00535Y00475D02*
X0058Y0043D01*
X00395D02*
X0048D01*
X0043Y00785D02*
X00461D01*
X00276D02*
X00309D01*
X02734Y0093D02*
Y00965D01*
X0271Y0099D02*
X02734Y00965D01*
X0266Y0099D02*
X0271D01*
X02425Y00819D02*
X02459D01*
X0247Y0083*
X02521*
X02425Y0089D02*
X02449D01*
X0246Y0088*
X02521*
X004Y00325D02*
X00575D01*
X0038Y00305D02*
X004Y00325D01*
X0038Y00188D02*
Y00305D01*
X00329Y00137D02*
X0038Y00188D01*
X01429Y00137D02*
X0148Y00188D01*
Y0034*
X0143Y0039D02*
X0148Y0034D01*
X00829Y0008D02*
X01629D01*
Y00137*
X02562Y00612D02*
Y00697D01*
X02521Y00738D02*
X02562Y00697D01*
X02521Y00738D02*
Y0078D01*
Y0093D02*
X0257D01*
X02595Y0066D02*
Y00905D01*
X0257Y0093D02*
X02595Y00905D01*
X02355Y0089D02*
X02425D01*
X02355Y0089D02*
X02355Y0089D01*
X02245Y00875D02*
Y00955D01*
X02355Y0084D02*
Y0089D01*
X0232Y00805D02*
X02355Y0084D01*
X0188Y00875D02*
Y00955D01*
Y00875D02*
X019Y00855D01*
X0196*
X01779Y01005D02*
X0178Y01005D01*
X0153Y0037D02*
X0158Y0032D01*
X0153Y0037D02*
Y00565D01*
X01629Y00561D02*
X01738Y0067D01*
X01722Y00676D02*
Y01147D01*
X0153Y00565D02*
X0155Y00585D01*
X01631*
X01722Y00676*
X01945Y00294D02*
Y00596D01*
Y00294D02*
X01975Y00265D01*
Y00183D02*
Y00265D01*
X01932Y0125D02*
X02055D01*
X01754Y00654D02*
Y01072D01*
X01932Y0125*
X01738Y0067D02*
Y01078D01*
X01865Y01205*
Y01345*
X00065Y01022D02*
Y01074D01*
X00065Y01075D02*
X00065Y01074D01*
X0024Y01022D02*
Y0107D01*
X00245Y01075*
X00425Y01022D02*
Y01074D01*
X00425Y01075D02*
X00425Y01074D01*
X00594Y01022D02*
Y01074D01*
X00595Y01075*
X00767Y01022D02*
Y01072D01*
X00765Y01075D02*
X00767Y01072D01*
X00936Y01022D02*
Y01073D01*
X00935Y01075D02*
X00936Y01073D01*
X0083Y00555D02*
X00895Y0062D01*
X0093Y00365D02*
X0098Y00315D01*
X0093Y00365D02*
Y00575D01*
X00959Y00604*
X0098Y00187D02*
Y00315D01*
X0103Y00552D02*
X01197Y0072D01*
X0103Y00325D02*
Y00552D01*
X02734Y0083D02*
X02759D01*
X02863Y00822D02*
X0291D01*
X02734Y0088D02*
X02763D01*
X0282Y00903D02*
Y0095D01*
X02795Y01011D02*
Y01065D01*
X02699Y00429D02*
X0275D01*
X02656Y00386D02*
X02699Y00429D01*
X02712Y00465D02*
X0275D01*
X02649Y00402D02*
X02712Y00465D01*
X02256Y00386D02*
X02656D01*
X02262Y00402D02*
X02649D01*
X0205Y00615D02*
X02262Y00402D01*
X02015Y00627D02*
X02256Y00386D01*
X0133Y0048D02*
X0138Y0043D01*
X0133Y00605D02*
X01344Y00619D01*
X0133Y0048D02*
Y00605D01*
X01344Y00619D02*
X01551D01*
X0123Y0048D02*
X0128Y0043D01*
X0123Y006D02*
X01265Y00635D01*
X0123Y0048D02*
Y006D01*
X01265Y00635D02*
X01545D01*
X0205Y00615D02*
Y00719D01*
X00629Y00237D02*
X00664Y00272D01*
Y00289*
X00745Y0037*
G54D13*
X02517Y0147D02*
D01*
X0252Y0147*
X02523Y0147*
X02526Y0147*
X02529Y01471*
X02531Y01472*
X02534Y01473*
X02537Y01475*
X02539Y01476*
X02542Y01478*
X02544Y0148*
X02546Y01482*
X02547Y01482*
Y01457D02*
D01*
X02545Y01459*
X02542Y01461*
X0254Y01463*
X02537Y01464*
X02535Y01465*
X02532Y01467*
X02529Y01468*
X02526Y01468*
X02523Y01469*
X0252Y01469*
X02517Y01469*
X02517Y0147*
X02602D02*
D01*
X02599Y01469*
X02596Y01469*
X02593Y01469*
X0259Y01468*
X02588Y01467*
X02585Y01466*
X02582Y01464*
X0258Y01463*
X02577Y01461*
X02575Y01459*
X02573Y01457*
X02572Y01457*
Y01482D02*
D01*
X02574Y0148*
X02577Y01478*
X02579Y01476*
X02582Y01475*
X02584Y01474*
X02587Y01472*
X0259Y01471*
X02593Y01471*
X02596Y0147*
X02599Y0147*
X02602Y0147*
X02602Y0147*
X02764D02*
D01*
X02767Y0147*
X02771Y0147*
X02774Y01471*
X02777Y01471*
X02781Y01472*
X02784Y01474*
X02787Y01475*
X0279Y01477*
X02793Y01479*
X02795Y01481*
X02798Y01483*
X02798Y01484*
Y01452D02*
D01*
X02795Y01455*
X02792Y01457*
X02789Y0146*
X02785Y01462*
X02781Y01464*
X02778Y01466*
X02774Y01467*
X0277Y01468*
X02765Y01469*
X02761Y01469*
X02757Y01469*
X02756Y0147*
X0178Y00584D02*
D01*
X0178Y0058*
X0178Y00577*
X01781Y00573*
X01782Y00569*
X01783Y00565*
X01784Y00562*
X01786Y00558*
X01788Y00555*
X0179Y00552*
X01792Y00549*
X01795Y00546*
X01796Y00546*
X01763D02*
D01*
X01766Y00548*
X01768Y00551*
X01771Y00554*
X01773Y00558*
X01774Y00561*
X01776Y00565*
X01777Y00568*
X01778Y00572*
X01779Y00576*
X01779Y00579*
X01779Y00583*
X0178Y00584*
X0139Y00276D02*
D01*
X01393Y00273*
X01396Y00271*
X01399Y00269*
X01403Y00267*
X01406Y00265*
X01409Y00264*
X01413Y00262*
X01417Y00261*
X0142Y00261*
X01424Y0026*
X01428Y0026*
X01429Y0026*
X01406Y00237D02*
D01*
X01406Y00241*
X01406Y00245*
X01405Y00249*
X01404Y00252*
X01403Y00256*
X01402Y0026*
X014Y00263*
X01398Y00266*
X01396Y00269*
X01394Y00272*
X01391Y00275*
X0139Y00276*
X004Y01545D02*
D01*
X00399Y0155*
X00399Y01554*
X00398Y01559*
X00397Y01563*
X00396Y01567*
X00394Y01571*
X00392Y01575*
X0039Y01579*
X00387Y01583*
X00384Y01587*
X00381Y0159*
X00381Y01591*
X00418D02*
D01*
X00415Y01587*
X00412Y01584*
X0041Y0158*
X00408Y01576*
X00406Y01572*
X00404Y01568*
X00402Y01564*
X00401Y0156*
X004Y01555*
X004Y01551*
X004Y01546*
X004Y01545*
X00835D02*
D01*
X00834Y0155*
X00834Y01554*
X00833Y01559*
X00832Y01563*
X00831Y01567*
X00829Y01571*
X00827Y01575*
X00825Y01579*
X00822Y01583*
X00819Y01587*
X00816Y0159*
X00816Y01591*
X00853D02*
D01*
X0085Y01587*
X00847Y01584*
X00845Y0158*
X00843Y01576*
X00841Y01572*
X00839Y01568*
X00837Y01564*
X00836Y0156*
X00835Y01555*
X00835Y01551*
X00835Y01546*
X00835Y01545*
X01265D02*
D01*
X01264Y0155*
X01264Y01554*
X01263Y01559*
X01262Y01563*
X01261Y01567*
X01259Y01571*
X01257Y01575*
X01255Y01579*
X01252Y01583*
X01249Y01587*
X01246Y0159*
X01246Y01591*
X01283D02*
D01*
X0128Y01587*
X01277Y01584*
X01275Y0158*
X01273Y01576*
X01271Y01572*
X01269Y01568*
X01267Y01564*
X01266Y0156*
X01265Y01555*
X01265Y01551*
X01265Y01546*
X01265Y01545*
X0213Y015D02*
D01*
X02134Y015*
X02137Y015*
X02141Y01501*
X02145Y01502*
X02149Y01503*
X02152Y01504*
X02156Y01506*
X02159Y01508*
X02162Y0151*
X02165Y01512*
X02168Y01515*
X02168Y01516*
Y01483D02*
D01*
X02166Y01486*
X02163Y01488*
X0216Y01491*
X02156Y01493*
X02153Y01494*
X02149Y01496*
X02146Y01497*
X02142Y01498*
X02138Y01499*
X02135Y01499*
X02131Y01499*
X0213Y015*
X0189Y01501D02*
D01*
X01894Y01501*
X01897Y01502*
X01901Y01502*
X01905Y01503*
X01909Y01504*
X01912Y01506*
X01916Y01507*
X01919Y01509*
X01922Y01512*
X01925Y01514*
X01928Y01516*
X01928Y01517*
Y01485D02*
D01*
X01926Y01488*
X01923Y0149*
X0192Y01492*
X01916Y01494*
X01913Y01496*
X01909Y01497*
X01906Y01499*
X01902Y015*
X01898Y015*
X01895Y01501*
X01891Y01501*
X0189Y01501*
X01536Y01383D02*
D01*
X01533Y01382*
X0153Y01382*
X01526Y01381*
X01523Y01381*
X0152Y0138*
X01517Y01378*
X01514Y01377*
X01511Y01375*
X01508Y01373*
X01505Y01371*
X01503Y01369*
X015Y01366*
X01498Y01364*
X01496Y01361*
X01495Y0136*
Y01405D02*
D01*
X01497Y01402*
X01499Y014*
X01502Y01397*
X01504Y01395*
X01507Y01393*
X01509Y01391*
X01512Y01389*
X01515Y01387*
X01518Y01386*
X01522Y01385*
X01525Y01384*
X01528Y01383*
X01532Y01383*
X01535Y01383*
X01536Y01383*
X01265Y01353D02*
D01*
X01265Y01351*
X01265Y01349*
X01265Y01348*
X01266Y01346*
X01266Y01344*
X01267Y01342*
X01268Y0134*
X01269Y01338*
X0127Y01337*
X01271Y01335*
X01273Y01334*
X01273Y01333*
X01256D02*
D01*
X01258Y01335*
X01259Y01336*
X0126Y01338*
X01261Y0134*
X01262Y01341*
X01263Y01343*
X01263Y01345*
X01264Y01347*
X01264Y01349*
X01264Y01351*
X01264Y01353*
X01265Y01353*
X01335Y01226D02*
D01*
X01334Y01228*
X01334Y0123*
X01334Y01231*
X01333Y01233*
X01333Y01235*
X01332Y01237*
X01331Y01239*
X0133Y01241*
X01329Y01242*
X01328Y01244*
X01326Y01245*
X01326Y01246*
X01343D02*
D01*
X01341Y01244*
X0134Y01243*
X01339Y01241*
X01338Y01239*
X01337Y01238*
X01336Y01236*
X01336Y01234*
X01335Y01232*
X01335Y0123*
X01335Y01228*
X01335Y01226*
X01335Y01226*
Y01353D02*
D01*
X01335Y01351*
X01335Y01349*
X01335Y01348*
X01336Y01346*
X01336Y01344*
X01337Y01342*
X01338Y0134*
X01339Y01338*
X0134Y01337*
X01341Y01335*
X01343Y01334*
X01343Y01333*
X01326D02*
D01*
X01328Y01335*
X01329Y01336*
X0133Y01338*
X01331Y0134*
X01332Y01341*
X01333Y01343*
X01333Y01345*
X01334Y01347*
X01334Y01349*
X01334Y01351*
X01334Y01353*
X01335Y01353*
X00835D02*
D01*
X00835Y01351*
X00835Y01349*
X00835Y01348*
X00836Y01346*
X00836Y01344*
X00837Y01342*
X00838Y0134*
X00839Y01338*
X0084Y01337*
X00841Y01335*
X00843Y01334*
X00843Y01333*
X00826D02*
D01*
X00828Y01335*
X00829Y01336*
X0083Y01338*
X00831Y0134*
X00832Y01341*
X00833Y01343*
X00833Y01345*
X00834Y01347*
X00834Y01349*
X00834Y01351*
X00834Y01353*
X00835Y01353*
X00905Y01226D02*
D01*
X00904Y01228*
X00904Y0123*
X00904Y01231*
X00903Y01233*
X00903Y01235*
X00902Y01237*
X00901Y01239*
X009Y01241*
X00899Y01242*
X00898Y01244*
X00896Y01245*
X00896Y01246*
X00913D02*
D01*
X00911Y01244*
X0091Y01243*
X00909Y01241*
X00908Y01239*
X00907Y01238*
X00906Y01236*
X00906Y01234*
X00905Y01232*
X00905Y0123*
X00905Y01228*
X00905Y01226*
X00905Y01226*
Y01353D02*
D01*
X00905Y01351*
X00905Y01349*
X00905Y01348*
X00906Y01346*
X00906Y01344*
X00907Y01342*
X00908Y0134*
X00909Y01338*
X0091Y01337*
X00911Y01335*
X00913Y01334*
X00913Y01333*
X00896D02*
D01*
X00898Y01335*
X00899Y01336*
X009Y01338*
X00901Y0134*
X00902Y01341*
X00903Y01343*
X00903Y01345*
X00904Y01347*
X00904Y01349*
X00904Y01351*
X00904Y01353*
X00905Y01353*
X004D02*
D01*
X004Y01351*
X004Y01349*
X004Y01348*
X00401Y01346*
X00401Y01344*
X00402Y01342*
X00403Y0134*
X00404Y01338*
X00405Y01337*
X00406Y01335*
X00408Y01334*
X00408Y01333*
X00391D02*
D01*
X00393Y01335*
X00394Y01336*
X00395Y01338*
X00396Y0134*
X00397Y01341*
X00398Y01343*
X00398Y01345*
X00399Y01347*
X00399Y01349*
X00399Y01351*
X00399Y01353*
X004Y01353*
X0047D02*
D01*
X0047Y01351*
X0047Y01349*
X0047Y01348*
X00471Y01346*
X00471Y01344*
X00472Y01342*
X00473Y0134*
X00474Y01338*
X00475Y01337*
X00476Y01335*
X00478Y01334*
X00478Y01333*
X00461D02*
D01*
X00463Y01335*
X00464Y01336*
X00465Y01338*
X00466Y0134*
X00467Y01341*
X00468Y01343*
X00468Y01345*
X00469Y01347*
X00469Y01349*
X00469Y01351*
X00469Y01353*
X0047Y01353*
X00927Y01207D02*
D01*
X00932Y01207*
X00937Y01208*
X00942Y01209*
X00947Y0121*
X00952Y01211*
X00956Y01213*
X00961Y01215*
X00965Y01218*
X00969Y01221*
X00973Y01224*
X00977Y01227*
X00978Y01228*
Y01186D02*
D01*
X00974Y0119*
X0097Y01193*
X00966Y01196*
X00962Y01198*
X00957Y012*
X00953Y01202*
X00948Y01204*
X00943Y01205*
X00938Y01206*
X00933Y01207*
X00928Y01207*
X00927Y01207*
X01195Y01353D02*
D01*
X01195Y01351*
X01195Y01349*
X01195Y01348*
X01196Y01346*
X01196Y01344*
X01197Y01342*
X01198Y0134*
X01199Y01338*
X012Y01337*
X01201Y01335*
X01203Y01334*
X01203Y01333*
X01186D02*
D01*
X01188Y01335*
X01189Y01336*
X0119Y01338*
X01191Y0134*
X01192Y01341*
X01193Y01343*
X01193Y01345*
X01194Y01347*
X01194Y01349*
X01194Y01351*
X01194Y01353*
X01195Y01353*
X00765D02*
D01*
X00765Y01351*
X00765Y01349*
X00765Y01348*
X00766Y01346*
X00766Y01344*
X00767Y01342*
X00768Y0134*
X00769Y01338*
X0077Y01337*
X00771Y01335*
X00773Y01334*
X00773Y01333*
X00756D02*
D01*
X00758Y01335*
X00759Y01336*
X0076Y01338*
X00761Y0134*
X00762Y01341*
X00763Y01343*
X00763Y01345*
X00764Y01347*
X00764Y01349*
X00764Y01351*
X00764Y01353*
X00765Y01353*
X0033D02*
D01*
X0033Y01351*
X0033Y01349*
X0033Y01348*
X00331Y01346*
X00331Y01344*
X00332Y01342*
X00333Y0134*
X00334Y01338*
X00335Y01337*
X00336Y01335*
X00338Y01334*
X00338Y01333*
X00321D02*
D01*
X00323Y01335*
X00324Y01336*
X00325Y01338*
X00326Y0134*
X00327Y01341*
X00328Y01343*
X00328Y01345*
X00329Y01347*
X00329Y01349*
X00329Y01351*
X00329Y01353*
X0033Y01353*
X01842Y01501D02*
D01*
X01841Y01501*
X0184Y01501*
X01839Y01501*
X01838Y01501*
X01837Y015*
X01836Y015*
X01835Y015*
X01835Y01499*
X01834Y01499*
X01833Y01498*
X01832Y01497*
X01832Y01497*
X02032Y01378D02*
D01*
X02032Y01375*
X02032Y01373*
X02033Y0137*
X02033Y01368*
X02034Y01366*
X02035Y01363*
X02036Y01361*
X02037Y01359*
X02039Y01357*
X0204Y01355*
X02042Y01353*
X02042Y01353*
X02026D02*
D01*
X02027Y01354*
X02028Y01355*
X02029Y01356*
X02029Y01358*
X0203Y01359*
X02031Y0136*
X02031Y01362*
X02032Y01363*
X02032Y01365*
X02032Y01366*
X02032Y01368*
X02032Y01368*
X01642Y01278D02*
D01*
X01642Y01275*
X01642Y01273*
X01643Y0127*
X01643Y01268*
X01644Y01266*
X01645Y01263*
X01646Y01261*
X01647Y01259*
X01649Y01257*
X0165Y01255*
X01652Y01253*
X01652Y01253*
X01636D02*
D01*
X01637Y01254*
X01638Y01255*
X01639Y01256*
X01639Y01258*
X0164Y01259*
X01641Y0126*
X01641Y01262*
X01642Y01263*
X01642Y01265*
X01642Y01266*
X01642Y01268*
X01642Y01268*
X01792Y01378D02*
D01*
X01792Y01375*
X01792Y01373*
X01793Y0137*
X01793Y01368*
X01794Y01366*
X01795Y01363*
X01796Y01361*
X01797Y01359*
X01799Y01357*
X018Y01355*
X01802Y01353*
X01802Y01353*
X01786D02*
D01*
X01787Y01354*
X01788Y01355*
X01789Y01356*
X01789Y01358*
X0179Y01359*
X01791Y0136*
X01791Y01362*
X01792Y01363*
X01792Y01365*
X01792Y01366*
X01792Y01368*
X01792Y01368*
X0157Y01004D02*
D01*
X0157Y01003*
X0157Y01002*
X0157Y01001*
X0157Y01*
X0157Y00999*
X01571Y00998*
X01571Y00997*
X01572Y00996*
X01572Y00995*
X01573Y00995*
X01574Y00994*
X01574Y00994*
X01565D02*
D01*
X01566Y00994*
X01567Y00995*
X01567Y00996*
X01568Y00997*
X01568Y00998*
X01569Y00999*
X01569Y01*
X01569Y01001*
X01569Y01002*
X01569Y01003*
X01569Y01004*
X0157Y01004*
X0158Y00979D02*
D01*
X01579Y0098*
X01578Y00981*
X01577Y00981*
X01576Y00982*
X01576Y00982*
X01575Y00983*
X01574Y00983*
X01573Y00983*
X01572Y00983*
X01571Y00984*
X0157Y00984*
X0157Y00984*
X01575Y0099D02*
D01*
X01575Y00989*
X01576Y00988*
X01576Y00987*
X01576Y00986*
X01576Y00985*
X01577Y00984*
X01577Y00983*
X01578Y00982*
X01578Y00981*
X01579Y0098*
X01579Y0098*
X0158Y00979*
X01575Y00744D02*
D01*
X01575Y00743*
X01575Y00742*
X01575Y00741*
X01575Y0074*
X01575Y00739*
X01576Y00738*
X01576Y00737*
X01577Y00736*
X01577Y00735*
X01578Y00735*
X01579Y00734*
X01579Y00734*
X0157D02*
D01*
X01571Y00734*
X01572Y00735*
X01572Y00736*
X01573Y00737*
X01573Y00738*
X01574Y00739*
X01574Y0074*
X01574Y00741*
X01574Y00742*
X01574Y00743*
X01574Y00744*
X01575Y00744*
X01559Y01149D02*
D01*
X0156Y01148*
X01561Y01147*
X01562Y01147*
X01563Y01146*
X01563Y01146*
X01564Y01145*
X01565Y01145*
X01566Y01145*
X01567Y01145*
X01568Y01144*
X01569Y01144*
X0157Y01144*
X01564Y01139D02*
D01*
X01564Y0114*
X01563Y01141*
X01563Y01141*
X01563Y01142*
X01563Y01143*
X01562Y01144*
X01562Y01145*
X01561Y01146*
X01561Y01147*
X0156Y01148*
X0156Y01148*
X01559Y01149*
X0157Y01124D02*
D01*
X01569Y01125*
X01569Y01126*
X01569Y01127*
X01569Y01128*
X01569Y01129*
X01568Y0113*
X01568Y01131*
X01567Y01132*
X01567Y01133*
X01566Y01133*
X01565Y01134*
X01565Y01134*
X01574D02*
D01*
X01573Y01134*
X01572Y01133*
X01572Y01132*
X01571Y01131*
X01571Y0113*
X0157Y01129*
X0157Y01128*
X0157Y01127*
X0157Y01126*
X0157Y01126*
X0157Y01125*
X0157Y01124*
X0178Y0099D02*
D01*
X01779Y00991*
X01779Y00992*
X01779Y00993*
X01779Y00994*
X01779Y00995*
X01778Y00996*
X01778Y00997*
X01777Y00998*
X01777Y00999*
X01776Y00999*
X01775Y01*
X01775Y01*
X01784D02*
D01*
X01783Y01*
X01782Y00999*
X01782Y00998*
X01781Y00997*
X01781Y00996*
X0178Y00995*
X0178Y00994*
X0178Y00993*
X0178Y00992*
X0178Y00991*
X0178Y0099*
X0178Y0099*
Y01019D02*
D01*
X0178Y01018*
X0178Y01017*
X0178Y01016*
X0178Y01015*
X0178Y01014*
X01781Y01013*
X01781Y01012*
X01782Y01011*
X01782Y0101*
X01783Y0101*
X01784Y01009*
X01784Y01009*
X01775D02*
D01*
X01776Y01009*
X01777Y0101*
X01777Y01011*
X01778Y01012*
X01778Y01013*
X01779Y01014*
X01779Y01015*
X01779Y01016*
X01779Y01017*
X01779Y01018*
X01779Y01019*
X0178Y01019*
X0155Y0075D02*
Y0091D01*
X01385Y01075D02*
X0155Y0091D01*
X01465Y00665D02*
X0155Y0075D01*
X0157Y0099D02*
X01615Y00945D01*
Y00821D02*
Y00945D01*
X01575Y00781D02*
X01615Y00821D01*
X01575Y0073D02*
Y00781D01*
X01195Y01325D02*
Y01375D01*
X01265*
Y01325D02*
Y01375D01*
Y0161*
Y01375D02*
X01335D01*
Y01325D02*
Y01375D01*
Y01207D02*
Y01254D01*
X00765Y01325D02*
Y01375D01*
X00835*
Y01325D02*
Y01375D01*
Y0161*
Y01375D02*
X00905D01*
Y01325D02*
Y01375D01*
Y01207D02*
Y01254D01*
Y01207D02*
X01006D01*
X01642Y01672D02*
X01737Y01767D01*
X01642Y01317D02*
Y01672D01*
X0047Y01325D02*
Y01375D01*
X004D02*
X0047D01*
X004D02*
Y0161D01*
Y01325D02*
Y01375D01*
X0033D02*
X004D01*
X0033Y01325D02*
Y01375D01*
X004Y0161D02*
D01*
X02813Y01273D02*
X02815Y01271D01*
X02335Y0147D02*
X0256D01*
X02813*
X02032Y01346D02*
X02034Y01345D01*
X02032Y01346D02*
Y01417D01*
X0207Y015D02*
X0207Y015D01*
X02185*
X0183Y01501D02*
X01945D01*
X0183Y015D02*
Y01501D01*
X01705Y015D02*
Y01501D01*
X01792Y01346D02*
X01794Y01345D01*
X01792Y01346D02*
Y01417D01*
X01642Y01246D02*
X01644Y01245D01*
X01642Y01246D02*
Y01317D01*
X0178Y0053D02*
Y01005D01*
X02095Y0123D02*
X02335Y0147D01*
X0178Y01005D02*
Y0107D01*
X0194Y0123*
X02095*
X0157Y0099D02*
Y01139D01*
X01317Y0035D02*
X01429Y00237D01*
X0116Y0035D02*
X01317D01*
X01205Y00665D02*
X01465D01*
X00065Y01075D02*
X00245D01*
X00425*
X00595*
X00765*
X00935*
X01385*
X01126Y00383D02*
X0116Y0035D01*
X01126Y00383D02*
Y00586D01*
X01205Y00665*
X02032Y01417D02*
Y01696D01*
X02035Y01698*
X01792Y01417D02*
Y01685D01*
X01806Y01698*
X0155Y01159D02*
X0157Y01139D01*
X0155Y01159D02*
Y0137D01*
X01536Y01383D02*
X0155Y0137D01*
X0146Y01383D02*
X01536D01*
G54D14*
X00646Y01403D02*
D01*
X00645Y01402*
X00644Y01402*
X00642Y01402*
X00641Y01402*
X0064Y01401*
X00638Y01401*
X00637Y014*
X00636Y01399*
X00635Y01399*
X00634Y01398*
X00633Y01397*
X00632Y01396*
X00631Y01395*
X0063Y01394*
X00629Y01393*
X00628Y01391*
X00628Y0139*
X00628Y01389*
Y01416D02*
D01*
X00628Y01415*
X00629Y01413*
X00629Y01412*
X0063Y01411*
X00631Y0141*
X00632Y01409*
X00633Y01408*
X00634Y01407*
X00635Y01406*
X00636Y01405*
X00637Y01405*
X00639Y01404*
X0064Y01404*
X00641Y01403*
X00643Y01403*
X00644Y01403*
X00646Y01403*
X00646Y01403*
X01265Y0123D02*
D01*
X01264Y01232*
X01264Y01234*
X01264Y01235*
X01264Y01237*
X01263Y01238*
X01262Y0124*
X01262Y01241*
X01261Y01243*
X0126Y01244*
X01259Y01246*
X01258Y01247*
X01258Y01247*
X01271D02*
D01*
X0127Y01246*
X01269Y01245*
X01268Y01243*
X01267Y01242*
X01267Y0124*
X01266Y01239*
X01266Y01237*
X01265Y01236*
X01265Y01234*
X01265Y01232*
X01265Y01231*
X01265Y0123*
X00835D02*
D01*
X00834Y01232*
X00834Y01234*
X00834Y01235*
X00834Y01237*
X00833Y01238*
X00832Y0124*
X00832Y01241*
X00831Y01243*
X0083Y01244*
X00829Y01246*
X00828Y01247*
X00828Y01247*
X00841D02*
D01*
X0084Y01246*
X00839Y01245*
X00838Y01243*
X00837Y01242*
X00837Y0124*
X00836Y01239*
X00836Y01237*
X00835Y01236*
X00835Y01234*
X00835Y01232*
X00835Y01231*
X00835Y0123*
X004D02*
D01*
X00399Y01232*
X00399Y01234*
X00399Y01235*
X00399Y01237*
X00398Y01238*
X00397Y0124*
X00397Y01241*
X00396Y01243*
X00395Y01244*
X00394Y01246*
X00393Y01247*
X00393Y01247*
X00406D02*
D01*
X00405Y01246*
X00404Y01245*
X00403Y01243*
X00402Y01242*
X00402Y0124*
X00401Y01239*
X00401Y01237*
X004Y01236*
X004Y01234*
X004Y01232*
X004Y01231*
X004Y0123*
X0108Y01312D02*
D01*
X01075Y01312*
X01071Y01311*
X01066Y0131*
X01062Y01309*
X01057Y01308*
X01053Y01306*
X01049Y01304*
X01045Y01302*
X01041Y01299*
X01037Y01296*
X01034Y01293*
X01033Y01292*
Y01331D02*
D01*
X01036Y01328*
X0104Y01325*
X01044Y01323*
X01048Y0132*
X01052Y01318*
X01056Y01316*
X01061Y01315*
X01065Y01314*
X0107Y01313*
X01074Y01312*
X01079Y01312*
X0108Y01312*
X01195Y0123D02*
D01*
X01194Y01232*
X01194Y01234*
X01194Y01235*
X01194Y01237*
X01193Y01238*
X01192Y0124*
X01192Y01241*
X01191Y01243*
X0119Y01244*
X01189Y01246*
X01188Y01247*
X01188Y01247*
X01201D02*
D01*
X012Y01246*
X01199Y01245*
X01198Y01243*
X01197Y01242*
X01197Y0124*
X01196Y01239*
X01196Y01237*
X01195Y01236*
X01195Y01234*
X01195Y01232*
X01195Y01231*
X01195Y0123*
X00765Y0123D02*
D01*
X00764Y01232*
X00764Y01234*
X00764Y01235*
X00764Y01237*
X00763Y01238*
X00762Y0124*
X00762Y01241*
X00761Y01243*
X0076Y01244*
X00759Y01246*
X00758Y01247*
X00758Y01247*
X00771D02*
D01*
X0077Y01246*
X00769Y01245*
X00768Y01243*
X00767Y01242*
X00767Y0124*
X00766Y01239*
X00766Y01237*
X00765Y01236*
X00765Y01234*
X00765Y01232*
X00765Y01231*
X00765Y0123*
X0033D02*
D01*
X00329Y01232*
X00329Y01234*
X00329Y01235*
X00329Y01237*
X00328Y01238*
X00327Y0124*
X00327Y01241*
X00326Y01243*
X00325Y01244*
X00324Y01246*
X00323Y01247*
X00323Y01247*
X00336D02*
D01*
X00335Y01246*
X00334Y01245*
X00333Y01243*
X00332Y01242*
X00332Y0124*
X00331Y01239*
X00331Y01237*
X0033Y01236*
X0033Y01234*
X0033Y01232*
X0033Y01231*
X0033Y0123*
X00972Y0069D02*
D01*
X00972Y00692*
X00972Y00694*
X00971Y00695*
X00971Y00697*
X0097Y00698*
X0097Y007*
X00969Y00701*
X00968Y00703*
X00967Y00704*
X00966Y00706*
X00965Y00707*
X00965Y00707*
X00979D02*
D01*
X00978Y00706*
X00977Y00705*
X00976Y00703*
X00975Y00702*
X00974Y007*
X00973Y00699*
X00973Y00697*
X00972Y00696*
X00972Y00694*
X00972Y00692*
X00972Y00691*
X00972Y0069*
Y00667D02*
Y00714D01*
X01225Y012D02*
X01265D01*
X01195D02*
X01225D01*
Y01139D02*
Y012D01*
Y01135D02*
X01225Y01134D01*
X01195Y012D02*
Y01254D01*
X01265Y012D02*
Y01254D01*
X00765Y012D02*
Y01254D01*
X00835Y012D02*
Y01254D01*
X00795Y01139D02*
Y012D01*
X00765D02*
X00795D01*
X00835*
X01095Y01139D02*
Y01312D01*
X01006D02*
X01095D01*
X0036Y012D02*
X004D01*
X0033D02*
X0036D01*
Y01139D02*
Y012D01*
X004D02*
Y01254D01*
X0033Y012D02*
Y01254D01*
X0059Y01403D02*
X00646D01*
X0066Y0139*
Y01139D02*
Y0139D01*
G54D24*
X01794Y01345D03*
X01865D03*
X01644Y01245D03*
X01715D03*
X02034Y01345D03*
X02105D03*
X00936Y01022D03*
X01007D03*
X00767D03*
X00838D03*
X00594D03*
X00665D03*
X00065D03*
X00135D03*
X0024D03*
X00311D03*
X00425D03*
X00496D03*
G54D25*
X02245Y00804D03*
Y00875D03*
X02425Y0089D03*
Y00819D03*
X0266Y0099D03*
X02589D03*
X0033Y01325D03*
Y01254D03*
X00765Y01325D03*
Y01254D03*
X01195Y01325D03*
Y01254D03*
G54D28*
X02149Y01105D03*
Y01055D03*
Y01005D03*
Y00955D03*
Y00905D03*
Y00855D03*
Y00805D03*
X0196Y01105D03*
Y01055D03*
Y01005D03*
Y00955D03*
Y00905D03*
Y00855D03*
Y00805D03*
G54D29*
X02843Y01698D02*
X02845Y017D01*
X02234Y01698D02*
X02843D01*
X01695Y0181D02*
Y02D01*
X01545Y0215D02*
X01695Y02D01*
X00368Y0215D02*
X01545D01*
X02234Y01865D02*
D01*
X02031D02*
X02234D01*
X01806Y01698D02*
X02035D01*
X02234*
X01695Y0181D02*
X01737Y01767D01*
X01806Y01698*
G54D30*
X014Y0203D03*
X0097D03*
X01465Y01755D03*
X01035D03*
X006D03*
X00535Y0203D03*
G54D31*
X01263Y0203D03*
X00833D03*
X01398Y0161D03*
X01331Y01755D03*
X01265Y0161D03*
X01198Y01755D03*
X00968Y0161D03*
X00901Y01755D03*
X00835Y0161D03*
X00768Y01755D03*
X00533Y0161D03*
X00466Y01755D03*
X004Y0161D03*
X00333Y01755D03*
X00398Y0203D03*
G54D32*
X02795Y01065D03*
X01705Y01501D03*
X01945D03*
X02185Y015D03*
X0282Y00706D03*
Y00805D03*
Y00903D03*
X02815Y00295D03*
X02229Y00137D03*
X02129Y00237D03*
X02029D03*
X02129Y00137D03*
X02029D03*
X01929Y00237D03*
Y00137D03*
X01829Y00237D03*
Y00137D03*
X01729D03*
X01629Y00237D03*
Y00137D03*
X01529Y00237D03*
Y00137D03*
X01429D03*
Y00237D03*
X01329Y00137D03*
Y00237D03*
X01229Y00137D03*
X01129D03*
Y00237D03*
X01029Y00137D03*
Y00237D03*
X00929Y00137D03*
Y00237D03*
X00829Y00137D03*
Y00237D03*
X00729Y00137D03*
X00629Y00237D03*
Y00137D03*
X00529Y00237D03*
Y00137D03*
X00429Y00237D03*
Y00137D03*
X00329Y00237D03*
Y00137D03*
X0048Y0053D03*
Y0043D03*
X0058Y0053D03*
Y0043D03*
X0068Y0053D03*
Y0043D03*
X0078Y0053D03*
Y0043D03*
X0088D03*
Y0053D03*
X0128D03*
Y0043D03*
X0138D03*
Y0053D03*
X0178D03*
X0168D03*
X0148D03*
X0158D03*
Y0043D03*
X0148D03*
X0168D03*
X0178D03*
X0188D03*
X0118D03*
Y0053D03*
X0108Y0043D03*
Y0053D03*
X0098Y0043D03*
Y0053D03*
X02815Y0137D03*
Y01468D03*
X01255Y00785D03*
X01155D03*
X01055D03*
G54D33*
X02895Y01065D03*
X02229Y00237D03*
X01229D03*
X00729D03*
X0188Y0053D03*
X01355Y00785D03*
G54D34*
X01705Y016D03*
X01945D03*
X02185Y01598D03*
X0282Y00608D03*
X02815Y00196D03*
Y01271D03*
G54D35*
X02031Y01865D03*
X01834D03*
X02425D03*
X02621D03*
X02845Y017D03*
G54D36*
X02845Y019D03*
G54D37*
X02421Y02116D03*
Y00187D03*
X02834Y02116D03*
X00137D03*
Y00187D03*
G54D38*
X01729Y00237D03*
G54D39*
X0256Y0147D03*
Y01391D03*
G54D40*
X0256Y01312D03*
G54D41*
X0252Y00435D03*
X0143Y00585D03*
X0046Y0061D03*
X0009Y0035D03*
X01335Y00855D03*
X0088D03*
X01475Y0085D03*
X01485Y0081D03*
X00972Y00667D03*
X01855Y00815D03*
Y00775D03*
X01635Y008D03*
X0161Y0077D03*
X02015Y00745D03*
X0205Y00805D03*
X01225Y01139D03*
X00795D03*
X01095D03*
X0159Y01245D03*
X0066Y01139D03*
X0036D03*
X00529Y00625D03*
X00225Y00425D03*
X0036Y0052D03*
X00803Y00666D03*
X00629Y00665D03*
X00461Y00666D03*
X00276Y00666D03*
X001Y00665D03*
X0103Y00325D03*
X00575D03*
X02562Y00612D03*
X02595Y0066D03*
X02325Y00435D03*
X02355Y0089D03*
X0181Y00855D03*
X0185Y01055D03*
X0188Y00955D03*
X02245D03*
X0178Y01005D03*
X0168Y0073D03*
X0205Y0053D03*
X0157Y01139D03*
X01575Y0073D03*
X0157Y0099D03*
X0275Y00465D03*
Y00429D03*
X0205Y00719D03*
X00745Y0037D03*
G54D42*
X02393Y0057D03*
Y00614D03*
X02437Y0057D03*
Y00614D03*
G54D43*
X0291Y00937D03*
Y00822D03*
G54D44*
X02521Y0078D03*
Y0083D03*
Y0088D03*
Y0093D03*
X02734Y0078D03*
Y0083D03*
Y0088D03*
Y0093D03*
G54D45*
X00934Y00947D03*
X01009D03*
X00972Y00864D03*
X00765Y00947D03*
X0084D03*
X00803Y00864D03*
X00592Y00947D03*
X00667D03*
X00629Y00864D03*
X00063Y00947D03*
X00137D03*
X001Y00864D03*
X00423Y00947D03*
X00498D03*
X00461Y00864D03*
X00238Y00947D03*
X00313D03*
X00276Y00864D03*
X01717Y01317D03*
X01642D03*
X0168Y014D03*
X02107Y01417D03*
X02032D03*
X0207Y015D03*
X01867Y01417D03*
X01792D03*
X0183Y015D03*
G54D46*
X00276Y00714D03*
Y00785D03*
X00461Y00714D03*
Y00785D03*
X001Y00714D03*
Y00785D03*
X00629Y00714D03*
Y00785D03*
X00972Y00714D03*
Y00785D03*
X00803Y00714D03*
Y00785D03*
X0047Y01325D03*
Y01254D03*
X004D03*
Y01325D03*
X00905D03*
Y01254D03*
X00835D03*
Y01325D03*
X01335D03*
Y01254D03*
X01265D03*
Y01325D03*
G54D47*
X02234Y01865D03*
Y01698D03*
G54D48*
X01006Y01312D03*
Y01207D03*
G54D49*
X0059Y01403D03*
Y01156D03*
X0146Y01383D03*
Y01136D03*
M02*