%FSLAX25Y25*%
%MOIN*%
G70*
G01*
G75*
G04 Layer_Color=16711935*
%ADD10C,0.00787*%
%ADD11C,0.01575*%
%ADD12C,0.02756*%
%ADD13C,0.03150*%
%ADD14C,0.01969*%
%ADD15C,0.01181*%
%ADD16C,0.03937*%
%ADD17C,0.02362*%
%ADD18C,0.05906*%
%ADD19R,0.03937X0.03937*%
%ADD20O,0.08661X0.02362*%
%ADD21C,0.03937*%
%ADD22R,0.09449X0.06693*%
%ADD23R,0.15748X0.06299*%
%ADD24R,0.07874X0.05512*%
%ADD25R,0.05512X0.07874*%
%ADD26R,0.01181X0.02874*%
%ADD27R,0.02874X0.01181*%
%ADD28R,0.09843X0.09843*%
%ADD29C,0.05906*%
%ADD30R,0.05118X0.05118*%
%ADD31C,0.05118*%
%ADD32R,0.06890X0.06890*%
%ADD33C,0.06890*%
%ADD34C,0.06102*%
%ADD35R,0.06102X0.06102*%
%ADD36R,0.06102X0.06102*%
%ADD37R,0.06102X0.06000*%
%ADD38C,0.19685*%
%ADD39R,0.08071X0.08071*%
%ADD40C,0.08071*%
%ADD41C,0.02756*%
%ADD42C,0.02362*%
%ADD43R,0.10039X0.11614*%
%ADD44R,0.03937X0.03937*%
%ADD45R,0.08976X0.07480*%
%ADD46R,0.02362X0.05512*%
%ADD47R,0.08583X0.06378*%
%ADD48O,0.07008X0.02362*%
%ADD49R,0.07087X0.05906*%
%ADD50C,0.01000*%
%ADD51C,0.00984*%
%ADD52C,0.00591*%
%ADD53C,0.06693*%
%ADD54R,0.04724X0.04724*%
%ADD55O,0.09449X0.03150*%
%ADD56C,0.04724*%
%ADD57R,0.10236X0.07480*%
%ADD58R,0.16535X0.07087*%
%ADD59R,0.08661X0.06299*%
%ADD60R,0.06299X0.08661*%
%ADD61R,0.01969X0.03661*%
%ADD62R,0.03661X0.01969*%
%ADD63R,0.10630X0.10630*%
%ADD64R,0.05906X0.05906*%
%ADD65R,0.07677X0.07677*%
%ADD66C,0.07677*%
%ADD67R,0.06890X0.06890*%
%ADD68R,0.06890X0.06787*%
%ADD69C,0.20472*%
%ADD70R,0.08858X0.08858*%
%ADD71C,0.08858*%
%ADD72C,0.03543*%
%ADD73R,0.10827X0.12402*%
%ADD74R,0.04724X0.04724*%
%ADD75R,0.09764X0.08268*%
%ADD76R,0.03150X0.06299*%
%ADD77R,0.09370X0.07165*%
%ADD78O,0.07795X0.03150*%
%ADD79R,0.07874X0.06693*%
D18*
X256000Y139126D02*
D03*
Y147000D02*
D03*
D32*
X135500Y78500D02*
D03*
X188000Y53000D02*
D03*
X72953Y23779D02*
D03*
X122953D02*
D03*
X222953D02*
D03*
X289500Y106500D02*
D03*
D33*
X105500Y78500D02*
D03*
X115500D02*
D03*
X125500D02*
D03*
X281500Y146843D02*
D03*
Y137000D02*
D03*
X98000Y53000D02*
D03*
Y43000D02*
D03*
X108000Y53000D02*
D03*
Y43000D02*
D03*
X118000Y53000D02*
D03*
Y43000D02*
D03*
X188000D02*
D03*
X178000D02*
D03*
X168000D02*
D03*
X148000D02*
D03*
X158000D02*
D03*
Y53000D02*
D03*
X148000D02*
D03*
X168000D02*
D03*
X178000D02*
D03*
X138000D02*
D03*
Y43000D02*
D03*
X128000D02*
D03*
Y53000D02*
D03*
X88000D02*
D03*
Y43000D02*
D03*
X78000D02*
D03*
Y53000D02*
D03*
X68000Y43000D02*
D03*
Y53000D02*
D03*
X58000Y43000D02*
D03*
Y53000D02*
D03*
X48000Y43000D02*
D03*
Y53000D02*
D03*
X32953Y13780D02*
D03*
Y23779D02*
D03*
X42953Y13780D02*
D03*
Y23779D02*
D03*
X52953Y13780D02*
D03*
Y23779D02*
D03*
X62953Y13780D02*
D03*
Y23779D02*
D03*
X72953Y13780D02*
D03*
X82953Y23779D02*
D03*
Y13780D02*
D03*
X92953Y23779D02*
D03*
Y13780D02*
D03*
X102953Y23779D02*
D03*
Y13780D02*
D03*
X112953Y23779D02*
D03*
Y13780D02*
D03*
X122953D02*
D03*
X132953Y23779D02*
D03*
Y13780D02*
D03*
X142953Y23779D02*
D03*
Y13780D02*
D03*
X152953D02*
D03*
Y23779D02*
D03*
X162953Y13780D02*
D03*
Y23779D02*
D03*
X172953Y13780D02*
D03*
X182953D02*
D03*
Y23779D02*
D03*
X192953Y13780D02*
D03*
Y23779D02*
D03*
X202953Y13780D02*
D03*
X212953D02*
D03*
X202953Y23779D02*
D03*
X212953D02*
D03*
X222953Y13780D02*
D03*
X281500Y29500D02*
D03*
X282000Y90342D02*
D03*
Y80500D02*
D03*
Y70657D02*
D03*
X218500Y150000D02*
D03*
X194500Y150157D02*
D03*
X170500D02*
D03*
X279500Y106500D02*
D03*
D54*
X49665Y102209D02*
D03*
X42579D02*
D03*
X31161D02*
D03*
X24075D02*
D03*
X13595D02*
D03*
X6508D02*
D03*
X66524D02*
D03*
X59437D02*
D03*
X83846D02*
D03*
X76760D02*
D03*
X100776D02*
D03*
X93689D02*
D03*
X210543Y134500D02*
D03*
X203457D02*
D03*
X171543Y124500D02*
D03*
X164457D02*
D03*
X186543Y134500D02*
D03*
X179457D02*
D03*
D55*
X196051Y80500D02*
D03*
Y85500D02*
D03*
Y90500D02*
D03*
Y95500D02*
D03*
Y100500D02*
D03*
Y105500D02*
D03*
Y110500D02*
D03*
X214949Y80500D02*
D03*
Y85500D02*
D03*
Y90500D02*
D03*
Y95500D02*
D03*
Y100500D02*
D03*
Y105500D02*
D03*
Y110500D02*
D03*
D56*
X119500Y125457D02*
D03*
Y132543D02*
D03*
X76500Y125457D02*
D03*
Y132543D02*
D03*
X33000Y125457D02*
D03*
Y132543D02*
D03*
X258957Y99000D02*
D03*
X266043D02*
D03*
X242500Y81957D02*
D03*
Y89043D02*
D03*
X224500Y87543D02*
D03*
Y80457D02*
D03*
D64*
X256000Y131252D02*
D03*
D65*
X53583Y203000D02*
D03*
X60079Y175567D02*
D03*
X103579D02*
D03*
X146579D02*
D03*
X97083Y203031D02*
D03*
X140083D02*
D03*
D66*
X39803Y203000D02*
D03*
X33307Y175567D02*
D03*
X40000Y161000D02*
D03*
X46693Y175567D02*
D03*
X53386Y161000D02*
D03*
X76807Y175567D02*
D03*
X83500Y161000D02*
D03*
X90193Y175567D02*
D03*
X96886Y161000D02*
D03*
X119807Y175567D02*
D03*
X126500Y161000D02*
D03*
X133193Y175567D02*
D03*
X139886Y161000D02*
D03*
X83303Y203031D02*
D03*
X126303D02*
D03*
D67*
X281500Y127157D02*
D03*
Y19658D02*
D03*
X282000Y60815D02*
D03*
X218500Y159843D02*
D03*
X194500Y160000D02*
D03*
X170500D02*
D03*
D68*
X172953Y23779D02*
D03*
D69*
X13780Y18779D02*
D03*
Y211693D02*
D03*
X283465D02*
D03*
X242126Y18779D02*
D03*
Y211693D02*
D03*
D70*
X284500Y190000D02*
D03*
D71*
Y170000D02*
D03*
X262185Y186500D02*
D03*
X242500D02*
D03*
X183445D02*
D03*
X203130D02*
D03*
D72*
X74500Y37000D02*
D03*
D73*
X146000Y113697D02*
D03*
Y138303D02*
D03*
X59000Y115697D02*
D03*
Y140303D02*
D03*
D74*
X126500Y132543D02*
D03*
Y125457D02*
D03*
X133500Y125457D02*
D03*
Y132543D02*
D03*
X83500Y132543D02*
D03*
Y125457D02*
D03*
X90500Y125457D02*
D03*
Y132543D02*
D03*
X40000Y132543D02*
D03*
Y125457D02*
D03*
X47000Y125457D02*
D03*
Y132543D02*
D03*
X80303Y78543D02*
D03*
Y71457D02*
D03*
X97232Y78543D02*
D03*
Y71457D02*
D03*
X62980Y78543D02*
D03*
Y71457D02*
D03*
X10051Y78543D02*
D03*
Y71457D02*
D03*
X46122Y78543D02*
D03*
Y71457D02*
D03*
X27618Y78543D02*
D03*
Y71457D02*
D03*
D75*
X100650Y120764D02*
D03*
Y131236D02*
D03*
D76*
X183000Y150043D02*
D03*
X179260Y141776D02*
D03*
X186740D02*
D03*
X207000Y150043D02*
D03*
X203260Y141776D02*
D03*
X210740D02*
D03*
X168000Y140043D02*
D03*
X164260Y131776D02*
D03*
X171740D02*
D03*
X27618Y86457D02*
D03*
X31358Y94724D02*
D03*
X23878D02*
D03*
X46122Y86457D02*
D03*
X49862Y94724D02*
D03*
X42382D02*
D03*
X10051Y86457D02*
D03*
X13791Y94724D02*
D03*
X6311D02*
D03*
X62980Y86457D02*
D03*
X66720Y94724D02*
D03*
X59240D02*
D03*
X80303Y86457D02*
D03*
X84043Y94724D02*
D03*
X76563D02*
D03*
X97232Y86457D02*
D03*
X100972Y94724D02*
D03*
X93492D02*
D03*
D77*
X223484Y169886D02*
D03*
Y186500D02*
D03*
D78*
X273410Y93000D02*
D03*
Y88000D02*
D03*
Y83000D02*
D03*
Y78000D02*
D03*
X252150Y93000D02*
D03*
Y88000D02*
D03*
Y83000D02*
D03*
Y78000D02*
D03*
D79*
X291000Y82291D02*
D03*
Y93709D02*
D03*
M02*
