M48
;Layer_Color=9474304
;FILE_FORMAT=2:5
INCH,LZ
;TYPE=PLATED
T1F00S00C0.01181
T2F00S00C0.02953
T3F00S00C0.03937
T4F00S00C0.04724
T5F00S00C0.05906
T6F00S00C0.11811
%
T01
X0009Y0035
X00225Y00425
X0036Y0052
X00575Y00325
X0103
X0205Y0053
X02325Y00435
X0252
X0243728Y0057071
X0239398
X0275Y00465
Y0042957
X0256295Y0061205
X02595Y0066
X0243728Y0061402
X0239398
X02355Y0089
X02245Y00955
X0205Y00805
Y0071941
X02015Y00745
X01855Y00775
Y00815
X0181Y00855
X0188Y00955
X0185Y01055
X0178Y01005
X0157Y0099
Y0113902
X0159Y01245
X01225Y0113902
X01095
X01335Y00855
X0147575Y0085075
X01485Y0081
X01635Y008
X0161Y0077
X01575Y0073
X0168
X0143Y00585
X0097232Y0066732
X0080303Y0066697
X006298Y006652
X0052953Y0062547
X0046Y0061
X0046122Y0066622
X0027618Y0066618
X0010051Y0066551
X0036Y0113902
X0066
X00795
X0088Y00855
T02
X0256Y0131252
Y0139126
Y0147
T03
X0032953Y001378
Y0023779
X0042953
Y001378
X0052953
Y0023779
X0062953
Y001378
X0072953
Y0023779
X0082953
Y001378
X0092953
Y0023779
X0102953
Y001378
X0098Y0043
Y0053
X0088
Y0043
X0078
Y0053
X0068
Y0043
X0058
Y0053
X0048
Y0043
X0108
Y0053
X0118
Y0043
X0128
X0138
X0148
X0158
X0168
X0178
X0188
Y0053
X0178
X0168
X0158
X0148
X0138
X0128
X0132953Y0023779
X0122953
X0112953
Y001378
X0122953
X0132953
X0142953
Y0023779
X0152953
Y001378
X0162953
Y0023779
X0172953
Y001378
X0182953
Y0023779
X0192953
X0202953
X0212953
Y001378
X0202953
X0192953
X0222953
Y0023779
X02815Y0019658
Y00295
X0282Y0060815
Y0070657
Y00805
Y0090342
X02795Y01065
X02895
X02815Y0127157
Y0137
Y0146843
X02185Y015
Y0159843
X01945Y016
Y0150157
X01705
Y016
X0140083Y0203031
X0126303
X01255Y00785
X01155
X01055
X01355
X0097083Y0203031
X0083303
X0053583Y0203
X0039803
T04
X0103579Y0175567
X0119807
X0133193
X0146579
X0139886Y0161
X01265
X0096886
X00835
X0076807Y0175567
X0090193
X0060079
X0046693
X0033307
X004Y0161
X0053386
T05
X0262185Y01865
X02845Y019
Y017
X02425Y01865
X020313
X0183445
T06
X001378Y0018779
X0242126
X0283465Y0211693
X0242126
X001378
M30
