%FSLAX25Y25*%
%MOIN*%
G70*
G01*
G75*
G04 Layer_Color=32896*
%ADD10C,0.00787*%
%ADD11C,0.01575*%
%ADD12C,0.02756*%
%ADD13C,0.03150*%
%ADD14C,0.01969*%
%ADD15C,0.01181*%
%ADD16C,0.03937*%
%ADD17C,0.02362*%
%ADD18C,0.05906*%
%ADD19R,0.03937X0.03937*%
%ADD20O,0.08661X0.02362*%
%ADD21C,0.03937*%
%ADD22R,0.09449X0.06693*%
%ADD23R,0.15748X0.06299*%
%ADD24R,0.07874X0.05512*%
%ADD25R,0.05512X0.07874*%
%ADD26R,0.01181X0.02874*%
%ADD27R,0.02874X0.01181*%
%ADD28R,0.09843X0.09843*%
%ADD29C,0.05906*%
%ADD30R,0.05118X0.05118*%
%ADD31C,0.05118*%
%ADD32R,0.06890X0.06890*%
%ADD33C,0.06890*%
%ADD34C,0.06102*%
%ADD35R,0.06102X0.06102*%
%ADD36R,0.06102X0.06102*%
%ADD37R,0.06102X0.06000*%
%ADD38C,0.19685*%
%ADD39R,0.08071X0.08071*%
%ADD40C,0.08071*%
%ADD41C,0.02756*%
%ADD42C,0.02362*%
%ADD43R,0.10039X0.11614*%
%ADD44R,0.03937X0.03937*%
%ADD45R,0.08976X0.07480*%
%ADD46R,0.02362X0.05512*%
%ADD47R,0.08583X0.06378*%
%ADD48O,0.07008X0.02362*%
%ADD49R,0.07087X0.05906*%
%ADD50C,0.01000*%
%ADD51C,0.00984*%
%ADD52C,0.00591*%
%ADD53C,0.06693*%
%ADD54R,0.04724X0.04724*%
%ADD55O,0.09449X0.03150*%
%ADD56C,0.04724*%
%ADD57R,0.10236X0.07480*%
%ADD58R,0.16535X0.07087*%
%ADD59R,0.08661X0.06299*%
%ADD60R,0.06299X0.08661*%
%ADD61R,0.01969X0.03661*%
%ADD62R,0.03661X0.01969*%
%ADD63R,0.10630X0.10630*%
%ADD64R,0.05906X0.05906*%
%ADD65R,0.07677X0.07677*%
%ADD66C,0.07677*%
%ADD67R,0.06890X0.06890*%
%ADD68R,0.06890X0.06787*%
%ADD69C,0.20472*%
%ADD70R,0.08858X0.08858*%
%ADD71C,0.08858*%
%ADD72C,0.03543*%
%ADD73R,0.10827X0.12402*%
%ADD74R,0.04724X0.04724*%
%ADD75R,0.09764X0.08268*%
%ADD76R,0.03150X0.06299*%
%ADD77R,0.09370X0.07165*%
%ADD78O,0.07795X0.03150*%
%ADD79R,0.07874X0.06693*%
D10*
X155100Y119500D02*
Y132500D01*
X137000Y119700D02*
Y132400D01*
X140900Y145400D02*
X151200D01*
X68100Y121500D02*
Y134500D01*
X50000Y121700D02*
Y134400D01*
X53900Y147400D02*
X64200D01*
X124900Y128300D02*
Y129700D01*
X128100Y128300D02*
Y129700D01*
X135100Y128300D02*
Y129700D01*
X131900Y128300D02*
Y129700D01*
X81900Y128300D02*
Y129700D01*
X85100Y128300D02*
Y129700D01*
X92100Y128300D02*
Y129700D01*
X88900Y128300D02*
Y129700D01*
X38400Y128300D02*
Y129700D01*
X41600Y128300D02*
Y129700D01*
X48600Y128300D02*
Y129700D01*
X45400Y128300D02*
Y129700D01*
X96555Y136158D02*
X104744D01*
X106161Y124425D02*
Y127575D01*
X95138Y124425D02*
Y127575D01*
X121075Y128213D02*
Y129787D01*
X117925Y128213D02*
Y129787D01*
X78075Y128213D02*
Y129787D01*
X74925Y128213D02*
Y129787D01*
X34575Y128213D02*
Y129787D01*
X31425Y128213D02*
Y129787D01*
X261713Y97425D02*
X263287D01*
X261713Y100575D02*
X263287D01*
X244075Y84713D02*
Y86287D01*
X240925Y84713D02*
Y86287D01*
X177094Y149256D02*
X180244D01*
X177094Y147681D02*
Y149256D01*
X185756D02*
X188906D01*
Y147681D02*
Y149256D01*
X45422Y103809D02*
X46822D01*
X45422Y100609D02*
X46822D01*
X26918Y103809D02*
X28318D01*
X26918Y100609D02*
X28318D01*
X9351Y103809D02*
X10751D01*
X9351Y100609D02*
X10751D01*
X62280Y103809D02*
X63680D01*
X62280Y100609D02*
X63680D01*
X79603Y103809D02*
X81003D01*
X79603Y100609D02*
X81003D01*
X96532Y103809D02*
X97932D01*
X96532Y100609D02*
X97932D01*
X201957Y78374D02*
Y112626D01*
X209043Y78374D02*
Y112626D01*
X201957Y78374D02*
X209043D01*
X201957Y112626D02*
X209043D01*
X222925Y83213D02*
Y84787D01*
X226075Y83213D02*
Y84787D01*
X27952Y8779D02*
Y28780D01*
Y8779D02*
X227953D01*
X27952Y28780D02*
X227953D01*
Y8779D02*
Y28780D01*
X231358Y169138D02*
Y187248D01*
X215610Y169138D02*
Y187248D01*
X229350Y169138D02*
X231358D01*
X229350Y187248D02*
X231358D01*
X215610Y169138D02*
X217618D01*
X215610Y187248D02*
X217618D01*
X206300Y136100D02*
X207700D01*
X206300Y132900D02*
X207700D01*
X201095Y149256D02*
X204244D01*
X201095Y147681D02*
Y149256D01*
X209756D02*
X212906D01*
Y147681D02*
Y149256D01*
X167300Y126100D02*
X168700D01*
X167300Y122900D02*
X168700D01*
X162094Y139256D02*
X165244D01*
X162094Y137681D02*
Y139256D01*
X170756D02*
X173906D01*
Y137681D02*
Y139256D01*
X182300Y136100D02*
X183700D01*
X182300Y132900D02*
X183700D01*
X78703Y74300D02*
Y75700D01*
X81903Y74300D02*
Y75700D01*
X95632Y74300D02*
Y75700D01*
X98832Y74300D02*
Y75700D01*
X61380Y74300D02*
Y75700D01*
X64580Y74300D02*
Y75700D01*
X8451Y74300D02*
Y75700D01*
X11651Y74300D02*
Y75700D01*
X44522Y74300D02*
Y75700D01*
X47722Y74300D02*
Y75700D01*
X26018Y74300D02*
Y75700D01*
X29218Y74300D02*
Y75700D01*
X30374Y87244D02*
X33524D01*
Y88819D01*
X21713Y87244D02*
X24862D01*
X21713D02*
Y88819D01*
X48878Y87244D02*
X52028D01*
Y88819D01*
X40216Y87244D02*
X43366D01*
X40216D02*
Y88819D01*
X12807Y87244D02*
X15957D01*
Y88819D01*
X4146Y87244D02*
X7295D01*
X4146D02*
Y88819D01*
X65736Y87244D02*
X68886D01*
Y88819D01*
X57075Y87244D02*
X60224D01*
X57075D02*
Y88819D01*
X83059Y87244D02*
X86209D01*
Y88819D01*
X74398Y87244D02*
X77547D01*
X74398D02*
Y88819D01*
X99988Y87244D02*
X103138D01*
Y88819D01*
X91327Y87244D02*
X94476D01*
X91327D02*
Y88819D01*
X259236Y95342D02*
X266323D01*
X259236Y75657D02*
X266323D01*
Y95342D01*
X259236Y75657D02*
Y95342D01*
X294200Y86300D02*
Y89700D01*
X287800Y86300D02*
Y89700D01*
D17*
X264354Y79594D02*
G03*
X264354Y79594I-1181J0D01*
G01*
D51*
X190579Y142957D02*
G03*
X190579Y142957I-492J0D01*
G01*
X196543Y77153D02*
G03*
X196543Y77153I-492J0D01*
G01*
X230433Y166579D02*
G03*
X230433Y166579I-492J0D01*
G01*
X214579Y142957D02*
G03*
X214579Y142957I-492J0D01*
G01*
X175579Y132957D02*
G03*
X175579Y132957I-492J0D01*
G01*
X21024Y93543D02*
G03*
X21024Y93543I-492J0D01*
G01*
X39528D02*
G03*
X39528Y93543I-492J0D01*
G01*
X3457D02*
G03*
X3457Y93543I-492J0D01*
G01*
X56386D02*
G03*
X56386Y93543I-492J0D01*
G01*
X73709D02*
G03*
X73709Y93543I-492J0D01*
G01*
X90638D02*
G03*
X90638Y93543I-492J0D01*
G01*
X253823Y74654D02*
G03*
X253823Y74654I-492J0D01*
G01*
D52*
X242427Y97525D02*
X243083Y98181D01*
X244395D01*
X245051Y97525D01*
Y94901D01*
X244395Y94245D01*
X243083D01*
X242427Y94901D01*
X239147Y94245D02*
Y98181D01*
X241115Y96213D01*
X238492D01*
X262124Y104220D02*
X261468Y103564D01*
X260156D01*
X259500Y104220D01*
Y106844D01*
X260156Y107500D01*
X261468D01*
X262124Y106844D01*
X266060Y103564D02*
X263436D01*
Y105532D01*
X264748Y104876D01*
X265404D01*
X266060Y105532D01*
Y106844D01*
X265404Y107500D01*
X264092D01*
X263436Y106844D01*
X224427Y96025D02*
X225083Y96680D01*
X226395D01*
X227051Y96025D01*
Y93401D01*
X226395Y92745D01*
X225083D01*
X224427Y93401D01*
X220492Y96680D02*
X221803Y96025D01*
X223115Y94713D01*
Y93401D01*
X222459Y92745D01*
X221147D01*
X220492Y93401D01*
Y94057D01*
X221147Y94713D01*
X223115D01*
X34280Y113624D02*
X34936Y112968D01*
Y111656D01*
X34280Y111000D01*
X31656D01*
X31000Y111656D01*
Y112968D01*
X31656Y113624D01*
Y114936D02*
X31000Y115592D01*
Y116904D01*
X31656Y117560D01*
X34280D01*
X34936Y116904D01*
Y115592D01*
X34280Y114936D01*
X33624D01*
X32968Y115592D01*
Y117560D01*
X77780Y113624D02*
X78436Y112968D01*
Y111656D01*
X77780Y111000D01*
X75156D01*
X74500Y111656D01*
Y112968D01*
X75156Y113624D01*
X74500Y114936D02*
Y116248D01*
Y115592D01*
X78436D01*
X77780Y114936D01*
X74500Y120839D02*
Y118216D01*
X77124Y120839D01*
X77780D01*
X78436Y120183D01*
Y118871D01*
X77780Y118216D01*
X120780Y113624D02*
X121436Y112968D01*
Y111656D01*
X120780Y111000D01*
X118156D01*
X117500Y111656D01*
Y112968D01*
X118156Y113624D01*
X117500Y114936D02*
Y116248D01*
Y115592D01*
X121436D01*
X120780Y114936D01*
X121436Y120839D02*
Y118216D01*
X119468D01*
X120124Y119527D01*
Y120183D01*
X119468Y120839D01*
X118156D01*
X117500Y120183D01*
Y118871D01*
X118156Y118216D01*
X61376Y116280D02*
X62032Y116936D01*
X63344D01*
X64000Y116280D01*
Y113656D01*
X63344Y113000D01*
X62032D01*
X61376Y113656D01*
X60064Y113000D02*
X58752D01*
X59408D01*
Y116936D01*
X60064Y116280D01*
X56784D02*
X56129Y116936D01*
X54817D01*
X54161Y116280D01*
Y113656D01*
X54817Y113000D01*
X56129D01*
X56784Y113656D01*
Y116280D01*
X103524Y114280D02*
X104180Y114936D01*
X105492D01*
X106148Y114280D01*
Y111656D01*
X105492Y111000D01*
X104180D01*
X103524Y111656D01*
X102212Y111000D02*
X100900D01*
X101556D01*
Y114936D01*
X102212Y114280D01*
X98933D02*
X98277Y114936D01*
X96965D01*
X96309Y114280D01*
Y113624D01*
X96965Y112968D01*
X97621D01*
X96965D01*
X96309Y112312D01*
Y111656D01*
X96965Y111000D01*
X98277D01*
X98933Y111656D01*
X148875Y114280D02*
X149531Y114936D01*
X150843D01*
X151498Y114280D01*
Y111656D01*
X150843Y111000D01*
X149531D01*
X148875Y111656D01*
X147563Y111000D02*
X146251D01*
X146907D01*
Y114936D01*
X147563Y114280D01*
X141659Y114936D02*
X142971Y114280D01*
X144283Y112968D01*
Y111656D01*
X143627Y111000D01*
X142315D01*
X141659Y111656D01*
Y112312D01*
X142315Y112968D01*
X144283D01*
X232833Y198974D02*
Y195038D01*
X230865D01*
X230209Y195694D01*
Y198318D01*
X230865Y198974D01*
X232833D01*
X228897Y195038D02*
X227586D01*
X228241D01*
Y198974D01*
X228897Y198318D01*
X225127Y35680D02*
X226439D01*
X225783D01*
Y32401D01*
X226439Y31745D01*
X227095D01*
X227751Y32401D01*
X221192Y35680D02*
X223815D01*
Y33713D01*
X222503Y34369D01*
X221848D01*
X221192Y33713D01*
Y32401D01*
X221848Y31745D01*
X223159D01*
X223815Y32401D01*
X187827Y157601D02*
Y160225D01*
X188483Y160880D01*
X189795D01*
X190451Y160225D01*
Y157601D01*
X189795Y156945D01*
X188483D01*
X189139Y158257D02*
X187827Y156945D01*
X188483D02*
X187827Y157601D01*
X183891Y160880D02*
X185203Y160225D01*
X186515Y158913D01*
Y157601D01*
X185859Y156945D01*
X184547D01*
X183891Y157601D01*
Y158257D01*
X184547Y158913D01*
X186515D01*
X90389Y75124D02*
X93012D01*
X93668Y74468D01*
Y73156D01*
X93012Y72500D01*
X90389D01*
X89733Y73156D01*
Y74468D01*
X91044Y73812D02*
X89733Y75124D01*
Y74468D02*
X90389Y75124D01*
X89733Y76436D02*
Y77748D01*
Y77092D01*
X93668D01*
X93012Y76436D01*
X156376Y137656D02*
Y140280D01*
X157032Y140936D01*
X158344D01*
X159000Y140280D01*
Y137656D01*
X158344Y137000D01*
X157032D01*
X157688Y138312D02*
X156376Y137000D01*
X157032D02*
X156376Y137656D01*
X155064Y140936D02*
X152440D01*
Y140280D01*
X155064Y137656D01*
Y137000D01*
X73459Y74124D02*
X76083D01*
X76739Y73468D01*
Y72156D01*
X76083Y71500D01*
X73459D01*
X72803Y72156D01*
Y73468D01*
X74115Y72812D02*
X72803Y74124D01*
Y73468D02*
X73459Y74124D01*
X72803Y78060D02*
Y75436D01*
X75427Y78060D01*
X76083D01*
X76739Y77404D01*
Y76092D01*
X76083Y75436D01*
X194376Y144656D02*
Y147280D01*
X195032Y147936D01*
X196344D01*
X197000Y147280D01*
Y144656D01*
X196344Y144000D01*
X195032D01*
X195688Y145312D02*
X194376Y144000D01*
X195032D02*
X194376Y144656D01*
X193064Y147280D02*
X192408Y147936D01*
X191096D01*
X190440Y147280D01*
Y146624D01*
X191096Y145968D01*
X190440Y145312D01*
Y144656D01*
X191096Y144000D01*
X192408D01*
X193064Y144656D01*
Y145312D01*
X192408Y145968D01*
X193064Y146624D01*
Y147280D01*
X192408Y145968D02*
X191096D01*
X56137Y74624D02*
X58760D01*
X59416Y73968D01*
Y72656D01*
X58760Y72000D01*
X56137D01*
X55481Y72656D01*
Y73968D01*
X56792Y73312D02*
X55481Y74624D01*
Y73968D02*
X56137Y74624D01*
X58760Y75936D02*
X59416Y76592D01*
Y77904D01*
X58760Y78560D01*
X58104D01*
X57449Y77904D01*
Y77248D01*
Y77904D01*
X56792Y78560D01*
X56137D01*
X55481Y77904D01*
Y76592D01*
X56137Y75936D01*
X2967Y74624D02*
X5591D01*
X6247Y73968D01*
Y72656D01*
X5591Y72000D01*
X2967D01*
X2311Y72656D01*
Y73968D01*
X3623Y73312D02*
X2311Y74624D01*
Y73968D02*
X2967Y74624D01*
X2311Y77904D02*
X6247D01*
X4279Y75936D01*
Y78560D01*
X20274Y74124D02*
X22898D01*
X23554Y73468D01*
Y72156D01*
X22898Y71500D01*
X20274D01*
X19618Y72156D01*
Y73468D01*
X20930Y72812D02*
X19618Y74124D01*
Y73468D02*
X20274Y74124D01*
Y75436D02*
X19618Y76092D01*
Y77404D01*
X20274Y78060D01*
X22898D01*
X23554Y77404D01*
Y76092D01*
X22898Y75436D01*
X22242D01*
X21586Y76092D01*
Y78060D01*
X38778Y74624D02*
X41402D01*
X42058Y73968D01*
Y72656D01*
X41402Y72000D01*
X38778D01*
X38122Y72656D01*
Y73968D01*
X39434Y73312D02*
X38122Y74624D01*
Y73968D02*
X38778Y74624D01*
X42058Y78560D02*
Y75936D01*
X40090D01*
X40746Y77248D01*
Y77904D01*
X40090Y78560D01*
X38778D01*
X38122Y77904D01*
Y76592D01*
X38778Y75936D01*
X295151Y100245D02*
Y104181D01*
X293183D01*
X292527Y103525D01*
Y102213D01*
X293183Y101557D01*
X295151D01*
X293839D02*
X292527Y100245D01*
X288592D02*
X291215D01*
X288592Y102869D01*
Y103525D01*
X289247Y104181D01*
X290559D01*
X291215Y103525D01*
X188000Y126500D02*
Y130436D01*
X186032D01*
X185376Y129780D01*
Y128468D01*
X186032Y127812D01*
X188000D01*
X186688D02*
X185376Y126500D01*
X184064D02*
X182752D01*
X183408D01*
Y130436D01*
X184064Y129780D01*
X178817Y126500D02*
Y130436D01*
X180784Y128468D01*
X178161D01*
X93732Y110000D02*
Y106064D01*
X95700D01*
X96356Y106720D01*
Y108032D01*
X95700Y108688D01*
X93732D01*
X95044D02*
X96356Y110000D01*
X99636D02*
Y106064D01*
X97668Y108032D01*
X100292D01*
X101732Y72000D02*
X105668D01*
Y73968D01*
X105012Y74624D01*
X103700D01*
X103044Y73968D01*
Y72000D01*
Y73312D02*
X101732Y74624D01*
X102388Y75936D02*
X101732Y76592D01*
Y77904D01*
X102388Y78560D01*
X105012D01*
X105668Y77904D01*
Y76592D01*
X105012Y75936D01*
X104356D01*
X103700Y76592D01*
Y78560D01*
X173000Y116000D02*
Y119936D01*
X171032D01*
X170376Y119280D01*
Y117968D01*
X171032Y117312D01*
X173000D01*
X171688D02*
X170376Y116000D01*
X169064D02*
X167752D01*
X168408D01*
Y119936D01*
X169064Y119280D01*
X163161Y119936D02*
X165785D01*
Y117968D01*
X164473Y118624D01*
X163817D01*
X163161Y117968D01*
Y116656D01*
X163817Y116000D01*
X165129D01*
X165785Y116656D01*
X77303Y110000D02*
Y106064D01*
X79271D01*
X79927Y106720D01*
Y108032D01*
X79271Y108688D01*
X77303D01*
X78615D02*
X79927Y110000D01*
X83863Y106064D02*
X81239D01*
Y108032D01*
X82551Y107376D01*
X83207D01*
X83863Y108032D01*
Y109344D01*
X83207Y110000D01*
X81895D01*
X81239Y109344D01*
X84303Y71000D02*
X88239D01*
Y72968D01*
X87583Y73624D01*
X86271D01*
X85615Y72968D01*
Y71000D01*
Y72312D02*
X84303Y73624D01*
Y74936D02*
Y76248D01*
Y75592D01*
X88239D01*
X87583Y74936D01*
Y78215D02*
X88239Y78872D01*
Y80183D01*
X87583Y80839D01*
X84959D01*
X84303Y80183D01*
Y78872D01*
X84959Y78215D01*
X87583D01*
X212000Y126000D02*
Y129936D01*
X210032D01*
X209376Y129280D01*
Y127968D01*
X210032Y127312D01*
X212000D01*
X210688D02*
X209376Y126000D01*
X208064D02*
X206752D01*
X207408D01*
Y129936D01*
X208064Y129280D01*
X202161Y129936D02*
X203473Y129280D01*
X204784Y127968D01*
Y126656D01*
X204129Y126000D01*
X202817D01*
X202161Y126656D01*
Y127312D01*
X202817Y127968D01*
X204784D01*
X59980Y110000D02*
Y106064D01*
X61948D01*
X62604Y106720D01*
Y108032D01*
X61948Y108688D01*
X59980D01*
X61292D02*
X62604Y110000D01*
X66540Y106064D02*
X65228Y106720D01*
X63916Y108032D01*
Y109344D01*
X64572Y110000D01*
X65884D01*
X66540Y109344D01*
Y108688D01*
X65884Y108032D01*
X63916D01*
X66980Y71000D02*
X70916D01*
Y72968D01*
X70260Y73624D01*
X68948D01*
X68292Y72968D01*
Y71000D01*
Y72312D02*
X66980Y73624D01*
Y74936D02*
Y76248D01*
Y75592D01*
X70916D01*
X70260Y74936D01*
X66980Y78215D02*
Y79527D01*
Y78872D01*
X70916D01*
X70260Y78215D01*
X6311Y110500D02*
Y106564D01*
X8279D01*
X8935Y107220D01*
Y108532D01*
X8279Y109188D01*
X6311D01*
X7623D02*
X8935Y110500D01*
X10247Y106564D02*
X12871D01*
Y107220D01*
X10247Y109844D01*
Y110500D01*
X14311Y70500D02*
X18247D01*
Y72468D01*
X17591Y73124D01*
X16279D01*
X15623Y72468D01*
Y70500D01*
Y71812D02*
X14311Y73124D01*
Y74436D02*
Y75748D01*
Y75092D01*
X18247D01*
X17591Y74436D01*
X14311Y80339D02*
Y77715D01*
X16935Y80339D01*
X17591D01*
X18247Y79683D01*
Y78372D01*
X17591Y77715D01*
X22618Y110000D02*
Y106064D01*
X24586D01*
X25242Y106720D01*
Y108032D01*
X24586Y108688D01*
X22618D01*
X23930D02*
X25242Y110000D01*
X26554D02*
X27866D01*
X27210D01*
Y106064D01*
X26554Y106720D01*
X29834Y106064D02*
X32458D01*
Y106720D01*
X29834Y109344D01*
Y110000D01*
X31618Y70500D02*
X35554D01*
Y72468D01*
X34898Y73124D01*
X33586D01*
X32930Y72468D01*
Y70500D01*
Y71812D02*
X31618Y73124D01*
Y74436D02*
Y75748D01*
Y75092D01*
X35554D01*
X34898Y74436D01*
X32274Y77715D02*
X31618Y78372D01*
Y79683D01*
X32274Y80339D01*
X34898D01*
X35554Y79683D01*
Y78372D01*
X34898Y77715D01*
X34242D01*
X33586Y78372D01*
Y80339D01*
X42622Y110000D02*
Y106064D01*
X44590D01*
X45246Y106720D01*
Y108032D01*
X44590Y108688D01*
X42622D01*
X43934D02*
X45246Y110000D01*
X46558Y106720D02*
X47214Y106064D01*
X48526D01*
X49182Y106720D01*
Y107376D01*
X48526Y108032D01*
X49182Y108688D01*
Y109344D01*
X48526Y110000D01*
X47214D01*
X46558Y109344D01*
Y108688D01*
X47214Y108032D01*
X46558Y107376D01*
Y106720D01*
X47214Y108032D02*
X48526D01*
X50122Y70500D02*
X54058D01*
Y72468D01*
X53402Y73124D01*
X52090D01*
X51434Y72468D01*
Y70500D01*
Y71812D02*
X50122Y73124D01*
Y74436D02*
Y75748D01*
Y75092D01*
X54058D01*
X53402Y74436D01*
Y77715D02*
X54058Y78372D01*
Y79683D01*
X53402Y80339D01*
X52746D01*
X52090Y79683D01*
Y79027D01*
Y79683D01*
X51434Y80339D01*
X50778D01*
X50122Y79683D01*
Y78372D01*
X50778Y77715D01*
X45000Y111000D02*
X48936D01*
Y112968D01*
X48280Y113624D01*
X46968D01*
X46312Y112968D01*
Y111000D01*
Y112312D02*
X45000Y113624D01*
Y117560D02*
Y114936D01*
X47624Y117560D01*
X48280D01*
X48936Y116904D01*
Y115592D01*
X48280Y114936D01*
Y118871D02*
X48936Y119527D01*
Y120839D01*
X48280Y121495D01*
X45656D01*
X45000Y120839D01*
Y119527D01*
X45656Y118871D01*
X48280D01*
X38000Y111000D02*
X41936D01*
Y112968D01*
X41280Y113624D01*
X39968D01*
X39312Y112968D01*
Y111000D01*
Y112312D02*
X38000Y113624D01*
Y117560D02*
Y114936D01*
X40624Y117560D01*
X41280D01*
X41936Y116904D01*
Y115592D01*
X41280Y114936D01*
X38000Y118871D02*
Y120183D01*
Y119527D01*
X41936D01*
X41280Y118871D01*
X89000Y111000D02*
X92936D01*
Y112968D01*
X92280Y113624D01*
X90968D01*
X90312Y112968D01*
Y111000D01*
Y112312D02*
X89000Y113624D01*
Y117560D02*
Y114936D01*
X91624Y117560D01*
X92280D01*
X92936Y116904D01*
Y115592D01*
X92280Y114936D01*
X89000Y121495D02*
Y118871D01*
X91624Y121495D01*
X92280D01*
X92936Y120839D01*
Y119527D01*
X92280Y118871D01*
X81500Y111000D02*
X85436D01*
Y112968D01*
X84780Y113624D01*
X83468D01*
X82812Y112968D01*
Y111000D01*
Y112312D02*
X81500Y113624D01*
Y117560D02*
Y114936D01*
X84124Y117560D01*
X84780D01*
X85436Y116904D01*
Y115592D01*
X84780Y114936D01*
Y118871D02*
X85436Y119527D01*
Y120839D01*
X84780Y121495D01*
X84124D01*
X83468Y120839D01*
Y120183D01*
Y120839D01*
X82812Y121495D01*
X82156D01*
X81500Y120839D01*
Y119527D01*
X82156Y118871D01*
X131500Y111000D02*
X135436D01*
Y112968D01*
X134780Y113624D01*
X133468D01*
X132812Y112968D01*
Y111000D01*
Y112312D02*
X131500Y113624D01*
Y117560D02*
Y114936D01*
X134124Y117560D01*
X134780D01*
X135436Y116904D01*
Y115592D01*
X134780Y114936D01*
X131500Y120839D02*
X135436D01*
X133468Y118871D01*
Y121495D01*
X124500Y111000D02*
X128436D01*
Y112968D01*
X127780Y113624D01*
X126468D01*
X125812Y112968D01*
Y111000D01*
Y112312D02*
X124500Y113624D01*
Y117560D02*
Y114936D01*
X127124Y117560D01*
X127780D01*
X128436Y116904D01*
Y115592D01*
X127780Y114936D01*
X128436Y121495D02*
Y118871D01*
X126468D01*
X127124Y120183D01*
Y120839D01*
X126468Y121495D01*
X125156D01*
X124500Y120839D01*
Y119527D01*
X125156Y118871D01*
X277151Y103080D02*
Y99801D01*
X276495Y99145D01*
X275183D01*
X274527Y99801D01*
Y103080D01*
X270591Y99145D02*
X273215D01*
X270591Y101769D01*
Y102425D01*
X271248Y103080D01*
X272559D01*
X273215Y102425D01*
X182500Y81064D02*
Y84344D01*
X183156Y85000D01*
X184468D01*
X185124Y84344D01*
Y81064D01*
X188404Y85000D02*
Y81064D01*
X186436Y83032D01*
X189060D01*
M02*
